<svg width="24" height="24" viewBox="0 0 24 24" fill="none" xmlns="http://www.w3.org/2000/svg">
<path d="M10.9313 16.6313C10.5378 17.0248 10.562 17.6742 10.7105 18.2105C10.9908 19.2238 10.6058 20.5192 9.86257 21.2624C8.87884 22.2462 7.28391 22.2462 6.30018 21.2624C5.31645 20.2787 5.31646 18.6838 6.30018 17.7001C5.31646 18.6838 3.72152 18.6838 2.73779 17.7001C1.75407 16.7163 1.75407 15.1214 2.73779 14.1377C3.48101 13.3945 4.77646 13.0094 5.7897 13.2898C6.32603 13.4382 6.97541 13.4625 7.3689 13.069M16.6311 10.9315C17.0246 10.538 17.674 10.5623 18.2103 10.7107C19.2235 10.9911 20.519 10.606 21.2622 9.86281C22.2459 8.87909 22.2459 7.28415 21.2622 6.30043C20.2785 5.3167 18.6835 5.3167 17.6998 6.30043C18.6835 5.3167 18.6835 3.72176 17.6998 2.73804C16.7161 1.75431 15.1212 1.75431 14.1374 2.73804C13.3942 3.48126 13.0092 4.77671 13.2895 5.78995C13.438 6.32627 13.4622 6.97565 13.0687 7.36914" stroke="#1C274C" stroke-width="1.5" stroke-linejoin="round"/>
<path opacity="0.5" d="M17.1614 11.4619C17.4543 11.169 17.4543 10.6941 17.1614 10.4012C16.8685 10.1083 16.3937 10.1083 16.1008 10.4012L17.1614 11.4619ZM13.599 7.89947C13.8919 7.60658 13.8919 7.1317 13.599 6.83881C13.3062 6.54592 12.8313 6.54592 12.5384 6.83881L13.599 7.89947ZM11.4616 17.1617L17.1614 11.4619L16.1008 10.4012L10.401 16.101L11.4616 17.1617ZM7.89923 13.5993L13.599 7.89947L12.5384 6.83881L6.83857 12.5386L7.89923 13.5993Z" fill="#1C274C"/>
</svg>
