<svg width="24" height="24" viewBox="0 0 24 24" fill="none" xmlns="http://www.w3.org/2000/svg">
<path opacity="0.5" d="M14.381 17.6475V18.3975C14.7952 18.3975 15.131 18.0618 15.131 17.6475H14.381ZM19.6191 12.4711V13.2211C19.8398 13.2211 20.0493 13.1239 20.1918 12.9553C20.3343 12.7868 20.3954 12.564 20.3587 12.3464L19.6191 12.4711ZM18.615 6.51712L17.8754 6.64185L18.615 6.51712ZM14.381 3.25049C13.9668 3.25049 13.631 3.58627 13.631 4.00049C13.631 4.4147 13.9668 4.75049 14.381 4.75049V3.25049ZM18.163 4.84052L17.5408 5.25923V5.25923L18.163 4.84052ZM17.3566 4.16539L17.6606 3.47975V3.47975L17.3566 4.16539ZM15.131 17.6475C15.131 15.2112 17.132 13.2211 19.6191 13.2211V11.7211C16.3204 11.7211 13.631 14.3661 13.631 17.6475H15.131ZM14.381 16.8975H6.76196V18.3975H14.381V16.8975ZM20.3587 12.3464L19.3545 6.3924L17.8754 6.64185L18.8795 12.5958L20.3587 12.3464ZM15.6088 3.25049H14.381V4.75049H15.6088V3.25049ZM19.3545 6.3924C19.281 5.95659 19.2194 5.5883 19.145 5.28859C19.0683 4.97948 18.9661 4.69051 18.7853 4.42181L17.5408 5.25923C17.5857 5.32599 17.6341 5.42828 17.6892 5.65008C17.7466 5.88129 17.7981 6.18357 17.8754 6.64185L19.3545 6.3924ZM15.6088 4.75049C16.0786 4.75049 16.3899 4.75097 16.6313 4.76901C16.8635 4.78637 16.9762 4.81714 17.0526 4.85103L17.6606 3.47975C17.365 3.34874 17.0625 3.29706 16.7431 3.27319C16.4329 3.25 16.0563 3.25049 15.6088 3.25049V4.75049ZM18.7853 4.42181C18.5069 4.00815 18.1167 3.68196 17.6606 3.47975L17.0526 4.85103C17.2522 4.93953 17.4212 5.08145 17.5408 5.25923L18.7853 4.42181Z" fill="#1C274C"/>
<path d="M6.0119 17.6476C6.0119 18.5246 5.2901 19.2506 4.38095 19.2506V20.7506C6.10174 20.7506 7.5119 19.3697 7.5119 17.6476H6.0119ZM4.38095 19.2506C3.47181 19.2506 2.75 18.5246 2.75 17.6476H1.25C1.25 19.3697 2.66017 20.7506 4.38095 20.7506V19.2506ZM2.75 17.6476C2.75 16.7707 3.47181 16.0447 4.38095 16.0447V14.5447C2.66017 14.5447 1.25 15.9256 1.25 17.6476H2.75ZM4.38095 16.0447C5.2901 16.0447 6.0119 16.7707 6.0119 17.6476H7.5119C7.5119 15.9256 6.10174 14.5447 4.38095 14.5447V16.0447Z" fill="#1C274C"/>
<path d="M21.2499 17.6476C21.2499 18.5246 20.5281 19.2506 19.619 19.2506V20.7506C21.3398 20.7506 22.7499 19.3697 22.7499 17.6476H21.2499ZM19.619 19.2506C18.7098 19.2506 17.988 18.5246 17.988 17.6476H16.488C16.488 19.3697 17.8982 20.7506 19.619 20.7506V19.2506ZM17.988 17.6476C17.988 16.7707 18.7098 16.0447 19.619 16.0447V14.5447C17.8982 14.5447 16.488 15.9256 16.488 17.6476H17.988ZM19.619 16.0447C20.5281 16.0447 21.2499 16.7707 21.2499 17.6476H22.7499C22.7499 15.9256 21.3398 14.5447 19.619 14.5447V16.0447Z" fill="#1C274C"/>
</svg>
