<svg width="24" height="24" viewBox="0 0 24 24" fill="none" xmlns="http://www.w3.org/2000/svg">
<path opacity="0.5" d="M12.5503 11.2499L11.8003 11.2499L11.8003 12.7499L12.5503 12.7499L12.5503 11.2499ZM18 12.7499C18.4142 12.7499 18.75 12.4141 18.75 11.9999C18.75 11.5857 18.4142 11.2499 18 11.2499L18 12.7499ZM12.5503 12.7499L18 12.7499L18 11.2499L12.5503 11.2499L12.5503 12.7499Z" fill="#1C274C"/>
<path d="M6 11.2499C5.58579 11.2499 5.25 11.5857 5.25 11.9999C5.25 12.4141 5.58579 12.7499 6 12.7499V11.2499ZM11.25 12.7499H12V11.2499H11.25V12.7499ZM6 12.7499H11.25V11.2499H6V12.7499Z" fill="#1C274C"/>
</svg>
