<svg width="24" height="24" viewBox="0 0 24 24" fill="none" xmlns="http://www.w3.org/2000/svg">
<path d="M5 8C5 5.17157 5 3.75736 5.87868 2.87868C6.75736 2 8.17157 2 11 2H13C15.8284 2 17.2426 2 18.1213 2.87868C19 3.75736 19 5.17157 19 8V16C19 18.8284 19 20.2426 18.1213 21.1213C17.2426 22 15.8284 22 13 22H11C8.17157 22 6.75736 22 5.87868 21.1213C5 20.2426 5 18.8284 5 16V8Z" stroke="#1C274C" stroke-width="1.5"/>
<path opacity="0.5" d="M19 19.5C19.4645 19.5 19.6968 19.5 19.8911 19.4692C20.9608 19.2998 21.7998 18.4608 21.9692 17.3911C22 17.1968 22 16.9645 22 16.5V7.5C22 7.0355 22 6.80325 21.9692 6.60891C21.7998 5.53918 20.9608 4.70021 19.8911 4.53078C19.6968 4.5 19.4645 4.5 19 4.5" stroke="#1C274C" stroke-width="1.5"/>
<path opacity="0.5" d="M5 19.5C4.5355 19.5 4.30325 19.5 4.10891 19.4692C3.03918 19.2998 2.20021 18.4608 2.03078 17.3911C2 17.1968 2 16.9645 2 16.5V7.5C2 7.0355 2 6.80325 2.03078 6.60891C2.20021 5.53918 3.03918 4.70021 4.10891 4.53078C4.30325 4.5 4.5355 4.5 5 4.5" stroke="#1C274C" stroke-width="1.5"/>
<path opacity="0.5" d="M12.7416 8.62911L12.4062 7.95829L12.4062 7.95829L12.7416 8.62911ZM14.0584 7.97075L13.7229 7.29993V7.29993L14.0584 7.97075ZM13.9416 11.0291L13.6062 10.3583L13.6062 10.3583L13.9416 11.0291ZM12.0598 10.7225L12.7649 10.467V10.467L12.0598 10.7225ZM13.1159 11.3752L13.029 10.6302H13.029L13.1159 11.3752ZM15.9822 9.5699L16.7188 9.7109V9.7109L15.9822 9.5699ZM15.6074 10.1763L16.0629 10.7721L16.0629 10.7721L15.6074 10.1763ZM14.8841 7.6247L14.971 8.36965L14.8841 7.6247ZM15.9402 8.2774L15.2351 8.53282V8.53282L15.9402 8.2774ZM12.3926 8.82356L12.8482 9.41937L12.8482 9.41937L12.3926 8.82356ZM12.0178 9.42997L11.2812 9.28897V9.28897L12.0178 9.42997ZM11.25 14.9999C11.25 15.6903 10.6904 16.2499 10 16.2499V17.7499C11.5188 17.7499 12.75 16.5187 12.75 14.9999H11.25ZM10 16.2499C9.30964 16.2499 8.75 15.6903 8.75 14.9999H7.25C7.25 16.5187 8.48122 17.7499 10 17.7499V16.2499ZM8.75 14.9999C8.75 14.3096 9.30964 13.7499 10 13.7499V12.2499C8.48122 12.2499 7.25 13.4811 7.25 14.9999H8.75ZM10 13.7499C10.6904 13.7499 11.25 14.3096 11.25 14.9999H12.75C12.75 13.4811 11.5188 12.2499 10 12.2499V13.7499ZM12.75 14.9999V9.99993H11.25V14.9999H12.75ZM13.0771 9.29993L14.3938 8.64157L13.7229 7.29993L12.4062 7.95829L13.0771 9.29993ZM14.9229 9.69993L13.6062 10.3583L14.2771 11.6999L15.5938 11.0416L14.9229 9.69993ZM11.25 9.82911C11.25 10.0637 11.2498 10.269 11.2585 10.4354C11.2672 10.5997 11.2866 10.7901 11.3546 10.9779L12.7649 10.467C12.7732 10.4898 12.7627 10.4763 12.7564 10.3566C12.7502 10.2389 12.75 10.0801 12.75 9.82911H11.25ZM13.6062 10.3583C13.3817 10.4705 13.2396 10.5413 13.1316 10.5884C13.0217 10.6363 13.0049 10.633 13.029 10.6302L13.2028 12.1201C13.4012 12.097 13.5801 12.0292 13.731 11.9635C13.8837 11.8969 14.0673 11.8048 14.2771 11.6999L13.6062 10.3583ZM11.3546 10.9779C11.6311 11.7412 12.3963 12.2142 13.2028 12.1201L13.029 10.6302C12.9138 10.6437 12.8044 10.5761 12.7649 10.467L11.3546 10.9779ZM15.25 9.17075C15.25 9.27788 15.2499 9.33897 15.2482 9.38522C15.2468 9.42675 15.2446 9.43389 15.2455 9.4289L16.7188 9.7109C16.7532 9.5312 16.75 9.34441 16.75 9.17075H15.25ZM15.5938 11.0416C15.7491 10.9639 15.9176 10.8832 16.0629 10.7721L15.1518 9.5805C15.1559 9.57741 15.1505 9.58255 15.114 9.60245C15.0734 9.62461 15.0188 9.65202 14.9229 9.69993L15.5938 11.0416ZM15.2455 9.4289C15.234 9.48923 15.2006 9.54319 15.1518 9.5805L16.0629 10.7721C16.4045 10.5109 16.638 10.1332 16.7188 9.7109L15.2455 9.4289ZM14.3938 8.64157C14.6183 8.52932 14.7604 8.45852 14.8684 8.41144C14.9783 8.36355 14.9951 8.36684 14.971 8.36965L14.7972 6.87975C14.5988 6.9029 14.4199 6.97064 14.269 7.03641C14.1163 7.10298 13.9327 7.19504 13.7229 7.29993L14.3938 8.64157ZM16.75 9.17075C16.75 8.93621 16.7502 8.73085 16.7415 8.56448C16.7328 8.40012 16.7134 8.20979 16.6454 8.02197L15.2351 8.53282C15.2268 8.51004 15.2373 8.52361 15.2436 8.64329C15.2498 8.76095 15.25 8.91975 15.25 9.17075H16.75ZM14.971 8.36965C15.0862 8.35621 15.1956 8.42377 15.2351 8.53282L16.6454 8.02197C16.3689 7.25862 15.6037 6.78569 14.7972 6.87975L14.971 8.36965ZM12.4062 7.95829C12.2509 8.03595 12.0824 8.11663 11.9371 8.22776L12.8482 9.41937C12.8441 9.42245 12.8495 9.41731 12.886 9.39742C12.9266 9.37526 12.9812 9.34784 13.0771 9.29993L12.4062 7.95829ZM12.75 9.82911C12.75 9.72198 12.7501 9.6609 12.7518 9.61464C12.7532 9.57311 12.7554 9.56598 12.7545 9.57097L11.2812 9.28897C11.2468 9.46867 11.25 9.65545 11.25 9.82911H12.75ZM11.9371 8.22776C11.5955 8.48892 11.362 8.86667 11.2812 9.28897L12.7545 9.57097C12.766 9.51064 12.7994 9.45667 12.8482 9.41937L11.9371 8.22776Z" fill="#1C274C"/>
</svg>
