<svg width="24" height="24" viewBox="0 0 24 24" fill="none" xmlns="http://www.w3.org/2000/svg">
<path d="M7.9175 17.8071L15.8084 10.2538C16.7558 9.34693 16.7558 7.87661 15.8084 6.96975M3 10.0349L9.40419 3.90465C12.0569 1.36544 16.3578 1.36544 19.0105 3.90465" stroke="#1C274C" stroke-width="1.5" stroke-linecap="round"/>
<path opacity="0.5" d="M19.0105 13.0998L19.5291 13.6416L19.0105 13.0998ZM11.0624 20.7079L10.5438 20.1661L11.0624 20.7079ZM4.54388 14.4682L5.0625 15.01L4.54388 14.4682ZM12.3776 6.96964L11.859 6.42785L12.3776 6.96964ZM19.5291 3.36275C19.2299 3.07633 18.7551 3.0867 18.4687 3.38593C18.1823 3.68515 18.1927 4.15991 18.4919 4.44633L19.5291 3.36275ZM18.4919 12.558L10.5438 20.1661L11.581 21.2496L19.5291 13.6416L18.4919 12.558ZM5.0625 15.01L12.8962 7.51143L11.859 6.42785L4.02527 13.9264L5.0625 15.01ZM16.327 6.42785C15.0896 5.24338 13.0964 5.24338 11.859 6.42785L12.8962 7.51143C13.5536 6.88218 14.6324 6.88218 15.2898 7.51143L16.327 6.42785ZM5.0625 20.1661C3.57096 18.7383 3.57096 16.4377 5.0625 15.01L4.02527 13.9264C1.91671 15.9447 1.91671 19.2313 4.02527 21.2496L5.0625 20.1661ZM10.5438 20.1661C9.03379 21.6115 6.57253 21.6115 5.0625 20.1661L4.02527 21.2496C6.11533 23.2503 9.49098 23.2503 11.581 21.2496L10.5438 20.1661ZM18.4919 4.44633C20.8361 6.69023 20.8361 10.3142 18.4919 12.558L19.5291 13.6416C22.4903 10.8071 22.4903 6.19728 19.5291 3.36275L18.4919 4.44633Z" fill="#1C274C"/>
</svg>
