<svg width="24" height="24" viewBox="0 0 24 24" fill="none" xmlns="http://www.w3.org/2000/svg">
<path d="M15.2869 3.15202L14.3601 4.0789L5.83882 12.6001L5.83881 12.6002C5.26166 13.1773 4.97308 13.4659 4.7249 13.7841C4.43213 14.1594 4.18114 14.5656 3.97634 14.9953C3.80273 15.3595 3.67368 15.7467 3.41556 16.5211L2.32181 19.8023L2.05445 20.6044C1.92743 20.9855 2.0266 21.4056 2.31063 21.6896C2.59466 21.9736 3.01478 22.0728 3.39584 21.9458L4.19792 21.6784L7.47918 20.5847L7.47919 20.5847C8.25353 20.3266 8.6407 20.1975 9.00498 20.0239C9.43469 19.8191 9.84082 19.5681 10.2162 19.2753C10.5344 19.0272 10.8229 18.7386 11.4001 18.1615L11.4001 18.1614L19.9213 9.64018L20.8482 8.7133C22.3839 7.1776 22.3839 4.68773 20.8482 3.15202C19.3125 1.61632 16.8226 1.61632 15.2869 3.15202Z" stroke="#1C274C" stroke-width="1.5"/>
<path opacity="0.5" d="M14.36 4.07886C14.36 4.07886 14.4759 6.04848 16.2138 7.78638C17.9517 9.52427 19.9213 9.64013 19.9213 9.64013M4.19789 21.6784L2.32178 19.8023" stroke="#1C274C" stroke-width="1.5"/>
</svg>
