<svg width="24" height="24" viewBox="0 0 24 24" fill="none" xmlns="http://www.w3.org/2000/svg">
<path opacity="0.5" d="M6.14214 6.14238C8.90356 3.38096 10.2843 2.00024 12 2.00024C13.7157 2.00024 15.0964 3.38096 17.8579 6.14238C20.6193 8.9038 22 10.2845 22 12.0002C22 13.716 20.6193 15.0967 17.8579 17.8581C15.0964 20.6195 13.7157 22.0002 12 22.0002C10.2843 22.0002 8.90356 20.6195 6.14214 17.8581C3.38071 15.0967 2 13.716 2 12.0002C2 10.2845 3.38071 8.9038 6.14214 6.14238Z" stroke="#1C274C" stroke-width="1.5"/>
<path d="M8.25 14.0002C8.25 14.4145 8.58579 14.7502 9 14.7502C9.41421 14.7502 9.75 14.4145 9.75 14.0002H8.25ZM15 12.0002L15.5303 12.5306C15.8232 12.2377 15.8232 11.7628 15.5303 11.4699L15 12.0002ZM13.5303 9.46991C13.2374 9.17702 12.7626 9.17702 12.4697 9.46991C12.1768 9.76281 12.1768 10.2377 12.4697 10.5306L13.5303 9.46991ZM12.4697 13.4699C12.1768 13.7628 12.1768 14.2377 12.4697 14.5306C12.7626 14.8235 13.2374 14.8235 13.5303 14.5306L12.4697 13.4699ZM11 12.7502H15V11.2502H11V12.7502ZM15.5303 11.4699L13.5303 9.46991L12.4697 10.5306L14.4697 12.5306L15.5303 11.4699ZM14.4697 11.4699L12.4697 13.4699L13.5303 14.5306L15.5303 12.5306L14.4697 11.4699ZM9.75 14.0002C9.75 13.5076 9.75159 13.2136 9.77992 13.0029C9.79291 12.9063 9.8082 12.858 9.81716 12.8362C9.81923 12.8312 9.82085 12.8278 9.82186 12.8259C9.82286 12.824 9.82341 12.8232 9.82347 12.8231C9.82351 12.823 9.82335 12.8232 9.82307 12.8236C9.82279 12.8239 9.82277 12.8239 9.82322 12.8235L8.76256 11.7628C8.45354 12.0718 8.34109 12.4476 8.2933 12.803C8.24841 13.1369 8.25 13.55 8.25 14.0002H9.75ZM11 11.2502C10.5498 11.2502 10.1367 11.2487 9.80279 11.2935C9.44731 11.3413 9.07159 11.4538 8.76256 11.7628L9.82322 12.8235C9.82368 12.823 9.8237 12.823 9.82335 12.8233C9.823 12.8236 9.82277 12.8238 9.82283 12.8237C9.82292 12.8237 9.82376 12.8231 9.82567 12.8221C9.8276 12.8211 9.83092 12.8195 9.83596 12.8174C9.85774 12.8084 9.90611 12.7931 10.0027 12.7802C10.2134 12.7518 10.5074 12.7502 11 12.7502V11.2502Z" fill="#1C274C"/>
</svg>
