<svg width="24" height="24" viewBox="0 0 24 24" fill="none" xmlns="http://www.w3.org/2000/svg">
<path opacity="0.5" d="M8 4.25024C7.58579 4.25024 7.25 4.58603 7.25 5.00024C7.25 5.41446 7.58579 5.75024 8 5.75024V4.25024ZM20 18.2502H7.5V19.7502H20V18.2502ZM7.5 12.7502H16.5V11.2502H7.5V12.7502ZM16.5 4.25024H8V5.75024H16.5V4.25024ZM20.75 8.50024C20.75 6.15303 18.8472 4.25024 16.5 4.25024V5.75024C18.0188 5.75024 19.25 6.98146 19.25 8.50024H20.75ZM16.5 12.7502C18.8472 12.7502 20.75 10.8475 20.75 8.50024H19.25C19.25 10.019 18.0188 11.2502 16.5 11.2502V12.7502ZM4.75 15.5002C4.75 13.9815 5.98122 12.7502 7.5 12.7502V11.2502C5.15279 11.2502 3.25 13.153 3.25 15.5002H4.75ZM7.5 18.2502C5.98122 18.2502 4.75 17.019 4.75 15.5002H3.25C3.25 17.8475 5.15279 19.7502 7.5 19.7502V18.2502Z" fill="#1C274C"/>
<path d="M18 17.0002L20 19.0002L18 21.0002" stroke="#1C274C" stroke-width="1.5" stroke-linecap="round" stroke-linejoin="round"/>
<circle cx="6" cy="5.00024" r="2" stroke="#1C274C" stroke-width="1.5"/>
</svg>
