<svg width="24" height="24" viewBox="0 0 24 24" fill="none" xmlns="http://www.w3.org/2000/svg">
<path opacity="0.5" d="M10 3.75012H14V2.25012H10V3.75012ZM21.25 11.0001V13.0001H22.75V11.0001H21.25ZM14 20.2501H10V21.7501H14V20.2501ZM2.75 13.0001V11.0001H1.25V13.0001H2.75ZM10 20.2501C8.09318 20.2501 6.73851 20.2485 5.71085 20.1104C4.70476 19.9751 4.12511 19.7214 3.7019 19.2982L2.64124 20.3589C3.38961 21.1072 4.33855 21.4394 5.51098 21.597C6.66182 21.7517 8.13558 21.7501 10 21.7501V20.2501ZM1.25 13.0001C1.25 14.8645 1.24841 16.3383 1.40313 17.4891C1.56076 18.6616 1.89288 19.6105 2.64124 20.3589L3.7019 19.2982C3.27869 18.875 3.02502 18.2954 2.88976 17.2893C2.75159 16.2616 2.75 14.9069 2.75 13.0001H1.25ZM21.25 13.0001C21.25 14.9069 21.2484 16.2616 21.1102 17.2893C20.975 18.2954 20.7213 18.875 20.2981 19.2982L21.3588 20.3589C22.1071 19.6105 22.4392 18.6616 22.5969 17.4891C22.7516 16.3383 22.75 14.8645 22.75 13.0001H21.25ZM14 21.7501C15.8644 21.7501 17.3382 21.7517 18.489 21.597C19.6614 21.4394 20.6104 21.1072 21.3588 20.3589L20.2981 19.2982C19.8749 19.7214 19.2952 19.9751 18.2892 20.1104C17.2615 20.2485 15.9068 20.2501 14 20.2501V21.7501ZM14 3.75012C15.9068 3.75012 17.2615 3.75171 18.2892 3.88988C19.2952 4.02515 19.8749 4.27882 20.2981 4.70203L21.3588 3.64136C20.6104 2.893 19.6614 2.56088 18.489 2.40326C17.3382 2.24853 15.8644 2.25012 14 2.25012V3.75012ZM22.75 11.0001C22.75 9.13571 22.7516 7.66195 22.5969 6.5111C22.4392 5.33868 22.1071 4.38973 21.3588 3.64136L20.2981 4.70203C20.7213 5.12523 20.975 5.70488 21.1102 6.71097C21.2484 7.73864 21.25 9.0933 21.25 11.0001H22.75ZM10 2.25012C8.13558 2.25012 6.66182 2.24853 5.51098 2.40326C4.33856 2.56088 3.38961 2.893 2.64124 3.64136L3.7019 4.70203C4.12511 4.27882 4.70476 4.02515 5.71085 3.88988C6.73851 3.75171 8.09318 3.75012 10 3.75012V2.25012ZM2.75 11.0001C2.75 9.0933 2.75159 7.73863 2.88976 6.71097C3.02502 5.70488 3.27869 5.12523 3.7019 4.70203L2.64124 3.64136C1.89288 4.38973 1.56076 5.33868 1.40313 6.5111C1.24841 7.66195 1.25 9.13571 1.25 11.0001H2.75ZM2 12.7501H22V11.2501H2V12.7501Z" fill="#1C274C"/>
<path d="M13.5 16.5001H18" stroke="#1C274C" stroke-width="1.5" stroke-linecap="round"/>
<path d="M13.5 7.50012L18 7.50012" stroke="#1C274C" stroke-width="1.5" stroke-linecap="round"/>
<path d="M6 17.5001L6 15.5001" stroke="#1C274C" stroke-width="1.5" stroke-linecap="round"/>
<path d="M6 8.50012L6 6.50012" stroke="#1C274C" stroke-width="1.5" stroke-linecap="round"/>
<path d="M9 17.5001L9 15.5001" stroke="#1C274C" stroke-width="1.5" stroke-linecap="round"/>
<path d="M9 8.50012L9 6.50012" stroke="#1C274C" stroke-width="1.5" stroke-linecap="round"/>
</svg>
