<svg width="24" height="24" viewBox="0 0 24 24" fill="none" xmlns="http://www.w3.org/2000/svg">
<path d="M11.5697 12.5537L12.1617 13.0142V13.0142L11.5697 12.5537ZM11.3142 3.64634L12.0065 3.93481V3.93481L11.3142 3.64634ZM3.5 15.7505C3.08579 15.7505 2.75 16.0863 2.75 16.5005C2.75 16.9147 3.08579 17.2505 3.5 17.2505V15.7505ZM19.876 16.9165C20.1057 17.2612 20.5714 17.3543 20.916 17.1245C21.2607 16.8948 21.3538 16.4291 21.124 16.0845L19.876 16.9165ZM12 21.2505C6.89137 21.2505 2.75 17.1091 2.75 12.0005H1.25C1.25 17.9375 6.06294 22.7505 12 22.7505V21.2505ZM21.25 12.0005C21.25 17.1091 17.1086 21.2505 12 21.2505V22.7505C17.9371 22.7505 22.75 17.9375 22.75 12.0005H21.25ZM12 2.75049C17.1086 2.75049 21.25 6.89185 21.25 12.0005H22.75C22.75 6.06343 17.9371 1.25049 12 1.25049V2.75049ZM12 1.25049C6.06294 1.25049 1.25 6.06343 1.25 12.0005H2.75C2.75 6.89185 6.89137 2.75049 12 2.75049V1.25049ZM12 12.7505H12.0917V11.2505H12V12.7505ZM11.408 11.54L10.9777 12.0933L12.1617 13.0142L12.592 12.4609L11.408 11.54ZM11.3077 1.71203L10.6219 3.35788L12.0065 3.93481L12.6923 2.28895L11.3077 1.71203ZM10.6219 3.35788C9.39039 6.31356 9.66695 9.68271 11.364 12.398L12.636 11.603C11.1965 9.29978 10.9619 6.44193 12.0065 3.93481L10.6219 3.35788ZM10.9777 12.0933C9.18293 14.4008 6.42334 15.7505 3.5 15.7505V17.2505C6.88622 17.2505 10.0828 15.6871 12.1617 13.0142L10.9777 12.0933ZM12.0917 12.7505C15.2197 12.7505 18.1408 14.3138 19.876 16.9165L21.124 16.0845C19.1107 13.0645 15.7213 11.2505 12.0917 11.2505V12.7505Z" fill="#1C274C"/>
<path opacity="0.5" d="M21.2426 10.7432L21.7773 10.2172L21.7729 10.2129L21.2426 10.7432ZM21.453 12.0266C21.7435 12.3218 22.2184 12.3257 22.5137 12.0352C22.8089 11.7447 22.8128 11.2699 22.5223 10.9746L21.453 12.0266ZM5.73267 19.0434C5.31845 19.0434 4.98267 19.3792 4.98267 19.7934C4.98267 20.2076 5.31845 20.5434 5.73267 20.5434V19.0434ZM8.19228 3.35633C8.35159 2.97398 8.17078 2.53488 7.78843 2.37556C7.40608 2.21625 6.96698 2.39706 6.80766 2.77941L8.19228 3.35633ZM5.85303 12.1452C5.93288 12.5516 6.3271 12.8164 6.73354 12.7365C7.13998 12.6567 7.40474 12.2624 7.32489 11.856L5.85303 12.1452ZM15.4334 17.323C15.7714 17.0837 15.8514 16.6156 15.612 16.2775C15.3727 15.9395 14.9046 15.8595 14.5665 16.0989L15.4334 17.323ZM14.1553 6.08085C13.7501 5.99506 13.352 6.25401 13.2662 6.65924C13.1804 7.06448 13.4394 7.46253 13.8446 7.54832L14.1553 6.08085ZM20.708 11.2692L21.453 12.0266L22.5223 10.9746L21.7773 10.2172L20.708 11.2692ZM6.80766 2.77941C5.55816 5.77822 5.23914 9.0204 5.85303 12.1452L7.32489 11.856C6.76828 9.02278 7.0566 6.08195 8.19228 3.35633L6.80766 2.77941ZM14.5665 16.0989C11.9691 17.9383 8.82241 19.0434 5.73267 19.0434V20.5434C9.16947 20.5434 12.6141 19.3195 15.4334 17.323L14.5665 16.0989ZM13.8446 7.54832C16.4265 8.09495 18.8177 9.37893 20.7123 11.2735L21.7729 10.2129C19.6714 8.11132 17.0191 6.68715 14.1553 6.08085L13.8446 7.54832Z" fill="#1C274C"/>
</svg>
