<svg width="24" height="24" viewBox="0 0 24 24" fill="none" xmlns="http://www.w3.org/2000/svg">
<path opacity="0.5" d="M6 9.00049H10" stroke="#1C274C" stroke-width="1.5" stroke-linecap="round" stroke-linejoin="round"/>
<path d="M20.8333 10.0005H18.2308C16.4465 10.0005 15 11.3436 15 13.0005C15 14.6573 16.4465 16.0005 18.2308 16.0005H20.8333C20.9167 16.0005 20.9583 16.0005 20.9935 15.9983C21.5328 15.9655 21.9623 15.5666 21.9977 15.0659C22 15.0332 22 14.9945 22 14.9172V11.0838C22 11.0064 22 10.9678 21.9977 10.9351C21.9623 10.4343 21.5328 10.0355 20.9935 10.0026C20.9583 10.0005 20.9167 10.0005 20.8333 10.0005Z" stroke="#1C274C" stroke-width="1.5"/>
<circle opacity="0.5" cx="18" cy="13.0005" r="1" fill="#1C274C"/>
<path d="M20.965 10.0005C20.8873 8.12819 20.6366 6.98023 19.8284 6.17206C18.6569 5.00049 16.7712 5.00049 13 5.00049H10C6.22876 5.00049 4.34315 5.00049 3.17157 6.17206C2 7.34363 2 9.22925 2 13.0005C2 16.7717 2 18.6573 3.17157 19.8289C4.34315 21.0005 6.22876 21.0005 10 21.0005H13C16.7712 21.0005 18.6569 21.0005 19.8284 19.8289C20.6366 19.0207 20.8873 17.8728 20.965 16.0005" stroke="#1C274C" stroke-width="1.5"/>
<path opacity="0.5" d="M6 5.00049L9.73549 2.52362C10.7874 1.82611 12.2126 1.82611 13.2645 2.52362L17 5.00049" stroke="#1C274C" stroke-width="1.5" stroke-linecap="round"/>
</svg>
