<svg width="24" height="24" viewBox="0 0 24 24" fill="none" xmlns="http://www.w3.org/2000/svg">
<path opacity="0.5" d="M4.03532 11.5738C4.4971 9.26489 4.72799 8.11044 5.55742 7.43046C6.38686 6.75049 7.56417 6.75049 9.9188 6.75049H14.0812C16.4358 6.75049 17.6131 6.75049 18.4425 7.43046C19.272 8.11044 19.5029 9.26489 19.9646 11.5738L20.5646 14.5738C21.2287 17.8942 21.5608 19.5544 20.6606 20.6525C19.7604 21.7505 18.0673 21.7505 14.6812 21.7505H9.3188C5.93263 21.7505 4.23954 21.7505 3.33936 20.6525C2.43919 19.5544 2.77123 17.8942 3.43532 14.5738L4.03532 11.5738Z" fill="#1C274C"/>
<circle cx="15" cy="9.75049" r="1" fill="#1C274C"/>
<circle cx="9" cy="9.75049" r="1" fill="#1C274C"/>
<path d="M9.75 5.75049C9.75 4.50785 10.7574 3.50049 12 3.50049C13.2426 3.50049 14.25 4.50785 14.25 5.75049V6.75049H14.6812C15.058 6.75049 15.4139 6.75049 15.75 6.752L15.75 5.75049C15.75 3.67942 14.0711 2.00049 12 2.00049C9.92893 2.00049 8.25 3.67942 8.25 5.75049L8.25 6.752C8.58613 6.75049 8.94198 6.75049 9.3188 6.75049H9.75V5.75049Z" fill="#1C274C"/>
</svg>
