<svg width="24" height="24" viewBox="0 0 24 24" fill="none" xmlns="http://www.w3.org/2000/svg">
<g opacity="0.3">
<path d="M9.27642 2.04639C11.2366 2.28399 13.0651 3.40848 14.1283 5.25014C14.6689 6.1865 14.9501 7.20145 14.9941 8.21175C14.0074 8.37912 13.0217 8.66144 12.1258 9.11241C11.6667 8.59576 11.1913 7.96332 10.7508 7.20042C9.12584 4.38582 9.27642 2.04639 9.27642 2.04639Z" fill="#1C274C"/>
<path d="M3.21669 12.2886L3.18867 12.2491C3.07606 12.0892 2.96965 11.9228 2.86997 11.7502C1.77076 9.84627 1.74418 7.61743 2.60274 5.76342C3.26341 6.23262 4.96515 7.57934 6.2475 9.80043C6.34906 9.97634 6.44369 10.1504 6.53185 10.3221C6.61397 10.4821 6.69049 10.6401 6.76177 10.7957C6.82905 10.9426 6.89168 11.0873 6.94996 11.2297C7.00713 11.3693 7.06013 11.5066 7.10926 11.6413C7.80199 13.5405 7.72409 14.9181 7.72191 14.9542C6.51666 14.8081 5.36123 14.3265 4.40284 13.5493C4.3464 13.5035 4.29063 13.4567 4.23558 13.4089C4.03017 13.2304 3.8347 13.0378 3.65071 12.8314C3.4978 12.6599 3.35282 12.4789 3.21669 12.2886Z" fill="#1C274C"/>
</g>
<path opacity="0.5" d="M16.0194 8.07666C14.001 8.27085 11.8559 8.87612 10.3658 10.3663C8.87563 11.8564 8.27036 14.0015 8.07617 16.0199L13.9793 21.923C15.9977 21.7288 18.1427 21.1235 19.6329 19.6334C21.123 18.1432 21.7283 15.9982 21.9225 13.9798L16.0194 8.07666Z" fill="#1C274C"/>
<path fill-rule="evenodd" clip-rule="evenodd" d="M5.24894 2.87046C6.51619 2.13881 7.9274 1.88238 9.27622 2.04588C9.27622 2.04588 9.12564 4.38531 10.7506 7.19991C11.1912 7.96301 11.6668 8.59559 12.126 9.11232C11.4819 9.4365 10.8842 9.84784 10.3658 10.3663C9.12628 11.6058 8.49901 13.2984 8.2113 14.9944C8.04744 14.987 7.88412 14.9734 7.72171 14.9537C7.72353 14.9239 7.80344 13.5445 7.10905 11.6408C7.05993 11.5061 7.00693 11.3688 6.94976 11.2292C6.89147 11.0868 6.82885 10.9421 6.76157 10.7952C6.69028 10.6396 6.61377 10.4816 6.53165 10.3216C6.44349 10.1499 6.34886 9.97583 6.24729 9.79992C4.96495 7.57883 3.26321 6.23211 2.60254 5.76291C3.14594 4.58947 4.04392 3.56618 5.24894 2.87046Z" fill="#1C274C"/>
<path d="M19.248 8.06157C18.3157 7.99028 17.1891 7.96485 16.0201 8.07732L21.9232 13.9804C22.0356 12.8114 22.0102 11.6848 21.9389 10.7525C21.8276 9.29667 20.7038 8.17288 19.248 8.06157Z" fill="#1C274C"/>
<path d="M10.752 21.9394C11.6843 22.0107 12.8109 22.0361 13.9799 21.9237L8.07683 16.0205C7.96436 17.1896 7.9898 18.3162 8.06108 19.2485C8.17239 20.7043 9.29618 21.8281 10.752 21.9394Z" fill="#1C274C"/>
<path fill-rule="evenodd" clip-rule="evenodd" d="M14.9597 12.3125C15.1647 12.1074 15.4972 12.1074 15.7022 12.3125L16.3238 12.9341L16.9455 12.3125C17.1505 12.1074 17.483 12.1074 17.688 12.3125C17.893 12.5175 17.893 12.8499 17.688 13.0549L17.0663 13.6766L17.688 14.2983C17.893 14.5033 17.893 14.8357 17.688 15.0407C17.483 15.2458 17.1505 15.2458 16.9455 15.0407L16.3238 14.4191L15.7424 15.0005L16.3641 15.6221C16.5691 15.8272 16.5691 16.1596 16.3641 16.3646C16.1591 16.5696 15.8267 16.5696 15.6217 16.3646L15 15.7429L14.4186 16.3243L15.0402 16.946C15.2453 17.151 15.2453 17.4834 15.0402 17.6885C14.8352 17.8935 14.5028 17.8935 14.2978 17.6885L13.6761 17.0668L13.0544 17.6885C12.8494 17.8935 12.517 17.8935 12.312 17.6885C12.1069 17.4834 12.1069 17.151 12.312 16.946L12.9336 16.3243L12.312 15.7027C12.1069 15.4976 12.1069 15.1652 12.312 14.9602C12.517 14.7552 12.8494 14.7552 13.0544 14.9602L13.6761 15.5819L14.2575 15.0005L13.6358 14.3788C13.4308 14.1738 13.4308 13.8414 13.6358 13.6363C13.8409 13.4313 14.1733 13.4313 14.3783 13.6363L15 14.258L15.5814 13.6766L14.9597 13.0549C14.7547 12.8499 14.7547 12.5175 14.9597 12.3125Z" fill="#1C274C"/>
</svg>
