<svg width="24" height="24" viewBox="0 0 24 24" fill="none" xmlns="http://www.w3.org/2000/svg">
<path opacity="0.5" d="M18.7491 9.00036V9.70447C18.7491 10.5495 18.9903 11.3755 19.4422 12.0786L20.5496 13.8015C21.5612 15.3752 20.789 17.5143 19.0296 18.0119C14.4273 19.3138 9.57274 19.3138 4.97036 18.0119C3.21105 17.5143 2.43882 15.3752 3.45036 13.8015L4.5578 12.0786C5.00972 11.3755 5.25087 10.5495 5.25087 9.70447V9.00036C5.25087 5.13437 8.27256 2.00037 12 2.00037C15.7274 2.00037 18.7491 5.13437 18.7491 9.00036Z" fill="#1C274C"/>
<path d="M12.75 6.00037C12.75 5.58615 12.4142 5.25037 12 5.25037C11.5858 5.25037 11.25 5.58615 11.25 6.00037V10.0004C11.25 10.4146 11.5858 10.7504 12 10.7504C12.4142 10.7504 12.75 10.4146 12.75 10.0004V6.00037Z" fill="#1C274C"/>
<path d="M7.24316 18.5453C7.8941 20.5504 9.77767 22 11.9998 22C14.222 22 16.1055 20.5504 16.7565 18.5453C13.611 19.1356 10.3886 19.1356 7.24316 18.5453Z" fill="#1C274C"/>
</svg>
