<svg width="24" height="24" viewBox="0 0 24 24" fill="none" xmlns="http://www.w3.org/2000/svg">
<path d="M2.73779 17.7C3.72152 18.6837 5.31646 18.6837 6.30018 17.7C5.31646 18.6837 5.31645 20.2787 6.30018 21.2624C7.28391 22.2461 8.87884 22.2461 9.86257 21.2624C10.6058 20.5192 10.9908 19.2237 10.7105 18.2105C10.562 17.6742 10.5378 17.0248 10.9313 16.6313L15.3831 12.1795L12.3535 13.0608V11.6466L10.2322 12.3537L10.2188 10.219L7.3689 13.0689C6.97541 13.4624 6.32603 13.4381 5.7897 13.2897C4.77646 13.0094 3.48101 13.3944 2.73779 14.1376C1.75407 15.1213 1.75407 16.7163 2.73779 17.7Z" fill="#1C274C"/>
<path opacity="0.5" d="M14.1374 2.73804C13.3942 3.48126 13.0091 4.77671 13.2895 5.78995C13.4379 6.32627 13.4622 6.97565 13.0687 7.36914L10.2188 10.2191L10.2321 12.3537L12.3534 11.6466V13.0608L15.3831 12.1795L16.631 10.9315C17.0245 10.538 17.6739 10.5623 18.2102 10.7107C19.2235 10.9911 20.5189 10.606 21.2621 9.86281C22.2459 8.87909 22.2459 7.28415 21.2621 6.30043C20.2784 5.3167 18.6835 5.3167 17.6998 6.30043C18.6835 5.3167 18.6835 3.72176 17.6998 2.73804C16.716 1.75431 15.1211 1.75431 14.1374 2.73804Z" fill="#1C274C"/>
</svg>
