<svg width="24" height="24" viewBox="0 0 24 24" fill="none" xmlns="http://www.w3.org/2000/svg">
<path d="M7.42598 18.0005H20C19.9965 18.9301 19.9784 19.6233 19.8866 20.171C19.7773 20.8233 19.5774 21.1687 19.2709 21.4147C18.9643 21.6607 18.5339 21.8211 17.7211 21.9088C16.8844 21.9991 15.7754 22.0005 14.1854 22.0005H9.75461C8.1646 22.0005 7.05566 21.9991 6.21896 21.9088C5.40616 21.8211 4.97573 21.6607 4.66916 21.4147C4.36259 21.1687 4.16271 20.8233 4.05343 20.171C4.04522 20.1221 4.03761 20.0719 4.03053 20.0205C3.99045 19.7293 3.97041 19.5836 4.09696 19.2402C4.22351 18.8968 4.27837 18.843 4.38811 18.7352C4.71351 18.4156 5.15982 18.179 5.67321 18.0686C5.96352 18.0062 6.34236 18.0005 7.42598 18.0005Z" fill="#1C274C"/>
<path opacity="0.5" d="M4.72718 2.73381C5.03258 2.42584 5.46135 2.22505 6.27103 2.11527C7.10452 2.00226 8.2092 2.00049 9.7931 2.00049H14.2069C15.7908 2.00049 16.8955 2.00226 17.729 2.11527C18.5387 2.22505 18.9674 2.42584 19.2728 2.73381C19.5782 3.04178 19.7773 3.47417 19.8862 4.29069C19.9982 5.13122 20 6.24522 20 7.8425L20 18.0005H7.42598C6.34236 18.0005 5.96352 18.0062 5.67321 18.0686C5.15982 18.179 4.71351 18.4156 4.38811 18.7352C4.27837 18.843 4.22351 18.8968 4.09696 19.2402C4.02435 19.4372 4 19.5691 4 19.7008V7.8425C4 6.24522 4.00176 5.13122 4.11382 4.29069C4.22268 3.47417 4.42179 3.04178 4.72718 2.73381Z" fill="#1C274C"/>
<path d="M7.31034 16.2308C7.32206 16.2308 7.33382 16.2308 7.34563 16.2308L20 16.2308V7.97722C20 6.3431 19.9982 5.20341 19.8862 4.3435C19.7773 3.50816 19.5782 3.0658 19.2728 2.75072C18.9674 2.43565 18.5387 2.23022 17.729 2.11791C16.8955 2.0023 15.7908 2.00049 14.2069 2.00049H9.7931C8.79138 2.00049 7.98133 2.00121 7.31034 2.03099V16.2308Z" fill="#1C274C"/>
<path d="M5.65517 2.24007C5.2225 2.35912 4.9438 2.52744 4.72718 2.75093C4.42179 3.066 4.22268 3.50836 4.11382 4.34371C4.00176 5.20362 4 6.34331 4 7.97742V17.0005C4.38867 16.7203 4.82674 16.507 5.29899 16.3765C5.41296 16.345 5.53103 16.3203 5.65517 16.3009V2.24007Z" fill="#1C274C"/>
</svg>
