<svg width="24" height="24" viewBox="0 0 24 24" fill="none" xmlns="http://www.w3.org/2000/svg">
<path opacity="0.5" d="M3.46447 3.46471C4.92893 2.00024 7.28595 2.00024 12 2.00024C16.714 2.00024 19.0711 2.00024 20.5355 3.46471C22 4.92918 22 7.2862 22 12.0002C22 16.7143 22 19.0713 20.5355 20.5358C19.0711 22.0002 16.714 22.0002 12 22.0002C7.28595 22.0002 4.92893 22.0002 3.46447 20.5358C2 19.0713 2 16.7143 2 12.0002C2 7.2862 2 4.92918 3.46447 3.46471Z" fill="#1C274C"/>
<path d="M12.75 17.5002C12.75 17.9145 12.4142 18.2502 12 18.2502C11.5858 18.2502 11.25 17.9145 11.25 17.5002V11.5002C11.25 9.70532 9.79493 8.25024 8 8.25024H7.81066L8.03033 8.46992C8.32322 8.76281 8.32322 9.23768 8.03033 9.53058C7.73744 9.82347 7.26256 9.82347 6.96967 9.53058L5.46967 8.03057C5.17678 7.73768 5.17678 7.26281 5.46967 6.96992L6.96967 5.46991C7.26256 5.17702 7.73744 5.17702 8.03033 5.46991C8.32322 5.76281 8.32322 6.23768 8.03033 6.53057L7.81066 6.75024H8C9.67947 6.75024 11.1554 7.62187 12 8.93743C12.8446 7.62187 14.3205 6.75024 16 6.75024H16.1893L15.9697 6.53057C15.6768 6.23768 15.6768 5.76281 15.9697 5.46991C16.2626 5.17702 16.7374 5.17702 17.0303 5.46991L18.5303 6.96992C18.8232 7.26281 18.8232 7.73768 18.5303 8.03057L17.0303 9.53058C16.7374 9.82347 16.2626 9.82347 15.9697 9.53058C15.6768 9.23768 15.6768 8.76281 15.9697 8.46992L16.1893 8.25024H16C14.2051 8.25024 12.75 9.70532 12.75 11.5002V17.5002Z" fill="#1C274C"/>
</svg>
