<svg width="24" height="24" viewBox="0 0 24 24" fill="none" xmlns="http://www.w3.org/2000/svg">
<path opacity="0.5" d="M22.5303 2.53033C22.8232 2.23743 22.8232 1.76256 22.5303 1.46967C22.2375 1.17678 21.7626 1.17678 21.4697 1.46967L19.0677 3.87162C19.2695 4.01476 19.462 4.17674 19.6429 4.35756C19.8235 4.53824 19.9854 4.7306 20.1285 4.93221L22.5303 2.53033Z" fill="#1C274C"/>
<path opacity="0.5" d="M2.44853 11.4112L3.18962 12.6294C5.22275 15.9716 8.02819 18.777 11.3703 20.8102L12.5886 21.5514C14.4872 22.5205 16.9425 21.8979 18.0027 19.8899C18.5037 18.941 18.9798 17.8776 19.2819 16.8209C19.7699 15.1139 19.9408 13.5611 19.9945 12.4895C20.0266 11.8492 20.0426 11.529 19.8902 11.1334C19.7378 10.7378 19.4738 10.4738 18.9456 9.9457L14.1203 5.12119C13.6288 4.62976 13.383 4.38404 13.0133 4.23177C12.6435 4.07951 12.3489 4.08069 11.7597 4.08306C10.6466 4.08753 8.97556 4.20429 7.17896 4.71789C6.12226 5.01998 5.05883 5.49608 4.11001 5.99706C2.10201 7.05728 1.47943 9.51262 2.44853 11.4112Z" fill="#1C274C"/>
<path d="M19.6428 4.35756C17.9069 2.62162 15.0924 2.62175 13.3564 4.35764L13.3186 4.39549C13.55 4.55102 13.7743 4.77521 14.1203 5.12119L18.9456 9.9457C19.2474 10.2475 19.463 10.463 19.6208 10.6662L19.6429 10.644C21.3788 8.90807 21.3788 6.09349 19.6428 4.35756Z" fill="#1C274C"/>
</svg>
