<svg width="24" height="24" viewBox="0 0 24 24" fill="none" xmlns="http://www.w3.org/2000/svg">
<path opacity="0.5" d="M12 22.0005C7.75736 22.0005 5.63604 22.0005 4.31802 20.536C3 19.0716 3 16.7145 3 12.0005C3 7.28644 3 4.92942 4.31802 3.46495C5.63604 2.00049 7.75736 2.00049 12 2.00049C16.2426 2.00049 18.364 2.00049 19.682 3.46495C21 4.92942 21 7.28644 21 12.0005C21 16.7145 21 19.0716 19.682 20.536C18.364 22.0005 16.2426 22.0005 12 22.0005Z" fill="#1C274C"/>
<path d="M15 6.00049H9C8.53501 6.00049 8.30252 6.00049 8.11177 6.0516C7.59413 6.1903 7.18981 6.59462 7.05111 7.11226C7 7.30301 7 7.5355 7 8.00049C7 8.46547 7 8.69797 7.05111 8.88872C7.18981 9.40635 7.59413 9.81068 8.11177 9.94938C8.30252 10.0005 8.53501 10.0005 9 10.0005H15C15.465 10.0005 15.6975 10.0005 15.8882 9.94938C16.4059 9.81068 16.8102 9.40635 16.9489 8.88872C17 8.69797 17 8.46547 17 8.00049C17 7.5355 17 7.30301 16.9489 7.11226C16.8102 6.59462 16.4059 6.1903 15.8882 6.0516C15.6975 6.00049 15.465 6.00049 15 6.00049Z" fill="#1C274C"/>
<path d="M8 14.0005C8.55228 14.0005 9 13.5528 9 13.0005C9 12.4482 8.55228 12.0005 8 12.0005C7.44772 12.0005 7 12.4482 7 13.0005C7 13.5528 7.44772 14.0005 8 14.0005Z" fill="#1C274C"/>
<path d="M8 18.0005C8.55228 18.0005 9 17.5528 9 17.0005C9 16.4482 8.55228 16.0005 8 16.0005C7.44772 16.0005 7 16.4482 7 17.0005C7 17.5528 7.44772 18.0005 8 18.0005Z" fill="#1C274C"/>
<path d="M12 14.0005C12.5523 14.0005 13 13.5528 13 13.0005C13 12.4482 12.5523 12.0005 12 12.0005C11.4477 12.0005 11 12.4482 11 13.0005C11 13.5528 11.4477 14.0005 12 14.0005Z" fill="#1C274C"/>
<path d="M12 18.0005C12.5523 18.0005 13 17.5528 13 17.0005C13 16.4482 12.5523 16.0005 12 16.0005C11.4477 16.0005 11 16.4482 11 17.0005C11 17.5528 11.4477 18.0005 12 18.0005Z" fill="#1C274C"/>
<path d="M16 14.0005C16.5523 14.0005 17 13.5528 17 13.0005C17 12.4482 16.5523 12.0005 16 12.0005C15.4477 12.0005 15 12.4482 15 13.0005C15 13.5528 15.4477 14.0005 16 14.0005Z" fill="#1C274C"/>
<path d="M16 18.0005C16.5523 18.0005 17 17.5528 17 17.0005C17 16.4482 16.5523 16.0005 16 16.0005C15.4477 16.0005 15 16.4482 15 17.0005C15 17.5528 15.4477 18.0005 16 18.0005Z" fill="#1C274C"/>
</svg>
