<svg width="24" height="24" viewBox="0 0 24 24" fill="none" xmlns="http://www.w3.org/2000/svg">
<path opacity="0.5" d="M14 20.0005H10C6.22876 20.0005 4.34315 20.0005 3.17157 18.8289C2 17.6573 2 15.7717 2 12.0005C2 11.5586 2.00188 10.3925 2.00377 10.0005H22C22.0019 10.3925 22 11.5586 22 12.0005C22 12.66 22 13.2618 21.9937 13.8122L20.591 12.4095C19.7123 11.5308 18.2877 11.5308 17.409 12.4095L15.409 14.4095C14.5303 15.2882 14.5303 16.7128 15.409 17.5915C15.7847 17.9671 16.2601 18.1822 16.75 18.2366V19.9748C15.964 20.0005 15.0559 20.0005 14 20.0005Z" fill="#1C274C"/>
<path fill-rule="evenodd" clip-rule="evenodd" d="M18.4697 13.4702C18.7626 13.1773 19.2374 13.1773 19.5303 13.4702L21.5303 15.4702C21.8232 15.7631 21.8232 16.2379 21.5303 16.5308C21.2374 16.8237 20.7626 16.8237 20.4697 16.5308L19.75 15.8111V20.0005C19.75 20.4147 19.4142 20.7505 19 20.7505C18.5858 20.7505 18.25 20.4147 18.25 20.0005V15.8111L17.5303 16.5308C17.2374 16.8237 16.7626 16.8237 16.4697 16.5308C16.1768 16.2379 16.1768 15.7631 16.4697 15.4702L18.4697 13.4702Z" fill="#1C274C"/>
<path d="M12.5 15.2505C12.0858 15.2505 11.75 15.5863 11.75 16.0005C11.75 16.4147 12.0858 16.7505 12.5 16.7505H14C14.4142 16.7505 14.75 16.4147 14.75 16.0005C14.75 15.5863 14.4142 15.2505 14 15.2505H12.5Z" fill="#1C274C"/>
<path d="M6 15.2505C5.58579 15.2505 5.25 15.5863 5.25 16.0005C5.25 16.4147 5.58579 16.7505 6 16.7505H10C10.4142 16.7505 10.75 16.4147 10.75 16.0005C10.75 15.5863 10.4142 15.2505 10 15.2505H6Z" fill="#1C274C"/>
<path d="M9.99484 4.00049H14.0052C17.7861 4.00049 19.6766 4.00049 20.8512 5.11627C21.6969 5.91964 21.9337 7.07556 22 9.00049V10.0005H2V9.00049C2.0663 7.07556 2.3031 5.91964 3.14881 5.11627C4.3234 4.00049 6.21388 4.00049 9.99484 4.00049Z" fill="#1C274C"/>
</svg>
