<svg width="24" height="24" viewBox="0 0 24 24" fill="none" xmlns="http://www.w3.org/2000/svg">
<path fill-rule="evenodd" clip-rule="evenodd" d="M17.1923 6.00049H6.80765C5.12027 6.00049 4.27658 6.00049 3.63268 6.3302C3.07242 6.61708 2.61659 7.07291 2.32971 7.63316C2 8.27707 2 9.12076 2 10.8081C2 11.2371 2 11.4516 2.07336 11.6324C2.13743 11.7903 2.24079 11.9292 2.37363 12.036C2.52574 12.1582 2.73118 12.2198 3.14206 12.3431L8.5 13.9505V15.1632C8.5 15.9288 8.95939 16.6346 9.68682 16.9301L10.2469 17.1577C11.3719 17.6148 12.6281 17.6148 13.7531 17.1577L14.3132 16.9301C15.0406 16.6346 15.5 15.9288 15.5 15.1632V13.9505L20.8579 12.3431C21.2688 12.2198 21.4743 12.1582 21.6264 12.036C21.7592 11.9292 21.8626 11.7903 21.9266 11.6324C22 11.4516 22 11.2371 22 10.8081C22 9.12076 22 8.27707 21.6703 7.63316C21.3834 7.07291 20.9276 6.61708 20.3673 6.3302C19.7234 6.00049 18.8797 6.00049 17.1923 6.00049ZM13.6 13.0005H10.4C10.1791 13.0005 10 13.1824 10 13.4068V15.1632C10 15.3293 10.0996 15.4787 10.2514 15.5404L10.8116 15.768C11.5745 16.078 12.4255 16.078 13.1885 15.768L13.7486 15.5404C13.9004 15.4787 14 15.3293 14 15.1632V13.4068C14 13.1824 13.8209 13.0005 13.6 13.0005Z" fill="#1C274C"/>
<path opacity="0.5" d="M20.9579 12.3129C20.9469 12.3163 20.9356 12.3197 20.9242 12.3231L15.5 13.9504V15.1631C15.5 15.9287 15.0406 16.6344 14.3132 16.93L13.7531 17.1576C12.6281 17.6146 11.3719 17.6146 10.2469 17.1576L9.68682 16.93C8.95939 16.6344 8.5 15.9287 8.5 15.1631V13.9504L3 12.3003C3.0009 15.9756 3.03489 19.6883 4.318 20.8289C5.63601 22.0004 7.75733 22.0004 12 22.0004C16.2426 22.0004 18.3639 22.0004 19.682 20.8289C20.9651 19.6883 20.9991 15.9756 21 12.3003L20.9579 12.3129Z" fill="#1C274C"/>
<path opacity="0.5" d="M9.1709 4.00049C9.58273 2.8353 10.694 2.00049 12.0002 2.00049C13.3064 2.00049 14.4177 2.8353 14.8295 4.00049" stroke="#1C274C" stroke-width="1.5" stroke-linecap="round"/>
</svg>
