<svg width="24" height="24" viewBox="0 0 24 24" fill="none" xmlns="http://www.w3.org/2000/svg">
<path opacity="0.5" d="M8.99956 20.0005H14.9996C16.8852 20.0005 17.828 20.0005 18.4138 19.4147C18.8853 18.9432 18.9773 18.2403 18.9952 17.0005H5.00391C5.02184 18.2403 5.1138 18.9432 5.58535 19.4147C6.17113 20.0005 7.11394 20.0005 8.99956 20.0005Z" fill="#1C274C"/>
<path d="M11.25 6.00049H9C7.11438 6.00049 6.17157 6.00049 5.58579 6.58627C5 7.17206 5 8.11487 5 10.0005V16.0005C5 16.3682 5 16.7001 5.00435 17.0005H18.9957C19 16.7001 19 16.3682 19 16.0005V10.0005C19 8.11487 19 7.17206 18.4142 6.58627C17.8284 6.00049 16.8856 6.00049 15 6.00049H12.75V10.973L13.4306 10.1791C13.7001 9.86457 14.1736 9.82815 14.4881 10.0977C14.8026 10.3673 14.839 10.8408 14.5694 11.1552L12.5694 13.4886C12.427 13.6548 12.2189 13.7505 12 13.7505C11.7811 13.7505 11.573 13.6548 11.4306 13.4886L9.43056 11.1552C9.16099 10.8408 9.19741 10.3673 9.51191 10.0977C9.8264 9.82815 10.2999 9.86457 10.5694 10.1791L11.25 10.973V6.00049Z" fill="#1C274C"/>
<path opacity="0.5" d="M18.1111 3.00049H5.88889C3.74112 3.00049 2 4.80046 2 7.02085C2 8.92506 3.28058 10.5201 5 10.9357V10.0005C5 8.11487 5 7.17206 5.58579 6.58627C6.17157 6.00049 7.11438 6.00049 9 6.00049H11.25H12.75H15C16.8856 6.00049 17.8284 6.00049 18.4142 6.58627C19 7.17206 19 8.11487 19 10.0005V10.9357C20.7194 10.5201 22 8.92506 22 7.02085C22 4.80046 20.2589 3.00049 18.1111 3.00049Z" fill="#1C274C"/>
</svg>
