<svg width="24" height="24" viewBox="0 0 24 24" fill="none" xmlns="http://www.w3.org/2000/svg">
<g clip-path="url(#clip0_1_13123)">
<path opacity="0.5" d="M12.9839 22.4939L13.521 21.5872C13.9375 20.8838 14.1458 20.5322 14.4804 20.3377C14.815 20.1433 15.2362 20.136 16.0786 20.1215C17.3224 20.1001 18.1024 20.0239 18.7566 19.7531C19.9704 19.2507 20.9348 18.287 21.4375 17.0741C21.6226 16.6275 21.7169 16.1223 21.7648 15.4508C21.7903 15.0951 21.803 14.9172 21.708 14.7749C21.6131 14.6325 21.4329 14.5721 21.0723 14.4513C19.5606 13.9447 16.0584 12.6558 14.1 11C11.8925 9.1337 9.91782 5.33966 9.21118 3.88541C9.0707 3.59632 9.00047 3.45177 8.87715 3.37549C8.75383 3.29921 8.59743 3.30086 8.28463 3.30416C6.25036 3.32565 5.32915 3.43826 4.36538 4.02846C3.69883 4.43664 3.13843 4.99667 2.72997 5.66276C2 6.85315 2 8.47359 2 11.7145V12.7045C2 15.0111 2 16.1644 2.37707 17.0741C2.87984 18.287 3.84419 19.2507 5.05797 19.7531C5.71215 20.0239 6.49219 20.1001 7.73591 20.1215C8.57837 20.136 8.9996 20.1433 9.33417 20.3377C9.66874 20.5322 9.87702 20.8838 10.2936 21.5872L10.8307 22.4939C11.3094 23.3021 12.5052 23.3021 12.9839 22.4939Z" fill="#1C274C"/>
<path fill-rule="evenodd" clip-rule="evenodd" d="M14.8719 0.239472C15.2073 0.555664 15.2039 1.06515 14.8643 1.37744L13.7622 2.3909C14.721 2.39993 15.6433 2.42168 16.4756 2.47412C17.1913 2.51922 17.8616 2.58814 18.4457 2.69633C19.0178 2.8023 19.569 2.95665 20.0069 3.20336C20.8206 3.66191 21.5058 4.29165 22.0058 5.04181C22.4867 5.76352 22.6986 6.57928 22.8003 7.563C22.8998 8.52542 22.8998 9.72816 22.8998 11.2532V11.2956C22.8998 11.74 22.5128 12.1002 22.0355 12.1002C21.5582 12.1002 21.1712 11.74 21.1712 11.2956C21.1712 9.71885 21.1703 8.59352 21.0797 7.71722C20.9904 6.85332 20.8201 6.31527 20.5369 5.8903C20.1817 5.3572 19.6936 4.90801 19.1118 4.58018C18.9261 4.47554 18.6031 4.3664 18.1084 4.27475C17.6257 4.18533 17.0367 4.12252 16.3589 4.07981C15.5758 4.03047 14.7025 4.00946 13.7763 4.00051L14.8643 5.00093C15.2039 5.31322 15.2073 5.82271 14.8719 6.1389C14.5364 6.45509 13.9892 6.45825 13.6496 6.14596L11.0568 3.7617C10.8923 3.61052 10.7998 3.40433 10.7998 3.18918C10.7998 2.97404 10.8923 2.76785 11.0568 2.61667L13.6496 0.232409C13.9892 -0.0798818 14.5364 -0.0767194 14.8719 0.239472Z" fill="#1C274C"/>
</g>
<defs>
<clipPath id="clip0_1_13123">
<rect width="24" height="24" fill="white" transform="translate(0 0.000244141)"/>
</clipPath>
</defs>
</svg>
