<svg width="24" height="24" viewBox="0 0 24 24" fill="none" xmlns="http://www.w3.org/2000/svg">
<path d="M21.9749 13.8136C20.4809 14.5725 18.7904 15.0003 17 15.0003C10.9249 15.0003 6 10.0754 6 4.00025C6 3.37097 6.05284 2.75403 6.15433 2.15363C5.43913 2.25904 4.87728 2.43692 4.38751 2.73705C3.71473 3.14933 3.14908 3.71498 2.7368 4.38776C2 5.59011 2 7.22682 2 10.5003V11.5003C2 13.83 2 14.9948 2.3806 15.9137C2.88807 17.1388 3.86144 18.1122 5.08658 18.6196C5.74689 18.8932 6.53422 18.9701 7.78958 18.9917C8.63992 19.0064 9.06509 19.0137 9.40279 19.2101C9.74049 19.4065 9.95073 19.7617 10.3712 20.4721L10.9133 21.3879C11.3965 22.2042 12.6035 22.2042 13.0867 21.3879L13.6288 20.4721C14.0492 19.7617 14.2595 19.4065 14.5972 19.2101C14.9349 19.0137 15.36 19.0064 16.2104 18.9917C17.4658 18.9701 18.2531 18.8932 18.9134 18.6196C20.1386 18.1122 21.1119 17.1388 21.6194 15.9137C21.8463 15.3659 21.9379 14.7308 21.9749 13.8136Z" fill="#1C274C"/>
<path fill-rule="evenodd" clip-rule="evenodd" d="M13.0867 21.3879L13.6288 20.4721C14.0492 19.7617 14.2595 19.4065 14.5972 19.2101C14.9349 19.0137 15.36 19.0064 16.2104 18.9917C17.4658 18.9701 18.2531 18.8932 18.9134 18.6196C20.1386 18.1122 21.1119 17.1388 21.6194 15.9137C21.8463 15.3659 21.9379 14.7308 21.9749 13.8136C20.4809 14.5725 18.7904 15.0003 17 15.0003C10.9249 15.0003 6 10.0754 6 4.00025C6 3.37097 6.05284 2.75403 6.15433 2.15363C5.43913 2.25904 4.87728 2.43692 4.38751 2.73705C3.71473 3.14933 3.14908 3.71498 2.7368 4.38776C2 5.59011 2 7.22682 2 10.5003V11.5003C2 13.83 2 14.9948 2.3806 15.9137C2.88807 17.1388 3.86144 18.1122 5.08658 18.6196C5.74689 18.8932 6.53422 18.9701 7.78958 18.9917C8.63992 19.0064 9.06509 19.0137 9.40279 19.2101C9.74049 19.4065 9.95073 19.7617 10.3712 20.4721L10.9133 21.3879C11.3965 22.2042 12.6035 22.2042 13.0867 21.3879Z" fill="#1C274C"/>
<path opacity="0.5" d="M13.5 2.00024H10.5C8.56 2.00024 7.19487 2.00025 6.15433 2.15362C6.05284 2.75402 6 3.37096 6 4.00024C6 10.0754 10.9249 15.0002 17 15.0002C18.7904 15.0002 20.4809 14.5725 21.9749 13.8136C22 13.1922 22 12.4412 22 11.5002V10.5002C22 7.22681 22 5.5901 21.2632 4.38775C20.8509 3.71497 20.2853 3.14932 19.6125 2.73704C18.4101 2.00024 16.7734 2.00024 13.5 2.00024Z" fill="#1C274C"/>
</svg>
