<svg width="24" height="24" viewBox="0 0 24 24" fill="none" xmlns="http://www.w3.org/2000/svg">
<path opacity="0.5" d="M21 15.9986V9.99863C21 7.1702 21 5.75599 20.1213 4.87731C19.3529 4.10892 18.175 4.01247 16 4.00037H8C5.82497 4.01247 4.64706 4.10892 3.87868 4.87731C3 5.75599 3 7.1702 3 9.99863V15.9986C3 18.8271 3 20.2413 3.87868 21.1199C4.75736 21.9986 6.17157 21.9986 9 21.9986H15C17.8284 21.9986 19.2426 21.9986 20.1213 21.1199C21 20.2413 21 18.8271 21 15.9986Z" fill="#1C274C"/>
<path d="M8 3.50037C8 2.67194 8.67157 2.00037 9.5 2.00037H14.5C15.3284 2.00037 16 2.67194 16 3.50037V4.50037C16 5.32879 15.3284 6.00037 14.5 6.00037H9.5C8.67157 6.00037 8 5.32879 8 4.50037V3.50037Z" fill="#1C274C"/>
<path fill-rule="evenodd" clip-rule="evenodd" d="M15.5483 10.4886C15.8309 10.7914 15.8146 11.266 15.5117 11.5487L11.226 15.5487C10.9379 15.8176 10.4907 15.8176 10.2025 15.5487L8.48826 13.9487C8.18545 13.666 8.16909 13.1914 8.45171 12.8886C8.73434 12.5858 9.20893 12.5695 9.51174 12.8521L10.7143 13.9745L14.4883 10.4521C14.7911 10.1695 15.2657 10.1858 15.5483 10.4886Z" fill="#1C274C"/>
</svg>
