<svg width="24" height="24" viewBox="0 0 24 24" fill="none" xmlns="http://www.w3.org/2000/svg">
<path opacity="0.5" d="M3.46447 20.536C4.92893 22.0005 7.28595 22.0005 12 22.0005C16.714 22.0005 19.0711 22.0005 20.5355 20.536C22 19.0716 22 16.7145 22 12.0005C22 7.28644 22 4.92942 20.5355 3.46495C19.0711 2.00049 16.714 2.00049 12 2.00049C7.28595 2.00049 4.92893 2.00049 3.46447 3.46495C2 4.92942 2 7.28644 2 12.0005C2 16.7145 2 19.0716 3.46447 20.536Z" fill="#1C274C"/>
<path fill-rule="evenodd" clip-rule="evenodd" d="M12 7.25049C12.4142 7.25049 12.75 7.58627 12.75 8.00049V11.6898L15.0303 13.9702C15.3232 14.2631 15.3232 14.7379 15.0303 15.0308C14.7374 15.3237 14.2626 15.3237 13.9697 15.0308L11.4697 12.5308C11.329 12.3902 11.25 12.1994 11.25 12.0005V8.00049C11.25 7.58627 11.5858 7.25049 12 7.25049Z" fill="#1C274C"/>
</svg>
