<svg width="24" height="24" viewBox="0 0 24 24" fill="none" xmlns="http://www.w3.org/2000/svg">
<path opacity="0.5" d="M3.46447 20.5358C4.92893 22.0002 7.28595 22.0002 12 22.0002C16.714 22.0002 19.0711 22.0002 20.5355 20.5358C22 19.0713 22 16.7143 22 12.0002C22 7.2862 22 4.92918 20.5355 3.46471C19.0711 2.00024 16.714 2.00024 12 2.00024C7.28595 2.00024 4.92893 2.00024 3.46447 3.46471C2 4.92918 2 7.2862 2 12.0002C2 16.7143 2 19.0713 3.46447 20.5358Z" fill="#1C274C"/>
<path d="M13.024 14.5603C13.5166 14.3633 13.763 14.2647 13.9562 14.0953C14.0055 14.0521 14.0518 14.0057 14.095 13.9565C14.2645 13.7632 14.363 13.5169 14.5601 13.0242C15.484 10.7144 15.946 9.55954 15.4977 8.89989C15.3914 8.74348 15.2565 8.60858 15.1001 8.5023C14.4405 8.05404 13.2856 8.516 10.9758 9.43991C10.4831 9.63698 10.2368 9.73551 10.0435 9.90498C9.99429 9.94817 9.94792 9.99453 9.90474 10.0438C9.73527 10.237 9.63673 10.4834 9.43966 10.976C8.51575 13.2858 8.0538 14.4407 8.50206 15.1004C8.60834 15.2568 8.74324 15.3917 8.89964 15.4979C9.5593 15.9462 10.7142 15.4842 13.024 14.5603Z" fill="#1C274C"/>
</svg>
