<svg width="24" height="24" viewBox="0 0 24 24" fill="none" xmlns="http://www.w3.org/2000/svg">
<path fill-rule="evenodd" clip-rule="evenodd" d="M13.1092 13.5004C12.4699 12.9556 11.5297 12.9556 10.8905 13.5004C10.6165 13.7338 10.276 13.8749 9.91719 13.9035C9.07997 13.9703 8.41515 14.6351 8.34834 15.4724C8.31971 15.8311 8.17863 16.1717 7.94519 16.4457C7.40043 17.0849 7.40043 18.0251 7.94519 18.6643C8.17863 18.9383 8.31971 19.2789 8.34834 19.6376C8.41515 20.4748 9.07997 21.1397 9.91719 21.2065C10.276 21.2351 10.6165 21.3762 10.8905 21.6096C11.5297 22.1544 12.4699 22.1544 13.1092 21.6096C13.3831 21.3762 13.7237 21.2351 14.0824 21.2065C14.9197 21.1397 15.5845 20.4748 15.6513 19.6376C15.6799 19.2789 15.821 18.9383 16.0544 18.6643C16.5992 18.0251 16.5992 17.0849 16.0544 16.4457C15.821 16.1717 15.6799 15.8311 15.6513 15.4724C15.5845 14.6351 14.9197 13.9703 14.0824 13.9035C13.7237 13.8749 13.3831 13.7338 13.1092 13.5004ZM14.0117 17.1035C14.3146 16.8208 14.3309 16.3463 14.0483 16.0434C13.7657 15.7406 13.2911 15.7243 12.9883 16.0069L11.3571 17.5293L11.0117 17.2069C10.7089 16.9243 10.2343 16.9406 9.95171 17.2434C9.66909 17.5463 9.68545 18.0208 9.98826 18.3035L10.8454 19.1035C11.1336 19.3724 11.5807 19.3724 11.8689 19.1035L14.0117 17.1035Z" fill="#1C274C"/>
<path opacity="0.5" d="M2 12.0005V8.00049C2 5.17206 2 3.75785 2.87868 2.87917C3.75736 2.00049 5.17157 2.00049 8 2.00049H16C18.8284 2.00049 20.2426 2.00049 21.1213 2.87917C22 3.75785 22 5.17206 22 8.00049V12.0005C22 14.8289 22 16.2431 21.1213 17.1218C20.2855 17.9576 18.9652 17.9984 16.4042 18.0004C16.5467 17.4707 16.4302 16.8866 16.0544 16.4458C15.821 16.1718 15.6799 15.8313 15.6513 15.4725C15.5845 14.6353 14.9197 13.9704 14.0824 13.9036C13.7237 13.875 13.3831 13.7339 13.1092 13.5005C12.4699 12.9557 11.5297 12.9557 10.8905 13.5005C10.6165 13.7339 10.276 13.875 9.91719 13.9036C9.07997 13.9704 8.41515 14.6353 8.34834 15.4725C8.31971 15.8313 8.17863 16.1718 7.94519 16.4458C7.56948 16.8866 7.4529 17.4707 7.59543 18.0004C5.03465 17.9984 3.71443 17.9576 2.87868 17.1218C2 16.2431 2 14.8289 2 12.0005Z" fill="#1C274C"/>
<path d="M8.25 6.00049C8.25 5.58627 8.58579 5.25049 9 5.25049H15C15.4142 5.25049 15.75 5.58627 15.75 6.00049C15.75 6.4147 15.4142 6.75049 15 6.75049H9C8.58579 6.75049 8.25 6.4147 8.25 6.00049Z" fill="#1C274C"/>
<path d="M7 8.75049C6.58579 8.75049 6.25 9.08627 6.25 9.50049C6.25 9.9147 6.58579 10.2505 7 10.2505H17C17.4142 10.2505 17.75 9.9147 17.75 9.50049C17.75 9.08627 17.4142 8.75049 17 8.75049H7Z" fill="#1C274C"/>
</svg>
