<svg width="24" height="24" viewBox="0 0 24 24" fill="none" xmlns="http://www.w3.org/2000/svg">
<path opacity="0.5" d="M12 2.00012C6.47715 2.00012 2 6.47727 2 12.0001C2 12.3541 2.01839 12.7037 2.05426 13.0481C2.40307 13.3525 4.367 15.0001 6 15.0001C7.21199 15.0001 8.60628 14.0925 9.38725 13.5001L9.39619 13.4912C9.14413 13.0519 9 12.5429 9 12.0001C9 10.3433 10.3431 9.00012 12 9.00012C13.6569 9.00012 15 10.3433 15 12.0001C15 12.8852 14.6167 13.6808 14.007 14.2299C14.4774 14.6426 15.0911 15.0001 15.8053 15.0001C17.4948 15.0001 17.4948 13.0001 19.1842 13.0001C20.2618 13.0001 21.1102 13.8137 21.5835 14.4031L21.6758 14.5354C21.8874 13.7257 22 12.8761 22 12.0001C22 6.47727 17.5228 2.00012 12 2.00012Z" fill="#1C274C"/>
<path d="M9.38719 13.5001C8.60622 14.0925 7.21193 15.0001 5.99994 15.0001C4.36694 15.0001 2.40301 13.3525 2.0542 13.0481C2.57808 18.0784 6.83103 22.0001 11.9999 22.0001C16.6468 22.0001 20.5534 18.8306 21.6757 14.5354L21.5834 14.4031C21.1102 13.8137 20.2617 13.0001 19.1842 13.0001C17.4947 13.0001 17.4947 15.0001 15.8053 15.0001C15.091 15.0001 14.4774 14.6426 14.007 14.2299C13.4754 14.7087 12.7717 15.0001 11.9999 15.0001C10.8858 15.0001 9.91356 14.3928 9.39613 13.4912L9.38719 13.5001Z" fill="#1C274C"/>
<path d="M19.5279 5.41729C19.5078 5.4336 19.4884 5.4511 19.4697 5.46979L18.4697 6.46979C18.1768 6.76269 18.1768 7.23756 18.4697 7.53045C18.7626 7.82335 19.2374 7.82335 19.5303 7.53045L20.4347 6.62606C20.1627 6.20007 19.8594 5.79606 19.5279 5.41729Z" fill="#1C274C"/>
<path d="M5.41716 4.47224C5.43347 4.49232 5.45097 4.51176 5.46967 4.53045L6.46967 5.53045C6.76256 5.82335 7.23744 5.82335 7.53033 5.53045C7.82322 5.23756 7.82322 4.76269 7.53033 4.46979L6.62594 3.5654C6.19995 3.83738 5.79594 4.14075 5.41716 4.47224Z" fill="#1C274C"/>
<path d="M10.4697 4.53045C10.1768 4.23756 10.1768 3.76269 10.4697 3.46979C10.7626 3.1769 11.2374 3.1769 11.5303 3.46979L12.5303 4.46979C12.8232 4.76269 12.8232 5.23756 12.5303 5.53045C12.2374 5.82335 11.7626 5.82335 11.4697 5.53045L10.4697 4.53045Z" fill="#1C274C"/>
<path d="M16.6 5.45012C16.8485 5.11875 16.7814 4.64865 16.45 4.40012C16.1186 4.15159 15.6485 4.21875 15.4 4.55012L13.9 6.55012C13.6515 6.88149 13.7186 7.35159 14.05 7.60012C14.3814 7.84865 14.8515 7.78149 15.1 7.45012L16.6 5.45012Z" fill="#1C274C"/>
<path d="M8.40953 7.56026C8.51674 7.96036 8.92799 8.1978 9.32809 8.09059L10.6941 7.72457C11.0942 7.61736 11.3316 7.20611 11.2244 6.80601C11.1172 6.40591 10.706 6.16847 10.3059 6.27568L8.93986 6.6417C8.53976 6.74891 8.30232 7.16016 8.40953 7.56026Z" fill="#1C274C"/>
<path d="M17.4653 10.3542C17.4847 10.7679 17.1651 11.1191 16.7513 11.1386C16.3376 11.158 15.9864 10.8383 15.967 10.4246L15.9006 9.01194C15.8811 8.59818 16.2008 8.247 16.6145 8.22755C17.0283 8.20811 17.3795 8.52776 17.3989 8.94152L17.4653 10.3542Z" fill="#1C274C"/>
<path d="M18.4368 12.0587C18.7106 12.3695 19.1845 12.3996 19.4953 12.1258L21.1734 10.648C21.4843 10.3742 21.5143 9.9003 21.2406 9.58945C20.9668 9.2786 20.4929 9.24854 20.182 9.5223L18.504 11.0001C18.1931 11.2739 18.163 11.7478 18.4368 12.0587Z" fill="#1C274C"/>
<path d="M5.52445 8.16689C5.35304 7.78981 5.51977 7.34517 5.89686 7.17376C6.27394 7.00235 6.71858 7.16909 6.88999 7.54617L7.47521 8.83361C7.64662 9.2107 7.47989 9.65534 7.10281 9.82675C6.72572 9.99815 6.28108 9.83142 6.10967 9.45434L5.52445 8.16689Z" fill="#1C274C"/>
<path d="M6.94295 10.8951C7.2772 11.1398 7.34986 11.6091 7.10522 11.9433L6.26999 13.0845C6.02535 13.4188 5.55607 13.4914 5.22182 13.2468C4.88756 13.0022 4.81491 12.5329 5.05954 12.1986L5.89478 11.0574C6.13941 10.7232 6.60869 10.6505 6.94295 10.8951Z" fill="#1C274C"/>
<path d="M2.85543 8.97941C2.83239 8.56583 3.14898 8.21189 3.56255 8.18885C3.97612 8.16581 4.33006 8.4824 4.3531 8.89597L4.43177 10.308C4.45481 10.7216 4.13822 11.0755 3.72464 11.0986C3.31107 11.1216 2.95713 10.805 2.93409 10.3914L2.85543 8.97941Z" fill="#1C274C"/>
</svg>
