<svg width="24" height="24" viewBox="0 0 24 24" fill="none" xmlns="http://www.w3.org/2000/svg">
<path fill-rule="evenodd" clip-rule="evenodd" d="M4.2915 15.3041L8.69636 19.709L9.06343 20.0761L9.79757 20.8102C10.4837 21.4963 10.8268 21.8394 11.2299 21.9474C11.4939 22.0182 11.7719 22.0182 12.036 21.9474C12.4391 21.8394 12.7821 21.4963 13.4683 20.8102C14.1544 20.1241 14.4975 19.781 14.6055 19.3779C14.6763 19.1139 14.6763 18.8358 14.6055 18.5718C14.4975 18.1687 14.1544 17.8256 13.4683 17.1395L12.3671 16.0383L7.96221 11.6334L6.861 10.5322C6.17486 9.84606 5.83179 9.50299 5.42871 9.39499C5.16466 9.32423 4.88662 9.32423 4.62257 9.39499C4.21949 9.50299 3.87642 9.84606 3.19028 10.5322C2.50414 11.2183 2.16107 11.5614 2.05306 11.9645C1.98231 12.2285 1.98231 12.5066 2.05306 12.7706C2.16107 13.1737 2.50414 13.5168 3.19028 14.2029L4.2915 15.3041ZM16.0378 12.3676L11.6329 7.9627L10.5317 6.86149C9.84557 6.17534 9.5025 5.83227 9.3945 5.4292C9.32374 5.16514 9.32374 4.88711 9.3945 4.62305C9.5025 4.21998 9.84557 3.87691 10.5317 3.19077C11.2179 2.50463 11.5609 2.16156 11.964 2.05355C12.2281 1.9828 12.5061 1.9828 12.7701 2.05355C13.1732 2.16156 13.5163 2.50463 14.2024 3.19077L15.3036 4.29198L19.7046 8.70076L20.0756 9.06392L20.8097 9.79806C21.4959 10.4842 21.8389 10.8273 21.9469 11.2303C22.0177 11.4944 22.0177 11.7724 21.9469 12.0365C21.8389 12.4396 21.4959 12.7826 20.8097 13.4688C20.1236 14.1549 19.7805 14.498 19.3774 14.606C19.1134 14.6767 18.8353 14.6767 18.5713 14.606C18.1682 14.498 17.8251 14.1549 17.139 13.4688L16.0378 12.3676Z" fill="#1C274C"/>
<path opacity="0.5" d="M18.6077 3.92447L20.076 5.39275L20.2017 5.51858C20.8101 6.1285 21.1143 6.45787 21.1143 6.86104C21.1143 7.29109 20.7682 7.63717 20.076 8.32933L19.705 8.70031L15.3041 4.29154L15.6712 3.92447C16.3633 3.23231 16.7094 2.88623 17.1394 2.88623C17.5695 2.88623 17.9156 3.23231 18.6077 3.92447Z" fill="#1C274C"/>
<path opacity="0.5" d="M5.39264 20.0761L3.92436 18.6078C3.2322 17.9157 2.88612 17.5696 2.88612 17.1396C2.88612 16.7095 3.2322 16.3634 3.92436 15.6713L4.29143 15.3042L8.69629 19.7091L8.32922 20.0761C7.63706 20.7683 7.29098 21.1144 6.86093 21.1144C6.43088 21.1144 6.0848 20.7683 5.39264 20.0761Z" fill="#1C274C"/>
<path opacity="0.5" d="M16.0376 12.3673L12.3669 16.038L7.96202 11.6331L11.6327 7.9624L16.0376 12.3673Z" fill="#1C274C"/>
</svg>
