<svg width="24" height="24" viewBox="0 0 24 24" fill="none" xmlns="http://www.w3.org/2000/svg">
<path d="M19 15.0005V9.00049C19 8.5355 19 8.30301 18.9489 8.11226C18.8102 7.59462 18.4059 7.1903 17.8882 7.0516C17.6975 7.00049 17.465 7.00049 17 7.00049C16.535 7.00049 16.3025 7.00049 16.1118 7.0516C15.5941 7.1903 15.1898 7.59462 15.0511 8.11226C15 8.30301 15 8.5355 15 9.00049V11.2505V12.7505V15.0005C15 15.4655 15 15.698 15.0511 15.8887C15.1898 16.4064 15.5941 16.8107 16.1118 16.9494C16.3025 17.0005 16.535 17.0005 17 17.0005C17.465 17.0005 17.6975 17.0005 17.8882 16.9494C18.4059 16.8107 18.8102 16.4064 18.9489 15.8887C19 15.698 19 15.4655 19 15.0005Z" fill="#1C274C"/>
<path d="M5 9.00049V15.0005C5 15.4655 5 15.698 5.05111 15.8887C5.18981 16.4064 5.59413 16.8107 6.11177 16.9494C6.30252 17.0005 6.53501 17.0005 7 17.0005C7.46499 17.0005 7.69748 17.0005 7.88823 16.9494C8.40587 16.8107 8.81019 16.4064 8.94889 15.8887C9 15.698 9 15.4655 9 15.0005V12.7505V11.2505V9.00049C9 8.5355 9 8.30301 8.94889 8.11226C8.81019 7.59462 8.40587 7.1903 7.88823 7.0516C7.69748 7.00049 7.46499 7.00049 7 7.00049C6.53501 7.00049 6.30252 7.00049 6.11177 7.0516C5.59413 7.1903 5.18981 7.59462 5.05111 8.11226C5 8.30301 5 8.5355 5 9.00049Z" fill="#1C274C"/>
<g opacity="0.5">
<path d="M15 12.7505H9V11.2505H15V12.7505Z" fill="#1C274C"/>
</g>
<g opacity="0.5">
<path d="M3.50013 12C3.50013 11.068 4.13757 10.285 5.00024 10.063L5.00024 13.937C4.13757 13.715 3.50013 12.932 3.50013 12Z" fill="#1C274C"/>
<path d="M20.4999 12C20.4999 12.9319 19.8625 13.715 18.9999 13.937V10.063C19.8625 10.285 20.4999 11.0681 20.4999 12Z" fill="#1C274C"/>
</g>
</svg>
