<svg width="24" height="24" viewBox="0 0 24 24" fill="none" xmlns="http://www.w3.org/2000/svg">
<path opacity="0.5" d="M14.9522 3.00049C13.9146 3.00049 13.0796 3.83551 11.4096 5.50555L6.5 10.4151L13.5854 17.5005L18.4949 12.5909C20.165 10.9209 21 10.0859 21 9.04824C21 8.01061 20.165 7.17559 18.4949 5.50555C16.8249 3.83551 15.9899 3.00049 14.9522 3.00049Z" fill="#1C274C"/>
<path d="M13.5854 17.5005L6.5 10.4152L5.50506 11.4101C3.83502 13.0801 3 13.9152 3 14.9528C3 15.9904 3.83502 16.8254 5.50506 18.4955C7.1751 20.1655 8.01013 21.0005 9.04776 21.0005C10.0854 21.0005 10.9204 20.1655 12.5904 18.4955L13.5854 17.5005Z" fill="#1C274C"/>
<g opacity="0.5">
<path d="M9.03264 21.0005H9C9.01086 21.0008 9.02174 21.0004 9.03264 21.0005Z" fill="#1C274C"/>
<path d="M9.06287 21.0005C9.85928 20.9942 10.5389 20.4942 11.5734 19.5005L21 19.5005C21.4142 19.5005 21.75 19.8363 21.75 20.2505C21.75 20.6647 21.4142 21.0005 21 21.0005H9.06287Z" fill="#1C274C"/>
</g>
</svg>
