<svg width="24" height="24" viewBox="0 0 24 24" fill="none" xmlns="http://www.w3.org/2000/svg">
<path opacity="0.5" fill-rule="evenodd" clip-rule="evenodd" d="M14 22.0002H10C6.22876 22.0002 4.34315 22.0002 3.17157 20.8287C2 19.6571 2 17.7715 2 14.0002V10.0002C2 6.22901 2 4.34339 3.17157 3.17182C4.34315 2.00024 6.23869 2.00024 10.0298 2.00024C10.6358 2.00024 11.1214 2.00024 11.53 2.01691C11.5166 2.09684 11.5095 2.17837 11.5092 2.26081L11.5 5.09521C11.4999 6.19232 11.4998 7.16189 11.6049 7.9434C11.7188 8.79052 11.9803 9.63751 12.6716 10.3288C13.3628 11.02 14.2098 11.2816 15.0569 11.3954C15.8385 11.5005 16.808 11.5004 17.9051 11.5004L18 11.5004H21.9574C22 12.0346 22 12.6903 22 13.5631V14.0002C22 17.7715 22 19.6571 20.8284 20.8287C19.6569 22.0002 17.7712 22.0002 14 22.0002Z" fill="#1C274C"/>
<path d="M8.85405 14.0228L8.95236 14.1991C9.06034 14.3928 9.11433 14.4897 9.19852 14.5536C9.2827 14.6175 9.38754 14.6412 9.59723 14.6887L9.78814 14.7319C10.526 14.8988 10.895 14.9823 10.9828 15.2646C11.0706 15.5468 10.819 15.841 10.316 16.4292L10.1858 16.5814C10.0429 16.7486 9.9714 16.8322 9.93924 16.9356C9.90709 17.039 9.91789 17.1505 9.9395 17.3735L9.95918 17.5766C10.0352 18.3614 10.0733 18.7539 9.84346 18.9283C9.61365 19.1028 9.2682 18.9437 8.5773 18.6256L8.39855 18.5433C8.20222 18.4529 8.10406 18.4077 8 18.4077C7.89594 18.4077 7.79778 18.4529 7.60145 18.5433L7.4227 18.6256C6.7318 18.9437 6.38635 19.1028 6.15654 18.9283C5.92674 18.7539 5.96476 18.3614 6.04082 17.5766L6.0605 17.3735C6.08211 17.1505 6.09291 17.039 6.06076 16.9356C6.0286 16.8322 5.95713 16.7486 5.81418 16.5814L5.68403 16.4292C5.18097 15.841 4.92945 15.5468 5.01723 15.2646C5.10501 14.9823 5.47396 14.8988 6.21186 14.7319L6.40277 14.6887C6.61246 14.6412 6.7173 14.6175 6.80148 14.5536C6.88567 14.4897 6.93966 14.3928 7.04764 14.1991L7.14595 14.0228C7.52594 13.3411 7.71594 13.0002 8 13.0002C8.28406 13.0002 8.47406 13.3411 8.85405 14.0228Z" fill="#1C274C"/>
<path d="M11.5092 2.26034L11.5 5.09474C11.4999 6.19184 11.4998 7.16142 11.6049 7.94293C11.7188 8.79005 11.9803 9.63704 12.6716 10.3283C13.3629 11.0196 14.2098 11.2811 15.057 11.395C15.8385 11.5 16.808 11.5 17.9051 11.4999L21.9574 11.4999C21.9698 11.6554 21.9786 11.8213 21.9848 11.9998H22C22 11.7323 22 11.5985 21.9901 11.4411C21.9335 10.5465 21.5617 9.52149 21.0315 8.79877C20.9382 8.67155 20.8743 8.59517 20.7467 8.44243C19.9542 7.49383 18.911 6.31217 18 5.49978C17.1892 4.7767 16.0787 3.98561 15.1101 3.33874C14.2781 2.78299 13.862 2.50511 13.2915 2.29858C13.1403 2.24383 12.9408 2.18335 12.7846 2.1449C12.4006 2.05038 12.0268 2.0175 11.5 2.0061L11.5092 2.26034Z" fill="#1C274C"/>
</svg>
