<svg width="24" height="24" viewBox="0 0 24 24" fill="none" xmlns="http://www.w3.org/2000/svg">
<path opacity="0.5" d="M12.8324 21.8017C15.9583 21.1751 20 18.9264 20 13.1115C20 7.81996 16.1267 4.29629 13.3415 2.67721C12.7235 2.31794 12 2.79043 12 3.50528V5.33376C12 6.77562 11.3938 9.40748 9.70932 10.5022C8.84932 11.0611 7.92052 10.2246 7.816 9.20424L7.73017 8.36641C7.6304 7.3924 6.63841 6.80112 5.85996 7.39497C4.46147 8.4618 3 10.33 3 13.1115C3 20.2227 8.28889 22.0004 10.9333 22.0004C11.0871 22.0004 11.2488 21.9958 11.4171 21.9861C11.863 21.9299 11.4171 22.0854 12.8324 21.8017Z" fill="#1C274C"/>
<path d="M8 18.4446C8 21.0644 10.1113 21.8745 11.4171 21.9861C11.863 21.9299 11.4171 22.0854 12.8324 21.8017C13.871 21.4347 15 20.4926 15 18.4446C15 17.1469 14.1814 16.3462 13.5401 15.9714C13.3439 15.8568 13.1161 16.0011 13.0985 16.2277C13.0429 16.9458 12.3534 17.5178 11.8836 16.9718C11.4685 16.4892 11.2941 15.7844 11.2941 15.3335V14.7443C11.2941 14.389 10.9365 14.1537 10.631 14.335C9.49507 15.0089 8 16.3953 8 18.4446Z" fill="#1C274C"/>
</svg>
