<svg width="24" height="24" viewBox="0 0 24 24" fill="none" xmlns="http://www.w3.org/2000/svg">
<path d="M7.50118 7.01435C7.66526 6.01748 8.055 5.27519 8.59388 4.74513C9.33288 4.01824 10.4444 3.60037 11.896 3.60037C13.7289 3.60037 15.0149 4.26162 15.7123 5.39154C15.9359 5.75386 16.3769 5.84259 16.6974 5.58974C17.0178 5.33688 17.0963 4.83818 16.8727 4.47586C15.821 2.77185 14.0086 2.00037 11.896 2.00037C10.2215 2.00037 8.73888 2.48185 7.66517 3.53796C6.72077 4.46689 6.16184 5.77246 6.03027 7.37739C6.49056 7.17989 6.98528 7.05446 7.50118 7.01435Z" fill="#1C274C"/>
<path opacity="0.5" fill-rule="evenodd" clip-rule="evenodd" d="M8.49565 20.0371C5.96837 18.152 3 15.9378 3 12.0995C3 7.86233 7.95014 4.85738 12 8.93099C16.0499 4.85738 21 7.86233 21 12.0995C21 15.9378 18.0316 18.152 15.5044 20.0371C15.2417 20.2331 14.9838 20.4254 14.7344 20.6157C13.8 21.3289 12.9 22.0004 12 22.0004C11.1 22.0004 10.2 21.3289 9.26556 20.6157C9.01624 20.4254 8.75832 20.2331 8.49565 20.0371Z" fill="#1C274C"/>
<path d="M12 11.2504C12.4142 11.2504 12.75 11.5862 12.75 12.0004V14.5004C12.75 14.9146 12.4142 15.2504 12 15.2504C11.5858 15.2504 11.25 14.9146 11.25 14.5004V12.0004C11.25 11.5862 11.5858 11.2504 12 11.2504Z" fill="#1C274C"/>
</svg>
