<svg width="24" height="24" viewBox="0 0 24 24" fill="none" xmlns="http://www.w3.org/2000/svg">
<path d="M15.0383 18.9112C17.9806 16.5918 22 14.0004 22 9.13746C22 4.27453 16.4998 0.82583 12 5.501L10.8822 7.73605C10.6998 8.10086 10.6086 8.28326 10.6531 8.46236C10.6975 8.64146 10.8635 8.76 11.1954 8.99707L13.111 10.3653C13.5268 10.6623 13.7346 10.8108 13.7612 11.0294C13.7878 11.248 13.6215 11.4419 13.289 11.8299L11.6027 13.7973C11.3168 14.1308 11.1738 14.2976 11.1813 14.4934C11.1888 14.6892 11.3442 14.8445 11.6548 15.1552L12.5996 16.1C12.7952 16.2956 12.893 16.3933 12.9281 16.5203C12.9633 16.6472 12.9298 16.7814 12.8627 17.0497L12 20.5004C13 20.5004 14 19.7297 15.0383 18.9112Z" fill="#1C274C"/>
<path opacity="0.5" d="M8.10627 18.2472C5.29819 16.0837 2 13.5425 2 9.13746C2 4.27453 7.50016 0.82583 12 5.501L10.8822 7.73605C10.6998 8.10086 10.6086 8.28326 10.6531 8.46236C10.6975 8.64146 10.8635 8.76 11.1954 8.99707L13.111 10.3653C13.5268 10.6623 13.7346 10.8108 13.7612 11.0294C13.7878 11.248 13.6215 11.4419 13.289 11.8299L11.6027 13.7973C11.3168 14.1308 11.1738 14.2976 11.1813 14.4934C11.1888 14.6892 11.3442 14.8445 11.6548 15.1552L12.5996 16.1C12.7952 16.2956 12.893 16.3933 12.9281 16.5203C12.9633 16.6472 12.9298 16.7814 12.8627 17.0496L12 20.5004C11 20.5004 10 19.7297 8.96173 18.9112C8.68471 18.6929 8.39814 18.4721 8.10627 18.2472Z" fill="#1C274C"/>
</svg>
