<svg width="24" height="24" viewBox="0 0 24 24" fill="none" xmlns="http://www.w3.org/2000/svg">
<path d="M14 5.50049C14 6.8812 12.8807 8.00049 11.5 8.00049C10.1193 8.00049 9 6.8812 9 5.50049C9 4.11978 10.1193 3.00049 11.5 3.00049C12.8807 3.00049 14 4.11978 14 5.50049Z" fill="#1C274C"/>
<path fill-rule="evenodd" clip-rule="evenodd" d="M19 6.25049C19.4142 6.25049 19.75 6.58627 19.75 7.00049V21.0005C19.75 21.4147 19.4142 21.7505 19 21.7505C18.5858 21.7505 18.25 21.4147 18.25 21.0005V10.9946C16.5564 11.9804 14.456 12.067 12.6646 11.1713C12.6474 11.1627 12.6306 11.1535 12.6141 11.1436C11.9234 10.7292 11.0363 11.1746 10.9561 11.9761L10.8875 12.6622C10.8294 13.2435 11.1062 13.8074 11.6016 14.1171L11.9349 14.3254C13.6852 15.4193 14.8215 17.2706 15.0044 19.3266L15.1474 20.934C15.1841 21.3466 14.8794 21.7108 14.4668 21.7475C14.0542 21.7842 13.69 21.4795 13.6533 21.067L13.5103 19.4596C13.369 17.8718 12.4916 16.4422 11.1399 15.5974L10.8066 15.3891C9.82723 14.777 9.28007 13.6621 9.39498 12.513L9.46359 11.8269C9.65214 9.94139 11.7281 8.88884 13.3581 9.84093C14.9095 10.6055 16.7667 10.3853 18.0965 9.27707L18.25 9.14918V7.00049C18.25 6.58627 18.5858 6.25049 19 6.25049Z" fill="#1C274C"/>
<g opacity="0.5">
<path d="M9.19069 15.7753C9.59129 15.8806 9.83069 16.2907 9.7254 16.6913L9.72479 16.6936L9.72356 16.6983L9.71923 16.7144L9.70334 16.7724C9.68959 16.822 9.66959 16.8926 9.64388 16.9798C9.59255 17.1536 9.51791 17.3949 9.4242 17.6657C9.24256 18.1905 8.9684 18.8888 8.62825 19.4104C8.27086 19.9583 7.70978 20.5119 7.2771 20.9036C7.05385 21.1057 6.85091 21.277 6.70355 21.398C6.62971 21.4586 6.56943 21.5069 6.52703 21.5405L6.4773 21.5796L6.46344 21.5904L6.45819 21.5945C6.12993 21.8471 5.65829 21.7863 5.40567 21.4581C5.1531 21.1299 5.21434 20.6591 5.54242 20.4064L5.54468 20.4047L5.55444 20.3971L5.59542 20.3649C5.63176 20.3361 5.6853 20.2932 5.75182 20.2386C5.88518 20.1291 6.0691 19.9738 6.27043 19.7916C6.6869 19.4146 7.12582 18.9682 7.37183 18.591C7.60608 18.2318 7.83192 17.6801 8.00669 17.1751C8.09118 16.9309 8.15883 16.7123 8.20525 16.5551C8.22841 16.4766 8.24615 16.4139 8.25792 16.3715L8.271 16.3237L8.27404 16.3124L8.27466 16.31C8.38005 15.9096 8.79015 15.67 9.19069 15.7753Z" fill="#1C274C"/>
</g>
</svg>
