<svg width="24" height="24" viewBox="0 0 24 24" fill="none" xmlns="http://www.w3.org/2000/svg">
<path opacity="0.5" d="M3.46447 20.5358C4.92893 22.0002 7.28595 22.0002 12 22.0002C16.714 22.0002 19.0711 22.0002 20.5355 20.5358C22 19.0713 22 16.7143 22 12.0002C22 7.2862 22 4.92918 20.5355 3.46471C19.0711 2.00024 16.714 2.00024 12 2.00024C7.28595 2.00024 4.92893 2.00024 3.46447 3.46471C2 4.92918 2 7.2862 2 12.0002C2 16.7143 2 19.0713 3.46447 20.5358Z" fill="#1C274C"/>
<path d="M5 8.50006V7.50024C5 6.67182 5.67157 6.00024 6.5 6.00024H17.5C18.3284 6.00024 19 6.67182 19 7.50024V8.50006C18.5822 8.18622 18.0628 8.00024 17.5 8.00024H6.5C5.9372 8.00024 5.41783 8.18622 5 8.50006Z" fill="#1C274C"/>
<path d="M5 11.5001V10.5002C5 9.67182 5.67157 9.00024 6.5 9.00024H17.5C18.3284 9.00024 19 9.67182 19 10.5002V11.5001C18.5822 11.1862 18.0628 11.0002 17.5 11.0002H6.5C5.9372 11.0002 5.41783 11.1862 5 11.5001Z" fill="#1C274C"/>
<path d="M20.75 15.0002C20.75 14.586 20.4142 14.2502 20 14.2502H18.9793V13.2506C18.8604 12.541 18.2434 12.0002 17.5 12.0002H6.5C5.75663 12.0002 5.13956 12.541 5.02068 13.2506V14.2502H4C3.58579 14.2502 3.25 14.586 3.25 15.0002C3.25 15.4145 3.58579 15.7502 4 15.7502H6.30147C7.17044 15.7502 7.39887 15.7632 7.59386 15.8426C7.6145 15.851 7.63492 15.8599 7.65508 15.8694C7.84554 15.9592 8.00971 16.1185 8.59805 16.758L8.63351 16.7966L8.70937 16.8791C9.14654 17.3552 9.49191 17.7312 9.94463 17.9583C10.0289 18.0006 10.1153 18.0385 10.2035 18.0719C10.6771 18.2513 11.1877 18.2509 11.834 18.2503L11.9462 18.2502L12.052 18.2503C12.6634 18.2508 13.1464 18.2512 13.5987 18.0893C13.683 18.0591 13.7658 18.0248 13.8467 17.9865C14.2811 17.7812 14.6223 17.4394 15.0543 17.0067L15.1291 16.9318L15.3588 16.7021C15.9801 16.0808 16.1524 15.9273 16.3501 15.8454C16.5477 15.7635 16.7782 15.7502 17.6569 15.7502H20C20.4142 15.7502 20.75 15.4145 20.75 15.0002Z" fill="#1C274C"/>
</svg>
