<svg width="24" height="24" viewBox="0 0 24 24" fill="none" xmlns="http://www.w3.org/2000/svg">
<path opacity="0.5" d="M1 12.0002C1 6.81479 1 4.22207 2.61091 2.61116C4.22183 1.00024 6.81455 1.00024 12 1.00024C17.1854 1.00024 19.7782 1.00024 21.3891 2.61116C23 4.22207 23 6.81479 23 12.0002C23 17.1857 23 19.7784 21.3891 21.3893C19.7782 23.0002 17.1854 23.0002 12 23.0002C6.81455 23.0002 4.22183 23.0002 2.61091 21.3893C1 19.7784 1 17.1857 1 12.0002Z" fill="#1C274C"/>
<path d="M2.61091 21.3889C4.22183 22.9999 6.81455 22.9999 12 22.9999C17.1854 22.9999 19.7782 22.9999 21.3891 21.3889C22.8818 19.8962 22.9913 17.5604 22.9994 13.0999H19.5237C18.528 13.0999 18.0302 13.0999 17.5926 13.3011C17.155 13.5024 16.831 13.8804 16.183 14.6364L16.183 14.6364L15.517 15.4133L15.517 15.4133C14.869 16.1693 14.545 16.5473 14.1074 16.7486C13.6698 16.9499 13.172 16.9499 12.1763 16.9499H11.8237C10.828 16.9499 10.3302 16.9499 9.89257 16.7486C9.45496 16.5473 9.13097 16.1693 8.48298 15.4133L7.81701 14.6364C7.16903 13.8804 6.84504 13.5024 6.40743 13.3011C5.96982 13.0999 5.47197 13.0999 4.47629 13.0999H1C1.00803 17.5604 1.11818 19.8962 2.61091 21.3889Z" fill="#1C274C"/>
</svg>
