<svg width="24" height="24" viewBox="0 0 24 24" fill="none" xmlns="http://www.w3.org/2000/svg">
<path opacity="0.5" d="M20 9.80158V13.8678C20 17.7014 20 19.6182 18.8284 20.8092C17.6569 22.0001 15.7712 22.0001 12 22.0001H12H12C8.22876 22.0001 6.34314 22.0001 5.17157 20.8092C4 19.6182 4 17.7014 4 13.8678V9.80158C4 5.96794 4 4.05113 5.17157 2.86017C5.54739 2.47813 5.99669 2.21865 6.55813 2.0424C6.91142 1.93149 7.28557 2.08945 7.5 2.39277L7.65377 2.62763C8.28829 3.59761 8.50937 3.93556 9.02215 4.25948C9.13195 4.32883 9.24604 4.3909 9.36371 4.4453C9.95547 4.71885 10.637 4.71885 12 4.71885C13.363 4.71885 14.0445 4.71885 14.6363 4.4453C14.754 4.3909 14.8681 4.32883 14.9778 4.25948C15.4906 3.93556 15.7117 3.59761 16.3462 2.62764L16.5 2.39277C16.6992 2.08848 17.0639 1.92656 17.4105 2.03268C17.9866 2.20907 18.4456 2.47105 18.8284 2.86017C20 4.05113 20 5.96794 20 9.80158Z" fill="#1C274C"/>
<path d="M8.25 18.9837C8.25 18.5672 8.58579 18.2296 9 18.2296H15C15.4142 18.2296 15.75 18.5672 15.75 18.9837C15.75 19.4002 15.4142 19.7379 15 19.7379H9C8.58579 19.7379 8.25 19.4002 8.25 18.9837Z" fill="#1C274C"/>
</svg>
