<svg width="24" height="24" viewBox="0 0 24 24" fill="none" xmlns="http://www.w3.org/2000/svg">
<path fill-rule="evenodd" clip-rule="evenodd" d="M2.27732 7.93461C-0.358717 10.5706 -0.358717 14.8445 2.27732 17.4805C3.49943 18.7027 5.07536 19.3586 6.6749 19.4472C7.08848 19.4701 7.44233 19.1534 7.46524 18.7398C7.48815 18.3262 7.17145 17.9724 6.75787 17.9495C5.51259 17.8805 4.28911 17.371 3.33798 16.4199C1.28773 14.3696 1.28773 11.0455 3.33798 8.99527L6.16641 6.16684C8.21666 4.11659 11.5408 4.11659 13.591 6.16684C15.6413 8.21709 15.6413 11.5412 13.591 13.5915L12.1768 15.0057C11.8839 15.2986 11.8839 15.7734 12.1768 16.0663C12.4697 16.3592 12.9446 16.3592 13.2375 16.0663L14.6517 14.6521C17.2877 12.0161 17.2877 7.74222 14.6517 5.10618C12.0157 2.47014 7.74179 2.47014 5.10575 5.10618L2.27732 7.93461Z" fill="#1C274C"/>
<path opacity="0.5" d="M10.409 17.8341C8.35877 15.7839 8.35877 12.4598 10.409 10.4095L11.8232 8.9953C12.1161 8.7024 12.1161 8.22753 11.8232 7.93464C11.5303 7.64174 11.0555 7.64174 10.7626 7.93464L9.34837 9.34885C6.71233 11.9849 6.71233 16.2588 9.34837 18.8948C11.9844 21.5308 16.2583 21.5308 18.8943 18.8948L21.7227 16.0664C24.3588 13.4303 24.3588 9.15646 21.7227 6.52042C20.5006 5.29832 18.9247 4.64239 17.3252 4.55378C16.9116 4.53087 16.5577 4.84757 16.5348 5.26115C16.5119 5.67473 16.8286 6.02857 17.2422 6.05148C18.4875 6.12047 19.7109 6.62995 20.6621 7.58108C22.7123 9.63133 22.7123 12.9555 20.6621 15.0057L17.8336 17.8341C15.7834 19.8844 12.4593 19.8844 10.409 17.8341Z" fill="#1C274C"/>
</svg>
