<svg width="24" height="24" viewBox="0 0 24 24" fill="none" xmlns="http://www.w3.org/2000/svg">
<g opacity="0.5">
<path d="M19.9896 3.99164C18.4369 2.47045 16.3083 2.41242 15.2249 3.47379L11.5249 7.09876C11.229 7.38864 10.7541 7.38377 10.4643 7.08789C10.1744 6.79201 10.1793 6.31716 10.4751 6.02728L14.1752 2.40231C16.0111 0.603641 19.0889 1.00932 21.0393 2.92016C22.9925 4.83368 23.4177 7.87571 21.5679 9.68801L18.6607 12.5362C18.3648 12.8261 17.89 12.8212 17.6001 12.5254C17.3102 12.2295 17.3151 11.7546 17.611 11.4648L20.5182 8.61654C21.5876 7.56881 21.5396 5.51015 19.9896 3.99164Z" fill="#1C274C"/>
<path d="M6.72756 12.5065C7.00701 12.2007 6.9857 11.7264 6.67995 11.4469C6.37421 11.1674 5.89981 11.1888 5.62036 11.4945L4.3595 12.874C2.63266 14.7633 3.00984 17.9273 4.86385 19.9557C6.72901 21.9963 9.73429 22.4599 11.5189 20.5075L15.5536 16.0931C15.8331 15.7874 15.8117 15.313 15.506 15.0335C15.2003 14.7541 14.7259 14.7754 14.4464 15.0811L10.4117 19.4955C9.41079 20.5905 7.44839 20.5601 5.97104 18.9437C4.48253 17.3152 4.4081 15.0442 5.4667 13.886L6.72756 12.5065Z" fill="#1C274C"/>
</g>
<path d="M6.62424 3.58442C6.39448 3.23977 5.92882 3.14664 5.58418 3.37641C5.23953 3.60617 5.1464 4.07182 5.37617 4.41647L7.37617 7.41647C7.60593 7.76112 8.07158 7.85425 8.41623 7.62448C8.76088 7.39472 8.85401 6.92907 8.62424 6.58442L6.62424 3.58442Z" fill="#1C274C"/>
<path d="M2.23737 7.28893C1.84442 7.15795 1.41968 7.37032 1.28869 7.76328C1.15771 8.15623 1.37008 8.58097 1.76303 8.71196L7.76303 10.712C8.15599 10.8429 8.58073 10.6306 8.71172 10.2376C8.8427 9.84466 8.63033 9.41992 8.23737 9.28893L2.23737 7.28893Z" fill="#1C274C"/>
</svg>
