<svg width="24" height="24" viewBox="0 0 24 24" fill="none" xmlns="http://www.w3.org/2000/svg">
<path fill-rule="evenodd" clip-rule="evenodd" d="M17.8196 19.7016C17.7303 18.6074 18.6359 17.6939 19.7206 17.784C19.9087 17.7996 20.1338 17.868 20.3632 17.9377C20.3853 17.9444 20.4074 17.9512 20.4295 17.9579C20.4495 17.9639 20.4695 17.9699 20.4895 17.9759C20.7003 18.0393 20.9099 18.1023 21.0693 18.1884C21.9846 18.6828 22.28 19.8641 21.7068 20.7372C21.6069 20.8893 21.452 21.0451 21.2963 21.2017C21.2815 21.2166 21.2667 21.2314 21.252 21.2463C21.2372 21.2612 21.2225 21.2761 21.2078 21.291C21.0525 21.4481 20.8981 21.6043 20.7473 21.7051C19.8817 22.2833 18.7106 21.9853 18.2205 21.062C18.1351 20.9012 18.0727 20.6898 18.0099 20.4772C18.0039 20.457 17.9979 20.4368 17.9919 20.4167C17.9853 20.3944 17.9786 20.372 17.972 20.3497C17.9029 20.1184 17.835 19.8913 17.8196 19.7016Z" fill="#1C274C"/>
<g opacity="0.5">
<path d="M11.1566 20.3137C16.2137 20.3137 20.3133 16.2142 20.3133 11.1571C20.3133 6.10005 16.2137 2.00049 11.1566 2.00049C6.09956 2.00049 2 6.10005 2 11.1571C2 16.2142 6.09956 20.3137 11.1566 20.3137Z" fill="#1C274C"/>
</g>
<path fill-rule="evenodd" clip-rule="evenodd" d="M11 6.50049C9.85918 6.50049 8.8433 7.03256 8.18946 7.86085L7.50991 7.52287C7.15707 7.34738 6.72802 7.48964 6.5516 7.84063C6.37518 8.19161 6.5182 8.6184 6.87104 8.7939L7.54991 9.13155C7.47077 9.42545 7.42857 9.73438 7.42857 10.0531V10.29H6.71429C6.3198 10.29 6 10.6081 6 11.0005C6 11.3929 6.3198 11.711 6.71429 11.711H7.42857V11.9479C7.42857 12.2666 7.47077 12.5755 7.54991 12.8694L6.87104 13.2071C6.5182 13.3826 6.37518 13.8094 6.5516 14.1604C6.72802 14.5113 7.15707 14.6536 7.50991 14.4781L8.18946 14.1401C8.8433 14.9684 9.85918 15.5005 11 15.5005C12.1408 15.5005 13.1567 14.9684 13.8105 14.1401L14.4901 14.4781C14.8429 14.6536 15.272 14.5113 15.4484 14.1604C15.6248 13.8094 15.4818 13.3826 15.129 13.2071L14.4501 12.8694C14.5292 12.5755 14.5714 12.2666 14.5714 11.9479V11.711H15.2857C15.6802 11.711 16 11.3929 16 11.0005C16 10.6081 15.6802 10.29 15.2857 10.29H14.5714V10.0531C14.5714 9.73438 14.5292 9.42545 14.4501 9.13155L15.129 8.7939C15.4818 8.6184 15.6248 8.19161 15.4484 7.84063C15.272 7.48964 14.8429 7.34738 14.4901 7.52287L13.8105 7.86085C13.1567 7.03256 12.1408 6.50049 11 6.50049ZM11.0003 7.92139C10.0673 7.92139 9.27352 8.51454 8.97935 9.34244H13.0212C12.727 8.51454 11.9333 7.92139 11.0003 7.92139ZM8.85742 11.9477V10.7635H10.286V13.958C9.45371 13.6654 8.85742 12.8758 8.85742 11.9477ZM11.7146 13.958V10.7635H13.1431V11.9477C13.1431 12.8758 12.5468 13.6654 11.7146 13.958Z" fill="#1C274C"/>
</svg>
