<svg width="24" height="24" viewBox="0 0 24 24" fill="none" xmlns="http://www.w3.org/2000/svg">
<path opacity="0.5" d="M20.1278 11.1434C20.1278 16.1929 16.0697 20.2863 11.0639 20.2863C6.05804 20.2863 2 16.1929 2 11.1434C2 6.0939 6.05804 2.00049 11.0639 2.00049C16.0697 2.00049 20.1278 6.0939 20.1278 11.1434Z" fill="#1C274C"/>
<path fill-rule="evenodd" clip-rule="evenodd" d="M17.8196 19.7006C17.7303 18.6064 18.6359 17.6929 19.7206 17.783C19.9087 17.7986 20.1339 17.867 20.3632 17.9367C20.3853 17.9435 20.4074 17.9502 20.4295 17.9569C20.4495 17.9629 20.4695 17.9689 20.4895 17.975C20.7003 18.0383 20.9099 18.1013 21.0693 18.1874C21.9846 18.6818 22.28 19.8631 21.7068 20.7363C21.6069 20.8884 21.452 21.0441 21.2963 21.2007C21.2815 21.2156 21.2668 21.2305 21.252 21.2454C21.2373 21.2602 21.2225 21.2752 21.2078 21.2901C21.0525 21.4471 20.8981 21.6034 20.7473 21.7041C19.8817 22.2823 18.7106 21.9843 18.2205 21.0611C18.1351 20.9002 18.0727 20.6888 18.0099 20.4762C18.0039 20.4561 17.9979 20.4359 17.9919 20.4157C17.9853 20.3934 17.9786 20.3711 17.972 20.3488C17.9029 20.1175 17.835 19.8903 17.8196 19.7006Z" fill="#1C274C"/>
</svg>
