<svg width="24" height="24" viewBox="0 0 24 24" fill="none" xmlns="http://www.w3.org/2000/svg">
<path d="M8.0374 14.1434C7.78266 14.2708 7.47314 14.16 7.35714 13.8999L3.16447 4.4982C2.49741 3.00236 3.97865 1.4508 5.36641 2.19173L11.2701 5.34376C11.7293 5.58891 12.2697 5.58891 12.7289 5.34376L18.6326 2.19173C20.0204 1.4508 21.5016 3.00236 20.8346 4.4982L19.2629 8.02251C19.0743 8.44538 18.7448 8.78972 18.3307 8.99679L8.0374 14.1434Z" fill="#1C274C"/>
<path opacity="0.5" d="M8.60909 15.5339C8.36978 15.6536 8.26708 15.9404 8.37605 16.1848L10.5267 21.0074C11.117 22.3311 12.8814 22.3311 13.4717 21.0074L17.4397 12.1096C17.6309 11.6809 17.1793 11.2488 16.7594 11.4588L8.60909 15.5339Z" fill="#1C274C"/>
</svg>
