<svg width="24" height="24" viewBox="0 0 24 24" fill="none" xmlns="http://www.w3.org/2000/svg">
<path fill-rule="evenodd" clip-rule="evenodd" d="M11.2442 1.95506C12.9441 1.0153 15.0345 1.0153 16.7345 1.95506C17.3641 2.30316 17.9518 2.86599 18.9065 3.78039C18.9373 3.80989 18.9685 3.83977 19.0001 3.87001C19.2993 4.15648 19.3096 4.63124 19.0231 4.93042C18.7366 5.2296 18.2619 5.23991 17.9627 4.95345C16.8844 3.92094 16.4452 3.5091 16.0087 3.26783C14.7604 2.57772 13.2183 2.57772 11.9699 3.26783C11.5334 3.5091 11.0943 3.92094 10.0159 4.95345L4.02651 10.6883C3.72732 10.9748 3.25256 10.9645 2.9661 10.6653C2.67963 10.3661 2.68994 9.89135 2.98912 9.60488L8.97855 3.87001C9.01014 3.83977 9.04133 3.80989 9.07214 3.78038C10.0268 2.86599 10.6145 2.30316 11.2442 1.95506ZM14.945 6.76047C15.2314 6.46129 15.7062 6.45098 16.0054 6.73745C16.0326 6.76352 16.0596 6.7893 16.0863 6.81482C16.4533 7.16528 16.7689 7.46663 16.9459 7.8185C17.2622 8.44746 17.2622 9.18312 16.9459 9.81208C16.7689 10.1639 16.4533 10.4653 16.0863 10.8158C16.0596 10.8413 16.0326 10.8671 16.0054 10.8931L8.62553 17.9593C8.32635 18.2458 7.85159 18.2355 7.56512 17.9363C7.27866 17.6371 7.28897 17.1623 7.58815 16.8759L14.968 9.8097C15.4628 9.33587 15.5615 9.22619 15.6058 9.1381C15.7089 8.93316 15.7089 8.69742 15.6058 8.49248C15.5615 8.40439 15.4628 8.29471 14.968 7.82088C14.6688 7.53442 14.6585 7.05965 14.945 6.76047Z" fill="#1C274C"/>
<path opacity="0.5" d="M17.9628 4.95407C19.0429 5.98829 19.4703 6.40672 19.7194 6.81976C20.4269 7.99305 20.4269 9.43396 19.7194 10.6073C19.4703 11.0203 19.0429 11.4387 17.9628 12.4729L10.5295 19.5903C9.97082 20.1252 9.58528 20.4935 9.26135 20.7548C8.94539 21.0096 8.7384 21.12 8.55399 21.173C8.19285 21.2768 7.80709 21.2768 7.44595 21.173C7.26154 21.12 7.05455 21.0096 6.73859 20.7548C6.41466 20.4935 6.02912 20.1252 5.47047 19.5903C4.91163 19.0552 4.52727 18.6863 4.2548 18.3766C3.98794 18.0733 3.87862 17.881 3.82747 17.7179C3.72418 17.3885 3.72418 17.0383 3.82747 16.7089C3.87862 16.5458 3.98794 16.3535 4.2548 16.0502C4.52727 15.7405 4.91163 15.3716 5.47047 14.8365L12.7968 7.82151C13.2887 7.3505 13.4068 7.25163 13.5074 7.20523C13.7436 7.09633 14.0213 7.09633 14.2575 7.20523C14.3581 7.25163 14.4761 7.3505 14.9681 7.82151C14.9679 7.8214 14.9682 7.82162 14.9681 7.82151C14.6689 7.53504 14.6585 7.05966 14.945 6.76047C15.2259 6.46707 15.6879 6.45149 15.9878 6.72118L15.9274 6.66321C15.558 6.30868 15.2461 6.0093 14.8856 5.84307C14.2508 5.55038 13.5141 5.55038 12.8793 5.84307C12.5188 6.0093 12.2069 6.30868 11.8375 6.66321L4.40899 13.7761C3.88009 14.2825 3.44862 14.6956 3.12862 15.0594C2.79815 15.435 2.53687 15.8115 2.3962 16.2601C2.20127 16.8816 2.20127 17.5452 2.3962 18.1668C2.53687 18.6153 2.79815 18.9918 3.12862 19.3674C3.44862 19.7312 3.88006 20.1443 4.40896 20.6507L4.4568 20.6965C4.98604 21.2032 5.41736 21.6162 5.79685 21.9223C6.18996 22.2394 6.57706 22.4839 7.03145 22.6146C7.66343 22.7963 8.3365 22.7963 8.96849 22.6146C9.42288 22.4839 9.80998 22.2394 10.2031 21.9223C10.5826 21.6162 11.0139 21.2032 11.5431 20.6965L19.0979 13.4628C20.0489 12.5525 20.6381 11.9885 21.0039 11.3818C21.9987 9.7321 21.9987 7.69492 21.0039 6.0452C20.6381 5.43848 20.0489 4.8745 19.0979 3.96421L19.0175 3.88721C19.2996 4.17518 19.3039 4.63715 19.0231 4.93042C18.7366 5.22961 18.262 5.24054 17.9628 4.95407Z" fill="#1C274C"/>
</svg>
