<svg width="24" height="24" viewBox="0 0 24 24" fill="none" xmlns="http://www.w3.org/2000/svg">
<path opacity="0.5" fill-rule="evenodd" clip-rule="evenodd" d="M3.25 22.0002C3.25 21.586 3.58579 21.2502 4 21.2502H20C20.4142 21.2502 20.75 21.586 20.75 22.0002C20.75 22.4145 20.4142 22.7502 20 22.7502H4C3.58579 22.7502 3.25 22.4145 3.25 22.0002Z" fill="#1C274C"/>
<path opacity="0.5" d="M19.0807 7.37187C20.3095 6.14303 20.3095 4.1507 19.0807 2.92187C17.8519 1.69304 15.8595 1.69304 14.6307 2.92187L13.9209 3.63166C13.9306 3.66101 13.9407 3.69076 13.9512 3.72091C14.2113 4.47078 14.7022 5.45381 15.6256 6.37722C16.549 7.30064 17.532 7.7915 18.2819 8.05167C18.3119 8.06208 18.3415 8.07211 18.3708 8.08179L19.0807 7.37187Z" fill="#1C274C"/>
<path d="M13.9511 3.59985L13.9205 3.63041C13.9303 3.65976 13.9403 3.68952 13.9508 3.71966C14.211 4.46954 14.7018 5.45257 15.6252 6.37598C16.5487 7.2994 17.5317 7.79026 18.2816 8.05043C18.3113 8.06075 18.3407 8.0707 18.3696 8.0803L11.5198 14.9302C11.058 15.392 10.827 15.6229 10.5724 15.8215C10.2721 16.0558 9.94711 16.2566 9.60326 16.4205C9.31177 16.5594 9.00196 16.6627 8.38235 16.8692L5.11497 17.9583C4.81005 18.06 4.47388 17.9806 4.24661 17.7533C4.01934 17.5261 3.93998 17.1899 4.04162 16.885L5.13074 13.6176C5.33728 12.998 5.44055 12.6882 5.57947 12.3967C5.74334 12.0528 5.94418 11.7279 6.17844 11.4275C6.37702 11.1729 6.60794 10.942 7.06971 10.4802L13.9511 3.59985Z" fill="#1C274C"/>
</svg>
