<svg width="24" height="24" viewBox="0 0 24 24" fill="none" xmlns="http://www.w3.org/2000/svg">
<path opacity="0.5" d="M12 22.0002C17.5228 22.0002 22 17.5231 22 12.0002C22 6.4774 17.5228 2.00024 12 2.00024C6.47715 2.00024 2 6.4774 2 12.0002C2 17.5231 6.47715 22.0002 12 22.0002Z" fill="#1C274C"/>
<path d="M11.1254 6.82363C11.8458 6.7014 12.6039 6.72842 13.3584 6.93057C16.1583 7.6808 17.8198 10.5588 17.0696 13.3587C16.3194 16.1586 13.4414 17.8201 10.6415 17.0699C7.84162 16.3197 6.18004 13.4417 6.93027 10.6418C7.05854 10.1631 7.24854 9.71865 7.48909 9.31413L8.19768 9.88765C7.84944 10.5133 7.65084 11.2341 7.65084 12.0002C7.65084 14.4022 9.598 16.3493 11.9999 16.3493C14.4019 16.3493 16.349 14.4022 16.349 12.0002C16.349 9.5983 14.4019 7.65114 11.9999 7.65114C11.5857 7.65114 11.2499 7.98692 11.2499 8.40114C11.2499 8.81535 11.5857 9.15114 11.9999 9.15114C13.5735 9.15114 14.849 10.4267 14.849 12.0002C14.849 13.5738 13.5735 14.8493 11.9999 14.8493C10.4264 14.8493 9.15084 13.5738 9.15084 12.0002C9.15084 11.5918 9.23644 11.2041 9.39085 10.8534L11.5281 12.5832C11.8501 12.8438 12.3223 12.7941 12.5829 12.4721C12.8435 12.1501 12.7938 11.6779 12.4718 11.4173L8.27399 8.01965C7.71245 7.56516 6.80843 7.60748 6.35555 8.29819C5.9709 8.88484 5.67226 9.54123 5.48138 10.2536C4.51674 13.8537 6.6532 17.5542 10.2533 18.5188C13.8534 19.4834 17.5539 17.347 18.5185 13.7469C19.4831 10.1468 17.3467 6.44633 13.7466 5.48168C12.7796 5.22257 11.8033 5.18717 10.8745 5.34476C10.4661 5.41405 10.1912 5.80128 10.2605 6.20965C10.3298 6.61803 10.717 6.89292 11.1254 6.82363Z" fill="#1C274C"/>
</svg>
