<svg width="24" height="24" viewBox="0 0 24 24" fill="none" xmlns="http://www.w3.org/2000/svg">
<path d="M20.75 4.50049C20.75 5.8812 19.6307 7.00049 18.25 7.00049C16.8693 7.00049 15.75 5.8812 15.75 4.50049C15.75 3.11978 16.8693 2.00049 18.25 2.00049C19.6307 2.00049 20.75 3.11978 20.75 4.50049Z" fill="#1C274C"/>
<path fill-rule="evenodd" clip-rule="evenodd" d="M13.4366 6.66181L13.4421 6.66408C14.6265 7.15162 15.6111 8.04554 16.1889 9.20125C16.8169 10.4572 18.1005 11.2505 19.5046 11.2505H20.75C21.1642 11.2505 21.5 11.5863 21.5 12.0005C21.5 12.4147 21.1642 12.7505 20.75 12.7505H19.5046C17.5323 12.7505 15.7293 11.6361 14.8473 9.87207C14.4364 9.05036 13.7311 8.40516 12.8711 8.05117C11.5075 7.48986 11.0748 7.33147 10.2511 7.39136C9.10849 7.47445 8.05813 8.05165 5.55619 9.4732L4.12051 10.2889C3.76037 10.4936 3.30253 10.3675 3.09791 10.0073C2.89328 9.6472 3.01935 9.18937 3.37949 8.98475L4.81517 8.16902C4.87315 8.13608 4.93054 8.10346 4.98736 8.07116C7.26106 6.77882 8.62084 6.00595 10.1424 5.89531C11.3595 5.8068 12.096 6.11001 13.4366 6.66181ZM9.23014 16.4243C9.54835 16.6895 9.59134 17.1624 9.32617 17.4806L8.3254 18.6815C8.2928 18.7207 8.26067 18.7593 8.22895 18.7974C7.58688 19.569 7.11555 20.1355 6.45757 20.4437C5.79959 20.7518 5.0627 20.7513 4.05888 20.7506C4.00928 20.7505 3.95904 20.7505 3.90813 20.7505H2.75C2.33579 20.7505 2 20.4147 2 20.0005C2 19.5863 2.33579 19.2505 2.75 19.2505H3.90813C5.12975 19.2505 5.50396 19.2339 5.82133 19.0853C6.1387 18.9366 6.391 18.6598 7.17306 17.7213L8.17383 16.5203C8.43901 16.2021 8.91193 16.1591 9.23014 16.4243Z" fill="#1C274C"/>
<g opacity="0.5">
<path d="M13.3045 10.496C13.5831 10.8025 13.5605 11.2768 13.254 11.5554C13.0744 11.7187 12.8953 11.8782 12.7202 12.0341C12.4394 12.2841 12.1688 12.5251 11.9221 12.7585C11.7266 12.9436 11.567 13.1049 11.4506 13.239C11.3567 13.3473 11.3187 13.4068 11.3075 13.4243L11.3075 13.4243C11.303 13.4313 11.3028 13.4317 11.305 13.4257C11.1876 13.7424 11.2033 14.0931 11.3486 14.398C11.391 14.4869 11.4783 14.6088 11.7118 14.8166C11.9496 15.0282 12.2798 15.2791 12.7673 15.6484L12.8416 15.7047C13.4027 16.1295 13.7906 16.4232 14.086 16.795C14.414 17.2078 14.6512 17.6852 14.7822 18.1959C14.9002 18.6559 14.9001 19.1424 14.8998 19.8462L14.8998 19.9394V22.0004C14.8998 22.4146 14.564 22.7504 14.1498 22.7504C13.7356 22.7504 13.3998 22.4146 13.3998 22.0004V19.9394C13.3998 19.1068 13.3943 18.8221 13.3293 18.5686C13.2507 18.2622 13.1083 17.9758 12.9115 17.7281C12.7487 17.5231 12.5252 17.3468 11.8615 16.844L11.8373 16.8257L11.8373 16.8257C11.3801 16.4793 11.0019 16.1929 10.7145 15.9371C10.4179 15.673 10.1615 15.394 9.9944 15.0431C9.67484 14.3723 9.64029 13.6008 9.89864 12.9042C9.99106 12.6549 10.1692 12.4271 10.3177 12.2559C10.4812 12.0674 10.6817 11.8673 10.891 11.6691C11.1503 11.4237 11.4561 11.1512 11.7522 10.8874C11.9234 10.7349 12.0913 10.5853 12.245 10.4455C12.5515 10.1669 13.0258 10.1895 13.3045 10.496Z" fill="#1C274C"/>
</g>
</svg>
