<svg width="24" height="24" viewBox="0 0 24 24" fill="none" xmlns="http://www.w3.org/2000/svg">
<path opacity="0.5" fill-rule="evenodd" clip-rule="evenodd" d="M14.2788 2.15273C13.9085 2.00049 13.439 2.00049 12.5 2.00049C11.561 2.00049 11.0915 2.00049 10.7212 2.15273C10.2274 2.35572 9.83509 2.74507 9.63056 3.23512C9.53719 3.45883 9.50065 3.71899 9.48635 4.09848C9.46534 4.65617 9.17716 5.17238 8.69017 5.45142C8.20318 5.73045 7.60864 5.72003 7.11149 5.45925C6.77318 5.28179 6.52789 5.18311 6.28599 5.1515C5.75609 5.08227 5.22018 5.22478 4.79616 5.54769C4.47814 5.78987 4.24339 6.19339 3.7739 7.00042C3.30441 7.80745 3.06967 8.21097 3.01735 8.60539C2.94758 9.13129 3.09118 9.66315 3.41655 10.084C3.56506 10.276 3.77377 10.4375 4.0977 10.6395C4.57391 10.9365 4.88032 11.4423 4.88029 12.0005C4.88026 12.5586 4.57386 13.0644 4.0977 13.3613C3.77372 13.5634 3.56497 13.7248 3.41645 13.9169C3.09108 14.3378 2.94749 14.8696 3.01725 15.3955C3.06957 15.7899 3.30432 16.1935 3.7738 17.0005C4.24329 17.8075 4.47804 18.211 4.79606 18.4532C5.22008 18.7761 5.75599 18.9186 6.28589 18.8494C6.52778 18.8178 6.77305 18.7191 7.11133 18.5417C7.60852 18.2809 8.2031 18.2705 8.69012 18.5495C9.17714 18.8286 9.46533 19.3448 9.48635 19.9026C9.50065 20.282 9.53719 20.5422 9.63056 20.7659C9.83509 21.2559 10.2274 21.6453 10.7212 21.8482C11.0915 22.0005 11.561 22.0005 12.5 22.0005C13.439 22.0005 13.9085 22.0005 14.2788 21.8482C14.7726 21.6453 15.1649 21.2559 15.3694 20.7659C15.4628 20.5421 15.4994 20.282 15.5137 19.9025C15.5347 19.3448 15.8228 18.8286 16.3098 18.5495C16.7968 18.2704 17.3914 18.2808 17.8886 18.5416C18.2269 18.7191 18.4721 18.8177 18.714 18.8493C19.2439 18.9186 19.7798 18.7761 20.2038 18.4532C20.5219 18.211 20.7566 17.8075 21.2261 17.0004C21.6956 16.1934 21.9303 15.7899 21.9827 15.3954C22.0524 14.8696 21.9088 14.3377 21.5835 13.9169C21.4349 13.7248 21.2262 13.5633 20.9022 13.3613C20.4261 13.0644 20.1197 12.5585 20.1197 12.0004C20.1197 11.4423 20.4261 10.9366 20.9022 10.6397C21.2263 10.4376 21.435 10.2761 21.5836 10.084C21.9089 9.66322 22.0525 9.13136 21.9828 8.60546C21.9304 8.21104 21.6957 7.80752 21.2262 7.00049C20.7567 6.19345 20.522 5.78994 20.2039 5.54776C19.7799 5.22485 19.244 5.08234 18.7141 5.15157C18.4722 5.18318 18.2269 5.28185 17.8887 5.45929C17.3915 5.72008 16.7969 5.73051 16.3099 5.45145C15.8229 5.17239 15.5347 4.65615 15.5136 4.09843C15.4993 3.71897 15.4628 3.45882 15.3694 3.23512C15.1649 2.74507 14.7726 2.35572 14.2788 2.15273Z" fill="#1C274C"/>
<path d="M15.5227 12.0005C15.5227 13.6573 14.1694 15.0005 12.4999 15.0005C10.8304 15.0005 9.47705 13.6573 9.47705 12.0005C9.47705 10.3436 10.8304 9.00049 12.4999 9.00049C14.1694 9.00049 15.5227 10.3436 15.5227 12.0005Z" fill="#1C274C"/>
</svg>
