<svg width="24" height="24" viewBox="0 0 24 24" fill="none" xmlns="http://www.w3.org/2000/svg">
<path opacity="0.5" d="M3.37752 5.0829C3 5.62077 3 7.21956 3 10.4171V11.9918C3 17.6299 7.23896 20.366 9.89856 21.5278C10.62 21.8429 10.9807 22.0005 12 22.0005C13.0193 22.0005 13.38 21.8429 14.1014 21.5278C16.761 20.366 21 17.6299 21 11.9918V10.4171C21 7.21956 21 5.62077 20.6225 5.0829C20.245 4.54503 18.7417 4.03045 15.7351 3.00128L15.1623 2.80521C13.595 2.26873 12.8114 2.00049 12 2.00049C11.1886 2.00049 10.405 2.26873 8.83772 2.8052L8.26491 3.00128C5.25832 4.03045 3.75503 4.54503 3.37752 5.0829Z" fill="#1C274C"/>
<path fill-rule="evenodd" clip-rule="evenodd" d="M10.1254 7.25356C10.8556 6.83195 11.6709 6.6837 12.4491 6.77802C13.5777 6.91482 14.6337 7.5632 15.2473 8.62597C15.8609 9.68874 15.8944 10.9275 15.4485 11.9733C15.1412 12.6943 14.6051 13.3263 13.8749 13.7479C13.5153 13.9555 13.1357 14.0967 12.7501 14.1755V16.5007C12.7501 16.9149 12.4143 17.2507 12.0001 17.2507C11.5859 17.2507 11.2501 16.9149 11.2501 16.5007V14.1745C10.2357 13.967 9.3114 13.3427 8.75296 12.3755C7.71757 10.5821 8.33202 8.28896 10.1254 7.25356ZM10.8754 8.5526C11.3147 8.29896 11.8018 8.21055 12.2686 8.26712C12.949 8.3496 13.5805 8.73904 13.9482 9.37597C14.316 10.0129 14.3375 10.7545 14.0687 11.3851C13.8843 11.8175 13.5642 12.1952 13.1249 12.4488C12.049 13.07 10.6732 12.7014 10.052 11.6255C9.43082 10.5496 9.79946 9.17378 10.8754 8.5526Z" fill="#1C274C"/>
</svg>
