<svg width="24" height="24" viewBox="0 0 24 24" fill="none" xmlns="http://www.w3.org/2000/svg">
<path opacity="0.5" d="M3 10.4171C3 7.21956 3 5.62077 3.37752 5.0829C3.75503 4.54503 5.25832 4.03045 8.26491 3.00128L8.83772 2.8052C10.405 2.26873 11.1886 2.00049 12 2.00049C12.8114 2.00049 13.595 2.26873 15.1623 2.80521L15.7351 3.00128C18.7417 4.03045 20.245 4.54503 20.6225 5.0829C21 5.62077 21 7.21956 21 10.4171C21 10.9001 21 11.4239 21 11.9918C21 17.6299 16.761 20.366 14.1014 21.5278C13.38 21.8429 13.0193 22.0005 12 22.0005C10.9807 22.0005 10.62 21.8429 9.89856 21.5278C7.23896 20.366 3 17.6299 3 11.9918C3 11.4239 3 10.9001 3 10.4171Z" fill="#1C274C"/>
<path fill-rule="evenodd" clip-rule="evenodd" d="M10.95 8.40078C11.5722 7.93411 12.4278 7.93411 13.05 8.40078L16.45 10.9508C16.7814 11.1993 16.8485 11.6694 16.6 12.0008C16.3515 12.3322 15.8814 12.3993 15.55 12.1508L12.15 9.60078C12.0611 9.53411 11.9389 9.53411 11.85 9.60078L8.45 12.1508C8.11863 12.3993 7.64853 12.3322 7.4 12.0008C7.15147 11.6694 7.21863 11.1993 7.55 10.9508L10.95 8.40078ZM11.55 11.9508C11.8167 11.7508 12.1833 11.7508 12.45 11.9508L14.45 13.4508C14.7814 13.6993 14.8485 14.1694 14.6 14.5008C14.3515 14.8322 13.8814 14.8993 13.55 14.6508L12 13.4883L10.45 14.6508C10.1186 14.8993 9.64853 14.8322 9.4 14.5008C9.15147 14.1694 9.21863 13.6993 9.55 13.4508L11.55 11.9508Z" fill="#1C274C"/>
</svg>
