<svg width="24" height="24" viewBox="0 0 24 24" fill="none" xmlns="http://www.w3.org/2000/svg">
<path d="M16.5279 2.00049H7.47225C6.26943 2.00049 5.66803 2.00049 5.18472 2.29919C4.70142 2.59788 4.43246 3.1358 3.89454 4.21163L2.49093 7.75978C2.16664 8.57954 1.8829 9.54574 2.42878 10.238C2.795 10.7024 3.36269 11.0005 4.00003 11.0005C5.1046 11.0005 6.00003 10.1051 6.00003 9.00049C6.00003 10.1051 6.89546 11.0005 8.00003 11.0005C9.1046 11.0005 10 10.1051 10 9.00049C10 10.1051 10.8955 11.0005 12 11.0005C13.1046 11.0005 14 10.1051 14 9.00049C14 10.1051 14.8955 11.0005 16 11.0005C17.1046 11.0005 18 10.1051 18 9.00049C18 10.1051 18.8955 11.0005 20 11.0005C20.6374 11.0005 21.2051 10.7024 21.5713 10.238C22.1172 9.54574 21.8335 8.57954 21.5092 7.75978L20.1056 4.21163C19.5677 3.1358 19.2987 2.59789 18.8154 2.29919C18.3321 2.00049 17.7307 2.00049 16.5279 2.00049Z" fill="#1C274C"/>
<path d="M9.5 21.2505V18.5005C9.5 17.5659 9.5 17.0986 9.70096 16.7505C9.83261 16.5225 10.022 16.3331 10.25 16.2015C10.5981 16.0005 11.0654 16.0005 12 16.0005C12.9346 16.0005 13.4019 16.0005 13.75 16.2015C13.978 16.3331 14.1674 16.5225 14.299 16.7505C14.5 17.0986 14.5 17.5659 14.5 18.5005V21.2505H9.5Z" fill="#1C274C"/>
<path opacity="0.5" fill-rule="evenodd" clip-rule="evenodd" d="M4 11.0005C5.10447 11.0004 5.99978 10.105 5.99978 9.00049C5.99978 10.1051 6.89522 11.0005 7.99978 11.0005C9.10435 11.0005 9.99978 10.1051 9.99978 9.00049C9.99978 10.1051 10.8952 11.0005 11.9998 11.0005C13.1044 11.0005 13.9998 10.1051 13.9998 9.00049C13.9998 10.1051 14.8952 11.0005 15.9998 11.0005C17.1044 11.0005 17.9998 10.1051 17.9998 9.00049C17.9998 10.1051 18.8952 11.0005 19.9998 11.0005L20 21.2505L14.5 21.2505V18.5005C14.5 17.5659 14.5 17.0986 14.299 16.7505C14.1674 16.5225 13.978 16.3331 13.75 16.2015C13.4019 16.0005 12.9346 16.0005 12 16.0005C11.0654 16.0005 10.5981 16.0005 10.25 16.2015C10.022 16.3331 9.83261 16.5225 9.70096 16.7505C9.5 17.0986 9.5 17.5659 9.5 18.5005V21.2505L4 21.2505L4 11.0005Z" fill="#1C274C"/>
<path d="M14.5 21.2505H9.5L4 21.2505L2 21.2505C1.58579 21.2505 1.25 21.5863 1.25 22.0005C1.25 22.4147 1.58579 22.7505 2 22.7505H22C22.4142 22.7505 22.75 22.4147 22.75 22.0005C22.75 21.5863 22.4142 21.2505 22 21.2505L20 21.2505L14.5 21.2505Z" fill="#1C274C"/>
</svg>
