<svg width="24" height="24" viewBox="0 0 24 24" fill="none" xmlns="http://www.w3.org/2000/svg">
<path opacity="0.5" fill-rule="evenodd" clip-rule="evenodd" d="M3.17157 4.17185C2 5.34342 2 7.22904 2 11.0003V13.0003C2 16.7715 2 18.6571 3.17157 19.8287C4.34315 21.0003 6.22876 21.0003 10 21.0003H14C14.0843 21.0003 14.9176 21.0003 15 21.0003L15 3.00031C14.9176 3.00029 14.0843 3.00028 14 3.00028H10C6.22876 3.00028 4.34315 3.00028 3.17157 4.17185Z" fill="#1C274C"/>
<path d="M22 13.0004V11.0004C22 7.22913 22 5.34351 20.8284 4.17194C19.8541 3.19761 17.6359 3.03357 15 3.00596V20.9948C17.6359 20.9672 19.8541 20.8031 20.8284 19.8288C22 18.6572 22 16.7716 22 13.0004Z" fill="#1C274C"/>
<path d="M9.26334 13.2982C9.65118 13.4436 9.84769 13.8759 9.70225 14.2638L8.20225 18.2638C8.05681 18.6516 7.6245 18.8481 7.23666 18.7027C6.84882 18.5573 6.65231 18.1249 6.79775 17.7371L8.29775 13.7371C8.44319 13.3493 8.8755 13.1528 9.26334 13.2982Z" fill="#1C274C"/>
<path d="M6.53033 13.4701C6.82322 13.763 6.82322 14.2379 6.53033 14.5308L6.06066 15.0004L6.53033 15.4701C6.82322 15.763 6.82322 16.2379 6.53033 16.5308C6.23744 16.8237 5.76256 16.8237 5.46967 16.5308L4.46967 15.5308C4.17678 15.2379 4.17678 14.763 4.46967 14.4701L5.46967 13.4701C5.76256 13.1772 6.23744 13.1772 6.53033 13.4701Z" fill="#1C274C"/>
<path d="M9.96967 15.4701C10.2626 15.1772 10.7374 15.1772 11.0303 15.4701L12.0303 16.4701C12.3232 16.763 12.3232 17.2379 12.0303 17.5308L11.0303 18.5308C10.7374 18.8237 10.2626 18.8237 9.96967 18.5308C9.67678 18.2379 9.67678 17.763 9.96967 17.4701L10.4393 17.0004L9.96967 16.5308C9.67678 16.2379 9.67678 15.763 9.96967 15.4701Z" fill="#1C274C"/>
</svg>
