<svg width="24" height="24" viewBox="0 0 24 24" fill="none" xmlns="http://www.w3.org/2000/svg">
<path opacity="0.5" d="M12.0516 2.00012C13.7318 2.00011 15.0627 2.0001 16.1043 2.14257C17.1762 2.2892 18.0438 2.59815 18.728 3.2943C19.4122 3.99045 19.7159 4.8732 19.86 5.96382C20 7.02354 20 8.37764 20 10.0872V10.0872V13.9131V13.9131C20 15.6226 20 16.9767 19.86 18.0364C19.7159 19.127 19.4122 20.0098 18.728 20.7059C18.0438 21.4021 17.1762 21.711 16.1043 21.8577C15.0627 22.0001 13.7318 22.0001 12.0517 22.0001H12.0516H11.9484H11.9483C10.2681 22.0001 8.93729 22.0001 7.89575 21.8577C6.82382 21.711 5.95621 21.4021 5.27199 20.7059C4.58778 20.0098 4.28413 19.127 4.14001 18.0364C3.99998 16.9767 3.99999 15.6226 4 13.9131V13.9131V10.0872V10.0872C3.99999 8.37762 3.99998 7.02355 4.14001 5.96382C4.28413 4.8732 4.58778 3.99045 5.27199 3.2943C5.95621 2.59815 6.82382 2.2892 7.89575 2.14257C8.93731 2.0001 10.2682 2.00011 11.9484 2.00012H11.9484H12.0516H12.0516Z" fill="#1C274C"/>
<path d="M8.57129 18.5113C8.57129 18.126 8.87829 17.8136 9.257 17.8136H14.7427C15.1214 17.8136 15.4284 18.126 15.4284 18.5113C15.4284 18.8966 15.1214 19.2089 14.7427 19.2089H9.257C8.87829 19.2089 8.57129 18.8966 8.57129 18.5113Z" fill="#1C274C"/>
</svg>
