<svg width="24" height="24" viewBox="0 0 24 24" fill="none" xmlns="http://www.w3.org/2000/svg">
<path d="M14.217 3.50014C12.796 2.83394 11.2035 2.83394 9.78252 3.50014L5.48919 5.51294C6.27114 5.59732 6.98602 6.08988 7.31789 6.86426C7.80739 8.00643 7.2783 9.32915 6.13613 9.81865L5.06046 10.2797C4.52594 10.5087 4.22261 10.6411 4.01782 10.7461C4.0167 10.7624 4.01564 10.7793 4.01465 10.7967L9.78261 13.5008C11.2036 14.167 12.7961 14.167 14.2171 13.5008L20.9082 10.3639C22.3637 9.68154 22.3637 7.31948 20.9082 6.63713L14.217 3.50014Z" fill="#1C274C"/>
<path d="M5.54544 8.44004C5.92616 8.27687 6.10253 7.83596 5.93936 7.45524C5.7762 7.07452 5.33529 6.89816 4.95456 7.06132L3.84318 7.53763C3.28571 7.77652 2.81328 7.97897 2.44254 8.18754C2.04805 8.40947 1.70851 8.66993 1.45419 9.05562C1.19986 9.44132 1.09421 9.856 1.04563 10.306C0.999964 10.7289 0.999981 11.2429 1 11.8494V14.7507C1 15.1649 1.33579 15.5007 1.75 15.5007C2.16422 15.5007 2.5 15.1649 2.5 14.7507V11.8883C2.5 11.2325 2.50101 10.8 2.53696 10.467C2.57095 10.1522 2.63046 9.9966 2.70645 9.88136C2.78244 9.76611 2.90202 9.65012 3.178 9.49486C3.46985 9.33068 3.867 9.15937 4.46976 8.90104L5.54544 8.44004Z" fill="#1C274C"/>
<path opacity="0.5" d="M5 11.2587L9.78261 13.5009C11.2036 14.1671 12.7961 14.1671 14.2171 13.5009L19 11.2585V16.6258C19 17.6338 18.4965 18.5776 17.6147 19.0659C16.1463 19.8791 13.796 21.0004 12 21.0004C10.204 21.0004 7.8537 19.8791 6.38533 19.0659C5.5035 18.5776 5 17.6338 5 16.6258V11.2587Z" fill="#1C274C"/>
</svg>
