<svg width="24" height="24" viewBox="0 0 24 24" fill="none" xmlns="http://www.w3.org/2000/svg">
<path fill-rule="evenodd" clip-rule="evenodd" d="M9.25 2.75049C9.25 2.33627 9.58579 2.00049 10 2.00049H14C14.4142 2.00049 14.75 2.33627 14.75 2.75049C14.75 3.1647 14.4142 3.50049 14 3.50049H10C9.58579 3.50049 9.25 3.1647 9.25 2.75049Z" fill="#1C274C"/>
<g opacity="0.5">
<path d="M12 23.0005C16.9706 23.0005 21 18.9711 21 14.0005C21 9.02993 16.9706 5.00049 12 5.00049C7.02944 5.00049 3 9.02993 3 14.0005C3 18.9711 7.02944 23.0005 12 23.0005Z" fill="#1C274C"/>
</g>
<path d="M13.0261 11.2754C12.7888 11.1088 12.5201 10.9365 12.2419 10.7673L12.2419 10.7673C11.1695 10.1151 10.6333 9.78908 10.1524 10.1501C9.6715 10.5111 9.62779 11.2668 9.54038 12.7783C9.51566 13.2058 9.5 13.6248 9.5 14.0005C9.5 14.3761 9.51566 14.7952 9.54038 15.2226C9.62779 16.7341 9.6715 17.4899 10.1524 17.8509C10.6333 18.2119 11.1695 17.8858 12.2419 17.2337C12.5201 17.0645 12.7888 16.8922 13.0261 16.7256C13.2966 16.5357 13.5909 16.3078 13.8876 16.0657C14.9625 15.1888 15.5 14.7504 15.5 14.0005C15.5 13.2506 14.9625 12.8122 13.8876 11.9353C13.5909 11.6932 13.2966 11.4653 13.0261 11.2754Z" fill="#1C274C"/>
</svg>
