<svg width="24" height="24" viewBox="0 0 24 24" fill="none" xmlns="http://www.w3.org/2000/svg">
<path d="M17 4.50049C17 5.8812 15.8807 7.00049 14.5 7.00049C13.1193 7.00049 12 5.8812 12 4.50049C12 3.11978 13.1193 2.00049 14.5 2.00049C15.8807 2.00049 17 3.11978 17 4.50049Z" fill="#1C274C"/>
<path fill-rule="evenodd" clip-rule="evenodd" d="M16.5589 14.054C18.2318 13.7822 19.75 15.0736 19.75 16.7684V22.0005C19.75 22.4147 19.4142 22.7505 19 22.7505C18.5858 22.7505 18.25 22.4147 18.25 22.0005V16.7684C18.25 15.998 17.5599 15.411 16.7995 15.5346L15.787 15.6991C15.3781 15.7655 14.9928 15.488 14.9264 15.0791C14.8599 14.6703 15.1375 14.285 15.5464 14.2185L16.5589 14.054Z" fill="#1C274C"/>
<path opacity="0.5" d="M10.5028 9.2073C11.9875 8.571 13.6391 9.66006 13.6391 11.2754V13.8958C13.6391 14.3659 13.5186 14.8282 13.2891 15.2385L10.5768 20.0867C10.2519 20.6674 9.72748 21.1106 9.10074 21.3342L5.25218 22.707C4.86205 22.8461 4.43296 22.6427 4.2938 22.2525C4.15464 21.8624 4.35809 21.4333 4.74823 21.2942L8.59678 19.9214C8.88166 19.8197 9.12004 19.6183 9.26771 19.3543L11.98 14.5061C12.0843 14.3196 12.1391 14.1095 12.1391 13.8958V11.2754C12.1391 10.7369 11.5886 10.3739 11.0937 10.586L8.63786 11.6385C8.14643 11.8491 8.0269 12.4916 8.40972 12.8649L9.02378 13.4636C9.32036 13.7527 9.32637 14.2276 9.0372 14.5241C8.74804 14.8207 8.27321 14.8267 7.97663 14.5376L7.36257 13.9389C6.21412 12.8191 6.57269 10.8916 8.04698 10.2598L10.5028 9.2073Z" fill="#1C274C"/>
</svg>
