<svg width="24" height="24" viewBox="0 0 24 24" fill="none" xmlns="http://www.w3.org/2000/svg">
<path d="M17 4.50049C17 5.8812 15.8807 7.00049 14.5 7.00049C13.1193 7.00049 12 5.8812 12 4.50049C12 3.11978 13.1193 2.00049 14.5 2.00049C15.8807 2.00049 17 3.11978 17 4.50049Z" fill="#1C274C"/>
<path fill-rule="evenodd" clip-rule="evenodd" d="M15.5072 14.4644C17.7239 14.1074 19.75 15.8036 19.75 18.0491V21.9962C19.75 22.4104 19.4142 22.7462 19 22.7462C18.5858 22.7462 18.25 22.4104 18.25 21.9962V18.0491C18.25 16.7428 17.0661 15.7327 15.7458 15.9454C15.3368 16.0112 14.9519 15.7331 14.886 15.3242C14.8202 14.9152 15.0983 14.5303 15.5072 14.4644Z" fill="#1C274C"/>
<path opacity="0.5" d="M13.3633 10.3466C13.8381 11.0944 14.0951 12.1112 14.0951 13.435C14.0951 18.5179 10.1339 22.7508 5 22.7508C4.58579 22.7508 4.25 22.415 4.25 22.0008C4.25 21.5866 4.58579 21.2508 5 21.2508C9.2549 21.2508 12.5951 17.741 12.5951 13.435C12.5951 12.2917 12.3715 11.5831 12.097 11.1506C11.8323 10.7338 11.4884 10.5217 11.116 10.4225C10.726 10.3185 10.2869 10.3357 9.87888 10.4252C9.46283 10.5164 9.15214 10.6663 9.02681 10.7551C8.70695 10.9818 8.38076 11.4092 8.24551 11.8574C8.11753 12.2814 8.18065 12.6171 8.44446 12.872L8.46924 12.896C8.7671 13.1838 8.77522 13.6586 8.48738 13.9565C8.19954 14.2544 7.72473 14.2625 7.42687 13.9746L7.40209 13.9507C6.62406 13.1988 6.56874 12.2217 6.80948 11.424C7.04295 10.6504 7.57265 9.94712 8.15959 9.53123C8.48766 9.29878 8.99767 9.08276 9.55761 8.95998C10.1256 8.83544 10.8178 8.79056 11.5024 8.97308C12.2047 9.1603 12.8787 9.58329 13.3633 10.3466Z" fill="#1C274C"/>
</svg>
