<svg width="24" height="24" viewBox="0 0 24 24" fill="none" xmlns="http://www.w3.org/2000/svg">
<g opacity="0.5">
<path d="M17.8044 9.11023L14.8901 6.19587C14.0906 5.39639 13.6908 4.99665 13.2363 4.8312C12.7542 4.65575 12.2258 4.65575 11.7437 4.8312C11.2891 4.99665 10.8894 5.39639 10.0899 6.19587L5.54694 10.7388C3.41664 12.8691 3.41664 16.323 5.54694 18.4533C7.67724 20.5836 11.1311 20.5836 13.2614 18.4533L17.8044 13.9104C18.6039 13.1109 19.0036 12.7111 19.1691 12.2566C19.3445 11.7745 19.3445 11.2461 19.1691 10.764C19.0036 10.3095 18.6039 9.9097 17.8044 9.11023Z" fill="#1C274C"/>
<path fill-rule="evenodd" clip-rule="evenodd" d="M16.5561 3.23326C16.8667 2.92257 17.3705 2.92257 17.6811 3.23326L20.7669 6.31906C21.0776 6.62974 21.0776 7.13346 20.7669 7.44414C20.4563 7.75483 19.9525 7.75483 19.6418 7.44414L16.5561 4.35835C16.2454 4.04766 16.2454 3.54394 16.5561 3.23326Z" fill="#1C274C"/>
</g>
<path d="M17.7292 13.9855L10.0147 6.271L8.88965 7.39608L16.6041 15.1106L17.7292 13.9855Z" fill="#1C274C"/>
<path d="M5.02573 17.8499C5.18255 18.0604 5.35652 18.2621 5.54763 18.4532C5.73867 18.6443 5.94037 18.8182 6.15079 18.975L4.35812 20.7675C4.04745 21.0782 3.54373 21.0783 3.23303 20.7676C2.92234 20.4569 2.92232 19.9532 3.23299 19.6425L5.02573 17.8499Z" fill="#1C274C"/>
<path d="M16.9093 8.21517L15.7842 7.09008L17.5359 5.33838L18.661 6.46347L16.9093 8.21517Z" fill="#1C274C"/>
<path d="M15.3671 16.3481C15.3671 16.3481 15.3671 16.3481 15.3671 16.3481L12.3065 13.2875C11.9958 12.9768 11.4921 12.9768 11.1814 13.2875C10.8707 13.5981 10.8707 14.1019 11.1814 14.4125L14.242 17.4732C14.242 17.4732 14.242 17.4732 14.242 17.4732L15.3671 16.3481Z" fill="#1C274C"/>
<path d="M13.6314 18.0839C13.6314 18.0838 13.6314 18.0839 13.6314 18.0839L11.8854 16.3379C11.5748 16.0273 11.071 16.0273 10.7604 16.3379C10.4497 16.6486 10.4497 17.1523 10.7604 17.463L12.4323 19.135C12.7251 18.9392 13.0032 18.7121 13.2617 18.4535L13.6314 18.0839Z" fill="#1C274C"/>
</svg>
