<svg width="24" height="24" viewBox="0 0 24 24" fill="none" xmlns="http://www.w3.org/2000/svg">
<path opacity="0.5" d="M10.221 20.0005H12.858C15.0854 20.0005 16.1992 20.0005 17.1289 19.4991C18.0586 18.9976 18.6488 18.0786 19.8294 16.2405L20.5102 15.1805L20.5102 15.1805C21.5034 13.6341 22 12.8609 22 12.0005C22 11.1401 21.5034 10.3669 20.5102 8.82049L19.8294 7.7605C18.6488 5.9224 18.0586 5.00335 17.1289 4.50192C16.1992 4.00049 15.0854 4.00049 12.858 4.00049H10.221C6.34561 4.00049 4.40789 4.00049 3.20394 5.17206C2 6.34363 2 8.22925 2 12.0005C2 15.7717 2 17.6573 3.20394 18.8289C4.40789 20.0005 6.3456 20.0005 10.221 20.0005Z" fill="#1C274C"/>
<path d="M7 7.05518C7.41421 7.05518 7.75 7.37121 7.75 7.76106V16.2362C7.75 16.6261 7.41421 16.9421 7 16.9421C6.58579 16.9421 6.25 16.6261 6.25 16.2362V7.76106C6.25 7.37121 6.58579 7.05518 7 7.05518Z" fill="#1C274C"/>
</svg>
