<svg width="24" height="24" viewBox="0 0 24 24" fill="none" xmlns="http://www.w3.org/2000/svg">
<path fill-rule="evenodd" clip-rule="evenodd" d="M8 2.00049L7.93417 2.00049C7.04769 2.00044 6.28387 2.0004 5.67221 2.08263C5.0167 2.17077 4.38835 2.36951 3.87868 2.87917C3.36902 3.38884 3.17028 4.01719 3.08215 4.6727C2.99991 5.28436 2.99995 6.04818 3 6.93466L3 7.00049V7.95049C3 8.50278 3.44772 8.95049 4 8.95049C4.55229 8.95049 5 8.50278 5 7.95049V7.00049C5 6.02942 5.00213 5.4017 5.06431 4.9392C5.12263 4.50546 5.21677 4.36951 5.2929 4.29339C5.36902 4.21726 5.50497 4.12311 5.93871 4.0648C6.40122 4.00262 7.02893 4.00049 8 4.00049H11H13H16C16.9711 4.00049 17.5988 4.00262 18.0613 4.0648C18.495 4.12311 18.631 4.21726 18.7071 4.29339C18.7832 4.36951 18.8774 4.50546 18.9357 4.9392C18.9979 5.4017 19 6.02942 19 7.00049V7.95049C19 8.50278 19.4477 8.95049 20 8.95049C20.5523 8.95049 21 8.50278 21 7.95049L21 6.93469C21.0001 6.04819 21.0001 5.28437 20.9179 4.6727C20.8297 4.01719 20.631 3.38884 20.1213 2.87917C19.6117 2.36951 18.9833 2.17077 18.3278 2.08263C17.7161 2.0004 16.9523 2.00044 16.0658 2.00049L8 2.00049Z" fill="#1C274C"/>
<path opacity="0.5" d="M13 4.00049H11V20.0005H13V4.00049Z" fill="#1C274C"/>
<path fill-rule="evenodd" clip-rule="evenodd" d="M6 21.0005C6 20.4482 6.44772 20.0005 7 20.0005H17C17.5523 20.0005 18 20.4482 18 21.0005C18 21.5528 17.5523 22.0005 17 22.0005H7C6.44772 22.0005 6 21.5528 6 21.0005Z" fill="#1C274C"/>
</svg>
