<svg width="24" height="24" viewBox="0 0 24 24" fill="none" xmlns="http://www.w3.org/2000/svg">
<path fill-rule="evenodd" clip-rule="evenodd" d="M14.0137 17.0005L14.0079 19.0034C14.0065 19.4735 14.0058 19.7086 13.8591 19.8546C13.7124 20.0005 13.4767 20.0005 13.0054 20.0005H9.99502C6.21438 20.0005 4.32407 20.0005 3.14958 18.8289C2.34091 18.0223 2.08903 16.8771 2.01058 15.011C1.99502 14.6409 1.98724 14.4559 2.05634 14.3325C2.12545 14.209 2.40133 14.0549 2.95308 13.7468C3.56586 13.4046 3.98007 12.7508 3.98007 12.0005C3.98007 11.2502 3.56586 10.5963 2.95308 10.2541C2.40133 9.94602 2.12545 9.79196 2.05634 9.66851C1.98724 9.54506 1.99502 9.36003 2.01058 8.98996C2.08903 7.12388 2.34091 5.97872 3.14958 5.17206C4.32407 4.00049 6.21439 4.00049 9.99502 4.00049H13.5052C13.7814 4.00049 14.0056 4.22346 14.0064 4.49904L14.0137 7.00049C14.0137 7.55277 14.4625 8.00049 15.0162 8.00049L15.0162 10.0005C14.4625 10.0005 14.0137 10.4482 14.0137 11.0005V13.0005C14.0137 13.5528 14.4625 14.0005 15.0162 14.0005V16.0005C14.4625 16.0005 14.0137 16.4482 14.0137 17.0005Z" fill="#1C274C"/>
<path opacity="0.5" d="M15.0166 16.0003C15.5703 16.0003 16.0191 16.448 16.0191 17.0003V18.9768C16.0191 19.4583 16.0191 19.6991 16.1735 19.8467C16.3279 19.9944 16.5641 19.9844 17.0366 19.9644C18.8995 19.8855 20.0441 19.6335 20.8508 18.8287C21.6595 18.0221 21.9114 16.8769 21.9898 15.0108C22.0054 14.6408 22.0132 14.4557 21.9441 14.3323C21.875 14.2088 21.5991 14.0548 21.0473 13.7467C20.4346 13.4045 20.0203 12.7506 20.0203 12.0003C20.0203 11.25 20.4346 10.5962 21.0473 10.254C21.5991 9.94584 21.875 9.79178 21.9441 9.66833C22.0132 9.54488 22.0054 9.35985 21.9898 8.98978C21.9114 7.1237 21.6595 5.97854 20.8508 5.17188C19.9731 4.29635 18.6956 4.07511 16.5282 4.01921C16.2486 4.012 16.0191 4.23749 16.0191 4.51649V7.00031C16.0191 7.55259 15.5703 8.00031 15.0166 8.00031L15.0166 10.0003C15.5703 10.0003 16.0191 10.448 16.0191 11.0003V13.0003C16.0191 13.5526 15.5703 14.0003 15.0166 14.0003V16.0003Z" fill="#1C274C"/>
</svg>
