<svg width="24" height="24" viewBox="0 0 24 24" fill="none" xmlns="http://www.w3.org/2000/svg">
<path d="M4 12.0005C2.89543 12.0005 2 11.1051 2 10.0005C2 8.89592 2.89543 8.00049 4 8.00049C5.10457 8.00049 6 8.89592 6 10.0005C6 11.1051 5.10457 12.0005 4 12.0005Z" fill="#1C274C"/>
<path d="M10 12.0005C10 10.8959 10.8954 10.0005 12 10.0005C13.1046 10.0005 14 10.8959 14 12.0005C14 13.1051 13.1046 14.0005 12 14.0005C10.8954 14.0005 10 13.1051 10 12.0005Z" fill="#1C274C"/>
<path d="M18 14.0005C18 12.8959 18.8954 12.0005 20 12.0005C21.1046 12.0005 22 12.8959 22 14.0005C22 15.1051 21.1046 16.0005 20 16.0005C18.8954 16.0005 18 15.1051 18 14.0005Z" fill="#1C274C"/>
<g opacity="0.5">
<path d="M12.75 10.1459C12.5184 10.0521 12.2652 10.0005 12 10.0005C11.7348 10.0005 11.4816 10.0521 11.25 10.1459V5.00049C11.25 4.58627 11.5858 4.25049 12 4.25049C12.4142 4.25049 12.75 4.58627 12.75 5.00049V10.1459Z" fill="#1C274C"/>
<path d="M11.25 13.8551C11.4816 13.9489 11.7348 14.0005 12 14.0005C12.2652 14.0005 12.5184 13.9489 12.75 13.8551V19.0005C12.75 19.4147 12.4142 19.7505 12 19.7505C11.5858 19.7505 11.25 19.4147 11.25 19.0005V13.8551Z" fill="#1C274C"/>
<path d="M19.25 12.1459C19.4816 12.0521 19.7348 12.0005 20 12.0005C20.2652 12.0005 20.5184 12.0521 20.75 12.1459V5.00049C20.75 4.58627 20.4142 4.25049 20 4.25049C19.5858 4.25049 19.25 4.58627 19.25 5.00049V12.1459Z" fill="#1C274C"/>
<path d="M19.25 15.8551V19.0005C19.25 19.4147 19.5858 19.7505 20 19.7505C20.4142 19.7505 20.75 19.4147 20.75 19.0005V15.8551C20.5184 15.9489 20.2652 16.0005 20 16.0005C19.7348 16.0005 19.4816 15.9489 19.25 15.8551Z" fill="#1C274C"/>
<path d="M4.75 8.14587C4.51839 8.05211 4.26523 8.00049 4 8.00049C3.73477 8.00049 3.48161 8.05212 3.25 8.14587V5.00049C3.25 4.58627 3.58579 4.25049 4 4.25049C4.41421 4.25049 4.75 4.58627 4.75 5.00049V8.14587Z" fill="#1C274C"/>
<path d="M4.75 11.8551C4.51839 11.9489 4.26523 12.0005 4 12.0005C3.73478 12.0005 3.48161 11.9489 3.25 11.8551V19.0005C3.25 19.4147 3.58579 19.7505 4 19.7505C4.41421 19.7505 4.75 19.4147 4.75 19.0005L4.75 11.8551Z" fill="#1C274C"/>
</g>
</svg>
