<svg width="24" height="24" viewBox="0 0 24 24" fill="none" xmlns="http://www.w3.org/2000/svg">
<path opacity="0.5" d="M20.5355 20.5358C22 19.0713 22 16.7143 22 12.0002C22 7.2862 22 4.92918 20.5355 3.46471C19.0711 2.00024 16.714 2.00024 12 2.00024C7.28595 2.00024 4.92893 2.00024 3.46447 3.46471C2 4.92918 2 7.2862 2 12.0002C2 16.7143 2 19.0713 3.46447 20.5358C4.92893 22.0002 7.28595 22.0002 12 22.0002C16.714 22.0002 19.0711 22.0002 20.5355 20.5358Z" fill="#1C274C"/>
<path d="M17.4545 6.90371C17.784 7.15474 17.8476 7.62534 17.5966 7.95482L10.7394 16.9548C10.6029 17.134 10.393 17.2424 10.1678 17.2499C9.94267 17.2574 9.72605 17.1633 9.57788 16.9935L6.43502 13.3935C6.16261 13.0815 6.19473 12.6077 6.50677 12.3353C6.8188 12.0629 7.29259 12.095 7.565 12.407L10.1034 15.3146L16.4034 7.04575C16.6545 6.71627 17.1251 6.65268 17.4545 6.90371Z" fill="#1C274C"/>
</svg>
