<svg width="24" height="24" viewBox="0 0 24 24" fill="none" xmlns="http://www.w3.org/2000/svg">
<path fill-rule="evenodd" clip-rule="evenodd" d="M1.81803 5.27281C2.21988 5.17235 2.62708 5.41667 2.72754 5.81852L3.10951 7.34639C3.71932 9.78565 5.64101 11.6769 8.08446 12.2504H15.9999C18.091 12.2504 19.851 13.8155 20.0953 15.8922L20.7448 21.4128C20.7932 21.8242 20.4989 22.1969 20.0876 22.2453C19.6762 22.2937 19.3035 21.9994 19.2551 21.5881L18.6056 16.0675C18.4501 14.7462 17.3303 13.7504 15.9999 13.7504H7.9176L7.83724 13.7326C4.80202 13.0581 2.4084 10.7266 1.65429 7.71019L1.27233 6.18232C1.17186 5.78048 1.41619 5.37328 1.81803 5.27281Z" fill="#1C274C"/>
<path opacity="0.5" d="M8 13.7505V18.0005C8 19.8861 8 20.8289 8.58579 21.4147C9.17157 22.0005 10.1144 22.0005 12 22.0005C13.8856 22.0005 14.8284 22.0005 15.4142 21.4147C16 20.8289 16 19.8861 16 18.0005V13.7505H8Z" fill="#1C274C"/>
<circle cx="12" cy="6.00049" r="4" fill="#1C274C"/>
</svg>
