<svg width="24" height="24" viewBox="0 0 24 24" fill="none" xmlns="http://www.w3.org/2000/svg">
<path d="M18.3569 1.36473C18.57 1.00954 19.0307 0.894371 19.3859 1.10748L19 1.7506C19.3859 1.10748 19.3859 1.10748 19.3859 1.10748L19.3873 1.10832L19.3888 1.10927L19.3925 1.11152L19.4021 1.11744C19.4095 1.12201 19.4187 1.12785 19.4297 1.13497C19.4517 1.1492 19.4808 1.16858 19.516 1.19321C19.5863 1.24243 19.6813 1.31293 19.7926 1.40569C20.0147 1.59077 20.3052 1.86727 20.5945 2.24332C21.1773 3.00105 21.75 4.15795 21.75 5.7506C21.75 7.34326 21.1773 8.50015 20.5945 9.25788C20.3052 9.63393 20.0147 9.91043 19.7926 10.0955C19.6813 10.1883 19.5863 10.2588 19.516 10.308C19.4808 10.3326 19.4517 10.352 19.4297 10.3662C19.4242 10.3698 19.4192 10.373 19.4146 10.3759C19.41 10.3789 19.4058 10.3815 19.4021 10.3838L19.3925 10.3897L19.3888 10.3919L19.3873 10.3929C19.3873 10.3929 19.3859 10.3937 19 9.7506L19.3859 10.3937C19.0307 10.6068 18.57 10.4917 18.3569 10.1365C18.1447 9.78278 18.258 9.32447 18.6097 9.11019L18.6152 9.10665C18.6225 9.10194 18.6363 9.0928 18.6558 9.07915C18.6949 9.0518 18.7562 9.00668 18.8324 8.94319C18.9853 8.81577 19.1948 8.61727 19.4055 8.34332C19.8227 7.80105 20.25 6.95795 20.25 5.7506C20.25 4.54326 19.8227 3.70015 19.4055 3.15788C19.1948 2.88393 18.9853 2.68543 18.8324 2.55802C18.7562 2.49452 18.6949 2.4494 18.6558 2.42206C18.6363 2.40841 18.6225 2.39927 18.6152 2.39455L18.6097 2.39102C18.258 2.17674 18.1447 1.71842 18.3569 1.36473Z" fill="#1C274C"/>
<path d="M10 9.7506C12.2091 9.7506 14 7.95974 14 5.7506C14 3.54146 12.2091 1.7506 10 1.7506C7.79086 1.7506 6 3.54146 6 5.7506C6 7.95974 7.79086 9.7506 10 9.7506Z" fill="#1C274C"/>
<path d="M17.3859 3.10748C17.0307 2.89437 16.57 3.00954 16.3569 3.36473L16.6051 4.38822L16.6129 4.39354C16.6246 4.40174 16.6468 4.41796 16.6761 4.44239C16.7353 4.49168 16.8198 4.57143 16.9055 4.68288C17.0727 4.90015 17.25 5.24326 17.25 5.7506C17.25 6.25795 17.0727 6.60105 16.9055 6.81832C16.8198 6.92977 16.7353 7.00952 16.6761 7.05881C16.6468 7.08324 16.6246 7.09946 16.6129 7.10766L16.6051 7.11298C16.257 7.32843 16.1456 7.78431 16.3569 8.13647C16.57 8.49166 17.0307 8.60683 17.3859 8.39372L17 7.7506C17.3859 8.39372 17.3859 8.39372 17.3859 8.39372L17.3872 8.39291L17.3887 8.39205L17.3918 8.39012L17.3993 8.38553L17.4185 8.37331C17.4332 8.36382 17.4515 8.35157 17.4731 8.33651C17.516 8.30643 17.572 8.26484 17.6364 8.21114C17.7647 8.10418 17.9302 7.94643 18.0945 7.73288C18.4273 7.30015 18.75 6.64326 18.75 5.7506C18.75 4.85795 18.4273 4.20105 18.0945 3.76832C17.9302 3.55477 17.7647 3.39702 17.6364 3.29006C17.572 3.23637 17.516 3.19477 17.4731 3.16469C17.4515 3.14963 17.4332 3.13739 17.4185 3.12789L17.3993 3.11568L17.3918 3.11108L17.3887 3.10916L17.3872 3.10829C17.3872 3.10829 17.3859 3.10748 17 3.7506L17.3859 3.10748Z" fill="#1C274C"/>
<path opacity="0.5" d="M2 17.2505C2 19.7358 2 21.7505 10 21.7505C18 21.7505 18 19.7358 18 17.2505C18 14.7652 14.4183 12.7505 10 12.7505C5.58172 12.7505 2 14.7652 2 17.2505Z" fill="#1C274C"/>
</svg>
