<svg width="24" height="24" viewBox="0 0 24 24" fill="none" xmlns="http://www.w3.org/2000/svg">
<path d="M12 10.0005C14.2091 10.0005 16 8.20963 16 6.00049C16 3.79135 14.2091 2.00049 12 2.00049C9.79086 2.00049 8 3.79135 8 6.00049C8 8.20963 9.79086 10.0005 12 10.0005Z" fill="#1C274C"/>
<path fill-rule="evenodd" clip-rule="evenodd" d="M16.5 15.7505C14.9812 15.7505 13.75 16.9817 13.75 18.5005C13.75 19.0009 13.8832 19.4696 14.1167 19.8737L17.8732 16.1172C17.4691 15.8837 17.0004 15.7505 16.5 15.7505ZM18.9196 17.1921L15.1916 20.9201C15.5806 21.131 16.0261 21.2505 16.5 21.2505C18.0188 21.2505 19.25 20.0193 19.25 18.5005C19.25 18.0266 19.1305 17.5811 18.9196 17.1921ZM12.25 18.5005C12.25 16.1533 14.1528 14.2505 16.5 14.2505C17.689 14.2505 18.7652 14.7398 19.5357 15.5261C20.2861 16.2918 20.75 17.3427 20.75 18.5005C20.75 20.8477 18.8472 22.7505 16.5 22.7505C15.3423 22.7505 14.2914 22.2866 13.5256 21.5362C12.7393 20.7657 12.25 19.6895 12.25 18.5005Z" fill="#1C274C"/>
<path opacity="0.4" d="M17.9963 14.5216C17.5308 14.3464 17.0265 14.2505 16.5 14.2505C14.1528 14.2505 12.25 16.1533 12.25 18.5005C12.25 19.6895 12.7393 20.7657 13.5256 21.5362C13.6786 21.6861 13.8429 21.8246 14.0173 21.9502C13.4088 21.9833 12.7385 22.0005 12 22.0005C4 22.0005 4 19.9858 4 17.5005C4 15.0152 7.58172 13.0005 12 13.0005C14.3874 13.0005 16.5305 13.5887 17.9963 14.5216Z" fill="#1C274C"/>
</svg>
