<svg width="24" height="24" viewBox="0 0 24 24" fill="none" xmlns="http://www.w3.org/2000/svg">
<path d="M6.25 14.7505C6.25 15.1647 6.58579 15.5005 7 15.5005C7.41421 15.5005 7.75 15.1647 7.75 14.7505V8.75049C7.75 8.33627 7.41421 8.00049 7 8.00049C6.58579 8.00049 6.25 8.33627 6.25 8.75049V14.7505Z" fill="#1C274C"/>
<path fill-rule="evenodd" clip-rule="evenodd" d="M21.1884 8.00426C21.1262 8.00044 21.0584 8.00047 20.9881 8.00049L20.9706 8.0005H18.2149C15.9435 8.0005 14 9.73655 14 12.0005C14 14.2644 15.9435 16.0005 18.2149 16.0005H20.9706L20.9881 16.0005C21.0584 16.0005 21.1262 16.0005 21.1884 15.9967C22.111 15.9402 22.927 15.2391 22.9956 14.2599C23.0001 14.1957 23 14.1265 23 14.0623L23 14.0449V9.95605L23 9.93864C23 9.87449 23.0001 9.80528 22.9956 9.74107C22.927 8.76188 22.111 8.06083 21.1884 8.00426ZM17.9706 13.0671C18.5554 13.0671 19.0294 12.5896 19.0294 12.0005C19.0294 11.4114 18.5554 10.9338 17.9706 10.9338C17.3858 10.9338 16.9118 11.4114 16.9118 12.0005C16.9118 12.5896 17.3858 13.0671 17.9706 13.0671Z" fill="#1C274C"/>
<path opacity="0.5" d="M21.1394 8.00201C21.1394 6.8214 21.0965 5.55496 20.3418 4.64707C20.2689 4.55943 20.1914 4.47433 20.1088 4.39173C19.3604 3.64337 18.4114 3.31125 17.239 3.15362C16.0998 3.00046 14.6442 3.00047 12.8064 3.00049H10.6936C8.85583 3.00047 7.40019 3.00046 6.26098 3.15362C5.08856 3.31125 4.13961 3.64337 3.39124 4.39173C2.64288 5.1401 2.31076 6.08905 2.15314 7.26147C1.99997 8.40068 1.99999 9.8563 2 11.6941V11.8069C1.99999 13.6447 1.99997 15.1003 2.15314 16.2395C2.31076 17.4119 2.64288 18.3609 3.39124 19.1092C4.13961 19.8576 5.08856 20.1897 6.26098 20.3474C7.40018 20.5005 8.8558 20.5005 10.6935 20.5005H12.8064C14.6442 20.5005 16.0998 20.5005 17.239 20.3474C18.4114 20.1897 19.3604 19.8576 20.1088 19.1092C20.3133 18.9047 20.487 18.6849 20.6346 18.4491C21.0851 17.7296 21.1394 16.8478 21.1394 15.999C21.0912 16.0005 21.0404 16.0005 20.9882 16.0005L18.2149 16.0005C15.9435 16.0005 14 14.2644 14 12.0005C14 9.73656 15.9435 8.0005 18.2149 8.0005L20.9881 8.00049C21.0403 8.00047 21.0912 8.00045 21.1394 8.00201Z" fill="#1C274C"/>
</svg>
