<svg width="24" height="24" viewBox="0 0 24 24" fill="none" xmlns="http://www.w3.org/2000/svg">
<path opacity="0.5" d="M6.77772 18.3264C7.78661 19.0005 9.19108 19.0005 12 19.0005C14.8089 19.0005 16.2134 19.0005 17.2223 18.3264C17.659 18.0345 18.034 17.6595 18.3259 17.2228C19 16.2139 19 14.8094 19 12.0005C19 9.19156 19 7.7871 18.3259 6.77821C18.034 6.34145 17.659 5.96644 17.2223 5.67461C16.2134 5.00049 14.8089 5.00049 12 5.00049C9.19108 5.00049 7.78661 5.00049 6.77772 5.67461C6.34096 5.96644 5.96596 6.34145 5.67412 6.77821C5 7.7871 5 9.19156 5 12.0005C5 14.8094 5 16.2139 5.67412 17.2228C5.96596 17.6595 6.34096 18.0345 6.77772 18.3264Z" fill="#1C274C"/>
<path d="M12 8.25049C12.4142 8.25049 12.75 8.58627 12.75 9.00049V11.7581L14.5198 13.4599C14.8184 13.747 14.8277 14.2217 14.5406 14.5203C14.2535 14.8189 13.7787 14.8282 13.4802 14.5411L11.4802 12.618C11.3331 12.4766 11.25 12.2814 11.25 12.0774V9.00049C11.25 8.58627 11.5858 8.25049 12 8.25049Z" fill="#1C274C"/>
<path fill-rule="evenodd" clip-rule="evenodd" d="M6.25 2.00049C6.25 1.58627 6.58579 1.25049 7 1.25049H17C17.4142 1.25049 17.75 1.58627 17.75 2.00049C17.75 2.4147 17.4142 2.75049 17 2.75049H7C6.58579 2.75049 6.25 2.4147 6.25 2.00049ZM6.25 22.0005C6.25 21.5863 6.58579 21.2505 7 21.2505H17C17.4142 21.2505 17.75 21.5863 17.75 22.0005C17.75 22.4147 17.4142 22.7505 17 22.7505H7C6.58579 22.7505 6.25 22.4147 6.25 22.0005Z" fill="#1C274C"/>
</svg>
