<svg width="24" height="24" viewBox="0 0 24 24" fill="none" xmlns="http://www.w3.org/2000/svg">
<path fill-rule="evenodd" clip-rule="evenodd" d="M4.43323 4.77324C3.5567 6.59578 3 9.15053 3 12.0005C3 14.8505 3.5567 17.4052 4.43323 19.2277C5.33351 21.0997 6.46125 22.0005 7.5 22.0005C8.53875 22.0005 9.66648 21.0997 10.5668 19.2277C11.4433 17.4052 12 14.8505 12 12.0005C12 9.15053 11.4433 6.59578 10.5668 4.77324C9.66648 2.9013 8.53875 2.00049 7.5 2.00049C6.46125 2.00049 5.33351 2.9013 4.43323 4.77324ZM5.8125 12.0005C5.8125 15.4886 6.56802 18.3163 7.5 18.3163C8.36054 18.3163 9.07064 15.9055 9.17444 12.79H8.0625C7.59651 12.79 7.21875 12.4365 7.21875 12.0005C7.21875 11.5645 7.59651 11.211 8.0625 11.211H9.17444C9.07064 8.09551 8.36054 5.6847 7.5 5.6847C6.56802 5.6847 5.8125 8.51237 5.8125 12.0005Z" fill="#1C274C"/>
<path opacity="0.5" d="M10.5668 19.2277C9.66649 21.0997 8.53875 22.0005 7.5 22.0005H16.3715C18.9278 22.0005 21.0001 17.5233 21.0001 12.0005C21.0001 6.47764 18.9278 2.00049 16.3715 2.00049H7.5C8.53875 2.00049 9.66649 2.9013 10.5668 4.77324C11.4433 6.59578 12 9.15053 12 12.0005C12 14.8505 11.4433 17.4052 10.5668 19.2277Z" fill="#1C274C"/>
</svg>
