<svg width="24" height="24" viewBox="0 0 24 24" fill="none" xmlns="http://www.w3.org/2000/svg">
<path d="M7 14.0004C6.58579 14.0004 6.25 14.3362 6.25 14.7504C6.25 15.1646 6.58579 15.5004 7 15.5004C7.41421 15.5004 7.75 15.1646 7.75 14.7504C7.75 14.3362 7.41421 14.0004 7 14.0004Z" fill="#1C274C"/>
<path fill-rule="evenodd" clip-rule="evenodd" d="M2 14.7504C2 11.9889 4.23858 9.75037 7 9.75037H17C19.7614 9.75037 22 11.9889 22 14.7504C22 17.5118 19.7614 19.7504 17 19.7504H7C4.23858 19.7504 2 17.5118 2 14.7504ZM4.75 14.7504C4.75 13.5077 5.75736 12.5004 7 12.5004C8.24264 12.5004 9.25 13.5077 9.25 14.7504C9.25 15.993 8.24264 17.0004 7 17.0004C5.75736 17.0004 4.75 15.993 4.75 14.7504ZM12 14.0004C11.5858 14.0004 11.25 14.3362 11.25 14.7504C11.25 15.1646 11.5858 15.5004 12 15.5004H18.5C18.9142 15.5004 19.25 15.1646 19.25 14.7504C19.25 14.3362 18.9142 14.0004 18.5 14.0004H12Z" fill="#1C274C"/>
<path opacity="0.5" d="M5.46864 19.5115L4.35684 21.3645C4.14373 21.7197 4.2589 22.1804 4.61409 22.3935C4.96927 22.6066 5.42997 22.4914 5.64308 22.1362L7.07461 19.7503H7.00001C6.46585 19.7503 5.95126 19.6666 5.46864 19.5115Z" fill="#1C274C"/>
<path opacity="0.5" d="M16.9254 19.7503L18.3569 22.1362C18.5701 22.4914 19.0307 22.6066 19.3859 22.3935C19.7411 22.1804 19.8563 21.7197 19.6432 21.3645L18.5314 19.5115C18.0488 19.6666 17.5342 19.7503 17 19.7503H16.9254Z" fill="#1C274C"/>
<path opacity="0.4" fill-rule="evenodd" clip-rule="evenodd" d="M16.4998 3.50037C14.521 3.50037 12.823 4.71068 12.1091 6.43435C11.9507 6.81705 11.5119 6.9988 11.1292 6.84031C10.7466 6.68183 10.5648 6.24311 10.7233 5.86042C11.6612 3.59576 13.8933 2.00037 16.4998 2.00037C19.1064 2.00037 21.3385 3.59576 22.2764 5.86042C22.4349 6.24311 22.2531 6.68183 21.8704 6.84031C21.4878 6.9988 21.049 6.81705 20.8905 6.43435C20.1767 4.71068 18.4787 3.50037 16.4998 3.50037Z" fill="#1C274C"/>
<path opacity="0.7" fill-rule="evenodd" clip-rule="evenodd" d="M16.5006 6.00037C15.4782 6.00037 14.6133 6.68281 14.3403 7.61857C14.2243 8.0162 13.8078 8.24448 13.4102 8.12845C13.0126 8.01241 12.7843 7.59601 12.9003 7.19838C13.3551 5.64006 14.7938 4.50037 16.5006 4.50037C18.2074 4.50037 19.6461 5.64006 20.1008 7.19838C20.2168 7.59601 19.9886 8.01241 19.5909 8.12845C19.1933 8.24448 18.7769 8.0162 18.6609 7.61857C18.3878 6.68281 17.5229 6.00037 16.5006 6.00037Z" fill="#1C274C"/>
<path d="M17.5 7.75037C17.5 8.30265 17.0523 8.75037 16.5 8.75037C15.9477 8.75037 15.5 8.30265 15.5 7.75037C15.5 7.19808 15.9477 6.75037 16.5 6.75037C17.0523 6.75037 17.5 7.19808 17.5 7.75037Z" fill="#1C274C"/>
</svg>
