<svg width="24" height="24" viewBox="0 0 24 24" fill="none" xmlns="http://www.w3.org/2000/svg">
<path opacity="0.5" d="M13 15.4005C13 13.3263 13 12.2892 13.659 11.6449C14.318 11.0005 15.3787 11.0005 17.5 11.0005C19.6213 11.0005 20.682 11.0005 21.341 11.6449C22 12.2892 22 13.3263 22 15.4005V17.6005C22 19.6747 22 20.7118 21.341 21.3561C20.682 22.0005 19.6213 22.0005 17.5 22.0005C15.3787 22.0005 14.318 22.0005 13.659 21.3561C13 20.7118 13 19.6747 13 17.6005V15.4005Z" fill="#1C274C"/>
<path d="M2 8.60049C2 10.6747 2 11.7118 2.65901 12.3561C3.31802 13.0005 4.37868 13.0005 6.5 13.0005C8.62132 13.0005 9.68198 13.0005 10.341 12.3561C11 11.7118 11 10.6747 11 8.60049V6.40049C11 4.32631 11 3.28922 10.341 2.64485C9.68198 2.00049 8.62132 2.00049 6.5 2.00049C4.37868 2.00049 3.31802 2.00049 2.65901 2.64485C2 3.28922 2 4.32631 2 6.40049V8.60049Z" fill="#1C274C"/>
<path d="M13 5.50049C13 4.41329 13 3.86969 13.1713 3.44089C13.3996 2.86916 13.8376 2.41492 14.389 2.1781C14.8024 2.00049 15.3266 2.00049 16.375 2.00049H18.625C19.6734 2.00049 20.1976 2.00049 20.611 2.1781C21.1624 2.41492 21.6004 2.86916 21.8287 3.44089C22 3.86969 22 4.41329 22 5.50049C22 6.58769 22 7.13128 21.8287 7.56008C21.6004 8.13181 21.1624 8.58605 20.611 8.82287C20.1976 9.00049 19.6734 9.00049 18.625 9.00049H16.375C15.3266 9.00049 14.8024 9.00049 14.389 8.82287C13.8376 8.58605 13.3996 8.13181 13.1713 7.56008C13 7.13128 13 6.58769 13 5.50049Z" fill="#1C274C"/>
<path opacity="0.5" d="M2 18.5005C2 19.5877 2 20.1313 2.17127 20.5601C2.39963 21.1318 2.83765 21.5861 3.38896 21.8229C3.80245 22.0005 4.32663 22.0005 5.375 22.0005H7.625C8.67337 22.0005 9.19755 22.0005 9.61104 21.8229C10.1624 21.5861 10.6004 21.1318 10.8287 20.5601C11 20.1313 11 19.5877 11 18.5005C11 17.4133 11 16.8697 10.8287 16.4409C10.6004 15.8692 10.1624 15.4149 9.61104 15.1781C9.19755 15.0005 8.67337 15.0005 7.625 15.0005H5.375C4.32663 15.0005 3.80245 15.0005 3.38896 15.1781C2.83765 15.4149 2.39963 15.8692 2.17127 16.4409C2 16.8697 2 17.4133 2 18.5005Z" fill="#1C274C"/>
</svg>
