<?xml version="1.0" encoding="UTF-8"?>
<svg id="Layer_2" data-name="Layer 2" xmlns="http://www.w3.org/2000/svg" xmlns:xlink="http://www.w3.org/1999/xlink" viewBox="0 0 1148.85 1147.74">
  <defs>
    <style>
      .cls-1 {
        fill: #f96666;
      }

      .cls-2 {
        fill: url(#linear-gradient);
      }
    </style>
    <linearGradient id="linear-gradient" x1="148.43" y1="-34.33" x2="946.03" y2="779.28" gradientTransform="translate(0 1148) scale(1 -1)" gradientUnits="userSpaceOnUse">
      <stop offset=".3" stop-color="#f96666"/>
      <stop offset=".51" stop-color="#ba4c4c"/>
      <stop offset=".87" stop-color="#8b3a3a"/>
      <stop offset="1" stop-color="#7a3333"/>
    </linearGradient>
  </defs>
  <g id="Layer_2-2" data-name="Layer 2-2">
    <g>
      <path class="cls-1" d="m959.67,382.09l.05-.04-142.44-142.44-9.53,6.27c-21.54,14.18-44.31,26.38-68.01,36.46-11.99,5.1-24.22,9.66-36.66,13.66-3.38,1.09-7,2.19-11.38,3.47-10.97,3.19-22.2,5.99-33.37,8.3-6.5,1.34-12.84,2.52-18.85,3.48-4.48.73-9.14,1.39-14.25,2.04-18.18,2.32-36.68,3.49-54.98,3.49-6.46,0-13.02-.15-19.48-.44l-1.43-.07c-4.7-.22-9.5-.53-14.27-.92-.84-.07-1.67-.14-2.5-.21-3.25-.29-6.63-.62-10.32-1.04-4.69-.52-8.81-1.03-12.59-1.56-8.05-1.14-16.17-2.51-24.13-4.1-3.29-.65-6.77-1.4-10.97-2.35-5.84-1.32-11.73-2.78-17.51-4.34-2.3-.62-4.59-1.27-6.88-1.93-10.51-3.03-21.03-6.5-31.27-10.32-2.84-1.06-5.72-2.17-8.56-3.29-2.15-.86-4.3-1.73-6.44-2.63-.98-.41-1.95-.82-2.93-1.24-2.08-.88-4.16-1.78-6.21-2.69-29.13-12.93-56.83-29.12-82.34-48.12l-7.64-5.69-38.6,35-64.53,64.53,7.23,9.7c4.83,6.48,9.47,13.11,13.93,19.87,13.08,19.82,24.54,40.74,34.18,62.46,1.34,3.01,2.66,6.08,3.93,9.14.9,2.15,1.77,4.3,2.63,6.45,1.12,2.84,2.23,5.72,3.29,8.55,3.82,10.25,7.3,20.77,10.32,31.27.66,2.29,1.3,4.58,1.93,6.89,1.12,4.14,2.07,7.86,2.91,11.31.1.4.2.8.29,1.19.75,3.16,1.51,6.57,2.4,10.73,2.48,11.75,4.5,23.72,6,35.58.15,1.17.29,2.34.43,3.51.38,3.18.72,6.49,1.07,10.14.27,2.9.52,5.86.74,8.79.3,4.06.52,7.67.68,11.04.16,3.27.28,6.3.36,9.28.59,22.14-.53,44.55-3.34,66.6-2.01,15.75-4.9,31.39-8.63,46.83-11.68,48.23-31.64,94.45-58.79,135.68l-6.19,9.41,1.91,2.11,140.47,140.48,9.58-13.6c22.76-32.28,41.26-67.42,54.99-104.43.12-.32.24-.65.36-.97,1.69-4.6,3.33-9.28,4.86-13.88,12.27-36.93,19.83-75.39,22.46-114.33.32-4.82.58-9.7.75-14.53,1.65-45.81-3.64-91.98-15.47-136.27,16.29,17.32,34.31,36.41,54.03,57.22,33.07,34.91,70.91,74.67,113.32,119.08l5.71,5.99c9.53,9.98,19.11,20,28.71,30.03l11.52,12.04c54.81,57.28,115.65,120.68,180.84,188.44l23.88,24.81c18.52,19.24,35.61,36.98,50.81,52.75l3.76,3.9c18.53,19.22,46.07,47.34,67.42,69.11H191.24c-105.64,0-191.24-85.65-191.24-191.29V191.29C0,85.65,85.6,0,191.23,0c8.24,0,16.38.54,24.35,1.56h550.76c211.28,0,382.53,171.25,382.51,382.54,0,165.7-105.26,306.78-252.59,359.95,0,0-10.68,3.38-28.01,7.58-46.19-44.33-95.86-91.88-144.44-138.24-58.17-55.52-114.8-109.3-162.05-153.74,6.78,1.81,13.59,3.48,20.43,4.98,23.65,5.19,47.91,8.54,72.11,9.95,8.95.52,18.03.79,26.99.79,5.52,0,11.12-.1,16.63-.3,4.82-.18,9.71-.43,14.53-.75,29.09-1.96,58.1-6.71,86.24-14.1,4.7-1.24,9.45-2.56,14.11-3.95,9.36-2.78,18.74-5.9,27.89-9.27,5.05-1.86,10.08-3.81,15.07-5.86,17.91-7.32,35.41-15.81,52.19-25.32,13.06-7.39,25.9-15.53,38.18-24.19l13.53-9.54h.01,0Z"/>
      <path class="cls-2" d="m219.92,822.14l1.91,2.11-1.99-1.99.08-.12Zm739.74-440.05l-13.53,9.54c-12.28,8.66-25.12,16.8-38.18,24.19-16.78,9.51-34.28,18-52.19,25.32-4.99,2.05-10.02,4-15.07,5.86-9.15,3.37-18.53,6.49-27.89,9.27-4.66,1.39-9.41,2.71-14.11,3.95-28.14,7.39-57.15,12.14-86.24,14.1-4.82.32-9.71.57-14.53.75-5.51.2-11.11.3-16.63.3-8.96,0-18.04-.27-26.99-.79-24.2-1.41-48.46-4.76-72.11-9.95-6.84-1.5-13.65-3.17-20.43-4.98,47.25,44.44,103.88,98.22,162.05,153.74l235.85-231.3h0Zm-50.15,696.54l-3.76-3.9c-15.2-15.77-32.29-33.51-50.81-52.75l-23.88-24.81c-65.19-67.76-126.03-131.16-180.84-188.44l-11.52-12.04c-9.6-10.03-19.18-20.05-28.71-30.03l-5.71-5.99c-42.41-44.41-80.25-84.17-113.32-119.08-19.72-20.81-37.74-39.9-54.03-57.22,11.83,44.29,17.12,90.46,15.47,136.27-.17,4.83-.43,9.71-.75,14.53-2.63,38.94-10.19,77.4-22.46,114.33-1.53,4.6-3.17,9.28-4.86,13.88-.12.32-.24.65-.36.97-13.73,37.01-32.23,72.15-54.99,104.43l-9.58,13.6-140.47-140.48-1.91-2.11,6.19-9.41c27.15-41.23,47.11-87.45,58.79-135.68,3.73-15.44,6.62-31.08,8.63-46.83,2.81-22.05,3.93-44.46,3.34-66.6-.08-2.98-.2-6.01-.36-9.28-.16-3.37-.38-6.98-.68-11.04-.22-2.93-.47-5.89-.74-8.79-.35-3.65-.69-6.96-1.07-10.14-.14-1.17-.28-2.34-.43-3.51-1.5-11.86-3.52-23.83-6-35.58-.89-4.16-1.65-7.57-2.4-10.73-.09-.39-.19-.79-.29-1.19-.84-3.45-1.79-7.17-2.91-11.31-.63-2.31-1.27-4.6-1.93-6.89-3.02-10.5-6.5-21.02-10.32-31.27-1.06-2.83-2.17-5.71-3.29-8.55-.86-2.15-1.73-4.3-2.63-6.45-1.27-3.06-2.59-6.13-3.93-9.14-9.64-21.72-21.1-42.64-34.18-62.46-4.46-6.76-9.1-13.39-13.93-19.87l-7.23-9.7L0,523.2v433.25c0,105.64,85.6,191.29,191.24,191.29h785.69c-21.35-21.77-48.89-49.89-67.42-69.11h0Z"/>
    </g>
  </g>
</svg>