<svg width="25" height="24" viewBox="0 0 25 24" fill="none" xmlns="http://www.w3.org/2000/svg">
<path d="M18.6699 18.8597H17.9099C17.1099 18.8597 16.3499 19.1697 15.7899 19.7297L14.0799 21.4198C13.2999 22.1898 12.0299 22.1898 11.2499 21.4198L9.53992 19.7297C8.97992 19.1697 8.20992 18.8597 7.41992 18.8597H6.66992C5.00992 18.8597 3.66992 17.5298 3.66992 15.8898V4.97974C3.66992 3.33974 5.00992 2.00977 6.66992 2.00977H18.6699C20.3299 2.00977 21.6699 3.33974 21.6699 4.97974V15.8898C21.6699 17.5198 20.3299 18.8597 18.6699 18.8597Z" stroke="#292D32" stroke-width="1.5" stroke-miterlimit="10" stroke-linecap="round" stroke-linejoin="round"/>
<path opacity="0.4" d="M7.66992 9.15979C7.66992 8.22979 8.42992 7.46973 9.35992 7.46973C10.2899 7.46973 11.0499 8.22979 11.0499 9.15979C11.0499 11.0398 8.37992 11.2398 7.78992 13.0298C7.66992 13.3998 7.97992 13.7698 8.36992 13.7698H11.0499" stroke="#292D32" stroke-width="1.5" stroke-linecap="round" stroke-linejoin="round"/>
<path opacity="0.4" d="M16.7097 13.7599V8.04991C16.7097 7.78991 16.5397 7.55985 16.2897 7.48985C16.0397 7.41985 15.7697 7.51985 15.6297 7.73985C14.9097 8.89985 14.1297 10.2199 13.4497 11.3799C13.3397 11.5699 13.3397 11.8199 13.4497 12.0099C13.5597 12.1999 13.7697 12.3198 13.9997 12.3198H17.6697" stroke="#292D32" stroke-width="1.5" stroke-linecap="round" stroke-linejoin="round"/>
</svg>
