<svg width="25" height="24" viewBox="0 0 25 24" fill="none" xmlns="http://www.w3.org/2000/svg">
<path d="M2.6709 9V7C2.6709 4 4.6709 2 7.6709 2H17.6709C20.6709 2 22.6709 4 22.6709 7V9" stroke="#292D32" stroke-width="1.5" stroke-miterlimit="10" stroke-linecap="round" stroke-linejoin="round"/>
<path d="M2.6709 15V17C2.6709 20 4.6709 22 7.6709 22H17.6709C20.6709 22 22.6709 20 22.6709 17V15" stroke="#292D32" stroke-width="1.5" stroke-miterlimit="10" stroke-linecap="round" stroke-linejoin="round"/>
<g opacity="0.4">
<path d="M7.37109 9.26025L12.6711 12.3303L17.9311 9.28027" stroke="#292D32" stroke-width="1.5" stroke-linecap="round" stroke-linejoin="round"/>
<path d="M12.6709 17.7703V12.3203" stroke="#292D32" stroke-width="1.5" stroke-linecap="round" stroke-linejoin="round"/>
<path d="M11.4311 6.29006L8.23112 8.07009C7.51112 8.47009 6.91113 9.48008 6.91113 10.3101V13.7001C6.91113 14.5301 7.50112 15.5401 8.23112 15.9401L11.4311 17.7201C12.1111 18.1001 13.2311 18.1001 13.9211 17.7201L17.1211 15.9401C17.8411 15.5401 18.4411 14.5301 18.4411 13.7001V10.3101C18.4411 9.48008 17.8511 8.47009 17.1211 8.07009L13.9211 6.29006C13.2311 5.90006 12.1111 5.90006 11.4311 6.29006Z" stroke="#292D32" stroke-width="1.5" stroke-linecap="round" stroke-linejoin="round"/>
</g>
</svg>
