<svg width="25" height="24" viewBox="0 0 25 24" fill="none" xmlns="http://www.w3.org/2000/svg">
<path d="M13.5899 2.26L20.0999 5.77C20.8599 6.18 20.8599 7.35 20.0999 7.76L13.5899 11.27C13.0099 11.58 12.3299 11.58 11.7499 11.27L5.23992 7.76C4.47992 7.35 4.47992 6.18 5.23992 5.77L11.7499 2.26C12.3299 1.95 13.0099 1.95 13.5899 2.26Z" stroke="#292D32" stroke-width="1.5" stroke-linecap="round" stroke-linejoin="round"/>
<path opacity="0.4" d="M4.27992 10.13L10.3299 13.16C11.0799 13.54 11.5599 14.31 11.5599 15.15V20.87C11.5599 21.7 10.6899 22.23 9.94992 21.86L3.89992 18.83C3.14992 18.45 2.66992 17.68 2.66992 16.84V11.12C2.66992 10.29 3.53992 9.76 4.27992 10.13Z" stroke="#292D32" stroke-width="1.5" stroke-linecap="round" stroke-linejoin="round"/>
<path opacity="0.4" d="M21.0603 10.13L15.0103 13.16C14.2603 13.54 13.7803 14.31 13.7803 15.15V20.87C13.7803 21.7 14.6503 22.23 15.3903 21.86L21.4403 18.83C22.1903 18.45 22.6703 17.68 22.6703 16.84V11.12C22.6703 10.29 21.8003 9.76 21.0603 10.13Z" stroke="#292D32" stroke-width="1.5" stroke-linecap="round" stroke-linejoin="round"/>
</svg>
