<svg width="25" height="24" viewBox="0 0 25 24" fill="none" xmlns="http://www.w3.org/2000/svg">
<g clip-path="url(#clip0_12_78604)">
<path opacity="0.4" d="M8.66992 16H6.09992C3.80992 16 2.66992 14.86 2.66992 12.57V5.43C2.66992 3.14 3.80992 2 6.09992 2H10.6699C12.9599 2 14.0999 3.14 14.0999 5.43" stroke="#292D32" stroke-width="1.5" stroke-linecap="round" stroke-linejoin="round"/>
<path d="M19.2402 22H14.6702C12.3802 22 11.2402 20.86 11.2402 18.57V11.43C11.2402 9.14 12.3802 8 14.6702 8H19.2402C21.5302 8 22.6702 9.14 22.6702 11.43V18.57C22.6702 20.86 21.5302 22 19.2402 22Z" stroke="#292D32" stroke-width="1.5" stroke-linecap="round" stroke-linejoin="round"/>
<g opacity="0.4">
<path d="M15.5391 15H18.7991" stroke="#292D32" stroke-width="1.5" stroke-linecap="round" stroke-linejoin="round"/>
<path d="M17.1699 16.6301V13.3701" stroke="#292D32" stroke-width="1.5" stroke-linecap="round" stroke-linejoin="round"/>
</g>
</g>
<defs>
<clipPath id="clip0_12_78604">
<rect width="24" height="24" fill="white" transform="translate(0.669922)"/>
</clipPath>
</defs>
</svg>
