<svg width="25" height="24" viewBox="0 0 25 24" fill="none" xmlns="http://www.w3.org/2000/svg">
<path d="M3.29004 15.75V8.25C3.29004 7.48 3.32004 6.79 3.40004 6.18C3.77004 2.89 5.32004 2 9.55004 2H15.8C20.02 2 21.58 2.89 21.94 6.18C22.03 6.79 22.05 7.48 22.05 8.25V15.75C22.05 16.52 22.02 17.21 21.94 17.83C21.57 21.11 20.02 22 15.79 22H9.55004C5.33004 22 3.77004 21.11 3.41004 17.83C3.32004 17.21 3.29004 16.52 3.29004 15.75Z" stroke="#292D32" stroke-width="1.5" stroke-linecap="round" stroke-linejoin="round"/>
<g opacity="0.4">
<path d="M21.8998 8.91992H17.7998" stroke="#292D32" stroke-width="1.5" stroke-linecap="round" stroke-linejoin="round"/>
<path d="M7.53945 8.91992H3.43945" stroke="#292D32" stroke-width="1.5" stroke-linecap="round" stroke-linejoin="round"/>
<path d="M17.8 8.92012C17.8 10.0501 16.88 10.9701 15.75 10.9701H9.59004C9.03004 10.9701 8.51004 10.7401 8.14004 10.3601C7.77004 10.0001 7.54004 9.49012 7.54004 8.92012C7.54004 7.79012 8.46004 6.87012 9.59004 6.87012H15.74C16.3 6.87012 16.82 7.10012 17.19 7.48012C17.57 7.85012 17.8 8.36012 17.8 8.92012Z" stroke="#292D32" stroke-width="1.5" stroke-linecap="round" stroke-linejoin="round"/>
</g>
</svg>
