<svg width="25" height="24" viewBox="0 0 25 24" fill="none" xmlns="http://www.w3.org/2000/svg">
<path d="M5.41992 17.4V6.6C5.41992 5.1 6.05992 4.5 7.64992 4.5H8.68992C10.2799 4.5 10.9199 5.1 10.9199 6.6V17.4C10.9199 18.9 10.2799 19.5 8.68992 19.5H7.64992C6.05992 19.5 5.41992 18.9 5.41992 17.4Z" stroke="#292D32" stroke-width="1.5" stroke-linecap="round" stroke-linejoin="round"/>
<path d="M13.9199 15.4V8.6C13.9199 7.1 14.5599 6.5 16.1499 6.5H17.1899C18.7799 6.5 19.4199 7.1 19.4199 8.6V15.4C19.4199 16.9 18.7799 17.5 17.1899 17.5H16.1499C14.5599 17.5 13.9199 16.9 13.9199 15.4Z" stroke="#292D32" stroke-width="1.5" stroke-linecap="round" stroke-linejoin="round"/>
<path opacity="0.4" d="M2.66992 12H5.06992" stroke="#292D32" stroke-width="1.5" stroke-linecap="round" stroke-linejoin="round"/>
<path opacity="0.4" d="M11.6699 12H13.6699" stroke="#292D32" stroke-width="1.5" stroke-linecap="round" stroke-linejoin="round"/>
<path opacity="0.4" d="M22.67 12H19.98" stroke="#292D32" stroke-width="1.5" stroke-linecap="round" stroke-linejoin="round"/>
</svg>
