<svg width="25" height="24" viewBox="0 0 25 24" fill="none" xmlns="http://www.w3.org/2000/svg">
<path opacity="0.4" d="M6.72977 15.58L12.3398 5.97001C12.4998 5.69001 12.8998 5.67001 13.0898 5.93001L14.6497 8.02001C15.0997 8.62001 15.1298 9.43001 14.7398 10.07L11.3997 15.42C11.0697 15.95 10.4898 16.27 9.85977 16.27H7.11978C6.76978 16.26 6.54977 15.88 6.72977 15.58Z" stroke="black" stroke-width="1.5" stroke-miterlimit="10" stroke-linecap="round" stroke-linejoin="round"/>
<path opacity="0.4" d="M15.91 12.37L13.99 15.57C13.81 15.87 14.03 16.26 14.38 16.26H18.22C18.57 16.26 18.79 15.88 18.61 15.57L16.69 12.37C16.52 12.08 16.09 12.08 15.91 12.37Z" stroke="black" stroke-width="1.5" stroke-miterlimit="10" stroke-linecap="round" stroke-linejoin="round"/>
<path d="M12.6699 22C18.1928 22 22.6699 17.5228 22.6699 12C22.6699 6.47715 18.1928 2 12.6699 2C7.14707 2 2.66992 6.47715 2.66992 12C2.66992 17.5228 7.14707 22 12.6699 22Z" stroke="black" stroke-width="1.5" stroke-miterlimit="10"/>
</svg>
