<svg width="25" height="24" viewBox="0 0 25 24" fill="none" xmlns="http://www.w3.org/2000/svg">
<path opacity="0.4" d="M16.6296 10.83H13.5696L12.8096 13.12H15.0995C15.9395 13.12 16.6296 13.8 16.6296 14.65C16.6296 15.49 15.9495 16.18 15.0995 16.18H12.8096" stroke="#292D32" stroke-width="1.5" stroke-linecap="round" stroke-linejoin="round"/>
<path opacity="0.4" d="M10.21 16.17V10.83L8.70996 12.5" stroke="#292D32" stroke-width="1.5" stroke-linecap="round" stroke-linejoin="round"/>
<path d="M10.6895 4.46997L12.6694 2" stroke="#292D32" stroke-width="1.5" stroke-linecap="round" stroke-linejoin="round"/>
<path d="M5.58026 7.79999C4.47026 9.27999 3.78027 11.11 3.78027 13.11C3.78027 18.02 7.76029 22 12.6703 22C17.5803 22 21.5603 18.02 21.5603 13.11C21.5603 8.19999 17.5803 4.21997 12.6703 4.21997C11.9903 4.21997 11.3303 4.31002 10.6903 4.46002" stroke="#292D32" stroke-width="1.5" stroke-linecap="round" stroke-linejoin="round"/>
</svg>
