<svg width="25" height="24" viewBox="0 0 25 24" fill="none" xmlns="http://www.w3.org/2000/svg">
<path opacity="0.4" d="M10.21 15.92V10.58L8.70996 12.25" stroke="#292D32" stroke-width="1.5" stroke-linecap="round" stroke-linejoin="round"/>
<path d="M10.6895 4.46997L12.6695 2" stroke="#292D32" stroke-width="1.5" stroke-linecap="round" stroke-linejoin="round"/>
<path d="M5.58029 7.79999C4.47029 9.27999 3.78027 11.11 3.78027 13.11C3.78027 18.02 7.76029 22 12.6703 22C17.5803 22 21.5603 18.02 21.5603 13.11C21.5603 8.19999 17.5803 4.21997 12.6703 4.21997C11.9903 4.21997 11.3303 4.31002 10.6903 4.46002" stroke="#292D32" stroke-width="1.5" stroke-linecap="round" stroke-linejoin="round"/>
<path opacity="0.4" d="M14.6699 10.58C15.7699 10.58 16.6699 11.48 16.6699 12.58V13.93C16.6699 15.03 15.7699 15.93 14.6699 15.93C13.5699 15.93 12.6699 15.03 12.6699 13.93V12.58C12.6699 11.47 13.5699 10.58 14.6699 10.58Z" stroke="#292D32" stroke-width="1.5" stroke-linecap="round" stroke-linejoin="round"/>
</svg>
