<svg width="25" height="24" viewBox="0 0 25 24" fill="none" xmlns="http://www.w3.org/2000/svg">
<g opacity="0.4">
<path d="M10.2891 16L11.7891 17.5L15.0391 14.5" stroke="#292D32" stroke-width="1.5" stroke-linecap="round" stroke-linejoin="round"/>
<path d="M9.47938 2L5.85938 5.63" stroke="#292D32" stroke-width="1.5" stroke-miterlimit="10" stroke-linecap="round" stroke-linejoin="round"/>
<path d="M15.8594 2L19.4794 5.63" stroke="#292D32" stroke-width="1.5" stroke-miterlimit="10" stroke-linecap="round" stroke-linejoin="round"/>
</g>
<path d="M2.66992 7.8501C2.66992 6.0001 3.65992 5.8501 4.88992 5.8501H20.4499C21.6799 5.8501 22.6699 6.0001 22.6699 7.8501C22.6699 10.0001 21.6799 9.8501 20.4499 9.8501H4.88992C3.65992 9.8501 2.66992 10.0001 2.66992 7.8501Z" stroke="#292D32" stroke-width="1.5"/>
<path d="M4.16992 10L5.57992 18.64C5.89992 20.58 6.66992 22 9.52992 22H15.5599C18.6699 22 19.1299 20.64 19.4899 18.76L21.1699 10" stroke="#292D32" stroke-width="1.5" stroke-linecap="round"/>
</svg>
