<svg width="25" height="24" viewBox="0 0 25 24" fill="none" xmlns="http://www.w3.org/2000/svg">
<path opacity="0.4" d="M12.6699 19C14.8791 19 16.6699 17.2091 16.6699 15C16.6699 12.7909 14.8791 11 12.6699 11C10.4608 11 8.66992 12.7909 8.66992 15C8.66992 17.2091 10.4608 19 12.6699 19Z" stroke="#292D32" stroke-width="1.5" stroke-miterlimit="10" stroke-linecap="round" stroke-linejoin="round"/>
<path opacity="0.4" d="M11.1104 15L11.7604 15.65C11.9504 15.84 12.2604 15.85 12.4504 15.66L14.2304 14.02" stroke="#292D32" stroke-width="1.5" stroke-linecap="round" stroke-linejoin="round"/>
<path d="M9.66975 22H15.6697C19.6897 22 20.4097 20.39 20.6197 18.43L21.3697 12.43C21.6397 9.99 20.9397 8 16.6697 8H8.66975C4.39975 8 3.69975 9.99 3.96975 12.43L4.71975 18.43C4.92975 20.39 5.64975 22 9.66975 22Z" stroke="#292D32" stroke-width="1.5" stroke-miterlimit="10" stroke-linecap="round" stroke-linejoin="round"/>
<path opacity="0.4" d="M8.16992 7.67001V6.70001C8.16992 4.45001 9.97992 2.24001 12.2299 2.03001C14.9099 1.77001 17.1699 3.88001 17.1699 6.51001V7.89001" stroke="#292D32" stroke-width="1.5" stroke-miterlimit="10" stroke-linecap="round" stroke-linejoin="round"/>
</svg>
