<svg width="25" height="24" viewBox="0 0 25 24" fill="none" xmlns="http://www.w3.org/2000/svg">
<path d="M2.66992 12H9.66992C11.3299 12 12.6699 13.34 12.6699 15C12.6699 16.66 11.3299 18 9.66992 18H3.66992C3.11992 18 2.66992 17.55 2.66992 17V7C2.66992 6.45 3.11992 6 3.66992 6H8.66992C10.3299 6 11.6699 7.34 11.6699 9C11.6699 10.66 10.3299 12 8.66992 12H2.66992Z" stroke="black" stroke-width="1.5" stroke-miterlimit="10"/>
<path opacity="0.4" d="M14.6699 14H22.6699C22.6699 11.79 20.8799 10 18.6699 10C16.4599 10 14.6699 11.79 14.6699 14ZM14.6699 14C14.6699 16.21 16.4599 18 18.6699 18H20.3399" stroke="black" stroke-width="1.5" stroke-miterlimit="10" stroke-linecap="round" stroke-linejoin="round"/>
<path opacity="0.4" d="M20.1699 7.5H17.1699" stroke="black" stroke-width="1.5" stroke-miterlimit="10" stroke-linecap="round" stroke-linejoin="round"/>
</svg>
