<svg width="25" height="24" viewBox="0 0 25 24" fill="none" xmlns="http://www.w3.org/2000/svg">
<path d="M3.66992 9C4.77449 9 5.66992 8.10457 5.66992 7C5.66992 5.89543 4.77449 5 3.66992 5C2.56535 5 1.66992 5.89543 1.66992 7C1.66992 8.10457 2.56535 9 3.66992 9Z" stroke="#292D32" stroke-width="1.5" stroke-miterlimit="10" stroke-linecap="round" stroke-linejoin="round"/>
<path d="M21.6699 9C22.7745 9 23.6699 8.10457 23.6699 7C23.6699 5.89543 22.7745 5 21.6699 5C20.5654 5 19.6699 5.89543 19.6699 7C19.6699 8.10457 20.5654 9 21.6699 9Z" stroke="#292D32" stroke-width="1.5" stroke-miterlimit="10" stroke-linecap="round" stroke-linejoin="round"/>
<path d="M19.6699 7H15.6699" stroke="#292D32" stroke-width="1.5" stroke-miterlimit="10" stroke-linecap="round" stroke-linejoin="round"/>
<path d="M9.66992 7H5.66992" stroke="#292D32" stroke-width="1.5" stroke-miterlimit="10" stroke-linecap="round" stroke-linejoin="round"/>
<path d="M8.16992 16.5V18.5C8.16992 19.11 7.79992 19.64 7.27992 19.86C7.08992 19.95 6.88992 20 6.66992 20H4.66992C3.83992 20 3.16992 19.33 3.16992 18.5V16.5C3.16992 15.67 3.83992 15 4.66992 15H6.66992C7.49992 15 8.16992 15.67 8.16992 16.5Z" stroke="#292D32" stroke-width="1.5" stroke-miterlimit="10" stroke-linecap="round" stroke-linejoin="round"/>
<path d="M22.1699 16.5V18.5C22.1699 19.33 21.4999 20 20.6699 20H18.6699C18.4499 20 18.2499 19.95 18.0599 19.86C17.5399 19.64 17.1699 19.11 17.1699 18.5V16.5C17.1699 15.67 17.8399 15 18.6699 15H20.6699C21.4999 15 22.1699 15.67 22.1699 16.5Z" stroke="#292D32" stroke-width="1.5" stroke-miterlimit="10" stroke-linecap="round" stroke-linejoin="round"/>
<path d="M15.6699 5.5V8.5C15.6699 9.32 14.9899 10 14.1699 10H11.1699C10.3499 10 9.66992 9.32 9.66992 8.5V5.5C9.66992 4.68 10.3499 4 11.1699 4H14.1699C14.9899 4 15.6699 4.68 15.6699 5.5Z" stroke="#292D32" stroke-width="1.5" stroke-miterlimit="10" stroke-linecap="round" stroke-linejoin="round"/>
<path opacity="0.4" d="M15.6699 7.72998C18.0399 8.92998 19.6699 11.51 19.6699 14.5C19.6699 14.67 19.6599 14.83 19.6399 15" stroke="#292D32" stroke-width="1.5" stroke-miterlimit="10" stroke-linecap="round" stroke-linejoin="round"/>
<path opacity="0.4" d="M5.69992 15C5.67992 14.83 5.66992 14.67 5.66992 14.5C5.66992 11.51 7.29992 8.92998 9.66992 7.72998" stroke="#292D32" stroke-width="1.5" stroke-miterlimit="10" stroke-linecap="round" stroke-linejoin="round"/>
</svg>
