<svg width="25" height="24" viewBox="0 0 25 24" fill="none" xmlns="http://www.w3.org/2000/svg">
<path d="M12.07 2.35L6.92002 7.5C6.72002 7.7 6.72002 8.01 6.92002 8.21L8.65003 9.94C8.85003 10.14 9.16002 10.14 9.36002 9.94L14.51 4.79C14.71 4.59 14.71 4.28 14.51 4.08L12.78 2.35C12.58 2.16 12.27 2.16 12.07 2.35Z" stroke="black" stroke-width="1.5" stroke-miterlimit="10" stroke-linecap="round" stroke-linejoin="round"/>
<path opacity="0.4" d="M15.97 6.26L6.92002 15.31C6.72002 15.51 6.72002 15.82 6.92002 16.02L8.65003 17.75C8.85003 17.95 9.16002 17.95 9.36002 17.75L18.41 8.7C18.61 8.5 18.61 8.19 18.41 7.99L16.68 6.26C16.49 6.06 16.17 6.06 15.97 6.26Z" stroke="black" stroke-width="1.5" stroke-miterlimit="10" stroke-linecap="round" stroke-linejoin="round"/>
<path d="M19.8797 10.16L10.8297 19.21C10.6297 19.41 10.6297 19.72 10.8297 19.92L12.5597 21.65C12.7597 21.85 13.0697 21.85 13.2697 21.65L22.3197 12.6C22.5197 12.4 22.5197 12.09 22.3197 11.89L20.5897 10.16C20.3897 9.95999 20.0697 9.95999 19.8797 10.16Z" stroke="black" stroke-width="1.5" stroke-miterlimit="10" stroke-linecap="round" stroke-linejoin="round"/>
<path opacity="0.4" d="M4.75989 13.84L3.02988 12.11C2.82988 11.91 2.82988 11.6 3.02988 11.4L4.75989 9.67C4.95989 9.47 5.26989 9.47 5.46989 9.67L7.1999 11.4C7.3999 11.6 7.3999 11.91 7.1999 12.11L5.46989 13.84C5.26989 14.04 4.94989 14.04 4.75989 13.84Z" stroke="black" stroke-width="1.5" stroke-miterlimit="10" stroke-linecap="round" stroke-linejoin="round"/>
</svg>
