<svg width="25" height="24" viewBox="0 0 25 24" fill="none" xmlns="http://www.w3.org/2000/svg">
<path d="M12.6699 2L6.66992 8L8.66992 10L12.6699 6L16.6699 10L18.6699 8L12.6699 2Z" stroke="black" stroke-width="1.5" stroke-miterlimit="10" stroke-linecap="round" stroke-linejoin="round"/>
<path d="M12.6699 22L6.66992 16L8.66992 14L12.6699 18L16.6699 14L18.6699 16L12.6699 22Z" stroke="black" stroke-width="1.5" stroke-miterlimit="10" stroke-linecap="round" stroke-linejoin="round"/>
<path opacity="0.4" d="M20.419 9.7523L18.1704 12.0009L20.419 14.2494L22.6676 12.0009L20.419 9.7523Z" stroke="black" stroke-width="1.5" stroke-miterlimit="10" stroke-linecap="round" stroke-linejoin="round"/>
<path opacity="0.4" d="M4.91898 9.75225L2.67041 12.0008L4.91899 14.2494L7.16756 12.0008L4.91898 9.75225Z" stroke="black" stroke-width="1.5" stroke-miterlimit="10" stroke-linecap="round" stroke-linejoin="round"/>
<path opacity="0.4" d="M12.6687 9.52605L10.1938 12.0009L12.6687 14.4758L15.1435 12.0009L12.6687 9.52605Z" stroke="black" stroke-width="1.5" stroke-miterlimit="10" stroke-linecap="round" stroke-linejoin="round"/>
</svg>
