<svg width="25" height="24" viewBox="0 0 25 24" fill="none" xmlns="http://www.w3.org/2000/svg">
<path opacity="0.4" d="M23.6699 15.97C23.6699 19.84 20.5399 22.97 16.6699 22.97L17.7199 21.22" stroke="#292D32" stroke-width="1.5" stroke-linecap="round" stroke-linejoin="round"/>
<path opacity="0.4" d="M1.66992 7.96997C1.66992 4.09997 4.79992 0.969971 8.66992 0.969971L7.61992 2.71997" stroke="#292D32" stroke-width="1.5" stroke-linecap="round" stroke-linejoin="round"/>
<path d="M7.29004 13.0698H10.1C10.72 13.0698 11.23 13.6298 11.23 14.1998C11.23 14.8198 10.73 15.3298 10.1 15.3298H7.29004V13.0698Z" stroke="#292D32" stroke-width="1.5" stroke-miterlimit="10" stroke-linecap="round" stroke-linejoin="round"/>
<path d="M7.29004 15.3301H10.51C11.22 15.3301 11.8 15.8301 11.8 16.4601C11.8 17.0801 11.22 17.5901 10.51 17.5901H7.29004V15.3301Z" stroke="#292D32" stroke-width="1.5" stroke-miterlimit="10" stroke-linecap="round" stroke-linejoin="round"/>
<path d="M9.09009 17.5801V18.7001" stroke="#292D32" stroke-width="1.5" stroke-miterlimit="10" stroke-linecap="round" stroke-linejoin="round"/>
<path d="M9.09009 11.95V13.0699" stroke="#292D32" stroke-width="1.5" stroke-miterlimit="10" stroke-linecap="round" stroke-linejoin="round"/>
<path d="M15.5199 15.33C15.5199 18.74 12.7599 21.4999 9.34993 21.4999C5.93993 21.4999 3.17993 18.74 3.17993 15.33C3.17993 11.92 5.93993 9.15991 9.34993 9.15991C9.50993 9.15991 9.65993 9.16993 9.82993 9.17993C12.8599 9.40993 15.2799 11.8299 15.5099 14.8599C15.5099 15.0099 15.5199 15.16 15.5199 15.33Z" stroke="#292D32" stroke-width="1.5" stroke-miterlimit="10" stroke-linecap="round" stroke-linejoin="round"/>
<path d="M22.1698 8.66998C22.1698 12.08 19.4098 14.84 15.9998 14.84H15.5098C15.2798 11.81 12.8598 9.38997 9.82983 9.15997V8.66998C9.82983 5.25998 12.5898 2.5 15.9998 2.5C19.4098 2.5 22.1698 5.25998 22.1698 8.66998Z" stroke="#292D32" stroke-width="1.5" stroke-miterlimit="10" stroke-linecap="round" stroke-linejoin="round"/>
</svg>
