<svg width="25" height="24" viewBox="0 0 25 24" fill="none" xmlns="http://www.w3.org/2000/svg">
<path opacity="0.4" d="M9.25977 15.5599L15.8798 9.4899C16.1598 9.2399 16.1498 8.83992 15.8598 8.59992L13.7998 6.87992C13.2598 6.42992 12.8298 6.63991 12.8298 7.33991V16.6699C12.8298 17.3699 13.2698 17.5699 13.7998 17.1299L15.8598 15.4099C16.1498 15.1699 16.1598 14.7699 15.8798 14.5199L9.25977 8.44992" stroke="#292D32" stroke-width="1.5" stroke-miterlimit="10" stroke-linecap="round" stroke-linejoin="round"/>
<path d="M12.6699 22C18.1928 22 22.6699 17.5228 22.6699 12C22.6699 6.47715 18.1928 2 12.6699 2C7.14707 2 2.66992 6.47715 2.66992 12C2.66992 17.5228 7.14707 22 12.6699 22Z" stroke="#292D32" stroke-width="1.5" stroke-miterlimit="10" stroke-linecap="round" stroke-linejoin="round"/>
</svg>
