<svg width="25" height="24" viewBox="0 0 25 24" fill="none" xmlns="http://www.w3.org/2000/svg">
<path d="M9.66992 22H15.6699C20.6699 22 22.6699 20 22.6699 15V9C22.6699 4 20.6699 2 15.6699 2H9.66992C4.66992 2 2.66992 4 2.66992 9V15C2.66992 20 4.66992 22 9.66992 22Z" stroke="#292D32" stroke-width="1.5" stroke-linecap="round" stroke-linejoin="round"/>
<g opacity="0.4">
<path d="M19.05 15.2702V7.58023C19.05 6.81023 18.43 6.25024 17.67 6.31024H17.6301C16.2901 6.42024 14.2601 7.11025 13.1201 7.82025L13.0101 7.89026C12.8301 8.00026 12.52 8.00026 12.33 7.89026L12.17 7.79025C11.04 7.08025 9.01004 6.41023 7.67004 6.30023C6.91004 6.24023 6.29004 6.81025 6.29004 7.57025V15.2702C6.29004 15.8802 6.79002 16.4602 7.40002 16.5302L7.58002 16.5602C8.96002 16.7402 11.1001 17.4502 12.3201 18.1202L12.35 18.1302C12.52 18.2302 12.8 18.2302 12.96 18.1302C14.18 17.4502 16.33 16.7502 17.72 16.5602L17.9301 16.5302C18.5501 16.4602 19.05 15.8902 19.05 15.2702Z" stroke="#292D32" stroke-width="1.5" stroke-linecap="round" stroke-linejoin="round"/>
<path d="M12.6699 8.1001V17.6601" stroke="#292D32" stroke-width="1.5" stroke-linecap="round" stroke-linejoin="round"/>
</g>
</svg>
