<svg width="25" height="24" viewBox="0 0 25 24" fill="none" xmlns="http://www.w3.org/2000/svg">
<path d="M14.6699 2C16.6699 2 17.6699 3.01 17.6699 5.03V12.08C17.6699 14.07 16.2599 14.84 14.5299 13.8L13.2099 13C12.9099 12.82 12.4299 12.82 12.1299 13L10.8099 13.8C9.07992 14.84 7.66992 14.07 7.66992 12.08V5.03C7.66992 3.01 8.66992 2 10.6699 2H14.6699Z" stroke="#292D32" stroke-width="1.5" stroke-linecap="round" stroke-linejoin="round"/>
<path opacity="0.4" d="M7.48992 4.98996C4.07992 5.55996 2.66992 7.65996 2.66992 11.9V14.93C2.66992 19.98 4.66992 22 9.66992 22H15.6699C20.6699 22 22.6699 19.98 22.6699 14.93V11.9C22.6699 7.58996 21.2099 5.47996 17.6699 4.95996" stroke="#292D32" stroke-width="1.5" stroke-linecap="round" stroke-linejoin="round"/>
</svg>
