<svg width="25" height="24" viewBox="0 0 25 24" fill="none" xmlns="http://www.w3.org/2000/svg">
<path d="M17.6699 3H7.66992C6.00992 3 4.66992 4.34 4.66992 6V6.84C4.66992 7.61 4.54993 8.37001 4.29993 9.10001C3.91993 10.23 2.85992 11 1.66992 11V13C2.85992 13 3.91993 13.76 4.29993 14.9C4.53993 15.63 4.66992 16.4 4.66992 17.16V18C4.66992 19.66 6.00992 21 7.66992 21H17.6699C19.3299 21 20.6699 19.66 20.6699 18V17.16C20.6699 16.39 20.7899 15.63 21.0399 14.9C21.4199 13.77 22.4799 13 23.6699 13V11C22.4799 11 21.4199 10.24 21.0399 9.10001C20.7999 8.37001 20.6699 7.6 20.6699 6.84V6C20.6699 4.34 19.3299 3 17.6699 3Z" stroke="black" stroke-width="1.5" stroke-miterlimit="10" stroke-linejoin="round"/>
<path opacity="0.4" d="M10.4199 12H13.3399C14.4899 12 15.4199 12.93 15.4199 14.08C15.4199 15.23 14.4899 16.16 13.3399 16.16H10.4199V7.82999H13.3399C14.4899 7.82999 15.4199 8.76 15.4199 9.91C15.4199 11.06 14.4899 11.99 13.3399 11.99H10.4199" stroke="black" stroke-width="1.5" stroke-miterlimit="10" stroke-linecap="round" stroke-linejoin="round"/>
</svg>
