<svg width="25" height="24" viewBox="0 0 25 24" fill="none" xmlns="http://www.w3.org/2000/svg">
<path opacity="0.4" d="M11.1099 14.3001L11.7599 14.9501C11.9499 15.1401 12.2599 15.1401 12.4499 14.9601L14.2299 13.3201" stroke="#292D32" stroke-width="1.5" stroke-linecap="round" stroke-linejoin="round"/>
<path d="M8.66975 22H16.6697C20.6897 22 21.4097 20.39 21.6197 18.43L22.3697 10.43C22.6397 7.99 21.9397 6 17.6697 6H7.66975C3.39975 6 2.69975 7.99 2.96975 10.43L3.71975 18.43C3.92975 20.39 4.64975 22 8.66975 22Z" stroke="#292D32" stroke-width="1.5" stroke-miterlimit="10" stroke-linecap="round" stroke-linejoin="round"/>
<path opacity="0.4" d="M8.66992 6V5.2C8.66992 3.43 8.66992 2 11.8699 2H13.4699C16.6699 2 16.6699 3.43 16.6699 5.2V6" stroke="#292D32" stroke-width="1.5" stroke-miterlimit="10" stroke-linecap="round" stroke-linejoin="round"/>
<g opacity="0.4">
<path d="M12.6699 18.2002C14.8791 18.2002 16.6699 16.4093 16.6699 14.2002C16.6699 11.9911 14.8791 10.2002 12.6699 10.2002C10.4608 10.2002 8.66992 11.9911 8.66992 14.2002C8.66992 16.4093 10.4608 18.2002 12.6699 18.2002Z" stroke="#292D32" stroke-width="1.5" stroke-miterlimit="10" stroke-linecap="round" stroke-linejoin="round"/>
<path d="M22.3197 11C20.5897 12.26 18.6697 13.14 16.6797 13.64" stroke="#292D32" stroke-width="1.5" stroke-miterlimit="10" stroke-linecap="round" stroke-linejoin="round"/>
<path d="M3.28906 11.2695C4.95906 12.4095 6.77906 13.2195 8.66906 13.6795" stroke="#292D32" stroke-width="1.5" stroke-miterlimit="10" stroke-linecap="round" stroke-linejoin="round"/>
</g>
</svg>
