<svg width="25" height="24" viewBox="0 0 25 24" fill="none" xmlns="http://www.w3.org/2000/svg">
<path opacity="0.4" d="M10.5402 5.66998L7.12023 7.74999L5.56023 5.19C4.99023 4.25 5.29023 3.01 6.23023 2.44C7.17023 1.87 8.41023 2.16998 8.98023 3.10998L10.5402 5.66998Z" stroke="#292D32" stroke-width="1.5" stroke-linecap="round" stroke-linejoin="round"/>
<path d="M12.49 9.15997L9.33004 11.08C7.49004 12.2 6.93003 14.46 7.82003 16.26L9.87003 20.44C10.53 21.79 12.13 22.26 13.41 21.47L19.84 17.56C21.13 16.78 21.44 15.15 20.55 13.94L17.78 10.2C16.58 8.58001 14.33 8.03997 12.49 9.15997Z" stroke="#292D32" stroke-width="1.5" stroke-linecap="round" stroke-linejoin="round"/>
<path d="M11.4264 5.09797L6.30176 8.21857L8.38216 11.635L13.5068 8.51437L11.4264 5.09797Z" stroke="#292D32" stroke-width="1.5" stroke-linecap="round" stroke-linejoin="round"/>
<path opacity="0.4" d="M14.9795 16.81L16.6295 19.52" stroke="#292D32" stroke-width="1.5" stroke-linecap="round" stroke-linejoin="round"/>
<path opacity="0.4" d="M12.4199 18.37L14.0699 21.08" stroke="#292D32" stroke-width="1.5" stroke-linecap="round" stroke-linejoin="round"/>
<path opacity="0.4" d="M17.54 15.25L19.19 17.96" stroke="#292D32" stroke-width="1.5" stroke-linecap="round" stroke-linejoin="round"/>
</svg>
