<svg width="25" height="24" viewBox="0 0 25 24" fill="none" xmlns="http://www.w3.org/2000/svg">
<path d="M22.4795 3.94012C20.9395 7.78012 17.0795 13.0001 13.8495 15.5901L11.8795 17.1701C11.6295 17.3501 11.3795 17.5101 11.0995 17.6201C11.0995 17.4401 11.0895 17.2401 11.0595 17.0501C10.9495 16.2101 10.5695 15.4301 9.89945 14.7601C9.21945 14.0801 8.38945 13.6801 7.53945 13.5701C7.33945 13.5601 7.13945 13.5401 6.93945 13.5601C7.04945 13.2501 7.21945 12.9601 7.42945 12.7201L8.98945 10.7501C11.5695 7.52012 16.8095 3.64012 20.6395 2.11012C21.2295 1.89012 21.7995 2.05012 22.1595 2.42012C22.5395 2.79012 22.7195 3.36012 22.4795 3.94012Z" stroke="#292D32" stroke-width="1.5" stroke-linecap="round" stroke-linejoin="round"/>
<path d="M11.1002 17.6201C11.1002 18.7201 10.6802 19.77 9.8902 20.57C9.2802 21.18 8.4502 21.6001 7.4602 21.7301L5.0002 22.0001C3.6602 22.1501 2.5102 21.01 2.6702 19.65L2.9402 17.1901C3.1802 15.0001 5.0102 13.6001 6.9502 13.5601C7.1502 13.5501 7.3602 13.56 7.5502 13.57C8.4002 13.68 9.2302 14.0701 9.9102 14.7601C10.5802 15.4301 10.9602 16.21 11.0702 17.05C11.0802 17.24 11.1002 17.4301 11.1002 17.6201Z" stroke="#292D32" stroke-width="1.5" stroke-linecap="round" stroke-linejoin="round"/>
<path opacity="0.4" d="M14.9097 14.47C14.9097 11.86 12.7897 9.73999 10.1797 9.73999" stroke="#292D32" stroke-width="1.5" stroke-linecap="round" stroke-linejoin="round"/>
</svg>
