<svg width="25" height="24" viewBox="0 0 25 24" fill="none" xmlns="http://www.w3.org/2000/svg">
<path d="M16.2599 12.26C19.0931 12.26 21.3899 9.96323 21.3899 7.13C21.3899 4.29678 19.0931 2 16.2599 2C13.4267 2 11.1299 4.29678 11.1299 7.13C11.1299 9.96323 13.4267 12.26 16.2599 12.26Z" stroke="#292D32" stroke-width="1.5" stroke-miterlimit="10"/>
<path opacity="0.4" d="M7.03018 19.44C8.73122 19.44 10.1102 18.0611 10.1102 16.36C10.1102 14.659 8.73122 13.28 7.03018 13.28C5.32914 13.28 3.9502 14.659 3.9502 16.36C3.9502 18.0611 5.32914 19.44 7.03018 19.44Z" stroke="#292D32" stroke-width="1.5" stroke-miterlimit="10"/>
<path opacity="0.4" d="M17.2895 22C18.7033 22 19.8495 20.8539 19.8495 19.44C19.8495 18.0262 18.7033 16.88 17.2895 16.88C15.8756 16.88 14.7295 18.0262 14.7295 19.44C14.7295 20.8539 15.8756 22 17.2895 22Z" stroke="#292D32" stroke-width="1.5" stroke-miterlimit="10"/>
</svg>
