<svg width="25" height="24" viewBox="0 0 25 24" fill="none" xmlns="http://www.w3.org/2000/svg">
<path d="M7.68004 18.0001L3.67004 13.9901C2.33004 12.6501 2.33004 11.32 3.67004 9.98004L10.35 3.30005L17.7 10.6501C18.07 11.0201 18.07 11.6201 17.7 11.9901L11.68 18.0101C10.36 19.3301 9.02004 19.3301 7.68004 18.0001Z" stroke="#292D32" stroke-width="1.5" stroke-miterlimit="10" stroke-linecap="round" stroke-linejoin="round"/>
<path d="M9.01953 1.94995L10.3595 3.28992" stroke="#292D32" stroke-width="1.5" stroke-miterlimit="10" stroke-linecap="round" stroke-linejoin="round"/>
<path opacity="0.4" d="M2.74023 11.92L17.8602 11.26" stroke="#292D32" stroke-width="1.5" stroke-miterlimit="10" stroke-linecap="round" stroke-linejoin="round"/>
<path d="M3.66992 22H16.6699" stroke="#292D32" stroke-width="1.5" stroke-miterlimit="10" stroke-linecap="round" stroke-linejoin="round"/>
<path opacity="0.4" d="M19.5199 15C19.5199 15 17.6699 17.01 17.6699 18.24C17.6699 19.26 18.4999 20.09 19.5199 20.09C20.5399 20.09 21.3699 19.26 21.3699 18.24C21.3699 17.01 19.5199 15 19.5199 15Z" stroke="#292D32" stroke-width="1.5" stroke-linecap="round" stroke-linejoin="round"/>
</svg>
