<svg width="25" height="24" viewBox="0 0 25 24" fill="none" xmlns="http://www.w3.org/2000/svg">
<g opacity="0.4">
<path d="M9.60924 16.9301L6.77922 14.1C5.83922 13.16 5.83922 12.2101 6.77922 11.2701L11.4992 6.55005L16.6892 11.7401C16.9492 12.0001 16.9492 12.4201 16.6892 12.6801L12.4392 16.9301C11.4992 17.8701 10.5492 17.8701 9.60924 16.9301Z" stroke="#292D32" stroke-width="1.5" stroke-miterlimit="10" stroke-linecap="round" stroke-linejoin="round"/>
<path d="M10.5488 5.6001L11.4988 6.5401" stroke="#292D32" stroke-width="1.5" stroke-miterlimit="10" stroke-linecap="round" stroke-linejoin="round"/>
<path d="M6.10938 12.6401L16.7994 12.1702" stroke="#292D32" stroke-width="1.5" stroke-miterlimit="10" stroke-linecap="round" stroke-linejoin="round"/>
<path d="M17.9702 14.8101C17.9702 14.8101 16.6602 16.23 16.6602 17.1C16.6602 17.82 17.2502 18.41 17.9702 18.41C18.6902 18.41 19.2802 17.82 19.2802 17.1C19.2702 16.23 17.9702 14.8101 17.9702 14.8101Z" stroke="#292D32" stroke-width="1.5" stroke-linecap="round" stroke-linejoin="round"/>
</g>
<path d="M22.6699 15V9C22.6699 4 20.6699 2 15.6699 2H9.66992C4.66992 2 2.66992 4 2.66992 9V15C2.66992 20 4.66992 22 9.66992 22H15.6699C20.6699 22 22.6699 20 22.6699 15Z" stroke="#292D32" stroke-width="1.5" stroke-linecap="round" stroke-linejoin="round"/>
</svg>
