<svg width="25" height="24" viewBox="0 0 25 24" fill="none" xmlns="http://www.w3.org/2000/svg">
<path d="M13.6699 22H5.66992C3.66992 22 2.66992 21 2.66992 19V11C2.66992 9 3.66992 8 5.66992 8H10.6699V19C10.6699 21 11.6699 22 13.6699 22Z" stroke="#292D32" stroke-width="1.5" stroke-miterlimit="10" stroke-linecap="round" stroke-linejoin="round"/>
<path opacity="0.4" d="M10.7799 4C10.6999 4.3 10.6699 4.63 10.6699 5V8H5.66992V6C5.66992 4.9 6.56992 4 7.66992 4H10.7799Z" stroke="#292D32" stroke-width="1.5" stroke-miterlimit="10" stroke-linecap="round" stroke-linejoin="round"/>
<path opacity="0.4" d="M14.6699 8V13" stroke="#292D32" stroke-width="1.5" stroke-miterlimit="10" stroke-linecap="round" stroke-linejoin="round"/>
<path opacity="0.4" d="M18.6699 8V13" stroke="#292D32" stroke-width="1.5" stroke-miterlimit="10" stroke-linecap="round" stroke-linejoin="round"/>
<path d="M17.6699 17H15.6699C15.1199 17 14.6699 17.45 14.6699 18V22H18.6699V18C18.6699 17.45 18.2199 17 17.6699 17Z" stroke="#292D32" stroke-width="1.5" stroke-miterlimit="10" stroke-linecap="round" stroke-linejoin="round"/>
<path opacity="0.4" d="M6.66992 13V17" stroke="#292D32" stroke-width="1.5" stroke-miterlimit="10" stroke-linecap="round" stroke-linejoin="round"/>
<path d="M10.6699 19V5C10.6699 3 11.6699 2 13.6699 2H19.6699C21.6699 2 22.6699 3 22.6699 5V19C22.6699 21 21.6699 22 19.6699 22H13.6699C11.6699 22 10.6699 21 10.6699 19Z" stroke="#292D32" stroke-width="1.5" stroke-miterlimit="10" stroke-linecap="round" stroke-linejoin="round"/>
</svg>
