<svg width="25" height="24" viewBox="0 0 25 24" fill="none" xmlns="http://www.w3.org/2000/svg">
<path opacity="0.4" d="M7.36993 18H4.81995C3.38995 18 2.66992 17.28 2.66992 15.85V4.15002C2.66992 2.72002 3.38995 2 4.81995 2H9.11993C10.5499 2 11.2699 2.72002 11.2699 4.15002V6" stroke="#292D32" stroke-width="1.5" stroke-miterlimit="10" stroke-linecap="round" stroke-linejoin="round"/>
<path d="M18.0401 8.41998V19.58C18.0401 21.19 17.2401 22 15.6301 22H9.7901C8.1801 22 7.37012 21.19 7.37012 19.58V8.41998C7.37012 6.80998 8.1801 6 9.7901 6H15.6301C17.2401 6 18.0401 6.80998 18.0401 8.41998Z" stroke="#292D32" stroke-width="1.5" stroke-miterlimit="10" stroke-linecap="round" stroke-linejoin="round"/>
<path opacity="0.4" d="M14.0698 6V4.15002C14.0698 2.72002 14.7898 2 16.2198 2H20.5198C21.9498 2 22.6698 2.72002 22.6698 4.15002V15.85C22.6698 17.28 21.9498 18 20.5198 18H18.0398" stroke="#292D32" stroke-width="1.5" stroke-miterlimit="10" stroke-linecap="round" stroke-linejoin="round"/>
<path opacity="0.4" d="M10.6699 11H14.6699" stroke="#292D32" stroke-width="1.5" stroke-miterlimit="10" stroke-linecap="round" stroke-linejoin="round"/>
<path opacity="0.4" d="M10.6699 14H14.6699" stroke="#292D32" stroke-width="1.5" stroke-miterlimit="10" stroke-linecap="round" stroke-linejoin="round"/>
<path d="M12.6699 22V19" stroke="#292D32" stroke-width="1.5" stroke-miterlimit="10" stroke-linecap="round" stroke-linejoin="round"/>
</svg>
