<svg width="25" height="24" viewBox="0 0 25 24" fill="none" xmlns="http://www.w3.org/2000/svg">
<path d="M2.66992 22H22.6699" stroke="#292D32" stroke-width="1.5" stroke-linecap="round" stroke-linejoin="round"/>
<path d="M3.78027 22V13C3.78027 11.34 5.27027 10 7.11027 10H18.2203C20.0603 10 21.5503 11.34 21.5503 13V22" stroke="#292D32" stroke-width="1.5" stroke-linecap="round" stroke-linejoin="round"/>
<path d="M6.22949 10V7.17C6.22949 5.97 7.30949 5 8.64949 5H16.6995C18.0295 5 19.1095 5.97 19.1095 7.17V10" stroke="#292D32" stroke-width="1.5" stroke-linecap="round" stroke-linejoin="round"/>
<path opacity="0.34" d="M4.2002 13.98L4.5702 13.99C5.3102 14 5.9002 14.6 5.9002 15.34V15.67C5.9002 16.41 6.5002 17.02 7.2502 17.02C7.9902 17.02 8.60019 16.42 8.60019 15.67V15.36C8.60019 14.62 9.2002 14.01 9.9502 14.01C10.6902 14.01 11.3002 14.61 11.3002 15.36V15.67C11.3002 16.41 11.9002 17.02 12.6502 17.02C13.3902 17.02 14.0002 16.42 14.0002 15.67V15.36C14.0002 14.62 14.6002 14.01 15.3502 14.01C16.0902 14.01 16.7002 14.61 16.7002 15.36V15.67C16.7002 16.41 17.3002 17.02 18.0502 17.02C18.7902 17.02 19.4002 16.42 19.4002 15.67V15.36C19.4002 14.62 20.0002 14.01 20.7502 14.01H21.2002" stroke="#292D32" stroke-width="1.5" stroke-linecap="round" stroke-linejoin="round"/>
<path opacity="0.34" d="M8.66992 5V3" stroke="#292D32" stroke-width="1.5" stroke-linecap="round" stroke-linejoin="round"/>
<path opacity="0.34" d="M16.6699 5V3" stroke="#292D32" stroke-width="1.5" stroke-linecap="round" stroke-linejoin="round"/>
<path opacity="0.34" d="M12.6699 5V2" stroke="#292D32" stroke-width="1.5" stroke-linecap="round" stroke-linejoin="round"/>
</svg>
