<svg width="25" height="24" viewBox="0 0 25 24" fill="none" xmlns="http://www.w3.org/2000/svg">
<path d="M8.66992 2V5" stroke="#292D32" stroke-width="1.5" stroke-miterlimit="10" stroke-linecap="round" stroke-linejoin="round"/>
<path d="M16.6699 2V5" stroke="#292D32" stroke-width="1.5" stroke-miterlimit="10" stroke-linecap="round" stroke-linejoin="round"/>
<path opacity="0.4" d="M4.16992 9.09009H21.1699" stroke="#292D32" stroke-width="1.5" stroke-miterlimit="10" stroke-linecap="round" stroke-linejoin="round"/>
<path d="M18.6699 23C20.8791 23 22.6699 21.2091 22.6699 19C22.6699 16.7909 20.8791 15 18.6699 15C16.4608 15 14.6699 16.7909 14.6699 19C14.6699 21.2091 16.4608 23 18.6699 23Z" stroke="#292D32" stroke-width="1.5" stroke-miterlimit="10" stroke-linecap="round" stroke-linejoin="round"/>
<path d="M20.1597 19.05H17.1797" stroke="#292D32" stroke-width="1.5" stroke-miterlimit="10" stroke-linecap="round" stroke-linejoin="round"/>
<path d="M18.6699 17.5901V20.5801" stroke="#292D32" stroke-width="1.5" stroke-miterlimit="10" stroke-linecap="round" stroke-linejoin="round"/>
<path d="M21.6699 8.5V16.36C20.9399 15.53 19.8699 15 18.6699 15C16.4599 15 14.6699 16.79 14.6699 19C14.6699 19.75 14.8799 20.46 15.2499 21.06C15.4599 21.42 15.7299 21.74 16.0399 22H8.66992C5.16992 22 3.66992 20 3.66992 17V8.5C3.66992 5.5 5.16992 3.5 8.66992 3.5H16.6699C20.1699 3.5 21.6699 5.5 21.6699 8.5Z" stroke="#292D32" stroke-width="1.5" stroke-miterlimit="10" stroke-linecap="round" stroke-linejoin="round"/>
<path opacity="0.4" d="M12.6654 13.7H12.6744" stroke="#292D32" stroke-width="2" stroke-linecap="round" stroke-linejoin="round"/>
<path opacity="0.4" d="M8.96423 13.7H8.97322" stroke="#292D32" stroke-width="2" stroke-linecap="round" stroke-linejoin="round"/>
<path opacity="0.4" d="M8.96436 16.7H8.97334" stroke="#292D32" stroke-width="2" stroke-linecap="round" stroke-linejoin="round"/>
</svg>
