<svg width="25" height="24" viewBox="0 0 25 24" fill="none" xmlns="http://www.w3.org/2000/svg">
<path d="M8.66992 2V5" stroke="#292D32" stroke-width="1.5" stroke-miterlimit="10" stroke-linecap="round" stroke-linejoin="round"/>
<path d="M16.6699 2V5" stroke="#292D32" stroke-width="1.5" stroke-miterlimit="10" stroke-linecap="round" stroke-linejoin="round"/>
<path opacity="0.4" d="M4.16992 9.09009H21.1699" stroke="#292D32" stroke-width="1.5" stroke-miterlimit="10" stroke-linecap="round" stroke-linejoin="round"/>
<path d="M22.6699 19C22.6699 19.75 22.4599 20.46 22.0899 21.06C21.3999 22.22 20.1299 23 18.6699 23C17.6599 23 16.7399 22.63 16.0399 22C15.7299 21.74 15.4599 21.42 15.2499 21.06C14.8799 20.46 14.6699 19.75 14.6699 19C14.6699 16.79 16.4599 15 18.6699 15C19.8699 15 20.9399 15.53 21.6699 16.36C22.2899 17.07 22.6699 17.99 22.6699 19Z" stroke="#292D32" stroke-width="1.5" stroke-miterlimit="10" stroke-linecap="round" stroke-linejoin="round"/>
<path d="M17.1099 19L18.0999 19.99L20.2299 18.02" stroke="#292D32" stroke-width="1.5" stroke-linecap="round" stroke-linejoin="round"/>
<path d="M21.6699 8.5V16.36C20.9399 15.53 19.8699 15 18.6699 15C16.4599 15 14.6699 16.79 14.6699 19C14.6699 19.75 14.8799 20.46 15.2499 21.06C15.4599 21.42 15.7299 21.74 16.0399 22H8.66992C5.16992 22 3.66992 20 3.66992 17V8.5C3.66992 5.5 5.16992 3.5 8.66992 3.5H16.6699C20.1699 3.5 21.6699 5.5 21.6699 8.5Z" stroke="#292D32" stroke-width="1.5" stroke-miterlimit="10" stroke-linecap="round" stroke-linejoin="round"/>
<path opacity="0.4" d="M12.6654 13.7H12.6744" stroke="#292D32" stroke-width="2" stroke-linecap="round" stroke-linejoin="round"/>
<path opacity="0.4" d="M8.96423 13.7H8.97322" stroke="#292D32" stroke-width="2" stroke-linecap="round" stroke-linejoin="round"/>
<path opacity="0.4" d="M8.96436 16.7H8.97334" stroke="#292D32" stroke-width="2" stroke-linecap="round" stroke-linejoin="round"/>
</svg>
