<svg width="25" height="24" viewBox="0 0 25 24" fill="none" xmlns="http://www.w3.org/2000/svg">
<path opacity="0.4" d="M10.9902 18.97C11.1302 19.08 11.2702 19.18 11.4202 19.29C12.5602 20.12 13.7102 20.78 14.8602 21.27C16.0102 21.76 17.1002 22 18.1202 22C18.8202 22 19.4702 21.87 20.0702 21.62C20.6802 21.37 21.2202 20.98 21.7102 20.44C22.0002 20.12 22.2202 19.78 22.3902 19.42C22.5602 19.06 22.6402 18.69 22.6402 18.33C22.6402 18.05 22.5802 17.8 22.4802 17.55C22.3702 17.3 22.1902 17.09 21.9302 16.91L18.6202 14.56C18.3702 14.39 18.1402 14.26 17.9202 14.17C17.7002 14.08 17.5002 14.04 17.3102 14.04C17.0602 14.04 16.8302 14.11 16.6002 14.25C16.3702 14.37 16.1302 14.56 15.8802 14.81L15.1202 15.56C15.0102 15.67 14.8802 15.73 14.7102 15.73C14.6202 15.73 14.5402 15.72 14.4602 15.69C14.3902 15.66 14.3302 15.63 14.2802 15.61C14.0902 15.51 13.8702 15.37 13.6302 15.19" stroke="#292D32" stroke-width="1.5" stroke-miterlimit="10" stroke-linecap="round" stroke-linejoin="round"/>
<path d="M11.3999 13.22C10.8799 12.69 10.3999 12.16 9.94992 11.64C9.50992 11.12 9.19992 10.69 9.01992 10.36C8.99992 10.3 8.96992 10.24 8.93992 10.16C8.91992 10.08 8.90992 10.01 8.90992 9.93C8.90992 9.77 8.95992 9.64 9.06992 9.53L9.82992 8.74C10.0699 8.5 10.2599 8.26 10.3899 8.03C10.5299 7.8 10.5999 7.56 10.5999 7.32C10.5999 7.13 10.5499 6.92 10.4599 6.71C10.3699 6.49 10.2399 6.26 10.0599 6.01L7.73992 2.74C7.55992 2.48 7.32992 2.3 7.06992 2.18C6.81992 2.06 6.53992 2 6.25992 2C5.51992 2 4.81992 2.31 4.17992 2.94C3.64992 3.44 3.26992 4 3.02992 4.61C2.78992 5.21 2.66992 5.86 2.66992 6.54C2.66992 7.58 2.90992 8.67 3.38992 9.81C3.86992 10.94 4.52992 12.08 5.34992 13.22C6.17992 14.36 7.10992 15.45 8.13992 16.49" stroke="#292D32" stroke-width="1.5" stroke-miterlimit="10" stroke-linecap="round" stroke-linejoin="round"/>
<path d="M22.6699 2L2.66992 22" stroke="#292D32" stroke-width="1.5" stroke-linecap="round" stroke-linejoin="round"/>
</svg>
