<svg width="25" height="24" viewBox="0 0 25 24" fill="none" xmlns="http://www.w3.org/2000/svg">
<path opacity="0.4" d="M7.16992 22V15" stroke="#292D32" stroke-width="1.5" stroke-miterlimit="10" stroke-linecap="round" stroke-linejoin="round"/>
<path opacity="0.4" d="M7.16992 5V2" stroke="#292D32" stroke-width="1.5" stroke-miterlimit="10" stroke-linecap="round" stroke-linejoin="round"/>
<path opacity="0.4" d="M18.1699 22V19" stroke="#292D32" stroke-width="1.5" stroke-miterlimit="10" stroke-linecap="round" stroke-linejoin="round"/>
<path opacity="0.4" d="M18.1699 9V2" stroke="#292D32" stroke-width="1.5" stroke-miterlimit="10" stroke-linecap="round" stroke-linejoin="round"/>
<path d="M10.1699 7V13C10.1699 14.1 9.66992 15 8.16992 15H6.16992C4.66992 15 4.16992 14.1 4.16992 13V7C4.16992 5.9 4.66992 5 6.16992 5H8.16992C9.66992 5 10.1699 5.9 10.1699 7Z" stroke="#292D32" stroke-width="1.5" stroke-miterlimit="10" stroke-linecap="round" stroke-linejoin="round"/>
<path d="M21.1699 11V17C21.1699 18.1 20.6699 19 19.1699 19H17.1699C15.6699 19 15.1699 18.1 15.1699 17V11C15.1699 9.9 15.6699 9 17.1699 9H19.1699C20.6699 9 21.1699 9.9 21.1699 11Z" stroke="#292D32" stroke-width="1.5" stroke-miterlimit="10" stroke-linecap="round" stroke-linejoin="round"/>
</svg>
