<svg width="25" height="24" viewBox="0 0 25 24" fill="none" xmlns="http://www.w3.org/2000/svg">
<path opacity="0.4" d="M22.6699 17.5H15.6699" stroke="#292D32" stroke-width="1.5" stroke-miterlimit="10" stroke-linecap="round" stroke-linejoin="round"/>
<path opacity="0.4" d="M5.66992 17.5H2.66992" stroke="#292D32" stroke-width="1.5" stroke-miterlimit="10" stroke-linecap="round" stroke-linejoin="round"/>
<path opacity="0.4" d="M22.6699 6.5H19.6699" stroke="#292D32" stroke-width="1.5" stroke-miterlimit="10" stroke-linecap="round" stroke-linejoin="round"/>
<path opacity="0.4" d="M9.66992 6.5H2.66992" stroke="#292D32" stroke-width="1.5" stroke-miterlimit="10" stroke-linecap="round" stroke-linejoin="round"/>
<path d="M7.66992 14.5H13.6699C14.7699 14.5 15.6699 15 15.6699 16.5V18.5C15.6699 20 14.7699 20.5 13.6699 20.5H7.66992C6.56992 20.5 5.66992 20 5.66992 18.5V16.5C5.66992 15 6.56992 14.5 7.66992 14.5Z" stroke="#292D32" stroke-width="1.5" stroke-miterlimit="10" stroke-linecap="round" stroke-linejoin="round"/>
<path d="M11.6699 3.5H17.6699C18.7699 3.5 19.6699 4 19.6699 5.5V7.5C19.6699 9 18.7699 9.5 17.6699 9.5H11.6699C10.5699 9.5 9.66992 9 9.66992 7.5V5.5C9.66992 4 10.5699 3.5 11.6699 3.5Z" stroke="#292D32" stroke-width="1.5" stroke-miterlimit="10" stroke-linecap="round" stroke-linejoin="round"/>
</svg>
