<svg width="25" height="24" viewBox="0 0 25 24" fill="none" xmlns="http://www.w3.org/2000/svg">
<path d="M14.4199 10C14.9722 10 15.4199 9.55228 15.4199 9C15.4199 8.44772 14.9722 8 14.4199 8C13.8676 8 13.4199 8.44772 13.4199 9C13.4199 9.55228 13.8676 10 14.4199 10Z" stroke="black" stroke-miterlimit="10"/>
<path d="M10.9199 10C11.4722 10 11.9199 9.55228 11.9199 9C11.9199 8.44772 11.4722 8 10.9199 8C10.3676 8 9.91992 8.44772 9.91992 9C9.91992 9.55228 10.3676 10 10.9199 10Z" stroke="black" stroke-miterlimit="10"/>
<path d="M16.1699 13C16.7222 13 17.1699 12.5523 17.1699 12C17.1699 11.4477 16.7222 11 16.1699 11C15.6176 11 15.1699 11.4477 15.1699 12C15.1699 12.5523 15.6176 13 16.1699 13Z" stroke="black" stroke-miterlimit="10"/>
<path opacity="0.4" d="M17.8198 9.75C18.234 9.75 18.5698 9.41421 18.5698 9C18.5698 8.58579 18.234 8.25 17.8198 8.25C17.4056 8.25 17.0698 8.58579 17.0698 9C17.0698 9.41421 17.4056 9.75 17.8198 9.75Z" stroke="black" stroke-miterlimit="10"/>
<path opacity="0.4" d="M17.8198 15.75C18.234 15.75 18.5698 15.4142 18.5698 15C18.5698 14.5858 18.234 14.25 17.8198 14.25C17.4056 14.25 17.0698 14.5858 17.0698 15C17.0698 15.4142 17.4056 15.75 17.8198 15.75Z" stroke="black" stroke-miterlimit="10"/>
<path opacity="0.4" d="M20.4199 12.75C20.8341 12.75 21.1699 12.4142 21.1699 12C21.1699 11.5858 20.8341 11.25 20.4199 11.25C20.0057 11.25 19.6699 11.5858 19.6699 12C19.6699 12.4142 20.0057 12.75 20.4199 12.75Z" stroke="black" stroke-miterlimit="10"/>
<path opacity="0.4" d="M7.46973 9.75C7.88394 9.75 8.21973 9.41421 8.21973 9C8.21973 8.58579 7.88394 8.25 7.46973 8.25C7.05551 8.25 6.71973 8.58579 6.71973 9C6.71973 9.41421 7.05551 9.75 7.46973 9.75Z" stroke="black" stroke-miterlimit="10"/>
<path opacity="0.4" d="M7.46973 15.75C7.88394 15.75 8.21973 15.4142 8.21973 15C8.21973 14.5858 7.88394 14.25 7.46973 14.25C7.05551 14.25 6.71973 14.5858 6.71973 15C6.71973 15.4142 7.05551 15.75 7.46973 15.75Z" stroke="black" stroke-miterlimit="10"/>
<path opacity="0.4" d="M4.87012 12.75C5.28433 12.75 5.62012 12.4142 5.62012 12C5.62012 11.5858 5.28433 11.25 4.87012 11.25C4.4559 11.25 4.12012 11.5858 4.12012 12C4.12012 12.4142 4.4559 12.75 4.87012 12.75Z" stroke="black" stroke-miterlimit="10"/>
<path opacity="0.4" d="M16.5698 5.95001C16.984 5.95001 17.3198 5.61423 17.3198 5.20001C17.3198 4.7858 16.984 4.45001 16.5698 4.45001C16.1556 4.45001 15.8198 4.7858 15.8198 5.20001C15.8198 5.61423 16.1556 5.95001 16.5698 5.95001Z" stroke="black" stroke-miterlimit="10"/>
<path opacity="0.4" d="M8.77002 5.95001C9.18423 5.95001 9.52002 5.61423 9.52002 5.20001C9.52002 4.7858 9.18423 4.45001 8.77002 4.45001C8.35581 4.45001 8.02002 4.7858 8.02002 5.20001C8.02002 5.61423 8.35581 5.95001 8.77002 5.95001Z" stroke="black" stroke-miterlimit="10"/>
<path opacity="0.4" d="M12.7197 6.75C13.1339 6.75 13.4697 6.41421 13.4697 6C13.4697 5.58579 13.1339 5.25 12.7197 5.25C12.3055 5.25 11.9697 5.58579 11.9697 6C11.9697 6.41421 12.3055 6.75 12.7197 6.75Z" stroke="black" stroke-miterlimit="10"/>
<path opacity="0.4" d="M16.5698 19.75C16.984 19.75 17.3198 19.4142 17.3198 19C17.3198 18.5858 16.984 18.25 16.5698 18.25C16.1556 18.25 15.8198 18.5858 15.8198 19C15.8198 19.4142 16.1556 19.75 16.5698 19.75Z" stroke="black" stroke-miterlimit="10"/>
<path opacity="0.4" d="M8.77002 19.75C9.18423 19.75 9.52002 19.4142 9.52002 19C9.52002 18.5858 9.18423 18.25 8.77002 18.25C8.35581 18.25 8.02002 18.5858 8.02002 19C8.02002 19.4142 8.35581 19.75 8.77002 19.75Z" stroke="black" stroke-miterlimit="10"/>
<path opacity="0.4" d="M12.7197 18.95C13.1339 18.95 13.4697 18.6142 13.4697 18.2C13.4697 17.7858 13.1339 17.45 12.7197 17.45C12.3055 17.45 11.9697 17.7858 11.9697 18.2C11.9697 18.6142 12.3055 18.95 12.7197 18.95Z" stroke="black" stroke-miterlimit="10"/>
<path d="M9.16992 13C9.72221 13 10.1699 12.5523 10.1699 12C10.1699 11.4477 9.72221 11 9.16992 11C8.61764 11 8.16992 11.4477 8.16992 12C8.16992 12.5523 8.61764 13 9.16992 13Z" stroke="black" stroke-miterlimit="10"/>
<path d="M10.9199 16C11.4722 16 11.9199 15.5523 11.9199 15C11.9199 14.4477 11.4722 14 10.9199 14C10.3676 14 9.91992 14.4477 9.91992 15C9.91992 15.5523 10.3676 16 10.9199 16Z" stroke="black" stroke-miterlimit="10"/>
<path d="M14.4199 16C14.9722 16 15.4199 15.5523 15.4199 15C15.4199 14.4477 14.9722 14 14.4199 14C13.8676 14 13.4199 14.4477 13.4199 15C13.4199 15.5523 13.8676 16 14.4199 16Z" stroke="black" stroke-miterlimit="10"/>
<path opacity="0.4" d="M12.6699 2.45001V2.45001" stroke="black" stroke-width="2" stroke-linecap="round" stroke-linejoin="round"/>
<path opacity="0.4" d="M18.1699 2.84998V2.84998" stroke="black" stroke-width="1.5" stroke-linecap="round" stroke-linejoin="round"/>
<path opacity="0.4" d="M18.1699 21.2V21.2" stroke="black" stroke-width="1.5" stroke-linecap="round" stroke-linejoin="round"/>
<path opacity="0.4" d="M20.6699 16.5V16.5" stroke="black" stroke-width="1.5" stroke-linecap="round" stroke-linejoin="round"/>
<path opacity="0.4" d="M20.6699 7V7" stroke="black" stroke-width="1.5" stroke-linecap="round" stroke-linejoin="round"/>
<path opacity="0.4" d="M4.66992 16.5V16.5" stroke="black" stroke-width="1.5" stroke-linecap="round" stroke-linejoin="round"/>
<path opacity="0.4" d="M4.66992 7V7" stroke="black" stroke-width="1.5" stroke-linecap="round" stroke-linejoin="round"/>
<path opacity="0.4" d="M7.16992 2.84998V2.84998" stroke="black" stroke-width="1.5" stroke-linecap="round" stroke-linejoin="round"/>
<path opacity="0.4" d="M7.16992 21.2V21.2" stroke="black" stroke-width="1.5" stroke-linecap="round" stroke-linejoin="round"/>
<path opacity="0.4" d="M12.6699 21.5V21.5" stroke="black" stroke-width="2" stroke-linecap="round" stroke-linejoin="round"/>
<path opacity="0.4" d="M2.21973 12V12" stroke="black" stroke-width="2" stroke-linecap="round" stroke-linejoin="round"/>
<path opacity="0.4" d="M23.1699 12V12" stroke="black" stroke-width="2" stroke-linecap="round" stroke-linejoin="round"/>
</svg>
