<svg width="25" height="24" viewBox="0 0 25 24" fill="none" xmlns="http://www.w3.org/2000/svg">
<path d="M2.66992 12.61H19.6699" stroke="#292D32" stroke-width="1.5" stroke-miterlimit="10" stroke-linecap="round" stroke-linejoin="round"/>
<path d="M19.6699 10.28V17.43C19.6399 20.28 18.8599 21 15.8899 21H6.44995C3.42995 21 2.66992 20.2501 2.66992 17.2701V10.28C2.66992 7.58005 3.29992 6.71005 5.66992 6.57005C5.90992 6.56005 6.16995 6.55005 6.44995 6.55005H15.8899C18.9099 6.55005 19.6699 7.30005 19.6699 10.28Z" stroke="#292D32" stroke-width="1.5" stroke-linecap="round" stroke-linejoin="round"/>
<path opacity="0.4" d="M22.6699 6.73V13.72C22.6699 16.42 22.0399 17.29 19.6699 17.43V10.28C19.6699 7.3 18.9099 6.55 15.8899 6.55H6.44995C6.16995 6.55 5.90992 6.56 5.66992 6.57C5.69992 3.72 6.47995 3 9.44995 3H18.8899C21.9099 3 22.6699 3.75 22.6699 6.73Z" stroke="#292D32" stroke-width="1.5" stroke-linecap="round" stroke-linejoin="round"/>
<path opacity="0.4" d="M5.91992 17.8101H7.63989" stroke="#292D32" stroke-width="1.5" stroke-miterlimit="10" stroke-linecap="round" stroke-linejoin="round"/>
<path opacity="0.4" d="M9.78027 17.8101H13.2203" stroke="#292D32" stroke-width="1.5" stroke-miterlimit="10" stroke-linecap="round" stroke-linejoin="round"/>
</svg>
