<svg width="25" height="24" viewBox="0 0 25 24" fill="none" xmlns="http://www.w3.org/2000/svg">
<path opacity="0.4" d="M17 15.28C16.01 16.59 14.43 17.43 12.67 17.43C9.66998 17.43 7.22998 15 7.22998 11.99C7.22998 8.98001 9.65998 6.55 12.67 6.55C13.9 6.55 15.03 6.96 15.94 7.64" stroke="black" stroke-width="1.5" stroke-miterlimit="10" stroke-linecap="round" stroke-linejoin="round"/>
<path opacity="0.4" d="M18.0899 11.34C18.7361 11.34 19.2599 10.8162 19.2599 10.17C19.2599 9.52382 18.7361 9 18.0899 9C17.4437 9 16.9199 9.52382 16.9199 10.17C16.9199 10.8162 17.4437 11.34 18.0899 11.34Z" stroke="black" stroke-width="1.5" stroke-miterlimit="10" stroke-linecap="round" stroke-linejoin="round"/>
<path d="M12.6699 22C18.1928 22 22.6699 17.5228 22.6699 12C22.6699 6.47715 18.1928 2 12.6699 2C7.14707 2 2.66992 6.47715 2.66992 12C2.66992 17.5228 7.14707 22 12.6699 22Z" stroke="black" stroke-width="1.5" stroke-miterlimit="10" stroke-linecap="round" stroke-linejoin="round"/>
</svg>
