<svg width="25" height="24" viewBox="0 0 25 24" fill="none" xmlns="http://www.w3.org/2000/svg">
<path d="M10.6699 6H14.6699C16.6699 6 16.6699 5 16.6699 4C16.6699 2 15.6699 2 14.6699 2H10.6699C9.66992 2 8.66992 2 8.66992 4C8.66992 6 9.66992 6 10.6699 6Z" stroke="#292D32" stroke-width="1.5" stroke-miterlimit="10" stroke-linecap="round" stroke-linejoin="round"/>
<path d="M14.6699 22H9.66992C4.66992 22 3.66992 20 3.66992 16V10C3.66992 5.44002 5.33992 4.20002 8.66992 4.02002" stroke="#292D32" stroke-width="1.5" stroke-miterlimit="10" stroke-linecap="round" stroke-linejoin="round"/>
<path d="M16.6699 4.02002C19.9999 4.20002 21.6699 5.43002 21.6699 10V15" stroke="#292D32" stroke-width="1.5" stroke-miterlimit="10" stroke-linecap="round" stroke-linejoin="round"/>
<g opacity="0.4">
<path d="M15.6699 19V16H18.6699" stroke="#292D32" stroke-width="1.5" stroke-miterlimit="10" stroke-linecap="round" stroke-linejoin="round"/>
<path d="M21.669 22L15.709 16.04" stroke="#292D32" stroke-width="1.5" stroke-miterlimit="10" stroke-linecap="round" stroke-linejoin="round"/>
</g>
</svg>
