<svg width="25" height="24" viewBox="0 0 25 24" fill="none" xmlns="http://www.w3.org/2000/svg">
<path d="M20.9404 18.6799C19.9504 19.5899 18.6504 20.0899 17.3004 20.0799H6.21035C1.54035 19.7399 1.53035 12.9399 6.21035 12.5999H6.26035C3.56035 5.0599 12.7904 1.3399 16.6704 6.0299V6.0399C17.3704 6.8999 17.9004 8.0399 18.1404 9.4899C19.4704 9.6599 20.5504 10.3099 21.3204 11.2299C23.0704 13.2999 23.2204 16.6799 20.9404 18.6799Z" stroke="#292D32" stroke-width="1.5" stroke-miterlimit="10" stroke-linecap="round" stroke-linejoin="round"/>
<path d="M7.92977 13.0101C7.40977 12.7501 6.83977 12.6101 6.25977 12.6001" stroke="#292D32" stroke-width="1.5" stroke-miterlimit="10" stroke-linecap="round" stroke-linejoin="round"/>
<path d="M16.5195 9.92001C17.0395 9.66001 17.6095 9.52001 18.1895 9.51001" stroke="#292D32" stroke-width="1.5" stroke-miterlimit="10" stroke-linecap="round" stroke-linejoin="round"/>
<path opacity="0.4" d="M22.6399 8.5C22.6399 9.6 22.1299 10.59 21.3199 11.23C20.5499 10.31 19.4699 9.66 18.1399 9.49C17.8999 8.04 17.3699 6.9 16.6699 6.04V6.03C17.2999 5.39 18.1799 5 19.1399 5C21.0699 5 22.6399 6.57 22.6399 8.5Z" stroke="#292D32" stroke-width="1.5" stroke-miterlimit="10" stroke-linecap="round" stroke-linejoin="round"/>
</svg>
