<svg width="25" height="24" viewBox="0 0 25 24" fill="none" xmlns="http://www.w3.org/2000/svg">
<g opacity="0.4">
<path d="M6.20971 11.1201C1.52971 11.4501 1.52971 18.2601 6.20971 18.5901H8.12975" stroke="#292D32" stroke-width="1.5" stroke-miterlimit="10" stroke-linecap="round" stroke-linejoin="round"/>
<path d="M6.25995 11.1201C3.04995 2.19014 16.5899 -1.37985 18.1399 8.00015C22.4699 8.55015 24.2199 14.3201 20.9399 17.1901C19.9399 18.1001 18.6499 18.6001 17.2999 18.5901H17.2099" stroke="#292D32" stroke-width="1.5" stroke-miterlimit="10" stroke-linecap="round" stroke-linejoin="round"/>
</g>
<path d="M17.6699 16.53C17.6699 17.27 17.5099 17.97 17.2099 18.59C17.1299 18.77 17.0399 18.94 16.9399 19.1C16.0799 20.55 14.4899 21.53 12.6699 21.53C10.8499 21.53 9.2599 20.55 8.3999 19.1C8.2999 18.94 8.20994 18.77 8.12994 18.59C7.82994 17.97 7.66992 17.27 7.66992 16.53C7.66992 13.77 9.90992 11.53 12.6699 11.53C15.4299 11.53 17.6699 13.77 17.6699 16.53Z" stroke="#292D32" stroke-width="1.5" stroke-miterlimit="10" stroke-linecap="round" stroke-linejoin="round"/>
<path d="M11.1099 16.53L12.0999 17.5201L14.2299 15.55" stroke="#292D32" stroke-width="1.5" stroke-linecap="round" stroke-linejoin="round"/>
</svg>
