<svg width="25" height="24" viewBox="0 0 25 24" fill="none" xmlns="http://www.w3.org/2000/svg">
<g opacity="0.4">
<path d="M8.66992 11.4002C8.66992 12.1702 9.26992 12.8002 9.99992 12.8002H11.4999C12.1399 12.8002 12.6599 12.2502 12.6599 11.5802C12.6599 10.8502 12.3399 10.5902 11.8699 10.4202L9.46992 9.5802C8.98992 9.4102 8.66992 9.1502 8.66992 8.4202C8.66992 7.7502 9.18992 7.2002 9.82992 7.2002H11.3299C12.0699 7.2102 12.6699 7.8302 12.6699 8.6002" stroke="#292D32" stroke-width="1.5" stroke-linecap="round" stroke-linejoin="round"/>
<path d="M10.6699 12.8496V13.5896" stroke="#292D32" stroke-width="1.5" stroke-linecap="round" stroke-linejoin="round"/>
<path d="M10.6699 6.41016V7.19016" stroke="#292D32" stroke-width="1.5" stroke-linecap="round" stroke-linejoin="round"/>
</g>
<path d="M10.6599 17.98C15.0727 17.98 18.6499 14.4028 18.6499 9.99C18.6499 5.57724 15.0727 2 10.6599 2C6.24717 2 2.66992 5.57724 2.66992 9.99C2.66992 14.4028 6.24717 17.98 10.6599 17.98Z" stroke="#292D32" stroke-width="1.5" stroke-linecap="round" stroke-linejoin="round"/>
<path opacity="0.4" d="M13.6504 19.88C14.5504 21.15 16.0204 21.98 17.7004 21.98C20.4304 21.98 22.6504 19.76 22.6504 17.03C22.6504 15.37 21.8304 13.9 20.5804 13" stroke="#292D32" stroke-width="1.5" stroke-linecap="round" stroke-linejoin="round"/>
</svg>
