<svg width="25" height="24" viewBox="0 0 25 24" fill="none" xmlns="http://www.w3.org/2000/svg">
<g opacity="0.4">
<path d="M15.0701 9.6001H10.27V14.4001H15.0701V9.6001Z" stroke="#292D32" stroke-width="1.5" stroke-linecap="round" stroke-linejoin="round"/>
<path d="M8.46991 17.9999C9.45991 17.9999 10.2699 17.1899 10.2699 16.1999V14.3999H8.46991C7.47991 14.3999 6.66992 15.2099 6.66992 16.1999C6.66992 17.1899 7.47991 17.9999 8.46991 17.9999Z" stroke="#292D32" stroke-width="1.5" stroke-linecap="round" stroke-linejoin="round"/>
<path d="M8.46991 9.60001H10.2699V7.79999C10.2699 6.80999 9.45991 6 8.46991 6C7.47991 6 6.66992 6.80999 6.66992 7.79999C6.66992 8.78999 7.47991 9.60001 8.46991 9.60001Z" stroke="#292D32" stroke-width="1.5" stroke-linecap="round" stroke-linejoin="round"/>
<path d="M15.0698 9.60001H16.8698C17.8598 9.60001 18.6698 8.78999 18.6698 7.79999C18.6698 6.80999 17.8598 6 16.8698 6C15.8798 6 15.0698 6.80999 15.0698 7.79999V9.60001Z" stroke="#292D32" stroke-width="1.5" stroke-linecap="round" stroke-linejoin="round"/>
<path d="M16.8698 17.9999C17.8598 17.9999 18.6698 17.1899 18.6698 16.1999C18.6698 15.2099 17.8598 14.3999 16.8698 14.3999H15.0698V16.1999C15.0698 17.1899 15.8798 17.9999 16.8698 17.9999Z" stroke="#292D32" stroke-width="1.5" stroke-linecap="round" stroke-linejoin="round"/>
</g>
<path d="M9.66992 22H15.6699C20.6699 22 22.6699 20 22.6699 15V9C22.6699 4 20.6699 2 15.6699 2H9.66992C4.66992 2 2.66992 4 2.66992 9V15C2.66992 20 4.66992 22 9.66992 22Z" stroke="#292D32" stroke-width="1.5" stroke-linecap="round" stroke-linejoin="round"/>
</svg>
