<svg width="25" height="24" viewBox="0 0 25 24" fill="none" xmlns="http://www.w3.org/2000/svg">
<path d="M22.6699 5.15V8.85C22.6699 11.1 21.7699 12 19.5199 12H16.8199C14.5699 12 13.6699 11.1 13.6699 8.85V5.15C13.6699 2.9 14.5699 2 16.8199 2H19.5199C21.7699 2 22.6699 2.9 22.6699 5.15Z" stroke="#292D32" stroke-width="1.5" stroke-linecap="round" stroke-linejoin="round"/>
<path d="M11.6699 15.15V18.85C11.6699 21.1 10.7699 22 8.51992 22H5.81992C3.56992 22 2.66992 21.1 2.66992 18.85V15.15C2.66992 12.9 3.56992 12 5.81992 12H8.51992C10.7699 12 11.6699 12.9 11.6699 15.15Z" stroke="#292D32" stroke-width="1.5" stroke-linecap="round" stroke-linejoin="round"/>
<path opacity="0.4" d="M22.6699 15C22.6699 18.87 19.5399 22 15.6699 22L16.7199 20.25" stroke="#292D32" stroke-width="1.5" stroke-linecap="round" stroke-linejoin="round"/>
<path opacity="0.4" d="M2.66992 9C2.66992 5.13 5.79992 2 9.66992 2L8.61992 3.75" stroke="#292D32" stroke-width="1.5" stroke-linecap="round" stroke-linejoin="round"/>
</svg>
