<svg width="25" height="24" viewBox="0 0 25 24" fill="none" xmlns="http://www.w3.org/2000/svg">
<path opacity="0.4" d="M22.6709 15C22.6709 18.87 19.5409 22 15.6709 22L16.7209 20.25" stroke="#292D32" stroke-width="1.5" stroke-linecap="round" stroke-linejoin="round"/>
<path opacity="0.4" d="M2.6709 9C2.6709 5.13 5.8009 2 9.6709 2L8.6209 3.75" stroke="#292D32" stroke-width="1.5" stroke-linecap="round" stroke-linejoin="round"/>
<path d="M14.3711 4.4502L18.3511 6.75018L22.2911 4.46021" stroke="#292D32" stroke-width="1.5" stroke-linecap="round" stroke-linejoin="round"/>
<path d="M18.3511 10.8203V6.74023" stroke="#292D32" stroke-width="1.5" stroke-linecap="round" stroke-linejoin="round"/>
<path d="M17.411 2.21L15.011 3.53996C14.471 3.83996 14.021 4.59995 14.021 5.21995V7.75999C14.021 8.37999 14.461 9.13998 15.011 9.43998L17.411 10.77C17.921 11.06 18.761 11.06 19.281 10.77L21.681 9.43998C22.221 9.13998 22.671 8.37999 22.671 7.75999V5.21995C22.671 4.59995 22.231 3.83996 21.681 3.53996L19.281 2.21C18.771 1.93 17.931 1.93 17.411 2.21Z" stroke="#292D32" stroke-width="1.5" stroke-linecap="round" stroke-linejoin="round"/>
<path d="M3.021 15.4502L6.991 17.7502L10.941 15.4602" stroke="#292D32" stroke-width="1.5" stroke-linecap="round" stroke-linejoin="round"/>
<path d="M6.99121 21.8203V17.7402" stroke="#292D32" stroke-width="1.5" stroke-linecap="round" stroke-linejoin="round"/>
<path d="M6.0609 13.21L3.6609 14.54C3.1209 14.84 2.6709 15.5999 2.6709 16.2199V18.76C2.6709 19.38 3.1109 20.14 3.6609 20.44L6.0609 21.77C6.5709 22.06 7.41089 22.06 7.93089 21.77L10.3309 20.44C10.8709 20.14 11.3209 19.38 11.3209 18.76V16.2199C11.3209 15.5999 10.8809 14.84 10.3309 14.54L7.93089 13.21C7.41089 12.93 6.5709 12.93 6.0609 13.21Z" stroke="#292D32" stroke-width="1.5" stroke-linecap="round" stroke-linejoin="round"/>
</svg>
