<svg width="25" height="24" viewBox="0 0 25 24" fill="none" xmlns="http://www.w3.org/2000/svg">
<path d="M16.6699 12.9V17.1C16.6699 20.6 15.2699 22 11.7699 22H7.56992C4.06992 22 2.66992 20.6 2.66992 17.1V12.9C2.66992 9.4 4.06992 8 7.56992 8H11.7699C15.2699 8 16.6699 9.4 16.6699 12.9Z" stroke="#292D32" stroke-width="1.5" stroke-linecap="round" stroke-linejoin="round"/>
<path opacity="0.4" d="M22.6699 6.9V11.1C22.6699 14.6 21.2699 16 17.7699 16H16.6699V12.9C16.6699 9.4 15.2699 8 11.7699 8H8.66992V6.9C8.66992 3.4 10.0699 2 13.5699 2H17.7699C21.2699 2 22.6699 3.4 22.6699 6.9Z" stroke="#292D32" stroke-width="1.5" stroke-linecap="round" stroke-linejoin="round"/>
</svg>
