<svg width="25" height="24" viewBox="0 0 25 24" fill="none" xmlns="http://www.w3.org/2000/svg">
<path opacity="0.4" d="M22.6699 11.1V6.9C22.6699 3.4 21.2699 2 17.7699 2H13.5699C10.0699 2 8.66992 3.4 8.66992 6.9V8H11.7699C15.2699 8 16.6699 9.4 16.6699 12.9V16H17.7699C21.2699 16 22.6699 14.6 22.6699 11.1Z" stroke="#292D32" stroke-width="1.5" stroke-linecap="round" stroke-linejoin="round"/>
<path d="M16.6699 17.1V12.9C16.6699 9.4 15.2699 8 11.7699 8H7.56992C4.06992 8 2.66992 9.4 2.66992 12.9V17.1C2.66992 20.6 4.06992 22 7.56992 22H11.7699C15.2699 22 16.6699 20.6 16.6699 17.1Z" stroke="#292D32" stroke-width="1.5" stroke-linecap="round" stroke-linejoin="round"/>
<path d="M6.75 15L8.7 16.95L12.59 13.05" stroke="#292D32" stroke-width="1.5" stroke-linecap="round" stroke-linejoin="round"/>
</svg>
