<svg width="25" height="24" viewBox="0 0 25 24" fill="none" xmlns="http://www.w3.org/2000/svg">
<path d="M12.6699 22C7.14992 22 2.66992 17.52 2.66992 12C2.66992 6.48 7.14992 2 12.6699 2C18.1899 2 22.6699 6.48 22.6699 12C22.6699 17.52 18.1899 22 12.6699 22Z" stroke="#292D32" stroke-width="1.5" stroke-linecap="round" stroke-linejoin="round"/>
<path opacity="0.4" d="M11.55 14.15C11.04 14.59 10.38 14.87 9.66003 14.87C8.08003 14.87 6.79004 13.59 6.79004 12C6.79004 10.41 8.07003 9.13 9.66003 9.13C10.39 9.13 11.05 9.39998 11.55 9.84998" stroke="#292D32" stroke-width="1.5" stroke-linecap="round" stroke-linejoin="round"/>
<path opacity="0.4" d="M18.55 14.15C18.04 14.59 17.38 14.87 16.66 14.87C15.08 14.87 13.79 13.59 13.79 12C13.79 10.41 15.07 9.13 16.66 9.13C17.39 9.13 18.05 9.39998 18.55 9.84998" stroke="#292D32" stroke-width="1.5" stroke-linecap="round" stroke-linejoin="round"/>
</svg>
