<svg width="25" height="24" viewBox="0 0 25 24" fill="none" xmlns="http://www.w3.org/2000/svg">
<path d="M17.3701 18.98H7.97012C7.55012 18.98 7.08012 18.65 6.94012 18.25L2.80012 6.66999C2.21012 5.00999 2.90012 4.49999 4.32012 5.51999L8.22012 8.30999C8.87012 8.75999 9.61012 8.52999 9.89012 7.79999L11.6501 3.10999C12.2101 1.60999 13.1401 1.60999 13.7001 3.10999L15.4601 7.79999C15.7401 8.52999 16.4801 8.75999 17.1201 8.30999L20.7801 5.69999C22.3401 4.57999 23.0901 5.14999 22.4501 6.95999L18.4101 18.27C18.2601 18.65 17.7901 18.98 17.3701 18.98Z" stroke="#292D32" stroke-width="1.5" stroke-linecap="round" stroke-linejoin="round"/>
<path opacity="0.34" d="M7.16992 22H18.1699" stroke="#292D32" stroke-width="1.5" stroke-linecap="round" stroke-linejoin="round"/>
<path opacity="0.34" d="M10.1699 14H15.1699" stroke="#292D32" stroke-width="1.5" stroke-linecap="round" stroke-linejoin="round"/>
</svg>
