<svg width="25" height="24" viewBox="0 0 25 24" fill="none" xmlns="http://www.w3.org/2000/svg">
<g opacity="0.4">
<path d="M12.6696 18.15C11.9496 18.15 11.3496 17.56 11.3496 16.83V7.16997C11.3496 6.44997 11.9396 5.84998 12.6696 5.84998C13.3896 5.84998 13.9896 6.43997 13.9896 7.16997V16.83C13.9896 17.56 13.3896 18.15 12.6696 18.15Z" stroke="black" stroke-width="1.5" stroke-miterlimit="10"/>
<path d="M7.34994 8.92998C7.70994 8.29998 8.51994 8.08999 9.14994 8.44999L17.5199 13.28C18.1499 13.64 18.3599 14.45 17.9999 15.08C17.6399 15.71 16.8299 15.92 16.1999 15.56L7.82994 10.73C7.19994 10.36 6.97994 9.54998 7.34994 8.92998Z" stroke="black" stroke-width="1.5" stroke-miterlimit="10"/>
<path d="M7.34989 15.07C6.98989 14.44 7.19989 13.63 7.82989 13.27L16.1999 8.43998C16.8299 8.07998 17.6399 8.28997 17.9999 8.91997C18.3599 9.54997 18.1499 10.36 17.5199 10.72L9.14989 15.55C8.51989 15.92 7.70989 15.7 7.34989 15.07Z" stroke="black" stroke-width="1.5" stroke-miterlimit="10"/>
</g>
<path d="M12.6699 22C18.1928 22 22.6699 17.5228 22.6699 12C22.6699 6.47715 18.1928 2 12.6699 2C7.14707 2 2.66992 6.47715 2.66992 12C2.66992 17.5228 7.14707 22 12.6699 22Z" stroke="black" stroke-width="1.5" stroke-miterlimit="10"/>
</svg>
