<svg width="25" height="24" viewBox="0 0 25 24" fill="none" xmlns="http://www.w3.org/2000/svg">
<g clip-path="url(#clip0_12_78613)">
<path d="M11.1002 17.6201C11.1002 18.7201 10.6802 19.77 9.8902 20.57C9.2802 21.18 8.4502 21.6001 7.4602 21.7301L5.0002 22.0001C3.6602 22.1501 2.5102 21.01 2.6702 19.65L2.9402 17.1901C3.1802 15.0001 5.0102 13.6001 6.9502 13.5601C7.1502 13.5501 7.3602 13.56 7.5502 13.57C8.4002 13.68 9.2302 14.0701 9.9102 14.7601C10.5802 15.4301 10.9602 16.21 11.0702 17.05C11.0802 17.24 11.1002 17.4301 11.1002 17.6201Z" stroke="#292D32" stroke-width="1.5" stroke-linecap="round" stroke-linejoin="round"/>
<g opacity="0.4">
<path d="M22.4795 3.93988C20.9395 7.77988 17.0795 12.9999 13.8495 15.5899L11.8795 17.1699C11.6295 17.3499 11.3795 17.5099 11.0995 17.6199C11.0995 17.4399 11.0895 17.2399 11.0595 17.0499C10.9495 16.2099 10.5695 15.4299 9.89945 14.7599C9.21945 14.0799 8.38945 13.6799 7.53945 13.5699C7.33945 13.5599 7.13945 13.5399 6.93945 13.5599C7.04945 13.2499 7.21945 12.9599 7.42945 12.7199L8.98945 10.7499C11.5695 7.51988 16.8095 3.63988 20.6395 2.10988C21.2295 1.88988 21.7995 2.04988 22.1595 2.41988C22.5395 2.78988 22.7195 3.35988 22.4795 3.93988Z" stroke="#292D32" stroke-width="1.5" stroke-linecap="round" stroke-linejoin="round"/>
<path d="M14.9097 14.4702C14.9097 11.8602 12.7897 9.74023 10.1797 9.74023" stroke="#292D32" stroke-width="1.5" stroke-linecap="round" stroke-linejoin="round"/>
</g>
<path d="M20.7896 12.73L21.5296 13.46C23.0196 14.95 23.0196 16.42 21.5296 17.91L18.5696 20.87C17.0996 22.34 15.6096 22.34 14.1396 20.87" stroke="#292D32" stroke-width="1.5" stroke-linecap="round"/>
<path d="M3.78023 10.5101C2.31023 9.02006 2.31023 7.55006 3.78023 6.06006L6.74023 3.10006C8.21023 1.63006 9.70023 1.63006 11.1702 3.10006L11.9102 3.84006" stroke="#292D32" stroke-width="1.5" stroke-linecap="round"/>
<path opacity="0.4" d="M11.9197 3.8501L8.21973 7.5501" stroke="#292D32" stroke-width="1.5" stroke-linecap="round"/>
<path opacity="0.4" d="M20.7901 12.73L17.8301 15.68" stroke="#292D32" stroke-width="1.5" stroke-linecap="round"/>
</g>
<defs>
<clipPath id="clip0_12_78613">
<rect width="24" height="24" fill="white" transform="translate(0.669922)"/>
</clipPath>
</defs>
</svg>
