<svg width="25" height="24" viewBox="0 0 25 24" fill="none" xmlns="http://www.w3.org/2000/svg">
<path d="M17.6799 12.73C18.2708 12.73 18.7498 12.251 18.7498 11.66C18.7498 11.0691 18.2708 10.5901 17.6799 10.5901C17.0889 10.5901 16.6099 11.0691 16.6099 11.66C16.6099 12.251 17.0889 12.73 17.6799 12.73Z" stroke="#292D32" stroke-width="1.5" stroke-linecap="round" stroke-linejoin="round"/>
<path d="M20.6699 6V7.78998C20.4199 7.75998 20.1299 7.73999 19.8199 7.73999H15.5399C13.3999 7.73999 12.6899 8.45003 12.6899 10.59V15.7H6.66992C3.46992 15.7 2.66992 14.9 2.66992 11.7V6C2.66992 2.8 3.46992 2 6.66992 2H16.6699C19.8699 2 20.6699 2.8 20.6699 6Z" stroke="#292D32" stroke-width="1.5" stroke-linecap="round" stroke-linejoin="round"/>
<path opacity="0.4" d="M2.66992 11.8999H12.6699" stroke="#292D32" stroke-width="1.5" stroke-linecap="round" stroke-linejoin="round"/>
<g opacity="0.4">
<path d="M9.66992 15.7V19.9999" stroke="#292D32" stroke-width="1.5" stroke-linecap="round" stroke-linejoin="round"/>
<path d="M6.62012 20H12.6701" stroke="#292D32" stroke-width="1.5" stroke-linecap="round" stroke-linejoin="round"/>
</g>
<path d="M17.6799 12.73C18.2708 12.73 18.7498 12.251 18.7498 11.66C18.7498 11.0691 18.2708 10.5901 17.6799 10.5901C17.0889 10.5901 16.6099 11.0691 16.6099 11.66C16.6099 12.251 17.0889 12.73 17.6799 12.73Z" stroke="#292D32" stroke-width="1.5" stroke-miterlimit="10" stroke-linecap="round" stroke-linejoin="round"/>
<path d="M22.67 10.59V19.15C22.67 21.29 21.9599 22 19.8199 22H15.5399C13.3999 22 12.6899 21.29 12.6899 19.15V10.59C12.6899 8.45003 13.3999 7.73999 15.5399 7.73999H19.8199C20.1299 7.73999 20.42 7.75998 20.67 7.78998C22.15 7.97998 22.67 8.76003 22.67 10.59Z" stroke="#292D32" stroke-width="1.5" stroke-miterlimit="10" stroke-linecap="round" stroke-linejoin="round"/>
<path d="M19.82 17.0101C19.82 18.1901 18.8601 19.1501 17.6801 19.1501C16.5001 19.1501 15.54 18.1901 15.54 17.0101C15.54 16.5201 15.7101 16.0601 15.9901 15.7001C16.3801 15.2001 16.9901 14.8701 17.6801 14.8701C18.2201 14.8701 18.71 15.0701 19.08 15.3901C19.53 15.7901 19.82 16.3701 19.82 17.0101Z" stroke="#292D32" stroke-width="1.5" stroke-miterlimit="10" stroke-linecap="round" stroke-linejoin="round"/>
<path d="M17.6799 12.73C18.2708 12.73 18.7498 12.251 18.7498 11.66C18.7498 11.0691 18.2708 10.5901 17.6799 10.5901C17.0889 10.5901 16.6099 11.0691 16.6099 11.66C16.6099 12.251 17.0889 12.73 17.6799 12.73Z" stroke="#292D32" stroke-width="1.5" stroke-miterlimit="10" stroke-linecap="round" stroke-linejoin="round"/>
</svg>
