<svg width="25" height="24" viewBox="0 0 25 24" fill="none" xmlns="http://www.w3.org/2000/svg">
<g opacity="0.4">
<path d="M12.6699 9V2L10.6699 4" stroke="#292D32" stroke-width="1.5" stroke-linecap="round" stroke-linejoin="round"/>
<path d="M12.6699 2L14.6699 4" stroke="#292D32" stroke-width="1.5" stroke-linecap="round" stroke-linejoin="round"/>
</g>
<path opacity="0.4" d="M2.65039 13H7.06039C7.44039 13 7.78039 13.21 7.95039 13.55L9.12039 15.89C9.46039 16.57 10.1504 17 10.9104 17H14.4404C15.2004 17 15.8904 16.57 16.2304 15.89L17.4004 13.55C17.5704 13.21 17.9204 13 18.2904 13H22.6504" stroke="#292D32" stroke-width="1.5" stroke-linecap="round" stroke-linejoin="round"/>
<path d="M7.66992 5.12988C4.12992 5.64988 2.66992 7.72988 2.66992 11.9999V14.9999C2.66992 19.9999 4.66992 21.9999 9.66992 21.9999H15.6699C20.6699 21.9999 22.6699 19.9999 22.6699 14.9999V11.9999C22.6699 7.72988 21.2099 5.64988 17.6699 5.12988" stroke="#292D32" stroke-width="1.5" stroke-linecap="round" stroke-linejoin="round"/>
</svg>
