<svg width="25" height="24" viewBox="0 0 25 24" fill="none" xmlns="http://www.w3.org/2000/svg">
<path opacity="0.4" d="M17.1897 5.65039L14.0897 3.25039C13.6897 2.85039 12.7897 2.65039 12.1897 2.65039H8.38965C7.18965 2.65039 5.88965 3.55039 5.58965 4.75039L3.18965 12.0504C2.68965 13.4504 3.58965 14.6504 5.08965 14.6504H9.08965C9.68965 14.6504 10.1897 15.1504 10.0897 15.8504L9.58965 19.0504C9.38965 19.9504 9.98965 20.9504 10.8897 21.2504C11.6897 21.5504 12.6897 21.1504 13.0897 20.5504L17.1897 14.4504" stroke="#292D32" stroke-width="1.5" stroke-miterlimit="10"/>
<path d="M22.29 5.65049V15.4505C22.29 16.8505 21.69 17.3505 20.29 17.3505H19.29C17.89 17.3505 17.29 16.8505 17.29 15.4505V5.65049C17.29 4.25049 17.89 3.75049 19.29 3.75049H20.29C21.69 3.75049 22.29 4.25049 22.29 5.65049Z" stroke="#292D32" stroke-width="1.5" stroke-linecap="round" stroke-linejoin="round"/>
</svg>
