<svg width="25" height="24" viewBox="0 0 25 24" fill="none" xmlns="http://www.w3.org/2000/svg">
<path d="M21.6699 7V17C21.6699 20 20.1699 22 16.6699 22H8.66992C5.16992 22 3.66992 20 3.66992 17V7C3.66992 4 5.16992 2 8.66992 2H16.6699C20.1699 2 21.6699 4 21.6699 7Z" stroke="#292D32" stroke-width="1.5" stroke-miterlimit="10" stroke-linecap="round" stroke-linejoin="round"/>
<path opacity="0.4" d="M15.1699 4.5V6.5C15.1699 7.6 16.0699 8.5 17.1699 8.5H19.1699" stroke="#292D32" stroke-width="1.5" stroke-miterlimit="10" stroke-linecap="round" stroke-linejoin="round"/>
<path opacity="0.4" d="M8.15006 15.49C7.82006 14.46 8.21003 13.19 9.28003 12.84C9.85003 12.66 10.55 12.81 10.94 13.36C11.31 12.79 12.04 12.66 12.6 12.84C13.68 13.19 14.0601 14.46 13.7401 15.49C13.2301 17.12 11.44 17.9699 10.94 17.9699C10.45 17.9599 8.68006 17.13 8.15006 15.49Z" stroke="#292D32" stroke-width="1.5" stroke-linecap="round" stroke-linejoin="round"/>
</svg>
