<svg width="25" height="24" viewBox="0 0 25 24" fill="none" xmlns="http://www.w3.org/2000/svg">
<path d="M14.6699 2H9.66992C4.66992 2 2.66992 4 2.66992 9V15C2.66992 20 4.66992 22 9.66992 22" stroke="#292D32" stroke-width="1.5" stroke-linecap="round" stroke-linejoin="round"/>
<path d="M22.6699 10V13" stroke="#292D32" stroke-width="1.5" stroke-linecap="round" stroke-linejoin="round"/>
<path d="M22.6699 10H18.6699C15.6699 10 14.6699 9 14.6699 6V2L22.6699 10Z" stroke="#292D32" stroke-width="1.5" stroke-linecap="round" stroke-linejoin="round"/>
<path opacity="0.4" d="M14.43 18.2601C12.08 18.4301 12.08 21.8301 14.43 22.0001H19.99C20.66 22.0001 21.32 21.7501 21.81 21.3001C23.46 19.8601 22.58 16.9801 20.41 16.7101C19.63 12.0201 12.85 13.8001 14.45 18.2701" stroke="#292D32" stroke-width="1.5" stroke-miterlimit="10" stroke-linecap="round" stroke-linejoin="round"/>
</svg>
