<svg width="25" height="24" viewBox="0 0 25 24" fill="none" xmlns="http://www.w3.org/2000/svg">
<path d="M22.6699 10V15C22.6699 20 20.6699 22 15.6699 22H9.66992C4.66992 22 2.66992 20 2.66992 15V9C2.66992 4 4.66992 2 9.66992 2H14.6699" stroke="#292D32" stroke-width="1.5" stroke-linecap="round" stroke-linejoin="round"/>
<path d="M22.6699 10H18.6699C15.6699 10 14.6699 9 14.6699 6V2L22.6699 10Z" stroke="#292D32" stroke-width="1.5" stroke-linecap="round" stroke-linejoin="round"/>
<path opacity="0.4" d="M7.2897 15.73C6.9597 14.7 7.3497 13.43 8.4197 13.08C8.9897 12.9 9.6897 13.05 10.0797 13.6C10.4497 13.03 11.1797 12.9 11.7397 13.08C12.8197 13.43 13.1997 14.7 12.8797 15.73C12.3697 17.36 10.5797 18.21 10.0797 18.21C9.5897 18.2 7.8197 17.37 7.2897 15.73Z" stroke="#292D32" stroke-width="1.5" stroke-linecap="round" stroke-linejoin="round"/>
</svg>
