<svg width="25" height="24" viewBox="0 0 25 24" fill="none" xmlns="http://www.w3.org/2000/svg">
<path d="M15.2191 2H10.1191C8.31914 2 7.91915 2.90001 7.68915 4.01001L6.86914 7.92999H18.4691L17.6491 4.01001C17.4191 2.90001 17.0191 2 15.2191 2Z" stroke="#292D32" stroke-width="1.5" stroke-linecap="round" stroke-linejoin="round"/>
<path d="M19.9095 14.3199C19.9895 15.1699 19.3095 15.9 18.4395 15.9H17.0795C16.2995 15.9 16.1895 15.57 16.0495 15.15L15.8995 14.7199C15.6995 14.1299 15.5695 13.7299 14.5195 13.7299H10.8095C9.76949 13.7299 9.60948 14.1799 9.42948 14.7199L9.27949 15.15C9.13949 15.56 9.02949 15.9 8.24949 15.9H6.88949C6.01949 15.9 5.33949 15.1699 5.41949 14.3199L5.82949 9.89996C5.92949 8.80996 6.13948 7.91992 8.03948 7.91992H17.2895C19.1895 7.91992 19.3995 8.80996 19.4995 9.89996L19.9095 14.3199Z" stroke="#292D32" stroke-width="1.5" stroke-linecap="round" stroke-linejoin="round"/>
<path d="M6.86964 5.75H6.13965" stroke="#292D32" stroke-width="1.5" stroke-linecap="round" stroke-linejoin="round"/>
<path d="M19.1997 5.75H18.4697" stroke="#292D32" stroke-width="1.5" stroke-linecap="round" stroke-linejoin="round"/>
<path opacity="0.4" d="M8.31934 10.8301H10.4893" stroke="#292D32" stroke-width="1.5" stroke-linecap="round" stroke-linejoin="round"/>
<path opacity="0.4" d="M14.8496 10.8301H17.0196" stroke="#292D32" stroke-width="1.5" stroke-linecap="round" stroke-linejoin="round"/>
<path opacity="0.4" d="M12.6699 17V18" stroke="#292D32" stroke-width="1.5" stroke-linecap="round" stroke-linejoin="round"/>
<path opacity="0.4" d="M12.6699 21V22" stroke="#292D32" stroke-width="1.5" stroke-linecap="round" stroke-linejoin="round"/>
<path opacity="0.4" d="M3.66992 18L2.66992 22" stroke="#292D32" stroke-width="1.5" stroke-linecap="round" stroke-linejoin="round"/>
<path opacity="0.4" d="M21.6699 18L22.6699 22" stroke="#292D32" stroke-width="1.5" stroke-linecap="round" stroke-linejoin="round"/>
</svg>
