<svg width="25" height="24" viewBox="0 0 25 24" fill="none" xmlns="http://www.w3.org/2000/svg">
<path opacity="0.4" d="M11.6699 2H9.66992C4.66992 2 2.66992 4 2.66992 9V15C2.66992 20 4.66992 22 9.66992 22H15.6699C20.6699 22 22.6699 20 22.6699 15V13" stroke="#292D32" stroke-width="1.5" stroke-linecap="round" stroke-linejoin="round"/>
<path d="M16.7098 3.02001L8.8298 10.9C8.5298 11.2 8.2298 11.79 8.1698 12.22L7.7398 15.23C7.5798 16.32 8.3498 17.08 9.4398 16.93L12.4498 16.5C12.8698 16.44 13.4598 16.14 13.7698 15.84L21.6498 7.96001C23.0098 6.60001 23.6498 5.02001 21.6498 3.02001C19.6498 1.02001 18.0698 1.66001 16.7098 3.02001Z" stroke="#292D32" stroke-width="1.5" stroke-miterlimit="10" stroke-linecap="round" stroke-linejoin="round"/>
<path opacity="0.4" d="M15.5801 4.15002C16.2501 6.54002 18.1201 8.41002 20.5201 9.09002" stroke="#292D32" stroke-width="1.5" stroke-miterlimit="10" stroke-linecap="round" stroke-linejoin="round"/>
</svg>
