<svg width="25" height="24" viewBox="0 0 25 24" fill="none" xmlns="http://www.w3.org/2000/svg">
<path d="M22.6699 8.27V4.23C22.6699 2.64 22.0299 2 20.4399 2H16.3999C14.8099 2 14.1699 2.64 14.1699 4.23V8.27C14.1699 9.86 14.8099 10.5 16.3999 10.5H20.4399C22.0299 10.5 22.6699 9.86 22.6699 8.27Z" stroke="#292D32" stroke-width="1.5" stroke-linecap="round" stroke-linejoin="round"/>
<path d="M11.1699 8.52V3.98C11.1699 2.57 10.5299 2 8.93992 2H4.89992C3.30992 2 2.66992 2.57 2.66992 3.98V8.51C2.66992 9.93 3.30992 10.49 4.89992 10.49H8.93992C10.5299 10.5 11.1699 9.93 11.1699 8.52Z" stroke="#292D32" stroke-width="1.5" stroke-linecap="round" stroke-linejoin="round"/>
<path d="M11.1699 19.77V15.73C11.1699 14.14 10.5299 13.5 8.93992 13.5H4.89992C3.30992 13.5 2.66992 14.14 2.66992 15.73V19.77C2.66992 21.36 3.30992 22 4.89992 22H8.93992C10.5299 22 11.1699 21.36 11.1699 19.77Z" stroke="#292D32" stroke-width="1.5" stroke-linecap="round" stroke-linejoin="round"/>
<g opacity="0.4">
<path d="M15.1699 17.5H21.1699" stroke="#292D32" stroke-width="1.5" stroke-linecap="round"/>
<path d="M18.1699 20.5V14.5" stroke="#292D32" stroke-width="1.5" stroke-linecap="round"/>
</g>
</svg>
