<svg width="25" height="24" viewBox="0 0 25 24" fill="none" xmlns="http://www.w3.org/2000/svg">
<path d="M9.66992 22H15.6699C20.6699 22 22.6699 20 22.6699 15V9C22.6699 4 20.6699 2 15.6699 2H9.66992C4.66992 2 2.66992 4 2.66992 9V15C2.66992 20 4.66992 22 9.66992 22Z" stroke="#292D32" stroke-width="1.5" stroke-linecap="round" stroke-linejoin="round"/>
<path opacity="0.4" d="M16.1699 9.75C16.9983 9.75 17.6699 9.07843 17.6699 8.25C17.6699 7.42157 16.9983 6.75 16.1699 6.75C15.3415 6.75 14.6699 7.42157 14.6699 8.25C14.6699 9.07843 15.3415 9.75 16.1699 9.75Z" stroke="#292D32" stroke-width="1.5" stroke-miterlimit="10" stroke-linecap="round" stroke-linejoin="round"/>
<path opacity="0.4" d="M9.16992 9.75C9.99835 9.75 10.6699 9.07843 10.6699 8.25C10.6699 7.42157 9.99835 6.75 9.16992 6.75C8.34149 6.75 7.66992 7.42157 7.66992 8.25C7.66992 9.07843 8.34149 9.75 9.16992 9.75Z" stroke="#292D32" stroke-width="1.5" stroke-miterlimit="10" stroke-linecap="round" stroke-linejoin="round"/>
<path opacity="0.4" d="M9.06992 13.3H16.2699C16.7699 13.3 17.1699 13.7 17.1699 14.2C17.1699 16.69 15.1599 18.7 12.6699 18.7C10.1799 18.7 8.16992 16.69 8.16992 14.2C8.16992 13.7 8.56992 13.3 9.06992 13.3Z" stroke="#292D32" stroke-width="1.5" stroke-miterlimit="10" stroke-linecap="round" stroke-linejoin="round"/>
</svg>
