<svg width="25" height="24" viewBox="0 0 25 24" fill="none" xmlns="http://www.w3.org/2000/svg">
<path d="M18.7168 13.55C18.2968 13.96 18.0568 14.55 18.1168 15.18C18.2068 16.26 19.1968 17.05 20.2768 17.05H22.1768V18.24C22.1768 20.31 20.4868 22 18.4168 22H8.31676C9.14676 21.27 9.67676 20.2 9.67676 19C9.67676 16.79 7.88676 15 5.67676 15C4.73676 15 3.86676 15.33 3.17676 15.88V11.51C3.17676 9.44001 4.86675 7.75 6.93675 7.75H18.4168C20.4868 7.75 22.1768 9.44001 22.1768 11.51V12.95H20.1568C19.5968 12.95 19.0868 13.17 18.7168 13.55Z" stroke="#292D32" stroke-width="1.5" stroke-linecap="round" stroke-linejoin="round"/>
<path opacity="0.4" d="M3.17676 11.51V7.84002C3.17676 6.65002 3.90675 5.58997 5.01675 5.16997L12.9568 2.16997C14.1968 1.70997 15.5268 2.62 15.5268 3.95V7.74999" stroke="#292D32" stroke-width="1.5" stroke-linecap="round" stroke-linejoin="round"/>
<path d="M23.2365 13.9699V16.03C23.2365 16.58 22.7965 17.0299 22.2365 17.0499H20.2765C19.1965 17.0499 18.2065 16.2599 18.1165 15.1799C18.0565 14.5499 18.2965 13.9599 18.7165 13.5499C19.0865 13.1699 19.5965 12.95 20.1565 12.95H22.2365C22.7965 12.97 23.2365 13.4199 23.2365 13.9699Z" stroke="#292D32" stroke-width="1.5" stroke-linecap="round" stroke-linejoin="round"/>
<path opacity="0.4" d="M7.67676 12H14.6768" stroke="#292D32" stroke-width="1.5" stroke-linecap="round" stroke-linejoin="round"/>
<path d="M9.67676 19C9.67676 20.2 9.14676 21.27 8.31676 22C7.60676 22.62 6.68676 23 5.67676 23C3.46676 23 1.67676 21.21 1.67676 19C1.67676 17.74 2.25676 16.61 3.17676 15.88C3.86676 15.33 4.73676 15 5.67676 15C7.88676 15 9.67676 16.79 9.67676 19Z" stroke="#292D32" stroke-width="1.5" stroke-miterlimit="10" stroke-linecap="round" stroke-linejoin="round"/>
<path d="M5.92676 17.75V19.25L4.67676 20" stroke="#292D32" stroke-width="1.5" stroke-miterlimit="10" stroke-linecap="round" stroke-linejoin="round"/>
</svg>
