<svg width="25" height="24" viewBox="0 0 25 24" fill="none" xmlns="http://www.w3.org/2000/svg">
<path d="M18.7099 13.55C18.2899 13.96 18.0499 14.55 18.1099 15.18C18.1999 16.26 19.1899 17.05 20.2699 17.05H22.1699V18.24C22.1699 20.31 20.4799 22 18.4099 22H8.29992C8.60992 21.74 8.87992 21.42 9.08992 21.06C9.45992 20.46 9.66992 19.75 9.66992 19C9.66992 16.79 7.87992 15 5.66992 15C4.72992 15 3.85992 15.33 3.16992 15.88V11.51C3.16992 9.44001 4.85992 7.75 6.92992 7.75H18.4099C20.4799 7.75 22.1699 9.44001 22.1699 11.51V12.95H20.1499C19.5899 12.95 19.0799 13.17 18.7099 13.55Z" stroke="#292D32" stroke-width="1.5" stroke-linecap="round" stroke-linejoin="round"/>
<path opacity="0.4" d="M3.16992 12.4101V7.8401C3.16992 6.6501 3.89992 5.59006 5.00992 5.17006L12.9499 2.17006C14.1899 1.70006 15.5199 2.62009 15.5199 3.95009V7.75008" stroke="#292D32" stroke-width="1.5" stroke-linecap="round" stroke-linejoin="round"/>
<path d="M23.2297 13.9699V16.03C23.2297 16.58 22.7897 17.0299 22.2297 17.0499H20.2697C19.1897 17.0499 18.1997 16.2599 18.1097 15.1799C18.0497 14.5499 18.2897 13.9599 18.7097 13.5499C19.0797 13.1699 19.5897 12.95 20.1497 12.95H22.2297C22.7897 12.97 23.2297 13.4199 23.2297 13.9699Z" stroke="#292D32" stroke-width="1.5" stroke-linecap="round" stroke-linejoin="round"/>
<path opacity="0.4" d="M7.66992 12H14.6699" stroke="#292D32" stroke-width="1.5" stroke-linecap="round" stroke-linejoin="round"/>
<path d="M9.66992 19C9.66992 19.75 9.45992 20.46 9.08992 21.06C8.87992 21.42 8.60992 21.74 8.29992 22C7.59992 22.63 6.67992 23 5.66992 23C4.20992 23 2.93992 22.22 2.24992 21.06C1.87992 20.46 1.66992 19.75 1.66992 19C1.66992 17.74 2.24992 16.61 3.16992 15.88C3.85992 15.33 4.72992 15 5.66992 15C7.87992 15 9.66992 16.79 9.66992 19Z" stroke="#292D32" stroke-width="1.5" stroke-miterlimit="10" stroke-linecap="round" stroke-linejoin="round"/>
<path d="M6.73914 20.0399L4.61914 17.9299" stroke="#292D32" stroke-width="1.5" stroke-miterlimit="10" stroke-linecap="round" stroke-linejoin="round"/>
<path d="M6.71961 17.96L4.59961 20.0699" stroke="#292D32" stroke-width="1.5" stroke-miterlimit="10" stroke-linecap="round" stroke-linejoin="round"/>
</svg>
