<svg width="25" height="24" viewBox="0 0 25 24" fill="none" xmlns="http://www.w3.org/2000/svg">
<path d="M11.1198 3.05L7.38983 7.71C6.53983 8.77 6.83983 10.13 8.04983 10.73L11.7798 12.6C12.2698 12.84 13.0698 12.84 13.5598 12.6L17.2898 10.73C18.4998 10.12 18.7998 8.76 17.9498 7.71L14.2198 3.05C13.3698 1.98 11.9698 1.98 11.1198 3.05Z" stroke="black" stroke-width="1.5" stroke-miterlimit="10" stroke-linecap="round" stroke-linejoin="round"/>
<path d="M12.6699 2.3V7.56" stroke="black" stroke-width="1.5" stroke-miterlimit="10" stroke-linecap="round" stroke-linejoin="round"/>
<path d="M8.46973 10.71L12.6697 7.56L16.8697 10.71" stroke="black" stroke-width="1.5" stroke-miterlimit="10" stroke-linecap="round" stroke-linejoin="round"/>
<path opacity="0.4" d="M9.44003 14.43L11.05 15.15C12.08 15.61 13.26 15.61 14.3 15.15L15.91 14.43C17.35 13.79 18.68 15.53 17.68 16.75L14.22 20.98C13.37 22.02 11.98 22.02 11.12 20.98L7.67003 16.75C6.66003 15.53 7.99003 13.79 9.44003 14.43Z" stroke="black" stroke-width="1.5" stroke-miterlimit="10" stroke-linecap="round" stroke-linejoin="round"/>
</svg>
