<svg width="25" height="24" viewBox="0 0 25 24" fill="none" xmlns="http://www.w3.org/2000/svg">
<path d="M22.6699 13V9C22.6699 4 20.6699 2 15.6699 2H9.66992C4.66992 2 2.66992 4 2.66992 9V15C2.66992 20 4.66992 22 9.66992 22H13.6699" stroke="#292D32" stroke-width="1.5" stroke-linecap="round" stroke-linejoin="round"/>
<path opacity="0.4" d="M8 14.4898L10.38 11.3998C10.72 10.9598 11.35 10.8798 11.79 11.2198L13.62 12.6598C14.06 12.9998 14.69 12.9198 15.03 12.4898L17.34 9.50977" stroke="#292D32" stroke-width="1.5" stroke-linecap="round" stroke-linejoin="round"/>
<path d="M20.1501 15.8199L20.4301 16.3899C20.5701 16.6699 20.9201 16.9299 21.2301 16.9899L21.6101 17.0499C22.7501 17.2399 23.0201 18.0799 22.2001 18.9099L21.8501 19.2599C21.6201 19.4999 21.4901 19.9599 21.5601 20.2799L21.6101 20.4899C21.9201 21.8699 21.1901 22.3999 19.9901 21.6799L19.7301 21.5299C19.4201 21.3499 18.9201 21.3499 18.6101 21.5299L18.3501 21.6799C17.1401 22.4099 16.4101 21.8699 16.7301 20.4899L16.7801 20.2799C16.8501 19.9599 16.7201 19.4999 16.4901 19.2599L16.1401 18.9099C15.3201 18.0799 15.5901 17.2399 16.7301 17.0499L17.1101 16.9899C17.4101 16.9399 17.7701 16.6699 17.9101 16.3899L18.1901 15.8199C18.7301 14.7299 19.6101 14.7299 20.1501 15.8199Z" stroke="#292D32" stroke-width="1.5" stroke-linecap="round" stroke-linejoin="round"/>
</svg>
