<svg width="25" height="24" viewBox="0 0 25 24" fill="none" xmlns="http://www.w3.org/2000/svg">
<path d="M22.2998 14.75C22.2998 15.64 22.0498 16.48 21.6098 17.2C20.7898 18.58 19.2798 19.5 17.5498 19.5C15.8198 19.5 14.3098 18.57 13.4898 17.2C13.0498 16.49 12.7998 15.64 12.7998 14.75C12.7998 12.13 14.9298 10 17.5498 10C20.1698 10 22.2998 12.13 22.2998 14.75Z" stroke="#292D32" stroke-width="1.5" stroke-miterlimit="10" stroke-linecap="round" stroke-linejoin="round"/>
<path d="M19.3303 14.73H15.7803" stroke="#292D32" stroke-width="1.5" stroke-miterlimit="10" stroke-linecap="round" stroke-linejoin="round"/>
<path d="M17.5498 13V16.55" stroke="#292D32" stroke-width="1.5" stroke-miterlimit="10" stroke-linecap="round" stroke-linejoin="round"/>
<path opacity="0.4" d="M21.3595 4.02002V6.23999C21.3595 7.04999 20.8495 8.06001 20.3495 8.57001L18.5895 10.12C18.2595 10.04 17.9095 10 17.5495 10C14.9295 10 12.7995 12.13 12.7995 14.75C12.7995 15.64 13.0495 16.48 13.4895 17.2C13.8595 17.82 14.3695 18.35 14.9895 18.73V19.07C14.9895 19.68 14.5895 20.49 14.0795 20.79L12.6695 21.7C11.3595 22.51 9.53949 21.6 9.53949 19.98V14.63C9.53949 13.92 9.12949 13.01 8.72949 12.51L4.88949 8.46997C4.38949 7.95997 3.97949 7.05001 3.97949 6.45001V4.12C3.97949 2.91 4.88949 2 5.99949 2H19.3395C20.4495 2 21.3595 2.91002 21.3595 4.02002Z" stroke="#292D32" stroke-width="1.5" stroke-miterlimit="10" stroke-linecap="round" stroke-linejoin="round"/>
</svg>
