<svg width="25" height="24" viewBox="0 0 25 24" fill="none" xmlns="http://www.w3.org/2000/svg">
<path d="M6.07031 2.10001H19.2703C20.3703 2.10001 21.2703 3.00001 21.2703 4.10001V6.30001C21.2703 7.10001 20.7703 8.10001 20.2703 8.60001L15.9703 12.4C15.3703 12.9 14.9703 13.9 14.9703 14.7V19C14.9703 19.6 14.5703 20.4 14.0703 20.7L12.6703 21.6C11.3703 22.4 9.57031 21.5 9.57031 19.9V14.6C9.57031 13.9 9.17031 13 8.77031 12.5L4.97031 8.50001C4.47031 8.00001 4.07031 7.10001 4.07031 6.50001V4.20001C4.07031 3.00001 4.97031 2.10001 6.07031 2.10001Z" stroke="#292D32" stroke-width="1.5" stroke-miterlimit="10" stroke-linecap="round" stroke-linejoin="round"/>
<path opacity="0.4" d="M11.5999 2.10001L6.66992 10" stroke="#292D32" stroke-width="1.5" stroke-miterlimit="10" stroke-linecap="round" stroke-linejoin="round"/>
</svg>
