<svg width="25" height="24" viewBox="0 0 25 24" fill="none" xmlns="http://www.w3.org/2000/svg">
<path opacity="0.4" d="M8.82992 6.64999H16.4999C17.1399 6.64999 17.6599 7.16999 17.6599 7.80999V9.08999C17.6599 9.55999 17.3699 10.14 17.0799 10.43L14.5799 12.64C14.2299 12.93 13.9999 13.51 13.9999 13.98V16.48C13.9999 16.83 13.7699 17.29 13.4799 17.47L12.6699 17.98C11.9099 18.45 10.8699 17.92 10.8699 16.99V13.91C10.8699 13.5 10.6399 12.98 10.3999 12.69L8.18992 10.36C7.89992 10.08 7.66992 9.54999 7.66992 9.19999V7.86999C7.66992 7.16999 8.18992 6.64999 8.82992 6.64999Z" stroke="#292D32" stroke-width="1.5" stroke-miterlimit="10" stroke-linecap="round" stroke-linejoin="round"/>
<path d="M9.66992 22H15.6699C20.6699 22 22.6699 20 22.6699 15V9C22.6699 4 20.6699 2 15.6699 2H9.66992C4.66992 2 2.66992 4 2.66992 9V15C2.66992 20 4.66992 22 9.66992 22Z" stroke="#292D32" stroke-width="1.5" stroke-linecap="round" stroke-linejoin="round"/>
</svg>
