<svg width="25" height="24" viewBox="0 0 25 24" fill="none" xmlns="http://www.w3.org/2000/svg">
<path d="M22.3397 14.3L21.9397 19.3C21.7897 20.83 21.6697 22 18.9597 22H6.37969C3.66969 22 3.54969 20.83 3.39969 19.3L2.99969 14.3C2.91969 13.47 3.17969 12.7 3.64969 12.11C3.65969 12.1 3.65969 12.1 3.66969 12.09C4.21969 11.42 5.04969 11 5.97969 11H19.3597C20.2897 11 21.1097 11.42 21.6497 12.07C21.6597 12.08 21.6697 12.09 21.6697 12.1C22.1597 12.69 22.4297 13.46 22.3397 14.3Z" stroke="#292D32" stroke-width="1.5" stroke-miterlimit="10"/>
<path opacity="0.4" d="M4.16992 11.43V6.28003C4.16992 2.88003 5.01992 2.03003 8.41992 2.03003H9.68992C10.9599 2.03003 11.2499 2.41003 11.7299 3.05003L12.9999 4.75003C13.3199 5.17003 13.5099 5.43003 14.3599 5.43003H16.9099C20.3099 5.43003 21.1599 6.28003 21.1599 9.68003V11.47" stroke="#292D32" stroke-width="1.5" stroke-miterlimit="10" stroke-linecap="round" stroke-linejoin="round"/>
<path opacity="0.4" d="M10.0996 17H15.2396" stroke="#292D32" stroke-width="1.5" stroke-miterlimit="10" stroke-linecap="round" stroke-linejoin="round"/>
</svg>
