<svg width="25" height="24" viewBox="0 0 25 24" fill="none" xmlns="http://www.w3.org/2000/svg">
<path opacity="0.4" d="M12.6699 16V19" stroke="#292D32" stroke-width="1.5" stroke-miterlimit="10" stroke-linecap="round" stroke-linejoin="round"/>
<path d="M12.6699 23C13.7745 23 14.6699 22.1046 14.6699 21C14.6699 19.8954 13.7745 19 12.6699 19C11.5654 19 10.6699 19.8954 10.6699 21C10.6699 22.1046 11.5654 23 12.6699 23Z" stroke="#292D32" stroke-width="1.5" stroke-miterlimit="10" stroke-linecap="round" stroke-linejoin="round"/>
<path opacity="0.4" d="M18.6699 21H14.6699" stroke="#292D32" stroke-width="1.5" stroke-miterlimit="10" stroke-linecap="round" stroke-linejoin="round"/>
<path opacity="0.4" d="M10.6699 21H6.66992" stroke="#292D32" stroke-width="1.5" stroke-miterlimit="10" stroke-linecap="round" stroke-linejoin="round"/>
<path d="M19.6699 8.30005V12.5C19.6699 15.3 18.9699 16 16.1699 16H9.16992C6.36992 16 5.66992 15.3 5.66992 12.5V5.5C5.66992 2.7 6.36992 2 9.16992 2H10.2199C11.2699 2 11.4999 2.30997 11.8999 2.83997L12.95 4.23999C13.22 4.58999 13.3699 4.80005 14.0699 4.80005H16.1699C18.9699 4.80005 19.6699 5.50005 19.6699 8.30005Z" stroke="#292D32" stroke-width="1.5" stroke-miterlimit="10"/>
</svg>
