<svg width="25" height="24" viewBox="0 0 25 24" fill="none" xmlns="http://www.w3.org/2000/svg">
<path d="M22.1697 5.35C22.1697 6.26 21.7397 7.07 21.0797 7.59C20.5997 7.97 19.9897 8.2 19.3197 8.2C17.7397 8.2 16.4697 6.93 16.4697 5.35C16.4697 4.68 16.6997 4.08 17.0797 3.59H17.0897C17.5997 2.93 18.4097 2.5 19.3197 2.5C20.8997 2.5 22.1697 3.77 22.1697 5.35Z" stroke="#292D32" stroke-width="1.5" stroke-linecap="round" stroke-linejoin="round"/>
<path d="M8.86992 5.35C8.86992 6.93 7.59992 8.2 6.01992 8.2C5.34992 8.2 4.74992 7.97 4.25992 7.59C3.59992 7.07 3.16992 6.26 3.16992 5.35C3.16992 3.77 4.43992 2.5 6.01992 2.5C6.92992 2.5 7.73992 2.93 8.25992 3.59C8.63992 4.08 8.86992 4.68 8.86992 5.35Z" stroke="#292D32" stroke-width="1.5" stroke-linecap="round" stroke-linejoin="round"/>
<path d="M22.1697 18.65C22.1697 20.23 20.8997 21.5 19.3197 21.5C18.4097 21.5 17.5997 21.07 17.0897 20.41H17.0797C16.6997 19.93 16.4697 19.32 16.4697 18.65C16.4697 17.07 17.7397 15.8 19.3197 15.8C19.9897 15.8 20.5897 16.03 21.0797 16.41V16.42C21.7397 16.93 22.1697 17.74 22.1697 18.65Z" stroke="#292D32" stroke-width="1.5" stroke-linecap="round" stroke-linejoin="round"/>
<path d="M8.86992 18.65C8.86992 19.32 8.63992 19.92 8.25992 20.41C7.73992 21.08 6.92992 21.5 6.01992 21.5C4.43992 21.5 3.16992 20.23 3.16992 18.65C3.16992 17.74 3.59992 16.93 4.25992 16.42V16.41C4.73992 16.03 5.34992 15.8 6.01992 15.8C7.59992 15.8 8.86992 17.07 8.86992 18.65Z" stroke="#292D32" stroke-width="1.5" stroke-linecap="round" stroke-linejoin="round"/>
<path opacity="0.4" d="M22.1699 12C22.1699 13.6 21.7799 15.09 21.0799 16.41C20.5999 16.03 19.9899 15.8 19.3199 15.8C17.7399 15.8 16.4699 17.07 16.4699 18.65C16.4699 19.32 16.6999 19.92 17.0799 20.41C15.7599 21.11 14.2699 21.5 12.6699 21.5C11.0799 21.5 9.57992 21.11 8.25992 20.41C8.63992 19.93 8.86992 19.32 8.86992 18.65C8.86992 17.07 7.59992 15.8 6.01992 15.8C5.34992 15.8 4.74992 16.03 4.25992 16.41C3.55992 15.09 3.16992 13.6 3.16992 12C3.16992 10.41 3.55992 8.91 4.25992 7.59C4.74992 7.97 5.34992 8.2 6.01992 8.2C7.59992 8.2 8.86992 6.93 8.86992 5.35C8.86992 4.68 8.63992 4.08 8.25992 3.59C9.57992 2.89 11.0799 2.5 12.6699 2.5C14.2699 2.5 15.7599 2.89 17.0799 3.59C16.6999 4.07 16.4699 4.68 16.4699 5.35C16.4699 6.93 17.7399 8.2 19.3199 8.2C19.9899 8.2 20.5899 7.97 21.0799 7.59C21.7799 8.91 22.1699 10.41 22.1699 12Z" stroke="#292D32" stroke-width="1.5" stroke-linecap="round" stroke-linejoin="round"/>
</svg>
