<svg width="25" height="24" viewBox="0 0 25 24" fill="none" xmlns="http://www.w3.org/2000/svg">
<path d="M14.6499 4.46997L12.6699 2" stroke="#292D32" stroke-width="1.5" stroke-linecap="round" stroke-linejoin="round"/>
<path d="M19.7603 7.79999C20.8703 9.27999 21.5603 11.11 21.5603 13.11C21.5603 18.02 17.5803 22 12.6703 22C7.76029 22 3.78027 18.02 3.78027 13.11C3.78027 8.19999 7.76029 4.21997 12.6703 4.21997C13.3503 4.21997 14.0103 4.31002 14.6503 4.46002" stroke="#292D32" stroke-width="1.5" stroke-linecap="round" stroke-linejoin="round"/>
<path opacity="0.4" d="M10.21 15.92V10.58L8.70996 12.25" stroke="#292D32" stroke-width="1.5" stroke-linecap="round" stroke-linejoin="round"/>
<path opacity="0.4" d="M14.6699 10.58C15.7699 10.58 16.6699 11.48 16.6699 12.58V13.93C16.6699 15.03 15.7699 15.93 14.6699 15.93C13.5699 15.93 12.6699 15.03 12.6699 13.93V12.58C12.6699 11.47 13.5699 10.58 14.6699 10.58Z" stroke="#292D32" stroke-width="1.5" stroke-linecap="round" stroke-linejoin="round"/>
</svg>
