<svg width="25" height="24" viewBox="0 0 25 24" fill="none" xmlns="http://www.w3.org/2000/svg">
<path opacity="0.4" d="M16.6296 10.83H13.5696L12.8096 13.12H15.0995C15.9395 13.12 16.6296 13.8 16.6296 14.65C16.6296 15.49 15.9495 16.18 15.0995 16.18H12.8096" stroke="#292D32" stroke-width="1.5" stroke-linecap="round" stroke-linejoin="round"/>
<path opacity="0.4" d="M10.21 16.17V10.83L8.70996 12.5" stroke="#292D32" stroke-width="1.5" stroke-linecap="round" stroke-linejoin="round"/>
<path d="M14.6499 4.46997L12.6699 2" stroke="#292D32" stroke-width="1.5" stroke-linecap="round" stroke-linejoin="round"/>
<path d="M19.7603 7.79999C20.8703 9.27999 21.5603 11.11 21.5603 13.11C21.5603 18.02 17.5803 22 12.6703 22C7.76029 22 3.78027 18.02 3.78027 13.11C3.78027 8.19999 7.76029 4.21997 12.6703 4.21997C13.3503 4.21997 14.0103 4.31002 14.6503 4.46002" stroke="#292D32" stroke-width="1.5" stroke-linecap="round" stroke-linejoin="round"/>
</svg>
