<svg width="25" height="24" viewBox="0 0 25 24" fill="none" xmlns="http://www.w3.org/2000/svg">
<path d="M18.0503 10.3799V13.6099C18.0503 16.2999 16.9703 17.3799 14.2803 17.3799H11.0503C8.36027 17.3799 7.28027 16.2999 7.28027 13.6099V10.3799C7.28027 7.68988 8.36027 6.60986 11.0503 6.60986H14.2803C16.9803 6.61986 18.0503 7.68988 18.0503 10.3799Z" stroke="#292D32" stroke-width="1.5" stroke-linecap="round" stroke-linejoin="round"/>
<path opacity="0.4" d="M22.6704 5.76999V9C22.6704 11.69 21.5904 12.77 18.9004 12.77H18.0504V10.39C18.0504 7.70001 16.9704 6.62 14.2804 6.62H11.9004V5.76999C11.9004 3.07999 12.9804 2 15.6704 2H18.9004C21.5904 2 22.6704 3.07999 22.6704 5.76999Z" stroke="#292D32" stroke-width="1.5" stroke-linecap="round" stroke-linejoin="round"/>
<path opacity="0.4" d="M2.66992 18.23V15C2.66992 12.31 3.74992 11.23 6.43992 11.23H7.28992V13.61C7.28992 16.3 8.36992 17.38 11.0599 17.38H13.4399V18.23C13.4399 20.92 12.3599 22 9.66992 22H6.43992C3.74992 22 2.66992 20.92 2.66992 18.23Z" stroke="#292D32" stroke-width="1.5" stroke-linecap="round" stroke-linejoin="round"/>
</svg>
