<svg width="25" height="24" viewBox="0 0 25 24" fill="none" xmlns="http://www.w3.org/2000/svg">
<path opacity="0.4" d="M11.6699 5V8H9.66992C9.11992 8 8.66992 8.45 8.66992 9V11H5.66992V9C5.66992 6.79 7.45992 5 9.66992 5H11.6699Z" stroke="black" stroke-width="1.5" stroke-miterlimit="10" stroke-linecap="round" stroke-linejoin="round"/>
<path opacity="0.4" d="M13.6699 19V16H15.6699C16.2199 16 16.6699 15.55 16.6699 15V13H19.6699V15C19.6699 17.21 17.8799 19 15.6699 19H13.6699Z" stroke="black" stroke-width="1.5" stroke-miterlimit="10" stroke-linecap="round" stroke-linejoin="round"/>
<path d="M15.6699 22H9.66992C4.66992 22 2.66992 20 2.66992 15V9C2.66992 4 4.66992 2 9.66992 2H15.6699C20.6699 2 22.6699 4 22.6699 9V15C22.6699 20 20.6699 22 15.6699 22Z" stroke="black" stroke-width="1.5" stroke-linecap="round" stroke-linejoin="round"/>
</svg>
