<svg width="25" height="24" viewBox="0 0 25 24" fill="none" xmlns="http://www.w3.org/2000/svg">
<path opacity="0.4" d="M9.66992 10C10.7745 10 11.6699 9.10457 11.6699 8C11.6699 6.89543 10.7745 6 9.66992 6C8.56535 6 7.66992 6.89543 7.66992 8C7.66992 9.10457 8.56535 10 9.66992 10Z" stroke="#292D32" stroke-width="1.5" stroke-linecap="round" stroke-linejoin="round"/>
<path d="M13.6699 2H9.66992C4.66992 2 2.66992 4 2.66992 9V15C2.66992 20 4.66992 22 9.66992 22H15.6699C20.6699 22 22.6699 20 22.6699 15V10" stroke="#292D32" stroke-width="1.5" stroke-linecap="round" stroke-linejoin="round"/>
<g opacity="0.4">
<path d="M17.2305 6.94006L21.1105 3.06006" stroke="#292D32" stroke-width="1.5" stroke-linecap="round"/>
<path d="M21.1105 6.94006L17.2305 3.06006" stroke="#292D32" stroke-width="1.5" stroke-linecap="round"/>
</g>
<path opacity="0.4" d="M3.33984 18.95L8.26984 15.64C9.05984 15.11 10.1998 15.17 10.9098 15.78L11.2398 16.07C12.0198 16.74 13.2798 16.74 14.0598 16.07L18.2198 12.5C18.9998 11.83 20.2598 11.83 21.0398 12.5L22.6698 13.9" stroke="#292D32" stroke-width="1.5" stroke-linecap="round" stroke-linejoin="round"/>
</svg>
