<svg width="25" height="24" viewBox="0 0 25 24" fill="none" xmlns="http://www.w3.org/2000/svg">
<path d="M21.6699 7V17C21.6699 20 20.1699 22 16.6699 22H8.66992C5.16992 22 3.66992 20 3.66992 17V7C3.66992 4 5.16992 2 8.66992 2H16.6699C20.1699 2 21.6699 4 21.6699 7Z" stroke="#292D32" stroke-width="1.5" stroke-miterlimit="10" stroke-linecap="round" stroke-linejoin="round"/>
<path opacity="0.4" d="M16.9199 11H8.41992C7.45992 11 6.66992 10.21 6.66992 9.25V6.75C6.66992 5.79 7.45992 5 8.41992 5H16.9199C17.8799 5 18.6699 5.79 18.6699 6.75V9.25C18.6699 10.21 17.8799 11 16.9199 11Z" stroke="#292D32" stroke-width="1.5" stroke-miterlimit="10" stroke-linecap="round" stroke-linejoin="round"/>
<path d="M10.9699 15.28L8.66992 17.58" stroke="#292D32" stroke-width="1.5" stroke-miterlimit="10" stroke-linecap="round" stroke-linejoin="round"/>
<path d="M8.69971 15.3101L10.9997 17.61" stroke="#292D32" stroke-width="1.5" stroke-miterlimit="10" stroke-linecap="round" stroke-linejoin="round"/>
<path opacity="0.4" d="M17.1602 15.3301H17.1802" stroke="#292D32" stroke-width="2" stroke-miterlimit="10" stroke-linecap="round" stroke-linejoin="round"/>
<path opacity="0.4" d="M15.1602 17.5V17.48" stroke="#292D32" stroke-width="2" stroke-miterlimit="10" stroke-linecap="round" stroke-linejoin="round"/>
</svg>
