<svg width="25" height="24" viewBox="0 0 25 24" fill="none" xmlns="http://www.w3.org/2000/svg">
<path d="M20.6399 10H4.63989V18C4.63989 21 5.63989 22 8.63989 22H16.6399C19.6399 22 20.6399 21 20.6399 18V10Z" stroke="#292D32" stroke-width="1.5" stroke-miterlimit="10" stroke-linecap="round" stroke-linejoin="round"/>
<path d="M22.1699 7V8C22.1699 9.1 21.6399 10 20.1699 10H5.16992C3.63992 10 3.16992 9.1 3.16992 8V7C3.16992 5.9 3.63992 5 5.16992 5H20.1699C21.6399 5 22.1699 5.9 22.1699 7Z" stroke="#292D32" stroke-width="1.5" stroke-miterlimit="10" stroke-linecap="round" stroke-linejoin="round"/>
<path opacity="0.4" d="M12.31 4.99994H6.78995C6.44995 4.62994 6.45995 4.05994 6.81995 3.69994L8.23995 2.27994C8.60995 1.90994 9.21995 1.90994 9.58995 2.27994L12.31 4.99994Z" stroke="#292D32" stroke-width="1.5" stroke-miterlimit="10" stroke-linecap="round" stroke-linejoin="round"/>
<path opacity="0.4" d="M18.54 4.99994H13.02L15.74 2.27994C16.11 1.90994 16.72 1.90994 17.09 2.27994L18.51 3.69994C18.87 4.05994 18.88 4.62994 18.54 4.99994Z" stroke="#292D32" stroke-width="1.5" stroke-miterlimit="10" stroke-linecap="round" stroke-linejoin="round"/>
<path opacity="0.4" d="M9.60986 10V15.14C9.60986 15.94 10.4899 16.41 11.1599 15.98L12.0999 15.36C12.4399 15.14 12.8699 15.14 13.1999 15.36L14.0899 15.96C14.7499 16.4 15.6399 15.93 15.6399 15.13V10H9.60986Z" stroke="#292D32" stroke-width="1.5" stroke-miterlimit="10" stroke-linecap="round" stroke-linejoin="round"/>
</svg>
