<svg width="25" height="24" viewBox="0 0 25 24" fill="none" xmlns="http://www.w3.org/2000/svg">
<path d="M22.6699 12C22.6699 6.48 18.1899 2 12.6699 2C7.14992 2 2.66992 6.48 2.66992 12C2.66992 17.52 7.14992 22 12.6699 22" stroke="#292D32" stroke-width="1.5" stroke-linecap="round" stroke-linejoin="round"/>
<g opacity="0.4">
<path d="M8.66953 3H9.66953C7.71953 8.84 7.71953 15.16 9.66953 21H8.66953" stroke="#292D32" stroke-width="1.5" stroke-linecap="round" stroke-linejoin="round"/>
<path d="M15.6699 3C16.6399 5.92 17.1299 8.96 17.1299 12" stroke="#292D32" stroke-width="1.5" stroke-linecap="round" stroke-linejoin="round"/>
<path d="M3.66992 16V15C6.58992 15.97 9.62992 16.46 12.6699 16.46" stroke="#292D32" stroke-width="1.5" stroke-linecap="round" stroke-linejoin="round"/>
<path d="M3.66992 9.0001C9.50992 7.0501 15.8299 7.0501 21.6699 9.0001" stroke="#292D32" stroke-width="1.5" stroke-linecap="round" stroke-linejoin="round"/>
</g>
<path d="M20.1697 14.7C19.7997 14.59 19.3797 14.52 18.9197 14.52C16.8497 14.52 15.1797 16.2 15.1797 18.26C15.1797 20.33 16.8597 22 18.9197 22C20.9797 22 22.6597 20.32 22.6597 18.26C22.6597 17.49 22.4297 16.77 22.0297 16.18" stroke="#292D32" stroke-width="1.5" stroke-linecap="round" stroke-linejoin="round"/>
<path d="M20.71 14.8001L19.46 13.3701" stroke="#292D32" stroke-width="1.5" stroke-linecap="round" stroke-linejoin="round"/>
<path d="M20.71 14.8003L19.25 15.8603" stroke="#292D32" stroke-width="1.5" stroke-linecap="round" stroke-linejoin="round"/>
</svg>
