<svg width="25" height="24" viewBox="0 0 25 24" fill="none" xmlns="http://www.w3.org/2000/svg">
<path d="M22.2601 10.18H12.8701V13.89H18.3801C18.2701 14.81 17.6701 16.2 16.3401 17.13C15.5001 17.72 14.3601 18.13 12.8701 18.13C10.2301 18.13 7.98012 16.39 7.18012 13.97C6.97012 13.35 6.85012 12.68 6.85012 11.99C6.85012 11.3 6.97012 10.63 7.17012 10.01C7.23012 9.83001 7.30012 9.64 7.38012 9.47C8.33012 7.34 10.4301 5.85999 12.8701 5.85999C14.7501 5.85999 16.0101 6.67001 16.7401 7.35001L19.5601 4.59C17.8301 2.98 15.5701 1.98999 12.8701 1.98999C8.96012 1.98999 5.58012 4.23 3.94012 7.5C3.26012 8.86 2.87012 10.38 2.87012 11.99C2.87012 13.6 3.26012 15.12 3.94012 16.48L3.95012 16.47V16.48C5.59012 19.75 8.96012 21.99 12.8701 21.99C15.5701 21.99 17.8401 21.1 19.4901 19.57C21.3801 17.83 22.4701 15.26 22.4701 12.21C22.4701 11.4 22.4001 10.8 22.2601 10.18Z" stroke="black" stroke-width="1.5" stroke-miterlimit="10" stroke-linecap="round" stroke-linejoin="round"/>
</svg>
