<svg width="25" height="24" viewBox="0 0 25 24" fill="none" xmlns="http://www.w3.org/2000/svg">
<path d="M22.6699 11V9C22.6699 4 20.6699 2 15.6699 2H9.66992C4.66992 2 2.66992 4 2.66992 9V15C2.66992 20 4.66992 22 9.66992 22H10.6699" stroke="#292D32" stroke-width="1.5" stroke-linecap="round" stroke-linejoin="round"/>
<g opacity="0.4">
<path d="M2.69922 8.5H22.6692" stroke="#292D32" stroke-width="1.5" stroke-linecap="round" stroke-linejoin="round"/>
<path d="M2.69922 15.5H12.6692" stroke="#292D32" stroke-width="1.5" stroke-linecap="round" stroke-linejoin="round"/>
<path d="M9.17969 21.9897V2.00977" stroke="#292D32" stroke-width="1.5" stroke-linecap="round" stroke-linejoin="round"/>
<path d="M16.1797 11.9897V2.00977" stroke="#292D32" stroke-width="1.5" stroke-linecap="round" stroke-linejoin="round"/>
</g>
<path d="M19.3998 14.6701L15.2499 18.82C15.0899 18.98 14.9398 19.29 14.8998 19.51L14.6699 21.1C14.5899 21.67 14.9899 22.08 15.5599 21.99L17.1498 21.76C17.3698 21.73 17.6798 21.5701 17.8398 21.4101L21.9899 17.26C22.6999 16.55 23.0399 15.7101 21.9899 14.6601C20.9499 13.6201 20.1198 13.9501 19.3998 14.6701Z" stroke="#292D32" stroke-width="1.5" stroke-miterlimit="10" stroke-linecap="round" stroke-linejoin="round"/>
<path d="M18.8101 15.26C19.1601 16.52 20.15 17.5 21.41 17.86" stroke="#292D32" stroke-width="1.5" stroke-miterlimit="10" stroke-linecap="round" stroke-linejoin="round"/>
</svg>
