<svg width="25" height="24" viewBox="0 0 25 24" fill="none" xmlns="http://www.w3.org/2000/svg">
<path opacity="0.4" d="M16.1699 22V7.21997" stroke="#292D32" stroke-width="1.5" stroke-miterlimit="10" stroke-linecap="round" stroke-linejoin="round"/>
<path d="M10.7697 5.29999C10.7697 5.78999 10.5697 6.25001 10.2397 6.57001C9.91975 6.90001 9.46973 7.09998 8.96973 7.09998H6.71973C6.99973 6.72998 7.16974 6.25 7.16974 5.75V4.84998C7.16974 4.34998 6.99973 3.87 6.71973 3.5H8.96973C9.95973 3.5 10.7697 4.30999 10.7697 5.29999Z" stroke="#292D32" stroke-width="1.5" stroke-miterlimit="10" stroke-linecap="round" stroke-linejoin="round"/>
<path d="M7.16992 4.85002V5.75005C7.16992 6.25005 6.99991 6.73002 6.71991 7.10002C5.95991 8.11002 4.39992 8.45002 2.94992 7.16002C2.78992 7.02002 2.66992 6.72005 2.66992 6.50005V4.16002C2.66992 3.97002 2.76993 3.69003 2.89993 3.55003C4.15993 2.23003 5.67992 2.42005 6.50992 3.25005C6.57992 3.32005 6.64991 3.40004 6.71991 3.49004C6.99991 3.87004 7.16992 4.35002 7.16992 4.85002Z" stroke="#292D32" stroke-width="1.5" stroke-miterlimit="10" stroke-linecap="round" stroke-linejoin="round"/>
<path d="M14.5698 5.29999C14.5698 5.78999 14.7698 6.25001 15.0998 6.57001C15.4198 6.90001 15.8698 7.09998 16.3698 7.09998H18.6198C18.3398 6.72998 18.1698 6.25 18.1698 5.75V4.84998C18.1698 4.34998 18.3398 3.87 18.6198 3.5H16.3698C15.3798 3.5 14.5698 4.30999 14.5698 5.29999Z" stroke="#292D32" stroke-width="1.5" stroke-miterlimit="10" stroke-linecap="round" stroke-linejoin="round"/>
<path d="M18.1699 4.85002V5.75005C18.1699 6.25005 18.3399 6.73002 18.6199 7.10002C19.3799 8.11002 20.9399 8.45002 22.3899 7.16002C22.5499 7.02002 22.6699 6.72005 22.6699 6.50005V4.16002C22.6699 3.97002 22.5699 3.69003 22.4399 3.55003C21.1799 2.23003 19.6599 2.42005 18.8299 3.25005C18.7599 3.32005 18.6899 3.40004 18.6199 3.49004C18.3399 3.87004 18.1699 4.35002 18.1699 4.85002Z" stroke="#292D32" stroke-width="1.5" stroke-miterlimit="10" stroke-linecap="round" stroke-linejoin="round"/>
<g opacity="0.4">
<path d="M9.16992 12V7.21997" stroke="#292D32" stroke-width="1.5" stroke-miterlimit="10" stroke-linecap="round" stroke-linejoin="round"/>
<path d="M9.16992 22V19" stroke="#292D32" stroke-width="1.5" stroke-miterlimit="10" stroke-linecap="round" stroke-linejoin="round"/>
<path d="M10.6699 13.5V17.5C10.6699 18.33 9.99992 19 9.16992 19C8.33992 19 7.66992 18.33 7.66992 17.5V13.5C7.66992 12.67 8.33992 12 9.16992 12C9.99992 12 10.6699 12.67 10.6699 13.5Z" stroke="#292D32" stroke-width="1.5" stroke-miterlimit="10" stroke-linecap="round" stroke-linejoin="round"/>
</g>
</svg>
