<svg width="25" height="24" viewBox="0 0 25 24" fill="none" xmlns="http://www.w3.org/2000/svg">
<path opacity="0.4" d="M22.1599 12.0001C22.4799 10.9801 22.6699 9.88012 22.6699 8.69012C22.6699 5.60012 20.1799 3.1001 17.1099 3.1001C15.2899 3.1001 13.6799 3.98015 12.6699 5.34015C11.6599 3.98015 10.0399 3.1001 8.22992 3.1001C5.15992 3.1001 2.66992 5.60012 2.66992 8.69012C2.66992 15.6901 9.14992 19.8201 12.0499 20.8201C12.2199 20.8801 12.4399 20.9101 12.6699 20.9101" stroke="#292D32" stroke-width="1.5" stroke-linecap="round" stroke-linejoin="round"/>
<path d="M19.88 15.74L16.34 19.2801C16.2 19.4201 16.07 19.68 16.04 19.87L15.85 21.22C15.78 21.71 16.12 22.05 16.61 21.98L17.96 21.79C18.15 21.76 18.42 21.63 18.55 21.49L22.09 17.95C22.7 17.34 22.99 16.63 22.09 15.73C21.2 14.84 20.49 15.13 19.88 15.74Z" stroke="#292D32" stroke-width="1.5" stroke-miterlimit="10" stroke-linecap="round" stroke-linejoin="round"/>
<path d="M19.3701 16.25C19.6701 17.33 20.5101 18.17 21.5901 18.47" stroke="#292D32" stroke-width="1.5" stroke-miterlimit="10" stroke-linecap="round" stroke-linejoin="round"/>
</svg>
