<svg width="25" height="24" viewBox="0 0 25 24" fill="none" xmlns="http://www.w3.org/2000/svg">
<path d="M12.6699 22C18.1928 22 22.6699 17.5228 22.6699 12C22.6699 6.47715 18.1928 2 12.6699 2C7.14707 2 2.66992 6.47715 2.66992 12C2.66992 17.5228 7.14707 22 12.6699 22Z" stroke="#292D32" stroke-width="1.5" stroke-linecap="round" stroke-linejoin="round"/>
<path opacity="0.4" d="M12.9995 17.4501C12.8195 17.5101 12.5095 17.5101 12.3295 17.4501C10.7695 16.9201 7.26953 14.6901 7.26953 10.9101C7.26953 9.24013 8.60953 7.89014 10.2695 7.89014C11.2495 7.89014 12.1195 8.36013 12.6695 9.10013C13.2095 8.37013 14.0895 7.89014 15.0695 7.89014C16.7295 7.89014 18.0695 9.24013 18.0695 10.9101C18.0695 14.6901 14.5695 16.9201 12.9995 17.4501Z" stroke="#292D32" stroke-width="1.5" stroke-linecap="round" stroke-linejoin="round"/>
</svg>
