<svg width="25" height="24" viewBox="0 0 25 24" fill="none" xmlns="http://www.w3.org/2000/svg">
<path d="M5.91992 22C7.71485 22 9.16992 20.5449 9.16992 18.75C9.16992 16.9551 7.71485 15.5 5.91992 15.5C4.125 15.5 2.66992 16.9551 2.66992 18.75C2.66992 20.5449 4.125 22 5.91992 22Z" stroke="#292D32" stroke-width="1.5" stroke-linecap="round" stroke-linejoin="round"/>
<path d="M5.66992 8C7.32678 8 8.66992 6.65685 8.66992 5C8.66992 3.34315 7.32678 2 5.66992 2C4.01307 2 2.66992 3.34315 2.66992 5C2.66992 6.65685 4.01307 8 5.66992 8Z" stroke="#292D32" stroke-width="1.5" stroke-linecap="round" stroke-linejoin="round"/>
<path d="M19.6699 8C21.3268 8 22.6699 6.65685 22.6699 5C22.6699 3.34315 21.3268 2 19.6699 2C18.0131 2 16.6699 3.34315 16.6699 5C16.6699 6.65685 18.0131 8 19.6699 8Z" stroke="#292D32" stroke-width="1.5" stroke-linecap="round" stroke-linejoin="round"/>
<g opacity="0.4">
<path d="M5.66992 15V8" stroke="#292D32" stroke-width="1.5" stroke-linecap="round" stroke-linejoin="round"/>
<path d="M5.7998 15C6.2498 13.25 7.8498 11.95 9.7398 11.96L13.1698 11.97C15.7898 11.98 18.0198 10.3 18.8398 7.95996" stroke="#292D32" stroke-width="1.5" stroke-linecap="round" stroke-linejoin="round"/>
</g>
</svg>
