<svg width="25" height="24" viewBox="0 0 25 24" fill="none" xmlns="http://www.w3.org/2000/svg">
<g opacity="0.4">
<path d="M17.1198 14.4V8.5C17.1198 7.95 16.6698 7.5 16.1198 7.5H13.2197" stroke="#292D32" stroke-width="1.5" stroke-linecap="round" stroke-linejoin="round"/>
<path d="M14.7199 6L12.9199 7.5L14.7199 9" stroke="#292D32" stroke-width="1.5" stroke-linecap="round" stroke-linejoin="round"/>
<path d="M8.21973 10.2V14.3999" stroke="#292D32" stroke-width="1.5" stroke-linecap="round" stroke-linejoin="round"/>
<path d="M8.36993 9.89999C9.44689 9.89999 10.3199 9.02697 10.3199 7.95001C10.3199 6.87306 9.44689 6 8.36993 6C7.29298 6 6.41992 6.87306 6.41992 7.95001C6.41992 9.02697 7.29298 9.89999 8.36993 9.89999Z" stroke="#292D32" stroke-width="1.5" stroke-linecap="round" stroke-linejoin="round"/>
<path d="M8.21991 17.9999C9.21402 17.9999 10.0199 17.194 10.0199 16.1999C10.0199 15.2058 9.21402 14.3999 8.21991 14.3999C7.2258 14.3999 6.41992 15.2058 6.41992 16.1999C6.41992 17.194 7.2258 17.9999 8.21991 17.9999Z" stroke="#292D32" stroke-width="1.5" stroke-linecap="round" stroke-linejoin="round"/>
<path d="M17.1198 17.9999C18.1139 17.9999 18.9198 17.194 18.9198 16.1999C18.9198 15.2058 18.1139 14.3999 17.1198 14.3999C16.1257 14.3999 15.3198 15.2058 15.3198 16.1999C15.3198 17.194 16.1257 17.9999 17.1198 17.9999Z" stroke="#292D32" stroke-width="1.5" stroke-linecap="round" stroke-linejoin="round"/>
</g>
<path d="M9.66992 22H15.6699C20.6699 22 22.6699 20 22.6699 15V9C22.6699 4 20.6699 2 15.6699 2H9.66992C4.66992 2 2.66992 4 2.66992 9V15C2.66992 20 4.66992 22 9.66992 22Z" stroke="#292D32" stroke-width="1.5" stroke-linecap="round" stroke-linejoin="round"/>
</svg>
