<svg width="25" height="24" viewBox="0 0 25 24" fill="none" xmlns="http://www.w3.org/2000/svg">
<path d="M9.68992 2.84016L4.29992 7.04016C3.39992 7.74016 2.66992 9.23016 2.66992 10.3602V17.7702C2.66992 20.0902 4.55992 21.9902 6.87992 21.9902H18.4599C20.7799 21.9902 22.6699 20.0902 22.6699 17.7802V10.5002C22.6699 9.29016 21.8599 7.74016 20.8699 7.05016L14.6899 2.72016C13.2899 1.74016 11.0399 1.79016 9.68992 2.84016Z" stroke="#292D32" stroke-width="1.5" stroke-linecap="round" stroke-linejoin="round"/>
<g opacity="0.4">
<path d="M11.1699 18H14.1699C15.8199 18 17.1699 16.65 17.1699 15V12C17.1699 10.35 15.8199 9 14.1699 9H11.1699C9.51992 9 8.16992 10.35 8.16992 12V15C8.16992 16.65 9.51992 18 11.1699 18Z" stroke="#292D32" stroke-width="1.5" stroke-linecap="round" stroke-linejoin="round"/>
<path d="M12.6699 9V18" stroke="#292D32" stroke-width="1.5" stroke-linecap="round" stroke-linejoin="round"/>
<path d="M8.16992 13.5H17.1699" stroke="#292D32" stroke-width="1.5" stroke-linecap="round" stroke-linejoin="round"/>
</g>
</svg>
