<svg width="25" height="24" viewBox="0 0 25 24" fill="none" xmlns="http://www.w3.org/2000/svg">
<path d="M10.7402 2.81997L3.8102 8.37002C3.0302 8.99002 2.53019 10.3 2.70019 11.28L4.03017 19.24C4.27017 20.66 5.63018 21.8101 7.07018 21.8101H18.2702C19.7002 21.8101 21.0702 20.65 21.3102 19.24L22.6402 11.28C22.8002 10.3 22.3002 8.99002 21.5302 8.37002L14.6002 2.82998C13.5302 1.96998 11.8002 1.96997 10.7402 2.81997Z" stroke="#292D32" stroke-width="1.5" stroke-linecap="round" stroke-linejoin="round"/>
<path opacity="0.4" d="M10.5498 14.38C11.8198 13.17 13.5198 13.17 14.7898 14.38" stroke="#292D32" stroke-width="1.5" stroke-linecap="round" stroke-linejoin="round"/>
<path opacity="0.4" d="M16.9099 12.2601C16.3699 11.7301 15.7699 11.3201 15.1499 11.0201C13.5599 10.2601 11.7799 10.2601 10.1799 11.0201C9.55993 11.3201 8.96992 11.7301 8.41992 12.2601" stroke="#292D32" stroke-width="1.5" stroke-linecap="round" stroke-linejoin="round"/>
<path opacity="0.4" d="M12.6654 16.5H12.6744" stroke="#292D32" stroke-width="2" stroke-linecap="round" stroke-linejoin="round"/>
</svg>
