<svg width="25" height="24" viewBox="0 0 25 24" fill="none" xmlns="http://www.w3.org/2000/svg">
<path d="M11.6599 2.60001L5.15991 6.42C4.54991 6.78 4.16992 7.44 4.16992 8.14V15.85C4.16992 16.56 4.54991 17.21 5.15991 17.57L11.6599 21.39C12.2899 21.76 13.0599 21.76 13.6899 21.39L20.1899 17.57C20.7999 17.21 21.1799 16.55 21.1799 15.85V8.14C21.1799 7.43 20.7999 6.78 20.1899 6.42L13.6899 2.60001C13.0599 2.23001 12.2799 2.23001 11.6599 2.60001Z" stroke="black" stroke-width="1.5" stroke-miterlimit="10" stroke-linecap="round" stroke-linejoin="round"/>
<g opacity="0.4">
<path d="M17.6699 9L12.6699 6L7.66992 9L17.6699 15L12.6699 18L7.66992 15" stroke="black" stroke-width="1.5" stroke-miterlimit="10" stroke-linecap="round" stroke-linejoin="round"/>
<path d="M12.1699 10L10.1699 12" stroke="black" stroke-width="1.5" stroke-miterlimit="10" stroke-linecap="round" stroke-linejoin="round"/>
<path d="M15.1699 12L13.1699 14" stroke="black" stroke-width="1.5" stroke-miterlimit="10" stroke-linecap="round" stroke-linejoin="round"/>
</g>
</svg>
