<svg width="25" height="24" viewBox="0 0 25 24" fill="none" xmlns="http://www.w3.org/2000/svg">
<path d="M9.66992 22H15.6699C20.6699 22 22.6699 20 22.6699 15V9C22.6699 4 20.6699 2 15.6699 2H9.66992C4.66992 2 2.66992 4 2.66992 9V15C2.66992 20 4.66992 22 9.66992 22Z" stroke="#292D32" stroke-width="1.5" stroke-linecap="round" stroke-linejoin="round"/>
<g opacity="0.4">
<path d="M16.9491 13.6096C15.8191 14.7396 14.1991 15.0896 12.7691 14.6396L10.1791 17.2196C9.99914 17.4096 9.62914 17.5296 9.35914 17.4896L8.15914 17.3296C7.75914 17.2796 7.39914 16.8996 7.33914 16.5096L7.17914 15.3096C7.13914 15.0496 7.26914 14.6796 7.44914 14.4896L10.0291 11.9096C9.58914 10.4796 9.92914 8.85965 11.0591 7.72965C12.6791 6.10965 15.3191 6.10965 16.9491 7.72965C18.5691 9.33965 18.5691 11.9796 16.9491 13.6096Z" stroke="#292D32" stroke-width="1.5" stroke-miterlimit="10" stroke-linecap="round" stroke-linejoin="round"/>
<path d="M11.1195 16.2799L10.2695 15.4199" stroke="#292D32" stroke-width="1.5" stroke-miterlimit="10" stroke-linecap="round" stroke-linejoin="round"/>
<path d="M14.0648 10.7002H14.0738" stroke="#292D32" stroke-width="2" stroke-linecap="round" stroke-linejoin="round"/>
</g>
</svg>
