<svg width="25" height="24" viewBox="0 0 25 24" fill="none" xmlns="http://www.w3.org/2000/svg">
<path d="M20.4601 14.9298C18.4001 16.9798 15.4501 17.6098 12.8601 16.7998L8.15007 21.4998C7.81007 21.8498 7.14007 22.0598 6.66007 21.9898L4.48007 21.6898C3.76007 21.5898 3.09007 20.9098 2.98007 20.1898L2.68007 18.0098C2.61007 17.5298 2.84007 16.8598 3.17007 16.5198L7.87007 11.8198C7.07007 9.21982 7.69007 6.26982 9.75007 4.21982C12.7001 1.26982 17.4901 1.26982 20.4501 4.21982C23.4101 7.16982 23.4101 11.9798 20.4601 14.9298Z" stroke="#292D32" stroke-width="1.5" stroke-miterlimit="10" stroke-linecap="round" stroke-linejoin="round"/>
<path opacity="0.4" d="M7.56006 17.4902L9.86006 19.7902" stroke="#292D32" stroke-width="1.5" stroke-miterlimit="10" stroke-linecap="round" stroke-linejoin="round"/>
<path opacity="0.4" d="M15.1699 11C15.9983 11 16.6699 10.3284 16.6699 9.5C16.6699 8.67157 15.9983 8 15.1699 8C14.3415 8 13.6699 8.67157 13.6699 9.5C13.6699 10.3284 14.3415 11 15.1699 11Z" stroke="#292D32" stroke-width="1.5" stroke-linecap="round" stroke-linejoin="round"/>
</svg>
