<svg width="25" height="24" viewBox="0 0 25 24" fill="none" xmlns="http://www.w3.org/2000/svg">
<path d="M11.6799 2.57001L6.67993 5.43C6.05993 5.79 5.66992 6.45 5.66992 7.17V15.98C5.66992 16.63 5.97995 17.23 6.50995 17.61L11.5099 21.18C12.2099 21.68 13.1399 21.68 13.8299 21.18L18.8299 17.61C19.3599 17.23 19.6699 16.63 19.6699 15.98V7.17C19.6699 6.45 19.2899 5.79 18.6599 5.43L13.6599 2.57001C13.0499 2.22001 12.2899 2.22001 11.6799 2.57001Z" stroke="black" stroke-width="1.5" stroke-miterlimit="10" stroke-linecap="round" stroke-linejoin="round"/>
<g opacity="0.4">
<path d="M12.6699 3L10.6699 12L12.5199 21.23" stroke="black" stroke-width="1.5" stroke-miterlimit="10" stroke-linecap="round" stroke-linejoin="round"/>
<path d="M18.8299 16.91L10.6699 12L19.2099 7.26001" stroke="black" stroke-width="1.5" stroke-miterlimit="10" stroke-linecap="round" stroke-linejoin="round"/>
</g>
</svg>
