<svg width="25" height="24" viewBox="0 0 25 24" fill="none" xmlns="http://www.w3.org/2000/svg">
<g opacity="0.4">
<path d="M10.3203 13.7999L11.9303 15.0499C12.1403 15.2599 12.6103 15.3598 12.9203 15.3598H14.9003C15.5203 15.3598 16.2003 14.8899 16.3603 14.2699L17.6103 10.4798C17.8703 9.74981 17.4003 9.12984 16.6203 9.12984H14.5403C14.2303 9.12984 13.9703 8.86984 14.0203 8.50984L14.2803 6.84981C14.3803 6.37981 14.0703 5.85979 13.6003 5.70979C13.1803 5.54979 12.6603 5.75978 12.4603 6.06978L10.3303 9.23982" stroke="#292D32" stroke-width="1.5" stroke-miterlimit="10"/>
<path d="M7.66992 13.7998V8.70972C7.66992 7.97972 7.97992 7.71973 8.70992 7.71973H9.22992C9.95992 7.71973 10.2699 7.97972 10.2699 8.70972V13.7998C10.2699 14.5298 9.95992 14.7898 9.22992 14.7898H8.70992C7.97992 14.7898 7.66992 14.5298 7.66992 13.7998Z" stroke="#292D32" stroke-width="1.5" stroke-linecap="round" stroke-linejoin="round"/>
</g>
<path d="M18.6699 18.8597H17.9099C17.1099 18.8597 16.3499 19.1697 15.7899 19.7297L14.0799 21.4198C13.2999 22.1898 12.0299 22.1898 11.2499 21.4198L9.53992 19.7297C8.97992 19.1697 8.20992 18.8597 7.41992 18.8597H6.66992C5.00992 18.8597 3.66992 17.5298 3.66992 15.8898V4.97974C3.66992 3.33974 5.00992 2.00977 6.66992 2.00977H18.6699C20.3299 2.00977 21.6699 3.33974 21.6699 4.97974V15.8898C21.6699 17.5198 20.3299 18.8597 18.6699 18.8597Z" stroke="#292D32" stroke-width="1.5" stroke-miterlimit="10" stroke-linecap="round" stroke-linejoin="round"/>
</svg>
