<svg width="25" height="24" viewBox="0 0 25 24" fill="none" xmlns="http://www.w3.org/2000/svg">
<path d="M5.58984 20.2799L7.35985 21.6499C7.58985 21.8799 8.09984 21.9898 8.44984 21.9898H10.6198C11.3098 21.9898 12.0498 21.4799 12.2198 20.7899L13.5898 16.6198C13.8798 15.8198 13.3598 15.1299 12.4998 15.1299H10.2098C9.86985 15.1299 9.57985 14.8398 9.63985 14.4398L9.92985 12.6098C10.0398 12.0998 9.69984 11.5198 9.18984 11.3498C8.72984 11.1798 8.15985 11.4099 7.92985 11.7499L5.58984 15.2398" stroke="#292D32" stroke-width="1.5" stroke-miterlimit="10"/>
<path d="M2.66992 20.2799V14.6799C2.66992 13.8799 3.00992 13.5898 3.80992 13.5898H4.37992C5.17992 13.5898 5.51992 13.8799 5.51992 14.6799V20.2799C5.51992 21.0799 5.17992 21.3699 4.37992 21.3699H3.80992C3.00992 21.3699 2.66992 21.0899 2.66992 20.2799Z" stroke="#292D32" stroke-width="1.5" stroke-linecap="round" stroke-linejoin="round"/>
<g opacity="0.4">
<path d="M19.7497 3.71973L17.9797 2.34973C17.7497 2.11973 17.2397 2.00977 16.8897 2.00977H14.7197C14.0297 2.00977 13.2897 2.51972 13.1197 3.20972L11.7497 7.37976C11.4597 8.17976 11.9797 8.86975 12.8397 8.86975H15.1297C15.4697 8.86975 15.7597 9.15981 15.6997 9.55981L15.4097 11.3898C15.2997 11.8998 15.6397 12.4798 16.1497 12.6498C16.6097 12.8198 17.1797 12.5898 17.4097 12.2498L19.7497 8.75977" stroke="#292D32" stroke-width="1.5" stroke-miterlimit="10"/>
<path d="M22.6703 3.71985V9.31982C22.6703 10.1198 22.3303 10.4099 21.5303 10.4099H20.9603C20.1603 10.4099 19.8203 10.1198 19.8203 9.31982V3.71985C19.8203 2.91985 20.1603 2.62988 20.9603 2.62988H21.5303C22.3303 2.62988 22.6703 2.90985 22.6703 3.71985Z" stroke="#292D32" stroke-width="1.5" stroke-linecap="round" stroke-linejoin="round"/>
</g>
</svg>
