<svg width="25" height="24" viewBox="0 0 25 24" fill="none" xmlns="http://www.w3.org/2000/svg">
<path opacity="0.4" d="M8.6116 14.51C7.9916 14.28 7.4416 13.83 7.0916 13.19C6.2916 11.73 6.7816 9.83001 8.2016 8.95001L10.5416 7.5C11.9516 6.62 13.7716 7.09999 14.5716 8.54999C15.3716 10.01 14.8816 11.91 13.4616 12.79L13.1516 13.01" stroke="#292D32" stroke-width="1.5" stroke-linecap="round" stroke-linejoin="round"/>
<path opacity="0.4" d="M16.7821 9.44995C17.4021 9.67995 17.9521 10.1299 18.3021 10.7699C19.1021 12.2299 18.6121 14.1299 17.1921 15.0099L14.8521 16.4599C13.4421 17.3399 11.6221 16.8599 10.8221 15.4099C10.0221 13.9499 10.5121 12.05 11.9321 11.17L12.2421 10.95" stroke="#292D32" stroke-width="1.5" stroke-linecap="round" stroke-linejoin="round"/>
<path d="M12.6719 22C18.1947 22 22.6719 17.5228 22.6719 12C22.6719 6.47715 18.1947 2 12.6719 2C7.14903 2 2.67188 6.47715 2.67188 12C2.67188 17.5228 7.14903 22 12.6719 22Z" stroke="#292D32" stroke-width="1.5" stroke-linecap="round" stroke-linejoin="round"/>
</svg>
