<svg width="25" height="24" viewBox="0 0 25 24" fill="none" xmlns="http://www.w3.org/2000/svg">
<g opacity="0.4">
<path d="M9.66992 11V10C9.66992 8.34 10.1699 7 12.6699 7C15.1699 7 15.6699 8.34 15.6699 10V11" stroke="#292D32" stroke-width="1.5" stroke-linecap="round" stroke-linejoin="round"/>
<path d="M12.6698 14.5999C13.0012 14.5999 13.2698 14.3313 13.2698 13.9999C13.2698 13.6685 13.0012 13.3999 12.6698 13.3999C12.3384 13.3999 12.0698 13.6685 12.0698 13.9999C12.0698 14.3313 12.3384 14.5999 12.6698 14.5999Z" stroke="#292D32" stroke-width="1.5" stroke-linecap="round" stroke-linejoin="round"/>
<path d="M15.1699 17H10.1699C8.16992 17 7.66992 16.5 7.66992 14.5V13.5C7.66992 11.5 8.16992 11 10.1699 11H15.1699C17.1699 11 17.6699 11.5 17.6699 13.5V14.5C17.6699 16.5 17.1699 17 15.1699 17Z" stroke="#292D32" stroke-width="1.5" stroke-linecap="round" stroke-linejoin="round"/>
</g>
<path d="M12.6699 22C18.1928 22 22.6699 17.5228 22.6699 12C22.6699 6.47715 18.1928 2 12.6699 2C7.14707 2 2.66992 6.47715 2.66992 12C2.66992 17.5228 7.14707 22 12.6699 22Z" stroke="#292D32" stroke-width="1.5" stroke-linecap="round" stroke-linejoin="round"/>
</svg>
