<svg width="25" height="24" viewBox="0 0 25 24" fill="none" xmlns="http://www.w3.org/2000/svg">
<path opacity="0.4" d="M20.5299 8.09009C20.5299 8.51009 20.4999 8.92009 20.4499 9.31009C19.9899 9.11009 19.4899 9.00009 18.9599 9.00009C17.7399 9.00009 16.6599 9.59008 15.9899 10.4901C15.3099 9.59008 14.2299 9.00009 13.0099 9.00009C10.9599 9.00009 9.29993 10.6701 9.29993 12.7401C9.29993 15.4201 10.7199 17.4701 12.2999 18.8601C12.2499 18.8901 12.1999 18.9001 12.1499 18.9201C11.8499 19.0301 11.3499 19.0301 11.0499 18.9201C8.45993 18.0301 2.66992 14.3501 2.66992 8.09009C2.66992 5.33009 4.88991 3.1001 7.62991 3.1001C9.25991 3.1001 10.6999 3.88009 11.5999 5.09009C12.5099 3.88009 13.9499 3.1001 15.5699 3.1001C18.3099 3.1001 20.5299 5.33009 20.5299 8.09009Z" stroke="#292D32" stroke-width="1.5" stroke-linecap="round" stroke-linejoin="round"/>
<path d="M22.6698 12.74C22.6698 17.42 18.3398 20.18 16.3998 20.84C16.1698 20.92 15.7998 20.92 15.5698 20.84C14.7398 20.56 13.4698 19.89 12.2998 18.86C10.7198 17.47 9.2998 15.42 9.2998 12.74C9.2998 10.67 10.9598 9 13.0098 9C14.2298 9 15.3098 9.58999 15.9898 10.49C16.6598 9.58999 17.7398 9 18.9598 9C19.4898 9 19.9898 9.11 20.4498 9.31C21.7598 9.89 22.6698 11.2 22.6698 12.74Z" stroke="#292D32" stroke-width="1.5" stroke-linecap="round" stroke-linejoin="round"/>
</svg>
