<svg width="25" height="24" viewBox="0 0 25 24" fill="none" xmlns="http://www.w3.org/2000/svg">
<path d="M4.17035 20.4999C5.00035 21.3299 6.34035 21.3299 7.17035 20.4999L20.1704 7.49994C21.0004 6.66994 21.0004 5.32994 20.1704 4.49994C19.3404 3.66994 18.0004 3.66994 17.1704 4.49994L4.17035 17.4999C3.34035 18.3299 3.34035 19.6699 4.17035 20.4999Z" stroke="#292D32" stroke-width="1.5" stroke-linecap="round" stroke-linejoin="round"/>
<path opacity="0.4" d="M18.6797 8.98999L15.6797 5.98999" stroke="#292D32" stroke-width="1.5" stroke-linecap="round" stroke-linejoin="round"/>
<path opacity="0.4" d="M9.16992 2.44L10.6699 2L10.2299 3.5L10.6699 5L9.16992 4.56L7.66992 5L8.10992 3.5L7.66992 2L9.16992 2.44Z" stroke="#292D32" stroke-linecap="round" stroke-linejoin="round"/>
<path opacity="0.4" d="M5.16992 8.44L6.66992 8L6.22992 9.5L6.66992 11L5.16992 10.56L3.66992 11L4.10992 9.5L3.66992 8L5.16992 8.44Z" stroke="#292D32" stroke-linecap="round" stroke-linejoin="round"/>
<path opacity="0.4" d="M20.1699 13.44L21.6699 13L21.2299 14.5L21.6699 16L20.1699 15.56L18.6699 16L19.1099 14.5L18.6699 13L20.1699 13.44Z" stroke="#292D32" stroke-linecap="round" stroke-linejoin="round"/>
</svg>
