<svg width="25" height="24" viewBox="0 0 25 24" fill="none" xmlns="http://www.w3.org/2000/svg">
<g opacity="0.4">
<path fill-rule="evenodd" clip-rule="evenodd" d="M16.9199 3C16.9199 2.58579 17.2557 2.25 17.6699 2.25H21.6699C22.0841 2.25 22.4199 2.58579 22.4199 3V7C22.4199 7.41421 22.0841 7.75 21.6699 7.75C21.2557 7.75 20.9199 7.41421 20.9199 7V3.75H17.6699C17.2557 3.75 16.9199 3.41421 16.9199 3Z" fill="#292D32"/>
<path fill-rule="evenodd" clip-rule="evenodd" d="M22.2003 2.46967C22.4931 2.76256 22.4931 3.23744 22.2003 3.53033L16.2003 9.53033C15.9074 9.82322 15.4325 9.82322 15.1396 9.53033C14.8467 9.23744 14.8467 8.76256 15.1396 8.46967L21.1396 2.46967C21.4325 2.17678 21.9074 2.17678 22.2003 2.46967Z" fill="#292D32"/>
<path fill-rule="evenodd" clip-rule="evenodd" d="M3.66992 16.25C4.08414 16.25 4.41992 16.5858 4.41992 17V20.25H7.66992C8.08414 20.25 8.41992 20.5858 8.41992 21C8.41992 21.4142 8.08414 21.75 7.66992 21.75H3.66992C3.25571 21.75 2.91992 21.4142 2.91992 21V17C2.91992 16.5858 3.25571 16.25 3.66992 16.25Z" fill="#292D32"/>
<path fill-rule="evenodd" clip-rule="evenodd" d="M10.2003 14.4697C10.4931 14.7626 10.4931 15.2374 10.2003 15.5303L4.20025 21.5303C3.90736 21.8232 3.43248 21.8232 3.13959 21.5303C2.8467 21.2374 2.8467 20.7626 3.13959 20.4697L9.13959 14.4697C9.43249 14.1768 9.90736 14.1768 10.2003 14.4697Z" fill="#292D32"/>
</g>
<path fill-rule="evenodd" clip-rule="evenodd" d="M1.91992 12C1.91992 6.06579 6.73571 1.25 12.6699 1.25C13.4103 1.25 14.1396 1.32508 14.837 1.46458C15.2432 1.54581 15.5066 1.94093 15.4254 2.3471C15.3441 2.75327 14.949 3.01668 14.5429 2.93545C13.9403 2.81494 13.3096 2.75 12.6699 2.75C7.56414 2.75 3.41992 6.89421 3.41992 12C3.41992 12.6393 3.48479 13.2593 3.60492 13.8507C3.68738 14.2566 3.42515 14.6525 3.01923 14.735C2.6133 14.8174 2.2174 14.5552 2.13494 14.1493C1.99508 13.4607 1.91992 12.7407 1.91992 12Z" fill="#292D32"/>
<path fill-rule="evenodd" clip-rule="evenodd" d="M22.3225 9.26459C22.7286 9.18335 23.1238 9.44677 23.205 9.85294C23.3443 10.5493 23.4196 11.2686 23.4196 12C23.4196 17.9342 18.6038 22.75 12.6696 22.75C11.9292 22.75 11.1999 22.6749 10.5025 22.5354C10.0963 22.4542 9.83289 22.0591 9.91412 21.6529C9.99536 21.2468 10.3905 20.9833 10.7966 21.0646C11.3992 21.1851 12.0299 21.25 12.6696 21.25C17.7754 21.25 21.9196 17.1058 21.9196 12C21.9196 11.3715 21.8549 10.7508 21.7341 10.1471C21.6529 9.74094 21.9163 9.34582 22.3225 9.26459Z" fill="#292D32"/>
</svg>
