<svg width="25" height="24" viewBox="0 0 25 24" fill="none" xmlns="http://www.w3.org/2000/svg">
<path d="M18.21 8.31014C19.5686 8.31014 20.67 7.20876 20.67 5.85014C20.67 4.49152 19.5686 3.39014 18.21 3.39014C16.8514 3.39014 15.75 4.49152 15.75 5.85014C15.75 7.20876 16.8514 8.31014 18.21 8.31014Z" stroke="#292D32" stroke-width="1.5" stroke-miterlimit="10" stroke-linecap="round" stroke-linejoin="round"/>
<path opacity="0.4" d="M7.12993 8.31014C8.48855 8.31014 9.58992 7.20876 9.58992 5.85014C9.58992 4.49152 8.48855 3.39014 7.12993 3.39014C5.77131 3.39014 4.66992 4.49152 4.66992 5.85014C4.66992 7.20876 5.77131 8.31014 7.12993 8.31014Z" stroke="#292D32" stroke-width="1.5" stroke-miterlimit="10" stroke-linecap="round" stroke-linejoin="round"/>
<path opacity="0.4" d="M18.21 20.6099C19.5686 20.6099 20.67 19.5086 20.67 18.1499C20.67 16.7913 19.5686 15.6899 18.21 15.6899C16.8514 15.6899 15.75 16.7913 15.75 18.1499C15.75 19.5086 16.8514 20.6099 18.21 20.6099Z" stroke="#292D32" stroke-width="1.5" stroke-miterlimit="10" stroke-linecap="round" stroke-linejoin="round"/>
<path d="M7.12993 20.6099C8.48855 20.6099 9.58992 19.5086 9.58992 18.1499C9.58992 16.7913 8.48855 15.6899 7.12993 15.6899C5.77131 15.6899 4.66992 16.7913 4.66992 18.1499C4.66992 19.5086 5.77131 20.6099 7.12993 20.6099Z" stroke="#292D32" stroke-width="1.5" stroke-miterlimit="10" stroke-linecap="round" stroke-linejoin="round"/>
</svg>
