<svg width="25" height="24" viewBox="0 0 25 24" fill="none" xmlns="http://www.w3.org/2000/svg">
<path opacity="0.4" d="M22.6699 6.25V11.35C22.6699 12.62 22.2499 13.69 21.4999 14.43C20.7599 15.18 19.6899 15.6 18.4199 15.6V17.41C18.4199 18.09 17.6599 18.5 17.0999 18.12L16.1299 17.48C16.2199 17.17 16.2599 16.83 16.2599 16.47V12.4C16.2599 10.36 14.8999 9 12.8599 9H6.06992C5.92992 9 5.79992 9.01002 5.66992 9.02002V6.25C5.66992 3.7 7.36992 2 9.91992 2H18.4199C20.9699 2 22.6699 3.7 22.6699 6.25Z" stroke="#292D32" stroke-width="1.5" stroke-miterlimit="10" stroke-linecap="round" stroke-linejoin="round"/>
<path d="M16.2599 12.4V16.47C16.2599 16.83 16.2199 17.17 16.1299 17.48C15.7599 18.95 14.5399 19.87 12.8599 19.87H10.1399L7.11992 21.88C6.66992 22.19 6.06992 21.86 6.06992 21.32V19.87C5.04992 19.87 4.19992 19.53 3.60992 18.94C3.00992 18.34 2.66992 17.49 2.66992 16.47V12.4C2.66992 10.5 3.84992 9.19002 5.66992 9.02002C5.79992 9.01002 5.92992 9 6.06992 9H12.8599C14.8999 9 16.2599 10.36 16.2599 12.4Z" stroke="#292D32" stroke-width="1.5" stroke-miterlimit="10" stroke-linecap="round" stroke-linejoin="round"/>
</svg>
