<svg width="25" height="24" viewBox="0 0 25 24" fill="none" xmlns="http://www.w3.org/2000/svg">
<path d="M17.6699 18.4302H13.6699L9.21991 21.3902C8.55991 21.8302 7.66992 21.3602 7.66992 20.5602V18.4302C4.66992 18.4302 2.66992 16.4302 2.66992 13.4302V7.43018C2.66992 4.43018 4.66992 2.43018 7.66992 2.43018H17.6699C20.6699 2.43018 22.6699 4.43018 22.6699 7.43018V13.4302C22.6699 16.4302 20.6699 18.4302 17.6699 18.4302Z" stroke="#292D32" stroke-width="1.5" stroke-miterlimit="10" stroke-linecap="round" stroke-linejoin="round"/>
<path opacity="0.4" d="M12.6697 11.3599V11.1499C12.6697 10.4699 13.0898 10.1099 13.5098 9.81989C13.9198 9.53989 14.3297 9.1799 14.3297 8.5199C14.3297 7.5999 13.5897 6.85986 12.6697 6.85986C11.7497 6.85986 11.0098 7.5999 11.0098 8.5199" stroke="#292D32" stroke-width="1.5" stroke-linecap="round" stroke-linejoin="round"/>
<path opacity="0.4" d="M12.6654 13.75H12.6744" stroke="#292D32" stroke-width="1.5" stroke-linecap="round" stroke-linejoin="round"/>
</svg>
