<svg width="25" height="24" viewBox="0 0 25 24" fill="none" xmlns="http://www.w3.org/2000/svg">
<path d="M13.8699 21.37C13.2099 22.25 12.1299 22.25 11.4699 21.37L9.96991 19.37C9.79991 19.15 9.43992 18.97 9.16992 18.97H8.66992C4.66992 18.97 2.66992 17.97 2.66992 12.97V7.96997C2.66992 3.96997 4.66992 1.96997 8.66992 1.96997H16.6699C20.6699 1.96997 22.6699 3.96997 22.6699 7.96997V12.97" stroke="#292D32" stroke-width="1.5" stroke-miterlimit="10" stroke-linecap="round" stroke-linejoin="round"/>
<g opacity="0.4">
<path d="M18.8699 21.4C20.6372 21.4 22.0699 19.9673 22.0699 18.2C22.0699 16.4327 20.6372 15 18.8699 15C17.1026 15 15.6699 16.4327 15.6699 18.2C15.6699 19.9673 17.1026 21.4 18.8699 21.4Z" stroke="#292D32" stroke-width="1.5" stroke-linecap="round" stroke-linejoin="round"/>
<path d="M22.6699 22L21.6699 21" stroke="#292D32" stroke-width="1.5" stroke-linecap="round" stroke-linejoin="round"/>
</g>
<path d="M16.6664 11H16.6754" stroke="#292D32" stroke-width="2" stroke-linecap="round" stroke-linejoin="round"/>
<path d="M12.6654 11H12.6744" stroke="#292D32" stroke-width="2" stroke-linecap="round" stroke-linejoin="round"/>
<path d="M8.66443 11H8.67341" stroke="#292D32" stroke-width="2" stroke-linecap="round" stroke-linejoin="round"/>
</svg>
