<svg width="25" height="24" viewBox="0 0 25 24" fill="none" xmlns="http://www.w3.org/2000/svg">
<path d="M16.6699 2H8.66992C4.66992 2 2.66992 4 2.66992 8V21C2.66992 21.55 3.11992 22 3.66992 22H16.6699C20.6699 22 22.6699 20 22.6699 16V8C22.6699 4 20.6699 2 16.6699 2Z" stroke="#292D32" stroke-width="1.5" stroke-linecap="round" stroke-linejoin="round"/>
<g opacity="0.4">
<path d="M13.5797 7.84015L8.38971 13.0302C8.18971 13.2302 7.99972 13.6202 7.95972 13.9002L7.67972 15.8802C7.57972 16.6002 8.07972 17.1002 8.79972 17.0002L10.7797 16.7202C11.0597 16.6802 11.4497 16.4902 11.6497 16.2902L16.8397 11.1002C17.7297 10.2102 18.1597 9.17015 16.8397 7.85015C15.5197 6.52015 14.4797 6.94015 13.5797 7.84015Z" stroke="#292D32" stroke-width="1.5" stroke-miterlimit="10" stroke-linecap="round" stroke-linejoin="round"/>
<path d="M12.8398 8.58008C13.2798 10.1501 14.5098 11.3901 16.0898 11.8301" stroke="#292D32" stroke-width="1.5" stroke-miterlimit="10" stroke-linecap="round" stroke-linejoin="round"/>
</g>
</svg>
