<svg width="25" height="24" viewBox="0 0 25 24" fill="none" xmlns="http://www.w3.org/2000/svg">
<path opacity="0.4" d="M18.9499 9.76007V12.9001C18.9499 13.1001 18.9399 13.3 18.9199 13.49C18.7399 15.61 17.4899 16.6701 15.1899 16.6701H14.8799C14.6799 16.6701 14.4899 16.7601 14.3799 16.9201L13.4399 18.1801C13.0199 18.7401 12.3499 18.7401 11.9299 18.1801L10.9899 16.9201C10.8899 16.7901 10.6599 16.6701 10.4899 16.6701H10.1799C7.66993 16.6701 6.41992 16.0501 6.41992 12.9101V9.77005C6.41992 7.47005 7.47991 6.22007 9.59991 6.04007C9.78991 6.02007 9.98991 6.01007 10.1899 6.01007H15.2199C17.6899 6.00007 18.9499 7.26007 18.9499 9.76007Z" stroke="#292D32" stroke-width="1.5" stroke-miterlimit="10" stroke-linecap="round" stroke-linejoin="round"/>
<path d="M9.66992 22H15.6699C20.6699 22 22.6699 20 22.6699 15V9C22.6699 4 20.6699 2 15.6699 2H9.66992C4.66992 2 2.66992 4 2.66992 9V15C2.66992 20 4.66992 22 9.66992 22Z" stroke="#292D32" stroke-width="1.5" stroke-linecap="round" stroke-linejoin="round"/>
</svg>
