<svg width="25" height="24" viewBox="0 0 25 24" fill="none" xmlns="http://www.w3.org/2000/svg">
<path d="M12.6699 19C15.9799 19 18.6699 16.31 18.6699 13V8C18.6699 4.69 15.9799 2 12.6699 2C9.35992 2 6.66992 4.69 6.66992 8V13C6.66992 16.31 9.35992 19 12.6699 19Z" stroke="#292D32" stroke-width="1.5" stroke-linecap="round" stroke-linejoin="round"/>
<path opacity="0.4" d="M3.66992 11V13C3.66992 17.97 7.69992 22 12.6699 22C17.6399 22 21.6699 17.97 21.6699 13V11" stroke="#292D32" stroke-width="1.5" stroke-linecap="round" stroke-linejoin="round"/>
<path opacity="0.4" d="M9.78027 7.47999C11.5603 6.82999 13.5003 6.82999 15.2803 7.47999" stroke="#292D32" stroke-width="1.5" stroke-linecap="round" stroke-linejoin="round"/>
<path opacity="0.4" d="M10.7002 10.48C11.9002 10.15 13.1702 10.15 14.3702 10.48" stroke="#292D32" stroke-width="1.5" stroke-linecap="round" stroke-linejoin="round"/>
</svg>
