<svg width="25" height="24" viewBox="0 0 25 24" fill="none" xmlns="http://www.w3.org/2000/svg">
<path d="M18.4899 6.53C17.8299 3.93 15.4799 2 12.6699 2C9.35992 2 6.66992 4.69 6.66992 8V13C6.66992 14.46 7.18992 15.8 8.05992 16.84" stroke="#292D32" stroke-width="1.5" stroke-linecap="round" stroke-linejoin="round"/>
<path opacity="0.4" d="M18.6698 9.98V13C18.6698 16.31 15.9798 19 12.6698 19C11.9398 19 11.2298 18.87 10.5898 18.63" stroke="#292D32" stroke-width="1.5" stroke-linecap="round" stroke-linejoin="round"/>
<path opacity="0.4" d="M6.53027 19.58C8.14027 21.08 10.3003 22 12.6703 22C17.6403 22 21.6703 17.97 21.6703 13V11" stroke="#292D32" stroke-width="1.5" stroke-linecap="round" stroke-linejoin="round"/>
<path d="M22.1699 2.99001L3.16992 21.99" stroke="#292D32" stroke-width="1.5" stroke-linecap="round" stroke-linejoin="round"/>
<path d="M12.2197 5.49999V2.25999" stroke="#292D32" stroke-width="1.5" stroke-linecap="round" stroke-linejoin="round"/>
<path d="M9.16992 3.5V7.5" stroke="#292D32" stroke-width="1.5" stroke-linecap="round" stroke-linejoin="round"/>
</svg>
