<svg width="25" height="24" viewBox="0 0 25 24" fill="none" xmlns="http://www.w3.org/2000/svg">
<path d="M15.699 10.77L21.359 6.97998C21.929 6.59998 22.079 5.81998 21.699 5.25998L19.879 2.54996C19.499 1.97996 18.719 1.82996 18.159 2.20996L12.499 5.99997L15.699 10.77Z" stroke="#292D32" stroke-width="1.5" stroke-linecap="round" stroke-linejoin="round"/>
<path d="M12.8431 6.47932L8.06543 9.6792L10.6253 13.5013L15.403 10.3015L12.8431 6.47932Z" stroke="#292D32" stroke-width="1.5" stroke-linecap="round" stroke-linejoin="round"/>
<path d="M6.49948 15.8999L10.4495 13.2599L8.20948 9.91992L4.25947 12.5599C3.79947 12.8699 3.67947 13.4899 3.98947 13.9499L5.11947 15.6299C5.41947 16.0799 6.03948 16.1999 6.49948 15.8999Z" stroke="#292D32" stroke-width="1.5" stroke-linecap="round" stroke-linejoin="round"/>
<path opacity="0.4" d="M12.7195 12.2L8.22949 21.9999" stroke="#292D32" stroke-width="1.5" stroke-linecap="round" stroke-linejoin="round"/>
<path opacity="0.4" d="M12.6699 12.2L17.1099 21.9999" stroke="#292D32" stroke-width="1.5" stroke-linecap="round" stroke-linejoin="round"/>
</svg>
