<svg width="25" height="24" viewBox="0 0 25 24" fill="none" xmlns="http://www.w3.org/2000/svg">
<path d="M20.6699 7V17C20.6699 21 19.6699 22 15.6699 22H9.66992C5.66992 22 4.66992 21 4.66992 17V7C4.66992 3 5.66992 2 9.66992 2H15.6699C19.6699 2 20.6699 3 20.6699 7Z" stroke="#292D32" stroke-width="1.5" stroke-linecap="round" stroke-linejoin="round"/>
<path opacity="0.4" d="M14.6699 5.5H10.6699" stroke="#292D32" stroke-width="1.5" stroke-linecap="round" stroke-linejoin="round"/>
<path opacity="0.4" d="M12.6701 19.1C13.5262 19.1 14.2201 18.406 14.2201 17.55C14.2201 16.694 13.5262 16 12.6701 16C11.8141 16 11.1201 16.694 11.1201 17.55C11.1201 18.406 11.8141 19.1 12.6701 19.1Z" stroke="#292D32" stroke-width="1.5" stroke-linecap="round" stroke-linejoin="round"/>
</svg>
