<svg width="25" height="24" viewBox="0 0 25 24" fill="none" xmlns="http://www.w3.org/2000/svg">
<path d="M17.6748 20.5H7.6748C4.6748 20.5 2.6748 19 2.6748 15.5V8.5C2.6748 5 4.6748 3.5 7.6748 3.5H17.6748C20.6748 3.5 22.6748 5 22.6748 8.5V15.5C22.6748 19 20.6748 20.5 17.6748 20.5Z" stroke="#292D32" stroke-width="1.5" stroke-miterlimit="10" stroke-linecap="round" stroke-linejoin="round"/>
<path d="M12.6748 15C14.3317 15 15.6748 13.6569 15.6748 12C15.6748 10.3431 14.3317 9 12.6748 9C11.018 9 9.6748 10.3431 9.6748 12C9.6748 13.6569 11.018 15 12.6748 15Z" stroke="#292D32" stroke-width="1.5" stroke-miterlimit="10" stroke-linecap="round" stroke-linejoin="round"/>
<path opacity="0.4" d="M19.6748 7H16.6748" stroke="#292D32" stroke-width="1.5" stroke-miterlimit="10" stroke-linecap="round" stroke-linejoin="round"/>
<path opacity="0.4" d="M8.6748 17H5.6748" stroke="#292D32" stroke-width="1.5" stroke-miterlimit="10" stroke-linecap="round" stroke-linejoin="round"/>
</svg>
