<svg width="25" height="24" viewBox="0 0 25 24" fill="none" xmlns="http://www.w3.org/2000/svg">
<path d="M22.2101 15C20.9301 19.06 17.1401 22 12.6701 22C8.21014 22 4.43014 19.08 3.14014 15.04L7.67014 15V9L12.6701 15L17.6701 9V15H22.2101Z" stroke="black" stroke-width="1.5" stroke-miterlimit="10" stroke-linecap="round" stroke-linejoin="round"/>
<path opacity="0.4" d="M22.6699 12C22.6699 13.05 22.5099 14.05 22.2099 15H17.6699V9L12.6699 15L7.66992 9V15L3.13992 15.04C2.83992 14.08 2.66992 13.06 2.66992 12C2.66992 6.48 7.14992 2 12.6699 2C18.1899 2 22.6699 6.48 22.6699 12Z" stroke="black" stroke-width="1.5" stroke-miterlimit="10" stroke-linecap="round" stroke-linejoin="round"/>
</svg>
