<svg width="25" height="24" viewBox="0 0 25 24" fill="none" xmlns="http://www.w3.org/2000/svg">
<path d="M17.6729 20.5H7.67285C4.67285 20.5 2.67285 19 2.67285 15.5V8.5C2.67285 5 4.67285 3.5 7.67285 3.5H17.6729C20.6729 3.5 22.6729 5 22.6729 8.5V15.5C22.6729 19 20.6729 20.5 17.6729 20.5Z" stroke="#292D32" stroke-width="1.5" stroke-miterlimit="10" stroke-linecap="round" stroke-linejoin="round"/>
<path d="M12.6729 15C14.3297 15 15.6729 13.6569 15.6729 12C15.6729 10.3431 14.3297 9 12.6729 9C11.016 9 9.67285 10.3431 9.67285 12C9.67285 13.6569 11.016 15 12.6729 15Z" stroke="#292D32" stroke-width="1.5" stroke-miterlimit="10" stroke-linecap="round" stroke-linejoin="round"/>
<path opacity="0.4" d="M9.17285 6H7.67285C6.29285 6 5.17285 7.12 5.17285 8.5V10" stroke="#292D32" stroke-width="1.5" stroke-miterlimit="10" stroke-linecap="round" stroke-linejoin="round"/>
<path opacity="0.4" d="M16.1729 6H17.6729C19.0529 6 20.1729 7.12 20.1729 8.5V10" stroke="#292D32" stroke-width="1.5" stroke-miterlimit="10" stroke-linecap="round" stroke-linejoin="round"/>
<path opacity="0.4" d="M9.17285 18H7.67285C6.29285 18 5.17285 16.88 5.17285 15.5V14" stroke="#292D32" stroke-width="1.5" stroke-miterlimit="10" stroke-linecap="round" stroke-linejoin="round"/>
<path opacity="0.4" d="M16.1729 18H17.6729C19.0529 18 20.1729 16.88 20.1729 15.5V14" stroke="#292D32" stroke-width="1.5" stroke-miterlimit="10" stroke-linecap="round" stroke-linejoin="round"/>
</svg>
