<svg width="25" height="24" viewBox="0 0 25 24" fill="none" xmlns="http://www.w3.org/2000/svg">
<path d="M2.66992 11V9C2.66992 5.5 4.66992 4 7.66992 4H17.6699C20.6699 4 22.6699 5.5 22.6699 9V15C22.6699 18.5 20.6699 20 17.6699 20H12.6699" stroke="#292D32" stroke-width="1.5" stroke-miterlimit="10" stroke-linecap="round" stroke-linejoin="round"/>
<path opacity="0.4" d="M12.6699 14.5C14.0506 14.5 15.1699 13.3807 15.1699 12C15.1699 10.6193 14.0506 9.5 12.6699 9.5C11.2892 9.5 10.1699 10.6193 10.1699 12C10.1699 13.3807 11.2892 14.5 12.6699 14.5Z" stroke="#292D32" stroke-width="1.5" stroke-miterlimit="10" stroke-linecap="round" stroke-linejoin="round"/>
<path opacity="0.4" d="M19.1699 9.5V14.5" stroke="#292D32" stroke-width="1.5" stroke-miterlimit="10" stroke-linecap="round" stroke-linejoin="round"/>
<path d="M2.66992 15.5H8.00995C8.64995 15.5 9.16992 16.02 9.16992 16.66V17.94" stroke="#292D32" stroke-width="1.5" stroke-miterlimit="10" stroke-linecap="round" stroke-linejoin="round"/>
<path d="M3.88989 14.28L2.66992 15.5L3.88989 16.72" stroke="#292D32" stroke-width="1.5" stroke-miterlimit="10" stroke-linecap="round" stroke-linejoin="round"/>
<path d="M9.16992 20.7801H3.8299C3.1899 20.7801 2.66992 20.2601 2.66992 19.6201V18.3401" stroke="#292D32" stroke-width="1.5" stroke-miterlimit="10" stroke-linecap="round" stroke-linejoin="round"/>
<path d="M7.9502 22.0001L9.17017 20.7801L7.9502 19.5601" stroke="#292D32" stroke-width="1.5" stroke-miterlimit="10" stroke-linecap="round" stroke-linejoin="round"/>
</svg>
