<svg width="25" height="24" viewBox="0 0 25 24" fill="none" xmlns="http://www.w3.org/2000/svg">
<g opacity="0.4">
<path d="M10.1699 13.75C10.1699 14.72 10.9199 15.5 11.8399 15.5H13.7199C14.5199 15.5 15.1699 14.82 15.1699 13.97C15.1699 13.06 14.7699 12.73 14.1799 12.52L11.1699 11.47C10.5799 11.26 10.1799 10.94 10.1799 10.02C10.1799 9.17999 10.8299 8.48999 11.6299 8.48999H13.5099C14.4299 8.48999 15.1799 9.26999 15.1799 10.24" stroke="#292D32" stroke-width="1.5" stroke-linecap="round" stroke-linejoin="round"/>
<path d="M12.6699 7.5V16.5" stroke="#292D32" stroke-width="1.5" stroke-linecap="round" stroke-linejoin="round"/>
</g>
<path d="M22.6699 12C22.6699 17.52 18.1899 22 12.6699 22C7.14992 22 2.66992 17.52 2.66992 12C2.66992 6.48 7.14992 2 12.6699 2" stroke="#292D32" stroke-width="1.5" stroke-linecap="round" stroke-linejoin="round"/>
<path d="M17.6699 3V7H21.6699" stroke="#292D32" stroke-width="1.5" stroke-linecap="round" stroke-linejoin="round"/>
<path d="M22.6699 2L17.6699 7" stroke="#292D32" stroke-width="1.5" stroke-linecap="round" stroke-linejoin="round"/>
</svg>
