<svg width="25" height="24" viewBox="0 0 25 24" fill="none" xmlns="http://www.w3.org/2000/svg">
<path d="M22.6699 11.89V12.78C22.6699 16.34 21.7799 17.22 18.2299 17.22H7.10992C3.55992 17.22 2.66992 16.33 2.66992 12.78V6.44C2.66992 2.89 3.55992 2 7.10992 2H8.66992" stroke="#292D32" stroke-width="1.5" stroke-linecap="round" stroke-linejoin="round"/>
<path opacity="0.4" d="M12.6699 17.22V22" stroke="#292D32" stroke-width="1.5" stroke-linecap="round" stroke-linejoin="round"/>
<path opacity="0.4" d="M2.66992 13H22.6699" stroke="#292D32" stroke-width="1.5" stroke-linecap="round" stroke-linejoin="round"/>
<path d="M8.16992 22H17.1699" stroke="#292D32" stroke-width="1.5" stroke-linecap="round" stroke-linejoin="round"/>
<path d="M18.5297 9.37001H13.7697C12.3897 9.37001 11.9297 8.45001 11.9297 7.53001V4.01001C11.9297 2.91001 12.8297 2.01001 13.9297 2.01001H18.5297C19.5497 2.01001 20.3697 2.83001 20.3697 3.85001V7.53001C20.3697 8.55001 19.5497 9.37001 18.5297 9.37001Z" stroke="#292D32" stroke-width="1.5" stroke-linecap="round" stroke-linejoin="round"/>
<path d="M21.5801 7.91998L20.3701 7.06998V4.30998L21.5801 3.45998C22.1801 3.04998 22.6701 3.29998 22.6701 4.02998V7.35998C22.6701 8.08998 22.1801 8.33998 21.5801 7.91998Z" stroke="#292D32" stroke-width="1.5" stroke-linecap="round" stroke-linejoin="round"/>
</svg>
