<svg width="25" height="24" viewBox="0 0 25 24" fill="none" xmlns="http://www.w3.org/2000/svg">
<path d="M12.6698 9.32C13.8598 9.32 14.8298 8.35 14.8298 7.16C14.8298 5.97 13.8598 5 12.6698 5C11.4798 5 10.5098 5.97 10.5098 7.16C10.5098 8.35 11.4798 9.32 12.6698 9.32Z" stroke="#292D32" stroke-width="1.5" stroke-linecap="round" stroke-linejoin="round"/>
<path opacity="0.4" d="M7.4598 19.0002C8.6498 19.0002 9.6198 18.0302 9.6198 16.8402C9.6198 15.6502 8.6498 14.6802 7.4598 14.6802C6.2698 14.6802 5.2998 15.6502 5.2998 16.8402C5.2998 18.0302 6.2598 19.0002 7.4598 19.0002Z" stroke="#292D32" stroke-width="1.5" stroke-linecap="round" stroke-linejoin="round"/>
<path d="M17.8797 19.0002C19.0697 19.0002 20.0397 18.0302 20.0397 16.8402C20.0397 15.6502 19.0697 14.6802 17.8797 14.6802C16.6897 14.6802 15.7197 15.6502 15.7197 16.8402C15.7197 18.0302 16.6897 19.0002 17.8797 19.0002Z" stroke="#292D32" stroke-width="1.5" stroke-linecap="round" stroke-linejoin="round"/>
</svg>
