<svg width="25" height="24" viewBox="0 0 25 24" fill="none" xmlns="http://www.w3.org/2000/svg">
<path d="M5.66992 10C4.56992 10 3.66992 10.9 3.66992 12C3.66992 13.1 4.56992 14 5.66992 14C6.76992 14 7.66992 13.1 7.66992 12C7.66992 10.9 6.76992 10 5.66992 10Z" stroke="#292D32" stroke-width="1.5"/>
<path d="M19.6699 10C18.5699 10 17.6699 10.9 17.6699 12C17.6699 13.1 18.5699 14 19.6699 14C20.7699 14 21.6699 13.1 21.6699 12C21.6699 10.9 20.7699 10 19.6699 10Z" stroke="#292D32" stroke-width="1.5"/>
<path opacity="0.4" d="M12.6699 10C11.5699 10 10.6699 10.9 10.6699 12C10.6699 13.1 11.5699 14 12.6699 14C13.7699 14 14.6699 13.1 14.6699 12C14.6699 10.9 13.7699 10 12.6699 10Z" stroke="#292D32" stroke-width="1.5"/>
</svg>
