<svg width="25" height="24" viewBox="0 0 25 24" fill="none" xmlns="http://www.w3.org/2000/svg">
<path d="M22.6699 12V9C22.6699 4 20.6699 2 15.6699 2H9.66992C4.66992 2 2.66992 4 2.66992 9V15C2.66992 20 4.66992 22 9.66992 22H12.6699" stroke="#292D32" stroke-width="1.5" stroke-linecap="round" stroke-linejoin="round"/>
<path opacity="0.4" d="M21.6296 17.84L19.9996 18.39C19.5496 18.54 19.1896 18.89 19.0396 19.35L18.4896 20.98C18.0196 22.39 16.0396 22.36 15.5996 20.95L13.7496 15C13.3896 13.82 14.4796 12.72 15.6496 13.09L21.6096 14.94C23.0096 15.38 23.0296 17.37 21.6296 17.84Z" stroke="#292D32" stroke-width="1.5" stroke-linecap="round" stroke-linejoin="round"/>
</svg>
