<svg width="25" height="24" viewBox="0 0 25 24" fill="none" xmlns="http://www.w3.org/2000/svg">
<path d="M8.63965 22C10.8488 22 12.6396 20.2091 12.6396 18C12.6396 15.7909 10.8488 14 8.63965 14C6.43051 14 4.63965 15.7909 4.63965 18C4.63965 20.2091 6.43051 22 8.63965 22Z" stroke="#292D32" stroke-width="1.5" stroke-linecap="round" stroke-linejoin="round"/>
<path opacity="0.4" d="M12.6396 18V4" stroke="#292D32" stroke-width="1.5" stroke-linecap="round" stroke-linejoin="round"/>
<path d="M15.2795 2.11L19.6995 3.58C20.7695 3.94 21.6495 5.15 21.6495 6.28V7.45C21.6495 8.98 20.4695 9.83 19.0195 9.35L14.5995 7.88C13.5295 7.52 12.6495 6.31 12.6495 5.18V4C12.6395 2.48 13.8295 1.62 15.2795 2.11Z" stroke="#292D32" stroke-width="1.5" stroke-linecap="round" stroke-linejoin="round"/>
</svg>
