<svg width="25" height="24" viewBox="0 0 25 24" fill="none" xmlns="http://www.w3.org/2000/svg">
<path d="M13.0199 21H9.31992C4.56992 21 2.66992 19.1 2.66992 14.35V8.65002C2.66992 3.90002 4.56992 2 9.31992 2H15.0199C19.7699 2 21.6699 3.90002 21.6699 8.65002V12.35" stroke="#292D32" stroke-width="1.5" stroke-linecap="round" stroke-linejoin="round"/>
<g opacity="0.4">
<path d="M7.38945 14.42C8.19026 14.42 8.83945 13.7708 8.83945 12.97C8.83945 12.1692 8.19026 11.52 7.38945 11.52C6.58864 11.52 5.93945 12.1692 5.93945 12.97C5.93945 13.7708 6.58864 14.42 7.38945 14.42Z" stroke="#292D32" stroke-width="1.5" stroke-linecap="round" stroke-linejoin="round"/>
<path d="M14.1496 12V6.34001C14.1496 5.13001 13.3896 4.96997 12.6296 5.17997L9.73962 5.96995C9.21962 6.10995 8.84961 6.52999 8.84961 7.12999V8.14V8.81999V12.97" stroke="#292D32" stroke-width="1.5" stroke-linecap="round" stroke-linejoin="round"/>
<path d="M12.7 13.45C13.5008 13.45 14.15 12.8008 14.15 12C14.15 11.1992 13.5008 10.55 12.7 10.55C11.8992 10.55 11.25 11.1992 11.25 12C11.25 12.8008 11.8992 13.45 12.7 13.45Z" stroke="#292D32" stroke-width="1.5" stroke-linecap="round" stroke-linejoin="round"/>
<path d="M8.83984 8.83002L14.1498 7.38" stroke="#292D32" stroke-width="1.5" stroke-linecap="round" stroke-linejoin="round"/>
</g>
<path d="M18.6102 21.28C20.3775 21.28 21.8102 19.8473 21.8102 18.08C21.8102 16.3127 20.3775 14.88 18.6102 14.88C16.8428 14.88 15.4102 16.3127 15.4102 18.08C15.4102 19.8473 16.8428 21.28 18.6102 21.28Z" stroke="#292D32" stroke-width="1.5" stroke-linecap="round" stroke-linejoin="round"/>
<path d="M22.4102 21.88L21.4102 20.88" stroke="#292D32" stroke-width="1.5" stroke-linecap="round" stroke-linejoin="round"/>
</svg>
