<svg width="25" height="24" viewBox="0 0 25 24" fill="none" xmlns="http://www.w3.org/2000/svg">
<path d="M21.6699 8.65002V14.35C21.6699 14.69 21.6599 15.02 21.6399 15.33C20.9199 14.51 19.8499 14 18.6699 14C16.4599 14 14.6699 15.79 14.6699 18C14.6699 18.75 14.8799 19.46 15.2499 20.06C15.4499 20.4 15.7099 20.71 16.0099 20.97C15.6999 20.99 15.3699 21 15.0199 21H9.31992C4.56992 21 2.66992 19.1 2.66992 14.35V8.65002C2.66992 3.90002 4.56992 2 9.31992 2H15.0199C19.7699 2 21.6699 3.90002 21.6699 8.65002Z" stroke="#292D32" stroke-width="1.5" stroke-linecap="round" stroke-linejoin="round"/>
<g opacity="0.4">
<path d="M7.38946 14.42C8.19027 14.42 8.83945 13.7708 8.83945 12.97C8.83945 12.1692 8.19027 11.52 7.38946 11.52C6.58864 11.52 5.93945 12.1692 5.93945 12.97C5.93945 13.7708 6.58864 14.42 7.38946 14.42Z" stroke="#292D32" stroke-width="1.5" stroke-linecap="round" stroke-linejoin="round"/>
<path d="M14.1398 12V6.34001C14.1398 5.13001 13.3798 4.96997 12.6198 5.17997L9.72984 5.96995C9.20984 6.10995 8.83984 6.52999 8.83984 7.12999V8.14V8.81999V12.97" stroke="#292D32" stroke-width="1.5" stroke-linecap="round" stroke-linejoin="round"/>
<path d="M12.7 13.45C13.5008 13.45 14.15 12.8008 14.15 12C14.15 11.1992 13.5008 10.55 12.7 10.55C11.8992 10.55 11.25 11.1992 11.25 12C11.25 12.8008 11.8992 13.45 12.7 13.45Z" stroke="#292D32" stroke-width="1.5" stroke-linecap="round" stroke-linejoin="round"/>
<path d="M8.83984 8.83002L14.1398 7.38" stroke="#292D32" stroke-width="1.5" stroke-linecap="round" stroke-linejoin="round"/>
</g>
<path d="M22.6699 18C22.6699 18.75 22.4599 19.46 22.0899 20.06C21.3999 21.22 20.1299 22 18.6699 22C17.6399 22 16.7099 21.61 16.0099 20.97C15.7099 20.71 15.4499 20.4 15.2499 20.06C14.8799 19.46 14.6699 18.75 14.6699 18C14.6699 15.79 16.4599 14 18.6699 14C19.8499 14 20.9199 14.51 21.6399 15.33C22.2799 16.04 22.6699 16.98 22.6699 18Z" stroke="#292D32" stroke-width="1.5" stroke-miterlimit="10" stroke-linecap="round" stroke-linejoin="round"/>
<g opacity="0.4">
<path d="M19.7391 19.04L17.6191 16.93" stroke="#292D32" stroke-width="1.5" stroke-miterlimit="10" stroke-linecap="round" stroke-linejoin="round"/>
<path d="M19.7196 16.9598L17.5996 19.0698" stroke="#292D32" stroke-width="1.5" stroke-miterlimit="10" stroke-linecap="round" stroke-linejoin="round"/>
</g>
</svg>
