<svg width="25" height="24" viewBox="0 0 25 24" fill="none" xmlns="http://www.w3.org/2000/svg">
<path d="M6.15001 18.4901V15.5701C6.15001 14.6001 6.91001 13.73 7.99001 13.73C8.96001 13.73 9.83 14.4901 9.83 15.5701V18.3801C9.83 20.3301 8.21 21.9501 6.26 21.9501C4.31 21.9501 2.68999 20.3201 2.68999 18.3801V12.22C2.57999 6.60003 7.02 2.05005 12.64 2.05005C18.26 2.05005 22.69 6.60005 22.69 12.11V18.2701C22.69 20.2201 21.07 21.8401 19.12 21.8401C17.17 21.8401 15.55 20.2201 15.55 18.2701V15.4601C15.55 14.4901 16.31 13.6201 17.39 13.6201C18.36 13.6201 19.23 14.3801 19.23 15.4601V18.4901" stroke="#292D32" stroke-width="1.5" stroke-linecap="round" stroke-linejoin="round"/>
<path opacity="0.4" d="M16.1999 9.11999H15.3899C15.1699 9.11999 14.9599 9.25 14.8599 9.44L14.1099 10.94C13.9999 11.16 13.6899 11.16 13.5799 10.94L11.7399 7.27002C11.6299 7.06002 11.3299 7.05001 11.2199 7.26001L10.3799 8.80999C10.2799 8.99999 10.0799 9.11999 9.85989 9.11999H9.12988" stroke="#292D32" stroke-width="1.5" stroke-linecap="round" stroke-linejoin="round"/>
</svg>
