<svg width="25" height="24" viewBox="0 0 25 24" fill="none" xmlns="http://www.w3.org/2000/svg">
<path d="M6.95008 22C8.67321 22 10.0701 20.6031 10.0701 18.88C10.0701 17.1569 8.67321 15.76 6.95008 15.76C5.22695 15.76 3.83008 17.1569 3.83008 18.88C3.83008 20.6031 5.22695 22 6.95008 22Z" stroke="#292D32" stroke-width="1.5" stroke-linecap="round" stroke-linejoin="round"/>
<path d="M18.3895 19.92C20.1127 19.92 21.5095 18.5231 21.5095 16.8C21.5095 15.0769 20.1127 13.68 18.3895 13.68C16.6664 13.68 15.2695 15.0769 15.2695 16.8C15.2695 18.5231 16.6664 19.92 18.3895 19.92Z" stroke="#292D32" stroke-width="1.5" stroke-linecap="round" stroke-linejoin="round"/>
<g opacity="0.4">
<path d="M21.5103 16.8003V4.60034C21.5103 2.00034 19.8803 1.64034 18.2303 2.09034L11.9903 3.79034C10.8503 4.10034 10.0703 5.00034 10.0703 6.30034V8.47034V9.93034V18.8703" stroke="#292D32" stroke-width="1.5" stroke-linecap="round" stroke-linejoin="round"/>
<path d="M10.0703 9.52039L21.5103 6.40039" stroke="#292D32" stroke-width="1.5" stroke-linecap="round" stroke-linejoin="round"/>
</g>
</svg>
