<svg width="25" height="24" viewBox="0 0 25 24" fill="none" xmlns="http://www.w3.org/2000/svg">
<path d="M22.6699 10V9C22.6699 4 20.6699 2 15.6699 2H9.66992C4.66992 2 2.66992 4 2.66992 9V15C2.66992 20 4.66992 22 9.66992 22H11.6699" stroke="#292D32" stroke-width="1.5" stroke-linecap="round" stroke-linejoin="round"/>
<g opacity="0.4">
<path d="M16.1797 22C17.2843 22 18.1797 21.1046 18.1797 20C18.1797 18.8954 17.2843 18 16.1797 18C15.0751 18 14.1797 18.8954 14.1797 20C14.1797 21.1046 15.0751 22 16.1797 22Z" stroke="#292D32" stroke-width="1.5" stroke-linecap="round" stroke-linejoin="round"/>
<path d="M18.1797 20V13.01" stroke="#292D32" stroke-width="1.5" stroke-linecap="round" stroke-linejoin="round"/>
<path d="M19.4897 12.07L21.6997 12.81C22.2297 12.99 22.6697 13.59 22.6697 14.16V14.75C22.6697 15.51 22.0797 15.94 21.3597 15.7L19.1497 14.96C18.6197 14.78 18.1797 14.18 18.1797 13.61V13.02C18.1797 12.25 18.7697 11.83 19.4897 12.07Z" stroke="#292D32" stroke-width="1.5" stroke-linecap="round" stroke-linejoin="round"/>
</g>
</svg>
