<svg width="25" height="24" viewBox="0 0 25 24" fill="none" xmlns="http://www.w3.org/2000/svg">
<path opacity="0.4" d="M19.6699 8C21.3268 8 22.6699 6.65685 22.6699 5C22.6699 3.34315 21.3268 2 19.6699 2C18.0131 2 16.6699 3.34315 16.6699 5C16.6699 6.65685 18.0131 8 19.6699 8Z" stroke="#292D32" stroke-width="1.5" stroke-linecap="round" stroke-linejoin="round"/>
<path d="M14.6699 2H9.66992C4.66992 2 2.66992 4 2.66992 9V15C2.66992 20 4.66992 22 9.66992 22H15.6699C20.6699 22 22.6699 20 22.6699 15V10" stroke="#292D32" stroke-width="1.5" stroke-linecap="round" stroke-linejoin="round"/>
<path opacity="0.4" d="M7.4799 14.9299C7.1299 13.8299 7.5399 12.4599 8.6999 12.0899C9.3099 11.8899 10.0599 12.0599 10.4899 12.6499C10.8899 12.0399 11.6699 11.8999 12.2699 12.0899C13.4299 12.4599 13.8399 13.8299 13.4899 14.9299C12.9399 16.6799 11.0199 17.5899 10.4899 17.5899C9.9499 17.5799 8.0499 16.6899 7.4799 14.9299Z" stroke="#292D32" stroke-width="1.5" stroke-linecap="round" stroke-linejoin="round"/>
</svg>
