<svg width="25" height="24" viewBox="0 0 25 24" fill="none" xmlns="http://www.w3.org/2000/svg">
<path opacity="0.4" d="M12.6699 6.43994V9.76994" stroke="#292D32" stroke-width="1.5" stroke-miterlimit="10" stroke-linecap="round"/>
<path d="M12.6898 2C9.00982 2 6.02982 4.98 6.02982 8.66V10.76C6.02982 11.44 5.74982 12.46 5.39982 13.04L4.12982 15.16C3.34982 16.47 3.88982 17.93 5.32982 18.41C10.1098 20 15.2798 20 20.0598 18.41C21.4098 17.96 21.9898 16.38 21.2598 15.16L19.9898 13.04C19.6398 12.46 19.3598 11.43 19.3598 10.76V8.66C19.3498 5 16.3498 2 12.6898 2Z" stroke="#292D32" stroke-width="1.5" stroke-miterlimit="10" stroke-linecap="round"/>
<path opacity="0.4" d="M15.9998 18.8198C15.9998 20.6498 14.4998 22.1498 12.6698 22.1498C11.7598 22.1498 10.9198 21.7698 10.3198 21.1698C9.71984 20.5698 9.33984 19.7298 9.33984 18.8198" stroke="#292D32" stroke-width="1.5" stroke-miterlimit="10"/>
</svg>
