<svg width="25" height="24" viewBox="0 0 25 24" fill="none" xmlns="http://www.w3.org/2000/svg">
<path d="M12.6699 22C18.1928 22 22.6699 17.5228 22.6699 12C22.6699 6.47715 18.1928 2 12.6699 2C7.14707 2 2.66992 6.47715 2.66992 12C2.66992 17.5228 7.14707 22 12.6699 22Z" stroke="#292D32" stroke-width="1.5" stroke-linecap="round" stroke-linejoin="round"/>
<path opacity="0.4" d="M17.6699 16.5H14.5699L16.1899 14.71C16.9899 13.82 17.4299 12.69 17.4299 11.53C17.4299 10.33 16.9299 9.18002 16.0399 8.33002C15.1499 7.48002 13.9399 7 12.6699 7C11.4099 7 10.1999 7.48002 9.29993 8.33002C8.40993 9.18002 7.90991 10.33 7.90991 11.53C7.90991 12.7 8.3499 13.83 9.1499 14.71L10.7699 16.5H7.66992" stroke="#292D32" stroke-width="1.5" stroke-linecap="round" stroke-linejoin="round"/>
</svg>
