<svg width="25" height="24" viewBox="0 0 25 24" fill="none" xmlns="http://www.w3.org/2000/svg">
<path d="M22.6699 15V9C22.6699 4 20.6699 2 15.6699 2H9.66992C4.66992 2 2.66992 4 2.66992 9V15C2.66992 20 4.66992 22 9.66992 22H15.6699C20.6699 22 22.6699 20 22.6699 15Z" stroke="#292D32" stroke-width="1.5" stroke-linecap="round" stroke-linejoin="round"/>
<path opacity="0.4" d="M17.6699 16.75H14.5699L16.1899 14.96C16.9899 14.07 17.4299 12.94 17.4299 11.78C17.4299 10.58 16.9299 9.43002 16.0399 8.58002C15.1499 7.73002 13.9399 7.25 12.6699 7.25C11.4099 7.25 10.1999 7.73002 9.29993 8.58002C8.40993 9.43002 7.90991 10.58 7.90991 11.78C7.90991 12.95 8.3499 14.08 9.1499 14.96L10.7699 16.75H7.66992" stroke="#292D32" stroke-width="1.5" stroke-linecap="round" stroke-linejoin="round"/>
</svg>
