<svg width="25" height="24" viewBox="0 0 25 24" fill="none" xmlns="http://www.w3.org/2000/svg">
<g opacity="0.4">
<path d="M17.4202 9.11998L15.5702 7.26998C14.8702 6.56998 13.9102 6.60998 13.4402 7.34998L12.4102 8.97998L15.7002 12.27L17.3302 11.24C18.0402 10.8 18.0802 9.76998 17.4202 9.11998Z" stroke="#292D32" stroke-width="1.5" stroke-linecap="round" stroke-linejoin="round"/>
<path d="M12.4094 8.98017L10.0194 8.84017C8.6794 8.76017 8.2194 9.17017 8.0694 10.4402L7.4694 15.5102C7.3394 16.5802 8.1094 17.3402 9.1794 17.2202L14.2494 16.6202C15.5194 16.4702 15.9794 16.0102 15.8494 14.6702L15.7094 12.2802" stroke="#292D32" stroke-width="1.5" stroke-linecap="round" stroke-linejoin="round"/>
<path d="M8.16016 16.5199L10.0102 14.6699" stroke="#292D32" stroke-width="1.5" stroke-linecap="round" stroke-linejoin="round"/>
</g>
<path d="M9.66992 22H15.6699C20.6699 22 22.6699 20 22.6699 15V9C22.6699 4 20.6699 2 15.6699 2H9.66992C4.66992 2 2.66992 4 2.66992 9V15C2.66992 20 4.66992 22 9.66992 22Z" stroke="#292D32" stroke-width="1.5" stroke-linecap="round" stroke-linejoin="round"/>
</svg>
