<svg width="25" height="24" viewBox="0 0 25 24" fill="none" xmlns="http://www.w3.org/2000/svg">
<g opacity="0.4">
<path d="M11.4202 22.5001H13.9402C14.9002 22.5001 15.5202 21.8201 15.3402 20.9901L14.9302 19.1802H10.4302L10.0202 20.9901C9.84025 21.7701 10.5202 22.5001 11.4202 22.5001Z" stroke="#292D32" stroke-width="1.5" stroke-linecap="round" stroke-linejoin="round"/>
<path d="M14.9305 19.1702L16.6605 17.6301C17.6305 16.7701 17.6705 16.1701 16.9005 15.2001L13.8505 11.3302C13.2105 10.5202 12.1605 10.5202 11.5205 11.3302L8.47047 15.2001C7.70047 16.1701 7.70046 16.8001 8.71046 17.6301L10.4405 19.1702" stroke="#292D32" stroke-width="1.5" stroke-linecap="round" stroke-linejoin="round"/>
<path d="M12.6797 11.1201V13.6501" stroke="#292D32" stroke-width="1.5" stroke-linecap="round" stroke-linejoin="round"/>
</g>
<path d="M13.1895 5H12.1895C11.6395 5 11.1895 4.55 11.1895 4V3C11.1895 2.45 11.6395 2 12.1895 2H13.1895C13.7395 2 14.1895 2.45 14.1895 3V4C14.1895 4.55 13.7395 5 13.1895 5Z" stroke="#292D32" stroke-width="1.5" stroke-linecap="round" stroke-linejoin="round"/>
<path d="M3.93945 14.17H4.93945C5.48945 14.17 5.93945 13.72 5.93945 13.17V12.17C5.93945 11.62 5.48945 11.1699 4.93945 11.1699H3.93945C3.38945 11.1699 2.93945 11.62 2.93945 12.17V13.17C2.93945 13.72 3.38945 14.17 3.93945 14.17Z" stroke="#292D32" stroke-width="1.5" stroke-linecap="round" stroke-linejoin="round"/>
<path d="M21.3994 14.17H20.3994C19.8494 14.17 19.3994 13.72 19.3994 13.17V12.17C19.3994 11.62 19.8494 11.1699 20.3994 11.1699H21.3994C21.9494 11.1699 22.3994 11.62 22.3994 12.17V13.17C22.3994 13.72 21.9494 14.17 21.3994 14.17Z" stroke="#292D32" stroke-width="1.5" stroke-linecap="round" stroke-linejoin="round"/>
<path d="M11.1899 3.56006C7.37993 4.01006 4.41992 7.24004 4.41992 11.17" stroke="#292D32" stroke-width="1.5" stroke-linecap="round" stroke-linejoin="round"/>
<path d="M20.9194 11.17C20.9194 7.25004 17.9795 4.03006 14.1895 3.56006" stroke="#292D32" stroke-width="1.5" stroke-linecap="round" stroke-linejoin="round"/>
</svg>
