<svg width="25" height="24" viewBox="0 0 25 24" fill="none" xmlns="http://www.w3.org/2000/svg">
<path opacity="0.4" d="M18.6676 7.16C18.6076 7.15 18.5376 7.15 18.4776 7.16C17.0976 7.11 15.9976 5.98 15.9976 4.58C15.9976 3.15 17.1476 2 18.5776 2C20.0076 2 21.1576 3.16 21.1576 4.58C21.1476 5.98 20.0476 7.11 18.6676 7.16Z" stroke="#292D32" stroke-width="1.5" stroke-linecap="round" stroke-linejoin="round"/>
<path opacity="0.4" d="M17.6374 14.4399C19.0074 14.6699 20.5174 14.4299 21.5774 13.7199C22.9874 12.7799 22.9874 11.2399 21.5774 10.2999C20.5074 9.58992 18.9774 9.34991 17.6074 9.58991" stroke="#292D32" stroke-width="1.5" stroke-linecap="round" stroke-linejoin="round"/>
<path opacity="0.4" d="M6.63746 7.16C6.69746 7.15 6.76746 7.15 6.82746 7.16C8.20746 7.11 9.30746 5.98 9.30746 4.58C9.30746 3.15 8.15746 2 6.72746 2C5.29746 2 4.14746 3.16 4.14746 4.58C4.15746 5.98 5.25746 7.11 6.63746 7.16Z" stroke="#292D32" stroke-width="1.5" stroke-linecap="round" stroke-linejoin="round"/>
<path opacity="0.4" d="M7.66742 14.4399C6.29742 14.6699 4.78742 14.4299 3.72742 13.7199C2.31742 12.7799 2.31742 11.2399 3.72742 10.2999C4.79742 9.58992 6.32742 9.34991 7.69742 9.58991" stroke="#292D32" stroke-width="1.5" stroke-linecap="round" stroke-linejoin="round"/>
<path d="M12.67 14.63C12.61 14.62 12.54 14.62 12.48 14.63C11.1 14.58 10 13.45 10 12.05C10 10.62 11.15 9.46997 12.58 9.46997C14.01 9.46997 15.16 10.63 15.16 12.05C15.15 13.45 14.05 14.59 12.67 14.63Z" stroke="#292D32" stroke-width="1.5" stroke-linecap="round" stroke-linejoin="round"/>
<path d="M9.76014 17.7799C8.35014 18.7199 8.35014 20.2599 9.76014 21.1999C11.3601 22.2699 13.9801 22.2699 15.5801 21.1999C16.9901 20.2599 16.9901 18.7199 15.5801 17.7799C13.9901 16.7199 11.3601 16.7199 9.76014 17.7799Z" stroke="#292D32" stroke-width="1.5" stroke-linecap="round" stroke-linejoin="round"/>
</svg>
