<svg width="25" height="24" viewBox="0 0 25 24" fill="none" xmlns="http://www.w3.org/2000/svg">
<path d="M9.68164 2H15.6816C20.6816 2 22.6816 4 22.6816 9V15C22.6816 20 20.6816 22 15.6816 22H9.68164C4.68164 22 2.68164 20 2.68164 15V9C2.68164 4 4.68164 2 9.68164 2Z" stroke="#292D32" stroke-width="1.5" stroke-linecap="round" stroke-linejoin="round"/>
<path opacity="0.4" d="M9.00195 15.27L15.5419 8.72998" stroke="#292D32" stroke-width="1.5" stroke-linecap="round" stroke-linejoin="round"/>
<path opacity="0.4" d="M9.41165 10.37C10.091 10.37 10.6416 9.81936 10.6416 9.14005C10.6416 8.46073 10.091 7.91003 9.41165 7.91003C8.73234 7.91003 8.18164 8.46073 8.18164 9.14005C8.18164 9.81936 8.73234 10.37 9.41165 10.37Z" stroke="#292D32" stroke-width="1.5" stroke-linecap="round" stroke-linejoin="round"/>
<path opacity="0.4" d="M15.9517 16.09C16.631 16.09 17.1817 15.5393 17.1817 14.86C17.1817 14.1807 16.631 13.63 15.9517 13.63C15.2723 13.63 14.7217 14.1807 14.7217 14.86C14.7217 15.5393 15.2723 16.09 15.9517 16.09Z" stroke="#292D32" stroke-width="1.5" stroke-linecap="round" stroke-linejoin="round"/>
</svg>
