<svg width="25" height="24" viewBox="0 0 25 24" fill="none" xmlns="http://www.w3.org/2000/svg">
<path d="M17.6699 21H7.66992C3.66992 21 2.66992 20 2.66992 16V8C2.66992 4 3.66992 3 7.66992 3H17.6699C21.6699 3 22.6699 4 22.6699 8V16C22.6699 20 21.6699 21 17.6699 21Z" stroke="#292D32" stroke-width="1.5" stroke-linecap="round" stroke-linejoin="round"/>
<g opacity="0.4">
<path d="M14.6699 8H19.6699" stroke="#292D32" stroke-width="1.5" stroke-linecap="round" stroke-linejoin="round"/>
<path d="M15.6699 12H19.6699" stroke="#292D32" stroke-width="1.5" stroke-linecap="round" stroke-linejoin="round"/>
<path d="M17.6699 16H19.6699" stroke="#292D32" stroke-width="1.5" stroke-linecap="round" stroke-linejoin="round"/>
<path d="M9.17035 11.2899C10.17 11.2899 10.9804 10.4796 10.9804 9.47992C10.9804 8.48029 10.17 7.66992 9.17035 7.66992C8.17072 7.66992 7.36035 8.48029 7.36035 9.47992C7.36035 10.4796 8.17072 11.2899 9.17035 11.2899Z" stroke="#292D32" stroke-width="1.5" stroke-linecap="round" stroke-linejoin="round"/>
<path d="M12.6699 16.3298C12.5299 14.8798 11.3799 13.7398 9.92992 13.6098C9.42992 13.5598 8.91992 13.5598 8.40992 13.6098C6.95992 13.7498 5.80992 14.8798 5.66992 16.3298" stroke="#292D32" stroke-width="1.5" stroke-linecap="round" stroke-linejoin="round"/>
</g>
</svg>
