<svg width="25" height="24" viewBox="0 0 25 24" fill="none" xmlns="http://www.w3.org/2000/svg">
<path opacity="0.4" d="M7.91992 7H17.4199V5C17.4199 3 16.6699 2 14.4199 2H10.9199C8.66992 2 7.91992 3 7.91992 5V7Z" stroke="#292D32" stroke-width="1.5" stroke-miterlimit="10" stroke-linecap="round" stroke-linejoin="round"/>
<path d="M13.6402 15H16.6702V19C16.6702 21 15.6702 22 13.6702 22H11.6702C9.98023 22 9.00023 21.29 8.74023 19.86" stroke="#292D32" stroke-width="1.5" stroke-miterlimit="10" stroke-linecap="round" stroke-linejoin="round"/>
<path d="M6.66992 18C4.66992 18 3.66992 17 3.66992 15V10C3.66992 8 4.66992 7 6.66992 7H17.2599" stroke="#292D32" stroke-width="1.5" stroke-miterlimit="10" stroke-linecap="round" stroke-linejoin="round"/>
<path d="M20.6399 7.52002C21.3299 8.00002 21.6699 8.83002 21.6699 10V15C21.6699 17 20.6699 18 18.6699 18H16.6699V15H13.6699" stroke="#292D32" stroke-width="1.5" stroke-miterlimit="10" stroke-linecap="round" stroke-linejoin="round"/>
<path d="M17.67 15H16.46" stroke="#292D32" stroke-width="1.5" stroke-miterlimit="10" stroke-linecap="round" stroke-linejoin="round"/>
<path opacity="0.4" d="M7.66992 11H9.66992" stroke="#292D32" stroke-width="1.5" stroke-miterlimit="10" stroke-linecap="round" stroke-linejoin="round"/>
<path d="M22.6699 2L2.66992 22" stroke="#292D32" stroke-width="1.5" stroke-linecap="round" stroke-linejoin="round"/>
</svg>
