<svg width="25" height="24" viewBox="0 0 25 24" fill="none" xmlns="http://www.w3.org/2000/svg">
<path d="M9.82998 10.87C9.72998 10.86 9.60998 10.86 9.49998 10.87C7.11998 10.79 5.22998 8.84 5.22998 6.44C5.22998 3.99 7.20998 2 9.66998 2C12.12 2 14.11 3.99 14.11 6.44C14.1 8.84 12.21 10.79 9.82998 10.87Z" stroke="#292D32" stroke-width="1.5" stroke-linecap="round" stroke-linejoin="round"/>
<path opacity="0.4" d="M17.0797 4C19.0197 4 20.5797 5.57 20.5797 7.5C20.5797 9.39 19.0797 10.93 17.2097 11C17.1297 10.99 17.0397 10.99 16.9497 11" stroke="#292D32" stroke-width="1.5" stroke-linecap="round" stroke-linejoin="round"/>
<path d="M4.83014 14.56C2.41014 16.18 2.41014 18.82 4.83014 20.43C7.58014 22.27 12.0901 22.27 14.8401 20.43C17.2601 18.81 17.2601 16.17 14.8401 14.56C12.1001 12.73 7.59014 12.73 4.83014 14.56Z" stroke="#292D32" stroke-width="1.5" stroke-linecap="round" stroke-linejoin="round"/>
<path opacity="0.4" d="M19.0098 20C19.7298 19.85 20.4098 19.56 20.9698 19.13C22.5298 17.96 22.5298 16.03 20.9698 14.86C20.4198 14.44 19.7498 14.16 19.0398 14" stroke="#292D32" stroke-width="1.5" stroke-linecap="round" stroke-linejoin="round"/>
</svg>
