<svg width="25" height="24" viewBox="0 0 25 24" fill="none" xmlns="http://www.w3.org/2000/svg">
<g opacity="0.4">
<path d="M19.6699 16V6.5C19.6699 5.4 18.7699 4.5 17.6699 4.5H13.1699" stroke="#292D32" stroke-width="1.5" stroke-linecap="round" stroke-linejoin="round"/>
<path d="M15.6699 2L12.6699 4.5L15.6699 7" stroke="#292D32" stroke-width="1.5" stroke-linecap="round" stroke-linejoin="round"/>
</g>
<path opacity="0.4" d="M5.66992 9V16" stroke="#292D32" stroke-width="1.5" stroke-linecap="round" stroke-linejoin="round"/>
<path d="M5.91992 8.5C7.71485 8.5 9.16992 7.04493 9.16992 5.25C9.16992 3.45507 7.71485 2 5.91992 2C4.125 2 2.66992 3.45507 2.66992 5.25C2.66992 7.04493 4.125 8.5 5.91992 8.5Z" stroke="#292D32" stroke-width="1.5" stroke-linecap="round" stroke-linejoin="round"/>
<path d="M5.66992 22C7.32678 22 8.66992 20.6569 8.66992 19C8.66992 17.3431 7.32678 16 5.66992 16C4.01307 16 2.66992 17.3431 2.66992 19C2.66992 20.6569 4.01307 22 5.66992 22Z" stroke="#292D32" stroke-width="1.5" stroke-linecap="round" stroke-linejoin="round"/>
<path d="M19.6699 22C21.3268 22 22.6699 20.6569 22.6699 19C22.6699 17.3431 21.3268 16 19.6699 16C18.0131 16 16.6699 17.3431 16.6699 19C16.6699 20.6569 18.0131 22 19.6699 22Z" stroke="#292D32" stroke-width="1.5" stroke-linecap="round" stroke-linejoin="round"/>
</svg>
