<svg width="25" height="24" viewBox="0 0 25 24" fill="none" xmlns="http://www.w3.org/2000/svg">
<path opacity="0.4" d="M8.22998 7.55998V3.89C8.22998 3.06 8.83999 2.36998 9.64999 2.23998C11.65 1.92998 13.69 1.92998 15.69 2.23998C16.51 2.36998 17.11 3.07 17.11 3.89V9.77999C17.11 11.01 16.12 12 14.89 12H10.45C9.21998 12 8.22998 12.99 8.22998 14.22V20.11C8.22998 20.94 8.83999 21.63 9.64999 21.76C11.65 22.07 13.69 22.07 15.69 21.76C16.51 21.63 17.11 20.93 17.11 20.11V16.44" stroke="black" stroke-width="1.5" stroke-linecap="round" stroke-linejoin="round"/>
<path d="M17.1099 7.56H20.7799C21.6099 7.56 22.2999 8.17001 22.4299 8.98001C22.7399 10.98 22.7399 13.02 22.4299 15.02C22.2999 15.84 21.5999 16.44 20.7799 16.44H12.6699" stroke="black" stroke-width="1.5" stroke-linecap="round" stroke-linejoin="round"/>
<path d="M12.67 7.56H4.54997C3.71997 7.56 3.02998 8.17001 2.89998 8.98001C2.58998 10.98 2.58998 13.02 2.89998 15.02C3.02998 15.84 3.72997 16.44 4.54997 16.44H8.21996" stroke="black" stroke-width="1.5" stroke-linecap="round" stroke-linejoin="round"/>
<path opacity="0.4" d="M10.6699 4.84998V4.84998" stroke="black" stroke-width="1.5" stroke-linecap="round" stroke-linejoin="round"/>
<path opacity="0.4" d="M14.6699 19.15V19.15" stroke="black" stroke-width="1.5" stroke-linecap="round" stroke-linejoin="round"/>
</svg>
