<svg width="25" height="24" viewBox="0 0 25 24" fill="none" xmlns="http://www.w3.org/2000/svg">
<path d="M9.67188 22H15.6719C20.6719 22 22.6719 20 22.6719 15V9C22.6719 4 20.6719 2 15.6719 2H9.67188C4.67188 2 2.67188 4 2.67188 9V15C2.67188 20 4.67188 22 9.67188 22Z" stroke="#292D32" stroke-width="1.5" stroke-linecap="round" stroke-linejoin="round"/>
<g opacity="0.4">
<path d="M7.67188 12.1599H10.3519C11.0619 12.1599 11.5419 12.6999 11.5419 13.3499V14.84C11.5419 15.49 11.0619 16.03 10.3519 16.03H8.86188C8.21188 16.03 7.67188 15.49 7.67188 14.84V12.1599" stroke="#292D32" stroke-width="1.5" stroke-linecap="round" stroke-linejoin="round"/>
<path d="M7.67188 12.16C7.67188 9.36997 8.19187 8.89997 9.76187 7.96997" stroke="#292D32" stroke-width="1.5" stroke-linecap="round" stroke-linejoin="round"/>
<path d="M13.8125 12.1599H16.4925C17.2025 12.1599 17.6825 12.6999 17.6825 13.3499V14.84C17.6825 15.49 17.2025 16.03 16.4925 16.03H15.0025C14.3525 16.03 13.8125 15.49 13.8125 14.84V12.1599" stroke="#292D32" stroke-width="1.5" stroke-linecap="round" stroke-linejoin="round"/>
<path d="M13.8125 12.16C13.8125 9.36997 14.3325 8.89997 15.9025 7.96997" stroke="#292D32" stroke-width="1.5" stroke-linecap="round" stroke-linejoin="round"/>
</g>
</svg>
