<svg width="25" height="24" viewBox="0 0 25 24" fill="none" xmlns="http://www.w3.org/2000/svg">
<path d="M9.67188 22H15.6719C20.6719 22 22.6719 20 22.6719 15V9C22.6719 4 20.6719 2 15.6719 2H9.67188C4.67188 2 2.67188 4 2.67188 9V15C2.67188 20 4.67188 22 9.67188 22Z" stroke="#292D32" stroke-width="1.5" stroke-linecap="round" stroke-linejoin="round"/>
<g opacity="0.4">
<path d="M17.6718 11.84H14.9918C14.2818 11.84 13.8018 11.3 13.8018 10.65V9.15997C13.8018 8.50997 14.2818 7.96997 14.9918 7.96997H16.4818C17.1318 7.96997 17.6718 8.50997 17.6718 9.15997V11.84Z" stroke="#292D32" stroke-width="1.5" stroke-linecap="round" stroke-linejoin="round"/>
<path d="M17.672 11.8401C17.672 14.6301 17.152 15.1001 15.582 16.0301" stroke="#292D32" stroke-width="1.5" stroke-linecap="round" stroke-linejoin="round"/>
<path d="M11.5321 11.84H8.85211C8.14211 11.84 7.66211 11.3 7.66211 10.65V9.15997C7.66211 8.50997 8.14211 7.96997 8.85211 7.96997H10.3421C10.9921 7.96997 11.5321 8.50997 11.5321 9.15997V11.84Z" stroke="#292D32" stroke-width="1.5" stroke-linecap="round" stroke-linejoin="round"/>
<path d="M11.5314 11.8401C11.5314 14.6301 11.0114 15.1001 9.44141 16.0301" stroke="#292D32" stroke-width="1.5" stroke-linecap="round" stroke-linejoin="round"/>
</g>
</svg>
