<svg width="25" height="24" viewBox="0 0 25 24" fill="none" xmlns="http://www.w3.org/2000/svg">
<path d="M22.672 11.65H16.872C15.342 11.65 14.292 10.49 14.292 9.07001V5.84998C14.292 4.42998 15.342 3.27002 16.872 3.27002H20.092C21.512 3.27002 22.672 4.42998 22.672 5.84998V11.65Z" stroke="#292D32" stroke-width="1.5" stroke-linecap="round" stroke-linejoin="round"/>
<path d="M22.6716 11.65C22.6716 17.7 21.5416 18.7 18.1416 20.72" stroke="#292D32" stroke-width="1.5" stroke-linecap="round" stroke-linejoin="round"/>
<g opacity="0.4">
<path d="M11.0421 11.65H5.24211C3.71211 11.65 2.66211 10.49 2.66211 9.07001V5.84998C2.66211 4.42998 3.71211 3.27002 5.24211 3.27002H8.47211C9.89211 3.27002 11.0521 4.42998 11.0521 5.84998V11.65" stroke="#292D32" stroke-width="1.5" stroke-linecap="round" stroke-linejoin="round"/>
<path d="M11.0417 11.65C11.0417 17.7 9.91172 18.7 6.51172 20.72" stroke="#292D32" stroke-width="1.5" stroke-linecap="round" stroke-linejoin="round"/>
</g>
</svg>
