<svg width="25" height="24" viewBox="0 0 25 24" fill="none" xmlns="http://www.w3.org/2000/svg">
<path opacity="0.4" d="M12.6699 14C13.7745 14 14.6699 13.1046 14.6699 12C14.6699 10.8954 13.7745 10 12.6699 10C11.5654 10 10.6699 10.8954 10.6699 12C10.6699 13.1046 11.5654 14 12.6699 14Z" stroke="#292D32" stroke-width="1.5" stroke-linecap="round" stroke-linejoin="round"/>
<path d="M20.6699 18C21.9299 16.33 22.6699 14.25 22.6699 12C22.6699 9.75 21.9299 7.67 20.6699 6" stroke="#292D32" stroke-width="1.5" stroke-linecap="round" stroke-linejoin="round"/>
<path d="M4.66992 6C3.40992 7.67 2.66992 9.75 2.66992 12C2.66992 14.25 3.40992 16.33 4.66992 18" stroke="#292D32" stroke-width="1.5" stroke-linecap="round" stroke-linejoin="round"/>
<path opacity="0.4" d="M17.47 15.5999C18.22 14.5999 18.67 13.3499 18.67 11.9999C18.67 10.6499 18.22 9.3999 17.47 8.3999" stroke="#292D32" stroke-width="1.5" stroke-linecap="round" stroke-linejoin="round"/>
<path opacity="0.4" d="M7.86993 8.3999C7.11993 9.3999 6.66992 10.6499 6.66992 11.9999C6.66992 13.3499 7.11993 14.5999 7.86993 15.5999" stroke="#292D32" stroke-width="1.5" stroke-linecap="round" stroke-linejoin="round"/>
</svg>
