<svg width="25" height="24" viewBox="0 0 25 24" fill="none" xmlns="http://www.w3.org/2000/svg">
<path d="M17.6699 5H7.66992C4.66992 5 2.66992 7 2.66992 10V17C2.66992 20 4.66992 22 7.66992 22H17.6699C20.6699 22 22.6699 20 22.6699 17V10C22.6699 7 20.6699 5 17.6699 5Z" stroke="#292D32" stroke-width="1.5" stroke-linecap="round" stroke-linejoin="round"/>
<path d="M7.66992 2V5" stroke="#292D32" stroke-width="1.5" stroke-linecap="round" stroke-linejoin="round"/>
<path opacity="0.4" d="M9.16992 16C10.5506 16 11.6699 14.8807 11.6699 13.5C11.6699 12.1193 10.5506 11 9.16992 11C7.78921 11 6.66992 12.1193 6.66992 13.5C6.66992 14.8807 7.78921 16 9.16992 16Z" stroke="#292D32" stroke-width="1.5" stroke-linecap="round" stroke-linejoin="round"/>
<path opacity="0.4" d="M15.1699 11H19.1699" stroke="#292D32" stroke-width="1.5" stroke-linecap="round" stroke-linejoin="round"/>
<path opacity="0.4" d="M15.1699 15H15.6699" stroke="#292D32" stroke-width="1.5" stroke-linecap="round" stroke-linejoin="round"/>
<path opacity="0.4" d="M18.6699 15H19.1699" stroke="#292D32" stroke-width="1.5" stroke-linecap="round" stroke-linejoin="round"/>
</svg>
