<svg width="25" height="24" viewBox="0 0 25 24" fill="none" xmlns="http://www.w3.org/2000/svg">
<path d="M4.16992 7V17C4.16992 20 5.63992 22 9.16992 22H16.1699C19.6399 22 21.1699 20 21.1699 17V15.83C21.1699 15.3 20.9599 14.79 20.5799 14.42L19.7499 13.59C19.3699 13.21 19.1599 12.71 19.1599 12.18V10C19.1599 9.45 19.6099 9 20.1599 9C20.7099 9 21.1599 8.55 21.1599 8V7C21.1599 4 19.6299 2 16.1599 2H9.15992C5.63992 2 4.16992 4 4.16992 7Z" stroke="#292D32" stroke-width="1.5" stroke-linecap="round" stroke-linejoin="round"/>
<path opacity="0.4" d="M8.66039 21.97L8.65039 19C8.65039 17.89 9.54039 17 10.6504 17H14.6604C15.7604 17 16.6504 17.89 16.6604 18.99L16.6904 21.98" stroke="#292D32" stroke-width="1.5" stroke-linecap="round" stroke-linejoin="round"/>
<path opacity="0.4" d="M14.6396 7.78003H8.63965" stroke="#292D32" stroke-width="1.5" stroke-linecap="round" stroke-linejoin="round"/>
</svg>
