<svg width="25" height="24" viewBox="0 0 25 24" fill="none" xmlns="http://www.w3.org/2000/svg">
<path d="M22.6699 6V8.42C22.6699 10 21.6699 11 20.0899 11H16.6699V4.01C16.6699 2.9 17.5799 2 18.6899 2C19.7799 2.01 20.7799 2.45 21.4999 3.17C22.2199 3.9 22.6699 4.9 22.6699 6Z" stroke="#292D32" stroke-width="1.5" stroke-miterlimit="10" stroke-linecap="round" stroke-linejoin="round"/>
<path d="M2.66992 7V21C2.66992 21.83 3.6099 22.3 4.2699 21.8L5.97992 20.52C6.37992 20.22 6.93993 20.26 7.29993 20.62L8.9599 22.29C9.3499 22.68 9.98994 22.68 10.3799 22.29L12.0599 20.61C12.4099 20.26 12.9699 20.22 13.3599 20.52L15.0699 21.8C15.7299 22.29 16.6699 21.82 16.6699 21V4C16.6699 2.9 17.5699 2 18.6699 2H7.66992H6.66992C3.66992 2 2.66992 3.79 2.66992 6V7Z" stroke="#292D32" stroke-width="1.5" stroke-miterlimit="10" stroke-linecap="round" stroke-linejoin="round"/>
<path opacity="0.4" d="M6.66992 9H12.6699" stroke="#292D32" stroke-width="1.5" stroke-linecap="round" stroke-linejoin="round"/>
<path opacity="0.4" d="M7.41992 13H11.9199" stroke="#292D32" stroke-width="1.5" stroke-linecap="round" stroke-linejoin="round"/>
</svg>
