<svg width="25" height="24" viewBox="0 0 25 24" fill="none" xmlns="http://www.w3.org/2000/svg">
<path d="M21.1699 11.3V7.04001C21.1699 3.01001 20.2299 2 16.4499 2H8.88992C5.10992 2 4.16992 3.01001 4.16992 7.04001V18.3C4.16992 20.96 5.62993 21.59 7.39993 19.69L7.40991 19.68C8.22991 18.81 9.47991 18.88 10.1899 19.83L11.1999 21.18" stroke="#292D32" stroke-width="1.5" stroke-linecap="round" stroke-linejoin="round"/>
<path opacity="0.4" d="M8.66992 7H16.6699" stroke="#292D32" stroke-width="1.5" stroke-linecap="round" stroke-linejoin="round"/>
<path opacity="0.4" d="M9.66992 11H15.6699" stroke="#292D32" stroke-width="1.5" stroke-linecap="round" stroke-linejoin="round"/>
<path d="M18.88 14.77L15.34 18.31C15.2 18.45 15.07 18.71 15.04 18.9L14.85 20.25C14.78 20.74 15.12 21.0801 15.61 21.0101L16.96 20.82C17.15 20.79 17.42 20.66 17.55 20.52L21.09 16.9801C21.7 16.3701 21.99 15.6601 21.09 14.7601C20.2 13.8701 19.49 14.16 18.88 14.77Z" stroke="#292D32" stroke-width="1.5" stroke-miterlimit="10" stroke-linecap="round" stroke-linejoin="round"/>
<path d="M18.3701 15.28C18.6701 16.36 19.5101 17.2 20.5901 17.5" stroke="#292D32" stroke-width="1.5" stroke-miterlimit="10" stroke-linecap="round" stroke-linejoin="round"/>
</svg>
