<svg width="25" height="24" viewBox="0 0 25 24" fill="none" xmlns="http://www.w3.org/2000/svg">
<path d="M15.2699 12.5799V15.3099C15.2699 17.5899 14.3599 18.4999 12.0799 18.4999H9.35992C7.08992 18.4999 6.16992 17.5899 6.16992 15.3099V12.5799C6.16992 10.3099 7.07992 9.3999 9.35992 9.3999H12.0899C14.3599 9.3999 15.2699 10.3099 15.2699 12.5799Z" stroke="#292D32" stroke-width="1.5" stroke-linecap="round" stroke-linejoin="round"/>
<path d="M19.1703 8.68V11.41C19.1703 13.69 18.2603 14.6 15.9803 14.6H15.2703V12.58C15.2703 10.31 14.3603 9.4 12.0803 9.4H10.0703V8.68C10.0703 6.4 10.9803 5.5 13.2603 5.5H15.9903C18.2603 5.5 19.1703 6.41 19.1703 8.68Z" stroke="#292D32" stroke-width="1.5" stroke-linecap="round" stroke-linejoin="round"/>
<path opacity="0.4" d="M22.6699 15C22.6699 18.87 19.5399 22 15.6699 22L16.7199 20.25" stroke="#292D32" stroke-width="1.5" stroke-linecap="round" stroke-linejoin="round"/>
<path opacity="0.4" d="M2.66992 9C2.66992 5.13 5.79992 2 9.66992 2L8.61992 3.75" stroke="#292D32" stroke-width="1.5" stroke-linecap="round" stroke-linejoin="round"/>
</svg>
