<svg width="25" height="24" viewBox="0 0 25 24" fill="none" xmlns="http://www.w3.org/2000/svg">
<path d="M9.66992 22H15.6699C20.6699 22 22.6699 20 22.6699 15V9C22.6699 4 20.6699 2 15.6699 2H9.66992C4.66992 2 2.66992 4 2.66992 9V15C2.66992 20 4.66992 22 9.66992 22Z" stroke="#292D32" stroke-width="1.5" stroke-linecap="round" stroke-linejoin="round"/>
<path opacity="0.4" d="M18.1699 12C18.1699 15.04 15.7099 17.5 12.6699 17.5C9.62992 17.5 7.77991 14.44 7.77991 14.44M7.77991 14.44H10.2599M7.77991 14.44V17.19M7.16992 12C7.16992 8.96 9.60992 6.5 12.6699 6.5C16.3399 6.5 18.1699 9.56 18.1699 9.56M18.1699 9.56V6.81M18.1699 9.56H15.7299" stroke="#292D32" stroke-width="1.5" stroke-linecap="round" stroke-linejoin="round"/>
</svg>
