<svg width="25" height="24" viewBox="0 0 25 24" fill="none" xmlns="http://www.w3.org/2000/svg">
<path d="M12.6699 22C18.1928 22 22.6699 17.5228 22.6699 12C22.6699 6.47715 18.1928 2 12.6699 2C7.14707 2 2.66992 6.47715 2.66992 12C2.66992 17.5228 7.14707 22 12.6699 22Z" stroke="#292D32" stroke-width="1.5" stroke-linecap="round" stroke-linejoin="round"/>
<g opacity="0.4">
<path d="M8.67969 14.5101C8.85969 14.8101 9.07968 15.0901 9.32968 15.3401C11.1697 17.1801 14.1597 17.1801 16.0097 15.3401C16.7597 14.5901 17.1897 13.64 17.3297 12.67" stroke="#292D32" stroke-width="1.5" stroke-linecap="round" stroke-linejoin="round"/>
<path d="M8.00977 11.3301C8.14977 10.3501 8.57977 9.41003 9.32977 8.66003C11.1698 6.82003 14.1598 6.82003 16.0098 8.66003C16.2698 8.92003 16.4798 9.20005 16.6598 9.49005" stroke="#292D32" stroke-width="1.5" stroke-linecap="round" stroke-linejoin="round"/>
<path d="M8.48975 17.18V14.51H11.1597" stroke="#292D32" stroke-width="1.5" stroke-linecap="round" stroke-linejoin="round"/>
<path d="M16.8497 6.82007V9.49005H14.1797" stroke="#292D32" stroke-width="1.5" stroke-linecap="round" stroke-linejoin="round"/>
</g>
</svg>
