<svg width="25" height="24" viewBox="0 0 25 24" fill="none" xmlns="http://www.w3.org/2000/svg">
<path opacity="0.4" d="M2.73998 4.59988C3.53998 1.13988 8.74998 1.13988 9.53998 4.59988C10.01 6.62988 8.71998 8.34988 7.59998 9.41988C6.77998 10.1999 5.48998 10.1899 4.66998 9.41988C3.55998 8.34988 2.26998 6.62988 2.73998 4.59988Z" stroke="#292D32" stroke-width="1.5"/>
<path opacity="0.4" d="M15.7399 16.5999C16.5399 13.1399 21.7799 13.1399 22.5799 16.5999C23.0499 18.6299 21.7599 20.3499 20.6299 21.4199C19.8099 22.1999 18.5099 22.1899 17.6899 21.4199C16.5599 20.3499 15.2699 18.6299 15.7399 16.5999Z" stroke="#292D32" stroke-width="1.5"/>
<path d="M12.6696 5H15.3496C17.1996 5 18.0596 7.29 16.6696 8.51L8.67962 15.5C7.28962 16.71 8.14962 19 9.98962 19H12.6696" stroke="#292D32" stroke-width="1.5" stroke-linecap="round" stroke-linejoin="round"/>
<path d="M6.15565 5.5H6.1672" stroke="#292D32" stroke-width="2" stroke-linecap="round" stroke-linejoin="round"/>
<path d="M19.1556 17.5H19.1672" stroke="#292D32" stroke-width="2" stroke-linecap="round" stroke-linejoin="round"/>
</svg>
