<svg width="25" height="24" viewBox="0 0 25 24" fill="none" xmlns="http://www.w3.org/2000/svg">
<path d="M2.66992 9V6.5C2.66992 4.01 4.67992 2 7.16992 2H9.66992" stroke="#292D32" stroke-width="1.5" stroke-linecap="round" stroke-linejoin="round"/>
<path d="M15.6699 2H18.1699C20.6599 2 22.6699 4.01 22.6699 6.5V9" stroke="#292D32" stroke-width="1.5" stroke-linecap="round" stroke-linejoin="round"/>
<path d="M22.6699 16V17.5C22.6699 19.99 20.6599 22 18.1699 22H16.6699" stroke="#292D32" stroke-width="1.5" stroke-linecap="round" stroke-linejoin="round"/>
<path d="M9.66992 22H7.16992C4.67992 22 2.66992 19.99 2.66992 17.5V15" stroke="#292D32" stroke-width="1.5" stroke-linecap="round" stroke-linejoin="round"/>
<path opacity="0.4" d="M9.16992 11C10.5506 11 11.6699 9.88071 11.6699 8.5C11.6699 7.11929 10.5506 6 9.16992 6C7.78921 6 6.66992 7.11929 6.66992 8.5C6.66992 9.88071 7.78921 11 9.16992 11Z" stroke="#292D32" stroke-width="1.5" stroke-linecap="round" stroke-linejoin="round"/>
<path opacity="0.4" d="M8.16992 18C8.99835 18 9.66992 17.3284 9.66992 16.5C9.66992 15.6716 8.99835 15 8.16992 15C7.34149 15 6.66992 15.6716 6.66992 16.5C6.66992 17.3284 7.34149 18 8.16992 18Z" stroke="#292D32" stroke-width="1.5" stroke-linecap="round" stroke-linejoin="round"/>
<path opacity="0.4" d="M17.1699 9C17.9983 9 18.6699 8.32843 18.6699 7.5C18.6699 6.67157 17.9983 6 17.1699 6C16.3415 6 15.6699 6.67157 15.6699 7.5C15.6699 8.32843 16.3415 9 17.1699 9Z" stroke="#292D32" stroke-width="1.5" stroke-linecap="round" stroke-linejoin="round"/>
<path opacity="0.4" d="M16.1699 18C17.5506 18 18.6699 16.8807 18.6699 15.5C18.6699 14.1193 17.5506 13 16.1699 13C14.7892 13 13.6699 14.1193 13.6699 15.5C13.6699 16.8807 14.7892 18 16.1699 18Z" stroke="#292D32" stroke-width="1.5" stroke-linecap="round" stroke-linejoin="round"/>
</svg>
