<svg width="25" height="24" viewBox="0 0 25 24" fill="none" xmlns="http://www.w3.org/2000/svg">
<path d="M2.66992 9V6.5C2.66992 4.01 4.67992 2 7.16992 2H9.66992" stroke="#292D32" stroke-width="1.5" stroke-linecap="round" stroke-linejoin="round"/>
<path d="M15.6699 2H18.1699C20.6599 2 22.6699 4.01 22.6699 6.5V9" stroke="#292D32" stroke-width="1.5" stroke-linecap="round" stroke-linejoin="round"/>
<path d="M22.6699 16V17.5C22.6699 19.99 20.6599 22 18.1699 22H16.6699" stroke="#292D32" stroke-width="1.5" stroke-linecap="round" stroke-linejoin="round"/>
<path d="M9.66992 22H7.16992C4.67992 22 2.66992 19.99 2.66992 17.5V15" stroke="#292D32" stroke-width="1.5" stroke-linecap="round" stroke-linejoin="round"/>
<g opacity="0.4">
<path d="M17.6699 9.5V14.5C17.6699 16.5 16.6699 17.5 14.6699 17.5H10.6699C8.66992 17.5 7.66992 16.5 7.66992 14.5V9.5C7.66992 7.5 8.66992 6.5 10.6699 6.5H14.6699C16.6699 6.5 17.6699 7.5 17.6699 9.5Z" stroke="#292D32" stroke-width="1.5" stroke-linecap="round" stroke-linejoin="round"/>
<path d="M19.6699 12H5.66992" stroke="#292D32" stroke-width="1.5" stroke-linecap="round" stroke-linejoin="round"/>
</g>
</svg>
