<svg width="25" height="24" viewBox="0 0 25 24" fill="none" xmlns="http://www.w3.org/2000/svg">
<path d="M6.16992 10C8.10292 10 9.66992 8.433 9.66992 6.5C9.66992 4.567 8.10292 3 6.16992 3C4.23693 3 2.66992 4.567 2.66992 6.5C2.66992 8.433 4.23693 10 6.16992 10Z" stroke="#292D32" stroke-width="1.5" stroke-linecap="round" stroke-linejoin="round"/>
<path d="M6.16992 21C8.10292 21 9.66992 19.433 9.66992 17.5C9.66992 15.567 8.10292 14 6.16992 14C4.23693 14 2.66992 15.567 2.66992 17.5C2.66992 19.433 4.23693 21 6.16992 21Z" stroke="#292D32" stroke-width="1.5" stroke-linecap="round" stroke-linejoin="round"/>
<g opacity="0.4">
<path d="M22.6703 6L9.32031 15.98" stroke="#292D32" stroke-width="1.5" stroke-linecap="round" stroke-linejoin="round"/>
<path d="M22.6703 17.97L9.32031 7.97998" stroke="#292D32" stroke-width="1.5" stroke-linecap="round" stroke-linejoin="round"/>
</g>
</svg>
