<svg width="25" height="24" viewBox="0 0 25 24" fill="none" xmlns="http://www.w3.org/2000/svg">
<path d="M9.66992 22H15.6699C20.6699 22 22.6699 20 22.6699 15V9C22.6699 4 20.6699 2 15.6699 2H9.66992C4.66992 2 2.66992 4 2.66992 9V15C2.66992 20 4.66992 22 9.66992 22Z" stroke="#292D32" stroke-width="1.5" stroke-linecap="round" stroke-linejoin="round"/>
<path opacity="0.4" d="M13.2699 18.5H17.0699C18.5699 18.5 19.1699 17.9 19.1699 16.4V14.6C19.1699 13.1 18.5699 12.5 17.0699 12.5H13.2699C11.7699 12.5 11.1699 13.1 11.1699 14.6V16.4C11.1699 17.9 11.7699 18.5 13.2699 18.5Z" stroke="#292D32" stroke-width="1.5" stroke-linecap="round" stroke-linejoin="round"/>
</svg>
