<svg width="25" height="24" viewBox="0 0 25 24" fill="none" xmlns="http://www.w3.org/2000/svg">
<path d="M21.6699 11.5C21.6699 16.75 17.4199 21 12.1699 21C6.91992 21 2.66992 16.75 2.66992 11.5C2.66992 6.25 6.91992 2 12.1699 2" stroke="#292D32" stroke-width="1.5" stroke-linecap="round" stroke-linejoin="round"/>
<path opacity="0.4" d="M22.6699 22L20.6699 20" stroke="#292D32" stroke-width="1.5" stroke-linecap="round" stroke-linejoin="round"/>
<path opacity="0.4" d="M15.1698 6.13008C14.8198 5.03008 15.2298 3.66008 16.3898 3.29008C16.9998 3.09008 17.7498 3.26008 18.1798 3.85008C18.5798 3.24008 19.3598 3.10008 19.9598 3.29008C21.1198 3.66008 21.5298 5.03008 21.1798 6.13008C20.6298 7.88008 18.7098 8.79008 18.1798 8.79008C17.6398 8.79008 15.7398 7.90008 15.1698 6.13008Z" stroke="#292D32" stroke-width="1.5" stroke-linecap="round" stroke-linejoin="round"/>
</svg>
