<svg width="25" height="24" viewBox="0 0 25 24" fill="none" xmlns="http://www.w3.org/2000/svg">
<path d="M11.1601 2.23006L6.17007 4.10006C5.02007 4.53006 4.08008 5.89006 4.08008 7.12006V14.5501C4.08008 15.7301 4.86009 17.2801 5.81009 17.9901L10.1101 21.2001C11.5201 22.2601 13.8401 22.2601 15.2501 21.2001L19.5501 17.9901C20.5001 17.2801 21.2801 15.7301 21.2801 14.5501V7.12006C21.2801 5.89006 20.3401 4.53006 19.1901 4.10006L14.2001 2.23006C13.3501 1.92006 11.9901 1.92006 11.1601 2.23006Z" stroke="#292D32" stroke-width="1.5" stroke-linecap="round" stroke-linejoin="round"/>
<path opacity="0.4" d="M12.6699 15.5C14.8791 15.5 16.6699 13.7091 16.6699 11.5C16.6699 9.29086 14.8791 7.5 12.6699 7.5C10.4608 7.5 8.66992 9.29086 8.66992 11.5C8.66992 13.7091 10.4608 15.5 12.6699 15.5Z" stroke="#292D32" stroke-width="1.5" stroke-miterlimit="10" stroke-linecap="round" stroke-linejoin="round"/>
<path opacity="0.4" d="M12.9199 10.25V11.18C12.9199 11.53 12.7399 11.86 12.4299 12.04L11.6699 12.5" stroke="#292D32" stroke-width="1.5" stroke-miterlimit="10" stroke-linecap="round" stroke-linejoin="round"/>
</svg>
