<svg width="25" height="24" viewBox="0 0 25 24" fill="none" xmlns="http://www.w3.org/2000/svg">
<path d="M11.1598 2.23006L6.16983 4.10005C5.01983 4.53005 4.07983 5.89004 4.07983 7.12004V14.55C4.07983 15.73 4.85984 17.28 5.80984 17.99L10.1098 21.2001C11.5198 22.2601 13.8398 22.2601 15.2498 21.2001L19.5498 17.99C20.4998 17.28 21.2798 15.73 21.2798 14.55V7.12004C21.2798 5.89004 20.3398 4.53005 19.1898 4.10005L14.1998 2.23006C13.3498 1.92006 11.9898 1.92006 11.1598 2.23006Z" stroke="#292D32" stroke-width="1.5" stroke-linecap="round" stroke-linejoin="round"/>
<path opacity="0.4" d="M12.6699 10.9199C12.6299 10.9199 12.5799 10.9199 12.5399 10.9199C11.5999 10.8899 10.8499 10.1099 10.8499 9.15991C10.8499 8.18991 11.6399 7.3999 12.6099 7.3999C13.5799 7.3999 14.3699 8.18991 14.3699 9.15991C14.3599 10.1199 13.6099 10.8899 12.6699 10.9199Z" stroke="#292D32" stroke-width="1.5" stroke-linecap="round" stroke-linejoin="round"/>
<path opacity="0.4" d="M10.68 13.7199C9.71996 14.3599 9.71996 15.4099 10.68 16.0498C11.77 16.7799 13.56 16.7799 14.65 16.0498C15.61 15.4099 15.61 14.3599 14.65 13.7199C13.57 12.9899 11.78 12.9899 10.68 13.7199Z" stroke="#292D32" stroke-width="1.5" stroke-linecap="round" stroke-linejoin="round"/>
</svg>
