<svg width="25" height="24" viewBox="0 0 25 24" fill="none" xmlns="http://www.w3.org/2000/svg">
<path d="M21.58 11.1198C21.58 16.0098 18.03 20.5898 13.18 21.9298C12.85 22.0198 12.49 22.0198 12.16 21.9298C7.31 20.5898 3.76001 16.0098 3.76001 11.1198V6.72979C3.76001 5.90979 4.38002 4.97979 5.15002 4.66979L10.72 2.38982C11.97 1.87982 13.38 1.87982 14.63 2.38982L20.2 4.66979C20.96 4.97979 21.59 5.90979 21.59 6.72979L21.58 11.1198Z" stroke="#292D32" stroke-width="1.5" stroke-linecap="round" stroke-linejoin="round"/>
<g opacity="0.4">
<path d="M12.6699 12.5C13.7745 12.5 14.6699 11.6046 14.6699 10.5C14.6699 9.39543 13.7745 8.5 12.6699 8.5C11.5654 8.5 10.6699 9.39543 10.6699 10.5C10.6699 11.6046 11.5654 12.5 12.6699 12.5Z" stroke="#292D32" stroke-width="1.5" stroke-miterlimit="10" stroke-linecap="round" stroke-linejoin="round"/>
<path d="M12.6699 12.5V15.5" stroke="#292D32" stroke-width="1.5" stroke-miterlimit="10" stroke-linecap="round" stroke-linejoin="round"/>
</g>
</svg>
