<svg width="25" height="24" viewBox="0 0 25 24" fill="none" xmlns="http://www.w3.org/2000/svg">
<path opacity="0.4" d="M21.58 11.1198C21.58 16.0098 18.03 20.5898 13.18 21.9298C12.85 22.0198 12.49 22.0198 12.16 21.9298C7.31 20.5898 3.76001 16.0098 3.76001 11.1198V6.72979C3.76001 5.90979 4.38002 4.97979 5.15002 4.66979L10.72 2.38982C11.97 1.87982 13.38 1.87982 14.63 2.38982L20.2 4.66979C20.96 4.97979 21.59 5.90979 21.59 6.72979L21.58 11.1198Z" stroke="#292D32" stroke-width="1.5" stroke-linecap="round" stroke-linejoin="round"/>
<path d="M10.71 2.38982C11.96 1.87982 13.37 1.87982 14.62 2.38982L20.19 4.66979C20.95 4.97979 21.58 5.90979 21.58 6.72979V11.1198C21.58 16.0098 18.03 20.5898 13.18 21.9298C12.85 22.0198 12.49 22.0198 12.16 21.9298C7.31 20.5898 3.76001 16.0098 3.76001 11.1198" stroke="#292D32" stroke-width="1.5" stroke-linecap="round" stroke-linejoin="round"/>
</svg>
