<svg width="25" height="24" viewBox="0 0 25 24" fill="none" xmlns="http://www.w3.org/2000/svg">
<path d="M22.6699 6.5H16.6699" stroke="#292D32" stroke-width="1.5" stroke-miterlimit="10" stroke-linecap="round" stroke-linejoin="round"/>
<g opacity="0.4">
<path d="M6.66992 6.5H2.66992" stroke="#292D32" stroke-width="1.5" stroke-miterlimit="10" stroke-linecap="round" stroke-linejoin="round"/>
<path d="M10.6699 10C12.6029 10 14.1699 8.433 14.1699 6.5C14.1699 4.567 12.6029 3 10.6699 3C8.73693 3 7.16992 4.567 7.16992 6.5C7.16992 8.433 8.73693 10 10.6699 10Z" stroke="#292D32" stroke-width="1.5" stroke-miterlimit="10" stroke-linecap="round" stroke-linejoin="round"/>
</g>
<path d="M8.66992 17.5H2.66992" stroke="#292D32" stroke-width="1.5" stroke-miterlimit="10" stroke-linecap="round" stroke-linejoin="round"/>
<g opacity="0.4">
<path d="M22.6699 17.5H18.6699" stroke="#292D32" stroke-width="1.5" stroke-miterlimit="10" stroke-linecap="round" stroke-linejoin="round"/>
<path d="M14.6699 21C16.6029 21 18.1699 19.433 18.1699 17.5C18.1699 15.567 16.6029 14 14.6699 14C12.7369 14 11.1699 15.567 11.1699 17.5C11.1699 19.433 12.7369 21 14.6699 21Z" stroke="#292D32" stroke-width="1.5" stroke-miterlimit="10" stroke-linecap="round" stroke-linejoin="round"/>
</g>
</svg>
