<svg width="25" height="24" viewBox="0 0 25 24" fill="none" xmlns="http://www.w3.org/2000/svg">
<path d="M12.6704 12C14.5004 12 15.8504 10.51 15.6704 8.68L15.0104 2H10.3404L9.6704 8.68C9.4904 10.51 10.8404 12 12.6704 12Z" stroke="#292D32" stroke-width="1.5" stroke-linecap="round" stroke-linejoin="round"/>
<path d="M18.9797 12C20.9997 12 22.4797 10.36 22.2797 8.35L21.9997 5.6C21.6397 3 20.6397 2 18.0197 2H14.9697L15.6697 9.01C15.8397 10.66 17.3297 12 18.9797 12Z" stroke="#292D32" stroke-width="1.5" stroke-linecap="round" stroke-linejoin="round"/>
<path d="M6.31029 12C7.96029 12 9.45029 10.66 9.61029 9.01L9.83029 6.8L10.3103 2H7.26029C4.64029 2 3.64029 3 3.28029 5.6L3.01029 8.35C2.81029 10.36 4.29029 12 6.31029 12Z" stroke="#292D32" stroke-width="1.5" stroke-linecap="round" stroke-linejoin="round"/>
<g opacity="0.4">
<path d="M3.67969 11.2197V15.7097C3.67969 20.1997 5.47969 21.9997 9.96969 21.9997H15.3597C19.8497 21.9997 21.6497 20.1997 21.6497 15.7097V11.2197" stroke="#292D32" stroke-width="1.5" stroke-linecap="round" stroke-linejoin="round"/>
<path d="M12.6699 17C10.9999 17 10.1699 17.83 10.1699 19.5V22H15.1699V19.5C15.1699 17.83 14.3399 17 12.6699 17Z" stroke="#292D32" stroke-width="1.5" stroke-linecap="round" stroke-linejoin="round"/>
</g>
</svg>
