<svg width="25" height="24" viewBox="0 0 25 24" fill="none" xmlns="http://www.w3.org/2000/svg">
<path d="M8.63989 2.84C9.86989 2.3 11.2299 2 12.6699 2C18.1899 2 22.6699 6.48 22.6699 12C22.6699 17.52 18.1899 22 12.6699 22C7.14992 22 2.66992 17.52 2.66992 12C2.66992 10.59 2.95993 9.24 3.48993 8.02" stroke="black" stroke-width="1.5" stroke-miterlimit="10" stroke-linecap="round" stroke-linejoin="round"/>
<path opacity="0.4" d="M16.6699 16.25V12C16.6699 9.65 14.7699 7.75 12.4199 7.75C10.0699 7.75 8.16992 9.65 8.16992 12C8.16992 14.35 10.0699 16.25 12.4199 16.25H16.6699Z" stroke="black" stroke-width="1.5" stroke-miterlimit="10" stroke-linecap="round" stroke-linejoin="round"/>
<path opacity="0.4" d="M5.66992 6.5C6.49835 6.5 7.16992 5.82843 7.16992 5C7.16992 4.17157 6.49835 3.5 5.66992 3.5C4.84149 3.5 4.16992 4.17157 4.16992 5C4.16992 5.82843 4.84149 6.5 5.66992 6.5Z" stroke="black" stroke-width="1.5" stroke-miterlimit="10" stroke-linecap="round" stroke-linejoin="round"/>
</svg>
