<svg width="25" height="24" viewBox="0 0 25 24" fill="none" xmlns="http://www.w3.org/2000/svg">
<path d="M17.8894 2H9.62948C9.22948 2 8.84946 2.14 8.53946 2.38L6.34945 4.13C5.46945 4.83 5.46945 6.15999 6.34945 6.85999L8.53946 8.60999C8.84946 8.85999 9.23948 8.98999 9.62948 8.98999H17.8894C18.8594 8.98999 19.6394 8.20999 19.6394 7.23999V3.73999C19.6394 2.77999 18.8594 2 17.8894 2Z" stroke="#292D32" stroke-width="1.5" stroke-linecap="round" stroke-linejoin="round"/>
<path d="M7.46973 12H15.7297C16.1297 12 16.5098 12.14 16.8198 12.38L19.0098 14.13C19.8898 14.83 19.8898 16.16 19.0098 16.86L16.8198 18.61C16.5098 18.86 16.1197 18.99 15.7297 18.99H7.46973C6.49973 18.99 5.71973 18.21 5.71973 17.24V13.74C5.71973 12.78 6.49973 12 7.46973 12Z" stroke="#292D32" stroke-width="1.5" stroke-linecap="round" stroke-linejoin="round"/>
<path opacity="0.4" d="M12.6699 12V9" stroke="#292D32" stroke-width="1.5" stroke-linecap="round" stroke-linejoin="round"/>
<g opacity="0.4">
<path opacity="0.4" d="M12.6699 22V19" stroke="#292D32" stroke-width="1.5" stroke-linecap="round" stroke-linejoin="round"/>
<path opacity="0.4" d="M9.66992 22H15.6699" stroke="#292D32" stroke-width="1.5" stroke-linecap="round" stroke-linejoin="round"/>
</g>
</svg>
