<svg width="25" height="24" viewBox="0 0 25 24" fill="none" xmlns="http://www.w3.org/2000/svg">
<path d="M17.6396 12.25V16.75C17.6396 20.5 16.1396 22 12.3896 22H7.88965C4.13965 22 2.63965 20.5 2.63965 16.75V12.25C2.63965 8.5 4.13965 7 7.88965 7H12.3896C16.1396 7 17.6396 8.5 17.6396 12.25Z" stroke="#292D32" stroke-width="1.5" stroke-linecap="round" stroke-linejoin="round"/>
<path opacity="0.4" d="M22.6396 5.85V9.15C22.6396 11.9 21.5396 13 18.7896 13H17.6396V12.25C17.6396 8.5 16.1396 7 12.3896 7H11.6396V5.85C11.6396 3.1 12.7396 2 15.4896 2H18.7896C21.5396 2 22.6396 3.1 22.6396 5.85Z" stroke="#292D32" stroke-width="1.5" stroke-linecap="round" stroke-linejoin="round"/>
</svg>
