<svg width="25" height="24" viewBox="0 0 25 24" fill="none" xmlns="http://www.w3.org/2000/svg">
<path d="M15.2101 2.26001C14.1801 2.26001 13.3501 3.09 13.3501 4.12V8.76001C13.3501 9.79001 14.1801 10.62 15.2101 10.62C16.2401 10.62 17.0701 9.79001 17.0701 8.76001V4.12C17.0701 3.09 16.2401 2.26001 15.2101 2.26001Z" stroke="black" stroke-width="1.5" stroke-miterlimit="10" stroke-linecap="round" stroke-linejoin="round"/>
<path opacity="0.4" d="M19.29 10.62H20.86C21.73 10.62 22.43 9.91999 22.43 9.04999C22.43 8.17999 21.73 7.48001 20.86 7.48001C19.99 7.48001 19.29 8.17999 19.29 9.04999V10.62Z" stroke="black" stroke-width="1.5" stroke-miterlimit="10" stroke-linecap="round" stroke-linejoin="round"/>
<path d="M2.66992 9.23001C2.66992 10.26 3.49992 11.09 4.52992 11.09H9.16992C10.1999 11.09 11.0299 10.26 11.0299 9.23001C11.0299 8.20001 10.1999 7.37 9.16992 7.37H4.52992C3.49992 7.37 2.66992 8.20001 2.66992 9.23001Z" stroke="black" stroke-width="1.5" stroke-miterlimit="10" stroke-linecap="round" stroke-linejoin="round"/>
<path opacity="0.4" d="M11.0301 5.13V3.56C11.0301 2.69 10.3301 1.98999 9.46013 1.98999C8.59013 1.98999 7.89014 2.69 7.89014 3.56C7.89014 4.43 8.59013 5.13 9.46013 5.13H11.0301Z" stroke="black" stroke-width="1.5" stroke-miterlimit="10" stroke-linecap="round" stroke-linejoin="round"/>
<path d="M10.0997 21.77C11.1297 21.77 11.9597 20.94 11.9597 19.91V15.27C11.9597 14.24 11.1297 13.41 10.0997 13.41C9.06973 13.41 8.23975 14.24 8.23975 15.27V19.91C8.23975 20.93 9.06973 21.77 10.0997 21.77Z" stroke="black" stroke-width="1.5" stroke-miterlimit="10" stroke-linecap="round" stroke-linejoin="round"/>
<path opacity="0.4" d="M6.03014 13.41H4.46013C3.59013 13.41 2.89014 14.11 2.89014 14.98C2.89014 15.85 3.59013 16.55 4.46013 16.55C5.33013 16.55 6.03014 15.85 6.03014 14.98V13.41Z" stroke="black" stroke-width="1.5" stroke-miterlimit="10" stroke-linecap="round" stroke-linejoin="round"/>
<path d="M22.6398 14.8C22.6398 13.77 21.8098 12.94 20.7798 12.94H16.1398C15.1098 12.94 14.2798 13.77 14.2798 14.8C14.2798 15.83 15.1098 16.66 16.1398 16.66H20.7798C21.8098 16.66 22.6398 15.83 22.6398 14.8Z" stroke="black" stroke-width="1.5" stroke-miterlimit="10" stroke-linecap="round" stroke-linejoin="round"/>
<path opacity="0.4" d="M14.2798 18.84V20.41C14.2798 21.28 14.9798 21.98 15.8498 21.98C16.7198 21.98 17.4198 21.28 17.4198 20.41C17.4198 19.54 16.7198 18.84 15.8498 18.84H14.2798Z" stroke="black" stroke-width="1.5" stroke-miterlimit="10" stroke-linecap="round" stroke-linejoin="round"/>
</svg>
