<svg width="25" height="24" viewBox="0 0 25 24" fill="none" xmlns="http://www.w3.org/2000/svg">
<path d="M12.8097 7.62012H7.53969C5.67969 7.62012 5.25969 8.55013 5.02969 9.70013L4.17969 13.7501H16.1797L15.3297 9.70013C15.0797 8.55013 14.6697 7.62012 12.8097 7.62012Z" stroke="#292D32" stroke-width="1.5" stroke-linecap="round" stroke-linejoin="round"/>
<path d="M17.66 20.3602C17.74 21.2402 17.04 22.0002 16.14 22.0002H14.73C13.92 22.0002 13.81 21.6502 13.66 21.2302L13.51 20.7803C13.3 20.1703 13.16 19.7502 12.08 19.7502H8.24005C7.16005 19.7502 7.00004 20.2203 6.81004 20.7803L6.66005 21.2302C6.52005 21.6602 6.41004 22.0002 5.59004 22.0002H4.18004C3.28004 22.0002 2.57005 21.2402 2.66005 20.3602L3.08005 15.7902C3.19005 14.6602 3.40004 13.7402 5.37004 13.7402H14.94C16.91 13.7402 17.12 14.6602 17.23 15.7902L17.66 20.3602Z" stroke="#292D32" stroke-width="1.5" stroke-linecap="round" stroke-linejoin="round"/>
<path d="M4.16992 11.5H3.41992" stroke="#292D32" stroke-width="1.5" stroke-linecap="round" stroke-linejoin="round"/>
<path d="M16.9199 11.5H16.1699" stroke="#292D32" stroke-width="1.5" stroke-linecap="round" stroke-linejoin="round"/>
<path opacity="0.4" d="M5.66992 16.75H7.91992" stroke="#292D32" stroke-width="1.5" stroke-linecap="round" stroke-linejoin="round"/>
<path opacity="0.4" d="M12.4199 16.75H14.6699" stroke="#292D32" stroke-width="1.5" stroke-linecap="round" stroke-linejoin="round"/>
<path opacity="0.4" d="M19.3801 8.73992C19.6601 8.08992 19.56 7.20993 19.04 6.43993C18.53 5.66993 17.75 5.23993 17.04 5.24993" stroke="#292D32" stroke-width="1.5" stroke-linecap="round" stroke-linejoin="round"/>
<path opacity="0.4" d="M22.4896 9.72998C22.9096 8.21998 22.6096 6.37002 21.5396 4.77002C20.4696 3.17002 18.8696 2.19 17.3096 2" stroke="#292D32" stroke-width="1.5" stroke-linecap="round" stroke-linejoin="round"/>
</svg>
