<svg width="25" height="24" viewBox="0 0 25 24" fill="none" xmlns="http://www.w3.org/2000/svg">
<path d="M22.6699 11.5V15.5C22.6699 19 20.6699 20.5 17.6699 20.5H7.66992C4.66992 20.5 2.66992 19 2.66992 15.5V8.5C2.66992 5 4.66992 3.5 7.66992 3.5H12.6699" stroke="#292D32" stroke-width="1.5" stroke-miterlimit="10" stroke-linecap="round" stroke-linejoin="round"/>
<path opacity="0.4" d="M7.66992 9L10.7999 11.5C11.8299 12.32 13.5199 12.32 14.5499 11.5" stroke="#292D32" stroke-width="1.5" stroke-miterlimit="10" stroke-linecap="round" stroke-linejoin="round"/>
<path opacity="0.4" d="M20.1501 2.81994L20.4301 3.38993C20.5701 3.66993 20.9201 3.92994 21.2301 3.98994L21.6101 4.04994C22.7501 4.23994 23.0201 5.07994 22.2001 5.90994L21.8501 6.25993C21.6201 6.49993 21.4901 6.95993 21.5601 7.27993L21.6101 7.48994C21.9201 8.86994 21.1901 9.39993 19.9901 8.67993L19.7301 8.52993C19.4201 8.34993 18.9201 8.34993 18.6101 8.52993L18.3501 8.67993C17.1401 9.40993 16.4101 8.86994 16.7301 7.48994L16.7801 7.27993C16.8501 6.95993 16.7201 6.49993 16.4901 6.25993L16.1401 5.90994C15.3201 5.07994 15.5901 4.23994 16.7301 4.04994L17.1101 3.98994C17.4101 3.93994 17.7701 3.66993 17.9101 3.38993L18.1901 2.81994C18.7301 1.72994 19.6101 1.72994 20.1501 2.81994Z" stroke="#292D32" stroke-width="1.5" stroke-linecap="round" stroke-linejoin="round"/>
</svg>
