<svg width="25" height="24" viewBox="0 0 25 24" fill="none" xmlns="http://www.w3.org/2000/svg">
<path opacity="0.4" fill-rule="evenodd" clip-rule="evenodd" d="M17.9797 15.31C17.6897 15.47 17.4497 15.54 17.2497 15.59C17.0797 15.63 16.9397 15.67 16.8197 15.75C16.6897 15.83 16.6797 15.96 16.6597 16.08C16.6397 16.19 16.6297 16.28 16.5497 16.34C16.4597 16.4 16.2897 16.41 16.0597 16.42C15.7597 16.44 15.3797 16.45 14.9197 16.59C14.6997 16.67 14.4997 16.79 14.2997 16.91C13.8997 17.16 13.4497 17.43 12.6597 17.43C11.8797 17.43 11.4297 17.16 11.0297 16.91C10.8297 16.78 10.6297 16.66 10.3997 16.58C9.94971 16.44 9.5597 16.42 9.2597 16.41C9.0297 16.4 8.86971 16.39 8.76971 16.33C8.68971 16.28 8.67969 16.18 8.65969 16.07C8.63969 15.95 8.62969 15.82 8.49969 15.74C8.37969 15.66 8.22969 15.62 8.06969 15.57C7.86969 15.52 7.62971 15.46 7.33971 15.3C6.99971 15.11 7.19972 15 7.30972 14.94C9.23972 14.01 9.53971 12.57 9.54971 12.46C9.54971 12.45 9.54971 12.45 9.54971 12.44C9.56971 12.32 9.57969 12.22 9.43969 12.09C9.34969 12 9.0397 11.8 8.7897 11.64C8.6797 11.56 8.57971 11.5 8.51971 11.47C8.23971 11.27 8.11971 11.08 8.20971 10.83C8.26971 10.66 8.42971 10.6 8.58971 10.6C8.63971 10.6 8.69971 10.61 8.73971 10.62C8.91971 10.66 9.0997 10.73 9.2597 10.79C9.3697 10.84 9.45969 10.87 9.52969 10.89C9.54969 10.9 9.57971 10.9 9.58971 10.9C9.68971 10.9 9.71971 10.85 9.70971 10.75C9.70971 10.72 9.7097 10.69 9.6997 10.66C9.6797 10.31 9.64969 9.70001 9.68969 9.14001C9.76969 8.30001 10.0397 7.87001 10.3597 7.51001C10.5197 7.33001 11.2497 6.56 12.6397 6.56C14.0297 6.56 14.7597 7.33 14.9197 7.5C15.2397 7.87 15.5097 8.29001 15.5897 9.14001C15.6397 9.73001 15.5997 10.36 15.5697 10.71V10.74C15.5597 10.85 15.5897 10.89 15.6897 10.89C15.7097 10.89 15.7297 10.89 15.7497 10.88C15.8197 10.86 15.9097 10.83 16.0197 10.79C16.1697 10.73 16.3497 10.66 16.5397 10.62C16.5897 10.6 16.6397 10.6 16.6897 10.6C16.8597 10.6 17.0097 10.67 17.0697 10.84C17.1597 11.08 17.0397 11.27 16.7597 11.47C16.7097 11.51 16.6097 11.58 16.4897 11.64C16.2497 11.8 15.9297 12 15.8397 12.09C15.6997 12.22 15.7097 12.32 15.7297 12.44C15.7297 12.45 15.7297 12.46 15.7297 12.46C15.7497 12.57 16.0497 14.01 17.9697 14.94C18.1197 15 18.3197 15.12 17.9797 15.31Z" stroke="black" stroke-width="1.5" stroke-miterlimit="10" stroke-linejoin="round"/>
<path d="M12.6699 22C18.1928 22 22.6699 17.5228 22.6699 12C22.6699 6.47715 18.1928 2 12.6699 2C7.14707 2 2.66992 6.47715 2.66992 12C2.66992 17.5228 7.14707 22 12.6699 22Z" stroke="black" stroke-width="1.5" stroke-miterlimit="10" stroke-linejoin="round"/>
</svg>
