<svg width="25" height="24" viewBox="0 0 25 24" fill="none" xmlns="http://www.w3.org/2000/svg">
<path d="M9.66992 22H15.6699C18.6699 22 19.6699 21 19.6699 18V6C19.6699 3 18.6699 2 15.6699 2H9.66992C6.66992 2 5.66992 3 5.66992 6V18C5.66992 21 6.66992 22 9.66992 22Z" stroke="#292D32" stroke-width="1.5" stroke-miterlimit="10" stroke-linecap="round" stroke-linejoin="round"/>
<path opacity="0.4" d="M12.6699 18C14.3268 18 15.6699 16.6569 15.6699 15C15.6699 13.3431 14.3268 12 12.6699 12C11.0131 12 9.66992 13.3431 9.66992 15C9.66992 16.6569 11.0131 18 12.6699 18Z" stroke="#292D32" stroke-width="1.5" stroke-miterlimit="10" stroke-linecap="round" stroke-linejoin="round"/>
<path opacity="0.4" d="M12.6699 9C13.4983 9 14.1699 8.32843 14.1699 7.5C14.1699 6.67157 13.4983 6 12.6699 6C11.8415 6 11.1699 6.67157 11.1699 7.5C11.1699 8.32843 11.8415 9 12.6699 9Z" stroke="#292D32" stroke-width="1.5" stroke-miterlimit="10" stroke-linecap="round" stroke-linejoin="round"/>
</svg>
