<svg width="25" height="24" viewBox="0 0 25 24" fill="none" xmlns="http://www.w3.org/2000/svg">
<path d="M5.94983 18.6501L6.51983 16.1801C6.64983 15.6001 6.41983 14.7901 5.99983 14.3701L3.51983 11.8901C2.05983 10.4301 2.52983 8.95014 4.56983 8.61014L7.75983 8.08014C8.28983 7.99014 8.92983 7.52014 9.16983 7.03014L10.9298 3.51014C11.8798 1.60014 13.4398 1.60014 14.3998 3.51014L16.1598 7.03014C16.2698 7.26014 16.4798 7.48014 16.7098 7.67014" stroke="#292D32" stroke-width="1.5" stroke-linecap="round" stroke-linejoin="round"/>
<path opacity="0.4" d="M20.7695 8.60986C22.8095 8.94986 23.2895 10.4299 21.8195 11.8899L19.3395 14.3699C18.9195 14.7899 18.6895 15.5999 18.8195 16.1799L19.5295 19.2499C20.0895 21.6799 18.7995 22.6199 16.6495 21.3499L13.6595 19.5799C13.1195 19.2599 12.2295 19.2599 11.6795 19.5799L8.68945 21.3499" stroke="#292D32" stroke-width="1.5" stroke-linecap="round" stroke-linejoin="round"/>
<path d="M22.6699 2L2.66992 22" stroke="#292D32" stroke-width="1.5" stroke-linecap="round" stroke-linejoin="round"/>
</svg>
