<svg width="25" height="24" viewBox="0 0 25 24" fill="none" xmlns="http://www.w3.org/2000/svg">
<path d="M17.0899 7.95C19.5299 10.39 19.5299 14.35 17.0899 16.79C14.6499 19.23 10.6899 19.23 8.24992 16.79C5.80992 14.35 5.80992 10.39 8.24992 7.95C10.6899 5.51 14.6499 5.51 17.0899 7.95Z" stroke="#292D32" stroke-width="1.5" stroke-linecap="round" stroke-linejoin="round"/>
<path opacity="0.4" d="M8.91992 21.64C6.91992 20.84 5.16991 19.39 4.00991 17.38C2.86991 15.41 2.48991 13.22 2.75991 11.13" stroke="#292D32" stroke-width="1.5" stroke-linecap="round" stroke-linejoin="round"/>
<path opacity="0.4" d="M6.51953 4.47998C8.21953 3.14998 10.3495 2.35999 12.6695 2.35999C14.9395 2.35999 17.0295 3.12997 18.7095 4.40997" stroke="#292D32" stroke-width="1.5" stroke-linecap="round" stroke-linejoin="round"/>
<path opacity="0.4" d="M16.4199 21.64C18.4199 20.84 20.1699 19.39 21.3299 17.38C22.4699 15.41 22.8499 13.22 22.5799 11.13" stroke="#292D32" stroke-width="1.5" stroke-linecap="round" stroke-linejoin="round"/>
</svg>
