<svg width="25" height="24" viewBox="0 0 25 24" fill="none" xmlns="http://www.w3.org/2000/svg">
<path d="M18.6699 18.86H17.9099C17.1099 18.86 16.3499 19.17 15.7899 19.73L14.0799 21.42C13.2999 22.19 12.0299 22.19 11.2499 21.42L9.53992 19.73C8.97992 19.17 8.20992 18.86 7.41992 18.86H6.66992C5.00992 18.86 3.66992 17.53 3.66992 15.89V4.97C3.66992 3.33 5.00992 2 6.66992 2H18.6699C20.3299 2 21.6699 3.33 21.6699 4.97V15.88C21.6699 17.52 20.3299 18.86 18.6699 18.86Z" stroke="#292D32" stroke-width="1.5" stroke-miterlimit="10" stroke-linecap="round" stroke-linejoin="round"/>
<path opacity="0.4" d="M12.74 8.95005C12.7 8.95005 12.64 8.95005 12.59 8.95005C11.54 8.91005 10.71 8.06005 10.71 7.00005C10.71 5.92005 11.58 5.05005 12.66 5.05005C13.74 5.05005 14.61 5.93005 14.61 7.00005C14.62 8.06005 13.79 8.92005 12.74 8.95005Z" stroke="#292D32" stroke-width="1.5" stroke-linecap="round" stroke-linejoin="round"/>
<path opacity="0.4" d="M9.91986 11.96C8.58986 12.85 8.58986 14.3 9.91986 15.19C11.4299 16.2 13.9099 16.2 15.4199 15.19C16.7499 14.3 16.7499 12.85 15.4199 11.96C13.9099 10.96 11.4399 10.96 9.91986 11.96Z" stroke="#292D32" stroke-width="1.5" stroke-linecap="round" stroke-linejoin="round"/>
</svg>
