<svg width="25" height="24" viewBox="0 0 25 24" fill="none" xmlns="http://www.w3.org/2000/svg">
<path d="M11.5723 19.8701H18.0423C21.7423 19.8701 22.6623 18.9501 22.6623 15.2501C21.3823 15.2501 20.3523 14.2101 20.3523 12.9401C20.3523 11.6601 21.3823 10.6201 22.6623 10.6201V9.70008C22.6623 6.00008 21.7423 5.08008 18.0423 5.08008H11.6623V11.8701" stroke="#292D32" stroke-width="1.5" stroke-linecap="round" stroke-linejoin="round"/>
<path opacity="0.4" d="M11.6635 16.87V19.87H8.89349C7.41349 19.87 6.54349 18.86 5.58349 16.54L5.40349 16.09C6.61349 15.61 7.20349 14.21 6.69349 13C6.20349 11.79 4.81349 11.21 3.59349 11.71L3.42349 11.28C1.98349 7.76 2.48349 6.53 6.00349 5.08L8.64349 4L11.6635 11.32V13.87" stroke="#292D32" stroke-width="1.5" stroke-linecap="round" stroke-linejoin="round"/>
<path d="M8.83211 19.8701H8.66211" stroke="#292D32" stroke-width="1.5" stroke-linecap="round" stroke-linejoin="round"/>
</svg>
