<svg width="25" height="24" viewBox="0 0 25 24" fill="none" xmlns="http://www.w3.org/2000/svg">
<path d="M19.5799 14.6925C19.5799 15.9825 20.6399 17.0325 21.9299 17.0325C21.9299 20.7825 20.9899 21.7225 17.2399 21.7225H7.85992C4.10992 21.7225 3.16992 20.7825 3.16992 17.0325V16.5725C4.45992 16.5725 5.51992 15.5125 5.51992 14.2225C5.51992 12.9325 4.45992 11.8725 3.16992 11.8725V11.4125C3.17992 7.66253 4.10992 6.72253 7.85992 6.72253H17.2299C20.9799 6.72253 21.9199 7.66253 21.9199 11.4125V12.3525C20.6299 12.3525 19.5799 13.3925 19.5799 14.6925Z" stroke="#292D32" stroke-width="1.5" stroke-linecap="round" stroke-linejoin="round"/>
<path opacity="0.4" d="M16.881 6.7225H7.79102L10.721 3.7925C13.111 1.4025 14.311 1.4025 16.701 3.7925L17.301 4.3925C16.671 5.0225 16.521 5.9525 16.881 6.7225Z" stroke="#292D32" stroke-width="1.5" stroke-linecap="round" stroke-linejoin="round"/>
<path opacity="0.4" d="M10.5488 6.72266L10.5488 21.7227" stroke="#292D32" stroke-width="1.5" stroke-linecap="round" stroke-linejoin="round" stroke-dasharray="5 5"/>
</svg>
