<svg width="25" height="24" viewBox="0 0 25 24" fill="none" xmlns="http://www.w3.org/2000/svg">
<path opacity="0.4" d="M13.9699 16H16.3699C18.3699 16 19.1699 15.2 19.1699 13.2V10.8C19.1699 8.8 18.3699 8 16.3699 8H13.9699C11.9699 8 11.1699 8.8 11.1699 10.8V13.2C11.1699 15.2 11.9699 16 13.9699 16Z" stroke="#292D32" stroke-width="1.5" stroke-linecap="round" stroke-linejoin="round"/>
<path d="M17.6699 20H7.66992C3.66992 20 2.66992 19 2.66992 15V9C2.66992 5 3.66992 4 7.66992 4H17.6699C21.6699 4 22.6699 5 22.6699 9V15C22.6699 19 21.6699 20 17.6699 20Z" stroke="#292D32" stroke-width="1.5" stroke-linecap="round" stroke-linejoin="round"/>
</svg>
