<svg width="25" height="24" viewBox="0 0 25 24" fill="none" xmlns="http://www.w3.org/2000/svg">
<path opacity="0.4" d="M15.6709 2V12C15.6709 13.1 14.7709 14 13.6709 14H2.6709V7.62C3.4009 8.49 4.52093 9.03 5.76093 9C6.77093 8.98 7.6809 8.59 8.3609 7.94C8.6709 7.68 8.93092 7.34999 9.13092 6.98999C9.49092 6.37999 9.6909 5.65997 9.6709 4.90997C9.6409 3.73997 9.12091 2.71 8.31091 2H15.6709Z" stroke="#292D32" stroke-width="1.5" stroke-linecap="round" stroke-linejoin="round"/>
<path d="M22.6709 14V17C22.6709 18.66 21.3309 20 19.6709 20H18.6709C18.6709 18.9 17.7709 18 16.6709 18C15.5709 18 14.6709 18.9 14.6709 20H10.6709C10.6709 18.9 9.7709 18 8.6709 18C7.5709 18 6.6709 18.9 6.6709 20H5.6709C4.0109 20 2.6709 18.66 2.6709 17V14H13.6709C14.7709 14 15.6709 13.1 15.6709 12V5H17.5109C18.2309 5 18.8909 5.39001 19.2509 6.01001L20.9609 9H19.6709C19.1209 9 18.6709 9.45 18.6709 10V13C18.6709 13.55 19.1209 14 19.6709 14H22.6709Z" stroke="#292D32" stroke-width="1.5" stroke-linecap="round" stroke-linejoin="round"/>
<path d="M8.6709 22C9.77547 22 10.6709 21.1046 10.6709 20C10.6709 18.8954 9.77547 18 8.6709 18C7.56633 18 6.6709 18.8954 6.6709 20C6.6709 21.1046 7.56633 22 8.6709 22Z" stroke="#292D32" stroke-width="1.5" stroke-linecap="round" stroke-linejoin="round"/>
<path d="M16.6709 22C17.7755 22 18.6709 21.1046 18.6709 20C18.6709 18.8954 17.7755 18 16.6709 18C15.5663 18 14.6709 18.8954 14.6709 20C14.6709 21.1046 15.5663 22 16.6709 22Z" stroke="#292D32" stroke-width="1.5" stroke-linecap="round" stroke-linejoin="round"/>
<path d="M22.6709 12V14H19.6709C19.1209 14 18.6709 13.55 18.6709 13V10C18.6709 9.45 19.1209 9 19.6709 9H20.9609L22.6709 12Z" stroke="#292D32" stroke-width="1.5" stroke-linecap="round" stroke-linejoin="round"/>
<path d="M9.67107 4.90975C9.69107 5.65975 9.49109 6.37977 9.13109 6.98977C8.93109 7.34977 8.67107 7.67978 8.36107 7.93978C7.68107 8.58978 6.7711 8.97978 5.7611 8.99978C4.5211 9.02978 3.40107 8.48977 2.67107 7.61977C2.53107 7.46977 2.41107 7.29978 2.30107 7.12978C1.91107 6.53978 1.69107 5.8398 1.67107 5.0898C1.64107 3.8298 2.20106 2.67977 3.10106 1.92977C3.78106 1.36977 4.64104 1.01978 5.58104 0.999776C6.63104 0.979776 7.59108 1.35978 8.31108 1.99978C9.12108 2.70978 9.64107 3.73975 9.67107 4.90975Z" stroke="#292D32" stroke-width="1.5" stroke-miterlimit="10" stroke-linecap="round" stroke-linejoin="round"/>
<path opacity="0.4" d="M4.11133 5.02979L5.12134 5.98975L7.2113 3.96973" stroke="#292D32" stroke-width="1.5" stroke-linecap="round" stroke-linejoin="round"/>
</svg>
