<svg width="25" height="24" viewBox="0 0 25 24" fill="none" xmlns="http://www.w3.org/2000/svg">
<path d="M19.6699 9.87V16.73C19.6699 17.51 19.2199 18.21 18.5199 18.54L12.0199 21.6C11.4799 21.85 10.8599 21.85 10.3199 21.6L3.81992 18.54C3.11992 18.21 2.66992 17.51 2.66992 16.73V9.26999C2.66992 8.48999 3.11992 7.78999 3.81992 7.45999L10.3199 4.39999C10.8599 4.14999 11.4799 4.14999 12.0199 4.39999L14.6899 5.66C14.6699 5.77 14.6699 5.89 14.6699 6C14.6699 8.21 16.4599 10 18.6699 10C19.0199 10 19.3499 9.96 19.6699 9.87Z" stroke="black" stroke-width="1.5" stroke-miterlimit="10" stroke-linejoin="round"/>
<path opacity="0.4" d="M7.66992 10.5V13.5C7.66992 14.6 8.56992 15.5 9.66992 15.5C10.7699 15.5 11.6699 14.6 11.6699 13.5V10.5" stroke="black" stroke-width="1.5" stroke-miterlimit="10" stroke-linecap="round"/>
<path opacity="0.4" d="M14.6699 10.5V15.44" stroke="black" stroke-width="1.5" stroke-miterlimit="10" stroke-linecap="round"/>
<path d="M22.6699 6C22.6699 7.86 21.3999 9.43 19.6699 9.87C19.3499 9.96 19.0199 10 18.6699 10C16.4599 10 14.6699 8.21 14.6699 6C14.6699 5.89 14.6699 5.77 14.6899 5.66C14.8599 3.61 16.5699 2 18.6699 2C20.8799 2 22.6699 3.79 22.6699 6Z" stroke="black" stroke-width="1.5" stroke-miterlimit="10"/>
<path d="M19.7601 5.91C20.0001 5.7 20.1301 5.41999 20.1301 5.07999C20.1301 4.30999 19.5501 3.79999 18.6701 3.79999C17.7901 3.79999 17.2101 4.31999 17.2101 5.07999C17.2101 5.40999 17.3401 5.7 17.5801 5.91C17.2601 6.15 17.0801 6.50001 17.0801 6.89001C17.0801 7.70001 17.6901 8.20001 18.6801 8.20001C19.6701 8.20001 20.2801 7.70001 20.2801 6.89001C20.2701 6.49001 20.0901 6.14 19.7601 5.91ZM18.6701 5.51001C18.4001 5.51001 18.2301 5.36 18.2301 5.13C18.2301 4.85 18.4601 4.76001 18.6701 4.76001C18.8801 4.76001 19.1101 4.86 19.1101 5.13C19.1101 5.36 18.9401 5.51001 18.6701 5.51001ZM18.6701 6.34C18.9501 6.34 19.2501 6.46001 19.2501 6.79001C19.2501 7.08001 19.0301 7.25 18.6701 7.25C18.3101 7.25 18.0901 7.08001 18.0901 6.79001C18.0901 6.38001 18.5301 6.34 18.6701 6.34Z" fill="black"/>
</svg>
