<svg width="25" height="24" viewBox="0 0 25 24" fill="none" xmlns="http://www.w3.org/2000/svg">
<path opacity="0.4" d="M17.6201 16.95C20.3501 14.22 20.3501 9.78 17.6201 7.05" stroke="black" stroke-width="1.5" stroke-miterlimit="10" stroke-linecap="round" stroke-linejoin="round"/>
<path opacity="0.4" d="M7.71986 7.05C4.98986 9.78 4.98986 14.22 7.71986 16.95" stroke="black" stroke-width="1.5" stroke-miterlimit="10" stroke-linecap="round" stroke-linejoin="round"/>
<g opacity="0.4">
<path d="M10.3398 13.63C10.3398 14.53 11.0398 15.26 11.8998 15.26H13.6598C14.4098 15.26 15.0198 14.62 15.0198 13.84C15.0198 12.99 14.6498 12.68 14.0898 12.49L11.2798 11.51C10.7298 11.32 10.3498 11.01 10.3498 10.16C10.3498 9.37 10.9598 8.73999 11.7098 8.73999H13.4698C14.3298 8.73999 15.0298 9.47 15.0298 10.37" stroke="black" stroke-width="1.5" stroke-linecap="round" stroke-linejoin="round"/>
<path d="M12.6699 7.79999V16.2" stroke="black" stroke-width="1.5" stroke-linecap="round" stroke-linejoin="round"/>
</g>
<path d="M12.6699 22C18.1928 22 22.6699 17.5228 22.6699 12C22.6699 6.47715 18.1928 2 12.6699 2C7.14707 2 2.66992 6.47715 2.66992 12C2.66992 17.5228 7.14707 22 12.6699 22Z" stroke="black" stroke-width="1.5" stroke-miterlimit="10" stroke-linecap="round" stroke-linejoin="round"/>
</svg>
