<svg width="25" height="24" viewBox="0 0 25 24" fill="none" xmlns="http://www.w3.org/2000/svg">
<path d="M12.6699 12C15.4313 12 17.6699 9.76142 17.6699 7C17.6699 4.23858 15.4313 2 12.6699 2C9.9085 2 7.66992 4.23858 7.66992 7C7.66992 9.76142 9.9085 12 12.6699 12Z" stroke="#292D32" stroke-width="1.5" stroke-linecap="round" stroke-linejoin="round"/>
<path d="M19.88 15.74L16.3399 19.2801C16.1999 19.4201 16.07 19.68 16.04 19.87L15.85 21.22C15.78 21.71 16.12 22.05 16.61 21.98L17.9599 21.79C18.1499 21.76 18.42 21.63 18.55 21.49L22.0899 17.95C22.6999 17.34 22.9899 16.63 22.0899 15.73C21.1999 14.84 20.49 15.13 19.88 15.74Z" stroke="#292D32" stroke-width="1.5" stroke-miterlimit="10" stroke-linecap="round" stroke-linejoin="round"/>
<path d="M19.3701 16.25C19.6701 17.33 20.5101 18.17 21.5901 18.47" stroke="#292D32" stroke-width="1.5" stroke-miterlimit="10" stroke-linecap="round" stroke-linejoin="round"/>
<path opacity="0.4" d="M4.08008 22C4.08008 18.13 7.93011 15 12.6701 15C13.7101 15 14.7101 15.15 15.6401 15.43" stroke="#292D32" stroke-width="1.5" stroke-linecap="round" stroke-linejoin="round"/>
</svg>
