<svg width="25" height="24" viewBox="0 0 25 24" fill="none" xmlns="http://www.w3.org/2000/svg">
<path d="M12.6699 12C15.4313 12 17.6699 9.76142 17.6699 7C17.6699 4.23858 15.4313 2 12.6699 2C9.9085 2 7.66992 4.23858 7.66992 7C7.66992 9.76142 9.9085 12 12.6699 12Z" stroke="#292D32" stroke-width="1.5" stroke-linecap="round" stroke-linejoin="round"/>
<path opacity="0.4" d="M4.08008 22C4.08008 18.13 7.93011 15 12.6701 15C13.6301 15 14.5601 15.13 15.4301 15.37" stroke="#292D32" stroke-width="1.5" stroke-linecap="round" stroke-linejoin="round"/>
<path d="M22.6699 18C22.6699 18.32 22.6299 18.63 22.5499 18.93C22.4599 19.33 22.2999 19.72 22.0899 20.06C21.3999 21.22 20.1299 22 18.6699 22C17.6399 22 16.7099 21.61 16.0099 20.97C15.7099 20.71 15.4499 20.4 15.2499 20.06C14.8799 19.46 14.6699 18.75 14.6699 18C14.6699 16.92 15.0999 15.93 15.7999 15.21C16.5299 14.46 17.5499 14 18.6699 14C19.8499 14 20.9199 14.51 21.6399 15.33C22.2799 16.04 22.6699 16.98 22.6699 18Z" stroke="#292D32" stroke-width="1.5" stroke-miterlimit="10" stroke-linecap="round" stroke-linejoin="round"/>
<path d="M20.1597 17.98H17.1797" stroke="#292D32" stroke-width="1.5" stroke-miterlimit="10" stroke-linecap="round" stroke-linejoin="round"/>
</svg>
