<svg width="25" height="24" viewBox="0 0 25 24" fill="none" xmlns="http://www.w3.org/2000/svg">
<path opacity="0.4" d="M18.8098 21.62C17.9298 21.88 16.8898 22 15.6698 22H9.66978C8.44978 22 7.40979 21.88 6.52979 21.62C6.74979 19.02 9.41978 16.97 12.6698 16.97C15.9198 16.97 18.5898 19.02 18.8098 21.62Z" stroke="#292D32" stroke-width="1.5" stroke-linecap="round" stroke-linejoin="round"/>
<path d="M22.6699 9V15C22.6699 18.78 21.5299 20.85 18.8099 21.62C17.9299 21.88 16.8899 22 15.6699 22H9.66992C8.44992 22 7.40992 21.88 6.52992 21.62C3.80992 20.85 2.66992 18.78 2.66992 15V9C2.66992 4 4.66992 2 9.66992 2H15.6699C20.6699 2 22.6699 4 22.6699 9Z" stroke="#292D32" stroke-width="1.5" stroke-linecap="round" stroke-linejoin="round"/>
<path opacity="0.4" d="M16.2498 10.58C16.2498 12.56 14.6498 14.17 12.6698 14.17C10.6898 14.17 9.08984 12.56 9.08984 10.58C9.08984 8.60002 10.6898 7 12.6698 7C14.6498 7 16.2498 8.60002 16.2498 10.58Z" stroke="#292D32" stroke-width="1.5" stroke-linecap="round" stroke-linejoin="round"/>
</svg>
