<svg width="25" height="24" viewBox="0 0 25 24" fill="none" xmlns="http://www.w3.org/2000/svg">
<path d="M12.6699 12C15.4313 12 17.6699 9.76142 17.6699 7C17.6699 4.23858 15.4313 2 12.6699 2C9.9085 2 7.66992 4.23858 7.66992 7C7.66992 9.76142 9.9085 12 12.6699 12Z" stroke="#292D32" stroke-width="1.5" stroke-linecap="round" stroke-linejoin="round"/>
<path opacity="0.4" d="M4.08008 22C4.08008 18.13 7.93011 15 12.6701 15" stroke="#292D32" stroke-width="1.5" stroke-linecap="round" stroke-linejoin="round"/>
<path d="M18.8699 21.4C20.6372 21.4 22.0699 19.9673 22.0699 18.2C22.0699 16.4327 20.6372 15 18.8699 15C17.1026 15 15.6699 16.4327 15.6699 18.2C15.6699 19.9673 17.1026 21.4 18.8699 21.4Z" stroke="#292D32" stroke-width="1.5" stroke-linecap="round" stroke-linejoin="round"/>
<path d="M22.6699 22L21.6699 21" stroke="#292D32" stroke-width="1.5" stroke-linecap="round" stroke-linejoin="round"/>
</svg>
