<svg width="25" height="24" viewBox="0 0 25 24" fill="none" xmlns="http://www.w3.org/2000/svg">
<path d="M21.7501 8.58003V15.42C21.7501 16.54 21.1501 17.58 20.1801 18.15L14.2401 21.58C13.2701 22.14 12.0701 22.14 11.0901 21.58L5.15008 18.15C4.18008 17.59 3.58008 16.55 3.58008 15.42V8.58003C3.58008 7.46003 4.18008 6.41999 5.15008 5.84999L11.0901 2.42C12.0601 1.86 13.2601 1.86 14.2401 2.42L20.1801 5.84999C21.1501 6.41999 21.7501 7.45003 21.7501 8.58003Z" stroke="#292D32" stroke-width="1.5" stroke-linecap="round" stroke-linejoin="round"/>
<path opacity="0.4" d="M12.6698 11.0001C13.9567 11.0001 14.9998 9.95687 14.9998 8.67004C14.9998 7.38322 13.9567 6.34009 12.6698 6.34009C11.383 6.34009 10.3398 7.38322 10.3398 8.67004C10.3398 9.95687 11.383 11.0001 12.6698 11.0001Z" stroke="#292D32" stroke-width="1.5" stroke-linecap="round" stroke-linejoin="round"/>
<path opacity="0.4" d="M16.6699 16.6599C16.6699 14.8599 14.8799 13.3999 12.6699 13.3999C10.4599 13.3999 8.66992 14.8599 8.66992 16.6599" stroke="#292D32" stroke-width="1.5" stroke-linecap="round" stroke-linejoin="round"/>
</svg>
