<svg width="25" height="24" viewBox="0 0 25 24" fill="none" xmlns="http://www.w3.org/2000/svg">
<path d="M22.6699 9V15C22.6699 15.22 22.6699 15.44 22.6499 15.65C21.8299 14.64 20.5799 14 19.1699 14C18.1099 14 17.1299 14.37 16.3599 14.99C15.3199 15.81 14.6699 17.08 14.6699 18.5C14.6699 19.34 14.9099 20.14 15.3199 20.82C15.5899 21.27 15.9299 21.66 16.3299 21.98C16.1199 22 15.8999 22 15.6699 22H9.66992C4.66992 22 2.66992 20 2.66992 15V9C2.66992 4 4.66992 2 9.66992 2H15.6699C20.6699 2 22.6699 4 22.6699 9Z" stroke="#292D32" stroke-width="1.5" stroke-linecap="round" stroke-linejoin="round"/>
<g opacity="0.4">
<path d="M3.18945 7.10999H22.1494" stroke="#292D32" stroke-width="1.5" stroke-linecap="round" stroke-linejoin="round"/>
<path d="M9.18945 2.10999V6.96997" stroke="#292D32" stroke-width="1.5" stroke-linecap="round" stroke-linejoin="round"/>
<path d="M16.1494 2.10999V6.52002" stroke="#292D32" stroke-width="1.5" stroke-linecap="round" stroke-linejoin="round"/>
</g>
<path d="M23.6699 18.5C23.6699 19.34 23.4299 20.14 23.0199 20.82C22.7799 21.22 22.4799 21.58 22.1299 21.88C21.3399 22.58 20.3099 23 19.1699 23C18.0999 23 17.1099 22.62 16.3399 21.98H16.3299C15.9299 21.66 15.5899 21.27 15.3199 20.82C14.9099 20.14 14.6699 19.34 14.6699 18.5C14.6699 17.08 15.3199 15.81 16.3599 14.99C17.1299 14.37 18.1099 14 19.1699 14C20.5799 14 21.8299 14.64 22.6499 15.65C23.2899 16.42 23.6699 17.42 23.6699 18.5Z" stroke="#292D32" stroke-width="1.5" stroke-miterlimit="10" stroke-linecap="round" stroke-linejoin="round"/>
<path opacity="0.4" d="M17.4199 18.5L18.5299 19.61L20.9299 17.39" stroke="#292D32" stroke-width="1.5" stroke-linecap="round" stroke-linejoin="round"/>
</svg>
