<svg width="25" height="24" viewBox="0 0 25 24" fill="none" xmlns="http://www.w3.org/2000/svg">
<path d="M16.3903 9.69002C18.4503 11.75 18.4503 15.08 16.3903 17.13C14.3303 19.19 11.0003 19.19 8.95027 17.13C6.89027 15.07 6.89027 11.74 8.95027 9.69002C11.0003 7.63002 14.3403 7.63002 16.3903 9.69002Z" stroke="#292D32" stroke-width="1.5093" stroke-linecap="round" stroke-linejoin="round"/>
<path opacity="0.4" d="M12.6701 13.41L11.0801 15" stroke="#292D32" stroke-width="1.5093" stroke-linecap="round" stroke-linejoin="round"/>
<path opacity="0.4" d="M19.7398 6.34003C19.8898 6.49003 19.8898 6.74003 19.7398 6.90003C19.5898 7.05003 19.3398 7.05003 19.1798 6.90003C19.0198 6.75003 19.0298 6.50003 19.1798 6.34003C19.3298 6.18003 19.5898 6.18003 19.7398 6.34003Z" stroke="#292D32" stroke-width="1.5" stroke-linecap="round" stroke-linejoin="round"/>
<path opacity="0.4" d="M6.1598 19.92C6.3098 20.07 6.3098 20.32 6.1598 20.48C6.0098 20.64 5.7598 20.63 5.5998 20.48C5.4498 20.33 5.4498 20.08 5.5998 19.92C5.7498 19.76 6.0098 19.76 6.1598 19.92Z" stroke="#292D32" stroke-width="1.5" stroke-linecap="round" stroke-linejoin="round"/>
<path opacity="0.4" d="M22.5503 13.13C22.7003 13.28 22.7003 13.53 22.5503 13.69C22.4003 13.84 22.1503 13.84 21.9903 13.69C21.8303 13.54 21.8403 13.29 21.9903 13.13C22.1403 12.97 22.4003 12.97 22.5503 13.13Z" stroke="#292D32" stroke-width="1.5" stroke-linecap="round" stroke-linejoin="round"/>
<path opacity="0.4" d="M3.33952 13.13C3.48952 13.28 3.48952 13.53 3.33952 13.69C3.18952 13.85 2.93949 13.84 2.77949 13.69C2.62949 13.54 2.62949 13.29 2.77949 13.13C2.93949 12.97 3.18952 12.97 3.33952 13.13Z" stroke="#292D32" stroke-width="1.5" stroke-linecap="round" stroke-linejoin="round"/>
<path opacity="0.4" d="M19.7398 19.92C19.8898 20.07 19.8898 20.32 19.7398 20.48C19.5898 20.63 19.3398 20.63 19.1798 20.48C19.0198 20.33 19.0298 20.08 19.1798 19.92C19.3398 19.76 19.5898 19.76 19.7398 19.92Z" stroke="#292D32" stroke-width="1.5" stroke-linecap="round" stroke-linejoin="round"/>
<path opacity="0.4" d="M6.1598 6.34003C6.3098 6.49003 6.3098 6.74003 6.1598 6.90003C6.0098 7.06003 5.7598 7.05003 5.5998 6.90003C5.4498 6.75003 5.4498 6.50003 5.5998 6.34003C5.7498 6.18003 6.0098 6.18003 6.1598 6.34003Z" stroke="#292D32" stroke-width="1.5" stroke-linecap="round" stroke-linejoin="round"/>
<path opacity="0.4" d="M12.9497 3.52003C13.0997 3.67003 13.0997 3.92003 12.9497 4.08003C12.7997 4.24003 12.5497 4.23003 12.3897 4.08003C12.2297 3.93003 12.2397 3.68003 12.3897 3.52003C12.5397 3.36003 12.7997 3.37003 12.9497 3.52003Z" stroke="#292D32" stroke-width="1.5" stroke-linecap="round" stroke-linejoin="round"/>
</svg>
