<svg width="25" height="24" viewBox="0 0 25 24" fill="none" xmlns="http://www.w3.org/2000/svg">
<path d="M2.66992 10V14C2.66992 16 3.66992 17 5.66992 17H7.09992C7.46992 17 7.83992 17.11 8.15992 17.3L11.0799 19.13C13.5999 20.71 15.6699 19.56 15.6699 16.59V7.41C15.6699 4.43 13.5999 3.29 11.0799 4.87L8.15992 6.7C7.83992 6.89 7.46992 7 7.09992 7H5.66992C3.66992 7 2.66992 8 2.66992 10Z" stroke="#292D32" stroke-width="1.5"/>
<path opacity="0.4" d="M18.6699 8C20.4499 10.37 20.4499 13.63 18.6699 16" stroke="#292D32" stroke-width="1.5" stroke-linecap="round" stroke-linejoin="round"/>
<path opacity="0.4" d="M20.5 5.5C23.39 9.35 23.39 14.65 20.5 18.5" stroke="#292D32" stroke-width="1.5" stroke-linecap="round" stroke-linejoin="round"/>
</svg>
