<svg width="25" height="24" viewBox="0 0 25 24" fill="none" xmlns="http://www.w3.org/2000/svg">
<path d="M22.6699 12V17C22.6699 20 20.6699 22 17.6699 22H8.29993C8.60993 21.74 8.8799 21.42 9.0899 21.06C9.4599 20.46 9.66992 19.75 9.66992 19C9.66992 16.79 7.87992 15 5.66992 15C4.46992 15 3.39992 15.53 2.66992 16.36V12C2.66992 9.28 4.30992 7.38 6.85992 7.06C7.11992 7.02 7.38992 7 7.66992 7H17.6699C17.9299 7 18.1799 7.00999 18.4199 7.04999C20.9999 7.34999 22.6699 9.26 22.6699 12Z" stroke="#292D32" stroke-width="1.5" stroke-linecap="round" stroke-linejoin="round"/>
<path opacity="0.4" d="M18.4203 7.04997C18.1803 7.00997 17.9303 6.99998 17.6703 6.99998H7.67035C7.39035 6.99998 7.12035 7.01998 6.86035 7.05998C7.00035 6.77998 7.20037 6.52001 7.44037 6.28001L10.6904 3.02C12.0604 1.66 14.2803 1.66 15.6503 3.02L17.4003 4.78996C18.0403 5.41996 18.3803 6.21997 18.4203 7.04997Z" stroke="#292D32" stroke-width="1.5" stroke-linecap="round" stroke-linejoin="round"/>
<path opacity="0.4" d="M22.6699 12.5H19.6699C18.5699 12.5 17.6699 13.4 17.6699 14.5C17.6699 15.6 18.5699 16.5 19.6699 16.5H22.6699" stroke="#292D32" stroke-width="1.5" stroke-linecap="round" stroke-linejoin="round"/>
<path d="M9.66992 19C9.66992 19.75 9.4599 20.46 9.0899 21.06C8.8799 21.42 8.60993 21.74 8.29993 22C7.59993 22.63 6.67992 23 5.66992 23C4.20992 23 2.93994 22.22 2.24994 21.06C1.87994 20.46 1.66992 19.75 1.66992 19C1.66992 17.99 2.04992 17.07 2.66992 16.36C3.39992 15.53 4.46992 15 5.66992 15C7.87992 15 9.66992 16.79 9.66992 19Z" stroke="#292D32" stroke-width="1.5" stroke-miterlimit="10" stroke-linecap="round" stroke-linejoin="round"/>
<path d="M6.73987 20.0399L4.62988 17.9299" stroke="#292D32" stroke-width="1.5" stroke-miterlimit="10" stroke-linecap="round" stroke-linejoin="round"/>
<path d="M6.70959 17.96L4.59961 20.0699" stroke="#292D32" stroke-width="1.5" stroke-miterlimit="10" stroke-linecap="round" stroke-linejoin="round"/>
</svg>
