<svg width="25" height="24" viewBox="0 0 25 24" fill="none" xmlns="http://www.w3.org/2000/svg">
<g opacity="0.4">
<path d="M11.4196 16.86V18.89C11.4196 20.61 9.81955 22 7.84955 22C5.87955 22 4.26953 20.61 4.26953 18.89V16.86C4.26953 18.58 5.86955 19.8 7.84955 19.8C9.81955 19.8 11.4196 18.57 11.4196 16.86Z" stroke="#292D32" stroke-width="1.5" stroke-linecap="round" stroke-linejoin="round"/>
<path d="M11.4197 14.11C11.4197 14.61 11.2797 15.07 11.0397 15.47C10.4497 16.44 9.23972 17.05 7.83972 17.05C6.43972 17.05 5.22971 16.43 4.63971 15.47C4.39971 15.07 4.25977 14.61 4.25977 14.11C4.25977 13.25 4.65974 12.48 5.29974 11.92C5.94974 11.35 6.83971 11.01 7.82971 11.01C8.81971 11.01 9.70974 11.36 10.3597 11.92C11.0197 12.47 11.4197 13.25 11.4197 14.11Z" stroke="#292D32" stroke-width="1.5" stroke-linecap="round" stroke-linejoin="round"/>
<path d="M11.4196 14.11V16.86C11.4196 18.58 9.81955 19.8 7.84955 19.8C5.87955 19.8 4.26953 18.57 4.26953 16.86V14.11C4.26953 12.39 5.86955 11 7.84955 11C8.83955 11 9.72958 11.35 10.3796 11.91C11.0196 12.47 11.4196 13.25 11.4196 14.11Z" stroke="#292D32" stroke-width="1.5" stroke-linecap="round" stroke-linejoin="round"/>
</g>
<path d="M22.6701 10.9699V13.03C22.6701 13.58 22.2301 14.0299 21.6701 14.0499H19.7101C18.6301 14.0499 17.6401 13.2599 17.5501 12.1799C17.4901 11.5499 17.7301 10.9599 18.1501 10.5499C18.5201 10.1699 19.0301 9.94995 19.5901 9.94995H21.6701C22.2301 9.96995 22.6701 10.4199 22.6701 10.9699Z" stroke="#292D32" stroke-width="1.5" stroke-linecap="round" stroke-linejoin="round"/>
<path d="M2.66992 10.5V8.5C2.66992 5.78 4.30992 3.88 6.85992 3.56C7.11992 3.52 7.38992 3.5 7.66992 3.5H16.6699C16.9299 3.5 17.1799 3.50999 17.4199 3.54999C19.9999 3.84999 21.6699 5.76 21.6699 8.5V9.95001H19.5899C19.0299 9.95001 18.5199 10.17 18.1499 10.55C17.7299 10.96 17.4899 11.55 17.5499 12.18C17.6399 13.26 18.6299 14.05 19.7099 14.05H21.6699V15.5C21.6699 18.5 19.6699 20.5 16.6699 20.5H14.1699" stroke="#292D32" stroke-width="1.5" stroke-linecap="round" stroke-linejoin="round"/>
</svg>
