<svg width="25" height="24" viewBox="0 0 25 24" fill="none" xmlns="http://www.w3.org/2000/svg">
<path d="M7.60992 20.63C9.08992 21.5 10.8199 22 12.6699 22C18.1899 22 22.6699 17.52 22.6699 12C22.6699 6.48 18.1899 2 12.6699 2C7.14992 2 2.66992 6.48 2.66992 12C2.66992 13.82 3.15995 15.53 4.00995 17L2.66992 22L7.60992 20.63Z" stroke="black" stroke-width="1.5" stroke-miterlimit="10" stroke-linecap="round" stroke-linejoin="round"/>
<path opacity="0.4" d="M17.6699 15.17C17.6699 15.35 17.6299 15.54 17.5399 15.72C17.4499 15.9 17.34 16.07 17.2 16.23C16.95 16.5 16.6799 16.7 16.3799 16.82C16.0799 16.95 15.7499 17.01 15.3999 17.01C14.8899 17.01 14.3399 16.89 13.7699 16.64C13.1899 16.39 12.6199 16.06 12.0499 15.65C11.4699 15.23 10.9299 14.76 10.4099 14.25C9.88991 13.73 9.42995 13.18 9.00995 12.61C8.59995 12.04 8.26991 11.47 8.02991 10.9C7.78991 10.33 7.66992 9.78001 7.66992 9.26001C7.66992 8.92001 7.72991 8.59001 7.84991 8.29001C7.96991 7.98001 8.15993 7.70001 8.42993 7.45001C8.74993 7.13001 9.09991 6.98001 9.46991 6.98001C9.60991 6.98001 9.74994 7.01001 9.87994 7.07001C10.0099 7.13001 10.1299 7.22001 10.2199 7.35001L11.3799 8.98999C11.4699 9.11999 11.5399 9.23 11.5799 9.34C11.6299 9.45 11.6499 9.54999 11.6499 9.64999C11.6499 9.76999 11.6099 9.89001 11.5399 10.01C11.4699 10.13 11.3799 10.25 11.2599 10.37L10.8799 10.77C10.8199 10.83 10.7999 10.89 10.7999 10.97C10.7999 11.01 10.8099 11.05 10.8199 11.09C10.8399 11.13 10.8499 11.16 10.8599 11.19C10.9499 11.36 11.1099 11.57 11.3299 11.83C11.5599 12.09 11.7999 12.36 12.0599 12.62C12.3299 12.89 12.5899 13.13 12.8599 13.36C13.1199 13.58 13.3399 13.73 13.5099 13.82C13.5399 13.83 13.5699 13.85 13.5999 13.86C13.6399 13.88 13.6799 13.88 13.7299 13.88C13.8199 13.88 13.8799 13.85 13.9399 13.79L14.3199 13.41C14.4499 13.28 14.5699 13.19 14.6799 13.13C14.7999 13.06 14.9099 13.02 15.0399 13.02C15.1399 13.02 15.2399 13.04 15.3499 13.09C15.4599 13.14 15.58 13.2 15.7 13.29L17.3599 14.47C17.4899 14.56 17.5799 14.67 17.6399 14.79C17.6399 14.91 17.6699 15.03 17.6699 15.17Z" stroke="black" stroke-width="1.5" stroke-miterlimit="10"/>
</svg>
