<svg width="25" height="24" viewBox="0 0 25 24" fill="none" xmlns="http://www.w3.org/2000/svg">
<path d="M6.12986 2H4.71982C3.78982 2 3.31983 3.13 3.97983 3.79L9.70981 9.52C11.3498 11.16 13.9998 11.16 15.6398 9.52L21.3698 3.79C22.0298 3.13 21.5599 2 20.6299 2H19.2198C18.3898 2 17.5899 2.33 16.9999 2.92L13.4198 6.5C13.0098 6.91 12.3499 6.91 11.9399 6.5L8.35984 2.92C7.75984 2.33 6.95986 2 6.12986 2Z" stroke="black" stroke-width="1.5" stroke-miterlimit="10" stroke-linecap="round" stroke-linejoin="round"/>
<path opacity="0.4" d="M6.12986 21.97H4.71982C3.78982 21.97 3.31983 20.84 3.97983 20.18L9.70981 14.45C11.3498 12.81 13.9998 12.81 15.6398 14.45L21.3698 20.18C22.0298 20.84 21.5599 21.97 20.6299 21.97H19.2198C18.3898 21.97 17.5899 21.64 16.9999 21.05L13.4198 17.47C13.0098 17.06 12.3499 17.06 11.9399 17.47L8.35984 21.05C7.75984 21.64 6.95986 21.97 6.12986 21.97Z" stroke="black" stroke-width="1.5" stroke-miterlimit="10" stroke-linecap="round" stroke-linejoin="round"/>
</svg>
