<svg width="25" height="24" viewBox="0 0 25 24" fill="none" xmlns="http://www.w3.org/2000/svg">
<g opacity="0.4">
<path d="M11.1699 11.46V14.31L8.66992 15.75L6.16992 14.31V11.46L8.66992 10.02L9.91992 10.74L11.1699 11.46Z" stroke="black" stroke-width="1.5" stroke-miterlimit="10" stroke-linejoin="round"/>
<path d="M19.1699 11.46V14.31L16.6699 15.75L14.1699 14.31V11.46L15.4199 10.74L16.6699 10.02L19.1699 11.46Z" stroke="black" stroke-width="1.5" stroke-miterlimit="10" stroke-linejoin="round"/>
<path d="M15.4199 9.33V10.74L14.1699 11.46V13.19L12.6699 14.05L11.1699 13.19V11.46L9.91992 10.74V9.33L12.6699 7.75L15.4199 9.33Z" stroke="black" stroke-width="1.5" stroke-miterlimit="10" stroke-linejoin="round"/>
</g>
<path d="M12.6699 22C18.1928 22 22.6699 17.5228 22.6699 12C22.6699 6.47715 18.1928 2 12.6699 2C7.14707 2 2.66992 6.47715 2.66992 12C2.66992 17.5228 7.14707 22 12.6699 22Z" stroke="black" stroke-width="1.5" stroke-miterlimit="10" stroke-linejoin="round"/>
</svg>
