<svg width="25" height="24" viewBox="0 0 25 24" fill="none" xmlns="http://www.w3.org/2000/svg">
<path opacity="0.4" fill-rule="evenodd" clip-rule="evenodd" d="M6.66992 9.67999V12.48C6.66992 14.02 7.91993 15.26 9.45993 15.25L13.1399 15.22C13.6499 15.22 14.0599 14.8 14.0599 14.3V11.53C14.0599 10 12.8199 8.76001 11.2899 8.76001H7.59991C7.07991 8.76001 6.66992 9.16999 6.66992 9.67999Z" stroke="black" stroke-width="1.5" stroke-miterlimit="10"/>
<path opacity="0.4" fill-rule="evenodd" clip-rule="evenodd" d="M18.6699 9.23999V14.78L15.8999 12.93V11.09L18.6699 9.23999Z" stroke="black" stroke-width="1.5" stroke-miterlimit="10" stroke-linecap="round" stroke-linejoin="round"/>
<path d="M12.6699 22C18.1928 22 22.6699 17.5228 22.6699 12C22.6699 6.47715 18.1928 2 12.6699 2C7.14707 2 2.66992 6.47715 2.66992 12C2.66992 17.5228 7.14707 22 12.6699 22Z" stroke="black" stroke-width="1.5" stroke-miterlimit="10"/>
</svg>
