<svg width="25" height="24" viewBox="0 0 25 24" fill="none" xmlns="http://www.w3.org/2000/svg">
<path d="M9.6709 22H15.6709C20.6709 22 22.6709 20 22.6709 15V9C22.6709 4 20.6709 2 15.6709 2H9.6709C4.6709 2 2.6709 4 2.6709 9V15C2.6709 20 4.6709 22 9.6709 22Z" stroke="#292D32" stroke-width="1.5" stroke-linecap="round" stroke-linejoin="round"/>
<path d="M7.37109 9.25977L12.6711 12.3298L17.9311 9.27976" stroke="#292D32" stroke-width="1.5" stroke-linecap="round" stroke-linejoin="round"/>
<path d="M12.6709 17.7698V12.3198" stroke="#292D32" stroke-width="1.5" stroke-linecap="round" stroke-linejoin="round"/>
<path d="M11.4312 6.28986L8.23114 8.06986C7.51114 8.46986 6.91113 9.47985 6.91113 10.3099V13.6999C6.91113 14.5299 7.50114 15.5399 8.23114 15.9399L11.4312 17.7199C12.1112 18.0999 13.2311 18.0999 13.9211 17.7199L17.1212 15.9399C17.8412 15.5399 18.4411 14.5299 18.4411 13.6999V10.2999C18.4411 9.46986 17.8512 8.45985 17.1212 8.05985L13.9211 6.27985C13.2311 5.89985 12.1112 5.89986 11.4312 6.28986Z" stroke="#292D32" stroke-width="1.5" stroke-linecap="round" stroke-linejoin="round"/>
</svg>
