<svg width="25" height="24" viewBox="0 0 25 24" fill="none" xmlns="http://www.w3.org/2000/svg">
<path opacity="0.4" d="M12.6699 17V19.38C12.6699 21.25 11.9199 22 10.0399 22H5.28992C3.41992 22 2.66992 21.25 2.66992 19.38V14.63C2.66992 12.75 3.41992 12 5.28992 12H7.66992V14.37C7.66992 16.25 8.41992 17 10.2899 17H12.6699Z" stroke="#292D32" stroke-width="1.5" stroke-linecap="round" stroke-linejoin="round"/>
<path d="M17.6699 12V14.37C17.6699 16.25 16.9199 17 15.0399 17H10.2899C8.41992 17 7.66992 16.25 7.66992 14.37V9.62C7.66992 7.75 8.41992 7 10.2899 7H12.6699V9.37C12.6699 11.25 13.4199 12 15.2899 12H17.6699Z" stroke="#292D32" stroke-width="1.5" stroke-linecap="round" stroke-linejoin="round"/>
<path d="M22.6699 4.62V9.37C22.6699 11.25 21.9199 12 20.0399 12H15.2899C13.4199 12 12.6699 11.25 12.6699 9.37V4.62C12.6699 2.75 13.4199 2 15.2899 2H20.0399C21.9199 2 22.6699 2.75 22.6699 4.62Z" stroke="#292D32" stroke-width="1.5" stroke-linecap="round" stroke-linejoin="round"/>
</svg>
