<svg width="25" height="24" viewBox="0 0 25 24" fill="none" xmlns="http://www.w3.org/2000/svg">
<path opacity="0.4" d="M14.8002 11.3401C15.1902 9.70008 13.7601 8.27003 12.1201 8.66003C11.3501 8.85003 10.7201 9.48005 10.5301 10.2501C10.1401 11.8901 11.5701 13.32 13.2101 12.93C13.9901 12.74 14.6202 12.1101 14.8002 11.3401Z" stroke="#292D32" stroke-width="1.5" stroke-linecap="round" stroke-linejoin="round"/>
<path d="M18.6799 17.19C20.3899 15.59 21.4599 13.32 21.4599 10.79C21.4599 5.92998 17.5199 2 12.6699 2C7.81988 2 3.87988 5.93998 3.87988 10.79C3.87988 13.33 4.95988 15.62 6.68988 17.22" stroke="#292D32" stroke-width="1.5" stroke-linecap="round" stroke-linejoin="round"/>
<path opacity="0.4" d="M8.66969 14.55C7.74969 13.57 7.17969 12.25 7.17969 10.79C7.17969 7.76004 9.63969 5.30005 12.6697 5.30005C15.6997 5.30005 18.1597 7.76004 18.1597 10.79C18.1597 12.25 17.5897 13.56 16.6697 14.55" stroke="#292D32" stroke-width="1.5" stroke-linecap="round" stroke-linejoin="round"/>
<path opacity="0.4" d="M10.9701 16.66L9.53014 18.4501C8.39014 19.8801 9.40014 21.99 11.2301 21.99H14.1001C15.9301 21.99 16.9501 19.8701 15.8001 18.4501L14.3601 16.66C13.5001 15.57 11.8401 15.57 10.9701 16.66Z" stroke="#292D32" stroke-width="1.5" stroke-linecap="round" stroke-linejoin="round"/>
</svg>
