<svg width="25" height="24" viewBox="0 0 25 24" fill="none" xmlns="http://www.w3.org/2000/svg">
<path d="M7.38992 9.56H6.44992C4.36992 9.56 2.66992 7.86003 2.66992 5.78003C2.66992 3.70003 4.36992 2 6.44992 2H8.33994C9.89994 2 11.1699 3.28002 11.1699 4.83002V7.39001V17.1C11.1699 18.14 10.3199 18.99 9.27991 18.99C8.23991 18.99 7.38992 18.14 7.38992 17.1V9.56Z" stroke="#292D32" stroke-width="1.5" stroke-miterlimit="10" stroke-linecap="round" stroke-linejoin="round"/>
<path opacity="0.4" d="M6.44977 6.72003C5.92977 6.72003 5.50977 6.30009 5.50977 5.78009C5.50977 5.26009 5.92977 4.84009 6.44977 4.84009" stroke="#292D32" stroke-width="1.5" stroke-miterlimit="10" stroke-linecap="round" stroke-linejoin="round"/>
<path d="M17.9499 9.56H18.8899C20.9699 9.56 22.6699 7.86003 22.6699 5.78003C22.6699 3.70003 20.9699 2 18.8899 2H16.9999C15.4399 2 14.1699 3.28002 14.1699 4.83002V7.39001V17.1C14.1699 18.14 15.0199 18.99 16.0599 18.99C17.0999 18.99 17.9499 18.14 17.9499 17.1V9.56Z" stroke="#292D32" stroke-width="1.5" stroke-miterlimit="10" stroke-linecap="round" stroke-linejoin="round"/>
<path opacity="0.4" d="M18.8901 6.72003C19.4101 6.72003 19.8301 6.30009 19.8301 5.78009C19.8301 5.26009 19.4101 4.84009 18.8901 4.84009" stroke="#292D32" stroke-width="1.5" stroke-miterlimit="10" stroke-linecap="round" stroke-linejoin="round"/>
<path opacity="0.4" d="M9.16992 22V19" stroke="#292D32" stroke-width="1.5" stroke-miterlimit="10" stroke-linecap="round" stroke-linejoin="round"/>
<path opacity="0.4" d="M16.1699 22V19" stroke="#292D32" stroke-width="1.5" stroke-miterlimit="10" stroke-linecap="round" stroke-linejoin="round"/>
</svg>
