<svg width="25" height="24" viewBox="0 0 25 24" fill="none" xmlns="http://www.w3.org/2000/svg">
<path opacity="0.34" d="M10.5295 19L12.2095 17.58C12.4595 17.37 12.8795 17.37 13.1395 17.58L14.8095 19C15.1995 19.2 15.6795 19 15.8195 18.58L16.1395 17.62C16.2195 17.39 16.1395 17.05 15.9695 16.88L14.3295 15.23C14.2095 15.11 14.1195 14.88 14.1195 14.72V12.87C14.1195 12.45 14.4295 12.25 14.8195 12.41L18.1695 13.85C18.7195 14.09 19.1795 13.79 19.1795 13.19V12.26C19.1795 11.78 18.8195 11.22 18.3695 11.03L14.4295 9.32999C14.2595 9.25999 14.1295 9.04999 14.1295 8.86999V6.79999C14.1295 6.11999 13.6295 5.31999 13.0295 5.00999C12.8095 4.89999 12.5595 4.89999 12.3395 5.00999C11.7295 5.30999 11.2395 6.11999 11.2395 6.79999V8.86999C11.2395 9.04999 11.0995 9.25999 10.9395 9.32999L6.99945 11.03C6.55945 11.22 6.18945 11.78 6.18945 12.26V13.19C6.18945 13.79 6.63945 14.09 7.19945 13.85L10.5495 12.41C10.9295 12.24 11.2495 12.45 11.2495 12.87V14.72C11.2495 14.89 11.1495 15.12 11.0395 15.23L9.36945 16.87C9.19945 17.04 9.11945 17.38 9.19945 17.61L9.51945 18.57C9.65945 19 10.1295 19.2 10.5295 19Z" stroke="#292D32" stroke-width="1.5" stroke-linecap="round" stroke-linejoin="round"/>
<path d="M9.66992 22H15.6699C20.6699 22 22.6699 20 22.6699 15V9C22.6699 4 20.6699 2 15.6699 2H9.66992C4.66992 2 2.66992 4 2.66992 9V15C2.66992 20 4.66992 22 9.66992 22Z" stroke="#292D32" stroke-width="1.5" stroke-linecap="round" stroke-linejoin="round"/>
</svg>
