<svg width="25" height="24" viewBox="0 0 25 24" fill="none" xmlns="http://www.w3.org/2000/svg">
<path d="M9.70016 21.69L12.0302 19.73C12.3802 19.43 12.9602 19.43 13.3102 19.73L15.6402 21.69C16.1802 21.96 16.8402 21.69 17.0402 21.11L17.4802 19.78C17.5902 19.46 17.4802 18.99 17.2402 18.75L14.9702 16.47C14.8002 16.31 14.6702 15.99 14.6702 15.76V12.91C14.6702 12.49 14.9802 12.29 15.3702 12.45L20.2802 14.57C21.0502 14.9 21.6802 14.49 21.6802 13.65V12.36C21.6802 11.69 21.1802 10.92 20.5602 10.66L14.9702 8.25001C14.8102 8.18001 14.6702 7.97001 14.6702 7.79001V4.79001C14.6702 3.85001 13.9802 2.74001 13.1402 2.31001C12.8402 2.16001 12.4902 2.16001 12.1902 2.31001C11.3502 2.74001 10.6602 3.86001 10.6602 4.80001V7.80001C10.6602 7.98001 10.5202 8.19001 10.3602 8.26001L4.78016 10.67C4.16016 10.92 3.66016 11.69 3.66016 12.36V13.65C3.66016 14.49 4.29016 14.9 5.06016 14.57L9.97016 12.45C10.3502 12.28 10.6702 12.49 10.6702 12.91V15.76C10.6702 15.99 10.5402 16.31 10.3802 16.47L8.11016 18.75C7.87016 18.99 7.76016 19.45 7.87016 19.78L8.31016 21.11C8.49016 21.69 9.15016 21.97 9.70016 21.69Z" stroke="#292D32" stroke-width="1.5" stroke-linecap="round" stroke-linejoin="round"/>
</svg>
