<svg width="25" height="24" viewBox="0 0 25 24" fill="none" xmlns="http://www.w3.org/2000/svg">
<path fill-rule="evenodd" clip-rule="evenodd" d="M19.26 19.36C19.81 18.52 20.01 18.1 20.43 17.16C17.35 15.99 16.85 11.6 19.9 9.92001C18.97 8.75001 17.66 8.07999 16.43 8.07999C15.54 8.07999 14.93 8.30999 14.38 8.51999C13.92 8.69999 13.49 8.85999 12.98 8.85999C12.42 8.85999 11.93 8.68 11.41 8.5C10.84 8.3 10.25 8.07999 9.51004 8.07999C8.12004 8.07999 6.65005 8.93 5.71005 10.37C4.40005 12.41 4.62005 16.24 6.75005 19.51C7.51005 20.68 8.53005 21.99 9.86005 22C10.41 22.01 10.78 21.84 11.18 21.66C11.64 21.46 12.13 21.23 12.99 21.23C13.85 21.22 14.34 21.45 14.79 21.66C15.18 21.84 15.54 22 16.08 22C17.42 21.99 18.5 20.53 19.26 19.36Z" stroke="black" stroke-width="1.5" stroke-miterlimit="10" stroke-linecap="round" stroke-linejoin="round"/>
<path opacity="0.4" fill-rule="evenodd" clip-rule="evenodd" d="M16.6798 2.07001C16.8398 3.17001 16.3898 4.25999 15.7998 5.01999C15.1698 5.83999 14.0698 6.48 13.0098 6.44C12.8198 5.38 13.3098 4.29 13.9098 3.56C14.5798 2.76 15.7098 2.14001 16.6798 2.07001Z" stroke="black" stroke-width="1.5" stroke-miterlimit="10" stroke-linecap="round" stroke-linejoin="round"/>
</svg>
