<svg width="25" height="24" viewBox="0 0 25 24" fill="none" xmlns="http://www.w3.org/2000/svg">
<path d="M21.6699 7V17C21.6699 20 20.1699 22 16.6699 22H8.66992C5.16992 22 3.66992 20 3.66992 17V7C3.66992 4 5.16992 2 8.66992 2H16.6699C20.1699 2 21.6699 4 21.6699 7Z" stroke="#292D32" stroke-width="1.5" stroke-miterlimit="10" stroke-linecap="round" stroke-linejoin="round"/>
<path opacity="0.4" d="M16.1699 2V9.85999C16.1699 10.3 15.6499 10.52 15.3299 10.23L13.0099 8.09003C12.8199 7.91003 12.5199 7.91003 12.3299 8.09003L10.0099 10.23C9.68995 10.52 9.16992 10.3 9.16992 9.85999V2H16.1699Z" stroke="#292D32" stroke-width="1.5" stroke-miterlimit="10" stroke-linecap="round" stroke-linejoin="round"/>
<path opacity="0.4" d="M13.9199 14H18.1699" stroke="#292D32" stroke-width="1.5" stroke-miterlimit="10" stroke-linecap="round" stroke-linejoin="round"/>
<path opacity="0.4" d="M9.66992 18H18.1699" stroke="#292D32" stroke-width="1.5" stroke-miterlimit="10" stroke-linecap="round" stroke-linejoin="round"/>
</svg>
