<svg width="25" height="24" viewBox="0 0 25 24" fill="none" xmlns="http://www.w3.org/2000/svg">
<path opacity="0.4" d="M12.8718 11.8L11.4617 13.21C10.6817 13.99 10.6817 15.26 11.4617 16.04C12.2417 16.82 13.5117 16.82 14.2917 16.04L16.5118 13.82C18.0718 12.26 18.0718 9.72999 16.5118 8.15999C14.9518 6.59999 12.4217 6.59999 10.8517 8.15999L8.43176 10.58C7.09176 11.92 7.09176 14.09 8.43176 15.43" stroke="#292D32" stroke-width="1.5" stroke-linecap="round" stroke-linejoin="round"/>
<path d="M12.6719 22C18.1947 22 22.6719 17.5228 22.6719 12C22.6719 6.47715 18.1947 2 12.6719 2C7.14903 2 2.67188 6.47715 2.67188 12C2.67188 17.5228 7.14903 22 12.6719 22Z" stroke="#292D32" stroke-width="1.5" stroke-linecap="round" stroke-linejoin="round"/>
</svg>
