<svg width="25" height="24" viewBox="0 0 25 24" fill="none" xmlns="http://www.w3.org/2000/svg">
<path d="M11.4198 2.45001C12.1198 1.86001 13.2498 1.86001 13.9298 2.45001L15.5098 3.80001C15.8098 4.05001 16.3798 4.26001 16.7798 4.26001H18.4798C19.5398 4.26001 20.4098 5.13001 20.4098 6.19001V7.89001C20.4098 8.29001 20.6198 8.85001 20.8698 9.15001L22.2198 10.73C22.8098 11.43 22.8098 12.56 22.2198 13.24L20.8698 14.82C20.6198 15.12 20.4098 15.68 20.4098 16.08V17.78C20.4098 18.84 19.5398 19.71 18.4798 19.71H16.7798C16.3798 19.71 15.8198 19.92 15.5198 20.17L13.9398 21.52C13.2398 22.11 12.1098 22.11 11.4298 21.52L9.8498 20.17C9.5498 19.92 8.9798 19.71 8.5898 19.71H6.8398C5.7798 19.71 4.9098 18.84 4.9098 17.78V16.07C4.9098 15.68 4.7098 15.11 4.4598 14.82L3.1098 13.23C2.5298 12.54 2.5298 11.42 3.1098 10.73L4.4598 9.14001C4.7098 8.84001 4.9098 8.28001 4.9098 7.89001V6.20001C4.9098 5.14001 5.7798 4.27001 6.8398 4.27001H8.5698C8.9698 4.27001 9.5298 4.06001 9.8298 3.81001L11.4198 2.45001Z" stroke="#292D32" stroke-width="1.5" stroke-linecap="round" stroke-linejoin="round"/>
<g opacity="0.4">
<path d="M9.16992 15.9396L12.6699 8.05957L16.1699 15.9396" stroke="#292D32" stroke-width="1.5" stroke-linejoin="bevel"/>
<path d="M14.4199 13.3096H10.9199" stroke="#292D32" stroke-width="1.5" stroke-linecap="round" stroke-linejoin="round"/>
</g>
</svg>
