<svg width="25" height="24" viewBox="0 0 25 24" fill="none" xmlns="http://www.w3.org/2000/svg">
<path d="M4.92969 11.0199V15.9899C4.92969 17.8099 4.92969 17.8099 6.64969 18.9699L11.3797 21.6999C12.0897 22.1099 13.2497 22.1099 13.9597 21.6999L18.6897 18.9699C20.4097 17.8099 20.4097 17.8099 20.4097 15.9899V11.0199C20.4097 9.19994 20.4097 9.19994 18.6897 8.03994L13.9597 5.30994C13.2497 4.89994 12.0897 4.89994 11.3797 5.30994L6.64969 8.03994C4.92969 9.19994 4.92969 9.19994 4.92969 11.0199Z" stroke="#292D32" stroke-width="1.5" stroke-linecap="round" stroke-linejoin="round"/>
<path opacity="0.4" d="M18.1699 7.63V5C18.1699 3 17.1699 2 15.1699 2H10.1699C8.16992 2 7.16992 3 7.16992 5V7.56" stroke="#292D32" stroke-width="1.5" stroke-linecap="round" stroke-linejoin="round"/>
<path opacity="0.4" d="M13.2997 10.99L13.8697 11.88C13.9597 12.02 14.1597 12.16 14.3097 12.2L15.3297 12.46C15.9597 12.62 16.1297 13.16 15.7197 13.66L15.0497 14.47C14.9497 14.6 14.8697 14.83 14.8797 14.99L14.9397 16.04C14.9797 16.69 14.5197 17.02 13.9197 16.78L12.9397 16.39C12.7897 16.33 12.5397 16.33 12.3897 16.39L11.4097 16.78C10.8097 17.02 10.3497 16.68 10.3897 16.04L10.4497 14.99C10.4597 14.83 10.3797 14.59 10.2797 14.47L9.6097 13.66C9.1997 13.16 9.3697 12.62 9.9997 12.46L11.0197 12.2C11.1797 12.16 11.3797 12.01 11.4597 11.88L12.0297 10.99C12.3897 10.45 12.9497 10.45 13.2997 10.99Z" stroke="#292D32" stroke-width="1.5" stroke-linecap="round" stroke-linejoin="round"/>
</svg>
