<svg width="25" height="24" viewBox="0 0 25 24" fill="none" xmlns="http://www.w3.org/2000/svg">
<path d="M22.6699 5.14999V7.85001C22.6699 10.1 21.7699 11 19.5199 11H16.8199C14.5699 11 13.6699 10.1 13.6699 7.85001V5.14999C13.6699 2.89999 14.5699 2 16.8199 2H19.5199C21.7699 2 22.6699 2.89999 22.6699 5.14999Z" stroke="#292D32" stroke-width="1.5" stroke-linecap="round" stroke-linejoin="round"/>
<path d="M11.6699 16.15V18.85C11.6699 21.1 10.7699 22 8.51992 22H5.81992C3.56992 22 2.66992 21.1 2.66992 18.85V16.15C2.66992 13.9 3.56992 13 5.81992 13H8.51992C10.7699 13 11.6699 13.9 11.6699 16.15Z" stroke="#292D32" stroke-width="1.5" stroke-linecap="round" stroke-linejoin="round"/>
<path opacity="0.4" d="M18.05 11.0001V13.6201C18.05 16.3101 16.98 17.3801 14.29 17.3801H11.67V16.1501C11.67 13.9001 10.77 13.0001 8.52003 13.0001H7.29004V10.3801C7.29004 7.69013 8.36003 6.62012 11.05 6.62012H13.67V7.85013C13.67 10.1001 14.57 11.0001 16.82 11.0001H18.05Z" stroke="#292D32" stroke-width="1.5" stroke-linecap="round" stroke-linejoin="round"/>
</svg>
