<svg width="25" height="24" viewBox="0 0 25 24" fill="none" xmlns="http://www.w3.org/2000/svg">
<path opacity="0.4" d="M22.6702 8.34V15.66C22.6702 17.16 21.0402 18.1 19.7402 17.35L16.5702 15.53L13.4002 13.7C13.2002 13.58 13.0402 13.45 12.9102 13.29V10.73C13.0402 10.57 13.2002 10.44 13.4002 10.32L16.5702 8.48999L19.7402 6.67002C21.0402 5.90002 22.6702 6.84 22.6702 8.34Z" stroke="#292D32" stroke-width="1.5" stroke-linecap="round" stroke-linejoin="round"/>
<path d="M12.91 8.34V15.66C12.91 17.16 11.28 18.1 9.98004 17.35L6.81005 15.53L3.64004 13.7C2.34004 12.95 2.34004 11.08 3.64004 10.32L6.81005 8.48999L9.98004 6.67002C11.28 5.90002 12.91 6.84 12.91 8.34Z" stroke="#292D32" stroke-width="1.5" stroke-linecap="round" stroke-linejoin="round"/>
</svg>
