<svg width="25" height="24" viewBox="0 0 25 24" fill="none" xmlns="http://www.w3.org/2000/svg">
<path d="M13.0399 2.14984L22.0399 5.74982C22.3899 5.88982 22.6699 6.30981 22.6699 6.67981V9.99982C22.6699 10.5498 22.2199 10.9998 21.6699 10.9998H3.66992C3.11992 10.9998 2.66992 10.5498 2.66992 9.99982V6.67981C2.66992 6.30981 2.94993 5.88982 3.29993 5.74982L12.2999 2.14984C12.4999 2.06984 12.8399 2.06984 13.0399 2.14984Z" stroke="#292D32" stroke-width="1.5" stroke-miterlimit="10" stroke-linecap="round" stroke-linejoin="round"/>
<path d="M22.6699 22H2.66992V19C2.66992 18.45 3.11992 18 3.66992 18H21.6699C22.2199 18 22.6699 18.45 22.6699 19V22Z" stroke="#292D32" stroke-width="1.5" stroke-miterlimit="10" stroke-linecap="round" stroke-linejoin="round"/>
<path opacity="0.4" d="M4.66992 18V11" stroke="#292D32" stroke-width="1.5" stroke-miterlimit="10" stroke-linecap="round" stroke-linejoin="round"/>
<path opacity="0.4" d="M8.66992 18V11" stroke="#292D32" stroke-width="1.5" stroke-miterlimit="10" stroke-linecap="round" stroke-linejoin="round"/>
<path opacity="0.4" d="M12.6699 18V11" stroke="#292D32" stroke-width="1.5" stroke-miterlimit="10" stroke-linecap="round" stroke-linejoin="round"/>
<path opacity="0.4" d="M16.6699 18V11" stroke="#292D32" stroke-width="1.5" stroke-miterlimit="10" stroke-linecap="round" stroke-linejoin="round"/>
<path opacity="0.4" d="M20.6699 18V11" stroke="#292D32" stroke-width="1.5" stroke-miterlimit="10" stroke-linecap="round" stroke-linejoin="round"/>
<path d="M1.66992 22H23.6699" stroke="#292D32" stroke-width="1.5" stroke-miterlimit="10" stroke-linecap="round" stroke-linejoin="round"/>
<path opacity="0.4" d="M12.6699 8.5C13.4983 8.5 14.1699 7.82843 14.1699 7C14.1699 6.17157 13.4983 5.5 12.6699 5.5C11.8415 5.5 11.1699 6.17157 11.1699 7C11.1699 7.82843 11.8415 8.5 12.6699 8.5Z" stroke="#292D32" stroke-width="1.5" stroke-miterlimit="10" stroke-linecap="round" stroke-linejoin="round"/>
</svg>
