<svg width="25" height="24" viewBox="0 0 25 24" fill="none" xmlns="http://www.w3.org/2000/svg">
<path d="M5.13992 11.4199L3.39993 9.67993L1.66992 11.4199" stroke="#292D32" stroke-width="1.5" stroke-linecap="round" stroke-linejoin="round"/>
<path d="M20.2 12.5801L21.9399 14.3201L23.68 12.5801" stroke="#292D32" stroke-width="1.5" stroke-linecap="round" stroke-linejoin="round"/>
<path d="M21.9299 14.32V12C21.9299 6.88 17.7799 2.73999 12.6699 2.73999C9.74994 2.73999 7.13994 4.10002 5.43994 6.21002" stroke="#292D32" stroke-width="1.5" stroke-linecap="round" stroke-linejoin="round"/>
<path d="M3.40991 9.67993V11.9999C3.40991 17.1199 7.55991 21.2599 12.6699 21.2599C15.5899 21.2599 18.1999 19.8999 19.8999 17.7899" stroke="#292D32" stroke-width="1.5" stroke-linecap="round" stroke-linejoin="round"/>
<g opacity="0.4">
<path d="M9.66992 8.5H14.0499C15.0199 8.5 15.7999 9.38 15.7999 10.25C15.7999 11.22 15.0199 12 14.0499 12H9.66992V8.5Z" stroke="#292D32" stroke-width="1.5" stroke-miterlimit="10" stroke-linecap="round" stroke-linejoin="round"/>
<path d="M9.66992 12H14.6699C15.7699 12 16.6699 12.78 16.6699 13.75C16.6699 14.72 15.7699 15.5 14.6699 15.5H9.66992V12Z" stroke="#292D32" stroke-width="1.5" stroke-miterlimit="10" stroke-linecap="round" stroke-linejoin="round"/>
<path d="M12.4697 15.5V17.25" stroke="#292D32" stroke-width="1.5" stroke-miterlimit="10" stroke-linecap="round" stroke-linejoin="round"/>
<path d="M12.4697 6.75V8.5" stroke="#292D32" stroke-width="1.5" stroke-miterlimit="10" stroke-linecap="round" stroke-linejoin="round"/>
</g>
</svg>
