<svg width="25" height="24" viewBox="0 0 25 24" fill="none" xmlns="http://www.w3.org/2000/svg">
<path d="M16.6699 9C16.6699 12.87 13.5399 16 9.66992 16C9.34992 16 9.03992 15.98 8.73992 15.93C5.30992 15.48 2.66992 12.55 2.66992 9C2.66992 5.13 5.79992 2 9.66992 2C13.2199 2 16.1499 4.64 16.5999 8.07C16.6499 8.37 16.6699 8.68 16.6699 9Z" stroke="#292D32" stroke-width="1.5" stroke-linecap="round" stroke-linejoin="round"/>
<path opacity="0.4" d="M22.6702 15.0001C22.6702 18.8701 19.5402 22.0001 15.6702 22.0001C12.1202 22.0001 9.19023 19.3601 8.74023 15.9301C9.04023 15.9801 9.35023 16.0001 9.67023 16.0001C13.5402 16.0001 16.6702 12.8701 16.6702 9.00007C16.6702 8.68007 16.6502 8.37007 16.6002 8.07007C20.0302 8.52007 22.6702 11.4501 22.6702 15.0001Z" stroke="#292D32" stroke-width="1.5" stroke-linecap="round" stroke-linejoin="round"/>
<path opacity="0.4" d="M14.8203 14.1201L16.1303 15.4101" stroke="#292D32" stroke-width="1.5" stroke-linecap="round" stroke-linejoin="round"/>
<path opacity="0.4" d="M17.6699 12L16.6699 11" stroke="#292D32" stroke-width="1.5" stroke-linecap="round" stroke-linejoin="round"/>
<path opacity="0.4" d="M12.6699 17L11.6699 16" stroke="#292D32" stroke-width="1.5" stroke-linecap="round" stroke-linejoin="round"/>
</svg>
