<svg width="25" height="24" viewBox="0 0 25 24" fill="none" xmlns="http://www.w3.org/2000/svg">
<path d="M5.31006 18.64L17.66 7.31998C18.17 6.84998 18.1601 6.09997 17.6201 5.64997L13.7701 2.43998C12.7701 1.60998 11.95 1.98998 11.95 3.28998V20.71C11.95 22.01 12.7701 22.39 13.7701 21.56L17.6201 18.35C18.1601 17.9 18.17 17.15 17.66 16.68L5.31006 5.35996" stroke="#292D32" stroke-width="1.5" stroke-miterlimit="10" stroke-linecap="round" stroke-linejoin="round"/>
<path opacity="0.4" d="M5.66992 13C6.22221 13 6.66992 12.5523 6.66992 12C6.66992 11.4477 6.22221 11 5.66992 11C5.11764 11 4.66992 11.4477 4.66992 12C4.66992 12.5523 5.11764 13 5.66992 13Z" stroke="#292D32" stroke-width="1.5" stroke-miterlimit="10" stroke-linecap="round" stroke-linejoin="round"/>
<path opacity="0.4" d="M19.6699 13C20.2222 13 20.6699 12.5523 20.6699 12C20.6699 11.4477 20.2222 11 19.6699 11C19.1176 11 18.6699 11.4477 18.6699 12C18.6699 12.5523 19.1176 13 19.6699 13Z" stroke="#292D32" stroke-width="1.5" stroke-miterlimit="10" stroke-linecap="round" stroke-linejoin="round"/>
</svg>
