<svg width="25" height="24" viewBox="0 0 25 24" fill="none" xmlns="http://www.w3.org/2000/svg">
<path d="M22.6699 4.67019V16.7402C22.6699 17.7002 21.8899 18.6002 20.9299 18.7202L20.5999 18.7602C18.4199 19.0502 15.0599 20.1602 13.1399 21.2202C12.8799 21.3702 12.4499 21.3702 12.1799 21.2202L12.1399 21.2002C10.2199 20.1502 6.86995 19.0502 4.69995 18.7602L4.40991 18.7202C3.44991 18.6002 2.66992 17.7002 2.66992 16.7402V4.66018C2.66992 3.47018 3.63989 2.57019 4.8299 2.67019C6.92989 2.84019 10.1099 3.90022 11.8899 5.01022L12.1399 5.16018C12.4299 5.34018 12.91 5.34018 13.2 5.16018L13.3699 5.05019C13.9999 4.66019 14.7999 4.27019 15.6699 3.92019C16.9799 3.40019 18.4399 2.98024 19.6699 2.78024C19.9399 2.73024 20.1999 2.7002 20.4399 2.6802H20.4999C21.6899 2.5802 22.6699 3.47019 22.6699 4.67019Z" stroke="#292D32" stroke-width="1.5" stroke-linecap="round" stroke-linejoin="round"/>
<path opacity="0.4" d="M12.6699 5.49023V20.4902" stroke="#292D32" stroke-width="1.5" stroke-linecap="round" stroke-linejoin="round"/>
<path opacity="0.4" d="M19.6699 2.78027V8.00024L17.6699 6.67023L15.6699 8.00024V3.92023C16.9799 3.40023 18.4399 2.98027 19.6699 2.78027Z" stroke="#292D32" stroke-width="1.5" stroke-linecap="round" stroke-linejoin="round"/>
</svg>
