<svg width="25" height="24" viewBox="0 0 25 24" fill="none" xmlns="http://www.w3.org/2000/svg">
<path d="M23.6711 17.91C23.6911 18.66 23.4911 19.37 23.1311 19.98C22.9311 20.34 22.6611 20.6701 22.3611 20.9401C21.6711 21.5801 20.7611 21.9701 19.7511 22.0001C18.2911 22.0301 17.0011 21.2801 16.2911 20.1301C15.9111 19.5401 15.6811 18.8301 15.6711 18.0801C15.6411 16.8201 16.2011 15.6801 17.1011 14.9301C17.7811 14.3701 18.6411 14.0201 19.5811 14.0001C21.7911 13.9501 23.6211 15.7 23.6711 17.91Z" stroke="#292D32" stroke-width="1.5" stroke-miterlimit="10" stroke-linecap="round" stroke-linejoin="round"/>
<path d="M18.1113 18.0303L19.1213 18.9902L21.2113 16.9702" stroke="#292D32" stroke-width="1.5" stroke-linecap="round" stroke-linejoin="round"/>
<g opacity="0.4">
<path d="M3.84082 7.43994L12.6708 12.5499L21.4408 7.46991" stroke="#292D32" stroke-width="1.5" stroke-linecap="round" stroke-linejoin="round"/>
<path d="M12.6709 21.61V12.54" stroke="#292D32" stroke-width="1.5" stroke-linecap="round" stroke-linejoin="round"/>
<path d="M22.281 9.17V14.83C22.281 14.88 22.281 14.92 22.271 14.97C21.571 14.36 20.671 14 19.671 14C18.731 14 17.861 14.33 17.171 14.88C16.251 15.61 15.671 16.74 15.671 18C15.671 18.75 15.881 19.46 16.251 20.06C16.341 20.22 16.451 20.37 16.571 20.51L14.741 21.52C13.601 22.16 11.741 22.16 10.601 21.52L5.26102 18.56C4.05102 17.89 3.06104 16.21 3.06104 14.83V9.17C3.06104 7.79 4.05102 6.11002 5.26102 5.44002L10.601 2.48C11.741 1.84 13.601 1.84 14.741 2.48L20.081 5.44002C21.291 6.11002 22.281 7.79 22.281 9.17Z" stroke="#292D32" stroke-width="1.5" stroke-linecap="round" stroke-linejoin="round"/>
</g>
</svg>
