<svg width="25" height="24" viewBox="0 0 25 24" fill="none" xmlns="http://www.w3.org/2000/svg">
<path d="M3.84082 7.43994L12.6708 12.5499L21.4408 7.46991" stroke="#292D32" stroke-width="1.5" stroke-linecap="round" stroke-linejoin="round"/>
<path d="M12.6709 21.61V12.54" stroke="#292D32" stroke-width="1.5" stroke-linecap="round" stroke-linejoin="round"/>
<path d="M22.281 12.83V9.17C22.281 7.79 21.291 6.11002 20.081 5.44002L14.741 2.48C13.601 1.84 11.741 1.84 10.601 2.48L5.26102 5.44002C4.05102 6.11002 3.06104 7.79 3.06104 9.17V14.83C3.06104 16.21 4.05102 17.89 5.26102 18.56L10.601 21.52C11.171 21.84 11.921 22 12.671 22C13.421 22 14.171 21.84 14.741 21.52" stroke="#292D32" stroke-width="1.5" stroke-linecap="round" stroke-linejoin="round"/>
<g opacity="0.4">
<path d="M19.8709 21.4C21.6382 21.4 23.0709 19.9673 23.0709 18.2C23.0709 16.4327 21.6382 15 19.8709 15C18.1036 15 16.6709 16.4327 16.6709 18.2C16.6709 19.9673 18.1036 21.4 19.8709 21.4Z" stroke="#292D32" stroke-width="1.5" stroke-linecap="round" stroke-linejoin="round"/>
<path d="M23.6709 22L22.6709 21" stroke="#292D32" stroke-width="1.5" stroke-linecap="round" stroke-linejoin="round"/>
</g>
</svg>
