<svg width="25" height="24" viewBox="0 0 25 24" fill="none" xmlns="http://www.w3.org/2000/svg">
<path d="M23.6709 18C23.6709 18.75 23.4609 19.46 23.0909 20.06C22.8809 20.42 22.6109 20.74 22.3009 21C21.6009 21.63 20.6809 22 19.6709 22C18.4509 22 17.3609 21.45 16.6409 20.59C16.6209 20.56 16.5909 20.54 16.5709 20.51C16.4509 20.37 16.3409 20.22 16.2509 20.06C15.8809 19.46 15.6709 18.75 15.6709 18C15.6709 16.74 16.2509 15.61 17.1709 14.88C17.8609 14.33 18.7309 14 19.6709 14C20.6709 14 21.5709 14.36 22.2709 14.97C22.3909 15.06 22.5009 15.17 22.6009 15.28C23.2609 16 23.6709 16.95 23.6709 18Z" stroke="#292D32" stroke-width="1.5" stroke-miterlimit="10" stroke-linecap="round" stroke-linejoin="round"/>
<path d="M21.1607 17.98H18.1807" stroke="#292D32" stroke-width="1.5" stroke-miterlimit="10" stroke-linecap="round" stroke-linejoin="round"/>
<path d="M19.6709 16.52V19.51" stroke="#292D32" stroke-width="1.5" stroke-miterlimit="10" stroke-linecap="round" stroke-linejoin="round"/>
<g opacity="0.4">
<path d="M3.84082 7.43994L12.6708 12.5499L21.4408 7.46991" stroke="#292D32" stroke-width="1.5" stroke-linecap="round" stroke-linejoin="round"/>
<path d="M12.6709 21.61V12.54" stroke="#292D32" stroke-width="1.5" stroke-linecap="round" stroke-linejoin="round"/>
<path d="M22.281 9.17V14.83C22.281 14.88 22.281 14.92 22.271 14.97C21.571 14.36 20.671 14 19.671 14C18.731 14 17.861 14.33 17.171 14.88C16.251 15.61 15.671 16.74 15.671 18C15.671 18.75 15.881 19.46 16.251 20.06C16.341 20.22 16.451 20.37 16.571 20.51L14.741 21.52C13.601 22.16 11.741 22.16 10.601 21.52L5.26103 18.56C4.05103 17.89 3.06104 16.21 3.06104 14.83V9.17C3.06104 7.79 4.05103 6.11002 5.26103 5.44002L10.601 2.48C11.741 1.84 13.601 1.84 14.741 2.48L20.081 5.44002C21.291 6.11002 22.281 7.79 22.281 9.17Z" stroke="#292D32" stroke-width="1.5" stroke-linecap="round" stroke-linejoin="round"/>
</g>
</svg>
