<svg width="25" height="24" viewBox="0 0 25 24" fill="none" xmlns="http://www.w3.org/2000/svg">
<path d="M8.66975 22H16.6697C20.6897 22 21.4097 20.39 21.6197 18.43L22.3697 10.43C22.6397 7.99 21.9397 6 17.6697 6H7.66975C3.39975 6 2.69975 7.99 2.96975 10.43L3.71975 18.43C3.92975 20.39 4.64975 22 8.66975 22Z" stroke="#292D32" stroke-width="1.5" stroke-miterlimit="10" stroke-linecap="round" stroke-linejoin="round"/>
<path opacity="0.4" d="M8.66992 6V5.2C8.66992 3.43 8.66992 2 11.8699 2H13.4699C16.6699 2 16.6699 3.43 16.6699 5.2V6" stroke="#292D32" stroke-width="1.5" stroke-miterlimit="10" stroke-linecap="round" stroke-linejoin="round"/>
<g opacity="0.4">
<path d="M14.6699 13V14C14.6699 14.01 14.6699 14.01 14.6699 14.02C14.6699 15.11 14.6599 16 12.6699 16C10.6899 16 10.6699 15.12 10.6699 14.03V13C10.6699 12 10.6699 12 11.6699 12H13.6699C14.6699 12 14.6699 12 14.6699 13Z" stroke="#292D32" stroke-width="1.5" stroke-miterlimit="10" stroke-linecap="round" stroke-linejoin="round"/>
<path d="M22.3199 11C20.0099 12.68 17.3699 13.68 14.6699 14.02" stroke="#292D32" stroke-width="1.5" stroke-miterlimit="10" stroke-linecap="round" stroke-linejoin="round"/>
<path d="M3.28906 11.2695C5.53906 12.8095 8.07906 13.7395 10.6691 14.0295" stroke="#292D32" stroke-width="1.5" stroke-miterlimit="10" stroke-linecap="round" stroke-linejoin="round"/>
</g>
</svg>
