<svg width="25" height="24" viewBox="0 0 25 24" fill="none" xmlns="http://www.w3.org/2000/svg">
<path opacity="0.4" d="M6.66992 2H18.6699C19.7699 2 20.6699 2.9 20.6699 4V8.32001H4.66992V4C4.66992 2.9 5.56992 2 6.66992 2Z" stroke="#292D32" stroke-width="1.5" stroke-linecap="round" stroke-linejoin="round"/>
<path d="M4.66992 8.32007V11.8801C4.66992 12.9601 5.24995 13.9601 6.19995 14.4901L9.15991 16.16C9.78991 16.51 10.1799 17.1801 10.1799 17.9001V20.0001C10.1799 21.1001 11.0799 22.0001 12.1799 22.0001H13.1799C14.2799 22.0001 15.1799 21.1001 15.1799 20.0001V17.9001C15.1799 17.1801 15.57 16.51 16.2 16.16L19.1599 14.4901C20.0999 13.9601 20.6899 12.9601 20.6899 11.8801V8.32007H4.66992Z" stroke="#292D32" stroke-width="1.5" stroke-linecap="round" stroke-linejoin="round"/>
</svg>
