<svg width="25" height="24" viewBox="0 0 25 24" fill="none" xmlns="http://www.w3.org/2000/svg">
<g clip-path="url(#clip0_12_78642)">
<path opacity="0.4" d="M11.6396 2H9.63965C4.63965 2 2.63965 4 2.63965 9V15C2.63965 20 4.63965 22 9.63965 22H15.6396C20.6396 22 22.6396 20 22.6396 15V13" stroke="#292D32" stroke-width="1.5" stroke-linecap="round" stroke-linejoin="round"/>
<path d="M22.5504 3.55998C21.3204 6.62998 18.2304 10.81 15.6504 12.88L14.0704 14.14C13.8704 14.29 13.6704 14.41 13.4404 14.5C13.4404 14.35 13.4304 14.2 13.4104 14.04C13.3204 13.37 13.0204 12.74 12.4804 12.21C11.9304 11.66 11.2704 11.35 10.5904 11.26C10.4304 11.25 10.2704 11.24 10.1104 11.25C10.2004 11 10.3304 10.77 10.5004 10.58L11.7604 8.99998C13.8304 6.41998 18.0204 3.30998 21.0804 2.07998C21.5504 1.89998 22.0104 2.03998 22.3004 2.32998C22.6004 2.62998 22.7404 3.08998 22.5504 3.55998Z" stroke="#292D32" stroke-width="1.5" stroke-linecap="round" stroke-linejoin="round"/>
<path d="M13.45 14.49C13.45 15.37 13.11 16.21 12.48 16.85C11.99 17.34 11.33 17.68 10.54 17.78L8.57002 17.99C7.50002 18.11 6.58002 17.2 6.70002 16.11L6.91001 14.14C7.10001 12.39 8.56001 11.27 10.12 11.24C10.28 11.23 10.44 11.24 10.6 11.25C11.28 11.34 11.94 11.65 12.49 12.2C13.03 12.74 13.33 13.36 13.42 14.03C13.44 14.19 13.45 14.35 13.45 14.49Z" stroke="#292D32" stroke-width="1.5" stroke-linecap="round" stroke-linejoin="round"/>
<path opacity="0.4" d="M16.4902 11.9799C16.4902 9.88994 14.8002 8.18994 12.7002 8.18994" stroke="#292D32" stroke-width="1.5" stroke-linecap="round" stroke-linejoin="round"/>
</g>
<defs>
<clipPath id="clip0_12_78642">
<rect width="24" height="24" fill="white" transform="translate(0.669922)"/>
</clipPath>
</defs>
</svg>
