<svg width="25" height="24" viewBox="0 0 25 24" fill="none" xmlns="http://www.w3.org/2000/svg">
<g opacity="0.4">
<path d="M10.0799 15.9499L7.68984 13.56C6.88984 12.76 6.88984 11.9599 7.68984 11.1699L11.6799 7.17993L16.0698 11.5699C16.2898 11.7899 16.2898 12.1499 16.0698 12.3699L12.4799 15.9599C11.6799 16.7499 10.8799 16.7499 10.0799 15.9499Z" stroke="#292D32" stroke-width="1.5" stroke-miterlimit="10" stroke-linecap="round" stroke-linejoin="round"/>
<path d="M10.8799 6.37988L11.6799 7.17987" stroke="#292D32" stroke-width="1.5" stroke-miterlimit="10" stroke-linecap="round" stroke-linejoin="round"/>
<path d="M7.12988 12.3299L16.1599 11.9399" stroke="#292D32" stroke-width="1.5" stroke-miterlimit="10" stroke-linecap="round" stroke-linejoin="round"/>
<path d="M17.14 14.1699C17.14 14.1699 16.04 15.3699 16.04 16.0999C16.04 16.7099 16.54 17.1998 17.14 17.1998C17.75 17.1998 18.2401 16.6999 18.2401 16.0999C18.2501 15.3599 17.14 14.1699 17.14 14.1699Z" stroke="#292D32" stroke-width="1.5" stroke-linecap="round" stroke-linejoin="round"/>
</g>
<path d="M12.6699 22C18.1928 22 22.6699 17.5228 22.6699 12C22.6699 6.47715 18.1928 2 12.6699 2C7.14707 2 2.66992 6.47715 2.66992 12C2.66992 17.5228 7.14707 22 12.6699 22Z" stroke="#292D32" stroke-width="1.5" stroke-linecap="round" stroke-linejoin="round"/>
</svg>
