<svg width="25" height="24" viewBox="0 0 25 24" fill="none" xmlns="http://www.w3.org/2000/svg">
<path d="M13.1696 22.0003H4.74965C3.58965 22.0003 2.63965 21.0703 2.63965 19.9303V5.09035C2.63965 2.47035 4.58965 1.28035 6.97965 2.45035L11.4196 4.63035C12.3796 5.10035 13.1696 6.35035 13.1696 7.41035V22.0003Z" stroke="#292D32" stroke-width="1.5" stroke-linecap="round" stroke-linejoin="round"/>
<path d="M22.6399 15.0604V18.8404C22.6399 21.0004 21.6399 22.0004 19.4799 22.0004H13.1699V10.4204L13.6399 10.5204L18.1399 11.5304L20.1699 11.9804C21.4899 12.2704 22.5699 12.9504 22.6299 14.8704C22.6399 14.9304 22.6399 14.9904 22.6399 15.0604Z" stroke="#292D32" stroke-width="1.5" stroke-linecap="round" stroke-linejoin="round"/>
<path opacity="0.4" d="M6.16992 9.00049H9.63992" stroke="#292D32" stroke-width="1.5" stroke-linecap="round" stroke-linejoin="round"/>
<path opacity="0.4" d="M6.16992 13.0005H9.63992" stroke="#292D32" stroke-width="1.5" stroke-linecap="round" stroke-linejoin="round"/>
<path d="M18.1396 11.5305V14.7505C18.1396 15.9905 17.1296 17.0005 15.8896 17.0005C14.6496 17.0005 13.6396 15.9905 13.6396 14.7505V10.5205L18.1396 11.5305Z" stroke="#292D32" stroke-width="1.5" stroke-linecap="round" stroke-linejoin="round"/>
<path d="M22.6296 14.8703C22.5696 16.0503 21.5896 17.0003 20.3896 17.0003C19.1496 17.0003 18.1396 15.9903 18.1396 14.7503V11.5303L20.1696 11.9803C21.4896 12.2703 22.5696 12.9503 22.6296 14.8703Z" stroke="#292D32" stroke-width="1.5" stroke-linecap="round" stroke-linejoin="round"/>
</svg>
