<svg width="25" height="24" viewBox="0 0 25 24" fill="none" xmlns="http://www.w3.org/2000/svg">
<path d="M2.66992 22H22.6699" stroke="#292D32" stroke-width="1.5" stroke-miterlimit="10" stroke-linecap="round" stroke-linejoin="round"/>
<path d="M15.6799 21.9898L3.67993 22.0099L3.66992 7.06986C3.66992 6.39986 4.00994 5.77983 4.55994 5.40983L8.55994 2.73984C9.22994 2.28984 10.1099 2.28984 10.7799 2.73984L14.7799 5.40983C15.3399 5.77983 15.6699 6.39986 15.6699 7.06986L15.6799 21.9898Z" stroke="#292D32" stroke-width="1.5" stroke-miterlimit="10" stroke-linecap="round" stroke-linejoin="round"/>
<path opacity="0.4" d="M20.6499 22.01V18" stroke="#292D32" stroke-width="1.5" stroke-miterlimit="10" stroke-linecap="round" stroke-linejoin="round"/>
<path d="M20.6699 12C19.5699 12 18.6699 12.9 18.6699 14V16C18.6699 17.1 19.5699 18 20.6699 18C21.7699 18 22.6699 17.1 22.6699 16V14C22.6699 12.9 21.7699 12 20.6699 12Z" stroke="#292D32" stroke-width="1.5" stroke-miterlimit="10" stroke-linecap="round" stroke-linejoin="round"/>
<path d="M3.66992 14H15.6699" stroke="#292D32" stroke-width="1.5" stroke-miterlimit="10" stroke-linecap="round" stroke-linejoin="round"/>
<path opacity="0.4" d="M9.66992 22V18.25" stroke="#292D32" stroke-width="1.5" stroke-miterlimit="10" stroke-linecap="round" stroke-linejoin="round"/>
<path opacity="0.4" d="M9.66992 10.5C10.4983 10.5 11.1699 9.82843 11.1699 9C11.1699 8.17157 10.4983 7.5 9.66992 7.5C8.84149 7.5 8.16992 8.17157 8.16992 9C8.16992 9.82843 8.84149 10.5 9.66992 10.5Z" stroke="#292D32" stroke-width="1.5" stroke-miterlimit="10" stroke-linecap="round" stroke-linejoin="round"/>
</svg>
