<svg width="25" height="24" viewBox="0 0 25 24" fill="none" xmlns="http://www.w3.org/2000/svg">
<path d="M1.66992 22H23.6699" stroke="#292D32" stroke-width="1.5" stroke-miterlimit="10" stroke-linecap="round" stroke-linejoin="round"/>
<path opacity="0.4" d="M20.4502 22.0098V17.5498" stroke="#292D32" stroke-width="1.5" stroke-miterlimit="10" stroke-linecap="round" stroke-linejoin="round"/>
<path d="M20.47 10.8901C19.25 10.8901 18.27 11.8701 18.27 13.0901V15.3601C18.27 16.5801 19.25 17.5601 20.47 17.5601C21.69 17.5601 22.67 16.5801 22.67 15.3601V13.0901C22.67 11.8701 21.69 10.8901 20.47 10.8901Z" stroke="#292D32" stroke-width="1.5" stroke-miterlimit="10" stroke-linecap="round" stroke-linejoin="round"/>
<path d="M2.77002 21.9998V6.02979C2.77002 4.01979 3.77007 3.00977 5.76007 3.00977H11.9901C13.9801 3.00977 14.97 4.01979 14.97 6.02979V21.9998" stroke="#292D32" stroke-width="1.5" stroke-miterlimit="10" stroke-linecap="round" stroke-linejoin="round"/>
<path opacity="0.4" d="M6.46973 8.25H11.4197" stroke="#292D32" stroke-width="1.5" stroke-miterlimit="10" stroke-linecap="round" stroke-linejoin="round"/>
<path opacity="0.4" d="M6.46973 12H11.4197" stroke="#292D32" stroke-width="1.5" stroke-miterlimit="10" stroke-linecap="round" stroke-linejoin="round"/>
<path opacity="0.4" d="M8.91992 22V18.25" stroke="#292D32" stroke-width="1.5" stroke-miterlimit="10" stroke-linecap="round" stroke-linejoin="round"/>
</svg>
