<svg width="25" height="24" viewBox="0 0 25 24" fill="none" xmlns="http://www.w3.org/2000/svg">
<path d="M17.5699 22H7.76993C6.06993 22 4.66992 20.61 4.66992 18.9V5.10001C4.66992 3.40001 6.05993 2 7.76993 2H17.5699C19.2699 2 20.6699 3.39001 20.6699 5.10001V18.9C20.6699 20.61 19.2799 22 17.5699 22Z" stroke="#292D32" stroke-width="1.5" stroke-linecap="round" stroke-linejoin="round"/>
<path d="M19.1699 13H6.16992C5.33992 13 4.66992 12.33 4.66992 11.5V9.5C4.66992 8.67 5.33992 8 6.16992 8H19.1699C19.9999 8 20.6699 8.67 20.6699 9.5V11.5C20.6699 12.33 19.9999 13 19.1699 13Z" stroke="#292D32" stroke-width="1.5" stroke-linecap="round" stroke-linejoin="round"/>
<path opacity="0.4" d="M10.1699 5H15.1699" stroke="#292D32" stroke-width="1.5" stroke-linecap="round" stroke-linejoin="round"/>
<path opacity="0.4" d="M9.16443 17.7H9.17341" stroke="#292D32" stroke-width="2.5" stroke-linecap="round" stroke-linejoin="round"/>
<path opacity="0.4" d="M16.1644 17.7H16.1734" stroke="#292D32" stroke-width="2.5" stroke-linecap="round" stroke-linejoin="round"/>
</svg>
