<svg width="25" height="24" viewBox="0 0 25 24" fill="none" xmlns="http://www.w3.org/2000/svg">
<path d="M10.6699 22H14.6699C19.6699 22 21.6699 20 21.6699 15V9C21.6699 4 19.6699 2 14.6699 2H10.6699C5.66992 2 3.66992 4 3.66992 9V15C3.66992 20 5.66992 22 10.6699 22Z" stroke="#292D32" stroke-width="1.5" stroke-linecap="round" stroke-linejoin="round"/>
<path opacity="0.4" d="M17.1699 7.58008V8.58008C17.1699 9.40008 16.4999 10.0801 15.6699 10.0801H9.66992C8.84992 10.0801 8.16992 9.41008 8.16992 8.58008V7.58008C8.16992 6.76008 8.83992 6.08008 9.66992 6.08008H15.6699C16.4999 6.08008 17.1699 6.75008 17.1699 7.58008Z" stroke="#292D32" stroke-width="1.5" stroke-linecap="round" stroke-linejoin="round"/>
<path opacity="0.4" d="M8.80604 14H8.81759" stroke="#292D32" stroke-width="2" stroke-linecap="round" stroke-linejoin="round"/>
<path opacity="0.4" d="M12.6652 14H12.6767" stroke="#292D32" stroke-width="2" stroke-linecap="round" stroke-linejoin="round"/>
<path opacity="0.4" d="M16.5243 14H16.5359" stroke="#292D32" stroke-width="2" stroke-linecap="round" stroke-linejoin="round"/>
<path opacity="0.4" d="M8.80604 17.5H8.81759" stroke="#292D32" stroke-width="2" stroke-linecap="round" stroke-linejoin="round"/>
<path opacity="0.4" d="M12.6652 17.5H12.6767" stroke="#292D32" stroke-width="2" stroke-linecap="round" stroke-linejoin="round"/>
<path opacity="0.4" d="M16.5243 17.5H16.5359" stroke="#292D32" stroke-width="2" stroke-linecap="round" stroke-linejoin="round"/>
</svg>
