<svg width="25" height="24" viewBox="0 0 25 24" fill="none" xmlns="http://www.w3.org/2000/svg">
<path d="M8.66992 2V5" stroke="#292D32" stroke-width="1.5" stroke-miterlimit="10" stroke-linecap="round" stroke-linejoin="round"/>
<path d="M16.6699 2V5" stroke="#292D32" stroke-width="1.5" stroke-miterlimit="10" stroke-linecap="round" stroke-linejoin="round"/>
<path d="M16.6699 3.5C19.9999 3.68 21.6699 4.95 21.6699 9.65V15.83C21.6699 19.95 20.6699 22.01 15.6699 22.01H9.66992C4.66992 22.01 3.66992 19.95 3.66992 15.83V9.65C3.66992 4.95 5.33992 3.69 8.66992 3.5H16.6699Z" stroke="#292D32" stroke-width="1.5" stroke-miterlimit="10" stroke-linecap="round" stroke-linejoin="round"/>
<path opacity="0.4" d="M21.4199 17.6001H3.91992" stroke="#292D32" stroke-width="1.5" stroke-miterlimit="10" stroke-linecap="round" stroke-linejoin="round"/>
<path opacity="0.4" d="M12.6699 8.25C11.4399 8.25 10.3999 8.92 10.3999 10.22C10.3999 10.84 10.6899 11.31 11.1299 11.61C10.5199 11.97 10.1699 12.55 10.1699 13.23C10.1699 14.47 11.1199 15.24 12.6699 15.24C14.2099 15.24 15.1699 14.47 15.1699 13.23C15.1699 12.55 14.8199 11.96 14.1999 11.61C14.6499 11.3 14.9299 10.84 14.9299 10.22C14.9299 8.92 13.8999 8.25 12.6699 8.25ZM12.6699 11.09C12.1499 11.09 11.7699 10.78 11.7699 10.29C11.7699 9.79 12.1499 9.5 12.6699 9.5C13.1899 9.5 13.5699 9.79 13.5699 10.29C13.5699 10.78 13.1899 11.09 12.6699 11.09ZM12.6699 14C12.0099 14 11.5299 13.67 11.5299 13.07C11.5299 12.47 12.0099 12.15 12.6699 12.15C13.3299 12.15 13.8099 12.48 13.8099 13.07C13.8099 13.67 13.3299 14 12.6699 14Z" fill="#292D32"/>
</svg>
