<svg width="25" height="24" viewBox="0 0 25 24" fill="none" xmlns="http://www.w3.org/2000/svg">
<path d="M7.43009 22H17.9101C20.6701 22 21.7701 20.31 21.9001 18.25L22.4201 9.99C22.5601 7.83 20.8401 6 18.6701 6C18.0601 6 17.5001 5.65 17.2201 5.11L16.5001 3.66C16.0401 2.75 14.8401 2 13.8201 2H11.5301C10.5001 2 9.30009 2.75 8.84009 3.66L8.12009 5.11C7.84009 5.65 7.28009 6 6.67009 6C4.50009 6 2.78009 7.83 2.92009 9.99L3.44009 18.25C3.56009 20.31 4.67009 22 7.43009 22Z" stroke="#292D32" stroke-width="1.5" stroke-linecap="round" stroke-linejoin="round"/>
<path opacity="0.4" d="M11.1699 8H14.1699" stroke="#292D32" stroke-width="1.5" stroke-linecap="round" stroke-linejoin="round"/>
<path opacity="0.4" d="M12.6699 18C14.4599 18 15.9199 16.54 15.9199 14.75C15.9199 12.96 14.4599 11.5 12.6699 11.5C10.8799 11.5 9.41992 12.96 9.41992 14.75C9.41992 16.54 10.8799 18 12.6699 18Z" stroke="#292D32" stroke-width="1.5" stroke-linecap="round" stroke-linejoin="round"/>
</svg>
