<svg width="25" height="24" viewBox="0 0 25 24" fill="none" xmlns="http://www.w3.org/2000/svg">
<path opacity="0.4" d="M6.66992 10H9.66992" stroke="#292D32" stroke-width="1.5" stroke-linecap="round" stroke-linejoin="round"/>
<path opacity="0.4" d="M7.42969 22H17.9097C20.6697 22 21.7697 20.31 21.8997 18.25L22.4197 9.99001C22.4797 9.06001 22.1897 8.19001 21.6797 7.51001" stroke="#292D32" stroke-width="1.5" stroke-linecap="round" stroke-linejoin="round"/>
<path d="M18.6701 6C18.0601 6 17.5001 5.65 17.2201 5.11L16.5001 3.66C16.0401 2.75 14.8401 2 13.8201 2H11.5301C10.5001 2 9.30009 2.75 8.84009 3.66L8.12009 5.11C7.84009 5.65 7.28009 6 6.67009 6C4.50009 6 2.78009 7.83 2.92009 9.99L3.44009 18.25C3.49009 19.07 3.70009 19.84 4.11009 20.46" stroke="#292D32" stroke-width="1.5" stroke-linecap="round" stroke-linejoin="round"/>
<path opacity="0.4" d="M10.6699 17.31C11.2199 17.74 11.9199 18 12.6699 18C14.4599 18 15.9199 16.54 15.9199 14.75C15.9199 14.11 15.7399 13.52 15.4199 13.02" stroke="#292D32" stroke-width="1.5" stroke-linecap="round" stroke-linejoin="round"/>
<path d="M22.6699 2L2.66992 22" stroke="#292D32" stroke-width="1.5" stroke-linecap="round" stroke-linejoin="round"/>
</svg>
