<svg width="25" height="24" viewBox="0 0 25 24" fill="none" xmlns="http://www.w3.org/2000/svg">
<path d="M16.1799 2.83008H9.15992C6.66992 2.83008 6.11992 4.07008 5.79992 5.59008L4.66992 11.0001H20.6699L19.5399 5.59008C19.2199 4.07008 18.6699 2.83008 16.1799 2.83008Z" stroke="#292D32" stroke-width="1.5" stroke-linecap="round" stroke-linejoin="round"/>
<path d="M22.6597 19.82C22.7697 20.99 21.8297 22 20.6297 22H18.7497C17.6697 22 17.5197 21.54 17.3297 20.97L17.1297 20.37C16.8497 19.55 16.6697 19 15.2297 19H10.1097C8.66966 19 8.45966 19.62 8.20966 20.37L8.00966 20.97C7.81966 21.54 7.66966 22 6.58966 22H4.70966C3.50966 22 2.56966 20.99 2.67966 19.82L3.23966 13.73C3.37966 12.23 3.66966 11 6.28966 11H19.0497C21.6697 11 21.9597 12.23 22.0997 13.73L22.6597 19.82Z" stroke="#292D32" stroke-width="1.5" stroke-linecap="round" stroke-linejoin="round"/>
<path d="M4.66992 8H3.66992" stroke="#292D32" stroke-width="1.5" stroke-linecap="round" stroke-linejoin="round"/>
<path d="M21.6699 8H20.6699" stroke="#292D32" stroke-width="1.5" stroke-linecap="round" stroke-linejoin="round"/>
<g opacity="0.4">
<path d="M12.6699 3V5" stroke="#292D32" stroke-width="1.5" stroke-linecap="round" stroke-linejoin="round"/>
<path d="M11.1699 5H14.1699" stroke="#292D32" stroke-width="1.5" stroke-linecap="round" stroke-linejoin="round"/>
</g>
<path opacity="0.4" d="M6.66992 15H9.66992" stroke="#292D32" stroke-width="1.5" stroke-linecap="round" stroke-linejoin="round"/>
<path opacity="0.4" d="M15.6699 15H18.6699" stroke="#292D32" stroke-width="1.5" stroke-linecap="round" stroke-linejoin="round"/>
</svg>
