<svg width="25" height="24" viewBox="0 0 25 24" fill="none" xmlns="http://www.w3.org/2000/svg">
<path d="M2.66992 17.0601H12.6699" stroke="#292D32" stroke-width="1.5" stroke-miterlimit="10" stroke-linecap="round" stroke-linejoin="round"/>
<path d="M4.88989 13.5H10.45C12.23 13.5 12.6699 13.94 12.6699 15.7V19.81C12.6699 21.57 12.23 22.01 10.45 22.01H4.88989C3.10989 22.01 2.66992 21.57 2.66992 19.81V15.7C2.66992 13.94 3.10989 13.5 4.88989 13.5Z" stroke="#292D32" stroke-width="1.5" stroke-linecap="round" stroke-linejoin="round"/>
<path opacity="0.4" d="M22.6699 15C22.6699 18.87 19.5399 22 15.6699 22L16.7199 20.25" stroke="#292D32" stroke-width="1.5" stroke-linecap="round" stroke-linejoin="round"/>
<path opacity="0.4" d="M2.66992 9C2.66992 5.13 5.79992 2 9.66992 2L8.61993 3.75" stroke="#292D32" stroke-width="1.5" stroke-linecap="round" stroke-linejoin="round"/>
<path d="M19.1699 11C21.6552 11 23.6699 8.98528 23.6699 6.5C23.6699 4.01472 21.6552 2 19.1699 2C16.6846 2 14.6699 4.01472 14.6699 6.5C14.6699 8.98528 16.6846 11 19.1699 11Z" stroke="#292D32" stroke-width="1.5" stroke-linecap="round" stroke-linejoin="round"/>
</svg>
