<svg width="25" height="24" viewBox="0 0 25 24" fill="none" xmlns="http://www.w3.org/2000/svg">
<path opacity="0.34" d="M5.66992 10H7.66992C9.66992 10 10.6699 9 10.6699 7V5C10.6699 3 9.66992 2 7.66992 2H5.66992C3.66992 2 2.66992 3 2.66992 5V7C2.66992 9 3.66992 10 5.66992 10Z" stroke="#292D32" stroke-width="1.5" stroke-miterlimit="10" stroke-linecap="round" stroke-linejoin="round"/>
<path d="M17.6699 10H19.6699C21.6699 10 22.6699 9 22.6699 7V5C22.6699 3 21.6699 2 19.6699 2H17.6699C15.6699 2 14.6699 3 14.6699 5V7C14.6699 9 15.6699 10 17.6699 10Z" stroke="#292D32" stroke-width="1.5" stroke-miterlimit="10" stroke-linecap="round" stroke-linejoin="round"/>
<path opacity="0.34" d="M17.6699 22H19.6699C21.6699 22 22.6699 21 22.6699 19V17C22.6699 15 21.6699 14 19.6699 14H17.6699C15.6699 14 14.6699 15 14.6699 17V19C14.6699 21 15.6699 22 17.6699 22Z" stroke="#292D32" stroke-width="1.5" stroke-miterlimit="10" stroke-linecap="round" stroke-linejoin="round"/>
<path d="M5.66992 22H7.66992C9.66992 22 10.6699 21 10.6699 19V17C10.6699 15 9.66992 14 7.66992 14H5.66992C3.66992 14 2.66992 15 2.66992 17V19C2.66992 21 3.66992 22 5.66992 22Z" stroke="#292D32" stroke-width="1.5" stroke-miterlimit="10" stroke-linecap="round" stroke-linejoin="round"/>
</svg>
