<svg width="25" height="24" viewBox="0 0 25 24" fill="none" xmlns="http://www.w3.org/2000/svg">
<path d="M17.6699 10H19.6699C21.6699 10 22.6699 9 22.6699 7V5C22.6699 3 21.6699 2 19.6699 2H17.6699C15.6699 2 14.6699 3 14.6699 5V7C14.6699 9 15.6699 10 17.6699 10Z" stroke="#292D32" stroke-width="1.5" stroke-miterlimit="10" stroke-linecap="round" stroke-linejoin="round"/>
<path d="M5.66992 22H7.66992C9.66992 22 10.6699 21 10.6699 19V17C10.6699 15 9.66992 14 7.66992 14H5.66992C3.66992 14 2.66992 15 2.66992 17V19C2.66992 21 3.66992 22 5.66992 22Z" stroke="#292D32" stroke-width="1.5" stroke-miterlimit="10" stroke-linecap="round" stroke-linejoin="round"/>
<path opacity="0.34" d="M6.66992 10C8.87906 10 10.6699 8.20914 10.6699 6C10.6699 3.79086 8.87906 2 6.66992 2C4.46078 2 2.66992 3.79086 2.66992 6C2.66992 8.20914 4.46078 10 6.66992 10Z" stroke="#292D32" stroke-width="1.5" stroke-miterlimit="10" stroke-linecap="round" stroke-linejoin="round"/>
<path opacity="0.34" d="M18.6699 22C20.8791 22 22.6699 20.2091 22.6699 18C22.6699 15.7909 20.8791 14 18.6699 14C16.4608 14 14.6699 15.7909 14.6699 18C14.6699 20.2091 16.4608 22 18.6699 22Z" stroke="#292D32" stroke-width="1.5" stroke-miterlimit="10" stroke-linecap="round" stroke-linejoin="round"/>
</svg>
