<svg width="25" height="24" viewBox="0 0 25 24" fill="none" xmlns="http://www.w3.org/2000/svg">
<path d="M9.66992 22H15.6699C20.6699 22 22.6699 20 22.6699 15V9C22.6699 4 20.6699 2 15.6699 2H9.66992C4.66992 2 2.66992 4 2.66992 9V15C2.66992 20 4.66992 22 9.66992 22Z" stroke="#292D32" stroke-width="1.5" stroke-linecap="round" stroke-linejoin="round"/>
<path opacity="0.4" d="M16.1699 18.5C17.2699 18.5 18.1699 17.6 18.1699 16.5V7.5C18.1699 6.4 17.2699 5.5 16.1699 5.5C15.0699 5.5 14.1699 6.4 14.1699 7.5V16.5C14.1699 17.6 15.0599 18.5 16.1699 18.5Z" stroke="#292D32" stroke-width="1.5" stroke-linecap="round" stroke-linejoin="round"/>
<path opacity="0.4" d="M9.16992 18.5C10.2699 18.5 11.1699 17.6 11.1699 16.5V13C11.1699 11.9 10.2699 11 9.16992 11C8.06992 11 7.16992 11.9 7.16992 13V16.5C7.16992 17.6 8.05992 18.5 9.16992 18.5Z" stroke="#292D32" stroke-width="1.5" stroke-linecap="round" stroke-linejoin="round"/>
</svg>
