<svg width="25" height="24" viewBox="0 0 25 24" fill="none" xmlns="http://www.w3.org/2000/svg">
<g opacity="0.4">
<path d="M10.7802 11.15H8.13022C7.50022 11.15 6.99023 11.66 6.99023 12.29V17.41H10.7802V11.15V11.15Z" stroke="#292D32" stroke-width="1.5" stroke-miterlimit="10" stroke-linecap="round" stroke-linejoin="round"/>
<path d="M13.4305 6.59998H11.9105C11.2805 6.59998 10.7705 7.10999 10.7705 7.73999V17.4H14.5605V7.73999C14.5605 7.10999 14.0605 6.59998 13.4305 6.59998Z" stroke="#292D32" stroke-width="1.5" stroke-miterlimit="10" stroke-linecap="round" stroke-linejoin="round"/>
<path d="M17.2203 12.85H14.5703V17.4H18.3603V13.99C18.3503 13.36 17.8403 12.85 17.2203 12.85Z" stroke="#292D32" stroke-width="1.5" stroke-miterlimit="10" stroke-linecap="round" stroke-linejoin="round"/>
</g>
<path d="M9.66992 22H15.6699C20.6699 22 22.6699 20 22.6699 15V9C22.6699 4 20.6699 2 15.6699 2H9.66992C4.66992 2 2.66992 4 2.66992 9V15C2.66992 20 4.66992 22 9.66992 22Z" stroke="#292D32" stroke-width="1.5" stroke-linecap="round" stroke-linejoin="round"/>
</svg>
