<svg width="25" height="24" viewBox="0 0 25 24" fill="none" xmlns="http://www.w3.org/2000/svg">
<path opacity="0.4" d="M11.6899 19.5H8.16992C7.54992 19.5 6.99992 19.48 6.50992 19.41C3.87992 19.12 3.16992 17.88 3.16992 14.5V9.5C3.16992 6.12 3.87992 4.88 6.50992 4.59C6.99992 4.52 7.54992 4.5 8.16992 4.5H11.6299" stroke="#292D32" stroke-width="1.5" stroke-linecap="round" stroke-linejoin="round"/>
<path d="M15.6899 4.5H17.1699C17.7899 4.5 18.3399 4.52 18.8299 4.59C21.4599 4.88 22.1699 6.12 22.1699 9.5V14.5C22.1699 17.88 21.4599 19.12 18.8299 19.41C18.3399 19.48 17.7899 19.5 17.1699 19.5H15.6899" stroke="#292D32" stroke-width="1.5" stroke-linecap="round" stroke-linejoin="round"/>
<path d="M15.6699 2V22" stroke="#292D32" stroke-width="1.5" stroke-linecap="round" stroke-linejoin="round"/>
<path opacity="0.4" d="M8.66992 8.5V15.5" stroke="#292D32" stroke-width="1.5" stroke-linecap="round" stroke-linejoin="round"/>
</svg>
