<svg width="25" height="24" viewBox="0 0 25 24" fill="none" xmlns="http://www.w3.org/2000/svg">
<path d="M12.6699 22C18.1899 22 22.6699 17.52 22.6699 12C22.6699 6.48 18.1899 2 12.6699 2C7.14992 2 2.66992 6.48 2.66992 12C2.66992 17.52 7.14992 22 12.6699 22Z" stroke="#292D32" stroke-width="1.5" stroke-linecap="round" stroke-linejoin="round"/>
<g opacity="0.4">
<path d="M12.6699 16C14.8799 16 16.6699 14.21 16.6699 12C16.6699 9.79 14.8799 8 12.6699 8C10.4599 8 8.66992 9.79 8.66992 12C8.66992 14.21 10.4599 16 12.6699 16Z" stroke="#292D32" stroke-width="1.5" stroke-linecap="round" stroke-linejoin="round"/>
<path d="M21.8399 7.99988C18.8199 7.33988 15.6899 7.33988 12.6699 7.99988" stroke="#292D32" stroke-width="1.5" stroke-linecap="round" stroke-linejoin="round"/>
<path d="M4.61914 6.05957L4.63914 6.11957C5.64914 9.00957 7.19914 11.6896 9.20914 13.9996" stroke="#292D32" stroke-width="1.5" stroke-linecap="round" stroke-linejoin="round"/>
<path d="M11.5508 21.94C13.6108 19.67 15.1608 16.99 16.1008 14.08L16.1308 14" stroke="#292D32" stroke-width="1.5" stroke-linecap="round" stroke-linejoin="round"/>
</g>
</svg>
