<svg width="25" height="24" viewBox="0 0 25 24" fill="none" xmlns="http://www.w3.org/2000/svg">
<path opacity="0.4" d="M14.97 10.13C15.25 11.23 14.76 12.25 13.92 12.77V14.75C13.92 15.44 13.36 16 12.67 16C11.98 16 11.42 15.44 11.42 14.75V12.77C10.74 12.35 10.29 11.6 10.29 10.75C10.29 9.23 11.73 8.05 13.31 8.47C14.11 8.68 14.76 9.33 14.97 10.13Z" stroke="black" stroke-width="1.5" stroke-miterlimit="10"/>
<path d="M22.2199 9.03C20.9499 4.96 17.1599 2 12.6699 2C7.14992 2 2.66992 6.48 2.66992 12C2.66992 17.52 7.14992 22 12.6699 22C17.1399 22 20.9299 19.06 22.2099 15.01" stroke="black" stroke-width="1.5" stroke-miterlimit="10" stroke-linecap="round" stroke-linejoin="round"/>
</svg>
