<svg width="25" height="24" viewBox="0 0 25 24" fill="none" xmlns="http://www.w3.org/2000/svg">
<path d="M19.2999 7.1499C19.3399 7.7599 19.2899 8.4499 19.1699 9.2199L18.4399 13.9099C17.8199 17.8199 16.0099 19.1399 12.0999 18.5299L7.40991 17.7899C6.05991 17.5799 5.01991 17.2199 4.25991 16.6799C2.80991 15.6699 2.38991 14.0099 2.78991 11.4499L3.52991 6.7599C4.14991 2.8499 5.95991 1.5299 9.86991 2.1399L14.5599 2.8799C17.6999 3.3699 19.1699 4.6499 19.2999 7.1499Z" stroke="#292D32" stroke-width="1.5" stroke-linecap="round" stroke-linejoin="round"/>
<path opacity="0.4" d="M21.17 13.4699L19.67 17.9799C18.42 21.7399 16.42 22.7399 12.66 21.4899L8.15001 19.9899C5.88001 19.2399 4.62001 18.1999 4.26001 16.6799C5.02001 17.2199 6.06001 17.5799 7.41001 17.7899L12.1 18.5299C16.01 19.1399 17.82 17.8199 18.44 13.9099L19.17 9.2199C19.29 8.4499 19.34 7.7599 19.3 7.1499C21.69 8.4199 22.21 10.3399 21.17 13.4699Z" stroke="#292D32" stroke-width="1.5" stroke-linecap="round" stroke-linejoin="round"/>
<path opacity="0.4" d="M8.90992 8.98C9.8709 8.98 10.6499 8.20098 10.6499 7.24C10.6499 6.27902 9.8709 5.5 8.90992 5.5C7.94895 5.5 7.16992 6.27902 7.16992 7.24C7.16992 8.20098 7.94895 8.98 8.90992 8.98Z" stroke="#292D32" stroke-width="1.5" stroke-linecap="round" stroke-linejoin="round"/>
</svg>
