<svg width="25" height="24" viewBox="0 0 25 24" fill="none" xmlns="http://www.w3.org/2000/svg">
<path d="M7.04014 9.50993C2.96014 9.79993 2.97014 15.7099 7.04014 15.9999H16.7001C17.8701 16.0099 19.0002 15.5699 19.8702 14.7799C22.7302 12.2799 21.2002 7.27991 17.4302 6.79991C16.0802 -1.34009 4.29015 1.74993 7.08015 9.50993" stroke="#292D32" stroke-width="1.5" stroke-miterlimit="10" stroke-linecap="round" stroke-linejoin="round"/>
<path opacity="0.4" d="M12.6699 16V19" stroke="#292D32" stroke-width="1.5" stroke-miterlimit="10" stroke-linecap="round" stroke-linejoin="round"/>
<path d="M12.6699 23C13.7745 23 14.6699 22.1046 14.6699 21C14.6699 19.8954 13.7745 19 12.6699 19C11.5654 19 10.6699 19.8954 10.6699 21C10.6699 22.1046 11.5654 23 12.6699 23Z" stroke="#292D32" stroke-width="1.5" stroke-miterlimit="10" stroke-linecap="round" stroke-linejoin="round"/>
<path opacity="0.4" d="M18.6699 21H14.6699" stroke="#292D32" stroke-width="1.5" stroke-miterlimit="10" stroke-linecap="round" stroke-linejoin="round"/>
<path opacity="0.4" d="M10.6699 21H6.66992" stroke="#292D32" stroke-width="1.5" stroke-miterlimit="10" stroke-linecap="round" stroke-linejoin="round"/>
</svg>
