<svg width="25" height="24" viewBox="0 0 25 24" fill="none" xmlns="http://www.w3.org/2000/svg">
<path d="M13.6398 17.61L11.5298 15.5" stroke="#292D32" stroke-width="1.5" stroke-miterlimit="10" stroke-linecap="round" stroke-linejoin="round"/>
<path d="M13.62 15.52L11.5 17.64" stroke="#292D32" stroke-width="1.5" stroke-miterlimit="10" stroke-linecap="round" stroke-linejoin="round"/>
<g opacity="0.4">
<path d="M6.20971 11.1199C1.52971 11.4499 1.52971 18.2599 6.20971 18.5899H8.12971" stroke="#292D32" stroke-width="1.5" stroke-miterlimit="10" stroke-linecap="round" stroke-linejoin="round"/>
<path d="M6.25995 11.1199C3.04995 2.1899 16.5899 -1.3801 18.1399 7.9999C22.4699 8.5499 24.2199 14.3199 20.9399 17.1899C19.9399 18.0999 18.6499 18.5999 17.2999 18.5899H17.21" stroke="#292D32" stroke-width="1.5" stroke-miterlimit="10" stroke-linecap="round" stroke-linejoin="round"/>
</g>
<path d="M17.6699 16.53C17.6699 17.27 17.5099 17.97 17.2099 18.59C17.1299 18.77 17.0399 18.94 16.9399 19.1C16.0799 20.55 14.4899 21.53 12.6699 21.53C10.8499 21.53 9.25992 20.55 8.39992 19.1C8.29992 18.94 8.20992 18.77 8.12992 18.59C7.82992 17.97 7.66992 17.27 7.66992 16.53C7.66992 13.77 9.90992 11.53 12.6699 11.53C15.4299 11.53 17.6699 13.77 17.6699 16.53Z" stroke="#292D32" stroke-width="1.5" stroke-miterlimit="10" stroke-linecap="round" stroke-linejoin="round"/>
</svg>
