<svg width="25" height="24" viewBox="0 0 25 24" fill="none" xmlns="http://www.w3.org/2000/svg">
<path d="M22.5704 13.96C22.8404 15.63 22.3704 17.42 20.9404 18.68C19.9504 19.59 18.6504 20.09 17.3004 20.08H6.21035C1.54035 19.74 1.53035 12.94 6.21035 12.6H6.26035C4.07035 6.46998 9.76035 2.86998 14.0504 4.24998" stroke="#292D32" stroke-width="1.5" stroke-miterlimit="10" stroke-linecap="round" stroke-linejoin="round"/>
<path d="M7.92977 13.0101C7.40977 12.7501 6.83977 12.6101 6.25977 12.6001" stroke="#292D32" stroke-width="1.5" stroke-miterlimit="10" stroke-linecap="round" stroke-linejoin="round"/>
<path opacity="0.4" d="M22.6396 8.5C22.6396 9.6 22.1296 10.59 21.3196 11.23C20.7296 11.71 19.9596 12 19.1396 12C17.2096 12 15.6396 10.43 15.6396 8.5C15.6396 7.54 16.0296 6.67 16.6696 6.04V6.03C17.2996 5.39 18.1796 5 19.1396 5C21.0696 5 22.6396 6.57 22.6396 8.5Z" stroke="#292D32" stroke-width="1.5" stroke-miterlimit="10" stroke-linecap="round" stroke-linejoin="round"/>
</svg>
