<svg width="25" height="24" viewBox="0 0 25 24" fill="none" xmlns="http://www.w3.org/2000/svg">
<path d="M17.2797 19.9999C18.6197 20.0099 19.9097 19.5099 20.8997 18.6099C24.1697 15.7499 22.4197 10.0099 18.1097 9.46995C16.5697 0.129949 3.09965 3.66995 6.28965 12.5599" stroke="#292D32" stroke-width="1.5" stroke-miterlimit="10" stroke-linecap="round" stroke-linejoin="round"/>
<path d="M7.95027 12.9701C7.42027 12.7001 6.83027 12.5601 6.24027 12.5701C1.58027 12.9001 1.59027 19.6801 6.24027 20.0101" stroke="#292D32" stroke-width="1.5" stroke-miterlimit="10" stroke-linecap="round" stroke-linejoin="round"/>
<path d="M16.4902 9.88998C17.0102 9.62998 17.5702 9.48998 18.1502 9.47998" stroke="#292D32" stroke-width="1.5" stroke-miterlimit="10" stroke-linecap="round" stroke-linejoin="round"/>
<path opacity="0.4" d="M9.9 19.1601H10.9V21.4901C10.9 21.8301 11.33 22.0001 11.55 21.7401L14 18.9501C14.3 18.6101 14.17 18.3301 13.72 18.3301H12.72V16.0001C12.72 15.6601 12.29 15.4901 12.07 15.7501L9.62 18.5401C9.32 18.8801 9.45 19.1601 9.9 19.1601Z" stroke="#292D32" stroke-width="1.5" stroke-miterlimit="10" stroke-linecap="round" stroke-linejoin="round"/>
</svg>
