<svg width="25" height="24" viewBox="0 0 25 24" fill="none" xmlns="http://www.w3.org/2000/svg">
<path d="M11.6699 16.15V18.85C11.6699 21.1 10.7699 22 8.51992 22H5.81992C3.56992 22 2.66992 21.1 2.66992 18.85V16.15C2.66992 13.9 3.56992 13 5.81992 13H8.51992C10.7699 13 11.6699 13.9 11.6699 16.15Z" stroke="#292D32" stroke-width="1.5" stroke-linecap="round" stroke-linejoin="round"/>
<path opacity="0.4" d="M22.6699 15C22.6699 18.87 19.5399 22 15.6699 22L16.7199 20.25" stroke="#292D32" stroke-width="1.5" stroke-linecap="round" stroke-linejoin="round"/>
<path opacity="0.4" d="M2.66992 9C2.66992 5.13 5.79992 2 9.66992 2L8.61992 3.75" stroke="#292D32" stroke-width="1.5" stroke-linecap="round" stroke-linejoin="round"/>
<path d="M18.1699 11C20.6552 11 22.6699 8.98528 22.6699 6.5C22.6699 4.01472 20.6552 2 18.1699 2C15.6846 2 13.6699 4.01472 13.6699 6.5C13.6699 8.98528 15.6846 11 18.1699 11Z" stroke="#292D32" stroke-width="1.5" stroke-linecap="round" stroke-linejoin="round"/>
</svg>
