<svg width="25" height="24" viewBox="0 0 25 24" fill="none" xmlns="http://www.w3.org/2000/svg">
<path d="M12.6699 5.56006H22.6699" stroke="#292D32" stroke-width="1.5" stroke-miterlimit="10" stroke-linecap="round" stroke-linejoin="round"/>
<path d="M14.8899 2H20.4499C22.2299 2 22.6699 2.44 22.6699 4.2V8.31C22.6699 10.07 22.2299 10.51 20.4499 10.51H14.8899C13.1099 10.51 12.6699 10.07 12.6699 8.31V4.2C12.6699 2.44 13.1099 2 14.8899 2Z" stroke="#292D32" stroke-width="1.5" stroke-linecap="round" stroke-linejoin="round"/>
<path d="M2.66992 17.0601H12.6699" stroke="#292D32" stroke-width="1.5" stroke-miterlimit="10" stroke-linecap="round" stroke-linejoin="round"/>
<path d="M4.88992 13.5H10.4499C12.2299 13.5 12.6699 13.94 12.6699 15.7V19.81C12.6699 21.57 12.2299 22.01 10.4499 22.01H4.88992C3.10992 22.01 2.66992 21.57 2.66992 19.81V15.7C2.66992 13.94 3.10992 13.5 4.88992 13.5Z" stroke="#292D32" stroke-width="1.5" stroke-linecap="round" stroke-linejoin="round"/>
<path opacity="0.4" d="M22.6699 15C22.6699 18.87 19.5399 22 15.6699 22L16.7199 20.25" stroke="#292D32" stroke-width="1.5" stroke-linecap="round" stroke-linejoin="round"/>
<path opacity="0.4" d="M2.66992 9C2.66992 5.13 5.79992 2 9.66992 2L8.61993 3.75" stroke="#292D32" stroke-width="1.5" stroke-linecap="round" stroke-linejoin="round"/>
</svg>
