<svg width="25" height="24" viewBox="0 0 25 24" fill="none" xmlns="http://www.w3.org/2000/svg">
<path d="M20.6699 9.6C20.6699 5.6 19.0699 4 15.0699 4H10.2699C6.26992 4 4.66992 5.6 4.66992 9.6V14.4C4.66992 18.4 6.26992 20 10.2699 20" stroke="#292D32" stroke-width="1.5" stroke-linecap="round" stroke-linejoin="round"/>
<path d="M17.0199 8C16.4699 7.3 15.5499 7 14.1699 7H11.1699C8.66992 7 7.66992 8 7.66992 10.5V13.5C7.66992 14.88 7.96992 15.8 8.65992 16.35" stroke="#292D32" stroke-width="1.5" stroke-linecap="round" stroke-linejoin="round"/>
<path opacity="0.4" d="M8.67969 4V2" stroke="#292D32" stroke-width="1.5" stroke-linecap="round" stroke-linejoin="round"/>
<path opacity="0.4" d="M12.6699 4V2" stroke="#292D32" stroke-width="1.5" stroke-linecap="round" stroke-linejoin="round"/>
<path opacity="0.4" d="M16.6699 4V2" stroke="#292D32" stroke-width="1.5" stroke-linecap="round" stroke-linejoin="round"/>
<path opacity="0.4" d="M20.6699 8H22.6699" stroke="#292D32" stroke-width="1.5" stroke-linecap="round" stroke-linejoin="round"/>
<path opacity="0.4" d="M8.67969 20V22" stroke="#292D32" stroke-width="1.5" stroke-linecap="round" stroke-linejoin="round"/>
<path opacity="0.4" d="M2.66992 8H4.66992" stroke="#292D32" stroke-width="1.5" stroke-linecap="round" stroke-linejoin="round"/>
<path opacity="0.4" d="M2.66992 12H4.66992" stroke="#292D32" stroke-width="1.5" stroke-linecap="round" stroke-linejoin="round"/>
<path opacity="0.4" d="M2.66992 16H4.66992" stroke="#292D32" stroke-width="1.5" stroke-linecap="round" stroke-linejoin="round"/>
<path opacity="0.4" d="M17.38 18.5899C18.2582 18.5899 18.97 17.878 18.97 16.9999C18.97 16.1218 18.2582 15.4099 17.38 15.4099C16.5019 15.4099 15.79 16.1218 15.79 16.9999C15.79 17.878 16.5019 18.5899 17.38 18.5899Z" stroke="#292D32" stroke-width="1.5" stroke-miterlimit="10" stroke-linecap="round" stroke-linejoin="round"/>
<path d="M12.0801 17.46V16.53C12.0801 15.98 12.5301 15.53 13.0801 15.53C14.0401 15.53 14.4301 14.85 13.9501 14.02C13.6701 13.54 13.8401 12.92 14.3201 12.65L15.2301 12.12C15.6501 11.87 16.1901 12.02 16.4401 12.44L16.5001 12.54C16.9801 13.37 17.7601 13.37 18.2401 12.54L18.3001 12.44C18.5501 12.02 19.0901 11.88 19.5101 12.12L20.4201 12.65C20.9001 12.93 21.0701 13.54 20.7901 14.02C20.3101 14.85 20.7001 15.53 21.6601 15.53C22.2101 15.53 22.6601 15.98 22.6601 16.53V17.46C22.6601 18.01 22.2101 18.46 21.6601 18.46C20.7001 18.46 20.3101 19.14 20.7901 19.97C21.0701 20.45 20.9001 21.07 20.4201 21.34L19.5101 21.87C19.0901 22.12 18.5501 21.97 18.3001 21.55L18.2401 21.45C17.7601 20.62 16.9801 20.62 16.5001 21.45L16.4401 21.55C16.1901 21.97 15.6501 22.11 15.2301 21.87L14.3201 21.34C13.8401 21.06 13.6701 20.45 13.9501 19.97C14.4301 19.14 14.0401 18.46 13.0801 18.46C12.5301 18.47 12.0801 18.02 12.0801 17.46Z" stroke="#292D32" stroke-width="1.5" stroke-miterlimit="10" stroke-linecap="round" stroke-linejoin="round"/>
</svg>
