<svg width="25" height="24" viewBox="0 0 25 24" fill="none" xmlns="http://www.w3.org/2000/svg">
<path opacity="0.34" d="M12.8203 16.5V18.6" stroke="#292D32" stroke-width="1.5" stroke-linecap="round" stroke-linejoin="round"/>
<path d="M7.82031 22H17.8203V21C17.8203 19.9 16.9203 19 15.8203 19H9.82031C8.72031 19 7.82031 19.9 7.82031 21V22V22Z" stroke="#292D32" stroke-width="1.5" stroke-miterlimit="10"/>
<path d="M6.82031 22H18.8203" stroke="#292D32" stroke-width="1.5" stroke-linecap="round" stroke-linejoin="round"/>
<path d="M12.6699 16C8.79992 16 5.66992 12.87 5.66992 9V6C5.66992 3.79 7.45992 2 9.66992 2H15.6699C17.8799 2 19.6699 3.79 19.6699 6V9C19.6699 12.87 16.5399 16 12.6699 16Z" stroke="#292D32" stroke-width="1.5" stroke-linecap="round" stroke-linejoin="round"/>
<path opacity="0.34" d="M6.13996 11.65C5.38996 11.41 4.72996 10.97 4.20996 10.45C3.30996 9.45001 2.70996 8.25001 2.70996 6.85001C2.70996 5.45001 3.80996 4.35001 5.20996 4.35001H5.85996C5.65996 4.81001 5.55996 5.32001 5.55996 5.85001V8.85001C5.55996 9.85001 5.76996 10.79 6.13996 11.65Z" stroke="#292D32" stroke-width="1.5" stroke-linecap="round" stroke-linejoin="round"/>
<path opacity="0.34" d="M19.2002 11.65C19.9502 11.41 20.6102 10.97 21.1302 10.45C22.0302 9.45001 22.6302 8.25001 22.6302 6.85001C22.6302 5.45001 21.5302 4.35001 20.1302 4.35001H19.4802C19.6802 4.81001 19.7802 5.32001 19.7802 5.85001V8.85001C19.7802 9.85001 19.5702 10.79 19.2002 11.65Z" stroke="#292D32" stroke-width="1.5" stroke-linecap="round" stroke-linejoin="round"/>
</svg>
