<svg width="25" height="24" viewBox="0 0 25 24" fill="none" xmlns="http://www.w3.org/2000/svg">
<path d="M6.31992 7.64999L2.66992 4H7.66992L13.6699 10H9.16992C7.23992 10 5.66992 11.57 5.66992 13.5C5.66992 15.43 7.23992 17 9.16992 17H10.6699L13.6699 20H9.16992C5.57992 20 2.66992 17.09 2.66992 13.5C2.66992 11.01 4.06992 8.84 6.13992 7.75L6.31992 7.64999Z" stroke="black" stroke-width="1.5" stroke-miterlimit="10" stroke-linecap="round" stroke-linejoin="round"/>
<path opacity="0.4" d="M19.0199 16.35L22.6699 20H17.6699L11.6699 14H16.1699C18.0999 14 19.6699 12.43 19.6699 10.5C19.6699 8.57 18.0999 7 16.1699 7H14.6699L11.6699 4H16.1699C19.7599 4 22.6699 6.91 22.6699 10.5C22.6699 12.99 21.2699 15.16 19.1999 16.25L19.0199 16.35Z" stroke="black" stroke-width="1.5" stroke-miterlimit="10" stroke-linecap="round" stroke-linejoin="round"/>
</svg>
