<svg width="25" height="24" viewBox="0 0 25 24" fill="none" xmlns="http://www.w3.org/2000/svg">
<path d="M22.6699 5.25V9.15002C22.6699 10.64 21.9099 11.76 20.6699 12.2C20.2899 12.33 19.8699 12.4 19.4199 12.4H16.8199L13.9299 14.33C13.4999 14.61 12.9199 14.3 12.9199 13.79V12.4C11.9499 12.4 11.1299 12.08 10.5599 11.51C9.98992 10.94 9.66992 10.12 9.66992 9.15002V5.25C9.66992 4.8 9.73992 4.38 9.86992 4C10.3099 2.76 11.4299 2 12.9199 2H19.4199C21.3699 2 22.6699 3.3 22.6699 5.25Z" stroke="#292D32" stroke-width="1.5" stroke-miterlimit="10" stroke-linecap="round" stroke-linejoin="round"/>
<g opacity="0.4">
<path d="M20.6699 12.2V13.9C20.6699 17.05 18.8699 18.4 16.1699 18.4H7.16992C4.46992 18.4 2.66992 17.05 2.66992 13.9V8.5C2.66992 5.35 4.46992 4 7.16992 4H9.86992C9.73992 4.38 9.66992 4.8 9.66992 5.25V9.15002C9.66992 10.12 9.98992 10.94 10.5599 11.51C11.1299 12.08 11.9499 12.4 12.9199 12.4V13.79C12.9199 14.3 13.4999 14.61 13.9299 14.33L16.8199 12.4H19.4199C19.8699 12.4 20.2899 12.33 20.6699 12.2Z" stroke="#292D32" stroke-width="1.5" stroke-miterlimit="10" stroke-linecap="round" stroke-linejoin="round"/>
<path d="M8.07031 22H15.2703" stroke="#292D32" stroke-width="1.5" stroke-miterlimit="10" stroke-linecap="round" stroke-linejoin="round"/>
<path d="M11.6699 18.3999V21.9999" stroke="#292D32" stroke-width="1.5" stroke-miterlimit="10" stroke-linecap="round" stroke-linejoin="round"/>
</g>
<path d="M19.1654 7.25H19.1744" stroke="#292D32" stroke-width="1.5" stroke-linecap="round" stroke-linejoin="round"/>
<path d="M16.3656 7.25H16.3746" stroke="#292D32" stroke-width="1.5" stroke-linecap="round" stroke-linejoin="round"/>
<path d="M13.5658 7.25H13.5748" stroke="#292D32" stroke-width="1.5" stroke-linecap="round" stroke-linejoin="round"/>
</svg>
