<svg width="25" height="24" viewBox="0 0 25 24" fill="none" xmlns="http://www.w3.org/2000/svg">
<g opacity="0.4">
<path d="M12.6699 2V8L14.6699 6" stroke="#292D32" stroke-width="1.5" stroke-linecap="round" stroke-linejoin="round"/>
<path d="M12.6699 8L10.6699 6" stroke="#292D32" stroke-width="1.5" stroke-linecap="round" stroke-linejoin="round"/>
</g>
<path d="M7.66992 12C3.66992 12 3.66992 13.79 3.66992 16V17C3.66992 19.76 3.66992 22 8.66992 22H16.6699C20.6699 22 21.6699 19.76 21.6699 17V16C21.6699 13.79 21.6699 12 17.6699 12C16.6699 12 16.3899 12.21 15.8699 12.6L14.8499 13.68C13.6699 14.94 11.6699 14.94 10.4799 13.68L9.46992 12.6C8.94992 12.21 8.66992 12 7.66992 12Z" stroke="#292D32" stroke-width="1.5" stroke-miterlimit="10" stroke-linecap="round" stroke-linejoin="round"/>
<path opacity="0.4" d="M5.66992 12V8.00004C5.66992 5.99004 5.66992 4.33004 8.66992 4.04004" stroke="#292D32" stroke-width="1.5" stroke-miterlimit="10" stroke-linecap="round" stroke-linejoin="round"/>
<path opacity="0.4" d="M19.6699 12V8.00004C19.6699 5.99004 19.6699 4.33004 16.6699 4.04004" stroke="#292D32" stroke-width="1.5" stroke-miterlimit="10" stroke-linecap="round" stroke-linejoin="round"/>
</svg>
