<svg width="25" height="24" viewBox="0 0 25 24" fill="none" xmlns="http://www.w3.org/2000/svg">
<path d="M4.65979 14.6601L3.1398 13.14C2.5198 12.52 2.5198 11.5 3.1398 10.88L4.65979 9.36002C4.91979 9.10002 5.12979 8.59001 5.12979 8.23001V6.07999C5.12979 5.19999 5.8498 4.48001 6.7298 4.48001H8.8798C9.2398 4.48001 9.7498 4.27004 10.0098 4.01004L11.5298 2.49002C12.1498 1.87002 13.1698 1.87002 13.7898 2.49002L15.3098 4.01004C15.5698 4.27004 16.0798 4.48001 16.4398 4.48001H18.5898C19.4698 4.48001 20.1898 5.19999 20.1898 6.07999V8.23001C20.1898 8.59001 20.3998 9.10002 20.6598 9.36002L22.1798 10.88C22.7998 11.5 22.7998 12.52 22.1798 13.14L20.6598 14.6601C20.3998 14.9201 20.1898 15.4301 20.1898 15.7901V17.94C20.1898 18.82 19.4698 19.5401 18.5898 19.5401H16.4398C16.0798 19.5401 15.5698 19.75 15.3098 20.01L13.7898 21.5301C13.1698 22.1501 12.1498 22.1501 11.5298 21.5301L10.0098 20.01C9.7498 19.75 9.2398 19.5401 8.8798 19.5401H6.7298C5.8498 19.5401 5.12979 18.82 5.12979 17.94V15.7901C5.12979 15.4201 4.91979 14.9101 4.65979 14.6601Z" stroke="#292D32" stroke-width="1.5" stroke-linecap="round" stroke-linejoin="round"/>
<path opacity="0.4" d="M9.66992 15L15.6699 9" stroke="#292D32" stroke-width="1.5" stroke-linecap="round" stroke-linejoin="round"/>
<path opacity="0.4" d="M15.1644 14.5H15.1734" stroke="#292D32" stroke-width="2" stroke-linecap="round" stroke-linejoin="round"/>
<path opacity="0.4" d="M10.1644 9.5H10.1734" stroke="#292D32" stroke-width="2" stroke-linecap="round" stroke-linejoin="round"/>
</svg>
