<svg width="25" height="24" viewBox="0 0 25 24" fill="none" xmlns="http://www.w3.org/2000/svg">
<path opacity="0.4" d="M4.01977 2H12.9198C13.6598 2 14.2698 2.61001 14.2698 3.35001V4.82999C14.2698 5.36999 13.9298 6.04 13.5998 6.38L10.6998 8.94C10.2998 9.28 10.0298 9.94999 10.0298 10.49V13.39C10.0298 13.79 9.7598 14.33 9.4198 14.54L8.4798 15.15C7.5998 15.69 6.38977 15.08 6.38977 14V10.43C6.38977 9.95999 6.11979 9.35001 5.84979 9.01001L3.28979 6.31C2.94979 5.97 2.67981 5.36999 2.67981 4.95999V3.41C2.66981 2.61 3.27977 2 4.01977 2Z" stroke="#292D32" stroke-width="1.5" stroke-miterlimit="10" stroke-linecap="round" stroke-linejoin="round"/>
<path d="M2.66992 12V15C2.66992 20 4.66992 22 9.66992 22H15.6699C20.6699 22 22.6699 20 22.6699 15V9C22.6699 5.88 21.8899 3.91999 20.0799 2.89999C19.5699 2.60999 18.5499 2.38999 17.6199 2.23999" stroke="#292D32" stroke-width="1.5" stroke-linecap="round" stroke-linejoin="round"/>
<path opacity="0.4" d="M13.6699 13H18.6699" stroke="#292D32" stroke-width="1.5" stroke-linecap="round" stroke-linejoin="round"/>
<path opacity="0.4" d="M11.6699 17H18.6699" stroke="#292D32" stroke-width="1.5" stroke-linecap="round" stroke-linejoin="round"/>
</svg>
