<svg width="25" height="24" viewBox="0 0 25 24" fill="none" xmlns="http://www.w3.org/2000/svg">
<path d="M22.6699 10V15C22.6699 20 20.6699 22 15.6699 22H9.66992C4.66992 22 2.66992 20 2.66992 15V9C2.66992 4 4.66992 2 9.66992 2H14.6699" stroke="#292D32" stroke-width="1.5" stroke-linecap="round" stroke-linejoin="round"/>
<path d="M22.6699 10H18.6699C15.6699 10 14.6699 9 14.6699 6V2L22.6699 10Z" stroke="#292D32" stroke-width="1.5" stroke-linecap="round" stroke-linejoin="round"/>
<path opacity="0.4" fill-rule="evenodd" clip-rule="evenodd" d="M8.99016 12H11.6402C11.9102 12 12.2502 12.18 12.3902 12.4L13.5202 14.1C13.7502 14.44 13.7002 14.95 13.4102 15.24L10.9502 17.7C10.6002 18.05 10.0202 18.05 9.67016 17.7L7.21016 15.24C6.92016 14.95 6.87016 14.44 7.10016 14.1L8.23016 12.4C8.39016 12.18 8.73016 12 8.99016 12Z" stroke="#292D32" stroke-width="1.5" stroke-miterlimit="10" stroke-linecap="round" stroke-linejoin="round"/>
</svg>
