<svg width="25" height="24" viewBox="0 0 25 24" fill="none" xmlns="http://www.w3.org/2000/svg">
<path opacity="0.4" d="M17.6699 13.4V16.4C17.6699 20.4 16.0699 22 12.0699 22H8.26992C4.26992 22 2.66992 20.4 2.66992 16.4V12.6C2.66992 8.6 4.26992 7 8.26992 7H11.2699" stroke="#292D32" stroke-width="1.5" stroke-linecap="round" stroke-linejoin="round"/>
<path d="M17.67 13.4H14.47C12.07 13.4 11.27 12.6 11.27 10.2V7L17.67 13.4Z" stroke="#292D32" stroke-width="1.5" stroke-linecap="round" stroke-linejoin="round"/>
<path opacity="0.4" d="M7.66992 5C7.66992 3.34 9.00992 2 10.6699 2H16.6699" stroke="#292D32" stroke-width="1.5" stroke-linecap="round" stroke-linejoin="round"/>
<path opacity="0.4" d="M22.6699 8V14.19C22.6699 15.74 21.4099 17 19.8599 17" stroke="#292D32" stroke-width="1.5" stroke-linecap="round" stroke-linejoin="round"/>
<path d="M22.6699 8H19.6699C17.4199 8 16.6699 7.25 16.6699 5V2L22.6699 8Z" stroke="#292D32" stroke-width="1.5" stroke-linecap="round" stroke-linejoin="round"/>
</svg>
