<svg width="25" height="24" viewBox="0 0 25 24" fill="none" xmlns="http://www.w3.org/2000/svg">
<g opacity="0.4">
<path d="M9.3418 14.3298C9.3418 15.6198 10.3318 16.6598 11.5618 16.6598H14.0718C15.1418 16.6598 16.0118 15.7498 16.0118 14.6298C16.0118 13.4098 15.4818 12.9798 14.6918 12.6998L10.6618 11.2998C9.8718 11.0198 9.3418 10.5898 9.3418 9.36984C9.3418 8.24984 10.2118 7.33984 11.2818 7.33984H13.7918C15.0218 7.33984 16.0118 8.37984 16.0118 9.66984" stroke="#292D32" stroke-width="1.5" stroke-linecap="round" stroke-linejoin="round"/>
<path d="M12.6699 6V18" stroke="#292D32" stroke-width="1.5" stroke-linecap="round" stroke-linejoin="round"/>
</g>
<path d="M15.6699 22H9.66992C4.66992 22 2.66992 20 2.66992 15V9C2.66992 4 4.66992 2 9.66992 2H15.6699C20.6699 2 22.6699 4 22.6699 9V15C22.6699 20 20.6699 22 15.6699 22Z" stroke="#292D32" stroke-width="1.5" stroke-linecap="round" stroke-linejoin="round"/>
</svg>
