<svg width="25" height="24" viewBox="0 0 25 24" fill="none" xmlns="http://www.w3.org/2000/svg">
<path d="M9.18985 5.14999L11.8598 7.82001C12.3098 8.27001 13.0298 8.27001 13.4798 7.82001L16.1498 5.14999C16.8698 4.42999 16.3598 3.2 15.3398 3.2H9.98984C8.97984 3.19 8.46985 4.42999 9.18985 5.14999Z" stroke="black" stroke-width="1.5" stroke-miterlimit="10" stroke-linecap="round" stroke-linejoin="round"/>
<path d="M9.18985 18.85L11.8598 16.18C12.3098 15.73 13.0298 15.73 13.4798 16.18L16.1498 18.85C16.8698 19.57 16.3598 20.8 15.3398 20.8H9.98984C8.97984 20.81 8.46985 19.57 9.18985 18.85Z" stroke="black" stroke-width="1.5" stroke-miterlimit="10" stroke-linecap="round" stroke-linejoin="round"/>
<path opacity="0.4" d="M2.82986 11.45L5.03989 7.97001C5.38989 7.42001 6.1599 7.34001 6.6199 7.80001L10.0999 11.28C10.4999 11.68 10.4999 12.32 10.0999 12.72L6.6199 16.2C6.1599 16.66 5.38989 16.58 5.03989 16.03L2.82986 12.55C2.61986 12.21 2.61986 11.79 2.82986 11.45Z" stroke="black" stroke-width="1.5" stroke-miterlimit="10" stroke-linecap="round" stroke-linejoin="round"/>
<path opacity="0.4" d="M22.51 11.45L20.2999 7.97001C19.9499 7.42001 19.1799 7.34001 18.7199 7.80001L15.2399 11.28C14.8399 11.68 14.8399 12.32 15.2399 12.72L18.7199 16.2C19.1799 16.66 19.9499 16.58 20.2999 16.03L22.51 12.55C22.72 12.21 22.72 11.79 22.51 11.45Z" stroke="black" stroke-width="1.5" stroke-miterlimit="10" stroke-linecap="round" stroke-linejoin="round"/>
</svg>
