<svg width="25" height="24" viewBox="0 0 25 24" fill="none" xmlns="http://www.w3.org/2000/svg">
<path d="M3.17969 13.24V11.51C3.17969 9.44001 4.86968 7.75 6.93968 7.75H18.4197C20.4897 7.75 22.1797 9.44001 22.1797 11.51V12.95H20.1597C19.5997 12.95 19.0897 13.17 18.7197 13.55C18.2997 13.96 18.0597 14.55 18.1197 15.18C18.2097 16.26 19.1997 17.05 20.2797 17.05H22.1797V18.24C22.1797 20.31 20.4897 22 18.4197 22H12.9397" stroke="#292D32" stroke-width="1.5" stroke-linecap="round" stroke-linejoin="round"/>
<path opacity="0.4" d="M3.17969 12.4101V7.8401C3.17969 6.6501 3.90968 5.59006 5.01968 5.17006L12.9597 2.17006C14.1997 1.70006 15.5297 2.62009 15.5297 3.95009V7.75008" stroke="#292D32" stroke-width="1.5" stroke-linecap="round" stroke-linejoin="round"/>
<path d="M23.2395 13.9699V16.03C23.2395 16.58 22.7995 17.0299 22.2395 17.0499H20.2795C19.1995 17.0499 18.2095 16.2599 18.1195 15.1799C18.0595 14.5499 18.2995 13.9599 18.7195 13.5499C19.0895 13.1699 19.5995 12.95 20.1595 12.95H22.2395C22.7995 12.97 23.2395 13.4199 23.2395 13.9699Z" stroke="#292D32" stroke-width="1.5" stroke-linecap="round" stroke-linejoin="round"/>
<path opacity="0.4" d="M7.67969 12H14.6797" stroke="#292D32" stroke-width="1.5" stroke-linecap="round" stroke-linejoin="round"/>
<path d="M3.67969 16.5H9.01968C9.65968 16.5 10.1797 17.02 10.1797 17.66V18.94" stroke="#292D32" stroke-width="1.5" stroke-miterlimit="10" stroke-linecap="round" stroke-linejoin="round"/>
<path d="M4.89969 15.28L3.67969 16.5L4.89969 17.72" stroke="#292D32" stroke-width="1.5" stroke-miterlimit="10" stroke-linecap="round" stroke-linejoin="round"/>
<path d="M10.1797 21.7801H4.83969C4.19969 21.7801 3.67969 21.2601 3.67969 20.6201V19.3401" stroke="#292D32" stroke-width="1.5" stroke-miterlimit="10" stroke-linecap="round" stroke-linejoin="round"/>
<path d="M8.95996 23.0001L10.18 21.7801L8.95996 20.5601" stroke="#292D32" stroke-width="1.5" stroke-miterlimit="10" stroke-linecap="round" stroke-linejoin="round"/>
</svg>
