<svg width="25" height="24" viewBox="0 0 25 24" fill="none" xmlns="http://www.w3.org/2000/svg">
<path d="M18.7099 13.55C18.2899 13.96 18.0499 14.55 18.1099 15.18C18.1999 16.26 19.1899 17.05 20.2699 17.05H22.1699V18.24C22.1699 20.31 20.4799 22 18.4099 22H6.92992C4.85992 22 3.16992 20.31 3.16992 18.24V11.51C3.16992 9.44001 4.85992 7.75 6.92992 7.75H18.4099C20.4799 7.75 22.1699 9.44001 22.1699 11.51V12.95H20.1499C19.5899 12.95 19.0799 13.17 18.7099 13.55Z" stroke="#292D32" stroke-width="1.5" stroke-linecap="round" stroke-linejoin="round"/>
<path opacity="0.4" d="M3.16992 12.4101V7.8401C3.16992 6.6501 3.89992 5.59006 5.00992 5.17006L12.9499 2.17006C14.1899 1.70006 15.5199 2.62009 15.5199 3.95009V7.75008" stroke="#292D32" stroke-width="1.5" stroke-linecap="round" stroke-linejoin="round"/>
<path d="M23.2297 13.9699V16.03C23.2297 16.58 22.7897 17.0299 22.2297 17.0499H20.2697C19.1897 17.0499 18.1997 16.2599 18.1097 15.1799C18.0497 14.5499 18.2897 13.9599 18.7097 13.5499C19.0797 13.1699 19.5897 12.95 20.1497 12.95H22.2297C22.7897 12.97 23.2297 13.4199 23.2297 13.9699Z" stroke="#292D32" stroke-width="1.5" stroke-linecap="round" stroke-linejoin="round"/>
<path opacity="0.4" d="M7.66992 12H14.6699" stroke="#292D32" stroke-width="1.5" stroke-linecap="round" stroke-linejoin="round"/>
</svg>
