<svg width="25" height="24" viewBox="0 0 25 24" fill="none" xmlns="http://www.w3.org/2000/svg">
<path d="M11.5199 3.38L7.91989 7.7C7.78989 7.86 7.63988 8.16 7.59988 8.37L5.88989 16.94C5.76989 17.52 6.0999 18.24 6.6199 18.54L11.9399 21.58C12.3499 21.81 13.0199 21.81 13.4299 21.58L18.7499 18.54C19.2699 18.24 19.5899 17.53 19.4799 16.94L17.7699 8.37C17.7299 8.16 17.5899 7.86 17.4499 7.7L13.8499 3.38C13.1899 2.62 12.1499 2.62 11.5199 3.38Z" stroke="black" stroke-width="1.5" stroke-miterlimit="10" stroke-linecap="round" stroke-linejoin="round"/>
<path opacity="0.4" d="M17.4801 8.52L13.1401 20.68C12.9801 21.12 12.3601 21.12 12.2001 20.68L7.8501 8.5" stroke="black" stroke-width="1.5" stroke-miterlimit="10" stroke-linecap="round" stroke-linejoin="round"/>
</svg>
