<svg width="25" height="24" viewBox="0 0 25 24" fill="none" xmlns="http://www.w3.org/2000/svg">
<path d="M9.67188 22H15.6719C20.6719 22 22.6719 20 22.6719 15V9C22.6719 4 20.6719 2 15.6719 2H9.67188C4.67188 2 2.67188 4 2.67188 9V15C2.67188 20 4.67188 22 9.67188 22Z" stroke="#292D32" stroke-width="1.5" stroke-linecap="round" stroke-linejoin="round"/>
<g opacity="0.4">
<path d="M7.66133 15.08L9.60132 17.02C10.2413 17.66 11.3013 17.66 11.9413 17.02L17.6913 11.27C18.3313 10.63 18.3313 9.57 17.6913 8.93L15.7513 6.99001C15.1113 6.35001 14.0513 6.35001 13.4113 6.99001L7.66133 12.74C7.01133 13.38 7.01133 14.43 7.66133 15.08Z" stroke="#292D32" stroke-width="1.5" stroke-linecap="round" stroke-linejoin="round"/>
<path d="M9.98145 10.4199L14.2514 14.6899" stroke="#292D32" stroke-width="1.5" stroke-linecap="round" stroke-linejoin="round"/>
</g>
</svg>
