<svg width="25" height="24" viewBox="0 0 25 24" fill="none" xmlns="http://www.w3.org/2000/svg">
<path d="M15.1998 9.46992L10.1398 14.5299C9.48984 13.8799 9.08984 12.9899 9.08984 11.9999C9.08984 10.0199 10.6898 8.41992 12.6698 8.41992C13.6598 8.41992 14.5498 8.81992 15.1998 9.46992Z" stroke="#292D32" stroke-width="1.5" stroke-linecap="round" stroke-linejoin="round"/>
<path d="M18.4898 5.76998C16.7398 4.44998 14.7398 3.72998 12.6698 3.72998C9.13977 3.72998 5.84977 5.80998 3.55977 9.40998C2.65977 10.82 2.65977 13.19 3.55977 14.6C4.34977 15.84 5.26977 16.91 6.26977 17.77" stroke="#292D32" stroke-width="1.5" stroke-linecap="round" stroke-linejoin="round"/>
<path opacity="0.4" d="M9.08984 19.5302C10.2298 20.0102 11.4398 20.2702 12.6698 20.2702C16.1998 20.2702 19.4898 18.1902 21.7798 14.5902C22.6798 13.1802 22.6798 10.8102 21.7798 9.40018C21.4498 8.88018 21.0898 8.39018 20.7198 7.93018" stroke="#292D32" stroke-width="1.5" stroke-linecap="round" stroke-linejoin="round"/>
<path opacity="0.4" d="M16.1799 12.7002C15.9199 14.1102 14.7699 15.2602 13.3599 15.5202" stroke="#292D32" stroke-width="1.5" stroke-linecap="round" stroke-linejoin="round"/>
<path d="M10.1399 14.5298L2.66992 21.9998" stroke="#292D32" stroke-width="1.5" stroke-linecap="round" stroke-linejoin="round"/>
<path d="M22.6697 2L15.1997 9.47" stroke="#292D32" stroke-width="1.5" stroke-linecap="round" stroke-linejoin="round"/>
</svg>
