<svg width="25" height="24" viewBox="0 0 25 24" fill="none" xmlns="http://www.w3.org/2000/svg">
<path opacity="0.4" d="M16.2498 11.9999C16.2498 13.9799 14.6498 15.5799 12.6698 15.5799C10.6898 15.5799 9.08984 13.9799 9.08984 11.9999C9.08984 10.0199 10.6898 8.41992 12.6698 8.41992C14.6498 8.41992 16.2498 10.0199 16.2498 11.9999Z" stroke="#292D32" stroke-width="1.5" stroke-linecap="round" stroke-linejoin="round"/>
<path d="M12.6698 20.2702C16.1998 20.2702 19.4898 18.1902 21.7798 14.5902C22.6798 13.1802 22.6798 10.8102 21.7798 9.40021C19.4898 5.80021 16.1998 3.72021 12.6698 3.72021C9.13977 3.72021 5.84977 5.80021 3.55977 9.40021C2.65977 10.8102 2.65977 13.1802 3.55977 14.5902C5.84977 18.1902 9.13977 20.2702 12.6698 20.2702Z" stroke="#292D32" stroke-width="1.5" stroke-linecap="round" stroke-linejoin="round"/>
</svg>
