<svg width="25" height="24" viewBox="0 0 25 24" fill="none" xmlns="http://www.w3.org/2000/svg">
<path opacity="0.4" d="M14.6699 9.29999V12.25H17.2999C17.4899 12.25 17.6299 12.42 17.5899 12.61L17.2099 14.51C17.1799 14.65 17.0599 14.75 16.9199 14.75H14.6699V22H11.6699V14.75H9.96991C9.79991 14.75 9.66992 14.62 9.66992 14.45V12.55C9.66992 12.38 9.79991 12.25 9.96991 12.25H11.6699V9C11.6699 7.34 13.0099 6 14.6699 6H17.3699C17.5399 6 17.6699 6.12999 17.6699 6.29999V8.70001C17.6699 8.87001 17.5399 9 17.3699 9H14.9699C14.7999 9 14.6699 9.12999 14.6699 9.29999Z" stroke="black" stroke-width="1.5" stroke-miterlimit="10" stroke-linecap="round"/>
<path d="M15.6699 22H9.66992C4.66992 22 2.66992 20 2.66992 15V9C2.66992 4 4.66992 2 9.66992 2H15.6699C20.6699 2 22.6699 4 22.6699 9V15C22.6699 20 20.6699 22 15.6699 22Z" stroke="black" stroke-width="1.5" stroke-linecap="round" stroke-linejoin="round"/>
</svg>
