<svg width="25" height="24" viewBox="0 0 25 24" fill="none" xmlns="http://www.w3.org/2000/svg">
<path opacity="0.4" d="M14.0795 20.79L12.6695 21.7C11.3595 22.51 9.53949 21.6 9.53949 19.98V14.63C9.53949 13.92 9.13949 13.01 8.72949 12.51L4.88947 8.47C4.37947 7.96 3.97949 7.06001 3.97949 6.45001V4.13C3.97949 2.92 4.88951 2.01001 5.99951 2.01001H19.3395C20.4495 2.01001 21.3595 2.92 21.3595 4.03V6.25C21.3595 7.06 20.8495 8.07001 20.3495 8.57001" stroke="#292D32" stroke-width="1.5" stroke-miterlimit="10" stroke-linecap="round" stroke-linejoin="round"/>
<path d="M17.7501 11.89L14.2101 15.43C14.0701 15.57 13.9401 15.83 13.9101 16.02L13.7201 17.37C13.6501 17.86 13.9901 18.2 14.4801 18.13L15.8301 17.94C16.0201 17.91 16.2901 17.78 16.4201 17.64L19.9601 14.1C20.5701 13.49 20.8601 12.78 19.9601 11.88C19.0701 10.99 18.3601 11.28 17.7501 11.89Z" stroke="#292D32" stroke-width="1.5" stroke-miterlimit="10" stroke-linecap="round" stroke-linejoin="round"/>
<path d="M17.25 12.39C17.55 13.47 18.39 14.31 19.47 14.61" stroke="#292D32" stroke-width="1.5" stroke-miterlimit="10" stroke-linecap="round" stroke-linejoin="round"/>
</svg>
