<svg width="25" height="24" viewBox="0 0 25 24" fill="none" xmlns="http://www.w3.org/2000/svg">
<path opacity="0.4" d="M14.9895 19.07C14.9895 19.68 14.5895 20.48 14.0795 20.79L12.6695 21.7C11.3595 22.51 9.53949 21.6 9.53949 19.98V14.63C9.53949 13.92 9.13949 13.01 8.72949 12.51L4.88947 8.47C4.37947 7.96 3.97949 7.06001 3.97949 6.45001V4.13C3.97949 2.92 4.88951 2.01001 5.99951 2.01001H19.3395C20.4495 2.01001 21.3595 2.92 21.3595 4.03V6.25C21.3595 7.06 20.8495 8.07001 20.3495 8.57001" stroke="#292D32" stroke-width="1.5" stroke-miterlimit="10" stroke-linecap="round" stroke-linejoin="round"/>
<path d="M16.7401 16.52C18.5074 16.52 19.9401 15.0873 19.9401 13.32C19.9401 11.5527 18.5074 10.12 16.7401 10.12C14.9727 10.12 13.54 11.5527 13.54 13.32C13.54 15.0873 14.9727 16.52 16.7401 16.52Z" stroke="#292D32" stroke-width="1.5" stroke-linecap="round" stroke-linejoin="round"/>
<path d="M20.54 17.12L19.54 16.12" stroke="#292D32" stroke-width="1.5" stroke-linecap="round" stroke-linejoin="round"/>
</svg>
