<svg width="25" height="24" viewBox="0 0 25 24" fill="none" xmlns="http://www.w3.org/2000/svg">
<path opacity="0.4" d="M12.67 14.8799C11.76 14.8799 11.02 14.1399 11.02 13.2299V10.7599C11.02 9.84989 11.76 9.10986 12.67 9.10986C13.58 9.10986 14.32 9.84989 14.32 10.7599V13.2299C14.32 14.1399 13.58 14.8799 12.67 14.8799Z" stroke="#292D32" stroke-width="1.5" stroke-linecap="round"/>
<path opacity="0.4" d="M17.6499 13.4702C17.4499 16.0502 15.2899 18.0702 12.6699 18.0702C9.90992 18.0702 7.66992 15.8302 7.66992 13.0702V10.9302C7.66992 8.17018 9.90992 5.93018 12.6699 5.93018C15.2599 5.93018 17.3899 7.90017 17.6399 10.4202" stroke="#292D32" stroke-width="1.5" stroke-linecap="round"/>
<path d="M15.6699 2H17.6699C20.6699 2 22.6699 4 22.6699 7V9" stroke="#292D32" stroke-width="1.5" stroke-miterlimit="10" stroke-linecap="round" stroke-linejoin="round"/>
<path d="M2.66992 9V7C2.66992 4 4.66992 2 7.66992 2H9.66992" stroke="#292D32" stroke-width="1.5" stroke-miterlimit="10" stroke-linecap="round" stroke-linejoin="round"/>
<path d="M15.6699 22H17.6699C20.6699 22 22.6699 20 22.6699 17V15" stroke="#292D32" stroke-width="1.5" stroke-miterlimit="10" stroke-linecap="round" stroke-linejoin="round"/>
<path d="M2.66992 15V17C2.66992 20 4.66992 22 7.66992 22H9.66992" stroke="#292D32" stroke-width="1.5" stroke-miterlimit="10" stroke-linecap="round" stroke-linejoin="round"/>
</svg>
