<svg width="25" height="24" viewBox="0 0 25 24" fill="none" xmlns="http://www.w3.org/2000/svg">
<path d="M12.6699 22C18.1928 22 22.6699 17.5228 22.6699 12C22.6699 6.47715 18.1928 2 12.6699 2C7.14707 2 2.66992 6.47715 2.66992 12C2.66992 17.5228 7.14707 22 12.6699 22Z" stroke="#292D32" stroke-width="1.5" stroke-linecap="round" stroke-linejoin="round"/>
<path opacity="0.4" d="M9.35028 11.9101L11.0003 12.32L10.0503 16.1601C9.83029 17.0601 10.2703 17.36 11.0303 16.83L16.2103 13.2401C16.8403 12.8001 16.7503 12.2901 16.0003 12.1001L14.3503 11.6901L15.3003 7.85006C15.5203 6.95006 15.0803 6.65007 14.3203 7.18007L9.14029 10.7701C8.51029 11.2101 8.60028 11.7201 9.35028 11.9101Z" stroke="#292D32" stroke-width="1.5" stroke-miterlimit="10" stroke-linecap="round" stroke-linejoin="round"/>
</svg>
