<svg width="25" height="24" viewBox="0 0 25 24" fill="none" xmlns="http://www.w3.org/2000/svg">
<path opacity="0.4" d="M9.87038 14.78L12.4504 17.04C12.5704 17.15 12.7604 17.15 12.8804 17.04L15.4604 14.78C16.1304 14.19 16.2204 13.19 15.6604 12.49C15.1004 11.79 14.0804 11.66 13.3704 12.2L12.6704 12.74L11.9604 12.21C11.2404 11.67 10.2304 11.8 9.67038 12.5C9.11038 13.19 9.20038 14.2 9.87038 14.78Z" stroke="#292D32" stroke-width="1.5" stroke-linecap="round" stroke-linejoin="round"/>
<path d="M22.6699 11V17C22.6699 21 21.6699 22 17.6699 22H7.66992C3.66992 22 2.66992 21 2.66992 17V7C2.66992 3 3.66992 2 7.66992 2H9.16992C10.6699 2 10.9999 2.44 11.5699 3.2L13.0699 5.2C13.4499 5.7 13.6699 6 14.6699 6H17.6699C21.6699 6 22.6699 7 22.6699 11Z" stroke="#292D32" stroke-width="1.5" stroke-miterlimit="10"/>
</svg>
