<svg width="25" height="24" viewBox="0 0 25 24" fill="none" xmlns="http://www.w3.org/2000/svg">
<path d="M9.66992 22H7.66992C3.66992 22 2.66992 21 2.66992 17V7C2.66992 3 3.66992 2 7.66992 2H9.16992C10.6699 2 10.9999 2.44001 11.5699 3.20001L13.0699 5.20001C13.4499 5.70001 13.6699 6 14.6699 6H17.6699C21.6699 6 22.6699 7 22.6699 11V13" stroke="#292D32" stroke-width="1.5" stroke-miterlimit="10" stroke-linecap="round" stroke-linejoin="round"/>
<path opacity="0.4" d="M14.4295 18.3199C12.0795 18.4899 12.0795 21.8899 14.4295 22.0599H19.9895C20.6595 22.0599 21.3195 21.8099 21.8095 21.3599C23.4595 19.9199 22.5795 17.0399 20.4095 16.7699C19.6295 12.0799 12.8495 13.8599 14.4495 18.3299" stroke="#292D32" stroke-width="1.5" stroke-miterlimit="10" stroke-linecap="round" stroke-linejoin="round"/>
</svg>
