<svg width="25" height="24" viewBox="0 0 25 24" fill="none" xmlns="http://www.w3.org/2000/svg">
<path d="M15.5699 2H9.76993C9.08993 2 8.12992 2.4 7.64992 2.88L3.54993 6.98001C3.06993 7.46001 2.66992 8.42001 2.66992 9.10001V14.9C2.66992 15.58 3.06993 16.54 3.54993 17.02L7.64992 21.12C8.12992 21.6 9.08993 22 9.76993 22H15.5699C16.2499 22 17.2099 21.6 17.6899 21.12L21.7899 17.02C22.2699 16.54 22.6699 15.58 22.6699 14.9V9.10001C22.6699 8.42001 22.2699 7.46001 21.7899 6.98001L17.6899 2.88C17.2099 2.4 16.2499 2 15.5699 2Z" stroke="#292D32" stroke-width="1.5" stroke-linecap="round" stroke-linejoin="round"/>
<g opacity="0.4">
<path d="M9.16992 15.5L16.1699 8.5" stroke="#292D32" stroke-width="1.5" stroke-linecap="round" stroke-linejoin="round"/>
<path d="M16.1699 15.5L9.16992 8.5" stroke="#292D32" stroke-width="1.5" stroke-linecap="round" stroke-linejoin="round"/>
</g>
</svg>
