<svg width="25" height="24" viewBox="0 0 25 24" fill="none" xmlns="http://www.w3.org/2000/svg">
<path opacity="0.4" d="M20.6699 6.95V17.05C20.5099 17.02 20.3399 17 20.1699 17C18.7899 17 17.6699 18.12 17.6699 19.5C17.6699 19.67 17.6899 19.84 17.7199 20H7.61992C7.64992 19.84 7.66992 19.67 7.66992 19.5C7.66992 18.12 6.54992 17 5.16992 17C4.99992 17 4.82992 17.02 4.66992 17.05V6.95C4.82992 6.98 4.99992 7 5.16992 7C6.54992 7 7.66992 5.88 7.66992 4.5C7.66992 4.33 7.64992 4.16 7.61992 4H17.7199C17.6899 4.16 17.6699 4.33 17.6699 4.5C17.6699 5.88 18.7899 7 20.1699 7C20.3399 7 20.5099 6.98 20.6699 6.95Z" stroke="#292D32" stroke-width="1.5" stroke-linecap="round" stroke-linejoin="round"/>
<path d="M7.66992 4.5C7.66992 5.88 6.54992 7 5.16992 7C4.99992 7 4.82992 6.98 4.66992 6.95C3.52992 6.72 2.66992 5.71 2.66992 4.5C2.66992 3.12 3.78992 2 5.16992 2C6.37992 2 7.38992 2.86 7.61992 4C7.64992 4.16 7.66992 4.33 7.66992 4.5Z" stroke="#292D32" stroke-width="1.5" stroke-linecap="round" stroke-linejoin="round"/>
<path d="M22.6699 4.5C22.6699 5.71 21.8099 6.72 20.6699 6.95C20.5099 6.98 20.3399 7 20.1699 7C18.7899 7 17.6699 5.88 17.6699 4.5C17.6699 4.33 17.6899 4.16 17.7199 4C17.9499 2.86 18.9599 2 20.1699 2C21.5499 2 22.6699 3.12 22.6699 4.5Z" stroke="#292D32" stroke-width="1.5" stroke-linecap="round" stroke-linejoin="round"/>
<path d="M7.66992 19.5C7.66992 19.67 7.64992 19.84 7.61992 20C7.38992 21.14 6.37992 22 5.16992 22C3.78992 22 2.66992 20.88 2.66992 19.5C2.66992 18.29 3.52992 17.28 4.66992 17.05C4.82992 17.02 4.99992 17 5.16992 17C6.54992 17 7.66992 18.12 7.66992 19.5Z" stroke="#292D32" stroke-width="1.5" stroke-linecap="round" stroke-linejoin="round"/>
<path d="M22.6699 19.5C22.6699 20.88 21.5499 22 20.1699 22C18.9599 22 17.9499 21.14 17.7199 20C17.6899 19.84 17.6699 19.67 17.6699 19.5C17.6699 18.12 18.7899 17 20.1699 17C20.3399 17 20.5099 17.02 20.6699 17.05C21.8099 17.28 22.6699 18.29 22.6699 19.5Z" stroke="#292D32" stroke-width="1.5" stroke-linecap="round" stroke-linejoin="round"/>
</svg>
