<svg width="25" height="24" viewBox="0 0 25 24" fill="none" xmlns="http://www.w3.org/2000/svg">
<path d="M4.03992 20.1C3.09992 18.97 2.66992 17.31 2.66992 15V9C2.66992 4 4.66992 2 9.66992 2H15.6699C17.8599 2 19.4699 2.38 20.5899 3.23" stroke="#292D32" stroke-width="1.5" stroke-linecap="round" stroke-linejoin="round"/>
<path opacity="0.4" d="M8.66992 10C9.77449 10 10.6699 9.10457 10.6699 8C10.6699 6.89543 9.77449 6 8.66992 6C7.56535 6 6.66992 6.89543 6.66992 8C6.66992 9.10457 7.56535 10 8.66992 10Z" stroke="#292D32" stroke-width="1.5" stroke-linecap="round" stroke-linejoin="round"/>
<path d="M22.6699 2L2.66992 22" stroke="#292D32" stroke-width="1.5" stroke-linecap="round" stroke-linejoin="round"/>
<g opacity="0.4">
<path d="M22.6409 7.99023C22.6609 8.31023 22.6709 8.65023 22.6709 9.00023V15.0002C22.6709 20.0002 20.6709 22.0002 15.6709 22.0002H9.67086C8.93086 22.0002 8.25086 21.9602 7.63086 21.8602" stroke="#292D32" stroke-width="1.5" stroke-linecap="round" stroke-linejoin="round"/>
<path d="M12.0996 16.4502C12.3996 16.7502 12.8896 16.7502 13.1896 16.4502L18.2196 11.4102C18.9996 10.6302 20.2596 10.6302 21.0396 11.4102L22.6696 13.0502" stroke="#292D32" stroke-width="1.5" stroke-linecap="round" stroke-linejoin="round"/>
</g>
</svg>
