<svg width="25" height="24" viewBox="0 0 25 24" fill="none" xmlns="http://www.w3.org/2000/svg">
<path opacity="0.4" d="M9.66992 10C10.7745 10 11.6699 9.10457 11.6699 8C11.6699 6.89543 10.7745 6 9.66992 6C8.56535 6 7.66992 6.89543 7.66992 8C7.66992 9.10457 8.56535 10 9.66992 10Z" stroke="#292D32" stroke-width="1.5" stroke-linecap="round" stroke-linejoin="round"/>
<path d="M12.6699 2H9.66992C4.66992 2 2.66992 4 2.66992 9V15C2.66992 20 4.66992 22 9.66992 22H15.6699C20.6699 22 22.6699 20 22.6699 15V11" stroke="#292D32" stroke-width="1.5" stroke-linecap="round" stroke-linejoin="round"/>
<path opacity="0.4" d="M16.7896 5.10999C16.4596 4.06999 16.8496 2.77999 17.9296 2.42999C18.4996 2.24999 19.2096 2.39999 19.6096 2.94999C19.9896 2.37999 20.7196 2.23999 21.2896 2.42999C22.3796 2.77999 22.7696 4.06999 22.4396 5.10999C21.9196 6.74999 20.1196 7.60999 19.6196 7.60999C19.1096 7.60999 17.3196 6.76999 16.7896 5.10999Z" stroke="#292D32" stroke-width="1.5" stroke-linecap="round" stroke-linejoin="round"/>
<path opacity="0.4" d="M3.33984 18.95L8.26984 15.64C9.05984 15.11 10.1998 15.17 10.9098 15.78L11.2398 16.07C12.0198 16.74 13.2798 16.74 14.0598 16.07L18.2198 12.5C18.9998 11.83 20.2598 11.83 21.0398 12.5L22.6698 13.9" stroke="#292D32" stroke-width="1.5" stroke-linecap="round" stroke-linejoin="round"/>
</svg>
