<svg width="25" height="24" viewBox="0 0 25 24" fill="none" xmlns="http://www.w3.org/2000/svg">
<path d="M4.16992 22V5C4.16992 3 5.50992 2 7.16992 2H15.1699C16.8299 2 18.1699 3 18.1699 5V22H4.16992Z" stroke="#292D32" stroke-width="1.5" stroke-linecap="round" stroke-linejoin="round"/>
<path d="M2.66992 22H19.6699" stroke="#292D32" stroke-width="1.5" stroke-linecap="round" stroke-linejoin="round"/>
<path opacity="0.34" d="M9.05992 9.99998H13.2899C14.3299 9.99998 15.1799 9.49999 15.1799 8.10999V6.87999C15.1799 5.48999 14.3299 4.98999 13.2899 4.98999H9.05992C8.01992 4.98999 7.16992 5.48999 7.16992 6.87999V8.10999C7.16992 9.49999 8.01992 9.99998 9.05992 9.99998Z" stroke="#292D32" stroke-width="1.5" stroke-linecap="round" stroke-linejoin="round"/>
<path d="M7.16992 13H10.1699" stroke="#292D32" stroke-width="1.5" stroke-linecap="round" stroke-linejoin="round"/>
<path opacity="0.34" d="M18.1699 16.01L22.6699 16V10L20.6699 9" stroke="#292D32" stroke-width="1.5" stroke-linecap="round" stroke-linejoin="round"/>
</svg>
