<svg width="25" height="24" viewBox="0 0 25 24" fill="none" xmlns="http://www.w3.org/2000/svg">
<path d="M22.6699 20.07V12.18C22.6699 6.57999 18.1699 2 12.6699 2C7.16992 2 2.66992 6.57999 2.66992 12.18V20.07C2.66992 21.33 3.4199 21.67 4.3399 20.83L5.3399 19.92C5.7099 19.58 6.30993 19.58 6.67993 19.92L8.67993 21.75C9.04993 22.09 9.6499 22.09 10.0199 21.75L12.0199 19.92C12.3899 19.58 12.9899 19.58 13.3599 19.92L15.3599 21.75C15.7299 22.09 16.33 22.09 16.7 21.75L18.7 19.92C19.07 19.58 19.6699 19.58 20.0399 19.92L21.0399 20.83C21.9199 21.67 22.6699 21.33 22.6699 20.07Z" stroke="#292D32" stroke-width="1.5" stroke-linecap="round" stroke-linejoin="round"/>
<path opacity="0.4" d="M8.66992 14C11.0399 15.78 14.2999 15.78 16.6699 14" stroke="#292D32" stroke-width="1.5" stroke-linecap="round" stroke-linejoin="round"/>
<path opacity="0.4" d="M12.6699 11C13.7745 11 14.6699 10.1046 14.6699 9C14.6699 7.89543 13.7745 7 12.6699 7C11.5654 7 10.6699 7.89543 10.6699 9C10.6699 10.1046 11.5654 11 12.6699 11Z" stroke="#292D32" stroke-width="1.5" stroke-linecap="round" stroke-linejoin="round"/>
</svg>
