<svg width="25" height="24" viewBox="0 0 25 24" fill="none" xmlns="http://www.w3.org/2000/svg">
<path d="M8.82971 22C4.64971 22 3.80971 19.47 5.16971 16.39L9.41971 6.74H9.11971C8.46971 6.74 7.86971 6.48 7.43971 6.05C6.99971 5.62 6.73971 5.02 6.73971 4.37C6.73971 3.07 7.79971 2 9.10971 2H16.2197C16.8797 2 17.4697 2.27 17.8997 2.7C18.4597 3.26 18.7397 4.08 18.5297 4.95C18.2597 6.03 17.2197 6.74 16.1097 6.74H15.9497L20.1697 16.4C21.5197 19.48 20.6397 22 16.4997 22H8.82971Z" stroke="#292D32" stroke-width="1.5" stroke-linecap="round" stroke-linejoin="round"/>
<path opacity="0.4" d="M6.61035 13.1201C6.61035 13.1201 9.67035 13.0001 12.6704 14.0001C15.6704 15.0001 18.5004 13.1101 18.5004 13.1101" stroke="#292D32" stroke-width="1.5" stroke-linecap="round" stroke-linejoin="round"/>
</svg>
