<svg width="25" height="24" viewBox="0 0 25 24" fill="none" xmlns="http://www.w3.org/2000/svg">
<path d="M22.6699 12C22.6699 6.48 18.1899 2 12.6699 2C7.14992 2 2.66992 6.48 2.66992 12C2.66992 17.52 7.14992 22 12.6699 22" stroke="#292D32" stroke-width="1.5" stroke-linecap="round" stroke-linejoin="round"/>
<g opacity="0.4">
<path d="M8.66953 3H9.66953C7.71953 8.84 7.71953 15.16 9.66953 21H8.66953" stroke="#292D32" stroke-width="1.5" stroke-linecap="round" stroke-linejoin="round"/>
<path d="M15.6699 3C16.6399 5.92 17.1299 8.96 17.1299 12" stroke="#292D32" stroke-width="1.5" stroke-linecap="round" stroke-linejoin="round"/>
<path d="M3.66992 16V15C6.58992 15.97 9.62992 16.46 12.6699 16.46" stroke="#292D32" stroke-width="1.5" stroke-linecap="round" stroke-linejoin="round"/>
<path d="M3.66992 9.0001C9.50992 7.0501 15.8299 7.0501 21.6699 9.0001" stroke="#292D32" stroke-width="1.5" stroke-linecap="round" stroke-linejoin="round"/>
</g>
<path d="M18.8699 21.4C20.6372 21.4 22.0699 19.9673 22.0699 18.2C22.0699 16.4327 20.6372 15 18.8699 15C17.1026 15 15.6699 16.4327 15.6699 18.2C15.6699 19.9673 17.1026 21.4 18.8699 21.4Z" stroke="#292D32" stroke-width="1.5" stroke-linecap="round" stroke-linejoin="round"/>
<path d="M22.6699 22L21.6699 21" stroke="#292D32" stroke-width="1.5" stroke-linecap="round" stroke-linejoin="round"/>
</svg>
