<svg width="25" height="24" viewBox="0 0 25 24" fill="none" xmlns="http://www.w3.org/2000/svg">
<path d="M22.6699 12C22.6699 6.48 18.1899 2 12.6699 2C7.14992 2 2.66992 6.48 2.66992 12C2.66992 17.52 7.14992 22 12.6699 22" stroke="#292D32" stroke-width="1.5" stroke-linecap="round" stroke-linejoin="round"/>
<g opacity="0.4">
<path d="M8.66953 3H9.66953C7.71953 8.84 7.71953 15.16 9.66953 21H8.66953" stroke="#292D32" stroke-width="1.5" stroke-linecap="round" stroke-linejoin="round"/>
<path d="M15.6699 3C16.6399 5.92 17.1299 8.96 17.1299 12" stroke="#292D32" stroke-width="1.5" stroke-linecap="round" stroke-linejoin="round"/>
<path d="M3.66992 16V15C6.58992 15.97 9.62992 16.46 12.6699 16.46" stroke="#292D32" stroke-width="1.5" stroke-linecap="round" stroke-linejoin="round"/>
<path d="M3.66992 9.0001C9.50992 7.0501 15.8299 7.0501 21.6699 9.0001" stroke="#292D32" stroke-width="1.5" stroke-linecap="round" stroke-linejoin="round"/>
</g>
<path d="M19.88 15.74L16.34 19.2801C16.2 19.4201 16.07 19.68 16.04 19.87L15.85 21.22C15.78 21.71 16.12 22.05 16.61 21.98L17.96 21.79C18.15 21.76 18.42 21.63 18.55 21.49L22.09 17.95C22.7 17.34 22.99 16.63 22.09 15.73C21.2 14.84 20.49 15.13 19.88 15.74Z" stroke="#292D32" stroke-width="1.5" stroke-miterlimit="10" stroke-linecap="round" stroke-linejoin="round"/>
<path d="M19.3701 16.25C19.6701 17.33 20.5101 18.17 21.5901 18.47" stroke="#292D32" stroke-width="1.5" stroke-miterlimit="10" stroke-linecap="round" stroke-linejoin="round"/>
</svg>
