<svg width="25" height="24" viewBox="0 0 25 24" fill="none" xmlns="http://www.w3.org/2000/svg">
<path d="M17.8799 6.6C16.5299 5.3 14.6899 4.5 12.6699 4.5C8.52992 4.5 5.16992 7.86 5.16992 12C5.16992 14.01 5.95992 15.84 7.24992 17.19" stroke="#292D32" stroke-width="1.5" stroke-linecap="round" stroke-linejoin="round"/>
<path d="M12.6699 4V2" stroke="#292D32" stroke-width="1.5" stroke-linecap="round" stroke-linejoin="round"/>
<path d="M4.66992 12H2.66992" stroke="#292D32" stroke-width="1.5" stroke-linecap="round" stroke-linejoin="round"/>
<g opacity="0.4">
<path d="M9.66992 18.88C10.5899 19.28 11.5999 19.5 12.6699 19.5C16.8099 19.5 20.1699 16.14 20.1699 12C20.1699 10.93 19.9499 9.92 19.5499 9" stroke="#292D32" stroke-width="1.5" stroke-linecap="round" stroke-linejoin="round"/>
<path d="M12.6699 20V22" stroke="#292D32" stroke-width="1.5" stroke-linecap="round" stroke-linejoin="round"/>
<path d="M20.6699 12H22.6699" stroke="#292D32" stroke-width="1.5" stroke-linecap="round" stroke-linejoin="round"/>
</g>
<path d="M14.7899 9.88L10.5499 14.12C10.0099 13.58 9.66992 12.83 9.66992 12C9.66992 10.34 11.0099 9 12.6699 9C13.4999 9 14.2499 9.34 14.7899 9.88Z" stroke="#292D32" stroke-width="1.5" stroke-linecap="round" stroke-linejoin="round"/>
<path d="M22.6699 2L2.66992 22" stroke="#292D32" stroke-width="1.5" stroke-linecap="round" stroke-linejoin="round"/>
</svg>
