<svg width="25" height="24" viewBox="0 0 25 24" fill="none" xmlns="http://www.w3.org/2000/svg">
<path d="M12.6699 19.5C16.8121 19.5 20.1699 16.1421 20.1699 12C20.1699 7.85786 16.8121 4.5 12.6699 4.5C8.52779 4.5 5.16992 7.85786 5.16992 12C5.16992 16.1421 8.52779 19.5 12.6699 19.5Z" stroke="#292D32" stroke-width="1.5" stroke-linecap="round" stroke-linejoin="round"/>
<path opacity="0.4" d="M12.6699 15C14.3268 15 15.6699 13.6569 15.6699 12C15.6699 10.3431 14.3268 9 12.6699 9C11.0131 9 9.66992 10.3431 9.66992 12C9.66992 13.6569 11.0131 15 12.6699 15Z" stroke="#292D32" stroke-width="1.5" stroke-linecap="round" stroke-linejoin="round"/>
<path opacity="0.4" d="M12.6699 4V2" stroke="#292D32" stroke-width="1.5" stroke-linecap="round" stroke-linejoin="round"/>
<path opacity="0.4" d="M4.66992 12H2.66992" stroke="#292D32" stroke-width="1.5" stroke-linecap="round" stroke-linejoin="round"/>
<path opacity="0.4" d="M12.6699 20V22" stroke="#292D32" stroke-width="1.5" stroke-linecap="round" stroke-linejoin="round"/>
<path opacity="0.4" d="M20.6699 12H22.6699" stroke="#292D32" stroke-width="1.5" stroke-linecap="round" stroke-linejoin="round"/>
</svg>
