<svg width="25" height="24" viewBox="0 0 25 24" fill="none" xmlns="http://www.w3.org/2000/svg">
<path d="M22.6699 11V9C22.6699 4 20.6699 2 15.6699 2H9.66992C4.66992 2 2.66992 4 2.66992 9V15C2.66992 20 4.66992 22 9.66992 22H10.6699" stroke="#292D32" stroke-width="1.5" stroke-linecap="round" stroke-linejoin="round"/>
<g opacity="0.4">
<path d="M2.69922 8.5H22.6692" stroke="#292D32" stroke-width="1.5" stroke-linecap="round" stroke-linejoin="round"/>
<path d="M2.69922 15.5H12.6692" stroke="#292D32" stroke-width="1.5" stroke-linecap="round" stroke-linejoin="round"/>
<path d="M9.17969 21.9897V2.00977" stroke="#292D32" stroke-width="1.5" stroke-linecap="round" stroke-linejoin="round"/>
<path d="M16.1797 11.9897V2.00977" stroke="#292D32" stroke-width="1.5" stroke-linecap="round" stroke-linejoin="round"/>
</g>
<path d="M16.27 17.2V16.4C16.27 15.07 16.67 14 18.67 14C20.67 14 21.07 15.07 21.07 16.4V17.2" stroke="#292D32" stroke-width="1.5" stroke-linecap="round" stroke-linejoin="round"/>
<path d="M20.6699 22H16.6699C15.0699 22 14.6699 21.6 14.6699 20V19.2C14.6699 17.6 15.0699 17.2 16.6699 17.2H20.6699C22.2699 17.2 22.6699 17.6 22.6699 19.2V20C22.6699 21.6 22.2699 22 20.6699 22Z" stroke="#292D32" stroke-width="1.5" stroke-linecap="round" stroke-linejoin="round"/>
</svg>
