<svg width="25" height="24" viewBox="0 0 25 24" fill="none" xmlns="http://www.w3.org/2000/svg">
<path d="M22.6699 11V9C22.6699 4 20.6699 2 15.6699 2H9.66992C4.66992 2 2.66992 4 2.66992 9V15C2.66992 20 4.66992 22 9.66992 22H10.6699" stroke="#292D32" stroke-width="1.5" stroke-linecap="round" stroke-linejoin="round"/>
<g opacity="0.4">
<path d="M2.69922 8.5H22.6692" stroke="#292D32" stroke-width="1.5" stroke-linecap="round" stroke-linejoin="round"/>
<path d="M2.69922 15.5H12.6692" stroke="#292D32" stroke-width="1.5" stroke-linecap="round" stroke-linejoin="round"/>
<path d="M9.17969 21.9897V2.00977" stroke="#292D32" stroke-width="1.5" stroke-linecap="round" stroke-linejoin="round"/>
<path d="M16.1797 11.9897V2.00977" stroke="#292D32" stroke-width="1.5" stroke-linecap="round" stroke-linejoin="round"/>
</g>
<path d="M19.4699 19.7L17.5699 21.6C17.0499 22.12 16.1899 22.12 15.6599 21.6L14.0799 20.01C13.5599 19.49 13.5599 18.63 14.0799 18.1L15.9799 16.21L19.4699 19.7Z" stroke="#292D32" stroke-width="1.5" stroke-linecap="round" stroke-linejoin="round"/>
<path d="M22.2797 16.9L19.4697 19.7099L15.9697 16.2099L18.7797 13.39C19.2997 12.87 20.1697 12.87 20.6897 13.39L22.2697 14.98C22.7997 15.51 22.7997 16.38 22.2797 16.9Z" stroke="#292D32" stroke-width="1.5" stroke-linecap="round" stroke-linejoin="round"/>
</svg>
