<svg width="25" height="24" viewBox="0 0 25 24" fill="none" xmlns="http://www.w3.org/2000/svg">
<path d="M9.66992 22H15.6699C20.6699 22 22.6699 20 22.6699 15V9C22.6699 4 20.6699 2 15.6699 2H9.66992C4.66992 2 2.66992 4 2.66992 9V15C2.66992 20 4.66992 22 9.66992 22Z" stroke="#292D32" stroke-width="1.5" stroke-linecap="round" stroke-linejoin="round"/>
<g opacity="0.4">
<path d="M18.6699 7.75V14.5C18.6699 13.4 17.7699 12.5 16.6699 12.5H8.66992C7.56992 12.5 6.66992 13.4 6.66992 14.5V7.75C6.66992 6.65 7.56992 5.75 8.66992 5.75H16.6699C17.7699 5.75 18.6699 6.65 18.6699 7.75Z" stroke="#292D32" stroke-width="1.5" stroke-linecap="round" stroke-linejoin="round"/>
<path d="M19.6699 15.75H18.6699" stroke="#292D32" stroke-width="1.5" stroke-linecap="round" stroke-linejoin="round"/>
<path d="M6.66992 15.75H5.66992" stroke="#292D32" stroke-width="1.5" stroke-linecap="round" stroke-linejoin="round"/>
<path d="M18.6699 14V11C18.6699 9.9 17.7699 9 16.6699 9H8.66992C7.56992 9 6.66992 9.9 6.66992 11V14" stroke="#292D32" stroke-width="1.5" stroke-linecap="round" stroke-linejoin="round"/>
<path d="M18.6699 14.5V15.75H15.1699C15.1699 17.13 14.0499 18.25 12.6699 18.25C11.2899 18.25 10.1699 17.13 10.1699 15.75H6.66992V14.5C6.66992 13.4 7.56992 12.5 8.66992 12.5H16.6699C17.7699 12.5 18.6699 13.4 18.6699 14.5Z" stroke="#292D32" stroke-width="1.5" stroke-linecap="round" stroke-linejoin="round"/>
</g>
</svg>
