<svg width="25" height="24" viewBox="0 0 25 24" fill="none" xmlns="http://www.w3.org/2000/svg">
<path d="M22.6699 5.74001C22.6699 7.44001 21.8299 9.04 20.3899 9.94C19.0899 10.76 17.2099 11.59 14.6699 11.88V5.74001C14.6699 3.68001 16.3499 2 18.4099 2H18.9299C20.9899 2 22.6699 3.68001 22.6699 5.74001Z" stroke="black" stroke-width="1.5" stroke-miterlimit="10"/>
<path opacity="0.4" d="M22.6699 8V18.26C22.6699 20.32 20.9899 22 18.9299 22H18.4099C16.3499 22 14.6699 20.32 14.6699 18.26V11.88C20.2499 11.23 22.6699 8 22.6699 8Z" stroke="black" stroke-width="1.5" stroke-miterlimit="10"/>
<path d="M2.66992 18.26C2.66992 16.56 3.50995 14.96 4.94995 14.06C6.24995 13.24 8.12992 12.41 10.6699 12.12V18.26C10.6699 20.32 8.98993 22 6.92993 22H6.40991C4.34991 22 2.66992 20.32 2.66992 18.26Z" stroke="black" stroke-width="1.5" stroke-miterlimit="10"/>
<path opacity="0.4" d="M2.66992 16V5.74001C2.66992 3.68001 4.34991 2 6.40991 2H6.92993C8.98993 2 10.6699 3.68001 10.6699 5.74001V12.12C5.08992 12.77 2.66992 16 2.66992 16Z" stroke="black" stroke-width="1.5" stroke-miterlimit="10"/>
<path d="M10.6699 12.1C11.2999 12.04 11.9599 12 12.6699 12C13.3799 12 14.0399 11.96 14.6699 11.88" stroke="black" stroke-width="1.5" stroke-miterlimit="10"/>
</svg>
