<svg width="25" height="24" viewBox="0 0 25 24" fill="none" xmlns="http://www.w3.org/2000/svg">
<path d="M6.12997 18.49V15.57C6.12997 14.6 6.88997 13.73 7.96997 13.73C8.93997 13.73 9.80997 14.49 9.80997 15.57V18.38C9.80997 20.33 8.18997 21.9501 6.23997 21.9501C4.28997 21.9501 2.66997 20.32 2.66997 18.38V12.22C2.55997 6.60005 6.99997 2.05005 12.62 2.05005C18.24 2.05005 22.67 6.60005 22.67 12.11V18.2701C22.67 20.2201 21.05 21.84 19.1 21.84C17.15 21.84 15.53 20.2201 15.53 18.2701V15.46C15.53 14.49 16.29 13.62 17.37 13.62C18.34 13.62 19.21 14.38 19.21 15.46V18.49" stroke="#292D32" stroke-width="1.5" stroke-linecap="round" stroke-linejoin="round"/>
</svg>
