<svg width="25" height="24" viewBox="0 0 25 24" fill="none" xmlns="http://www.w3.org/2000/svg">
<path d="M9.63965 22H15.6396C20.6396 22 22.6396 20 22.6396 15V9C22.6396 4 20.6396 2 15.6396 2H9.63965C4.63965 2 2.63965 4 2.63965 9V15C2.63965 20 4.63965 22 9.63965 22Z" stroke="#292D32" stroke-width="1.5" stroke-linecap="round" stroke-linejoin="round"/>
<path opacity="0.4" d="M2.63965 12.7001L8.63965 12.6801C9.38965 12.6801 10.2296 13.2501 10.5096 13.9501L11.6496 16.8301C11.9096 17.4801 12.3196 17.4801 12.5796 16.8301L14.8696 11.0201C15.0896 10.4601 15.4996 10.4401 15.7796 10.9701L16.8196 12.9401C17.1296 13.5301 17.9296 14.0101 18.5896 14.0101H22.6496" stroke="#292D32" stroke-width="1.5" stroke-linecap="round" stroke-linejoin="round"/>
</svg>
