<svg width="25" height="24" viewBox="0 0 25 24" fill="none" xmlns="http://www.w3.org/2000/svg">
<path d="M22.6703 17.1999C22.6703 18.0999 22.4203 18.9499 21.9703 19.6699C21.1403 21.0599 19.6203 21.9999 17.8703 21.9999C16.1203 21.9999 14.5903 21.0599 13.7703 19.6699C13.3303 18.9499 13.0703 18.0999 13.0703 17.1999C13.0703 14.5499 15.2203 12.3999 17.8703 12.3999C20.5203 12.3999 22.6703 14.5499 22.6703 17.1999Z" stroke="#292D32" stroke-width="1.5" stroke-miterlimit="10" stroke-linecap="round" stroke-linejoin="round"/>
<path d="M16 17.2L17.18 18.38L19.74 16.02" stroke="#292D32" stroke-width="1.5" stroke-linecap="round" stroke-linejoin="round"/>
<path opacity="0.4" d="M22.6699 8.69012C22.6699 10.6601 22.1599 12.4001 21.3599 13.9101C20.4799 12.9801 19.2399 12.4001 17.8699 12.4001C15.2199 12.4001 13.0699 14.5501 13.0699 17.2001C13.0699 18.4301 13.5399 19.5501 14.2999 20.4001C13.9299 20.5701 13.5899 20.7101 13.2899 20.8101C12.9499 20.9301 12.3899 20.9301 12.0499 20.8101C9.14992 19.8201 2.66992 15.6901 2.66992 8.69012C2.66992 5.60012 5.15992 3.1001 8.22992 3.1001C10.0399 3.1001 11.6599 3.98014 12.6699 5.33014C13.6799 3.98014 15.2999 3.1001 17.1099 3.1001C20.1799 3.1001 22.6699 5.60012 22.6699 8.69012Z" stroke="#292D32" stroke-width="1.5" stroke-linecap="round" stroke-linejoin="round"/>
</svg>
