<svg width="25" height="24" viewBox="0 0 25 24" fill="none" xmlns="http://www.w3.org/2000/svg">
<path opacity="0.4" d="M6.77991 17.4998C4.56991 15.4298 2.66992 12.4798 2.66992 8.67981C2.66992 5.58981 5.15992 3.08984 8.22992 3.08984C10.0499 3.08984 11.6599 3.96983 12.6699 5.32983C13.6799 3.96983 15.2999 3.08984 17.1099 3.08984C18.2599 3.08984 19.3299 3.4398 20.2199 4.0498" stroke="#292D32" stroke-width="1.5" stroke-linecap="round" stroke-linejoin="round"/>
<path opacity="0.4" d="M22.4094 7C22.5794 7.53 22.6694 8.1 22.6694 8.69C22.6694 15.69 16.1894 19.82 13.2894 20.82C12.9494 20.94 12.3894 20.94 12.0494 20.82C11.3994 20.6 10.5795 20.22 9.68945 19.69" stroke="#292D32" stroke-width="1.5" stroke-linecap="round" stroke-linejoin="round"/>
<path d="M22.6699 2L2.66992 22" stroke="#292D32" stroke-width="1.5" stroke-linecap="round" stroke-linejoin="round"/>
</svg>
