<svg width="25" height="24" viewBox="0 0 25 24" fill="none" xmlns="http://www.w3.org/2000/svg">
<path opacity="0.4" d="M22.1599 12.0001C22.4799 10.9801 22.6699 9.88012 22.6699 8.69012C22.6699 5.60012 20.1799 3.1001 17.1099 3.1001C15.2899 3.1001 13.6799 3.98015 12.6699 5.34015C11.6599 3.98015 10.0399 3.1001 8.22992 3.1001C5.15992 3.1001 2.66992 5.60012 2.66992 8.69012C2.66992 15.6901 9.14992 19.8201 12.0499 20.8201C12.2199 20.8801 12.4399 20.9101 12.6699 20.9101" stroke="#292D32" stroke-width="1.5" stroke-linecap="round" stroke-linejoin="round"/>
<path d="M18.41 21.0001C20.1773 21.0001 21.61 19.5674 21.61 17.8001C21.61 16.0328 20.1773 14.6001 18.41 14.6001C16.6426 14.6001 15.21 16.0328 15.21 17.8001C15.21 19.5674 16.6426 21.0001 18.41 21.0001Z" stroke="#292D32" stroke-width="1.5" stroke-linecap="round" stroke-linejoin="round"/>
<path d="M22.21 21.6001L21.21 20.6001" stroke="#292D32" stroke-width="1.5" stroke-linecap="round" stroke-linejoin="round"/>
</svg>
