<svg width="25" height="24" viewBox="0 0 25 24" fill="none" xmlns="http://www.w3.org/2000/svg">
<path d="M22.6703 17.1999C22.6703 19.8499 20.5203 21.9999 17.8703 21.9999C16.4503 21.9999 15.1803 21.3799 14.3003 20.3999C13.5403 19.5499 13.0703 18.4299 13.0703 17.1999C13.0703 14.5499 15.2203 12.3999 17.8703 12.3999C19.2403 12.3999 20.4803 12.9799 21.3603 13.9099C21.3503 13.9099 21.3503 13.9099 21.3603 13.9199C22.1703 14.7799 22.6703 15.9299 22.6703 17.1999Z" stroke="#292D32" stroke-width="1.5" stroke-miterlimit="10" stroke-linecap="round" stroke-linejoin="round"/>
<path d="M19.1501 18.54L16.6201 16" stroke="#292D32" stroke-width="1.5" stroke-miterlimit="10" stroke-linecap="round" stroke-linejoin="round"/>
<path d="M19.1199 16.0303L16.5898 18.5703" stroke="#292D32" stroke-width="1.5" stroke-miterlimit="10" stroke-linecap="round" stroke-linejoin="round"/>
<path opacity="0.4" d="M22.6699 8.69012C22.6699 10.6601 22.1599 12.4001 21.3599 13.9101C20.4799 12.9801 19.2399 12.4001 17.8699 12.4001C15.2199 12.4001 13.0699 14.5501 13.0699 17.2001C13.0699 18.4301 13.5399 19.5501 14.2999 20.4001C13.9299 20.5701 13.5899 20.7101 13.2899 20.8101C12.9499 20.9301 12.3899 20.9301 12.0499 20.8101C9.14993 19.8201 2.66992 15.6901 2.66992 8.69012C2.66992 5.60012 5.15992 3.1001 8.22992 3.1001C10.0399 3.1001 11.6599 3.98014 12.6699 5.33014C13.6799 3.98014 15.2999 3.1001 17.1099 3.1001C20.1799 3.1001 22.6699 5.60012 22.6699 8.69012Z" stroke="#292D32" stroke-width="1.5" stroke-linecap="round" stroke-linejoin="round"/>
</svg>
