<svg width="25" height="24" viewBox="0 0 25 24" fill="none" xmlns="http://www.w3.org/2000/svg">
<path d="M5.66992 8C7.32678 8 8.66992 6.65685 8.66992 5C8.66992 3.34315 7.32678 2 5.66992 2C4.01307 2 2.66992 3.34315 2.66992 5C2.66992 6.65685 4.01307 8 5.66992 8Z" stroke="#292D32" stroke-width="1.5" stroke-linecap="round" stroke-linejoin="round"/>
<path d="M19.6699 15C21.3268 15 22.6699 13.6569 22.6699 12C22.6699 10.3431 21.3268 9 19.6699 9C18.0131 9 16.6699 10.3431 16.6699 12C16.6699 13.6569 18.0131 15 19.6699 15Z" stroke="#292D32" stroke-width="1.5" stroke-linecap="round" stroke-linejoin="round"/>
<path d="M5.66992 22C7.32678 22 8.66992 20.6569 8.66992 19C8.66992 17.3431 7.32678 16 5.66992 16C4.01307 16 2.66992 17.3431 2.66992 19C2.66992 20.6569 4.01307 22 5.66992 22Z" stroke="#292D32" stroke-width="1.5" stroke-linecap="round" stroke-linejoin="round"/>
<path opacity="0.4" d="M16.6699 12H9.66992C7.46992 12 5.66992 11 5.66992 8V16" stroke="#292D32" stroke-width="1.5" stroke-linecap="round" stroke-linejoin="round"/>
</svg>
