<svg width="25" height="24" viewBox="0 0 25 24" fill="none" xmlns="http://www.w3.org/2000/svg">
<g opacity="0.4">
<path d="M8.46973 10.2V14.3999" stroke="#292D32" stroke-width="1.5" stroke-linecap="round" stroke-linejoin="round"/>
<path d="M8.61993 9.89999C9.69689 9.89999 10.5699 9.02697 10.5699 7.95001C10.5699 6.87306 9.69689 6 8.61993 6C7.54298 6 6.66992 6.87306 6.66992 7.95001C6.66992 9.02697 7.54298 9.89999 8.61993 9.89999Z" stroke="#292D32" stroke-width="1.5" stroke-linecap="round" stroke-linejoin="round"/>
<path d="M8.46991 17.9999C9.46402 17.9999 10.2699 17.194 10.2699 16.1999C10.2699 15.2058 9.46402 14.3999 8.46991 14.3999C7.4758 14.3999 6.66992 15.2058 6.66992 16.1999C6.66992 17.194 7.4758 17.9999 8.46991 17.9999Z" stroke="#292D32" stroke-width="1.5" stroke-linecap="round" stroke-linejoin="round"/>
<path d="M16.8698 17.9999C17.8639 17.9999 18.6698 17.194 18.6698 16.1999C18.6698 15.2058 17.8639 14.3999 16.8698 14.3999C15.8757 14.3999 15.0698 15.2058 15.0698 16.1999C15.0698 17.194 15.8757 17.9999 16.8698 17.9999Z" stroke="#292D32" stroke-width="1.5" stroke-linecap="round" stroke-linejoin="round"/>
<path d="M8.5498 10.2C8.8198 11.25 9.77979 12.0299 10.9098 12.0199L12.9698 12.0099C14.5398 11.9999 15.8798 13.01 16.3698 14.42" stroke="#292D32" stroke-width="1.5" stroke-linecap="round" stroke-linejoin="round"/>
</g>
<path d="M9.66992 22H15.6699C20.6699 22 22.6699 20 22.6699 15V9C22.6699 4 20.6699 2 15.6699 2H9.66992C4.66992 2 2.66992 4 2.66992 9V15C2.66992 20 4.66992 22 9.66992 22Z" stroke="#292D32" stroke-width="1.5" stroke-linecap="round" stroke-linejoin="round"/>
</svg>
