<svg width="25" height="24" viewBox="0 0 25 24" fill="none" xmlns="http://www.w3.org/2000/svg">
<g opacity="0.4">
<path d="M8.46973 13.8001V9.6001" stroke="#292D32" stroke-width="1.5" stroke-linecap="round" stroke-linejoin="round"/>
<path d="M8.61993 18.0001C9.69689 18.0001 10.5699 17.127 10.5699 16.0501C10.5699 14.9731 9.69689 14.1001 8.61993 14.1001C7.54298 14.1001 6.66992 14.9731 6.66992 16.0501C6.66992 17.127 7.54298 18.0001 8.61993 18.0001Z" stroke="#292D32" stroke-width="1.5" stroke-linecap="round" stroke-linejoin="round"/>
<path d="M8.46991 9.60001C9.46402 9.60001 10.2699 8.7941 10.2699 7.79999C10.2699 6.80588 9.46402 6 8.46991 6C7.4758 6 6.66992 6.80588 6.66992 7.79999C6.66992 8.7941 7.4758 9.60001 8.46991 9.60001Z" stroke="#292D32" stroke-width="1.5" stroke-linecap="round" stroke-linejoin="round"/>
<path d="M16.8698 9.60001C17.8639 9.60001 18.6698 8.7941 18.6698 7.79999C18.6698 6.80588 17.8639 6 16.8698 6C15.8757 6 15.0698 6.80588 15.0698 7.79999C15.0698 8.7941 15.8757 9.60001 16.8698 9.60001Z" stroke="#292D32" stroke-width="1.5" stroke-linecap="round" stroke-linejoin="round"/>
<path d="M8.5498 13.8001C8.8198 12.7501 9.77979 11.9701 10.9098 11.9801L12.9698 11.9901C14.5398 12.0001 15.8798 10.9901 16.3698 9.58008" stroke="#292D32" stroke-width="1.5" stroke-linecap="round" stroke-linejoin="round"/>
</g>
<path d="M9.66992 2H15.6699C20.6699 2 22.6699 4 22.6699 9V15C22.6699 20 20.6699 22 15.6699 22H9.66992C4.66992 22 2.66992 20 2.66992 15V9C2.66992 4 4.66992 2 9.66992 2Z" stroke="#292D32" stroke-width="1.5" stroke-linecap="round" stroke-linejoin="round"/>
</svg>
