<svg width="25" height="24" viewBox="0 0 25 24" fill="none" xmlns="http://www.w3.org/2000/svg">
<path d="M10.7402 2.82003L3.81019 8.37002C3.03019 8.99002 2.53019 10.3 2.70019 11.28L4.03019 19.24C4.27019 20.66 5.63018 21.81 7.07018 21.81H18.2702C19.7002 21.81 21.0702 20.65 21.3102 19.24L22.6402 11.28C22.8002 10.3 22.3002 8.99002 21.5302 8.37002L14.6002 2.83004C13.5302 1.97004 11.8002 1.97003 10.7402 2.82003Z" stroke="#292D32" stroke-width="1.5" stroke-linecap="round" stroke-linejoin="round"/>
<path opacity="0.4" d="M12.6699 15.5C14.0506 15.5 15.1699 14.3807 15.1699 13C15.1699 11.6193 14.0506 10.5 12.6699 10.5C11.2892 10.5 10.1699 11.6193 10.1699 13C10.1699 14.3807 11.2892 15.5 12.6699 15.5Z" stroke="#292D32" stroke-width="1.5" stroke-linecap="round" stroke-linejoin="round"/>
</svg>
