<svg width="25" height="24" viewBox="0 0 25 24" fill="none" xmlns="http://www.w3.org/2000/svg">
<path d="M2.66992 22H22.6699" stroke="#292D32" stroke-width="1.5" stroke-miterlimit="10" stroke-linecap="round" stroke-linejoin="round"/>
<path d="M3.62012 22.0003L3.67012 9.97023C3.67012 9.36023 3.96012 8.78029 4.44012 8.40029L11.4401 2.95027C12.1601 2.39027 13.1701 2.39027 13.9001 2.95027L20.9001 8.39028C21.3901 8.77028 21.6701 9.35023 21.6701 9.97023V22.0003" stroke="#292D32" stroke-width="1.5" stroke-miterlimit="10" stroke-linejoin="round"/>
<path opacity="0.4" d="M13.6699 17H11.6699C10.8399 17 10.1699 17.67 10.1699 18.5V22H15.1699V18.5C15.1699 17.67 14.4999 17 13.6699 17Z" stroke="#292D32" stroke-width="1.5" stroke-miterlimit="10" stroke-linejoin="round"/>
<path opacity="0.4" d="M10.1699 13.75H8.16992C7.61992 13.75 7.16992 13.3 7.16992 12.75V11.25C7.16992 10.7 7.61992 10.25 8.16992 10.25H10.1699C10.7199 10.25 11.1699 10.7 11.1699 11.25V12.75C11.1699 13.3 10.7199 13.75 10.1699 13.75Z" stroke="#292D32" stroke-width="1.5" stroke-miterlimit="10" stroke-linejoin="round"/>
<path opacity="0.4" d="M17.1699 13.75H15.1699C14.6199 13.75 14.1699 13.3 14.1699 12.75V11.25C14.1699 10.7 14.6199 10.25 15.1699 10.25H17.1699C17.7199 10.25 18.1699 10.7 18.1699 11.25V12.75C18.1699 13.3 17.7199 13.75 17.1699 13.75Z" stroke="#292D32" stroke-width="1.5" stroke-miterlimit="10" stroke-linejoin="round"/>
<path d="M19.6697 7L19.6397 4H15.2397" stroke="#292D32" stroke-width="1.5" stroke-miterlimit="10" stroke-linecap="round" stroke-linejoin="round"/>
</svg>
