<svg width="25" height="24" viewBox="0 0 25 24" fill="none" xmlns="http://www.w3.org/2000/svg">
<path d="M22.3498 16.96L19.2198 9.65001C18.1598 7.17001 16.2098 7.07001 14.8998 9.43001L13.0098 12.84C12.0498 14.57 10.2598 14.72 9.01985 13.17L8.79985 12.89C7.50985 11.27 5.68985 11.47 4.75985 13.32L3.03985 16.77C1.82985 19.17 3.57985 22 6.25985 22H19.0198C21.6198 22 23.3698 19.35 22.3498 16.96Z" stroke="#292D32" stroke-width="1.5" stroke-linecap="round" stroke-linejoin="round"/>
<path opacity="0.4" d="M7.63965 8C9.2965 8 10.6396 6.65685 10.6396 5C10.6396 3.34315 9.2965 2 7.63965 2C5.98279 2 4.63965 3.34315 4.63965 5C4.63965 6.65685 5.98279 8 7.63965 8Z" stroke="#292D32" stroke-width="1.5" stroke-linecap="round" stroke-linejoin="round"/>
</svg>
