<svg width="25" height="24" viewBox="0 0 25 24" fill="none" xmlns="http://www.w3.org/2000/svg">
<path d="M9.66992 9L9.65991 16.93C9.65991 18.45 8.01994 19.42 6.68994 18.68L4.17993 17.29C3.85993 17.11 3.66992 16.78 3.66992 16.42V7.6C3.66992 7.24 3.86993 6.90001 4.17993 6.73001L12.1799 2.29001C12.4799 2.12001 12.8499 2.12001 13.1499 2.29001L21.1499 6.73001C21.4699 6.91001 21.6599 7.24 21.6599 7.6V16.42C21.6599 16.78 21.4599 17.12 21.1499 17.29L13.1499 21.73C12.8499 21.9 12.4799 21.9 12.1799 21.73L10.6699 21" stroke="black" stroke-width="1.5" stroke-miterlimit="10" stroke-linecap="round" stroke-linejoin="round"/>
<path opacity="0.4" d="M17.6699 10.75C17.6699 9.78 16.8899 9 15.9199 9H14.1699C13.1999 9 12.4199 9.78 12.4199 10.75C12.4199 11.72 13.1999 12.5 14.1699 12.5H15.9199C16.8899 12.5 17.6699 13.28 17.6699 14.25C17.6699 15.22 16.8899 16 15.9199 16H14.1699C13.1999 16 12.4199 15.22 12.4199 14.25" stroke="black" stroke-width="1.5" stroke-miterlimit="10" stroke-linecap="round" stroke-linejoin="round"/>
</svg>
