<svg width="25" height="24" viewBox="0 0 25 24" fill="none" xmlns="http://www.w3.org/2000/svg">
<path d="M7.93015 2H17.4001C18.0501 2 18.6301 2.02003 19.1501 2.09003C21.9201 2.40003 22.6702 3.70001 22.6702 7.26001V13.58C22.6702 17.14 21.9201 18.44 19.1501 18.75C18.6301 18.82 18.0601 18.84 17.4001 18.84H7.93015C7.28015 18.84 6.70015 18.82 6.18015 18.75C3.41015 18.44 2.66016 17.14 2.66016 13.58V7.26001C2.66016 3.70001 3.41015 2.40003 6.18015 2.09003C6.70015 2.02003 7.28015 2 7.93015 2Z" stroke="#292D32" stroke-width="1.5" stroke-linecap="round" stroke-linejoin="round"/>
<path opacity="0.4" d="M14.25 8.32007H17.93" stroke="#292D32" stroke-width="1.5" stroke-linecap="round" stroke-linejoin="round"/>
<path opacity="0.4" d="M7.41016 14.1099H7.43015H17.9402" stroke="#292D32" stroke-width="1.5" stroke-linecap="round" stroke-linejoin="round"/>
<path opacity="0.4" d="M7.66992 22H17.6699" stroke="#292D32" stroke-width="1.5" stroke-linecap="round" stroke-linejoin="round"/>
<path opacity="0.4" d="M7.86462 8.30005H7.87361" stroke="#292D32" stroke-width="2" stroke-linecap="round" stroke-linejoin="round"/>
<path opacity="0.4" d="M11.1644 8.30005H11.1734" stroke="#292D32" stroke-width="2" stroke-linecap="round" stroke-linejoin="round"/>
</svg>
