<svg width="25" height="24" viewBox="0 0 25 24" fill="none" xmlns="http://www.w3.org/2000/svg">
<path d="M8.16992 4H17.1699C17.7899 4 18.3399 4.02 18.8299 4.09C21.4599 4.38 22.1699 5.62 22.1699 9V15C22.1699 18.38 21.4599 19.62 18.8299 19.91C18.3399 19.98 17.7899 20 17.1699 20H8.16992C7.54992 20 6.99992 19.98 6.50992 19.91C3.87992 19.62 3.16992 18.38 3.16992 15V9C3.16992 5.62 3.87992 4.38 6.50992 4.09C6.99992 4.02 7.54992 4 8.16992 4Z" stroke="#292D32" stroke-width="1.5" stroke-linecap="round" stroke-linejoin="round"/>
<path opacity="0.4" d="M14.1699 10H17.6699" stroke="#292D32" stroke-width="1.5" stroke-linecap="round" stroke-linejoin="round"/>
<path opacity="0.4" d="M7.66992 15.5H7.68992H17.6699" stroke="#292D32" stroke-width="1.5" stroke-linecap="round" stroke-linejoin="round"/>
<path opacity="0.4" d="M10.764 10H10.773" stroke="#292D32" stroke-width="2" stroke-linecap="round" stroke-linejoin="round"/>
<path opacity="0.4" d="M7.76404 10H7.77302" stroke="#292D32" stroke-width="2" stroke-linecap="round" stroke-linejoin="round"/>
</svg>
