<svg width="25" height="24" viewBox="0 0 25 24" fill="none" xmlns="http://www.w3.org/2000/svg">
<path d="M20.7001 2.47998L4.8501 18.33" stroke="#292D32" stroke-width="1.5" stroke-linecap="round" stroke-linejoin="round"/>
<path d="M5.92 13.0002C5.5 12.0302 5.25 10.9802 5.25 9.90017C5.25 4.99017 9.47 1.12017 14.27 2.17017C15.73 2.49017 17.03 3.27017 18.03 4.35017" stroke="#292D32" stroke-width="1.5" stroke-linecap="round" stroke-linejoin="round"/>
<path opacity="0.4" d="M19.7301 7.2998C20.9501 11.1798 18.9801 15.0798 16.1901 16.8698V18.0298C16.1901 18.3198 16.2901 18.9898 15.2901 18.9898H10.0901C9.06008 18.9898 9.19008 18.5598 9.19008 18.0298V16.8698C8.71008 16.5698 8.26008 16.1998 7.83008 15.7698" stroke="#292D32" stroke-width="1.5" stroke-linecap="round" stroke-linejoin="round"/>
<path opacity="0.4" d="M9.16992 22.0002C11.4599 21.3502 13.8799 21.3502 16.1699 22.0002" stroke="#292D32" stroke-width="1.5" stroke-linecap="round" stroke-linejoin="round"/>
</svg>
