<svg width="25" height="24" viewBox="0 0 25 24" fill="none" xmlns="http://www.w3.org/2000/svg">
<path d="M13.6795 2.92007L19.5795 5.54007C21.2795 6.29007 21.2795 7.53007 19.5795 8.28007L13.6795 10.9001C13.0095 11.2001 11.9095 11.2001 11.2395 10.9001L5.33945 8.28007C3.63945 7.53007 3.63945 6.29007 5.33945 5.54007L11.2395 2.92007C11.9095 2.62007 13.0095 2.62007 13.6795 2.92007Z" stroke="#292D32" stroke-width="1.5" stroke-linecap="round" stroke-linejoin="round"/>
<path opacity="0.4" d="M3.66992 11C3.66992 11.84 4.29992 12.81 5.06992 13.15L11.8599 16.17C12.3799 16.4 12.9699 16.4 13.4799 16.17L20.2699 13.15C21.0399 12.81 21.6699 11.84 21.6699 11" stroke="#292D32" stroke-width="1.5" stroke-linecap="round" stroke-linejoin="round"/>
<path opacity="0.4" d="M3.66992 16C3.66992 16.93 4.21992 17.77 5.06992 18.15L11.8599 21.17C12.3799 21.4 12.9699 21.4 13.4799 21.17L20.2699 18.15C21.1199 17.77 21.6699 16.93 21.6699 16" stroke="#292D32" stroke-width="1.5" stroke-linecap="round" stroke-linejoin="round"/>
</svg>
