<svg width="25" height="24" viewBox="0 0 25 24" fill="none" xmlns="http://www.w3.org/2000/svg">
<path d="M12.6396 22C18.1625 22 22.6396 17.5228 22.6396 12C22.6396 6.47715 18.1625 2 12.6396 2C7.1168 2 2.63965 6.47715 2.63965 12C2.63965 17.5228 7.1168 22 12.6396 22Z" stroke="#292D32" stroke-width="1.5" stroke-linecap="round" stroke-linejoin="round"/>
<path d="M12.6699 16.5C15.1552 16.5 17.1699 14.4853 17.1699 12C17.1699 9.51472 15.1552 7.5 12.6699 7.5C10.1846 7.5 8.16992 9.51472 8.16992 12C8.16992 14.4853 10.1846 16.5 12.6699 16.5Z" stroke="#292D32" stroke-width="1.5" stroke-linecap="round" stroke-linejoin="round"/>
<path opacity="0.4" d="M5.57031 4.92993L9.11031 8.45993" stroke="#292D32" stroke-width="1.5" stroke-linecap="round" stroke-linejoin="round"/>
<path opacity="0.4" d="M5.57031 19.07L9.11031 15.54" stroke="#292D32" stroke-width="1.5" stroke-linecap="round" stroke-linejoin="round"/>
<path opacity="0.4" d="M19.7197 19.07L16.1797 15.54" stroke="#292D32" stroke-width="1.5" stroke-linecap="round" stroke-linejoin="round"/>
<path opacity="0.4" d="M19.7197 4.92993L16.1797 8.45993" stroke="#292D32" stroke-width="1.5" stroke-linecap="round" stroke-linejoin="round"/>
</svg>
