<svg width="25" height="24" viewBox="0 0 25 24" fill="none" xmlns="http://www.w3.org/2000/svg">
<path d="M11.4198 2.44982C12.1098 1.85982 13.2398 1.85982 13.9398 2.44982L15.5198 3.80993C15.8198 4.06993 16.3798 4.2799 16.7798 4.2799H18.4798C19.5398 4.2799 20.4098 5.14983 20.4098 6.20983V7.90991C20.4098 8.29991 20.6198 8.86992 20.8798 9.16992L22.2398 10.7499C22.8298 11.4399 22.8298 12.5699 22.2398 13.2699L20.8798 14.8498C20.6198 15.1498 20.4098 15.7099 20.4098 16.1099V17.8099C20.4098 18.8699 19.5398 19.7399 18.4798 19.7399H16.7798C16.3898 19.7399 15.8198 19.9498 15.5198 20.2098L13.9398 21.5698C13.2498 22.1598 12.1198 22.1598 11.4198 21.5698L9.83982 20.2098C9.53982 19.9498 8.97981 19.7399 8.57981 19.7399H6.84979C5.78979 19.7399 4.9198 18.8699 4.9198 17.8099V16.0998C4.9198 15.7098 4.70981 15.1498 4.45981 14.8498L3.1098 13.2599C2.5298 12.5699 2.5298 11.4499 3.1098 10.7599L4.45981 9.16992C4.70981 8.86992 4.9198 8.30992 4.9198 7.91992V6.20983C4.9198 5.14983 5.78979 4.2799 6.84979 4.2799H8.57981C8.96981 4.2799 9.53982 4.06993 9.83982 3.80993L11.4198 2.44982Z" stroke="#292D32" stroke-width="1.5" stroke-linecap="round" stroke-linejoin="round"/>
<g opacity="0.4">
<path d="M10.5601 14.82L12.01 15.94C12.2 16.13 12.6201 16.22 12.9001 16.22H14.67C15.23 16.22 15.84 15.8 15.98 15.24L17.1 11.82C17.33 11.17 16.9101 10.6 16.2101 10.6H14.3401C14.0601 10.6 13.8301 10.3701 13.8701 10.0401L14.1 8.54008C14.19 8.12008 13.9101 7.65005 13.4901 7.51005C13.1201 7.37005 12.6501 7.56 12.4601 7.84L10.54 10.69" stroke="#292D32" stroke-width="1.5" stroke-miterlimit="10"/>
<path d="M8.16992 14.8201V10.2401C8.16992 9.58011 8.44992 9.3501 9.10992 9.3501H9.57993C10.2299 9.3501 10.5199 9.58011 10.5199 10.2401V14.8201C10.5199 15.4701 10.2399 15.7101 9.57993 15.7101H9.10992C8.44992 15.7101 8.16992 15.4801 8.16992 14.8201Z" stroke="#292D32" stroke-width="1.5" stroke-linecap="round" stroke-linejoin="round"/>
</g>
</svg>
