<svg width="25" height="24" viewBox="0 0 25 24" fill="none" xmlns="http://www.w3.org/2000/svg">
<g opacity="0.4">
<path d="M8.85148 16.02C8.09148 15.95 7.34148 15.6 6.76148 14.99C5.44148 13.6 5.44148 11.32 6.76148 9.93001L8.95149 7.63002C10.2715 6.24002 12.4415 6.24002 13.7715 7.63002C15.0915 9.02002 15.0915 11.3 13.7715 12.69L12.6815 13.84" stroke="#292D32" stroke-width="1.5" stroke-linecap="round" stroke-linejoin="round"/>
<path d="M16.492 7.97998C17.252 8.04998 18.002 8.39998 18.582 9.00998C19.902 10.4 19.902 12.68 18.582 14.07L16.392 16.37C15.072 17.76 12.902 17.76 11.572 16.37C10.252 14.98 10.252 12.7 11.572 11.31L12.662 10.16" stroke="#292D32" stroke-width="1.5" stroke-linecap="round" stroke-linejoin="round"/>
</g>
<path d="M9.67188 22H15.6719C20.6719 22 22.6719 20 22.6719 15V9C22.6719 4 20.6719 2 15.6719 2H9.67188C4.67188 2 2.67188 4 2.67188 9V15C2.67188 20 4.67188 22 9.67188 22Z" stroke="#292D32" stroke-width="1.5" stroke-linecap="round" stroke-linejoin="round"/>
</svg>
