<svg width="25" height="24" viewBox="0 0 25 24" fill="none" xmlns="http://www.w3.org/2000/svg">
<path opacity="0.4" d="M10.6899 17.52C11.1499 18.11 11.8699 18.5 12.6699 18.5C14.0499 18.5 15.1699 17.38 15.1699 16C15.1699 15.43 14.9799 14.9 14.6599 14.48" stroke="#292D32" stroke-width="1.5" stroke-linecap="round" stroke-linejoin="round"/>
<path d="M3.48992 20.8C2.87992 20.04 2.66992 18.83 2.66992 17V15C2.66992 11 3.66992 10 7.66992 10H17.6699C18.0299 10 18.3599 10.01 18.6699 10.03C21.8399 10.21 22.6699 11.36 22.6699 15V17C22.6699 21 21.6699 22 17.6699 22H7.66992C7.30992 22 6.97992 21.99 6.66992 21.97" stroke="#292D32" stroke-width="1.5" stroke-linecap="round" stroke-linejoin="round"/>
<path opacity="0.4" d="M6.66992 10V8C6.66992 4.69 7.66992 2 12.6699 2C16.8199 2 18.2099 3.38 18.5699 5.56" stroke="#292D32" stroke-width="1.5" stroke-linecap="round" stroke-linejoin="round"/>
<path d="M22.6699 2L2.66992 22" stroke="#292D32" stroke-width="1.5" stroke-linecap="round" stroke-linejoin="round"/>
</svg>
