<svg width="25" height="24" viewBox="0 0 25 24" fill="none" xmlns="http://www.w3.org/2000/svg">
<path d="M2.95996 7.77998V17.51C2.95996 19.41 4.30996 20.19 5.94996 19.25L8.29996 17.91C8.80996 17.62 9.65996 17.59 10.19 17.86L15.44 20.49C15.97 20.75 16.82 20.73 17.33 20.44L21.66 17.96C22.21 17.64 22.67 16.86 22.67 16.22V6.48998C22.67 4.58998 21.32 3.80998 19.68 4.74998L17.33 6.08998C16.82 6.37998 15.97 6.40998 15.44 6.13998L10.19 3.51998C9.65996 3.25998 8.80996 3.27998 8.29996 3.56998L3.96996 6.04998C3.40996 6.36998 2.95996 7.14998 2.95996 7.77998Z" stroke="#292D32" stroke-width="1.5" stroke-linecap="round" stroke-linejoin="round"/>
<path opacity="0.4" d="M9.22949 4V17" stroke="#292D32" stroke-width="1.5" stroke-linecap="round" stroke-linejoin="round"/>
<path opacity="0.4" d="M16.4004 6.62012V20.0001" stroke="#292D32" stroke-width="1.5" stroke-linecap="round" stroke-linejoin="round"/>
</svg>
