<svg width="25" height="24" viewBox="0 0 25 24" fill="none" xmlns="http://www.w3.org/2000/svg">
<path d="M2.66992 9.98V9C2.66992 4 4.66992 2 9.66992 2H15.6699C20.6699 2 22.6699 4 22.6699 9V15C22.6699 20 20.6699 22 15.6699 22H14.6699" stroke="#292D32" stroke-width="1.5" stroke-linecap="round" stroke-linejoin="round"/>
<g opacity="0.4">
<path d="M13.6699 11.0005L18.6799 5.98047H14.6699" stroke="#292D32" stroke-width="1.5" stroke-linecap="round" stroke-linejoin="round"/>
<path d="M18.6797 5.98047V9.99047" stroke="#292D32" stroke-width="1.5" stroke-linecap="round" stroke-linejoin="round"/>
</g>
<path opacity="0.4" d="M11.6699 16.15V18.85C11.6699 21.1 10.7699 22 8.51992 22H5.81992C3.56992 22 2.66992 21.1 2.66992 18.85V16.15C2.66992 13.9 3.56992 13 5.81992 13H8.51992C10.7699 13 11.6699 13.9 11.6699 16.15Z" stroke="#292D32" stroke-width="1.5" stroke-linecap="round" stroke-linejoin="round"/>
</svg>
