<svg width="25" height="24" viewBox="0 0 25 24" fill="none" xmlns="http://www.w3.org/2000/svg">
<path d="M22.5998 6.76001L19.2298 20.29C18.9898 21.3 18.0898 22 17.0498 22H3.90981C2.39981 22 1.31982 20.5199 1.76982 19.0699L5.97981 5.55005C6.26981 4.61005 7.13983 3.95996 8.11983 3.95996H20.4198C21.3698 3.95996 22.1598 4.53997 22.4898 5.33997C22.6798 5.76997 22.7198 6.26001 22.5998 6.76001Z" stroke="#292D32" stroke-width="1.5" stroke-miterlimit="10"/>
<path opacity="0.4" d="M16.6699 22H21.4499C22.7399 22 23.7499 20.91 23.6599 19.62L22.6699 6" stroke="#292D32" stroke-width="1.5" stroke-miterlimit="10" stroke-linecap="round" stroke-linejoin="round"/>
<path d="M10.3499 6.38L11.3899 2.06006" stroke="#292D32" stroke-width="1.5" stroke-miterlimit="10" stroke-linecap="round" stroke-linejoin="round"/>
<path d="M17.0498 6.39001L17.9898 2.05005" stroke="#292D32" stroke-width="1.5" stroke-miterlimit="10" stroke-linecap="round" stroke-linejoin="round"/>
<path opacity="0.4" d="M8.36987 12H16.3699" stroke="#292D32" stroke-width="1.5" stroke-miterlimit="10" stroke-linecap="round" stroke-linejoin="round"/>
<path opacity="0.4" d="M7.36987 16H15.3699" stroke="#292D32" stroke-width="1.5" stroke-miterlimit="10" stroke-linecap="round" stroke-linejoin="round"/>
</svg>
