<svg width="25" height="24" viewBox="0 0 25 24" fill="none" xmlns="http://www.w3.org/2000/svg">
<path opacity="0.4" d="M22.6699 7.42993V13.4299C22.6699 14.9299 22.1699 16.1799 21.2899 17.0599C20.4199 17.9299 19.1699 18.4299 17.6699 18.4299V20.5599C17.6699 21.3599 16.7799 21.84 16.1199 21.4L11.6699 18.4299H9.54993C9.62993 18.1299 9.66992 17.8199 9.66992 17.4999C9.66992 16.4799 9.27992 15.54 8.63992 14.83C7.91992 14.01 6.84992 13.4999 5.66992 13.4999C4.54992 13.4999 3.52993 13.96 2.79993 14.71C2.70993 14.31 2.66992 13.8799 2.66992 13.4299V7.42993C2.66992 4.42993 4.66992 2.42993 7.66992 2.42993H17.6699C20.6699 2.42993 22.6699 4.42993 22.6699 7.42993Z" stroke="#292D32" stroke-width="1.5" stroke-miterlimit="10" stroke-linecap="round" stroke-linejoin="round"/>
<path d="M9.66992 17.5C9.66992 17.82 9.62993 18.13 9.54993 18.43C9.45993 18.83 9.29994 19.22 9.08994 19.56C8.39994 20.72 7.12992 21.5 5.66992 21.5C4.63992 21.5 3.70992 21.11 3.00992 20.47C2.70992 20.21 2.44991 19.9 2.24991 19.56C1.87991 18.96 1.66992 18.25 1.66992 17.5C1.66992 16.42 2.09993 15.43 2.79993 14.71C3.52993 13.96 4.54992 13.5 5.66992 13.5C6.84992 13.5 7.91992 14.01 8.63992 14.83C9.27992 15.54 9.66992 16.48 9.66992 17.5Z" stroke="#292D32" stroke-width="1.5" stroke-miterlimit="10" stroke-linecap="round" stroke-linejoin="round"/>
<path d="M6.73914 18.5399L4.61914 16.4299" stroke="#292D32" stroke-width="1.5" stroke-miterlimit="10" stroke-linecap="round" stroke-linejoin="round"/>
<path d="M6.7196 16.46L4.59961 18.5699" stroke="#292D32" stroke-width="1.5" stroke-miterlimit="10" stroke-linecap="round" stroke-linejoin="round"/>
<path d="M9.16992 10.5H16.1699" stroke="#292D32" stroke-width="1.5" stroke-miterlimit="10" stroke-linecap="round" stroke-linejoin="round"/>
</svg>
