<svg width="25" height="24" viewBox="0 0 25 24" fill="none" xmlns="http://www.w3.org/2000/svg">
<path d="M9.16992 18.97H8.66992C4.66992 18.97 2.66992 17.97 2.66992 12.97V7.96997C2.66992 3.96997 4.66992 1.96997 8.66992 1.96997H16.6699C20.6699 1.96997 22.6699 3.96997 22.6699 7.96997V12.97C22.6699 16.97 20.6699 18.97 16.6699 18.97H16.1699C15.8599 18.97 15.5599 19.12 15.3699 19.37L13.8699 21.37C13.2099 22.25 12.1299 22.25 11.4699 21.37L9.96991 19.37C9.80991 19.15 9.44992 18.97 9.16992 18.97Z" stroke="#292D32" stroke-width="1.5" stroke-miterlimit="10" stroke-linecap="round" stroke-linejoin="round"/>
<path opacity="0.4" d="M8.66992 8.69995L6.66992 10.7L8.66992 12.7" stroke="#292D32" stroke-width="1.5" stroke-miterlimit="10" stroke-linecap="round" stroke-linejoin="round"/>
<path opacity="0.4" d="M16.6699 8.69995L18.6699 10.7L16.6699 12.7" stroke="#292D32" stroke-width="1.5" stroke-miterlimit="10" stroke-linecap="round" stroke-linejoin="round"/>
<path opacity="0.4" d="M13.6699 8.37012L11.6699 13.0302" stroke="#292D32" stroke-width="1.5" stroke-miterlimit="10" stroke-linecap="round" stroke-linejoin="round"/>
</svg>
