<svg width="25" height="24" viewBox="0 0 25 24" fill="none" xmlns="http://www.w3.org/2000/svg">
<path d="M22.6699 10V13C22.6699 17 20.6699 19 16.6699 19H16.1699C15.8599 19 15.5599 19.15 15.3699 19.4L13.8699 21.4C13.2099 22.28 12.1299 22.28 11.4699 21.4L9.96992 19.4C9.80992 19.18 9.43992 19 9.16992 19H8.66992C4.66992 19 2.66992 18 2.66992 13V8C2.66992 4 4.66992 2 8.66992 2H14.6699" stroke="#292D32" stroke-width="1.5" stroke-miterlimit="10" stroke-linecap="round" stroke-linejoin="round"/>
<path opacity="0.4" d="M20.1699 7C21.5506 7 22.6699 5.88071 22.6699 4.5C22.6699 3.11929 21.5506 2 20.1699 2C18.7892 2 17.6699 3.11929 17.6699 4.5C17.6699 5.88071 18.7892 7 20.1699 7Z" stroke="#292D32" stroke-width="1.5" stroke-linecap="round" stroke-linejoin="round"/>
<path opacity="0.4" d="M16.6664 11H16.6754" stroke="#292D32" stroke-width="2" stroke-linecap="round" stroke-linejoin="round"/>
<path opacity="0.4" d="M12.6654 11H12.6744" stroke="#292D32" stroke-width="2" stroke-linecap="round" stroke-linejoin="round"/>
<path opacity="0.4" d="M8.66443 11H8.67341" stroke="#292D32" stroke-width="2" stroke-linecap="round" stroke-linejoin="round"/>
</svg>
