<svg width="25" height="24" viewBox="0 0 25 24" fill="none" xmlns="http://www.w3.org/2000/svg">
<path d="M12.6699 15.5C14.8799 15.5 16.6699 13.71 16.6699 11.5V6C16.6699 3.79 14.8799 2 12.6699 2C10.4599 2 8.66992 3.79 8.66992 6V11.5C8.66992 13.71 10.4599 15.5 12.6699 15.5Z" stroke="#292D32" stroke-width="1.5" stroke-linecap="round" stroke-linejoin="round"/>
<path opacity="0.4" d="M11.2803 6.43C12.1803 6.1 13.1603 6.1 14.0603 6.43" stroke="#292D32" stroke-width="1.5" stroke-linecap="round" stroke-linejoin="round"/>
<path opacity="0.4" d="M11.8701 8.55001C12.4001 8.41001 12.9501 8.41001 13.4801 8.55001" stroke="#292D32" stroke-width="1.5" stroke-linecap="round" stroke-linejoin="round"/>
<g opacity="0.4">
<path d="M5.01953 9.65039V11.3504C5.01953 15.5704 8.44953 19.0004 12.6695 19.0004C16.8895 19.0004 20.3195 15.5704 20.3195 11.3504V9.65039" stroke="#292D32" stroke-width="1.5" stroke-linecap="round" stroke-linejoin="round"/>
<path d="M12.6699 19V22" stroke="#292D32" stroke-width="1.5" stroke-linecap="round" stroke-linejoin="round"/>
</g>
</svg>
