<svg width="25" height="24" viewBox="0 0 25 24" fill="none" xmlns="http://www.w3.org/2000/svg">
<path d="M16.6699 6.3V6C16.6699 3.79 14.8799 2 12.6699 2C10.4599 2 8.66992 3.79 8.66992 6V11" stroke="#292D32" stroke-width="1.5" stroke-linecap="round" stroke-linejoin="round"/>
<path d="M5.01953 9.64999V11.35C5.01953 12.41 5.22953 13.41 5.61953 14.33" stroke="#292D32" stroke-width="1.5" stroke-linecap="round" stroke-linejoin="round"/>
<path d="M20.7396 2.84L4.59961 18.99" stroke="#292D32" stroke-width="1.5" stroke-linecap="round" stroke-linejoin="round"/>
<path d="M11.6699 3V6" stroke="#292D32" stroke-width="1.5" stroke-linecap="round" stroke-linejoin="round"/>
<g opacity="0.4">
<path d="M9.70898 14.19C10.439 15 11.499 15.5 12.669 15.5C14.879 15.5 16.669 13.71 16.669 11.5V11" stroke="#292D32" stroke-width="1.5" stroke-linecap="round" stroke-linejoin="round"/>
<path d="M7.44922 16.9504C8.81922 18.2204 10.6492 19.0004 12.6692 19.0004C16.8892 19.0004 20.3192 15.5704 20.3192 11.3504V9.65039" stroke="#292D32" stroke-width="1.5" stroke-linecap="round" stroke-linejoin="round"/>
<path d="M12.6699 19V22" stroke="#292D32" stroke-width="1.5" stroke-linecap="round" stroke-linejoin="round"/>
</g>
</svg>
