<svg width="25" height="24" viewBox="0 0 25 24" fill="none" xmlns="http://www.w3.org/2000/svg">
<path d="M18.6699 15V19C18.6699 20.65 17.3199 22 15.6699 22H9.66992C8.01992 22 6.66992 20.65 6.66992 19V13.98L10.5599 14C11.2899 14 12.0099 14.17 12.6699 14.5C13.3299 14.83 14.0499 15 14.7899 15H18.6699Z" stroke="#292D32" stroke-width="1.5" stroke-linecap="round" stroke-linejoin="round"/>
<path opacity="0.4" d="M18.6699 10.83V15H14.7899C14.0499 15 13.3299 14.83 12.6699 14.5C12.0099 14.17 11.2899 14 10.5599 14L6.66992 13.98V10.83C6.66992 10.37 6.92995 9.74 7.25995 9.41L9.37994 7.28999C9.55994 7.10999 9.66992 6.85 9.66992 6.59V5H15.6699V6.59C15.6699 6.85 15.7799 7.10999 15.9599 7.28999L18.0799 9.41C18.4099 9.74 18.6699 10.37 18.6699 10.83Z" stroke="#292D32" stroke-width="1.5" stroke-linecap="round" stroke-linejoin="round"/>
<path d="M18.6699 16V15" stroke="#292D32" stroke-width="1.5" stroke-linecap="round" stroke-linejoin="round"/>
<path d="M6.66992 14.98V13.98" stroke="#292D32" stroke-width="1.5" stroke-linecap="round" stroke-linejoin="round"/>
<path d="M15.1699 5H10.1699C9.33992 5 8.66992 4.32 8.66992 3.5C8.66992 2.68 9.33992 2 10.1699 2H15.1699C15.9999 2 16.6699 2.68 16.6699 3.5C16.6699 4.32 15.9999 5 15.1699 5Z" stroke="#292D32" stroke-width="1.5" stroke-linecap="round" stroke-linejoin="round"/>
</svg>
