<svg width="25" height="24" viewBox="0 0 25 24" fill="none" xmlns="http://www.w3.org/2000/svg">
<path d="M22.6699 10V9C22.6699 4 20.6699 2 15.6699 2H9.66992C4.66992 2 2.66992 4 2.66992 9V15C2.66992 20 4.66992 22 9.66992 22H11.6699" stroke="#292D32" stroke-width="1.5" stroke-linecap="round" stroke-linejoin="round"/>
<g opacity="0.4">
<path d="M15.94 22C16.7353 22 17.38 21.3553 17.38 20.56C17.38 19.7647 16.7353 19.12 15.94 19.12C15.1447 19.12 14.5 19.7647 14.5 20.56C14.5 21.3553 15.1447 22 15.94 22Z" stroke="#292D32" stroke-width="1.5" stroke-linecap="round" stroke-linejoin="round"/>
<path d="M22.6701 19.6V13.96C22.6701 12.76 21.9201 12.59 21.1501 12.8L18.2601 13.59C17.7401 13.73 17.3701 14.15 17.3701 14.75V15.76V16.44V20.57" stroke="#292D32" stroke-width="1.5" stroke-linecap="round" stroke-linejoin="round"/>
<path d="M21.23 21.04C22.0253 21.04 22.67 20.3953 22.67 19.6C22.67 18.8047 22.0253 18.16 21.23 18.16C20.4347 18.16 19.79 18.8047 19.79 19.6C19.79 20.3953 20.4347 21.04 21.23 21.04Z" stroke="#292D32" stroke-width="1.5" stroke-linecap="round" stroke-linejoin="round"/>
<path d="M17.3799 16.43L22.6699 14.99" stroke="#292D32" stroke-width="1.5" stroke-linecap="round" stroke-linejoin="round"/>
</g>
</svg>
