<svg width="25" height="24" viewBox="0 0 25 24" fill="none" xmlns="http://www.w3.org/2000/svg">
<path d="M17.6699 20.5H7.66992C4.66992 20.5 2.66992 19 2.66992 15.5V8.5C2.66992 5 4.66992 3.5 7.66992 3.5H17.6699C20.6699 3.5 22.6699 5 22.6699 8.5V15.5C22.6699 19 20.6699 20.5 17.6699 20.5Z" stroke="#292D32" stroke-width="1.5" stroke-miterlimit="10" stroke-linecap="round" stroke-linejoin="round"/>
<path d="M12.6699 15C14.3268 15 15.6699 13.6569 15.6699 12C15.6699 10.3431 14.3268 9 12.6699 9C11.0131 9 9.66992 10.3431 9.66992 12C9.66992 13.6569 11.0131 15 12.6699 15Z" stroke="#292D32" stroke-width="1.5" stroke-miterlimit="10" stroke-linecap="round" stroke-linejoin="round"/>
<path opacity="0.4" d="M6.16992 9.5V14.5" stroke="#292D32" stroke-width="1.5" stroke-miterlimit="10" stroke-linecap="round" stroke-linejoin="round"/>
<path opacity="0.4" d="M19.1699 9.5V14.5" stroke="#292D32" stroke-width="1.5" stroke-miterlimit="10" stroke-linecap="round" stroke-linejoin="round"/>
</svg>
