<svg width="25" height="24" viewBox="0 0 25 24" fill="none" xmlns="http://www.w3.org/2000/svg">
<path opacity="0.4" d="M12.6699 14.5C14.0506 14.5 15.1699 13.3807 15.1699 12C15.1699 10.6193 14.0506 9.5 12.6699 9.5C11.2892 9.5 10.1699 10.6193 10.1699 12C10.1699 13.3807 11.2892 14.5 12.6699 14.5Z" stroke="#292D32" stroke-width="1.5" stroke-miterlimit="10" stroke-linecap="round" stroke-linejoin="round"/>
<path opacity="0.4" d="M19.1699 9.5V14.5" stroke="#292D32" stroke-width="1.5" stroke-miterlimit="10" stroke-linecap="round" stroke-linejoin="round"/>
<path d="M5.66992 22C7.87906 22 9.66992 20.2091 9.66992 18C9.66992 15.7909 7.87906 14 5.66992 14C3.46078 14 1.66992 15.7909 1.66992 18C1.66992 20.2091 3.46078 22 5.66992 22Z" stroke="#292D32" stroke-width="1.5" stroke-miterlimit="10" stroke-linecap="round" stroke-linejoin="round"/>
<path d="M5.91992 16.75V17.68C5.91992 18.03 5.73993 18.36 5.42993 18.54L4.66992 19" stroke="#292D32" stroke-width="1.5" stroke-miterlimit="10" stroke-linecap="round" stroke-linejoin="round"/>
<path d="M2.66992 15.2V9C2.66992 5.5 4.66992 4 7.66992 4H17.6699C20.6699 4 22.6699 5.5 22.6699 9V15C22.6699 18.5 20.6699 20 17.6699 20H9.16992" stroke="#292D32" stroke-width="1.5" stroke-miterlimit="10" stroke-linecap="round" stroke-linejoin="round"/>
</svg>
