<svg width="25" height="24" viewBox="0 0 25 24" fill="none" xmlns="http://www.w3.org/2000/svg">
<path d="M19.9699 7.91998V13.07C19.9699 16.15 18.2099 17.47 15.5699 17.47H6.77988C6.32988 17.47 5.89988 17.43 5.49988 17.34C5.24988 17.3 5.00989 17.23 4.78989 17.15C3.28989 16.59 2.37988 15.29 2.37988 13.07V7.91998C2.37988 4.83998 4.13988 3.52002 6.77988 3.52002H15.5699C17.8099 3.52002 19.4199 4.47001 19.8499 6.64001C19.9199 7.04001 19.9699 7.44998 19.9699 7.91998Z" stroke="#292D32" stroke-width="1.5" stroke-miterlimit="10" stroke-linecap="round" stroke-linejoin="round"/>
<path opacity="0.4" d="M22.97 10.92V16.07C22.97 19.15 21.21 20.47 18.57 20.47H9.78C9.04 20.47 8.37001 20.37 7.79001 20.15C6.60001 19.71 5.79 18.8 5.5 17.34C5.9 17.43 6.33 17.47 6.78 17.47H15.57C18.21 17.47 19.97 16.15 19.97 13.07V7.91998C19.97 7.44998 19.93 7.03001 19.85 6.64001C21.75 7.04001 22.97 8.37998 22.97 10.92Z" stroke="#292D32" stroke-width="1.5" stroke-miterlimit="10" stroke-linecap="round" stroke-linejoin="round"/>
<path d="M11.1703 13.14C12.6283 13.14 13.8103 11.958 13.8103 10.5C13.8103 9.04197 12.6283 7.85999 11.1703 7.85999C9.71226 7.85999 8.53027 9.04197 8.53027 10.5C8.53027 11.958 9.71226 13.14 11.1703 13.14Z" stroke="#292D32" stroke-width="1.5" stroke-miterlimit="10" stroke-linecap="round" stroke-linejoin="round"/>
<path opacity="0.4" d="M5.4502 8.30005V12.7001" stroke="#292D32" stroke-width="1.5" stroke-miterlimit="10" stroke-linecap="round" stroke-linejoin="round"/>
<path opacity="0.4" d="M16.8896 8.30005V12.7001" stroke="#292D32" stroke-width="1.5" stroke-miterlimit="10" stroke-linecap="round" stroke-linejoin="round"/>
</svg>
