<svg width="25" height="24" viewBox="0 0 25 24" fill="none" xmlns="http://www.w3.org/2000/svg">
<path d="M10.6699 16.95H6.87992C3.50992 16.95 2.66992 16.11 2.66992 12.74V6.74003C2.66992 3.37003 3.50992 2.53003 6.87992 2.53003H17.4099C20.7799 2.53003 21.6199 3.37003 21.6199 6.74003" stroke="#292D32" stroke-width="1.5" stroke-linecap="round" stroke-linejoin="round"/>
<path d="M10.6699 21.4699V16.95" stroke="#292D32" stroke-width="1.5" stroke-linecap="round" stroke-linejoin="round"/>
<path opacity="0.4" d="M2.66992 12.95H10.6699" stroke="#292D32" stroke-width="1.5" stroke-linecap="round" stroke-linejoin="round"/>
<path d="M7.41016 21.47H10.6702" stroke="#292D32" stroke-width="1.5" stroke-linecap="round" stroke-linejoin="round"/>
<path d="M22.6702 12.8001V18.5101C22.6702 20.8801 22.0802 21.4701 19.7102 21.4701H16.1602C13.7902 21.4701 13.2002 20.8801 13.2002 18.5101V12.8001C13.2002 10.4301 13.7902 9.84009 16.1602 9.84009H19.7102C22.0802 9.84009 22.6702 10.4301 22.6702 12.8001Z" stroke="#292D32" stroke-width="1.5" stroke-linecap="round" stroke-linejoin="round"/>
<path opacity="0.4" d="M17.9144 18.25H17.9234" stroke="#292D32" stroke-width="2" stroke-linecap="round" stroke-linejoin="round"/>
</svg>
