<svg width="25" height="24" viewBox="0 0 25 24" fill="none" xmlns="http://www.w3.org/2000/svg">
<path d="M12.6699 22C16.7999 22 20.1699 18.63 20.1699 14.5V9.5C20.1699 5.37 16.7999 2 12.6699 2C8.53992 2 5.16992 5.37 5.16992 9.5V14.5C5.16992 18.63 8.53992 22 12.6699 22Z" stroke="#292D32" stroke-width="1.5" stroke-linecap="round" stroke-linejoin="round"/>
<g opacity="0.4">
<path d="M12.6699 11C11.8399 11 11.1699 10.33 11.1699 9.5V7.5C11.1699 6.67 11.8399 6 12.6699 6C13.4899 6 14.1699 6.67 14.1699 7.5V9.5C14.1699 10.33 13.4899 11 12.6699 11Z" stroke="#292D32" stroke-width="1.5" stroke-linecap="round" stroke-linejoin="round"/>
<path d="M12.6699 6V2" stroke="#292D32" stroke-width="1.5" stroke-linecap="round" stroke-linejoin="round"/>
</g>
</svg>
