<svg width="25" height="24" viewBox="0 0 25 24" fill="none" xmlns="http://www.w3.org/2000/svg">
<path d="M22.6699 15V9C22.6699 4 20.6699 2 15.6699 2H9.66992C4.66992 2 2.66992 4 2.66992 9V15C2.66992 20 4.66992 22 9.66992 22H15.6699C20.6699 22 22.6699 20 22.6699 15Z" stroke="#292D32" stroke-width="1.5" stroke-linecap="round" stroke-linejoin="round"/>
<g opacity="0.4">
<path d="M9.08954 17.11C9.95663 17.11 10.6595 16.4071 10.6595 15.54C10.6595 14.6729 9.95663 13.97 9.08954 13.97C8.22245 13.97 7.51953 14.6729 7.51953 15.54C7.51953 16.4071 8.22245 17.11 9.08954 17.11Z" stroke="#292D32" stroke-width="1.5" stroke-linecap="round" stroke-linejoin="round"/>
<path d="M16.4199 14.49V8.34997C16.4199 7.03997 15.5999 6.86002 14.7699 7.09002L11.6299 7.95001C11.0599 8.11001 10.6699 8.56002 10.6699 9.21002V10.31V11.05V15.55" stroke="#292D32" stroke-width="1.5" stroke-linecap="round" stroke-linejoin="round"/>
<path d="M14.8493 16.06C15.7164 16.06 16.4193 15.3571 16.4193 14.49C16.4193 13.6229 15.7164 12.92 14.8493 12.92C13.9822 12.92 13.2793 13.6229 13.2793 14.49C13.2793 15.3571 13.9822 16.06 14.8493 16.06Z" stroke="#292D32" stroke-width="1.5" stroke-linecap="round" stroke-linejoin="round"/>
<path d="M10.6602 11.04L16.4202 9.46997" stroke="#292D32" stroke-width="1.5" stroke-linecap="round" stroke-linejoin="round"/>
</g>
</svg>
