<svg width="25" height="24" viewBox="0 0 25 24" fill="none" xmlns="http://www.w3.org/2000/svg">
<path d="M22.6699 15V9C22.6699 4 20.6699 2 15.6699 2H9.66992C4.66992 2 2.66992 4 2.66992 9V15C2.66992 20 4.66992 22 9.66992 22H15.6699C20.6699 22 22.6699 20 22.6699 15Z" stroke="#292D32" stroke-width="1.5" stroke-linecap="round" stroke-linejoin="round"/>
<path opacity="0.4" d="M7.66992 2.5V21.5" stroke="#292D32" stroke-width="1.5" stroke-linecap="round" stroke-linejoin="round"/>
<g opacity="0.4">
<path d="M12.1404 16.8C12.9633 16.8 13.6304 16.1329 13.6304 15.31C13.6304 14.4871 12.9633 13.82 12.1404 13.82C11.3175 13.82 10.6504 14.4871 10.6504 15.31C10.6504 16.1329 11.3175 16.8 12.1404 16.8Z" stroke="#292D32" stroke-width="1.5" stroke-linecap="round" stroke-linejoin="round"/>
<path d="M19.1009 14.31V8.47996C19.1009 7.23996 18.3209 7.07 17.5309 7.28L14.5509 8.09C14.0109 8.24 13.6309 8.66995 13.6309 9.28995V10.33V11.03V15.3" stroke="#292D32" stroke-width="1.5" stroke-linecap="round" stroke-linejoin="round"/>
<path d="M17.6004 15.8C18.4233 15.8 19.0904 15.1329 19.0904 14.31C19.0904 13.4871 18.4233 12.82 17.6004 12.82C16.7774 12.82 16.1104 13.4871 16.1104 14.31C16.1104 15.1329 16.7774 15.8 17.6004 15.8Z" stroke="#292D32" stroke-width="1.5" stroke-linecap="round" stroke-linejoin="round"/>
<path d="M13.6309 11.04L19.1009 9.54999" stroke="#292D32" stroke-width="1.5" stroke-linecap="round" stroke-linejoin="round"/>
</g>
</svg>
