<svg width="25" height="24" viewBox="0 0 25 24" fill="none" xmlns="http://www.w3.org/2000/svg">
<path d="M3.25 8.66998C3.87 6.90998 4.97001 5.37998 6.39001 4.22998" stroke="#292D32" stroke-width="1.5" stroke-linecap="round" stroke-linejoin="round"/>
<path d="M2.66992 12C2.66992 13.17 2.87991 14.29 3.24991 15.33" stroke="#292D32" stroke-width="1.5" stroke-linecap="round" stroke-linejoin="round"/>
<path d="M9.75977 21.57C10.6798 21.85 11.6598 22 12.6698 22C18.1898 22 22.6698 17.52 22.6698 12C22.6698 11.4 22.6098 10.81 22.5098 10.24" stroke="#292D32" stroke-width="1.5" stroke-linecap="round" stroke-linejoin="round"/>
<path d="M6.39032 19.75C5.92032 19.37 5.47031 18.95 5.07031 18.49" stroke="#292D32" stroke-width="1.5" stroke-linecap="round" stroke-linejoin="round"/>
<path d="M20.9098 6.34003C19.1098 3.72003 16.0898 2 12.6698 2C11.6598 2 10.6798 2.14999 9.75977 2.42999" stroke="#292D32" stroke-width="1.5" stroke-linecap="round" stroke-linejoin="round"/>
<g opacity="0.4">
<path d="M9.25992 17.11C10.1381 17.11 10.8499 16.3982 10.8499 15.52C10.8499 14.6419 10.1381 13.93 9.25992 13.93C8.38179 13.93 7.66992 14.6419 7.66992 15.52C7.66992 16.3982 8.38179 17.11 9.25992 17.11Z" stroke="#292D32" stroke-width="1.5" stroke-linecap="round" stroke-linejoin="round"/>
<path d="M16.6698 14.4601V8.25003C16.6698 6.93003 15.8398 6.74 14.9998 6.97L11.8198 7.84006C11.2398 8.00006 10.8398 8.45003 10.8398 9.12003V10.23V10.97V15.5201" stroke="#292D32" stroke-width="1.5" stroke-linecap="round" stroke-linejoin="round"/>
<path d="M15.0802 16.05C15.9584 16.05 16.6702 15.3382 16.6702 14.46C16.6702 13.5819 15.9584 12.87 15.0802 12.87C14.2021 12.87 13.4902 13.5819 13.4902 14.46C13.4902 15.3382 14.2021 16.05 15.0802 16.05Z" stroke="#292D32" stroke-width="1.5" stroke-linecap="round" stroke-linejoin="round"/>
<path d="M10.8496 10.76L16.6696 9.16998" stroke="#292D32" stroke-width="1.5" stroke-linecap="round" stroke-linejoin="round"/>
</g>
</svg>
