<svg width="25" height="24" viewBox="0 0 25 24" fill="none" xmlns="http://www.w3.org/2000/svg">
<path d="M17.6699 22H7.66992C4.66992 22 2.66992 20.5 2.66992 17V12C2.66992 8.5 4.66992 7 7.66992 7H17.6699C20.6699 7 22.6699 8.5 22.6699 12V17C22.6699 20.5 20.6699 22 17.6699 22Z" stroke="#292D32" stroke-width="1.5" stroke-miterlimit="10" stroke-linecap="round" stroke-linejoin="round"/>
<path d="M6.66992 4.5H18.6699" stroke="#292D32" stroke-width="1.5" stroke-miterlimit="10" stroke-linecap="round" stroke-linejoin="round"/>
<path d="M9.66992 2H15.6699" stroke="#292D32" stroke-width="1.5" stroke-miterlimit="10" stroke-linecap="round" stroke-linejoin="round"/>
<g opacity="0.4">
<path d="M9.55945 19.11C10.3161 19.11 10.9294 18.4966 10.9294 17.74C10.9294 16.9834 10.3161 16.37 9.55945 16.37C8.80282 16.37 8.18945 16.9834 8.18945 17.74C8.18945 18.4966 8.80282 19.11 9.55945 19.11Z" stroke="#292D32" stroke-width="1.5" stroke-linecap="round" stroke-linejoin="round"/>
<path d="M15.9497 16.83V11.48C15.9497 10.34 15.2397 10.18 14.5097 10.38L11.7697 11.13C11.2697 11.27 10.9297 11.66 10.9297 12.23V13.18V13.82V17.74" stroke="#292D32" stroke-width="1.5" stroke-linecap="round" stroke-linejoin="round"/>
<path d="M14.579 18.2C15.3356 18.2 15.949 17.5866 15.949 16.83C15.949 16.0734 15.3356 15.46 14.579 15.46C13.8223 15.46 13.209 16.0734 13.209 16.83C13.209 17.5866 13.8223 18.2 14.579 18.2Z" stroke="#292D32" stroke-width="1.5" stroke-linecap="round" stroke-linejoin="round"/>
<path d="M10.9297 13.83L15.9497 12.46" stroke="#292D32" stroke-width="1.5" stroke-linecap="round" stroke-linejoin="round"/>
</g>
</svg>
