<svg width="25" height="24" viewBox="0 0 25 24" fill="none" xmlns="http://www.w3.org/2000/svg">
<path d="M8.66992 2V5" stroke="#292D32" stroke-width="1.5" stroke-miterlimit="10" stroke-linecap="round" stroke-linejoin="round"/>
<path d="M16.6699 2V5" stroke="#292D32" stroke-width="1.5" stroke-miterlimit="10" stroke-linecap="round" stroke-linejoin="round"/>
<path d="M21.6699 8.5V13.63C20.7799 12.92 19.6499 12.5 18.4199 12.5C17.1899 12.5 16.0399 12.93 15.1399 13.66C13.9299 14.61 13.1699 16.1 13.1699 17.75C13.1699 18.73 13.4499 19.67 13.9299 20.45C14.2999 21.06 14.7799 21.59 15.3499 22H8.66992C5.16992 22 3.66992 20 3.66992 17V8.5C3.66992 5.5 5.16992 3.5 8.66992 3.5H16.6699C20.1699 3.5 21.6699 5.5 21.6699 8.5Z" stroke="#292D32" stroke-width="1.5" stroke-miterlimit="10" stroke-linecap="round" stroke-linejoin="round"/>
<path opacity="0.4" d="M7.66992 11H13.6699" stroke="#292D32" stroke-width="1.5" stroke-miterlimit="10" stroke-linecap="round" stroke-linejoin="round"/>
<path opacity="0.4" d="M7.66992 16H10.2899" stroke="#292D32" stroke-width="1.5" stroke-miterlimit="10" stroke-linecap="round" stroke-linejoin="round"/>
<path d="M23.6699 17.75C23.6699 18.73 23.3899 19.67 22.9099 20.45C22.6299 20.93 22.2799 21.35 21.8699 21.69C20.9499 22.51 19.7499 23 18.4199 23C17.2699 23 16.2099 22.63 15.3499 22C14.7799 21.59 14.2999 21.06 13.9299 20.45C13.4499 19.67 13.1699 18.73 13.1699 17.75C13.1699 16.1 13.9299 14.61 15.1399 13.66C16.0399 12.93 17.1899 12.5 18.4199 12.5C19.6499 12.5 20.7799 12.92 21.6699 13.63C22.8899 14.59 23.6699 16.08 23.6699 17.75Z" stroke="#292D32" stroke-width="1.5" stroke-miterlimit="10" stroke-linecap="round" stroke-linejoin="round"/>
<path opacity="0.4" d="M18.4199 20.25C18.4199 18.87 19.5399 17.75 20.9199 17.75C19.5399 17.75 18.4199 16.63 18.4199 15.25C18.4199 16.63 17.2999 17.75 15.9199 17.75C17.2999 17.75 18.4199 18.87 18.4199 20.25Z" stroke="#292D32" stroke-width="1.5" stroke-linecap="round" stroke-linejoin="round"/>
</svg>
