<svg width="25" height="24" viewBox="0 0 25 24" fill="none" xmlns="http://www.w3.org/2000/svg">
<path d="M22.3299 10.44L21.3499 14.62C20.5099 18.23 18.8499 19.69 15.7299 19.39C15.2299 19.35 14.6899 19.26 14.1099 19.12L12.4299 18.72C8.25986 17.73 6.96986 15.67 7.94986 11.49L8.92986 7.30001C9.12986 6.45001 9.36986 5.71001 9.66986 5.10001C10.8399 2.68001 12.8299 2.03001 16.1699 2.82001L17.8399 3.21001C22.0299 4.19001 23.3099 6.26001 22.3299 10.44Z" stroke="#292D32" stroke-width="1.5" stroke-linecap="round" stroke-linejoin="round"/>
<path opacity="0.4" d="M15.73 19.3901C15.11 19.8101 14.33 20.1601 13.38 20.4701L11.8 20.9901C7.83002 22.2701 5.74002 21.2001 4.45002 17.2301L3.17002 13.2801C1.89002 9.3101 2.95002 7.2101 6.92002 5.9301L8.50002 5.4101C8.91002 5.2801 9.30002 5.1701 9.67002 5.1001C9.37002 5.7101 9.13002 6.4501 8.93002 7.3001L7.95002 11.4901C6.97002 15.6701 8.26002 17.7301 12.43 18.7201L14.11 19.1201C14.69 19.2601 15.23 19.3501 15.73 19.3901Z" stroke="#292D32" stroke-width="1.5" stroke-linecap="round" stroke-linejoin="round"/>
</svg>
