<svg width="25" height="24" viewBox="0 0 25 24" fill="none" xmlns="http://www.w3.org/2000/svg">
<g opacity="0.4">
<path d="M12.6699 11.5C13.7745 11.5 14.6699 10.6046 14.6699 9.5C14.6699 8.39543 13.7745 7.5 12.6699 7.5C11.5654 7.5 10.6699 8.39543 10.6699 9.5C10.6699 10.6046 11.5654 11.5 12.6699 11.5Z" stroke="black" stroke-width="1.5" stroke-miterlimit="10"/>
<path d="M10.6699 13.5C11.9199 14.13 13.3999 14.13 14.6599 13.51L14.6699 13.5" stroke="black" stroke-width="1.5" stroke-miterlimit="10" stroke-linecap="round" stroke-linejoin="round"/>
<path d="M10.6699 16.5L12.6699 13.97L14.6699 16.5" stroke="black" stroke-width="1.5" stroke-miterlimit="10" stroke-linecap="round" stroke-linejoin="round"/>
</g>
<path d="M12.6699 22C18.1928 22 22.6699 17.5228 22.6699 12C22.6699 6.47715 18.1928 2 12.6699 2C7.14707 2 2.66992 6.47715 2.66992 12C2.66992 17.5228 7.14707 22 12.6699 22Z" stroke="black" stroke-width="1.5" stroke-miterlimit="10"/>
</svg>
