<svg width="25" height="24" viewBox="0 0 25 24" fill="none" xmlns="http://www.w3.org/2000/svg">
<path d="M17.6699 17C20.4313 17 22.6699 14.7614 22.6699 12C22.6699 9.23858 20.4313 7 17.6699 7C14.9085 7 12.6699 9.23858 12.6699 12C12.6699 14.7614 14.9085 17 17.6699 17Z" stroke="black" stroke-width="1.5" stroke-miterlimit="10" stroke-linecap="round" stroke-linejoin="round"/>
<g opacity="0.4">
<path d="M12.6699 22C15.4313 22 17.6699 19.7614 17.6699 17C17.6699 14.2386 15.4313 12 12.6699 12C9.9085 12 7.66992 14.2386 7.66992 17C7.66992 19.7614 9.9085 22 12.6699 22Z" stroke="black" stroke-width="1.5" stroke-miterlimit="10" stroke-linecap="round" stroke-linejoin="round"/>
<path d="M12.6699 12C15.4313 12 17.6699 9.76142 17.6699 7C17.6699 4.23858 15.4313 2 12.6699 2C9.9085 2 7.66992 4.23858 7.66992 7C7.66992 9.76142 9.9085 12 12.6699 12Z" stroke="black" stroke-width="1.5" stroke-miterlimit="10" stroke-linecap="round" stroke-linejoin="round"/>
</g>
<path d="M7.66992 17C10.4313 17 12.6699 14.7614 12.6699 12C12.6699 9.23858 10.4313 7 7.66992 7C4.9085 7 2.66992 9.23858 2.66992 12C2.66992 14.7614 4.9085 17 7.66992 17Z" stroke="black" stroke-width="1.5" stroke-miterlimit="10" stroke-linecap="round" stroke-linejoin="round"/>
</svg>
