<svg width="25" height="24" viewBox="0 0 25 24" fill="none" xmlns="http://www.w3.org/2000/svg">
<g clip-path="url(#clip0_12_78591)">
<path d="M4.43954 15.56L7.89954 19.02C10.3295 21.45 11.1595 21.41 13.5595 19.02L19.1295 13.45C21.0695 11.51 21.5595 10.22 19.1295 7.78996L15.6695 4.32996C13.0795 1.73996 11.9495 2.38996 10.0095 4.32996L4.43954 9.89996C2.04954 12.3 1.84954 12.97 4.43954 15.56Z" stroke="#292D32" stroke-width="1.5" stroke-linecap="round" stroke-linejoin="round"/>
<path opacity="0.4" d="M19.8704 16.79L19.2104 17.88C18.2804 19.43 19.0004 20.7 20.8104 20.7C22.6204 20.7 23.3404 19.43 22.4104 17.88L21.7504 16.79C21.2304 15.93 20.3804 15.93 19.8704 16.79Z" stroke="#292D32" stroke-width="1.5" stroke-linecap="round" stroke-linejoin="round"/>
<path opacity="0.4" d="M2.66992 12.2401C8.22992 10.7301 14.0899 10.6801 19.6699 12.1101L20.1699 12.2401" stroke="#292D32" stroke-width="1.5" stroke-linecap="round" stroke-linejoin="round"/>
</g>
<defs>
<clipPath id="clip0_12_78591">
<rect width="24" height="24" fill="white" transform="translate(0.669922)"/>
</clipPath>
</defs>
</svg>
