<svg width="25" height="24" viewBox="0 0 25 24" fill="none" xmlns="http://www.w3.org/2000/svg">
<path d="M12.6396 22C18.1625 22 22.6396 17.5228 22.6396 12C22.6396 6.47715 18.1625 2 12.6396 2C7.1168 2 2.63965 6.47715 2.63965 12C2.63965 17.5228 7.1168 22 12.6396 22Z" stroke="#292D32" stroke-width="1.5" stroke-linecap="round" stroke-linejoin="round"/>
<path opacity="0.4" d="M11.3899 14.53V9.47C11.3899 8.99 11.1899 8.8 10.6799 8.8H9.37992C8.86992 8.8 8.66992 8.99 8.66992 9.47V14.53C8.66992 15.01 8.86992 15.2 9.37992 15.2H10.6699C11.1899 15.2 11.3899 15.01 11.3899 14.53Z" stroke="#292D32" stroke-width="1.5" stroke-linecap="round" stroke-linejoin="round"/>
<path opacity="0.4" d="M16.67 14.53V9.47C16.67 8.99 16.47 8.8 15.96 8.8H14.67C14.16 8.8 13.96 8.99 13.96 9.47V14.53C13.96 15.01 14.16 15.2 14.67 15.2H15.96C16.47 15.2 16.67 15.01 16.67 14.53Z" stroke="#292D32" stroke-width="1.5" stroke-linecap="round" stroke-linejoin="round"/>
</svg>
