<svg width="25" height="24" viewBox="0 0 25 24" fill="none" xmlns="http://www.w3.org/2000/svg">
<path d="M19.6701 7C19.6701 7.18 19.6601 7.34999 19.6401 7.51999C19.5201 8.96999 18.8801 10.28 17.9101 11.24C16.8301 12.33 15.3301 13 13.6701 13H10.5401C10.0401 13 9.62014 13.37 9.55014 13.86L8.79013 19.14C8.73013 19.53 8.45014 19.85 8.08014 19.95C7.99014 19.99 7.90014 20 7.80014 20H5.85013C5.23013 20 4.76014 19.45 4.86014 18.84L7.25012 4.51001C7.49012 3.06001 8.74014 2 10.2101 2H14.6701C17.4301 2 19.6701 4.24 19.6701 7Z" stroke="black" stroke-width="1.5" stroke-miterlimit="10"/>
<path opacity="0.4" d="M21.6699 11C21.6699 12.38 21.1099 13.63 20.2099 14.54C19.2999 15.44 18.0499 16 16.6699 16H14.5199C14.0299 16 13.6099 16.35 13.5299 16.84L12.8099 21.16C12.7299 21.65 12.3099 22 11.8199 22H8.88991C8.25991 22 7.7899 21.42 7.9099 20.8L8.07991 19.95C8.44991 19.85 8.7299 19.53 8.7899 19.14L9.54991 13.86C9.61991 13.37 10.0399 13 10.5399 13H13.6699C15.3299 13 16.8299 12.33 17.9099 11.24C18.8799 10.28 19.5199 8.96999 19.6399 7.51999C20.8499 8.20999 21.6699 9.51 21.6699 11Z" stroke="black" stroke-width="1.5" stroke-miterlimit="10"/>
</svg>
