<svg width="25" height="24" viewBox="0 0 25 24" fill="none" xmlns="http://www.w3.org/2000/svg">
<g opacity="0.4">
<path d="M11.4202 22.5001H13.9402C14.9002 22.5001 15.5202 21.8201 15.3402 20.9901L14.9303 19.1802H10.4303L10.0202 20.9901C9.84025 21.7701 10.5202 22.5001 11.4202 22.5001Z" stroke="#292D32" stroke-width="1.5" stroke-linecap="round" stroke-linejoin="round"/>
<path d="M14.9305 19.1702L16.6605 17.6301C17.6305 16.7701 17.6705 16.1701 16.9005 15.2001L13.8505 11.3302C13.2105 10.5202 12.1605 10.5202 11.5205 11.3302L8.47047 15.2001C7.70047 16.1701 7.70046 16.8001 8.71046 17.6301L10.4405 19.1702" stroke="#292D32" stroke-width="1.5" stroke-linecap="round" stroke-linejoin="round"/>
<path d="M12.6797 11.1201V13.6501" stroke="#292D32" stroke-width="1.5" stroke-linecap="round" stroke-linejoin="round"/>
</g>
<path d="M11.82 5.19015L11.04 4.41012C10.57 3.94012 10.57 3.18017 11.04 2.71017L11.82 1.93014C12.29 1.46014 13.05 1.46014 13.52 1.93014L14.3 2.71017C14.77 3.18017 14.77 3.94012 14.3 4.41012L13.52 5.19015C13.05 5.66015 12.29 5.66015 11.82 5.19015Z" stroke="#292D32" stroke-width="1.5" stroke-linecap="round" stroke-linejoin="round"/>
<path d="M20.1199 9.81006H21.2199C21.8799 9.81006 22.4199 10.3501 22.4199 11.0101V12.11C22.4199 12.77 21.8799 13.3101 21.2199 13.3101H20.1199C19.4599 13.3101 18.9199 12.77 18.9199 12.11V11.0101C18.9199 10.3501 19.4599 9.81006 20.1199 9.81006Z" stroke="#292D32" stroke-width="1.5" stroke-linecap="round" stroke-linejoin="round"/>
<path d="M5.21992 9.81006H4.11992C3.45992 9.81006 2.91992 10.3501 2.91992 11.0101V12.11C2.91992 12.77 3.45992 13.3101 4.11992 13.3101H5.21992C5.87992 13.3101 6.41992 12.77 6.41992 12.11V11.0101C6.41992 10.3501 5.87992 9.81006 5.21992 9.81006Z" stroke="#292D32" stroke-width="1.5" stroke-linecap="round" stroke-linejoin="round"/>
<path d="M19.2102 10.1L13.9102 4.80005" stroke="#292D32" stroke-width="1.5" stroke-linecap="round" stroke-linejoin="round"/>
<path d="M6.12988 10.1L11.4299 4.80005" stroke="#292D32" stroke-width="1.5" stroke-linecap="round" stroke-linejoin="round"/>
</svg>
