<svg width="25" height="24" viewBox="0 0 25 24" fill="none" xmlns="http://www.w3.org/2000/svg">
<g opacity="0.4">
<path d="M21.86 8.0399L18.68 4.85991C17.48 3.65991 15.83 3.71993 15.02 5.00993L13.25 7.80992L18.92 13.4799L21.72 11.7099C22.93 10.9399 23 9.1699 21.86 8.0399Z" stroke="#292D32" stroke-width="1.5" stroke-linecap="round" stroke-linejoin="round"/>
<path d="M18.9205 13.47L19.1605 17.59C19.3905 19.89 18.5905 20.69 16.4105 20.95L7.69052 21.98C5.85052 22.19 4.53052 20.87 4.75052 19.04L5.73053 10.76" stroke="#292D32" stroke-width="1.5" stroke-linecap="round" stroke-linejoin="round"/>
<path d="M13.25 7.80994L11.5 7.69995" stroke="#292D32" stroke-width="1.5" stroke-linecap="round" stroke-linejoin="round"/>
<path d="M5.9502 20.7799L9.13019 17.5898" stroke="#292D32" stroke-width="1.5" stroke-linecap="round" stroke-linejoin="round"/>
</g>
<path d="M11.6699 6.5C11.6699 6.91 11.6099 7.32001 11.4999 7.70001C11.3899 8.10001 11.2299 8.47001 11.0199 8.82001C10.7799 9.22001 10.4799 9.58 10.1299 9.88C9.33991 10.58 8.30992 11 7.16992 11C6.65992 11 6.17992 10.92 5.72992 10.76C4.70992 10.42 3.85992 9.72001 3.31992 8.82001C2.90992 8.14001 2.66992 7.34 2.66992 6.5C2.66992 5.08 3.31992 3.80999 4.35992 2.98999C5.12992 2.36999 6.10992 2 7.16992 2C9.65992 2 11.6699 4.01 11.6699 6.5Z" stroke="#292D32" stroke-width="1.5" stroke-miterlimit="10" stroke-linecap="round" stroke-linejoin="round"/>
<path d="M8.82974 6.5H5.46973" stroke="#292D32" stroke-width="1.5" stroke-miterlimit="10" stroke-linecap="round" stroke-linejoin="round"/>
</svg>
