<svg width="25" height="24" viewBox="0 0 25 24" fill="none" xmlns="http://www.w3.org/2000/svg">
<path opacity="0.4" d="M9.00391 15.27L15.5439 8.72998" stroke="#292D32" stroke-width="1.5" stroke-linecap="round" stroke-linejoin="round"/>
<path opacity="0.4" d="M9.4136 10.37C10.0929 10.37 10.6436 9.81936 10.6436 9.14005C10.6436 8.46073 10.0929 7.91003 9.4136 7.91003C8.73429 7.91003 8.18359 8.46073 8.18359 9.14005C8.18359 9.81936 8.73429 10.37 9.4136 10.37Z" stroke="#292D32" stroke-width="1.5" stroke-linecap="round" stroke-linejoin="round"/>
<path opacity="0.4" d="M15.9536 16.09C16.6329 16.09 17.1836 15.5393 17.1836 14.86C17.1836 14.1807 16.6329 13.63 15.9536 13.63C15.2743 13.63 14.7236 14.1807 14.7236 14.86C14.7236 15.5393 15.2743 16.09 15.9536 16.09Z" stroke="#292D32" stroke-width="1.5" stroke-linecap="round" stroke-linejoin="round"/>
<path d="M12.6836 22C18.2064 22 22.6836 17.5228 22.6836 12C22.6836 6.47715 18.2064 2 12.6836 2C7.16075 2 2.68359 6.47715 2.68359 12C2.68359 17.5228 7.16075 22 12.6836 22Z" stroke="#292D32" stroke-width="1.5" stroke-linecap="round" stroke-linejoin="round"/>
</svg>
