<svg width="25" height="24" viewBox="0 0 25 24" fill="none" xmlns="http://www.w3.org/2000/svg">
<path d="M5.07959 16.75C4.83959 19.64 7.01959 22 9.91959 22H14.7096C17.9696 22 20.2096 19.37 19.6696 16.15C19.0996 12.77 15.8396 10 12.4096 10C8.68959 10 5.38959 13.04 5.07959 16.75Z" stroke="#292D32" stroke-width="1.5" stroke-linecap="round" stroke-linejoin="round"/>
<path opacity="0.34" d="M11.1396 7.5C12.5204 7.5 13.6396 6.38071 13.6396 5C13.6396 3.61929 12.5204 2.5 11.1396 2.5C9.75894 2.5 8.63965 3.61929 8.63965 5C8.63965 6.38071 9.75894 7.5 11.1396 7.5Z" stroke="#292D32" stroke-width="1.5" stroke-linecap="round" stroke-linejoin="round"/>
<path opacity="0.34" d="M17.9697 8.7C19.0743 8.7 19.9697 7.80457 19.9697 6.7C19.9697 5.59543 19.0743 4.7 17.9697 4.7C16.8652 4.7 15.9697 5.59543 15.9697 6.7C15.9697 7.80457 16.8652 8.7 17.9697 8.7Z" stroke="#292D32" stroke-width="1.5" stroke-linecap="round" stroke-linejoin="round"/>
<path opacity="0.34" d="M21.6699 12.7C22.4983 12.7 23.1699 12.0284 23.1699 11.2C23.1699 10.3716 22.4983 9.7 21.6699 9.7C20.8415 9.7 20.1699 10.3716 20.1699 11.2C20.1699 12.0284 20.8415 12.7 21.6699 12.7Z" stroke="#292D32" stroke-width="1.5" stroke-linecap="round" stroke-linejoin="round"/>
<path opacity="0.34" d="M4.63965 10.7C5.74422 10.7 6.63965 9.80457 6.63965 8.7C6.63965 7.59543 5.74422 6.7 4.63965 6.7C3.53508 6.7 2.63965 7.59543 2.63965 8.7C2.63965 9.80457 3.53508 10.7 4.63965 10.7Z" stroke="#292D32" stroke-width="1.5" stroke-linecap="round" stroke-linejoin="round"/>
</svg>
