<svg width="25" height="24" viewBox="0 0 25 24" fill="none" xmlns="http://www.w3.org/2000/svg">
<path d="M15.6699 22H9.66992C4.66992 22 2.66992 20 2.66992 15V9C2.66992 4 4.66992 2 9.66992 2H15.6699C20.6699 2 22.6699 4 22.6699 9V15C22.6699 20 20.6699 22 15.6699 22Z" stroke="black" stroke-width="1.5" stroke-linecap="round" stroke-linejoin="round"/>
<path opacity="0.4" d="M8.16992 16V8H10.1699C11.2699 8 12.1699 8.9 12.1699 10C12.1699 11.1 11.2699 12 10.1699 12H8.16992" stroke="black" stroke-width="1.5" stroke-miterlimit="10" stroke-linecap="round" stroke-linejoin="round"/>
<path opacity="0.4" d="M17.1699 11H15.9199C15.2299 11 14.6699 11.56 14.6699 12.25C14.6699 12.94 15.2299 13.5 15.9199 13.5C16.6099 13.5 17.1699 14.06 17.1699 14.75C17.1699 15.44 16.6099 16 15.9199 16H14.6699" stroke="black" stroke-width="1.5" stroke-miterlimit="10" stroke-linecap="round" stroke-linejoin="round"/>
</svg>
