<svg width="25" height="24" viewBox="0 0 25 24" fill="none" xmlns="http://www.w3.org/2000/svg">
<path opacity="0.4" d="M22.6699 12C22.6699 13.31 22.4199 14.57 21.9499 15.72C21.2999 15.27 20.5099 15 19.6699 15C18.7299 15 17.8599 15.33 17.1699 15.88C16.2499 16.61 15.6699 17.74 15.6699 19C15.6699 19.75 15.8799 20.46 16.2499 21.06C16.2899 21.13 16.3399 21.2 16.3999 21.27C15.2499 21.74 13.9899 22 12.6699 22C7.14992 22 2.66992 17.52 2.66992 12C2.66992 6.48 7.14992 2 12.6699 2C18.1899 2 22.6699 6.48 22.6699 12Z" stroke="#292D32" stroke-width="1.5" stroke-linecap="round" stroke-linejoin="round"/>
<path d="M10.0498 12V10.61C10.0498 8.89001 11.2698 8.18001 12.7598 9.04001L13.9598 9.73001L15.1598 10.42C16.6498 11.28 16.6498 12.69 15.1598 13.55L13.9598 14.24L12.7598 14.93C11.2698 15.79 10.0498 15.09 10.0498 13.36V12Z" stroke="#292D32" stroke-width="1.5" stroke-miterlimit="10" stroke-linecap="round" stroke-linejoin="round"/>
<path d="M23.6699 19C23.6699 19.75 23.4599 20.46 23.0899 21.06C22.8799 21.42 22.6099 21.74 22.2999 22C21.5999 22.63 20.6799 23 19.6699 23C18.2999 23 17.0999 22.31 16.3999 21.27C16.3399 21.2 16.2899 21.13 16.2499 21.06C15.8799 20.46 15.6699 19.75 15.6699 19C15.6699 17.74 16.2499 16.61 17.1699 15.88C17.8599 15.33 18.7299 15 19.6699 15C20.5099 15 21.2999 15.27 21.9499 15.72C22.9899 16.44 23.6699 17.64 23.6699 19Z" stroke="#292D32" stroke-width="1.5" stroke-miterlimit="10" stroke-linecap="round" stroke-linejoin="round"/>
<g opacity="0.4">
<path d="M20.7391 20.04L18.6191 17.93" stroke="#292D32" stroke-width="1.5" stroke-miterlimit="10" stroke-linecap="round" stroke-linejoin="round"/>
<path d="M20.7196 17.9598L18.5996 20.0698" stroke="#292D32" stroke-width="1.5" stroke-miterlimit="10" stroke-linecap="round" stroke-linejoin="round"/>
</g>
</svg>
