<svg width="25" height="24" viewBox="0 0 25 24" fill="none" xmlns="http://www.w3.org/2000/svg">
<path d="M19.7402 19.07C23.6502 15.16 23.6502 8.82999 19.7402 4.92999" stroke="#292D32" stroke-width="1.5" stroke-linecap="round" stroke-linejoin="round"/>
<path d="M5.59949 4.92999C1.68949 8.83999 1.68949 15.17 5.59949 19.07" stroke="#292D32" stroke-width="1.5" stroke-linecap="round" stroke-linejoin="round"/>
<path d="M9.37012 21.41C10.4401 21.78 11.5501 21.96 12.6701 21.96C13.7901 21.95 14.9001 21.78 15.9701 21.41" stroke="#292D32" stroke-width="1.5" stroke-linecap="round" stroke-linejoin="round"/>
<path d="M9.37012 2.59003C10.4401 2.22003 11.5501 2.03998 12.6701 2.03998C13.7901 2.03998 14.9001 2.22003 15.9701 2.59003" stroke="#292D32" stroke-width="1.5" stroke-linecap="round" stroke-linejoin="round"/>
<path opacity="0.4" d="M9.41016 12V10.33C9.41016 8.25003 10.8802 7.40002 12.6802 8.44002L14.1302 9.28005L15.5802 10.12C17.3802 11.16 17.3802 12.86 15.5802 13.9L14.1302 14.74L12.6802 15.58C10.8802 16.62 9.41016 15.77 9.41016 13.69V12Z" stroke="#292D32" stroke-width="1.5" stroke-miterlimit="10" stroke-linecap="round" stroke-linejoin="round"/>
</svg>
