<svg width="25" height="24" viewBox="0 0 25 24" fill="none" xmlns="http://www.w3.org/2000/svg">
<path opacity="0.4" d="M7.91992 7H17.4199V5C17.4199 3 16.6699 2 14.4199 2H10.9199C8.66992 2 7.91992 3 7.91992 5V7Z" stroke="#292D32" stroke-width="1.5" stroke-miterlimit="10" stroke-linecap="round" stroke-linejoin="round"/>
<path d="M16.6699 15V19C16.6699 21 15.6699 22 13.6699 22H11.6699C9.66992 22 8.66992 21 8.66992 19V15H16.6699Z" stroke="#292D32" stroke-width="1.5" stroke-miterlimit="10" stroke-linecap="round" stroke-linejoin="round"/>
<path d="M21.6699 10V15C21.6699 17 20.6699 18 18.6699 18H16.6699V15H8.66992V18H6.66992C4.66992 18 3.66992 17 3.66992 15V10C3.66992 8 4.66992 7 6.66992 7H18.6699C20.6699 7 21.6699 8 21.6699 10Z" stroke="#292D32" stroke-width="1.5" stroke-miterlimit="10" stroke-linecap="round" stroke-linejoin="round"/>
<path d="M17.6699 15H16.4599H7.66992" stroke="#292D32" stroke-width="1.5" stroke-miterlimit="10" stroke-linecap="round" stroke-linejoin="round"/>
<path opacity="0.4" d="M7.66992 11H10.6699" stroke="#292D32" stroke-width="1.5" stroke-miterlimit="10" stroke-linecap="round" stroke-linejoin="round"/>
</svg>
