<svg width="25" height="24" viewBox="0 0 25 24" fill="none" xmlns="http://www.w3.org/2000/svg">
<path opacity="0.4" d="M12.83 10.87C12.73 10.86 12.61 10.86 12.5 10.87C10.12 10.79 8.22998 8.84 8.22998 6.44C8.22998 3.99 10.21 2 12.67 2C15.12 2 17.11 3.99 17.11 6.44C17.1 8.84 15.21 10.79 12.83 10.87Z" stroke="#292D32" stroke-width="1.5" stroke-linecap="round" stroke-linejoin="round"/>
<path d="M7.83014 14.56C5.41014 16.18 5.41014 18.82 7.83014 20.43C10.5801 22.27 15.0901 22.27 17.8401 20.43C20.2601 18.81 20.2601 16.17 17.8401 14.56C15.1001 12.73 10.5901 12.73 7.83014 14.56Z" stroke="#292D32" stroke-width="1.5" stroke-linecap="round" stroke-linejoin="round"/>
</svg>
