<svg width="25" height="24" viewBox="0 0 25 24" fill="none" xmlns="http://www.w3.org/2000/svg">
<path d="M19.6699 22C21.3268 22 22.6699 20.6569 22.6699 19C22.6699 17.3431 21.3268 16 19.6699 16C18.0131 16 16.6699 17.3431 16.6699 19C16.6699 20.6569 18.0131 22 19.6699 22Z" stroke="#292D32" stroke-width="1.5" stroke-linecap="round" stroke-linejoin="round"/>
<g opacity="0.4">
<path d="M19.6699 16V6.5C19.6699 5.4 18.7699 4.5 17.6699 4.5H12.1699" stroke="#292D32" stroke-width="1.5" stroke-linecap="round" stroke-linejoin="round"/>
<path d="M14.6699 2L11.6699 4.5L14.6699 7" stroke="#292D32" stroke-width="1.5" stroke-linecap="round" stroke-linejoin="round"/>
<path d="M5.66992 8V17.5C5.66992 18.6 6.56992 19.5 7.66992 19.5H13.1699" stroke="#292D32" stroke-width="1.5" stroke-linecap="round" stroke-linejoin="round"/>
<path d="M10.6699 22L13.6699 19.5L10.6699 17" stroke="#292D32" stroke-width="1.5" stroke-linecap="round" stroke-linejoin="round"/>
</g>
<path d="M5.66992 8C7.32678 8 8.66992 6.65685 8.66992 5C8.66992 3.34315 7.32678 2 5.66992 2C4.01307 2 2.66992 3.34315 2.66992 5C2.66992 6.65685 4.01307 8 5.66992 8Z" stroke="#292D32" stroke-width="1.5" stroke-linecap="round" stroke-linejoin="round"/>
</svg>
