<svg width="25" height="24" viewBox="0 0 25 24" fill="none" xmlns="http://www.w3.org/2000/svg">
<g opacity="0.4">
<path d="M2.67188 12.35H8.47186C10.0019 12.35 11.0519 13.51 11.0519 14.93V18.15C11.0519 19.57 10.0019 20.73 8.47186 20.73H5.25189C3.83189 20.73 2.67188 19.57 2.67188 18.15V12.35" stroke="#292D32" stroke-width="1.5" stroke-linecap="round" stroke-linejoin="round"/>
<path d="M2.67188 12.35C2.67188 6.29998 3.8019 5.30003 7.2019 3.28003" stroke="#292D32" stroke-width="1.5" stroke-linecap="round" stroke-linejoin="round"/>
</g>
<path d="M14.3018 12.35H20.1017C21.6317 12.35 22.6818 13.51 22.6818 14.93V18.15C22.6818 19.57 21.6317 20.73 20.1017 20.73H16.8818C15.4618 20.73 14.3018 19.57 14.3018 18.15V12.35" stroke="#292D32" stroke-width="1.5" stroke-linecap="round" stroke-linejoin="round"/>
<path d="M14.3018 12.35C14.3018 6.29998 15.4317 5.30003 18.8317 3.28003" stroke="#292D32" stroke-width="1.5" stroke-linecap="round" stroke-linejoin="round"/>
</svg>
