<svg width="25" height="24" viewBox="0 0 25 24" fill="none" xmlns="http://www.w3.org/2000/svg">
<path d="M6.66992 4C8.33992 2.75 10.4199 2 12.6699 2C18.1899 2 22.6699 6.48 22.6699 12C22.6699 17.52 18.1899 22 12.6699 22C7.14992 22 2.66992 17.52 2.66992 12C2.66992 10.19 3.14991 8.48999 3.99991 7.01999L12.6699 12" stroke="#292D32" stroke-width="1.5" stroke-miterlimit="10" stroke-linecap="round" stroke-linejoin="round"/>
<path opacity="0.4" d="M7.49991 8.95999C6.96991 9.84999 6.66992 10.89 6.66992 12C6.66992 15.31 9.35992 18 12.6699 18C15.9799 18 18.6699 15.31 18.6699 12C18.6699 8.69 15.9799 6 12.6699 6C11.7599 6 10.8899 6.20001 10.1199 6.57001" stroke="#292D32" stroke-width="1.5" stroke-miterlimit="10" stroke-linecap="round" stroke-linejoin="round"/>
</svg>
