<svg width="25" height="24" viewBox="0 0 25 24" fill="none" xmlns="http://www.w3.org/2000/svg">
<path d="M13.9699 8.1101L15.2899 10.7501C15.4699 11.1101 15.9499 11.4701 16.3499 11.5301L18.7399 11.9301C20.2699 12.1901 20.6299 13.2901 19.5299 14.3901L17.6699 16.2501C17.3599 16.5601 17.1799 17.1701 17.2799 17.6101L17.8099 19.9201C18.2299 21.7401 17.2599 22.4501 15.6499 21.5001L13.4099 20.1701C12.9999 19.9301 12.3399 19.9301 11.9299 20.1701L9.68988 21.5001C8.07988 22.4501 7.10987 21.7401 7.52987 19.9201L8.0599 17.6101C8.1599 17.1801 7.97989 16.5701 7.66989 16.2501L5.8099 14.3901C4.7099 13.2901 5.06988 12.1801 6.59988 11.9301L8.9899 11.5301C9.3899 11.4601 9.86989 11.1101 10.0499 10.7501L11.3699 8.1101C12.0799 6.6801 13.2599 6.6801 13.9699 8.1101Z" stroke="#292D32" stroke-width="1.5" stroke-linecap="round" stroke-linejoin="round"/>
<path opacity="0.4" d="M6.66992 9V2" stroke="#292D32" stroke-width="1.5" stroke-linecap="round" stroke-linejoin="round"/>
<path opacity="0.4" d="M18.6699 9V2" stroke="#292D32" stroke-width="1.5" stroke-linecap="round" stroke-linejoin="round"/>
<path opacity="0.4" d="M12.6699 4V2" stroke="#292D32" stroke-width="1.5" stroke-linecap="round" stroke-linejoin="round"/>
</svg>
