<svg width="25" height="24" viewBox="0 0 25 24" fill="none" xmlns="http://www.w3.org/2000/svg">
<path d="M22.6699 6V8.42C22.6699 10 21.6699 11 20.0899 11H16.6699V4.01C16.6699 2.9 17.5799 2 18.6899 2C19.7799 2.01 20.7799 2.45 21.4999 3.17C22.2199 3.9 22.6699 4.9 22.6699 6Z" stroke="#292D32" stroke-width="1.5" stroke-miterlimit="10" stroke-linecap="round" stroke-linejoin="round"/>
<path d="M2.66992 7V21C2.66992 21.83 3.60992 22.3 4.26992 21.8L5.97992 20.52C6.37992 20.22 6.93992 20.26 7.29992 20.62L8.95992 22.29C9.34992 22.68 9.98992 22.68 10.3799 22.29L12.0599 20.61C12.4099 20.26 12.9699 20.22 13.3599 20.52L15.0699 21.8C15.7299 22.29 16.6699 21.82 16.6699 21V4C16.6699 2.9 17.5699 2 18.6699 2H7.66992H6.66992C3.66992 2 2.66992 3.79 2.66992 6V7Z" stroke="#292D32" stroke-width="1.5" stroke-miterlimit="10" stroke-linecap="round" stroke-linejoin="round"/>
<path opacity="0.4" d="M6.93945 13.73L12.3995 8.27002" stroke="#292D32" stroke-width="1.5" stroke-linecap="round" stroke-linejoin="round"/>
<path opacity="0.4" d="M12.5941 13.5H12.6031" stroke="#292D32" stroke-width="2" stroke-linecap="round" stroke-linejoin="round"/>
<path opacity="0.4" d="M6.86462 8.5H6.87361" stroke="#292D32" stroke-width="2" stroke-linecap="round" stroke-linejoin="round"/>
</svg>
