<svg width="25" height="24" viewBox="0 0 25 24" fill="none" xmlns="http://www.w3.org/2000/svg">
<path d="M7.39992 19.7C8.21992 18.82 9.46992 18.89 10.1899 19.85L11.1999 21.2C12.0099 22.27 13.3199 22.27 14.1299 21.2L15.1399 19.85C15.8599 18.89 17.1099 18.82 17.9299 19.7C19.7099 21.6 21.1599 20.97 21.1599 18.31V7.04C21.1699 3.01 20.2299 2 16.4499 2H8.88992C5.10992 2 4.16992 3.01 4.16992 7.04V18.3C4.16992 20.97 5.62992 21.59 7.39992 19.7Z" stroke="#292D32" stroke-width="1.5" stroke-linecap="round" stroke-linejoin="round"/>
<path opacity="0.4" d="M8.76599 11H8.77497" stroke="#292D32" stroke-width="2" stroke-linecap="round" stroke-linejoin="round"/>
<path opacity="0.4" d="M11.5684 11H17.0684" stroke="#292D32" stroke-width="1.5" stroke-linecap="round" stroke-linejoin="round"/>
<path opacity="0.4" d="M8.76599 7H8.77497" stroke="#292D32" stroke-width="2" stroke-linecap="round" stroke-linejoin="round"/>
<path opacity="0.4" d="M11.5684 7H17.0684" stroke="#292D32" stroke-width="1.5" stroke-linecap="round" stroke-linejoin="round"/>
</svg>
