<svg width="25" height="24" viewBox="0 0 25 24" fill="none" xmlns="http://www.w3.org/2000/svg">
<path d="M21.1699 11.3V7.04001C21.1699 3.01001 20.2299 2 16.4499 2H8.88992C5.10992 2 4.16992 3.01001 4.16992 7.04001V18.3C4.16992 20.96 5.62993 21.59 7.39993 19.69L7.40991 19.68C8.22991 18.81 9.47991 18.88 10.1899 19.83L11.1999 21.18" stroke="#292D32" stroke-width="1.5" stroke-linecap="round" stroke-linejoin="round"/>
<path d="M18.8699 21.4C20.6372 21.4 22.0699 19.9673 22.0699 18.2C22.0699 16.4327 20.6372 15 18.8699 15C17.1026 15 15.6699 16.4327 15.6699 18.2C15.6699 19.9673 17.1026 21.4 18.8699 21.4Z" stroke="#292D32" stroke-width="1.5" stroke-linecap="round" stroke-linejoin="round"/>
<path d="M22.6699 22L21.6699 21" stroke="#292D32" stroke-width="1.5" stroke-linecap="round" stroke-linejoin="round"/>
<path opacity="0.4" d="M8.66992 7H16.6699" stroke="#292D32" stroke-width="1.5" stroke-linecap="round" stroke-linejoin="round"/>
<path opacity="0.4" d="M9.66992 11H15.6699" stroke="#292D32" stroke-width="1.5" stroke-linecap="round" stroke-linejoin="round"/>
</svg>
