<svg width="25" height="24" viewBox="0 0 25 24" fill="none" xmlns="http://www.w3.org/2000/svg">
<path d="M9.66992 22H15.6699C20.6699 22 22.6699 20 22.6699 15V9C22.6699 4 20.6699 2 15.6699 2H9.66992C4.66992 2 2.66992 4 2.66992 9V15C2.66992 20 4.66992 22 9.66992 22Z" stroke="#292D32" stroke-width="1.5" stroke-linecap="round" stroke-linejoin="round"/>
<path opacity="0.4" d="M9.57016 16.5299C10.0502 16.0099 10.7902 16.0499 11.2102 16.6199L11.8102 17.4199C12.2802 18.0499 13.0602 18.0499 13.5302 17.4199L14.1202 16.6299C14.5402 16.0699 15.2802 16.0299 15.7602 16.5399C16.8102 17.6599 17.6602 17.2899 17.6602 15.7199V9.08987C17.6602 6.71987 17.1002 6.12988 14.8802 6.12988H10.4402C8.22016 6.12988 7.66016 6.71987 7.66016 9.08987V15.7199C7.67016 17.2699 8.53016 17.6399 9.57016 16.5299Z" stroke="#292D32" stroke-width="1.5" stroke-linecap="round" stroke-linejoin="round"/>
</svg>
