<svg width="25" height="24" viewBox="0 0 25 24" fill="none" xmlns="http://www.w3.org/2000/svg">
<path d="M9.66992 22H15.6699C20.6699 22 22.6699 20 22.6699 15V9C22.6699 4 20.6699 2 15.6699 2H9.66992C4.66992 2 2.66992 4 2.66992 9V15C2.66992 20 4.66992 22 9.66992 22Z" stroke="#292D32" stroke-width="1.5" stroke-linecap="round" stroke-linejoin="round"/>
<g opacity="0.4">
<path d="M14.3399 7.51001C13.8399 7.36001 13.2899 7.26001 12.6699 7.26001C9.90992 7.26001 7.66992 9.50001 7.66992 12.26C7.66992 15.02 9.90992 17.26 12.6699 17.26C15.4299 17.26 17.6699 15.02 17.6699 12.26C17.6699 11.23 17.3599 10.28 16.8299 9.48001" stroke="#292D32" stroke-width="1.5" stroke-linecap="round" stroke-linejoin="round"/>
<path d="M15.0501 7.64999L13.3901 5.73999" stroke="#292D32" stroke-width="1.5" stroke-linecap="round" stroke-linejoin="round"/>
<path d="M15.0499 7.65002L13.1099 9.07002" stroke="#292D32" stroke-width="1.5" stroke-linecap="round" stroke-linejoin="round"/>
</g>
</svg>
