<svg width="25" height="24" viewBox="0 0 25 24" fill="none" xmlns="http://www.w3.org/2000/svg">
<g opacity="0.4">
<path d="M10.9999 7.51001C11.4999 7.36001 12.0499 7.26001 12.6699 7.26001C15.4299 7.26001 17.6699 9.50001 17.6699 12.26C17.6699 15.02 15.4299 17.26 12.6699 17.26C9.90992 17.26 7.66992 15.02 7.66992 12.26C7.66992 11.23 7.97992 10.28 8.50992 9.48001" stroke="#292D32" stroke-width="1.5" stroke-linecap="round" stroke-linejoin="round"/>
<path d="M10.29 7.64999L11.95 5.73999" stroke="#292D32" stroke-width="1.5" stroke-linecap="round" stroke-linejoin="round"/>
<path d="M10.29 7.65002L12.23 9.07002" stroke="#292D32" stroke-width="1.5" stroke-linecap="round" stroke-linejoin="round"/>
</g>
<path d="M9.66992 22H15.6699C20.6699 22 22.6699 20 22.6699 15V9C22.6699 4 20.6699 2 15.6699 2H9.66992C4.66992 2 2.66992 4 2.66992 9V15C2.66992 20 4.66992 22 9.66992 22Z" stroke="#292D32" stroke-width="1.5" stroke-linecap="round" stroke-linejoin="round"/>
</svg>
