<svg width="25" height="24" viewBox="0 0 25 24" fill="none" xmlns="http://www.w3.org/2000/svg">
<path d="M19.6396 22H5.63965C2.63965 22 2.63965 20.65 2.63965 19V18C2.63965 17.45 3.08965 17 3.63965 17H21.6396C22.1896 17 22.6396 17.45 22.6396 18V19C22.6396 20.65 22.6396 22 19.6396 22Z" stroke="#292D32" stroke-width="1.5" stroke-linecap="round" stroke-linejoin="round"/>
<path d="M21.3895 13V17H3.93945V13C3.93945 9.16 6.64945 5.95 10.2595 5.18C10.7995 5.06 11.3595 5 11.9395 5H13.3895C13.9695 5 14.5395 5.06 15.0795 5.18C18.6895 5.96 21.3895 9.16 21.3895 13Z" stroke="#292D32" stroke-width="1.5" stroke-linecap="round" stroke-linejoin="round"/>
<path opacity="0.34" d="M15.1699 4.5C15.1699 4.74 15.1399 4.96 15.0799 5.18C14.5399 5.06 13.9699 5 13.3899 5H11.9399C11.3599 5 10.7999 5.06 10.2599 5.18C10.1999 4.96 10.1699 4.74 10.1699 4.5C10.1699 3.12 11.2899 2 12.6699 2C14.0499 2 15.1699 3.12 15.1699 4.5Z" stroke="#292D32" stroke-width="1.5" stroke-linecap="round" stroke-linejoin="round"/>
<path opacity="0.34" d="M15.6699 11H9.66992" stroke="#292D32" stroke-width="1.5" stroke-linecap="round" stroke-linejoin="round"/>
</svg>
