<svg width="25" height="24" viewBox="0 0 25 24" fill="none" xmlns="http://www.w3.org/2000/svg">
<path opacity="0.4" d="M18.0199 9.04979L15.6799 16.5898C15.1199 18.3798 12.6099 18.4098 12.0199 16.6298L11.3199 14.5598C11.1299 13.9898 10.6799 13.5298 10.1099 13.3498L8.0299 12.6498C6.2599 12.0598 6.28989 9.5298 8.07989 8.9898L15.6199 6.63979C17.0999 6.18979 18.4899 7.57979 18.0199 9.04979Z" stroke="#292D32" stroke-width="1.5" stroke-linecap="round" stroke-linejoin="round"/>
<path d="M9.66992 22H15.6699C20.6699 22 22.6699 20 22.6699 15V9C22.6699 4 20.6699 2 15.6699 2H9.66992C4.66992 2 2.66992 4 2.66992 9V15C2.66992 20 4.66992 22 9.66992 22Z" stroke="#292D32" stroke-width="1.5" stroke-linecap="round" stroke-linejoin="round"/>
</svg>
