<svg width="25" height="24" viewBox="0 0 25 24" fill="none" xmlns="http://www.w3.org/2000/svg">
<path opacity="0.4" d="M6.13965 9C8.07264 9 9.63965 7.433 9.63965 5.5C9.63965 3.567 8.07264 2 6.13965 2C4.20665 2 2.63965 3.567 2.63965 5.5C2.63965 7.433 4.20665 9 6.13965 9Z" stroke="#292D32" stroke-width="1.5"/>
<path opacity="0.4" d="M17.6396 15H20.6396C21.7396 15 22.6396 15.9 22.6396 17V20C22.6396 21.1 21.7396 22 20.6396 22H17.6396C16.5396 22 15.6396 21.1 15.6396 20V17C15.6396 15.9 16.5396 15 17.6396 15Z" stroke="#292D32" stroke-width="1.5"/>
<path d="M12.6696 5H15.3496C17.1996 5 18.0596 7.29 16.6696 8.51L8.67962 15.5C7.28962 16.71 8.14962 19 9.98962 19H12.6696" stroke="#292D32" stroke-width="1.5" stroke-linecap="round" stroke-linejoin="round"/>
<path d="M6.15565 5.5H6.1672" stroke="#292D32" stroke-width="2" stroke-linecap="round" stroke-linejoin="round"/>
<path d="M19.1556 18.5H19.1672" stroke="#292D32" stroke-width="2" stroke-linecap="round" stroke-linejoin="round"/>
</svg>
