<svg width="25" height="24" viewBox="0 0 25 24" fill="none" xmlns="http://www.w3.org/2000/svg">
<path d="M22.1396 19V5C22.1396 3 21.1396 2 19.1396 2H15.1396C13.1396 2 12.1396 3 12.1396 5V19C12.1396 21 13.1396 22 15.1396 22H19.1396C21.1396 22 22.1396 21 22.1396 19Z" stroke="#292D32" stroke-width="1.5" stroke-linecap="round"/>
<path opacity="0.4" d="M12.1396 6H17.1396" stroke="#292D32" stroke-width="1.5" stroke-linecap="round"/>
<path opacity="0.4" d="M12.1396 18H16.1396" stroke="#292D32" stroke-width="1.5" stroke-linecap="round"/>
<path opacity="0.4" d="M12.1396 13.95L17.1396 14" stroke="#292D32" stroke-width="1.5" stroke-linecap="round"/>
<path opacity="0.4" d="M12.1396 10H15.1396" stroke="#292D32" stroke-width="1.5" stroke-linecap="round"/>
<path d="M6.1602 2C4.5302 2 3.2002 3.33 3.2002 4.95V17.91C3.2002 18.36 3.3902 19.04 3.6202 19.43L4.4402 20.79C5.3802 22.36 6.9302 22.36 7.8702 20.79L8.6902 19.43C8.9202 19.04 9.1102 18.36 9.1102 17.91V4.95C9.1102 3.33 7.7802 2 6.1602 2Z" stroke="#292D32" stroke-width="1.5" stroke-linecap="round"/>
<path opacity="0.4" d="M9.1102 7H3.2002" stroke="#292D32" stroke-width="1.5" stroke-linecap="round"/>
</svg>
