<svg width="25" height="24" viewBox="0 0 25 24" fill="none" xmlns="http://www.w3.org/2000/svg">
<path d="M23.6698 15.37V17.5601C23.6698 20.0001 21.8898 22.3 19.4698 22.97C19.2998 23.01 19.1198 23.01 18.9598 22.97C17.7798 22.65 16.7398 21.93 16.0098 21C15.2198 20.02 14.7598 18.8101 14.7598 17.5601V15.37C14.7598 14.95 15.0698 14.49 15.4498 14.33L18.2298 13.1899C18.8598 12.9399 19.5598 12.9399 20.1898 13.1899L21.1898 13.6L22.9798 14.33C23.3598 14.49 23.6698 14.95 23.6698 15.37Z" stroke="#292D32" stroke-width="1.5" stroke-linecap="round" stroke-linejoin="round"/>
<path opacity="0.4" d="M21.6202 11.0101L21.1902 13.6L20.1902 13.19C19.5602 12.94 18.8602 12.94 18.2302 13.19L15.4502 14.33C15.0702 14.49 14.7602 14.95 14.7602 15.37V17.5601C14.7602 18.8101 15.2202 20.02 16.0102 21H6.8502C5.4802 21 4.19021 19.9101 3.96021 18.5601L2.7002 11.0101C2.5402 10.0801 3.01019 8.83004 3.75019 8.24004L10.3302 2.98003C11.3402 2.17003 12.9802 2.17004 13.9902 2.99004L20.5702 8.24004C21.3002 8.83004 21.7802 10.0801 21.6202 11.0101Z" stroke="#292D32" stroke-width="1.5" stroke-linecap="round" stroke-linejoin="round"/>
</svg>
