<svg width="25" height="24" viewBox="0 0 25 24" fill="none" xmlns="http://www.w3.org/2000/svg">
<path d="M16.6699 8.98987V20.3499C16.6699 21.7999 15.6299 22.4099 14.3599 21.7099L10.4299 19.5199C10.0099 19.2899 9.32992 19.2899 8.90992 19.5199L4.97992 21.7099C3.70992 22.4099 2.66992 21.7999 2.66992 20.3499V8.98987C2.66992 7.27987 4.06992 5.87988 5.77992 5.87988H13.5599C15.2699 5.87988 16.6699 7.27987 16.6699 8.98987Z" stroke="#292D32" stroke-width="1.5" stroke-linecap="round" stroke-linejoin="round"/>
<g opacity="0.4">
<path d="M8.25977 13.4099L11.0798 10.5898" stroke="#292D32" stroke-width="1.5" stroke-linecap="round" stroke-linejoin="round"/>
<path d="M11.0798 13.4099L8.25977 10.5898" stroke="#292D32" stroke-width="1.5" stroke-linecap="round" stroke-linejoin="round"/>
</g>
<path d="M22.6699 5.10999V16.47C22.6699 17.92 21.6299 18.53 20.3599 17.83L16.6699 15.77V8.98999C16.6699 7.27999 15.2699 5.88 13.5599 5.88H8.66992V5.10999C8.66992 3.39999 10.0699 2 11.7799 2H19.5599C21.2699 2 22.6699 3.39999 22.6699 5.10999Z" stroke="#292D32" stroke-width="1.5" stroke-linecap="round" stroke-linejoin="round"/>
</svg>
