<svg width="25" height="24" viewBox="0 0 25 24" fill="none" xmlns="http://www.w3.org/2000/svg">
<path d="M2.66992 9V6.5C2.66992 4.01 4.67992 2 7.16992 2H9.66992" stroke="#292D32" stroke-width="1.5" stroke-linecap="round" stroke-linejoin="round"/>
<path d="M15.6699 2H18.1699C20.6599 2 22.6699 4.01 22.6699 6.5V9" stroke="#292D32" stroke-width="1.5" stroke-linecap="round" stroke-linejoin="round"/>
<path d="M22.6699 16V17.5C22.6699 19.99 20.6599 22 18.1699 22H16.6699" stroke="#292D32" stroke-width="1.5" stroke-linecap="round" stroke-linejoin="round"/>
<path d="M9.66992 22H7.16992C4.67992 22 2.66992 19.99 2.66992 17.5V15" stroke="#292D32" stroke-width="1.5" stroke-linecap="round" stroke-linejoin="round"/>
<path opacity="0.4" d="M11.1699 7V9C11.1699 10 10.6699 10.5 9.66992 10.5H7.66992C6.66992 10.5 6.16992 10 6.16992 9V7C6.16992 6 6.66992 5.5 7.66992 5.5H9.66992C10.6699 5.5 11.1699 6 11.1699 7Z" stroke="#292D32" stroke-width="1.5" stroke-linecap="round" stroke-linejoin="round"/>
<path opacity="0.4" d="M19.1699 7V9C19.1699 10 18.6699 10.5 17.6699 10.5H15.6699C14.6699 10.5 14.1699 10 14.1699 9V7C14.1699 6 14.6699 5.5 15.6699 5.5H17.6699C18.6699 5.5 19.1699 6 19.1699 7Z" stroke="#292D32" stroke-width="1.5" stroke-linecap="round" stroke-linejoin="round"/>
<path opacity="0.4" d="M11.1699 15V17C11.1699 18 10.6699 18.5 9.66992 18.5H7.66992C6.66992 18.5 6.16992 18 6.16992 17V15C6.16992 14 6.66992 13.5 7.66992 13.5H9.66992C10.6699 13.5 11.1699 14 11.1699 15Z" stroke="#292D32" stroke-width="1.5" stroke-linecap="round" stroke-linejoin="round"/>
<path opacity="0.4" d="M19.1699 15V17C19.1699 18 18.6699 18.5 17.6699 18.5H15.6699C14.6699 18.5 14.1699 18 14.1699 17V15C14.1699 14 14.6699 13.5 15.6699 13.5H17.6699C18.6699 13.5 19.1699 14 19.1699 15Z" stroke="#292D32" stroke-width="1.5" stroke-linecap="round" stroke-linejoin="round"/>
</svg>
