<svg width="25" height="24" viewBox="0 0 25 24" fill="none" xmlns="http://www.w3.org/2000/svg">
<path opacity="0.4" d="M12.4099 17.75H18.3299C18.2399 17.83 18.1499 17.9 18.0599 17.98L13.7899 21.18C12.3799 22.23 10.0799 22.23 8.65993 21.18L4.37993 17.98C3.43993 17.28 2.66992 15.73 2.66992 14.56V7.14998C2.66992 5.92998 3.59993 4.57998 4.73993 4.14998L9.71992 2.27999C10.5399 1.96999 11.8999 1.96999 12.7199 2.27999L17.6899 4.14998C18.6399 4.50998 19.4499 5.50999 19.6999 6.52999H12.3999C12.1799 6.52999 11.9799 6.54 11.7899 6.54C9.93992 6.65 9.45992 7.31998 9.45992 9.42998V14.86C9.46992 17.16 10.0599 17.75 12.4099 17.75Z" stroke="#292D32" stroke-width="1.5" stroke-linecap="round" stroke-linejoin="round"/>
<path d="M9.46973 11.22H22.6697" stroke="#292D32" stroke-width="1.5" stroke-miterlimit="10" stroke-linecap="round" stroke-linejoin="round"/>
<path d="M22.6697 9.42001V14.97C22.6497 17.19 22.0397 17.74 19.7297 17.74H12.4097C10.0597 17.74 9.46973 17.15 9.46973 14.84V9.41C9.46973 7.31 9.94973 6.63999 11.7997 6.51999C11.9897 6.51999 12.1897 6.51001 12.4097 6.51001H19.7297C22.0797 6.52001 22.6697 7.10001 22.6697 9.42001Z" stroke="#292D32" stroke-width="1.5" stroke-linecap="round" stroke-linejoin="round"/>
<path d="M11.9902 15.26H13.3202" stroke="#292D32" stroke-width="1.5" stroke-miterlimit="10" stroke-linecap="round" stroke-linejoin="round"/>
<path d="M15.4199 15.26H18.6899" stroke="#292D32" stroke-width="1.5" stroke-miterlimit="10" stroke-linecap="round" stroke-linejoin="round"/>
</svg>
