<svg width="25" height="24" viewBox="0 0 25 24" fill="none" xmlns="http://www.w3.org/2000/svg">
<path d="M9.66992 22H15.6699C20.6699 22 22.6699 20 22.6699 15V9C22.6699 4 20.6699 2 15.6699 2H9.66992C4.66992 2 2.66992 4 2.66992 9V15C2.66992 20 4.66992 22 9.66992 22Z" stroke="#292D32" stroke-width="1.5" stroke-linecap="round" stroke-linejoin="round"/>
<g opacity="0.4">
<path d="M16.2402 18.4996V14.5996" stroke="#292D32" stroke-width="1.5" stroke-miterlimit="10" stroke-linecap="round" stroke-linejoin="round"/>
<path d="M16.2402 7.45V5.5" stroke="#292D32" stroke-width="1.5" stroke-miterlimit="10" stroke-linecap="round" stroke-linejoin="round"/>
<path d="M16.2396 12.6502C17.6756 12.6502 18.8396 11.4861 18.8396 10.0502C18.8396 8.61426 17.6756 7.4502 16.2396 7.4502C14.8037 7.4502 13.6396 8.61426 13.6396 10.0502C13.6396 11.4861 14.8037 12.6502 16.2396 12.6502Z" stroke="#292D32" stroke-width="1.5" stroke-miterlimit="10" stroke-linecap="round" stroke-linejoin="round"/>
<path d="M9.09961 18.4998V16.5498" stroke="#292D32" stroke-width="1.5" stroke-miterlimit="10" stroke-linecap="round" stroke-linejoin="round"/>
<path d="M9.09961 9.4V5.5" stroke="#292D32" stroke-width="1.5" stroke-miterlimit="10" stroke-linecap="round" stroke-linejoin="round"/>
<path d="M9.1 16.5496C10.5359 16.5496 11.7 15.3855 11.7 13.9496C11.7 12.5137 10.5359 11.3496 9.1 11.3496C7.66406 11.3496 6.5 12.5137 6.5 13.9496C6.5 15.3855 7.66406 16.5496 9.1 16.5496Z" stroke="#292D32" stroke-width="1.5" stroke-miterlimit="10" stroke-linecap="round" stroke-linejoin="round"/>
</g>
</svg>
