<svg width="25" height="24" viewBox="0 0 25 24" fill="none" xmlns="http://www.w3.org/2000/svg">
<path d="M3.66992 9.10986V14.8799C3.66992 16.9999 3.66992 16.9999 5.66992 18.3499L11.1699 21.5299C11.9999 22.0099 13.3499 22.0099 14.1699 21.5299L19.6699 18.3499C21.6699 16.9999 21.6699 16.9999 21.6699 14.8899V9.10986C21.6699 6.99986 21.6699 6.99986 19.6699 5.64986L14.1699 2.46986C13.3499 1.98986 11.9999 1.98986 11.1699 2.46986L5.66992 5.64986C3.66992 6.99986 3.66992 6.99986 3.66992 9.10986Z" stroke="#292D32" stroke-width="1.5" stroke-linecap="round" stroke-linejoin="round"/>
<path opacity="0.34" d="M12.6699 15C14.3268 15 15.6699 13.6569 15.6699 12C15.6699 10.3431 14.3268 9 12.6699 9C11.0131 9 9.66992 10.3431 9.66992 12C9.66992 13.6569 11.0131 15 12.6699 15Z" stroke="#292D32" stroke-width="1.5" stroke-linecap="round" stroke-linejoin="round"/>
</svg>
