<svg width="25" height="24" viewBox="0 0 25 24" fill="none" xmlns="http://www.w3.org/2000/svg">
<path d="M17.6396 12.25V16.75C17.6396 20.5 16.1396 22 12.3896 22H7.88965C4.13965 22 2.63965 20.5 2.63965 16.75V12.25C2.63965 8.5 4.13965 7 7.88965 7H12.3896C16.1396 7 17.6396 8.5 17.6396 12.25Z" stroke="#292D32" stroke-width="1.5" stroke-linecap="round" stroke-linejoin="round"/>
<path opacity="0.4" d="M22.6399 7.5C22.6399 10.37 20.4499 12.72 17.6399 12.97V12.25C17.6399 8.5 16.1399 7 12.3899 7H11.6699C11.9199 4.19 14.2699 2 17.1399 2C19.9299 2 22.2299 4.07 22.5799 6.77C22.6199 7 22.6399 7.25 22.6399 7.5Z" stroke="#292D32" stroke-width="1.5" stroke-linecap="round" stroke-linejoin="round"/>
</svg>
