<svg width="25" height="24" viewBox="0 0 25 24" fill="none" xmlns="http://www.w3.org/2000/svg">
<path d="M11.1601 2.23006L6.17008 4.11006C5.02008 4.54006 4.08008 5.90006 4.08008 7.12006V14.5501C4.08008 15.7301 4.86008 17.2801 5.81008 17.9901L10.1101 21.2001C11.5201 22.2601 13.8401 22.2601 15.2501 21.2001L19.5501 17.9901C20.5001 17.2801 21.2801 15.7301 21.2801 14.5501V7.12006C21.2801 5.89006 20.3401 4.53006 19.1901 4.10006L14.2001 2.23006C13.3501 1.92006 11.9901 1.92006 11.1601 2.23006Z" stroke="#292D32" stroke-width="1.5" stroke-linecap="round" stroke-linejoin="round"/>
<g opacity="0.4">
<path d="M12.6699 12.5C13.7745 12.5 14.6699 11.6046 14.6699 10.5C14.6699 9.39543 13.7745 8.5 12.6699 8.5C11.5654 8.5 10.6699 9.39543 10.6699 10.5C10.6699 11.6046 11.5654 12.5 12.6699 12.5Z" stroke="#292D32" stroke-width="1.5" stroke-miterlimit="10" stroke-linecap="round" stroke-linejoin="round"/>
<path d="M12.6699 12.5V15.5" stroke="#292D32" stroke-width="1.5" stroke-miterlimit="10" stroke-linecap="round" stroke-linejoin="round"/>
</g>
</svg>
