<svg width="25" height="24" viewBox="0 0 25 24" fill="none" xmlns="http://www.w3.org/2000/svg">
<path d="M21.2601 10.5501V7.12006C21.2601 5.89006 20.3201 4.53006 19.1701 4.10006L14.1801 2.23006C13.3501 1.92006 11.9901 1.92006 11.1601 2.23006L6.17008 4.11006C5.02008 4.54006 4.08008 5.90006 4.08008 7.12006V14.5501C4.08008 15.7301 4.86008 17.2801 5.81008 17.9901L10.1101 21.2001C10.8101 21.7401 11.7401 22.0001 12.6701 22.0001" stroke="#292D32" stroke-width="1.5" stroke-linecap="round" stroke-linejoin="round"/>
<path opacity="0.4" d="M16.6699 20C18.8791 20 20.6699 18.2091 20.6699 16C20.6699 13.7909 18.8791 12 16.6699 12C14.4608 12 12.6699 13.7909 12.6699 16C12.6699 18.2091 14.4608 20 16.6699 20Z" stroke="#292D32" stroke-width="1.5" stroke-linecap="round" stroke-linejoin="round"/>
<path opacity="0.4" d="M21.6654 21H21.6744" stroke="#292D32" stroke-width="2" stroke-linecap="round" stroke-linejoin="round"/>
</svg>
