<svg width="25" height="24" viewBox="0 0 25 24" fill="none" xmlns="http://www.w3.org/2000/svg">
<path d="M21.0897 12.3699C21.9597 12.7199 22.4997 13.7499 22.2997 14.6599L21.8897 16.5199C21.1797 19.7199 18.6697 21.9999 15.0497 21.9999H10.2897C6.66966 21.9999 4.15966 19.7199 3.44966 16.5199L3.03966 14.6599C2.83966 13.7499 3.37965 12.7199 4.24965 12.3699L5.66967 11.7999L11.1797 9.58993C12.1397 9.20993 13.1997 9.20993 14.1597 9.58993L19.6697 11.7999L21.0897 12.3699Z" stroke="#292D32" stroke-width="1.5" stroke-linecap="round" stroke-linejoin="round"/>
<path d="M12.6699 22V10" stroke="#292D32" stroke-width="1.5" stroke-linecap="round" stroke-linejoin="round"/>
<g opacity="0.4">
<path d="M19.6699 8V11.8L14.1599 9.59C13.1999 9.21 12.1399 9.21 11.1799 9.59L5.66992 11.8V8C5.66992 6.35 7.01992 5 8.66992 5H16.6699C18.3199 5 19.6699 6.35 19.6699 8Z" stroke="#292D32" stroke-width="1.5" stroke-linecap="round" stroke-linejoin="round"/>
<path d="M15.1699 5H10.1699V3C10.1699 2.45 10.6199 2 11.1699 2H14.1699C14.7199 2 15.1699 2.45 15.1699 3V5Z" stroke="#292D32" stroke-width="1.5" stroke-linecap="round" stroke-linejoin="round"/>
</g>
</svg>
