<svg width="25" height="24" viewBox="0 0 25 24" fill="none" xmlns="http://www.w3.org/2000/svg">
<path d="M2.66992 2H4.40993C5.48993 2 6.33992 2.93 6.24992 4L5.41992 13.96C5.27992 15.59 6.56992 16.99 8.20992 16.99H18.8599C20.2999 16.99 21.5599 15.81 21.6699 14.38L22.2099 6.88C22.3299 5.22 21.0699 3.87 19.3999 3.87H6.48993" stroke="#292D32" stroke-width="1.5" stroke-miterlimit="10" stroke-linecap="round" stroke-linejoin="round"/>
<path opacity="0.4" d="M16.9199 22C17.6103 22 18.1699 21.4404 18.1699 20.75C18.1699 20.0596 17.6103 19.5 16.9199 19.5C16.2296 19.5 15.6699 20.0596 15.6699 20.75C15.6699 21.4404 16.2296 22 16.9199 22Z" stroke="#292D32" stroke-width="1.5" stroke-miterlimit="10" stroke-linecap="round" stroke-linejoin="round"/>
<path opacity="0.4" d="M8.91992 22C9.61028 22 10.1699 21.4404 10.1699 20.75C10.1699 20.0596 9.61028 19.5 8.91992 19.5C8.22957 19.5 7.66992 20.0596 7.66992 20.75C7.66992 21.4404 8.22957 22 8.91992 22Z" stroke="#292D32" stroke-width="1.5" stroke-miterlimit="10" stroke-linecap="round" stroke-linejoin="round"/>
<path opacity="0.4" d="M9.66992 8H21.6699" stroke="#292D32" stroke-width="1.5" stroke-miterlimit="10" stroke-linecap="round" stroke-linejoin="round"/>
</svg>
