<svg width="25" height="24" viewBox="0 0 25 24" fill="none" xmlns="http://www.w3.org/2000/svg">
<path opacity="0.4" d="M21.6804 11.2197V15.7097C21.6804 20.1997 19.8904 21.9998 15.3904 21.9998H10.0004C9.42043 21.9998 8.89039 21.9698 8.40039 21.8998" stroke="#292D32" stroke-width="1.5" stroke-linecap="round" stroke-linejoin="round"/>
<path opacity="0.4" d="M3.70996 15.5198V11.2197" stroke="#292D32" stroke-width="1.5" stroke-linecap="round" stroke-linejoin="round"/>
<path d="M12.6998 12C14.5298 12 15.8798 10.5101 15.6998 8.68005L15.0298 2H10.3598L9.68983 8.68005C9.50983 10.5101 10.8698 12 12.6998 12Z" stroke="#292D32" stroke-width="1.5" stroke-linecap="round" stroke-linejoin="round"/>
<path d="M19.0002 12C21.0202 12 22.5002 10.36 22.3002 8.34998L22.0202 5.59998C21.6602 2.99998 20.6602 2 18.0402 2H14.9902L15.6902 9.01001C15.8702 10.66 17.3502 12 19.0002 12Z" stroke="#292D32" stroke-width="1.5" stroke-linecap="round" stroke-linejoin="round"/>
<path d="M6.33972 12C7.98972 12 9.4797 10.66 9.6397 9.01001L9.85974 6.80005L10.3397 2H7.28973C4.66973 2 3.66975 2.99998 3.30975 5.59998L3.02972 8.34998C2.82972 10.36 4.31972 12 6.33972 12Z" stroke="#292D32" stroke-width="1.5" stroke-linecap="round" stroke-linejoin="round"/>
<path d="M9.66992 19C9.66992 19.75 9.4599 20.4601 9.0899 21.0601C8.8999 21.3801 8.6699 21.67 8.3999 21.9C8.3699 21.94 8.33993 21.97 8.29993 22C7.59993 22.63 6.67992 23 5.66992 23C4.44992 23 3.35989 22.45 2.63989 21.59C2.61989 21.56 2.58995 21.54 2.56995 21.51C2.44995 21.37 2.33994 21.2201 2.24994 21.0601C1.87994 20.4601 1.66992 19.75 1.66992 19C1.66992 17.74 2.24992 16.61 3.16992 15.88C3.33992 15.74 3.5199 15.62 3.7099 15.52C4.2899 15.19 4.95992 15 5.66992 15C6.66992 15 7.5699 15.36 8.2699 15.97C8.3899 16.06 8.49991 16.17 8.59991 16.28C9.25991 17 9.66992 17.95 9.66992 19Z" stroke="#292D32" stroke-width="1.5" stroke-miterlimit="10" stroke-linecap="round" stroke-linejoin="round"/>
<path opacity="0.4" d="M7.15967 18.98H4.17969" stroke="#292D32" stroke-width="1.5" stroke-miterlimit="10" stroke-linecap="round" stroke-linejoin="round"/>
</svg>
