<svg width="25" height="24" viewBox="0 0 25 24" fill="none" xmlns="http://www.w3.org/2000/svg">
<path d="M5.66992 16.5V7.5C5.66992 6.88 5.68992 6.33 5.75992 5.84C6.04992 3.21 7.28992 2.5 10.6699 2.5H14.6699C18.0499 2.5 19.2899 3.21 19.5799 5.84C19.6499 6.33 19.6699 6.88 19.6699 7.5V16.5C19.6699 17.12 19.6499 17.67 19.5799 18.16C19.2899 20.79 18.0499 21.5 14.6699 21.5H10.6699C7.28992 21.5 6.04992 20.79 5.75992 18.16C5.68992 17.67 5.66992 17.12 5.66992 16.5Z" stroke="#292D32" stroke-width="1.5" stroke-linecap="round" stroke-linejoin="round"/>
<path opacity="0.4" d="M2.66992 19.5V4.5" stroke="#292D32" stroke-width="1.5" stroke-linecap="round" stroke-linejoin="round"/>
<path opacity="0.4" d="M22.6699 19V4" stroke="#292D32" stroke-width="1.5" stroke-linecap="round" stroke-linejoin="round"/>
</svg>
