<svg width="25" height="24" viewBox="0 0 25 24" fill="none" xmlns="http://www.w3.org/2000/svg">
<path d="M8.16992 5H17.1699C17.7899 5 18.3399 5.02 18.8299 5.09C21.4599 5.38 22.1699 6.62 22.1699 10V14C22.1699 17.38 21.4599 18.62 18.8299 18.91C18.3399 18.98 17.7899 19 17.1699 19H8.16992C7.54992 19 6.99992 18.98 6.50992 18.91C3.87992 18.62 3.16992 17.38 3.16992 14V10C3.16992 6.62 3.87992 5.38 6.50992 5.09C6.99992 5.02 7.54992 5 8.16992 5Z" stroke="#292D32" stroke-width="1.5" stroke-linecap="round" stroke-linejoin="round"/>
<path opacity="0.4" d="M5.16992 2H20.1699" stroke="#292D32" stroke-width="1.5" stroke-linecap="round" stroke-linejoin="round"/>
<path opacity="0.4" d="M5.66992 22H20.6699" stroke="#292D32" stroke-width="1.5" stroke-linecap="round" stroke-linejoin="round"/>
</svg>
