<svg width="25" height="24" viewBox="0 0 25 24" fill="none" xmlns="http://www.w3.org/2000/svg">
<path d="M12.0702 21.8101H18.2702C19.7002 21.8101 21.0702 20.65 21.3102 19.24L22.6402 11.28C22.8002 10.3 22.3002 8.99002 21.5302 8.37002L14.6002 2.82998C13.5302 1.96998 11.8002 1.96997 10.7402 2.81997L3.8102 8.37002C3.0302 8.99002 2.53019 10.3 2.70019 11.28L2.98018 12.96" stroke="#292D32" stroke-width="1.5" stroke-linecap="round" stroke-linejoin="round"/>
<path opacity="0.4" d="M2.66992 19C4.42992 19.04 5.62992 20.24 5.66992 22" stroke="#292D32" stroke-width="1.5" stroke-linecap="round" stroke-linejoin="round"/>
<path opacity="0.4" d="M8.66992 22C8.65992 21.24 8.52993 20.53 8.29993 19.88C7.70993 18.21 6.44992 16.96 4.78992 16.37C4.13992 16.14 3.42992 16.01 2.66992 16" stroke="#292D32" stroke-width="1.5" stroke-linecap="round" stroke-linejoin="round"/>
<path opacity="0.4" d="M2.66542 22H2.67442" stroke="#292D32" stroke-width="2" stroke-linecap="round" stroke-linejoin="round"/>
</svg>
