<svg width="25" height="24" viewBox="0 0 25 24" fill="none" xmlns="http://www.w3.org/2000/svg">
<path opacity="0.4" d="M14.6699 6.19995V10C11.8799 10.05 10.7199 11.21 10.6699 14H6.86992C3.86992 14 2.66992 12.8 2.66992 9.80005V6.19995C2.66992 3.19995 3.86992 2 6.86992 2H10.4699C13.4699 2 14.6699 3.19995 14.6699 6.19995Z" stroke="#292D32" stroke-width="1.5" stroke-linecap="round" stroke-linejoin="round"/>
<path opacity="0.4" d="M7.63012 5.87008C7.10012 5.51008 6.40012 5.5101 5.87012 5.8901" stroke="#292D32" stroke-width="1.5" stroke-miterlimit="10" stroke-linecap="round" stroke-linejoin="round"/>
<path opacity="0.4" d="M11.6301 5.87008C11.1001 5.51008 10.4001 5.5101 9.87012 5.8901" stroke="#292D32" stroke-width="1.5" stroke-miterlimit="10" stroke-linecap="round" stroke-linejoin="round"/>
<path opacity="0.4" d="M8.82973 11.4202H6.50973C6.20973 11.4202 5.96973 11.1801 5.96973 10.8801C5.96973 9.39013 7.17973 8.18018 8.66973 8.18018C9.30973 8.18018 9.89973 8.40014 10.3597 8.77014" stroke="#292D32" stroke-width="1.5" stroke-miterlimit="10" stroke-linecap="round" stroke-linejoin="round"/>
<path d="M22.6699 14.2V17.8C22.6699 20.8 21.4699 22 18.4699 22H14.8699C11.8699 22 10.6699 20.8 10.6699 17.8V14C10.7199 11.21 11.8799 10.05 14.6699 10H18.4699C21.4699 10 22.6699 11.2 22.6699 14.2Z" stroke="#292D32" stroke-width="1.5" stroke-linecap="round" stroke-linejoin="round"/>
<path d="M15.6301 13.6201C15.1001 13.9801 14.4001 13.9801 13.8701 13.6001" stroke="#292D32" stroke-width="1.5" stroke-miterlimit="10" stroke-linecap="round" stroke-linejoin="round"/>
<path d="M19.6301 13.6201C19.1001 13.9801 18.4001 13.9801 17.8701 13.6001" stroke="#292D32" stroke-width="1.5" stroke-miterlimit="10" stroke-linecap="round" stroke-linejoin="round"/>
<path d="M14.5097 16.1802H18.8297C19.1297 16.1802 19.3697 16.4201 19.3697 16.7201C19.3697 18.2101 18.1597 19.4202 16.6697 19.4202C15.1797 19.4202 13.9697 18.2101 13.9697 16.7201C13.9697 16.4201 14.2097 16.1802 14.5097 16.1802Z" stroke="#292D32" stroke-width="1.5" stroke-miterlimit="10" stroke-linecap="round" stroke-linejoin="round"/>
</svg>
