<svg width="25" height="24" viewBox="0 0 25 24" fill="none" xmlns="http://www.w3.org/2000/svg">
<path d="M22.6699 10.5V15.5C22.6699 19 20.6699 20.5 17.6699 20.5H7.66992C4.66992 20.5 2.66992 19 2.66992 15.5V8.5C2.66992 5 4.66992 3.5 7.66992 3.5H14.6699" stroke="#292D32" stroke-width="1.5" stroke-miterlimit="10" stroke-linecap="round" stroke-linejoin="round"/>
<path opacity="0.4" d="M7.66992 9L10.7999 11.5C11.8299 12.32 13.5199 12.32 14.5499 11.5L15.7299 10.56" stroke="#292D32" stroke-width="1.5" stroke-miterlimit="10" stroke-linecap="round" stroke-linejoin="round"/>
<path opacity="0.4" d="M20.1699 8C21.5506 8 22.6699 6.88071 22.6699 5.5C22.6699 4.11929 21.5506 3 20.1699 3C18.7892 3 17.6699 4.11929 17.6699 5.5C17.6699 6.88071 18.7892 8 20.1699 8Z" stroke="#292D32" stroke-width="1.5" stroke-miterlimit="10" stroke-linecap="round" stroke-linejoin="round"/>
</svg>
