<svg width="25" height="24" viewBox="0 0 25 24" fill="none" xmlns="http://www.w3.org/2000/svg">
<path d="M12.6699 20.5H7.66992C4.66992 20.5 2.66992 19 2.66992 15.5V8.5C2.66992 5 4.66992 3.5 7.66992 3.5H17.6699C20.6699 3.5 22.6699 5 22.6699 8.5V11.5" stroke="#292D32" stroke-width="1.5" stroke-miterlimit="10" stroke-linecap="round" stroke-linejoin="round"/>
<path opacity="0.4" d="M17.6699 9L14.5399 11.5C13.5099 12.32 11.8199 12.32 10.7899 11.5L7.66992 9" stroke="#292D32" stroke-width="1.5" stroke-miterlimit="10" stroke-linecap="round" stroke-linejoin="round"/>
<g opacity="0.4">
<path d="M19.88 14.77L16.34 18.31C16.2 18.45 16.07 18.71 16.04 18.9L15.85 20.25C15.78 20.74 16.12 21.0801 16.61 21.0101L17.96 20.82C18.15 20.79 18.42 20.66 18.55 20.52L22.09 16.9801C22.7 16.3701 22.99 15.6601 22.09 14.7601C21.2 13.8701 20.49 14.16 19.88 14.77Z" stroke="#292D32" stroke-width="1.5" stroke-miterlimit="10" stroke-linecap="round" stroke-linejoin="round"/>
<path d="M19.3701 15.28C19.6701 16.36 20.5101 17.2 21.5901 17.5" stroke="#292D32" stroke-width="1.5" stroke-miterlimit="10" stroke-linecap="round" stroke-linejoin="round"/>
</g>
</svg>
