<svg width="25" height="24" viewBox="0 0 25 24" fill="none" xmlns="http://www.w3.org/2000/svg">
<path d="M16.1699 12C16.1699 12.64 15.9999 13.23 15.6999 13.75C15.0899 14.8 13.9599 15.5 12.6699 15.5C11.3799 15.5 10.2499 14.8 9.63992 13.75C9.33992 13.23 9.16992 12.64 9.16992 12C9.16992 11.36 9.33992 10.77 9.63992 10.25C10.2499 9.2 11.3799 8.5 12.6699 8.5C13.9599 8.5 15.0899 9.2 15.6999 10.25C15.9999 10.77 16.1699 11.36 16.1699 12Z" stroke="#292D32" stroke-width="1.5" stroke-linecap="round" stroke-linejoin="round"/>
<g opacity="0.4">
<path d="M12.6699 8.5V3" stroke="#292D32" stroke-width="1.5" stroke-linecap="round" stroke-linejoin="round"/>
<path d="M12.6699 21V15.5" stroke="#292D32" stroke-width="1.5" stroke-linecap="round" stroke-linejoin="round"/>
<path d="M10.6699 3H14.6699" stroke="#292D32" stroke-width="1.5" stroke-linecap="round" stroke-linejoin="round"/>
<path d="M10.6699 21H14.6699" stroke="#292D32" stroke-width="1.5" stroke-linecap="round" stroke-linejoin="round"/>
<path d="M9.63988 10.25L4.87988 7.5" stroke="#292D32" stroke-width="1.5" stroke-linecap="round" stroke-linejoin="round"/>
<path d="M20.4592 16.5L15.6992 13.75" stroke="#292D32" stroke-width="1.5" stroke-linecap="round" stroke-linejoin="round"/>
<path d="M3.87988 9.23001L5.87988 5.77002" stroke="#292D32" stroke-width="1.5" stroke-linecap="round" stroke-linejoin="round"/>
<path d="M19.46 18.23L21.46 14.77" stroke="#292D32" stroke-width="1.5" stroke-linecap="round" stroke-linejoin="round"/>
<path d="M20.4592 7.5L15.6992 10.25" stroke="#292D32" stroke-width="1.5" stroke-linecap="round" stroke-linejoin="round"/>
<path d="M9.63988 13.75L4.87988 16.5" stroke="#292D32" stroke-width="1.5" stroke-linecap="round" stroke-linejoin="round"/>
<path d="M21.46 9.23001L19.46 5.77002" stroke="#292D32" stroke-width="1.5" stroke-linecap="round" stroke-linejoin="round"/>
<path d="M5.87988 18.23L3.87988 14.77" stroke="#292D32" stroke-width="1.5" stroke-linecap="round" stroke-linejoin="round"/>
</g>
</svg>
