<svg width="25" height="24" viewBox="0 0 25 24" fill="none" xmlns="http://www.w3.org/2000/svg">
<path opacity="0.4" d="M19.8099 19.5C21.5799 17.7 22.6699 15.22 22.6699 12.5C22.6699 6.98 18.1899 2.5 12.6699 2.5C7.14992 2.5 2.66992 6.98 2.66992 12.5C2.66992 15.22 3.74992 17.68 5.50992 19.49" stroke="#292D32" stroke-width="1.5" stroke-miterlimit="10" stroke-linecap="round" stroke-linejoin="round"/>
<path d="M12.67 21.5C14.5368 21.5 16.05 19.9867 16.05 18.12C16.05 16.2533 14.5368 14.74 12.67 14.74C10.8033 14.74 9.29004 16.2533 9.29004 18.12C9.29004 19.9867 10.8033 21.5 12.67 21.5Z" stroke="#292D32" stroke-width="1.5" stroke-miterlimit="10" stroke-linecap="round" stroke-linejoin="round"/>
<path d="M15.9199 12H16.6699C17.4899 12 18.1699 11.33 18.1699 10.5C18.1699 9.68 17.4899 9 16.6699 9C15.8499 9 15.1699 9.67 15.1699 10.5V11.25C15.1699 11.66 15.5099 12 15.9199 12Z" stroke="#292D32" stroke-width="1.5" stroke-miterlimit="10" stroke-linecap="round" stroke-linejoin="round"/>
</svg>
