<svg width="25" height="24" viewBox="0 0 25 24" fill="none" xmlns="http://www.w3.org/2000/svg">
<path d="M16.0599 5.21L17.4699 8.02999C17.6599 8.41999 18.1699 8.78999 18.5999 8.86999L21.1499 9.28999C22.7799 9.55999 23.1599 10.74 21.9899 11.92L19.9999 13.91C19.6699 14.24 19.4799 14.89 19.5899 15.36L20.1599 17.82C20.6099 19.76 19.5699 20.52 17.8599 19.5L15.4699 18.08C15.0399 17.82 14.3199 17.82 13.8899 18.08L11.4999 19.5C9.78986 20.51 8.74987 19.76 9.19987 17.82L9.76988 15.36C9.87988 14.9 9.68987 14.25 9.35987 13.91L7.36988 11.92C6.19988 10.75 6.57988 9.56999 8.20988 9.28999L10.7599 8.86999C11.1899 8.79999 11.6999 8.41999 11.8899 8.02999L13.2999 5.21C14.0499 3.68 15.2899 3.68 16.0599 5.21Z" stroke="#292D32" stroke-width="1.5" stroke-linecap="round" stroke-linejoin="round"/>
<path opacity="0.4" d="M8.66992 5H2.66992" stroke="#292D32" stroke-width="1.5" stroke-linecap="round" stroke-linejoin="round"/>
<path opacity="0.4" d="M5.66992 19H2.66992" stroke="#292D32" stroke-width="1.5" stroke-linecap="round" stroke-linejoin="round"/>
<path opacity="0.4" d="M3.66992 12H2.66992" stroke="#292D32" stroke-width="1.5" stroke-linecap="round" stroke-linejoin="round"/>
</svg>
