<svg width="25" height="24" viewBox="0 0 25 24" fill="none" xmlns="http://www.w3.org/2000/svg">
<path d="M9.66992 22H15.6699C20.6699 22 22.6699 20 22.6699 15V9C22.6699 4 20.6699 2 15.6699 2H9.66992C4.66992 2 2.66992 4 2.66992 9V15C2.66992 20 4.66992 22 9.66992 22Z" stroke="#292D32" stroke-width="1.5" stroke-linecap="round" stroke-linejoin="round"/>
<g opacity="0.4">
<path d="M15.0201 10.91C14.9201 11.62 14.5 12.22 13.92 12.58V14.56C13.92 15.25 13.36 15.81 12.67 15.81C11.98 15.81 11.42 15.25 11.42 14.56V12.58C10.84 12.22 10.42 11.62 10.32 10.91C10.3 10.8 10.29 10.68 10.29 10.56C10.29 9.04 11.7301 7.86 13.3101 8.28C14.1101 8.49 14.76 9.14 14.97 9.94C15.06 10.27 15.0701 10.6 15.0201 10.91Z" stroke="#292D32" stroke-width="1.5" stroke-miterlimit="10"/>
<path d="M22.6695 10.91H15.0195" stroke="#292D32" stroke-width="1.5" stroke-miterlimit="10"/>
<path d="M10.3199 10.91H2.66992" stroke="#292D32" stroke-width="1.5" stroke-miterlimit="10"/>
</g>
</svg>
