<svg width="25" height="24" viewBox="0 0 25 24" fill="none" xmlns="http://www.w3.org/2000/svg">
<path d="M12.6699 18.5C16.2598 18.5 19.1699 15.5899 19.1699 12C19.1699 8.41015 16.2598 5.5 12.6699 5.5C9.08007 5.5 6.16992 8.41015 6.16992 12C6.16992 15.5899 9.08007 18.5 12.6699 18.5Z" stroke="#292D32" stroke-width="1.5" stroke-linecap="round" stroke-linejoin="round"/>
<path opacity="0.4" d="M19.8099 19.14L19.6799 19.01M19.6799 4.99L19.8099 4.86L19.6799 4.99ZM5.52992 19.14L5.65992 19.01L5.52992 19.14ZM12.6699 2.08V2V2.08ZM12.6699 22V21.92V22ZM2.74992 12H2.66992H2.74992ZM22.6699 12H22.5899H22.6699ZM5.65992 4.99L5.52992 4.86L5.65992 4.99Z" stroke="#292D32" stroke-width="2" stroke-linecap="round" stroke-linejoin="round"/>
</svg>
