<svg width="25" height="24" viewBox="0 0 25 24" fill="none" xmlns="http://www.w3.org/2000/svg">
<path d="M5.07468 15.5264L9.60468 20.0564C11.4647 21.9164 14.4847 21.9164 16.3547 20.0564L20.7447 15.6664C22.6047 13.8064 22.6047 10.7864 20.7447 8.91637L16.2047 4.39637C15.2547 3.44637 13.9447 2.93637 12.6047 3.00637L7.60468 3.24637C5.60468 3.33637 4.01468 4.92637 3.91468 6.91637L3.67468 11.9164C3.61468 13.2664 4.12468 14.5764 5.07468 15.5264Z" stroke="#292D32" stroke-width="1.5" stroke-linecap="round" stroke-linejoin="round"/>
<path opacity="0.4" d="M10.4043 12.2263C11.785 12.2263 12.9043 11.107 12.9043 9.72632C12.9043 8.34561 11.785 7.22632 10.4043 7.22632C9.02358 7.22632 7.9043 8.34561 7.9043 9.72632C7.9043 11.107 9.02358 12.2263 10.4043 12.2263Z" stroke="#292D32" stroke-width="1.5" stroke-linecap="round"/>
<path opacity="0.4" d="M13.9043 17.2263L17.9043 13.2263" stroke="#292D32" stroke-width="1.5" stroke-miterlimit="10" stroke-linecap="round" stroke-linejoin="round"/>
</svg>
