<svg width="25" height="24" viewBox="0 0 25 24" fill="none" xmlns="http://www.w3.org/2000/svg">
<path d="M10.7199 2.53004L4.69994 6.46004C2.76994 7.72004 2.76994 10.54 4.69994 11.8L10.7199 15.73C11.7999 16.44 13.5799 16.44 14.6599 15.73L20.6499 11.8C22.5699 10.54 22.5699 7.73004 20.6499 6.47004L14.6599 2.54004C13.5799 1.82004 11.7999 1.82004 10.7199 2.53004Z" stroke="#292D32" stroke-width="1.5" stroke-linecap="round" stroke-linejoin="round"/>
<path opacity="0.4" d="M6.30004 13.0801L6.29004 17.7701C6.29004 19.0401 7.27004 20.4001 8.47004 20.8001L11.66 21.8601C12.21 22.0401 13.12 22.0401 13.68 21.8601L16.87 20.8001C18.07 20.4001 19.05 19.0401 19.05 17.7701V13.1301" stroke="#292D32" stroke-width="1.5" stroke-linecap="round" stroke-linejoin="round"/>
<path opacity="0.4" d="M22.0698 15V9" stroke="#292D32" stroke-width="1.5" stroke-linecap="round" stroke-linejoin="round"/>
</svg>
