<svg width="25" height="24" viewBox="0 0 25 24" fill="none" xmlns="http://www.w3.org/2000/svg">
<path d="M17.6648 4H7.6648C3.8348 4 2.7648 4.92 2.6748 8.5C4.6048 8.5 6.1648 10.07 6.1648 12C6.1648 13.93 4.6048 15.49 2.6748 15.5C2.7648 19.08 3.8348 20 7.6648 20H17.6648C21.6648 20 22.6648 19 22.6648 15V9C22.6648 5 21.6648 4 17.6648 4Z" stroke="#292D32" stroke-width="1.5" stroke-linecap="round" stroke-linejoin="round"/>
<path opacity="0.4" d="M9.66309 4V7.5" stroke="#292D32" stroke-width="1.5" stroke-linecap="round" stroke-linejoin="round"/>
<path opacity="0.4" d="M9.66309 16.5V20" stroke="#292D32" stroke-width="1.5" stroke-linecap="round" stroke-linejoin="round"/>
<path opacity="0.4" d="M15.6949 9.33003L16.3149 10.58C16.3749 10.7 16.4949 10.79 16.6249 10.81L18.0049 11.01C18.3449 11.06 18.4849 11.48 18.2349 11.72L17.2349 12.69C17.1349 12.78 17.0949 12.92 17.1149 13.06L17.3549 14.43C17.4149 14.77 17.0549 15.03 16.7549 14.87L15.5249 14.22C15.4049 14.16 15.2549 14.16 15.1349 14.22L13.9049 14.87C13.5949 15.03 13.2449 14.77 13.3049 14.43L13.5449 13.06C13.5649 12.92 13.5249 12.79 13.4249 12.69L12.4349 11.72C12.1849 11.48 12.3249 11.06 12.6649 11.01L14.0449 10.81C14.1849 10.79 14.2949 10.71 14.3549 10.58L14.9649 9.33003C15.1049 9.02003 15.5449 9.02003 15.6949 9.33003Z" stroke="#292D32" stroke-width="1.5" stroke-linecap="round" stroke-linejoin="round"/>
</svg>
