<svg width="25" height="24" viewBox="0 0 25 24" fill="none" xmlns="http://www.w3.org/2000/svg">
<path d="M20.1699 12.5C20.1699 11.12 21.2899 10 22.6699 10V9C22.6699 5 21.6699 4 17.6699 4H7.66992C3.66992 4 2.66992 5 2.66992 9V9.5C4.04992 9.5 5.16992 10.62 5.16992 12C5.16992 13.38 4.04992 14.5 2.66992 14.5V15C2.66992 19 3.66992 20 7.66992 20H17.6699C21.6699 20 22.6699 19 22.6699 15C21.2899 15 20.1699 13.88 20.1699 12.5Z" stroke="#292D32" stroke-width="1.5" stroke-linecap="round" stroke-linejoin="round"/>
<path opacity="0.4" d="M9.66992 14.75L15.6699 8.75" stroke="#292D32" stroke-width="1.5" stroke-linecap="round" stroke-linejoin="round"/>
<path opacity="0.4" d="M15.6644 14.75H15.6734" stroke="#292D32" stroke-width="2" stroke-linecap="round" stroke-linejoin="round"/>
<path opacity="0.4" d="M9.66443 9.25H9.67341" stroke="#292D32" stroke-width="2" stroke-linecap="round" stroke-linejoin="round"/>
</svg>
