<svg width="25" height="24" viewBox="0 0 25 24" fill="none" xmlns="http://www.w3.org/2000/svg">
<path opacity="0.4" d="M8.96992 16H11.3699C13.3699 16 14.1699 15.2 14.1699 13.2V10.8C14.1699 8.8 13.3699 8 11.3699 8H8.96992C6.96992 8 6.16992 8.8 6.16992 10.8V13.2C6.16992 15.2 6.96992 16 8.96992 16Z" stroke="#292D32" stroke-width="1.5" stroke-linecap="round" stroke-linejoin="round"/>
<path d="M17.6699 20H7.66992C3.66992 20 2.66992 19 2.66992 15V9C2.66992 5 3.66992 4 7.66992 4H17.6699C21.6699 4 22.6699 5 22.6699 9V15C22.6699 19 21.6699 20 17.6699 20Z" stroke="#292D32" stroke-width="1.5" stroke-linecap="round" stroke-linejoin="round"/>
</svg>
