<svg width="25" height="24" viewBox="0 0 25 24" fill="none" xmlns="http://www.w3.org/2000/svg">
<path d="M19.7321 18.67L17.5921 14.4L15.4521 18.67" stroke="#292D32" stroke-width="1.5" stroke-linecap="round" stroke-linejoin="round"/>
<path d="M15.8418 17.9099H19.3618" stroke="#292D32" stroke-width="1.5" stroke-linecap="round" stroke-linejoin="round"/>
<path d="M17.5917 22.0001C14.7917 22.0001 12.5117 19.73 12.5117 16.92C12.5117 14.12 14.7817 11.8401 17.5917 11.8401C20.3917 11.8401 22.6717 14.11 22.6717 16.92C22.6717 19.73 20.4017 22.0001 17.5917 22.0001Z" stroke="#292D32" stroke-width="1.5" stroke-linecap="round" stroke-linejoin="round"/>
<path d="M5.69188 2H9.61188C11.6819 2 12.6819 3.00002 12.6319 5.02002V8.94C12.6819 11.01 11.6819 12.01 9.61188 11.96H5.69188C3.67188 12 2.67188 11 2.67188 8.92999V5.01001C2.67188 3.00001 3.67188 2 5.69188 2Z" stroke="#292D32" stroke-width="1.5" stroke-linecap="round" stroke-linejoin="round"/>
<path d="M9.68207 5.84985H5.62207" stroke="#292D32" stroke-width="1.5" stroke-linecap="round" stroke-linejoin="round"/>
<path d="M7.64258 5.16992V5.84991" stroke="#292D32" stroke-width="1.5" stroke-linecap="round" stroke-linejoin="round"/>
<path d="M8.66231 5.83997C8.66231 7.58997 7.2923 9.00995 5.6123 9.00995" stroke="#292D32" stroke-width="1.5" stroke-linecap="round" stroke-linejoin="round"/>
<path d="M9.68202 9.01001C8.95202 9.01001 8.29203 8.62 7.83203 8" stroke="#292D32" stroke-width="1.5" stroke-linecap="round" stroke-linejoin="round"/>
<path opacity="0.4" d="M2.67188 15C2.67188 18.87 5.80188 22 9.67188 22L8.62187 20.25" stroke="#292D32" stroke-width="1.5" stroke-linecap="round" stroke-linejoin="round"/>
<path opacity="0.4" d="M22.6719 9C22.6719 5.13 19.5419 2 15.6719 2L16.7219 3.75" stroke="#292D32" stroke-width="1.5" stroke-linecap="round" stroke-linejoin="round"/>
</svg>
