<svg width="25" height="24" viewBox="0 0 25 24" fill="none" xmlns="http://www.w3.org/2000/svg">
<path d="M21.6699 5.98C18.3399 5.65 14.9899 5.48 11.6499 5.48C9.66992 5.48 7.68992 5.58 5.70992 5.78L3.66992 5.98" stroke="#292D32" stroke-width="1.5" stroke-linecap="round" stroke-linejoin="round"/>
<path opacity="0.34" d="M9.16992 4.97L9.38992 3.66C9.54992 2.71 9.66992 2 11.3599 2H13.9799C15.6699 2 15.7999 2.75 15.9499 3.67L16.1699 4.97" stroke="#292D32" stroke-width="1.5" stroke-linecap="round" stroke-linejoin="round"/>
<path d="M19.5203 9.14L18.8703 19.21C18.7603 20.78 18.6703 22 15.8803 22H9.46031C6.67031 22 6.58031 20.78 6.47031 19.21L5.82031 9.14" stroke="#292D32" stroke-width="1.5" stroke-linecap="round" stroke-linejoin="round"/>
<path opacity="0.34" d="M11 16.5H14.33" stroke="#292D32" stroke-width="1.5" stroke-linecap="round" stroke-linejoin="round"/>
<path opacity="0.34" d="M10.1699 12.5H15.1699" stroke="#292D32" stroke-width="1.5" stroke-linecap="round" stroke-linejoin="round"/>
</svg>
