<svg width="25" height="24" viewBox="0 0 25 24" fill="none" xmlns="http://www.w3.org/2000/svg">
<path d="M15.6699 22H9.66992C4.66992 22 2.66992 20 2.66992 15V9C2.66992 4 4.66992 2 9.66992 2H15.6699C20.6699 2 22.6699 4 22.6699 9V15C22.6699 20 20.6699 22 15.6699 22Z" stroke="black" stroke-width="1.5" stroke-linecap="round" stroke-linejoin="round"/>
<path opacity="0.4" d="M10.2198 17.72H7.76978C7.09978 17.72 6.5498 17.17 6.5498 16.5V7.51999C6.5498 6.84999 7.09978 6.29999 7.76978 6.29999H10.2198C10.8898 6.29999 11.4398 6.84999 11.4398 7.51999V16.5C11.4398 17.17 10.8898 17.72 10.2198 17.72Z" stroke="black" stroke-width="1.5" stroke-miterlimit="10"/>
<path opacity="0.4" d="M17.8097 13.63H14.8697C14.3297 13.63 13.8896 13.19 13.8896 12.65V7.26001C13.8896 6.72001 14.3297 6.28 14.8697 6.28H17.8097C18.3497 6.28 18.7897 6.72001 18.7897 7.26001V12.65C18.7897 13.19 18.3497 13.63 17.8097 13.63Z" stroke="black" stroke-width="1.5" stroke-miterlimit="10"/>
</svg>
