<svg width="25" height="24" viewBox="0 0 25 24" fill="none" xmlns="http://www.w3.org/2000/svg">
<path opacity="0.4" d="M12.6707 14H13.6707C14.7707 14 15.6707 13.1 15.6707 12V2H6.67065C5.17065 2 3.86066 2.82999 3.18066 4.04999" stroke="#292D32" stroke-width="1.5" stroke-linecap="round" stroke-linejoin="round"/>
<path d="M2.6709 17C2.6709 18.66 4.0109 20 5.6709 20H6.6709C6.6709 18.9 7.5709 18 8.6709 18C9.7709 18 10.6709 18.9 10.6709 20H14.6709C14.6709 18.9 15.5709 18 16.6709 18C17.7709 18 18.6709 18.9 18.6709 20H19.6709C21.3309 20 22.6709 18.66 22.6709 17V14H19.6709C19.1209 14 18.6709 13.55 18.6709 13V10C18.6709 9.45 19.1209 9 19.6709 9H20.9609L19.2509 6.01001C18.8909 5.39001 18.2309 5 17.5109 5H15.6709V12C15.6709 13.1 14.7709 14 13.6709 14H12.6709" stroke="#292D32" stroke-width="1.5" stroke-linecap="round" stroke-linejoin="round"/>
<path d="M8.6709 22C9.77547 22 10.6709 21.1046 10.6709 20C10.6709 18.8954 9.77547 18 8.6709 18C7.56633 18 6.6709 18.8954 6.6709 20C6.6709 21.1046 7.56633 22 8.6709 22Z" stroke="#292D32" stroke-width="1.5" stroke-linecap="round" stroke-linejoin="round"/>
<path d="M16.6709 22C17.7755 22 18.6709 21.1046 18.6709 20C18.6709 18.8954 17.7755 18 16.6709 18C15.5663 18 14.6709 18.8954 14.6709 20C14.6709 21.1046 15.5663 22 16.6709 22Z" stroke="#292D32" stroke-width="1.5" stroke-linecap="round" stroke-linejoin="round"/>
<path d="M22.6709 12V14H19.6709C19.1209 14 18.6709 13.55 18.6709 13V10C18.6709 9.45 19.1209 9 19.6709 9H20.9609L22.6709 12Z" stroke="#292D32" stroke-width="1.5" stroke-linecap="round" stroke-linejoin="round"/>
<path d="M2.6709 8H8.6709" stroke="#292D32" stroke-width="1.5" stroke-linecap="round" stroke-linejoin="round"/>
<path d="M2.6709 11H6.6709" stroke="#292D32" stroke-width="1.5" stroke-linecap="round" stroke-linejoin="round"/>
<path d="M2.6709 14H4.6709" stroke="#292D32" stroke-width="1.5" stroke-linecap="round" stroke-linejoin="round"/>
</svg>
