<svg width="25" height="24" viewBox="0 0 25 24" fill="none" xmlns="http://www.w3.org/2000/svg">
<path d="M9.66992 22H15.6699C20.6699 22 22.6699 20 22.6699 15V9C22.6699 4 20.6699 2 15.6699 2H9.66992C4.66992 2 2.66992 4 2.66992 9V15C2.66992 20 4.66992 22 9.66992 22Z" stroke="#292D32" stroke-width="1.5" stroke-linecap="round" stroke-linejoin="round"/>
<g opacity="0.4">
<path d="M18.5695 9.04997C16.3895 8.82997 14.1895 8.71997 11.9995 8.71997C10.6995 8.71997 9.39953 8.78997 8.10953 8.91997L6.76953 9.04997" stroke="#292D32" stroke-width="1.5" stroke-linecap="round" stroke-linejoin="round"/>
<path d="M10.3789 8.39L10.5189 7.53C10.6189 6.91 10.6989 6.44 11.8089 6.44H13.5289C14.6389 6.44 14.7189 6.93 14.8189 7.53L14.9589 8.38" stroke="#292D32" stroke-width="1.5" stroke-linecap="round" stroke-linejoin="round"/>
<path d="M17.1599 9.13L16.7299 15.73C16.6599 16.76 16.5999 17.56 14.7699 17.56H10.5599C8.72992 17.56 8.66991 16.76 8.59991 15.73L8.16992 9.13" stroke="#292D32" stroke-width="1.5" stroke-linecap="round" stroke-linejoin="round"/>
</g>
</svg>
