<svg width="25" height="24" viewBox="0 0 25 24" fill="none" xmlns="http://www.w3.org/2000/svg">
<path d="M17.6699 22H7.66992C3.66992 22 2.66992 21 2.66992 17V15C2.66992 11 3.66992 10 7.66992 10H17.6699C21.6699 10 22.6699 11 22.6699 15V17C22.6699 21 21.6699 22 17.6699 22Z" stroke="#292D32" stroke-width="1.5" stroke-linecap="round" stroke-linejoin="round"/>
<path opacity="0.4" d="M6.66992 10V8C6.66992 4.69 7.66992 2 12.6699 2C17.1699 2 18.6699 4 18.6699 7" stroke="#292D32" stroke-width="1.5" stroke-linecap="round" stroke-linejoin="round"/>
<path opacity="0.4" d="M12.6699 18.5C14.0506 18.5 15.1699 17.3807 15.1699 16C15.1699 14.6193 14.0506 13.5 12.6699 13.5C11.2892 13.5 10.1699 14.6193 10.1699 16C10.1699 17.3807 11.2892 18.5 12.6699 18.5Z" stroke="#292D32" stroke-width="1.5" stroke-linecap="round" stroke-linejoin="round"/>
</svg>
