<svg width="25" height="24" viewBox="0 0 25 24" fill="none" xmlns="http://www.w3.org/2000/svg">
<path d="M12.6699 12C15.4313 12 17.6699 9.76142 17.6699 7C17.6699 4.23858 15.4313 2 12.6699 2C9.9085 2 7.66992 4.23858 7.66992 7C7.66992 9.76142 9.9085 12 12.6699 12Z" stroke="#292D32" stroke-width="1.5" stroke-linecap="round" stroke-linejoin="round"/>
<path opacity="0.4" d="M4.08008 22C4.08008 18.13 7.93007 15 12.6701 15C13.6301 15 14.5601 15.13 15.4301 15.37" stroke="#292D32" stroke-width="1.5" stroke-linecap="round" stroke-linejoin="round"/>
<path d="M22.6699 18C22.6699 18.75 22.4599 19.46 22.0899 20.06C21.8799 20.42 21.6099 20.74 21.2999 21C20.5999 21.63 19.6799 22 18.6699 22C17.2099 22 15.9399 21.22 15.2499 20.06C14.8799 19.46 14.6699 18.75 14.6699 18C14.6699 16.74 15.2499 15.61 16.1699 14.88C16.8599 14.33 17.7299 14 18.6699 14C20.8799 14 22.6699 15.79 22.6699 18Z" stroke="#292D32" stroke-width="1.5" stroke-miterlimit="10" stroke-linecap="round" stroke-linejoin="round"/>
<path d="M17.1099 18L18.0999 18.99L20.2299 17.02" stroke="#292D32" stroke-width="1.5" stroke-linecap="round" stroke-linejoin="round"/>
</svg>
