<svg width="25" height="24" viewBox="0 0 25 24" fill="none" xmlns="http://www.w3.org/2000/svg">
<path opacity="0.4" d="M12.1298 13.7299C13.6817 13.7299 14.9398 12.4718 14.9398 10.9199C14.9398 9.36794 13.6817 8.10986 12.1298 8.10986C10.5779 8.10986 9.31982 9.36794 9.31982 10.9199C9.31982 12.4718 10.5779 13.7299 12.1298 13.7299Z" stroke="#292D32" stroke-width="1.5" stroke-linecap="round" stroke-linejoin="round"/>
<path opacity="0.4" d="M17.3199 20.2C17.3199 17.87 14.9999 15.97 12.1299 15.97C9.25994 15.97 6.93994 17.86 6.93994 20.2" stroke="#292D32" stroke-width="1.5" stroke-linecap="round" stroke-linejoin="round"/>
<path d="M21.6699 12.5C21.6699 17.75 17.4199 22 12.1699 22C6.91992 22 2.66992 17.75 2.66992 12.5C2.66992 7.25 6.91992 3 12.1699 3C13.4799 3 14.7299 3.25999 15.8699 3.73999C15.7399 4.13999 15.6699 4.56 15.6699 5C15.6699 5.75 15.8799 6.46 16.2499 7.06C16.4499 7.4 16.7099 7.70997 17.0099 7.96997C17.7099 8.60997 18.6399 9 19.6699 9C20.1099 9 20.5299 8.92998 20.9199 8.78998C21.3999 9.92998 21.6699 11.19 21.6699 12.5Z" stroke="#292D32" stroke-width="1.5" stroke-linecap="round" stroke-linejoin="round"/>
<path d="M23.6699 5C23.6699 5.32 23.6299 5.62999 23.5499 5.92999C23.4599 6.32999 23.2999 6.72 23.0899 7.06C22.6099 7.87 21.8399 8.49998 20.9199 8.78998C20.5299 8.92998 20.1099 9 19.6699 9C18.6399 9 17.7099 8.60997 17.0099 7.96997C16.7099 7.70997 16.4499 7.4 16.2499 7.06C15.8799 6.46 15.6699 5.75 15.6699 5C15.6699 4.56 15.7399 4.13999 15.8699 3.73999C16.0599 3.15999 16.3799 2.64002 16.7999 2.21002C17.5299 1.46002 18.5499 1 19.6699 1C20.8499 1 21.9199 1.51002 22.6399 2.33002C23.2799 3.04002 23.6699 3.98 23.6699 5Z" stroke="#292D32" stroke-width="1.5" stroke-miterlimit="10" stroke-linecap="round" stroke-linejoin="round"/>
<path d="M21.1597 4.97998H18.1797" stroke="#292D32" stroke-width="1.5" stroke-miterlimit="10" stroke-linecap="round" stroke-linejoin="round"/>
<path d="M19.6699 3.52002V6.51001" stroke="#292D32" stroke-width="1.5" stroke-miterlimit="10" stroke-linecap="round" stroke-linejoin="round"/>
</svg>
