<svg width="25" height="24" viewBox="0 0 25 24" fill="none" xmlns="http://www.w3.org/2000/svg">
<path d="M18.6699 18.86H17.9099C17.1099 18.86 16.3499 19.17 15.7899 19.73L14.0799 21.42C13.2999 22.19 12.0299 22.19 11.2499 21.42L9.53992 19.73C8.97992 19.17 8.20992 18.86 7.41992 18.86H6.66992C5.00992 18.86 3.66992 17.53 3.66992 15.89V4.97998C3.66992 3.33998 5.00992 2.01001 6.66992 2.01001H18.6699C20.3299 2.01001 21.6699 3.33998 21.6699 4.97998V15.89C21.6699 17.52 20.3299 18.86 18.6699 18.86Z" stroke="#292D32" stroke-width="1.5" stroke-miterlimit="10" stroke-linecap="round" stroke-linejoin="round"/>
<path opacity="0.4" d="M12.6699 10.0001C13.9567 10.0001 14.9999 8.95687 14.9999 7.67004C14.9999 6.38322 13.9567 5.34009 12.6699 5.34009C11.383 5.34009 10.3398 6.38322 10.3398 7.67004C10.3398 8.95687 11.383 10.0001 12.6699 10.0001Z" stroke="#292D32" stroke-width="1.5" stroke-linecap="round" stroke-linejoin="round"/>
<path opacity="0.4" d="M16.6699 15.6599C16.6699 13.8599 14.8799 12.3999 12.6699 12.3999C10.4599 12.3999 8.66992 13.8599 8.66992 15.6599" stroke="#292D32" stroke-width="1.5" stroke-linecap="round" stroke-linejoin="round"/>
</svg>
