<svg width="25" height="24" viewBox="0 0 25 24" fill="none" xmlns="http://www.w3.org/2000/svg">
<path d="M13.1999 20.42H6.87992C3.71992 20.42 2.66992 18.32 2.66992 16.21V7.79C2.66992 4.63 3.71992 3.58 6.87992 3.58H13.1999C16.3599 3.58 17.4099 4.63 17.4099 7.79V16.21C17.4099 19.37 16.3499 20.42 13.1999 20.42Z" stroke="#292D32" stroke-width="1.5" stroke-linecap="round" stroke-linejoin="round"/>
<path opacity="0.4" d="M20.1902 17.1L17.4102 15.15V8.83999L20.1902 6.88999C21.5502 5.93999 22.6702 6.51999 22.6702 8.18999V15.81C22.6702 17.48 21.5502 18.06 20.1902 17.1Z" stroke="#292D32" stroke-width="1.5" stroke-linecap="round" stroke-linejoin="round"/>
<path opacity="0.4" d="M12.1699 11C12.9983 11 13.6699 10.3284 13.6699 9.5C13.6699 8.67157 12.9983 8 12.1699 8C11.3415 8 10.6699 8.67157 10.6699 9.5C10.6699 10.3284 11.3415 11 12.1699 11Z" stroke="#292D32" stroke-width="1.5" stroke-linecap="round" stroke-linejoin="round"/>
</svg>
