<svg width="25" height="24" viewBox="0 0 25 24" fill="none" xmlns="http://www.w3.org/2000/svg">
<path d="M9.66992 22H15.6699C20.6699 22 22.6699 20 22.6699 15V9C22.6699 4 20.6699 2 15.6699 2H9.66992C4.66992 2 2.66992 4 2.66992 9V15C2.66992 20 4.66992 22 9.66992 22Z" stroke="#292D32" stroke-width="1.5" stroke-linecap="round" stroke-linejoin="round"/>
<path opacity="0.4" d="M9.76953 12V10.52C9.76953 8.61001 11.1195 7.84001 12.7695 8.79001L14.0495 9.53001L15.3295 10.27C16.9795 11.22 16.9795 12.78 15.3295 13.73L14.0495 14.47L12.7695 15.21C11.1195 16.16 9.76953 15.38 9.76953 13.48V12Z" stroke="#292D32" stroke-width="1.5" stroke-miterlimit="10" stroke-linecap="round" stroke-linejoin="round"/>
</svg>
