<svg width="25" height="24" viewBox="0 0 25 24" fill="none" xmlns="http://www.w3.org/2000/svg">
<path d="M22.6699 9V15C22.6699 15.23 22.6699 15.45 22.6499 15.67C22.6099 15.61 22.5599 15.55 22.5099 15.5C22.4999 15.49 22.4899 15.47 22.4799 15.46C21.6699 14.56 20.4799 14 19.1699 14C17.9099 14 16.7599 14.52 15.9399 15.36C15.1499 16.17 14.6699 17.28 14.6699 18.5C14.6699 19.34 14.9099 20.14 15.3199 20.82C15.5399 21.19 15.8199 21.53 16.1399 21.81C16.1599 21.82 16.1699 21.83 16.1799 21.84C16.2299 21.89 16.2799 21.93 16.3399 21.98C16.1299 22 15.8999 22 15.6699 22H9.66992C4.66992 22 2.66992 20 2.66992 15V9C2.66992 4 4.66992 2 9.66992 2H15.6699C20.6699 2 22.6699 4 22.6699 9Z" stroke="#292D32" stroke-width="1.5" stroke-linecap="round" stroke-linejoin="round"/>
<g opacity="0.4">
<path d="M3.18945 7.10999H22.1494" stroke="#292D32" stroke-width="1.5" stroke-linecap="round" stroke-linejoin="round"/>
<path d="M9.18945 2.10999V6.96997" stroke="#292D32" stroke-width="1.5" stroke-linecap="round" stroke-linejoin="round"/>
<path d="M16.1494 2.10999V6.52002" stroke="#292D32" stroke-width="1.5" stroke-linecap="round" stroke-linejoin="round"/>
</g>
<path d="M23.6699 18.5C23.6699 18.86 23.6299 19.21 23.5399 19.55C23.4299 20 23.2499 20.43 23.0199 20.82C22.2399 22.12 20.8099 23 19.1699 23C18.0899 23 17.1099 22.62 16.3499 21.98C16.3399 21.98 16.3399 21.98 16.3399 21.98C16.2799 21.93 16.2299 21.89 16.1799 21.84C16.1699 21.83 16.1599 21.82 16.1399 21.81C15.8199 21.53 15.5399 21.19 15.3199 20.82C14.9099 20.14 14.6699 19.34 14.6699 18.5C14.6699 17.28 15.1499 16.17 15.9399 15.36C16.7599 14.52 17.9099 14 19.1699 14C20.4799 14 21.6699 14.56 22.4799 15.46C22.4899 15.47 22.4999 15.49 22.5099 15.5C22.5599 15.55 22.6099 15.61 22.6499 15.67C23.2899 16.44 23.6699 17.43 23.6699 18.5Z" stroke="#292D32" stroke-width="1.5" stroke-miterlimit="10" stroke-linecap="round" stroke-linejoin="round"/>
<g opacity="0.4">
<path d="M20.8502 18.4802H17.4902" stroke="#292D32" stroke-width="1.5" stroke-miterlimit="10" stroke-linecap="round" stroke-linejoin="round"/>
<path d="M19.1699 16.84V20.2" stroke="#292D32" stroke-width="1.5" stroke-miterlimit="10" stroke-linecap="round" stroke-linejoin="round"/>
</g>
</svg>
