<svg width="25" height="24" viewBox="0 0 25 24" fill="none" xmlns="http://www.w3.org/2000/svg">
<path d="M15.6699 8.37V7.41C15.6699 4.43 13.5999 3.29 11.0799 4.87L8.15992 6.7C7.83992 6.89 7.46992 7 7.09992 7H5.66992C3.66992 7 2.66992 8 2.66992 10V14C2.66992 16 3.66992 17 5.66992 17H7.66992" stroke="#292D32" stroke-width="1.5" stroke-linecap="round" stroke-linejoin="round"/>
<path opacity="0.4" d="M11.0801 19.13C13.6001 20.71 15.6701 19.56 15.6701 16.59V12.95" stroke="#292D32" stroke-width="1.5" stroke-linecap="round" stroke-linejoin="round"/>
<path opacity="0.4" d="M19.4799 9.42C20.3799 11.57 20.1099 14.08 18.6699 16" stroke="#292D32" stroke-width="1.5" stroke-linecap="round" stroke-linejoin="round"/>
<path opacity="0.4" d="M21.82 7.8C23.29 11.29 22.85 15.37 20.5 18.5" stroke="#292D32" stroke-width="1.5" stroke-linecap="round" stroke-linejoin="round"/>
<path d="M22.6699 2L2.66992 22" stroke="#292D32" stroke-width="1.5" stroke-linecap="round" stroke-linejoin="round"/>
</svg>
