<svg width="25" height="24" viewBox="0 0 25 24" fill="none" xmlns="http://www.w3.org/2000/svg">
<path opacity="0.4" d="M13.6699 11.15H7.66992" stroke="#292D32" stroke-width="1.5" stroke-linecap="round" stroke-linejoin="round"/>
<path opacity="0.4" d="M2.66992 11.1501V6.53009C2.66992 4.49009 4.31992 2.84009 6.35992 2.84009H11.9799C14.0199 2.84009 15.6699 4.11009 15.6699 6.15009" stroke="#292D32" stroke-width="1.5" stroke-linecap="round" stroke-linejoin="round"/>
<path d="M18.1499 12.2C17.6499 12.68 17.4099 13.42 17.6099 14.18C17.8599 15.11 18.7799 15.7 19.7399 15.7H20.6699V17.15C20.6699 19.36 18.8799 21.15 16.6699 21.15H6.66992C4.45992 21.15 2.66992 19.36 2.66992 17.15V10.15C2.66992 7.94002 4.45992 6.15002 6.66992 6.15002H16.6699C18.8699 6.15002 20.6699 7.95002 20.6699 10.15V11.6H19.5899C19.0299 11.6 18.5199 11.82 18.1499 12.2Z" stroke="#292D32" stroke-width="1.5" stroke-linecap="round" stroke-linejoin="round"/>
<path d="M22.6701 12.62V14.68C22.6701 15.24 22.2101 15.7 21.6401 15.7H19.7101C18.6301 15.7 17.6401 14.91 17.5501 13.83C17.4901 13.2 17.7301 12.61 18.1501 12.2C18.5201 11.82 19.0301 11.6 19.5901 11.6H21.6401C22.2101 11.6 22.6701 12.06 22.6701 12.62Z" stroke="#292D32" stroke-width="1.5" stroke-linecap="round" stroke-linejoin="round"/>
</svg>
