<svg width="25" height="24" viewBox="0 0 25 24" fill="none" xmlns="http://www.w3.org/2000/svg">
<path d="M13.3299 2.51814L13.2999 2.58814L10.3999 9.31814H7.54988C6.86988 9.31814 6.21988 9.45814 5.62988 9.70814L7.37988 5.52814L7.41988 5.42814L7.48988 5.26814C7.50988 5.20814 7.52988 5.14814 7.55988 5.09814C8.86988 2.06814 10.3499 1.37814 13.3299 2.51814Z" stroke="#292D32" stroke-width="1.5" stroke-linecap="round" stroke-linejoin="round"/>
<path d="M18.7204 9.51819C18.2704 9.37819 17.7904 9.31819 17.3104 9.31819H10.4004L13.3004 2.58819L13.3304 2.51819C13.4804 2.56819 13.6204 2.63819 13.7704 2.69819L15.9804 3.62819C17.2104 4.13819 18.0704 4.66819 18.5904 5.30819C18.6904 5.42819 18.7704 5.53819 18.8404 5.66819C18.9304 5.80819 19.0004 5.94819 19.0404 6.09819C19.0804 6.18819 19.1104 6.27819 19.1304 6.35819C19.4004 7.19819 19.2404 8.22819 18.7204 9.51819Z" stroke="#292D32" stroke-width="1.5" stroke-linecap="round" stroke-linejoin="round"/>
<path d="M22.1916 14.1984V16.1484C22.1916 16.3484 22.1816 16.5484 22.1716 16.7484C21.9816 20.2384 20.0316 21.9984 16.3316 21.9984H8.53164C8.29164 21.9984 8.05164 21.9784 7.82164 21.9484C4.64164 21.7384 2.94164 20.0384 2.73164 16.8584C2.70164 16.6284 2.68164 16.3884 2.68164 16.1484V14.1984C2.68164 12.1884 3.90164 10.4584 5.64164 9.70836C6.24164 9.45836 6.88164 9.31836 7.56164 9.31836H17.3216C17.8116 9.31836 18.2916 9.38836 18.7316 9.51836C20.7216 10.1284 22.1916 11.9884 22.1916 14.1984Z" stroke="#292D32" stroke-width="1.5" stroke-linecap="round" stroke-linejoin="round"/>
<path opacity="0.4" d="M7.37992 5.52808L5.62992 9.70808C3.88992 10.4581 2.66992 12.1881 2.66992 14.1981V11.2681C2.66992 8.42808 4.68992 6.05808 7.37992 5.52808Z" stroke="#292D32" stroke-width="1.5" stroke-linecap="round" stroke-linejoin="round"/>
<path opacity="0.4" d="M22.1885 11.2677V14.1977C22.1885 11.9977 20.7285 10.1277 18.7285 9.52766C19.2485 8.22766 19.3985 7.20766 19.1485 6.35766C19.1285 6.26766 19.0985 6.17766 19.0585 6.09766C20.9185 7.05766 22.1885 9.02766 22.1885 11.2677Z" stroke="#292D32" stroke-width="1.5" stroke-linecap="round" stroke-linejoin="round"/>
</svg>
