<svg width="25" height="24" viewBox="0 0 25 24" fill="none" xmlns="http://www.w3.org/2000/svg">
<path d="M12.6699 22H17.6699C20.6699 22 22.6699 20 22.6699 17V12C22.6699 9.3 20.9699 7.3 18.4699 7C18.2699 7 17.9699 7 17.6699 7H7.66992C7.36992 7 7.16992 6.99998 6.86992 7.09998C4.26992 7.39998 2.66992 9.3 2.66992 12C2.66992 12.3 2.66992 12.7 2.66992 13" stroke="#292D32" stroke-width="1.5" stroke-linecap="round" stroke-linejoin="round"/>
<path opacity="0.4" d="M18.4701 6.99995C18.2701 6.99995 17.9701 6.99995 17.6701 6.99995H7.67012C7.37012 6.99995 7.17012 6.99993 6.87012 7.09993C6.97012 6.79993 7.17012 6.59994 7.47012 6.29994L10.6701 2.99995C12.0701 1.59995 14.2701 1.59995 15.6701 2.99995L17.4701 4.79994C18.0701 5.39994 18.3701 6.19995 18.4701 6.99995Z" stroke="#292D32" stroke-width="1.5" stroke-linecap="round" stroke-linejoin="round"/>
<path opacity="0.4" d="M22.6699 12.5H19.6699C18.5699 12.5 17.6699 13.4 17.6699 14.5C17.6699 15.6 18.5699 16.5 19.6699 16.5H22.6699" stroke="#292D32" stroke-width="1.5" stroke-linecap="round" stroke-linejoin="round"/>
<path d="M6.46954 21.4C8.23954 21.4 9.66953 19.97 9.66953 18.2C9.66953 16.43 8.23954 15 6.46954 15C4.69954 15 3.26953 16.43 3.26953 18.2C3.26953 19.97 4.69954 21.4 6.46954 21.4Z" stroke="#292D32" stroke-width="1.5" stroke-linecap="round" stroke-linejoin="round"/>
<path d="M2.66992 22L3.66992 21" stroke="#292D32" stroke-width="1.5" stroke-linecap="round" stroke-linejoin="round"/>
</svg>
