<svg width="25" height="24" viewBox="0 0 25 24" fill="none" xmlns="http://www.w3.org/2000/svg">
<path d="M2.66992 15H19.1699C21.0999 15 22.6699 16.57 22.6699 18.5C22.6699 20.43 21.0999 22 19.1699 22C17.2399 22 15.6699 20.43 15.6699 18.5V18" stroke="#292D32" stroke-width="1.5" stroke-miterlimit="10" stroke-linecap="round" stroke-linejoin="round"/>
<path opacity="0.4" d="M2.66992 12H19.1699C21.0899 12 22.6699 10.43 22.6699 8.5C22.6699 6.58 21.0899 5 19.1699 5C17.2499 5 15.6699 6.57 15.6699 8.5V9" stroke="#292D32" stroke-width="1.5" stroke-miterlimit="10" stroke-linecap="round" stroke-linejoin="round"/>
<path d="M2.66992 9.00012H9.97992C11.4699 9.00012 12.6699 7.79012 12.6699 6.31012C12.6699 4.82012 11.4599 3.62012 9.97992 3.62012C8.48992 3.62012 7.28992 4.83012 7.28992 6.31012V6.69012" stroke="#292D32" stroke-width="1.5" stroke-miterlimit="10" stroke-linecap="round" stroke-linejoin="round"/>
</svg>
