<svg width="25" height="24" viewBox="0 0 25 24" fill="none" xmlns="http://www.w3.org/2000/svg">
<path opacity="0.4" d="M2.66992 13.0999L5.16992 11.5999C6.70992 10.6799 8.62992 10.6799 10.1699 11.5999C11.7099 12.5199 13.6299 12.5199 15.1699 11.5999C16.7099 10.6799 18.6299 10.6799 20.1699 11.5999L22.6699 13.0999" stroke="#292D32" stroke-width="1.5" stroke-miterlimit="10" stroke-linecap="round" stroke-linejoin="round"/>
<path d="M2.66992 3.8999L5.16992 5.3999C6.70992 6.3199 8.62992 6.3199 10.1699 5.3999C11.7099 4.4799 13.6299 4.4799 15.1699 5.3999C16.7099 6.3199 18.6299 6.3199 20.1699 5.3999L22.6699 3.8999" stroke="#292D32" stroke-width="1.5" stroke-miterlimit="10" stroke-linecap="round" stroke-linejoin="round"/>
<path d="M2.66992 20.0999L5.16992 18.5999C6.70992 17.6799 8.62992 17.6799 10.1699 18.5999C11.7099 19.5199 13.6299 19.5199 15.1699 18.5999C16.7099 17.6799 18.6299 17.6799 20.1699 18.5999L22.6699 20.0999" stroke="#292D32" stroke-width="1.5" stroke-miterlimit="10" stroke-linecap="round" stroke-linejoin="round"/>
</svg>
