<svg width="25" height="24" viewBox="0 0 25 24" fill="none" xmlns="http://www.w3.org/2000/svg">
<path opacity="0.4" d="M22.6699 9.75C22.2599 9.75 21.9199 9.41 21.9199 9V7C21.9199 4.42 20.2499 2.75 17.6699 2.75H7.66992C5.08992 2.75 3.41992 4.42 3.41992 7V9C3.41992 9.41 3.07992 9.75 2.66992 9.75C2.25992 9.75 1.91992 9.41 1.91992 9V7C1.91992 3.56 4.22992 1.25 7.66992 1.25H17.6699C21.1099 1.25 23.4199 3.56 23.4199 7V9C23.4199 9.41 23.0799 9.75 22.6699 9.75Z" fill="#292D32"/>
<path opacity="0.4" d="M17.6699 22.75H7.66992C4.22992 22.75 1.91992 20.44 1.91992 17V15C1.91992 14.59 2.25992 14.25 2.66992 14.25C3.07992 14.25 3.41992 14.59 3.41992 15V17C3.41992 19.58 5.08992 21.25 7.66992 21.25H17.6699C20.2499 21.25 21.9199 19.58 21.9199 17V15C21.9199 14.59 22.2599 14.25 22.6699 14.25C23.0799 14.25 23.4199 14.59 23.4199 15V17C23.4199 20.44 21.1099 22.75 17.6699 22.75Z" fill="#292D32"/>
<path d="M17.0698 8.20999L13.3098 6.17996C12.9098 5.96996 12.4398 5.96996 12.0398 6.17996L8.27985 8.20999C8.00985 8.35999 7.83984 8.64995 7.83984 8.97995C7.83984 9.30995 8.00985 9.59997 8.27985 9.74997L12.0398 11.78C12.2398 11.89 12.4598 11.94 12.6798 11.94C12.8998 11.94 13.1198 11.89 13.3198 11.78L17.0798 9.74997C17.3498 9.59997 17.5199 9.30995 17.5199 8.97995C17.5099 8.64995 17.3398 8.35999 17.0698 8.20999Z" fill="#292D32"/>
<path d="M11.4102 12.4699L7.91016 10.7199C7.64016 10.5899 7.33014 10.6 7.07014 10.76C6.81014 10.92 6.66016 11.1899 6.66016 11.4899V14.7999C6.66016 15.3699 6.98016 15.89 7.49016 16.14L10.9902 17.89C11.1102 17.95 11.2402 17.9799 11.3802 17.9799C11.5402 17.9799 11.6902 17.9399 11.8302 17.8499C12.0902 17.6899 12.2402 17.4199 12.2402 17.1199V13.8099C12.2402 13.2399 11.9302 12.7299 11.4102 12.4699Z" fill="#292D32"/>
<path d="M18.2598 10.76C17.9998 10.6 17.6898 10.5899 17.4198 10.7199L13.9198 12.4699C13.4098 12.7299 13.0898 13.2399 13.0898 13.8099V17.1199C13.0898 17.4199 13.2398 17.6899 13.4998 17.8499C13.6398 17.9399 13.7898 17.9799 13.9498 17.9799C14.0798 17.9799 14.2098 17.95 14.3398 17.89L17.8398 16.14C18.3498 15.88 18.6698 15.3699 18.6698 14.7999V11.4899C18.6698 11.1899 18.5198 10.92 18.2598 10.76Z" fill="#292D32"/>
</svg>
