<svg width="25" height="24" viewBox="0 0 25 24" fill="none" xmlns="http://www.w3.org/2000/svg">
<path fill-rule="evenodd" clip-rule="evenodd" d="M8.24813 2.91194C5.47902 3.55436 3.41992 6.03342 3.41992 9C3.41992 9.41421 3.08414 9.75 2.66992 9.75C2.25571 9.75 1.91992 9.41421 1.91992 9C1.91992 4.71579 5.38571 1.25 9.66992 1.25C9.94012 1.25 10.1894 1.39534 10.3226 1.63047C10.4557 1.8656 10.4521 2.15417 10.313 2.38587L9.26306 4.13587C9.04995 4.49105 8.58925 4.60623 8.23407 4.39312C7.87888 4.18001 7.7637 3.71932 7.97681 3.36413L8.24813 2.91194ZM22.6699 14.25C23.0841 14.25 23.4199 14.5858 23.4199 15C23.4199 19.2842 19.9541 22.75 15.6699 22.75C15.3997 22.75 15.1504 22.6047 15.0173 22.3695C14.8841 22.1344 14.8878 21.8458 15.0268 21.6141L16.0768 19.8641C16.2899 19.5089 16.7506 19.3938 17.1058 19.6069C17.461 19.82 17.5761 20.2807 17.363 20.6359L17.0917 21.0881C19.8608 20.4456 21.9199 17.9666 21.9199 15C21.9199 14.5858 22.2557 14.25 22.6699 14.25Z" fill="#292D32"/>
<path d="M17.0703 8.20996L13.3103 6.17996C12.9103 5.96996 12.4403 5.96996 12.0403 6.17996L8.2803 8.20996C8.0103 8.35996 7.84033 8.64996 7.84033 8.97996C7.84033 9.30996 8.0103 9.59996 8.2803 9.74996L12.0403 11.78C12.2403 11.89 12.4603 11.94 12.6803 11.94C12.9003 11.94 13.1203 11.89 13.3203 11.78L17.0803 9.74996C17.3503 9.59996 17.5203 9.30996 17.5203 8.97996C17.5103 8.64996 17.3403 8.35996 17.0703 8.20996Z" fill="#292D32"/>
<path opacity="0.4" d="M11.4102 12.4699L7.91016 10.7199C7.64016 10.5899 7.33016 10.5999 7.07016 10.7599C6.81016 10.9199 6.66016 11.1899 6.66016 11.4899V14.7999C6.66016 15.3699 6.98017 15.8899 7.49017 16.1399L10.9902 17.8899C11.1102 17.9499 11.2402 17.9799 11.3802 17.9799C11.5402 17.9799 11.6902 17.9399 11.8302 17.8499C12.0902 17.6899 12.2402 17.4199 12.2402 17.1199V13.8099C12.2402 13.2399 11.9302 12.7299 11.4102 12.4699Z" fill="#292D32"/>
<path opacity="0.4" d="M18.2603 10.7599C18.0003 10.5999 17.6903 10.5899 17.4203 10.7199L13.9203 12.4699C13.4103 12.7299 13.0903 13.2399 13.0903 13.8099V17.1199C13.0903 17.4199 13.2403 17.6899 13.5003 17.8499C13.6403 17.9399 13.7903 17.9799 13.9503 17.9799C14.0803 17.9799 14.2103 17.9499 14.3403 17.8899L17.8403 16.1399C18.3503 15.8799 18.6703 15.3699 18.6703 14.7999V11.4899C18.6703 11.1899 18.5203 10.9199 18.2603 10.7599Z" fill="#292D32"/>
</svg>
