<svg width="25" height="24" viewBox="0 0 25 24" fill="none" xmlns="http://www.w3.org/2000/svg">
<path opacity="0.4" d="M16.8597 2.33008H8.48969C4.84968 2.33008 2.67969 4.50008 2.67969 8.14008V16.5101C2.67969 20.1501 4.84968 22.3201 8.48969 22.3201H16.8597C20.4997 22.3201 22.6697 20.1501 22.6697 16.5101V8.15008C22.6697 4.51008 20.4997 2.33008 16.8597 2.33008Z" fill="#292D32"/>
<path d="M17.0698 8.20996L13.3098 6.17996C12.9098 5.96996 12.4398 5.96996 12.0398 6.17996L8.27982 8.20996C8.00982 8.35996 7.83984 8.64996 7.83984 8.97996C7.83984 9.30996 8.00982 9.59996 8.27982 9.74996L12.0398 11.78C12.2398 11.89 12.4598 11.94 12.6798 11.94C12.8998 11.94 13.1198 11.89 13.3198 11.78L17.0798 9.74996C17.3498 9.59996 17.5198 9.30996 17.5198 8.97996C17.5098 8.64996 17.3398 8.35996 17.0698 8.20996Z" fill="#292D32"/>
<path d="M11.4102 12.4699L7.91016 10.7199C7.64016 10.5899 7.33016 10.5999 7.07016 10.7599C6.81016 10.9199 6.66016 11.1899 6.66016 11.4899V14.7999C6.66016 15.3699 6.98017 15.8899 7.49017 16.1399L10.9902 17.8899C11.1102 17.9499 11.2402 17.9799 11.3802 17.9799C11.5402 17.9799 11.6902 17.9399 11.8302 17.8499C12.0902 17.6899 12.2402 17.4199 12.2402 17.1199V13.8099C12.2402 13.2399 11.9302 12.7299 11.4102 12.4699Z" fill="#292D32"/>
<path d="M18.2598 10.7599C17.9998 10.5999 17.6898 10.5899 17.4198 10.7199L13.9198 12.4699C13.4098 12.7299 13.0898 13.2399 13.0898 13.8099V17.1199C13.0898 17.4199 13.2398 17.6899 13.4998 17.8499C13.6398 17.9399 13.7898 17.9799 13.9498 17.9799C14.0798 17.9799 14.2098 17.9499 14.3398 17.8899L17.8398 16.1399C18.3498 15.8799 18.6698 15.3699 18.6698 14.7999V11.4899C18.6698 11.1899 18.5198 10.9199 18.2598 10.7599Z" fill="#292D32"/>
</svg>
