<svg width="25" height="24" viewBox="0 0 25 24" fill="none" xmlns="http://www.w3.org/2000/svg">
<path d="M24.6699 0H0.669922V24H24.6699V0Z" fill="white"/>
<path opacity="0.4" d="M12.6699 22C18.1928 22 22.6699 17.5228 22.6699 12C22.6699 6.47715 18.1928 2 12.6699 2C7.14707 2 2.66992 6.47715 2.66992 12C2.66992 17.5228 7.14707 22 12.6699 22Z" fill="#292D32"/>
<path d="M17.36 15.7L13.36 6.70004C13.12 6.16004 12.23 6.16004 11.99 6.70004L9.96999 11.25H8.67001C8.26001 11.25 7.92001 11.59 7.92001 12C7.92001 12.41 8.26001 12.75 8.67001 12.75H9.29L7.98 15.7C7.81 16.08 7.98001 16.52 8.36001 16.69C8.74001 16.86 9.18 16.69 9.35 16.31L10.93 12.76H12.67C13.08 12.76 13.42 12.42 13.42 12.01C13.42 11.6 13.08 11.26 12.67 11.26H11.6L12.67 8.86004L15.98 16.32C16.1 16.6 16.38 16.77 16.67 16.77C16.77 16.77 16.88 16.75 16.97 16.71C17.35 16.52 17.52 16.07 17.36 15.7Z" fill="#292D32"/>
</svg>
