<svg width="25" height="24" viewBox="0 0 25 24" fill="none" xmlns="http://www.w3.org/2000/svg">
<path opacity="0.4" d="M16.8599 2H8.47992C4.83992 2 2.66992 4.17 2.66992 7.81V16.18C2.66992 19.83 4.83992 22 8.47992 22H16.8499C20.4899 22 22.6599 19.83 22.6599 16.19V7.81C22.6699 4.17 20.4999 2 16.8599 2Z" fill="#292D32"/>
<path d="M8.00003 15.24C7.84003 15.24 7.68003 15.19 7.54003 15.08C7.21003 14.83 7.15003 14.36 7.40003 14.03L9.78003 10.94C10.07 10.57 10.48 10.33 10.95 10.27C11.41 10.21 11.88 10.34 12.25 10.63L14.08 12.07C14.15 12.13 14.22 12.13 14.27 12.12C14.31 12.12 14.38 12.1 14.44 12.02L16.75 9.04001C17 8.71001 17.48 8.65001 17.8 8.91001C18.13 9.16001 18.19 9.63001 17.93 9.96001L15.62 12.94C15.33 13.31 14.92 13.55 14.45 13.6C13.98 13.66 13.52 13.53 13.15 13.24L11.32 11.8C11.25 11.74 11.17 11.74 11.13 11.75C11.09 11.75 11.02 11.77 10.96 11.85L8.58003 14.94C8.45003 15.14 8.23003 15.24 8.00003 15.24Z" fill="#292D32"/>
</svg>
