<svg width="25" height="24" viewBox="0 0 25 24" fill="none" xmlns="http://www.w3.org/2000/svg">
<path opacity="0.4" d="M16.8599 2H8.47992C4.83992 2 2.66992 4.17 2.66992 7.81V16.18C2.66992 19.83 4.83992 22 8.47992 22H16.8499C20.4899 22 22.6599 19.83 22.6599 16.19V7.81C22.6699 4.17 20.4999 2 16.8599 2Z" fill="#292D32"/>
<path d="M18.6699 11.25H13.4199V6C13.4199 5.59 13.0799 5.25 12.6699 5.25C12.2599 5.25 11.9199 5.59 11.9199 6V11.25H6.66992C6.25992 11.25 5.91992 11.59 5.91992 12C5.91992 12.41 6.25992 12.75 6.66992 12.75H11.9199V18C11.9199 18.41 12.2599 18.75 12.6699 18.75C13.0799 18.75 13.4199 18.41 13.4199 18V12.75H18.6699C19.0799 12.75 19.4199 12.41 19.4199 12C19.4199 11.59 19.0799 11.25 18.6699 11.25Z" fill="#292D32"/>
</svg>
