<svg width="25" height="24" viewBox="0 0 25 24" fill="none" xmlns="http://www.w3.org/2000/svg">
<path opacity="0.4" d="M19.2402 22H14.6702C12.3802 22 11.2402 20.86 11.2402 18.57V11.43C11.2402 9.14 12.3802 8 14.6702 8H19.2402C21.5302 8 22.6702 9.14 22.6702 11.43V18.57C22.6702 20.86 21.5302 22 19.2402 22Z" fill="#292D32"/>
<path d="M14.0999 5.43V6.77C11.4799 6.98 9.98992 8.66 9.98992 11.43V16H6.09992C3.80992 16 2.66992 14.86 2.66992 12.57V5.43C2.66992 3.14 3.80992 2 6.09992 2H10.6699C12.9599 2 14.0999 3.14 14.0999 5.43Z" fill="#292D32"/>
<path d="M18.8 14.2501H17.92V13.3701C17.92 12.9601 17.58 12.6201 17.17 12.6201C16.76 12.6201 16.42 12.9601 16.42 13.3701V14.2501H15.54C15.13 14.2501 14.79 14.5901 14.79 15.0001C14.79 15.4101 15.13 15.7501 15.54 15.7501H16.42V16.6301C16.42 17.0401 16.76 17.3801 17.17 17.3801C17.58 17.3801 17.92 17.0401 17.92 16.6301V15.7501H18.8C19.21 15.7501 19.55 15.4101 19.55 15.0001C19.55 14.5901 19.21 14.2501 18.8 14.2501Z" fill="#292D32"/>
</svg>
