<svg width="25" height="24" viewBox="0 0 25 24" fill="none" xmlns="http://www.w3.org/2000/svg">
<path d="M14.8002 11.3401C15.1902 9.70008 13.7601 8.27003 12.1201 8.66003C11.3501 8.85003 10.7201 9.48005 10.5301 10.2501C10.1401 11.8901 11.5701 13.32 13.2101 12.93C13.9901 12.74 14.6202 12.1101 14.8002 11.3401Z" fill="#292D32"/>
<path opacity="0.4" d="M6.68988 17.97C6.50988 17.97 6.31987 17.9 6.17987 17.77C4.23987 15.97 3.12988 13.43 3.12988 10.79C3.12988 5.52998 7.40988 1.25 12.6699 1.25C17.9299 1.25 22.2099 5.52998 22.2099 10.79C22.2099 13.45 21.1399 15.91 19.1999 17.74C18.8999 18.02 18.4199 18.01 18.1399 17.71C17.8599 17.41 17.8699 16.93 18.1699 16.65C19.8099 15.11 20.7099 13.04 20.7099 10.8C20.7099 6.36999 17.0999 2.76001 12.6699 2.76001C8.23988 2.76001 4.62988 6.36999 4.62988 10.8C4.62988 13.06 5.53988 15.14 7.19987 16.68C7.49988 16.96 7.51988 17.44 7.23988 17.74C7.08988 17.89 6.88988 17.97 6.68988 17.97Z" fill="#292D32"/>
<path opacity="0.4" d="M16.6699 15.3C16.4899 15.3 16.2999 15.23 16.1599 15.1C15.8599 14.82 15.8399 14.34 16.1299 14.04C16.9599 13.16 17.4199 12 17.4199 10.8C17.4199 8.18005 15.2899 6.06006 12.6799 6.06006C10.0699 6.06006 7.93994 8.19005 7.93994 10.8C7.93994 12.01 8.39993 13.16 9.22993 14.04C9.50993 14.34 9.49994 14.82 9.19994 15.1C8.89994 15.39 8.41994 15.3701 8.13994 15.0701C7.04994 13.9101 6.43994 12.39 6.43994 10.8C6.43994 7.36005 9.23993 4.56006 12.6799 4.56006C16.1199 4.56006 18.9199 7.36005 18.9199 10.8C18.9199 12.39 18.3199 13.9101 17.2199 15.0701C17.0699 15.2201 16.8699 15.3 16.6699 15.3Z" fill="#292D32"/>
<path d="M10.9701 16.66L9.53014 18.4501C8.39014 19.8801 9.40014 21.99 11.2301 21.99H14.1001C15.9301 21.99 16.9501 19.8701 15.8001 18.4501L14.3601 16.66C13.5001 15.57 11.8401 15.57 10.9701 16.66Z" fill="#292D32"/>
</svg>
