<svg width="25" height="24" viewBox="0 0 25 24" fill="none" xmlns="http://www.w3.org/2000/svg">
<path opacity="0.4" d="M22.1699 6.5V17.5C22.1699 19.99 20.1599 22 17.6699 22H7.66992C5.17992 22 3.16992 19.99 3.16992 17.5V6.5C3.16992 4.01 5.17992 2 7.66992 2H17.6699C20.1599 2 22.1699 4.01 22.1699 6.5Z" fill="#292D32"/>
<path d="M22.1699 8.17V9.67H18.0399C17.7299 10.64 16.8199 11.34 15.7499 11.34H9.58992C8.94992 11.34 8.31992 11.08 7.86992 10.62C7.59992 10.36 7.40992 10.03 7.28992 9.67H3.16992V8.17H7.29992C7.60992 7.2 8.51992 6.5 9.58992 6.5H15.7399C16.3899 6.5 17.0099 6.76 17.4599 7.22C17.7299 7.49 17.9299 7.81 18.0399 8.17H22.1699Z" fill="#292D32"/>
</svg>
