<svg width="25" height="24" viewBox="0 0 25 24" fill="none" xmlns="http://www.w3.org/2000/svg">
<path d="M10.6295 14.0401V12.9301C10.6295 12.5001 10.3095 12.2901 9.91949 12.4601L4.90949 14.6201C4.11949 14.9601 3.47949 14.5401 3.47949 13.6901V12.3701C3.47949 11.6901 3.98949 10.9001 4.61949 10.6401L10.3195 8.19006C10.4795 8.11006 10.6195 7.90006 10.6195 7.72006V4.66006C10.6195 3.70006 11.3295 2.55006 12.1795 2.11006C12.4795 1.96006 12.8395 1.96006 13.1395 2.11006C13.9995 2.55006 14.7095 3.69006 14.7095 4.65006V7.71006C14.7095 7.89006 14.8495 8.10006 15.0095 8.18006L16.0495 8.62006L10.6295 14.0401Z" fill="#292D32"/>
<path opacity="0.4" d="M21.8601 12.3701V13.6901C21.8601 14.5401 21.2201 14.9601 20.4301 14.6201L15.4201 12.4601C15.0201 12.3001 14.7101 12.5001 14.7101 12.9301V15.8401C14.7101 16.0701 14.8401 16.4001 15.0101 16.5601L17.3301 18.8901C17.5701 19.1301 17.6801 19.6101 17.5701 19.9401L17.1201 21.3001C16.9201 21.8901 16.2501 22.1601 15.7001 21.8901L13.3201 19.8901C12.9601 19.5801 12.3701 19.5801 12.0101 19.8901L9.63008 21.8901C9.08008 22.1701 8.41008 21.8901 8.23008 21.3001L7.78008 19.9401C7.67008 19.6001 7.78008 19.1301 8.02008 18.8901L10.3401 16.5601C10.5001 16.4001 10.6301 16.0701 10.6301 15.8401V14.0401L16.0501 8.62012L20.7201 10.6301C21.3501 10.9001 21.8601 11.6901 21.8601 12.3701Z" fill="#292D32"/>
</svg>
