<svg width="25" height="24" viewBox="0 0 25 24" fill="none" xmlns="http://www.w3.org/2000/svg">
<path d="M16.6499 19.3799H17.6899C19.2799 19.3799 19.9199 18.7799 19.9199 17.2599V5.37988H14.4199V17.2599C14.4299 18.7799 15.0699 19.3799 16.6499 19.3799Z" fill="#292D32"/>
<path opacity="0.4" d="M8.14992 14.3799H9.18992C10.7799 14.3799 11.4199 13.7699 11.4199 12.2599V5.37988H5.91992V12.2599C5.92992 13.7699 6.56992 14.3799 8.14992 14.3799Z" fill="#292D32"/>
<path d="M21.9199 6.11988H3.41992C3.00992 6.11988 2.66992 5.78988 2.66992 5.37988C2.66992 4.96988 3.00992 4.62988 3.41992 4.62988H21.9199C22.3299 4.62988 22.6699 4.96988 22.6699 5.37988C22.6699 5.78988 22.3299 6.11988 21.9199 6.11988Z" fill="#292D32"/>
</svg>
