<svg width="25" height="24" viewBox="0 0 25 24" fill="none" xmlns="http://www.w3.org/2000/svg">
<path opacity="0.58" d="M24.6699 0H0.669922V24H24.6699V0Z" fill="white"/>
<path fill-rule="evenodd" clip-rule="evenodd" d="M19.7698 19.16C20.3598 18.26 20.5798 17.8 21.0298 16.79C17.7098 15.53 17.1798 10.8 20.4598 8.99C19.4598 7.73 18.0498 7 16.7198 7C15.7598 7 15.0998 7.25 14.5098 7.48C14.0098 7.67 13.5598 7.84 12.9998 7.84C12.3998 7.84 11.8698 7.65 11.3098 7.45C10.7098 7.23 10.0698 7 9.26975 7C7.77975 7 6.18976 7.91 5.17976 9.47C3.75976 11.67 4.00975 15.79 6.29975 19.31C7.11975 20.57 8.21976 21.98 9.64976 22C10.2498 22.01 10.6398 21.83 11.0698 21.64C11.5598 21.42 12.0898 21.18 13.0198 21.18C13.9498 21.17 14.4698 21.42 14.9598 21.64C15.3798 21.83 15.7598 22.01 16.3498 22C17.7898 21.98 18.9498 20.42 19.7698 19.16Z" fill="#292D32"/>
<path opacity="0.4" fill-rule="evenodd" clip-rule="evenodd" d="M16.5099 2C16.6699 3.1 16.2199 4.19 15.6299 4.95C14.9999 5.77 13.8999 6.41 12.8399 6.37C12.6499 5.31 13.1399 4.22 13.7399 3.49C14.4099 2.69 15.5399 2.07 16.5099 2Z" fill="#292D32"/>
</svg>
