<svg width="25" height="24" viewBox="0 0 25 24" fill="none" xmlns="http://www.w3.org/2000/svg">
<path opacity="0.4" d="M21.6699 7V17C21.6699 20 20.1699 22 16.6699 22H8.66992C5.16992 22 3.66992 20 3.66992 17V7C3.66992 4 5.16992 2 8.66992 2H16.6699C20.1699 2 21.6699 4 21.6699 7Z" fill="#292D32"/>
<path d="M16.1699 2V9.85999C16.1699 10.3 15.6499 10.52 15.3299 10.23L13.0099 8.09C12.8199 7.91 12.5199 7.91 12.3299 8.09L10.0099 10.23C9.68995 10.53 9.16992 10.3 9.16992 9.85999V2H16.1699Z" fill="#292D32"/>
<path d="M18.1699 14.75H13.9199C13.5099 14.75 13.1699 14.41 13.1699 14C13.1699 13.59 13.5099 13.25 13.9199 13.25H18.1699C18.5799 13.25 18.9199 13.59 18.9199 14C18.9199 14.41 18.5799 14.75 18.1699 14.75Z" fill="#292D32"/>
<path d="M18.1699 18.75H9.66992C9.25992 18.75 8.91992 18.41 8.91992 18C8.91992 17.59 9.25992 17.25 9.66992 17.25H18.1699C18.5799 17.25 18.9199 17.59 18.9199 18C18.9199 18.41 18.5799 18.75 18.1699 18.75Z" fill="#292D32"/>
</svg>
