<svg width="25" height="24" viewBox="0 0 25 24" fill="none" xmlns="http://www.w3.org/2000/svg">
<path opacity="0.4" d="M21.3499 6.31982V19.9498C21.3499 21.7498 20.0599 22.5098 18.4899 21.6398L13.6099 18.9198C13.0899 18.6398 12.2499 18.6398 11.7299 18.9198L6.84992 21.6398C6.42992 21.8698 6.02992 21.9898 5.66992 21.9998L21.3499 6.31982Z" fill="#292D32"/>
<path d="M20.7902 3.88L4.06023 20.61C4.01023 20.41 3.99023 20.19 3.99023 19.95V5.86C3.99023 3.74 5.72023 2 7.85023 2H17.4902C18.8902 2 20.1202 2.75 20.7902 3.88Z" fill="#292D32"/>
<path d="M22.4398 2.22988C22.1398 1.92988 21.6498 1.92988 21.3498 2.22988L2.8998 20.6899C2.5998 20.9899 2.5998 21.4799 2.8998 21.7799C3.0498 21.9199 3.2398 21.9999 3.4398 21.9999C3.6398 21.9999 3.8298 21.9199 3.9798 21.7699L22.4398 3.30988C22.7498 3.00988 22.7498 2.52988 22.4398 2.22988Z" fill="#292D32"/>
</svg>
