<svg width="25" height="24" viewBox="0 0 25 24" fill="none" xmlns="http://www.w3.org/2000/svg">
<path opacity="0.4" d="M17.4902 1.91016H7.85023C5.73023 1.91016 3.99023 3.65016 3.99023 5.77016V19.8602C3.99023 21.6602 5.28023 22.4202 6.86023 21.5502L11.7402 18.8402C12.2602 18.5502 13.1002 18.5502 13.6102 18.8402L18.4902 21.5502C20.0702 22.4302 21.3602 21.6702 21.3602 19.8602V5.77016C21.3502 3.65016 19.6202 1.91016 17.4902 1.91016Z" fill="#292D32"/>
<path d="M11.7602 13.2499C11.5702 13.2499 11.3802 13.1799 11.2302 13.0299L9.7302 11.5299C9.4402 11.2399 9.4402 10.7599 9.7302 10.4699C10.0202 10.1799 10.5002 10.1799 10.7902 10.4699L11.7602 11.4399L15.2302 7.96994C15.5202 7.67994 16.0002 7.67994 16.2902 7.96994C16.5802 8.25994 16.5802 8.73994 16.2902 9.02994L12.2902 13.0299C12.1402 13.1799 11.9502 13.2499 11.7602 13.2499Z" fill="#292D32"/>
</svg>
