<svg width="25" height="24" viewBox="0 0 25 24" fill="none" xmlns="http://www.w3.org/2000/svg">
<path opacity="0.4" d="M12.6699 22C18.1928 22 22.6699 17.5228 22.6699 12C22.6699 6.47715 18.1928 2 12.6699 2C7.14707 2 2.66992 6.47715 2.66992 12C2.66992 17.5228 7.14707 22 12.6699 22Z" fill="#292D32"/>
<path d="M16.2001 14.01C16.0101 14.01 15.8201 13.94 15.6701 13.79L12.6701 10.79L9.67008 13.79C9.38008 14.08 8.90008 14.08 8.61008 13.79C8.32008 13.5 8.32008 13.02 8.61008 12.73L12.1401 9.20004C12.4301 8.91004 12.9101 8.91004 13.2001 9.20004L16.7301 12.73C17.0201 13.02 17.0201 13.5 16.7301 13.79C16.5801 13.94 16.3901 14.01 16.2001 14.01Z" fill="#292D32"/>
</svg>
