<svg width="25" height="24" viewBox="0 0 25 24" fill="none" xmlns="http://www.w3.org/2000/svg">
<path opacity="0.4" d="M8.47992 2H16.8499C20.4999 2 22.6699 4.17 22.6699 7.81V16.18C22.6699 19.82 20.4999 21.99 16.8599 21.99H8.47992C4.83992 22 2.66992 19.83 2.66992 16.19V7.81C2.66992 4.17 4.83992 2 8.47992 2Z" fill="#292D32"/>
<path d="M10.9099 6.25C10.4899 6.25 10.1599 6.59 10.1599 7V15.19L8.4899 13.52C8.1999 13.23 7.7199 13.23 7.4299 13.52C7.1399 13.81 7.1399 14.29 7.4299 14.58L10.3799 17.53C10.4499 17.6 10.5299 17.65 10.6199 17.69C10.7099 17.73 10.8099 17.75 10.9099 17.75C11.0099 17.75 11.0999 17.73 11.1999 17.69C11.3799 17.61 11.5299 17.47 11.6099 17.28C11.6499 17.19 11.6699 17.09 11.6699 16.99V7C11.6599 6.59 11.3199 6.25 10.9099 6.25Z" fill="#292D32"/>
<path d="M17.9097 9.42L14.9597 6.47C14.8897 6.4 14.8097 6.35 14.7197 6.31C14.5397 6.23 14.3297 6.23 14.1497 6.31C13.9697 6.39 13.8197 6.53 13.7397 6.72C13.6997 6.81 13.6797 6.9 13.6797 7V17C13.6797 17.41 14.0197 17.75 14.4297 17.75C14.8397 17.75 15.1797 17.41 15.1797 17V8.81L16.8497 10.48C16.9997 10.63 17.1897 10.7 17.3797 10.7C17.5697 10.7 17.7597 10.63 17.9097 10.48C18.1997 10.19 18.1997 9.71 17.9097 9.42Z" fill="#292D32"/>
</svg>
