<svg width="25" height="24" viewBox="0 0 25 24" fill="none" xmlns="http://www.w3.org/2000/svg">
<path opacity="0.4" d="M16.8599 2H8.47992C4.83992 2 2.66992 4.17 2.66992 7.81V16.18C2.66992 19.83 4.83992 22 8.47992 22H16.8499C20.4899 22 22.6599 19.83 22.6599 16.19V7.81C22.6699 4.17 20.4999 2 16.8599 2Z" fill="#292D32"/>
<path d="M11.4101 16.28C11.2201 16.28 11.0301 16.21 10.8801 16.06C10.5901 15.77 10.5901 15.29 10.8801 15L13.8801 12L10.8801 9.00003C10.5901 8.71003 10.5901 8.23003 10.8801 7.94003C11.1701 7.65003 11.6501 7.65003 11.9401 7.94003L15.4701 11.47C15.7601 11.76 15.7601 12.24 15.4701 12.53L11.9401 16.06C11.7901 16.21 11.6001 16.28 11.4101 16.28Z" fill="#292D32"/>
</svg>
