<svg width="25" height="24" viewBox="0 0 25 24" fill="none" xmlns="http://www.w3.org/2000/svg">
<path opacity="0.4" d="M12.6699 22C18.1928 22 22.6699 17.5228 22.6699 12C22.6699 6.47715 18.1928 2 12.6699 2C7.14707 2 2.66992 6.47715 2.66992 12C2.66992 17.5228 7.14707 22 12.6699 22Z" fill="#292D32"/>
<path d="M13.9298 16.28C13.7398 16.28 13.5498 16.21 13.3998 16.06L9.86984 12.53C9.57984 12.24 9.57984 11.76 9.86984 11.47L13.3998 7.94003C13.6898 7.65003 14.1698 7.65003 14.4598 7.94003C14.7498 8.23003 14.7498 8.71003 14.4598 9.00003L11.4598 12L14.4598 15C14.7498 15.29 14.7498 15.77 14.4598 16.06C14.3198 16.21 14.1298 16.28 13.9298 16.28Z" fill="#292D32"/>
</svg>
