<svg width="25" height="24" viewBox="0 0 25 24" fill="none" xmlns="http://www.w3.org/2000/svg">
<path opacity="0.4" d="M16.8599 2H8.47992C4.83992 2 2.66992 4.17 2.66992 7.81V16.18C2.66992 19.83 4.83992 22 8.47992 22H16.8499C20.4899 22 22.6599 19.83 22.6599 16.19V7.81C22.6699 4.17 20.4999 2 16.8599 2Z" fill="#292D32"/>
<path d="M13.9298 16.28C13.7398 16.28 13.5498 16.21 13.3998 16.06L9.86984 12.53C9.57984 12.24 9.57984 11.76 9.86984 11.47L13.3998 7.94003C13.6898 7.65003 14.1698 7.65003 14.4598 7.94003C14.7498 8.23003 14.7498 8.71003 14.4598 9.00003L11.4598 12L14.4598 15C14.7498 15.29 14.7498 15.77 14.4598 16.06C14.3198 16.21 14.1298 16.28 13.9298 16.28Z" fill="#292D32"/>
</svg>
