<svg width="25" height="24" viewBox="0 0 25 24" fill="none" xmlns="http://www.w3.org/2000/svg">
<path opacity="0.4" d="M12.6699 22C18.1928 22 22.6699 17.5228 22.6699 12C22.6699 6.47715 18.1928 2 12.6699 2C7.14707 2 2.66992 6.47715 2.66992 12C2.66992 17.5228 7.14707 22 12.6699 22Z" fill="#292D32"/>
<path d="M12.6701 15.01C12.4801 15.01 12.2901 14.94 12.1401 14.79L8.61008 11.26C8.32008 10.97 8.32008 10.49 8.61008 10.2C8.90008 9.91004 9.38008 9.91004 9.67008 10.2L12.6701 13.2L15.6701 10.2C15.9601 9.91004 16.4401 9.91004 16.7301 10.2C17.0201 10.49 17.0201 10.97 16.7301 11.26L13.2001 14.79C13.0501 14.94 12.8601 15.01 12.6701 15.01Z" fill="#292D32"/>
</svg>
