<svg width="25" height="24" viewBox="0 0 25 24" fill="none" xmlns="http://www.w3.org/2000/svg">
<path opacity="0.4" d="M12.6719 22C18.1947 22 22.6719 17.5228 22.6719 12C22.6719 6.47715 18.1947 2 12.6719 2C7.14903 2 2.67188 6.47715 2.67188 12C2.67188 17.5228 7.14903 22 12.6719 22Z" fill="#292D32"/>
<path d="M12.8716 17.3799C12.1716 17.3799 11.4616 17.1099 10.9316 16.5799C10.4116 16.0599 10.1216 15.3699 10.1216 14.6399C10.1216 13.9099 10.4116 13.2099 10.9316 12.6999L12.3416 11.2899C12.6316 10.9999 13.1116 10.9999 13.4016 11.2899C13.6916 11.5799 13.6916 12.0599 13.4016 12.3499L11.9916 13.7599C11.7516 13.9999 11.6216 14.3099 11.6216 14.6399C11.6216 14.9699 11.7516 15.2899 11.9916 15.5199C12.4816 16.0099 13.2717 16.0099 13.7617 15.5199L15.9816 13.2999C17.2516 12.0299 17.2516 9.96994 15.9816 8.69994C14.7116 7.42994 12.6517 7.42994 11.3817 8.69994L8.96161 11.1199C8.45161 11.6299 8.17163 12.2999 8.17163 13.0099C8.17163 13.7199 8.45161 14.3999 8.96161 14.8999C9.25161 15.1899 9.25161 15.6699 8.96161 15.9599C8.67161 16.2499 8.19161 16.2499 7.90161 15.9599C7.11161 15.1699 6.68164 14.1199 6.68164 12.9999C6.68164 11.8799 7.11161 10.8299 7.90161 10.0399L10.3217 7.61992C12.1717 5.76992 15.1916 5.76992 17.0416 7.61992C18.8916 9.46992 18.8916 12.4899 17.0416 14.3399L14.8217 16.5599C14.2817 17.1099 13.5816 17.3799 12.8716 17.3799Z" fill="#292D32"/>
</svg>
