<svg width="25" height="24" viewBox="0 0 25 24" fill="none" xmlns="http://www.w3.org/2000/svg">
<path opacity="0.4" d="M16.8597 2H8.48969C4.84968 2 2.67969 4.17 2.67969 7.81V16.18C2.67969 19.82 4.84968 21.99 8.48969 21.99H16.8597C20.4997 21.99 22.6697 19.82 22.6697 16.18V7.81C22.6697 4.17 20.4997 2 16.8597 2Z" fill="#292D32"/>
<path d="M16.29 7.09996L14.0001 6.34001C13.4201 6.14001 12.8301 6.21996 12.3801 6.53996C11.9301 6.85996 11.6801 7.39999 11.6801 8.00999V8.61998V12.8C11.2801 12.58 10.83 12.45 10.34 12.45C8.80003 12.45 7.54004 13.71 7.54004 15.25C7.54004 16.79 8.80003 18.05 10.34 18.05C11.88 18.05 13.14 16.79 13.14 15.25V10.7C13.15 10.71 13.1701 10.71 13.1801 10.72L15.47 11.48C15.68 11.55 15.9 11.59 16.11 11.59C16.47 11.59 16.81 11.49 17.09 11.28C17.54 10.96 17.79 10.42 17.79 9.80998V9.2C17.79 8.29 17.15 7.38996 16.29 7.09996ZM10.34 16.59C9.60003 16.59 9.01007 15.99 9.01007 15.26C9.01007 14.52 9.61003 13.92 10.34 13.92C11.08 13.92 11.6801 14.52 11.6801 15.26C11.6801 15.99 11.08 16.59 10.34 16.59Z" fill="#292D32"/>
</svg>
