<svg width="25" height="24" viewBox="0 0 25 24" fill="none" xmlns="http://www.w3.org/2000/svg">
<path opacity="0.58" d="M24.6699 0H0.669922V24H24.6699V0Z" fill="white"/>
<path opacity="0.4" d="M12.6699 22C18.1928 22 22.6699 17.5228 22.6699 12C22.6699 6.47715 18.1928 2 12.6699 2C7.14707 2 2.66992 6.47715 2.66992 12C2.66992 17.5228 7.14707 22 12.6699 22Z" fill="#292D32"/>
<path d="M12.46 6.20997L10.33 9.75997C10.23 9.92997 10.3501 10.14 10.5401 10.14H14.8001C14.9901 10.14 15.1101 9.92997 15.0101 9.75997L12.8801 6.20997C12.7901 6.04997 12.55 6.04997 12.46 6.20997Z" fill="#292D32"/>
<path d="M9.02987 12.21L6.89986 15.76C6.79986 15.93 6.91988 16.14 7.10988 16.14H11.3699C11.5599 16.14 11.6799 15.93 11.5799 15.76L9.44991 12.21C9.35991 12.05 9.11987 12.05 9.02987 12.21Z" fill="#292D32"/>
<path d="M15.88 12.21L13.75 15.76C13.65 15.93 13.7699 16.14 13.9599 16.14H18.2199C18.4099 16.14 18.53 15.93 18.43 15.76L16.3 12.21C16.22 12.05 15.98 12.05 15.88 12.21Z" fill="#292D32"/>
</svg>
