<svg width="25" height="24" viewBox="0 0 25 24" fill="none" xmlns="http://www.w3.org/2000/svg">
<path opacity="0.4" d="M18.62 7.7101L18.48 7.6301L17.09 6.8301L14.22 5.1701C13.34 4.6601 12 4.6601 11.12 5.1701L8.25002 6.8301L6.86002 7.6401L6.68002 7.7401C4.89002 8.9401 4.77002 9.1601 4.77002 11.0901V15.7001C4.77002 17.6301 4.89002 17.8501 6.72002 19.0801L11.12 21.6201C11.56 21.8801 12.11 22.0001 12.67 22.0001C13.22 22.0001 13.78 21.8801 14.22 21.6201L18.66 19.0501C20.45 17.8501 20.57 17.6301 20.57 15.7001V11.0901C20.57 9.1601 20.45 8.9401 18.62 7.7101Z" fill="#292D32"/>
<path d="M6.85986 7.64L8.24986 6.83L10.9899 5.25L11.1199 5.17C11.9999 4.66 13.3399 4.66 14.2199 5.17L14.3499 5.25L17.0899 6.83L18.4799 7.63V5.49C18.4799 3.24 17.2399 2 14.9899 2H10.3399C8.08986 2 6.85986 3.24 6.85986 5.49V7.64Z" fill="#292D32"/>
<path d="M15.5102 13.34L14.8902 14.1C14.7902 14.21 14.7202 14.43 14.7302 14.58L14.7902 15.56C14.8302 16.16 14.4002 16.47 13.8402 16.25L12.9302 15.89C12.7902 15.84 12.5502 15.84 12.4102 15.89L11.5002 16.25C10.9402 16.47 10.5102 16.16 10.5502 15.56L10.6102 14.58C10.6202 14.43 10.5502 14.21 10.4502 14.1L9.83016 13.34C9.44016 12.88 9.61016 12.37 10.1902 12.22L11.1402 11.98C11.2902 11.94 11.4702 11.8 11.5502 11.67L12.0802 10.85C12.4102 10.34 12.9302 10.34 13.2602 10.85L13.7902 11.67C13.8702 11.8 14.0502 11.94 14.2002 11.98L15.1502 12.22C15.7302 12.37 15.9002 12.88 15.5102 13.34Z" fill="#292D32"/>
</svg>
