<svg width="25" height="24" viewBox="0 0 25 24" fill="none" xmlns="http://www.w3.org/2000/svg">
<path d="M13.0496 16.92H10.7596C10.3496 16.92 10.0096 16.58 10.0096 16.17C10.0096 15.76 10.3496 15.42 10.7596 15.42H13.0496C13.4796 15.42 13.8296 15.07 13.8296 14.64C13.8296 14.21 13.4796 13.86 13.0496 13.86H10.7596C10.5196 13.86 10.2896 13.74 10.1496 13.55C10.0096 13.36 9.96956 13.1 10.0496 12.87L10.8096 10.58C10.9096 10.27 11.1996 10.07 11.5196 10.07H14.5796C14.9896 10.07 15.3296 10.41 15.3296 10.82C15.3296 11.23 14.9896 11.57 14.5796 11.57H12.0596L11.7996 12.36H13.0496C14.3096 12.36 15.3296 13.38 15.3296 14.64C15.3296 15.9 14.3096 16.92 13.0496 16.92Z" fill="#292D32"/>
<path opacity="0.4" d="M12.6698 3.48C12.5898 3.48 12.5098 3.49001 12.4298 3.49001L13.2498 2.46999C13.5098 2.14999 13.4598 1.67 13.1298 1.42C12.7998 1.17 12.3398 1.21 12.0798 1.54L10.0998 4.01003C10.0898 4.02003 10.0898 4.04001 10.0798 4.05001C10.0498 4.09001 10.0298 4.14002 10.0098 4.19002C9.98977 4.23002 9.96978 4.27003 9.95978 4.32003C9.94978 4.37003 9.94977 4.41004 9.94977 4.46004C9.94977 4.51004 9.94977 4.56 9.94977 4.61C9.94977 4.63 9.94977 4.63999 9.94977 4.65999C9.95977 4.68999 9.97978 4.72002 9.98978 4.75002C10.0098 4.80002 10.0298 4.84003 10.0498 4.89003C10.0798 4.93003 10.1098 4.97002 10.1398 5.00002C10.1598 5.03002 10.1798 5.06004 10.2098 5.08004C10.2198 5.09004 10.2398 5.1 10.2598 5.11C10.2898 5.13 10.3198 5.13999 10.3398 5.15999C10.3898 5.18999 10.4498 5.20999 10.5098 5.21999C10.5398 5.22999 10.5698 5.23001 10.5998 5.24001C10.6298 5.24001 10.6498 5.25002 10.6798 5.25002C10.7098 5.25002 10.7298 5.24 10.7498 5.23C10.7798 5.23 10.8098 5.24 10.8398 5.23C11.4798 5.08 12.0798 5.01003 12.6498 5.01003C17.1398 5.01003 20.7898 8.66004 20.7898 13.15C20.7898 17.64 17.1398 21.29 12.6498 21.29C8.15978 21.29 4.50977 17.64 4.50977 13.15C4.50977 11.41 5.07976 9.73 6.15976 8.29C6.40976 7.96 6.33977 7.49001 6.00977 7.24001C5.67977 6.99001 5.20978 7.06003 4.95978 7.39003C3.67978 9.09003 3.00977 11.08 3.00977 13.15C3.00977 18.46 7.32978 22.79 12.6498 22.79C17.9698 22.79 22.2898 18.47 22.2898 13.15C22.2898 7.83004 17.9798 3.48 12.6698 3.48Z" fill="#292D32"/>
</svg>
