<svg width="25" height="24" viewBox="0 0 25 24" fill="none" xmlns="http://www.w3.org/2000/svg">
<path opacity="0.4" d="M16.8599 2H8.48992C4.83992 2 2.66992 4.17 2.66992 7.81V16.18C2.66992 19.82 4.83992 21.99 8.47992 21.99H16.8499C20.4899 21.99 22.6599 19.82 22.6599 16.18V7.81C22.6699 4.17 20.4999 2 16.8599 2Z" fill="#292D32"/>
<path d="M14.5899 8.48006H9.43986L9.76986 8.15006C10.0599 7.86006 10.0599 7.38006 9.76986 7.09006C9.47986 6.80006 8.99986 6.80006 8.70986 7.09006L7.13986 8.66006C6.84986 8.95006 6.84986 9.43006 7.13986 9.72006L8.70986 11.2901C8.85986 11.4401 9.04986 11.5101 9.23986 11.5101C9.42986 11.5101 9.61986 11.4401 9.76986 11.2901C10.0599 11.0001 10.0599 10.5201 9.76986 10.2301L9.50986 9.97006H14.5899C15.8699 9.97006 16.9199 11.0101 16.9199 12.3001C16.9199 13.5901 15.8799 14.6301 14.5899 14.6301H9.66986C9.25986 14.6301 8.91986 14.9701 8.91986 15.3801C8.91986 15.7901 9.25986 16.1301 9.66986 16.1301H14.5899C16.6999 16.1301 18.4199 14.4101 18.4199 12.3001C18.4199 10.1901 16.6999 8.48006 14.5899 8.48006Z" fill="#292D32"/>
</svg>
