<svg width="25" height="24" viewBox="0 0 25 24" fill="none" xmlns="http://www.w3.org/2000/svg">
<path opacity="0.4" d="M19.9099 5.58006H19.5099L16.1299 2.20006C15.8599 1.93006 15.4199 1.93006 15.1399 2.20006C14.8699 2.47006 14.8699 2.91006 15.1399 3.19006L17.5299 5.58006H7.80992L10.1999 3.19006C10.4699 2.92006 10.4699 2.48006 10.1999 2.20006C9.92992 1.93006 9.48992 1.93006 9.20992 2.20006L5.83992 5.58006H5.43992C4.53992 5.58006 2.66992 5.58006 2.66992 8.14006C2.66992 9.11006 2.86992 9.75006 3.28992 10.1701C3.52992 10.4201 3.81992 10.5501 4.12992 10.6201C4.41992 10.6901 4.72992 10.7001 5.02992 10.7001H20.3099C20.6199 10.7001 20.9099 10.6801 21.1899 10.6201C22.0299 10.4201 22.6699 9.82006 22.6699 8.14006C22.6699 5.58006 20.7999 5.58006 19.9099 5.58006Z" fill="#292D32"/>
<path d="M20.3299 10.6999H5.02988C4.73988 10.6999 4.41988 10.6899 4.12988 10.6099L5.38988 18.2999C5.67988 20.0199 6.42988 21.9999 9.75988 21.9999H15.3699C18.7399 21.9999 19.3399 20.3099 19.6999 18.4199L21.2099 10.6099C20.9299 10.6799 20.6299 10.6999 20.3299 10.6999ZM15.5499 15.0499L12.2999 18.0499C12.1599 18.1799 11.9699 18.2499 11.7899 18.2499C11.5999 18.2499 11.4099 18.1799 11.2599 18.0299L9.75988 16.5299C9.46988 16.2399 9.46988 15.7599 9.75988 15.4699C10.0499 15.1799 10.5299 15.1799 10.8199 15.4699L11.8099 16.4599L14.5299 13.9499C14.8299 13.6699 15.3099 13.6899 15.5899 13.9899C15.8799 14.2999 15.8599 14.7699 15.5499 15.0499Z" fill="#292D32"/>
</svg>
