<svg width="25" height="24" viewBox="0 0 25 24" fill="none" xmlns="http://www.w3.org/2000/svg">
<path opacity="0.4" d="M16.8603 8.8599C16.4703 8.8599 16.1603 8.5499 16.1603 8.1599V6.8799C16.1603 5.8999 15.7403 4.9599 15.0203 4.2999C14.2803 3.6299 13.3303 3.3199 12.3303 3.4099C10.6503 3.5699 9.18027 5.2799 9.18027 7.0599V7.9599C9.18027 8.3499 8.87027 8.6599 8.48027 8.6599C8.09027 8.6599 7.78027 8.3499 7.78027 7.9599V7.0599C7.78027 4.5599 9.80027 2.2499 12.1903 2.0199C13.5803 1.8899 14.9203 2.3299 15.9503 3.2699C16.9703 4.1899 17.5503 5.5099 17.5503 6.8799V8.1599C17.5503 8.5499 17.2403 8.8599 16.8603 8.8599Z" fill="#292D32"/>
<path d="M20.6297 8.96008C19.7897 8.03008 18.4097 7.58008 16.3897 7.58008H8.94967C6.92967 7.58008 5.54967 8.03008 4.70967 8.96008C3.73967 10.0401 3.76967 11.4801 3.87967 12.4801L4.57967 18.0501C4.78967 20.0001 5.57967 22.0001 9.87967 22.0001H15.4597C19.7597 22.0001 20.5497 20.0001 20.7597 18.0601L21.4597 12.4701C21.5697 11.4801 21.5997 10.0401 20.6297 8.96008ZM12.6697 18.5801C10.5797 18.5801 8.87967 16.8801 8.87967 14.7901C8.87967 12.7001 10.5797 11.0001 12.6697 11.0001C14.7597 11.0001 16.4597 12.7001 16.4597 14.7901C16.4597 16.8801 14.7597 18.5801 12.6697 18.5801Z" fill="#292D32"/>
<path opacity="0.4" d="M12.6699 18.58C14.763 18.58 16.4599 16.8832 16.4599 14.79C16.4599 12.6968 14.763 11 12.6699 11C10.5767 11 8.87988 12.6968 8.87988 14.79C8.87988 16.8832 10.5767 18.58 12.6699 18.58Z" fill="#292D32"/>
<path d="M12.0998 16.64C11.9098 16.64 11.7198 16.57 11.5698 16.42L10.5798 15.43C10.2898 15.14 10.2898 14.66 10.5798 14.37C10.8698 14.08 11.3498 14.08 11.6398 14.37L12.1198 14.85L13.7198 13.37C14.0198 13.09 14.4998 13.11 14.7798 13.41C15.0598 13.71 15.0398 14.19 14.7398 14.47L12.6098 16.44C12.4598 16.57 12.2798 16.64 12.0998 16.64Z" fill="#292D32"/>
</svg>
