<svg width="25" height="24" viewBox="0 0 25 24" fill="none" xmlns="http://www.w3.org/2000/svg">
<path opacity="0.4" d="M13.5999 4.79H8.01992C3.91992 4.79 2.66992 6.04 2.66992 10.14V13.86C2.66992 17.96 3.91992 19.21 8.01992 19.21H13.5999C17.6999 19.21 18.9499 17.96 18.9499 13.86V10.14C18.9499 6.04 17.6999 4.79 13.5999 4.79Z" fill="#292D32"/>
<path d="M21.0901 9C20.9501 8.99 20.7701 8.98 20.5701 8.98C20.1801 8.98 19.8701 9.29 19.8701 9.68V14.33C19.8701 14.72 20.1801 15.03 20.5701 15.03C20.7701 15.03 20.9401 15.02 21.1101 15.01C22.6701 14.83 22.6701 13.73 22.6701 12.93V11.07C22.6701 10.27 22.6701 9.17 21.0901 9Z" fill="#292D32"/>
<path d="M7.04951 14.75C6.98951 14.75 6.92951 14.74 6.86951 14.73C6.46951 14.63 6.21951 14.22 6.31951 13.82C6.61951 12.63 6.61951 11.37 6.31951 10.18C6.21951 9.78 6.45951 9.37 6.86951 9.27C7.26951 9.17 7.66951 9.42 7.76951 9.82C8.12951 11.25 8.12951 12.76 7.76951 14.18C7.68951 14.52 7.37951 14.75 7.04951 14.75Z" fill="#292D32"/>
<path d="M10.5495 14.75C10.4895 14.75 10.4295 14.74 10.3695 14.73C9.96951 14.63 9.71951 14.22 9.81951 13.82C10.1195 12.63 10.1195 11.37 9.81951 10.18C9.71951 9.78 9.95951 9.37 10.3695 9.27C10.7695 9.17 11.1795 9.41 11.2795 9.82C11.6395 11.25 11.6395 12.76 11.2795 14.18C11.1895 14.52 10.8795 14.75 10.5495 14.75Z" fill="#292D32"/>
<path d="M14.0495 14.75C13.9895 14.75 13.9295 14.74 13.8695 14.73C13.4695 14.63 13.2195 14.22 13.3195 13.82C13.6195 12.63 13.6195 11.37 13.3195 10.18C13.2195 9.78 13.4595 9.37 13.8695 9.27C14.2695 9.17 14.6795 9.41 14.7795 9.82C15.1395 11.25 15.1395 12.76 14.7795 14.18C14.6895 14.52 14.3795 14.75 14.0495 14.75Z" fill="#292D32"/>
</svg>
