<svg width="25" height="24" viewBox="0 0 25 24" fill="none" xmlns="http://www.w3.org/2000/svg">
<path d="M21.0901 9C20.9501 8.99 20.7701 8.98 20.5701 8.98C20.1801 8.98 19.8701 9.29 19.8701 9.68V14.33C19.8701 14.72 20.1801 15.03 20.5701 15.03C20.7701 15.03 20.9401 15.02 21.1101 15.01C22.6701 14.83 22.6701 13.73 22.6701 12.93V11.07C22.6701 10.27 22.6701 9.17 21.0901 9Z" fill="#292D32"/>
<path opacity="0.4" d="M15.1699 4.87L6.18992 19.09C3.53992 18.71 2.66992 17.27 2.66992 13.86V10.14C2.66992 6.04 3.91992 4.79 8.01992 4.79H13.5999C14.1799 4.79 14.6999 4.81 15.1699 4.87Z" fill="#292D32"/>
<path opacity="0.4" d="M18.9501 10.14V13.86C18.9501 16.81 16.5501 19.21 13.6001 19.21H8.12012L16.9001 5.31C18.4201 6 18.9501 7.46 18.9501 10.14Z" fill="#292D32"/>
<path d="M4.66983 22.25C4.52983 22.25 4.38983 22.21 4.26983 22.13C3.91983 21.91 3.80983 21.45 4.03983 21.1L16.0398 2.1C16.2598 1.75 16.7298 1.65 17.0698 1.87C17.4198 2.09 17.5298 2.55 17.2998 2.9L5.29983 21.9C5.15983 22.13 4.91983 22.25 4.66983 22.25Z" fill="#292D32"/>
</svg>
