<svg width="25" height="24" viewBox="0 0 25 24" fill="none" xmlns="http://www.w3.org/2000/svg">
<path d="M24.6699 0H0.669922V24H24.6699V0Z" fill="white"/>
<path d="M12.3201 2.35L7.02012 7.65C6.82012 7.85 6.82012 8.16 7.02012 8.36L8.31012 9.65C8.51012 9.85 8.82012 9.85 9.02012 9.65L12.3101 6.36C12.5101 6.16 12.8201 6.16 13.0201 6.36L16.3101 9.65C16.5101 9.85 16.8201 9.85 17.0201 9.65L18.3101 8.36C18.5101 8.16 18.5101 7.85 18.3101 7.65L13.0201 2.36C12.8301 2.16 12.5101 2.16 12.3201 2.35Z" fill="#292D32"/>
<path d="M12.3199 21.65L7.02988 16.36C6.82988 16.16 6.82988 15.85 7.02988 15.65L8.31988 14.36C8.51988 14.16 8.82988 14.16 9.02988 14.36L12.3199 17.65C12.5199 17.85 12.8299 17.85 13.0299 17.65L16.3199 14.36C16.5199 14.16 16.8299 14.16 17.0299 14.36L18.3199 15.65C18.5199 15.85 18.5199 16.16 18.3199 16.36L13.0299 21.65C12.8299 21.84 12.5099 21.84 12.3199 21.65Z" fill="#292D32"/>
<path opacity="0.4" d="M20.7701 10.1L22.3101 11.64C22.5101 11.84 22.5101 12.15 22.3101 12.35L20.7701 13.9C20.5701 14.1 20.2601 14.1 20.0601 13.9L18.5201 12.36C18.3201 12.16 18.3201 11.85 18.5201 11.65L20.0601 10.11C20.2601 9.91 20.5801 9.91 20.7701 10.1Z" fill="#292D32"/>
<path opacity="0.4" d="M5.27012 10.1L6.81012 11.64C7.01012 11.84 7.01012 12.15 6.81012 12.35L5.27012 13.9C5.07012 14.1 4.76012 14.1 4.56012 13.9L3.02012 12.36C2.82012 12.16 2.82012 11.85 3.02012 11.65L4.57012 10.1C4.76012 9.91 5.08012 9.91 5.27012 10.1Z" fill="#292D32"/>
<path opacity="0.4" d="M13.0201 9.88L14.7901 11.65C14.9901 11.85 14.9901 12.16 14.7901 12.36L13.0201 14.13C12.8201 14.33 12.5101 14.33 12.3101 14.13L10.5401 12.36C10.3401 12.16 10.3401 11.85 10.5401 11.65L12.3101 9.88C12.5101 9.68 12.8301 9.68 13.0201 9.88Z" fill="#292D32"/>
</svg>
