<svg width="25" height="24" viewBox="0 0 25 24" fill="none" xmlns="http://www.w3.org/2000/svg">
<path d="M24.6699 0H0.669922V24H24.6699V0Z" fill="white"/>
<path d="M12.0698 2.35L6.92979 7.5C6.72979 7.7 6.72979 8.01 6.92979 8.21L8.65978 9.94C8.85978 10.14 9.16978 10.14 9.36978 9.94L14.5198 4.79C14.7198 4.59 14.7198 4.28 14.5198 4.08L12.7898 2.35C12.5798 2.16 12.2698 2.16 12.0698 2.35Z" fill="#292D32"/>
<path opacity="0.4" d="M15.9698 6.26L6.92979 15.3C6.72979 15.5 6.72979 15.81 6.92979 16.01L8.65978 17.74C8.85978 17.94 9.16978 17.94 9.36978 17.74L18.4198 8.69C18.6198 8.49 18.6198 8.18 18.4198 7.98L16.6898 6.25C16.4898 6.06 16.1698 6.06 15.9698 6.26Z" fill="#292D32"/>
<path d="M19.8797 10.16L10.8297 19.21C10.6297 19.41 10.6297 19.72 10.8297 19.92L12.5597 21.65C12.7597 21.85 13.0697 21.85 13.2697 21.65L22.3197 12.6C22.5197 12.4 22.5197 12.09 22.3197 11.89L20.5897 10.16C20.3897 9.96 20.0697 9.96 19.8797 10.16Z" fill="#292D32"/>
<path opacity="0.4" d="M4.75988 13.84L3.02988 12.11C2.82988 11.91 2.82988 11.6 3.02988 11.4L4.75988 9.67C4.95988 9.47 5.26988 9.47 5.46988 9.67L7.19988 11.4C7.39988 11.6 7.39988 11.91 7.19988 12.11L5.46988 13.84C5.26988 14.04 4.94988 14.04 4.75988 13.84Z" fill="#292D32"/>
</svg>
