<svg width="25" height="24" viewBox="0 0 25 24" fill="none" xmlns="http://www.w3.org/2000/svg">
<path d="M24.6699 0H0.669922V24H24.6699V0Z" fill="white"/>
<path opacity="0.4" d="M12.6699 22C18.1928 22 22.6699 17.5228 22.6699 12C22.6699 6.47715 18.1928 2 12.6699 2C7.14707 2 2.66992 6.47715 2.66992 12C2.66992 17.5228 7.14707 22 12.6699 22Z" fill="#292D32"/>
<path d="M17.1597 11.61C17.5397 11.12 17.7797 10.5 17.7797 9.83C17.7797 8.28 16.4197 6.91 14.8597 6.91H13.9797V5.5C13.9797 5.09 13.6397 4.75 13.2297 4.75C12.8197 4.75 12.4797 5.09 12.4797 5.5V6.92H11.4997H11.2697V5.5C11.2697 5.09 10.9297 4.75 10.5197 4.75C10.1097 4.75 9.78973 5.09 9.78973 5.5V6.92H9.44973H7.71973C7.30973 6.92 6.96973 7.26 6.96973 7.67C6.96973 8.08 7.30973 8.42 7.71973 8.42H8.69973V12V15.58H7.71973C7.30973 15.58 6.96973 15.92 6.96973 16.33C6.96973 16.74 7.30973 17.08 7.71973 17.08H9.44973H9.77973V18.5C9.77973 18.91 10.1197 19.25 10.5297 19.25C10.9397 19.25 11.2797 18.91 11.2797 18.5V17.08H11.5097H12.4897V18.5C12.4897 18.91 12.8297 19.25 13.2397 19.25C13.6497 19.25 13.9897 18.91 13.9897 18.5V17.08H15.6397C17.4197 17.08 18.8697 15.77 18.8697 14.16C18.8697 13.06 18.1697 12.1 17.1597 11.61ZM11.5097 8.42H14.8697C15.6697 8.42 16.2897 9.18 16.2897 9.84C16.2897 10.62 15.6497 11.26 14.8697 11.26H10.1997V8.42H11.5097ZM15.6397 15.58H11.5097H10.1997V12.75H14.8697H15.6397C16.5897 12.75 17.3697 13.39 17.3697 14.17C17.3697 14.95 16.5897 15.58 15.6397 15.58Z" fill="#292D32"/>
</svg>
