<svg width="25" height="24" viewBox="0 0 25 24" fill="none" xmlns="http://www.w3.org/2000/svg">
<path d="M22.6396 12C22.6396 15.31 19.9496 18 16.6396 18C15.0996 18 13.6996 17.42 12.6396 16.46C13.8696 15.37 14.6396 13.77 14.6396 12C14.6396 10.23 13.8696 8.63 12.6396 7.54C13.6996 6.58 15.0996 6 16.6396 6C19.9496 6 22.6396 8.69 22.6396 12Z" fill="#292D32"/>
<path opacity="0.4" d="M14.6396 12C14.6396 13.77 13.8696 15.37 12.6396 16.46C11.5796 17.42 10.1796 18 8.63965 18C5.32965 18 2.63965 15.31 2.63965 12C2.63965 8.69 5.32965 6 8.63965 6C10.1796 6 11.5796 6.58 12.6396 7.54C13.8696 8.63 14.6396 10.23 14.6396 12Z" fill="#292D32"/>
</svg>
