<svg width="25" height="24" viewBox="0 0 25 24" fill="none" xmlns="http://www.w3.org/2000/svg">
<path opacity="0.4" d="M15.6699 22H9.66992C6.66992 22 4.66992 20 4.66992 17V7C4.66992 4 6.66992 2 9.66992 2H15.6699C18.6699 2 20.6699 4 20.6699 7V17C20.6699 20 18.6699 22 15.6699 22Z" fill="#292D32"/>
<path d="M13.27 18.1101C13.05 18.1101 12.88 18.0501 12.78 18.0101C12.56 17.9101 12.06 17.5801 12.06 16.6701V14.0001L9.75996 16.1101C9.45996 16.3901 8.97996 16.3701 8.69996 16.0601C8.41996 15.7501 8.43995 15.2801 8.74995 15.0001L12.03 11.9901L8.74995 8.98012C8.43995 8.70012 8.41996 8.23012 8.69996 7.92012C8.97996 7.62012 9.45996 7.5901 9.75996 7.8701L12.06 9.98012V7.32011C12.06 6.42011 12.56 6.09012 12.78 5.98012C12.99 5.88012 13.57 5.7001 14.27 6.2801L16.33 8.00011C16.63 8.25011 16.81 8.62011 16.82 9.00011C16.83 9.38011 16.67 9.76009 16.38 10.0201L14.25 11.9701L16.38 13.9201C16.67 14.1901 16.83 14.5601 16.82 14.9401C16.81 15.3201 16.63 15.6901 16.33 15.9401L14.27 17.6601C13.89 18.0201 13.54 18.1101 13.27 18.1101ZM13.57 13.4101V16.3301L15.24 14.9401L13.57 13.4101ZM13.57 7.67012V10.5901L15.24 9.0601L13.57 7.67012Z" fill="#292D32"/>
</svg>
