<svg width="25" height="24" viewBox="0 0 25 24" fill="none" xmlns="http://www.w3.org/2000/svg">
<path opacity="0.4" d="M16.8597 2H8.48969C4.84968 2 2.67969 4.17 2.67969 7.81V16.18C2.67969 19.82 4.84968 21.99 8.48969 21.99H16.8597C20.4997 21.99 22.6697 19.82 22.6697 16.18V7.81C22.6697 4.17 20.4997 2 16.8597 2Z" fill="#292D32"/>
<path d="M12.75 18.9999C12.52 18.9999 12.34 18.9399 12.24 18.8899C12.01 18.7799 11.47 18.4299 11.47 17.4499V14.0599L8.57001 16.7099C8.27001 16.9899 7.79001 16.9699 7.51001 16.6599C7.23001 16.3499 7.25003 15.8799 7.56003 15.5999L11.47 12.0199V11.9399L7.56003 8.39992C7.25003 8.11992 7.23001 7.64992 7.51001 7.33992C7.79001 7.02992 8.26001 7.00992 8.57001 7.28992L11.47 9.93992V6.54993C11.47 5.56993 12.01 5.20992 12.24 5.10992C12.47 4.99992 13.09 4.81992 13.84 5.44992L16.25 7.45993C16.58 7.72993 16.77 8.11992 16.78 8.52992C16.79 8.93992 16.62 9.33993 16.31 9.62993L13.72 11.9999L16.31 14.3699C16.62 14.6599 16.8 15.0599 16.79 15.4699C16.78 15.8799 16.59 16.2699 16.26 16.5399L13.85 18.5499C13.42 18.8999 13.04 18.9999 12.75 18.9999ZM12.97 13.2999V17.3199L15.28 15.3899L12.97 13.2999ZM12.97 6.67991V10.6399L15.28 8.51993L12.97 6.67991Z" fill="#292D32"/>
<path d="M7.29016 13.3801C6.53016 13.3801 5.91016 12.7601 5.91016 12.0001C5.91016 11.2401 6.53016 10.6201 7.29016 10.6201C8.05016 10.6201 8.67017 11.2401 8.67017 12.0001C8.67017 12.7601 8.05016 13.3801 7.29016 13.3801ZM7.29016 11.8801C7.22016 11.8801 7.17017 11.9401 7.17017 12.0001C7.17017 12.1401 7.42017 12.1401 7.42017 12.0001C7.42017 11.9301 7.36016 11.8801 7.29016 11.8801Z" fill="#292D32"/>
<path d="M18.0499 13.3801C17.2899 13.3801 16.6699 12.7601 16.6699 12.0001C16.6699 11.2401 17.2899 10.6201 18.0499 10.6201C18.8099 10.6201 19.4299 11.2401 19.4299 12.0001C19.4299 12.7601 18.7999 13.3801 18.0499 13.3801ZM18.0499 11.8801C17.9799 11.8801 17.9299 11.9401 17.9299 12.0001C17.9299 12.1401 18.1799 12.1401 18.1799 12.0001C18.1699 11.9301 18.1099 11.8801 18.0499 11.8801Z" fill="#292D32"/>
</svg>
