<svg width="25" height="24" viewBox="0 0 25 24" fill="none" xmlns="http://www.w3.org/2000/svg">
<path opacity="0.4" d="M16.8597 2H8.48969C4.84968 2 2.67969 4.17 2.67969 7.81V16.18C2.67969 19.82 4.84968 21.99 8.48969 21.99H16.8597C20.4997 21.99 22.6697 19.82 22.6697 16.18V7.81C22.6697 4.17 20.4997 2 16.8597 2Z" fill="#292D32"/>
<path d="M13.3799 19.0299C13.1499 19.0299 12.9699 18.9699 12.8699 18.9199C12.6399 18.8099 12.0999 18.4499 12.0999 17.4699V14.0499L9.17988 16.7299C8.87988 17.0099 8.39989 16.9899 8.11989 16.6799C7.83989 16.3699 7.85987 15.8999 8.16987 15.6199L12.0999 12.0199V11.9399L8.16987 8.3799C7.85987 8.0999 7.83989 7.6299 8.11989 7.3199C8.39989 7.0199 8.87988 6.9899 9.17988 7.2699L12.0999 9.94989V6.52989C12.0999 5.54989 12.6399 5.18989 12.8699 5.07989C13.0999 4.96989 13.7199 4.78989 14.4699 5.41989L16.8899 7.43989C17.2199 7.70989 17.4099 8.1099 17.4199 8.5199C17.4299 8.9299 17.2599 9.32989 16.9399 9.61989L14.3299 12.0099L16.9399 14.3999C17.2499 14.6899 17.4299 15.0899 17.4199 15.4999C17.4099 15.9099 17.2199 16.2999 16.8899 16.5799L14.4699 18.5999C14.0499 18.9399 13.6699 19.0299 13.3799 19.0299ZM13.5999 13.2999V17.3599L15.9299 15.4099L13.5999 13.2999ZM13.5999 6.63989V10.6399L15.9299 8.49989L13.5999 6.63989Z" fill="#292D32"/>
</svg>
