<svg width="25" height="24" viewBox="0 0 25 24" fill="none" xmlns="http://www.w3.org/2000/svg">
<path opacity="0.4" d="M16.8597 2H8.48969C4.84968 2 2.67969 4.17 2.67969 7.81V16.18C2.67969 19.82 4.84968 21.99 8.48969 21.99H16.8597C20.4997 21.99 22.6697 19.82 22.6697 16.18V7.81C22.6697 4.17 20.4997 2 16.8597 2Z" fill="#292D32"/>
<path d="M12.17 8.09V17.25C12.17 17.61 11.81 17.85 11.48 17.71C10.27 17.19 8.69003 16.71 7.59003 16.57L7.40002 16.55C6.79002 16.47 6.29004 15.9 6.29004 15.28V7.57999C6.29004 6.81999 6.91004 6.25 7.67004 6.31C8.92004 6.41 10.7701 7.01001 11.9301 7.67001C12.0801 7.74001 12.17 7.91 12.17 8.09Z" fill="#292D32"/>
<path d="M19.0499 7.69983V15.2698C19.0499 15.8898 18.5499 16.4598 17.9399 16.5398L17.7299 16.5598C16.6399 16.7098 15.0699 17.1798 13.8599 17.6898C13.5299 17.8298 13.1699 17.5898 13.1699 17.2298V8.0798C13.1699 7.8998 13.2599 7.72983 13.4199 7.63983C14.5799 6.98983 16.3899 6.4098 17.6199 6.2998H17.6599C18.4299 6.3098 19.0499 6.92983 19.0499 7.69983Z" fill="#292D32"/>
</svg>
