<svg width="25" height="24" viewBox="0 0 25 24" fill="none" xmlns="http://www.w3.org/2000/svg">
<path opacity="0.4" d="M12.6699 5.30019V21.3302C12.8399 21.3302 13.0199 21.3002 13.1599 21.2202L13.2 21.2002C15.12 20.1502 18.4699 19.0502 20.6399 18.7602L20.9299 18.7202C21.8899 18.6002 22.6699 17.7002 22.6699 16.7402V4.66018C22.6699 3.47018 21.6999 2.57019 20.5099 2.67019C18.4099 2.84019 15.23 3.90022 13.45 5.01022L13.2 5.16018C13.05 5.25018 12.8599 5.30019 12.6699 5.30019Z" fill="#292D32"/>
<path d="M2.66992 4.67002V16.74C2.66992 17.7 3.44991 18.6 4.40991 18.72L4.73993 18.76C6.91993 19.05 10.28 20.16 12.2 21.22C12.33 21.3 12.4899 21.3301 12.6699 21.3301V5.30002C12.4799 5.30002 12.2899 5.25001 12.1399 5.16001L11.9699 5.05002C10.1899 3.93002 6.9999 2.86003 4.8999 2.68003H4.8399C3.6499 2.58003 2.66992 3.47002 2.66992 4.67002Z" fill="#292D32"/>
<path d="M19.6699 2.78027V7.07025C19.6699 7.47025 19.2299 7.71023 18.8899 7.49023L17.6699 6.68024L16.45 7.49023C16.12 7.71023 15.6699 7.47025 15.6699 7.07025V3.92023C16.9799 3.40023 18.4399 2.98027 19.6699 2.78027Z" fill="#292D32"/>
</svg>
