<svg width="25" height="24" viewBox="0 0 25 24" fill="none" xmlns="http://www.w3.org/2000/svg">
<path opacity="0.4" d="M16.8599 2H8.48992C4.83992 2 2.66992 4.17 2.66992 7.81V16.18C2.66992 19.82 4.83992 21.99 8.47992 21.99H16.8499C20.4899 21.99 22.6599 19.82 22.6599 16.18V7.81C22.6699 4.17 20.4999 2 16.8599 2Z" fill="#292D32"/>
<path fill-rule="evenodd" clip-rule="evenodd" d="M16.9199 2.0002V12.42C16.9199 13.06 16.7299 13.54 16.3999 13.73C16.0599 13.93 15.5199 13.83 14.9199 13.47L13.5999 12.68C13.0899 12.37 12.2499 12.37 11.7399 12.68L10.4199 13.47C9.81992 13.83 9.27992 13.92 8.93992 13.73C8.60992 13.54 8.41992 13.06 8.41992 12.42V2.00027C8.44319 2.00009 8.46653 2 8.48992 2H16.8599C16.88 2 16.9 2.00007 16.9199 2.0002Z" fill="#292D32"/>
</svg>
