<svg width="25" height="24" viewBox="0 0 25 24" fill="none" xmlns="http://www.w3.org/2000/svg">
<path d="M22.6699 15.7C22.6699 15.69 22.6599 15.68 22.6499 15.67C22.6099 15.61 22.5599 15.55 22.5099 15.5C22.4999 15.49 22.4899 15.47 22.4799 15.46C21.6699 14.56 20.4799 14 19.1699 14C17.9099 14 16.7599 14.52 15.9399 15.36C15.1499 16.17 14.6699 17.28 14.6699 18.5C14.6699 19.34 14.9099 20.14 15.3199 20.82C15.5399 21.19 15.8199 21.53 16.1399 21.81C16.1599 21.82 16.1699 21.83 16.1799 21.84C16.2299 21.89 16.2799 21.93 16.3399 21.98C16.3399 21.98 16.3399 21.98 16.3499 21.98C16.3599 21.99 16.3699 22 16.3799 22C17.1299 22.63 18.0999 23 19.1699 23C20.8099 23 22.2399 22.12 23.0199 20.82C23.2499 20.43 23.4299 20 23.5399 19.55C23.6299 19.21 23.6699 18.86 23.6699 18.5C23.6699 17.44 23.2999 16.46 22.6699 15.7ZM20.8499 19.23H19.9199V20.2C19.9199 20.61 19.5799 20.95 19.1699 20.95C18.7599 20.95 18.4199 20.61 18.4199 20.2V19.23H17.4899C17.0799 19.23 16.7399 18.89 16.7399 18.48C16.7399 18.07 17.0799 17.73 17.4899 17.73H18.4199V16.84C18.4199 16.43 18.7599 16.09 19.1699 16.09C19.5799 16.09 19.9199 16.43 19.9199 16.84V17.73H20.8499C21.2599 17.73 21.5999 18.07 21.5999 18.48C21.5999 18.89 21.2699 19.23 20.8499 19.23Z" fill="#292D32"/>
<path opacity="0.4" d="M20.0198 5.65995L13.7298 2.27C13.0698 1.91 12.2698 1.91 11.5998 2.27L5.30983 5.65995C4.84983 5.90995 4.56982 6.39998 4.56982 6.93998C4.56982 7.47998 4.84983 7.96995 5.30983 8.21995L11.5998 11.61C11.9298 11.79 12.2998 11.88 12.6598 11.88C13.0198 11.88 13.3898 11.79 13.7198 11.61L20.0098 8.21995C20.4698 7.96995 20.7498 7.47998 20.7498 6.93998C20.7698 6.39998 20.4798 5.90995 20.0198 5.65995Z" fill="#292D32"/>
<path opacity="0.4" d="M10.5701 12.7899L4.72014 9.85989C4.27014 9.62989 3.75013 9.65989 3.32013 9.91989C2.89013 10.1799 2.64014 10.6399 2.64014 11.1399V16.6699C2.64014 17.6299 3.17014 18.4899 4.03014 18.9199L9.88014 21.8399C10.0801 21.9399 10.3001 21.9899 10.5201 21.9899C10.7801 21.9899 11.0401 21.9199 11.2701 21.7699C11.7001 21.5099 11.9501 21.0499 11.9501 20.5499V15.0199C11.9601 14.0799 11.4301 13.2199 10.5701 12.7899Z" fill="#292D32"/>
<path opacity="0.4" d="M22.6999 11.1502V15.7401C22.6899 15.7301 22.6799 15.7101 22.6699 15.7001C22.6699 15.6901 22.6599 15.6801 22.6499 15.6701C22.6099 15.6101 22.5599 15.5501 22.5099 15.5001C22.4999 15.4901 22.4899 15.4702 22.4799 15.4602C21.6699 14.5602 20.4799 14.0001 19.1699 14.0001C17.9099 14.0001 16.7599 14.5201 15.9399 15.3601C15.1499 16.1701 14.6699 17.2801 14.6699 18.5001C14.6699 19.3401 14.9099 20.1401 15.3199 20.8201C15.4899 21.1101 15.6999 21.3701 15.9299 21.6101L15.4599 21.8501C15.2599 21.9501 15.0399 22.0001 14.8199 22.0001C14.5599 22.0001 14.2999 21.9302 14.0599 21.7802C13.6399 21.5202 13.3799 21.0601 13.3799 20.5601V15.0401C13.3799 14.0801 13.9099 13.2201 14.7699 12.7901L20.6199 9.87013C21.0699 9.64013 21.5899 9.66012 22.0199 9.93012C22.4399 10.1901 22.6999 10.6502 22.6999 11.1502Z" fill="#292D32"/>
</svg>
