<svg width="25" height="24" viewBox="0 0 25 24" fill="none" xmlns="http://www.w3.org/2000/svg">
<path d="M22.3498 15.3202C21.4598 14.4302 20.2798 13.9802 19.1098 14.0002C17.9798 14.0102 16.8498 14.4602 15.9898 15.3202C15.3898 15.9102 14.9998 16.6501 14.8098 17.4201C14.6998 17.8401 14.6598 18.2702 14.6898 18.7002V18.7502C14.6898 18.8202 14.6998 18.8802 14.7098 18.9602C14.7098 18.9602 14.7098 18.9601 14.7198 18.9701V19.0002C14.8098 19.9802 15.2298 20.9301 15.9898 21.6801C17.1498 22.8401 18.7798 23.2301 20.2498 22.8601C20.6898 22.7501 21.1198 22.5702 21.5198 22.3302C21.8198 22.1602 22.0998 21.9401 22.3498 21.6801C23.0998 20.9301 23.5298 19.9801 23.6198 18.9901C23.6298 18.9901 23.6298 18.9702 23.6298 18.9602C23.6498 18.8902 23.6498 18.8101 23.6498 18.7401C23.6498 18.7301 23.6598 18.7102 23.6598 18.6902C23.7198 17.4802 23.2798 16.2402 22.3498 15.3202ZM20.8998 20.2102C20.6098 20.5002 20.1398 20.5002 19.8398 20.2102L19.1798 19.5501L18.4998 20.2301C18.1998 20.5301 17.7298 20.5301 17.4398 20.2301C17.1398 19.9401 17.1398 19.4701 17.4398 19.1701L18.1198 18.4901L17.4598 17.8302C17.1698 17.5302 17.1698 17.0602 17.4598 16.7702C17.7598 16.4702 18.2298 16.4702 18.5298 16.7702L19.1798 17.4301L19.8098 16.7901C20.1098 16.5001 20.5798 16.5001 20.8798 16.7901C21.1698 17.0901 21.1698 17.5601 20.8798 17.8601L20.2398 18.4901L20.8998 19.1402C21.1998 19.4402 21.1998 19.9102 20.8998 20.2102Z" fill="#292D32"/>
<path opacity="0.4" d="M20.0198 5.65995L13.7298 2.27C13.0698 1.91 12.2698 1.91 11.5998 2.27L5.30984 5.65995C4.84984 5.90995 4.56982 6.39998 4.56982 6.93998C4.56982 7.47998 4.84984 7.96995 5.30984 8.21995L11.5998 11.61C11.9298 11.79 12.2998 11.88 12.6598 11.88C13.0198 11.88 13.3898 11.79 13.7198 11.61L20.0098 8.21995C20.4698 7.96995 20.7498 7.47998 20.7498 6.93998C20.7698 6.39998 20.4798 5.90995 20.0198 5.65995Z" fill="#292D32"/>
<path opacity="0.4" d="M10.5701 12.7899L4.72012 9.85989C4.27012 9.62989 3.75013 9.65989 3.32013 9.91989C2.89013 10.1799 2.64014 10.6399 2.64014 11.1399V16.6699C2.64014 17.6299 3.17012 18.4899 4.03012 18.9199L9.88013 21.8399C10.0801 21.9399 10.3001 21.9899 10.5201 21.9899C10.7801 21.9899 11.0401 21.9199 11.2701 21.7699C11.7001 21.5099 11.9501 21.0499 11.9501 20.5499V15.0199C11.9601 14.0799 11.4301 13.2199 10.5701 12.7899Z" fill="#292D32"/>
<path opacity="0.4" d="M22.6999 11.1502V15.7401C22.6899 15.7301 22.6799 15.7101 22.6699 15.7001C22.6699 15.6901 22.6599 15.6801 22.6499 15.6701C22.6099 15.6101 22.5599 15.5501 22.5099 15.5001C22.4999 15.4901 22.4899 15.4702 22.4799 15.4602C21.6699 14.5602 20.4799 14.0001 19.1699 14.0001C17.9099 14.0001 16.7599 14.5201 15.9399 15.3601C15.1499 16.1701 14.6699 17.2801 14.6699 18.5001C14.6699 19.3401 14.9099 20.1401 15.3199 20.8201C15.4899 21.1101 15.6999 21.3701 15.9299 21.6101L15.4599 21.8501C15.2599 21.9501 15.0399 22.0001 14.8199 22.0001C14.5599 22.0001 14.2999 21.9302 14.0599 21.7802C13.6399 21.5202 13.3799 21.0601 13.3799 20.5601V15.0401C13.3799 14.0801 13.9099 13.2201 14.7699 12.7901L20.6199 9.87013C21.0699 9.64013 21.5899 9.66012 22.0199 9.93012C22.4399 10.1901 22.6999 10.6502 22.6999 11.1502Z" fill="#292D32"/>
</svg>
