<svg width="25" height="24" viewBox="0 0 25 24" fill="none" xmlns="http://www.w3.org/2000/svg">
<path opacity="0.4" d="M6.00004 19.42C5.89004 19.42 5.77004 19.39 5.67004 19.34L3.45004 18.23C3.20004 18.1 3.04004 17.84 3.04004 17.56V14.78C3.04004 14.37 3.38004 14.03 3.79004 14.03C4.20004 14.03 4.54004 14.37 4.54004 14.78V17.09L6.35004 17.99C6.72004 18.18 6.87003 18.63 6.69003 19C6.54003 19.26 6.28004 19.42 6.00004 19.42Z" fill="#292D32"/>
<path d="M12.6704 22.75C12.6104 22.75 12.5504 22.74 12.5004 22.73C12.4404 22.72 12.3804 22.69 12.3204 22.66L10.1104 21.56C9.74037 21.37 9.59037 20.92 9.77037 20.55C9.96037 20.18 10.4104 20.03 10.7804 20.21L11.9204 20.78V19.22C11.9204 18.81 12.2604 18.47 12.6704 18.47C13.0804 18.47 13.4204 18.81 13.4204 19.22V20.78L14.5604 20.21C14.9304 20.03 15.3804 20.18 15.5704 20.55C15.7604 20.92 15.6104 21.37 15.2304 21.56L13.0204 22.66C12.9604 22.69 12.9004 22.71 12.8404 22.73C12.7804 22.74 12.7304 22.75 12.6704 22.75Z" fill="#292D32"/>
<path opacity="0.4" d="M19.3401 19.42C19.0701 19.42 18.8001 19.27 18.6701 19.01C18.4801 18.64 18.6301 18.19 19.0101 18L20.8201 17.1V14.79C20.8201 14.38 21.1601 14.04 21.5701 14.04C21.9801 14.04 22.3201 14.38 22.3201 14.79V17.57C22.3201 17.85 22.1601 18.11 21.9101 18.24L19.6901 19.35C19.5601 19.39 19.4501 19.42 19.3401 19.42Z" fill="#292D32"/>
<path d="M12.6704 14.42C12.2604 14.42 11.9204 14.08 11.9204 13.67V11.36L10.1104 10.46C9.74037 10.27 9.59037 9.82 9.77037 9.45C9.96037 9.08 10.4104 8.93 10.7804 9.11L12.6704 10.05L14.5604 9.11C14.9304 8.93 15.3804 9.07 15.5704 9.45C15.7604 9.82 15.6104 10.27 15.2304 10.46L13.4204 11.36V13.67C13.4204 14.08 13.0804 14.42 12.6704 14.42Z" fill="#292D32"/>
<path opacity="0.4" d="M3.78027 9.97C3.37027 9.97 3.03027 9.63 3.03027 9.22V6.46V6.44999C3.03027 6.38999 3.04027 6.32999 3.05027 6.27999C3.07027 6.19999 3.10027 6.12999 3.14027 6.05999C3.17027 6.00999 3.20027 5.96999 3.24027 5.92999C3.28027 5.88999 3.33027 5.85 3.38027 5.82C3.40027 5.81 3.43027 5.78999 3.45027 5.77999L5.66027 4.67999C6.03027 4.49999 6.48027 4.64 6.67027 5.02C6.86027 5.39 6.71028 5.83999 6.33028 6.02999L5.45027 6.47L6.33028 6.91C6.70028 7.1 6.85027 7.54999 6.67027 7.91999C6.49027 8.28999 6.03027 8.43999 5.66027 8.25999L4.52027 7.69V9.25C4.53027 9.64 4.20027 9.97 3.78027 9.97Z" fill="#292D32"/>
<path d="M14.8897 3.86C14.7797 3.86 14.6597 3.82999 14.5597 3.77999L12.6697 2.83999L10.7797 3.77999C10.4097 3.96999 9.95971 3.82 9.76971 3.44C9.57971 3.07 9.72971 2.61999 10.1097 2.42999L12.3297 1.32C12.5397 1.21 12.7897 1.21 12.9997 1.32L15.2197 2.42999C15.5897 2.61999 15.7397 3.07 15.5597 3.44C15.4297 3.71 15.1697 3.86 14.8897 3.86Z" fill="#292D32"/>
<path opacity="0.4" d="M21.5603 9.97C21.1503 9.97 20.8103 9.63 20.8103 9.22V7.66L19.6703 8.22999C19.3003 8.41999 18.8503 8.27 18.6603 7.89C18.4703 7.52 18.6203 7.07 19.0003 6.88L19.8803 6.44L19.0003 6C18.6303 5.81 18.4803 5.36 18.6603 4.99C18.8403 4.62 19.3003 4.46999 19.6703 4.64999L21.8803 5.75C21.9003 5.76 21.9303 5.76999 21.9503 5.78999C22.0103 5.81999 22.0603 5.87 22.1103 5.92C22.1403 5.96 22.1703 5.99999 22.2003 6.03999C22.2403 6.10999 22.2703 6.17999 22.2903 6.25999C22.3003 6.31999 22.3103 6.37999 22.3103 6.42999V6.44V9.2C22.3103 9.64 21.9703 9.97 21.5603 9.97Z" fill="#292D32"/>
</svg>
