<svg width="25" height="24" viewBox="0 0 25 24" fill="none" xmlns="http://www.w3.org/2000/svg">
<path opacity="0.4" d="M10.5004 5.57001L7.03038 7.68L5.45038 5.08002C4.87038 4.13002 5.17039 2.86998 6.13039 2.28998C7.08039 1.70998 8.34038 2.00998 8.92038 2.96998L10.5004 5.57001Z" fill="#292D32"/>
<path opacity="0.4" d="M19.9396 17.64L19.9296 17.65L18.6296 18.44L17.3296 19.23L16.0296 20.02L14.7296 20.81L13.4296 21.6H13.4196C12.1096 22.4 10.4896 21.92 9.81958 20.55L7.7396 16.31C7.0096 14.83 7.23959 13.03 8.35959 11.8C8.61959 11.52 8.91959 11.26 9.26959 11.05L12.4796 9.1C12.8396 8.89 13.1996 8.73004 13.5696 8.64004C15.1696 8.20004 16.8696 8.82005 17.8496 10.15L20.6596 13.95C21.5696 15.2 21.2496 16.85 19.9396 17.64Z" fill="#292D32"/>
<path d="M13.5697 8.66C13.1997 8.75 12.8397 8.90002 12.4797 9.12002L9.26973 11.07C8.90973 11.28 8.61973 11.54 8.35973 11.82C8.34973 11.82 8.34972 11.81 8.34972 11.81L6.69972 9.08005C6.40972 8.60005 6.55972 7.97003 7.02972 7.69003L10.4997 5.58005C10.9797 5.29005 11.5997 5.44 11.8897 5.91L13.5497 8.64004C13.5597 8.65004 13.5697 8.65 13.5697 8.66Z" fill="#292D32"/>
<path d="M17.3303 19.23L16.0303 20.02L14.3603 17.27C14.1503 16.91 14.2603 16.45 14.6103 16.22C14.9803 16.01 15.4403 16.12 15.6603 16.47L17.3303 19.23Z" fill="#292D32"/>
<path d="M14.7296 20.82L13.4296 21.61L11.7596 18.86C11.5396 18.5 11.6496 18.04 12.0096 17.81C12.3696 17.6 12.8296 17.71 13.0596 18.06L14.7296 20.82Z" fill="#292D32"/>
<path d="M19.9299 17.65L18.6299 18.44L16.9599 15.69C16.7499 15.33 16.8599 14.87 17.2099 14.64C17.5799 14.43 18.0399 14.54 18.2599 14.89L19.9299 17.65Z" fill="#292D32"/>
</svg>
