<svg width="25" height="24" viewBox="0 0 25 24" fill="none" xmlns="http://www.w3.org/2000/svg">
<path d="M17.9798 11.25C17.9998 11.51 17.9098 11.78 17.7098 11.98L11.6898 18C10.3598 19.33 9.01978 19.33 7.67978 18L3.66978 13.99C2.98978 13.3 2.64978 12.61 2.66978 11.92H2.73978L17.8598 11.26L17.9798 11.25Z" fill="#292D32"/>
<path opacity="0.4" d="M17.7099 10.6399L10.3599 3.28989L9.48992 2.41989C9.19992 2.12989 8.71992 2.12989 8.42992 2.41989C8.13992 2.70989 8.13992 3.18989 8.42992 3.47989L9.29992 4.34989L3.66992 9.97989C3.02992 10.6199 2.68992 11.2699 2.66992 11.9199H2.73992L17.8599 11.2599L17.9799 11.2499C17.9699 11.0299 17.8699 10.7999 17.7099 10.6399Z" fill="#292D32"/>
<path d="M16.6699 22.75H3.66992C3.25992 22.75 2.91992 22.41 2.91992 22C2.91992 21.59 3.25992 21.25 3.66992 21.25H16.6699C17.0799 21.25 17.4199 21.59 17.4199 22C17.4199 22.41 17.0799 22.75 16.6699 22.75Z" fill="#292D32"/>
<path d="M20.0199 14.7801C19.7599 14.5001 19.2799 14.5001 19.0199 14.7801C18.7099 15.1201 17.1699 16.86 17.1699 18.17C17.1699 19.47 18.2199 20.5201 19.5199 20.5201C20.8199 20.5201 21.8699 19.47 21.8699 18.17C21.8699 16.86 20.3299 15.1201 20.0199 14.7801Z" fill="#292D32"/>
</svg>
