<svg width="25" height="24" viewBox="0 0 25 24" fill="none" xmlns="http://www.w3.org/2000/svg">
<path opacity="0.4" d="M16.8597 2H8.48969C4.84968 2 2.67969 4.17 2.67969 7.81V16.18C2.67969 19.82 4.84968 21.99 8.48969 21.99H16.8597C20.4997 21.99 22.6697 19.82 22.6697 16.18V7.81C22.6697 4.17 20.4997 2 16.8597 2Z" fill="#292D32"/>
<path d="M16.3304 11.93C16.3204 11.79 16.2604 11.64 16.1604 11.54L11.4604 6.84001L10.9104 6.28996C10.7204 6.09996 10.4204 6.09996 10.2304 6.28996C10.0404 6.47996 10.0404 6.77995 10.2304 6.96995L10.7804 7.52L7.18039 11.12C6.77039 11.53 6.55038 11.95 6.54038 12.36C6.53038 12.8 6.74039 13.24 7.18039 13.69L9.75037 16.26C10.6104 17.11 11.4704 17.11 12.3204 16.26L16.1704 12.41C16.2804 12.27 16.3404 12.09 16.3304 11.93Z" fill="#292D32"/>
<path d="M17.6308 14.1899C17.4708 14.0099 17.1608 14.0099 16.9908 14.1899C16.7908 14.3999 15.8008 15.5199 15.8008 16.3599C15.8008 17.1899 16.4708 17.8599 17.3008 17.8599C18.1308 17.8599 18.8008 17.1899 18.8008 16.3599C18.8108 15.5199 17.8308 14.4099 17.6308 14.1899Z" fill="#292D32"/>
</svg>
