<svg width="25" height="24" viewBox="0 0 25 24" fill="none" xmlns="http://www.w3.org/2000/svg">
<path opacity="0.4" d="M12.6699 22C18.1928 22 22.6699 17.5228 22.6699 12C22.6699 6.47715 18.1928 2 12.6699 2C7.14707 2 2.66992 6.47715 2.66992 12C2.66992 17.5228 7.14707 22 12.6699 22Z" fill="#292D32"/>
<path d="M16.3304 11.93C16.3204 11.79 16.2604 11.64 16.1604 11.54L11.4604 6.84001L10.9104 6.28996C10.7204 6.09996 10.4204 6.09996 10.2304 6.28996C10.0404 6.47996 10.0404 6.77995 10.2304 6.96995L10.7804 7.52L7.18039 11.12C6.77039 11.53 6.55038 11.95 6.54038 12.36C6.53038 12.8 6.74039 13.24 7.18039 13.68L9.75037 16.25C10.6104 17.1 11.4704 17.1 12.3204 16.25L16.1704 12.4C16.2804 12.27 16.3404 12.09 16.3304 11.93Z" fill="#292D32"/>
<path d="M17.6308 14.1899C17.4708 14.0099 17.1608 14.0099 16.9908 14.1899C16.7908 14.3999 15.8008 15.5199 15.8008 16.3599C15.8008 17.1899 16.4708 17.8599 17.3008 17.8599C18.1308 17.8599 18.8008 17.1899 18.8008 16.3599C18.8108 15.5199 17.8308 14.4099 17.6308 14.1899Z" fill="#292D32"/>
</svg>
