<svg width="25" height="24" viewBox="0 0 25 24" fill="none" xmlns="http://www.w3.org/2000/svg">
<path opacity="0.4" d="M15.6799 14.7499V21.9898L3.67993 22.0099V14.7499L3.66992 13.2499V7.06986C3.66992 6.39986 4.00994 5.77983 4.55994 5.40983L8.55994 2.73984C9.22994 2.28984 10.1099 2.28984 10.7799 2.73984L14.7799 5.40983C15.3399 5.77983 15.6699 6.39986 15.6699 7.06986V13.2499L15.6799 14.7499Z" fill="#292D32"/>
<path d="M22.6699 21.2501H21.3999V18.2501C22.3499 17.9401 23.0399 17.0501 23.0399 16.0001V14.0001C23.0399 12.6901 21.9699 11.6201 20.6599 11.6201C19.3499 11.6201 18.2799 12.6901 18.2799 14.0001V16.0001C18.2799 17.0401 18.9599 17.9201 19.8899 18.2401V21.2501H2.66992C2.25992 21.2501 1.91992 21.5901 1.91992 22.0001C1.91992 22.4101 2.25992 22.7501 2.66992 22.7501H20.5999C20.6199 22.7501 20.6299 22.7601 20.6499 22.7601C20.6699 22.7601 20.68 22.7501 20.7 22.7501H22.6699C23.0799 22.7501 23.4199 22.4101 23.4199 22.0001C23.4199 21.5901 23.0799 21.2501 22.6699 21.2501Z" fill="#292D32"/>
<path d="M15.6799 14.75H3.67993L3.66992 13.25H15.6699L15.6799 14.75Z" fill="#292D32"/>
<path d="M9.66992 22.75C9.25992 22.75 8.91992 22.41 8.91992 22V18.25C8.91992 17.84 9.25992 17.5 9.66992 17.5C10.0799 17.5 10.4199 17.84 10.4199 18.25V22C10.4199 22.41 10.0799 22.75 9.66992 22.75Z" fill="#292D32"/>
<path d="M9.66992 10.75C10.6364 10.75 11.4199 9.9665 11.4199 9C11.4199 8.0335 10.6364 7.25 9.66992 7.25C8.70342 7.25 7.91992 8.0335 7.91992 9C7.91992 9.9665 8.70342 10.75 9.66992 10.75Z" fill="#292D32"/>
</svg>
