<svg width="25" height="24" viewBox="0 0 25 24" fill="none" xmlns="http://www.w3.org/2000/svg">
<path opacity="0.4" d="M13.1696 7.40986V21.9999H4.74965C3.58965 21.9999 2.63965 21.0699 2.63965 19.9299V5.08986C2.63965 2.46986 4.59965 1.27986 6.98965 2.44986L11.4196 4.63986C12.3796 5.10986 13.1696 6.35986 13.1696 7.40986Z" fill="#292D32"/>
<path d="M9.63992 9.75H6.16992C5.75992 9.75 5.41992 9.41 5.41992 9C5.41992 8.59 5.75992 8.25 6.16992 8.25H9.63992C10.0499 8.25 10.3899 8.59 10.3899 9C10.3899 9.41 10.0599 9.75 9.63992 9.75Z" fill="#292D32"/>
<path d="M9.63992 13.75H6.16992C5.75992 13.75 5.41992 13.41 5.41992 13C5.41992 12.59 5.75992 12.25 6.16992 12.25H9.63992C10.0499 12.25 10.3899 12.59 10.3899 13C10.3899 13.41 10.0599 13.75 9.63992 13.75Z" fill="#292D32"/>
<path opacity="0.6" d="M22.6699 15.0499V19.4999C22.6699 20.8799 21.5499 21.9999 20.1699 21.9999H13.1699V10.4199L13.6399 10.5199L17.6799 11.4199L18.1599 11.5299L20.1999 11.9899C20.6899 12.0899 21.1399 12.2599 21.5299 12.5099C21.5299 12.5199 21.5399 12.5199 21.5399 12.5199C21.6399 12.5899 21.7399 12.6699 21.8299 12.7599C22.2899 13.2199 22.5899 13.8899 22.6599 14.8699C22.6599 14.9299 22.6699 14.9899 22.6699 15.0499Z" fill="#292D32"/>
<path d="M13.1699 10.4199V16.4199C13.6299 17.0299 14.3499 17.4199 15.1699 17.4199C16.5599 17.4199 17.6799 16.2999 17.6799 14.9199V11.4299L13.6399 10.5299L13.1699 10.4199Z" fill="#292D32"/>
<path d="M22.6597 14.8699C22.5897 13.8899 22.2897 13.2199 21.8297 12.7599C21.7397 12.6699 21.6397 12.5899 21.5397 12.5199C21.5397 12.5199 21.5297 12.5199 21.5297 12.5099C21.1397 12.2599 20.6897 12.0899 20.1997 11.9899L18.1597 11.5299L17.6797 11.4199V14.9199C17.6797 16.2899 18.7897 17.4199 20.1797 17.4199C21.5197 17.4199 22.5897 16.3699 22.6697 15.0599V15.0499C22.6697 14.9899 22.6597 14.9299 22.6597 14.8699Z" fill="#292D32"/>
</svg>
