<svg width="25" height="24" viewBox="0 0 25 24" fill="none" xmlns="http://www.w3.org/2000/svg">
<path opacity="0.6" d="M10.7799 4C10.6999 4.3 10.6699 4.63 10.6699 5V8H5.66992V6C5.66992 4.9 6.56992 4 7.66992 4H10.7799Z" fill="#292D32"/>
<path d="M10.6699 19V8H5.66992C3.66992 8 2.66992 9 2.66992 11V19C2.66992 21 3.66992 22 5.66992 22H13.6699C11.6699 22 10.6699 21 10.6699 19ZM7.41992 17C7.41992 17.41 7.07992 17.75 6.66992 17.75C6.25992 17.75 5.91992 17.41 5.91992 17V13C5.91992 12.59 6.25992 12.25 6.66992 12.25C7.07992 12.25 7.41992 12.59 7.41992 13V17Z" fill="#292D32"/>
<path opacity="0.4" d="M14.6699 22H13.6699C11.6699 22 10.6699 21 10.6699 19V5C10.6699 3 11.6699 2 13.6699 2H19.6699C21.6699 2 22.6699 3 22.6699 5V19C22.6699 21 21.6699 22 19.6699 22H18.6699" fill="#292D32"/>
<path d="M18.6699 18V22H14.6699V18C14.6699 17.45 15.1199 17 15.6699 17H17.6699C18.2199 17 18.6699 17.45 18.6699 18Z" fill="#292D32"/>
<path d="M14.6699 13.75C14.2599 13.75 13.9199 13.41 13.9199 13V8C13.9199 7.59 14.2599 7.25 14.6699 7.25C15.0799 7.25 15.4199 7.59 15.4199 8V13C15.4199 13.41 15.0799 13.75 14.6699 13.75Z" fill="#292D32"/>
<path d="M18.6699 13.75C18.2599 13.75 17.9199 13.41 17.9199 13V8C17.9199 7.59 18.2599 7.25 18.6699 7.25C19.0799 7.25 19.4199 7.59 19.4199 8V13C19.4199 13.41 19.0799 13.75 18.6699 13.75Z" fill="#292D32"/>
</svg>
