<svg width="25" height="24" viewBox="0 0 25 24" fill="none" xmlns="http://www.w3.org/2000/svg">
<path opacity="0.4" d="M2.77002 21.9998V6.02979C2.77002 4.01979 3.77007 3.00977 5.76007 3.00977H11.9901C13.9801 3.00977 14.97 4.01979 14.97 6.02979V21.9998" fill="#292D32"/>
<path d="M11.4197 9H6.46973C6.05973 9 5.71973 8.66 5.71973 8.25C5.71973 7.84 6.05973 7.5 6.46973 7.5H11.4197C11.8297 7.5 12.1697 7.84 12.1697 8.25C12.1697 8.66 11.8297 9 11.4197 9Z" fill="#292D32"/>
<path d="M11.4197 12.75H6.46973C6.05973 12.75 5.71973 12.41 5.71973 12C5.71973 11.59 6.05973 11.25 6.46973 11.25H11.4197C11.8297 11.25 12.1697 11.59 12.1697 12C12.1697 12.41 11.8297 12.75 11.4197 12.75Z" fill="#292D32"/>
<path d="M8.91992 22.75C8.50992 22.75 8.16992 22.41 8.16992 22V18.25C8.16992 17.84 8.50992 17.5 8.91992 17.5C9.32992 17.5 9.66992 17.84 9.66992 18.25V22C9.66992 22.41 9.32992 22.75 8.91992 22.75Z" fill="#292D32"/>
<path d="M23.6699 21.2501H21.3999V18.2501C22.3499 17.9401 23.0399 17.0501 23.0399 16.0001V14.0001C23.0399 12.6901 21.9699 11.6201 20.6599 11.6201C19.3499 11.6201 18.2799 12.6901 18.2799 14.0001V16.0001C18.2799 17.0401 18.9599 17.9201 19.8899 18.2401V21.2501H1.66992C1.25992 21.2501 0.919922 21.5901 0.919922 22.0001C0.919922 22.4101 1.25992 22.7501 1.66992 22.7501H20.5999C20.6199 22.7501 20.6299 22.7601 20.6499 22.7601C20.6699 22.7601 20.68 22.7501 20.7 22.7501H23.6699C24.0799 22.7501 24.4199 22.4101 24.4199 22.0001C24.4199 21.5901 24.0799 21.2501 23.6699 21.2501Z" fill="#292D32"/>
</svg>
