<svg width="25" height="24" viewBox="0 0 25 24" fill="none" xmlns="http://www.w3.org/2000/svg">
<path d="M21.5603 13V14H20.6903C19.9503 14 19.3503 14.6 19.3503 15.35V15.65C19.3503 16.4 18.7503 17 18.0003 17C17.2603 17 16.6603 16.4 16.6603 15.65V15.35C16.6603 14.6 16.0503 14 15.3103 14C14.5703 14 13.9703 14.6 13.9703 15.35V15.65C13.9703 16.4 13.3603 17 12.6203 17C11.8803 17 11.2703 16.4 11.2703 15.65V15.35C11.2703 14.6 10.6703 14 9.93027 14C9.19027 14 8.58027 14.6 8.58027 15.35V15.65C8.58027 16.4 7.98027 17 7.24027 17C6.49027 17 5.89027 16.4 5.89027 15.65V15.33C5.89027 14.59 5.30027 13.99 4.57027 13.98H3.78027V13C3.78027 11.62 4.82027 10.45 6.23027 10.11C6.51027 10.04 6.80027 10 7.11027 10H18.2303C18.5403 10 18.8303 10.04 19.1103 10.11C20.5203 10.45 21.5603 11.62 21.5603 13Z" fill="#292D32"/>
<path opacity="0.4" d="M19.1095 7.17V10.11C18.8295 10.04 18.5395 10 18.2295 10H7.10949C6.79949 10 6.50949 10.04 6.22949 10.11V7.17C6.22949 5.97 7.30949 5 8.64949 5H16.6895C18.0295 5 19.1095 5.97 19.1095 7.17Z" fill="#292D32"/>
<path d="M9.41992 3.55V5.01H8.64992C8.38992 5.01 8.14992 5.04 7.91992 5.1V3.55C7.91992 3.2 8.25992 2.9 8.66992 2.9C9.07992 2.9 9.41992 3.2 9.41992 3.55Z" fill="#292D32"/>
<path d="M17.4199 3.33V5.1C17.1899 5.03 16.9499 5 16.6899 5H15.9199V3.33C15.9199 2.92 16.2599 2.58 16.6699 2.58C17.0799 2.58 17.4199 2.92 17.4199 3.33Z" fill="#292D32"/>
<path d="M13.4199 2.82V5H11.9199V2.82C11.9199 2.37 12.2599 2 12.6699 2C13.0799 2 13.4199 2.37 13.4199 2.82Z" fill="#292D32"/>
<path opacity="0.4" d="M21.9199 20.5H21.5599V14H20.6899C19.9499 14 19.3499 14.6 19.3499 15.35V15.65C19.3499 16.4 18.7499 17 17.9999 17C17.2599 17 16.6599 16.4 16.6599 15.65V15.35C16.6599 14.6 16.0499 14 15.3099 14C14.5699 14 13.9699 14.6 13.9699 15.35V15.65C13.9699 16.4 13.3599 17 12.6199 17C11.8799 17 11.2699 16.4 11.2699 15.65V15.35C11.2699 14.6 10.6699 14 9.92992 14C9.18992 14 8.57992 14.6 8.57992 15.35V15.65C8.57992 16.4 7.97992 17 7.23992 17C6.48992 17 5.88992 16.4 5.88992 15.65V15.33C5.88992 14.59 5.29992 13.99 4.56992 13.98H3.77992V20.5H3.41992C3.00992 20.5 2.66992 20.84 2.66992 21.25C2.66992 21.66 3.00992 22 3.41992 22H3.77992H21.5599H21.9199C22.3299 22 22.6699 21.66 22.6699 21.25C22.6699 20.84 22.3299 20.5 21.9199 20.5Z" fill="#292D32"/>
</svg>
