<svg width="25" height="24" viewBox="0 0 25 24" fill="none" xmlns="http://www.w3.org/2000/svg">
<path d="M17.4201 3.56V2C17.4201 1.59 17.0801 1.25 16.6701 1.25C16.2601 1.25 15.9201 1.59 15.9201 2V3.5H9.42014V2C9.42014 1.59 9.08014 1.25 8.67014 1.25C8.26014 1.25 7.92014 1.59 7.92014 2V3.56C5.22014 3.81 3.91015 5.42 3.71015 7.81C3.69015 8.1 3.93015 8.34 4.21015 8.34H21.1301C21.4201 8.34 21.6601 8.09 21.6301 7.81C21.4301 5.42 20.1201 3.81 17.4201 3.56Z" fill="#292D32"/>
<path opacity="0.4" d="M20.6699 9.84009C21.2199 9.84009 21.6699 10.2901 21.6699 10.8401V17.0001C21.6699 20.0001 20.1699 22.0001 16.6699 22.0001H8.66992C5.16992 22.0001 3.66992 20.0001 3.66992 17.0001V10.8401C3.66992 10.2901 4.11992 9.84009 4.66992 9.84009H20.6699Z" fill="#292D32"/>
<path d="M15.5099 14.9899L15.0099 15.4999H14.9999L11.9699 18.5299C11.8399 18.6599 11.5699 18.7999 11.3799 18.8199L10.0299 19.0199C9.53985 19.0899 9.19987 18.7399 9.26987 18.2599L9.45988 16.8999C9.48988 16.7099 9.61986 16.4499 9.74986 16.3099L12.7899 13.2799L13.2899 12.7699C13.6199 12.4399 13.9899 12.2 14.3899 12.2C14.7299 12.2 15.0999 12.3599 15.5099 12.7699C16.4099 13.6699 16.1199 14.3799 15.5099 14.9899Z" fill="#292D32"/>
</svg>
