<svg width="25" height="24" viewBox="0 0 25 24" fill="none" xmlns="http://www.w3.org/2000/svg">
<path fill-rule="evenodd" clip-rule="evenodd" d="M8.66992 1.25C9.08414 1.25 9.41992 1.58579 9.41992 2V5C9.41992 5.41421 9.08414 5.75 8.66992 5.75C8.25571 5.75 7.91992 5.41421 7.91992 5V2C7.91992 1.58579 8.25571 1.25 8.66992 1.25Z" fill="#292D32"/>
<path fill-rule="evenodd" clip-rule="evenodd" d="M16.6699 1.25C17.0841 1.25 17.4199 1.58579 17.4199 2V5C17.4199 5.41421 17.0841 5.75 16.6699 5.75C16.2557 5.75 15.9199 5.41421 15.9199 5V2C15.9199 1.58579 16.2557 1.25 16.6699 1.25Z" fill="#292D32"/>
<path opacity="0.4" d="M22.1699 8.37V17.13C22.1699 17.29 22.1599 17.45 22.1499 17.6H3.18992C3.17992 17.45 3.16992 17.29 3.16992 17.13V8.37C3.16992 5.68 5.34992 3.5 8.03992 3.5H17.2999C19.9899 3.5 22.1699 5.68 22.1699 8.37Z" fill="#292D32"/>
<path d="M22.1499 17.6001C21.9099 20.0701 19.8299 22.0001 17.2999 22.0001H8.03994C5.50994 22.0001 3.42994 20.0701 3.18994 17.6001H22.1499Z" fill="#292D32"/>
<path d="M14.1999 11.62C14.6499 11.31 14.9299 10.85 14.9299 10.23C14.9299 8.93001 13.8899 8.26001 12.6699 8.26001C11.4499 8.26001 10.3999 8.93001 10.3999 10.23C10.3999 10.85 10.6899 11.32 11.1299 11.62C10.5199 11.98 10.1699 12.56 10.1699 13.24C10.1699 14.48 11.1199 15.25 12.6699 15.25C14.2099 15.25 15.1699 14.48 15.1699 13.24C15.1699 12.56 14.8199 11.97 14.1999 11.62ZM12.6699 9.50001C13.1899 9.50001 13.5699 9.79001 13.5699 10.29C13.5699 10.78 13.1899 11.09 12.6699 11.09C12.1499 11.09 11.7699 10.78 11.7699 10.29C11.7699 9.79001 12.1499 9.50001 12.6699 9.50001ZM12.6699 14C12.0099 14 11.5299 13.67 11.5299 13.07C11.5299 12.47 12.0099 12.15 12.6699 12.15C13.3299 12.15 13.8099 12.48 13.8099 13.07C13.8099 13.67 13.3299 14 12.6699 14Z" fill="#292D32"/>
</svg>
