<svg width="25" height="24" viewBox="0 0 25 24" fill="none" xmlns="http://www.w3.org/2000/svg">
<path opacity="0.4" d="M12.6699 22C18.1928 22 22.6699 17.5228 22.6699 12C22.6699 6.47715 18.1928 2 12.6699 2C7.14707 2 2.66992 6.47715 2.66992 12C2.66992 17.5228 7.14707 22 12.6699 22Z" fill="#292D32"/>
<path d="M17.8197 9.44009C17.3997 8.47009 16.6097 7.7201 15.5197 7.3801V6.59009C15.5197 6.18009 15.1797 5.84009 14.7697 5.84009C14.3597 5.84009 14.0197 6.18009 14.0197 6.59009V7.18008H11.3097V6.59009C11.3097 6.18009 10.9697 5.84009 10.5597 5.84009C10.1497 5.84009 9.80974 6.18009 9.80974 6.59009V7.3801C8.71974 7.7201 7.92972 8.47009 7.50973 9.44009C7.36973 9.77009 7.60972 10.1501 7.96972 10.1501H17.3397C17.7197 10.1401 17.9597 9.77009 17.8197 9.44009Z" fill="#292D32"/>
<path d="M17.6699 11.1401C17.9499 11.1401 18.1699 11.3601 18.1699 11.6401V14.1701C18.1699 16.3701 16.6699 18.1701 14.1699 18.1701H11.1699C8.66992 18.1701 7.16992 16.3701 7.16992 14.1701V11.6401C7.16992 11.3601 7.38992 11.1401 7.66992 11.1401H17.6699Z" fill="#292D32"/>
</svg>
