<svg width="25" height="24" viewBox="0 0 25 24" fill="none" xmlns="http://www.w3.org/2000/svg">
<path d="M17.4202 3.56V2C17.4202 1.59 17.0802 1.25 16.6702 1.25C16.2602 1.25 15.9202 1.59 15.9202 2V3.5H9.42016V2C9.42016 1.59 9.08016 1.25 8.67016 1.25C8.26016 1.25 7.92016 1.59 7.92016 2V3.56C5.22016 3.81 3.91015 5.42 3.71015 7.81C3.69015 8.1 3.93015 8.34 4.21015 8.34H21.1302C21.4202 8.34 21.6602 8.09 21.6302 7.81C21.4302 5.42 20.1202 3.81 17.4202 3.56Z" fill="#292D32"/>
<path opacity="0.4" d="M21.6699 10.8401V12.5801C21.6699 13.1901 21.1299 13.6601 20.5299 13.5601C20.2499 13.5201 19.9599 13.4901 19.6699 13.4901C16.6399 13.4901 14.1699 15.9601 14.1699 18.9901C14.1699 19.4501 14.3499 20.0901 14.5399 20.6701C14.7599 21.3201 14.2799 21.9901 13.5899 21.9901H8.66992C5.16992 21.9901 3.66992 19.9901 3.66992 16.9901V10.8301C3.66992 10.2801 4.11992 9.83008 4.66992 9.83008H20.6699C21.2199 9.84008 21.6699 10.2901 21.6699 10.8401Z" fill="#292D32"/>
<path d="M19.6699 15C17.4599 15 15.6699 16.79 15.6699 19C15.6699 21.21 17.4599 23 19.6699 23C21.8799 23 23.6699 21.21 23.6699 19C23.6699 16.79 21.8799 15 19.6699 15ZM21.2699 20.64C21.1199 20.79 20.9299 20.86 20.7399 20.86C20.5499 20.86 20.3599 20.79 20.2099 20.64L19.6799 20.11L19.1299 20.66C18.9799 20.81 18.7899 20.88 18.5999 20.88C18.4099 20.88 18.2199 20.81 18.0699 20.66C17.7799 20.37 17.7799 19.89 18.0699 19.6L18.6199 19.05L18.0899 18.52C17.7999 18.23 17.7999 17.75 18.0899 17.46C18.3799 17.17 18.8599 17.17 19.1499 17.46L19.6799 17.99L20.1799 17.49C20.4699 17.2 20.9499 17.2 21.2399 17.49C21.5299 17.78 21.5299 18.26 21.2399 18.55L20.7399 19.05L21.2699 19.58C21.5599 19.88 21.5599 20.35 21.2699 20.64Z" fill="#292D32"/>
<path d="M9.16992 14.9999C8.90992 14.9999 8.64992 14.8899 8.45992 14.7099C8.27992 14.5199 8.16992 14.2599 8.16992 13.9999C8.16992 13.7399 8.27992 13.4799 8.45992 13.2899C8.68992 13.0599 9.03992 12.9499 9.36992 13.0199C9.42992 13.0299 9.48992 13.0499 9.54992 13.0799C9.60992 13.0999 9.66992 13.1299 9.72992 13.1699C9.77992 13.2099 9.82992 13.2499 9.87992 13.2899C10.0599 13.4799 10.1699 13.7399 10.1699 13.9999C10.1699 14.2599 10.0599 14.5199 9.87992 14.7099C9.82992 14.7499 9.77992 14.7899 9.72992 14.8299C9.66992 14.8699 9.60992 14.8999 9.54992 14.9199C9.48992 14.9499 9.42992 14.9699 9.36992 14.9799C9.29992 14.9899 9.22992 14.9999 9.16992 14.9999Z" fill="#292D32"/>
<path d="M12.6699 14.9999C12.4099 14.9999 12.1499 14.8899 11.9599 14.7099C11.7799 14.5199 11.6699 14.2599 11.6699 13.9999C11.6699 13.7399 11.7799 13.48 11.9599 13.29C12.3399 12.92 13.0099 12.92 13.3799 13.29C13.5599 13.48 13.6699 13.7399 13.6699 13.9999C13.6699 14.2599 13.5599 14.5199 13.3799 14.7099C13.1899 14.8899 12.9299 14.9999 12.6699 14.9999Z" fill="#292D32"/>
<path d="M9.16992 18.4999C8.90992 18.4999 8.64992 18.3899 8.45992 18.2099C8.27992 18.0199 8.16992 17.7599 8.16992 17.4999C8.16992 17.2399 8.27992 16.9799 8.45992 16.7899C8.55992 16.6999 8.65992 16.6299 8.78992 16.5799C9.15992 16.4199 9.59992 16.5099 9.87992 16.7899C10.0599 16.9799 10.1699 17.2399 10.1699 17.4999C10.1699 17.7599 10.0599 18.0199 9.87992 18.2099C9.68992 18.3899 9.42992 18.4999 9.16992 18.4999Z" fill="#292D32"/>
</svg>
