<svg width="25" height="24" viewBox="0 0 25 24" fill="none" xmlns="http://www.w3.org/2000/svg">
<path opacity="0.4" d="M22.6699 7.77002V9.00002H2.66992V7.54002C2.66992 5.25002 4.52992 3.40002 6.81992 3.40002H16.6699V5.97002C16.6699 7.24002 17.4299 8.00002 18.6999 8.00002H21.6399C22.0399 8.00002 22.3799 7.93002 22.6699 7.77002Z" fill="#292D32"/>
<path d="M2.66992 9V16.46C2.66992 18.75 4.52992 20.6 6.81992 20.6H18.5199C20.8099 20.6 22.6699 18.75 22.6699 16.46V9H2.66992ZM8.66992 17.25H6.66992C6.25992 17.25 5.91992 16.91 5.91992 16.5C5.91992 16.09 6.25992 15.75 6.66992 15.75H8.66992C9.07992 15.75 9.41992 16.09 9.41992 16.5C9.41992 16.91 9.07992 17.25 8.66992 17.25ZM15.1699 17.25H11.1699C10.7599 17.25 10.4199 16.91 10.4199 16.5C10.4199 16.09 10.7599 15.75 11.1699 15.75H15.1699C15.5799 15.75 15.9199 16.09 15.9199 16.5C15.9199 16.91 15.5799 17.25 15.1699 17.25Z" fill="#292D32"/>
<path d="M21.6399 1H18.6999C17.4299 1 16.6699 1.76 16.6699 3.03V5.97C16.6699 7.24 17.4299 8 18.6999 8H21.6399C22.9099 8 23.6699 7.24 23.6699 5.97V3.03C23.6699 1.76 22.9099 1 21.6399 1ZM22.5799 4.93C22.4799 5.03 22.3299 5.1 22.1699 5.11H20.7599L20.7699 6.5C20.7599 6.67 20.6999 6.81 20.5799 6.93C20.4799 7.03 20.3299 7.1 20.1699 7.1C19.8399 7.1 19.5699 6.83 19.5699 6.5V5.1L18.1699 5.11C17.8399 5.11 17.5699 4.83 17.5699 4.5C17.5699 4.17 17.8399 3.9 18.1699 3.9L19.5699 3.91V2.51C19.5699 2.18 19.8399 1.9 20.1699 1.9C20.4999 1.9 20.7699 2.18 20.7699 2.51L20.7599 3.9H22.1699C22.4999 3.9 22.7699 4.17 22.7699 4.5C22.7599 4.67 22.6899 4.81 22.5799 4.93Z" fill="#292D32"/>
</svg>
