<svg width="25" height="24" viewBox="0 0 25 24" fill="none" xmlns="http://www.w3.org/2000/svg">
<path opacity="0.4" d="M22.6699 9V16.46C22.6699 18.75 20.8099 20.6 18.5199 20.6H6.81992C4.52992 20.6 2.66992 18.75 2.66992 16.46V9H22.6699Z" fill="#292D32"/>
<path d="M22.6699 7.54002V9.00002H2.66992V7.54002C2.66992 5.25002 4.52992 3.40002 6.81992 3.40002H18.5199C20.8099 3.40002 22.6699 5.25002 22.6699 7.54002Z" fill="#292D32"/>
<path d="M8.66992 17.25H6.66992C6.25992 17.25 5.91992 16.91 5.91992 16.5C5.91992 16.09 6.25992 15.75 6.66992 15.75H8.66992C9.07992 15.75 9.41992 16.09 9.41992 16.5C9.41992 16.91 9.07992 17.25 8.66992 17.25Z" fill="#292D32"/>
<path d="M15.1699 17.25H11.1699C10.7599 17.25 10.4199 16.91 10.4199 16.5C10.4199 16.09 10.7599 15.75 11.1699 15.75H15.1699C15.5799 15.75 15.9199 16.09 15.9199 16.5C15.9199 16.91 15.5799 17.25 15.1699 17.25Z" fill="#292D32"/>
</svg>
