<svg width="25" height="24" viewBox="0 0 25 24" fill="none" xmlns="http://www.w3.org/2000/svg">
<path opacity="0.4" d="M22.6703 9V16.46C22.6703 18.75 20.8103 20.6 18.5203 20.6H7.07031L10.6403 17.03L11.9203 15.75L18.6703 9H22.6703Z" fill="#292D32"/>
<path opacity="0.4" d="M15.6699 9L4.66992 20C3.46992 19.28 2.66992 17.96 2.66992 16.46V9H15.6699Z" fill="#292D32"/>
<path d="M22.6699 7.54003V9.00003H18.6699L22.1399 5.53003C22.4799 6.12003 22.6699 6.81003 22.6699 7.54003Z" fill="#292D32"/>
<path d="M20.6699 4.00002L15.6699 9.00002H2.66992V7.54002C2.66992 5.25002 4.52992 3.40002 6.81992 3.40002H18.5199C19.3099 3.40002 20.0399 3.62002 20.6699 4.00002Z" fill="#292D32"/>
<path d="M8.87992 15.79L7.41992 17.25H6.66992C6.25992 17.25 5.91992 16.91 5.91992 16.5C5.91992 16.09 6.25992 15.75 6.66992 15.75H8.66992C8.73992 15.75 8.80992 15.76 8.87992 15.79Z" fill="#292D32"/>
<path d="M15.9196 16.5C15.9196 16.91 15.5796 17.25 15.1696 17.25H11.1696C10.9696 17.25 10.7796 17.16 10.6396 17.03L11.9196 15.75H15.1696C15.5796 15.75 15.9196 16.09 15.9196 16.5Z" fill="#292D32"/>
<path d="M22.4398 2.23C22.1398 1.93 21.6498 1.93 21.3498 2.23L2.8998 20.69C2.5998 20.99 2.5998 21.48 2.8998 21.78C3.0498 21.92 3.2398 22 3.4398 22C3.6398 22 3.8298 21.92 3.9798 21.77L22.4398 3.31C22.7498 3.01 22.7498 2.53 22.4398 2.23Z" fill="#292D32"/>
</svg>
