<svg width="25" height="24" viewBox="0 0 25 24" fill="none" xmlns="http://www.w3.org/2000/svg">
<path d="M21.9199 22H3.41992C3.00992 22 2.66992 21.66 2.66992 21.25C2.66992 20.84 3.00992 20.5 3.41992 20.5H21.9199C22.3299 20.5 22.6699 20.84 22.6699 21.25C22.6699 21.66 22.3299 22 21.9199 22Z" fill="#292D32"/>
<path opacity="0.4" d="M21.2598 13.7L14.0298 20.93C12.6098 22.35 10.3198 22.35 8.9098 20.94L4.2998 16.33L16.6598 3.96997L21.2698 8.57997C22.6798 9.98997 22.6798 12.28 21.2598 13.7Z" fill="#292D32"/>
<path d="M16.6595 3.97004L4.2895 16.33L3.3795 15.42C1.9695 14.01 1.9695 11.72 3.3895 10.3L10.6195 3.07004C12.0395 1.65004 14.3295 1.65004 15.7395 3.06004L16.6595 3.97004Z" fill="#292D32"/>
<path d="M13.5602 17.6L12.2102 18.95C11.9302 19.23 11.4802 19.23 11.2002 18.95C10.9202 18.67 10.9202 18.22 11.2002 17.94L12.5502 16.59C12.8302 16.31 13.2802 16.31 13.5602 16.59C13.8402 16.87 13.8402 17.32 13.5602 17.6Z" fill="#292D32"/>
<path d="M17.9403 13.22L15.2503 15.91C14.9703 16.19 14.5203 16.19 14.2403 15.91C13.9603 15.63 13.9603 15.18 14.2403 14.9L16.9303 12.21C17.2103 11.93 17.6603 11.93 17.9403 12.21C18.2103 12.49 18.2103 12.94 17.9403 13.22Z" fill="#292D32"/>
</svg>
