<svg width="25" height="24" viewBox="0 0 25 24" fill="none" xmlns="http://www.w3.org/2000/svg">
<path opacity="0.4" d="M16.8599 2H8.47992C4.83992 2 2.66992 4.17 2.66992 7.81V16.18C2.66992 19.83 4.83992 22 8.47992 22H16.8499C20.4899 22 22.6599 19.83 22.6599 16.19V7.81C22.6699 4.17 20.4999 2 16.8599 2Z" fill="#292D32"/>
<path d="M17.0898 7.8099V16.1899C17.0898 16.8299 16.5698 17.3499 15.9298 17.3499C15.2798 17.3499 14.7598 16.8299 14.7598 16.1899V7.8099C14.7598 7.1699 15.2798 6.6499 15.9298 6.6499C16.5698 6.6499 17.0898 7.1699 17.0898 7.8099Z" fill="#292D32"/>
<path d="M10.58 12.93V16.19C10.58 16.83 10.06 17.35 9.41 17.35C8.77 17.35 8.25 16.83 8.25 16.19V12.93C8.25 12.29 8.77 11.77 9.41 11.77C10.06 11.77 10.58 12.29 10.58 12.93Z" fill="#292D32"/>
</svg>
