<svg width="25" height="24" viewBox="0 0 25 24" fill="none" xmlns="http://www.w3.org/2000/svg">
<path opacity="0.4" d="M16.6699 20.97V18.03C16.6699 16.76 17.4299 16 18.6999 16H21.6399C22.0399 16 22.3799 16.08 22.6699 16.22C22.6699 16.21 22.6699 16.2 22.6699 16.18V7.81C22.6699 4.17 20.4999 2 16.8599 2H8.47992C4.83992 2 2.66992 4.17 2.66992 7.81V16.18C2.66992 19.83 4.83992 22 8.47992 22H16.8499C16.8599 22 16.8699 22 16.8899 22C16.7499 21.71 16.6699 21.37 16.6699 20.97Z" fill="#292D32"/>
<path d="M7.66992 14.25C7.25992 14.25 6.91992 13.91 6.91992 13.5V10.5C6.91992 10.09 7.25992 9.75 7.66992 9.75C8.07992 9.75 8.41992 10.09 8.41992 10.5V13.5C8.41992 13.91 8.07992 14.25 7.66992 14.25Z" fill="#292D32"/>
<path d="M12.6699 14.25C12.2599 14.25 11.9199 13.91 11.9199 13.5V10.5C11.9199 10.09 12.2599 9.75 12.6699 9.75C13.0799 9.75 13.4199 10.09 13.4199 10.5V13.5C13.4199 13.91 13.0799 14.25 12.6699 14.25Z" fill="#292D32"/>
<path d="M17.6699 14.25C17.2599 14.25 16.9199 13.91 16.9199 13.5V10.5C16.9199 10.09 17.2599 9.75 17.6699 9.75C18.0799 9.75 18.4199 10.09 18.4199 10.5V13.5C18.4199 13.91 18.0799 14.25 17.6699 14.25Z" fill="#292D32"/>
<path d="M21.6399 16H18.6999C17.4299 16 16.6699 16.76 16.6699 18.03V20.97C16.6699 22.24 17.4299 23 18.6999 23H21.6399C22.9099 23 23.6699 22.24 23.6699 20.97V18.03C23.6699 16.76 22.9099 16 21.6399 16ZM22.1399 20.56C22.3899 20.81 22.3899 21.22 22.1399 21.47C22.0099 21.59 21.8499 21.65 21.6799 21.65C21.5199 21.65 21.3599 21.59 21.2299 21.47L20.1699 20.41L19.1199 21.47C18.9899 21.59 18.8299 21.65 18.6599 21.65C18.4999 21.65 18.3399 21.59 18.2099 21.47C17.9599 21.22 17.9599 20.81 18.2099 20.56L19.2699 19.5L18.2099 18.45C17.9599 18.2 17.9599 17.79 18.2099 17.54C18.4599 17.29 18.8699 17.29 19.1199 17.54L20.1699 18.6L21.2299 17.54C21.4799 17.29 21.8899 17.29 22.1399 17.54C22.3899 17.79 22.3899 18.2 22.1399 18.45L21.0799 19.5L22.1399 20.56Z" fill="#292D32"/>
</svg>
