<svg width="25" height="24" viewBox="0 0 25 24" fill="none" xmlns="http://www.w3.org/2000/svg">
<path opacity="0.4" d="M22.6699 12C22.6699 17.47 18.2799 21.91 12.8299 22H12.6699C12.0599 22 11.4599 21.94 10.8799 21.84C6.20992 20.99 2.66992 16.91 2.66992 12C2.66992 10.29 3.09992 8.68 3.85992 7.27C4.16992 6.7 4.52992 6.15 4.93992 5.65C6.77992 3.42 9.55992 2 12.6699 2C16.2299 2 19.3499 3.86 21.1199 6.66C21.4699 7.21 21.7699 7.8 22.0099 8.42C22.4399 9.53 22.6699 10.74 22.6699 12Z" fill="#292D32"/>
<path d="M15.7704 8.01999C17.8504 7.84999 19.9404 7.97999 22.0104 8.41999C21.7704 7.79999 21.4704 7.20999 21.1204 6.65999C18.2504 6.18999 15.3504 6.27999 12.4904 6.89999C10.0604 6.97999 8.08035 8.77999 7.71035 11.13C6.55035 9.44999 5.61035 7.61999 4.94035 5.64999C4.53035 6.14999 4.17035 6.69999 3.86035 7.26999C4.92035 9.95999 6.41035 12.36 8.32035 14.47C8.34035 14.49 8.37035 14.5 8.39035 14.52C9.30035 15.99 10.9104 16.9 12.6404 16.9C13.2504 16.9 13.8404 16.78 14.3904 16.57C13.4804 18.48 12.3204 20.25 10.8804 21.84C11.4604 21.94 12.0604 22 12.6704 22H12.8304C14.6804 19.74 16.0804 17.18 17.0204 14.3C17.4304 13.56 17.6504 12.73 17.6504 11.89C17.6504 10.32 16.9104 8.93999 15.7704 8.01999ZM15.6004 13.61C15.0004 14.66 13.8604 15.32 12.6404 15.32C11.4204 15.32 10.2904 14.66 9.68035 13.61C9.37035 13.07 9.22035 12.5 9.22035 11.89C9.22035 9.99999 10.7504 8.46999 12.6404 8.46999C14.5304 8.46999 16.0704 9.99999 16.0704 11.89C16.0704 12.5 15.9104 13.07 15.6004 13.61Z" fill="#292D32"/>
</svg>
