<svg width="25" height="24" viewBox="0 0 25 24" fill="none" xmlns="http://www.w3.org/2000/svg">
<path opacity="0.4" d="M14.5599 2.8799L9.86991 2.1399C5.95991 1.5299 4.14991 2.8499 3.52991 6.7599L2.78991 11.4499C2.38991 14.0099 2.80991 15.6699 4.25991 16.6799C5.01991 17.2199 6.05991 17.5799 7.40991 17.7899L12.0999 18.5299C16.0099 19.1399 17.8199 17.8199 18.4399 13.9099L19.1699 9.2199C19.2899 8.4499 19.3399 7.7599 19.2999 7.1499C19.1699 4.6499 17.6999 3.3699 14.5599 2.8799ZM8.90991 9.3499C7.73991 9.3499 6.78991 8.3999 6.78991 7.2399C6.78991 6.0699 7.73991 5.1199 8.90991 5.1199C10.0699 5.1199 11.0199 6.0699 11.0199 7.2399C11.0199 8.3999 10.0699 9.3499 8.90991 9.3499Z" fill="#292D32"/>
<path d="M21.17 13.4699L19.67 17.9799C18.42 21.7399 16.42 22.7399 12.66 21.4899L8.15001 19.9899C5.88001 19.2399 4.62001 18.1999 4.26001 16.6799C5.02001 17.2199 6.06001 17.5799 7.41001 17.7899L12.1 18.5299C16.01 19.1399 17.82 17.8199 18.44 13.9099L19.17 9.2199C19.29 8.4499 19.34 7.7599 19.3 7.1499C21.69 8.4199 22.21 10.3399 21.17 13.4699Z" fill="#292D32"/>
<path d="M11.02 7.24012C11.02 8.40012 10.07 9.35012 8.91004 9.35012C7.74004 9.35012 6.79004 8.40012 6.79004 7.24012C6.79004 6.07012 7.74004 5.12012 8.91004 5.12012C10.07 5.12012 11.02 6.07012 11.02 7.24012Z" fill="#292D32"/>
</svg>
