<svg width="25" height="24" viewBox="0 0 25 24" fill="none" xmlns="http://www.w3.org/2000/svg">
<path opacity="0.4" d="M16.91 3.65002H8.42996C5.95996 3.65002 3.95996 5.66002 3.95996 8.12002V17.53C3.95996 19.99 5.96996 22 8.42996 22H16.9C19.37 22 21.37 19.99 21.37 17.53V8.12002C21.38 5.65002 19.37 3.65002 16.91 3.65002Z" fill="#292D32"/>
<path d="M15.0199 2H10.3199C9.27993 2 8.42993 2.84 8.42993 3.88V4.82C8.42993 5.86 9.26993 6.7 10.3099 6.7H15.0199C16.0599 6.7 16.8999 5.86 16.8999 4.82V3.88C16.9099 2.84 16.0599 2 15.0199 2Z" fill="#292D32"/>
<path d="M15.1999 15.62L13.7499 14.17L15.1499 12.77C15.4399 12.48 15.4399 12 15.1499 11.71C14.8599 11.42 14.3799 11.42 14.0899 11.71L12.6899 13.11L11.2399 11.66C10.9499 11.37 10.4699 11.37 10.1799 11.66C9.88986 11.95 9.88986 12.43 10.1799 12.72L11.6299 14.17L10.1399 15.66C9.84986 15.95 9.84986 16.43 10.1399 16.72C10.2899 16.87 10.4799 16.94 10.6699 16.94C10.8599 16.94 11.0499 16.87 11.1999 16.72L12.6899 15.23L14.1399 16.68C14.2899 16.83 14.4799 16.9 14.6699 16.9C14.8599 16.9 15.0499 16.83 15.1999 16.68C15.4899 16.39 15.4899 15.92 15.1999 15.62Z" fill="#292D32"/>
</svg>
