<svg width="25" height="24" viewBox="0 0 25 24" fill="none" xmlns="http://www.w3.org/2000/svg">
<path opacity="0.4" d="M12.6699 22C18.1928 22 22.6699 17.5228 22.6699 12C22.6699 6.47715 18.1928 2 12.6699 2C7.14707 2 2.66992 6.47715 2.66992 12C2.66992 17.5228 7.14707 22 12.6699 22Z" fill="#292D32"/>
<path d="M16.3796 15.93C16.2496 15.93 16.1196 15.9 15.9996 15.82L12.8996 13.97C12.1296 13.51 11.5596 12.5 11.5596 11.61V7.51001C11.5596 7.10001 11.8996 6.76001 12.3096 6.76001C12.7196 6.76001 13.0596 7.10001 13.0596 7.51001V11.61C13.0596 11.97 13.3596 12.5 13.6696 12.68L16.7696 14.53C17.1296 14.74 17.2396 15.2 17.0296 15.56C16.8796 15.8 16.6296 15.93 16.3796 15.93Z" fill="#292D32"/>
</svg>
