<svg width="25" height="24" viewBox="0 0 25 24" fill="none" xmlns="http://www.w3.org/2000/svg">
<path opacity="0.4" d="M21.24 11.0099C20.48 10.0999 19.48 9.48994 18.34 9.23994C18.09 8.08994 17.63 7.08994 16.98 6.26994C16.96 6.23994 16.94 6.20994 16.92 6.18994C14.73 3.53994 11.14 3.54994 8.71996 4.91994C6.64996 6.09994 4.88996 8.58994 5.80996 12.1599C3.68996 12.6799 2.70996 14.5299 2.70996 16.1999C2.70996 18.0699 3.92996 20.1799 6.65996 20.3699H16.96C16.97 20.3699 16.99 20.3699 17 20.3699C18.42 20.3699 19.77 19.8499 20.81 18.8899C23.33 16.6899 23 13.0799 21.24 11.0099Z" fill="#292D32"/>
<path d="M21.9397 8.76001C21.9397 9.78001 21.4697 10.7 20.7097 11.3C20.1597 11.75 19.4497 12.02 18.6797 12.02C16.8897 12.02 15.4297 10.56 15.4297 8.77001C15.4297 7.88001 15.7897 7.07001 16.3897 6.48001V6.47001C16.9797 5.88001 17.7897 5.51001 18.6797 5.51001C20.4797 5.51001 21.9397 6.97001 21.9397 8.76001Z" fill="#292D32"/>
</svg>
