<svg width="25" height="24" viewBox="0 0 25 24" fill="none" xmlns="http://www.w3.org/2000/svg">
<path d="M21.1497 10.6901L2.67969 15.7201C2.78969 14.1301 3.77969 12.4601 5.77969 11.9701C5.18969 9.6401 5.68969 7.4501 7.20969 5.8601C8.93969 4.0501 11.6997 3.3301 14.0797 4.0701C16.2697 4.7401 17.8097 6.5401 18.3597 9.0401C19.4497 9.2901 20.4197 9.8601 21.1497 10.6901Z" fill="#292D32"/>
<path opacity="0.4" d="M20.8399 18.7399C19.7999 19.6899 18.4399 20.2199 17.0199 20.2199H6.63992C3.89992 20.0199 2.66992 17.9099 2.66992 16.0299C2.66992 15.9299 2.66992 15.8299 2.67992 15.7199L21.1499 10.6899C21.7199 11.2999 22.1499 12.0499 22.4099 12.9099C23.0699 15.0799 22.4699 17.3099 20.8399 18.7399Z" fill="#292D32"/>
</svg>
