<svg width="25" height="24" viewBox="0 0 25 24" fill="none" xmlns="http://www.w3.org/2000/svg">
<path opacity="0.6" d="M18.4599 10.47V12H2.66992V10.47C2.66992 8.14999 4.55992 6.25999 6.87992 6.25999H14.2499C16.5699 6.25999 18.4599 8.14999 18.4599 10.47Z" fill="#292D32"/>
<path opacity="0.4" d="M18.4599 12V17.79C18.4599 20.11 16.5699 22 14.2499 22H6.87992C4.55992 22 2.66992 20.11 2.66992 17.79V12H18.4599Z" fill="#292D32"/>
<path d="M6.16992 5.12C5.75992 5.12 5.41992 4.78 5.41992 4.37V2.61999C5.41992 2.21 5.75992 1.87 6.16992 1.87C6.57992 1.87 6.91992 2.21 6.91992 2.61999V4.37C6.91992 4.79 6.57992 5.12 6.16992 5.12Z" fill="#292D32"/>
<path d="M10.1699 5.12C9.75992 5.12 9.41992 4.78 9.41992 4.37V2.61999C9.41992 2.21 9.75992 1.87 10.1699 1.87C10.5799 1.87 10.9199 2.21 10.9199 2.61999V4.37C10.9199 4.79 10.5799 5.12 10.1699 5.12Z" fill="#292D32"/>
<path d="M14.1699 5.12C13.7599 5.12 13.4199 4.78 13.4199 4.37V2.61999C13.4199 2.21 13.7599 1.87 14.1699 1.87C14.5799 1.87 14.9199 2.21 14.9199 2.61999V4.37C14.9199 4.79 14.5799 5.12 14.1699 5.12Z" fill="#292D32"/>
<path d="M22.3197 14.32C22.3197 16.47 20.5797 18.21 18.4297 18.21V10.42C20.5697 10.42 22.3197 12.17 22.3197 14.32Z" fill="#292D32"/>
</svg>
