<svg width="25" height="24" viewBox="0 0 25 24" fill="none" xmlns="http://www.w3.org/2000/svg">
<path opacity="0.4" d="M10.6599 17.98C15.0727 17.98 18.6499 14.4028 18.6499 9.99C18.6499 5.57724 15.0727 2 10.6599 2C6.24717 2 2.66992 5.57724 2.66992 9.99C2.66992 14.4028 6.24717 17.98 10.6599 17.98Z" fill="#292D32"/>
<path d="M22.64 15.99C22.64 19.29 19.96 21.97 16.66 21.97C14.62 21.97 12.83 20.95 11.75 19.4C16.11 18.91 19.58 15.44 20.07 11.08C21.62 12.16 22.64 13.95 22.64 15.99Z" fill="#292D32"/>
<path d="M12.1199 9.71003L9.71992 8.87003C9.47992 8.79003 9.42992 8.77003 9.42992 8.42003C9.42992 8.16003 9.60992 7.95003 9.83992 7.95003H11.3399C11.6599 7.95003 11.9199 8.24003 11.9199 8.60003C11.9199 9.01003 12.2599 9.35003 12.6699 9.35003C13.0799 9.35003 13.4199 9.01003 13.4199 8.60003C13.4199 7.45003 12.5299 6.51003 11.4199 6.46003V6.41003C11.4199 6.00003 11.0799 5.66003 10.6699 5.66003C10.2599 5.66003 9.91992 5.99003 9.91992 6.41003V6.46003H9.82992C8.77992 6.46003 7.91992 7.34003 7.91992 8.43003C7.91992 9.38003 8.33992 9.99003 9.20992 10.29L11.6199 11.13C11.8599 11.21 11.9099 11.23 11.9099 11.58C11.9099 11.84 11.7299 12.05 11.4999 12.05H9.99992C9.67992 12.05 9.41992 11.76 9.41992 11.4C9.41992 10.99 9.07992 10.65 8.66992 10.65C8.25992 10.65 7.91992 10.99 7.91992 11.4C7.91992 12.55 8.80992 13.49 9.91992 13.54V13.6C9.91992 14.01 10.2599 14.35 10.6699 14.35C11.0799 14.35 11.4199 14.01 11.4199 13.6V13.55H11.5099C12.5599 13.55 13.4199 12.67 13.4199 11.58C13.4199 10.63 12.9899 10.02 12.1199 9.71003Z" fill="#292D32"/>
</svg>
