<svg width="25" height="24" viewBox="0 0 25 24" fill="none" xmlns="http://www.w3.org/2000/svg">
<path opacity="0.4" d="M22.6699 16.5V19.5C22.6699 21 21.6699 22 20.1699 22H6.66992C7.07992 22 7.49992 21.94 7.88992 21.81C7.99992 21.77 8.10991 21.73 8.21991 21.68C8.56991 21.54 8.90993 21.34 9.20993 21.08C9.29993 21.01 9.39993 20.92 9.48993 20.83L9.52991 20.79L16.3299 14H20.1699C21.6699 14 22.6699 15 22.6699 16.5Z" fill="#292D32"/>
<path opacity="0.6" d="M19.0403 11.29L16.3303 14L9.53027 20.79C10.2303 20.07 10.6703 19.08 10.6703 18V8.33996L13.3803 5.62996C14.4403 4.56996 15.8603 4.56996 16.9203 5.62996L19.0403 7.74996C20.1003 8.80996 20.1003 10.23 19.0403 11.29Z" fill="#292D32"/>
<path d="M8.16992 2H5.16992C3.66992 2 2.66992 3 2.66992 4.5V18C2.66992 18.27 2.69991 18.54 2.74991 18.8C2.77991 18.93 2.80991 19.06 2.84991 19.19C2.89991 19.34 2.94992 19.49 3.00992 19.63C3.01992 19.64 3.01993 19.65 3.01993 19.65C3.02993 19.65 3.02993 19.65 3.01993 19.66C3.15993 19.94 3.31992 20.21 3.50992 20.46C3.61992 20.59 3.72994 20.71 3.83994 20.83C3.94994 20.95 4.06992 21.05 4.19992 21.15L4.20993 21.16C4.45993 21.35 4.72992 21.51 5.00992 21.65C5.01992 21.64 5.01993 21.64 5.01993 21.65C5.16993 21.72 5.31992 21.77 5.47992 21.82C5.60992 21.86 5.73993 21.89 5.86993 21.92C6.12993 21.97 6.39992 22 6.66992 22C7.07992 22 7.49992 21.94 7.88992 21.81C7.99992 21.77 8.10991 21.73 8.21991 21.68C8.56991 21.54 8.90993 21.34 9.20993 21.08C9.29993 21.01 9.39993 20.92 9.48993 20.83L9.52991 20.79C10.2299 20.07 10.6699 19.08 10.6699 18V4.5C10.6699 3 9.66992 2 8.16992 2ZM6.66992 19.5C5.83992 19.5 5.16992 18.83 5.16992 18C5.16992 17.17 5.83992 16.5 6.66992 16.5C7.49992 16.5 8.16992 17.17 8.16992 18C8.16992 18.83 7.49992 19.5 6.66992 19.5Z" fill="#292D32"/>
</svg>
