<svg width="25" height="24" viewBox="0 0 25 24" fill="none" xmlns="http://www.w3.org/2000/svg">
<path opacity="0.6" d="M14.6699 16C14.6699 17.77 13.8999 19.37 12.6699 20.46C11.6099 21.42 10.2099 22 8.66992 22C5.35992 22 2.66992 19.31 2.66992 16C2.66992 13.24 4.54992 10.9 7.08992 10.21C7.77992 11.95 9.25992 13.29 11.0899 13.79C11.5899 13.93 12.1199 14 12.6699 14C13.2199 14 13.7499 13.93 14.2499 13.79C14.5199 14.47 14.6699 15.22 14.6699 16Z" fill="#292D32"/>
<path d="M18.6699 8C18.6699 8.78 18.5199 9.53 18.2499 10.21C17.5599 11.95 16.0799 13.29 14.2499 13.79C13.7499 13.93 13.2199 14 12.6699 14C12.1199 14 11.5899 13.93 11.0899 13.79C9.25992 13.29 7.77992 11.95 7.08992 10.21C6.81992 9.53 6.66992 8.78 6.66992 8C6.66992 4.69 9.35992 2 12.6699 2C15.9799 2 18.6699 4.69 18.6699 8Z" fill="#292D32"/>
<path opacity="0.4" d="M22.6699 16C22.6699 19.31 19.9799 22 16.6699 22C15.1299 22 13.7299 21.42 12.6699 20.46C13.8999 19.37 14.6699 17.77 14.6699 16C14.6699 15.22 14.5199 14.47 14.2499 13.79C16.0799 13.29 17.5599 11.95 18.2499 10.21C20.7899 10.9 22.6699 13.24 22.6699 16Z" fill="#292D32"/>
</svg>
