<svg width="25" height="24" viewBox="0 0 25 24" fill="none" xmlns="http://www.w3.org/2000/svg">
<path opacity="0.4" d="M16.8599 2H8.48993C4.84993 2 2.67993 4.17 2.67993 7.81V16.18C2.67993 19.82 4.84993 21.99 8.48993 21.99H16.8599C20.4999 21.99 22.6699 19.82 22.6699 16.18V7.81C22.6699 4.17 20.4999 2 16.8599 2Z" fill="#292D32"/>
<path d="M11.42 14.1501H13.9301C14.4201 14.1501 14.83 13.7501 14.83 13.2501V10.7401C14.83 10.2501 14.4301 9.84009 13.9301 9.84009H11.42C10.93 9.84009 10.52 10.2401 10.52 10.7401V13.2501C10.52 13.7501 10.92 14.1501 11.42 14.1501Z" fill="#292D32"/>
<path d="M8.46991 17.9999C9.45991 17.9999 10.2699 17.1899 10.2699 16.1999V15.3999C10.2699 14.8499 9.8199 14.3999 9.2699 14.3999H8.46991C7.47991 14.3999 6.66992 15.2099 6.66992 16.1999C6.66992 17.1899 7.47991 17.9999 8.46991 17.9999Z" fill="#292D32"/>
<path d="M8.46991 9.60001H9.2699C9.8199 9.60001 10.2699 9.15001 10.2699 8.60001V7.79999C10.2699 6.80999 9.45991 6 8.46991 6C7.47991 6 6.66992 6.80999 6.66992 7.79999C6.66992 8.78999 7.47991 9.60001 8.46991 9.60001Z" fill="#292D32"/>
<path d="M16.0698 9.60001H16.8698C17.8598 9.60001 18.6698 8.78999 18.6698 7.79999C18.6698 6.80999 17.8598 6 16.8698 6C15.8798 6 15.0698 6.80999 15.0698 7.79999V8.60001C15.0698 9.15001 15.5198 9.60001 16.0698 9.60001Z" fill="#292D32"/>
<path d="M16.8698 17.9999C17.8598 17.9999 18.6698 17.1899 18.6698 16.1999C18.6698 15.2099 17.8598 14.3999 16.8698 14.3999H16.0698C15.5198 14.3999 15.0698 14.8499 15.0698 15.3999V16.1999C15.0698 17.1899 15.8798 17.9999 16.8698 17.9999Z" fill="#292D32"/>
</svg>
