<svg width="25" height="24" viewBox="0 0 25 24" fill="none" xmlns="http://www.w3.org/2000/svg">
<path opacity="0.4" d="M22.6699 7.81V16.19C22.6699 19.83 20.4999 22 16.8599 22H8.47992C6.98992 22 5.74992 21.64 4.79992 20.95C4.37992 20.66 4.00992 20.29 3.71992 19.87C3.02992 18.92 2.66992 17.68 2.66992 16.19V7.81C2.66992 4.17 4.83992 2 8.47992 2H16.8599C18.3499 2 19.5899 2.36 20.5399 3.05C20.9599 3.34 21.3299 3.71 21.6199 4.13C22.3099 5.08 22.6699 6.32 22.6699 7.81Z" fill="#292D32"/>
<path d="M21.6197 4.13L4.79973 20.95C4.37973 20.66 4.00973 20.29 3.71973 19.87L20.5397 3.05C20.9597 3.34 21.3297 3.71 21.6197 4.13Z" fill="#292D32"/>
<path d="M19.1699 14.75H17.4799V13C17.4799 12.59 17.1399 12.25 16.7299 12.25C16.3199 12.25 15.9799 12.59 15.9799 13V14.75H14.1699C13.7599 14.75 13.4199 15.09 13.4199 15.5C13.4199 15.91 13.7599 16.25 14.1699 16.25H15.9799V18C15.9799 18.41 16.3199 18.75 16.7299 18.75C17.1399 18.75 17.4799 18.41 17.4799 18V16.25H19.1699C19.5799 16.25 19.9199 15.91 19.9199 15.5C19.9199 15.09 19.5799 14.75 19.1699 14.75Z" fill="#292D32"/>
<path d="M11.1699 8.25H6.16992C5.75992 8.25 5.41992 7.91 5.41992 7.5C5.41992 7.09 5.75992 6.75 6.16992 6.75H11.1699C11.5799 6.75 11.9199 7.09 11.9199 7.5C11.9199 7.91 11.5799 8.25 11.1699 8.25Z" fill="#292D32"/>
</svg>
