<svg width="25" height="24" viewBox="0 0 25 24" fill="none" xmlns="http://www.w3.org/2000/svg">
<path opacity="0.4" d="M15.6701 22.75C15.4001 22.75 15.1501 22.6 15.0201 22.37C14.8901 22.14 14.8901 21.85 15.0301 21.62L16.0801 19.87C16.2901 19.51 16.7501 19.4 17.1101 19.61C17.4701 19.82 17.5801 20.28 17.3701 20.64L17.1001 21.09C19.8601 20.44 21.9301 17.96 21.9301 15C21.9301 14.59 22.2701 14.25 22.6801 14.25C23.0901 14.25 23.4301 14.59 23.4301 15C23.4201 19.27 19.9401 22.75 15.6701 22.75Z" fill="#292D32"/>
<path opacity="0.4" d="M2.66992 9.75C2.25992 9.75 1.91992 9.41 1.91992 9C1.91992 4.73 5.39992 1.25 9.66992 1.25C9.93992 1.25 10.1899 1.4 10.3199 1.63C10.4499 1.86 10.4499 2.15 10.3099 2.38L9.25992 4.13C9.04992 4.49001 8.58992 4.60001 8.22992 4.39001C7.86992 4.18001 7.75992 3.71999 7.96992 3.35999L8.23993 2.90997C5.47993 3.55997 3.40993 6.04 3.40993 9C3.41993 9.41 3.07992 9.75 2.66992 9.75Z" fill="#292D32"/>
<path d="M11.3404 13.8499L8.20036 12.1599C7.87036 11.9799 7.47037 11.9799 7.14037 12.1599L4.00037 13.8499C3.77037 13.9699 3.63037 14.2199 3.63037 14.4899C3.63037 14.7599 3.77037 15.0099 4.00037 15.1299L7.14037 16.8199C7.31037 16.9099 7.49036 16.9499 7.67036 16.9499C7.85036 16.9499 8.03036 16.9099 8.20036 16.8199L11.3404 15.1299C11.5704 15.0099 11.7104 14.7599 11.7104 14.4899C11.7104 14.2199 11.5604 13.9799 11.3404 13.8499Z" fill="#292D32"/>
<path d="M6.62015 17.4101L3.70015 15.9502C3.48015 15.8402 3.22015 15.8501 3.00015 15.9801C2.79015 16.1101 2.66016 16.3402 2.66016 16.5902V19.3501C2.66016 19.8301 2.92014 20.2601 3.35014 20.4701L6.27016 21.9301C6.37016 21.9801 6.48015 22.0101 6.59015 22.0101C6.72015 22.0101 6.85015 21.9702 6.97015 21.9002C7.18015 21.7702 7.31015 21.5401 7.31015 21.2901V18.5302C7.32015 18.0502 7.05015 17.6201 6.62015 17.4101Z" fill="#292D32"/>
<path d="M12.33 15.9801C12.12 15.8501 11.86 15.8402 11.63 15.9502L8.71001 17.4101C8.28001 17.6201 8.02002 18.0502 8.02002 18.5302V21.2901C8.02002 21.5401 8.15002 21.7702 8.36002 21.9002C8.48002 21.9702 8.61002 22.0101 8.74002 22.0101C8.85002 22.0101 8.96001 21.9801 9.06001 21.9301L11.98 20.4701C12.41 20.2601 12.67 19.8301 12.67 19.3501V16.5902C12.67 16.3402 12.54 16.1101 12.33 15.9801Z" fill="#292D32"/>
<path d="M21.3404 3.82989L18.2004 2.13988C17.8704 1.95988 17.4704 1.95988 17.1404 2.13988L14.0004 3.82989C13.7704 3.94989 13.6304 4.19984 13.6304 4.46984C13.6304 4.73984 13.7704 4.98985 14.0004 5.10985L17.1404 6.79986C17.3104 6.88986 17.4904 6.92986 17.6704 6.92986C17.8504 6.92986 18.0304 6.88986 18.2004 6.79986L21.3404 5.10985C21.5704 4.98985 21.7104 4.73984 21.7104 4.46984C21.7104 4.18984 21.5604 3.94989 21.3404 3.82989Z" fill="#292D32"/>
<path d="M16.6201 7.37987L13.7001 5.91985C13.4801 5.80985 13.2202 5.81988 13.0002 5.94988C12.7902 6.07988 12.6602 6.30987 12.6602 6.55987V9.31987C12.6602 9.79987 12.9201 10.2299 13.3501 10.4399L16.2702 11.8999C16.3702 11.9499 16.4801 11.9798 16.5901 11.9798C16.7201 11.9798 16.8502 11.9399 16.9702 11.8699C17.1802 11.7399 17.3102 11.5099 17.3102 11.2599V8.49987C17.3202 8.01987 17.0501 7.58987 16.6201 7.37987Z" fill="#292D32"/>
<path d="M22.33 5.94988C22.12 5.81988 21.86 5.80985 21.63 5.91985L18.71 7.37987C18.28 7.58987 18.02 8.01987 18.02 8.49987V11.2599C18.02 11.5099 18.15 11.7399 18.36 11.8699C18.48 11.9399 18.61 11.9798 18.74 11.9798C18.85 11.9798 18.96 11.9499 19.06 11.8999L21.98 10.4399C22.41 10.2299 22.67 9.79987 22.67 9.31987V6.55987C22.67 6.30987 22.54 6.07988 22.33 5.94988Z" fill="#292D32"/>
</svg>
