<svg width="25" height="24" viewBox="0 0 25 24" fill="none" xmlns="http://www.w3.org/2000/svg">
<path opacity="0.4" d="M12.6699 22C7.14992 22 2.66992 17.52 2.66992 12C2.66992 6.48 7.14992 2 12.6699 2C18.1899 2 22.6699 6.48 22.6699 12C22.6699 17.52 18.1899 22 12.6699 22Z" fill="#292D32"/>
<path d="M12.9102 16.75C10.2902 16.75 8.16016 14.62 8.16016 12C8.16016 9.38 10.2902 7.25 12.9102 7.25C14.0602 7.25 15.1802 7.67 16.0402 8.44C16.3502 8.71 16.3802 9.19 16.1102 9.5C15.8302 9.81 15.3602 9.84001 15.0502 9.57001C14.4602 9.05001 13.7002 8.76001 12.9102 8.76001C11.1202 8.76001 9.66016 10.22 9.66016 12.01C9.66016 13.8 11.1202 15.26 12.9102 15.26C13.6902 15.26 14.4602 14.97 15.0502 14.45C15.3602 14.18 15.8402 14.21 16.1102 14.52C16.3802 14.83 16.3502 15.31 16.0402 15.58C15.1702 16.33 14.0602 16.75 12.9102 16.75Z" fill="#292D32"/>
</svg>
