<svg width="25" height="24" viewBox="0 0 25 24" fill="none" xmlns="http://www.w3.org/2000/svg">
<path d="M16.6699 12.9V17.1C16.6699 20.6 15.2699 22 11.7699 22H7.56992C4.06992 22 2.66992 20.6 2.66992 17.1V12.9C2.66992 9.4 4.06992 8 7.56992 8H11.7699C15.2699 8 16.6699 9.4 16.6699 12.9Z" fill="#292D32"/>
<path opacity="0.4" d="M17.7697 2H13.5697C10.1197 2 8.71969 3.37 8.67969 6.75H11.7697C15.9697 6.75 17.9197 8.7 17.9197 12.9V15.99C21.2997 15.95 22.6697 14.55 22.6697 11.1V6.9C22.6697 3.4 21.2697 2 17.7697 2Z" fill="#292D32"/>
</svg>
