<svg width="25" height="24" viewBox="0 0 25 24" fill="none" xmlns="http://www.w3.org/2000/svg">
<path opacity="0.4" d="M18.0899 1.3802C17.8799 1.2402 17.6199 1.21018 17.3899 1.30018C15.9599 1.87018 14.3799 1.87018 12.9499 1.30018C12.7199 1.21018 12.4599 1.2402 12.2499 1.3802C12.0399 1.5202 11.9199 1.7502 11.9199 2.0002V5.0002V8.0002C11.9199 8.41019 12.2599 8.7502 12.6699 8.7502C13.0799 8.7502 13.4199 8.41019 13.4199 8.0002V6.02021C13.9999 6.16021 14.5799 6.24019 15.1699 6.24019C16.1099 6.24019 17.0499 6.06021 17.9499 5.70021C18.2299 5.59021 18.4199 5.3102 18.4199 5.0002V2.0002C18.4199 1.7502 18.2999 1.5202 18.0899 1.3802Z" fill="#292D32"/>
<path d="M22.6699 21.25H21.4199V11C21.4199 8.58 20.0899 7.25 17.6699 7.25H7.66992C5.24992 7.25 3.91992 8.58 3.91992 11V21.25H2.66992C2.25992 21.25 1.91992 21.59 1.91992 22C1.91992 22.41 2.25992 22.75 2.66992 22.75H4.66992H20.6699H22.6699C23.0799 22.75 23.4199 22.41 23.4199 22C23.4199 21.59 23.0799 21.25 22.6699 21.25ZM19.9199 12.75V21.25H17.4099V12.75H19.9199ZM11.9099 21.25H9.40992V12.75H11.9099V21.25ZM13.4099 12.75H15.9099V21.25H13.4099V12.75ZM5.41992 12.75H7.90992V21.25H5.41992V12.75Z" fill="#292D32"/>
</svg>
