<svg width="25" height="24" viewBox="0 0 25 24" fill="none" xmlns="http://www.w3.org/2000/svg">
<path opacity="0.4" d="M15.6699 4H9.66992C6.90992 4 4.66992 6.24 4.66992 9V15C4.66992 17.76 6.90992 20 9.66992 20H15.6699C18.4299 20 20.6699 17.76 20.6699 15V9C20.6699 6.24 18.4299 4 15.6699 4ZM17.9299 14.26C17.9299 15.92 16.5899 17.26 14.9299 17.26H10.4099C8.74992 17.26 7.40992 15.92 7.40992 14.26V9.74C7.40992 8.08 8.74992 6.74 10.4099 6.74H14.9199C16.5799 6.74 17.9199 8.08 17.9199 9.74V14.26H17.9299Z" fill="#292D32"/>
<path d="M9.72949 2.75V4H9.66949C9.16949 4 8.68949 4.07 8.22949 4.21V2.75C8.22949 2.34 8.55949 2 8.97949 2C9.38949 2 9.72949 2.34 9.72949 2.75Z" fill="#292D32"/>
<path d="M13.4199 2.75V4H11.9199V2.75C11.9199 2.34 12.2599 2 12.6699 2C13.0799 2 13.4199 2.34 13.4199 2.75Z" fill="#292D32"/>
<path d="M17.1201 2.75V4.21C16.6601 4.07 16.1701 4 15.6701 4H15.6201V2.75C15.6201 2.34 15.9601 2 16.3701 2C16.7801 2 17.1201 2.34 17.1201 2.75Z" fill="#292D32"/>
<path d="M22.67 8.30005C22.67 8.72005 22.34 9.05005 21.92 9.05005H20.67V9.00005C20.67 8.50005 20.6 8.01005 20.46 7.55005H21.92C22.34 7.55005 22.67 7.89005 22.67 8.30005Z" fill="#292D32"/>
<path d="M22.6699 12C22.6699 12.41 22.3399 12.75 21.9199 12.75H20.6699V11.25H21.9199C22.3399 11.25 22.6699 11.58 22.6699 12Z" fill="#292D32"/>
<path d="M22.67 15.7C22.67 16.11 22.34 16.45 21.92 16.45H20.46C20.6 15.99 20.67 15.5 20.67 15V14.95H21.92C22.34 14.95 22.67 15.28 22.67 15.7Z" fill="#292D32"/>
<path d="M17.1201 19.79V21.25C17.1201 21.66 16.7801 22 16.3701 22C15.9601 22 15.6201 21.66 15.6201 21.25V20H15.6701C16.1701 20 16.6601 19.93 17.1201 19.79Z" fill="#292D32"/>
<path d="M13.4297 20V21.25C13.4297 21.66 13.0897 22 12.6797 22C12.2597 22 11.9297 21.66 11.9297 21.25V20H13.4297Z" fill="#292D32"/>
<path d="M9.72949 20V21.25C9.72949 21.66 9.38949 22 8.97949 22C8.55949 22 8.22949 21.66 8.22949 21.25V19.79C8.68949 19.93 9.16949 20 9.66949 20H9.72949Z" fill="#292D32"/>
<path d="M4.87992 7.55005C4.73992 8.01005 4.66992 8.50005 4.66992 9.00005V9.05005H3.41992C3.00992 9.05005 2.66992 8.72005 2.66992 8.30005C2.66992 7.89005 3.00992 7.55005 3.41992 7.55005H4.87992Z" fill="#292D32"/>
<path d="M4.66992 11.25V12.75H3.41992C3.00992 12.75 2.66992 12.41 2.66992 12C2.66992 11.58 3.00992 11.25 3.41992 11.25H4.66992Z" fill="#292D32"/>
<path d="M4.87992 16.45H3.41992C3.00992 16.45 2.66992 16.11 2.66992 15.7C2.66992 15.28 3.00992 14.95 3.41992 14.95H4.66992V15C4.66992 15.5 4.73992 15.99 4.87992 16.45Z" fill="#292D32"/>
<path d="M17.9302 9.73999V14.25C17.9302 15.91 16.5902 17.25 14.9302 17.25H10.4102C8.75016 17.25 7.41016 15.91 7.41016 14.25V9.73999C7.41016 8.07999 8.75016 6.73999 10.4102 6.73999H14.9202C16.5802 6.73999 17.9302 8.08999 17.9302 9.73999Z" fill="#292D32"/>
</svg>
