<svg width="25" height="24" viewBox="0 0 25 24" fill="none" xmlns="http://www.w3.org/2000/svg">
<path opacity="0.4" d="M17.4402 18.98H7.90016C7.48016 18.98 7.10016 18.71 6.96016 18.32L2.80016 6.66998C2.47016 5.73998 3.53016 4.94998 4.32016 5.51998L8.32016 8.37998C8.85016 8.75998 9.61016 8.52998 9.84016 7.91998L11.7302 2.87998C12.0502 2.00998 13.2802 2.00998 13.6002 2.87998L15.4902 7.91998C15.7202 8.53998 16.4702 8.75998 17.0102 8.37998L21.0102 5.51998C21.8102 4.94998 22.8602 5.74998 22.5302 6.66998L18.3702 18.32C18.2402 18.71 17.8602 18.98 17.4402 18.98Z" fill="#292D32"/>
<path d="M17.6699 22H7.66992C7.25992 22 6.91992 21.66 6.91992 21.25C6.91992 20.84 7.25992 20.5 7.66992 20.5H17.6699C18.0799 20.5 18.4199 20.84 18.4199 21.25C18.4199 21.66 18.0799 22 17.6699 22Z" fill="#292D32"/>
<path d="M15.1699 14.75H10.1699C9.75992 14.75 9.41992 14.41 9.41992 14C9.41992 13.59 9.75992 13.25 10.1699 13.25H15.1699C15.5799 13.25 15.9199 13.59 15.9199 14C15.9199 14.41 15.5799 14.75 15.1699 14.75Z" fill="#292D32"/>
</svg>
