<svg width="25" height="24" viewBox="0 0 25 24" fill="none" xmlns="http://www.w3.org/2000/svg">
<path d="M24.6699 0H0.669922V24H24.6699V0Z" fill="white"/>
<path opacity="0.4" d="M12.6699 22C18.1928 22 22.6699 17.5228 22.6699 12C22.6699 6.47715 18.1928 2 12.6699 2C7.14707 2 2.66992 6.47715 2.66992 12C2.66992 17.5228 7.14707 22 12.6699 22Z" fill="#292D32"/>
<path d="M12.6699 17.75H8.66992C8.25992 17.75 7.91992 17.41 7.91992 17V7C7.91992 6.59 8.25992 6.25 8.66992 6.25H12.6699C15.8399 6.25 18.4199 8.83 18.4199 12C18.4199 15.17 15.8399 17.75 12.6699 17.75ZM9.41992 16.25H12.6699C15.0099 16.25 16.9199 14.34 16.9199 12C16.9199 9.66 15.0099 7.75 12.6699 7.75H9.41992V16.25Z" fill="#292D32"/>
<path d="M19.1899 10.75H7.1499C6.7399 10.75 6.3999 10.41 6.3999 10C6.3999 9.59 6.7399 9.25 7.1499 9.25H19.1899C19.5999 9.25 19.9399 9.59 19.9399 10C19.9399 10.41 19.5999 10.75 19.1899 10.75Z" fill="#292D32"/>
<path d="M19.1899 14.75H7.1499C6.7399 14.75 6.3999 14.41 6.3999 14C6.3999 13.59 6.7399 13.25 7.1499 13.25H19.1899C19.5999 13.25 19.9399 13.59 19.9399 14C19.9399 14.41 19.5999 14.75 19.1899 14.75Z" fill="#292D32"/>
</svg>
