<svg width="25" height="24" viewBox="0 0 25 24" fill="none" xmlns="http://www.w3.org/2000/svg">
<path opacity="0.4" d="M22.4304 15.92L16.0304 4.4C15.1704 2.85 13.9804 2 12.6704 2C11.3604 2 10.1704 2.85 9.31039 4.4L2.91039 15.92C2.10039 17.39 2.01039 18.8 2.66039 19.91C3.31039 21.02 4.59039 21.63 6.27039 21.63H19.0704C20.7504 21.63 22.0304 21.02 22.6804 19.91C23.3304 18.8 23.2404 17.38 22.4304 15.92Z" fill="#292D32"/>
<path d="M12.6699 14.75C12.2599 14.75 11.9199 14.41 11.9199 14V9C11.9199 8.59 12.2599 8.25 12.6699 8.25C13.0799 8.25 13.4199 8.59 13.4199 9V14C13.4199 14.41 13.0799 14.75 12.6699 14.75Z" fill="#292D32"/>
<path d="M12.6699 18C12.6099 18 12.5399 17.99 12.4699 17.98C12.4099 17.97 12.3499 17.95 12.2899 17.92C12.2299 17.9 12.1699 17.87 12.1099 17.83C12.0599 17.79 12.0099 17.75 11.9599 17.71C11.7799 17.52 11.6699 17.26 11.6699 17C11.6699 16.74 11.7799 16.48 11.9599 16.29C12.0099 16.25 12.0599 16.21 12.1099 16.17C12.1699 16.13 12.2299 16.1 12.2899 16.08C12.3499 16.05 12.4099 16.03 12.4699 16.02C12.5999 15.99 12.7399 15.99 12.8599 16.02C12.9299 16.03 12.9899 16.05 13.0499 16.08C13.1099 16.1 13.1699 16.13 13.2299 16.17C13.2799 16.21 13.3299 16.25 13.3799 16.29C13.5599 16.48 13.6699 16.74 13.6699 17C13.6699 17.26 13.5599 17.52 13.3799 17.71C13.3299 17.75 13.2799 17.79 13.2299 17.83C13.1699 17.87 13.1099 17.9 13.0499 17.92C12.9899 17.95 12.9299 17.97 12.8599 17.98C12.7999 17.99 12.7299 18 12.6699 18Z" fill="#292D32"/>
</svg>
