<svg width="25" height="24" viewBox="0 0 25 24" fill="none" xmlns="http://www.w3.org/2000/svg">
<path d="M20.6699 14.25C21.9126 14.25 22.9199 13.2426 22.9199 12C22.9199 10.7574 21.9126 9.75 20.6699 9.75C19.4273 9.75 18.4199 10.7574 18.4199 12C18.4199 13.2426 19.4273 14.25 20.6699 14.25Z" fill="#292D32"/>
<path d="M20.6699 6.25C21.9126 6.25 22.9199 5.24264 22.9199 4C22.9199 2.75736 21.9126 1.75 20.6699 1.75C19.4273 1.75 18.4199 2.75736 18.4199 4C18.4199 5.24264 19.4273 6.25 20.6699 6.25Z" fill="#292D32"/>
<path d="M20.6699 22.25C21.9126 22.25 22.9199 21.2426 22.9199 20C22.9199 18.7574 21.9126 17.75 20.6699 17.75C19.4273 17.75 18.4199 18.7574 18.4199 20C18.4199 21.2426 19.4273 22.25 20.6699 22.25Z" fill="#292D32"/>
<path d="M4.66992 14.25C5.91256 14.25 6.91992 13.2426 6.91992 12C6.91992 10.7574 5.91256 9.75 4.66992 9.75C3.42728 9.75 2.41992 10.7574 2.41992 12C2.41992 13.2426 3.42728 14.25 4.66992 14.25Z" fill="#292D32"/>
<path opacity="0.4" d="M19.6699 12.75C20.0799 12.75 20.4199 12.41 20.4199 12C20.4199 11.59 20.0799 11.25 19.6699 11.25H12.4199V7C12.4199 5.42 13.0899 4.75 14.6699 4.75H19.6699C20.0799 4.75 20.4199 4.41 20.4199 4C20.4199 3.59 20.0799 3.25 19.6699 3.25H14.6699C12.2499 3.25 10.9199 4.58 10.9199 7V11.25H5.66992C5.25992 11.25 4.91992 11.59 4.91992 12C4.91992 12.41 5.25992 12.75 5.66992 12.75H10.9199V17C10.9199 19.42 12.2499 20.75 14.6699 20.75H19.6699C20.0799 20.75 20.4199 20.41 20.4199 20C20.4199 19.59 20.0799 19.25 19.6699 19.25H14.6699C13.0899 19.25 12.4199 18.58 12.4199 17V12.75H19.6699Z" fill="#292D32"/>
</svg>
