<svg width="25" height="24" viewBox="0 0 25 24" fill="none" xmlns="http://www.w3.org/2000/svg">
<path opacity="0.58" d="M24.6699 0H0.669922V24H24.6699V0Z" fill="white"/>
<path opacity="0.4" d="M12.6699 22C18.1928 22 22.6699 17.5228 22.6699 12C22.6699 6.47715 18.1928 2 12.6699 2C7.14707 2 2.66992 6.47715 2.66992 12C2.66992 17.5228 7.14707 22 12.6699 22Z" fill="#292D32"/>
<path d="M17.5099 13.27L16.0499 12.43C15.7199 12.24 15.7199 11.76 16.0499 11.56L17.5099 10.72C18.1399 10.36 18.3499 9.54998 17.9899 8.91998C17.6299 8.28998 16.8199 8.07998 16.1899 8.43998L14.7299 9.27998C14.3999 9.46998 13.9799 9.22998 13.9799 8.84998V7.16998C13.9799 6.44998 13.3899 5.84998 12.6599 5.84998C11.9299 5.84998 11.3399 6.43998 11.3399 7.16998V8.84998C11.3399 9.22998 10.9199 9.47998 10.5899 9.27998L9.12986 8.43998C8.49986 8.07998 7.68987 8.28998 7.32987 8.91998C6.96987 9.54998 7.17987 10.36 7.80987 10.72L9.26986 11.56C9.59986 11.75 9.59986 12.23 9.26986 12.43L7.80987 13.27C7.17987 13.63 6.96987 14.44 7.32987 15.07C7.68987 15.7 8.49986 15.91 9.12986 15.55L10.5899 14.71C10.9199 14.52 11.3399 14.76 11.3399 15.14V16.82C11.3399 17.54 11.9299 18.14 12.6599 18.14C13.3899 18.14 13.9799 17.55 13.9799 16.82V15.14C13.9799 14.76 14.3999 14.51 14.7299 14.71L16.1899 15.55C16.8199 15.91 17.6299 15.7 17.9899 15.07C18.3599 14.45 18.1399 13.64 17.5099 13.27Z" fill="#292D32"/>
</svg>
