<svg width="25" height="24" viewBox="0 0 25 24" fill="none" xmlns="http://www.w3.org/2000/svg">
<path d="M20.6699 12.2V13.9C20.6699 17.05 18.8699 18.4 16.1699 18.4H7.16992C4.46992 18.4 2.66992 17.05 2.66992 13.9V8.5C2.66992 5.35 4.46992 4 7.16992 4H9.86992C9.73992 4.38 9.66992 4.8 9.66992 5.25V9.15002C9.66992 10.12 9.98992 10.94 10.5599 11.51C11.1299 12.08 11.9499 12.4 12.9199 12.4V13.79C12.9199 14.3 13.4999 14.61 13.9299 14.33L16.8199 12.4H19.4199C19.8699 12.4 20.2899 12.33 20.6699 12.2Z" fill="#292D32"/>
<path opacity="0.4" d="M22.6699 5.25V9.15002C22.6699 10.64 21.9099 11.76 20.6699 12.2C20.2899 12.33 19.8699 12.4 19.4199 12.4H16.8199L13.9299 14.33C13.4999 14.61 12.9199 14.3 12.9199 13.79V12.4C11.9499 12.4 11.1299 12.08 10.5599 11.51C9.98992 10.94 9.66992 10.12 9.66992 9.15002V5.25C9.66992 4.8 9.73992 4.38 9.86992 4C10.3099 2.76 11.4299 2 12.9199 2H19.4199C21.3699 2 22.6699 3.3 22.6699 5.25Z" fill="#292D32"/>
<path opacity="0.4" d="M15.2703 21.2499H12.4203V18.3999C12.4203 17.9899 12.0803 17.6499 11.6703 17.6499C11.2603 17.6499 10.9203 17.9899 10.9203 18.3999V21.2499H8.07031C7.66031 21.2499 7.32031 21.5899 7.32031 21.9999C7.32031 22.4099 7.66031 22.7499 8.07031 22.7499H15.2703C15.6803 22.7499 16.0203 22.4099 16.0203 21.9999C16.0203 21.5899 15.6803 21.2499 15.2703 21.2499Z" fill="#292D32"/>
<path d="M16.1104 8C15.6904 8 15.3604 7.66 15.3604 7.25C15.3604 6.84 15.7004 6.5 16.1104 6.5C16.5204 6.5 16.8604 6.84 16.8604 7.25C16.8604 7.66 16.5204 8 16.1104 8Z" fill="#292D32"/>
<path d="M18.9199 8C18.4999 8 18.1699 7.66 18.1699 7.25C18.1699 6.84 18.5099 6.5 18.9199 6.5C19.3299 6.5 19.6699 6.84 19.6699 7.25C19.6699 7.66 19.3299 8 18.9199 8Z" fill="#292D32"/>
<path d="M13.29 8C12.87 8 12.54 7.66 12.54 7.25C12.54 6.84 12.88 6.5 13.29 6.5C13.7 6.5 14.04 6.84 14.04 7.25C14.04 7.66 13.71 8 13.29 8Z" fill="#292D32"/>
</svg>
