<svg width="25" height="24" viewBox="0 0 25 24" fill="none" xmlns="http://www.w3.org/2000/svg">
<path opacity="0.4" d="M16.6699 2H6.66992C3.46992 2 2.66992 2.8 2.66992 6V11.9C2.69992 14.93 3.53992 15.7 6.66992 15.7H8.91992V19.25H5.61993C5.20993 19.25 4.86993 19.59 4.86993 20C4.86993 20.41 5.20993 20.75 5.61993 20.75H12.9199C12.7699 20.36 12.6999 19.87 12.6899 19.25H10.4199V15.7H12.6899V11.9V10.59C12.6899 8.45003 13.3999 7.73999 15.5399 7.73999H19.8199C20.1299 7.73999 20.4199 7.75998 20.6699 7.78998V6C20.6699 2.8 19.8699 2 16.6699 2Z" fill="#292D32"/>
<path d="M20.67 7.78998C20.42 7.75998 20.1299 7.73999 19.8199 7.73999H15.5399C13.3999 7.73999 12.6899 8.45003 12.6899 10.59V19.25C12.6999 19.87 12.77 20.36 12.92 20.75C13.27 21.66 14.0599 22 15.5399 22H19.8199C21.9599 22 22.67 21.29 22.67 19.15V10.59C22.67 8.76003 22.15 7.97998 20.67 7.78998ZM17.68 10.09C18.55 10.09 19.2499 10.79 19.2499 11.66C19.2499 12.53 18.55 13.23 17.68 13.23C16.81 13.23 16.11 12.53 16.11 11.66C16.11 10.79 16.81 10.09 17.68 10.09ZM17.68 19.15C16.5 19.15 15.5399 18.19 15.5399 17.01C15.5399 16.52 15.71 16.06 15.99 15.7C16.38 15.2 16.99 14.87 17.68 14.87C18.22 14.87 18.71 15.07 19.08 15.39C19.53 15.79 19.8199 16.37 19.8199 17.01C19.8199 18.19 18.86 19.15 17.68 19.15Z" fill="#292D32"/>
<path opacity="0.4" d="M19.82 17.0101C19.82 18.1901 18.8601 19.1501 17.6801 19.1501C16.5001 19.1501 15.54 18.1901 15.54 17.0101C15.54 16.5201 15.7101 16.0601 15.9901 15.7001C16.3801 15.2001 16.9901 14.8701 17.6801 14.8701C18.2201 14.8701 18.71 15.0701 19.08 15.3901C19.53 15.7901 19.82 16.3701 19.82 17.0101Z" fill="#292D32"/>
<path opacity="0.4" d="M17.6799 13.23C18.547 13.23 19.2498 12.5271 19.2498 11.66C19.2498 10.7929 18.547 10.0901 17.6799 10.0901C16.8128 10.0901 16.1099 10.7929 16.1099 11.66C16.1099 12.5271 16.8128 13.23 17.6799 13.23Z" fill="#292D32"/>
</svg>
