<svg width="25" height="24" viewBox="0 0 25 24" fill="none" xmlns="http://www.w3.org/2000/svg">
<path d="M19.6699 8C21.3268 8 22.6699 6.65685 22.6699 5C22.6699 3.34315 21.3268 2 19.6699 2C18.0131 2 16.6699 3.34315 16.6699 5C16.6699 6.65685 18.0131 8 19.6699 8Z" fill="#292D32"/>
<path d="M21.0099 12.72H17.6999C16.7699 12.72 15.9399 13.24 15.5199 14.06L14.7199 15.64C14.5299 16.02 14.1499 16.25 13.7299 16.25H10.6199C10.3299 16.25 9.89992 16.19 9.62992 15.63L8.83992 14.06C8.41992 13.23 7.58992 12.71 6.65992 12.71H3.32992C2.96992 12.72 2.66992 13.02 2.66992 13.38V16.47C2.66992 19.94 4.73992 22 8.19992 22H16.1599C19.4199 22 21.4299 20.21 21.6699 17.04V13.38C21.6699 13.02 21.3699 12.72 21.0099 12.72Z" fill="#292D32"/>
<path opacity="0.4" d="M19.6699 9.5C17.1899 9.5 15.1699 7.48 15.1699 5C15.1699 4.28 15.3599 3.61 15.6599 3H8.18992C4.73992 3 2.66992 5.06 2.66992 8.52V16.47C2.66992 19.94 4.73992 22 8.18992 22H16.1399C19.5999 22 21.6599 19.94 21.6599 16.48V9.01C21.0599 9.31 20.3899 9.5 19.6699 9.5Z" fill="#292D32"/>
</svg>
