<svg width="25" height="24" viewBox="0 0 25 24" fill="none" xmlns="http://www.w3.org/2000/svg">
<path d="M19.3596 11.53C18.7896 11.38 18.1196 11.3 17.3196 11.3C16.2096 11.3 15.7996 11.57 15.2296 12C15.1996 12.02 15.1696 12.05 15.1396 12.08L14.1896 13.09C13.3996 13.94 11.9496 13.94 11.1496 13.09L10.1996 12.09C10.1696 12.05 10.1396 12.02 10.1096 12C9.52961 11.57 9.11961 11.3 8.01961 11.3C7.21961 11.3 6.54961 11.37 5.97961 11.53C3.59961 12.17 3.59961 14.06 3.59961 15.72V16.65C3.59961 19.16 3.59961 22 8.94961 22H16.3896C19.9396 22 21.7396 20.2 21.7396 16.65V15.72C21.7396 14.06 21.7396 12.17 19.3596 11.53Z" fill="#292D32"/>
<path opacity="0.4" d="M15.46 2H9.87996C5.45996 2 5.45996 4.35 5.45996 6.42V12.21C5.45996 12.43 5.55996 12.63 5.72996 12.76C5.89996 12.89 6.12996 12.94 6.33996 12.88C6.78996 12.76 7.34996 12.7 8.01996 12.7C8.68996 12.7 8.82996 12.78 9.22996 13.08L10.14 14.04C10.79 14.74 11.72 15.14 12.68 15.14C13.64 15.14 14.56 14.74 15.22 14.04L16.13 13.08C16.53 12.78 16.67 12.7 17.34 12.7C18.01 12.7 18.57 12.76 19.02 12.88C19.23 12.94 19.45 12.89 19.63 12.76C19.8 12.63 19.9 12.42 19.9 12.21V6.42C19.88 4.35 19.88 2 15.46 2Z" fill="#292D32"/>
<path d="M14.2199 9.91001H11.1199C10.7299 9.91001 10.4199 9.60001 10.4199 9.21001C10.4199 8.82001 10.7299 8.51001 11.1199 8.51001H14.2199C14.6099 8.51001 14.9199 8.82001 14.9199 9.21001C14.9199 9.59001 14.5999 9.91001 14.2199 9.91001Z" fill="#292D32"/>
<path d="M14.9996 7.11997H10.3396C9.94965 7.11997 9.63965 6.80997 9.63965 6.41997C9.63965 6.02997 9.94965 5.71997 10.3396 5.71997H14.9896C15.3796 5.71997 15.6896 6.02997 15.6896 6.41997C15.6896 6.79997 15.3796 7.11997 14.9996 7.11997Z" fill="#292D32"/>
</svg>
