<svg width="25" height="24" viewBox="0 0 25 24" fill="none" xmlns="http://www.w3.org/2000/svg">
<path opacity="0.4" d="M16.8599 2H8.47992C4.83992 2 2.66992 4.17 2.66992 7.81V16.18C2.66992 19.83 4.83992 22 8.47992 22H16.8499C20.4899 22 22.6599 19.83 22.6599 16.19V7.81C22.6699 4.17 20.4999 2 16.8599 2Z" fill="#292D32"/>
<path d="M21.9699 12.23H18.4899C17.5099 12.23 16.6399 12.77 16.1999 13.65L15.3599 15.31C15.1599 15.71 14.7599 15.96 14.3199 15.96H11.0399C10.7299 15.96 10.2899 15.89 9.99992 15.31L9.15992 13.66C8.71992 12.79 7.83992 12.24 6.86992 12.24H3.36992C2.97992 12.24 2.66992 12.55 2.66992 12.94V16.2C2.66992 19.83 4.84992 22 8.48992 22H16.8699C20.2999 22 22.4099 20.12 22.6699 16.78V12.93C22.6699 12.55 22.3599 12.23 21.9699 12.23Z" fill="#292D32"/>
<path d="M14.2199 7.7999H11.1199C10.7299 7.7999 10.4199 7.4899 10.4199 7.0999C10.4199 6.7099 10.7299 6.3999 11.1199 6.3999H14.2199C14.6099 6.3999 14.9199 6.7099 14.9199 7.0999C14.9199 7.4899 14.5999 7.7999 14.2199 7.7999Z" fill="#292D32"/>
<path d="M14.9996 10.5899H10.3396C9.94965 10.5899 9.63965 10.2799 9.63965 9.88994C9.63965 9.49994 9.94965 9.18994 10.3396 9.18994H14.9896C15.3796 9.18994 15.6896 9.49994 15.6896 9.88994C15.6896 10.2799 15.3796 10.5899 14.9996 10.5899Z" fill="#292D32"/>
</svg>
