<svg width="25" height="24" viewBox="0 0 25 24" fill="none" xmlns="http://www.w3.org/2000/svg">
<path d="M15.2001 3.46999L13.2001 1.46999C13.1901 1.45999 13.1801 1.45999 13.1801 1.44999C13.1201 1.38999 13.0401 1.33999 12.9601 1.29999C12.9501 1.29999 12.9501 1.29999 12.9401 1.28999C12.8601 1.25999 12.7801 1.24999 12.7001 1.23999C12.6701 1.23999 12.6501 1.23999 12.6201 1.23999C12.5601 1.23999 12.5001 1.25999 12.4401 1.27999C12.4101 1.28999 12.3901 1.29999 12.3701 1.30999C12.2901 1.34999 12.2101 1.38999 12.1501 1.45999L10.1501 3.45999C9.86012 3.74999 9.86012 4.22999 10.1501 4.51999C10.4401 4.80999 10.9201 4.80999 11.2101 4.51999L11.9301 3.79999V8.99999C11.9301 9.40999 12.2701 9.74999 12.6801 9.74999C13.0901 9.74999 13.4201 9.40999 13.4201 8.99999V3.80999L14.1401 4.52999C14.2901 4.67999 14.4801 4.74999 14.6701 4.74999C14.8601 4.74999 15.0501 4.67999 15.2001 4.52999C15.4901 4.23999 15.4901 3.75999 15.2001 3.46999Z" fill="#292D32"/>
<path opacity="0.4" d="M16.8599 6H8.47992C4.83992 6 2.66992 8.17 2.66992 11.81V16.18C2.66992 19.83 4.83992 22 8.47992 22H16.8499C20.4899 22 22.6599 19.83 22.6599 16.19V11.82C22.6699 8.17 20.4999 6 16.8599 6Z" fill="#292D32"/>
<path d="M21.9699 12.23H18.4899C17.5099 12.23 16.6399 12.77 16.1999 13.65L15.3599 15.31C15.1599 15.71 14.7599 15.96 14.3199 15.96H11.0399C10.7299 15.96 10.2899 15.89 9.99992 15.31L9.15992 13.66C8.71992 12.79 7.83992 12.24 6.86992 12.24H3.36992C2.97992 12.24 2.66992 12.55 2.66992 12.94V16.2C2.66992 19.83 4.84992 22 8.48992 22H16.8699C20.2999 22 22.4099 20.12 22.6699 16.78V12.93C22.6699 12.55 22.3599 12.23 21.9699 12.23Z" fill="#292D32"/>
</svg>
