<svg width="25" height="24" viewBox="0 0 25 24" fill="none" xmlns="http://www.w3.org/2000/svg">
<path opacity="0.4" d="M4.65979 14.6599L3.1398 13.1399C2.5198 12.5199 2.5198 11.4999 3.1398 10.8799L4.65979 9.3599C4.91979 9.0999 5.12979 8.58989 5.12979 8.22989V6.07993C5.12979 5.19993 5.8498 4.47989 6.7298 4.47989H8.8798C9.2398 4.47989 9.7498 4.26992 10.0098 4.00992L11.5298 2.4899C12.1498 1.8699 13.1698 1.8699 13.7898 2.4899L15.3098 4.00992C15.5698 4.26992 16.0798 4.47989 16.4398 4.47989H18.5898C19.4698 4.47989 20.1898 5.19993 20.1898 6.07993V8.22989C20.1898 8.58989 20.3998 9.0999 20.6598 9.3599L22.1798 10.8799C22.7998 11.4999 22.7998 12.5199 22.1798 13.1399L20.6598 14.6599C20.3998 14.9199 20.1898 15.4299 20.1898 15.7899V17.9399C20.1898 18.8199 19.4698 19.5399 18.5898 19.5399H16.4398C16.0798 19.5399 15.5698 19.7499 15.3098 20.0099L13.7898 21.5299C13.1698 22.1499 12.1498 22.1499 11.5298 21.5299L10.0098 20.0099C9.7498 19.7499 9.2398 19.5399 8.8798 19.5399H6.7298C5.8498 19.5399 5.12979 18.8199 5.12979 17.9399V15.7899C5.12979 15.4199 4.91979 14.9099 4.65979 14.6599Z" fill="#292D32"/>
<path d="M15.6702 16C15.1102 16 14.6602 15.55 14.6602 15C14.6602 14.45 15.1102 14 15.6602 14C16.2102 14 16.6602 14.45 16.6602 15C16.6602 15.55 16.2202 16 15.6702 16Z" fill="#292D32"/>
<path d="M9.67993 10C9.11993 10 8.66992 9.55 8.66992 9C8.66992 8.45 9.11992 8 9.66992 8C10.2199 8 10.6699 8.45 10.6699 9C10.6699 9.55 10.2299 10 9.67993 10Z" fill="#292D32"/>
<path d="M9.67035 15.75C9.48035 15.75 9.29035 15.68 9.14035 15.53C8.85035 15.24 8.85035 14.7599 9.14035 14.4699L15.1404 8.46994C15.4304 8.17994 15.9103 8.17994 16.2003 8.46994C16.4903 8.75994 16.4903 9.24 16.2003 9.53L10.2003 15.53C10.0503 15.68 9.86035 15.75 9.67035 15.75Z" fill="#292D32"/>
</svg>
