<svg width="25" height="24" viewBox="0 0 25 24" fill="none" xmlns="http://www.w3.org/2000/svg">
<path opacity="0.4" d="M12.6699 22C18.1928 22 22.6699 17.5228 22.6699 12C22.6699 6.47715 18.1928 2 12.6699 2C7.14707 2 2.66992 6.47715 2.66992 12C2.66992 17.5228 7.14707 22 12.6699 22Z" fill="#292D32"/>
<path d="M15.6702 16C15.1102 16 14.6602 15.55 14.6602 15C14.6602 14.45 15.1102 14 15.6602 14C16.2102 14 16.6602 14.45 16.6602 15C16.6602 15.55 16.2202 16 15.6702 16Z" fill="#292D32"/>
<path d="M9.67993 10C9.11993 10 8.66992 9.55 8.66992 9C8.66992 8.45 9.11992 8 9.66992 8C10.2199 8 10.6699 8.45 10.6699 9C10.6699 9.55 10.2299 10 9.67993 10Z" fill="#292D32"/>
<path d="M9.6694 15.75C9.4794 15.75 9.28938 15.68 9.13938 15.53C8.84938 15.24 8.84938 14.7599 9.13938 14.4699L15.1394 8.46994C15.4294 8.17994 15.9094 8.17994 16.1994 8.46994C16.4894 8.75994 16.4894 9.24 16.1994 9.53L10.1994 15.53C10.0494 15.68 9.8594 15.75 9.6694 15.75Z" fill="#292D32"/>
</svg>
