<svg width="25" height="24" viewBox="0 0 25 24" fill="none" xmlns="http://www.w3.org/2000/svg">
<path opacity="0.4" d="M3.01994 13.9598C3.40994 14.5198 4.09994 14.8398 4.88994 14.8398H8.98994C9.25994 14.8398 9.50994 14.9498 9.67994 15.1498C9.85994 15.3498 9.92994 15.6298 9.88994 15.9198L9.37994 19.1998C9.15994 20.1798 9.80994 21.2798 10.7899 21.6098C11.6999 21.9498 12.7699 21.4898 13.1999 20.8398L17.4099 14.5698L17.5299 14.3698V5.52979L17.3799 5.37979L14.2099 2.92979C13.7899 2.50979 12.8399 2.27979 12.1699 2.27979H8.26994C6.92994 2.27979 5.57994 3.28979 5.27994 4.51979L2.81994 12.0098C2.56994 12.7198 2.63994 13.4198 3.01994 13.9598Z" fill="#292D32"/>
<path d="M19.4603 17.6099H20.4903C22.0403 17.6099 22.6703 17.0099 22.6703 15.5299V5.4799C22.6703 3.9999 22.0403 3.3999 20.4903 3.3999H19.4603C17.9103 3.3999 17.2803 3.9999 17.2803 5.4799V15.5399C17.2803 17.0099 17.9103 17.6099 19.4603 17.6099Z" fill="#292D32"/>
</svg>
