<svg width="25" height="24" viewBox="0 0 25 24" fill="none" xmlns="http://www.w3.org/2000/svg">
<path opacity="0.4" d="M21.1699 10.19H18.2799C15.9099 10.19 13.9799 8.26 13.9799 5.89V3C13.9799 2.45 13.5299 2 12.9799 2H8.73992C5.65992 2 3.16992 4 3.16992 7.57V16.43C3.16992 20 5.65992 22 8.73992 22H16.5999C19.6799 22 22.1699 20 22.1699 16.43V11.19C22.1699 10.64 21.7199 10.19 21.1699 10.19Z" fill="#292D32"/>
<path d="M16.4701 2.20999C16.0601 1.79999 15.3501 2.07999 15.3501 2.64999V6.13999C15.3501 7.59999 16.5901 8.80999 18.1001 8.80999C19.0501 8.81999 20.3701 8.81999 21.5001 8.81999C22.0701 8.81999 22.3701 8.14999 21.9701 7.74999C20.5301 6.29999 17.9501 3.68999 16.4701 2.20999Z" fill="#292D32"/>
<path d="M11.8301 12.7299C11.2401 12.5399 10.6101 12.6499 10.1701 12.9999C9.71012 12.6499 9.10012 12.5399 8.52012 12.7299C7.25012 13.1399 6.85012 14.5899 7.20012 15.6999C7.74012 17.3999 9.53012 18.2699 10.1801 18.2699C10.8101 18.2699 12.6301 17.3699 13.1601 15.6999C13.5001 14.5899 13.1001 13.1399 11.8301 12.7299Z" fill="#292D32"/>
</svg>
