<svg width="25" height="24" viewBox="0 0 25 24" fill="none" xmlns="http://www.w3.org/2000/svg">
<path opacity="0.4" d="M16.1699 13.15H13.9999C12.2199 13.15 10.7699 11.71 10.7699 9.92V7.75C10.7699 7.34 10.4399 7 10.0199 7H6.84992C4.53992 7 2.66992 8.5 2.66992 11.18V17.82C2.66992 20.5 4.53992 22 6.84992 22H12.7399C15.0499 22 16.9199 20.5 16.9199 17.82V13.9C16.9199 13.48 16.5799 13.15 16.1699 13.15Z" fill="#292D32"/>
<path d="M18.4899 2H16.5199H15.4299H12.5999C10.3399 2 8.50993 3.44 8.42993 6.01C8.48993 6.01 8.53993 6 8.59993 6H11.4299H12.5199H14.4899C16.7999 6 18.6699 7.5 18.6699 10.18V12.15V14.86V16.83C18.6699 16.89 18.6599 16.94 18.6599 16.99C20.8899 16.92 22.6699 15.44 22.6699 12.83V10.86V8.15V6.18C22.6699 3.5 20.7999 2 18.4899 2Z" fill="#292D32"/>
<path d="M12.6498 7.14999C12.3398 6.83999 11.8098 7.04999 11.8098 7.47999V10.1C11.8098 11.2 12.7398 12.1 13.8798 12.1C14.5898 12.11 15.5798 12.11 16.4298 12.11C16.8598 12.11 17.0798 11.61 16.7798 11.31C15.6898 10.22 13.7498 8.26999 12.6498 7.14999Z" fill="#292D32"/>
</svg>
