<svg width="25" height="24" viewBox="0 0 25 24" fill="none" xmlns="http://www.w3.org/2000/svg">
<path opacity="0.4" d="M21.6699 7V17C21.6699 20 20.1699 22 16.6699 22H9.66992C10.8799 21.09 11.6699 19.63 11.6699 18C11.6699 15.24 9.42992 13 6.66992 13C5.53992 13 4.49992 13.37 3.66992 14V7C3.66992 4 5.16992 2 8.66992 2H16.6699C20.1699 2 21.6699 4 21.6699 7Z" fill="#292D32"/>
<path fill-rule="evenodd" clip-rule="evenodd" d="M15.1699 3.75C15.5841 3.75 15.9199 4.08579 15.9199 4.5V6.5C15.9199 7.18579 16.4841 7.75 17.1699 7.75H19.1699C19.5841 7.75 19.9199 8.08579 19.9199 8.5C19.9199 8.91421 19.5841 9.25 19.1699 9.25H17.1699C15.6557 9.25 14.4199 8.01421 14.4199 6.5V4.5C14.4199 4.08579 14.7557 3.75 15.1699 3.75Z" fill="#292D32"/>
<path d="M6.66992 13C3.90992 13 1.66992 15.24 1.66992 18C1.66992 20.76 3.90992 23 6.66992 23C9.42992 23 11.6699 20.76 11.6699 18C11.6699 15.24 9.42992 13 6.66992 13ZM5.82993 19.27C6.07993 19.52 6.07993 19.93 5.82993 20.19C5.69993 20.32 5.53993 20.38 5.36993 20.38C5.19993 20.38 5.03991 20.32 4.90991 20.19L3.17993 18.46C2.92993 18.21 2.92993 17.8 3.17993 17.54L4.90991 15.81C5.15991 15.56 5.56993 15.56 5.82993 15.81C6.07993 16.06 6.07993 16.47 5.82993 16.73L4.55994 18L5.82993 19.27ZM10.1499 18.46L8.41992 20.19C8.28992 20.32 8.12993 20.38 7.95993 20.38C7.78993 20.38 7.62991 20.32 7.49991 20.19C7.24991 19.94 7.24991 19.53 7.49991 19.27L8.76993 18L7.49991 16.73C7.24991 16.48 7.24991 16.07 7.49991 15.81C7.74991 15.56 8.15992 15.56 8.41992 15.81L10.1499 17.54C10.3999 17.8 10.3999 18.2 10.1499 18.46Z" fill="#292D32"/>
</svg>
