<svg width="25" height="24" viewBox="0 0 25 24" fill="none" xmlns="http://www.w3.org/2000/svg">
<path opacity="0.4" d="M21.1699 10.19H18.2799C15.9099 10.19 13.9799 8.26 13.9799 5.89V3C13.9799 2.45 13.5299 2 12.9799 2H8.73992C5.65992 2 3.16992 4 3.16992 7.57V16.43C3.16992 20 5.65992 22 8.73992 22H16.5999C19.6799 22 22.1699 20 22.1699 16.43V11.19C22.1699 10.64 21.7199 10.19 21.1699 10.19Z" fill="#292D32"/>
<path d="M16.4701 2.20999C16.0601 1.79999 15.3501 2.07999 15.3501 2.64999V6.13999C15.3501 7.59999 16.5901 8.80999 18.1001 8.80999C19.0501 8.81999 20.3701 8.81999 21.5001 8.81999C22.0701 8.81999 22.3701 8.14999 21.9701 7.74999C20.5301 6.29999 17.9501 3.68999 16.4701 2.20999Z" fill="#292D32"/>
<path d="M12.9499 14.72C12.6599 14.43 12.1799 14.43 11.8899 14.72L11.1699 15.44V11.25C11.1699 10.84 10.8299 10.5 10.4199 10.5C10.0099 10.5 9.66986 10.84 9.66986 11.25V15.44L8.94986 14.72C8.65986 14.43 8.17986 14.43 7.88986 14.72C7.59986 15.01 7.59986 15.49 7.88986 15.78L9.88986 17.78C9.89986 17.79 9.90986 17.79 9.90986 17.8C9.96986 17.86 10.0499 17.91 10.1299 17.95C10.2299 17.98 10.3199 18 10.4199 18C10.5199 18 10.6099 17.98 10.6999 17.94C10.7899 17.9 10.8699 17.85 10.9499 17.78L12.9499 15.78C13.2399 15.49 13.2399 15.01 12.9499 14.72Z" fill="#292D32"/>
</svg>
