<svg width="25" height="24" viewBox="0 0 25 24" fill="none" xmlns="http://www.w3.org/2000/svg">
<path opacity="0.4" d="M21.1699 10.19H18.2799C15.9099 10.19 13.9799 8.26 13.9799 5.89V3C13.9799 2.45 13.5299 2 12.9799 2H8.73992C5.65992 2 3.16992 4 3.16992 7.57V16.43C3.16992 20 5.65992 22 8.73992 22H16.5999C19.6799 22 22.1699 20 22.1699 16.43V11.19C22.1699 10.64 21.7199 10.19 21.1699 10.19Z" fill="#292D32"/>
<path d="M16.4701 2.20999C16.0601 1.79999 15.3501 2.07999 15.3501 2.64999V6.13999C15.3501 7.59999 16.5901 8.80999 18.1001 8.80999C19.0501 8.81999 20.3701 8.81999 21.5001 8.81999C22.0701 8.81999 22.3701 8.14999 21.9701 7.74999C20.5301 6.29999 17.9501 3.68999 16.4701 2.20999Z" fill="#292D32"/>
<path d="M12.1999 12.47L10.1999 10.47C10.1899 10.46 10.1799 10.46 10.1799 10.45C10.1199 10.39 10.0399 10.34 9.95986 10.3C9.94986 10.3 9.94986 10.3 9.93986 10.3C9.85986 10.27 9.77986 10.26 9.69986 10.25C9.66986 10.25 9.64986 10.25 9.61986 10.25C9.55986 10.25 9.48986 10.27 9.42986 10.29C9.39986 10.3 9.37986 10.31 9.35986 10.32C9.27986 10.36 9.19986 10.4 9.13986 10.47L7.13986 12.47C6.84986 12.76 6.84986 13.24 7.13986 13.53C7.42986 13.82 7.90986 13.82 8.19986 13.53L8.91986 12.81V17C8.91986 17.41 9.25986 17.75 9.66986 17.75C10.0799 17.75 10.4199 17.41 10.4199 17V12.81L11.1399 13.53C11.2899 13.68 11.4799 13.75 11.6699 13.75C11.8599 13.75 12.0499 13.68 12.1999 13.53C12.4899 13.24 12.4899 12.76 12.1999 12.47Z" fill="#292D32"/>
</svg>
