<svg width="25" height="24" viewBox="0 0 25 24" fill="none" xmlns="http://www.w3.org/2000/svg">
<path opacity="0.4" d="M21.1699 10.19H18.2799C15.9099 10.19 13.9799 8.26 13.9799 5.89V3C13.9799 2.45 13.5299 2 12.9799 2H8.73992C5.65992 2 3.16992 4 3.16992 7.57V16.43C3.16992 20 5.65992 22 8.73992 22H16.5999C19.6799 22 22.1699 20 22.1699 16.43V11.19C22.1699 10.64 21.7199 10.19 21.1699 10.19Z" fill="#292D32"/>
<path d="M16.4701 2.20999C16.0601 1.79999 15.3501 2.07999 15.3501 2.64999V6.13999C15.3501 7.59999 16.5901 8.80999 18.1001 8.80999C19.0501 8.81999 20.3701 8.81999 21.5001 8.81999C22.0701 8.81999 22.3701 8.14999 21.9701 7.74999C20.5301 6.29999 17.9501 3.68999 16.4701 2.20999Z" fill="#292D32"/>
<path d="M13.6702 14.2499H9.48016L10.2002 13.5299C10.4902 13.2399 10.4902 12.7599 10.2002 12.4699C9.91016 12.1799 9.43016 12.1799 9.14016 12.4699L7.14016 14.4699C7.13016 14.4799 7.13016 14.4899 7.12016 14.4899C7.06016 14.5499 7.01016 14.6299 6.97016 14.7099C6.97016 14.7199 6.97016 14.7199 6.96016 14.7299C6.93016 14.8099 6.92016 14.8899 6.91016 14.9699C6.91016 14.9999 6.91016 15.0199 6.91016 15.0499C6.91016 15.1099 6.93016 15.1699 6.95016 15.2299C6.96016 15.2599 6.97016 15.2799 6.98016 15.2999C7.02016 15.3799 7.06016 15.4599 7.13016 15.5199L9.13016 17.5199C9.28016 17.6699 9.47016 17.7399 9.66016 17.7399C9.85016 17.7399 10.0402 17.6699 10.1902 17.5199C10.4802 17.2299 10.4802 16.7499 10.1902 16.4599L9.47016 15.7399H13.6702C14.0802 15.7399 14.4202 15.3999 14.4202 14.9899C14.4202 14.5799 14.0802 14.2499 13.6702 14.2499Z" fill="#292D32"/>
</svg>
