<svg width="25" height="24" viewBox="0 0 25 24" fill="none" xmlns="http://www.w3.org/2000/svg">
<path opacity="0.4" d="M12.6699 21.9C18.1928 21.9 22.6699 17.4229 22.6699 11.9C22.6699 6.37718 18.1928 1.90002 12.6699 1.90002C7.14707 1.90002 2.66992 6.37718 2.66992 11.9C2.66992 17.4229 7.14707 21.9 12.6699 21.9Z" fill="#292D32"/>
<path d="M14.9301 12L13.4201 11.47V8.08H13.7801C14.5901 8.08 15.2501 8.79 15.2501 9.66C15.2501 10.07 15.5901 10.41 16.0001 10.41C16.4101 10.41 16.7501 10.07 16.7501 9.66C16.7501 7.96 15.4201 6.58 13.7801 6.58H13.4201V6C13.4201 5.59 13.0801 5.25 12.6701 5.25C12.2601 5.25 11.9201 5.59 11.9201 6V6.58H11.2701C9.79008 6.58 8.58008 7.83 8.58008 9.36C8.58008 11.15 9.62008 11.72 10.4101 12L11.9201 12.53V15.91H11.5601C10.7501 15.91 10.0901 15.2 10.0901 14.33C10.0901 13.92 9.75008 13.58 9.34008 13.58C8.93008 13.58 8.59008 13.92 8.59008 14.33C8.59008 16.03 9.92008 17.41 11.5601 17.41H11.9201V18C11.9201 18.41 12.2601 18.75 12.6701 18.75C13.0801 18.75 13.4201 18.41 13.4201 18V17.42H14.0701C15.5501 17.42 16.7601 16.17 16.7601 14.64C16.7501 12.84 15.7101 12.27 14.9301 12ZM10.9101 10.59C10.4001 10.41 10.0901 10.24 10.0901 9.37C10.0901 8.66 10.6201 8.09 11.2801 8.09H11.9301V10.95L10.9101 10.59ZM14.0701 15.92H13.4201V13.06L14.4301 13.41C14.9401 13.59 15.2501 13.76 15.2501 14.63C15.2501 15.34 14.7201 15.92 14.0701 15.92Z" fill="#292D32"/>
</svg>
