<svg width="25" height="24" viewBox="0 0 25 24" fill="none" xmlns="http://www.w3.org/2000/svg">
<path d="M12.6699 18.75C12.2599 18.75 11.9199 18.41 11.9199 18V17C11.9199 16.59 12.2599 16.25 12.6699 16.25C13.0799 16.25 13.4199 16.59 13.4199 17V18C13.4199 18.41 13.0799 18.75 12.6699 18.75Z" fill="#292D32"/>
<path d="M12.6699 22.75C12.2599 22.75 11.9199 22.41 11.9199 22V21C11.9199 20.59 12.2599 20.25 12.6699 20.25C13.0799 20.25 13.4199 20.59 13.4199 21V22C13.4199 22.41 13.0799 22.75 12.6699 22.75Z" fill="#292D32"/>
<path d="M2.67001 22.7501C2.61001 22.7501 2.55002 22.7401 2.49002 22.7301C2.09002 22.6301 1.84002 22.2201 1.94002 21.8201L2.94002 17.8201C3.04002 17.4201 3.44001 17.1701 3.85001 17.2701C4.25001 17.3701 4.50001 17.7801 4.40001 18.1801L3.40001 22.1801C3.31001 22.5201 3.01001 22.7501 2.67001 22.7501Z" fill="#292D32"/>
<path d="M22.6696 22.7499C22.3296 22.7499 22.0296 22.5199 21.9396 22.1799L20.9396 18.1799C20.8396 17.7799 21.0796 17.3699 21.4896 17.2699C21.8896 17.1699 22.2996 17.4099 22.3996 17.8199L23.3996 21.8199C23.4996 22.2199 23.2596 22.6299 22.8496 22.7299C22.7896 22.7399 22.7296 22.7499 22.6696 22.7499Z" fill="#292D32"/>
<path opacity="0.4" d="M19.9302 9.52008C19.8202 8.34008 19.5102 7.09009 17.2202 7.09009H8.12016C5.83016 7.09009 5.52017 8.35008 5.41017 9.52008L5.01016 13.86C4.96016 14.4 5.14016 14.94 5.51016 15.35C5.89016 15.76 6.43017 16.0001 6.99017 16.0001H8.33016C9.48016 16.0001 9.70015 15.3401 9.85015 14.9001L9.99017 14.47C10.1502 13.98 10.1902 13.86 10.8402 13.86H14.4902C15.1302 13.86 15.1502 13.93 15.3402 14.47L15.4802 14.9001C15.6302 15.3401 15.8502 16.0001 17.0002 16.0001H18.3402C18.9002 16.0001 19.4402 15.76 19.8202 15.35C20.1902 14.95 20.3702 14.4 20.3202 13.86L19.9302 9.52008Z" fill="#292D32"/>
<path d="M19.0897 4.94H18.3797C18.3697 4.94 18.3697 4.94 18.3697 4.94L18.0997 3.65002C17.8397 2.40002 17.3097 1.25 15.1797 1.25H13.2097H12.1397H10.1697C8.03972 1.25 7.50973 2.40002 7.24973 3.65002L6.97972 4.94C6.96972 4.94 6.96973 4.94 6.96973 4.94H6.25972C5.95972 4.94 5.71973 5.17998 5.71973 5.47998C5.71973 5.77998 5.95972 6.02002 6.25972 6.02002H6.76973L6.46973 7.45001C6.85973 7.23001 7.38973 7.09003 8.12973 7.09003H17.2297C17.9697 7.09003 18.5097 7.23001 18.8897 7.45001L18.5897 6.02002H19.0997C19.3997 6.02002 19.6397 5.77998 19.6397 5.47998C19.6297 5.17998 19.3897 4.94 19.0897 4.94Z" fill="#292D32"/>
<path d="M10.5306 11.0099H8.39059C8.09059 11.0099 7.85059 10.7699 7.85059 10.4699C7.85059 10.1699 8.09059 9.92993 8.39059 9.92993H10.5306C10.8306 9.92993 11.0706 10.1699 11.0706 10.4699C11.0606 10.7699 10.8206 11.0099 10.5306 11.0099Z" fill="#292D32"/>
<path d="M16.9505 11.0099H14.8105C14.5105 11.0099 14.2705 10.7699 14.2705 10.4699C14.2705 10.1699 14.5105 9.92993 14.8105 9.92993H16.9505C17.2505 9.92993 17.4905 10.1699 17.4905 10.4699C17.4905 10.7699 17.2505 11.0099 16.9505 11.0099Z" fill="#292D32"/>
</svg>
