<svg width="25" height="24" viewBox="0 0 25 24" fill="none" xmlns="http://www.w3.org/2000/svg">
<path opacity="0.4" d="M16.1499 3H8.18992C4.73992 3 2.66992 5.06 2.66992 8.52V16.47C2.66992 19.94 4.73992 22 8.18992 22H16.1399C19.5999 22 21.6599 19.94 21.6599 16.48V8.52C21.6699 5.06 19.5999 3 16.1499 3Z" fill="#292D32"/>
<path d="M21.6899 2.98003C19.8999 1.18003 18.1499 1.14003 16.3099 2.98003L15.1799 4.10003C15.0799 4.20003 15.0499 4.34003 15.0899 4.47003C15.7899 6.92003 17.7499 8.88003 20.1999 9.58003C20.2299 9.59003 20.2799 9.59003 20.3099 9.59003C20.4099 9.59003 20.5099 9.55003 20.5799 9.48003L21.6899 8.36003C22.5999 7.45003 23.0499 6.58003 23.0499 5.69003C23.0499 4.79003 22.5999 3.90003 21.6899 2.98003Z" fill="#292D32"/>
<path d="M18.53 10.42C18.26 10.29 18 10.16 17.76 10.01C17.56 9.88997 17.36 9.75997 17.17 9.61997C17.01 9.51997 16.83 9.36997 16.65 9.21997C16.63 9.20997 16.57 9.15997 16.49 9.07997C16.18 8.82997 15.85 8.48997 15.54 8.11997C15.52 8.09997 15.46 8.03997 15.41 7.94997C15.31 7.83997 15.16 7.64997 15.03 7.43997C14.92 7.29997 14.79 7.09997 14.67 6.88997C14.52 6.63997 14.39 6.38997 14.27 6.12997C14.14 5.84997 14.04 5.58997 13.95 5.33997L8.57002 10.72C8.22002 11.07 7.88002 11.73 7.81002 12.22L7.38002 15.2C7.29002 15.83 7.46002 16.42 7.85002 16.81C8.18002 17.14 8.63002 17.31 9.13002 17.31C9.24002 17.31 9.35002 17.3 9.46002 17.29L12.43 16.87C12.92 16.8 13.58 16.47 13.93 16.11L19.31 10.73C19.06 10.65 18.81 10.54 18.53 10.42Z" fill="#292D32"/>
</svg>
