<svg width="25" height="24" viewBox="0 0 25 24" fill="none" xmlns="http://www.w3.org/2000/svg">
<path d="M11.6699 19.9V4.1C11.6699 2.6 11.0299 2 9.43992 2H5.39992C3.80992 2 3.16992 2.6 3.16992 4.1V19.9C3.16992 21.4 3.80992 22 5.39992 22H9.43992C11.0299 22 11.6699 21.4 11.6699 19.9Z" fill="#292D32"/>
<path opacity="0.4" d="M22.1699 19.64V15.36C22.1699 14.06 21.1699 13 19.9399 13H15.8999C14.6699 13 13.6699 14.06 13.6699 15.36V19.64C13.6699 20.94 14.6699 22 15.8999 22H19.9399C21.1699 22 22.1699 20.94 22.1699 19.64Z" fill="#292D32"/>
<path opacity="0.4" d="M22.1699 8.64V4.36C22.1699 3.06 21.1699 2 19.9399 2H15.8999C14.6699 2 13.6699 3.06 13.6699 4.36V8.64C13.6699 9.94 14.6699 11 15.8999 11H19.9399C21.1699 11 22.1699 9.94 22.1699 8.64Z" fill="#292D32"/>
</svg>
