<svg width="25" height="24" viewBox="0 0 25 24" fill="none" xmlns="http://www.w3.org/2000/svg">
<path opacity="0.58" d="M24.6699 0H0.669922V24H24.6699V0Z" fill="white"/>
<path opacity="0.4" d="M12.6699 22C18.1928 22 22.6699 17.5228 22.6699 12C22.6699 6.47715 18.1928 2 12.6699 2C7.14707 2 2.66992 6.47715 2.66992 12C2.66992 17.5228 7.14707 22 12.6699 22Z" fill="#292D32"/>
<path d="M17.1699 7.25H8.16992C7.75992 7.25 7.41992 7.59 7.41992 8C7.41992 8.41 7.75992 8.75 8.16992 8.75H12.4199V11.25H8.16992C7.75992 11.25 7.41992 11.59 7.41992 12C7.41992 12.41 7.75992 12.75 8.16992 12.75H13.1699C13.5799 12.75 13.9199 12.41 13.9199 12V8.75H16.4199V15.25H8.16992C7.75992 15.25 7.41992 15.59 7.41992 16C7.41992 16.41 7.75992 16.75 8.16992 16.75H17.1699C17.5799 16.75 17.9199 16.41 17.9199 16V8C17.9199 7.59 17.5799 7.25 17.1699 7.25Z" fill="#292D32"/>
</svg>
