<svg width="25" height="24" viewBox="0 0 25 24" fill="none" xmlns="http://www.w3.org/2000/svg">
<path opacity="0.4" d="M16.8599 2H8.47992C4.83992 2 2.66992 4.17 2.66992 7.81V16.18C2.66992 19.83 4.83992 22 8.47992 22H16.8499C20.4899 22 22.6599 19.83 22.6599 16.19V7.81C22.6699 4.17 20.4999 2 16.8599 2Z" fill="#292D32"/>
<path d="M11.3104 9.5C11.1204 9.5 10.9304 9.43 10.7804 9.28C10.0704 8.57 8.91035 8.57 8.20035 9.28C7.91035 9.57 7.43035 9.57 7.14035 9.28C6.85035 8.99 6.85035 8.51 7.14035 8.22C8.43035 6.93 10.5404 6.93 11.8404 8.22C12.1304 8.51 12.1304 8.99 11.8404 9.28C11.6904 9.43 11.5004 9.5 11.3104 9.5Z" fill="#292D32"/>
<path d="M14.0297 9.5C13.8397 9.5 13.6497 9.43 13.4997 9.28C13.2097 8.99 13.2097 8.51 13.4997 8.22C14.7897 6.93 16.8997 6.93 18.1997 8.22C18.4897 8.51 18.4897 8.99 18.1997 9.28C17.9097 9.57 17.4297 9.57 17.1397 9.28C16.4297 8.57 15.2697 8.57 14.5597 9.28C14.4197 9.43 14.2297 9.5 14.0297 9.5Z" fill="#292D32"/>
<path d="M12.67 11.92C9.98004 11.92 7.79004 14.11 7.79004 16.8C7.79004 17.5 8.36004 18.08 9.06004 18.08H16.26C16.96 18.08 17.53 17.51 17.53 16.8C17.55 14.11 15.36 11.92 12.67 11.92Z" fill="#292D32"/>
</svg>
