<svg width="25" height="24" viewBox="0 0 25 24" fill="none" xmlns="http://www.w3.org/2000/svg">
<path opacity="0.4" d="M18.7099 13.55C18.2899 13.96 18.0499 14.55 18.1099 15.18C18.1999 16.26 19.1899 17.05 20.2699 17.05H22.1699V18.24C22.1699 20.31 20.4799 22 18.4099 22H6.92992C4.85992 22 3.16992 20.31 3.16992 18.24V11.51C3.16992 9.44001 4.85992 7.75 6.92992 7.75H18.4099C20.4799 7.75 22.1699 9.44001 22.1699 11.51V12.95H20.1499C19.5899 12.95 19.0799 13.17 18.7099 13.55Z" fill="#292D32"/>
<path d="M15.5199 3.95V7.74999H6.92992C4.85992 7.74999 3.16992 9.44 3.16992 11.51V7.84002C3.16992 6.65002 3.89992 5.58997 5.00992 5.16997L12.9499 2.16997C14.1899 1.70997 15.5199 2.62 15.5199 3.95Z" fill="#292D32"/>
<path d="M23.2297 13.9699V16.03C23.2297 16.58 22.7897 17.0299 22.2297 17.0499H20.2697C19.1897 17.0499 18.1997 16.2599 18.1097 15.1799C18.0497 14.5499 18.2897 13.9599 18.7097 13.5499C19.0797 13.1699 19.5897 12.95 20.1497 12.95H22.2297C22.7897 12.97 23.2297 13.4199 23.2297 13.9699Z" fill="#292D32"/>
<path d="M14.6699 12.75H7.66992C7.25992 12.75 6.91992 12.41 6.91992 12C6.91992 11.59 7.25992 11.25 7.66992 11.25H14.6699C15.0799 11.25 15.4199 11.59 15.4199 12C15.4199 12.41 15.0799 12.75 14.6699 12.75Z" fill="#292D32"/>
</svg>
