<svg width="25" height="24" viewBox="0 0 25 24" fill="none" xmlns="http://www.w3.org/2000/svg">
<path d="M5.66992 15C4.72992 15 3.85992 15.33 3.16992 15.88C2.24992 16.61 1.66992 17.74 1.66992 19C1.66992 19.75 1.87992 20.46 2.24992 21.06C2.93992 22.22 4.20992 23 5.66992 23C6.67992 23 7.59993 22.63 8.29993 22C8.60993 21.74 8.87992 21.42 9.08992 21.06C9.45992 20.46 9.66992 19.75 9.66992 19C9.66992 16.79 7.87992 15 5.66992 15ZM7.73993 18.57L5.60992 20.54C5.46992 20.67 5.27991 20.74 5.09991 20.74C4.90991 20.74 4.71992 20.67 4.56992 20.52L3.57993 19.53C3.28993 19.24 3.28993 18.76 3.57993 18.47C3.86993 18.18 4.34992 18.18 4.63992 18.47L5.11992 18.95L6.71992 17.47C7.01993 17.19 7.49992 17.21 7.77992 17.51C8.05992 17.81 8.03993 18.29 7.73993 18.57Z" fill="#292D32"/>
<path opacity="0.4" d="M20.1499 12.95H22.1699V11.51C22.1699 9.44001 20.4799 7.75 18.4099 7.75H6.92992C4.85992 7.75 3.16992 9.44001 3.16992 11.51V15.88C3.85992 15.33 4.72992 15 5.66992 15C7.87992 15 9.66992 16.79 9.66992 19C9.66992 19.75 9.45992 20.46 9.08992 21.06C8.87992 21.42 8.60993 21.74 8.29993 22H18.4099C20.4799 22 22.1699 20.31 22.1699 18.24V17.05H20.2699C19.1899 17.05 18.1999 16.26 18.1099 15.18C18.0499 14.55 18.2899 13.96 18.7099 13.55C19.0799 13.17 19.5899 12.95 20.1499 12.95Z" fill="#292D32"/>
<path d="M15.5199 3.95V7.74999H6.92992C4.85992 7.74999 3.16992 9.44 3.16992 11.51V7.84002C3.16992 6.65002 3.89992 5.58997 5.00992 5.16997L12.9499 2.16997C14.1899 1.70997 15.5199 2.62 15.5199 3.95Z" fill="#292D32"/>
<path d="M23.2297 13.9699V16.03C23.2297 16.58 22.7897 17.0299 22.2297 17.0499H20.2697C19.1897 17.0499 18.1997 16.2599 18.1097 15.1799C18.0497 14.5499 18.2897 13.9599 18.7097 13.5499C19.0797 13.1699 19.5897 12.95 20.1497 12.95H22.2297C22.7897 12.97 23.2297 13.4199 23.2297 13.9699Z" fill="#292D32"/>
<path d="M14.6699 12.75H7.66992C7.25992 12.75 6.91992 12.41 6.91992 12C6.91992 11.59 7.25992 11.25 7.66992 11.25H14.6699C15.0799 11.25 15.4199 11.59 15.4199 12C15.4199 12.41 15.0799 12.75 14.6699 12.75Z" fill="#292D32"/>
</svg>
