<svg width="25" height="24" viewBox="0 0 25 24" fill="none" xmlns="http://www.w3.org/2000/svg">
<path d="M5.67676 15C4.73676 15 3.86676 15.33 3.17676 15.88C2.25676 16.61 1.67676 17.74 1.67676 19C1.67676 21.21 3.46676 23 5.67676 23C6.68676 23 7.60676 22.62 8.31676 22C9.14676 21.27 9.67676 20.2 9.67676 19C9.67676 16.79 7.88676 15 5.67676 15ZM6.67676 19.25C6.67676 19.51 6.53676 19.76 6.31676 19.89L5.06676 20.64C4.94676 20.71 4.81676 20.75 4.67676 20.75C4.42676 20.75 4.17676 20.62 4.03676 20.39C3.82676 20.03 3.93675 19.57 4.29675 19.36L5.18675 18.83V17.75C5.18675 17.34 5.52675 17 5.93675 17C6.34675 17 6.68675 17.34 6.68675 17.75V19.25H6.67676Z" fill="#292D32"/>
<path opacity="0.4" d="M20.1568 12.95H22.1768V11.51C22.1768 9.44001 20.4868 7.75 18.4168 7.75H6.93675C4.86675 7.75 3.17676 9.44001 3.17676 11.51V15.88C3.86676 15.33 4.73676 15 5.67676 15C7.88676 15 9.67676 16.79 9.67676 19C9.67676 19.75 9.46676 20.46 9.09676 21.06C8.88676 21.42 8.61676 21.74 8.30676 22H18.4168C20.4868 22 22.1768 20.31 22.1768 18.24V17.05H20.2768C19.1968 17.05 18.2068 16.26 18.1168 15.18C18.0568 14.55 18.2968 13.96 18.7168 13.55C19.0868 13.17 19.5968 12.95 20.1568 12.95Z" fill="#292D32"/>
<path d="M15.5268 3.95V7.74999H6.93675C4.86675 7.74999 3.17676 9.44 3.17676 11.51V7.84002C3.17676 6.65002 3.90675 5.58997 5.01675 5.16997L12.9568 2.16997C14.1968 1.70997 15.5268 2.62 15.5268 3.95Z" fill="#292D32"/>
<path d="M23.2365 13.9699V16.03C23.2365 16.58 22.7965 17.0299 22.2365 17.0499H20.2765C19.1965 17.0499 18.2065 16.2599 18.1165 15.1799C18.0565 14.5499 18.2965 13.9599 18.7165 13.5499C19.0865 13.1699 19.5965 12.95 20.1565 12.95H22.2365C22.7965 12.97 23.2365 13.4199 23.2365 13.9699Z" fill="#292D32"/>
<path d="M14.6768 12.75H7.67676C7.26676 12.75 6.92676 12.41 6.92676 12C6.92676 11.59 7.26676 11.25 7.67676 11.25H14.6768C15.0868 11.25 15.4268 11.59 15.4268 12C15.4268 12.41 15.0868 12.75 14.6768 12.75Z" fill="#292D32"/>
</svg>
