<svg width="25" height="24" viewBox="0 0 25 24" fill="none" xmlns="http://www.w3.org/2000/svg">
<path opacity="0.4" d="M20.1597 12.95H22.1797V11.51C22.1797 9.44001 20.4897 7.75 18.4197 7.75H6.93968C4.86968 7.75 3.17969 9.44001 3.17969 11.51V15.16C3.96969 14.44 5.02969 14 6.17969 14C8.66969 14 10.6797 16.02 10.6797 18.5C10.6797 19.03 10.5897 19.53 10.4197 20C10.1497 20.79 9.64968 21.47 9.01968 22H18.4197C20.4897 22 22.1797 20.31 22.1797 18.24V17.05H20.2797C19.1997 17.05 18.2097 16.26 18.1197 15.18C18.0597 14.55 18.2997 13.96 18.7197 13.55C19.0897 13.17 19.5997 12.95 20.1597 12.95Z" fill="#292D32"/>
<path d="M6.17969 14C5.02969 14 3.96969 14.44 3.17969 15.16C2.99969 15.32 2.82969 15.49 2.67969 15.68C2.04969 16.45 1.67969 17.43 1.67969 18.5C1.67969 20.99 3.69969 23 6.17969 23C7.25969 23 8.23968 22.62 9.01968 22C9.64968 21.47 10.1497 20.79 10.4197 20C10.5897 19.53 10.6797 19.03 10.6797 18.5C10.6797 16.02 8.66969 14 6.17969 14ZM8.87968 17.63C8.87968 17.94 8.62968 18.18 8.32968 18.18C8.02968 18.18 7.77969 17.94 7.77969 17.63V17.52C7.77969 17.4 7.68969 17.3 7.56969 17.3H5.30969C5.41969 17.51 5.39968 17.77 5.21968 17.95C5.11968 18.05 4.97968 18.11 4.82968 18.11C4.68968 18.11 4.54969 18.05 4.44969 17.95L3.63969 17.14C3.58969 17.09 3.54968 17.03 3.51968 16.96C3.46968 16.83 3.46968 16.68 3.51968 16.54C3.54968 16.48 3.58969 16.41 3.63969 16.36L4.44969 15.56C4.65969 15.34 5.00968 15.34 5.21968 15.56C5.39968 15.73 5.41969 16 5.30969 16.2H7.56969C8.28969 16.2 8.87968 16.79 8.87968 17.52V17.63ZM7.52969 21.6C7.37969 21.6 7.23969 21.55 7.13969 21.44C6.95969 21.27 6.93968 21 7.04968 20.8H4.78969C4.06969 20.8 3.47969 20.21 3.47969 19.48V19.37C3.47969 19.06 3.72969 18.82 4.02969 18.82C4.32969 18.82 4.57968 19.06 4.57968 19.37V19.48C4.57968 19.6 4.66969 19.7 4.78969 19.7H7.04968C6.93968 19.49 6.95969 19.23 7.13969 19.05C7.34969 18.84 7.69968 18.84 7.90968 19.05L8.71968 19.86C8.76968 19.91 8.80969 19.97 8.83969 20.04C8.88969 20.17 8.88969 20.32 8.83969 20.46C8.80969 20.52 8.76968 20.59 8.71968 20.64L7.90968 21.44C7.80968 21.55 7.66969 21.6 7.52969 21.6Z" fill="#292D32"/>
<path d="M15.5297 3.95V7.74999H6.93968C4.86968 7.74999 3.17969 9.44 3.17969 11.51V7.84002C3.17969 6.65002 3.90968 5.58997 5.01968 5.16997L12.9597 2.16997C14.1997 1.70997 15.5297 2.62 15.5297 3.95Z" fill="#292D32"/>
<path d="M23.2395 13.9699V16.03C23.2395 16.58 22.7995 17.0299 22.2395 17.0499H20.2795C19.1995 17.0499 18.2095 16.2599 18.1195 15.1799C18.0595 14.5499 18.2995 13.9599 18.7195 13.5499C19.0895 13.1699 19.5995 12.95 20.1595 12.95H22.2395C22.7995 12.97 23.2395 13.4199 23.2395 13.9699Z" fill="#292D32"/>
<path d="M14.6797 12.75H7.67969C7.26969 12.75 6.92969 12.41 6.92969 12C6.92969 11.59 7.26969 11.25 7.67969 11.25H14.6797C15.0897 11.25 15.4297 11.59 15.4297 12C15.4297 12.41 15.0897 12.75 14.6797 12.75Z" fill="#292D32"/>
</svg>
