<svg width="25" height="24" viewBox="0 0 25 24" fill="none" xmlns="http://www.w3.org/2000/svg">
<path d="M24.6699 0H0.669922V24H24.6699V0Z" fill="white"/>
<path opacity="0.4" d="M18.1701 11.49C18.0601 11.58 17.9501 11.65 17.8201 11.71L16.7301 12.26L13.6601 13.79C13.1101 14.07 12.2201 14.07 11.6801 13.79L8.61007 12.26L7.52007 11.71C7.40007 11.64 7.29007 11.58 7.17007 11.49C6.11008 10.75 5.92007 9.4 6.77007 8.33L10.9401 3.13C11.2001 2.81 11.5101 2.57 11.8301 2.43C12.3701 2.17 12.9701 2.17 13.5001 2.43C13.8201 2.57 14.1401 2.81 14.3901 3.13L18.5601 8.33C19.4201 9.41 19.2301 10.76 18.1701 11.49Z" fill="#292D32"/>
<path d="M18.1699 11.49C18.0599 11.58 17.9499 11.65 17.8199 11.71L16.7299 12.26L12.6699 9.21L8.60992 12.27L7.51992 11.72C7.39992 11.65 7.28992 11.59 7.16992 11.5C7.20992 11.31 7.30992 11.14 7.47992 11.02L11.8299 7.75V2.44C12.3699 2.18 12.9699 2.18 13.4999 2.44V7.75L17.8499 11.02C18.0199 11.14 18.1199 11.3 18.1699 11.49Z" fill="#292D32"/>
<path d="M9.44003 14.43L11.05 15.15C12.08 15.61 13.26 15.61 14.3 15.15L15.91 14.43C17.35 13.79 18.68 15.53 17.68 16.75L14.22 20.98C13.37 22.02 11.98 22.02 11.12 20.98L7.67003 16.75C6.66003 15.53 7.99003 13.79 9.44003 14.43Z" fill="#292D32"/>
</svg>
