<svg width="25" height="24" viewBox="0 0 25 24" fill="none" xmlns="http://www.w3.org/2000/svg">
<path opacity="0.4" d="M22.6699 10.76C22.6699 10.29 22.2899 9.90002 21.8099 9.90002H3.52992C3.04992 9.90002 2.66992 10.28 2.66992 10.76C2.66992 16.65 6.77992 20.76 12.6699 20.76C18.5599 20.76 22.6699 16.64 22.6699 10.76Z" fill="#292D32"/>
<path d="M13.1998 3.46004L16.0498 6.30004C16.3398 6.59004 16.3398 7.07004 16.0498 7.36004C15.7598 7.65004 15.2798 7.65004 14.9898 7.36004L13.4198 5.80004V15.37C13.4198 15.78 13.0798 16.12 12.6698 16.12C12.2598 16.12 11.9198 15.78 11.9198 15.37V5.80004L10.3598 7.37004C10.0698 7.66004 9.58982 7.66004 9.29982 7.37004C9.14982 7.22004 9.06982 7.03004 9.06982 6.84004C9.06982 6.65004 9.13982 6.46004 9.28982 6.31004L12.1398 3.47004C12.4298 3.17004 12.9098 3.17004 13.1998 3.46004Z" fill="#292D32"/>
</svg>
