<svg width="25" height="24" viewBox="0 0 25 24" fill="none" xmlns="http://www.w3.org/2000/svg">
<path opacity="0.4" d="M21.92 9.15004C21.43 8.37004 20.87 7.67004 20.29 7.04004L16.52 10.81C16.64 11.18 16.71 11.58 16.71 12C16.71 14.24 14.9 16.04 12.67 16.04C12.25 16.04 11.85 15.97 11.48 15.85L8.02002 19.31C9.48002 20.13 11.06 20.56 12.67 20.56C14.45 20.56 16.18 20.04 17.76 19.07C19.34 18.09 20.76 16.66 21.92 14.84C22.92 13.28 22.92 10.72 21.92 9.15004Z" fill="#292D32"/>
<path d="M14.6901 9.98014L10.6501 14.0201C10.1401 13.5001 9.81006 12.7801 9.81006 12.0001C9.81006 10.4301 11.0901 9.14014 12.6701 9.14014C13.4501 9.14014 14.1701 9.47014 14.6901 9.98014Z" fill="#292D32"/>
<path opacity="0.4" d="M18.9199 5.75018L15.5299 9.14018C14.7999 8.40018 13.7899 7.96018 12.6699 7.96018C10.4299 7.96018 8.62992 9.77018 8.62992 12.0002C8.62992 13.1202 9.07992 14.1302 9.80992 14.8602L6.42992 18.2502H6.41992C5.30992 17.3502 4.28992 16.2002 3.41992 14.8402C2.41992 13.2702 2.41992 10.7202 3.41992 9.15018C4.57992 7.33017 5.99992 5.90018 7.57992 4.92018C9.15992 3.96018 10.8899 3.43018 12.6699 3.43018C14.8999 3.43018 17.0599 4.25018 18.9199 5.75018Z" fill="#292D32"/>
<path d="M15.53 12.0001C15.53 13.5701 14.25 14.8601 12.67 14.8601C12.61 14.8601 12.56 14.8601 12.5 14.8401L15.51 11.8301C15.53 11.8901 15.53 11.9401 15.53 12.0001Z" fill="#292D32"/>
<path d="M22.4398 2.22988C22.1398 1.92988 21.6498 1.92988 21.3498 2.22988L2.8998 20.6899C2.5998 20.9899 2.5998 21.4799 2.8998 21.7799C3.0498 21.9199 3.2398 21.9999 3.4398 21.9999C3.6398 21.9999 3.8298 21.9199 3.9798 21.7699L22.4398 3.30988C22.7498 3.00988 22.7498 2.52988 22.4398 2.22988Z" fill="#292D32"/>
</svg>
