<svg width="25" height="24" viewBox="0 0 25 24" fill="none" xmlns="http://www.w3.org/2000/svg">
<path opacity="0.4" d="M22.6699 7.81V15.16C22.3799 15.02 22.0599 14.92 21.6999 14.86L21.3899 14.81L21.1299 14.27C20.5799 13.15 19.6799 12.5 18.6699 12.5C17.6599 12.5 16.7599 13.15 16.2099 14.27L15.9399 14.81L15.6399 14.86C14.4499 15.06 13.5899 15.72 13.2799 16.66C12.9799 17.61 13.2899 18.65 14.1399 19.51L14.4499 19.82L14.4199 19.94C14.2199 20.83 14.2999 21.51 14.4899 22H8.47992C4.83992 22 2.66992 19.83 2.66992 16.19V7.81C2.66992 4.17 4.83992 2 8.47992 2H16.8599C20.4999 2 22.6699 4.17 22.6699 7.81Z" fill="#292D32"/>
<path d="M19.7898 14.9399L20.1098 15.5899C20.2698 15.9099 20.6798 16.2099 21.0198 16.2699L21.4498 16.3399C22.7598 16.5599 23.0598 17.5199 22.1298 18.4599L21.7298 18.8599C21.4598 19.1299 21.3198 19.6499 21.3998 20.0299L21.4498 20.2699C21.8098 21.8499 20.9698 22.4599 19.5998 21.6299L19.3098 21.4499C18.9598 21.2399 18.3798 21.2399 18.0298 21.4499L17.7398 21.6299C16.3598 22.4599 15.5298 21.8499 15.8898 20.2699L15.9398 20.0299C16.0198 19.6599 15.8798 19.1299 15.6098 18.8599L15.2098 18.4599C14.2798 17.5099 14.5798 16.5599 15.8898 16.3399L16.3198 16.2699C16.6698 16.2099 17.0698 15.9099 17.2298 15.5899L17.5498 14.9399C18.1698 13.6899 19.1698 13.6899 19.7898 14.9399Z" fill="#292D32"/>
<path fill-rule="evenodd" clip-rule="evenodd" d="M16.7996 7.91704C17.1269 8.17081 17.1866 8.64192 16.9328 8.9693L14.6184 11.955C14.0235 12.7073 12.9267 12.8445 12.1615 12.2533L12.1563 12.2492L10.3297 10.8119C10.2168 10.7262 10.0594 10.7475 9.97375 10.8581C9.97367 10.8582 9.97383 10.858 9.97375 10.8581L7.59422 13.9475C7.34146 14.2756 6.87054 14.3367 6.54238 14.084C6.21422 13.8312 6.1531 13.3603 6.40586 13.0321L8.78658 9.94122C9.38049 9.17263 10.4817 9.03371 11.2486 9.62634L11.2539 9.63038L13.0804 11.0677C13.1945 11.1543 13.3551 11.132 13.4402 11.0265L15.7473 8.05031C16.0011 7.72293 16.4722 7.66327 16.7996 7.91704Z" fill="#292D32"/>
</svg>
