<svg width="25" height="24" viewBox="0 0 25 24" fill="none" xmlns="http://www.w3.org/2000/svg">
<path opacity="0.4" d="M6.07985 2H19.2498C20.3498 2 21.2498 2.90999 21.2498 4.01999V6.23999C21.2498 7.04999 20.7498 8.06 20.2498 8.56L15.9598 12.4C15.3598 12.91 14.9598 13.92 14.9598 14.72V19.06C14.9598 19.67 14.5598 20.47 14.0598 20.78L12.6698 21.7C11.3698 22.51 9.57985 21.6 9.57985 19.98V14.63C9.57985 13.92 9.17985 13.01 8.77985 12.51L4.98985 8.47C4.48985 7.96 4.08984 7.06001 4.08984 6.45001V4.13C4.08984 2.91 4.98985 2 6.07985 2Z" fill="#292D32"/>
<path d="M17.5498 10C14.9298 10 12.7998 12.13 12.7998 14.75C12.7998 15.64 13.0498 16.48 13.4898 17.2C14.3098 18.58 15.8198 19.5 17.5498 19.5C19.2798 19.5 20.7898 18.57 21.6098 17.2C22.0498 16.49 22.2998 15.64 22.2998 14.75C22.2998 12.13 20.1798 10 17.5498 10ZM19.3298 15.48H18.2998V16.55C18.2998 16.96 17.9598 17.3 17.5498 17.3C17.1398 17.3 16.7998 16.96 16.7998 16.55V15.48H15.7798C15.3698 15.48 15.0298 15.14 15.0298 14.73C15.0298 14.32 15.3698 13.98 15.7798 13.98H16.7998V13C16.7998 12.59 17.1398 12.25 17.5498 12.25C17.9598 12.25 18.2998 12.59 18.2998 13V13.98H19.3298C19.7398 13.98 20.0798 14.32 20.0798 14.73C20.0798 15.14 19.7398 15.48 19.3298 15.48Z" fill="#292D32"/>
</svg>
