<svg width="25" height="24" viewBox="0 0 25 24" fill="none" xmlns="http://www.w3.org/2000/svg">
<path opacity="0.4" d="M21.2695 4.10001V6.30001C21.2695 7.10001 20.7695 8.10001 20.2695 8.60001L15.9695 12.4C15.3695 12.9 14.9695 13.9 14.9695 14.7V19C14.9695 19.6 14.5695 20.4 14.0695 20.7L12.6695 21.6C11.3695 22.4 9.56953 21.5 9.56953 19.9V14.6C9.56953 13.9 9.16953 13 8.76953 12.5L7.76953 11.45L13.5895 2.10001H19.2695C20.3695 2.10001 21.2695 3.00001 21.2695 4.10001Z" fill="#292D32"/>
<path d="M11.9703 2.10001L6.79031 10.41L4.97031 8.50001C4.47031 8.00001 4.07031 7.10001 4.07031 6.50001V4.20001C4.07031 3.00001 4.97031 2.10001 6.07031 2.10001H11.9703Z" fill="#292D32"/>
</svg>
