<svg width="25" height="24" viewBox="0 0 25 24" fill="none" xmlns="http://www.w3.org/2000/svg">
<path d="M18.5898 10.12C18.2598 10.04 17.9098 10 17.5498 10C14.9298 10 12.7998 12.13 12.7998 14.75C12.7998 15.64 13.0498 16.48 13.4898 17.2C13.8598 17.82 14.3698 18.35 14.9898 18.73C15.7298 19.22 16.6098 19.5 17.5498 19.5C19.2898 19.5 20.7998 18.57 21.6198 17.2C22.0598 16.48 22.2998 15.64 22.2998 14.75C22.2998 12.49 20.7198 10.59 18.5898 10.12ZM19.9198 14.13L17.3798 16.47C17.2398 16.6 17.0498 16.67 16.8698 16.67C16.6798 16.67 16.4898 16.6 16.3398 16.45L15.1698 15.28C14.8798 14.99 14.8798 14.51 15.1698 14.22C15.4598 13.93 15.9398 13.93 16.2298 14.22L16.8898 14.88L18.8998 13.03C19.2098 12.75 19.6798 12.77 19.9598 13.07C20.2398 13.38 20.2198 13.85 19.9198 14.13Z" fill="#292D32"/>
<path opacity="0.4" d="M6.08008 2H19.2501C20.3501 2 21.2501 2.90999 21.2501 4.01999V6.23999C21.2501 7.04999 20.7501 8.06 20.2501 8.56L15.9601 12.4C15.3601 12.91 14.9601 13.92 14.9601 14.72V19.06C14.9601 19.67 14.5601 20.47 14.0601 20.78L12.6601 21.69C11.3601 22.5 9.57013 21.59 9.57013 19.97V14.62C9.57013 13.91 9.17008 13 8.77008 12.5L4.9801 8.45999C4.4801 7.94999 4.08008 7.05 4.08008 6.44V4.12C4.09008 2.91 4.99008 2 6.08008 2Z" fill="#292D32"/>
</svg>
