<svg width="25" height="24" viewBox="0 0 25 24" fill="none" xmlns="http://www.w3.org/2000/svg">
<path opacity="0.4" d="M22.6699 7.81V16.19C22.6699 19.83 20.4999 22 16.8599 22H8.47992C8.27992 22 8.07992 21.99 7.88992 21.98C6.65992 21.9 5.61992 21.55 4.79992 20.95C4.37992 20.66 4.00992 20.29 3.71992 19.87C3.02992 18.92 2.66992 17.68 2.66992 16.19V7.81C2.66992 4.37 4.60992 2.24 7.88992 2.03C8.07992 2.01 8.27992 2 8.47992 2H16.8599C18.3499 2 19.5899 2.36 20.5399 3.05C20.9599 3.34 21.3299 3.71 21.6199 4.13C22.3099 5.08 22.6699 6.32 22.6699 7.81Z" fill="#292D32"/>
<path d="M8.82992 6.64999H16.4999C17.1399 6.64999 17.6599 7.16999 17.6599 7.80999V9.08999C17.6599 9.55999 17.3699 10.14 17.0799 10.43L14.5799 12.64C14.2299 12.93 13.9999 13.51 13.9999 13.98V16.48C13.9999 16.83 13.7699 17.29 13.4799 17.47L12.6699 17.98C11.9099 18.45 10.8699 17.92 10.8699 16.99V13.91C10.8699 13.5 10.6399 12.98 10.3999 12.69L8.18992 10.36C7.89992 10.08 7.66992 9.54999 7.66992 9.19999V7.86999C7.66992 7.16999 8.18992 6.64999 8.82992 6.64999Z" fill="#292D32"/>
</svg>
