<svg width="25" height="24" viewBox="0 0 25 24" fill="none" xmlns="http://www.w3.org/2000/svg">
<path d="M21.7301 11.8201L21.5701 11.6001C21.2901 11.2601 20.9601 10.9901 20.5801 10.7901C20.0701 10.5001 19.4901 10.3501 18.8901 10.3501H6.44012C5.84012 10.3501 5.27012 10.5001 4.75012 10.7901C4.36012 11.0001 4.01012 11.2901 3.72012 11.6501C3.15012 12.3801 2.88012 13.2801 2.97012 14.1801L3.34012 18.8501C3.47012 20.2601 3.64012 22.0001 6.81012 22.0001H18.5301C21.7001 22.0001 21.8601 20.2601 22.0001 18.8401L22.3701 14.1901C22.4601 13.3501 22.2401 12.5101 21.7301 11.8201ZM15.0601 17.3401H10.2701C9.88012 17.3401 9.57012 17.0201 9.57012 16.6401C9.57012 16.2601 9.88012 15.9401 10.2701 15.9401H15.0601C15.4501 15.9401 15.7601 16.2601 15.7601 16.6401C15.7601 17.0301 15.4501 17.3401 15.0601 17.3401Z" fill="#292D32"/>
<path opacity="0.4" d="M4.0498 11.31C4.2698 11.11 4.4898 10.93 4.7498 10.79C5.2598 10.5 5.8398 10.35 6.4398 10.35H18.8998C19.4998 10.35 20.0698 10.5 20.5898 10.79C20.8498 10.93 21.0798 11.11 21.2898 11.32V10.79V9.82C21.2898 6.25 20.1998 5.16 16.6298 5.16H14.2498C13.8098 5.16 13.7998 5.15 13.5398 4.81L12.3398 3.2C11.7698 2.46 11.3198 2 9.8898 2H8.7098C5.1398 2 4.0498 3.09 4.0498 6.66V10.8V11.31Z" fill="#292D32"/>
</svg>
