<svg width="25" height="24" viewBox="0 0 25 24" fill="none" xmlns="http://www.w3.org/2000/svg">
<path opacity="0.4" d="M22.5398 9.44H2.7998V6.42C2.7998 3.98 4.7798 2 7.2198 2H9.5498C11.1798 2 11.6898 2.53 12.3398 3.4L13.7398 5.26C14.0498 5.67 14.0898 5.73 14.6698 5.73H17.4598C19.8298 5.72 21.8498 7.28 22.5398 9.44Z" fill="#292D32"/>
<path d="M22.6599 10.8399C22.6399 10.3599 22.5599 9.88994 22.4099 9.43994H2.66992V16.6499C2.66992 19.5999 5.06992 21.9999 8.01992 21.9999H17.3199C20.2699 21.9999 22.6699 19.5999 22.6699 16.6499V11.0699C22.6699 10.9999 22.6699 10.9099 22.6599 10.8399ZM15.0099 17.7799C14.8599 17.9199 14.6699 17.9999 14.4799 17.9999C14.2899 17.9999 14.0999 17.9299 13.9499 17.7799L12.7099 16.5399L11.4299 17.8199C11.2799 17.9699 11.0899 18.0399 10.8999 18.0399C10.7099 18.0399 10.5199 17.9699 10.3699 17.8199C10.0799 17.5299 10.0799 17.0499 10.3699 16.7599L11.6499 15.4799L10.4099 14.2399C10.1199 13.9499 10.1199 13.4699 10.4099 13.1799C10.6999 12.8899 11.1799 12.8899 11.4699 13.1799L12.7099 14.4199L13.9099 13.2199C14.1999 12.9299 14.6799 12.9299 14.9699 13.2199C15.2599 13.5099 15.2599 13.9899 14.9699 14.2799L13.7699 15.4799L15.0099 16.7199C15.2999 17.0099 15.2999 17.4899 15.0099 17.7799Z" fill="#292D32"/>
</svg>
