<svg width="25" height="24" viewBox="0 0 25 24" fill="none" xmlns="http://www.w3.org/2000/svg">
<path opacity="0.4" d="M22.4099 9.44H2.66992V6.42C2.66992 3.98 4.64992 2 7.08992 2H9.41992C11.0499 2 11.5599 2.53 12.2099 3.4L13.6099 5.26C13.9199 5.67 13.9599 5.73 14.5399 5.73H17.3299C19.6999 5.72 21.7199 7.28 22.4099 9.44Z" fill="#292D32"/>
<path d="M22.6599 10.8399C22.6399 10.3499 22.5599 9.88994 22.4099 9.43994H2.66992V16.6499C2.66992 19.5999 5.06992 21.9999 8.01992 21.9999H17.3199C20.2699 21.9999 22.6699 19.5999 22.6699 16.6499V11.0699C22.6699 10.9999 22.6699 10.9099 22.6599 10.8399ZM15.1699 16.2499H13.4799V17.9999C13.4799 18.4099 13.1399 18.7499 12.7299 18.7499C12.3199 18.7499 11.9799 18.4099 11.9799 17.9999V16.2499H10.1699C9.75992 16.2499 9.41992 15.9099 9.41992 15.4999C9.41992 15.0899 9.75992 14.7499 10.1699 14.7499H11.9799V12.9999C11.9799 12.5899 12.3199 12.2499 12.7299 12.2499C13.1399 12.2499 13.4799 12.5899 13.4799 12.9999V14.7499H15.1699C15.5799 14.7499 15.9199 15.0899 15.9199 15.4999C15.9199 15.9099 15.5799 16.2499 15.1699 16.2499Z" fill="#292D32"/>
</svg>
