<svg width="25" height="24" viewBox="0 0 25 24" fill="none" xmlns="http://www.w3.org/2000/svg">
<path opacity="0.4" d="M22.4099 9.44H2.66992V6.42C2.66992 3.98 4.64992 2 7.08992 2H9.41992C11.0499 2 11.5599 2.53 12.2099 3.4L13.6099 5.26C13.9199 5.67 13.9599 5.73 14.5399 5.73H17.3299C19.6999 5.72 21.7199 7.28 22.4099 9.44Z" fill="#292D32"/>
<path d="M22.6599 10.8399C22.6399 10.3499 22.5599 9.88994 22.4099 9.43994H2.66992V16.6499C2.66992 19.5999 5.06992 21.9999 8.01992 21.9999H17.3199C20.2699 21.9999 22.6699 19.5999 22.6699 16.6499V11.0699C22.6699 10.9999 22.6699 10.9099 22.6599 10.8399ZM15.2099 15.9699L13.0599 17.8499C12.9499 17.9499 12.8099 17.9999 12.6699 17.9999C12.5299 17.9999 12.3899 17.9499 12.2799 17.8499L10.1299 15.9699C9.44992 15.3699 9.35992 14.3499 9.91992 13.6399C10.4999 12.9199 11.5199 12.7899 12.2599 13.3399L12.6599 13.6399L13.0599 13.3399C13.7999 12.7899 14.8199 12.9199 15.3999 13.6399C15.9799 14.3499 15.8899 15.3699 15.2099 15.9699Z" fill="#292D32"/>
</svg>
