<svg width="25" height="24" viewBox="0 0 25 24" fill="none" xmlns="http://www.w3.org/2000/svg">
<path d="M15.0994 16.92H12.8094C12.3994 16.92 12.0594 16.58 12.0594 16.17C12.0594 15.76 12.3994 15.42 12.8094 15.42H15.0994C15.5294 15.42 15.8794 15.07 15.8794 14.64C15.8794 14.21 15.5294 13.86 15.0994 13.86H12.8094C12.5694 13.86 12.3394 13.74 12.1994 13.55C12.0594 13.36 12.0194 13.1 12.0994 12.87L12.8594 10.58C12.9594 10.27 13.2494 10.07 13.5694 10.07H16.6294C17.0394 10.07 17.3794 10.41 17.3794 10.82C17.3794 11.23 17.0394 11.57 16.6294 11.57H14.1094L13.8494 12.36H15.0994C16.3594 12.36 17.3794 13.38 17.3794 14.64C17.3794 15.9 16.3494 16.92 15.0994 16.92Z" fill="#292D32"/>
<path d="M10.2095 16.92C9.79947 16.92 9.45947 16.58 9.45947 16.17V12.78L9.26947 13C8.98947 13.31 8.51947 13.33 8.20947 13.06C7.89947 12.78 7.87947 12.31 8.14947 12L9.64947 10.33C9.85947 10.1 10.1895 10.02 10.4795 10.13C10.7695 10.24 10.9595 10.52 10.9595 10.83V16.18C10.9595 16.59 10.6295 16.92 10.2095 16.92Z" fill="#292D32"/>
<path opacity="0.4" d="M20.3597 7.34997C20.1097 7.01997 19.6398 6.95 19.3098 7.2C18.9798 7.45 18.9097 7.91999 19.1597 8.24999C20.2397 9.68999 20.8098 11.37 20.8098 13.11C20.8098 17.6 17.1597 21.25 12.6697 21.25C8.17974 21.25 4.52972 17.6 4.52972 13.11C4.52972 8.61998 8.17974 4.96996 12.6697 4.96996C13.2497 4.96996 13.8397 5.03999 14.4797 5.18999C14.5097 5.19999 14.5398 5.18999 14.5698 5.18999C14.5998 5.18999 14.6197 5.21001 14.6397 5.21001C14.6697 5.21001 14.6897 5.2 14.7197 5.2C14.7497 5.2 14.7798 5.18998 14.8198 5.17998C14.8798 5.16998 14.9297 5.13999 14.9797 5.11999C15.0097 5.09999 15.0398 5.09 15.0698 5.07C15.0798 5.06 15.0997 5.05998 15.1097 5.04998C15.1397 5.02998 15.1497 4.99997 15.1697 4.97997C15.2097 4.93997 15.2397 4.90998 15.2697 4.85998C15.2997 4.81998 15.3097 4.76996 15.3297 4.71996C15.3397 4.68996 15.3598 4.66 15.3698 4.63C15.3698 4.61 15.3698 4.60001 15.3698 4.58001C15.3798 4.53001 15.3798 4.47998 15.3698 4.42998C15.3698 4.37998 15.3697 4.33997 15.3597 4.28997C15.3497 4.24997 15.3298 4.20996 15.3098 4.15996C15.2898 4.10996 15.2697 4.06001 15.2397 4.02001C15.2297 4.01001 15.2297 3.98997 15.2197 3.97997L13.2397 1.51C12.9797 1.19 12.5098 1.13001 12.1898 1.39001C11.8698 1.65001 11.8198 2.11999 12.0698 2.43999L12.8897 3.46001C12.8097 3.46001 12.7297 3.45 12.6497 3.45C7.33972 3.45 3.00977 7.77002 3.00977 13.09C3.00977 18.41 7.32972 22.73 12.6497 22.73C17.9697 22.73 22.2897 18.41 22.2897 13.09C22.3097 11.04 21.6297 9.04997 20.3597 7.34997Z" fill="#292D32"/>
</svg>
