<svg width="25" height="24" viewBox="0 0 25 24" fill="none" xmlns="http://www.w3.org/2000/svg">
<path opacity="0.4" d="M21.9204 5.77V9C21.9204 11.29 21.1904 12.02 18.9004 12.02H18.8004V10.38C18.8004 7.26 17.4104 5.87 14.2904 5.87H12.6504V5.77C12.6504 3.48 13.3804 2.75 15.6704 2.75H18.9004C21.1904 2.75 21.9204 3.48 21.9204 5.77Z" fill="#292D32"/>
<path d="M17.3 10.3801V13.6201C17.3 15.9001 16.57 16.6301 14.29 16.6301H11.05C8.77004 16.6301 8.04004 15.9001 8.04004 13.6201V10.3801C8.04004 8.10013 8.77004 7.37012 11.05 7.37012H14.29C16.57 7.37012 17.3 8.10013 17.3 10.3801Z" fill="#292D32"/>
<path opacity="0.4" d="M12.6899 18.13V18.23C12.6899 20.52 11.9599 21.25 9.66992 21.25H6.43992C4.14992 21.25 3.41992 20.52 3.41992 18.23V15C3.41992 12.71 4.14992 11.98 6.43992 11.98H6.53992V13.62C6.53992 16.74 7.92992 18.13 11.0499 18.13H12.6899Z" fill="#292D32"/>
</svg>
