<svg width="25" height="24" viewBox="0 0 25 24" fill="none" xmlns="http://www.w3.org/2000/svg">
<path opacity="0.4" d="M20.1497 7.09006C19.8897 6.77006 19.4197 6.72001 19.0997 6.98001C18.7797 7.24001 18.7297 7.71006 18.9897 8.03006C20.1197 9.43006 20.7497 11.09 20.8097 12.83C20.9697 17.31 17.4497 21.09 12.9597 21.24C8.47967 21.4 4.6997 17.88 4.5497 13.39C4.3997 8.90004 7.90968 5.13001 12.3997 4.98001C12.9697 4.96001 13.5697 5.01004 14.2197 5.14004C14.2597 5.15004 14.2997 5.14004 14.3397 5.14004C14.4397 5.19004 14.5597 5.22 14.6697 5.22C14.8397 5.22 14.9997 5.17002 15.1397 5.05002C15.4597 4.79002 15.5097 4.32003 15.2597 4.00003L13.2797 1.53006C13.0197 1.21006 12.5497 1.15 12.2297 1.41C11.9097 1.67 11.8597 2.14005 12.1097 2.46005L12.9397 3.49002C12.7497 3.48002 12.5497 3.47001 12.3597 3.48001C7.0497 3.66001 2.87972 8.14004 3.06972 13.45C3.25972 18.76 7.72969 22.93 13.0397 22.74C18.3497 22.55 22.5197 18.08 22.3297 12.77C22.2297 10.71 21.4897 8.74006 20.1497 7.09006Z" fill="#292D32"/>
<path d="M13.0496 16.92H10.7596C10.3496 16.92 10.0096 16.58 10.0096 16.17C10.0096 15.76 10.3496 15.42 10.7596 15.42H13.0496C13.4796 15.42 13.8295 15.07 13.8295 14.64C13.8295 14.21 13.4796 13.86 13.0496 13.86H10.7596C10.5196 13.86 10.2895 13.74 10.1495 13.55C10.0095 13.36 9.96957 13.1 10.0496 12.87L10.8096 10.58C10.9096 10.27 11.1995 10.07 11.5195 10.07H14.5795C14.9895 10.07 15.3295 10.41 15.3295 10.82C15.3295 11.23 14.9895 11.57 14.5795 11.57H12.0596L11.7996 12.36H13.0496C14.3096 12.36 15.3295 13.38 15.3295 14.64C15.3295 15.9 14.3096 16.92 13.0496 16.92Z" fill="#292D32"/>
</svg>
