<svg width="25" height="24" viewBox="0 0 25 24" fill="none" xmlns="http://www.w3.org/2000/svg">
<path opacity="0.58" d="M24.6699 0H0.669922V24H24.6699V0Z" fill="white"/>
<path opacity="0.4" d="M16.8597 2H8.4897C4.8497 2 2.67969 4.17 2.67969 7.81V16.18C2.67969 19.82 4.8497 21.99 8.4897 21.99H16.8597C20.4997 21.99 22.6697 19.82 22.6697 16.18V7.81C22.6697 4.17 20.4997 2 16.8597 2Z" fill="#292D32"/>
<path d="M11.6699 5.5V7.5C11.6699 7.78 11.4499 8 11.1699 8H9.66992C9.11992 8 8.66992 8.45 8.66992 9V10.5C8.66992 10.78 8.44992 11 8.16992 11H6.16992C5.88992 11 5.66992 10.78 5.66992 10.5V9C5.66992 6.79 7.45992 5 9.66992 5H11.1699C11.4499 5 11.6699 5.22 11.6699 5.5Z" fill="#292D32"/>
<path d="M13.6699 18.5V16.5C13.6699 16.22 13.8899 16 14.1699 16H15.6699C16.2199 16 16.6699 15.55 16.6699 15V13.5C16.6699 13.22 16.8899 13 17.1699 13H19.1699C19.4499 13 19.6699 13.22 19.6699 13.5V15C19.6699 17.21 17.8799 19 15.6699 19H14.1699C13.8899 19 13.6699 18.78 13.6699 18.5Z" fill="#292D32"/>
</svg>
