<svg width="25" height="24" viewBox="0 0 25 24" fill="none" xmlns="http://www.w3.org/2000/svg">
<path opacity="0.4" d="M22.6699 7.81V13.9L21.0399 12.5C20.2599 11.83 18.9999 11.83 18.2199 12.5L14.0599 16.07C13.2799 16.74 12.0199 16.74 11.2399 16.07L10.8999 15.79C10.1899 15.17 9.05992 15.11 8.25992 15.65L3.33992 18.95L3.22992 19.03C2.85992 18.23 2.66992 17.28 2.66992 16.19V7.81C2.66992 4.17 4.83992 2 8.47992 2H16.8599C20.4999 2 22.6699 4.17 22.6699 7.81Z" fill="#292D32"/>
<path d="M9.67004 10.38C10.9845 10.38 12.05 9.31444 12.05 8C12.05 6.68557 10.9845 5.62 9.67004 5.62C8.3556 5.62 7.29004 6.68557 7.29004 8C7.29004 9.31444 8.3556 10.38 9.67004 10.38Z" fill="#292D32"/>
<path d="M22.6695 13.9V16.19C22.6695 19.83 20.4995 22 16.8595 22H8.47949C5.92949 22 4.08949 20.93 3.22949 19.03L3.33949 18.95L8.25949 15.65C9.05949 15.11 10.1895 15.17 10.8995 15.79L11.2395 16.07C12.0195 16.74 13.2795 16.74 14.0595 16.07L18.2195 12.5C18.9995 11.83 20.2595 11.83 21.0395 12.5L22.6695 13.9Z" fill="#292D32"/>
</svg>
