<svg width="25" height="24" viewBox="0 0 25 24" fill="none" xmlns="http://www.w3.org/2000/svg">
<path d="M22.6695 13.9V16.19C22.6695 19.83 20.4995 22 16.8595 22H8.47949C5.92949 22 4.08949 20.93 3.22949 19.03L3.33949 18.95L8.25949 15.65C9.05949 15.11 10.1895 15.17 10.8995 15.79L11.2395 16.07C12.0195 16.74 13.2795 16.74 14.0595 16.07L18.2195 12.5C18.9995 11.83 20.2595 11.83 21.0395 12.5L22.6695 13.9Z" fill="#292D32"/>
<path opacity="0.4" d="M21.6399 8H18.6999C17.4299 8 16.6699 7.24 16.6699 5.97V3.03C16.6699 2.63 16.7499 2.29 16.8899 2C16.8799 2 16.8699 2 16.8599 2H8.47992C4.83992 2 2.66992 4.17 2.66992 7.81V16.19C2.66992 17.28 2.85992 18.23 3.22992 19.03L3.33992 18.95L8.25992 15.65C9.05992 15.11 10.1899 15.17 10.8999 15.79L11.2399 16.07C12.0199 16.74 13.2799 16.74 14.0599 16.07L18.2199 12.5C18.9999 11.83 20.2599 11.83 21.0399 12.5L22.6699 13.9V7.81C22.6699 7.8 22.6699 7.79 22.6699 7.78C22.3799 7.92 22.0399 8 21.6399 8Z" fill="#292D32"/>
<path d="M9.67004 10.38C10.9845 10.38 12.05 9.31444 12.05 8C12.05 6.68557 10.9845 5.62 9.67004 5.62C8.3556 5.62 7.29004 6.68557 7.29004 8C7.29004 9.31444 8.3556 10.38 9.67004 10.38Z" fill="#292D32"/>
<path d="M21.6399 1H18.6999C17.4299 1 16.6699 1.76 16.6699 3.03V5.97C16.6699 7.24 17.4299 8 18.6999 8H21.6399C22.9099 8 23.6699 7.24 23.6699 5.97V3.03C23.6699 1.76 22.9099 1 21.6399 1ZM22.2999 3.45L19.9299 6.22C19.8399 6.33 19.6999 6.4 19.5599 6.4C19.5499 6.4 19.5499 6.4 19.5399 6.4C19.3999 6.4 19.2699 6.35 19.1699 6.25L18.0699 5.17C17.8699 4.97 17.8699 4.64 18.0699 4.44C18.2699 4.24 18.5999 4.23 18.7999 4.44L19.4999 5.13L21.4999 2.79C21.6899 2.57 22.0099 2.55 22.2299 2.73C22.4599 2.91 22.4799 3.24 22.2999 3.45Z" fill="#292D32"/>
</svg>
