<svg width="25" height="24" viewBox="0 0 25 24" fill="none" xmlns="http://www.w3.org/2000/svg">
<path opacity="0.4" d="M17.6699 22H7.66992C5.46992 22 3.66992 20.2 3.66992 18V6C3.66992 3.8 5.46992 2 7.66992 2H17.6699C19.8699 2 21.6699 3.8 21.6699 6V18C21.6699 20.2 19.8699 22 17.6699 22Z" fill="#292D32"/>
<path d="M16.9199 11H8.41992C7.45992 11 6.66992 10.21 6.66992 9.25V6.75C6.66992 5.79 7.45992 5 8.41992 5H16.9199C17.8799 5 18.6699 5.79 18.6699 6.75V9.25C18.6699 10.21 17.8799 11 16.9199 11Z" fill="#292D32"/>
<path d="M11.5298 17.08L10.8799 16.43L11.4998 15.81C11.7898 15.52 11.7898 15.04 11.4998 14.75C11.2098 14.46 10.7299 14.46 10.4399 14.75L9.81986 15.37L9.22986 14.78C8.93986 14.49 8.45986 14.49 8.16986 14.78C7.87986 15.07 7.87986 15.55 8.16986 15.84L8.75986 16.43L8.13986 17.05C7.84986 17.34 7.84986 17.82 8.13986 18.11C8.28986 18.26 8.47986 18.33 8.66986 18.33C8.85986 18.33 9.04986 18.26 9.19986 18.11L9.81986 17.49L10.4698 18.14C10.6198 18.29 10.8098 18.36 10.9998 18.36C11.1898 18.36 11.3798 18.29 11.5298 18.14C11.8198 17.85 11.8198 17.37 11.5298 17.08Z" fill="#292D32"/>
<path d="M17.1799 16.3301C16.6299 16.3301 16.1699 15.8801 16.1699 15.3301C16.1699 14.7801 16.6099 14.3301 17.1599 14.3301H17.1799C17.7299 14.3301 18.1799 14.7801 18.1799 15.3301C18.1799 15.8801 17.7299 16.3301 17.1799 16.3301Z" fill="#292D32"/>
<path d="M15.1602 18.49C14.6102 18.49 14.1602 18.05 14.1602 17.5V17.48C14.1602 16.93 14.6102 16.48 15.1602 16.48C15.7102 16.48 16.1602 16.93 16.1602 17.48C16.1602 18.03 15.7102 18.49 15.1602 18.49Z" fill="#292D32"/>
</svg>
