<svg width="25" height="24" viewBox="0 0 25 24" fill="none" xmlns="http://www.w3.org/2000/svg">
<path opacity="0.4" d="M4.16992 22V5C4.16992 3 5.50992 2 7.16992 2H15.1699C16.8299 2 18.1699 3 18.1699 5V22H4.16992Z" fill="#292D32"/>
<path d="M19.6699 22.75H2.66992C2.25992 22.75 1.91992 22.41 1.91992 22C1.91992 21.59 2.25992 21.25 2.66992 21.25H19.6699C20.0799 21.25 20.4199 21.59 20.4199 22C20.4199 22.41 20.0799 22.75 19.6699 22.75Z" fill="#292D32"/>
<path d="M8.55992 10H13.7899C14.8299 10 15.6799 9.5 15.6799 8.11V6.88C15.6699 5.5 14.8199 5 13.7799 5H8.54992C7.51992 5 6.66992 5.5 6.66992 6.89V8.12C6.66992 9.5 7.51992 10 8.55992 10Z" fill="#292D32"/>
<path d="M10.1699 13.75H7.16992C6.75992 13.75 6.41992 13.41 6.41992 13C6.41992 12.59 6.75992 12.25 7.16992 12.25H10.1699C10.5799 12.25 10.9199 12.59 10.9199 13C10.9199 13.41 10.5799 13.75 10.1699 13.75Z" fill="#292D32"/>
<path d="M23.4199 10V16C23.4199 16.41 23.0899 16.75 22.6699 16.75L18.1699 16.76V15.26L21.9199 15.25V10.46L20.3299 9.67002C19.9599 9.49002 19.8099 9.04002 19.9999 8.66002C20.1799 8.29002 20.6399 8.15002 21.0099 8.33002L23.0099 9.33002C23.2599 9.46002 23.4199 9.72002 23.4199 10Z" fill="#292D32"/>
</svg>
