<svg width="25" height="24" viewBox="0 0 25 24" fill="none" xmlns="http://www.w3.org/2000/svg">
<path d="M16.5095 22H8.82953C4.63953 22 3.80953 19.47 5.16953 16.39L6.60953 13.12C6.60953 13.12 9.66953 13 12.6695 14C15.6695 15 18.4995 13.11 18.4995 13.11L18.6895 12.99L20.1795 16.4C21.5195 19.48 20.6395 22 16.5095 22Z" fill="#292D32"/>
<path opacity="0.4" d="M18.6904 12.99L18.5004 13.11C18.5004 13.11 15.6704 15 12.6704 14C9.67035 13 6.61035 13.12 6.61035 13.12L9.41035 6.74H9.11035C8.46035 6.74 7.86035 6.48 7.43035 6.05C7.00035 5.62 6.74035 5.02 6.74035 4.37C6.74035 3.07 7.80035 2 9.11035 2H16.2204C16.8804 2 17.4704 2.27 17.9004 2.7C18.4604 3.26 18.7504 4.08 18.5304 4.95C18.2704 6.03 17.2304 6.74 16.1104 6.74H15.9504L18.6904 12.99Z" fill="#292D32"/>
</svg>
