<svg width="25" height="24" viewBox="0 0 25 24" fill="none" xmlns="http://www.w3.org/2000/svg">
<path d="M22.4599 20.76L21.7399 20.04C22.1099 19.48 22.3299 18.8 22.3299 18.08C22.3299 16.1 20.7299 14.5 18.7499 14.5C16.7699 14.5 15.1699 16.1 15.1699 18.08C15.1699 20.06 16.7699 21.66 18.7499 21.66C19.4799 21.66 20.1499 21.44 20.7099 21.07L21.4299 21.79C21.5699 21.93 21.7599 22 21.9399 22C22.1299 22 22.3099 21.93 22.4499 21.79C22.7399 21.5 22.7399 21.04 22.4599 20.76Z" fill="#292D32"/>
<path opacity="0.4" d="M2.69969 14.6299C2.69969 14.6599 2.67969 14.6999 2.67969 14.7299C3.59969 16.5699 5.0997 18.0799 6.9397 18.9899C6.9697 18.9899 7.00969 18.9699 7.03969 18.9699C6.69969 17.8099 6.43969 16.6199 6.24969 15.4299C5.04969 15.2299 3.85969 14.9699 2.69969 14.6299Z" fill="#292D32"/>
<path opacity="0.4" d="M19.74 6.42993C18.8 4.45993 17.21 2.86994 15.25 1.93994C15.61 3.12994 15.91 4.34995 16.11 5.56995C17.33 5.76995 18.55 6.05993 19.74 6.42993Z" fill="#292D32"/>
<path opacity="0.4" d="M2.59961 6.43002C3.79961 6.07002 5.01962 5.77004 6.23962 5.57004C6.43962 4.38004 6.68962 3.20004 7.02962 2.04004C6.99962 2.04004 6.95961 2.02002 6.92961 2.02002C5.04961 2.95002 3.51961 4.52002 2.59961 6.43002Z" fill="#292D32"/>
<path opacity="0.4" d="M14.4896 5.36023C14.2496 4.06023 13.9496 2.76024 13.5196 1.50024C13.4996 1.43024 13.4996 1.37025 13.4896 1.29025C12.7496 1.11025 11.9696 0.990234 11.1696 0.990234C10.3596 0.990234 9.58961 1.10025 8.83961 1.29025C8.82961 1.36025 8.83961 1.42024 8.81961 1.50024C8.39961 2.76024 8.08961 4.06023 7.84961 5.36023C10.0596 5.12023 12.2796 5.12023 14.4896 5.36023Z" fill="#292D32"/>
<path opacity="0.4" d="M6.03015 7.18018C4.72015 7.42018 3.43015 7.72018 2.17015 8.15018C2.10015 8.17018 2.04014 8.17018 1.96014 8.18018C1.78014 8.92018 1.66016 9.70018 1.66016 10.5002C1.66016 11.3102 1.77014 12.0802 1.96014 12.8302C2.03014 12.8402 2.09015 12.8302 2.17015 12.8502C3.43015 13.2702 4.72015 13.5802 6.03015 13.8202C5.79015 11.6102 5.79015 9.39018 6.03015 7.18018Z" fill="#292D32"/>
<path opacity="0.4" d="M20.3698 8.18018C20.2998 8.18018 20.2398 8.17018 20.1598 8.15018C18.8998 7.73018 17.5998 7.42018 16.2998 7.18018C16.5498 9.39018 16.5498 11.6102 16.2998 13.8102C17.5998 13.5702 18.8998 13.2702 20.1598 12.8402C20.2298 12.8202 20.2898 12.8302 20.3698 12.8202C20.5498 12.0702 20.6698 11.3002 20.6698 10.4902C20.6698 9.70017 20.5598 8.93018 20.3698 8.18018Z" fill="#292D32"/>
<path opacity="0.4" d="M7.84961 15.6401C8.08961 16.9501 8.38961 18.2401 8.81961 19.5001C8.83961 19.5701 8.82961 19.6301 8.83961 19.7101C9.58961 19.8901 10.3596 20.0101 11.1696 20.0101C11.9696 20.0101 12.7496 19.9001 13.4896 19.7101C13.4996 19.6401 13.4996 19.5801 13.5196 19.5001C13.9396 18.2401 14.2496 16.9501 14.4896 15.6401C13.3896 15.7601 12.2796 15.8501 11.1696 15.8501C10.0596 15.8401 8.94961 15.7601 7.84961 15.6401Z" fill="#292D32"/>
<path opacity="0.4" d="M7.61953 6.9501C7.31953 9.3101 7.31953 11.6901 7.61953 14.0601C9.97953 14.3601 12.3595 14.3601 14.7295 14.0601C15.0295 11.7001 15.0295 9.3201 14.7295 6.9501C12.3595 6.6501 9.97953 6.6501 7.61953 6.9501Z" fill="#292D32"/>
</svg>
