<svg width="25" height="24" viewBox="0 0 25 24" fill="none" xmlns="http://www.w3.org/2000/svg">
<path opacity="0.58" d="M24.6699 0H0.669922V24H24.6699V0Z" fill="white"/>
<path opacity="0.4" d="M22.0701 12.95L17.5601 15.2101L14.3701 12.0201L17.5901 8.80005L22.0701 11.05C22.8601 11.44 22.8601 12.56 22.0701 12.95Z" fill="#292D32"/>
<path d="M17.5902 8.79997L14.3702 12.02L4.7002 2.34998L17.5902 8.79997Z" fill="#292D32"/>
<path opacity="0.4" d="M14.3699 12.02L4.78992 21.6L4.21992 21.89C3.49992 22.24 2.66992 21.73 2.66992 20.93V3.07001C2.66992 2.27001 3.49992 1.76 4.21992 2.11L4.69992 2.35001L14.3699 12.02Z" fill="#292D32"/>
<path d="M17.56 15.21L4.79004 21.6L14.37 12.02L17.56 15.21Z" fill="#292D32"/>
</svg>
