<svg width="25" height="24" viewBox="0 0 25 24" fill="none" xmlns="http://www.w3.org/2000/svg">
<path opacity="0.4" d="M19.6095 8.06006L15.7795 11.8901C15.7895 11.9301 15.7895 11.9601 15.7895 12.0001C15.7895 13.7201 14.3895 15.1201 12.6695 15.1201C12.6295 15.1201 12.5995 15.1201 12.5595 15.1101L8.72949 18.9401C9.88949 19.6201 11.2395 20.0001 12.6695 20.0001C17.0795 20.0001 20.6695 16.4101 20.6695 12.0001C20.6695 10.5701 20.2895 9.22006 19.6095 8.06006Z" fill="#292D32"/>
<path opacity="0.4" d="M18.3199 6.35L14.8699 9.8C14.3099 9.23 13.5299 8.88 12.6699 8.88C10.9499 8.88 9.54992 10.28 9.54992 12C9.54992 12.86 9.89992 13.64 10.4699 14.2L7.01992 17.65C5.56992 16.2 4.66992 14.2 4.66992 12C4.66992 7.59 8.25992 4 12.6699 4C14.8699 4 16.8699 4.9 18.3199 6.35Z" fill="#292D32"/>
<path d="M14.8698 9.79988L10.4698 14.1999C9.8998 13.6399 9.5498 12.8599 9.5498 11.9999C9.5498 10.2799 10.9498 8.87988 12.6698 8.87988C13.5298 8.87988 14.3098 9.22988 14.8698 9.79988Z" fill="#292D32"/>
<path d="M13.4199 2V4.04H13.4099C13.1699 4.01 12.9199 4 12.6699 4C12.4199 4 12.1699 4.01 11.9299 4.04H11.9199V2C11.9199 1.59 12.2599 1.25 12.6699 1.25C13.0799 1.25 13.4199 1.59 13.4199 2Z" fill="#292D32"/>
<path d="M4.66992 12C4.66992 12.25 4.67992 12.51 4.70992 12.75H2.66992C2.25992 12.75 1.91992 12.41 1.91992 12C1.91992 11.59 2.25992 11.25 2.66992 11.25H4.70992C4.67992 11.49 4.66992 11.75 4.66992 12Z" fill="#292D32"/>
<path d="M13.4199 19.96V22C13.4199 22.41 13.0799 22.75 12.6699 22.75C12.2599 22.75 11.9199 22.41 11.9199 22V19.96H11.9299C12.1699 19.99 12.4199 20 12.6699 20C12.9199 20 13.1699 19.99 13.4099 19.96H13.4199Z" fill="#292D32"/>
<path d="M23.4199 12C23.4199 12.41 23.0799 12.75 22.6699 12.75H20.6299C20.6599 12.51 20.6699 12.25 20.6699 12C20.6699 11.75 20.6599 11.49 20.6299 11.25H22.6699C23.0799 11.25 23.4199 11.59 23.4199 12Z" fill="#292D32"/>
<path d="M22.4398 2.22988C22.1398 1.92988 21.6498 1.92988 21.3498 2.22988L2.8998 20.6899C2.5998 20.9899 2.5998 21.4799 2.8998 21.7799C3.0498 21.9199 3.2398 21.9999 3.4398 21.9999C3.6398 21.9999 3.8298 21.9199 3.9798 21.7699L22.4398 3.30988C22.7498 3.00988 22.7498 2.52988 22.4398 2.22988Z" fill="#292D32"/>
</svg>
