<svg width="25" height="24" viewBox="0 0 25 24" fill="none" xmlns="http://www.w3.org/2000/svg">
<path opacity="0.4" d="M12.6699 20C17.0882 20 20.6699 16.4183 20.6699 12C20.6699 7.58172 17.0882 4 12.6699 4C8.25164 4 4.66992 7.58172 4.66992 12C4.66992 16.4183 8.25164 20 12.6699 20Z" fill="#292D32"/>
<path d="M12.6698 15.1199C14.3929 15.1199 15.7898 13.723 15.7898 11.9999C15.7898 10.2768 14.3929 8.87988 12.6698 8.87988C10.9467 8.87988 9.5498 10.2768 9.5498 11.9999C9.5498 13.723 10.9467 15.1199 12.6698 15.1199Z" fill="#292D32"/>
<path d="M13.4199 2V4.04H13.4099C13.1699 4.01 12.9199 4 12.6699 4C12.4199 4 12.1699 4.01 11.9299 4.04H11.9199V2C11.9199 1.59 12.2599 1.25 12.6699 1.25C13.0799 1.25 13.4199 1.59 13.4199 2Z" fill="#292D32"/>
<path d="M4.66992 12C4.66992 12.25 4.67992 12.51 4.70992 12.75H2.66992C2.25992 12.75 1.91992 12.41 1.91992 12C1.91992 11.59 2.25992 11.25 2.66992 11.25H4.70992C4.67992 11.49 4.66992 11.75 4.66992 12Z" fill="#292D32"/>
<path d="M13.4199 19.96V22C13.4199 22.41 13.0799 22.75 12.6699 22.75C12.2599 22.75 11.9199 22.41 11.9199 22V19.96H11.9299C12.1699 19.99 12.4199 20 12.6699 20C12.9199 20 13.1699 19.99 13.4099 19.96H13.4199Z" fill="#292D32"/>
<path d="M23.4199 12C23.4199 12.41 23.0799 12.75 22.6699 12.75H20.6299C20.6599 12.51 20.6699 12.25 20.6699 12C20.6699 11.75 20.6599 11.49 20.6299 11.25H22.6699C23.0799 11.25 23.4199 11.59 23.4199 12Z" fill="#292D32"/>
</svg>
