<svg width="25" height="24" viewBox="0 0 25 24" fill="none" xmlns="http://www.w3.org/2000/svg">
<path opacity="0.4" d="M19.7396 4.95002C23.7096 8.92002 23.6396 15.4 19.5396 19.29C15.7496 22.88 9.59964 22.88 5.79964 19.29C1.68964 15.4 1.61963 8.92002 5.59963 4.95002C9.49963 1.04002 15.8396 1.04002 19.7396 4.95002Z" fill="#292D32"/>
<path d="M12.6697 18.32C11.0897 18.32 9.51967 17.75 8.31967 16.62C8.01967 16.33 8.00967 15.86 8.28967 15.56C8.57967 15.26 9.04967 15.25 9.34967 15.53C11.1797 17.26 14.1597 17.26 15.9897 15.53C16.2897 15.25 16.7697 15.26 17.0497 15.56C17.3297 15.86 17.3197 16.34 17.0197 16.62C15.8197 17.75 14.2497 18.32 12.6697 18.32Z" fill="#292D32"/>
</svg>
