<svg width="25" height="24" viewBox="0 0 25 24" fill="none" xmlns="http://www.w3.org/2000/svg">
<path d="M22.3401 6.9499C21.7001 4.7799 19.8901 2.9699 17.7201 2.3299C16.0701 1.8499 14.9301 1.8899 14.1401 2.4799C13.1901 3.1899 13.0801 4.4699 13.0801 5.3799V7.8699C13.0801 10.3299 14.2001 11.5799 16.4001 11.5799H19.2701C20.1701 11.5799 21.4601 11.4699 22.1701 10.5199C22.7801 9.7399 22.8301 8.5999 22.3401 6.9499Z" fill="#292D32"/>
<path opacity="0.4" d="M19.5803 13.3597C19.3203 13.0597 18.9403 12.8897 18.5503 12.8897H14.9703C13.2103 12.8897 11.7803 11.4597 11.7803 9.69966V6.11966C11.7803 5.72966 11.6103 5.34966 11.3103 5.08966C11.0203 4.82966 10.6203 4.70966 10.2403 4.75966C7.89031 5.05966 5.73031 6.34966 4.32031 8.28966C2.90031 10.2397 2.38031 12.6197 2.83031 14.9997C3.48031 18.4397 6.23031 21.1897 9.68031 21.8397C10.2303 21.9497 10.7803 21.9997 11.3303 21.9997C13.1403 21.9997 14.8903 21.4397 16.3803 20.3497C18.3203 18.9397 19.6103 16.7797 19.9103 14.4297C19.9603 14.0397 19.8403 13.6497 19.5803 13.3597Z" fill="#292D32"/>
</svg>
