<svg width="25" height="24" viewBox="0 0 25 24" fill="none" xmlns="http://www.w3.org/2000/svg">
<path d="M22.1997 17.31V17.15C22.1997 15.22 21.2197 14.25 19.2997 14.25C17.3797 14.25 16.3997 15.23 16.3997 17.15V17.31C15.3497 17.57 14.9297 18.29 14.9297 19.73V20.47C14.9297 22.32 15.6197 23 17.4597 23H21.1397C22.9897 23 23.6697 22.31 23.6697 20.47V19.73C23.6697 18.3 23.2497 17.57 22.1997 17.31ZM19.2897 15.63C20.5797 15.63 20.8097 16.12 20.8097 17.15V17.2H17.7697V17.15C17.7697 16.12 17.9997 15.63 19.2897 15.63Z" fill="#292D32"/>
<path d="M9.06012 2.16992V8.61993H2.6001V7.93994C2.6001 4.32994 4.75011 2.17993 8.36011 2.17993H9.06012V2.16992Z" fill="#292D32"/>
<path d="M22.4402 7.92993C22.4402 8.30993 22.1303 8.60992 21.7603 8.60992H16.0103V2.15991H16.6803C19.8603 2.16991 22.4402 4.74993 22.4402 7.92993Z" fill="#292D32"/>
<path d="M9.06036 15.5498V21.3098C9.06036 21.6898 8.75034 21.9898 8.38034 21.9898H8.37036C5.19036 21.9898 2.61035 19.4098 2.61035 16.2298V15.5498H9.06036Z" fill="#292D32"/>
<path opacity="0.4" d="M9.07034 8.60986H2.61035V15.5499H9.07034V8.60986Z" fill="#292D32"/>
<path d="M16 8.60986V14.5499C16 15.0999 15.55 15.5499 15 15.5499H9.06006V8.60986H16Z" fill="#292D32"/>
<path opacity="0.4" d="M16 2.16992H9.06006V8.61993H16V2.16992Z" fill="#292D32"/>
</svg>
