<svg width="25" height="24" viewBox="0 0 25 24" fill="none" xmlns="http://www.w3.org/2000/svg">
<path opacity="0.4" d="M22.6699 7.81V12H16.4199V2H16.8599C20.4999 2 22.6699 4.17 22.6699 7.81Z" fill="#292D32"/>
<path d="M22.6699 12V16.19C22.6699 19.83 20.4999 22 16.8599 22H16.4199V12H22.6699Z" fill="#292D32"/>
<path d="M8.91992 12V22H8.47992C4.83992 22 2.66992 19.83 2.66992 16.19V12H8.91992Z" fill="#292D32"/>
<path opacity="0.4" d="M8.47992 2C4.83992 2 2.66992 4.17 2.66992 7.81V12H8.91992V2H8.47992Z" fill="#292D32"/>
<path d="M16.4199 2H8.91992V12H16.4199V2Z" fill="#292D32"/>
<path opacity="0.4" d="M16.4199 12H8.91992V22H16.4199V12Z" fill="#292D32"/>
</svg>
