<svg width="25" height="24" viewBox="0 0 25 24" fill="none" xmlns="http://www.w3.org/2000/svg">
<path d="M21.9999 14.67C20.9499 13.62 20.1198 13.96 19.3998 14.67L15.2499 18.82C15.0899 18.98 14.9398 19.29 14.8998 19.51L14.6699 21.0999C14.5899 21.6699 14.9899 22.08 15.5599 21.99L17.1498 21.76C17.3698 21.73 17.6798 21.5699 17.8398 21.4099L21.9899 17.26C22.7199 16.55 23.0499 15.72 21.9999 14.67Z" fill="#292D32"/>
<path d="M9.06012 2.16992V8.61993H2.6001V7.93994C2.6001 4.32994 4.75011 2.17993 8.36011 2.17993H9.06012V2.16992Z" fill="#292D32"/>
<path d="M22.4402 7.92993C22.4402 8.30993 22.1303 8.60992 21.7603 8.60992H16.0103V2.15991H16.6802C19.8602 2.16991 22.4402 4.74993 22.4402 7.92993Z" fill="#292D32"/>
<path d="M9.06036 15.5498V21.3098C9.06036 21.6898 8.75037 21.9898 8.38037 21.9898H8.37036C5.19036 21.9898 2.61035 19.4098 2.61035 16.2298V15.5498H9.06036Z" fill="#292D32"/>
<path opacity="0.4" d="M9.07037 8.60986H2.61035V15.5499H9.07037V8.60986Z" fill="#292D32"/>
<path d="M16.0001 8.60986V14.5499C16.0001 15.0999 15.5501 15.5499 15.0001 15.5499H9.06006V8.60986H16.0001Z" fill="#292D32"/>
<path opacity="0.4" d="M16.0001 2.16992H9.06006V8.61993H16.0001V2.16992Z" fill="#292D32"/>
</svg>
