<svg width="25" height="24" viewBox="0 0 25 24" fill="none" xmlns="http://www.w3.org/2000/svg">
<path opacity="0.4" d="M12.6396 22C18.1625 22 22.6396 17.5228 22.6396 12C22.6396 6.47715 18.1625 2 12.6396 2C7.1168 2 2.63965 6.47715 2.63965 12C2.63965 17.5228 7.1168 22 12.6396 22Z" fill="#292D32"/>
<path d="M12.6698 19.25C10.5198 19.25 8.4998 18.2 7.2698 16.43C7.0298 16.09 7.1198 15.62 7.4598 15.39C7.7998 15.15 8.2698 15.24 8.4998 15.58C9.4498 16.94 11.0098 17.76 12.6698 17.76C14.3298 17.76 15.8898 16.95 16.8398 15.58C17.0798 15.24 17.5398 15.16 17.8798 15.39C18.2198 15.63 18.2998 16.09 18.0698 16.43C16.8398 18.2 14.8198 19.25 12.6698 19.25Z" fill="#292D32"/>
</svg>
