<svg width="25" height="24" viewBox="0 0 25 24" fill="none" xmlns="http://www.w3.org/2000/svg">
<path opacity="0.4" d="M16.8599 2H8.47992C4.83992 2 2.66992 4.17 2.66992 7.81V16.18C2.66992 19.83 4.83992 22 8.47992 22H16.8499C20.4899 22 22.6599 19.83 22.6599 16.19V7.81C22.6699 4.17 20.4999 2 16.8599 2Z" fill="#292D32"/>
<path d="M19.4899 10.5799C19.8899 10.5799 20.2199 10.25 20.2199 9.84995C20.2199 9.44995 19.8899 9.11995 19.4899 9.11995H15.8799L16.2699 5.61995C16.3099 5.21995 16.0299 4.85995 15.6199 4.80995C15.2199 4.76995 14.8599 5.04995 14.8099 5.45995L14.3999 9.11995H11.5699L11.9599 5.61995C11.9999 5.21995 11.7199 4.85995 11.3099 4.80995C10.9099 4.76995 10.5499 5.04995 10.4999 5.45995L10.0999 9.11995H6.56987C6.16987 9.11995 5.83987 9.44995 5.83987 9.84995C5.83987 10.25 6.16987 10.5799 6.56987 10.5799H9.93987L9.61987 13.43H5.84987C5.44987 13.43 5.11987 13.76 5.11987 14.16C5.11987 14.5599 5.44987 14.89 5.84987 14.89H9.45987L9.06987 18.3899C9.02987 18.7899 9.30987 19.15 9.71987 19.2C9.74987 19.2 9.76987 19.2 9.79987 19.2C10.1699 19.2 10.4799 18.9199 10.5299 18.5499L10.9399 14.89H13.7799L13.3899 18.3899C13.3499 18.7899 13.6299 19.15 14.0399 19.2C14.0699 19.2 14.0899 19.2 14.1199 19.2C14.4899 19.2 14.7999 18.9199 14.8499 18.5499L15.2599 14.89H18.7899C19.1899 14.89 19.5199 14.5599 19.5199 14.16C19.5199 13.76 19.1899 13.43 18.7899 13.43H15.4199L15.7399 10.5799H19.4899ZM13.9299 13.42H11.0899L11.4099 10.5699H14.2499L13.9299 13.42Z" fill="#292D32"/>
</svg>
