<svg width="25" height="24" viewBox="0 0 25 24" fill="none" xmlns="http://www.w3.org/2000/svg">
<path d="M21.3503 13.9099V13.8999C20.4703 12.9699 19.2403 12.3999 17.8703 12.3999C15.2203 12.3999 13.0703 14.5499 13.0703 17.1999C13.0703 18.4299 13.5403 19.5499 14.3003 20.3999C15.1803 21.3799 16.4503 21.9999 17.8703 21.9999C20.5203 21.9999 22.6703 19.8499 22.6703 17.1999C22.6703 15.9299 22.1703 14.7699 21.3503 13.9099ZM19.6603 18.0099H18.6203V19.0999C18.6203 19.5099 18.2803 19.8499 17.8703 19.8499C17.4603 19.8499 17.1203 19.5099 17.1203 19.0999V18.0099H16.0803C15.6603 18.0099 15.3303 17.6799 15.3303 17.2599C15.3303 16.8499 15.6503 16.5199 16.0703 16.5099H17.1203V15.5099C17.1203 15.4899 17.1203 15.4699 17.1303 15.4499C17.1503 15.0699 17.4803 14.7599 17.8703 14.7599C18.2703 14.7599 18.6003 15.0799 18.6203 15.4799V16.5099H19.6603C20.0803 16.5099 20.4103 16.8499 20.4103 17.2599C20.4103 17.6799 20.0803 18.0099 19.6603 18.0099Z" fill="#292D32"/>
<path opacity="0.4" d="M22.6699 8.69009C22.6699 9.88009 22.4799 10.9801 22.1499 12.0001C21.9399 12.6701 21.6699 13.3101 21.3499 13.9001C20.4699 12.9701 19.2399 12.4001 17.8699 12.4001C15.2199 12.4001 13.0699 14.5501 13.0699 17.2001C13.0699 18.4301 13.5399 19.5501 14.2999 20.4001C13.9299 20.5701 13.5899 20.7101 13.2899 20.8101C12.9499 20.9301 12.3899 20.9301 12.0499 20.8101C9.63993 19.9901 4.76994 17.0001 3.18994 12.0001C2.85994 10.9801 2.66992 9.88009 2.66992 8.69009C2.66992 5.60009 5.15992 3.1001 8.22992 3.1001C10.0399 3.1001 11.6599 3.98008 12.6699 5.33008C13.6799 3.98008 15.2999 3.1001 17.1099 3.1001C20.1799 3.1001 22.6699 5.60009 22.6699 8.69009Z" fill="#292D32"/>
</svg>
