<svg width="25" height="24" viewBox="0 0 25 24" fill="none" xmlns="http://www.w3.org/2000/svg">
<path opacity="0.4" d="M12.6699 22C18.1928 22 22.6699 17.5228 22.6699 12C22.6699 6.47715 18.1928 2 12.6699 2C7.14707 2 2.66992 6.47715 2.66992 12C2.66992 17.5228 7.14707 22 12.6699 22Z" fill="#292D32"/>
<path d="M12.9995 16.9999C12.8195 17.0599 12.5095 17.0599 12.3295 16.9999C10.7695 16.4699 7.26953 14.2399 7.26953 10.4599C7.26953 8.78993 8.60953 7.43994 10.2695 7.43994C11.2495 7.43994 12.1195 7.90993 12.6695 8.64993C13.2095 7.91993 14.0895 7.43994 15.0695 7.43994C16.7295 7.43994 18.0695 8.78993 18.0695 10.4599C18.0695 14.2399 14.5695 16.4699 12.9995 16.9999Z" fill="#292D32"/>
</svg>
