<svg width="25" height="24" viewBox="0 0 25 24" fill="none" xmlns="http://www.w3.org/2000/svg">
<path opacity="0.4" d="M17.1099 3.1001C15.2999 3.1001 13.6799 3.98008 12.6699 5.33008C11.6599 3.98008 10.0399 3.1001 8.22992 3.1001C5.15992 3.1001 2.66992 5.60009 2.66992 8.69009C2.66992 9.88009 2.85992 10.9801 3.18992 12.0001C4.76992 17.0001 9.63992 19.9901 12.0499 20.8101C12.3899 20.9301 12.9499 20.9301 13.2899 20.8101C15.6999 19.9901 20.5699 17.0001 22.1499 12.0001C22.4799 10.9801 22.6699 9.88009 22.6699 8.69009C22.6699 5.60009 20.1799 3.1001 17.1099 3.1001Z" fill="#292D32"/>
<path d="M22.4399 20.6797L21.6799 19.9198C22.0799 19.3198 22.3099 18.5997 22.3099 17.8297C22.3099 15.7197 20.5999 14.0098 18.4899 14.0098C16.3799 14.0098 14.6699 15.7197 14.6699 17.8297C14.6699 19.9397 16.3799 21.6497 18.4899 21.6497C19.2599 21.6497 19.9799 21.4197 20.5799 21.0197L21.3399 21.7798C21.4899 21.9298 21.6899 22.0098 21.8899 22.0098C22.0899 22.0098 22.2899 21.9298 22.4399 21.7798C22.7499 21.4698 22.7499 20.9797 22.4399 20.6797Z" fill="#292D32"/>
</svg>
