<svg width="25" height="24" viewBox="0 0 25 24" fill="none" xmlns="http://www.w3.org/2000/svg">
<path d="M22.6699 8.6901C22.6699 9.8801 22.4799 10.9801 22.1499 12.0001H3.18992C2.85992 10.9801 2.66992 9.8801 2.66992 8.6901C2.66992 5.6001 5.15992 3.1001 8.22992 3.1001C10.0399 3.1001 11.6599 3.9801 12.6699 5.3301C13.6799 3.9801 15.2999 3.1001 17.1099 3.1001C20.1799 3.1001 22.6699 5.6001 22.6699 8.6901Z" fill="#292D32"/>
<path opacity="0.4" d="M22.1495 12C20.5695 17 15.6995 19.99 13.2895 20.81C12.9495 20.93 12.3895 20.93 12.0495 20.81C9.63945 19.99 4.76945 17 3.18945 12H22.1495Z" fill="#292D32"/>
</svg>
