<svg width="25" height="24" viewBox="0 0 25 24" fill="none" xmlns="http://www.w3.org/2000/svg">
<path d="M8.16992 17.4V6.6" stroke="#292D32" stroke-width="1.5" stroke-miterlimit="10" stroke-linecap="round" stroke-linejoin="round"/>
<path d="M8.16992 9.756H17.1699" stroke="#292D32" stroke-width="1.5" stroke-miterlimit="10" stroke-linecap="round" stroke-linejoin="round"/>
<path opacity="0.4" d="M12.6699 24C19.2973 24 24.6699 18.6274 24.6699 12C24.6699 5.37258 19.2973 0 12.6699 0C6.0425 0 0.669922 5.37258 0.669922 12C0.669922 18.6274 6.0425 24 12.6699 24Z" fill="#292D32"/>
<path d="M17.17 18.3C16.678 18.3 16.27 17.892 16.27 17.4V6.6C16.27 6.108 16.678 5.7 17.17 5.7C17.662 5.7 18.07 6.108 18.07 6.6V17.4C18.07 17.892 17.662 18.3 17.17 18.3Z" fill="#292D32"/>
<path d="M17.1701 15.144H8.17005C7.67805 15.144 8.27005 14.736 8.27005 14.244C8.27005 13.752 7.67805 13.344 8.17005 13.344H17.1701C17.6621 13.344 18.0701 13.752 18.0701 14.244C18.0701 14.736 17.6621 15.144 17.1701 15.144Z" fill="#292D32"/>
</svg>
