<svg width="25" height="24" viewBox="0 0 25 24" fill="none" xmlns="http://www.w3.org/2000/svg">
<path d="M19.4199 22C21.2148 22 22.6699 20.5449 22.6699 18.75C22.6699 16.9551 21.2148 15.5 19.4199 15.5C17.625 15.5 16.1699 16.9551 16.1699 18.75C16.1699 20.5449 17.625 22 19.4199 22Z" fill="#292D32"/>
<path d="M19.6699 8C21.3268 8 22.6699 6.65685 22.6699 5C22.6699 3.34315 21.3268 2 19.6699 2C18.0131 2 16.6699 3.34315 16.6699 5C16.6699 6.65685 18.0131 8 19.6699 8Z" fill="#292D32"/>
<path d="M5.66992 8C7.32678 8 8.66992 6.65685 8.66992 5C8.66992 3.34315 7.32678 2 5.66992 2C4.01307 2 2.66992 3.34315 2.66992 5C2.66992 6.65685 4.01307 8 5.66992 8Z" fill="#292D32"/>
<path opacity="0.4" d="M5.49983 8.02002C6.46983 10.8 9.08982 12.67 12.0398 12.67C12.0498 12.67 12.0598 12.67 12.0698 12.67L15.5998 12.66C17.1198 12.64 18.4798 13.67 18.8898 15.15V17C18.8898 17.42 19.2298 17.76 19.6498 17.76C20.0698 17.76 20.4098 17.42 20.4098 17V5.78001C20.4098 5.36001 20.0698 5.02002 19.6498 5.02002C19.2298 5.02002 18.8898 5.36001 18.8898 5.78001V12.4C18.0098 11.62 16.8598 11.14 15.6098 11.14C15.5998 11.14 15.5998 11.14 15.5898 11.14L12.0598 11.15C12.0498 11.15 12.0498 11.15 12.0398 11.15C9.74982 11.15 7.69982 9.70001 6.94982 7.53001C6.83982 7.21001 6.53983 7.02002 6.22983 7.02002C6.14983 7.02002 6.05983 7.03001 5.97983 7.06001C5.56983 7.18001 5.35983 7.62002 5.49983 8.02002Z" fill="#292D32"/>
</svg>
