<svg width="25" height="24" viewBox="0 0 25 24" fill="none" xmlns="http://www.w3.org/2000/svg">
<path opacity="0.4" d="M16.8599 2H8.48993C4.84993 2 2.67993 4.17 2.67993 7.81V16.18C2.67993 19.82 4.84993 21.99 8.48993 21.99H16.8599C20.4999 21.99 22.6699 19.82 22.6699 16.18V7.81C22.6699 4.17 20.4999 2 16.8599 2Z" fill="#292D32"/>
<path d="M9.22003 14.55V10.26C10.06 9.95001 10.67 9.15001 10.67 8.20001C10.67 6.99001 9.68003 6 8.47003 6C7.26003 6 6.27002 6.99001 6.27002 8.20001C6.27002 9.15001 6.88003 9.95001 7.72003 10.26V14.55C6.96003 14.85 6.42004 15.59 6.42004 16.45C6.42004 17.58 7.34003 18.5 8.47003 18.5C9.60003 18.5 10.52 17.58 10.52 16.45C10.52 15.59 9.98003 14.85 9.22003 14.55Z" fill="#292D32"/>
<path d="M18.17 14.5499V8.74993C18.17 7.78993 17.38 6.99993 16.42 6.99993H15.29L15.5 6.82991C15.82 6.55991 15.86 6.08992 15.6 5.76992C15.33 5.44992 14.86 5.40994 14.54 5.66994L12.74 7.16994C12.57 7.30994 12.47 7.51993 12.47 7.74993C12.47 7.97993 12.57 8.17991 12.74 8.32991L14.54 9.82991C14.68 9.94991 14.85 9.99993 15.02 9.99993C15.23 9.99993 15.45 9.90994 15.6 9.72994C15.87 9.40994 15.82 8.93994 15.5 8.66994L15.29 8.49993H16.42C16.56 8.49993 16.67 8.60993 16.67 8.74993V14.5499C15.91 14.8499 15.37 15.5899 15.37 16.4499C15.37 17.5799 16.29 18.4999 17.42 18.4999C18.55 18.4999 19.47 17.5799 19.47 16.4499C19.47 15.5899 18.93 14.8499 18.17 14.5499Z" fill="#292D32"/>
</svg>
