<svg width="25" height="24" viewBox="0 0 25 24" fill="none" xmlns="http://www.w3.org/2000/svg">
<path opacity="0.4" d="M20.7102 6.82018L14.9502 2.79018C13.3802 1.69018 10.9702 1.75018 9.46016 2.92018L4.45016 6.83018C3.45016 7.61018 2.66016 9.21018 2.66016 10.4702V17.3702C2.66016 19.9202 4.73016 22.0002 7.28016 22.0002H18.0602C20.6102 22.0002 22.6802 19.9302 22.6802 17.3802V10.6002C22.6802 9.25018 21.8102 7.59018 20.7102 6.82018Z" fill="#292D32"/>
<path d="M17.5006 11.2703C17.4306 11.1003 17.2906 10.9603 17.1206 10.8903C17.0306 10.8503 16.9406 10.8403 16.8506 10.8403H14.9906C14.6006 10.8403 14.2906 11.1503 14.2906 11.5403C14.2906 11.9303 14.6006 12.2403 14.9906 12.2403H15.1706L13.0606 14.3503L12.0406 12.8303C11.9206 12.6603 11.7406 12.5403 11.5306 12.5203C11.3106 12.5003 11.1206 12.5703 10.9706 12.7203L7.99059 15.7003C7.72059 15.9703 7.72059 16.4103 7.99059 16.6903C8.13059 16.8303 8.30059 16.8903 8.48059 16.8903C8.66059 16.8903 8.84059 16.8203 8.97059 16.6903L11.3506 14.3103L12.3706 15.8303C12.4906 16.0003 12.6706 16.1203 12.8806 16.1403C13.1006 16.1603 13.2906 16.0903 13.4406 15.9403L16.1606 13.2203V13.4003C16.1606 13.7903 16.4706 14.1003 16.8606 14.1003C17.2506 14.1003 17.5606 13.7903 17.5606 13.4003V11.5403C17.5506 11.4403 17.5406 11.3503 17.5006 11.2703Z" fill="#292D32"/>
</svg>
