<svg width="25" height="24" viewBox="0 0 25 24" fill="none" xmlns="http://www.w3.org/2000/svg">
<path opacity="0.4" d="M10.7402 2.82003L3.8102 8.37002C3.0302 8.99002 2.53019 10.3 2.70019 11.28L4.03017 19.24C4.27017 20.66 5.63018 21.81 7.07018 21.81H18.2702C19.7002 21.81 21.0702 20.65 21.3102 19.24L22.6402 11.28C22.8002 10.3 22.3002 8.99002 21.5302 8.37002L14.6002 2.83004C13.5302 1.97004 11.8002 1.97003 10.7402 2.82003Z" fill="#292D32"/>
<path d="M14.7905 15.13C14.6005 15.13 14.4205 15.06 14.2705 14.92C13.3005 13.99 12.0405 13.99 11.0605 14.92C10.7605 15.21 10.2904 15.2 10.0004 14.9C9.71045 14.6 9.72047 14.13 10.0205 13.84C11.5705 12.35 13.7405 12.35 15.3005 13.84C15.6005 14.13 15.6105 14.6 15.3205 14.9C15.1905 15.05 14.9905 15.13 14.7905 15.13Z" fill="#292D32"/>
<path d="M16.9103 13.01C16.7203 13.01 16.5303 12.94 16.3903 12.8C15.9203 12.34 15.3903 11.97 14.8303 11.7C13.4303 11.03 11.9003 11.03 10.5103 11.7C9.95029 11.97 9.43029 12.34 8.95029 12.8C8.66029 13.09 8.18029 13.09 7.89029 12.79C7.60029 12.49 7.6103 12.02 7.9003 11.73C8.4903 11.15 9.1503 10.6899 9.8603 10.3499C11.6703 9.47995 13.6703 9.47995 15.4703 10.3499C16.1803 10.6899 16.8403 11.15 17.4303 11.73C17.7303 12.02 17.7303 12.49 17.4403 12.79C17.3003 12.93 17.1103 13.01 16.9103 13.01Z" fill="#292D32"/>
<path d="M12.6705 17.5C12.4105 17.5 12.1605 17.4 11.9605 17.21C11.5705 16.82 11.5705 16.19 11.9605 15.8C12.3505 15.41 12.9905 15.41 13.3805 15.8C13.7705 16.19 13.7705 16.82 13.3805 17.21C13.1805 17.4 12.9305 17.5 12.6705 17.5Z" fill="#292D32"/>
</svg>
