<svg width="25" height="24" viewBox="0 0 25 24" fill="none" xmlns="http://www.w3.org/2000/svg">
<path d="M23.4199 22C23.4199 22.41 23.0799 22.75 22.6699 22.75H2.66992C2.25992 22.75 1.91992 22.41 1.91992 22C1.91992 21.58 2.25992 21.25 2.66992 21.25H22.6699C23.0799 21.25 23.4199 21.58 23.4199 22Z" fill="#292D32"/>
<path opacity="0.4" d="M21.6701 9.98017V21.2502H3.62012L3.67012 9.97016C3.67012 9.36016 3.95012 8.78022 4.44012 8.40022L11.4401 2.96021C12.1601 2.39021 13.1801 2.39021 13.9001 2.96021L20.9001 8.40022C21.3901 8.78022 21.6701 9.36017 21.6701 9.98017Z" fill="#292D32"/>
<path d="M14.1699 8.25H11.1699C10.7599 8.25 10.4199 7.91 10.4199 7.5C10.4199 7.09 10.7599 6.75 11.1699 6.75H14.1699C14.5799 6.75 14.9199 7.09 14.9199 7.5C14.9199 7.91 14.5799 8.25 14.1699 8.25Z" fill="#292D32"/>
<path d="M16.1699 11H9.16992C8.33992 11 7.66992 11.67 7.66992 12.5V22H17.6699V12.5C17.6699 11.67 16.9999 11 16.1699 11ZM11.4199 17.75C11.4199 18.16 11.0799 18.5 10.6699 18.5C10.2599 18.5 9.91992 18.16 9.91992 17.75V16.25C9.91992 15.84 10.2599 15.5 10.6699 15.5C11.0799 15.5 11.4199 15.84 11.4199 16.25V17.75Z" fill="#292D32"/>
</svg>
