<svg width="25" height="24" viewBox="0 0 25 24" fill="none" xmlns="http://www.w3.org/2000/svg">
<path opacity="0.58" d="M24.6699 0H0.669922V24H24.6699V0Z" fill="white"/>
<path opacity="0.4" d="M4.79001 2H20.56C21.16 2 21.62 2.52 21.55 3.11L19.75 19.33C19.71 19.73 19.42 20.07 19.03 20.18L12.95 21.92C12.77 21.97 12.58 21.97 12.4 21.92L6.32004 20.18C5.93004 20.07 5.65001 19.73 5.60001 19.33L3.80002 3.11C3.73002 2.52 4.19001 2 4.79001 2Z" fill="#292D32"/>
<path d="M12.4197 18C12.3497 18 12.2797 17.99 12.2097 17.97L8.70972 16.97C8.38972 16.88 8.16975 16.58 8.16975 16.25V14.25C8.16975 13.84 8.50975 13.5 8.91975 13.5C9.32975 13.5 9.66975 13.84 9.66975 14.25V15.68L12.4197 16.47L15.2197 15.67L15.5897 12H8.91975C8.53975 12 8.21975 11.71 8.16975 11.33L7.66975 6.83C7.64975 6.62 7.70975 6.41 7.85975 6.25C7.99975 6.09 8.20975 6 8.41975 6H16.9197C17.3297 6 17.6697 6.34 17.6697 6.75C17.6697 7.16 17.3297 7.5 16.9197 7.5H9.25977L9.58973 10.5H16.4197C16.6297 10.5 16.8297 10.59 16.9797 10.75C17.1197 10.91 17.1897 11.12 17.1697 11.33L16.6697 16.33C16.6397 16.64 16.4298 16.89 16.1298 16.98L12.6298 17.98C12.5598 17.99 12.4897 18 12.4197 18Z" fill="#292D32"/>
</svg>
