<svg width="25" height="24" viewBox="0 0 25 24" fill="none" xmlns="http://www.w3.org/2000/svg">
<path opacity="0.58" d="M24.6699 0H0.669922V24H24.6699V0Z" fill="white"/>
<path opacity="0.4" d="M11.6599 2.60001L5.15991 6.42001C4.54991 6.78001 4.16992 7.44001 4.16992 8.14001V15.85C4.16992 16.56 4.54991 17.21 5.15991 17.57L11.6599 21.39C12.2899 21.76 13.0599 21.76 13.6899 21.39L20.1899 17.57C20.7999 17.21 21.1799 16.55 21.1799 15.85V8.14001C21.1799 7.43001 20.7999 6.78001 20.1899 6.42001L13.6899 2.60001C13.0599 2.23001 12.2799 2.23001 11.6599 2.60001Z" fill="#292D32"/>
<path d="M18.0599 14.36L15.45 12.79L15.7099 12.53C15.9999 12.24 15.9999 11.76 15.7099 11.47C15.4199 11.18 14.9399 11.18 14.6499 11.47L14.1299 11.99L12.3299 10.91L12.7099 10.53C12.9999 10.24 12.9999 9.76 12.7099 9.47C12.4199 9.18 11.9399 9.18 11.6499 9.47L10.9999 10.12L9.12994 9L12.6699 6.87L17.2799 9.64C17.6399 9.85 18.0999 9.74 18.3099 9.38C18.5199 9.03 18.4099 8.56 18.0499 8.35L13.0499 5.35C12.8099 5.21 12.5099 5.21 12.2799 5.35L7.27991 8.35C7.04991 8.49 6.91992 8.73 6.91992 8.99C6.91992 9.25 7.05991 9.5 7.27991 9.63L9.88989 11.2L9.62994 11.46C9.33994 11.75 9.33994 12.23 9.62994 12.52C9.77994 12.67 9.96991 12.74 10.1599 12.74C10.3499 12.74 10.5399 12.67 10.6899 12.52L11.2099 12L13.0099 13.08L12.6299 13.46C12.3399 13.75 12.3399 14.23 12.6299 14.52C12.7799 14.67 12.9699 14.74 13.1599 14.74C13.3499 14.74 13.5399 14.67 13.6899 14.52L14.3399 13.87L16.2 14.99L12.6699 17.13L8.05994 14.36C7.69994 14.15 7.23991 14.26 7.02991 14.62C6.81991 14.98 6.92992 15.44 7.28992 15.65L12.2899 18.65C12.4099 18.72 12.5399 18.76 12.6799 18.76C12.8199 18.76 12.9499 18.72 13.0699 18.65L18.0699 15.65C18.2999 15.51 18.4299 15.27 18.4299 15.01C18.4299 14.75 18.2799 14.49 18.0599 14.36Z" fill="#292D32"/>
</svg>
