<svg width="25" height="24" viewBox="0 0 25 24" fill="none" xmlns="http://www.w3.org/2000/svg">
<path opacity="0.58" d="M24.6699 0H0.669922V24H24.6699V0Z" fill="white"/>
<path opacity="0.4" d="M4.79001 2H20.56C21.16 2 21.62 2.52 21.55 3.11L19.75 19.33C19.71 19.73 19.42 20.07 19.03 20.18L12.95 21.92C12.77 21.97 12.58 21.97 12.4 21.92L6.32004 20.18C5.93004 20.07 5.65001 19.73 5.60001 19.33L3.80002 3.11C3.73002 2.52 4.19001 2 4.79001 2Z" fill="#292D32"/>
<path d="M11.2898 16.7399C11.2198 16.7399 11.1497 16.7299 11.0797 16.7099L7.95975 15.8099C7.55975 15.6899 7.3298 15.2799 7.4498 14.8799C7.5598 14.4799 7.9798 14.2599 8.3798 14.3699L10.5398 14.9899V7.00993C10.5398 6.59993 10.8798 6.25993 11.2898 6.25993C11.6998 6.25993 12.0398 6.59993 12.0398 7.00993V15.9799C12.0398 16.2199 11.9298 16.4399 11.7398 16.5799C11.6098 16.6799 11.4498 16.7399 11.2898 16.7399Z" fill="#292D32"/>
<path d="M13.5701 16.7499C13.2301 16.7499 12.93 16.5199 12.84 16.1799C12.74 15.7799 12.98 15.3699 13.39 15.2699L16.42 14.5099V12.8099L14.1301 13.1399C13.9101 13.1699 13.7 13.1099 13.53 12.9599C13.37 12.8199 13.27 12.6099 13.27 12.3899V7.44994C13.27 7.07994 13.54 6.75994 13.91 6.70994L17.06 6.25994C17.47 6.19994 17.85 6.48994 17.91 6.89994C17.97 7.30994 17.68 7.68994 17.27 7.74994L14.77 8.09994V11.5299L17.06 11.1999C17.28 11.1699 17.49 11.2299 17.66 11.3799C17.82 11.5199 17.92 11.7299 17.92 11.9499V15.0999C17.92 15.4399 17.69 15.7399 17.35 15.8299L13.75 16.7299C13.69 16.7399 13.6301 16.7499 13.5701 16.7499Z" fill="#292D32"/>
</svg>
