<svg width="25" height="24" viewBox="0 0 25 24" fill="none" xmlns="http://www.w3.org/2000/svg">
<path d="M17.6699 22.75H7.66992C7.25992 22.75 6.91992 22.41 6.91992 22C6.91992 21.59 7.25992 21.25 7.66992 21.25H17.6699C18.0799 21.25 18.4199 21.59 18.4199 22C18.4199 22.41 18.0799 22.75 17.6699 22.75Z" fill="#292D32"/>
<path opacity="0.4" d="M18.6699 19H6.66992C4.45992 19 2.66992 17.21 2.66992 15V6C2.66992 3.79 4.45992 2 6.66992 2H18.6699C20.8799 2 22.6699 3.79 22.6699 6V15C22.6699 17.21 20.8799 19 18.6699 19Z" fill="#292D32"/>
<path d="M17.93 9.07007H14.25C13.84 9.07007 13.5 8.73007 13.5 8.32007C13.5 7.91007 13.84 7.57007 14.25 7.57007H17.93C18.34 7.57007 18.68 7.91007 18.68 8.32007C18.68 8.73007 18.35 9.07007 17.93 9.07007Z" fill="#292D32"/>
<path d="M10.6699 9.32007C10.1199 9.32007 9.66992 8.87007 9.66992 8.32007C9.66992 7.77007 10.1099 7.32007 10.6699 7.32007C11.2199 7.32007 11.6699 7.77007 11.6699 8.32007C11.6699 8.87007 11.2299 9.32007 10.6699 9.32007Z" fill="#292D32"/>
<path d="M7.52002 9.32007C6.97002 9.32007 6.52002 8.87007 6.52002 8.32007C6.52002 7.77007 6.96002 7.32007 7.52002 7.32007H7.53001C8.08001 7.32007 8.53001 7.77007 8.53001 8.32007C8.53001 8.87007 8.07002 9.32007 7.52002 9.32007Z" fill="#292D32"/>
<path d="M17.9301 14.8599H7.42015C7.01015 14.8599 6.66016 14.5199 6.66016 14.1099C6.66016 13.6999 6.99015 13.3599 7.40015 13.3599H17.9301C18.3401 13.3599 18.6801 13.6999 18.6801 14.1099C18.6801 14.5199 18.3501 14.8599 17.9301 14.8599Z" fill="#292D32"/>
</svg>
