<svg width="25" height="24" viewBox="0 0 25 24" fill="none" xmlns="http://www.w3.org/2000/svg">
<path opacity="0.4" d="M18.8795 14.69H6.45955C4.79955 14.69 3.79955 13.38 4.23955 11.78L6.43955 3.7C6.68955 2.77 7.69955 2 8.65955 2H16.6795C17.6395 2 18.6495 2.77 18.8995 3.7L21.0995 11.78C21.5395 13.38 20.5395 14.69 18.8795 14.69Z" fill="#292D32"/>
<path d="M17.4199 21.2499C17.4199 21.6599 17.0799 21.9999 16.6699 21.9999H8.66992C8.25992 21.9999 7.91992 21.6599 7.91992 21.2499C7.91992 20.8399 8.25992 20.4999 8.66992 20.4999H11.9199V14.6899H13.4199V20.4999H16.6699C17.0799 20.4999 17.4199 20.8399 17.4199 21.2499Z" fill="#292D32"/>
</svg>
