<svg width="25" height="24" viewBox="0 0 25 24" fill="none" xmlns="http://www.w3.org/2000/svg">
<path opacity="0.4" d="M19.8801 6.36001C18.8401 4.26001 16.8301 2.71001 14.5001 2.20001C12.0601 1.66001 9.56014 2.24001 7.65014 3.78001C5.73014 5.31001 4.64014 7.60001 4.64014 10.05C4.64014 12.64 6.19014 15.35 8.53014 16.92V17.75C8.52014 18.03 8.51014 18.46 8.85014 18.81C9.20014 19.17 9.72014 19.21 10.1301 19.21H15.2601C15.8001 19.21 16.2101 19.06 16.4901 18.78C16.8701 18.39 16.8601 17.89 16.8501 17.62V16.92C19.9501 14.83 21.9001 10.42 19.8801 6.36001Z" fill="#292D32"/>
<path d="M15.9301 21.9999C15.8701 21.9999 15.8001 21.9899 15.7401 21.9699C13.7301 21.3999 11.6201 21.3999 9.61008 21.9699C9.24008 22.0699 8.85008 21.8599 8.75008 21.4899C8.64008 21.1199 8.86008 20.7299 9.23008 20.6299C11.4901 19.9899 13.8701 19.9899 16.1301 20.6299C16.5001 20.7399 16.7201 21.1199 16.6101 21.4899C16.5101 21.7999 16.2301 21.9999 15.9301 21.9999Z" fill="#292D32"/>
<path d="M12.6698 13.8499C12.5398 13.8499 12.4098 13.8199 12.2998 13.7499C11.9398 13.5399 11.8198 13.0799 12.0198 12.7299L12.8698 11.2499H12.0298C11.5298 11.2499 11.1198 11.0299 10.8998 10.6599C10.6798 10.2799 10.6998 9.8199 10.9498 9.3799L12.0198 7.5199C12.2298 7.1599 12.6898 7.0399 13.0398 7.2399C13.3998 7.4499 13.5198 7.9099 13.3198 8.2599L12.4698 9.7499H13.3098C13.8098 9.7499 14.2198 9.9699 14.4398 10.3399C14.6598 10.7199 14.6398 11.1799 14.3898 11.6199L13.3198 13.4799C13.1798 13.7199 12.9298 13.8499 12.6698 13.8499Z" fill="#292D32"/>
</svg>
