<svg width="25" height="24" viewBox="0 0 25 24" fill="none" xmlns="http://www.w3.org/2000/svg">
<path opacity="0.4" d="M12.6719 22C18.1947 22 22.6719 17.5228 22.6719 12C22.6719 6.47715 18.1947 2 12.6719 2C7.14903 2 2.67188 6.47715 2.67188 12C2.67188 17.5228 7.14903 22 12.6719 22Z" fill="#292D32"/>
<path d="M17.6721 15.97C16.3621 15.97 15.1121 15.37 14.1121 14.26C15.1021 12.99 15.7421 11.42 15.8821 9.70004H17.6621C18.0721 9.70004 18.4121 9.36004 18.4121 8.95004C18.4121 8.54004 18.0721 8.20004 17.6621 8.20004H15.2321C15.2121 8.20004 15.1921 8.19003 15.1721 8.19003C15.1521 8.19003 15.1321 8.20004 15.1121 8.20004H13.4221V7.27002C13.4221 6.86002 13.0821 6.52002 12.6721 6.52002C12.2621 6.52002 11.9221 6.86002 11.9221 7.27002V8.20004H7.68213C7.27213 8.20004 6.93213 8.54004 6.93213 8.95004C6.93213 9.36004 7.27213 9.70004 7.68213 9.70004H12.6721H14.3721C14.0021 13.22 11.1421 15.97 7.66211 15.97C7.25211 15.97 6.91211 16.31 6.91211 16.72C6.91211 17.13 7.25211 17.47 7.66211 17.47C9.73211 17.47 11.6221 16.67 13.0721 15.36C14.3421 16.72 15.9521 17.47 17.6621 17.47C18.0721 17.47 18.4121 17.13 18.4121 16.72C18.4121 16.31 18.0821 15.97 17.6721 15.97Z" fill="#292D32"/>
</svg>
