<svg width="25" height="24" viewBox="0 0 25 24" fill="none" xmlns="http://www.w3.org/2000/svg">
<path opacity="0.4" d="M12.6699 22C18.1928 22 22.6699 17.5228 22.6699 12C22.6699 6.47715 18.1928 2 12.6699 2C7.14707 2 2.66992 6.47715 2.66992 12C2.66992 17.5228 7.14707 22 12.6699 22Z" fill="#292D32"/>
<path d="M12.6699 14.25C13.9126 14.25 14.9199 13.2426 14.9199 12C14.9199 10.7574 13.9126 9.75 12.6699 9.75C11.4273 9.75 10.4199 10.7574 10.4199 12C10.4199 13.2426 11.4273 14.25 12.6699 14.25Z" fill="#292D32"/>
<path d="M7.66992 12.75H5.66992C5.25992 12.75 4.91992 12.41 4.91992 12C4.91992 11.59 5.25992 11.25 5.66992 11.25H7.66992C8.07992 11.25 8.41992 11.59 8.41992 12C8.41992 12.41 8.07992 12.75 7.66992 12.75Z" fill="#292D32"/>
<path d="M19.6699 12.75H17.6699C17.2599 12.75 16.9199 12.41 16.9199 12C16.9199 11.59 17.2599 11.25 17.6699 11.25H19.6699C20.0799 11.25 20.4199 11.59 20.4199 12C20.4199 12.41 20.0799 12.75 19.6699 12.75Z" fill="#292D32"/>
</svg>
