<svg width="25" height="24" viewBox="0 0 25 24" fill="none" xmlns="http://www.w3.org/2000/svg">
<path opacity="0.4" d="M18.6699 18.8597H17.9099C17.1099 18.8597 16.3499 19.1697 15.7899 19.7297L14.0799 21.4197C13.2999 22.1897 12.0299 22.1897 11.2499 21.4197L9.53992 19.7297C8.97992 19.1697 8.20992 18.8597 7.41992 18.8597H6.66992C5.00992 18.8597 3.66992 17.5298 3.66992 15.8898V4.97974C3.66992 3.33974 5.00992 2.00977 6.66992 2.00977H18.6699C20.3299 2.00977 21.6699 3.33974 21.6699 4.97974V15.8898C21.6699 17.5198 20.3299 18.8597 18.6699 18.8597Z" fill="#292D32"/>
<path d="M17.2504 9.56974C17.0604 9.29974 16.7404 9.14976 16.3604 9.14976H14.4104C14.2804 9.14976 14.1604 9.09973 14.0804 8.99973C14.0004 8.89973 13.9604 8.76974 13.9804 8.62974L14.2204 7.06974C14.3204 6.60974 14.0104 6.07973 13.5504 5.92973C13.1204 5.76973 12.6104 5.98971 12.4104 6.28971L10.4704 9.16972V8.80973C10.4704 8.10973 10.1704 7.81974 9.43039 7.81974H8.9404C8.2004 7.81974 7.90039 8.10973 7.90039 8.80973V13.5898C7.90039 14.2898 8.2004 14.5798 8.9404 14.5798H9.43039C10.1304 14.5798 10.4304 14.3097 10.4604 13.6697L11.9304 14.7997C12.1304 14.9997 12.5804 15.1097 12.9004 15.1097H14.7504C15.3904 15.1097 16.0304 14.6297 16.1704 14.0397L17.3404 10.4797C17.4704 10.1597 17.4404 9.82974 17.2504 9.56974Z" fill="#292D32"/>
</svg>
