<svg width="25" height="24" viewBox="0 0 25 24" fill="none" xmlns="http://www.w3.org/2000/svg">
<path opacity="0.4" d="M11.4198 2.44982C12.1098 1.85982 13.2398 1.85982 13.9398 2.44982L15.5198 3.80981C15.8198 4.06981 16.3798 4.27984 16.7798 4.27984H18.4798C19.5398 4.27984 20.4098 5.14983 20.4098 6.20983V7.90979C20.4098 8.29979 20.6198 8.86979 20.8798 9.1698L22.2398 10.7498C22.8298 11.4398 22.8298 12.5698 22.2398 13.2698L20.8798 14.8498C20.6198 15.1498 20.4098 15.7098 20.4098 16.1098V17.8098C20.4098 18.8698 19.5398 19.7398 18.4798 19.7398H16.7798C16.3898 19.7398 15.8198 19.9498 15.5198 20.2098L13.9398 21.5698C13.2498 22.1598 12.1198 22.1598 11.4198 21.5698L9.83982 20.2098C9.53982 19.9498 8.97981 19.7398 8.57981 19.7398H6.84979C5.78979 19.7398 4.9198 18.8698 4.9198 17.8098V16.0998C4.9198 15.7098 4.70981 15.1498 4.45981 14.8498L3.1098 13.2598C2.5298 12.5698 2.5298 11.4498 3.1098 10.7598L4.45981 9.1698C4.70981 8.86979 4.9198 8.30979 4.9198 7.9198V6.20983C4.9198 5.14983 5.78979 4.27984 6.84979 4.27984H8.57981C8.96981 4.27984 9.53982 4.06981 9.83982 3.80981L11.4198 2.44982Z" fill="#292D32"/>
<path d="M17.2504 11.0697C17.0604 10.7997 16.7404 10.6498 16.3604 10.6498H14.4104C14.2804 10.6498 14.1604 10.5997 14.0804 10.4997C14.0004 10.3997 13.9604 10.2697 13.9804 10.1297L14.2204 8.56974C14.3204 8.10974 14.0104 7.57973 13.5504 7.42973C13.1204 7.26973 12.6104 7.48971 12.4104 7.78971L10.4704 10.6697V10.3097C10.4704 9.60973 10.1704 9.31974 9.43039 9.31974H8.94037C8.20037 9.31974 7.90039 9.60973 7.90039 10.3097V15.0898C7.90039 15.7898 8.20037 16.0798 8.94037 16.0798H9.43039C10.1304 16.0798 10.4304 15.8097 10.4604 15.1697L11.9304 16.2997C12.1304 16.4997 12.5804 16.6097 12.9004 16.6097H14.7504C15.3904 16.6097 16.0304 16.1297 16.1704 15.5397L17.3404 11.9797C17.4704 11.6597 17.4404 11.3297 17.2504 11.0697Z" fill="#292D32"/>
</svg>
