<svg width="25" height="24" viewBox="0 0 25 24" fill="none" xmlns="http://www.w3.org/2000/svg">
<path opacity="0.4" d="M12.6719 22C18.1947 22 22.6719 17.5228 22.6719 12C22.6719 6.47715 18.1947 2 12.6719 2C7.14903 2 2.67188 6.47715 2.67188 12C2.67188 17.5228 7.14903 22 12.6719 22Z" fill="#292D32"/>
<path d="M8.61161 15.2599C8.52161 15.2599 8.4416 15.2499 8.3516 15.2099C7.5416 14.9099 6.86161 14.3199 6.43161 13.5499C5.43161 11.7499 6.05162 9.39992 7.80162 8.30992L10.1416 6.85991C11.0016 6.32991 12.0116 6.16994 12.9716 6.41994C13.9316 6.66994 14.7416 7.29992 15.2316 8.17992C16.2316 9.97992 15.6116 12.3299 13.8616 13.4199L13.6016 13.6099C13.2616 13.8499 12.7916 13.7699 12.5516 13.4399C12.3116 13.0999 12.3916 12.6299 12.7216 12.3899L13.0316 12.1699C14.1516 11.4699 14.5316 10.0199 13.9216 8.90993C13.6316 8.38993 13.1616 8.01992 12.6016 7.86992C12.0416 7.71992 11.4516 7.80993 10.9416 8.12993L8.6016 9.57991C7.5216 10.2499 7.14161 11.6999 7.75161 12.8199C8.00161 13.2699 8.40162 13.6199 8.88162 13.7999C9.27162 13.9399 9.47161 14.3699 9.32161 14.7599C9.21161 15.0699 8.92161 15.2599 8.61161 15.2599Z" fill="#292D32"/>
<path d="M13.3318 17.65C13.0318 17.65 12.7218 17.61 12.4218 17.53C11.4618 17.28 10.6518 16.65 10.1718 15.77C9.17184 13.97 9.79184 11.62 11.5418 10.53L11.8018 10.34C12.1418 10.1 12.6118 10.18 12.8518 10.51C13.0918 10.85 13.0118 11.32 12.6818 11.56L12.3718 11.78C11.2518 12.48 10.8718 13.93 11.4818 15.04C11.7718 15.56 12.2418 15.93 12.8018 16.08C13.3618 16.23 13.9518 16.14 14.4618 15.82L16.8018 14.37C17.8818 13.7 18.2618 12.25 17.6518 11.13C17.4018 10.68 17.0019 10.33 16.5219 10.15C16.1319 10.01 15.9318 9.57999 16.0818 9.18999C16.2218 8.79999 16.6618 8.59999 17.0418 8.74999C17.8518 9.04999 18.5318 9.63999 18.9618 10.41C19.9618 12.21 19.3418 14.56 17.5918 15.65L15.2518 17.1C14.6618 17.46 14.0018 17.65 13.3318 17.65Z" fill="#292D32"/>
</svg>
