<svg width="25" height="24" viewBox="0 0 25 24" fill="none" xmlns="http://www.w3.org/2000/svg">
<path d="M24.6699 0H0.669922V24H24.6699V0Z" fill="white"/>
<path opacity="0.4" d="M12.6699 22C18.1928 22 22.6699 17.5228 22.6699 12C22.6699 6.47715 18.1928 2 12.6699 2C7.14707 2 2.66992 6.47715 2.66992 12C2.66992 17.5228 7.14707 22 12.6699 22Z" fill="#292D32"/>
<path d="M13.4498 6.35999C14.1098 6.35999 14.5898 6.97999 14.4198 7.61999L12.6298 14.3H15.6598C16.2798 14.3 16.7598 14.86 16.6398 15.48L16.4898 16.32C16.3998 16.8 15.9898 17.14 15.5098 17.14H9.96981C9.30981 17.14 8.82982 16.5 9.00982 15.87L11.6198 6.72999C11.6798 6.51999 11.8798 6.36999 12.0998 6.36999H13.4498V6.35999Z" fill="#292D32"/>
<path d="M7.99006 13.27C7.64006 13.27 7.33005 13.02 7.26005 12.67C7.18005 12.26 7.44005 11.87 7.85005 11.79L15.5501 10.25C15.9501 10.17 16.3501 10.43 16.4301 10.84C16.5101 11.25 16.2501 11.64 15.8401 11.72L8.14005 13.26C8.09005 13.27 8.04006 13.27 7.99006 13.27Z" fill="#292D32"/>
</svg>
