<svg width="25" height="24" viewBox="0 0 25 24" fill="none" xmlns="http://www.w3.org/2000/svg">
<path opacity="0.4" d="M21.2897 8.7C20.2497 4.07 16.2097 2 12.6697 2C12.6697 2 12.6697 2 12.6597 2C9.12967 2 5.09967 4.07 4.04967 8.69C2.86967 13.85 6.02967 18.22 8.88967 20.98C9.94967 22 11.3097 22.51 12.6697 22.51C14.0297 22.51 15.3897 22 16.4397 20.98C19.2997 18.22 22.4597 13.86 21.2897 8.7Z" fill="#292D32"/>
<path d="M11.4204 13.7499C11.2304 13.7499 11.0404 13.6799 10.8904 13.5299L9.39035 12.0299C9.10035 11.7399 9.10035 11.2599 9.39035 10.9699C9.68035 10.6799 10.1604 10.6799 10.4504 10.9699L11.4204 11.9399L14.8904 8.46994C15.1804 8.17994 15.6604 8.17994 15.9504 8.46994C16.2404 8.75994 16.2404 9.23994 15.9504 9.52994L11.9504 13.5299C11.8004 13.6799 11.6104 13.7499 11.4204 13.7499Z" fill="#292D32"/>
</svg>
