<svg width="25" height="24" viewBox="0 0 25 24" fill="none" xmlns="http://www.w3.org/2000/svg">
<path opacity="0.4" d="M21.2897 8.7C20.2497 4.07 16.2097 2 12.6697 2C12.6697 2 12.6697 2 12.6597 2C9.12967 2 5.09967 4.07 4.04967 8.69C2.86967 13.85 6.02967 18.22 8.88967 20.98C9.94967 22 11.3097 22.51 12.6697 22.51C14.0297 22.51 15.3897 22 16.4397 20.98C19.2997 18.22 22.4597 13.86 21.2897 8.7Z" fill="#292D32"/>
<path d="M15.4199 10.25H13.4199V8.25C13.4199 7.84 13.0799 7.5 12.6699 7.5C12.2599 7.5 11.9199 7.84 11.9199 8.25V10.25H9.91992C9.50992 10.25 9.16992 10.59 9.16992 11C9.16992 11.41 9.50992 11.75 9.91992 11.75H11.9199V13.75C11.9199 14.16 12.2599 14.5 12.6699 14.5C13.0799 14.5 13.4199 14.16 13.4199 13.75V11.75H15.4199C15.8299 11.75 16.1699 11.41 16.1699 11C16.1699 10.59 15.8299 10.25 15.4199 10.25Z" fill="#292D32"/>
</svg>
