<svg width="25" height="24" viewBox="0 0 25 24" fill="none" xmlns="http://www.w3.org/2000/svg">
<path opacity="0.4" d="M12.67 17.3498C13.5703 17.3498 14.3 16.6201 14.3 15.7198C14.3 14.8196 13.5703 14.0898 12.67 14.0898C11.7698 14.0898 11.04 14.8196 11.04 15.7198C11.04 16.6201 11.7698 17.3498 12.67 17.3498Z" fill="#292D32"/>
<path d="M17.3199 9.43994H8.01992C3.91992 9.43994 2.66992 10.6899 2.66992 14.7899V16.6499C2.66992 20.7499 3.91992 21.9999 8.01992 21.9999H17.3199C21.4199 21.9999 22.6699 20.7499 22.6699 16.6499V14.7899C22.6699 10.6899 21.4199 9.43994 17.3199 9.43994ZM12.6699 18.7399C10.9999 18.7399 9.64992 17.3799 9.64992 15.7199C9.64992 14.0599 10.9999 12.6999 12.6699 12.6999C14.3399 12.6999 15.6899 14.0599 15.6899 15.7199C15.6899 17.3799 14.3399 18.7399 12.6699 18.7399Z" fill="#292D32"/>
<path opacity="0.4" d="M7.79014 9.45V8.28C7.79014 5.35 8.62014 3.4 12.6701 3.4C16.7201 3.4 17.5501 5.35 17.5501 8.28V9.45C18.0601 9.46 18.5201 9.48 18.9501 9.54V8.28C18.9501 5.58 18.3001 2 12.6701 2C7.04014 2 6.39014 5.58 6.39014 8.28V9.53C6.81014 9.48 7.28014 9.45 7.79014 9.45Z" fill="#292D32"/>
</svg>
