<svg width="25" height="24" viewBox="0 0 25 24" fill="none" xmlns="http://www.w3.org/2000/svg">
<path d="M14.2997 15.72C14.2997 16.62 13.5697 17.35 12.6697 17.35C12.0297 17.35 11.4797 16.98 11.2197 16.45L13.3997 14.27C13.9297 14.53 14.2997 15.08 14.2997 15.72Z" fill="#292D32"/>
<path opacity="0.4" d="M8.01992 9.43994C3.91992 9.43994 2.66992 10.6899 2.66992 14.7899V16.6499C2.66992 18.6999 2.97992 20.0399 3.80992 20.8599L9.76992 14.8999C10.0499 13.8899 10.8399 13.0999 11.8499 12.8199L15.2299 9.43994H8.01992Z" fill="#292D32"/>
<path d="M18.8001 5.87L17.5401 7.13C17.5001 5.35 16.8301 3.4 12.6701 3.4C8.62014 3.4 7.79014 5.35 7.79014 8.28V9.45C7.28014 9.45 6.81014 9.48 6.39014 9.53V8.28C6.39014 5.58 7.04014 2 12.6701 2C16.2101 2 18.2701 3.3 18.8001 5.87Z" fill="#292D32"/>
<path opacity="0.4" d="M22.6698 14.79V16.65C22.6698 20.75 21.4198 22 17.3198 22H8.01984C7.17984 22 6.44984 21.95 5.83984 21.83L10.1998 17.47C10.7598 18.24 11.6498 18.74 12.6698 18.74C14.3398 18.74 15.6898 17.39 15.6898 15.72C15.6898 14.7 15.1898 13.81 14.4198 13.25L18.2098 9.45996C21.5998 9.64996 22.6698 11 22.6698 14.79Z" fill="#292D32"/>
<path d="M22.4398 2.22988C22.1398 1.92988 21.6498 1.92988 21.3498 2.22988L2.8998 20.6899C2.5998 20.9899 2.5998 21.4799 2.8998 21.7799C3.0498 21.9199 3.2398 21.9999 3.4398 21.9999C3.6398 21.9999 3.8298 21.9199 3.9798 21.7699L22.4398 3.30988C22.7498 3.00988 22.7498 2.52988 22.4398 2.22988Z" fill="#292D32"/>
</svg>
