<svg width="25" height="24" viewBox="0 0 25 24" fill="none" xmlns="http://www.w3.org/2000/svg">
<path opacity="0.4" d="M11.4298 2C10.9498 2 10.5698 2.38 10.5698 2.86V21.15C10.5698 21.62 10.9498 22.01 11.4298 22.01C17.3198 22.01 21.4298 17.9 21.4298 12.01C21.4298 6.12 17.3098 2 11.4298 2Z" fill="#292D32"/>
<path d="M16.5702 11.54L13.7302 8.69003C13.4402 8.40003 12.9602 8.40003 12.6702 8.69003C12.3802 8.98003 12.3802 9.46003 12.6702 9.75003L14.2302 11.31H4.66016C4.25016 11.31 3.91016 11.65 3.91016 12.06C3.91016 12.47 4.25016 12.81 4.66016 12.81H14.2302L12.6702 14.38C12.3802 14.67 12.3802 15.15 12.6702 15.44C12.8202 15.59 13.0102 15.66 13.2002 15.66C13.3902 15.66 13.5802 15.59 13.7302 15.44L16.5702 12.59C16.8702 12.3 16.8702 11.83 16.5702 11.54Z" fill="#292D32"/>
</svg>
