<svg width="25" height="24" viewBox="0 0 25 24" fill="none" xmlns="http://www.w3.org/2000/svg">
<path opacity="0.4" d="M13.9102 2C14.3802 2 14.7702 2.38 14.7702 2.86V21.15C14.7702 21.62 14.3902 22.01 13.9102 22.01C8.02016 22.01 3.91016 17.9 3.91016 12.01C3.91016 6.12 8.03016 2 13.9102 2Z" fill="#292D32"/>
<path d="M21.2098 11.54L18.3698 8.69003C18.0798 8.40003 17.5998 8.40003 17.3098 8.69003C17.0198 8.98003 17.0198 9.46003 17.3098 9.75003L18.8698 11.31H9.2998C8.8898 11.31 8.5498 11.65 8.5498 12.06C8.5498 12.47 8.8898 12.81 9.2998 12.81H18.8698L17.3098 14.37C17.0198 14.66 17.0198 15.14 17.3098 15.43C17.4598 15.58 17.6498 15.65 17.8398 15.65C18.0298 15.65 18.2198 15.58 18.3698 15.43L21.2098 12.58C21.4998 12.3 21.4998 11.83 21.2098 11.54Z" fill="#292D32"/>
</svg>
