<svg width="25" height="24" viewBox="0 0 25 24" fill="none" xmlns="http://www.w3.org/2000/svg">
<path opacity="0.4" d="M20.5299 8.09009C20.5299 8.24009 20.5299 8.39009 20.5199 8.53009C18.9899 7.96009 17.1899 8.31009 15.9899 9.39009C15.1799 8.66009 14.1299 8.25009 13.0099 8.25009C10.5499 8.25009 8.54993 10.2601 8.54993 12.7401C8.54993 15.5701 9.96993 17.6401 11.3299 18.9801C11.2199 18.9701 11.1299 18.9501 11.0499 18.9201C8.45993 18.0301 2.66992 14.3501 2.66992 8.09009C2.66992 5.33009 4.88991 3.1001 7.62991 3.1001C9.25991 3.1001 10.6999 3.88009 11.5999 5.09009C12.5099 3.88009 13.9499 3.1001 15.5699 3.1001C18.3099 3.1001 20.5299 5.33009 20.5299 8.09009Z" fill="#292D32"/>
<path d="M18.6698 9.58984C17.5998 9.58984 16.6298 10.1099 16.0298 10.9099C15.4298 10.1099 14.4698 9.58984 13.3898 9.58984C11.5698 9.58984 10.0898 11.0699 10.0898 12.9099C10.0898 13.6199 10.1998 14.2698 10.3998 14.8698C11.3398 17.8398 14.2298 19.6099 15.6598 20.0999C15.8598 20.1699 16.1898 20.1699 16.3998 20.0999C17.8298 19.6099 20.7198 17.8398 21.6598 14.8698C21.8598 14.2598 21.9698 13.6099 21.9698 12.9099C21.9698 11.0699 20.4898 9.58984 18.6698 9.58984Z" fill="#292D32"/>
</svg>
