<svg width="25" height="24" viewBox="0 0 25 24" fill="none" xmlns="http://www.w3.org/2000/svg">
<path d="M17.9602 4.13998L17.8902 7.92998C17.8802 8.44998 18.2102 9.13998 18.6302 9.44998L21.1102 11.33C22.7002 12.53 22.4402 14 20.5402 14.6L17.3102 15.61C16.7702 15.78 16.2002 16.37 16.0602 16.92L15.2902 19.86C14.6802 22.18 13.1602 22.41 11.9002 20.37L10.1402 17.52C9.82016 17 9.06016 16.61 8.46017 16.64L5.1202 16.81C2.7302 16.93 2.05019 15.55 3.61019 13.73L5.59017 11.43C5.96017 11 6.13017 10.2 5.96017 9.65999L4.95022 6.42998C4.36022 4.52998 5.4202 3.47999 7.3102 4.09999L10.2602 5.06999C10.7602 5.22999 11.5102 5.11998 11.9302 4.80998L15.0102 2.58998C16.6702 1.38998 18.0002 2.08998 17.9602 4.13998Z" fill="#292D32"/>
<path opacity="0.4" d="M22.1103 20.4702L19.0802 17.4402C18.7902 17.1502 18.3102 17.1502 18.0202 17.4402C17.7302 17.7302 17.7302 18.2102 18.0202 18.5002L21.0503 21.5302C21.2003 21.6802 21.3902 21.7502 21.5802 21.7502C21.7702 21.7502 21.9603 21.6802 22.1103 21.5302C22.4003 21.2402 22.4003 20.7602 22.1103 20.4702Z" fill="#292D32"/>
</svg>
