<svg width="25" height="24" viewBox="0 0 25 24" fill="none" xmlns="http://www.w3.org/2000/svg">
<path opacity="0.4" d="M21.6199 14.55L18.9499 17.22L17.8899 18.28L15.2199 20.95C13.8199 22.35 11.5199 22.35 10.1199 20.95L7.44993 18.28L6.38994 17.22L3.71992 14.55C2.31992 13.15 2.31992 10.85 3.71992 9.45002L6.38994 6.78001L7.44993 5.72001L10.1199 3.05C11.5199 1.65 13.8199 1.65 15.2199 3.05L17.8899 5.72001L18.9499 6.78001L21.6199 9.45002C23.0199 10.85 23.0199 13.15 21.6199 14.55Z" fill="#292D32"/>
<path d="M13.7296 12L18.9496 17.22L17.8896 18.28L12.6696 13.06L7.44965 18.28L6.38965 17.22L11.6096 12L6.38965 6.77997L7.44965 5.71997L12.6696 10.94L17.8896 5.71997L18.9496 6.77997L13.7296 12Z" fill="#292D32"/>
</svg>
