<svg width="25" height="24" viewBox="0 0 25 24" fill="none" xmlns="http://www.w3.org/2000/svg">
<path opacity="0.4" d="M16.8599 2H8.47992C4.83992 2 2.66992 4.17 2.66992 7.81V16.18C2.66992 19.83 4.83992 22 8.47992 22H16.8499C20.4899 22 22.6599 19.83 22.6599 16.19V7.81C22.6699 4.17 20.4999 2 16.8599 2Z" fill="#292D32"/>
<path d="M11.1699 8.81006H6.66992C6.25992 8.81006 5.91992 8.47006 5.91992 8.06006C5.91992 7.65006 6.25992 7.31006 6.66992 7.31006H11.1699C11.5799 7.31006 11.9199 7.65006 11.9199 8.06006C11.9199 8.47006 11.5799 8.81006 11.1699 8.81006Z" fill="#292D32"/>
<path d="M18.6699 14.8101H14.1699C13.7599 14.8101 13.4199 14.4701 13.4199 14.0601C13.4199 13.6501 13.7599 13.3101 14.1699 13.3101H18.6699C19.0799 13.3101 19.4199 13.6501 19.4199 14.0601C19.4199 14.4701 19.0799 14.8101 18.6699 14.8101Z" fill="#292D32"/>
<path d="M18.6699 18.5601H14.1699C13.7599 18.5601 13.4199 18.2201 13.4199 17.8101C13.4199 17.4001 13.7599 17.0601 14.1699 17.0601H18.6699C19.0799 17.0601 19.4199 17.4001 19.4199 17.8101C19.4199 18.2201 19.0799 18.5601 18.6699 18.5601Z" fill="#292D32"/>
<path d="M18.6699 7.31006H17.1899V5.81006C17.1899 5.40006 16.8499 5.06006 16.4399 5.06006C16.0299 5.06006 15.6899 5.40006 15.6899 5.81006V7.31006H14.1699C13.7599 7.31006 13.4199 7.65006 13.4199 8.06006C13.4199 8.47006 13.7599 8.81006 14.1699 8.81006H15.6899V10.3101C15.6899 10.7201 16.0299 11.0601 16.4399 11.0601C16.8499 11.0601 17.1899 10.7201 17.1899 10.3101V8.81006H18.6699C19.0799 8.81006 19.4199 8.47006 19.4199 8.06006C19.4199 7.65006 19.0799 7.31006 18.6699 7.31006Z" fill="#292D32"/>
<path d="M9.98035 15.94L11.7004 14.22C11.9904 13.93 11.9904 13.45 11.7004 13.16C11.4104 12.87 10.9304 12.87 10.6404 13.16L8.92035 14.88L7.20035 13.16C6.91035 12.87 6.43035 12.87 6.14035 13.16C5.85035 13.45 5.85035 13.93 6.14035 14.22L7.86035 15.94L6.14035 17.66C5.85035 17.95 5.85035 18.43 6.14035 18.72C6.29035 18.87 6.48035 18.94 6.67035 18.94C6.86035 18.94 7.05035 18.87 7.20035 18.72L8.92035 17L10.6404 18.72C10.7904 18.87 10.9804 18.94 11.1704 18.94C11.3604 18.94 11.5504 18.87 11.7004 18.72C11.9904 18.43 11.9904 17.95 11.7004 17.66L9.98035 15.94Z" fill="#292D32"/>
</svg>
