<svg width="25" height="24" viewBox="0 0 25 24" fill="none" xmlns="http://www.w3.org/2000/svg">
<path d="M22.3596 2.71002C22.2796 2.53002 22.1396 2.37999 21.9496 2.29999C21.8596 2.25999 21.7596 2.23999 21.6596 2.23999H17.6596C17.2496 2.23999 16.9096 2.57999 16.9096 2.98999C16.9096 3.39999 17.2496 3.73999 17.6596 3.73999H19.8496L15.1296 8.46002C14.8396 8.75002 14.8396 9.23002 15.1296 9.52002C15.2796 9.67002 15.4696 9.73999 15.6596 9.73999C15.8496 9.73999 16.0396 9.67002 16.1896 9.52002L20.9096 4.79999V7C20.9096 7.41 21.2496 7.75 21.6596 7.75C22.0696 7.75 22.4096 7.41 22.4096 7V3C22.4196 2.9 22.3996 2.81002 22.3596 2.71002Z" fill="#292D32"/>
<path d="M9.13989 14.4699L4.41992 19.19V17C4.41992 16.59 4.07992 16.25 3.66992 16.25C3.25992 16.25 2.91992 16.59 2.91992 17V21C2.91992 21.1 2.93992 21.19 2.97992 21.29C3.05992 21.47 3.19989 21.62 3.38989 21.7C3.47989 21.74 3.57993 21.76 3.67993 21.76H7.67993C8.08993 21.76 8.42993 21.42 8.42993 21.01C8.42993 20.6 8.08993 20.26 7.67993 20.26H5.48993L10.2099 15.54C10.4999 15.25 10.4999 14.77 10.2099 14.48C9.9199 14.19 9.42989 14.1799 9.13989 14.4699Z" fill="#292D32"/>
<path opacity="0.4" d="M2.86993 14.75C2.51993 14.75 2.20989 14.5 2.13989 14.15C1.99989 13.45 1.91992 12.72 1.91992 12C1.91992 6.07 6.73992 1.25 12.6699 1.25C13.3999 1.25 14.1299 1.31997 14.8399 1.46997C15.2499 1.54997 15.5099 1.94998 15.4299 2.34998C15.3499 2.75998 14.9399 3.01 14.5499 2.94C13.9399 2.82 13.3099 2.75 12.6799 2.75C7.57993 2.75 3.42993 6.9 3.42993 12C3.42993 12.62 3.48993 13.25 3.61993 13.85C3.69993 14.26 3.43991 14.65 3.02991 14.73C2.96991 14.75 2.91993 14.75 2.86993 14.75Z" fill="#292D32"/>
<path opacity="0.4" d="M12.67 22.75C11.94 22.75 11.21 22.68 10.5 22.53C10.09 22.45 9.82995 22.05 9.90995 21.65C9.98995 21.24 10.4 20.99 10.79 21.06C11.4 21.18 12.03 21.25 12.66 21.25C17.7599 21.25 21.91 17.1 21.91 12C21.91 11.38 21.85 10.76 21.73 10.15C21.65 9.74 21.91 9.35 22.32 9.27C22.73 9.19 23.12 9.44996 23.2 9.85996C23.34 10.56 23.41 11.28 23.41 12C23.42 17.93 18.6 22.75 12.67 22.75Z" fill="#292D32"/>
</svg>
