<svg width="25" height="24" viewBox="0 0 25 24" fill="none" xmlns="http://www.w3.org/2000/svg">
<path opacity="0.4" d="M19.6699 9C19.6699 10.45 19.2399 11.78 18.4999 12.89C17.4199 14.49 15.7099 15.62 13.7199 15.91C13.3799 15.97 13.0299 16 12.6699 16C12.3099 16 11.9599 15.97 11.6199 15.91C9.62992 15.62 7.91992 14.49 6.83992 12.89C6.09992 11.78 5.66992 10.45 5.66992 9C5.66992 5.13 8.79992 2 12.6699 2C16.5399 2 19.6699 5.13 19.6699 9Z" fill="#292D32"/>
<path d="M21.92 18.4699L20.27 18.8599C19.9 18.9499 19.61 19.2299 19.53 19.5999L19.18 21.0699C18.99 21.8699 17.97 22.1099 17.44 21.4799L12.67 15.9999L7.9 21.4899C7.37 22.1199 6.35 21.8799 6.16 21.0799L5.81 19.6099C5.72 19.2399 5.43 18.9499 5.07 18.8699L3.42 18.4799C2.66 18.2999 2.39 17.3499 2.94 16.7999L6.84 12.8999C7.92 14.4999 9.63 15.6299 11.62 15.9199C11.96 15.9799 12.31 16.0099 12.67 16.0099C13.03 16.0099 13.38 15.9799 13.72 15.9199C15.71 15.6299 17.42 14.4999 18.5 12.8999L22.4 16.7999C22.95 17.3399 22.68 18.2899 21.92 18.4699Z" fill="#292D32"/>
<path d="M13.2499 5.98L13.8399 7.15999C13.9199 7.31999 14.1299 7.48 14.3199 7.51L15.3899 7.68999C16.0699 7.79999 16.2299 8.3 15.7399 8.79L14.9099 9.61998C14.7699 9.75998 14.6899 10.03 14.7399 10.23L14.9799 11.26C15.1699 12.07 14.7399 12.39 14.0199 11.96L13.0199 11.37C12.8399 11.26 12.5399 11.26 12.3599 11.37L11.3599 11.96C10.6399 12.38 10.2099 12.07 10.3999 11.26L10.6399 10.23C10.6799 10.04 10.6099 9.75998 10.4699 9.61998L9.6399 8.79C9.1499 8.3 9.30989 7.80999 9.98989 7.68999L11.0599 7.51C11.2399 7.48 11.4499 7.31999 11.5299 7.15999L12.1199 5.98C12.4099 5.34 12.9299 5.34 13.2499 5.98Z" fill="#292D32"/>
</svg>
