<svg width="25" height="24" viewBox="0 0 25 24" fill="none" xmlns="http://www.w3.org/2000/svg">
<path opacity="0.4" d="M22.6599 6.01996C22.6799 6.25996 22.6599 6.50995 22.5999 6.75995L19.2299 20.2899C18.9899 21.2999 18.0899 21.9999 17.0499 21.9999H3.90991C2.39991 21.9999 1.32992 20.5199 1.76992 19.0699L5.97991 5.53992C6.26991 4.59992 7.13993 3.95996 8.11993 3.95996H20.4199C21.3799 3.95996 22.1599 4.52996 22.4899 5.32996C22.5899 5.53996 22.6399 5.77996 22.6599 6.01996Z" fill="#292D32"/>
<path d="M23.6598 19.62C23.7598 20.91 22.7398 22 21.4498 22H17.0498C18.0898 22 18.9898 21.3 19.2298 20.29L22.5998 6.76001C22.6598 6.51001 22.6798 6.26002 22.6598 6.02002L22.6698 6L23.6598 19.62Z" fill="#292D32"/>
<path d="M10.3499 7.13001C10.2899 7.13001 10.2299 7.11999 10.1699 7.10999C9.76994 7.00999 9.51995 6.61002 9.61995 6.20002L10.6599 1.88001C10.7599 1.48001 11.1599 1.24002 11.5699 1.33002C11.9699 1.43002 12.22 1.83 12.12 2.24L11.0799 6.56C10.9999 6.9 10.6899 7.13001 10.3499 7.13001Z" fill="#292D32"/>
<path d="M17.0499 7.14005C16.9999 7.14005 16.9399 7.14003 16.8899 7.12003C16.4899 7.03003 16.2299 6.63001 16.3099 6.23001L17.2498 1.89005C17.3398 1.48005 17.7399 1.23003 18.1399 1.31003C18.5399 1.40003 18.7998 1.80004 18.7198 2.20004L17.7798 6.54001C17.7098 6.90001 17.3999 7.14005 17.0499 7.14005Z" fill="#292D32"/>
<path d="M16.3699 12.75H8.36987C7.95987 12.75 7.61987 12.41 7.61987 12C7.61987 11.59 7.95987 11.25 8.36987 11.25H16.3699C16.7799 11.25 17.1199 11.59 17.1199 12C17.1199 12.41 16.7799 12.75 16.3699 12.75Z" fill="#292D32"/>
<path d="M15.3699 16.75H7.36987C6.95987 16.75 6.61987 16.41 6.61987 16C6.61987 15.59 6.95987 15.25 7.36987 15.25H15.3699C15.7799 15.25 16.1199 15.59 16.1199 16C16.1199 16.41 15.7799 16.75 15.3699 16.75Z" fill="#292D32"/>
</svg>
