<svg width="25" height="24" viewBox="0 0 25 24" fill="none" xmlns="http://www.w3.org/2000/svg">
<path opacity="0.4" d="M18.6499 10.79V14.79C18.6499 15.05 18.6399 15.3 18.6099 15.54C18.3799 18.24 16.7899 19.58 13.8599 19.58H13.4599C13.2099 19.58 12.9699 19.7 12.8199 19.9L11.6199 21.5C11.0899 22.21 10.2299 22.21 9.69992 21.5L8.49991 19.9C8.36991 19.73 8.07992 19.58 7.85992 19.58H7.45993C4.26993 19.58 2.66992 18.79 2.66992 14.79V10.79C2.66992 7.86001 4.01993 6.27001 6.70993 6.04001C6.94993 6.01001 7.19993 6 7.45993 6H13.8599C17.0499 6 18.6499 7.60001 18.6499 10.79Z" fill="#292D32"/>
<path d="M10.6602 14C10.1002 14 9.66016 13.55 9.66016 13C9.66016 12.45 10.1102 12 10.6602 12C11.2102 12 11.6602 12.45 11.6602 13C11.6602 13.55 11.2202 14 10.6602 14Z" fill="#292D32"/>
<path d="M14.1602 14C13.6002 14 13.1602 13.55 13.1602 13C13.1602 12.45 13.6102 12 14.1602 12C14.7102 12 15.1602 12.45 15.1602 13C15.1602 13.55 14.7102 14 14.1602 14Z" fill="#292D32"/>
<path d="M7.16992 14C6.60992 14 6.16992 13.55 6.16992 13C6.16992 12.45 6.61992 12 7.16992 12C7.71992 12 8.16992 12.45 8.16992 13C8.16992 13.55 7.71992 14 7.16992 14Z" fill="#292D32"/>
<path d="M22.65 6.79001V10.79C22.65 13.73 21.3 15.31 18.61 15.54C18.64 15.3 18.65 15.05 18.65 14.79V10.79C18.65 7.60001 17.05 6 13.86 6H7.45996C7.19996 6 6.94996 6.01001 6.70996 6.04001C6.93996 3.35001 8.52996 2 11.46 2H17.86C21.05 2 22.65 3.60001 22.65 6.79001Z" fill="#292D32"/>
</svg>
