<svg width="25" height="24" viewBox="0 0 25 24" fill="none" xmlns="http://www.w3.org/2000/svg">
<path opacity="0.4" d="M7.66992 18.4299H11.6699L16.1199 21.39C16.7799 21.83 17.6699 21.3599 17.6699 20.5599V18.4299C20.6699 18.4299 22.6699 16.4299 22.6699 13.4299V7.42993C22.6699 4.42993 20.6699 2.42993 17.6699 2.42993H7.66992C4.66992 2.42993 2.66992 4.42993 2.66992 7.42993V13.4299C2.66992 16.4299 4.66992 18.4299 7.66992 18.4299Z" fill="#292D32"/>
<path d="M16.1699 11.25H9.16992C8.75992 11.25 8.41992 10.91 8.41992 10.5C8.41992 10.09 8.75992 9.75 9.16992 9.75H16.1699C16.5799 9.75 16.9199 10.09 16.9199 10.5C16.9199 10.91 16.5799 11.25 16.1699 11.25Z" fill="#292D32"/>
</svg>
