<svg width="25" height="24" viewBox="0 0 25 24" fill="none" xmlns="http://www.w3.org/2000/svg">
<path opacity="0.58" d="M24.6699 0H0.669922V24H24.6699V0Z" fill="white"/>
<path opacity="0.4" d="M6.35016 18.44V20.29C6.35016 21.06 7.17015 21.54 7.84015 21.16L9.7002 20.11C10.6402 20.38 11.6302 20.52 12.6602 20.52C18.1802 20.52 22.6602 16.37 22.6602 11.26C22.6602 6.14999 18.1802 2 12.6602 2C7.14016 2 2.66016 6.14999 2.66016 11.26C2.67016 14.15 4.11016 16.74 6.35016 18.44Z" fill="#292D32"/>
<path d="M11.69 9.55993L9.14996 12.5799C8.83996 12.9499 9.17996 13.4999 9.64996 13.3899L11.66 12.8999C11.79 12.8699 11.92 12.8899 12.03 12.9499L13.04 13.5399C13.25 13.6599 13.52 13.6199 13.67 13.4299L16.17 10.4399C16.48 10.0699 16.13 9.50993 15.66 9.63993L13.84 10.1099C13.72 10.1399 13.59 10.1299 13.48 10.0699L12.3 9.44993C12.1 9.32993 11.84 9.37993 11.69 9.55993Z" fill="#292D32"/>
</svg>
