<svg width="25" height="24" viewBox="0 0 25 24" fill="none" xmlns="http://www.w3.org/2000/svg">
<path opacity="0.4" d="M22.6699 7.42993V13.4299C22.6699 14.9299 22.1699 16.1799 21.2899 17.0599C20.4199 17.9299 19.1699 18.4299 17.6699 18.4299V20.5599C17.6699 21.3599 16.7799 21.84 16.1199 21.4L11.6699 18.4299H9.54993C9.62993 18.1299 9.66992 17.8199 9.66992 17.4999C9.66992 16.4799 9.27992 15.54 8.63992 14.83C7.91992 14.01 6.84992 13.4999 5.66992 13.4999C4.54992 13.4999 3.52993 13.96 2.79993 14.71C2.70993 14.31 2.66992 13.8799 2.66992 13.4299V7.42993C2.66992 4.42993 4.66992 2.42993 7.66992 2.42993H17.6699C20.6699 2.42993 22.6699 4.42993 22.6699 7.42993Z" fill="#292D32"/>
<path d="M16.1699 11.25H9.16992C8.75992 11.25 8.41992 10.91 8.41992 10.5C8.41992 10.09 8.75992 9.75 9.16992 9.75H16.1699C16.5799 9.75 16.9199 10.09 16.9199 10.5C16.9199 10.91 16.5799 11.25 16.1699 11.25Z" fill="#292D32"/>
<path d="M8.63992 14.83C7.91992 14.01 6.84992 13.5 5.66992 13.5C3.45992 13.5 1.66992 15.29 1.66992 17.5C1.66992 18.25 1.87991 18.96 2.24991 19.56C2.44991 19.9 2.70992 20.21 3.00992 20.47C3.70992 21.11 4.63992 21.5 5.66992 21.5C7.12992 21.5 8.39994 20.72 9.08994 19.56C9.45994 18.96 9.66992 18.25 9.66992 17.5C9.66992 16.48 9.27992 15.54 8.63992 14.83ZM7.26993 19.08C7.11993 19.23 6.92993 19.3 6.73993 19.3C6.54993 19.3 6.35993 19.23 6.20993 19.08L5.67993 18.55L5.12991 19.1C4.97991 19.25 4.78991 19.32 4.59991 19.32C4.40991 19.32 4.21992 19.25 4.06992 19.1C3.77992 18.81 3.77992 18.33 4.06992 18.04L4.61993 17.49L4.08994 16.96C3.79994 16.67 3.79994 16.19 4.08994 15.9C4.37994 15.61 4.85993 15.61 5.14993 15.9L5.67993 16.43L6.17993 15.93C6.46993 15.64 6.94993 15.64 7.23993 15.93C7.52993 16.22 7.52993 16.7 7.23993 16.99L6.73993 17.49L7.26993 18.02C7.55993 18.31 7.55993 18.78 7.26993 19.08Z" fill="#292D32"/>
</svg>
