<svg width="25" height="24" viewBox="0 0 25 24" fill="none" xmlns="http://www.w3.org/2000/svg">
<path opacity="0.4" d="M2.66992 12.97V6.99C2.66992 4.23 4.90992 2 7.66992 2H17.6699C20.4299 2 22.6699 4.23 22.6699 6.99V13.97C22.6699 16.72 20.4299 18.95 17.6699 18.95H16.1699C15.8599 18.95 15.5599 19.1 15.3699 19.35L13.8699 21.34C13.2099 22.22 12.1299 22.22 11.4699 21.34L9.96992 19.35C9.80992 19.13 9.44992 18.95 9.16992 18.95H7.66992C4.90992 18.95 2.66992 16.72 2.66992 13.97V12.97Z" fill="#292D32"/>
<path d="M12.6699 12C12.1099 12 11.6699 11.55 11.6699 11C11.6699 10.45 12.1199 10 12.6699 10C13.2199 10 13.6699 10.45 13.6699 11C13.6699 11.55 13.2299 12 12.6699 12Z" fill="#292D32"/>
<path d="M16.6699 12C16.1099 12 15.6699 11.55 15.6699 11C15.6699 10.45 16.1199 10 16.6699 10C17.2199 10 17.6699 10.45 17.6699 11C17.6699 11.55 17.2299 12 16.6699 12Z" fill="#292D32"/>
<path d="M8.66992 12C8.10992 12 7.66992 11.55 7.66992 11C7.66992 10.45 8.11992 10 8.66992 10C9.21992 10 9.66992 10.45 9.66992 11C9.66992 11.55 9.22992 12 8.66992 12Z" fill="#292D32"/>
</svg>
