<svg width="25" height="24" viewBox="0 0 25 24" fill="none" xmlns="http://www.w3.org/2000/svg">
<path opacity="0.4" d="M16.6699 2H8.66992C4.66992 2 2.66992 4 2.66992 8V21C2.66992 21.55 3.11992 22 3.66992 22H16.6699C20.6699 22 22.6699 20 22.6699 16V8C22.6699 4 20.6699 2 16.6699 2Z" fill="#292D32"/>
<path d="M16.1699 11.25H13.4199V8.5C13.4199 8.09 13.0799 7.75 12.6699 7.75C12.2599 7.75 11.9199 8.09 11.9199 8.5V11.25H9.16992C8.75992 11.25 8.41992 11.59 8.41992 12C8.41992 12.41 8.75992 12.75 9.16992 12.75H11.9199V15.5C11.9199 15.91 12.2599 16.25 12.6699 16.25C13.0799 16.25 13.4199 15.91 13.4199 15.5V12.75H16.1699C16.5799 12.75 16.9199 12.41 16.9199 12C16.9199 11.59 16.5799 11.25 16.1699 11.25Z" fill="#292D32"/>
</svg>
