<svg width="25" height="24" viewBox="0 0 25 24" fill="none" xmlns="http://www.w3.org/2000/svg">
<path opacity="0.4" d="M22.6699 7.42993V13.4299C22.6699 14.9299 22.1699 16.1799 21.2899 17.0599C20.4199 17.9299 19.1699 18.4299 17.6699 18.4299V20.5599C17.6699 21.3599 16.7799 21.84 16.1199 21.4L11.6699 18.4299H9.54993C9.62993 18.1299 9.66992 17.8199 9.66992 17.4999C9.66992 16.4799 9.27992 15.54 8.63992 14.83C7.91992 14.01 6.84992 13.4999 5.66992 13.4999C4.54992 13.4999 3.52993 13.96 2.79993 14.71C2.70993 14.31 2.66992 13.8799 2.66992 13.4299V7.42993C2.66992 4.42993 4.66992 2.42993 7.66992 2.42993H17.6699C20.6699 2.42993 22.6699 4.42993 22.6699 7.42993Z" fill="#292D32"/>
<path d="M16.1699 11.25H9.16992C8.75992 11.25 8.41992 10.91 8.41992 10.5C8.41992 10.09 8.75992 9.75 9.16992 9.75H16.1699C16.5799 9.75 16.9199 10.09 16.9199 10.5C16.9199 10.91 16.5799 11.25 16.1699 11.25Z" fill="#292D32"/>
<path d="M5.66992 13.5C4.72992 13.5 3.85992 13.83 3.16992 14.38C2.24992 15.11 1.66992 16.24 1.66992 17.5C1.66992 19.71 3.45992 21.5 5.66992 21.5C6.67992 21.5 7.59994 21.12 8.30994 20.5C9.13994 19.77 9.66992 18.7 9.66992 17.5C9.66992 15.29 7.87992 13.5 5.66992 13.5ZM6.66992 17.75C6.66992 18.01 6.52994 18.26 6.30994 18.39L5.05994 19.14C4.93994 19.21 4.80992 19.25 4.66992 19.25C4.41992 19.25 4.16991 19.12 4.02991 18.89C3.81991 18.53 3.92992 18.07 4.28992 17.86L5.17993 17.33V16.25C5.17993 15.84 5.51993 15.5 5.92993 15.5C6.33993 15.5 6.67993 15.84 6.67993 16.25V17.75H6.66992Z" fill="#292D32"/>
</svg>
