<svg width="25" height="24" viewBox="0 0 25 24" fill="none" xmlns="http://www.w3.org/2000/svg">
<path d="M18.6699 15V19C18.6699 20.65 17.3199 22 15.6699 22H9.66992C8.01992 22 6.66992 20.65 6.66992 19V13.98L10.5599 14C11.2899 14 12.0099 14.17 12.6699 14.5C13.3299 14.83 14.0499 15 14.7899 15H18.6699Z" fill="#292D32"/>
<path opacity="0.4" d="M18.6699 10.83V15H14.7899C14.0499 15 13.3299 14.83 12.6699 14.5C12.0099 14.17 11.2899 14 10.5599 14L6.66992 13.98V10.83C6.66992 10.37 6.92995 9.74003 7.25995 9.41003L9.37994 7.29003C9.55994 7.11003 9.66992 6.85003 9.66992 6.59003V4.91003C9.82992 4.97003 9.98992 5.00003 10.1699 5.00003H15.1699C15.3499 5.00003 15.5099 4.97003 15.6699 4.91003V6.59003C15.6699 6.85003 15.7799 7.11003 15.9599 7.29003L18.0799 9.41003C18.4099 9.74003 18.6699 10.37 18.6699 10.83Z" fill="#292D32"/>
<path d="M15.1699 2H10.1699C9.33992 2 8.66992 2.67 8.66992 3.5C8.66992 4.15 9.08992 4.71 9.66992 4.91C9.82992 4.97 9.98992 5 10.1699 5H15.1699C15.3499 5 15.5099 4.97 15.6699 4.91C16.2499 4.71 16.6699 4.15 16.6699 3.5C16.6699 2.67 15.9999 2 15.1699 2Z" fill="#292D32"/>
</svg>
