<svg width="25" height="24" viewBox="0 0 25 24" fill="none" xmlns="http://www.w3.org/2000/svg">
<path opacity="0.4" d="M2.66992 9V8C2.66992 5.24 4.90992 3 7.66992 3H17.6699C20.4299 3 22.6699 5.24 22.6699 8V16C22.6699 18.76 20.4299 21 17.6699 21H16.6699H7.66992C4.90992 21 2.66992 18.76 2.66992 16V9Z" fill="#292D32"/>
<path d="M16.8101 15.44C16.4401 15.44 16.1201 15.16 16.0701 14.79C15.6401 11.41 13.1801 8.95003 9.80015 8.52003C9.39015 8.47003 9.10014 8.09001 9.15014 7.68001C9.20014 7.27001 9.58015 6.98002 9.99015 7.03002C14.0601 7.55002 17.0301 10.52 17.5601 14.6C17.6101 15.01 17.3201 15.39 16.9101 15.44C16.8801 15.44 16.8501 15.44 16.8101 15.44Z" fill="#292D32"/>
<path d="M14.1098 16.3C13.7398 16.3 13.4198 16.02 13.3698 15.65C13.0598 13.27 11.3298 11.53 8.93979 11.22C8.52979 11.17 8.23978 10.79 8.28978 10.38C8.33978 9.96998 8.7198 9.67997 9.1298 9.72997C12.2098 10.13 14.4598 12.37 14.8598 15.46C14.9098 15.87 14.6198 16.25 14.2098 16.3C14.1798 16.3 14.1398 16.3 14.1098 16.3Z" fill="#292D32"/>
<path d="M11.06 16.81C10.69 16.81 10.37 16.53 10.32 16.16C10.19 15.14 9.45001 14.4 8.43001 14.27C8.02001 14.22 7.73002 13.84 7.78002 13.43C7.83002 13.02 8.21002 12.73 8.62002 12.78C10.31 13 11.59 14.28 11.81 15.97C11.86 16.38 11.57 16.76 11.16 16.81C11.13 16.81 11.09 16.81 11.06 16.81Z" fill="#292D32"/>
</svg>
