<svg width="25" height="24" viewBox="0 0 25 24" fill="none" xmlns="http://www.w3.org/2000/svg">
<path d="M18.6699 13C15.9099 13 13.6699 15.24 13.6699 18C13.6699 20.76 15.9099 23 18.6699 23C21.4299 23 23.6699 20.76 23.6699 18C23.6699 15.24 21.4299 13 18.6699 13ZM17.8299 19.27C18.0799 19.52 18.0799 19.93 17.8299 20.19C17.6999 20.32 17.5399 20.38 17.3699 20.38C17.1999 20.38 17.0399 20.32 16.9099 20.19L15.1799 18.46C14.9299 18.21 14.9299 17.8 15.1799 17.54L16.9099 15.81C17.1599 15.56 17.5699 15.56 17.8299 15.81C18.0799 16.06 18.0799 16.47 17.8299 16.73L16.5599 18L17.8299 19.27ZM22.1499 18.46L20.4199 20.19C20.2899 20.32 20.1299 20.38 19.9599 20.38C19.7899 20.38 19.6299 20.32 19.4999 20.19C19.2499 19.94 19.2499 19.53 19.4999 19.27L20.7699 18L19.4999 16.73C19.2499 16.48 19.2499 16.07 19.4999 15.81C19.7499 15.56 20.1599 15.56 20.4199 15.81L22.1499 17.54C22.3999 17.8 22.3999 18.2 22.1499 18.46Z" fill="#292D32"/>
<path opacity="0.4" d="M21.6699 7V14C20.8399 13.37 19.7999 13 18.6699 13C15.9099 13 13.6699 15.24 13.6699 18C13.6699 19.63 14.4599 21.09 15.6699 22H8.66992C5.16992 22 3.66992 20 3.66992 17V7C3.66992 4 5.16992 2 8.66992 2H9.59991L9.63992 3.53003C9.65992 4.34003 10.3299 5 11.1399 5H14.1699C14.9899 5 15.6699 4.32 15.6699 3.5V2H16.6699C20.1699 2 21.6699 4 21.6699 7Z" fill="#292D32"/>
<path d="M15.6701 2V3.5C15.6701 4.32 14.9901 5 14.1701 5H11.1401C10.3301 5 9.66011 4.34003 9.64011 3.53003L9.6001 2H15.6701Z" fill="#292D32"/>
</svg>
