<svg width="25" height="24" viewBox="0 0 25 24" fill="none" xmlns="http://www.w3.org/2000/svg">
<path opacity="0.4" d="M22.6719 9V15H21.6719C18.6719 15 17.6719 16 17.6719 19V20.5H7.67188V19C7.67188 16 6.67188 15 3.67188 15H2.67188V9H3.67188C6.67188 9 7.67188 8 7.67188 5V3.5H17.6719V5C17.6719 8 18.6719 9 21.6719 9H22.6719Z" fill="#292D32"/>
<path d="M12.6719 15C14.3287 15 15.6719 13.6569 15.6719 12C15.6719 10.3431 14.3287 9 12.6719 9C11.015 9 9.67188 10.3431 9.67188 12C9.67188 13.6569 11.015 15 12.6719 15Z" fill="#292D32"/>
<path d="M7.67188 3.5V5C7.67188 8 6.67188 9 3.67188 9H2.67188V8.5C2.67188 5 4.67188 3.5 7.67188 3.5Z" fill="#292D32"/>
<path d="M22.6719 8.5V9H21.6719C18.6719 9 17.6719 8 17.6719 5V3.5C20.6719 3.5 22.6719 5 22.6719 8.5Z" fill="#292D32"/>
<path d="M7.67188 19V20.5C4.67188 20.5 2.67188 19 2.67188 15.5V15H3.67188C6.67188 15 7.67188 16 7.67188 19Z" fill="#292D32"/>
<path d="M22.6719 15V15.5C22.6719 19 20.6719 20.5 17.6719 20.5V19C17.6719 16 18.6719 15 21.6719 15H22.6719Z" fill="#292D32"/>
</svg>
