<svg width="25" height="24" viewBox="0 0 25 24" fill="none" xmlns="http://www.w3.org/2000/svg">
<path opacity="0.4" d="M19.4795 6.24998H20.8395C20.6495 5.97998 20.4495 5.72998 20.2395 5.47998L19.4795 6.24998Z" fill="#292D32"/>
<path opacity="0.4" d="M19.1899 4.41994C18.9399 4.20994 18.6899 4.00995 18.4199 3.81995V5.17995L19.1899 4.41994Z" fill="#292D32"/>
<path opacity="0.4" d="M17.6699 7.75C17.5699 7.75 17.4799 7.73 17.3799 7.69C17.1999 7.61 17.0499 7.47 16.9699 7.28C16.9299 7.19 16.9099 7.09 16.9099 6.99V2.99C16.9099 2.98 16.9199 2.97 16.9199 2.95C15.6299 2.35 14.1899 2 12.6699 2C7.14992 2 2.66992 6.48 2.66992 12C2.66992 17.52 7.14992 22 12.6699 22C18.1899 22 22.6699 17.52 22.6699 12C22.6699 10.48 22.3199 9.04 21.7099 7.74C21.6999 7.74 21.6899 7.75 21.6699 7.75H17.6699Z" fill="#292D32"/>
<path d="M20.2495 5.47994L23.1995 2.52994C23.4895 2.23994 23.4895 1.75994 23.1995 1.46994C22.9095 1.17994 22.4295 1.17994 22.1395 1.46994L19.1895 4.41994C19.5695 4.74994 19.9195 5.10994 20.2495 5.47994Z" fill="#292D32"/>
<path d="M18.4197 3C18.4197 2.59 18.0797 2.25 17.6697 2.25C17.2697 2.25 16.9497 2.57 16.9297 2.96C17.4497 3.21 17.9497 3.49 18.4197 3.82V3Z" fill="#292D32"/>
<path d="M22.4198 7C22.4198 6.59 22.0798 6.25 21.6698 6.25H20.8398C21.1698 6.72 21.4598 7.22 21.6998 7.74C22.0998 7.72 22.4198 7.4 22.4198 7Z" fill="#292D32"/>
<path d="M14.4199 11.82L13.4199 11.47V9.25H13.4999C14.0099 9.25 14.4199 9.7 14.4199 10.25C14.4199 10.66 14.7599 11 15.1699 11C15.5799 11 15.9199 10.66 15.9199 10.25C15.9199 8.87 14.8399 7.75 13.4999 7.75H13.4199V7.5C13.4199 7.09 13.0799 6.75 12.6699 6.75C12.2599 6.75 11.9199 7.09 11.9199 7.5V7.75H11.6199C10.4099 7.75 9.41992 8.77 9.41992 10.03C9.41992 11.49 10.2699 11.96 10.9199 12.19L11.9199 12.54V14.76H11.8399C11.3299 14.76 10.9199 14.31 10.9199 13.76C10.9199 13.35 10.5799 13.01 10.1699 13.01C9.75992 13.01 9.41992 13.35 9.41992 13.76C9.41992 15.14 10.4999 16.26 11.8399 16.26H11.9199V16.51C11.9199 16.92 12.2599 17.26 12.6699 17.26C13.0799 17.26 13.4199 16.92 13.4199 16.51V16.26H13.7199C14.9299 16.26 15.9199 15.24 15.9199 13.98C15.9199 12.51 15.0699 12.04 14.4199 11.82ZM11.4099 10.76C11.0699 10.64 10.9199 10.57 10.9199 10.02C10.9199 9.59 11.2399 9.24 11.6199 9.24H11.9199V10.93L11.4099 10.76ZM13.7199 14.75H13.4199V13.06L13.9299 13.24C14.2699 13.36 14.4199 13.43 14.4199 13.98C14.4199 14.4 14.0999 14.75 13.7199 14.75Z" fill="#292D32"/>
</svg>
