<svg width="25" height="24" viewBox="0 0 25 24" fill="none" xmlns="http://www.w3.org/2000/svg">
<path opacity="0.4" d="M17.6748 20.5H7.6748C4.6748 20.5 2.6748 19 2.6748 15.5V8.5C2.6748 5 4.6748 3.5 7.6748 3.5H17.6748C20.6748 3.5 22.6748 5 22.6748 8.5V15.5C22.6748 19 20.6748 20.5 17.6748 20.5Z" fill="#292D32"/>
<path d="M12.6748 15C14.3317 15 15.6748 13.6569 15.6748 12C15.6748 10.3431 14.3317 9 12.6748 9C11.018 9 9.6748 10.3431 9.6748 12C9.6748 13.6569 11.018 15 12.6748 15Z" fill="#292D32"/>
<path d="M19.6748 7.75H16.6748C16.2648 7.75 15.9248 7.41 15.9248 7C15.9248 6.59 16.2648 6.25 16.6748 6.25H19.6748C20.0848 6.25 20.4248 6.59 20.4248 7C20.4248 7.41 20.0848 7.75 19.6748 7.75Z" fill="#292D32"/>
<path d="M8.6748 17.75H5.6748C5.2648 17.75 4.9248 17.41 4.9248 17C4.9248 16.59 5.2648 16.25 5.6748 16.25H8.6748C9.0848 16.25 9.4248 16.59 9.4248 17C9.4248 17.41 9.0848 17.75 8.6748 17.75Z" fill="#292D32"/>
</svg>
