<svg width="25" height="24" viewBox="0 0 25 24" fill="none" xmlns="http://www.w3.org/2000/svg">
<path opacity="0.4" d="M19.9699 7.91998V13.07C19.9699 16.15 18.2099 17.47 15.5699 17.47H6.77988C6.32988 17.47 5.89988 17.43 5.49988 17.34C5.24988 17.3 5.00989 17.23 4.78989 17.15C3.28989 16.59 2.37988 15.29 2.37988 13.07V7.91998C2.37988 4.83998 4.13988 3.52002 6.77988 3.52002H15.5699C17.8099 3.52002 19.4199 4.47001 19.8499 6.64001C19.9199 7.04001 19.9699 7.44998 19.9699 7.91998Z" fill="#292D32"/>
<path d="M22.97 10.92V16.07C22.97 19.15 21.21 20.47 18.57 20.47H9.78C9.04 20.47 8.37001 20.37 7.79001 20.15C6.60001 19.71 5.79 18.8 5.5 17.34C5.9 17.43 6.33 17.47 6.78 17.47H15.57C18.21 17.47 19.97 16.15 19.97 13.07V7.91998C19.97 7.44998 19.93 7.03001 19.85 6.64001C21.75 7.04001 22.97 8.37998 22.97 10.92Z" fill="#292D32"/>
<path d="M11.1703 13.14C12.6283 13.14 13.8103 11.958 13.8103 10.5C13.8103 9.04197 12.6283 7.85999 11.1703 7.85999C9.71226 7.85999 8.53027 9.04197 8.53027 10.5C8.53027 11.958 9.71226 13.14 11.1703 13.14Z" fill="#292D32"/>
<path d="M5.4502 8.25C5.0402 8.25 4.7002 8.59 4.7002 9V12C4.7002 12.41 5.0402 12.75 5.4502 12.75C5.8602 12.75 6.2002 12.41 6.2002 12V9C6.2002 8.59 5.8702 8.25 5.4502 8.25Z" fill="#292D32"/>
<path d="M16.8799 8.25C16.4699 8.25 16.1299 8.59 16.1299 9V12C16.1299 12.41 16.4699 12.75 16.8799 12.75C17.2899 12.75 17.6299 12.41 17.6299 12V9C17.6299 8.59 17.2999 8.25 16.8799 8.25Z" fill="#292D32"/>
</svg>
