<svg width="25" height="24" viewBox="0 0 25 24" fill="none" xmlns="http://www.w3.org/2000/svg">
<path opacity="0.4" d="M17.6699 7.75C17.4799 7.75 17.2899 7.68 17.1399 7.53C16.8499 7.24 16.8499 6.76 17.1399 6.47L19.1899 4.42C17.4299 2.92 15.1599 2 12.6699 2C7.14992 2 2.66992 6.48 2.66992 12C2.66992 17.52 7.14992 22 12.6699 22C18.1899 22 22.6699 17.52 22.6699 12C22.6699 9.51 21.7499 7.24 20.2499 5.48L18.1999 7.53C18.0499 7.68 17.8599 7.75 17.6699 7.75Z" fill="#292D32"/>
<path d="M14.4199 11.82L13.4199 11.47V9.25H13.4999C14.0099 9.25 14.4199 9.7 14.4199 10.25C14.4199 10.66 14.7599 11 15.1699 11C15.5799 11 15.9199 10.66 15.9199 10.25C15.9199 8.87 14.8399 7.75 13.4999 7.75H13.4199V7.5C13.4199 7.09 13.0799 6.75 12.6699 6.75C12.2599 6.75 11.9199 7.09 11.9199 7.5V7.75H11.6199C10.4099 7.75 9.41992 8.77 9.41992 10.03C9.41992 11.49 10.2699 11.96 10.9199 12.19L11.9199 12.54V14.76H11.8399C11.3299 14.76 10.9199 14.31 10.9199 13.76C10.9199 13.35 10.5799 13.01 10.1699 13.01C9.75992 13.01 9.41992 13.35 9.41992 13.76C9.41992 15.14 10.4999 16.26 11.8399 16.26H11.9199V16.51C11.9199 16.92 12.2599 17.26 12.6699 17.26C13.0799 17.26 13.4199 16.92 13.4199 16.51V16.26H13.7199C14.9299 16.26 15.9199 15.24 15.9199 13.98C15.9199 12.51 15.0699 12.04 14.4199 11.82ZM11.4099 10.76C11.0699 10.64 10.9199 10.57 10.9199 10.02C10.9199 9.59 11.2399 9.24 11.6199 9.24H11.9199V10.93L11.4099 10.76ZM13.7199 14.75H13.4199V13.06L13.9299 13.24C14.2699 13.36 14.4199 13.43 14.4199 13.98C14.4199 14.4 14.0999 14.75 13.7199 14.75Z" fill="#292D32"/>
<path d="M23.3602 1.70999C23.2802 1.52999 23.1402 1.38 22.9502 1.3C22.8602 1.26 22.7602 1.23999 22.6602 1.23999H18.6602C18.2502 1.23999 17.9102 1.57999 17.9102 1.98999C17.9102 2.39999 18.2502 2.73999 18.6602 2.73999H20.8502L19.1802 4.41C19.5602 4.74 19.9102 5.08999 20.2402 5.46999L21.9102 3.8V5.99999C21.9102 6.40999 22.2502 6.74999 22.6602 6.74999C23.0702 6.74999 23.4102 6.40999 23.4102 5.99999V1.99999C23.4202 1.89999 23.4002 1.80999 23.3602 1.70999Z" fill="#292D32"/>
</svg>
