<svg width="25" height="24" viewBox="0 0 25 24" fill="none" xmlns="http://www.w3.org/2000/svg">
<path opacity="0.4" d="M22.6699 9V15C22.6699 18.5 20.6699 20 17.6699 20H9.11993C9.46993 19.41 9.66992 18.73 9.66992 18C9.66992 15.79 7.87992 14 5.66992 14C4.46992 14 3.39992 14.53 2.66992 15.36V9C2.66992 5.5 4.66992 4 7.66992 4H17.6699C20.6699 4 22.6699 5.5 22.6699 9Z" fill="#292D32"/>
<path d="M12.6699 14.5C14.0506 14.5 15.1699 13.3807 15.1699 12C15.1699 10.6193 14.0506 9.5 12.6699 9.5C11.2892 9.5 10.1699 10.6193 10.1699 12C10.1699 13.3807 11.2892 14.5 12.6699 14.5Z" fill="#292D32"/>
<path d="M19.1699 14.75C18.7599 14.75 18.4199 14.41 18.4199 14V10C18.4199 9.59 18.7599 9.25 19.1699 9.25C19.5799 9.25 19.9199 9.59 19.9199 10V14C19.9199 14.41 19.5799 14.75 19.1699 14.75Z" fill="#292D32"/>
<path d="M5.66992 14C3.45992 14 1.66992 15.79 1.66992 18C1.66992 18.75 1.87991 19.46 2.24991 20.06C2.93991 21.22 4.20992 22 5.66992 22C7.12992 22 8.39994 21.22 9.08994 20.06C9.45994 19.46 9.66992 18.75 9.66992 18C9.66992 15.79 7.87992 14 5.66992 14ZM7.15991 18.73H6.41992V19.51C6.41992 19.92 6.07992 20.26 5.66992 20.26C5.25992 20.26 4.91992 19.92 4.91992 19.51V18.73H4.17993C3.76993 18.73 3.42993 18.39 3.42993 17.98C3.42993 17.57 3.76993 17.23 4.17993 17.23H4.91992V16.52C4.91992 16.11 5.25992 15.77 5.66992 15.77C6.07992 15.77 6.41992 16.11 6.41992 16.52V17.23H7.15991C7.56991 17.23 7.90991 17.57 7.90991 17.98C7.90991 18.39 7.57991 18.73 7.15991 18.73Z" fill="#292D32"/>
</svg>
