<svg width="25" height="24" viewBox="0 0 25 24" fill="none" xmlns="http://www.w3.org/2000/svg">
<path d="M2.37018 20.24C2.38018 20.23 2.38019 20.22 2.38019 20.22L7.88019 14.72C7.89019 14.71 7.90016 14.71 7.91016 14.7C7.27016 14.26 6.49016 14 5.66016 14C3.45016 14 1.66016 15.79 1.66016 18C1.66016 18.75 1.87017 19.46 2.24017 20.06C2.29017 20.12 2.33018 20.18 2.37018 20.24Z" fill="#292D32"/>
<path d="M8.96991 15.75C8.95991 15.76 8.95995 15.77 8.94995 15.78L3.44995 21.28C3.43995 21.29 3.42992 21.29 3.41992 21.3C4.05992 21.74 4.82992 22 5.66992 22C7.12992 22 8.3999 21.22 9.0899 20.06C9.4599 19.46 9.66992 18.75 9.66992 18C9.66992 17.16 9.40991 16.39 8.96991 15.75Z" fill="#292D32"/>
<path opacity="0.4" d="M22.6699 9V15C22.6699 18.5 20.6699 20 17.6699 20H9.11993C9.46993 19.41 9.66992 18.73 9.66992 18C9.66992 15.79 7.87992 14 5.66992 14C4.46992 14 3.39992 14.53 2.66992 15.36V9C2.66992 5.5 4.66992 4 7.66992 4H17.6699C20.6699 4 22.6699 5.5 22.6699 9Z" fill="#292D32"/>
<path d="M12.6699 14.5C14.0506 14.5 15.1699 13.3807 15.1699 12C15.1699 10.6193 14.0506 9.5 12.6699 9.5C11.2892 9.5 10.1699 10.6193 10.1699 12C10.1699 13.3807 11.2892 14.5 12.6699 14.5Z" fill="#292D32"/>
<path d="M19.1699 14.75C18.7599 14.75 18.4199 14.41 18.4199 14V10C18.4199 9.59 18.7599 9.25 19.1699 9.25C19.5799 9.25 19.9199 9.59 19.9199 10V14C19.9199 14.41 19.5799 14.75 19.1699 14.75Z" fill="#292D32"/>
</svg>
