<svg width="25" height="24" viewBox="0 0 25 24" fill="none" xmlns="http://www.w3.org/2000/svg">
<path opacity="0.4" d="M22.6399 6.41V12.91H2.66992V6.41C2.66992 3.98 4.64992 2 7.07992 2H18.2299C20.6599 2 22.6399 3.98 22.6399 6.41Z" fill="#292D32"/>
<path d="M2.66992 12.9199V13.1199C2.66992 15.5599 4.64992 17.5299 7.07992 17.5299H10.9199C11.4699 17.5299 11.9199 17.9799 11.9199 18.5299V19.4999C11.9199 20.0499 11.4699 20.4999 10.9199 20.4999H8.49992C8.08992 20.4999 7.74992 20.8399 7.74992 21.2499C7.74992 21.6599 8.07992 21.9999 8.49992 21.9999H16.8499C17.2599 21.9999 17.5999 21.6599 17.5999 21.2499C17.5999 20.8399 17.2599 20.4999 16.8499 20.4999H14.4299C13.8799 20.4999 13.4299 20.0499 13.4299 19.4999V18.5299C13.4299 17.9799 13.8799 17.5299 14.4299 17.5299H18.2399C20.6799 17.5299 22.6499 15.5499 22.6499 13.1199V12.9199H2.66992Z" fill="#292D32"/>
</svg>
