<svg width="25" height="24" viewBox="0 0 25 24" fill="none" xmlns="http://www.w3.org/2000/svg">
<path opacity="0.4" d="M17.4697 2H6.87969C4.55969 2 2.67969 3.88 2.67969 6.19V12.37V12.56C2.67969 14.88 4.55969 16.75 6.86969 16.75H10.4697C11.0197 16.75 11.4697 17.2 11.4697 17.75V18.57C11.4697 19.12 11.0197 19.57 10.4697 19.57H8.21969C7.82969 19.57 7.50969 19.89 7.50969 20.28C7.50969 20.67 7.82969 20.99 8.21969 20.99H16.1497C16.5397 20.99 16.8597 20.67 16.8597 20.28C16.8597 19.89 16.5397 19.57 16.1497 19.57H13.8997C13.3497 19.57 12.8997 19.12 12.8997 18.57V17.75C12.8997 17.2 13.3497 16.75 13.8997 16.75H17.4697C19.7897 16.75 21.6597 14.87 21.6597 12.56V12.37V6.19C21.6597 3.88 19.7797 2 17.4697 2Z" fill="#292D32"/>
<path d="M20.3102 9.5H15.0202C13.2902 9.5 12.6602 10.13 12.6602 11.88V19.61C12.6602 21.37 13.2802 21.99 15.0202 21.99H20.3102C22.0402 21.99 22.6702 21.36 22.6702 19.61V11.88C22.6702 10.12 22.0502 9.5 20.3102 9.5ZM17.6702 20.32C17.0602 20.32 16.5702 19.83 16.5702 19.22C16.5702 18.61 17.0602 18.12 17.6702 18.12C18.2802 18.12 18.7702 18.61 18.7702 19.22C18.7702 19.83 18.2802 20.32 17.6702 20.32Z" fill="#292D32"/>
<path opacity="0.4" d="M18.7703 19.2201C18.7703 19.8301 18.2803 20.3201 17.6703 20.3201C17.0603 20.3201 16.5703 19.8301 16.5703 19.2201C16.5703 18.6101 17.0603 18.1201 17.6703 18.1201C18.2803 18.1201 18.7703 18.6201 18.7703 19.2201Z" fill="#292D32"/>
</svg>
