<svg width="25" height="24" viewBox="0 0 25 24" fill="none" xmlns="http://www.w3.org/2000/svg">
<path d="M9.66963 19.0001C9.66963 19.8401 9.79963 20.6601 10.0396 21.4201C6.19963 20.0901 3.29963 16.5601 2.99963 12.4301C2.69963 8.04012 5.22963 3.94012 9.31963 2.22012C10.3796 1.78012 10.9196 2.10012 11.1496 2.33012C11.3696 2.55012 11.6796 3.08012 11.2396 4.09012C10.7896 5.13012 10.5696 6.23012 10.5696 7.37012C10.5796 9.41012 11.3796 11.3001 12.6796 12.7501C10.8496 14.2101 9.66963 16.4701 9.66963 19.0001Z" fill="#292D32"/>
<path opacity="0.4" d="M21.8799 17.72C19.8999 20.41 16.7599 21.99 13.4099 21.99C13.2499 21.99 13.0899 21.98 12.9299 21.97C11.9299 21.93 10.9599 21.74 10.0399 21.42C9.79992 20.66 9.66992 19.84 9.66992 19C9.66992 16.47 10.8499 14.21 12.6799 12.75C14.1499 14.4 16.2599 15.47 18.5899 15.57C19.2199 15.6 19.8499 15.55 20.4699 15.44C21.5899 15.24 22.0399 15.66 22.1999 15.93C22.3699 16.2 22.5499 16.79 21.8799 17.72Z" fill="#292D32"/>
</svg>
