<svg width="25" height="24" viewBox="0 0 25 24" fill="none" xmlns="http://www.w3.org/2000/svg">
<path opacity="0.4" d="M16.8599 2H8.47992C4.83992 2 2.66992 4.17 2.66992 7.81V16.18C2.66992 19.83 4.83992 22 8.47992 22H16.8499C20.4899 22 22.6599 19.83 22.6599 16.19V7.81C22.6699 4.17 20.4999 2 16.8599 2Z" fill="#292D32"/>
<path opacity="0.97" d="M12.6699 10.3099C13.3934 10.3099 13.9799 9.72343 13.9799 8.99994C13.9799 8.27645 13.3934 7.68994 12.6699 7.68994C11.9464 7.68994 11.3599 8.27645 11.3599 8.99994C11.3599 9.72343 11.9464 10.3099 12.6699 10.3099Z" fill="#292D32"/>
<path opacity="0.97" d="M8.97992 13.6899C8.25992 13.6899 7.66992 14.2799 7.66992 14.9999C7.66992 15.7199 8.25992 16.3099 8.97992 16.3099C9.69992 16.3099 10.2899 15.7199 10.2899 14.9999C10.2899 14.2799 9.69992 13.6899 8.97992 13.6899Z" fill="#292D32"/>
<path opacity="0.97" d="M16.3598 13.6899C15.6398 13.6899 15.0498 14.2799 15.0498 14.9999C15.0498 15.7199 15.6398 16.3099 16.3598 16.3099C17.0798 16.3099 17.6698 15.7199 17.6698 14.9999C17.6698 14.2799 17.0798 13.6899 16.3598 13.6899Z" fill="#292D32"/>
</svg>
