<svg width="25" height="24" viewBox="0 0 25 24" fill="none" xmlns="http://www.w3.org/2000/svg">
<path opacity="0.4" d="M20.1699 9.5V14.5C20.1699 18.63 16.7999 22 12.6699 22C8.53992 22 5.16992 18.63 5.16992 14.5V9.5C5.16992 7.44 6.00992 5.56 7.36992 4.2C8.55992 3.01 10.1499 2.22 11.9199 2.04C12.1599 2.01 12.4199 2 12.6699 2C12.9199 2 13.1799 2.01 13.4199 2.04C17.1999 2.42 20.1699 5.62 20.1699 9.5Z" fill="#292D32"/>
<path d="M14.54 7.5V9.5C14.54 10.53 13.7 11.38 12.67 11.38C11.63 11.38 10.79 10.53 10.79 9.5V7.5C10.79 6.73 11.26 6.07 11.92 5.78V2.04C12.16 2.01 12.42 2 12.67 2C12.92 2 13.18 2.01 13.42 2.04V5.78C14.08 6.07 14.54 6.73 14.54 7.5Z" fill="#292D32"/>
</svg>
