<svg width="25" height="24" viewBox="0 0 25 24" fill="none" xmlns="http://www.w3.org/2000/svg">
<path d="M21.6296 17.84L19.9996 18.39C19.5496 18.54 19.1896 18.89 19.0396 19.35L18.4896 20.98C18.0196 22.39 16.0396 22.36 15.5996 20.95L13.7496 15C13.3896 13.82 14.4796 12.72 15.6496 13.09L21.6096 14.94C23.0096 15.38 23.0296 17.37 21.6296 17.84Z" fill="#292D32"/>
<path opacity="0.4" d="M12.1699 21C17.4166 21 21.6699 16.7467 21.6699 11.5C21.6699 6.25329 17.4166 2 12.1699 2C6.92322 2 2.66992 6.25329 2.66992 11.5C2.66992 16.7467 6.92322 21 12.1699 21Z" fill="#292D32"/>
</svg>
