<svg width="25" height="24" viewBox="0 0 25 24" fill="none" xmlns="http://www.w3.org/2000/svg">
<path opacity="0.4" d="M16.8597 2H8.48969C4.84968 2 2.67969 4.17 2.67969 7.81V16.18C2.67969 19.82 4.84968 21.99 8.48969 21.99H16.8597C20.4997 21.99 22.6697 19.82 22.6697 16.18V7.81C22.6697 4.17 20.4997 2 16.8597 2Z" fill="#292D32"/>
<path d="M16.8097 6.71002C16.4697 6.45002 15.8697 6.20002 14.9097 6.46002L11.9197 7.28003C10.9897 7.53003 10.3797 8.31998 10.3797 9.28998V11.04V13.07C10.1697 13.01 9.95968 12.97 9.72968 12.97C8.43968 12.97 7.38965 14.02 7.38965 15.31C7.38965 16.6 8.43968 17.65 9.72968 17.65C11.0097 17.65 12.0497 16.61 12.0697 15.34C12.0697 15.33 12.0797 15.32 12.0797 15.31V11.69L15.8597 10.66V12.08C15.6497 12.02 15.4397 11.98 15.2097 11.98C13.9197 11.98 12.8697 13.03 12.8697 14.32C12.8697 15.61 13.9197 16.66 15.2097 16.66C16.4997 16.66 17.5497 15.61 17.5497 14.32V9.56V8.48999C17.5497 7.48999 17.1397 6.97002 16.8097 6.71002ZM9.72968 15.96C9.36968 15.96 9.07965 15.67 9.07965 15.31C9.07965 14.95 9.36968 14.66 9.72968 14.66C10.0897 14.66 10.3797 14.95 10.3797 15.31C10.3797 15.67 10.0897 15.96 9.72968 15.96ZM15.2097 14.96C14.8497 14.96 14.5597 14.67 14.5597 14.31C14.5597 13.95 14.8497 13.66 15.2097 13.66C15.5697 13.66 15.8597 13.95 15.8597 14.31C15.8497 14.67 15.5597 14.96 15.2097 14.96Z" fill="#292D32"/>
</svg>
