<svg width="25" height="24" viewBox="0 0 25 24" fill="none" xmlns="http://www.w3.org/2000/svg">
<path d="M19.8799 15.01C18.7899 14.94 17.6699 15.34 16.8399 16.17C15.2799 17.73 15.2799 20.26 16.8399 21.83C17.3699 22.36 18.0199 22.71 18.7099 22.88C19.0899 22.98 19.4899 23.01 19.8899 22.99C20.8399 22.95 21.7699 22.5701 22.4999 21.8401C23.5299 20.8101 23.8799 19.36 23.5499 18.05C23.3899 17.36 23.0299 16.71 22.4999 16.18C21.7799 15.45 20.8399 15.06 19.8799 15.01ZM21.9099 18.98C21.9099 19.19 21.8299 19.37 21.6899 19.51C21.5499 19.65 21.3699 19.73 21.1599 19.73H20.4199V20.51C20.4199 20.72 20.3399 20.9 20.1999 21.04C20.0599 21.18 19.8799 21.26 19.6699 21.26C19.2599 21.26 18.9199 20.92 18.9199 20.51V19.73H18.1699C17.7599 19.73 17.4199 19.39 17.4199 18.98C17.4199 18.57 17.7599 18.23 18.1699 18.23H18.9199V17.52C18.9199 17.11 19.2599 16.77 19.6699 16.77C20.0799 16.77 20.4199 17.11 20.4199 17.52V18.23H21.1599C21.5799 18.23 21.9099 18.57 21.9099 18.98Z" fill="#292D32"/>
<path opacity="0.4" d="M17.0099 21.97C16.7099 21.71 16.4499 21.4 16.2499 21.06C15.8799 20.46 15.6699 19.75 15.6699 19C15.6699 16.79 17.4599 15 19.6699 15C20.8499 15 21.9199 15.51 22.6399 16.33C22.6499 16.34 22.6499 16.35 22.6599 16.35C22.6599 16.29 22.6699 16.24 22.6699 16.19V7.81C22.6699 4.17 20.4999 2 16.8599 2H8.47992C8.19992 2 7.92992 2.00999 7.66992 2.04999C4.51992 2.33999 2.66992 4.45 2.66992 7.81V16.19C2.66992 19.55 4.51992 21.66 7.66992 21.95C7.92992 21.99 8.19992 22 8.47992 22H16.8599C16.9199 22 16.9699 21.99 17.0299 21.99C17.0299 21.98 17.0199 21.98 17.0099 21.97Z" fill="#292D32"/>
<path d="M14.4502 5.3C14.1302 5.05 13.5502 4.81001 12.6302 5.06001L9.65019 5.88002C8.76019 6.11002 8.18019 6.86 8.18019 7.8V9.55V11.71C7.95019 11.63 7.7002 11.57 7.4402 11.57C6.2002 11.57 5.2002 12.58 5.2002 13.81C5.2002 15.04 6.2102 16.05 7.4402 16.05C8.6602 16.05 9.66019 15.06 9.68019 13.85C9.68019 13.84 9.6902 13.83 9.6902 13.82V10.12L13.6602 9.03999V10.72C13.4302 10.64 13.1802 10.58 12.9102 10.58C11.6702 10.58 10.6702 11.59 10.6702 12.82C10.6702 14.06 11.6802 15.06 12.9102 15.06C14.1302 15.06 15.1302 14.07 15.1502 12.85C15.1502 12.84 15.1602 12.83 15.1602 12.81V8.05V6.97999C15.1502 6.21999 14.9102 5.65 14.4502 5.3ZM7.43019 14.55C7.02019 14.55 6.6902 14.22 6.6902 13.81C6.6902 13.4 7.02019 13.07 7.43019 13.07C7.84019 13.07 8.1702 13.4 8.1702 13.81C8.1702 14.22 7.84019 14.55 7.43019 14.55ZM12.9002 13.55C12.4902 13.55 12.1602 13.22 12.1602 12.81C12.1602 12.4 12.4902 12.07 12.9002 12.07C13.3102 12.07 13.6402 12.4 13.6402 12.81C13.6402 13.22 13.3102 13.55 12.9002 13.55Z" fill="#292D32"/>
</svg>
