<svg width="25" height="24" viewBox="0 0 25 24" fill="none" xmlns="http://www.w3.org/2000/svg">
<path opacity="0.4" d="M19.9304 2.87001L15.5104 1.40001C14.5904 1.09001 13.6604 1.20001 12.9804 1.70001C12.2904 2.20001 11.9004 3.04001 11.9004 4.01001V7.78001L18.7804 10.07C19.1204 10.19 19.4704 10.24 19.8004 10.24C20.3604 10.24 20.8804 10.08 21.3104 9.77001C22.0004 9.27001 22.3904 8.43001 22.3904 7.46001V6.28001C22.3904 4.85001 21.2904 3.32001 19.9304 2.87001Z" fill="#292D32"/>
<path d="M13.3896 8.27002V18C13.3896 20.62 11.2596 22.75 8.63965 22.75C6.01965 22.75 3.88965 20.62 3.88965 18C3.88965 15.38 6.01965 13.25 8.63965 13.25C9.89965 13.25 11.0396 13.75 11.8896 14.55V7.77002L13.3896 8.27002Z" fill="#292D32"/>
</svg>
