<svg width="25" height="24" viewBox="0 0 25 24" fill="none" xmlns="http://www.w3.org/2000/svg">
<path d="M22.6399 16.33C21.9199 15.51 20.8499 15 19.6699 15C17.4599 15 15.6699 16.79 15.6699 19C15.6699 19.75 15.8799 20.46 16.2499 21.06C16.4499 21.4 16.7099 21.71 17.0099 21.97C17.7099 22.61 18.6399 23 19.6699 23C21.1299 23 22.3999 22.22 23.0899 21.06C23.4599 20.46 23.6699 19.75 23.6699 19C23.6699 17.98 23.2799 17.04 22.6399 16.33ZM21.2699 20.58C21.1199 20.73 20.9299 20.8 20.7399 20.8C20.5499 20.8 20.3599 20.73 20.2099 20.58L19.6799 20.05L19.1299 20.6C18.9799 20.75 18.7899 20.82 18.5999 20.82C18.4099 20.82 18.2199 20.75 18.0699 20.6C17.7799 20.31 17.7799 19.83 18.0699 19.54L18.6199 18.99L18.0899 18.46C17.7999 18.17 17.7999 17.69 18.0899 17.4C18.3799 17.11 18.8599 17.11 19.1499 17.4L19.6799 17.93L20.1799 17.43C20.4699 17.14 20.9499 17.14 21.2399 17.43C21.5299 17.72 21.5299 18.2 21.2399 18.49L20.7399 18.99L21.2699 19.52C21.5599 19.81 21.5599 20.28 21.2699 20.58Z" fill="#292D32"/>
<path opacity="0.4" d="M17.0099 21.97C16.7099 21.71 16.4499 21.4 16.2499 21.06C15.8799 20.46 15.6699 19.75 15.6699 19C15.6699 16.79 17.4599 15 19.6699 15C20.8499 15 21.9199 15.51 22.6399 16.33C22.6499 16.34 22.6499 16.35 22.6599 16.35C22.6599 16.29 22.6699 16.24 22.6699 16.19V7.81C22.6699 4.17 20.4999 2 16.8599 2H8.47992C8.19992 2 7.92992 2.00999 7.66992 2.04999C4.51992 2.33999 2.66992 4.45 2.66992 7.81V16.19C2.66992 19.55 4.51992 21.66 7.66992 21.95C7.92992 21.99 8.19992 22 8.47992 22H16.8599C16.9199 22 16.9699 21.99 17.0299 21.99C17.0299 21.98 17.0199 21.98 17.0099 21.97Z" fill="#292D32"/>
<path d="M14.4502 5.3C14.1302 5.05 13.5502 4.81001 12.6302 5.06001L9.6502 5.88002C8.7602 6.11002 8.1802 6.86 8.1802 7.8V9.55V11.71C7.9502 11.63 7.70019 11.57 7.44019 11.57C6.20019 11.57 5.2002 12.58 5.2002 13.81C5.2002 15.04 6.21019 16.05 7.44019 16.05C8.66019 16.05 9.6602 15.06 9.6802 13.85C9.6802 13.84 9.69019 13.83 9.69019 13.82V10.12L13.6602 9.03999V10.72C13.4302 10.64 13.1802 10.58 12.9102 10.58C11.6702 10.58 10.6702 11.59 10.6702 12.82C10.6702 14.06 11.6802 15.06 12.9102 15.06C14.1302 15.06 15.1302 14.07 15.1502 12.85C15.1502 12.84 15.1602 12.83 15.1602 12.81V8.05V6.97999C15.1502 6.21999 14.9102 5.65 14.4502 5.3ZM7.4302 14.55C7.0202 14.55 6.69019 14.22 6.69019 13.81C6.69019 13.4 7.0202 13.07 7.4302 13.07C7.8402 13.07 8.1702 13.4 8.1702 13.81C8.1702 14.22 7.8402 14.55 7.4302 14.55ZM12.9002 13.55C12.4902 13.55 12.1602 13.22 12.1602 12.81C12.1602 12.4 12.4902 12.07 12.9002 12.07C13.3102 12.07 13.6402 12.4 13.6402 12.81C13.6402 13.22 13.3102 13.55 12.9002 13.55Z" fill="#292D32"/>
</svg>
