<svg width="25" height="24" viewBox="0 0 25 24" fill="none" xmlns="http://www.w3.org/2000/svg">
<path d="M24.6699 0H0.669922V24H24.6699V0Z" fill="white"/>
<path opacity="0.6" d="M17.03 18.49C17.02 18.5 17.02 18.51 17.02 18.51C15.83 19.77 14.4 20.96 12.67 22C12.67 22 3.83002 17.58 2.77002 7.07996C5.88002 17.15 12.67 9.99996 12.67 9.99996C19.43 12.9 17.19 18.14 17.03 18.49Z" fill="#292D32"/>
<path opacity="0.4" d="M17.0297 18.4899C17.1897 18.1399 19.4297 12.8999 12.6697 9.99995C11.6697 3.99995 16.7397 2.93995 16.7397 2.93995L17.3297 2.81995H17.3397C19.0797 3.22995 20.8697 3.91995 22.6697 4.99995C22.6697 4.99995 22.6697 12.4999 17.0297 18.4899Z" fill="#292D32"/>
<path d="M17.3299 2.82003L16.7399 2.94003C16.7399 2.94003 11.6699 4.00003 12.6699 10C12.6699 10 5.8799 17.15 2.7699 7.08003V7.07003C2.7099 6.41003 2.66992 5.71003 2.66992 5.00003C2.66992 5.00003 9.38989 0.97003 17.3299 2.82003Z" fill="#292D32"/>
</svg>
