<svg width="25" height="24" viewBox="0 0 25 24" fill="none" xmlns="http://www.w3.org/2000/svg">
<path opacity="0.4" d="M8.03992 22H17.2899C19.9799 22 22.1599 19.82 22.1599 17.13V8.37C22.1599 5.68 19.9799 3.5 17.2899 3.5H8.03992C5.34992 3.5 3.16992 5.68 3.16992 8.37V17.12C3.16992 19.82 5.34992 22 8.03992 22Z" fill="#292D32"/>
<path d="M8.95996 6.29C8.53996 6.29 8.20996 5.95 8.20996 5.54V2.75C8.20996 2.34 8.53996 2 8.95996 2C9.37996 2 9.70996 2.34 9.70996 2.75V5.53C9.70996 5.95 9.37996 6.29 8.95996 6.29Z" fill="#292D32"/>
<path d="M16.3799 6.29C15.9599 6.29 15.6299 5.95 15.6299 5.54V2.75C15.6299 2.33 15.9699 2 16.3799 2C16.7999 2 17.1299 2.34 17.1299 2.75V5.53C17.1299 5.95 16.7999 6.29 16.3799 6.29Z" fill="#292D32"/>
<path d="M12.6699 14.75H10.9799V13C10.9799 12.59 10.6399 12.25 10.2299 12.25C9.81992 12.25 9.47992 12.59 9.47992 13V14.75H7.66992C7.25992 14.75 6.91992 15.09 6.91992 15.5C6.91992 15.91 7.25992 16.25 7.66992 16.25H9.47992V18C9.47992 18.41 9.81992 18.75 10.2299 18.75C10.6399 18.75 10.9799 18.41 10.9799 18V16.25H12.6699C13.0799 16.25 13.4199 15.91 13.4199 15.5C13.4199 15.09 13.0799 14.75 12.6699 14.75Z" fill="#292D32"/>
</svg>
