<svg width="25" height="24" viewBox="0 0 25 24" fill="none" xmlns="http://www.w3.org/2000/svg">
<path opacity="0.4" d="M21.6699 7.52002V15.48C21.6699 15.84 21.6499 16.19 21.5999 16.51C21.5599 16.51 21.5099 16.49 21.4699 16.48L19.1899 15.72C19.1699 15.71 19.1599 15.7 19.1399 15.7V20.31C18.6599 20.58 18.1199 20.77 17.5199 20.87C17.6199 20.69 17.6799 20.48 17.6799 20.25C17.6799 19.52 17.0799 18.92 16.3399 18.92C15.6099 18.92 15.0099 19.52 15.0099 20.25C15.0099 20.53 15.0899 20.79 15.2399 21H8.18994C4.73994 21 2.66992 18.94 2.66992 15.48V7.52002C2.66992 4.06002 4.73994 2 8.18994 2H16.1499C19.5999 2 21.6699 4.06002 21.6699 7.52002Z" fill="#292D32"/>
<path d="M22.2898 12.1L21.6698 11.89L19.9998 11.3401C19.4198 11.1501 18.8298 11.22 18.3798 11.54C17.9398 11.87 17.6798 12.4 17.6798 13.02V17.81C17.2798 17.59 16.8298 17.45 16.3398 17.45C14.7998 17.45 13.5498 18.71 13.5498 20.25C13.5498 20.51 13.5898 20.76 13.6498 21C13.9798 22.19 15.0598 23.05 16.3398 23.05C17.8698 23.05 19.1098 21.83 19.1398 20.31V15.7C19.1598 15.7 19.1698 15.71 19.1898 15.72L21.4698 16.48C21.5098 16.49 21.5598 16.51 21.5998 16.51C21.7798 16.56 21.9398 16.58 22.1098 16.58C22.4698 16.58 22.8098 16.48 23.0898 16.27C23.5398 15.95 23.7898 15.42 23.7898 14.8V14.2C23.7898 13.29 23.1498 12.39 22.2898 12.1ZM16.3398 21.5901C15.8798 21.5901 15.4798 21.36 15.2398 21C15.0898 20.79 15.0098 20.53 15.0098 20.25C15.0098 19.52 15.6098 18.92 16.3398 18.92C17.0798 18.92 17.6798 19.52 17.6798 20.25C17.6798 20.48 17.6198 20.69 17.5198 20.87C17.2998 21.3 16.8498 21.5901 16.3398 21.5901Z" fill="#292D32"/>
</svg>
