<svg width="25" height="24" viewBox="0 0 25 24" fill="none" xmlns="http://www.w3.org/2000/svg">
<path d="M19.6699 8C21.3268 8 22.6699 6.65685 22.6699 5C22.6699 3.34315 21.3268 2 19.6699 2C18.0131 2 16.6699 3.34315 16.6699 5C16.6699 6.65685 18.0131 8 19.6699 8Z" fill="#292D32"/>
<path opacity="0.4" d="M19.6699 9.5C17.1899 9.5 15.1699 7.48 15.1699 5C15.1699 4.28 15.3599 3.61 15.6599 3H8.18992C4.73992 3 2.66992 5.06 2.66992 8.52V16.47C2.66992 19.94 4.73992 22 8.18992 22H16.1399C19.5999 22 21.6599 19.94 21.6599 16.48V9.01C21.0599 9.31 20.3899 9.5 19.6699 9.5Z" fill="#292D32"/>
<path d="M12.4199 14H7.41992C7.00992 14 6.66992 13.66 6.66992 13.25C6.66992 12.84 7.00992 12.5 7.41992 12.5H12.4199C12.8299 12.5 13.1699 12.84 13.1699 13.25C13.1699 13.66 12.8299 14 12.4199 14Z" fill="#292D32"/>
<path d="M16.4199 18H7.41992C7.00992 18 6.66992 17.66 6.66992 17.25C6.66992 16.84 7.00992 16.5 7.41992 16.5H16.4199C16.8299 16.5 17.1699 16.84 17.1699 17.25C17.1699 17.66 16.8299 18 16.4199 18Z" fill="#292D32"/>
</svg>
