<svg width="25" height="24" viewBox="0 0 25 24" fill="none" xmlns="http://www.w3.org/2000/svg">
<path d="M19.6699 8C21.3268 8 22.6699 6.65685 22.6699 5C22.6699 3.34315 21.3268 2 19.6699 2C18.0131 2 16.6699 3.34315 16.6699 5C16.6699 6.65685 18.0131 8 19.6699 8Z" fill="#292D32"/>
<path opacity="0.4" d="M19.6699 9.5C17.1899 9.5 15.1699 7.48 15.1699 5C15.1699 4.28 15.3599 3.61 15.6599 3H8.18992C4.73992 3 2.66992 5.06 2.66992 8.52V16.47C2.66992 19.94 4.73992 22 8.18992 22H16.1399C19.5999 22 21.6599 19.94 21.6599 16.48V9.01C21.0599 9.31 20.3899 9.5 19.6699 9.5Z" fill="#292D32"/>
<path d="M11.5701 12.3601C11.0001 12.1801 10.3901 12.2801 9.96015 12.6201C9.52015 12.2801 8.92015 12.1801 8.36015 12.3601C7.13015 12.7601 6.74015 14.1601 7.09015 15.2401C7.62015 16.8801 9.35015 17.7301 9.97015 17.7301C10.5801 17.7301 12.3401 16.8601 12.8501 15.2401C13.2001 14.1601 12.8001 12.7601 11.5701 12.3601Z" fill="#292D32"/>
</svg>
