<svg width="25" height="24" viewBox="0 0 25 24" fill="none" xmlns="http://www.w3.org/2000/svg">
<path opacity="0.58" d="M24.6699 0H0.669922V24H24.6699V0Z" fill="white"/>
<path opacity="0.4" d="M12.6699 22C18.1928 22 22.6699 17.5228 22.6699 12C22.6699 6.47715 18.1928 2 12.6699 2C7.14707 2 2.66992 6.47715 2.66992 12C2.66992 17.5228 7.14707 22 12.6699 22Z" fill="#292D32"/>
<path d="M12.67 11.88C13.9845 11.88 15.05 10.8144 15.05 9.5C15.05 8.18556 13.9845 7.12 12.67 7.12C11.3556 7.12 10.29 8.18556 10.29 9.5C10.29 10.8144 11.3556 11.88 12.67 11.88Z" fill="#292D32"/>
<path d="M15.2597 16.03L14.0597 14.52C14.3897 14.43 14.7197 14.31 15.0297 14.16C15.3897 13.96 15.5197 13.52 15.3297 13.16C15.1397 12.8 14.6897 12.66 14.3297 12.84C13.2897 13.36 12.0497 13.36 11.0097 12.84C10.6397 12.65 10.1897 12.8 9.99972 13.17C9.80972 13.54 9.95968 13.99 10.3297 14.18C10.6297 14.33 10.9497 14.45 11.2697 14.53L10.0797 16.04C9.81968 16.37 9.87974 16.84 10.1997 17.09C10.5297 17.35 10.9997 17.29 11.2497 16.97L12.6597 15.19L14.0697 16.97C14.2197 17.16 14.4397 17.25 14.6597 17.25C14.8197 17.25 14.9897 17.2 15.1197 17.09C15.4597 16.83 15.5097 16.36 15.2597 16.03Z" fill="#292D32"/>
</svg>
