<svg width="25" height="24" viewBox="0 0 25 24" fill="none" xmlns="http://www.w3.org/2000/svg">
<path opacity="0.4" d="M16.8597 2H8.48969C4.84968 2 2.67969 4.17 2.67969 7.81V16.18C2.67969 19.82 4.84968 21.99 8.48969 21.99H16.8597C20.4997 21.99 22.6697 19.82 22.6697 16.18V7.81C22.6697 4.17 20.4997 2 16.8597 2Z" fill="#292D32"/>
<path d="M17.6699 17.5H14.5699C14.2699 17.5 13.9999 17.33 13.8799 17.05C13.7599 16.77 13.8099 16.46 14.0099 16.24L15.6299 14.45C16.2999 13.7 16.6799 12.75 16.6799 11.77C16.6799 10.77 16.2699 9.83 15.5199 9.12C14.7699 8.41 13.7299 8 12.6699 8C11.6099 8 10.5699 8.41 9.81995 9.12C9.06995 9.83 8.65991 10.77 8.65991 11.77C8.65991 12.75 9.0299 13.7 9.7099 14.45L11.3299 16.24C11.5299 16.46 11.5799 16.78 11.4599 17.05C11.3399 17.32 11.0699 17.5 10.7699 17.5H7.66992C7.25992 17.5 6.91992 17.16 6.91992 16.75C6.91992 16.34 7.25992 16 7.66992 16H9.0799L8.5899 15.46C7.6699 14.44 7.15991 13.13 7.15991 11.77C7.15991 10.38 7.74992 9.01003 8.78992 8.03003C9.82992 7.04003 11.2099 6.5 12.6699 6.5C14.1299 6.5 15.5099 7.04003 16.5499 8.03003C17.5799 9.01003 18.1799 10.38 18.1799 11.77C18.1799 13.12 17.6699 14.43 16.7499 15.46L16.2599 16H17.6699C18.0799 16 18.4199 16.34 18.4199 16.75C18.4199 17.16 18.0799 17.5 17.6699 17.5Z" fill="#292D32"/>
</svg>
