<svg width="25" height="24" viewBox="0 0 25 24" fill="none" xmlns="http://www.w3.org/2000/svg">
<path opacity="0.4" d="M12.6396 22C18.1625 22 22.6396 17.5228 22.6396 12C22.6396 6.47715 18.1625 2 12.6396 2C7.1168 2 2.63965 6.47715 2.63965 12C2.63965 17.5228 7.1168 22 12.6396 22Z" fill="#292D32"/>
<path d="M11.3899 15.03V8.97C11.3899 8.49 11.1899 8.3 10.6799 8.3H9.37992C8.86992 8.3 8.66992 8.49 8.66992 8.97V15.03C8.66992 15.51 8.86992 15.7 9.37992 15.7H10.6699C11.1899 15.7 11.3899 15.51 11.3899 15.03Z" fill="#292D32"/>
<path d="M16.67 15.03V8.97C16.67 8.49 16.47 8.3 15.96 8.3H14.67C14.16 8.3 13.96 8.49 13.96 8.97V15.03C13.96 15.51 14.16 15.7 14.67 15.7H15.96C16.47 15.7 16.67 15.51 16.67 15.03Z" fill="#292D32"/>
</svg>
