<svg width="25" height="24" viewBox="0 0 25 24" fill="none" xmlns="http://www.w3.org/2000/svg">
<path d="M22.3801 11.3499L19.37 13.2499L13.29 7.16993L15.18 4.15992C16.06 2.76992 17.83 2.70995 19.12 3.99995L22.53 7.40992C23.75 8.63992 23.6701 10.5299 22.3801 11.3499Z" fill="#292D32"/>
<path opacity="0.4" d="M16.6703 21.2898L7.31026 22.3898C6.66026 22.4698 6.08026 22.3698 5.59026 22.1298C5.07026 21.8698 4.66026 21.4698 4.40026 20.9398C4.16026 20.4498 4.07026 19.8798 4.14026 19.2398L5.18026 10.5298C5.35026 10.6198 5.54026 10.6998 5.73026 10.7598C6.18026 10.9198 6.66026 10.9998 7.17026 10.9998C8.31026 10.9998 9.34027 10.5798 10.1303 9.87982C10.4803 9.57982 10.7803 9.21982 11.0203 8.81982C11.2303 8.46982 11.3903 8.09983 11.5003 7.69983C11.5603 7.49983 11.6003 7.28982 11.6303 7.06982L13.2903 7.1698L19.3703 13.2598L19.6303 17.6798C19.8803 20.1598 19.0203 21.0198 16.6703 21.2898Z" fill="#292D32"/>
<path d="M9.45015 18.28L5.60014 22.13C5.07014 21.87 4.67016 21.47 4.41016 20.94L8.26015 17.09C8.60015 16.76 9.13015 16.76 9.45015 17.09C9.78015 17.42 9.78015 17.95 9.45015 18.28Z" fill="#292D32"/>
<path d="M7.16992 2C6.10992 2 5.12992 2.36999 4.35992 2.98999C3.31992 3.80999 2.66992 5.08 2.66992 6.5C2.66992 7.34 2.90992 8.14001 3.31992 8.82001C3.75992 9.55001 4.39992 10.15 5.17992 10.53C5.34992 10.62 5.53992 10.7 5.72992 10.76C6.17992 10.92 6.65992 11 7.16992 11C8.30992 11 9.33993 10.58 10.1299 9.88C10.4799 9.58 10.7799 9.22001 11.0199 8.82001C11.2299 8.47001 11.3899 8.10001 11.4999 7.70001C11.5599 7.50001 11.5999 7.29001 11.6299 7.07001C11.6599 6.88001 11.6699 6.69 11.6699 6.5C11.6699 4.01 9.65992 2 7.16992 2ZM8.89992 8.21002C8.74992 8.36002 8.55992 8.42999 8.36992 8.42999C8.17992 8.42999 7.98992 8.36002 7.83992 8.21002L7.17992 7.54999L6.48993 8.23999C6.33993 8.38999 6.14992 8.46002 5.95992 8.46002C5.76992 8.46002 5.57992 8.38999 5.42992 8.23999C5.13992 7.94999 5.13992 7.46999 5.42992 7.17999L6.11992 6.48999L5.45992 5.83002C5.16992 5.54002 5.16992 5.06002 5.45992 4.77002C5.74992 4.48002 6.22993 4.48002 6.51993 4.77002L7.17992 5.42999L7.80992 4.79999C8.09992 4.50999 8.57992 4.50999 8.86992 4.79999C9.15992 5.08999 9.15992 5.56999 8.86992 5.85999L8.23993 6.48999L8.89992 7.15002C9.19992 7.44002 9.19992 7.91002 8.89992 8.21002Z" fill="#292D32"/>
</svg>
