<svg width="25" height="24" viewBox="0 0 25 24" fill="none" xmlns="http://www.w3.org/2000/svg">
<path d="M7.16992 2C6.10992 2 5.12992 2.36999 4.35992 2.98999C3.31992 3.80999 2.66992 5.08 2.66992 6.5C2.66992 7.34 2.90992 8.14001 3.31992 8.82001C3.85992 9.72001 4.70992 10.42 5.72992 10.76C6.17992 10.92 6.65992 11 7.16992 11C8.30992 11 9.33991 10.58 10.1299 9.88C10.4799 9.58 10.7799 9.22001 11.0199 8.82001C11.2299 8.47001 11.3899 8.10001 11.4999 7.70001C11.6099 7.32001 11.6699 6.91 11.6699 6.5C11.6699 4.01 9.65992 2 7.16992 2ZM8.82993 7.25H5.46991C5.05991 7.25 4.71991 6.91 4.71991 6.5C4.71991 6.09 5.05991 5.75 5.46991 5.75H8.82993C9.23993 5.75 9.57993 6.09 9.57993 6.5C9.57993 6.91 9.24993 7.25 8.82993 7.25Z" fill="#292D32"/>
<path d="M22.38 11.3499L19.3701 13.2499L13.29 7.16993L15.1801 4.15992C16.0601 2.76992 17.8301 2.70995 19.1201 3.99995L22.53 7.40992C23.75 8.63992 23.67 10.5299 22.38 11.3499Z" fill="#292D32"/>
<path opacity="0.4" d="M16.6703 21.2898L7.31027 22.3898C6.66027 22.4698 6.08027 22.3698 5.59027 22.1298C5.07027 21.8698 4.66027 21.4698 4.40027 20.9398C4.16027 20.4498 4.07026 19.8798 4.14026 19.2398L5.18027 10.5298C5.35027 10.6198 5.54026 10.6998 5.73026 10.7598C6.18026 10.9198 6.66026 10.9998 7.17026 10.9998C8.31026 10.9998 9.34025 10.5798 10.1303 9.87982C10.4803 9.57982 10.7803 9.21982 11.0203 8.81982C11.2303 8.46982 11.3902 8.09983 11.5002 7.69983C11.5602 7.49983 11.6003 7.28982 11.6303 7.06982L13.2903 7.1698L19.3703 13.2598L19.6303 17.6798C19.8803 20.1598 19.0203 21.0198 16.6703 21.2898Z" fill="#292D32"/>
<path d="M9.45016 18.28L5.60016 22.13C5.07016 21.87 4.67016 21.47 4.41016 20.94L8.26016 17.09C8.60016 16.76 9.13016 16.76 9.45016 17.09C9.78016 17.42 9.78016 17.95 9.45016 18.28Z" fill="#292D32"/>
</svg>
