<svg width="25" height="24" viewBox="0 0 25 24" fill="none" xmlns="http://www.w3.org/2000/svg">
<path opacity="0.4" d="M16.8714 2H8.5014C4.8614 2 2.69141 4.17 2.69141 7.81V16.18C2.69141 19.82 4.8614 21.99 8.5014 21.99H16.8714C20.5114 21.99 22.6814 19.82 22.6814 16.18V7.81C22.6814 4.17 20.5114 2 16.8714 2Z" fill="#292D32"/>
<path d="M9.50141 16.02C9.31141 16.02 9.12141 15.95 8.97141 15.8C8.68141 15.51 8.68141 15.03 8.97141 14.74L15.5214 8.19003C15.8114 7.90003 16.2914 7.90003 16.5814 8.19003C16.8714 8.48003 16.8714 8.96003 16.5814 9.25003L10.0314 15.8C9.8814 15.95 9.6914 16.02 9.50141 16.02Z" fill="#292D32"/>
<path d="M9.91165 7.66003C9.10165 7.66003 8.43164 8.32005 8.43164 9.14005C8.43164 9.95005 9.09165 10.62 9.91165 10.62C10.7217 10.62 11.3916 9.96005 11.3916 9.14005C11.3816 8.32005 10.7217 7.66003 9.91165 7.66003Z" fill="#292D32"/>
<path d="M16.4517 13.39C15.6417 13.39 14.9717 14.05 14.9717 14.87C14.9717 15.68 15.6317 16.35 16.4517 16.35C17.2617 16.35 17.9317 15.69 17.9317 14.87C17.9317 14.05 17.2717 13.39 16.4517 13.39Z" fill="#292D32"/>
</svg>
