<svg width="25" height="24" viewBox="0 0 25 24" fill="none" xmlns="http://www.w3.org/2000/svg">
<path opacity="0.4" d="M19.7397 19.82C19.5497 19.82 19.3597 19.7499 19.2097 19.5999C18.9197 19.3099 18.9197 18.8299 19.2097 18.5399C22.8197 14.9299 22.8197 9.05999 19.2097 5.45999C18.9197 5.16999 18.9197 4.69 19.2097 4.4C19.4997 4.11 19.9797 4.11 20.2697 4.4C24.4597 8.59 24.4597 15.4099 20.2697 19.5999C20.1197 19.7499 19.9297 19.82 19.7397 19.82Z" fill="#292D32"/>
<path opacity="0.4" d="M5.60023 19.82C5.41023 19.82 5.22023 19.7499 5.07023 19.5999C0.880234 15.4099 0.880234 8.59 5.07023 4.4C5.36023 4.11 5.84023 4.11 6.13023 4.4C6.42023 4.69 6.42023 5.16999 6.13023 5.45999C2.52023 9.06999 2.52023 14.9399 6.13023 18.5399C6.42023 18.8299 6.42023 19.3099 6.13023 19.5999C5.98023 19.7499 5.79023 19.82 5.60023 19.82Z" fill="#292D32"/>
<path opacity="0.4" d="M12.6697 22.71C11.4197 22.7 10.2297 22.5 9.1197 22.11C8.7297 21.97 8.51968 21.54 8.65968 21.15C8.79968 20.76 9.2197 20.55 9.6197 20.69C10.5797 21.02 11.5997 21.2 12.6797 21.2C13.7497 21.2 14.7797 21.02 15.7297 20.69C16.1197 20.56 16.5497 20.76 16.6897 21.15C16.8297 21.54 16.6197 21.97 16.2297 22.11C15.1097 22.5 13.9197 22.71 12.6697 22.71Z" fill="#292D32"/>
<path opacity="0.4" d="M15.9699 3.34003C15.8899 3.34003 15.7999 3.32999 15.7199 3.29999C14.7599 2.96999 13.7299 2.78998 12.6599 2.78998C11.5899 2.78998 10.5699 2.96999 9.60991 3.29999C9.21991 3.42999 8.78992 3.23003 8.64992 2.84003C8.50992 2.45003 8.71991 2.02 9.10991 1.88C10.2199 1.49 11.4199 1.28998 12.6599 1.28998C13.8999 1.28998 15.0999 1.49 16.2099 1.88C16.5999 2.02 16.8099 2.45003 16.6699 2.84003C16.5699 3.15003 16.2799 3.34003 15.9699 3.34003Z" fill="#292D32"/>
<path d="M9.41016 12V10.33C9.41016 8.25003 10.8802 7.40002 12.6802 8.44002L14.1302 9.28005L15.5802 10.12C17.3802 11.16 17.3802 12.86 15.5802 13.9L14.1302 14.74L12.6802 15.58C10.8802 16.62 9.41016 15.77 9.41016 13.69V12Z" fill="#292D32"/>
</svg>
