<svg width="25" height="24" viewBox="0 0 25 24" fill="none" xmlns="http://www.w3.org/2000/svg">
<path opacity="0.4" d="M22.6699 12C22.6699 13.31 22.4199 14.57 21.9499 15.72C21.2999 15.27 20.5099 15 19.6699 15C18.7299 15 17.8599 15.33 17.1699 15.88C16.2499 16.61 15.6699 17.74 15.6699 19C15.6699 19.75 15.8799 20.46 16.2499 21.06C16.2899 21.13 16.3399 21.2 16.3999 21.27C15.2499 21.74 13.9899 22 12.6699 22C7.14992 22 2.66992 17.52 2.66992 12C2.66992 6.48 7.14992 2 12.6699 2C18.1899 2 22.6699 6.48 22.6699 12Z" fill="#292D32"/>
<path d="M10.0498 12V10.61C10.0498 8.89001 11.2698 8.18001 12.7598 9.04001L13.9598 9.73001L15.1598 10.42C16.6498 11.28 16.6498 12.69 15.1598 13.55L13.9598 14.24L12.7598 14.93C11.2698 15.79 10.0498 15.09 10.0498 13.36V12Z" fill="#292D32"/>
<path d="M19.6699 15C18.7299 15 17.8599 15.33 17.1699 15.88C16.2499 16.61 15.6699 17.74 15.6699 19C15.6699 19.75 15.8799 20.46 16.2499 21.06C16.9399 22.22 18.2099 23 19.6699 23C20.6799 23 21.5999 22.63 22.2999 22C22.6099 21.74 22.8799 21.42 23.0899 21.06C23.4599 20.46 23.6699 19.75 23.6699 19C23.6699 16.79 21.8799 15 19.6699 15ZM21.1699 19.73H20.4199V20.51C20.4199 20.92 20.0799 21.26 19.6699 21.26C19.2599 21.26 18.9199 20.92 18.9199 20.51V19.73H18.1699C17.7599 19.73 17.4199 19.39 17.4199 18.98C17.4199 18.57 17.7599 18.23 18.1699 18.23H18.9199V17.52C18.9199 17.11 19.2599 16.77 19.6699 16.77C20.0799 16.77 20.4199 17.11 20.4199 17.52V18.23H21.1699C21.5799 18.23 21.9199 18.57 21.9199 18.98C21.9199 19.39 21.5799 19.73 21.1699 19.73Z" fill="#292D32"/>
</svg>
