<svg width="25" height="24" viewBox="0 0 25 24" fill="none" xmlns="http://www.w3.org/2000/svg">
<path opacity="0.4" d="M12.6396 22C18.1625 22 22.6396 17.5228 22.6396 12C22.6396 6.47715 18.1625 2 12.6396 2C7.1168 2 2.63965 6.47715 2.63965 12C2.63965 17.5228 7.1168 22 12.6396 22Z" fill="#292D32"/>
<path d="M15.6403 10.23L12.7403 8.56C12.0203 8.14 11.1503 8.14 10.4303 8.56C9.71027 8.98 9.28027 9.72 9.28027 10.56V13.91C9.28027 14.74 9.71027 15.49 10.4303 15.91C10.7903 16.12 11.1903 16.22 11.5803 16.22C11.9803 16.22 12.3703 16.12 12.7303 15.91L15.6303 14.24C16.3503 13.82 16.7803 13.08 16.7803 12.24C16.8003 11.4 16.3703 10.65 15.6403 10.23Z" fill="#292D32"/>
</svg>
