<svg width="25" height="24" viewBox="0 0 25 24" fill="none" xmlns="http://www.w3.org/2000/svg">
<path opacity="0.4" d="M21.6699 2V14.1C21.6699 16 20.6699 17 18.7699 17H6.56992C4.66992 17 3.66992 16 3.66992 14.1V2H21.6699Z" fill="#292D32"/>
<path d="M22.6699 2.75H2.66992C2.25992 2.75 1.91992 2.41 1.91992 2C1.91992 1.59 2.25992 1.25 2.66992 1.25H22.6699C23.0799 1.25 23.4199 1.59 23.4199 2C23.4199 2.41 23.0799 2.75 22.6699 2.75Z" fill="#292D32"/>
<path d="M17.3402 22.34C17.2102 22.6 16.9402 22.75 16.6702 22.75C16.5602 22.75 16.4402 22.72 16.3402 22.67L12.6702 20.84L9.00017 22.67C8.90017 22.72 8.78019 22.75 8.67019 22.75C8.40019 22.75 8.13017 22.6 8.00017 22.34C7.81017 21.96 7.9602 21.51 8.3402 21.33L11.9202 19.54V17H13.4202V19.54L17.0002 21.33C17.3802 21.51 17.5302 21.96 17.3402 22.34Z" fill="#292D32"/>
<path d="M8.16985 11.7499C7.95985 11.7499 7.73986 11.6599 7.58986 11.4799C7.31986 11.1599 7.36984 10.6899 7.68984 10.4199L10.8399 7.78993C11.1299 7.54993 11.4998 7.44994 11.8498 7.50994C12.2098 7.56994 12.5199 7.78991 12.7099 8.10991L13.7598 9.85991L16.6898 7.41994C17.0098 7.14994 17.4798 7.19992 17.7498 7.51992C18.0198 7.83992 17.9699 8.30991 17.6499 8.57991L14.4998 11.2099C14.2098 11.4499 13.8399 11.5499 13.4899 11.4899C13.1299 11.4299 12.8198 11.2099 12.6298 10.8899L11.5799 9.13994L8.64986 11.5799C8.50986 11.6899 8.33985 11.7499 8.16985 11.7499Z" fill="#292D32"/>
</svg>
