<svg width="25" height="24" viewBox="0 0 25 24" fill="none" xmlns="http://www.w3.org/2000/svg">
<path opacity="0.58" d="M24.6699 0H0.669922V24H24.6699V0Z" fill="white"/>
<path d="M15.69 2.23006C13.69 1.92006 11.65 1.92006 9.64998 2.23006C8.82998 2.36006 8.22997 3.06005 8.22997 3.88005V7.56005H4.54997C3.72997 7.56005 3.02998 8.16006 2.89998 8.98006C2.58998 10.9801 2.58998 13.0201 2.89998 15.0201C3.02998 15.8401 3.72997 16.4401 4.54997 16.4401H8.22997V14.2201C8.22997 12.9901 9.21997 12.0001 10.45 12.0001H14.89C16.12 12.0001 17.11 11.0001 17.11 9.78005V3.88005C17.11 3.06005 16.51 2.36006 15.69 2.23006ZM11 5.58006C10.59 5.58006 10.19 5.19005 10.19 4.77005C10.19 4.35005 10.58 3.97006 11 3.97006C11.19 3.97006 11.42 4.06006 11.56 4.19006C11.71 4.33006 11.81 4.57005 11.81 4.77005C11.81 5.19005 11.42 5.58006 11 5.58006Z" fill="#292D32"/>
<path opacity="0.4" d="M22.44 8.98006C22.31 8.16006 21.61 7.56006 20.79 7.56006H17.11V9.78006C17.11 11.0001 16.12 12.0001 14.89 12.0001H10.45C9.21998 12.0001 8.22998 12.9901 8.22998 14.2201V20.1201C8.22998 20.9401 8.82999 21.6401 9.64999 21.7701C11.65 22.0801 13.69 22.0801 15.69 21.7701C16.51 21.6401 17.11 20.9401 17.11 20.1201V16.4401H20.79C21.61 16.4401 22.31 15.8401 22.44 15.0201C22.75 13.0201 22.75 10.9801 22.44 8.98006ZM14.34 20.0301C13.93 20.0301 13.53 19.6401 13.53 19.2201C13.53 18.8001 13.92 18.4101 14.34 18.4101C14.53 18.4101 14.76 18.5001 14.9 18.6301C15.05 18.7701 15.15 19.0101 15.15 19.2101C15.14 19.6401 14.75 20.0301 14.34 20.0301Z" fill="#292D32"/>
</svg>
