<svg width="25" height="24" viewBox="0 0 25 24" fill="none" xmlns="http://www.w3.org/2000/svg">
<path opacity="0.58" d="M24.6699 0H0.669922V24H24.6699V0Z" fill="white"/>
<path opacity="0.6" d="M21.6699 7V12L17.6699 14.78V9.23L21.6699 7Z" fill="#292D32"/>
<path opacity="0.6" d="M12.6699 17.56V22L3.66992 17L7.66992 14.77V14.78L12.6699 17.56Z" fill="#292D32"/>
<path d="M7.66992 9.23V14.77L3.66992 17V7L7.66992 9.23Z" fill="#292D32"/>
<path opacity="0.6" d="M12.6699 2V6.44L7.66992 9.22V9.23L3.66992 7L12.6699 2Z" fill="#292D32"/>
<path d="M17.6699 9.23V9.22L12.6699 6.44V2L21.6699 7L17.6699 9.23Z" fill="#292D32"/>
<path d="M17.6699 14.78V19.5L12.6699 22V17.56L17.6699 14.78Z" fill="#292D32"/>
<path opacity="0.4" d="M21.6699 17V22L17.6699 19.5V14.78L21.6699 17Z" fill="#292D32"/>
<path opacity="0.4" d="M17.6699 9.21994V14.7799L12.6699 17.5599L7.66992 14.7799V9.21994L12.6699 6.43994L17.6699 9.21994Z" fill="#292D32"/>
</svg>
