<svg width="25" height="24" viewBox="0 0 25 24" fill="none" xmlns="http://www.w3.org/2000/svg">
<path opacity="0.4" d="M12.6719 22C18.1947 22 22.6719 17.5228 22.6719 12C22.6719 6.47715 18.1947 2 12.6719 2C7.14903 2 2.67188 6.47715 2.67188 12C2.67188 17.5228 7.14903 22 12.6719 22Z" fill="#292D32"/>
<path d="M8.86188 16.78H10.3519C11.4419 16.78 12.2919 15.93 12.2919 14.84V13.35C12.2919 12.26 11.4419 11.41 10.3519 11.41H8.44188C8.52188 9.59997 8.94187 9.33 10.1519 8.62C10.5119 8.41 10.6219 7.95003 10.4119 7.59003C10.2719 7.35003 10.0219 7.21997 9.76187 7.21997C9.63187 7.21997 9.50188 7.25001 9.38188 7.32001C7.59188 8.38001 6.92188 9.07002 6.92188 12.15V14.82C6.92188 15.91 7.79188 16.78 8.86188 16.78Z" fill="#292D32"/>
<path d="M14.9918 16.78H16.4818C17.5718 16.78 18.4218 15.93 18.4218 14.84V13.35C18.4218 12.26 17.5718 11.41 16.4818 11.41H14.5717C14.6517 9.59997 15.0718 9.33 16.2818 8.62C16.6418 8.41 16.7517 7.95003 16.5417 7.59003C16.4017 7.35003 16.1518 7.21997 15.8918 7.21997C15.7618 7.21997 15.6317 7.25001 15.5117 7.32001C13.7217 8.38001 13.0518 9.07002 13.0518 12.15V14.82C13.0618 15.91 13.9318 16.78 14.9918 16.78Z" fill="#292D32"/>
</svg>
