<svg width="25" height="24" viewBox="0 0 25 24" fill="none" xmlns="http://www.w3.org/2000/svg">
<path opacity="0.4" d="M12.6719 22C18.1947 22 22.6719 17.5228 22.6719 12C22.6719 6.47715 18.1947 2 12.6719 2C7.14903 2 2.67188 6.47715 2.67188 12C2.67188 17.5228 7.14903 22 12.6719 22Z" fill="#292D32"/>
<path d="M16.4818 7.21997H14.9918C13.9018 7.21997 13.0518 8.06997 13.0518 9.15997V10.65C13.0518 11.74 13.9018 12.59 14.9918 12.59H16.9017C16.8217 14.4 16.4018 14.67 15.1918 15.38C14.8318 15.59 14.7217 16.05 14.9317 16.41C15.0717 16.65 15.3218 16.78 15.5818 16.78C15.7118 16.78 15.8417 16.75 15.9617 16.68C17.7517 15.62 18.4218 14.93 18.4218 11.85V9.17999C18.4218 8.08999 17.5518 7.21997 16.4818 7.21997Z" fill="#292D32"/>
<path d="M10.3519 7.21997H8.86188C7.77188 7.21997 6.92188 8.06997 6.92188 9.15997V10.65C6.92188 11.74 7.77188 12.59 8.86188 12.59H10.7719C10.6919 14.4 10.2719 14.67 9.06187 15.38C8.70187 15.59 8.59188 16.05 8.80188 16.41C8.94188 16.65 9.19187 16.78 9.45187 16.78C9.58187 16.78 9.71188 16.75 9.83188 16.68C11.6219 15.62 12.2919 14.93 12.2919 11.85V9.17999C12.2819 8.08999 11.4119 7.21997 10.3519 7.21997Z" fill="#292D32"/>
</svg>
