<svg width="25" height="24" viewBox="0 0 25 24" fill="none" xmlns="http://www.w3.org/2000/svg">
<path d="M16.582 12.3699H21.272C21.192 17.0399 20.272 17.8099 17.402 19.5099C17.072 19.7099 16.962 20.1299 17.162 20.4699C17.362 20.7999 17.782 20.91 18.122 20.71C21.502 18.71 22.682 17.4899 22.682 11.6699V6.27997C22.682 4.56997 21.292 3.18994 19.592 3.18994H16.592C14.832 3.18994 13.502 4.51997 13.502 6.27997V9.27997C13.492 11.04 14.822 12.3699 16.582 12.3699Z" fill="#292D32"/>
<path opacity="0.4" d="M5.7617 12.3699H10.4517C10.3717 17.0399 9.4517 17.8099 6.5817 19.5099C6.2517 19.7099 6.1417 20.1299 6.3417 20.4699C6.5417 20.7999 6.9617 20.91 7.3017 20.71C10.6817 18.71 11.8617 17.4899 11.8617 11.6699V6.27997C11.8617 4.56997 10.4717 3.18994 8.7717 3.18994H5.7717C4.0117 3.18994 2.6817 4.51997 2.6817 6.27997V9.27997C2.6717 11.04 4.0017 12.3699 5.7617 12.3699Z" fill="#292D32"/>
</svg>
