<svg width="25" height="24" viewBox="0 0 25 24" fill="none" xmlns="http://www.w3.org/2000/svg">
<path opacity="0.4" d="M12.6699 22C18.1928 22 22.6699 17.5228 22.6699 12C22.6699 6.47715 18.1928 2 12.6699 2C7.14707 2 2.66992 6.47715 2.66992 12C2.66992 17.5228 7.14707 22 12.6699 22Z" fill="#292D32"/>
<path d="M12.6702 4.25C10.9802 4.25 9.37017 4.79 8.02017 5.8C7.69017 6.05 7.62018 6.52001 7.87018 6.85001C8.12018 7.18001 8.59017 7.25 8.92017 7C10.0102 6.18 11.3002 5.75 12.6702 5.75C16.1202 5.75 18.9202 8.55 18.9202 12C18.9202 15.45 16.1202 18.25 12.6702 18.25C9.22017 18.25 6.42017 15.45 6.42017 12C6.42017 11.16 6.59016 10.33 6.91016 9.56L8.05017 10.21C7.83017 10.78 7.71017 11.38 7.71017 12C7.71017 14.73 9.93016 16.95 12.6602 16.95C15.3902 16.95 17.6102 14.73 17.6102 12C17.6102 9.27 15.3902 7.05 12.6602 7.05C11.9202 7.05 11.2102 7.21 10.5502 7.52C10.1802 7.7 10.0102 8.14 10.1902 8.52C10.3702 8.89 10.8102 9.05 11.1902 8.88C11.6502 8.66001 12.1402 8.55 12.6602 8.55C14.5602 8.55 16.1102 10.1 16.1102 12C16.1102 13.9 14.5602 15.45 12.6602 15.45C10.7602 15.45 9.21017 13.9 9.21017 12C9.21017 11.65 9.28016 11.31 9.38016 10.98L12.2902 12.65C12.6502 12.86 13.1102 12.73 13.3102 12.37C13.5202 12.01 13.3902 11.55 13.0302 11.35L6.96017 7.86C6.60017 7.65 6.14016 7.78 5.94016 8.14C5.27016 9.31 4.91016 10.64 4.91016 12C4.91016 16.27 8.39016 19.75 12.6602 19.75C16.9302 19.75 20.4102 16.27 20.4102 12C20.4102 7.73 16.9402 4.25 12.6702 4.25Z" fill="#292D32"/>
</svg>
