<svg width="25" height="24" viewBox="0 0 25 24" fill="none" xmlns="http://www.w3.org/2000/svg">
<path opacity="0.4" d="M22.6699 10V17C22.6699 20 20.6699 22 17.6699 22H7.66992C4.66992 22 2.66992 20 2.66992 17V10C2.66992 7.26 4.33992 5.34999 6.91992 5.04999C7.15992 5.00999 7.40992 5 7.66992 5H17.6699C20.6699 5 22.6699 7 22.6699 10Z" fill="#292D32"/>
<path d="M8.41992 2V5H7.66992C7.40992 5 7.15992 5.00999 6.91992 5.04999V2C6.91992 1.59 7.25992 1.25 7.66992 1.25C8.07992 1.25 8.41992 1.59 8.41992 2Z" fill="#292D32"/>
<path d="M8.5498 16C9.93052 16 11.0498 14.8807 11.0498 13.5C11.0498 12.1193 9.93052 11 8.5498 11C7.16909 11 6.0498 12.1193 6.0498 13.5C6.0498 14.8807 7.16909 16 8.5498 16Z" fill="#292D32"/>
<path d="M18.5498 12.25H14.5498C14.1398 12.25 13.7998 11.91 13.7998 11.5C13.7998 11.09 14.1398 10.75 14.5498 10.75H18.5498C18.9598 10.75 19.2998 11.09 19.2998 11.5C19.2998 11.91 18.9598 12.25 18.5498 12.25Z" fill="#292D32"/>
<path d="M15.0498 16.25H14.5498C14.1398 16.25 13.7998 15.91 13.7998 15.5C13.7998 15.09 14.1398 14.75 14.5498 14.75H15.0498C15.4598 14.75 15.7998 15.09 15.7998 15.5C15.7998 15.91 15.4598 16.25 15.0498 16.25Z" fill="#292D32"/>
<path d="M18.5498 16.25H18.0498C17.6398 16.25 17.2998 15.91 17.2998 15.5C17.2998 15.09 17.6398 14.75 18.0498 14.75H18.5498C18.9598 14.75 19.2998 15.09 19.2998 15.5C19.2998 15.91 18.9598 16.25 18.5498 16.25Z" fill="#292D32"/>
</svg>
