<svg width="25" height="24" viewBox="0 0 25 24" fill="none" xmlns="http://www.w3.org/2000/svg">
<path opacity="0.4" d="M19.1699 10V12.17C19.1699 12.7 19.3799 13.21 19.7599 13.59L20.5799 14.41C20.9599 14.79 21.1699 15.3 21.1699 15.83V17C21.1699 20 19.6399 22 16.1699 22H9.16992C5.63992 22 4.16992 20 4.16992 17V7C4.16992 4.08 5.56992 2.1 8.90992 2.01C8.98992 2 9.07992 2 9.16992 2H16.1699C16.2499 2 16.3299 2 16.4099 2.01C19.7099 2.09 21.1699 4.07 21.1699 7V8C21.1699 8.55 20.7199 9 20.1699 9C19.6199 9 19.1699 9.45 19.1699 10Z" fill="#292D32"/>
<path d="M10.4096 2L10.3596 4.96C10.3496 5.37 10.0196 5.7 9.6096 5.7H9.5996C9.1796 5.69 8.8496 5.35 8.8596 4.93L8.9096 2.01C8.9896 2 9.0796 2 9.1696 2H10.4096Z" fill="#292D32"/>
<path d="M13.4096 2L13.3596 4.95C13.3496 5.35 13.0196 5.68 12.6096 5.68H12.5996C12.1796 5.67 11.8496 5.33 11.8596 4.92L11.9096 2H13.4096Z" fill="#292D32"/>
<path d="M16.4096 2.01L16.3596 4.89C16.3496 5.3 16.0196 5.63 15.6096 5.63H15.5996C15.1796 5.62 14.8496 5.28 14.8596 4.87L14.9096 2H16.1696C16.2496 2 16.3296 2 16.4096 2.01Z" fill="#292D32"/>
<path d="M16.6904 21.98C16.5204 21.99 16.3504 22 16.1804 22H9.18039C9.00039 22 8.83039 22 8.67039 21.98L8.65039 19C8.65039 17.9 9.54039 17 10.6504 17H14.6604C15.7604 17 16.6504 17.89 16.6604 18.99L16.6904 21.98Z" fill="#292D32"/>
</svg>
