<svg width="25" height="24" viewBox="0 0 25 24" fill="none" xmlns="http://www.w3.org/2000/svg">
<path opacity="0.4" d="M19.1699 10V12.17C19.1699 12.7 19.3799 13.21 19.7599 13.59L20.5799 14.41C20.9599 14.79 21.1699 15.3 21.1699 15.83V17C21.1699 19.85 19.7899 21.8 16.6799 21.98L16.6599 18.99C16.6499 17.89 15.7599 17 14.6599 17H10.6499C9.53992 17 8.64992 17.9 8.64992 19L8.65992 21.98C5.49992 21.8 4.16992 19.85 4.16992 17V7C4.16992 4 5.63992 2 9.16992 2H16.1699C19.6399 2 21.1699 4 21.1699 7V8C21.1699 8.55 20.7199 9 20.1699 9C19.6199 9 19.1699 9.45 19.1699 10Z" fill="#292D32"/>
<path d="M16.6804 21.98C16.5204 21.99 16.3504 22 16.1704 22H9.17039C8.99039 22 8.82039 22 8.66039 21.98L8.65039 19C8.65039 17.9 9.54039 17 10.6504 17H14.6604C15.7604 17 16.6504 17.89 16.6604 18.99L16.6804 21.98Z" fill="#292D32"/>
<path d="M14.6396 8.53003H8.63965C8.22965 8.53003 7.88965 8.19003 7.88965 7.78003C7.88965 7.37003 8.22965 7.03003 8.63965 7.03003H14.6396C15.0496 7.03003 15.3896 7.37003 15.3896 7.78003C15.3896 8.19003 15.0596 8.53003 14.6396 8.53003Z" fill="#292D32"/>
</svg>
