<svg width="25" height="24" viewBox="0 0 25 24" fill="none" xmlns="http://www.w3.org/2000/svg">
<path opacity="0.4" d="M7.39992 19.7C8.21992 18.82 9.46992 18.89 10.1899 19.85L11.1999 21.2C12.0099 22.27 13.3199 22.27 14.1299 21.2L15.1399 19.85C15.8599 18.89 17.1099 18.82 17.9299 19.7C19.7099 21.6 21.1599 20.97 21.1599 18.31V7.04C21.1699 3.01 20.2299 2 16.4499 2H8.88992C5.10992 2 4.16992 3.01 4.16992 7.04V18.3C4.16992 20.97 5.62992 21.59 7.39992 19.7Z" fill="#292D32"/>
<path d="M16.6699 7.75H8.66992C8.25992 7.75 7.91992 7.41 7.91992 7C7.91992 6.59 8.25992 6.25 8.66992 6.25H16.6699C17.0799 6.25 17.4199 6.59 17.4199 7C17.4199 7.41 17.0799 7.75 16.6699 7.75Z" fill="#292D32"/>
<path d="M15.6699 11.75H9.66992C9.25992 11.75 8.91992 11.41 8.91992 11C8.91992 10.59 9.25992 10.25 9.66992 10.25H15.6699C16.0799 10.25 16.4199 10.59 16.4199 11C16.4199 11.41 16.0799 11.75 15.6699 11.75Z" fill="#292D32"/>
</svg>
