<svg width="25" height="24" viewBox="0 0 25 24" fill="none" xmlns="http://www.w3.org/2000/svg">
<path d="M22.6699 6V8.42C22.6699 10 21.6699 11 20.0899 11H16.6699V4.01C16.6699 2.9 17.5799 2 18.6899 2C19.7799 2.01 20.7799 2.45 21.4999 3.17C22.2199 3.9 22.6699 4.9 22.6699 6Z" fill="#292D32"/>
<path opacity="0.4" d="M2.66992 7V21C2.66992 21.83 3.60993 22.3 4.26993 21.8L5.97992 20.52C6.37992 20.22 6.93993 20.26 7.29993 20.62L8.95992 22.29C9.34992 22.68 9.98993 22.68 10.3799 22.29L12.0599 20.61C12.4099 20.26 12.9699 20.22 13.3599 20.52L15.0699 21.8C15.7299 22.29 16.6699 21.82 16.6699 21V4C16.6699 2.9 17.5699 2 18.6699 2H7.66992H6.66992C3.66992 2 2.66992 3.79 2.66992 6V7Z" fill="#292D32"/>
<path d="M12.4199 9.25H10.4199V7.25C10.4199 6.84 10.0799 6.5 9.66992 6.5C9.25992 6.5 8.91992 6.84 8.91992 7.25V9.25H6.91992C6.50992 9.25 6.16992 9.59 6.16992 10C6.16992 10.41 6.50992 10.75 6.91992 10.75H8.91992V12.75C8.91992 13.16 9.25992 13.5 9.66992 13.5C10.0799 13.5 10.4199 13.16 10.4199 12.75V10.75H12.4199C12.8299 10.75 13.1699 10.41 13.1699 10C13.1699 9.59 12.8299 9.25 12.4199 9.25Z" fill="#292D32"/>
</svg>
