<svg width="25" height="24" viewBox="0 0 25 24" fill="none" xmlns="http://www.w3.org/2000/svg">
<path opacity="0.4" d="M7.39992 19.7C8.21992 18.82 9.46992 18.89 10.1899 19.85L11.1999 21.2C12.0099 22.27 13.3199 22.27 14.1299 21.2L15.1399 19.85C15.8599 18.89 17.1099 18.82 17.9299 19.7C19.7099 21.6 21.1599 20.97 21.1599 18.31V7.04C21.1699 3.01 20.2299 2 16.4499 2H8.88992C5.10992 2 4.16992 3.01 4.16992 7.04V18.3C4.16992 20.97 5.62992 21.59 7.39992 19.7Z" fill="#292D32"/>
<path d="M16.9004 11.75H11.4004C10.9904 11.75 10.6504 11.41 10.6504 11C10.6504 10.59 10.9904 10.25 11.4004 10.25H16.9004C17.3104 10.25 17.6504 10.59 17.6504 11C17.6504 11.41 17.3104 11.75 16.9004 11.75Z" fill="#292D32"/>
<path d="M16.9004 7.75H11.4004C10.9904 7.75 10.6504 7.41 10.6504 7C10.6504 6.59 10.9904 6.25 11.4004 6.25H16.9004C17.3104 6.25 17.6504 6.59 17.6504 7C17.6504 7.41 17.3104 7.75 16.9004 7.75Z" fill="#292D32"/>
<path d="M8.4502 8C7.9002 8 7.4502 7.55 7.4502 7C7.4502 6.45 7.9002 6 8.4502 6C9.0002 6 9.45019 6.45 9.45019 7C9.45019 7.55 9.0002 8 8.4502 8Z" fill="#292D32"/>
<path d="M8.4502 12C7.9002 12 7.4502 11.55 7.4502 11C7.4502 10.45 7.9002 10 8.4502 10C9.0002 10 9.45019 10.45 9.45019 11C9.45019 11.55 9.0002 12 8.4502 12Z" fill="#292D32"/>
</svg>
