<svg width="25" height="24" viewBox="0 0 25 24" fill="none" xmlns="http://www.w3.org/2000/svg">
<path opacity="0.4" d="M7.40018 19.7C8.22018 18.82 9.47015 18.89 10.1902 19.85L11.2002 21.2C12.0102 22.27 13.3202 22.27 14.1302 21.2L15.1402 19.85C15.8602 18.89 17.1102 18.82 17.9302 19.7C19.7102 21.6 21.1602 20.97 21.1602 18.31V7.04999C21.1602 3.01999 20.2202 2.01001 16.4402 2.01001H8.88016C5.10016 2.01001 4.16016 3.01999 4.16016 7.04999V18.31C4.17016 20.97 5.63018 21.59 7.40018 19.7Z" fill="#292D32"/>
<path d="M16.3298 13.47L15.5898 12.73C15.9698 12.15 16.1998 11.45 16.1998 10.7C16.1998 8.66001 14.5398 7 12.4998 7C10.4598 7 8.7998 8.66001 8.7998 10.7C8.7998 12.74 10.4598 14.4 12.4998 14.4C13.2498 14.4 13.9498 14.17 14.5298 13.79L15.2698 14.53C15.4198 14.68 15.6098 14.75 15.7998 14.75C15.9898 14.75 16.1798 14.68 16.3298 14.53C16.6198 14.24 16.6198 13.76 16.3298 13.47Z" fill="#292D32"/>
</svg>
