<svg width="25" height="24" viewBox="0 0 25 24" fill="none" xmlns="http://www.w3.org/2000/svg">
<path opacity="0.4" d="M16.8599 2H8.48993C4.83993 2 2.66992 4.17 2.66992 7.81V16.18C2.66992 19.82 4.83992 21.99 8.47992 21.99H16.8499C20.4899 21.99 22.6599 19.82 22.6599 16.18V7.81C22.6699 4.17 20.4999 2 16.8599 2Z" fill="#292D32"/>
<path d="M12.6702 6.50995C12.5302 6.50995 12.3802 6.52994 12.2402 6.53994L12.5202 6.21994C12.7902 5.90994 12.7601 5.42994 12.4501 5.15994C12.1401 4.88994 11.6602 4.91994 11.3902 5.22994L9.72015 7.13994C9.71015 7.14994 9.71015 7.15995 9.70015 7.16995C9.69015 7.17994 9.68015 7.17994 9.68015 7.18994C9.66015 7.21994 9.65016 7.25995 9.63016 7.29995C9.61016 7.34995 9.58014 7.38995 9.57014 7.43994C9.56014 7.48994 9.56016 7.52994 9.55016 7.57994C9.55016 7.62994 9.54015 7.66994 9.54015 7.71994C9.54015 7.76994 9.56015 7.80995 9.58015 7.85995C9.59015 7.90995 9.61016 7.94994 9.63016 7.98994C9.65016 8.02994 9.69015 8.06994 9.72015 8.10994C9.75015 8.13994 9.76015 8.17994 9.79015 8.19994C9.80015 8.20994 9.81014 8.20995 9.82014 8.21995C9.83014 8.22995 9.83015 8.23994 9.84015 8.23994L11.7802 9.65995C11.9102 9.75994 12.0702 9.79995 12.2202 9.79995C12.4502 9.79995 12.6802 9.68994 12.8302 9.48994C13.0702 9.15995 13.0002 8.68994 12.6702 8.43994L12.1102 8.02994C12.2902 8.00994 12.4802 7.98994 12.6702 7.98994C15.0102 7.98994 16.9202 9.89995 16.9202 12.2399C16.9202 14.5799 15.0102 16.4899 12.6702 16.4899C10.3302 16.4899 8.42015 14.5799 8.42015 12.2399C8.42015 11.3899 8.67016 10.5799 9.13016 9.87995C9.36016 9.53995 9.27015 9.06994 8.92015 8.83995C8.58015 8.60995 8.11016 8.69995 7.88016 9.04995C7.25016 9.99995 6.91016 11.0999 6.91016 12.2399C6.91016 15.4099 9.49016 17.9899 12.6602 17.9899C15.8302 17.9899 18.4102 15.4099 18.4102 12.2399C18.4102 9.06994 15.8402 6.50995 12.6702 6.50995Z" fill="#292D32"/>
</svg>
