<svg width="25" height="24" viewBox="0 0 25 24" fill="none" xmlns="http://www.w3.org/2000/svg">
<path opacity="0.4" d="M4.32993 16.9314C4.13993 16.9314 3.94993 16.8614 3.79993 16.7114C2.42993 15.3314 1.66992 13.5114 1.66992 11.5814C1.66992 7.57141 4.91992 4.31139 8.91992 4.31139L14.9899 4.33141L13.8999 3.29137C13.5999 3.00137 13.5899 2.53137 13.8799 2.23137C14.1699 1.93137 14.6399 1.92141 14.9399 2.21141L17.3799 4.55138C17.5999 4.76138 17.6699 5.09139 17.5599 5.37139C17.4499 5.65139 17.1699 5.84142 16.8599 5.84142L8.90993 5.8214C5.73993 5.8214 3.15993 8.41142 3.15993 11.5914C3.15993 13.1214 3.75991 14.5714 4.84991 15.6614C5.13991 15.9514 5.13991 16.4314 4.84991 16.7214C4.70991 16.8614 4.51993 16.9314 4.32993 16.9314Z" fill="#292D32"/>
<path opacity="0.4" d="M10.4198 21.5014C10.2298 21.5014 10.0498 21.4314 9.89982 21.2914L7.45982 18.9514C7.23982 18.7414 7.16982 18.4114 7.27982 18.1314C7.38982 17.8514 7.66982 17.6613 7.97982 17.6613L15.9298 17.6814C19.0998 17.6814 21.6798 15.0913 21.6798 11.9113C21.6798 10.3813 21.0798 8.9314 19.9898 7.8414C19.6998 7.5514 19.6998 7.0714 19.9898 6.7814C20.2798 6.4914 20.7598 6.4914 21.0498 6.7814C22.4198 8.1614 23.1798 9.98135 23.1798 11.9113C23.1798 15.9213 19.9298 19.1814 15.9298 19.1814L9.85983 19.1613L10.9498 20.2014C11.2498 20.4914 11.2598 20.9614 10.9698 21.2614C10.8098 21.4214 10.6198 21.5014 10.4198 21.5014Z" fill="#292D32"/>
<path d="M9.66992 15.5H15.6699C17.5999 15.5 19.1699 13.92 19.1699 12C19.1699 10.08 17.5999 8.5 15.6699 8.5H9.66992C7.73992 8.5 6.16992 10.08 6.16992 12C6.16992 13.92 7.73992 15.5 9.66992 15.5Z" fill="#292D32"/>
</svg>
