<svg width="25" height="24" viewBox="0 0 25 24" fill="none" xmlns="http://www.w3.org/2000/svg">
<path opacity="0.4" d="M8.47992 2H16.8499C20.4999 2 22.6699 4.17 22.6699 7.81V16.18C22.6699 19.82 20.4999 21.99 16.8599 21.99H8.47992C4.83992 22 2.66992 19.83 2.66992 16.19V7.81C2.66992 4.17 4.83992 2 8.47992 2Z" fill="#292D32"/>
<path d="M12.6699 18.58C9.49992 18.58 6.91992 16 6.91992 12.83C6.91992 11.69 7.24992 10.58 7.88992 9.64002C8.11992 9.30002 8.58992 9.20002 8.92992 9.43002C9.26992 9.66002 9.36992 10.13 9.13992 10.47C8.66992 11.17 8.42992 11.99 8.42992 12.83C8.42992 15.17 10.3399 17.08 12.6799 17.08C15.0199 17.08 16.9299 15.17 16.9299 12.83C16.9299 10.59 15.1899 8.75002 12.9899 8.59002L13.3999 8.89002C13.7299 9.13002 13.8099 9.60002 13.5599 9.94002C13.3199 10.27 12.8499 10.35 12.5099 10.1L10.5699 8.69002C10.4999 8.64002 10.4399 8.58002 10.3899 8.51002C10.3799 8.50002 10.3699 8.49002 10.3599 8.47002C10.3199 8.40002 10.2899 8.32002 10.2699 8.24002C10.2499 8.14002 10.2499 8.05002 10.2599 7.95002C10.2699 7.91002 10.2799 7.87002 10.2899 7.83002C10.3099 7.76002 10.3499 7.70002 10.3899 7.63002C10.4099 7.62002 10.4299 7.60002 10.4499 7.58002L12.1099 5.68002C12.3799 5.37002 12.8599 5.34002 13.1699 5.61002C13.4799 5.88002 13.5099 6.36002 13.2399 6.67002L12.8699 7.10002C15.9499 7.20002 18.4299 9.74002 18.4299 12.85C18.4199 16 15.8399 18.58 12.6699 18.58Z" fill="#292D32"/>
</svg>
