<svg width="25" height="24" viewBox="0 0 25 24" fill="none" xmlns="http://www.w3.org/2000/svg">
<path opacity="0.4" d="M16.8599 2H8.48992C4.83992 2 2.66992 4.17 2.66992 7.81V16.18C2.66992 19.82 4.83992 21.99 8.47992 21.99H16.8499C20.4899 21.99 22.6599 19.82 22.6599 16.18V7.81C22.6699 4.17 20.4999 2 16.8599 2Z" fill="#292D32"/>
<path d="M18.0199 9.04979L15.6799 16.5898C15.1199 18.3798 12.6099 18.4098 12.0199 16.6298L11.3199 14.5598C11.1299 13.9898 10.6799 13.5298 10.1099 13.3498L8.0299 12.6498C6.2599 12.0598 6.28989 9.52979 8.07989 8.98979L15.6199 6.63979C17.0999 6.18979 18.4899 7.57979 18.0199 9.04979Z" fill="#292D32"/>
</svg>
