<svg width="25" height="24" viewBox="0 0 25 24" fill="none" xmlns="http://www.w3.org/2000/svg">
<path opacity="0.4" d="M22.1396 5V19C22.1396 20.66 20.7896 22 19.1396 22H15.1396C13.4796 22 12.1396 20.66 12.1396 19V5C12.1396 3.34 13.4796 2 15.1396 2H19.1396C20.7896 2 22.1396 3.34 22.1396 5Z" fill="#292D32"/>
<path d="M17.8896 6C17.8896 6.41 17.5496 6.75 17.1396 6.75H12.1396V5.25H17.1396C17.5496 5.25 17.8896 5.59 17.8896 6Z" fill="#292D32"/>
<path d="M16.7896 18C16.7896 18.41 16.4596 18.75 16.0396 18.75H12.1396V17.25H16.0396C16.4596 17.25 16.7896 17.59 16.7896 18Z" fill="#292D32"/>
<path d="M17.8896 14.01C17.8796 14.42 17.5496 14.75 17.1396 14.75C17.1296 14.75 17.1296 14.75 17.1296 14.75L12.1396 14.7V13.2L17.1396 13.25C17.5596 13.25 17.8896 13.59 17.8896 14.01Z" fill="#292D32"/>
<path d="M15.6996 10C15.6996 10.41 15.3596 10.75 14.9496 10.75H12.1396V9.25H14.9496C15.3596 9.25 15.6996 9.59 15.6996 10Z" fill="#292D32"/>
<path opacity="0.4" d="M9.1102 4.95V17.91C9.1102 18.36 8.9202 19.05 8.6902 19.43L7.8702 20.79C6.9302 22.37 5.3902 22.37 4.4402 20.79L3.6302 19.43C3.3902 19.05 3.2002 18.36 3.2002 17.91V4.95C3.2002 3.33 4.5302 2 6.1602 2C7.7802 2 9.1102 3.33 9.1102 4.95Z" fill="#292D32"/>
<path d="M9.1102 6.25H3.2002V7.75H9.1102V6.25Z" fill="#292D32"/>
</svg>
