<svg width="25" height="24" viewBox="0 0 25 24" fill="none" xmlns="http://www.w3.org/2000/svg">
<path d="M22.3598 2.71027C22.2798 2.53027 22.1399 2.38023 21.9499 2.30023C21.8599 2.26023 21.7598 2.24023 21.6598 2.24023H12.6598C12.2498 2.24023 11.9098 2.58023 11.9098 2.99023C11.9098 3.40023 12.2498 3.74023 12.6598 3.74023H19.8498L3.12985 20.4603C2.83985 20.7503 2.83985 21.2303 3.12985 21.5203C3.27985 21.6703 3.46982 21.7402 3.65982 21.7402C3.84982 21.7402 4.03985 21.6703 4.18985 21.5203L20.9098 4.80023V12.0002C20.9098 12.4102 21.2498 12.7502 21.6598 12.7502C22.0698 12.7502 22.4098 12.4102 22.4098 12.0002V3.00024C22.4198 2.90024 22.3998 2.81027 22.3598 2.71027Z" fill="#292D32"/>
<path opacity="0.4" d="M18.07 18.1501C17.88 18.1501 17.6899 18.08 17.5399 17.93L6.73996 7.13004C6.44996 6.84004 6.44996 6.36004 6.73996 6.07004C7.02996 5.78004 7.50996 5.78004 7.79996 6.07004L18.5999 16.87C18.8899 17.16 18.8899 17.64 18.5999 17.93C18.4499 18.08 18.26 18.1501 18.07 18.1501Z" fill="#292D32"/>
</svg>
