<svg width="25" height="24" viewBox="0 0 25 24" fill="none" xmlns="http://www.w3.org/2000/svg">
<path opacity="0.4" d="M13.5599 5.87988H5.77991C4.06991 5.87988 2.66992 7.27987 2.66992 8.98987V20.3499C2.66992 21.7999 3.70992 22.4199 4.97992 21.7099L8.90991 19.5199C9.32991 19.2899 10.0099 19.2899 10.4199 19.5199L14.3499 21.7099C15.6199 22.4199 16.6599 21.7999 16.6599 20.3499V8.98987C16.6699 7.27987 15.2699 5.87988 13.5599 5.87988Z" fill="#292D32"/>
<path d="M22.6699 5.10999V16.47C22.6699 17.92 21.6299 18.53 20.3599 17.83L16.6699 15.77V8.98999C16.6699 7.27999 15.2699 5.88 13.5599 5.88H8.66992V5.10999C8.66992 3.39999 10.0699 2 11.7799 2H19.5599C21.2699 2 22.6699 3.39999 22.6699 5.10999Z" fill="#292D32"/>
</svg>
