<svg width="25" height="24" viewBox="0 0 25 24" fill="none" xmlns="http://www.w3.org/2000/svg">
<path opacity="0.4" d="M16.8599 2H8.47992C4.83992 2 2.66992 4.17 2.66992 7.81V16.18C2.66992 19.83 4.83992 22 8.47992 22H16.8499C20.4899 22 22.6599 19.83 22.6599 16.19V7.81C22.6699 4.17 20.4999 2 16.8599 2Z" fill="#292D32"/>
<path d="M10.2699 15.7799C10.0799 15.7799 9.88987 15.7099 9.73987 15.5599L7.24987 13.0699C6.65987 12.4799 6.65987 11.5299 7.24987 10.9399L9.73987 8.44992C10.0299 8.15992 10.5099 8.15992 10.7999 8.44992C11.0899 8.73992 11.0899 9.21992 10.7999 9.50992L8.30987 11.9999L10.7999 14.4999C11.0899 14.7899 11.0899 15.2699 10.7999 15.5599C10.6499 15.6999 10.4599 15.7799 10.2699 15.7799Z" fill="#292D32"/>
<path d="M15.07 15.7799C14.88 15.7799 14.69 15.7099 14.54 15.5599C14.25 15.2699 14.25 14.7899 14.54 14.4999L17.03 11.9999L14.54 9.49991C14.25 9.20991 14.25 8.72991 14.54 8.43991C14.83 8.14991 15.31 8.14991 15.6 8.43991L18.09 10.9299C18.68 11.5199 18.68 12.4699 18.09 13.0599L15.6 15.5499C15.46 15.6999 15.26 15.7799 15.07 15.7799Z" fill="#292D32"/>
</svg>
