<svg width="25" height="24" viewBox="0 0 25 24" fill="none" xmlns="http://www.w3.org/2000/svg">
<path opacity="0.4" d="M19 5.67L7.26001 17.41C6.82001 17.85 6.08 17.79 5.72 17.27C4.48 15.46 3.75 13.32 3.75 11.12V6.73C3.75 5.91 4.37 4.98 5.13 4.67L10.7 2.39C11.96 1.87 13.36 1.87 14.62 2.39L18.66 4.03999C19.33 4.30999 19.5 5.17 19 5.67Z" fill="#292D32"/>
<path d="M19.9399 7.04012C20.5899 6.49012 21.5799 6.96011 21.5799 7.81011V11.1201C21.5799 16.0101 18.0299 20.5901 13.1799 21.9301C12.8499 22.0201 12.4899 22.0201 12.1499 21.9301C10.7299 21.5301 9.40992 20.8601 8.27992 19.9801C7.79992 19.6101 7.74994 18.9101 8.16994 18.4801C10.3499 16.2501 16.7299 9.75012 19.9399 7.04012Z" fill="#292D32"/>
</svg>
