<svg width="25" height="24" viewBox="0 0 25 24" fill="none" xmlns="http://www.w3.org/2000/svg">
<path opacity="0.4" d="M10.0897 2.15994L4.58969 4.21994C3.53969 4.60994 2.67969 5.85993 2.67969 6.97993V15.0799C2.67969 15.8899 3.2097 16.9599 3.8597 17.4399L9.3597 21.5499C10.3297 22.2799 11.9197 22.2799 12.8897 21.5499L18.3897 17.4399C19.0397 16.9499 19.5697 15.8899 19.5697 15.0799V6.97993C19.5697 5.85993 18.7097 4.60994 17.6597 4.21994L12.1597 2.15994C11.5897 1.94994 10.6597 1.94994 10.0897 2.15994Z" fill="#292D32"/>
<path d="M19.9301 6.76001H13.0801C12.8801 6.76001 12.6901 6.77002 12.5101 6.77002C10.7901 6.87002 10.3301 7.50002 10.3301 9.46002V9.85002C10.3301 10.2642 10.6659 10.6 11.0801 10.6H21.9201C22.3343 10.6 22.6701 10.2642 22.6701 9.85002V9.46002C22.6701 7.30002 22.1201 6.76001 19.9301 6.76001Z" fill="#292D32"/>
<path d="M11.0898 11.7C10.6756 11.7 10.3398 12.0357 10.3398 12.45V14.5399C10.3398 16.6999 10.8898 17.25 13.0798 17.25H19.9298C22.0798 17.25 22.6498 16.73 22.6698 14.66V12.45C22.6698 12.0357 22.3341 11.7 21.9198 11.7H11.0898ZM13.9398 15.47H12.6898C12.3898 15.47 12.1498 15.2299 12.1498 14.9299C12.1498 14.6299 12.3898 14.39 12.6898 14.39H13.9398C14.2398 14.39 14.4798 14.6299 14.4798 14.9299C14.4798 15.2299 14.2398 15.47 13.9398 15.47ZM17.9899 15.47H15.4998C15.1998 15.47 14.9598 15.2299 14.9598 14.9299C14.9598 14.6299 15.1998 14.39 15.4998 14.39H17.9899C18.2899 14.39 18.5298 14.6299 18.5298 14.9299C18.5398 15.2299 18.2899 15.47 17.9899 15.47Z" fill="#292D32"/>
</svg>
