<svg width="25" height="24" viewBox="0 0 25 24" fill="none" xmlns="http://www.w3.org/2000/svg">
<path opacity="0.4" d="M16.8597 2H8.4897C4.8497 2 2.67969 4.17 2.67969 7.81V16.18C2.67969 19.82 4.8497 21.99 8.4897 21.99H16.8597C20.4997 21.99 22.6697 19.82 22.6697 16.18V7.81C22.6697 4.17 20.4997 2 16.8597 2Z" fill="#292D32"/>
<path d="M9.84001 14.09C10.03 14.09 10.22 14.02 10.37 13.87L14.75 9.49004V11.92C14.75 12.33 15.09 12.67 15.5 12.67C15.91 12.67 16.25 12.33 16.25 11.92V7.68005C16.25 7.58005 16.23 7.49005 16.19 7.39005C16.11 7.21005 15.97 7.06005 15.78 6.98005C15.69 6.94005 15.59 6.92004 15.49 6.92004H11.25C10.84 6.92004 10.5 7.26004 10.5 7.67004C10.5 8.08004 10.84 8.42004 11.25 8.42004H13.68L9.30002 12.8C9.01002 13.09 9.01002 13.57 9.30002 13.86C9.46002 14.02 9.65001 14.09 9.84001 14.09Z" fill="#292D32"/>
<path d="M19.3801 16.2801C19.2501 15.8901 18.8301 15.6801 18.4301 15.8101C14.7101 17.0501 10.6201 17.0501 6.9001 15.8101C6.5101 15.6801 6.0801 15.8901 5.9501 16.2801C5.8201 16.6701 6.0301 17.1001 6.4201 17.2301C8.4301 17.9001 10.5401 18.2401 12.6601 18.2401C14.7801 18.2401 16.8901 17.9001 18.9001 17.2301C19.3001 17.0901 19.5101 16.6701 19.3801 16.2801Z" fill="#292D32"/>
</svg>
