<svg width="25" height="24" viewBox="0 0 25 24" fill="none" xmlns="http://www.w3.org/2000/svg">
<path opacity="0.4" d="M16.8599 2H8.47992C4.83992 2 2.66992 4.17 2.66992 7.81V16.18C2.66992 19.83 4.83992 22 8.47992 22H16.8499C20.4899 22 22.6599 19.83 22.6599 16.19V7.81C22.6699 4.17 20.4999 2 16.8599 2Z" fill="#292D32"/>
<path d="M16.25 19.2501C15.84 19.2501 15.5 18.9101 15.5 18.5001V14.6001C15.5 14.1901 15.84 13.8501 16.25 13.8501C16.66 13.8501 17 14.1901 17 14.6001V18.5001C17 18.9101 16.66 19.2501 16.25 19.2501Z" fill="#292D32"/>
<path d="M16.25 8.2C15.84 8.2 15.5 7.86 15.5 7.45V5.5C15.5 5.09 15.84 4.75 16.25 4.75C16.66 4.75 17 5.09 17 5.5V7.45C17 7.86 16.66 8.2 16.25 8.2Z" fill="#292D32"/>
<path d="M9.08984 19.2498C8.67984 19.2498 8.33984 18.9098 8.33984 18.4998V16.5498C8.33984 16.1398 8.67984 15.7998 9.08984 15.7998C9.49984 15.7998 9.83984 16.1398 9.83984 16.5498V18.4998C9.83984 18.9098 9.50984 19.2498 9.08984 19.2498Z" fill="#292D32"/>
<path d="M9.08984 10.15C8.67984 10.15 8.33984 9.81 8.33984 9.4V5.5C8.33984 5.09 8.67984 4.75 9.08984 4.75C9.49984 4.75 9.83984 5.09 9.83984 5.5V9.4C9.83984 9.81 9.50984 10.15 9.08984 10.15Z" fill="#292D32"/>
<path d="M16.25 7.33008C14.75 7.33008 13.52 8.55008 13.52 10.0501C13.52 11.5501 14.74 12.7801 16.25 12.7801C17.75 12.7801 18.97 11.5601 18.97 10.0501C18.97 8.54008 17.75 7.33008 16.25 7.33008Z" fill="#292D32"/>
<path d="M9.09012 11.23C7.59012 11.23 6.37012 12.45 6.37012 13.96C6.37012 15.47 7.59012 16.68 9.09012 16.68C10.5901 16.68 11.8201 15.46 11.8201 13.96C11.8201 12.46 10.6001 11.23 9.09012 11.23Z" fill="#292D32"/>
</svg>
