<svg width="25" height="24" viewBox="0 0 25 24" fill="none" xmlns="http://www.w3.org/2000/svg">
<path opacity="0.4" d="M21.8999 7.61998H16.3599C15.9799 7.61998 15.6699 7.30998 15.6699 6.91998C15.6699 6.53998 15.9799 6.22998 16.3599 6.22998H21.8999C22.2799 6.22998 22.5899 6.53998 22.5899 6.91998C22.5899 7.30998 22.2799 7.61998 21.8999 7.61998Z" fill="#292D32"/>
<path opacity="0.4" d="M7.13 7.62023H3.44C3.06 7.62023 2.75 7.31023 2.75 6.93023C2.75 6.55023 3.06 6.24023 3.44 6.24023H7.13C7.51 6.24023 7.82 6.55023 7.82 6.93023C7.82 7.31023 7.51 7.62023 7.13 7.62023Z" fill="#292D32"/>
<path d="M10.8199 10.84C12.9849 10.84 14.7399 9.08496 14.7399 6.92C14.7399 4.75504 12.9849 3 10.8199 3C8.65495 3 6.8999 4.75504 6.8999 6.92C6.8999 9.08496 8.65495 10.84 10.8199 10.84Z" fill="#292D32"/>
<path opacity="0.4" d="M21.9 17.7701H18.21C17.83 17.7701 17.52 17.4601 17.52 17.0801C17.52 16.7001 17.83 16.3901 18.21 16.3901H21.9C22.28 16.3901 22.59 16.7001 22.59 17.0801C22.59 17.4601 22.28 17.7701 21.9 17.7701Z" fill="#292D32"/>
<path opacity="0.4" d="M8.98 17.7701H3.44C3.06 17.7701 2.75 17.4601 2.75 17.0801C2.75 16.7001 3.06 16.3901 3.44 16.3901H8.98C9.36 16.3901 9.67 16.7001 9.67 17.0801C9.67 17.4601 9.36 17.7701 8.98 17.7701Z" fill="#292D32"/>
<path d="M14.5201 21.0002C16.6851 21.0002 18.4401 19.2451 18.4401 17.0802C18.4401 14.9152 16.6851 13.1602 14.5201 13.1602C12.3551 13.1602 10.6001 14.9152 10.6001 17.0802C10.6001 19.2451 12.3551 21.0002 14.5201 21.0002Z" fill="#292D32"/>
</svg>
