<svg width="25" height="24" viewBox="0 0 25 24" fill="none" xmlns="http://www.w3.org/2000/svg">
<path opacity="0.4" d="M2.66992 12.8799V11.1199C2.66992 10.0799 3.51992 9.21994 4.56992 9.21994C6.37992 9.21994 7.11992 7.93994 6.20992 6.36994C5.68992 5.46994 5.99992 4.29994 6.90992 3.77994L8.63992 2.78994C9.42992 2.31994 10.4499 2.59994 10.9199 3.38994L11.0299 3.57994C11.9299 5.14994 13.4099 5.14994 14.3199 3.57994L14.4299 3.38994C14.8999 2.59994 15.9199 2.31994 16.7099 2.78994L18.4399 3.77994C19.3499 4.29994 19.6599 5.46994 19.1399 6.36994C18.2299 7.93994 18.9699 9.21994 20.7799 9.21994C21.8199 9.21994 22.6799 10.0699 22.6799 11.1199V12.8799C22.6799 13.9199 21.8299 14.7799 20.7799 14.7799C18.9699 14.7799 18.2299 16.0599 19.1399 17.6299C19.6599 18.5399 19.3499 19.6999 18.4399 20.2199L16.7099 21.2099C15.9199 21.6799 14.8999 21.3999 14.4299 20.6099L14.3199 20.4199C13.4199 18.8499 11.9399 18.8499 11.0299 20.4199L10.9199 20.6099C10.4499 21.3999 9.42992 21.6799 8.63992 21.2099L6.90992 20.2199C5.99992 19.6999 5.68992 18.5299 6.20992 17.6299C7.11992 16.0599 6.37992 14.7799 4.56992 14.7799C3.51992 14.7799 2.66992 13.9199 2.66992 12.8799Z" fill="#292D32"/>
<path d="M12.6699 15.25C14.4648 15.25 15.9199 13.7949 15.9199 12C15.9199 10.2051 14.4648 8.75 12.6699 8.75C10.875 8.75 9.41992 10.2051 9.41992 12C9.41992 13.7949 10.875 15.25 12.6699 15.25Z" fill="#292D32"/>
</svg>
