<svg width="25" height="24" viewBox="0 0 25 24" fill="none" xmlns="http://www.w3.org/2000/svg">
<path opacity="0.4" d="M12.4199 7H11.6699H7.66992C4.90992 7 2.66992 9.24 2.66992 12V17C2.66992 19.76 4.90992 22 7.66992 22H12.6699C15.4299 22 17.6699 19.76 17.6699 17V13V12.25C17.6699 9.35 15.3199 7 12.4199 7Z" fill="#292D32"/>
<path d="M17.1702 2C14.3002 2 11.9502 4.2 11.7002 7H12.4202C15.3202 7 17.6702 9.35 17.6702 12.25V12.97C20.4702 12.72 22.6702 10.36 22.6702 7.5C22.6702 4.46 20.2102 2 17.1702 2Z" fill="#292D32"/>
</svg>
