<svg width="25" height="24" viewBox="0 0 25 24" fill="none" xmlns="http://www.w3.org/2000/svg">
<path opacity="0.4" d="M21.0798 6.95994V9.79994L8.06977 19.3399L5.43977 17.3699C4.78977 16.8799 4.25977 15.8299 4.25977 15.0199V6.95994C4.25977 5.83994 5.11977 4.59994 6.16977 4.20994L11.6398 2.15994C12.2098 1.94994 13.1298 1.94994 13.6998 2.15994L19.1698 4.20994C20.2198 4.59994 21.0798 5.83994 21.0798 6.95994Z" fill="#292D32"/>
<path d="M21.0797 11.1699V15.0199C21.0797 15.8299 20.5497 16.8799 19.8997 17.3699L14.4297 21.4599C13.9497 21.8199 13.3097 21.9999 12.6697 21.9999C12.0297 21.9999 11.3897 21.8199 10.9097 21.4599L8.98975 20.0299L21.0797 11.1699Z" fill="#292D32"/>
</svg>
