<svg width="25" height="24" viewBox="0 0 25 24" fill="none" xmlns="http://www.w3.org/2000/svg">
<path opacity="0.4" d="M20.0297 4.63984L6.49973 18.1698L5.39973 17.3498C4.74973 16.8598 4.21973 15.7998 4.21973 14.9798V6.88984C4.21973 5.75984 5.07973 4.51984 6.12973 4.11984L11.6297 2.05984C12.1997 1.84984 13.1397 1.84984 13.7097 2.05984L19.2097 4.11984C19.4997 4.22984 19.7797 4.40984 20.0297 4.63984Z" fill="#292D32"/>
<path opacity="0.4" d="M21.12 6.89008V14.9801C21.12 15.8001 20.59 16.8601 19.94 17.3501L14.44 21.4601C13.46 22.1801 11.88 22.1801 10.9 21.4601L8.20996 19.4601L21.09 6.58008C21.11 6.68008 21.12 6.79008 21.12 6.89008Z" fill="#292D32"/>
<path d="M22.4398 2.22988C22.1398 1.92988 21.6498 1.92988 21.3498 2.22988L2.8998 20.6899C2.5998 20.9899 2.5998 21.4799 2.8998 21.7799C3.0498 21.9199 3.2398 21.9999 3.4398 21.9999C3.6398 21.9999 3.8298 21.9199 3.9798 21.7699L22.4398 3.30988C22.7498 3.00988 22.7498 2.52988 22.4398 2.22988Z" fill="#292D32"/>
</svg>
