<svg width="25" height="24" viewBox="0 0 25 24" fill="none" xmlns="http://www.w3.org/2000/svg">
<path opacity="0.4" d="M11.6297 2.06008L6.12973 4.12008C5.07973 4.52008 4.21973 5.76008 4.21973 6.89008V14.9901C4.21973 15.8001 4.74973 16.8701 5.39973 17.3501L10.8997 21.4601C11.8697 22.1901 13.4597 22.1901 14.4297 21.4601L19.9297 17.3501C20.5797 16.8601 21.1097 15.8001 21.1097 14.9901V6.89008C21.1097 5.77008 20.2497 4.52008 19.1997 4.13008L13.6997 2.07008C13.1397 1.85008 12.1997 1.85008 11.6297 2.06008Z" fill="#292D32"/>
<path d="M15.3497 12.9101L13.7597 11.3201L15.3097 9.77014C15.5997 9.48014 15.5997 9.00014 15.3097 8.71014C15.0197 8.42014 14.5397 8.42014 14.2497 8.71014L12.6997 10.2601L11.1097 8.67014C10.8197 8.38014 10.3397 8.38014 10.0497 8.67014C9.75973 8.96014 9.75973 9.44014 10.0497 9.73014L11.6397 11.3201L9.99973 12.9601C9.70973 13.2501 9.70973 13.7301 9.99973 14.0201C10.1497 14.1701 10.3397 14.2401 10.5297 14.2401C10.7197 14.2401 10.9097 14.1701 11.0597 14.0201L12.6997 12.3801L14.2897 13.9701C14.4397 14.1201 14.6297 14.1901 14.8197 14.1901C15.0097 14.1901 15.1997 14.1201 15.3497 13.9701C15.6397 13.6701 15.6397 13.2001 15.3497 12.9101Z" fill="#292D32"/>
</svg>
