<svg width="25" height="24" viewBox="0 0 25 24" fill="none" xmlns="http://www.w3.org/2000/svg">
<path opacity="0.4" d="M11.6297 2.10989L6.12973 4.16989C5.07973 4.56989 4.21973 5.80989 4.21973 6.93989V15.0399C4.21973 15.8499 4.74973 16.9199 5.39973 17.3999L10.8997 21.5099C11.8697 22.2399 13.4597 22.2399 14.4297 21.5099L19.9297 17.3999C20.5797 16.9099 21.1097 15.8499 21.1097 15.0399V6.93989C21.1097 5.81989 20.2497 4.56988 19.1997 4.17988L13.6997 2.11989C13.1397 1.89989 12.1997 1.89989 11.6297 2.10989Z" fill="#292D32"/>
<path d="M15.1699 10.5C15.1699 9.12 14.0499 8 12.6699 8C11.2899 8 10.1699 9.12 10.1699 10.5C10.1699 11.62 10.9099 12.55 11.9199 12.87V15.5C11.9199 15.91 12.2599 16.25 12.6699 16.25C13.0799 16.25 13.4199 15.91 13.4199 15.5V12.87C14.4299 12.55 15.1699 11.62 15.1699 10.5Z" fill="#292D32"/>
</svg>
