<svg width="25" height="24" viewBox="0 0 25 24" fill="none" xmlns="http://www.w3.org/2000/svg">
<path opacity="0.4" d="M17.1598 22H8.17976C4.66976 22 3.90977 19.99 4.19977 17.53L5.09976 10.03C5.32976 8.09 5.66976 6.5 9.06976 6.5H16.2698C19.6698 6.5 20.0098 8.09 20.2398 10.03L20.9898 16.28L21.1398 17.53C21.1498 17.61 21.1598 17.69 21.1698 17.77C21.3798 20.12 20.5598 22 17.1598 22Z" fill="#292D32"/>
<path d="M16.6699 8.75C16.2599 8.75 15.9199 8.41 15.9199 8V4.5C15.9199 3.42 15.2499 2.75 14.1699 2.75H11.1699C10.0899 2.75 9.41992 3.42 9.41992 4.5V8C9.41992 8.41 9.07992 8.75 8.66992 8.75C8.25992 8.75 7.91992 8.41 7.91992 8V4.5C7.91992 2.59 9.25992 1.25 11.1699 1.25H14.1699C16.0799 1.25 17.4199 2.59 17.4199 4.5V8C17.4199 8.41 17.0799 8.75 16.6699 8.75Z" fill="#292D32"/>
<path d="M21.1699 17.7698C21.1399 17.7798 21.1099 17.7798 21.0799 17.7798H8.66992C8.25992 17.7798 7.91992 17.4398 7.91992 17.0298C7.91992 16.6098 8.25992 16.2798 8.66992 16.2798H20.9899L21.1399 17.5298C21.1499 17.6098 21.1599 17.6898 21.1699 17.7698Z" fill="#292D32"/>
</svg>
