<svg width="25" height="24" viewBox="0 0 25 24" fill="none" xmlns="http://www.w3.org/2000/svg">
<path opacity="0.4" d="M16.8599 2H8.47992C4.83992 2 2.66992 4.17 2.66992 7.81V16.19C2.66992 16.39 2.67992 16.59 2.68992 16.78C2.76992 18.01 3.11992 19.05 3.71992 19.87C4.00992 20.29 4.37992 20.66 4.79992 20.95C5.74992 21.64 6.98992 22 8.47992 22H16.8599C20.2999 22 22.4299 20.06 22.6399 16.78C22.6599 16.59 22.6699 16.39 22.6699 16.19V7.81C22.6699 6.32 22.3099 5.08 21.6199 4.13C21.3299 3.71 20.9599 3.34 20.5399 3.05C19.5899 2.36 18.3499 2 16.8599 2Z" fill="#292D32"/>
<path d="M22.6699 15.28H2.66992V16.19C2.66992 16.39 2.67992 16.59 2.68992 16.78H22.6399C22.6599 16.59 22.6699 16.39 22.6699 16.19V15.28Z" fill="#292D32"/>
<path d="M9.35986 9.0299C9.35986 9.2199 9.42986 9.4099 9.57986 9.5599L12.1399 12.1199C12.4299 12.4099 12.9099 12.4099 13.1999 12.1199L15.7599 9.5599C16.0499 9.2699 16.0499 8.7899 15.7599 8.4999C15.4699 8.2099 14.9899 8.2099 14.6999 8.4999L12.6699 10.5199L10.6399 8.4999C10.3499 8.1999 9.86986 8.1999 9.57986 8.4999C9.42986 8.6399 9.35986 8.8299 9.35986 9.0299Z" fill="#292D32"/>
</svg>
