<svg width="25" height="24" viewBox="0 0 25 24" fill="none" xmlns="http://www.w3.org/2000/svg">
<path d="M19.6397 3.75V7.25C19.6397 8.22 18.8597 9 17.8897 9H9.62979C9.23979 9 8.84977 8.85999 8.53977 8.62L6.34977 6.87C5.47977 6.17 5.47977 4.83 6.34977 4.13L8.53977 2.38C8.84977 2.14 9.23979 2 9.62979 2H17.8897C18.8597 2 19.6397 2.78 19.6397 3.75Z" fill="#292D32"/>
<path d="M19.0098 16.87L16.8297 18.62C16.5197 18.86 16.1297 19 15.7297 19H7.46973C6.49973 19 5.71973 18.22 5.71973 17.25V13.75C5.71973 12.78 6.49973 12 7.46973 12H15.7297C16.1297 12 16.5197 12.14 16.8297 12.38L19.0098 14.13C19.8898 14.83 19.8898 16.17 19.0098 16.87Z" fill="#292D32"/>
<path opacity="0.4" d="M13.4199 9H11.9199V12H13.4199V9Z" fill="#292D32"/>
<path opacity="0.4" d="M16.4199 22C16.4199 22.41 16.0799 22.75 15.6699 22.75H9.66992C9.25992 22.75 8.91992 22.41 8.91992 22C8.91992 21.59 9.25992 21.25 9.66992 21.25H11.9199V19H13.4199V21.25H15.6699C16.0799 21.25 16.4199 21.59 16.4199 22Z" fill="#292D32"/>
</svg>
