<svg width="25" height="24" viewBox="0 0 25 24" fill="none" xmlns="http://www.w3.org/2000/svg">
<path opacity="0.4" d="M16.6699 12.6899V18.0799C16.6699 20.4199 15.1099 21.9699 12.7799 21.9699H6.55992C4.22992 21.9699 2.66992 20.4199 2.66992 18.0799V10.3099C2.66992 7.96992 4.22992 6.41992 6.55992 6.41992H10.3899C11.4199 6.41992 12.4099 6.82992 13.1399 7.55992L15.5299 9.93992C16.2599 10.6699 16.6699 11.6599 16.6699 12.6899Z" fill="#292D32"/>
<path d="M22.6699 8.24997V13.64C22.6699 15.97 21.1099 17.53 18.7799 17.53H16.6699V12.69C16.6699 11.66 16.2599 10.67 15.5299 9.93997L13.1399 7.55997C12.4099 6.82997 11.4199 6.41997 10.3899 6.41997H8.66992V5.85997C8.66992 3.52997 10.2299 1.96997 12.5599 1.96997H16.3899C17.4199 1.96997 18.4099 2.37997 19.1399 3.10997L21.5299 5.49997C22.2599 6.22997 22.6699 7.21997 22.6699 8.24997Z" fill="#292D32"/>
</svg>
