<svg width="25" height="24" viewBox="0 0 25 24" fill="none" xmlns="http://www.w3.org/2000/svg">
<path opacity="0.58" d="M24.6699 0H0.669922V24H24.6699V0Z" fill="white"/>
<path d="M15.21 1.88C13.98 1.88 12.98 2.88001 12.98 4.11001V8.75001C12.98 9.98001 13.98 10.98 15.21 10.98C16.44 10.98 17.44 9.98001 17.44 8.75001V4.11001C17.44 2.89001 16.44 1.88 15.21 1.88Z" fill="#292D32"/>
<path opacity="0.4" d="M20.8501 7.10999C19.7801 7.10999 18.9102 7.97999 18.9102 9.04999V10.62C18.9102 10.83 19.0801 11 19.2901 11H20.8602C21.9302 11 22.8002 10.13 22.8002 9.05998C22.8002 7.98998 21.9201 7.10999 20.8501 7.10999Z" fill="#292D32"/>
<path d="M9.1698 6.98999H4.5298C3.2998 6.98999 2.2998 7.98999 2.2998 9.21999C2.2998 10.45 3.2998 11.45 4.5298 11.45H9.1698C10.3998 11.45 11.3998 10.45 11.3998 9.21999C11.3998 7.98999 10.3998 6.98999 9.1698 6.98999Z" fill="#292D32"/>
<path opacity="0.4" d="M9.46001 1.62C8.39001 1.62 7.52002 2.48999 7.52002 3.55999C7.52002 4.62999 8.39001 5.49999 9.46001 5.49999H11.03C11.24 5.49999 11.41 5.33 11.41 5.12V3.55C11.4 2.5 10.53 1.62 9.46001 1.62Z" fill="#292D32"/>
<path d="M10.1001 13.03C8.87011 13.03 7.87012 14.03 7.87012 15.26V19.9C7.87012 21.13 8.87011 22.13 10.1001 22.13C11.3301 22.13 12.3301 21.13 12.3301 19.9V15.26C12.3301 14.03 11.3301 13.03 10.1001 13.03Z" fill="#292D32"/>
<path opacity="0.4" d="M6.03001 13.03H4.46001C3.39001 13.03 2.52002 13.9 2.52002 14.97C2.52002 16.04 3.39001 16.91 4.46001 16.91C5.53001 16.91 6.40001 16.04 6.40001 14.97V13.4C6.40001 13.2 6.23001 13.03 6.03001 13.03Z" fill="#292D32"/>
<path d="M20.7802 12.5699H16.1402C14.9102 12.5699 13.9102 13.5699 13.9102 14.7999C13.9102 16.0299 14.9102 17.0299 16.1402 17.0299H20.7802C22.0102 17.0299 23.0101 16.0299 23.0101 14.7999C23.0101 13.5699 22.0102 12.5699 20.7802 12.5699Z" fill="#292D32"/>
<path opacity="0.4" d="M15.8499 18.47H14.2799C14.0699 18.47 13.8999 18.64 13.8999 18.85V20.42C13.8999 21.49 14.7699 22.36 15.8399 22.36C16.9099 22.36 17.7799 21.49 17.7799 20.42C17.7899 19.34 16.9199 18.47 15.8499 18.47Z" fill="#292D32"/>
</svg>
