<svg width="25" height="24" viewBox="0 0 25 24" fill="none" xmlns="http://www.w3.org/2000/svg">
<path d="M19.61 3.5H5.72998C5.31998 3.5 4.97998 3.16 4.97998 2.75C4.97998 2.34 5.31998 2 5.72998 2H19.61C20.02 2 20.36 2.34 20.36 2.75C20.36 3.16 20.02 3.5 19.61 3.5Z" fill="#292D32"/>
<path d="M19.61 22H5.72998C5.31998 22 4.97998 21.66 4.97998 21.25C4.97998 20.84 5.31998 20.5 5.72998 20.5H19.61C20.02 20.5 20.36 20.84 20.36 21.25C20.36 21.66 20.02 22 19.61 22Z" fill="#292D32"/>
<path opacity="0.4" d="M3.41992 7.6001V16.4001C3.41992 18.0601 4.75992 19.4001 6.41992 19.4001H18.9199C20.5799 19.4001 21.9199 18.0601 21.9199 16.4001V7.6001C21.9199 5.9401 20.5799 4.6001 18.9199 4.6001H6.41992C4.75992 4.6001 3.41992 5.9401 3.41992 7.6001Z" fill="#292D32"/>
</svg>
