<svg width="25" height="24" viewBox="0 0 25 24" fill="none" xmlns="http://www.w3.org/2000/svg">
<path d="M4.16992 5.06006V18.9401C4.16992 19.3501 3.82992 19.6901 3.41992 19.6901C3.00992 19.6901 2.66992 19.3501 2.66992 18.9401V5.06006C2.66992 4.65006 3.00992 4.31006 3.41992 4.31006C3.82992 4.31006 4.16992 4.65006 4.16992 5.06006Z" fill="#292D32"/>
<path d="M22.6699 5.06006V18.9401C22.6699 19.3501 22.3299 19.6901 21.9199 19.6901C21.5099 19.6901 21.1699 19.3501 21.1699 18.9401V5.06006C21.1699 4.65006 21.5099 4.31006 21.9199 4.31006C22.3299 4.31006 22.6699 4.65006 22.6699 5.06006Z" fill="#292D32"/>
<path opacity="0.4" d="M8.27002 21.25H17.07C18.73 21.25 20.07 19.91 20.07 18.25V5.75C20.07 4.09 18.73 2.75 17.07 2.75H8.27002C6.61002 2.75 5.27002 4.09 5.27002 5.75V18.25C5.27002 19.91 6.61002 21.25 8.27002 21.25Z" fill="#292D32"/>
</svg>
