<svg width="25" height="24" viewBox="0 0 25 24" fill="none" xmlns="http://www.w3.org/2000/svg">
<path opacity="0.4" d="M22.6719 7.81V16.19C22.6719 19.83 20.5019 22 16.8619 22H8.48187C8.28188 22 8.08187 21.99 7.89187 21.98C6.66187 21.9 5.62188 21.55 4.80188 20.95C4.38188 20.66 4.01187 20.29 3.72187 19.87C3.03187 18.92 2.67188 17.68 2.67188 16.19V7.81C2.67188 4.37 4.61187 2.24 7.89187 2.03C8.08187 2.01 8.28188 2 8.48187 2H16.8619C18.3519 2 19.5919 2.36 20.5419 3.05C20.9619 3.34 21.3319 3.71 21.6219 4.13C22.3119 5.08 22.6719 6.32 22.6719 7.81Z" fill="#292D32"/>
<path d="M12.0619 14.38H11.6919V7.91002H14.2619C14.3719 7.91002 14.4619 8.00002 14.4619 8.11002V8.89002C14.4619 9.30002 14.8019 9.64002 15.2119 9.64002C15.6219 9.64002 15.9619 9.30002 15.9619 8.89002V8.10002C15.9619 7.16002 15.2019 6.40002 14.2619 6.40002H7.62187C6.68187 6.40002 5.92188 7.16002 5.92188 8.10002V8.88002C5.92188 9.30002 6.26188 9.63002 6.67188 9.63002C7.08187 9.63002 7.42188 9.30002 7.42188 8.88002V8.10002C7.42188 7.99002 7.51187 7.90002 7.62187 7.90002H10.1919V14.38H9.19188C8.78188 14.38 8.44187 14.72 8.44187 15.13C8.44187 15.54 8.78188 15.88 9.19188 15.88H12.0519C12.4619 15.88 12.8019 15.54 12.8019 15.13C12.8019 14.72 12.4719 14.38 12.0619 14.38Z" fill="#292D32"/>
<path d="M17.9916 10.4H14.3916C13.9816 10.4 13.6416 10.74 13.6416 11.15C13.6416 11.56 13.9816 11.9 14.3916 11.9H14.8716V16.1H14.5216C14.1116 16.1 13.7716 16.44 13.7716 16.85C13.7716 17.26 14.1116 17.6 14.5216 17.6H16.7216C17.1316 17.6 17.4716 17.26 17.4716 16.85C17.4716 16.44 17.1316 16.1 16.7216 16.1H16.3716V11.9H17.9216V12.24C17.9216 12.65 18.2616 12.99 18.6716 12.99C19.0816 12.99 19.4216 12.65 19.4216 12.24V11.83C19.4216 11.04 18.7816 10.4 17.9916 10.4Z" fill="#292D32"/>
</svg>
