<svg width="25" height="24" viewBox="0 0 25 24" fill="none" xmlns="http://www.w3.org/2000/svg">
<path opacity="0.4" d="M10.7402 3.01003L3.8102 8.56002C3.0302 9.18002 2.53019 10.49 2.70019 11.47L4.03017 19.43C4.27017 20.85 5.63018 22 7.07018 22H18.2702C19.7002 22 21.0702 20.84 21.3102 19.43L22.6402 11.47C22.8002 10.49 22.3002 9.18002 21.5302 8.56002L14.6002 3.02004C13.5302 2.16004 11.8002 2.16003 10.7402 3.01003Z" fill="#292D32"/>
<path d="M13.0403 17.12C12.6303 17.12 12.3003 16.79 12.2903 16.39C12.2603 15.04 11.3703 14.15 10.0203 14.12C9.61027 14.11 9.28026 13.77 9.29026 13.35C9.30026 12.94 9.63026 12.62 10.0403 12.62C10.0503 12.62 10.0503 12.62 10.0603 12.62C12.2103 12.67 13.7503 14.2 13.7903 16.35C13.8003 16.76 13.4703 17.11 13.0603 17.12C13.0603 17.12 13.0503 17.12 13.0403 17.12Z" fill="#292D32"/>
<path d="M16.0403 17.12C15.6303 17.12 15.2903 16.79 15.2903 16.38C15.2803 15.72 15.1702 15.09 14.9702 14.5C14.4602 13.04 13.3702 11.96 11.9102 11.44C11.3202 11.23 10.6902 11.12 10.0302 11.12C9.62024 11.12 9.28025 10.78 9.29025 10.36C9.29025 9.94999 9.63025 9.62 10.0403 9.62H10.0503C10.8803 9.63 11.6702 9.77003 12.4102 10.03C14.3002 10.7 15.7103 12.11 16.3803 14C16.6403 14.74 16.7803 15.54 16.7903 16.36C16.8003 16.78 16.4703 17.12 16.0403 17.12C16.0503 17.12 16.0503 17.12 16.0403 17.12Z" fill="#292D32"/>
<path d="M10.0498 17.38C9.4898 17.38 9.0498 16.93 9.0498 16.38C9.0498 15.83 9.4998 15.38 10.0498 15.38C10.5998 15.38 11.0498 15.83 11.0498 16.38C11.0498 16.93 10.5998 17.38 10.0498 17.38Z" fill="#292D32"/>
</svg>
