<svg width="25" height="24" viewBox="0 0 25 24" fill="none" xmlns="http://www.w3.org/2000/svg">
<path opacity="0.4" d="M14.6699 5V10H13.6699C12.0199 10 10.6699 11.35 10.6699 13V14H5.66992C4.00992 14 2.66992 12.66 2.66992 11V5C2.66992 3.34 4.00992 2 5.66992 2H11.6699C13.3299 2 14.6699 3.34 14.6699 5Z" fill="#292D32"/>
<path d="M5.86944 6.63014C5.63944 6.63014 5.39944 6.52013 5.25944 6.31013C5.01944 5.97013 5.09944 5.50015 5.43944 5.26015C6.21944 4.71015 7.26944 4.70013 8.05944 5.24013C8.39944 5.47013 8.48944 5.94017 8.25944 6.28017C8.02944 6.62017 7.55944 6.71012 7.21944 6.48012C6.94944 6.30012 6.58944 6.30013 6.31944 6.49013C6.16944 6.59013 6.01944 6.63014 5.86944 6.63014Z" fill="#292D32"/>
<path d="M9.86944 6.63014C9.63944 6.63014 9.39944 6.52013 9.25944 6.31013C9.01944 5.97013 9.09944 5.50015 9.43944 5.26015C10.2194 4.71015 11.2694 4.70013 12.0594 5.24013C12.3994 5.47013 12.4894 5.94017 12.2594 6.28017C12.0294 6.62017 11.5594 6.71012 11.2194 6.48012C10.9494 6.30012 10.5894 6.30013 10.3194 6.49013C10.1694 6.59013 10.0194 6.63014 9.86944 6.63014Z" fill="#292D32"/>
<path d="M8.82973 12.1702H6.50973C5.79973 12.1702 5.21973 11.5902 5.21973 10.8802C5.21973 8.98019 6.76973 7.43018 8.66973 7.43018C9.44973 7.43018 10.2197 7.70019 10.8297 8.19019C11.1497 8.45019 11.2097 8.92017 10.9497 9.24017C10.6897 9.56017 10.2197 9.62017 9.89973 9.36017C9.54973 9.08017 9.12973 8.93018 8.67973 8.93018C7.67973 8.93018 6.84973 9.69017 6.73973 10.6702H8.83973C9.24973 10.6702 9.58973 11.0102 9.58973 11.4202C9.58973 11.8302 9.23973 12.1702 8.82973 12.1702Z" fill="#292D32"/>
<path d="M18.8896 16.6801C18.8196 16.6001 18.7196 16.5601 18.6096 16.5601H14.7296C14.6196 16.5601 14.5196 16.6001 14.4496 16.6801C14.3796 16.7601 14.3396 16.87 14.3596 16.97C14.4896 18.15 15.4796 19.05 16.6696 19.05C17.8596 19.05 18.8496 18.16 18.9796 16.97C18.9896 16.86 18.9596 16.7601 18.8896 16.6801Z" fill="#292D32"/>
<path d="M19.6699 10H13.6699C12.0199 10 10.6699 11.35 10.6699 13V19C10.6699 20.65 12.0199 22 13.6699 22H19.6699C21.3199 22 22.6699 20.65 22.6699 19V13C22.6699 11.35 21.3199 10 19.6699 10ZM13.2599 13.17C13.4999 12.83 13.9699 12.75 14.3099 12.99C14.5799 13.18 14.9399 13.18 15.2099 13C15.5499 12.76 16.0199 12.85 16.2499 13.2C16.4799 13.54 16.3999 14.01 16.0499 14.24C15.6599 14.5 15.2099 14.64 14.7599 14.64C14.2899 14.64 13.8299 14.5 13.4399 14.22C13.0999 13.97 13.0199 13.5 13.2599 13.17ZM16.6699 20.17C14.7699 20.17 13.2199 18.62 13.2199 16.72C13.2199 16.01 13.7999 15.43 14.5099 15.43H18.8299C19.5399 15.43 20.1199 16.01 20.1199 16.72C20.1199 18.62 18.5699 20.17 16.6699 20.17ZM20.0499 14.23C19.6599 14.49 19.2099 14.63 18.7599 14.63C18.2899 14.63 17.8299 14.49 17.4399 14.21C17.0999 13.97 17.0199 13.5 17.2599 13.16C17.4999 12.82 17.9699 12.74 18.3099 12.98C18.5799 13.17 18.9399 13.17 19.2099 12.99C19.5499 12.75 20.0199 12.84 20.2499 13.19C20.4799 13.54 20.3899 14 20.0499 14.23Z" fill="#292D32"/>
</svg>
