<svg width="25" height="24" viewBox="0 0 25 24" fill="none" xmlns="http://www.w3.org/2000/svg">
<path opacity="0.4" d="M17.6699 20.5H7.66992C4.66992 20.5 2.66992 19 2.66992 15.5V8.5C2.66992 5 4.66992 3.5 7.66992 3.5H17.6699C20.6699 3.5 22.6699 5 22.6699 8.5V15.5C22.6699 19 20.6699 20.5 17.6699 20.5Z" fill="#292D32"/>
<path fill-rule="evenodd" clip-rule="evenodd" d="M18.256 8.53196C18.5145 8.85561 18.4617 9.32754 18.138 9.58605L15.0071 12.0868C13.7037 13.1244 11.6262 13.1244 10.3228 12.0868L10.321 12.0853L7.20097 9.58531C6.87773 9.3263 6.82565 8.85429 7.08466 8.53105C7.34367 8.2078 7.81568 8.15573 8.13893 8.41474L11.2579 10.914C12.0146 11.5155 13.3161 11.5154 14.0725 10.9135C14.0723 10.9136 14.0726 10.9135 14.0725 10.9135L17.2019 8.41401C17.5255 8.15551 17.9975 8.20832 18.256 8.53196Z" fill="#292D32"/>
<path d="M23.3298 21.47L22.5898 20.73C22.9698 20.15 23.1998 19.45 23.1998 18.7C23.1998 16.66 21.5398 15 19.4998 15C17.4598 15 15.7998 16.66 15.7998 18.7C15.7998 20.74 17.4598 22.4 19.4998 22.4C20.2498 22.4 20.9498 22.17 21.5298 21.79L22.2698 22.53C22.4198 22.68 22.6098 22.75 22.7998 22.75C22.9898 22.75 23.1798 22.68 23.3298 22.53C23.6198 22.24 23.6198 21.76 23.3298 21.47Z" fill="#292D32"/>
</svg>
