<svg width="25" height="24" viewBox="0 0 25 24" fill="none" xmlns="http://www.w3.org/2000/svg">
<path d="M20.1501 2.81994L20.4301 3.38993C20.5701 3.66993 20.9201 3.92994 21.2301 3.98994L21.6101 4.04994C22.7501 4.23994 23.0201 5.07994 22.2001 5.90994L21.8501 6.25993C21.6201 6.49993 21.4901 6.95993 21.5601 7.27993L21.6101 7.48994C21.9201 8.86994 21.1901 9.39993 19.9901 8.67993L19.7301 8.52993C19.4201 8.34993 18.9201 8.34993 18.6101 8.52993L18.3501 8.67993C17.1401 9.40993 16.4101 8.86994 16.7301 7.48994L16.7801 7.27993C16.8501 6.95993 16.7201 6.49993 16.4901 6.25993L16.1401 5.90994C15.3201 5.07994 15.5901 4.23994 16.7301 4.04994L17.1101 3.98994C17.4101 3.93994 17.7701 3.66993 17.9101 3.38993L18.1901 2.81994C18.7301 1.72994 19.6101 1.72994 20.1501 2.81994Z" fill="#292D32"/>
<path opacity="0.4" d="M22.6699 9.67V15.5C22.6699 19 20.6699 20.5 17.6699 20.5H7.66992C4.66992 20.5 2.66992 19 2.66992 15.5V8.5C2.66992 5 4.66992 3.5 7.66992 3.5H14.7199C14.5199 3.72 14.3699 3.98 14.2799 4.27C13.9899 5.17 14.2799 6.15001 15.0799 6.96001L15.2699 7.14999C14.8599 8.95999 15.7099 9.81 16.0999 10.09C16.3199 10.25 16.7699 10.5 17.4099 10.5C17.8799 10.5 18.4599 10.36 19.1299 9.96001L19.1699 9.94L19.2099 9.96001C20.7899 10.91 21.8599 10.37 22.2399 10.09C22.3599 10.01 22.5199 9.87 22.6699 9.67Z" fill="#292D32"/>
<path d="M12.6697 12.87C11.8297 12.87 10.9797 12.61 10.3297 12.08L7.1997 9.58002C6.8797 9.32002 6.8197 8.85002 7.0797 8.53002C7.3397 8.21002 7.80969 8.15003 8.12969 8.41003L11.2597 10.91C12.0197 11.52 13.3097 11.52 14.0697 10.91C14.3897 10.65 14.8597 10.7 15.1197 11.03C15.3797 11.35 15.3297 11.83 14.9997 12.08C14.3597 12.61 13.5097 12.87 12.6697 12.87Z" fill="#292D32"/>
</svg>
