<svg width="25" height="24" viewBox="0 0 25 24" fill="none" xmlns="http://www.w3.org/2000/svg">
<path opacity="0.58" d="M24.6699 0H0.669922V24H24.6699V0Z" fill="white"/>
<path opacity="0.4" d="M12.6699 22C18.1928 22 22.6699 17.5228 22.6699 12C22.6699 6.47715 18.1928 2 12.6699 2C7.14707 2 2.66992 6.47715 2.66992 12C2.66992 17.5228 7.14707 22 12.6699 22Z" fill="#292D32"/>
<path fill-rule="evenodd" clip-rule="evenodd" d="M17.9797 15.3101C17.6897 15.4701 17.4497 15.5401 17.2497 15.5901C17.0797 15.6301 16.9397 15.6701 16.8197 15.7501C16.6897 15.8301 16.6797 15.9601 16.6597 16.0801C16.6397 16.1901 16.6297 16.2801 16.5497 16.3401C16.4597 16.4001 16.2897 16.4101 16.0597 16.4201C15.7597 16.4401 15.3797 16.4501 14.9197 16.5901C14.6997 16.6701 14.4997 16.7901 14.2997 16.9101C13.8997 17.1601 13.4497 17.4301 12.6597 17.4301C11.8797 17.4301 11.4297 17.1601 11.0297 16.9101C10.8297 16.7801 10.6297 16.6601 10.3997 16.5801C9.94971 16.4401 9.5597 16.4201 9.2597 16.4101C9.0297 16.4001 8.86971 16.3901 8.76971 16.3301C8.68971 16.2801 8.67969 16.1801 8.65969 16.0701C8.63969 15.9501 8.62969 15.8201 8.49969 15.7401C8.37969 15.6601 8.22969 15.6201 8.06969 15.5701C7.86969 15.5201 7.62971 15.4601 7.33971 15.3001C6.99971 15.1101 7.19972 15.0001 7.30972 14.9401C9.23972 14.0101 9.53971 12.5701 9.54971 12.4601C9.54971 12.4501 9.54971 12.4501 9.54971 12.4401C9.56971 12.3201 9.57969 12.2201 9.43969 12.0901C9.34969 12.0001 9.0397 11.8001 8.7897 11.6401C8.6797 11.5601 8.57971 11.5001 8.51971 11.4701C8.23971 11.2701 8.11971 11.0801 8.20971 10.8301C8.26971 10.6601 8.42971 10.6001 8.58971 10.6001C8.63971 10.6001 8.69971 10.6101 8.73971 10.6201C8.91971 10.6601 9.0997 10.7301 9.2597 10.7901C9.3697 10.8401 9.45969 10.8701 9.52969 10.8901C9.54969 10.9001 9.57971 10.9001 9.58971 10.9001C9.68971 10.9001 9.71971 10.8501 9.70971 10.7501C9.70971 10.7201 9.7097 10.6901 9.6997 10.6601C9.6797 10.3101 9.64969 9.70006 9.68969 9.14006C9.76969 8.30006 10.0397 7.87006 10.3597 7.51006C10.5197 7.33006 11.2497 6.56006 12.6397 6.56006C14.0297 6.56006 14.7597 7.33006 14.9197 7.50006C15.2397 7.87006 15.5097 8.29006 15.5897 9.14006C15.6397 9.73006 15.5997 10.3601 15.5697 10.7101V10.7401C15.5597 10.8501 15.5897 10.8901 15.6897 10.8901C15.7097 10.8901 15.7297 10.8901 15.7497 10.8801C15.8197 10.8601 15.9097 10.8301 16.0197 10.7901C16.1697 10.7301 16.3497 10.6601 16.5397 10.6201C16.5897 10.6001 16.6397 10.6001 16.6897 10.6001C16.8597 10.6001 17.0097 10.6701 17.0697 10.8401C17.1597 11.0801 17.0397 11.2701 16.7597 11.4701C16.7097 11.5101 16.6097 11.5801 16.4897 11.6401C16.2497 11.8001 15.9297 12.0001 15.8397 12.0901C15.6997 12.2201 15.7097 12.3201 15.7297 12.4401C15.7297 12.4501 15.7297 12.4601 15.7297 12.4601C15.7497 12.5701 16.0497 14.0101 17.9697 14.9401C18.1197 15.0001 18.3197 15.1201 17.9797 15.3101Z" fill="#292D32"/>
</svg>
