<svg width="25" height="24" viewBox="0 0 25 24" fill="none" xmlns="http://www.w3.org/2000/svg">
<path opacity="0.58" d="M24.6699 0H0.669922V24H24.6699V0Z" fill="white"/>
<path opacity="0.4" d="M12.6699 22C18.1928 22 22.6699 17.5228 22.6699 12C22.6699 6.47715 18.1928 2 12.6699 2C7.14707 2 2.66992 6.47715 2.66992 12C2.66992 17.5228 7.14707 22 12.6699 22Z" fill="#292D32"/>
<path d="M8.16995 11.2501H17.17C17.58 11.2501 17.92 10.9101 17.92 10.5001C17.92 10.0901 17.58 9.75005 17.17 9.75005H14.12L16.11 6.93005C16.35 6.59005 16.27 6.12005 15.93 5.89005C15.59 5.65005 15.12 5.73005 14.89 6.07005L12.59 9.33005L10.2899 6.07005C10.0499 5.73005 9.57994 5.65005 9.24994 5.89005C8.90994 6.13005 8.82995 6.60005 9.06995 6.93005L11.06 9.75005H8.18994C7.77994 9.75005 7.43994 10.0901 7.43994 10.5001C7.43994 10.9101 7.75995 11.2501 8.16995 11.2501Z" fill="#292D32"/>
<path d="M17.1699 12.75H8.16992C7.75992 12.75 7.41992 13.09 7.41992 13.5C7.41992 13.91 7.75992 14.25 8.16992 14.25H11.0399L9.04993 17.07C8.80993 17.41 8.88992 17.88 9.22992 18.11C9.35992 18.2 9.50991 18.25 9.65991 18.25C9.89991 18.25 10.1299 18.14 10.2699 17.93L12.5699 14.67L14.8699 17.93C15.0199 18.14 15.2499 18.25 15.4799 18.25C15.6299 18.25 15.7799 18.21 15.9099 18.11C16.2499 17.87 16.3299 17.4 16.0899 17.07L14.0999 14.25H17.1499C17.5599 14.25 17.8999 13.91 17.8999 13.5C17.8999 13.09 17.5799 12.75 17.1699 12.75Z" fill="#292D32"/>
</svg>
