<svg width="25" height="24" viewBox="0 0 25 24" fill="none" xmlns="http://www.w3.org/2000/svg">
<path opacity="0.4" d="M19.3701 14.4602C19.0201 14.8102 18.8201 15.5202 18.9301 16.0002L19.6201 19.0102C19.9101 20.2602 19.7301 21.2002 19.1101 21.6502C18.8601 21.8302 18.5601 21.9202 18.2101 21.9202C17.7001 21.9202 17.1001 21.7302 16.4401 21.3402L13.5101 19.6002C13.0601 19.3302 12.2801 19.3302 11.8301 19.6002L8.90012 21.3402C7.79012 21.9902 6.84012 22.1002 6.23012 21.6502C6.19012 21.6202 6.15012 21.5902 6.12012 21.5502L19.4701 8.2002L20.6401 8.4002C21.7001 8.5802 22.4101 9.0602 22.6401 9.7602C22.8601 10.4602 22.5601 11.2702 21.8001 12.0302L19.3701 14.4602Z" fill="#292D32"/>
<path opacity="0.4" d="M6.41027 16C6.52027 15.52 6.32027 14.81 5.97027 14.46L3.54027 12.03C2.78027 11.27 2.48027 10.46 2.70027 9.76C2.93027 9.06 3.64027 8.58 4.70027 8.4L7.82027 7.88C8.27027 7.8 8.82027 7.4 9.03027 6.99L10.7503 3.54C11.2503 2.55 11.9303 2 12.6703 2C13.4103 2 14.0903 2.55 14.5903 3.54L16.3103 6.99C16.4403 7.25 16.7103 7.5 17.0003 7.67L5.74027 18.93L6.41027 16Z" fill="#292D32"/>
<path d="M22.4398 2.22988C22.1398 1.92988 21.6498 1.92988 21.3498 2.22988L2.8998 20.6899C2.5998 20.9899 2.5998 21.4799 2.8998 21.7799C3.0498 21.9199 3.2398 21.9999 3.4398 21.9999C3.6398 21.9999 3.8298 21.9199 3.9798 21.7699L22.4398 3.30988C22.7498 3.00988 22.7498 2.52988 22.4398 2.22988Z" fill="#292D32"/>
</svg>
