<svg width="25" height="24" viewBox="0 0 25 24" fill="none" xmlns="http://www.w3.org/2000/svg">
<path opacity="0.4" d="M16.8597 2H8.4897C4.8497 2 2.67969 4.17 2.67969 7.81V16.18C2.67969 19.82 4.8497 21.99 8.4897 21.99H16.8597C20.4997 21.99 22.6697 19.82 22.6697 16.18V7.81C22.6697 4.17 20.4997 2 16.8597 2Z" fill="#292D32"/>
<path d="M16.6699 9.23999H18.6699C19.2199 9.23999 19.6699 8.78999 19.6699 8.23999V8C19.6699 6.34 18.3299 5 16.6699 5H8.66992C7.00992 5 5.66992 6.34 5.66992 8V8.5C5.66992 9.05 6.11992 9.5 6.66992 9.5H8.00992C9.31992 9.5 10.5099 10.44 10.6399 11.75C10.7899 13.25 9.61992 14.51 8.14992 14.51H6.66992C6.11992 14.51 5.66992 14.96 5.66992 15.51V16.01C5.66992 17.67 7.00992 19.01 8.66992 19.01H16.6699C18.3299 19.01 19.6699 17.67 19.6699 16.01V15.76C19.6699 15.21 19.2199 14.76 18.6699 14.76H16.6699C16.2599 14.76 15.9199 14.42 15.9199 14.01C15.9199 13.6 16.2599 13.26 16.6699 13.26H18.6699C19.2199 13.26 19.6699 12.81 19.6699 12.26V11.75C19.6699 11.2 19.2199 10.75 18.6699 10.75H16.6699C16.2599 10.75 15.9199 10.42 15.9199 10C15.9199 9.58 16.2599 9.23999 16.6699 9.23999Z" fill="#292D32"/>
<path d="M7.66992 13H6.66992C6.11992 13 5.66992 12.55 5.66992 12C5.66992 11.45 6.11992 11 6.66992 11H7.66992C8.21992 11 8.66992 11.45 8.66992 12C8.66992 12.55 8.21992 13 7.66992 13Z" fill="#292D32"/>
</svg>
