<svg width="25" height="24" viewBox="0 0 25 24" fill="none" xmlns="http://www.w3.org/2000/svg">
<path opacity="0.4" d="M16.8597 2H8.48969C4.84968 2 2.67969 4.17 2.67969 7.81V16.18C2.67969 19.82 4.84968 21.99 8.48969 21.99H16.8597C20.4997 21.99 22.6697 19.82 22.6697 16.18V7.81C22.6697 4.17 20.4997 2 16.8597 2Z" fill="#292D32"/>
<path d="M22.6699 10.16H14.9999C14.9899 10.09 14.9899 10.01 14.9699 9.94004C14.7599 9.14004 14.1099 8.49004 13.3099 8.28004C11.8699 7.90004 10.5599 8.84004 10.3399 10.16H2.66992V11.66H10.5799C10.7799 12.04 11.0599 12.36 11.4199 12.58V14.56C11.4199 15.25 11.9799 15.81 12.6699 15.81C13.3599 15.81 13.9199 15.25 13.9199 14.56V12.58C14.2799 12.36 14.5599 12.04 14.7599 11.66H22.6699V10.16Z" fill="#292D32"/>
</svg>
