<svg width="25" height="24" viewBox="0 0 25 24" fill="none" xmlns="http://www.w3.org/2000/svg">
<path d="M18.5503 6.12003L4.60026 20.07C4.17026 20.5 3.45026 20.46 3.10026 19.97C2.60026 19.28 2.50027 18.32 3.02027 17.49L5.78026 13.06C6.15026 12.47 6.15026 11.51 5.78026 10.92L3.02027 6.49003C2.09027 5.01003 3.16026 3.09003 4.90026 3.09003H16.3503C17.0303 3.09003 17.8703 3.56003 18.2303 4.13003L18.7003 4.87003C18.9303 5.28003 18.8803 5.79003 18.5503 6.12003Z" fill="#292D32"/>
<path opacity="0.4" d="M22.2998 13.11L17.1198 20.01C16.7598 20.5 15.9598 20.9 15.3398 20.9H8.17979C7.28979 20.9 6.83979 19.82 7.46979 19.19L18.9798 7.67999C19.4298 7.22999 20.1998 7.30999 20.5398 7.85999L22.3898 10.83C22.7998 11.47 22.7598 12.5 22.2998 13.11Z" fill="#292D32"/>
</svg>
