<svg width="25" height="24" viewBox="0 0 25 24" fill="none" xmlns="http://www.w3.org/2000/svg">
<path opacity="0.4" d="M16.8599 2H8.47992C4.83992 2 2.66992 4.17 2.66992 7.81V16.19C2.66992 19.83 4.83992 22 8.47992 22H16.8599C20.4999 22 22.6699 19.83 22.6699 16.19V7.81C22.6699 4.17 20.4999 2 16.8599 2Z" fill="#292D32"/>
<path d="M18.98 8.87C18.98 9.28 18.65 9.62 18.23 9.62H12.98C12.57 9.62 12.23 9.28 12.23 8.87C12.23 8.46 12.57 8.12 12.98 8.12H18.23C18.65 8.12 18.98 8.46 18.98 8.87Z" fill="#292D32"/>
<path d="M10.64 7.90006L8.38998 10.1501C8.23998 10.3001 8.04998 10.3701 7.85998 10.3701C7.66998 10.3701 7.46998 10.3001 7.32998 10.1501L6.57998 9.40006C6.27998 9.11006 6.27998 8.63006 6.57998 8.34006C6.86998 8.05006 7.33998 8.05006 7.63998 8.34006L7.85998 8.56006L9.57998 6.84006C9.86998 6.55006 10.34 6.55006 10.64 6.84006C10.93 7.13006 10.93 7.61006 10.64 7.90006Z" fill="#292D32"/>
<path d="M18.98 15.87C18.98 16.28 18.65 16.62 18.23 16.62H12.98C12.57 16.62 12.23 16.28 12.23 15.87C12.23 15.46 12.57 15.12 12.98 15.12H18.23C18.65 15.12 18.98 15.46 18.98 15.87Z" fill="#292D32"/>
<path d="M10.64 14.9001L8.38998 17.1501C8.23998 17.3001 8.04998 17.3701 7.85998 17.3701C7.66998 17.3701 7.46998 17.3001 7.32998 17.1501L6.57998 16.4001C6.27998 16.1101 6.27998 15.6301 6.57998 15.3401C6.86998 15.0501 7.33998 15.0501 7.63998 15.3401L7.85998 15.5601L9.57998 13.8401C9.86998 13.5501 10.34 13.5501 10.64 13.8401C10.93 14.1301 10.93 14.6101 10.64 14.9001Z" fill="#292D32"/>
</svg>
