<svg width="25" height="24" viewBox="0 0 25 24" fill="none" xmlns="http://www.w3.org/2000/svg">
<path opacity="0.58" d="M24.6699 0H0.669922V24H24.6699V0Z" fill="white"/>
<path opacity="0.4" d="M12.6699 22C18.1928 22 22.6699 17.5228 22.6699 12C22.6699 6.47715 18.1928 2 12.6699 2C7.14707 2 2.66992 6.47715 2.66992 12C2.66992 17.5228 7.14707 22 12.6699 22Z" fill="#292D32"/>
<path d="M12.6699 12L10.1299 9.45998C9.7399 9.06998 9.1099 9.06998 8.7199 9.45998L6.8799 11.3C6.4899 11.69 6.4899 12.32 6.8799 12.71L8.7199 14.55C9.1099 14.94 9.7399 14.94 10.1299 14.55L15.2199 9.45998C15.6099 9.06998 16.2399 9.06998 16.6299 9.45998L18.4699 11.3C18.8599 11.69 18.8599 12.32 18.4699 12.71L16.6299 14.55C16.2399 14.94 15.6099 14.94 15.2199 14.55L12.6699 12Z" fill="#292D32"/>
</svg>
