<svg width="25" height="24" viewBox="0 0 25 24" fill="none" xmlns="http://www.w3.org/2000/svg">
<path d="M24.6699 0H0.669922V24H24.6699V0Z" fill="white"/>
<path opacity="0.4" d="M8.14012 3.35H17.2001C18.2601 3.35 19.5101 4.12 19.9801 5.07L22.3801 9.89C22.9601 11.05 22.6401 12.7 21.6901 13.57L14.7601 19.86C13.6101 20.9 11.7401 20.9 10.5901 19.86L3.66012 13.57C2.70012 12.7 2.39012 11.05 2.97012 9.89L5.37012 5.07C5.83012 4.12 7.08012 3.35 8.14012 3.35Z" fill="#292D32"/>
<path d="M16.6699 7.75H8.66992C8.25992 7.75 7.91992 8.09 7.91992 8.5C7.91992 8.91 8.25992 9.25 8.66992 9.25H11.9199V14.5C11.9199 14.91 12.2599 15.25 12.6699 15.25C13.0799 15.25 13.4199 14.91 13.4199 14.5V9.25H16.6699C17.0799 9.25 17.4199 8.91 17.4199 8.5C17.4199 8.09 17.0799 7.75 16.6699 7.75Z" fill="#292D32"/>
</svg>
