<svg width="25" height="24" viewBox="0 0 25 24" fill="none" xmlns="http://www.w3.org/2000/svg">
<path opacity="0.4" d="M22.6719 7.81V16.19C22.6719 19.83 20.5019 22 16.8619 22H8.48187C8.28188 22 8.08187 21.99 7.89187 21.98C6.66187 21.9 5.62188 21.55 4.80188 20.95C4.38188 20.66 4.01187 20.29 3.72187 19.87C3.03187 18.92 2.67188 17.68 2.67188 16.19V7.81C2.67188 4.37 4.61187 2.24 7.89187 2.03C8.08187 2.01 8.28188 2 8.48187 2H16.8619C18.3519 2 19.5919 2.36 20.5419 3.05C20.9619 3.34 21.3319 3.71 21.6219 4.13C22.3119 5.08 22.6719 6.32 22.6719 7.81Z" fill="#292D32"/>
<path d="M17.5018 18.96H7.8418C7.4318 18.96 7.0918 18.62 7.0918 18.21C7.0918 17.8 7.4318 17.46 7.8418 17.46H17.5118C17.9218 17.46 18.2618 17.8 18.2618 18.21C18.2618 18.62 17.9218 18.96 17.5018 18.96Z" fill="#292D32"/>
<path d="M12.6718 16.2C9.5918 16.2 7.0918 13.7 7.0918 10.62V5.79004C7.0918 5.38004 7.4318 5.04004 7.8418 5.04004C8.2518 5.04004 8.5918 5.38004 8.5918 5.79004V10.62C8.5918 12.87 10.4218 14.7 12.6718 14.7C14.9218 14.7 16.7518 12.87 16.7518 10.62V5.79004C16.7518 5.38004 17.0918 5.04004 17.5018 5.04004C17.9118 5.04004 18.2518 5.38004 18.2518 5.79004V10.62C18.2518 13.7 15.7518 16.2 12.6718 16.2Z" fill="#292D32"/>
</svg>
