<svg width="25" height="24" viewBox="0 0 25 24" fill="none" xmlns="http://www.w3.org/2000/svg">
<path opacity="0.4" d="M22.6719 7.81V16.19C22.6719 19.83 20.5019 22 16.8619 22H8.48187C8.28188 22 8.08187 21.99 7.89187 21.98C6.66187 21.9 5.62188 21.55 4.80188 20.95C4.38188 20.66 4.01187 20.29 3.72187 19.87C3.03187 18.92 2.67188 17.68 2.67188 16.19V7.81C2.67188 4.37 4.61187 2.24 7.89187 2.03C8.08187 2.01 8.28188 2 8.48187 2H16.8619C18.3519 2 19.5919 2.36 20.5419 3.05C20.9619 3.34 21.3319 3.71 21.6219 4.13C22.3119 5.08 22.6719 6.32 22.6719 7.81Z" fill="#292D32"/>
<path d="M17.3419 5.64001H8.00187C6.85187 5.64001 5.92188 6.57001 5.92188 7.72001V8.90001C5.92188 9.31001 6.26188 9.65001 6.67188 9.65001C7.08187 9.65001 7.42188 9.31001 7.42188 8.90001V7.72001C7.42188 7.40001 7.68187 7.14001 8.00187 7.14001H11.9219V16.86H10.1419C9.73188 16.86 9.39188 17.2 9.39188 17.61C9.39188 18.02 9.73188 18.36 10.1419 18.36H15.2119C15.6219 18.36 15.9619 18.02 15.9619 17.61C15.9619 17.2 15.6219 16.86 15.2119 16.86H13.4319V7.14001H17.3519C17.6719 7.14001 17.9319 7.40001 17.9319 7.72001V8.90001C17.9319 9.31001 18.2719 9.65001 18.6819 9.65001C19.0919 9.65001 19.4319 9.31001 19.4319 8.90001V7.72001C19.4219 6.58001 18.4919 5.64001 17.3419 5.64001Z" fill="#292D32"/>
</svg>
