<svg width="25" height="24" viewBox="0 0 25 24" fill="none" xmlns="http://www.w3.org/2000/svg">
<path d="M24.6699 0H0.669922V24H24.6699V0Z" fill="white"/>
<path opacity="0.4" d="M12.6699 22C18.1928 22 22.6699 17.5228 22.6699 12C22.6699 6.47715 18.1928 2 12.6699 2C7.14707 2 2.66992 6.47715 2.66992 12C2.66992 17.5228 7.14707 22 12.6699 22Z" fill="#292D32"/>
<path d="M11.9796 13.9401C13.8463 13.9401 15.3596 12.4268 15.3596 10.5601C15.3596 8.69333 13.8463 7.18005 11.9796 7.18005C10.1129 7.18005 8.59961 8.69333 8.59961 10.5601C8.59961 12.4268 10.1129 13.9401 11.9796 13.9401Z" fill="#292D32"/>
<path d="M17.1797 8.31006C16.6297 8.31006 16.1797 7.86006 16.1797 7.31006C16.1797 6.76006 16.6197 6.31006 17.1797 6.31006H17.1897C17.7397 6.31006 18.1897 6.76006 18.1897 7.31006C18.1797 7.86006 17.7297 8.31006 17.1797 8.31006Z" fill="#292D32"/>
<path d="M12.7299 18.56C12.5399 18.56 12.3499 18.49 12.1999 18.34C11.9099 18.05 11.9099 17.57 12.1999 17.28L15.1999 14.28C15.4899 13.99 15.9699 13.99 16.2599 14.28C16.5499 14.57 16.5499 15.05 16.2599 15.34L13.2599 18.34C13.1199 18.49 12.9199 18.56 12.7299 18.56Z" fill="#292D32"/>
</svg>
