<svg width="25" height="24" viewBox="0 0 25 24" fill="none" xmlns="http://www.w3.org/2000/svg">
<path d="M24.6699 0H0.669922V24H24.6699V0Z" fill="white"/>
<path opacity="0.4" d="M16.8599 2H8.48993C4.83993 2 2.66992 4.17 2.66992 7.81V16.18C2.66992 19.82 4.83992 21.99 8.47992 21.99H16.8499C20.4899 21.99 22.6599 19.82 22.6599 16.18V7.81C22.6699 4.17 20.4999 2 16.8599 2Z" fill="#292D32"/>
<path d="M15.8199 6H9.5199C8.4999 6 7.66992 6.83 7.66992 7.85V16.15C7.66992 17.17 8.4999 18 9.5199 18H15.8199C16.8399 18 17.6699 17.17 17.6699 16.15V7.85C17.6699 6.83 16.8399 6 15.8199 6ZM14.6699 14.25H13.4199V15.5C13.4199 15.91 13.0799 16.25 12.6699 16.25C12.2599 16.25 11.9199 15.91 11.9199 15.5V14.25H10.6699C10.2599 14.25 9.91992 13.91 9.91992 13.5C9.91992 13.09 10.2599 12.75 10.6699 12.75H14.6699C15.0799 12.75 15.4199 13.09 15.4199 13.5C15.4199 13.91 15.0799 14.25 14.6699 14.25ZM14.6699 11.25H10.6699C10.2599 11.25 9.91992 10.91 9.91992 10.5C9.91992 10.09 10.2599 9.75 10.6699 9.75H11.9199V8.5C11.9199 8.09 12.2599 7.75 12.6699 7.75C13.0799 7.75 13.4199 8.09 13.4199 8.5V9.75H14.6699C15.0799 9.75 15.4199 10.09 15.4199 10.5C15.4199 10.91 15.0799 11.25 14.6699 11.25Z" fill="#292D32"/>
</svg>
