<svg width="25" height="24" viewBox="0 0 25 24" fill="none" xmlns="http://www.w3.org/2000/svg">
<path opacity="0.4" d="M12.6699 22C18.1928 22 22.6699 17.5228 22.6699 12C22.6699 6.47715 18.1928 2 12.6699 2C7.14707 2 2.66992 6.47715 2.66992 12C2.66992 17.5228 7.14707 22 12.6699 22Z" fill="#292D32"/>
<path d="M11.2504 15.58C11.0504 15.58 10.8604 15.5 10.7204 15.36L7.89035 12.53C7.60035 12.24 7.60035 11.76 7.89035 11.47C8.18035 11.18 8.66035 11.18 8.95035 11.47L11.2504 13.77L16.3904 8.63C16.6804 8.34 17.1604 8.34 17.4504 8.63C17.7404 8.92 17.7404 9.4 17.4504 9.69L11.7804 15.36C11.6404 15.5 11.4504 15.58 11.2504 15.58Z" fill="#292D32"/>
</svg>
