<svg width="25" height="24" viewBox="0 0 25 24" fill="none" xmlns="http://www.w3.org/2000/svg">
<path opacity="0.4" d="M21.51 13.17C21.9 13.17 22.21 12.85 22.21 12.45V11.57C22.21 7.63995 21.01 6.44995 17.09 6.44995H10.79V8.87995C11.18 8.87995 11.5 9.19995 11.5 9.58995V12.27C11.5 12.66 11.18 12.98 10.79 12.98V15.49C11.18 15.49 11.5 15.81 11.5 16.2V18.88C11.5 19.27 11.18 19.59 10.79 19.59V22H17.09C21.01 22 22.21 20.8 22.21 16.88C22.21 16.49 21.9 16.17 21.51 16.17C20.67 16.17 20 15.5 20 14.67C20 13.84 20.67 13.17 21.51 13.17Z" fill="#292D32"/>
<path d="M8.23965 6.46C8.24965 6.46 8.24965 6.46 8.23965 6.46H8.24965H17.0796C17.1496 6.46 17.2196 6.46 17.2796 6.46C17.2696 6.44 17.2696 6.43 17.2696 6.41C17.2396 6.06 17.3796 5.72 17.6396 5.46C17.7696 5.33 17.8496 5.15 17.8496 4.96C17.8496 4.77 17.7696 4.59 17.6396 4.46L17.0896 3.9C16.1096 2.91 15.0296 2 13.7696 2C12.5196 2 11.4296 2.91 10.4496 3.9L7.88965 6.46C7.99965 6.46 8.11965 6.46 8.23965 6.46Z" fill="#292D32"/>
<path d="M10.0799 9.58996V12.27C10.0799 12.66 10.3999 12.98 10.7899 12.98V15.49C10.3999 15.49 10.0799 15.81 10.0799 16.2V18.88C10.0799 19.27 10.3999 19.59 10.7899 19.59V22H8.24988C4.32988 22 3.12988 20.8 3.12988 16.88V16.45C3.12988 16.05 3.43988 15.74 3.82988 15.74C4.66988 15.74 5.33988 15.06 5.33988 14.23C5.33988 13.4 4.66988 12.72 3.82988 12.72C3.43988 12.72 3.12988 12.41 3.12988 12.01V11.58C3.12988 7.64996 4.32988 6.45996 8.24988 6.45996H10.7799V8.88996C10.3999 8.88996 10.0799 9.20996 10.0799 9.58996Z" fill="#292D32"/>
</svg>
