<svg width="25" height="24" viewBox="0 0 25 24" fill="none" xmlns="http://www.w3.org/2000/svg">
<path d="M10.6699 9.08V6.25C10.2599 6.25 9.91992 5.91 9.91992 5.5V3.25H7.66992C3.25992 3.25 1.91992 4.59 1.91992 9V9.5C1.91992 9.91 2.25992 10.25 2.66992 10.25C3.62992 10.25 4.41992 11.04 4.41992 12C4.41992 12.96 3.62992 13.75 2.66992 13.75C2.25992 13.75 1.91992 14.09 1.91992 14.5V15C1.91992 19.41 3.25992 20.75 7.66992 20.75H9.91992V18.5C9.91992 18.09 10.2599 17.75 10.6699 17.75V14.92C10.2599 14.92 9.91992 14.58 9.91992 14.17V9.83C9.91992 9.42 10.2599 9.08 10.6699 9.08Z" fill="#292D32"/>
<path opacity="0.4" d="M20.9199 12.5C20.9199 13.46 21.7099 14.25 22.6699 14.25C23.0799 14.25 23.4199 14.59 23.4199 15C23.4199 19.41 22.0799 20.75 17.6699 20.75H11.4199V18.5C11.4199 18.09 11.0799 17.75 10.6699 17.75V14.92C11.0799 14.92 11.4199 14.58 11.4199 14.17V9.83C11.4199 9.42 11.0799 9.08 10.6699 9.08V6.25C11.0799 6.25 11.4199 5.91 11.4199 5.5V3.25H17.6699C22.0799 3.25 23.4199 4.59 23.4199 9V10C23.4199 10.41 23.0799 10.75 22.6699 10.75C21.7099 10.75 20.9199 11.54 20.9199 12.5Z" fill="#292D32"/>
</svg>
