<svg width="25" height="24" viewBox="0 0 25 24" fill="none" xmlns="http://www.w3.org/2000/svg">
<path opacity="0.4" d="M17.3199 3.85986H8.01992C3.91992 3.85986 2.66992 5.10986 2.66992 9.20986V14.7899C2.66992 18.8899 3.91992 20.1399 8.01992 20.1399H17.3199C21.4199 20.1399 22.6699 18.8899 22.6699 14.7899V9.20986C22.6699 5.10986 21.4199 3.85986 17.3199 3.85986Z" fill="#292D32"/>
<path d="M11.4597 7.58008H9.22969C6.97969 7.58008 5.92969 8.63008 5.92969 10.8801V13.1101C5.92969 15.3601 6.97969 16.4101 9.22969 16.4101H11.4597C13.7097 16.4101 14.7597 15.3601 14.7597 13.1101V10.8801C14.7597 8.63008 13.7097 7.58008 11.4597 7.58008Z" fill="#292D32"/>
</svg>
