<svg width="25" height="24" viewBox="0 0 25 24" fill="none" xmlns="http://www.w3.org/2000/svg">
<path opacity="0.4" d="M8.01992 3.85986H17.3199C21.4199 3.85986 22.6699 5.10986 22.6699 9.20986V14.7899C22.6699 18.8899 21.4199 20.1399 17.3199 20.1399H8.01992C3.91992 20.1399 2.66992 18.8899 2.66992 14.7899V9.20986C2.66992 5.10986 3.91992 3.85986 8.01992 3.85986Z" fill="#292D32"/>
<path d="M13.8801 7.58008H16.1101C18.3601 7.58008 19.4101 8.63008 19.4101 10.8801V13.1101C19.4101 15.3601 18.3601 16.4101 16.1101 16.4101H13.8801C11.6301 16.4101 10.5801 15.3601 10.5801 13.1101V10.8801C10.5801 8.63008 11.6301 7.58008 13.8801 7.58008Z" fill="#292D32"/>
</svg>
