<svg width="25" height="24" viewBox="0 0 25 24" fill="none" xmlns="http://www.w3.org/2000/svg">
<path opacity="0.4" d="M16.8599 2H8.47992C4.83992 2 2.66992 4.17 2.66992 7.81V16.18C2.66992 19.83 4.83992 22 8.47992 22H16.8499C20.4899 22 22.6599 19.83 22.6599 16.19V7.81C22.6699 4.17 20.4999 2 16.8599 2Z" fill="#292D32"/>
<path d="M17.5004 9.40998C17.4304 9.23998 17.2904 9.09998 17.1204 9.02998C17.0404 8.99998 16.9504 8.97998 16.8604 8.97998H15.0004C14.6104 8.97998 14.3004 9.28998 14.3004 9.67998C14.3004 10.07 14.6104 10.38 15.0004 10.38H15.1804L13.0704 12.49L12.0504 10.97C11.9304 10.8 11.7504 10.68 11.5404 10.66C11.3204 10.64 11.1304 10.71 10.9804 10.86L8.00035 13.84C7.73035 14.11 7.73035 14.55 8.00035 14.83C8.14035 14.97 8.31035 15.03 8.49035 15.03C8.67035 15.03 8.85035 14.96 8.98035 14.83L11.3604 12.45L12.3804 13.97C12.5004 14.14 12.6804 14.26 12.8904 14.28C13.1104 14.3 13.3004 14.23 13.4504 14.08L16.1704 11.36V11.54C16.1704 11.93 16.4804 12.24 16.8704 12.24C17.2604 12.24 17.5704 11.93 17.5704 11.54V9.66998C17.5504 9.57998 17.5404 9.48998 17.5004 9.40998Z" fill="#292D32"/>
</svg>
