<svg width="25" height="24" viewBox="0 0 25 24" fill="none" xmlns="http://www.w3.org/2000/svg">
<path d="M24.6699 0H0.669922V24H24.6699V0Z" fill="white"/>
<path d="M21.3302 8.04C21.3302 8.27 21.2702 8.51 21.1202 8.7L11.7402 20.64C11.4002 21.07 11.0002 21.22 10.6602 21.1L10.6702 21L11.6702 10L20.7102 8.19L21.3302 8.04Z" fill="#292D32"/>
<path opacity="0.4" d="M21.3299 8.04L20.7099 8.19L11.6699 10L17.6199 4.05C17.7399 4.1 17.8399 4.17 17.9099 4.24L21.0399 7.37C21.2199 7.55 21.3199 7.79 21.3299 8.04Z" fill="#292D32"/>
<path d="M17.6201 4.05L11.6701 10L3.68008 2.9L3.33008 2.56V2.55C3.53008 2.29 3.89008 2.16 4.37008 2.23L17.3301 3.96C17.4201 3.97 17.5201 4 17.6201 4.05Z" fill="#292D32"/>
<path opacity="0.4" d="M11.6698 10L10.6698 21L10.6598 21.1C10.4098 21.01 10.1798 20.77 10.0298 20.39L3.30983 3.59C3.13983 3.17 3.15983 2.81 3.32983 2.56L3.67983 2.9L11.6698 10Z" fill="#292D32"/>
</svg>
