<svg width="25" height="24" viewBox="0 0 25 24" fill="none" xmlns="http://www.w3.org/2000/svg">
<path opacity="0.4" d="M22.6699 14V17C22.6699 18.66 21.3299 20 19.6699 20H18.6699C18.6699 18.9 17.7699 18 16.6699 18C15.5699 18 14.6699 18.9 14.6699 20H10.6699C10.6699 18.9 9.76992 18 8.66992 18C7.56992 18 6.66992 18.9 6.66992 20H5.66992C4.00992 20 2.66992 18.66 2.66992 17V14H13.6699C14.7699 14 15.6699 13.1 15.6699 12V5H17.5099C18.2299 5 18.8899 5.39001 19.2499 6.01001L20.9599 9H19.6699C19.1199 9 18.6699 9.45 18.6699 10V13C18.6699 13.55 19.1199 14 19.6699 14H22.6699Z" fill="#292D32"/>
<path d="M8.66992 22C9.77449 22 10.6699 21.1046 10.6699 20C10.6699 18.8954 9.77449 18 8.66992 18C7.56535 18 6.66992 18.8954 6.66992 20C6.66992 21.1046 7.56535 22 8.66992 22Z" fill="#292D32"/>
<path d="M16.6699 22C17.7745 22 18.6699 21.1046 18.6699 20C18.6699 18.8954 17.7745 18 16.6699 18C15.5654 18 14.6699 18.8954 14.6699 20C14.6699 21.1046 15.5654 22 16.6699 22Z" fill="#292D32"/>
<path d="M22.6699 12.53V14H19.6699C19.1199 14 18.6699 13.55 18.6699 13V10C18.6699 9.45 19.1199 9 19.6699 9H20.9599L22.4099 11.54C22.5799 11.84 22.6699 12.18 22.6699 12.53Z" fill="#292D32"/>
<path d="M14.6699 2H6.66992C4.71992 2 3.09994 3.4 2.74994 5.25H7.66992C8.07992 5.25 8.41992 5.59 8.41992 6C8.41992 6.41 8.07992 6.75 7.66992 6.75H2.66992V8.25H5.66992C6.07992 8.25 6.41992 8.59 6.41992 9C6.41992 9.41 6.07992 9.75 5.66992 9.75H2.66992V11.25H3.66992C4.07992 11.25 4.41992 11.59 4.41992 12C4.41992 12.41 4.07992 12.75 3.66992 12.75H2.66992V14H13.6699C14.7699 14 15.6699 13.1 15.6699 12V3C15.6699 2.45 15.2199 2 14.6699 2Z" fill="#292D32"/>
<path d="M2.74994 5.25H1.66992C1.25992 5.25 0.919922 5.59 0.919922 6C0.919922 6.41 1.25992 6.75 1.66992 6.75H2.66992V6C2.66992 5.74 2.69994 5.49 2.74994 5.25Z" fill="#292D32"/>
<path d="M1.66992 8.25C1.25992 8.25 0.919922 8.59 0.919922 9C0.919922 9.41 1.25992 9.75 1.66992 9.75H2.66992V8.25H1.66992Z" fill="#292D32"/>
<path d="M1.66992 11.25C1.25992 11.25 0.919922 11.59 0.919922 12C0.919922 12.41 1.25992 12.75 1.66992 12.75H2.66992V11.25H1.66992Z" fill="#292D32"/>
</svg>
