<svg width="25" height="24" viewBox="0 0 25 24" fill="none" xmlns="http://www.w3.org/2000/svg">
<path opacity="0.4" d="M15.6699 3V12C15.6699 13.1 14.7699 14 13.6699 14H2.66992V7.62C3.39992 8.49 4.51995 9.03 5.75995 9C6.76995 8.98 7.67992 8.59 8.35992 7.94C8.66992 7.68 8.92994 7.34999 9.12994 6.98999C9.48994 6.37999 9.68992 5.65997 9.66992 4.90997C9.63992 3.73997 9.11994 2.71 8.30994 2H14.6699C15.2199 2 15.6699 2.45 15.6699 3Z" fill="#292D32"/>
<path d="M22.6699 14V17C22.6699 18.66 21.3299 20 19.6699 20H18.6699C18.6699 18.9 17.7699 18 16.6699 18C15.5699 18 14.6699 18.9 14.6699 20H10.6699C10.6699 18.9 9.76992 18 8.66992 18C7.56992 18 6.66992 18.9 6.66992 20H5.66992C4.00992 20 2.66992 18.66 2.66992 17V14H13.6699C14.7699 14 15.6699 13.1 15.6699 12V5H17.5099C18.2299 5 18.8899 5.39001 19.2499 6.01001L20.9599 9H19.6699C19.1199 9 18.6699 9.45 18.6699 10V13C18.6699 13.55 19.1199 14 19.6699 14H22.6699Z" fill="#292D32"/>
<path opacity="0.4" d="M8.66992 22C9.77449 22 10.6699 21.1046 10.6699 20C10.6699 18.8954 9.77449 18 8.66992 18C7.56535 18 6.66992 18.8954 6.66992 20C6.66992 21.1046 7.56535 22 8.66992 22Z" fill="#292D32"/>
<path opacity="0.4" d="M16.6699 22C17.7745 22 18.6699 21.1046 18.6699 20C18.6699 18.8954 17.7745 18 16.6699 18C15.5654 18 14.6699 18.8954 14.6699 20C14.6699 21.1046 15.5654 22 16.6699 22Z" fill="#292D32"/>
<path opacity="0.4" d="M22.6699 12.53V14H19.6699C19.1199 14 18.6699 13.55 18.6699 13V10C18.6699 9.45 19.1199 9 19.6699 9H20.9599L22.4099 11.54C22.5799 11.84 22.6699 12.18 22.6699 12.53Z" fill="#292D32"/>
<path d="M8.31011 1.99978C7.59011 1.35978 6.63007 0.979776 5.58007 0.999776C4.64007 1.01978 3.78009 1.36977 3.10009 1.92977C2.20009 2.67977 1.64009 3.8298 1.67009 5.0898C1.69009 5.8398 1.9101 6.53978 2.3001 7.12978C2.4101 7.29978 2.53009 7.46977 2.67009 7.61977C3.40009 8.48977 4.52012 9.02978 5.76012 8.99978C6.77012 8.97978 7.6801 8.58978 8.3601 7.93978C8.6701 7.67978 8.93012 7.34977 9.13012 6.98977C9.49012 6.37977 9.69009 5.65975 9.67009 4.90975C9.64009 3.73975 9.12011 2.70978 8.31011 1.99978ZM7.73009 4.5198L5.64006 6.53975C5.49006 6.67975 5.31011 6.74978 5.12011 6.74978C4.93011 6.74978 4.75009 6.67975 4.60009 6.53975L3.59008 5.57979C3.29008 5.28979 3.28012 4.8198 3.57012 4.5198C3.86012 4.2198 4.33012 4.20978 4.63012 4.49978L5.12011 4.96975L6.69011 3.44979C6.99011 3.15979 7.46011 3.16975 7.75011 3.46975C8.04011 3.75975 8.03009 4.2298 7.73009 4.5198Z" fill="#292D32"/>
</svg>
