<svg width="25" height="24" viewBox="0 0 25 24" fill="none" xmlns="http://www.w3.org/2000/svg">
<path opacity="0.4" d="M18.6699 18.86H17.9099C17.1099 18.86 16.3499 19.17 15.7899 19.73L14.0799 21.42C13.2999 22.19 12.0299 22.19 11.2499 21.42L9.53992 19.73C8.97992 19.17 8.20992 18.86 7.41992 18.86H6.66992C5.00992 18.86 3.66992 17.53 3.66992 15.89V4.97998C3.66992 3.33998 5.00992 2.01001 6.66992 2.01001H18.6699C20.3299 2.01001 21.6699 3.33998 21.6699 4.97998V15.89C21.6699 17.52 20.3299 18.86 18.6699 18.86Z" fill="#292D32"/>
<path d="M12.6699 10.41C13.9567 10.41 14.9999 9.36684 14.9999 8.08002C14.9999 6.79319 13.9567 5.75 12.6699 5.75C11.383 5.75 10.3398 6.79319 10.3398 8.08002C10.3398 9.36684 11.383 10.41 12.6699 10.41Z" fill="#292D32"/>
<path d="M15.3501 15.0601C16.1601 15.0601 16.6301 14.1601 16.1801 13.4901C15.5001 12.4801 14.1801 11.8 12.6701 11.8C11.1601 11.8 9.84008 12.4801 9.16008 13.4901C8.71008 14.1601 9.1801 15.0601 9.9901 15.0601H15.3501Z" fill="#292D32"/>
</svg>
