<svg width="25" height="24" viewBox="0 0 25 24" fill="none" xmlns="http://www.w3.org/2000/svg">
<path opacity="0.4" d="M21.7601 21.5C21.7601 21.78 21.5401 22 21.2601 22H4.08008C3.80008 22 3.58008 21.78 3.58008 21.5C3.58008 17.36 7.66007 14 12.6701 14C13.7001 14 14.7001 14.14 15.6201 14.41C15.0301 15.11 14.6701 16.02 14.6701 17C14.6701 17.75 14.8801 18.46 15.2501 19.06C15.4501 19.4 15.7101 19.71 16.0101 19.97C16.7101 20.61 17.6401 21 18.6701 21C19.7901 21 20.8001 20.54 21.5201 19.8C21.6801 20.34 21.7601 20.91 21.7601 21.5Z" fill="#292D32"/>
<path d="M21.6399 14.33C20.9199 13.51 19.8499 13 18.6699 13C17.5499 13 16.5299 13.46 15.7999 14.21C15.0999 14.93 14.6699 15.92 14.6699 17C14.6699 17.75 14.8799 18.46 15.2499 19.06C15.4499 19.4 15.7099 19.71 16.0099 19.97C16.7099 20.61 17.6399 21 18.6699 21C20.1299 21 21.3999 20.22 22.0899 19.06C22.2999 18.72 22.4599 18.33 22.5499 17.93C22.6299 17.63 22.6699 17.32 22.6699 17C22.6699 15.98 22.2799 15.04 21.6399 14.33ZM20.1699 17.73H19.4199V18.51C19.4199 18.92 19.0799 19.26 18.6699 19.26C18.2599 19.26 17.9199 18.92 17.9199 18.51V17.73H17.1699C16.7599 17.73 16.4199 17.39 16.4199 16.98C16.4199 16.57 16.7599 16.23 17.1699 16.23H17.9199V15.52C17.9199 15.11 18.2599 14.77 18.6699 14.77C19.0799 14.77 19.4199 15.11 19.4199 15.52V16.23H20.1699C20.5799 16.23 20.9199 16.57 20.9199 16.98C20.9199 17.39 20.5799 17.73 20.1699 17.73Z" fill="#292D32"/>
<path d="M12.6699 12C15.4313 12 17.6699 9.76142 17.6699 7C17.6699 4.23858 15.4313 2 12.6699 2C9.9085 2 7.66992 4.23858 7.66992 7C7.66992 9.76142 9.9085 12 12.6699 12Z" fill="#292D32"/>
</svg>
