<svg width="25" height="24" viewBox="0 0 25 24" fill="none" xmlns="http://www.w3.org/2000/svg">
<path d="M17.3199 20.2V20.49C15.8399 21.44 14.0699 22 12.1699 22C10.2399 22 8.43994 21.42 6.93994 20.43V20.2C6.93994 17.87 9.26994 15.97 12.1299 15.97C14.9999 15.97 17.3199 17.87 17.3199 20.2Z" fill="#292D32"/>
<path opacity="0.4" d="M21.6699 12.5C21.6699 15.85 19.9399 18.79 17.3199 20.49V20.2C17.3199 17.87 14.9999 15.97 12.1299 15.97C9.26992 15.97 6.93992 17.87 6.93992 20.2V20.43C4.36992 18.73 2.66992 15.82 2.66992 12.5C2.66992 7.25 6.91992 3 12.1699 3C13.4799 3 14.7299 3.25999 15.8699 3.73999C15.7399 4.13999 15.6699 4.56 15.6699 5C15.6699 5.75 15.8799 6.46 16.2499 7.06C16.4499 7.4 16.7099 7.70997 17.0099 7.96997C17.7099 8.60997 18.6399 9 19.6699 9C20.1099 9 20.5299 8.92998 20.9199 8.78998C21.3999 9.92998 21.6699 11.19 21.6699 12.5Z" fill="#292D32"/>
<path d="M22.6399 2.33002C21.9199 1.51002 20.8499 1 19.6699 1C18.5499 1 17.5299 1.46002 16.7999 2.21002C16.3799 2.64002 16.0599 3.15999 15.8699 3.73999C15.7399 4.13999 15.6699 4.56 15.6699 5C15.6699 5.75 15.8799 6.46 16.2499 7.06C16.4499 7.4 16.7099 7.70997 17.0099 7.96997C17.7099 8.60997 18.6399 9 19.6699 9C20.1099 9 20.5299 8.92998 20.9199 8.78998C21.8399 8.49998 22.6099 7.87 23.0899 7.06C23.2999 6.72 23.4599 6.32999 23.5499 5.92999C23.6299 5.62999 23.6699 5.32 23.6699 5C23.6699 3.98 23.2799 3.04002 22.6399 2.33002ZM21.1599 5.72998H20.4199V6.51001C20.4199 6.92001 20.0799 7.26001 19.6699 7.26001C19.2599 7.26001 18.9199 6.92001 18.9199 6.51001V5.72998H18.1799C17.7699 5.72998 17.4299 5.38998 17.4299 4.97998C17.4299 4.56998 17.7699 4.22998 18.1799 4.22998H18.9199V3.52002C18.9199 3.11002 19.2599 2.77002 19.6699 2.77002C20.0799 2.77002 20.4199 3.11002 20.4199 3.52002V4.22998H21.1599C21.5699 4.22998 21.9099 4.56998 21.9099 4.97998C21.9099 5.38998 21.5799 5.72998 21.1599 5.72998Z" fill="#292D32"/>
<path d="M12.1298 14.7299C13.6817 14.7299 14.9398 13.4718 14.9398 11.9199C14.9398 10.3679 13.6817 9.10986 12.1298 9.10986C10.5779 9.10986 9.31982 10.3679 9.31982 11.9199C9.31982 13.4718 10.5779 14.7299 12.1298 14.7299Z" fill="#292D32"/>
</svg>
