<svg width="25" height="24" viewBox="0 0 25 24" fill="none" xmlns="http://www.w3.org/2000/svg">
<path d="M18.6699 13C17.7299 13 16.8599 13.33 16.1699 13.88C15.2499 14.61 14.6699 15.74 14.6699 17C14.6699 17.75 14.8799 18.46 15.2499 19.06C15.9399 20.22 17.2099 21 18.6699 21C19.6799 21 20.5999 20.63 21.2999 20C21.6099 19.74 21.8799 19.42 22.0899 19.06C22.4599 18.46 22.6699 17.75 22.6699 17C22.6699 14.79 20.8799 13 18.6699 13ZM20.7399 16.57L18.6099 18.54C18.4699 18.67 18.2799 18.74 18.0999 18.74C17.9099 18.74 17.7199 18.67 17.5699 18.52L16.5799 17.53C16.2899 17.24 16.2899 16.76 16.5799 16.47C16.8699 16.18 17.3499 16.18 17.6399 16.47L18.1199 16.95L19.7199 15.47C20.0199 15.19 20.4999 15.21 20.7799 15.51C21.0599 15.81 21.0399 16.28 20.7399 16.57Z" fill="#292D32"/>
<path opacity="0.4" d="M21.7601 21.5C21.7601 21.78 21.5401 22 21.2601 22H4.08008C3.80008 22 3.58008 21.78 3.58008 21.5C3.58008 17.36 7.66007 14 12.6701 14C13.7001 14 14.7001 14.14 15.6201 14.41C15.0301 15.11 14.6701 16.02 14.6701 17C14.6701 17.75 14.8801 18.46 15.2501 19.06C15.4501 19.4 15.7101 19.71 16.0101 19.97C16.7101 20.61 17.6401 21 18.6701 21C19.7901 21 20.8001 20.54 21.5201 19.8C21.6801 20.34 21.7601 20.91 21.7601 21.5Z" fill="#292D32"/>
<path d="M12.6699 12C15.4313 12 17.6699 9.76142 17.6699 7C17.6699 4.23858 15.4313 2 12.6699 2C9.9085 2 7.66992 4.23858 7.66992 7C7.66992 9.76142 9.9085 12 12.6699 12Z" fill="#292D32"/>
</svg>
