<svg width="25" height="24" viewBox="0 0 25 24" fill="none" xmlns="http://www.w3.org/2000/svg">
<path d="M12.6699 12C15.4313 12 17.6699 9.76142 17.6699 7C17.6699 4.23858 15.4313 2 12.6699 2C9.9085 2 7.66992 4.23858 7.66992 7C7.66992 9.76142 9.9085 12 12.6699 12Z" fill="#292D32"/>
<path opacity="0.4" d="M12.6701 14.5C7.6601 14.5 3.58008 17.86 3.58008 22C3.58008 22.28 3.80008 22.5 4.08008 22.5H21.2601C21.5401 22.5 21.7601 22.28 21.7601 22C21.7601 17.86 17.6801 14.5 12.6701 14.5Z" fill="#292D32"/>
<path d="M23.4399 20.68L22.6799 19.92C23.0799 19.32 23.3099 18.6 23.3099 17.83C23.3099 15.72 21.5999 14.01 19.4899 14.01C17.3799 14.01 15.6699 15.72 15.6699 17.83C15.6699 19.94 17.3799 21.65 19.4899 21.65C20.2599 21.65 20.9799 21.42 21.5799 21.02L22.3399 21.78C22.4899 21.93 22.6899 22.01 22.8899 22.01C23.0899 22.01 23.2899 21.93 23.4399 21.78C23.7499 21.47 23.7499 20.98 23.4399 20.68Z" fill="#292D32"/>
</svg>
