<svg width="25" height="24" viewBox="0 0 25 24" fill="none" xmlns="http://www.w3.org/2000/svg">
<path d="M24.6699 0H0.669922V24H24.6699V0Z" fill="white"/>
<path d="M21.6699 3.15002H3.66992C3.25992 3.15002 2.91992 3.49002 2.91992 3.90002C2.91992 4.31002 3.25992 4.65002 3.66992 4.65002H21.6699C22.0799 4.65002 22.4199 4.31002 22.4199 3.90002C22.4199 3.49002 22.0799 3.15002 21.6699 3.15002Z" fill="#292D32"/>
<path d="M4.70999 6.24002H20.64C21.52 6.24002 22.05 7.21002 21.57 7.95002L13.61 20.34C13.17 21.02 12.18 21.02 11.74 20.34L3.76998 7.95002C3.29998 7.21002 3.82999 6.24002 4.70999 6.24002Z" fill="#292D32"/>
</svg>
