<svg width="25" height="24" viewBox="0 0 25 24" fill="none" xmlns="http://www.w3.org/2000/svg">
<path opacity="0.58" d="M24.6699 0H0.669922V24H24.6699V0Z" fill="white"/>
<path d="M15.62 8.29001C15.54 8.12001 15.36 8.01001 15.17 8.01001H10.17C9.98001 8.01001 9.81 8.12001 9.72 8.29001C9.63 8.46001 9.64999 8.66001 9.76999 8.81001L12.27 12.14C12.36 12.27 12.51 12.34 12.67 12.34C12.83 12.34 12.98 12.27 13.07 12.14L15.57 8.81001C15.68 8.67001 15.7 8.46001 15.62 8.29001Z" fill="#292D32"/>
<path opacity="0.4" d="M12.6699 22C18.1928 22 22.6699 17.5228 22.6699 12C22.6699 6.47715 18.1928 2 12.6699 2C7.14707 2 2.66992 6.47715 2.66992 12C2.66992 17.5228 7.14707 22 12.6699 22Z" fill="#292D32"/>
<path d="M12.6698 17.75C12.4298 17.75 12.1998 17.63 12.0598 17.44L7.05984 10.44C6.81984 10.1 6.89983 9.63 7.22983 9.39C7.56983 9.15 8.03981 9.23 8.27981 9.56L12.6698 15.71L17.0598 9.56C17.2998 9.22 17.7698 9.14 18.1098 9.39C18.4498 9.63 18.5298 10.1 18.2798 10.44L13.2798 17.44C13.1398 17.63 12.9098 17.75 12.6698 17.75Z" fill="#292D32"/>
</svg>
