<svg width="25" height="24" viewBox="0 0 25 24" fill="none" xmlns="http://www.w3.org/2000/svg">
<path opacity="0.4" d="M22.6699 7.81V16.19C22.6699 16.25 22.6699 16.31 22.6599 16.36C22.6599 16.9 22.5999 17.4 22.4899 17.86C22.0199 20.02 20.5799 21.42 18.3899 21.85C17.9199 21.95 17.4199 22 16.8899 22H8.38992C7.85992 21.99 7.35992 21.94 6.88992 21.84C4.73992 21.4 3.31992 20 2.84992 17.86C2.73992 17.4 2.67992 16.9 2.67992 16.36C2.66992 16.31 2.66992 16.25 2.66992 16.19V7.81C2.66992 7.3 2.70992 6.81 2.79992 6.36C3.21992 4.1 4.66992 2.62 6.88992 2.16C7.35992 2.05 7.85992 2 8.38992 2H16.8999C17.4299 2 17.9299 2.05 18.3899 2.15C20.6499 2.59 22.1199 4.08 22.5399 6.36C22.6299 6.81 22.6699 7.3 22.6699 7.81Z" fill="#292D32"/>
<path d="M13.4199 7.86V16.36H22.6599C22.6599 16.9 22.5999 17.4 22.4899 17.86H18.3899V21.85C17.9199 21.95 17.4199 22 16.8899 22V17.86H13.4199V22H11.9199V17.86H8.38992V22C7.85992 21.99 7.35992 21.94 6.88992 21.84V17.86H2.84992C2.73992 17.4 2.67992 16.9 2.67992 16.36H11.9199V7.86H2.66992V7.81C2.66992 7.3 2.70992 6.81 2.79992 6.36H6.90992C6.89992 6.32 6.88992 6.28 6.88992 6.24V2.16C7.35992 2.05 7.85992 2 8.38992 2V6.24C8.38992 6.28 8.36992 6.32 8.35992 6.36H11.9199V2H13.4199V6.36H16.8899V2H16.8999C17.4299 2 17.9299 2.05 18.3899 2.15V6.33C18.3899 6.34 18.3799 6.35 18.3799 6.36H22.5399C22.6299 6.81 22.6699 7.3 22.6699 7.81V7.86H13.4199Z" fill="#292D32"/>
</svg>
