<svg width="25" height="24" viewBox="0 0 25 24" fill="none" xmlns="http://www.w3.org/2000/svg">
<path d="M22.6499 15.65C21.8299 14.64 20.5799 14 19.1699 14C18.1099 14 17.1299 14.37 16.3599 14.99C15.3199 15.81 14.6699 17.08 14.6699 18.5C14.6699 19.34 14.9099 20.14 15.3199 20.82C15.5899 21.27 15.9299 21.66 16.3299 21.98H16.3399C17.1099 22.62 18.0999 23 19.1699 23C20.3099 23 21.3399 22.58 22.1299 21.88C22.4799 21.58 22.7799 21.22 23.0199 20.82C23.4299 20.14 23.6699 19.34 23.6699 18.5C23.6699 17.42 23.2899 16.42 22.6499 15.65ZM21.4299 17.94L19.0299 20.16C18.8899 20.29 18.6999 20.36 18.5199 20.36C18.3299 20.36 18.1399 20.29 17.9899 20.14L16.8799 19.03C16.5899 18.74 16.5899 18.26 16.8799 17.97C17.1699 17.68 17.6499 17.68 17.9399 17.97L18.5399 18.57L20.4099 16.84C20.7099 16.56 21.1899 16.58 21.4699 16.88C21.7599 17.19 21.7399 17.66 21.4299 17.94Z" fill="#292D32"/>
<path opacity="0.4" d="M22.6699 7.81V15.7C22.6699 15.69 22.6599 15.68 22.6499 15.67C22.6099 15.61 22.5599 15.55 22.5099 15.5C22.4999 15.49 22.4899 15.47 22.4799 15.46C21.6699 14.56 20.4799 14 19.1699 14C17.9099 14 16.7599 14.52 15.9399 15.36C15.1499 16.17 14.6699 17.28 14.6699 18.5C14.6699 19.34 14.9099 20.14 15.3199 20.82C15.5399 21.19 15.8199 21.53 16.1399 21.81C16.1599 21.82 16.1699 21.83 16.1799 21.84C16.2299 21.89 16.2799 21.93 16.3399 21.98C16.3399 21.98 16.3399 21.98 16.3499 21.98C16.3599 21.99 16.3699 22 16.3799 22H8.47992C4.83992 22 2.66992 19.83 2.66992 16.19V7.81C2.66992 7.3 2.70993 6.80999 2.79993 6.35999C3.30993 3.60999 5.33993 2.01 8.43993 2H16.8999C19.9999 2.01 22.0299 3.60999 22.5399 6.35999C22.6299 6.80999 22.6699 7.3 22.6699 7.81Z" fill="#292D32"/>
<path d="M22.6699 7.81V7.85999H2.66992V7.81C2.66992 7.3 2.70993 6.80999 2.79993 6.35999H8.43993V2H9.93993V6.35999H15.3999V2H16.8999V6.35999H22.5399C22.6299 6.80999 22.6699 7.3 22.6699 7.81Z" fill="#292D32"/>
</svg>
