<svg width="25" height="24" viewBox="0 0 25 24" fill="none" xmlns="http://www.w3.org/2000/svg">
<path opacity="0.4" d="M18.3199 6.56L4.86992 20.01C3.46992 19.12 2.91992 17.53 2.91992 16V8C2.91992 4.58 4.24992 3.25 7.66992 3.25H13.6699C16.5599 3.25 17.9599 4.2 18.3199 6.56Z" fill="#292D32"/>
<path opacity="0.4" d="M18.42 9.25V16C18.42 16.08 18.41 16.14 18.41 16.21C18.41 16.28 18.4 16.35 18.4 16.42H18.41C18.3 19.53 16.95 20.75 13.67 20.75H7.66996C7.41996 20.75 7.18996 20.74 6.95996 20.71L18.42 9.25Z" fill="#292D32"/>
<path opacity="0.4" d="M18.4004 16.42C18.4004 16.35 18.4104 16.28 18.4104 16.21C18.4204 16.28 18.4204 16.35 18.4104 16.42H18.4004Z" fill="#292D32"/>
<path opacity="0.4" d="M18.4104 7.57C18.4204 7.64 18.4204 7.72 18.4104 7.79C18.4104 7.72 18.4004 7.65 18.4004 7.58L18.4104 7.57Z" fill="#292D32"/>
<path d="M23.4204 8.38V15.62C23.4204 17.05 22.7304 17.62 22.3204 17.83C22.1304 17.93 21.8404 18.04 21.4704 18.04C21.0404 18.04 20.5004 17.9 19.8804 17.46L18.4104 16.42H18.4004C18.4004 16.35 18.4104 16.28 18.4104 16.21C18.4104 16.14 18.4204 16.08 18.4204 16V9.25L21.6904 5.98C21.9604 6 22.1704 6.08 22.3204 6.17C22.7304 6.38 23.4204 6.95 23.4204 8.38Z" fill="#292D32"/>
<path d="M22.4398 2.23C22.1398 1.93 21.6498 1.93 21.3498 2.23L2.8998 20.69C2.5998 20.99 2.5998 21.48 2.8998 21.78C3.0498 21.92 3.2398 22 3.4398 22C3.6398 22 3.8298 21.92 3.9798 21.77L22.4398 3.31C22.7498 3.01 22.7498 2.53 22.4398 2.23Z" fill="#292D32"/>
</svg>
