<svg width="25" height="24" viewBox="0 0 25 24" fill="none" xmlns="http://www.w3.org/2000/svg">
<path d="M16.3903 9.69002C14.3403 7.63002 11.0003 7.63002 8.95027 9.69002C6.89027 11.75 6.89027 15.08 8.95027 17.13C11.0103 19.19 14.3403 19.19 16.3903 17.13C18.4503 15.07 18.4503 11.74 16.3903 9.69002ZM13.2003 13.94L11.6103 15.53C11.4603 15.68 11.2703 15.75 11.0803 15.75C10.8903 15.75 10.6903 15.68 10.5503 15.53C10.2603 15.24 10.2603 14.76 10.5503 14.46L12.1403 12.87C12.4303 12.58 12.9103 12.58 13.2103 12.87C13.5003 13.17 13.5003 13.65 13.2003 13.94Z" fill="#292D32"/>
<path opacity="0.4" d="M20.27 5.81C20.05 5.59 19.77 5.46997 19.46 5.46997C19.15 5.46997 18.87 5.58999 18.65 5.79999C18.2 6.24999 18.2 6.96998 18.65 7.41998C18.87 7.63998 19.15 7.76001 19.46 7.76001C19.77 7.76001 20.05 7.63999 20.27 7.42999C20.49 7.20999 20.61 6.93 20.61 6.62C20.61 6.31 20.49 6.02 20.27 5.81Z" fill="#292D32"/>
<path opacity="0.4" d="M6.68948 19.39C6.46948 19.17 6.18949 19.05 5.87949 19.05C5.56949 19.05 5.28949 19.17 5.06949 19.38C4.84949 19.6 4.72949 19.88 4.72949 20.19C4.72949 20.5 4.84949 20.78 5.06949 21C5.28949 21.22 5.58949 21.33 5.87949 21.33C6.16949 21.33 6.46948 21.22 6.68948 20.99C7.12948 20.56 7.12948 19.83 6.68948 19.39Z" fill="#292D32"/>
<path opacity="0.4" d="M23.0796 12.6C22.8696 12.38 22.5796 12.27 22.2696 12.26C21.9596 12.26 21.6796 12.38 21.4596 12.6C21.0096 13.05 21.0096 13.77 21.4596 14.22C21.6796 14.44 21.9796 14.55 22.2696 14.55C22.5596 14.55 22.8596 14.44 23.0796 14.22C23.5296 13.77 23.5296 13.04 23.0796 12.6Z" fill="#292D32"/>
<path opacity="0.4" d="M3.88035 12.6C3.44035 12.16 2.71035 12.15 2.26035 12.6C1.81035 13.05 1.81035 13.77 2.26035 14.22C2.48035 14.44 2.78035 14.55 3.07035 14.55C3.36035 14.55 3.66035 14.44 3.88035 14.22C4.32035 13.77 4.32035 13.04 3.88035 12.6Z" fill="#292D32"/>
<path opacity="0.4" d="M20.27 19.39C19.82 18.94 19.1 18.94 18.65 19.39C18.2 19.84 18.2 20.56 18.65 21.01C18.87 21.23 19.17 21.34 19.46 21.34C19.75 21.34 20.05 21.23 20.27 21.01C20.49 20.79 20.61 20.5 20.61 20.2C20.61 19.89 20.49 19.6 20.27 19.39Z" fill="#292D32"/>
<path opacity="0.4" d="M6.68948 5.81C6.46948 5.59 6.18949 5.46997 5.87949 5.46997C5.56949 5.46997 5.28949 5.58999 5.06949 5.79999C4.84949 6.01999 4.72949 6.29999 4.72949 6.60999C4.72949 6.91999 4.84951 7.19998 5.05951 7.41998C5.27951 7.63998 5.55951 7.76001 5.86951 7.76001C6.17951 7.76001 6.4595 7.63998 6.6795 7.41998C7.1295 6.97998 7.12948 6.25 6.68948 5.81Z" fill="#292D32"/>
<path opacity="0.4" d="M13.4795 2.99998C13.4795 2.98998 13.4795 2.98998 13.4795 2.99998C13.0295 2.54998 12.3095 2.54998 11.8595 2.99998C11.6395 3.21998 11.5195 3.50997 11.5195 3.80997C11.5195 4.11997 11.6395 4.39997 11.8495 4.61997C12.0695 4.83997 12.3495 4.96 12.6595 4.96C12.9695 4.96 13.2495 4.83997 13.4695 4.61997C13.9295 4.16997 13.9295 3.43998 13.4795 2.99998Z" fill="#292D32"/>
</svg>
