<svg width="25" height="24" viewBox="0 0 25 24" fill="none" xmlns="http://www.w3.org/2000/svg">
<path opacity="0.58" d="M24.6699 0H0.669922V24H24.6699V0Z" fill="white"/>
<path d="M12.6697 22.75C12.4197 22.75 12.1797 22.62 12.0397 22.41L2.99973 8.40999C2.77973 8.05999 2.87973 7.59998 3.21973 7.36998C3.56973 7.14998 4.02974 7.23998 4.25974 7.58998L12.6597 20.61L21.0297 7.58998C21.2497 7.23998 21.7197 7.13999 22.0697 7.35999C22.4197 7.57999 22.5197 8.04998 22.2997 8.39998L13.2997 22.4C13.1597 22.62 12.9297 22.75 12.6697 22.75Z" fill="#292D32"/>
<path opacity="0.4" d="M4.58967 4H6.40965C6.57965 4 6.72966 4.08 6.82966 4.22L12.2697 12.37C12.4697 12.67 12.8996 12.67 13.0996 12.37L18.5396 4.22C18.6297 4.08 18.7897 4 18.9597 4H20.7796C21.1796 4 21.4097 4.44 21.1997 4.77L13.1197 17.35C12.9197 17.66 12.4796 17.66 12.2796 17.35L4.19965 4.77C3.94965 4.44 4.18967 4 4.58967 4Z" fill="#292D32"/>
<path d="M8.66992 3L12.2499 8.38C12.4499 8.68001 12.8799 8.68001 13.0799 8.38L16.6699 3L13.8699 4V2H11.4699V4L8.66992 3Z" fill="#292D32"/>
</svg>
