<svg width="25" height="24" viewBox="0 0 25 24" fill="none" xmlns="http://www.w3.org/2000/svg">
<path opacity="0.58" d="M24.6699 0H0.669922V24H24.6699V0Z" fill="white"/>
<path opacity="0.4" fill-rule="evenodd" clip-rule="evenodd" d="M21.4699 2.23998L13.4699 3.83997C12.9999 3.92997 12.6699 4.33998 12.6699 4.81998V9.99998C12.6699 10.55 13.1199 11 13.6699 11H21.6699C22.2199 11 22.6699 10.55 22.6699 9.99998V3.21998C22.6699 2.58998 22.0899 2.11998 21.4699 2.23998Z" fill="#292D32"/>
<path fill-rule="evenodd" clip-rule="evenodd" d="M21.4699 21.76L13.4699 20.16C12.9999 20.07 12.6699 19.66 12.6699 19.18V14C12.6699 13.45 13.1199 13 13.6699 13H21.6699C22.2199 13 22.6699 13.45 22.6699 14V20.78C22.6699 21.41 22.0899 21.88 21.4699 21.76Z" fill="#292D32"/>
<path fill-rule="evenodd" clip-rule="evenodd" d="M9.4599 4.55996L3.4599 5.83995C2.9999 5.93995 2.66992 6.34996 2.66992 6.81996V9.99996C2.66992 10.55 3.11992 11 3.66992 11H9.66992C10.2199 11 10.6699 10.55 10.6699 9.99996V5.52996C10.6699 4.89996 10.0799 4.41996 9.4599 4.55996Z" fill="#292D32"/>
<path opacity="0.4" fill-rule="evenodd" clip-rule="evenodd" d="M9.4599 19.44L3.4599 18.16C2.9999 18.06 2.66992 17.65 2.66992 17.18V14C2.66992 13.45 3.11992 13 3.66992 13H9.66992C10.2199 13 10.6699 13.45 10.6699 14V18.47C10.6699 19.1 10.0799 19.58 9.4599 19.44Z" fill="#292D32"/>
</svg>
