<svg width="25" height="24" viewBox="0 0 25 24" fill="none" xmlns="http://www.w3.org/2000/svg">
<path opacity="0.4" d="M19.6699 9C19.6699 12.62 16.9299 15.59 13.4199 15.96C13.1699 15.99 12.9199 16 12.6699 16C12.4199 16 12.1699 15.99 11.9199 15.96C8.40992 15.59 5.66992 12.62 5.66992 9C5.66992 5.13 8.79992 2 12.6699 2C16.5399 2 19.6699 5.13 19.6699 9Z" fill="#292D32"/>
<path d="M16.4199 19C16.4199 19.41 16.0799 19.75 15.6699 19.75H13.4199V22C13.4199 22.41 13.0799 22.75 12.6699 22.75C12.2599 22.75 11.9199 22.41 11.9199 22V19.75H9.66992C9.25992 19.75 8.91992 19.41 8.91992 19C8.91992 18.59 9.25992 18.25 9.66992 18.25H11.9199V15.96C12.1699 15.99 12.4199 16 12.6699 16C12.9199 16 13.1699 15.99 13.4199 15.96V18.25H15.6699C16.0799 18.25 16.4199 18.59 16.4199 19Z" fill="#292D32"/>
</svg>
