<svg width="25" height="24" viewBox="0 0 25 24" fill="none" xmlns="http://www.w3.org/2000/svg">
<path opacity="0.58" d="M24.6699 0H0.669922V24H24.6699V0Z" fill="white"/>
<path opacity="0.4" d="M16.8597 2H8.4897C4.8497 2 2.67969 4.17 2.67969 7.81V16.18C2.67969 19.82 4.8497 21.99 8.4897 21.99H16.8597C20.4997 21.99 22.6697 19.82 22.6697 16.18V7.81C22.6697 4.17 20.4997 2 16.8597 2Z" fill="#292D32"/>
<path d="M18.6299 7.71997C18.2199 7.71997 17.8799 8.05997 17.8799 8.46997V11.25H16.8598C15.4698 11.25 14.3398 12.38 14.3398 13.77C14.3398 15.16 15.4698 16.29 16.8598 16.29H18.6299C19.0399 16.29 19.3799 15.95 19.3799 15.54V8.47997C19.3799 8.04997 19.0399 7.71997 18.6299 7.71997ZM17.8799 14.78H16.8598C16.2998 14.78 15.8398 14.32 15.8398 13.76C15.8398 13.2 16.2998 12.74 16.8598 12.74H17.8799V14.78Z" fill="#292D32"/>
<path d="M12.8297 7.87994C12.5097 7.61994 12.0297 7.66994 11.7797 7.99994L9.53969 10.7999L7.2997 7.99994C7.0397 7.67994 6.5697 7.61994 6.2497 7.87994C5.9297 8.13994 5.8697 8.60993 6.1297 8.92993L8.5797 11.9899L6.1297 15.0499C5.8697 15.3699 5.9197 15.8499 6.2497 16.0999C6.3897 16.2099 6.5497 16.2599 6.7197 16.2599C6.9397 16.2599 7.15969 16.1599 7.30969 15.9799L9.5497 13.1799L11.7897 15.9799C11.9397 16.1599 12.1597 16.2599 12.3797 16.2599C12.5397 16.2599 12.7097 16.2099 12.8497 16.0999C13.1697 15.8399 13.2297 15.3699 12.9697 15.0499L10.5197 11.9899L12.9697 8.92993C13.2097 8.60993 13.1597 8.13994 12.8297 7.87994Z" fill="#292D32"/>
</svg>
