<svg width="25" height="24" viewBox="0 0 25 24" fill="none" xmlns="http://www.w3.org/2000/svg">
<path d="M15.6711 22.7502C15.4011 22.7502 15.1511 22.6002 15.0211 22.3702C14.8911 22.1302 14.8911 21.8502 15.0311 21.6102L16.0811 19.8602C16.2911 19.5102 16.7511 19.3902 17.1111 19.6002C17.4711 19.8102 17.5811 20.2702 17.3711 20.6302L17.1011 21.0802C19.8611 20.4302 21.9311 17.9502 21.9311 14.9902C21.9311 14.5802 22.2711 14.2402 22.6811 14.2402C23.0911 14.2402 23.4311 14.5802 23.4311 14.9902C23.4211 19.2702 19.9411 22.7502 15.6711 22.7502Z" fill="#292D32"/>
<path d="M2.6709 9.75C2.2609 9.75 1.9209 9.41 1.9209 9C1.9209 4.73 5.4009 1.25 9.6709 1.25C9.9409 1.25 10.1909 1.4 10.3209 1.63C10.4509 1.87 10.4509 2.15 10.3109 2.39L9.2609 4.14C9.0509 4.49 8.5909 4.61 8.2309 4.39C7.8809 4.18 7.7609 3.72 7.9809 3.36L8.2509 2.91C5.4809 3.56 3.4209 6.04 3.4209 9C3.4209 9.41 3.0809 9.75 2.6709 9.75Z" fill="#292D32"/>
<path d="M17.0711 8.20996L13.3111 6.17996C12.9111 5.96996 12.4411 5.96996 12.0411 6.17996L8.27105 8.20996C8.00105 8.35996 7.83105 8.64996 7.83105 8.96996C7.83105 9.29996 8.00105 9.58996 8.27105 9.73996L12.0311 11.77C12.2311 11.88 12.4511 11.93 12.6711 11.93C12.8911 11.93 13.1111 11.88 13.3111 11.77L17.0711 9.73996C17.3411 9.58996 17.5111 9.29996 17.5111 8.96996C17.5111 8.64996 17.3411 8.35996 17.0711 8.20996Z" fill="#292D32"/>
<path d="M11.4109 12.4699L7.9109 10.7199C7.6409 10.5899 7.3309 10.5999 7.0709 10.7599C6.8209 10.9199 6.6709 11.1899 6.6709 11.4899V14.7999C6.6709 15.3699 6.9909 15.8899 7.5009 16.1399L11.0009 17.8899C11.1209 17.9499 11.2509 17.9799 11.3909 17.9799C11.5509 17.9799 11.7009 17.9399 11.8409 17.8499C12.1009 17.6899 12.2509 17.4199 12.2509 17.1199V13.8099C12.2409 13.2399 11.9309 12.7299 11.4109 12.4699Z" fill="#292D32"/>
<path d="M18.2608 10.7599C18.0008 10.5999 17.6908 10.5899 17.4208 10.7199L13.9208 12.4699C13.4108 12.7299 13.0908 13.2399 13.0908 13.8099V17.1199C13.0908 17.4199 13.2408 17.6899 13.5008 17.8499C13.6408 17.9399 13.7908 17.9799 13.9508 17.9799C14.0808 17.9799 14.2108 17.9499 14.3408 17.8899L17.8408 16.1399C18.3508 15.8799 18.6708 15.3699 18.6708 14.7999V11.4899C18.6708 11.1899 18.5208 10.9199 18.2608 10.7599Z" fill="#292D32"/>
</svg>
