<svg width="25" height="24" viewBox="0 0 25 24" fill="none" xmlns="http://www.w3.org/2000/svg">
<path d="M12.6699 2C7.15992 2 2.66992 6.49 2.66992 12C2.66992 17.51 7.15992 22 12.6699 22C18.1799 22 22.6699 17.51 22.6699 12C22.6699 6.49 18.1799 2 12.6699 2ZM16.6699 12.75H13.4199V16C13.4199 16.41 13.0799 16.75 12.6699 16.75C12.2599 16.75 11.9199 16.41 11.9199 16V12.75H8.66992C8.25992 12.75 7.91992 12.41 7.91992 12C7.91992 11.59 8.25992 11.25 8.66992 11.25H11.9199V8C11.9199 7.59 12.2599 7.25 12.6699 7.25C13.0799 7.25 13.4199 7.59 13.4199 8V11.25H16.6699C17.0799 11.25 17.4199 11.59 17.4199 12C17.4199 12.41 17.0799 12.75 16.6699 12.75Z" fill="#292D32"/>
</svg>
