<svg width="25" height="24" viewBox="0 0 25 24" fill="none" xmlns="http://www.w3.org/2000/svg">
<path d="M14.8001 11.34C15.1901 9.70003 13.7601 8.27003 12.1201 8.66003C11.3501 8.85003 10.7201 9.48003 10.5301 10.25C10.1401 11.89 11.5701 13.32 13.2101 12.93C13.9901 12.74 14.6201 12.11 14.8001 11.34Z" fill="#292D32"/>
<path d="M6.68988 17.97C6.50988 17.97 6.31988 17.9 6.17988 17.77C4.23988 15.97 3.12988 13.43 3.12988 10.79C3.12988 5.53 7.40988 1.25 12.6699 1.25C17.9299 1.25 22.2099 5.53 22.2099 10.79C22.2099 13.45 21.1399 15.91 19.1999 17.74C18.8999 18.02 18.4199 18.01 18.1399 17.71C17.8599 17.41 17.8699 16.93 18.1699 16.65C19.8099 15.11 20.7099 13.04 20.7099 10.8C20.7099 6.37 17.0999 2.76 12.6699 2.76C8.23988 2.76 4.62988 6.37 4.62988 10.8C4.62988 13.06 5.53988 15.14 7.19988 16.68C7.49988 16.96 7.51988 17.44 7.23988 17.74C7.08988 17.89 6.88988 17.97 6.68988 17.97Z" fill="#292D32"/>
<path d="M16.6699 15.3001C16.4899 15.3001 16.2999 15.2301 16.1599 15.1001C15.8599 14.8201 15.8399 14.3401 16.1299 14.0401C16.9599 13.1601 17.4199 12.0001 17.4199 10.8001C17.4199 8.18006 15.2899 6.06006 12.6799 6.06006C10.0699 6.06006 7.93994 8.19006 7.93994 10.8001C7.93994 12.0101 8.39994 13.1601 9.22994 14.0401C9.50994 14.3401 9.49994 14.8201 9.19994 15.1001C8.89994 15.3901 8.41994 15.3701 8.13994 15.0701C7.04994 13.9101 6.43994 12.3901 6.43994 10.8001C6.43994 7.36006 9.23994 4.56006 12.6799 4.56006C16.1199 4.56006 18.9199 7.36006 18.9199 10.8001C18.9199 12.3901 18.3199 13.9101 17.2199 15.0701C17.0699 15.2201 16.8699 15.3001 16.6699 15.3001Z" fill="#292D32"/>
<path d="M10.9698 16.66L9.52981 18.45C8.38981 19.88 9.40981 22 11.2298 22H14.0998C15.9298 22 16.9498 19.88 15.7998 18.46L14.3598 16.67C13.4998 15.57 11.8398 15.57 10.9698 16.66Z" fill="#292D32"/>
</svg>
