<svg width="25" height="24" viewBox="0 0 25 24" fill="none" xmlns="http://www.w3.org/2000/svg">
<path fill-rule="evenodd" clip-rule="evenodd" d="M19.77 19.16C20.36 18.26 20.58 17.8 21.03 16.79C17.71 15.53 17.18 10.8 20.46 8.98999C19.46 7.72999 18.05 7 16.72 7C15.76 7 15.1 7.25001 14.51 7.48001C14.01 7.67001 13.56 7.84 13 7.84C12.4 7.84 11.87 7.65001 11.31 7.45001C10.7 7.23001 10.06 7 9.25998 7C7.76998 7 6.17999 7.91 5.16999 9.47C3.74999 11.67 3.99999 15.79 6.28999 19.31C7.10999 20.57 8.20999 21.98 9.63999 22C10.24 22.01 10.63 21.83 11.06 21.64C11.55 21.42 12.08 21.18 13.01 21.18C13.94 21.17 14.46 21.42 14.95 21.64C15.37 21.83 15.75 22.01 16.34 22C17.79 21.98 18.95 20.42 19.77 19.16Z" fill="black"/>
<path fill-rule="evenodd" clip-rule="evenodd" d="M16.5099 2C16.6699 3.1 16.2199 4.19001 15.6299 4.95001C14.9999 5.77001 13.8999 6.41 12.8399 6.37C12.6499 5.31 13.1399 4.21999 13.7399 3.48999C14.4099 2.68999 15.5399 2.07 16.5099 2Z" fill="black"/>
</svg>
