<svg width="25" height="24" viewBox="0 0 25 24" fill="none" xmlns="http://www.w3.org/2000/svg">
<path d="M20.7902 3.88L4.06023 20.61C4.01023 20.41 3.99023 20.19 3.99023 19.95V5.86C3.99023 3.74 5.72023 2 7.85023 2H17.4902C18.8902 2 20.1202 2.75 20.7902 3.88Z" fill="#292D32"/>
<path d="M22.4398 2.22988C22.1398 1.92988 21.6498 1.92988 21.3498 2.22988L2.8998 20.6899C2.5998 20.9899 2.5998 21.4799 2.8998 21.7799C3.0498 21.9199 3.2398 21.9999 3.4398 21.9999C3.6398 21.9999 3.8298 21.9199 3.9798 21.7699L22.4398 3.30988C22.7498 3.00988 22.7498 2.52988 22.4398 2.22988Z" fill="#292D32"/>
<path d="M19.9601 7.71005L12.5701 15.1001C12.1101 15.5601 12.2001 16.3301 12.7601 16.6601L20.1501 21.0901C20.8201 21.4901 21.6601 21.0101 21.6601 20.2301V8.41005C21.6701 7.52005 20.5901 7.08005 19.9601 7.71005Z" fill="#292D32"/>
</svg>
