<svg width="25" height="24" viewBox="0 0 25 24" fill="none" xmlns="http://www.w3.org/2000/svg">
<path d="M12.6699 2C7.14992 2 2.66992 6.48 2.66992 12C2.66992 17.52 7.14992 22 12.6699 22C18.1899 22 22.6699 17.52 22.6699 12C22.6699 6.48 18.1899 2 12.6699 2ZM18.5199 14.1C18.4799 14.19 18.4299 14.27 18.3599 14.34L15.3199 17.38C15.1699 17.53 14.9799 17.6 14.7899 17.6C14.5999 17.6 14.4099 17.53 14.2599 17.38C13.9699 17.09 13.9699 16.61 14.2599 16.32L16.0199 14.56H7.51992C7.10992 14.56 6.76992 14.22 6.76992 13.81C6.76992 13.4 7.10992 13.06 7.51992 13.06H17.8299C17.9299 13.06 18.0199 13.08 18.1199 13.12C18.2999 13.2 18.4499 13.34 18.5299 13.53C18.5899 13.71 18.5899 13.92 18.5199 14.1ZM17.8199 10.93H7.51992C7.41992 10.93 7.31992 10.91 7.22992 10.87C7.04992 10.79 6.89992 10.65 6.81992 10.46C6.73992 10.28 6.73992 10.07 6.81992 9.89C6.85992 9.8 6.90992 9.72 6.97992 9.65L10.0199 6.61C10.3099 6.32 10.7899 6.32 11.0799 6.61C11.3699 6.9 11.3699 7.38 11.0799 7.67L9.32992 9.43H17.8299C18.2399 9.43 18.5799 9.77 18.5799 10.18C18.5799 10.59 18.2399 10.93 17.8199 10.93Z" fill="#292D32"/>
</svg>
