<svg width="25" height="24" viewBox="0 0 25 24" fill="none" xmlns="http://www.w3.org/2000/svg">
<path d="M12.6699 2C7.14992 2 2.66992 6.48 2.66992 12C2.66992 17.52 7.14992 22 12.6699 22C18.1899 22 22.6699 17.52 22.6699 12C22.6699 6.48 18.1899 2 12.6699 2ZM11.5999 17.15C11.5999 17.25 11.5799 17.34 11.5399 17.44C11.4599 17.62 11.3199 17.77 11.1299 17.85C11.0399 17.89 10.9399 17.91 10.8399 17.91C10.7399 17.91 10.6499 17.89 10.5499 17.85C10.4599 17.81 10.3799 17.76 10.3099 17.69L7.26992 14.65C6.97992 14.36 6.97992 13.88 7.26992 13.59C7.55992 13.3 8.03992 13.3 8.32992 13.59L10.0899 15.35V6.85C10.0899 6.44 10.4299 6.1 10.8399 6.1C11.2499 6.1 11.5899 6.44 11.5899 6.85V17.15H11.5999ZM18.0599 10.42C17.9099 10.57 17.7199 10.64 17.5299 10.64C17.3399 10.64 17.1499 10.57 16.9999 10.42L15.2399 8.66V17.16C15.2399 17.57 14.8999 17.91 14.4899 17.91C14.0799 17.91 13.7399 17.57 13.7399 17.16V6.85C13.7399 6.75 13.7599 6.66 13.7999 6.56C13.8799 6.38 14.0199 6.23 14.2099 6.15C14.3899 6.07 14.5999 6.07 14.7799 6.15C14.8699 6.19 14.9499 6.24 15.0199 6.31L18.0599 9.35C18.3499 9.65 18.3499 10.12 18.0599 10.42Z" fill="#292D32"/>
</svg>
