<svg width="25" height="24" viewBox="0 0 25 24" fill="none" xmlns="http://www.w3.org/2000/svg">
<path d="M16.8599 2H8.47992C4.83992 2 2.66992 4.17 2.66992 7.81V16.18C2.66992 19.83 4.83992 22 8.47992 22H16.8499C20.4899 22 22.6599 19.83 22.6599 16.19V7.81C22.6699 4.17 20.4999 2 16.8599 2ZM11.6599 17C11.6599 17.1 11.6399 17.19 11.5999 17.29C11.5199 17.47 11.3799 17.62 11.1899 17.7C11.0999 17.74 10.9999 17.76 10.8999 17.76C10.7999 17.76 10.7099 17.74 10.6099 17.7C10.5199 17.66 10.4399 17.61 10.3699 17.54L7.41992 14.59C7.12992 14.3 7.12992 13.82 7.41992 13.53C7.70992 13.24 8.18992 13.24 8.47992 13.53L10.1499 15.2V7C10.1499 6.59 10.4899 6.25 10.8999 6.25C11.3099 6.25 11.6599 6.59 11.6599 7V17ZM17.9099 10.48C17.7599 10.63 17.5699 10.7 17.3799 10.7C17.1899 10.7 16.9999 10.63 16.8499 10.48L15.1799 8.81V17C15.1799 17.41 14.8399 17.75 14.4299 17.75C14.0199 17.75 13.6799 17.41 13.6799 17V7C13.6799 6.9 13.6999 6.81 13.7399 6.71C13.8199 6.53 13.9599 6.38 14.1499 6.3C14.3299 6.22 14.5399 6.22 14.7199 6.3C14.8099 6.34 14.8899 6.39 14.9599 6.46L17.9099 9.41C18.1999 9.71 18.1999 10.19 17.9099 10.48Z" fill="#292D32"/>
</svg>
