<svg width="25" height="24" viewBox="0 0 25 24" fill="none" xmlns="http://www.w3.org/2000/svg">
<g clip-path="url(#clip0_12_64996)">
<path d="M16.8599 2H8.47992C4.83992 2 2.66992 4.17 2.66992 7.81V16.18C2.66992 19.83 4.83992 22 8.47992 22H16.8499C20.4899 22 22.6599 19.83 22.6599 16.19V7.81C22.6699 4.17 20.4999 2 16.8599 2ZM20.0199 8.84C19.9799 8.93 19.9299 9.01 19.8599 9.08L18.0599 10.88C17.9099 11.03 17.7199 11.1 17.5299 11.1C17.3399 11.1 17.1499 11.03 16.9999 10.88C16.7099 10.59 16.7099 10.11 16.9999 9.82L17.5199 9.3H17.3699C15.2699 9.3 13.5499 11.01 13.5499 13.11V15.07V17.24C13.5499 17.65 13.2099 17.99 12.7999 17.99C12.3899 17.99 12.0499 17.65 12.0499 17.24V15.07V13.11C12.0499 11.01 10.3399 9.3 8.23992 9.3H7.81992L8.33992 9.82C8.62992 10.11 8.62992 10.59 8.33992 10.88C8.18992 11.03 7.99992 11.1 7.80992 11.1C7.61992 11.1 7.42992 11.03 7.27992 10.88L5.47992 9.08C5.18992 8.79 5.18992 8.31 5.47992 8.02L7.27992 6.22C7.56992 5.93 8.04992 5.93 8.33992 6.22C8.62992 6.51 8.62992 6.99 8.33992 7.28L7.81992 7.8H8.24992C10.1999 7.8 11.8899 8.87 12.8099 10.44C13.7299 8.87 15.4199 7.8 17.3799 7.8H17.5299L17.0099 7.28C16.7199 6.99 16.7199 6.51 17.0099 6.22C17.2999 5.93 17.7799 5.93 18.0699 6.22L19.8699 8.02C19.9399 8.09 19.9899 8.17 20.0299 8.26C20.0999 8.45 20.0999 8.66 20.0199 8.84Z" fill="#292D32"/>
</g>
<defs>
<clipPath id="clip0_12_64996">
<rect width="24" height="24" fill="white" transform="translate(0.669922)"/>
</clipPath>
</defs>
</svg>
