<svg width="25" height="24" viewBox="0 0 25 24" fill="none" xmlns="http://www.w3.org/2000/svg">
<path d="M12.6699 2C7.15992 2 2.66992 6.49 2.66992 12C2.66992 17.51 7.15992 22 12.6699 22C18.1799 22 22.6699 17.51 22.6699 12C22.6699 6.49 18.1799 2 12.6699 2ZM15.4599 12.53L11.9299 16.06C11.7799 16.21 11.5899 16.28 11.3999 16.28C11.2099 16.28 11.0199 16.21 10.8699 16.06C10.5799 15.77 10.5799 15.29 10.8699 15L13.8699 12L10.8699 9C10.5799 8.71 10.5799 8.23 10.8699 7.94C11.1599 7.65 11.6399 7.65 11.9299 7.94L15.4599 11.47C15.7599 11.76 15.7599 12.24 15.4599 12.53Z" fill="#292D32"/>
</svg>
