<svg width="25" height="24" viewBox="0 0 25 24" fill="none" xmlns="http://www.w3.org/2000/svg">
<path d="M16.8599 2H8.47992C4.83992 2 2.66992 4.17 2.66992 7.81V16.18C2.66992 19.83 4.83992 22 8.47992 22H16.8499C20.4899 22 22.6599 19.83 22.6599 16.19V7.81C22.6699 4.17 20.4999 2 16.8599 2ZM16.7299 11.17L13.1999 14.7C13.0499 14.85 12.8599 14.92 12.6699 14.92C12.4799 14.92 12.2899 14.85 12.1399 14.7L8.60992 11.17C8.31992 10.88 8.31992 10.4 8.60992 10.11C8.89992 9.82 9.37992 9.82 9.66992 10.11L12.6699 13.11L15.6699 10.11C15.9599 9.82 16.4399 9.82 16.7299 10.11C17.0199 10.4 17.0199 10.87 16.7299 11.17Z" fill="#292D32"/>
</svg>
