<svg width="25" height="24" viewBox="0 0 25 24" fill="none" xmlns="http://www.w3.org/2000/svg">
<path d="M16.8619 2H8.48187C4.84187 2 2.67188 4.17 2.67188 7.81V16.18C2.67188 19.83 4.84187 22 8.48187 22H16.8519C20.4919 22 22.6619 19.83 22.6619 16.19V7.81C22.6719 4.17 20.5019 2 16.8619 2ZM17.0419 14.35L14.8219 16.57C14.2819 17.11 13.5819 17.37 12.8819 17.37C12.1819 17.37 11.4719 17.1 10.9419 16.57C10.4219 16.05 10.1319 15.36 10.1319 14.63C10.1319 13.9 10.4219 13.2 10.9419 12.69L12.3519 11.28C12.6419 10.99 13.1219 10.99 13.4119 11.28C13.7019 11.57 13.7019 12.05 13.4119 12.34L12.0019 13.75C11.7619 13.99 11.6319 14.3 11.6319 14.63C11.6319 14.96 11.7619 15.28 12.0019 15.51C12.4919 16 13.2819 16 13.7719 15.51L15.9919 13.29C17.2619 12.02 17.2619 9.96 15.9919 8.69C14.7219 7.42 12.6619 7.42 11.3919 8.69L8.97188 11.11C8.46187 11.62 8.18188 12.29 8.18188 13C8.18188 13.71 8.46187 14.39 8.97188 14.89C9.26188 15.18 9.26188 15.66 8.97188 15.95C8.68188 16.24 8.20187 16.24 7.91187 15.95C7.11187 15.18 6.67188 14.13 6.67188 13.01C6.67188 11.89 7.10187 10.84 7.89187 10.05L10.3119 7.63C12.1619 5.78 15.1819 5.78 17.0319 7.63C18.8919 9.48 18.8919 12.5 17.0419 14.35Z" fill="#292D32"/>
</svg>
