<svg width="25" height="24" viewBox="0 0 25 24" fill="none" xmlns="http://www.w3.org/2000/svg">
<path d="M12.6699 2C7.14992 2 2.66992 6.48 2.66992 12C2.66992 17.52 7.14992 22 12.6699 22C18.1899 22 22.6699 17.52 22.6699 12C22.6699 6.48 18.1899 2 12.6699 2ZM11.3899 15.41C11.0599 15.94 10.4799 16.26 9.84991 16.26H7.10992C6.75992 16.26 6.53991 15.88 6.71991 15.58L12.3299 5.97C12.4899 5.69 12.8899 5.67 13.0799 5.93L14.6399 8.02C15.0899 8.62 15.1199 9.43 14.7299 10.07L11.3899 15.41ZM18.2199 16.26H14.3799C14.0299 16.26 13.8099 15.88 13.9899 15.57L15.9099 12.37C16.0899 12.08 16.5099 12.08 16.6899 12.37L18.6099 15.57C18.7899 15.87 18.5699 16.26 18.2199 16.26Z" fill="black"/>
</svg>
