<svg width="25" height="24" viewBox="0 0 25 24" fill="none" xmlns="http://www.w3.org/2000/svg">
<path d="M18.4799 5.49V6.23L14.9399 4.18C13.5999 3.41 11.7299 3.41 10.3999 4.18L6.85986 6.24V5.49C6.85986 3.24 8.08986 2 10.3399 2H14.9999C17.2499 2 18.4799 3.24 18.4799 5.49Z" fill="#292D32"/>
<path d="M18.5099 7.96999L18.3699 7.89999L17.0099 7.11999L14.1899 5.48999C13.3299 4.98999 12.0099 4.98999 11.1499 5.48999L8.32992 7.10999L6.96992 7.90999L6.78992 7.99999C5.03992 9.17999 4.91992 9.39999 4.91992 11.29V15.81C4.91992 17.7 5.03992 17.92 6.82992 19.13L11.1499 21.62C11.5799 21.88 12.1199 21.99 12.6699 21.99C13.2099 21.99 13.7599 21.87 14.1899 21.62L18.5499 19.1C20.3099 17.92 20.4199 17.71 20.4199 15.81V11.29C20.4199 9.39999 20.2999 9.17999 18.5099 7.96999ZM15.4599 13.5L14.8499 14.25C14.7499 14.36 14.6799 14.57 14.6899 14.72L14.7499 15.68C14.7899 16.27 14.3699 16.57 13.8199 16.36L12.9299 16C12.7899 15.95 12.5599 15.95 12.4199 16L11.5299 16.35C10.9799 16.57 10.5599 16.26 10.5999 15.67L10.6599 14.71C10.6699 14.56 10.5999 14.35 10.4999 14.24L9.87992 13.5C9.49992 13.05 9.66992 12.55 10.2399 12.4L11.1699 12.16C11.3199 12.12 11.4899 11.98 11.5699 11.86L12.0899 11.06C12.4099 10.56 12.9199 10.56 13.2499 11.06L13.7699 11.86C13.8499 11.99 14.0299 12.12 14.1699 12.16L15.0999 12.4C15.6699 12.55 15.8399 13.05 15.4599 13.5Z" fill="#292D32"/>
</svg>
