<svg width="25" height="24" viewBox="0 0 25 24" fill="none" xmlns="http://www.w3.org/2000/svg">
<path d="M10.2095 16.67C9.79947 16.67 9.45947 16.33 9.45947 15.92V12.53L9.26947 12.75C8.98947 13.06 8.51947 13.08 8.20947 12.81C7.89947 12.53 7.87947 12.06 8.14947 11.75L9.64947 10.08C9.85947 9.85 10.1895 9.77 10.4795 9.88C10.7695 9.99 10.9595 10.27 10.9595 10.58V15.93C10.9595 16.34 10.6295 16.67 10.2095 16.67Z" fill="#292D32"/>
<path d="M12.67 3.48C12.59 3.48 12.51 3.49 12.43 3.49L13.25 2.47C13.51 2.15 13.46 1.67 13.13 1.42C12.81 1.16 12.34 1.21 12.08 1.54L10.11 4C10.1 4.01 10.1 4.02 10.09 4.04C10.06 4.08 10.04 4.13 10.02 4.17C10 4.22 9.98004 4.26 9.97004 4.3C9.96004 4.35 9.96004 4.39 9.96004 4.44C9.96004 4.49 9.96004 4.54 9.96004 4.59C9.96004 4.61 9.96004 4.62 9.96004 4.64C9.97004 4.67 9.99004 4.69 10 4.73C10.02 4.78 10.03 4.82 10.06 4.86C10.09 4.9 10.12 4.94 10.16 4.98C10.18 5 10.2 5.03 10.22 5.05C10.23 5.06 10.25 5.06 10.26 5.07C10.29 5.09 10.32 5.11 10.36 5.12C10.41 5.15 10.46 5.17 10.51 5.18C10.55 5.2 10.58 5.2 10.62 5.2C10.65 5.2 10.67 5.21 10.7 5.21C10.72 5.21 10.75 5.2 10.77 5.19C10.8 5.19 10.83 5.19 10.87 5.19C11.51 5.04 12.11 4.97 12.68 4.97C17.17 4.97 20.82 8.62 20.82 13.11C20.82 17.6 17.17 21.25 12.68 21.25C8.19004 21.25 4.54004 17.6 4.54004 13.11C4.54004 11.37 5.11004 9.69 6.19004 8.25C6.44004 7.92 6.37004 7.45 6.04004 7.2C5.71004 6.95 5.24004 7.02 4.99004 7.35C3.71004 9.05 3.04004 11.04 3.04004 13.11C3.04004 18.42 7.36004 22.75 12.68 22.75C18 22.75 22.32 18.43 22.32 13.11C22.32 7.79 17.98 3.48 12.67 3.48Z" fill="#292D32"/>
<path d="M14.6699 16.67C13.1499 16.67 11.9199 15.44 11.9199 13.92V12.57C11.9199 11.05 13.1499 9.82 14.6699 9.82C16.1899 9.82 17.4199 11.05 17.4199 12.57V13.92C17.4199 15.44 16.1899 16.67 14.6699 16.67ZM14.6699 11.33C13.9799 11.33 13.4199 11.89 13.4199 12.58V13.93C13.4199 14.62 13.9799 15.18 14.6699 15.18C15.3599 15.18 15.9199 14.62 15.9199 13.93V12.58C15.9199 11.89 15.3599 11.33 14.6699 11.33Z" fill="#292D32"/>
</svg>
