<svg width="25" height="24" viewBox="0 0 25 24" fill="none" xmlns="http://www.w3.org/2000/svg">
<path d="M20.6297 8.9599C19.9597 8.2199 18.9497 7.7899 17.5497 7.6399V6.8799C17.5497 5.5099 16.9697 4.1899 15.9497 3.2699C14.9197 2.3299 13.5797 1.8899 12.1897 2.0199C9.79967 2.2499 7.78967 4.5599 7.78967 7.0599V7.6399C6.38967 7.7899 5.37967 8.2199 4.70967 8.9599C3.73967 10.0399 3.76967 11.4799 3.87967 12.4799L4.57967 18.0499C4.78967 19.9999 5.57967 21.9999 9.87967 21.9999H15.4597C19.7597 21.9999 20.5497 19.9999 20.7597 18.0599L21.4597 12.4699C21.5697 11.4799 21.5897 10.0399 20.6297 8.9599ZM12.3297 3.4099C13.3297 3.3199 14.2797 3.6299 15.0197 4.2999C15.7497 4.9599 16.1597 5.8999 16.1597 6.8799V7.5799H9.17967V7.0599C9.17967 5.2799 10.6497 3.5699 12.3297 3.4099ZM9.08967 13.1499H9.07967C8.52967 13.1499 8.07967 12.6999 8.07967 12.1499C8.07967 11.5999 8.52967 11.1499 9.07967 11.1499C9.63967 11.1499 10.0897 11.5999 10.0897 12.1499C10.0897 12.6999 9.63967 13.1499 9.08967 13.1499ZM16.0897 13.1499H16.0797C15.5297 13.1499 15.0797 12.6999 15.0797 12.1499C15.0797 11.5999 15.5297 11.1499 16.0797 11.1499C16.6397 11.1499 17.0897 11.5999 17.0897 12.1499C17.0897 12.6999 16.6397 13.1499 16.0897 13.1499Z" fill="#292D32"/>
</svg>
