<svg width="25" height="24" viewBox="0 0 25 24" fill="none" xmlns="http://www.w3.org/2000/svg">
<path d="M20.6297 8.9599C19.9597 8.2199 18.9497 7.7899 17.5497 7.6399V6.8799C17.5497 5.5099 16.9697 4.1899 15.9497 3.2699C14.9197 2.3299 13.5797 1.8899 12.1897 2.0199C9.79967 2.2499 7.78967 4.5599 7.78967 7.0599V7.6399C6.38967 7.7899 5.37967 8.2199 4.70967 8.9599C3.73967 10.0399 3.76967 11.4799 3.87967 12.4799L4.57967 18.0499C4.78967 19.9999 5.57967 21.9999 9.87967 21.9999H15.4597C19.7597 21.9999 20.5497 19.9999 20.7597 18.0599L21.4597 12.4699C21.5697 11.4799 21.5997 10.0399 20.6297 8.9599ZM12.3297 3.4099C13.3297 3.3199 14.2797 3.6299 15.0197 4.2999C15.7497 4.9599 16.1597 5.8999 16.1597 6.8799V7.5799H9.17967V7.0599C9.17967 5.2799 10.6497 3.5699 12.3297 3.4099ZM12.6697 18.5799C10.5797 18.5799 8.87967 16.8799 8.87967 14.7899C8.87967 12.6999 10.5797 10.9999 12.6697 10.9999C14.7597 10.9999 16.4597 12.6999 16.4597 14.7899C16.4597 16.8799 14.7597 18.5799 12.6697 18.5799Z" fill="#292D32"/>
<path d="M12.0998 16.64C11.9098 16.64 11.7198 16.57 11.5698 16.42L10.5798 15.43C10.2898 15.14 10.2898 14.66 10.5798 14.37C10.8698 14.08 11.3498 14.08 11.6398 14.37L12.1198 14.85L13.7198 13.37C14.0198 13.09 14.4998 13.11 14.7798 13.41C15.0598 13.71 15.0398 14.19 14.7398 14.47L12.6098 16.44C12.4598 16.57 12.2798 16.64 12.0998 16.64Z" fill="#292D32"/>
</svg>
