<svg width="25" height="24" viewBox="0 0 25 24" fill="none" xmlns="http://www.w3.org/2000/svg">
<path d="M20.6297 8.9599C19.9597 8.2199 18.9497 7.7899 17.5497 7.6399V6.8799C17.5497 5.5099 16.9697 4.1899 15.9497 3.2699C14.9197 2.3299 13.5797 1.8899 12.1897 2.0199C9.79967 2.2499 7.78967 4.5599 7.78967 7.0599V7.6399C6.38967 7.7899 5.37967 8.2199 4.70967 8.9599C3.73967 10.0399 3.76967 11.4799 3.87967 12.4799L4.57967 18.0499C4.78967 19.9999 5.57967 21.9999 9.87967 21.9999H15.4597C19.7597 21.9999 20.5497 19.9999 20.7597 18.0599L21.4597 12.4699C21.5697 11.4799 21.5997 10.0399 20.6297 8.9599ZM12.3297 3.4099C13.3297 3.3199 14.2797 3.6299 15.0197 4.2999C15.7497 4.9599 16.1597 5.8999 16.1597 6.8799V7.5799H9.17967V7.0599C9.17967 5.2799 10.6497 3.5699 12.3297 3.4099ZM12.6697 18.5799C10.5797 18.5799 8.87967 16.8799 8.87967 14.7899C8.87967 12.6999 10.5797 10.9999 12.6697 10.9999C14.7597 10.9999 16.4597 12.6999 16.4597 14.7899C16.4597 16.8799 14.7597 18.5799 12.6697 18.5799Z" fill="#292D32"/>
<path d="M14.27 15.3102L13.74 14.7802L14.24 14.2802C14.53 13.9902 14.53 13.5102 14.24 13.2202C13.95 12.9302 13.47 12.9302 13.18 13.2202L12.68 13.7202L12.15 13.1902C11.86 12.9002 11.38 12.9002 11.09 13.1902C10.8 13.4802 10.8 13.9602 11.09 14.2502L11.62 14.7802L11.07 15.3302C10.78 15.6202 10.78 16.1002 11.07 16.3902C11.22 16.5402 11.41 16.6102 11.6 16.6102C11.79 16.6102 11.98 16.5402 12.13 16.3902L12.68 15.8402L13.21 16.3702C13.36 16.5202 13.55 16.5902 13.74 16.5902C13.93 16.5902 14.12 16.5202 14.27 16.3702C14.56 16.0802 14.56 15.6102 14.27 15.3102Z" fill="#292D32"/>
</svg>
