<svg width="25" height="24" viewBox="0 0 25 24" fill="none" xmlns="http://www.w3.org/2000/svg">
<path d="M19.9099 5.58006H19.5099L16.1299 2.20006C15.8599 1.93006 15.4199 1.93006 15.1399 2.20006C14.8699 2.47006 14.8699 2.91006 15.1399 3.19006L17.5299 5.58006H7.80992L10.1999 3.19006C10.4699 2.92006 10.4699 2.48006 10.1999 2.20006C9.92992 1.93006 9.48992 1.93006 9.20992 2.20006L5.83992 5.58006H5.43992C4.53992 5.58006 2.66992 5.58006 2.66992 8.14006C2.66992 9.11006 2.86992 9.75006 3.28992 10.1701C3.52992 10.4201 3.81992 10.5501 4.12992 10.6201C4.41992 10.6901 4.72992 10.7001 5.02992 10.7001H20.3099C20.6199 10.7001 20.9099 10.6801 21.1899 10.6201C22.0299 10.4201 22.6699 9.82006 22.6699 8.14006C22.6699 5.58006 20.7999 5.58006 19.9099 5.58006Z" fill="#292D32"/>
<path d="M19.7596 12H5.57963C4.95963 12 4.48963 12.55 4.58963 13.16L5.42963 18.3C5.70963 20.02 6.45963 22 9.78963 22H15.3996C18.7696 22 19.3696 20.31 19.7296 18.42L20.7396 13.19C20.8596 12.57 20.3896 12 19.7596 12ZM15.5496 16.05L12.2996 19.05C12.1596 19.18 11.9796 19.25 11.7896 19.25C11.5996 19.25 11.4096 19.18 11.2596 19.03L9.75963 17.53C9.46963 17.24 9.46963 16.76 9.75963 16.47C10.0596 16.18 10.5296 16.18 10.8296 16.47L11.8196 17.46L14.5396 14.95C14.8396 14.67 15.3196 14.69 15.5996 14.99C15.8796 15.3 15.8596 15.77 15.5496 16.05Z" fill="#292D32"/>
</svg>
