<svg width="25" height="24" viewBox="0 0 25 24" fill="none" xmlns="http://www.w3.org/2000/svg">
<path d="M20.6297 8.9599C19.9597 8.2199 18.9497 7.7899 17.5497 7.6399V6.8799C17.5497 5.5099 16.9697 4.1899 15.9497 3.2699C14.9197 2.3299 13.5797 1.8899 12.1897 2.0199C9.79967 2.2499 7.78967 4.5599 7.78967 7.0599V7.6399C6.38967 7.7899 5.37967 8.2199 4.70967 8.9599C3.73967 10.0399 3.76967 11.4799 3.87967 12.4799L4.57967 18.0499C4.78967 19.9999 5.57967 21.9999 9.87967 21.9999H15.4597C19.7597 21.9999 20.5497 19.9999 20.7597 18.0599L21.4597 12.4699C21.5697 11.4799 21.5997 10.0399 20.6297 8.9599ZM12.3297 3.4099C13.3297 3.3199 14.2797 3.6299 15.0197 4.2999C15.7497 4.9599 16.1597 5.8999 16.1597 6.8799V7.5799H9.17967V7.0599C9.17967 5.2799 10.6497 3.5699 12.3297 3.4099ZM12.6697 18.5799C10.5797 18.5799 8.87967 16.8799 8.87967 14.7899C8.87967 12.6999 10.5797 10.9999 12.6697 10.9999C14.7597 10.9999 16.4597 12.6999 16.4597 14.7899C16.4597 16.8799 14.7597 18.5799 12.6697 18.5799Z" fill="#292D32"/>
<path d="M11.6698 16.5801C11.4198 16.5801 11.1698 16.4501 11.0298 16.2201C10.8198 15.8701 10.9298 15.4001 11.2898 15.1901L12.1798 14.6601V13.5801C12.1798 13.1701 12.5198 12.8301 12.9298 12.8301C13.3398 12.8301 13.6698 13.1601 13.6698 13.5801V15.0801C13.6698 15.3401 13.5298 15.5901 13.3098 15.7201L12.0598 16.4701C11.9398 16.5401 11.7998 16.5801 11.6698 16.5801Z" fill="#292D32"/>
</svg>
