<svg width="25" height="24" viewBox="0 0 25 24" fill="none" xmlns="http://www.w3.org/2000/svg">
<path d="M21.0901 9C20.9501 8.99 20.7701 8.98 20.5701 8.98C20.1801 8.98 19.8701 9.29 19.8701 9.68V14.33C19.8701 14.72 20.1801 15.03 20.5701 15.03C20.7701 15.03 20.9401 15.02 21.1101 15.01C22.6701 14.83 22.6701 13.73 22.6701 12.93V11.07C22.6701 10.27 22.6701 9.17 21.0901 9Z" fill="#292D32"/>
<path d="M13.5999 4.78999H8.01992C3.91992 4.78999 2.66992 6.03999 2.66992 10.14V13.86C2.66992 17.96 3.91992 19.21 8.01992 19.21H13.5999C17.6999 19.21 18.9499 17.96 18.9499 13.86V10.14C18.9499 6.03999 17.6999 4.78999 13.5999 4.78999ZM7.76992 14.18C7.68992 14.52 7.37992 14.75 7.03992 14.75C6.97992 14.75 6.91992 14.74 6.85992 14.73C6.45992 14.63 6.20992 14.22 6.30992 13.82C6.60992 12.63 6.60992 11.37 6.30992 10.18C6.20992 9.77999 6.44992 9.36999 6.85992 9.26999C7.26992 9.16999 7.66992 9.41999 7.76992 9.81999C8.12992 11.25 8.12992 12.75 7.76992 14.18ZM11.2699 14.18C11.1899 14.52 10.8799 14.75 10.5399 14.75C10.4799 14.75 10.4199 14.74 10.3599 14.73C9.95992 14.63 9.70992 14.22 9.80992 13.82C10.1099 12.63 10.1099 11.37 9.80992 10.18C9.70992 9.77999 9.94992 9.36999 10.3599 9.26999C10.7599 9.16999 11.1699 9.40999 11.2699 9.81999C11.6299 11.25 11.6299 12.75 11.2699 14.18ZM14.7699 14.18C14.6899 14.52 14.3799 14.75 14.0399 14.75C13.9799 14.75 13.9199 14.74 13.8599 14.73C13.4599 14.63 13.2099 14.22 13.3099 13.82C13.6099 12.63 13.6099 11.37 13.3099 10.18C13.2099 9.77999 13.4499 9.36999 13.8599 9.26999C14.2599 9.16999 14.6699 9.40999 14.7699 9.81999C15.1299 11.25 15.1299 12.75 14.7699 14.18Z" fill="#292D32"/>
</svg>
