<svg width="25" height="24" viewBox="0 0 25 24" fill="none" xmlns="http://www.w3.org/2000/svg">
<path d="M21.0901 9C20.9501 8.99 20.7701 8.98 20.5701 8.98C20.1801 8.98 19.8701 9.29 19.8701 9.68V14.33C19.8701 14.72 20.1801 15.03 20.5701 15.03C20.7701 15.03 20.9401 15.02 21.1101 15.01C22.6701 14.83 22.6701 13.73 22.6701 12.93V11.07C22.6701 10.27 22.6701 9.17 21.0901 9Z" fill="#292D32"/>
<path d="M18.9503 10.14V13.86C18.9503 16.81 16.5503 19.21 13.6003 19.21H9.93032C9.14032 19.21 8.66032 18.34 9.08032 17.68L16.3403 6.2C16.7003 5.63 17.5103 5.58 17.9603 6.09C18.6803 6.92 18.9503 8.21 18.9503 10.14Z" fill="#292D32"/>
<path d="M17.0699 1.86999C16.7199 1.64999 16.2599 1.74999 16.0399 2.09999L14.3299 4.80999C14.0999 4.79999 13.8599 4.78999 13.5999 4.78999H8.01992C3.91992 4.78999 2.66992 6.03999 2.66992 10.14V13.86C2.66992 16.91 3.36992 18.37 5.40992 18.92L4.03992 21.1C3.81992 21.45 3.91992 21.91 4.26992 22.13C4.38992 22.21 4.52992 22.25 4.66992 22.25C4.91992 22.25 5.15992 22.13 5.29992 21.9L17.2999 2.89999C17.5299 2.54999 17.4199 2.08999 17.0699 1.86999Z" fill="#292D32"/>
</svg>
