<svg width="25" height="24" viewBox="0 0 25 24" fill="none" xmlns="http://www.w3.org/2000/svg">
<path d="M9.66992 18.75H3.66992C2.70992 18.75 1.91992 17.96 1.91992 17V7C1.91992 6.04 2.70992 5.25 3.66992 5.25H8.66992C10.7399 5.25 12.4199 6.93 12.4199 9C12.4199 10.03 11.9999 10.96 11.3299 11.64C12.5699 12.25 13.4199 13.53 13.4199 15C13.4199 17.07 11.7399 18.75 9.66992 18.75ZM3.41992 12.75V17C3.41992 17.14 3.52992 17.25 3.66992 17.25H9.66992C10.9099 17.25 11.9199 16.24 11.9199 15C11.9199 13.76 10.9099 12.75 9.66992 12.75H3.41992ZM3.41992 11.25H8.66992C9.90992 11.25 10.9199 10.24 10.9199 9C10.9199 7.76 9.90992 6.75 8.66992 6.75H3.66992C3.52992 6.75 3.41992 6.86 3.41992 7V11.25Z" fill="black"/>
<path d="M20.3399 18.75H18.6699C16.0499 18.75 13.9199 16.62 13.9199 14C13.9199 11.38 16.0499 9.25 18.6699 9.25C21.2899 9.25 23.4199 11.38 23.4199 14C23.4199 14.41 23.0799 14.75 22.6699 14.75H15.5099C15.8499 16.18 17.1399 17.25 18.6699 17.25H20.3399C20.7499 17.25 21.0899 17.59 21.0899 18C21.0899 18.41 20.7499 18.75 20.3399 18.75ZM15.5099 13.25H21.8399C21.4999 11.82 20.2099 10.75 18.6799 10.75C17.1499 10.75 15.8499 11.82 15.5099 13.25Z" fill="black"/>
<path d="M20.1699 8.25H17.1699C16.7599 8.25 16.4199 7.91 16.4199 7.5C16.4199 7.09 16.7599 6.75 17.1699 6.75H20.1699C20.5799 6.75 20.9199 7.09 20.9199 7.5C20.9199 7.91 20.5799 8.25 20.1699 8.25Z" fill="black"/>
</svg>
