<svg width="25" height="24" viewBox="0 0 25 24" fill="none" xmlns="http://www.w3.org/2000/svg">
<path d="M23.6699 15.22C23.2599 15.22 22.9199 15.56 22.9199 15.97C22.9199 18.93 20.8599 21.41 18.0899 22.06L18.3599 21.61C18.5699 21.25 18.4599 20.79 18.0999 20.58C17.7499 20.37 17.2799 20.48 17.0699 20.84L16.0199 22.59C15.8799 22.82 15.8799 23.11 16.0099 23.34C16.1399 23.58 16.3899 23.72 16.6599 23.72C20.9299 23.72 24.4099 20.24 24.4099 15.97C24.4199 15.56 24.0799 15.22 23.6699 15.22Z" fill="#292D32"/>
<path d="M8.66992 0.219971C4.39992 0.219971 0.919922 3.69997 0.919922 7.96997C0.919922 8.37997 1.25992 8.71997 1.66992 8.71997C2.07992 8.71997 2.41992 8.37997 2.41992 7.96997C2.41992 5.00997 4.47992 2.52997 7.24992 1.87997L6.97992 2.32997C6.76992 2.68997 6.87992 3.14997 7.23992 3.35997C7.58992 3.56997 8.05992 3.45997 8.26992 3.09997L9.31992 1.34997C9.44992 1.11997 9.45992 0.839971 9.31992 0.599971C9.18992 0.369971 8.93992 0.219971 8.66992 0.219971Z" fill="#292D32"/>
<path d="M22.1699 8.67C22.1699 11.75 19.9299 14.29 16.9999 14.76C16.9999 14.75 16.9999 14.75 16.9999 14.74C16.7099 11.01 13.6899 7.97 9.90991 7.67C10.3799 4.74 12.9199 2.5 15.9999 2.5C19.4099 2.5 22.1699 5.26 22.1699 8.67Z" fill="#292D32"/>
<path d="M10.48 14.2001C10.48 14.0501 10.31 13.8201 10.1 13.8201H8.04004V14.5701H10.1C10.31 14.5801 10.48 14.4101 10.48 14.2001Z" fill="#292D32"/>
<path d="M10.5 16.0801H10.1H8.04004V16.8301H10.51C10.83 16.8301 11.05 16.6301 11.05 16.4501C11.05 16.2701 10.82 16.0801 10.5 16.0801Z" fill="#292D32"/>
<path d="M15.4999 14.8499C15.2699 11.8199 12.8499 9.3999 9.81992 9.1699C9.65992 9.1599 9.50992 9.1499 9.33992 9.1499C5.92992 9.1499 3.16992 11.9099 3.16992 15.3299C3.16992 18.7399 5.92992 21.4999 9.33992 21.4999C12.7499 21.4999 15.5199 18.7399 15.5199 15.3299C15.5199 15.1599 15.5099 15.0099 15.4999 14.8499ZM10.4999 18.3299H9.83992V18.7099C9.83992 19.1199 9.49992 19.4599 9.08992 19.4599C8.67992 19.4599 8.33992 19.1199 8.33992 18.7099V18.3299H7.28992C6.87992 18.3299 6.53992 17.9899 6.53992 17.5799V15.3299V13.0799C6.53992 12.6699 6.87992 12.3299 7.28992 12.3299H8.33992V11.9499C8.33992 11.5399 8.67992 11.1999 9.08992 11.1999C9.49992 11.1999 9.83992 11.5399 9.83992 11.9499V12.3299H10.0999C11.0999 12.3299 11.9799 13.2099 11.9799 14.2099C11.9799 14.4999 11.9099 14.7699 11.7899 15.0199C12.2499 15.3599 12.5399 15.8799 12.5399 16.4599C12.5399 17.4899 11.6299 18.3299 10.4999 18.3299Z" fill="#292D32"/>
</svg>
