<svg width="25" height="24" viewBox="0 0 25 24" fill="none" xmlns="http://www.w3.org/2000/svg">
<path d="M16.5696 8.07C16.1196 4.64 13.1896 2 9.63965 2C5.76965 2 2.63965 5.13 2.63965 9C2.63965 12.55 5.27965 15.48 8.70965 15.93C9.00965 15.98 9.31965 16 9.63965 16C9.75602 16 9.87089 15.997 9.98483 15.991C10.2052 15.9793 10.2957 15.716 10.1396 15.56C9.84965 15.26 9.84965 14.79 10.1396 14.5C10.4296 14.2 10.9096 14.2 11.1996 14.5L11.9791 15.2795C12.1192 15.4196 12.3296 15.4653 12.5106 15.3847C12.8931 15.2145 13.2549 15.0103 13.596 14.7743C13.8402 14.6053 13.8557 14.2581 13.6446 14.0493L13.1396 13.55C12.8496 13.26 12.8396 12.79 13.1396 12.49C13.4296 12.2 13.8996 12.19 14.1996 12.48L14.7082 12.9829C14.918 13.1904 15.2626 13.1728 15.4306 12.9302C15.6613 12.5969 15.8622 12.2431 16.0272 11.869C16.1065 11.689 16.0602 11.4806 15.9212 11.3415L15.1396 10.56C14.8496 10.26 14.8496 9.79 15.1396 9.5C15.4296 9.2 15.9096 9.2 16.1996 9.5C16.3557 9.65604 16.619 9.56556 16.6306 9.34519C16.6366 9.23124 16.6396 9.11637 16.6396 9C16.6396 8.68 16.6196 8.37 16.5696 8.07Z" fill="#292D32"/>
<path d="M22.6397 15C22.6397 18.87 19.5097 22 15.6397 22C12.7095 22 10.1954 20.2001 9.16128 17.6328C9.03606 17.322 9.30457 17 9.63969 17C9.98969 17 10.3197 16.98 10.6597 16.93L11.1648 16.8627C11.3191 16.8421 11.4743 16.8946 11.5844 17.0048L12.1097 17.53C12.2597 17.68 12.4497 17.75 12.6397 17.75C12.8397 17.75 13.0297 17.68 13.1697 17.53C13.4697 17.24 13.4697 16.76 13.1697 16.47C13.0734 16.3737 13.1036 16.2103 13.2255 16.1496C13.6245 15.9507 14.0333 15.6973 14.4013 15.4238C14.6091 15.2694 14.9008 15.2794 15.085 15.4613L15.5697 15.94C15.7197 16.08 15.9097 16.16 16.0997 16.16C16.2897 16.16 16.4897 16.08 16.6297 15.93C16.9197 15.64 16.9197 15.16 16.6197 14.87L16.1416 14.398C15.9589 14.2175 15.9437 13.9286 16.0951 13.7211C16.3585 13.3598 16.6058 12.9667 16.8025 12.5818C16.8617 12.4659 17.0176 12.438 17.1097 12.53C17.2597 12.68 17.4497 12.75 17.6397 12.75C17.8397 12.75 18.0297 12.68 18.1697 12.53C18.4697 12.24 18.4697 11.76 18.1697 11.47L17.6444 10.9448C17.5343 10.8346 17.4818 10.6795 17.5023 10.5251L17.5697 10.02C17.6197 9.68004 17.6397 9.35004 17.6397 9.00004C17.6397 8.66508 17.9617 8.39682 18.2722 8.52233C20.8321 9.55689 22.6397 12.0705 22.6397 15Z" fill="#292D32"/>
</svg>
