<svg width="25" height="24" viewBox="0 0 25 24" fill="none" xmlns="http://www.w3.org/2000/svg">
<path d="M14.6699 13.25H10.6699C10.2599 13.25 9.91992 13.59 9.91992 14C9.91992 14.41 10.2599 14.75 10.6699 14.75H14.6699C15.0799 14.75 15.4199 14.41 15.4199 14C15.4199 13.59 15.0799 13.25 14.6699 13.25Z" fill="black"/>
<path d="M10.6699 10.75H12.6699C13.0799 10.75 13.4199 10.41 13.4199 10C13.4199 9.59 13.0799 9.25 12.6699 9.25H10.6699C10.2599 9.25 9.91992 9.59 9.91992 10C9.91992 10.41 10.2599 10.75 10.6699 10.75Z" fill="black"/>
<path d="M16.8597 2H8.48969C4.84968 2 2.67969 4.17 2.67969 7.81V16.18C2.67969 19.82 4.84968 21.99 8.48969 21.99H16.8597C20.4997 21.99 22.6697 19.82 22.6697 16.18V7.81C22.6697 4.17 20.4997 2 16.8597 2ZM18.6697 15C18.6697 17 17.6697 18 15.6697 18H9.66968C7.66968 18 6.66968 17 6.66968 15V9C6.66968 7 7.66968 6 9.66968 6H13.6697C15.6697 6 16.6697 7 16.6697 9V10C16.6697 10.55 17.1197 11 17.6697 11C18.2197 11 18.6697 11.45 18.6697 12V15Z" fill="black"/>
</svg>
