<svg width="25" height="24" viewBox="0 0 25 24" fill="none" xmlns="http://www.w3.org/2000/svg">
<path d="M12.9697 17.32L15.2797 15.39L12.9697 13.3V17.32Z" fill="#292D32"/>
<path d="M12.9697 6.67993V10.6399L15.2797 8.51993L12.9697 6.67993Z" fill="#292D32"/>
<path d="M16.8599 2H8.47992C4.83992 2 2.66992 4.17 2.66992 7.81V16.18C2.66992 19.83 4.83992 22 8.47992 22H16.8499C20.4899 22 22.6599 19.83 22.6599 16.19V7.81C22.6699 4.17 20.4999 2 16.8599 2ZM5.91992 12C5.91992 11.24 6.53992 10.62 7.29992 10.62C8.05992 10.62 8.66992 11.24 8.66992 12C8.66992 12.76 8.04992 13.38 7.28992 13.38C6.52992 13.38 5.91992 12.76 5.91992 12ZM16.2399 16.54L13.8299 18.55C13.4199 18.9 13.0399 19 12.7499 19C12.5199 19 12.3399 18.94 12.2399 18.89C12.0099 18.78 11.4699 18.43 11.4699 17.45V14.06L8.56992 16.71C8.26992 16.99 7.78992 16.97 7.50992 16.66C7.22992 16.35 7.24992 15.88 7.55992 15.6L11.4699 12.02V11.94L7.55992 8.4C7.24992 8.12 7.22992 7.65 7.50992 7.34C7.78992 7.04 8.26992 7.01 8.56992 7.29L11.4699 9.94V6.56C11.4699 5.58 12.0099 5.22 12.2399 5.12C12.4699 5.01 13.0899 4.83 13.8399 5.46L16.2499 7.47C16.5799 7.74 16.7699 8.13 16.7799 8.54C16.7899 8.95 16.6199 9.35 16.3099 9.64L13.7099 12L16.2999 14.37C16.6099 14.66 16.7899 15.06 16.7799 15.47C16.7599 15.88 16.5699 16.27 16.2399 16.54ZM18.0499 13.38C17.2899 13.38 16.6699 12.76 16.6699 12C16.6699 11.24 17.2899 10.62 18.0499 10.62C18.8099 10.62 19.4299 11.24 19.4299 12C19.4299 12.76 18.7999 13.38 18.0499 13.38Z" fill="#292D32"/>
</svg>
