<svg width="25" height="24" viewBox="0 0 25 24" fill="none" xmlns="http://www.w3.org/2000/svg">
<path d="M13.6001 10.6399L15.9301 8.50989L13.6001 6.63989V10.6399Z" fill="#292D32"/>
<path d="M16.8599 2H8.47992C4.83992 2 2.66992 4.17 2.66992 7.81V16.18C2.66992 19.83 4.83992 22 8.47992 22H16.8499C20.4899 22 22.6599 19.83 22.6599 16.19V7.81C22.6699 4.17 20.4999 2 16.8599 2ZM16.9399 14.39C17.2499 14.68 17.4299 15.08 17.4199 15.49C17.4099 15.9 17.2199 16.29 16.8899 16.57L14.4699 18.59C14.0499 18.94 13.6699 19.04 13.3799 19.04C13.1499 19.04 12.9699 18.98 12.8699 18.93C12.6399 18.82 12.0999 18.46 12.0999 17.48V14.06L9.17992 16.74C8.87992 17.02 8.39992 17 8.11992 16.69C7.83992 16.38 7.85992 15.91 8.16992 15.63L12.0999 12.03V11.95L8.15992 8.38C7.85992 8.1 7.83992 7.62 8.11992 7.32C8.39992 7.02 8.87992 6.99 9.17992 7.27L12.0999 9.95V6.53C12.0999 5.55 12.6399 5.19 12.8699 5.08C13.0999 4.97 13.7199 4.79 14.4699 5.42L16.8899 7.44C17.2199 7.71 17.4099 8.11 17.4199 8.52C17.4299 8.93 17.2599 9.33 16.9399 9.62L14.3399 12L16.9399 14.39Z" fill="#292D32"/>
<path d="M13.6001 17.36L15.9301 15.41L13.6001 13.3V17.36Z" fill="#292D32"/>
</svg>
