<svg width="25" height="24" viewBox="0 0 25 24" fill="none" xmlns="http://www.w3.org/2000/svg">
<path d="M16.8599 2H8.47992C4.83992 2 2.66992 4.17 2.66992 7.81V16.18C2.66992 19.83 4.83992 22 8.47992 22H16.8499C20.4899 22 22.6599 19.83 22.6599 16.19V7.81C22.6699 4.17 20.4999 2 16.8599 2ZM12.1699 17.25C12.1699 17.61 11.8099 17.85 11.4799 17.71C10.2699 17.19 8.68992 16.71 7.58992 16.57L7.39992 16.55C6.78992 16.47 6.28992 15.9 6.28992 15.28V7.58C6.28992 6.81 6.90992 6.24 7.66992 6.3C8.91992 6.4 10.7699 7 11.9299 7.66C12.0899 7.75 12.1699 7.92 12.1699 8.09V17.25ZM19.0499 15.27C19.0499 15.89 18.5499 16.46 17.9399 16.54L17.7299 16.56C16.6399 16.71 15.0699 17.18 13.8599 17.69C13.5299 17.83 13.1699 17.59 13.1699 17.23V8.08C13.1699 7.9 13.2599 7.73 13.4199 7.64C14.5799 6.99 16.3899 6.41 17.6199 6.3H17.6599C18.4299 6.3 19.0499 6.92 19.0499 7.69V15.27Z" fill="#292D32"/>
</svg>
