<svg width="25" height="24" viewBox="0 0 25 24" fill="none" xmlns="http://www.w3.org/2000/svg">
<path d="M21.1699 16V18.5C21.1699 20.43 19.5999 22 17.6699 22H7.66992C5.73992 22 4.16992 20.43 4.16992 18.5V17.85C4.16992 16.28 5.44992 15 7.01992 15H20.1699C20.7199 15 21.1699 15.45 21.1699 16Z" fill="#292D32"/>
<path d="M16.1699 2H9.16992C5.16992 2 4.16992 3 4.16992 7V14.58C4.92992 13.91 5.92992 13.5 7.01992 13.5H20.1699C20.7199 13.5 21.1699 13.05 21.1699 12.5V7C21.1699 3 20.1699 2 16.1699 2ZM13.6699 10.75H8.66992C8.25992 10.75 7.91992 10.41 7.91992 10C7.91992 9.59 8.25992 9.25 8.66992 9.25H13.6699C14.0799 9.25 14.4199 9.59 14.4199 10C14.4199 10.41 14.0799 10.75 13.6699 10.75ZM16.6699 7.25H8.66992C8.25992 7.25 7.91992 6.91 7.91992 6.5C7.91992 6.09 8.25992 5.75 8.66992 5.75H16.6699C17.0799 5.75 17.4199 6.09 17.4199 6.5C17.4199 6.91 17.0799 7.25 16.6699 7.25Z" fill="#292D32"/>
</svg>
