<svg width="25" height="24" viewBox="0 0 25 24" fill="none" xmlns="http://www.w3.org/2000/svg">
<path d="M18.2709 5.30979L12.6209 2.26979C12.0209 1.94979 11.3109 1.94979 10.7109 2.26979L5.07088 5.30979C4.66088 5.53979 4.40088 5.97978 4.40088 6.45978C4.40088 6.94979 4.65088 7.38979 5.07088 7.60979L10.7209 10.6498C11.0209 10.8098 11.3509 10.8898 11.6709 10.8898C11.9909 10.8898 12.3309 10.8098 12.6209 10.6498L18.2709 7.60979C18.6809 7.38979 18.9409 6.94979 18.9409 6.45978C18.9409 5.97978 18.6809 5.53979 18.2709 5.30979Z" fill="#292D32"/>
<path d="M9.7909 11.7096L4.5409 9.0896C4.1309 8.8796 3.6709 8.9096 3.2809 9.1396C2.9009 9.3796 2.6709 9.7896 2.6709 10.2396V15.1996C2.6709 16.0596 3.1509 16.8296 3.9209 17.2196L9.1709 19.8396C9.3509 19.9296 9.5509 19.9796 9.7509 19.9796C9.9809 19.9796 10.2209 19.9096 10.4309 19.7896C10.8109 19.5496 11.0409 19.1396 11.0409 18.6896V13.7296C11.0309 12.8696 10.5509 12.0996 9.7909 11.7096Z" fill="#292D32"/>
<path d="M20.671 10.2396V12.6996C20.191 12.5596 19.681 12.4996 19.171 12.4996C17.811 12.4996 16.481 12.9696 15.431 13.8096C13.991 14.9396 13.171 16.6496 13.171 18.4996C13.171 18.9896 13.231 19.4796 13.361 19.9496C13.211 19.9296 13.061 19.8696 12.921 19.7796C12.541 19.5496 12.311 19.1396 12.311 18.6896V13.7296C12.311 12.8696 12.791 12.0996 13.551 11.7096L18.801 9.0896C19.211 8.8796 19.671 8.9096 20.061 9.1396C20.441 9.3796 20.671 9.7896 20.671 10.2396Z" fill="#292D32"/>
<path d="M22.6509 15.65C21.8309 14.64 20.5809 14 19.1709 14C18.1109 14 17.1309 14.37 16.3609 14.99C15.3209 15.81 14.6709 17.08 14.6709 18.5C14.6709 19.91 15.3109 21.16 16.3209 21.98C17.0909 22.62 18.0909 23 19.1709 23C20.3109 23 21.3409 22.57 22.1409 21.88C23.0709 21.05 23.6709 19.85 23.6709 18.5C23.6709 17.42 23.2909 16.42 22.6509 15.65ZM20.2009 18.78C20.2009 19.04 20.0609 19.29 19.8409 19.42L18.4309 20.26C18.3109 20.33 18.1809 20.37 18.0409 20.37C17.7909 20.37 17.5409 20.24 17.4009 20.01C17.1909 19.65 17.3009 19.19 17.6609 18.98L18.7009 18.36V17.1C18.7009 16.69 19.0409 16.35 19.4509 16.35C19.8609 16.35 20.2009 16.69 20.2009 17.1V18.78Z" fill="#292D32"/>
</svg>
