<svg width="25" height="24" viewBox="0 0 25 24" fill="none" xmlns="http://www.w3.org/2000/svg">
<path d="M18.2709 5.30979L12.6209 2.26979C12.0209 1.94979 11.3109 1.94979 10.7109 2.26979L5.07088 5.30979C4.66088 5.53979 4.40088 5.97978 4.40088 6.45978C4.40088 6.94979 4.65088 7.38979 5.07088 7.60979L10.7209 10.6498C11.0209 10.8098 11.3509 10.8898 11.6709 10.8898C11.9909 10.8898 12.3309 10.8098 12.6209 10.6498L18.2709 7.60979C18.6809 7.38979 18.9409 6.94979 18.9409 6.45978C18.9409 5.97978 18.6809 5.53979 18.2709 5.30979Z" fill="#292D32"/>
<path d="M9.7909 11.7096L4.5409 9.0896C4.1309 8.8796 3.6709 8.9096 3.2809 9.1396C2.9009 9.3796 2.6709 9.7896 2.6709 10.2396V15.1996C2.6709 16.0596 3.1509 16.8296 3.9209 17.2196L9.1709 19.8396C9.3509 19.9296 9.5509 19.9796 9.7509 19.9796C9.9809 19.9796 10.2209 19.9096 10.4309 19.7896C10.8109 19.5496 11.0409 19.1396 11.0409 18.6896V13.7296C11.0309 12.8696 10.5509 12.0996 9.7909 11.7096Z" fill="#292D32"/>
<path d="M20.671 10.2396V12.6996C20.191 12.5596 19.681 12.4996 19.171 12.4996C17.811 12.4996 16.481 12.9696 15.431 13.8096C13.991 14.9396 13.171 16.6496 13.171 18.4996C13.171 18.9896 13.231 19.4796 13.361 19.9496C13.211 19.9296 13.061 19.8696 12.921 19.7796C12.541 19.5496 12.311 19.1396 12.311 18.6896V13.7296C12.311 12.8696 12.791 12.0996 13.551 11.7096L18.801 9.0896C19.211 8.8796 19.671 8.9096 20.061 9.1396C20.441 9.3796 20.671 9.7896 20.671 10.2396Z" fill="#292D32"/>
<path d="M22.3508 15.3202C21.4608 14.4302 20.2808 13.9802 19.1108 14.0002C17.9808 14.0102 16.8508 14.4602 15.9908 15.3202C15.3908 15.9102 15.0008 16.6502 14.8108 17.4202C14.7008 17.8402 14.6608 18.2702 14.6908 18.7002V18.7502C14.6908 18.8202 14.7008 18.8801 14.7108 18.9601C14.7108 18.9601 14.7108 18.9601 14.7208 18.9701V19.0002C14.8108 19.9802 15.2308 20.9302 15.9908 21.6802C17.1508 22.8402 18.7808 23.2302 20.2508 22.8602C20.6908 22.7502 21.1208 22.5702 21.5208 22.3302C21.8208 22.1602 22.1008 21.9402 22.3508 21.6802C23.1008 20.9302 23.5308 19.9802 23.6208 18.9901C23.6308 18.9901 23.6308 18.9701 23.6308 18.9601C23.6508 18.8901 23.6508 18.8102 23.6508 18.7401C23.6508 18.7301 23.6608 18.7102 23.6608 18.6902C23.7208 17.4802 23.2808 16.2401 22.3508 15.3202ZM20.9008 20.2101C20.6108 20.5001 20.1408 20.5001 19.8408 20.2101L19.1808 19.5501L18.5008 20.2301C18.2008 20.5301 17.7308 20.5301 17.4408 20.2301C17.1408 19.9401 17.1408 19.4702 17.4408 19.1702L18.1208 18.4901L17.4608 17.8302C17.1708 17.5302 17.1708 17.0602 17.4608 16.7702C17.7608 16.4702 18.2308 16.4702 18.5308 16.7702L19.1808 17.4302L19.8108 16.7902C20.1108 16.5002 20.5808 16.5002 20.8808 16.7902C21.1708 17.0902 21.1708 17.5602 20.8808 17.8602L20.2408 18.4901L20.9008 19.1401C21.2008 19.4401 21.2008 19.9101 20.9008 20.2101Z" fill="#292D32"/>
</svg>
