<svg width="25" height="24" viewBox="0 0 25 24" fill="none" xmlns="http://www.w3.org/2000/svg">
<path d="M20.8811 7.81994L13.1811 12.2799C12.8711 12.4599 12.4811 12.4599 12.1611 12.2799L4.46111 7.81994C3.91111 7.49994 3.77111 6.74994 4.19111 6.27994C4.48111 5.94994 4.81111 5.67994 5.16111 5.48994L10.5811 2.48994C11.7411 1.83994 13.6211 1.83994 14.7811 2.48994L20.2011 5.48994C20.5511 5.67994 20.8811 5.95994 21.1711 6.27994C21.5711 6.74994 21.4311 7.49994 20.8811 7.81994Z" fill="#292D32"/>
<path d="M12.1009 14.1399V20.9599C12.1009 21.7199 11.3309 22.2199 10.6509 21.8899C8.59088 20.8799 5.12088 18.9899 5.12088 18.9899C3.90088 18.2999 2.90088 16.5599 2.90088 15.1299V9.96988C2.90088 9.17988 3.73088 8.67988 4.41088 9.06988L11.6009 13.2399C11.9009 13.4299 12.1009 13.7699 12.1009 14.1399Z" fill="#292D32"/>
<path d="M13.2407 14.1399V20.9599C13.2407 21.7199 14.0107 22.2199 14.6907 21.8899C16.7507 20.8799 20.2207 18.9899 20.2207 18.9899C21.4407 18.2999 22.4407 16.5599 22.4407 15.1299V9.96988C22.4407 9.17988 21.6107 8.67988 20.9307 9.06988L13.7407 13.2399C13.4407 13.4299 13.2407 13.7699 13.2407 14.1399Z" fill="#292D32"/>
</svg>
