<svg width="25" height="24" viewBox="0 0 25 24" fill="none" xmlns="http://www.w3.org/2000/svg">
<path d="M9.48997 4.9L8.20997 2.78C7.72997 2 6.77997 1.56 5.88997 1.82C4.54997 2.22 4.02997 3.73 4.69997 4.84L6.01997 7.01C6.16997 7.24 6.47997 7.32 6.70997 7.18L9.31997 5.59C9.55997 5.44 9.63997 5.13 9.48997 4.9Z" fill="#292D32"/>
<path d="M20.4103 14.21L17.6003 10.41C16.6203 9.08999 14.9203 8.46999 13.3203 8.89999C13.3203 8.88999 13.3103 8.88999 13.3103 8.87999L11.6503 6.14999C11.3503 5.67999 10.7303 5.52999 10.2603 5.81999L6.79029 7.92999C6.31029 8.20999 6.16029 8.83999 6.45029 9.31999L8.10029 12.05C8.10029 12.05 8.10029 12.06 8.11029 12.06C7.00029 13.29 6.76029 15.08 7.50029 16.57L9.58029 20.81C10.2203 22.12 11.7303 22.62 13.0103 21.96C13.1103 21.91 13.1403 21.79 13.0803 21.69L11.5203 19.11C11.3003 18.75 11.4103 18.29 11.7703 18.06C12.1303 17.85 12.5903 17.96 12.8203 18.31L14.3903 20.89C14.4503 20.98 14.5703 21.01 14.6603 20.96L15.6203 20.38C15.7103 20.32 15.7403 20.2 15.6903 20.11L14.1203 17.53C13.9103 17.17 14.0203 16.71 14.3703 16.48C14.7403 16.27 15.2003 16.38 15.4203 16.73L16.9903 19.31C17.0503 19.4 17.1703 19.43 17.2603 19.38L18.2203 18.8C18.3103 18.74 18.3403 18.62 18.2903 18.53L16.7203 15.95C16.5103 15.59 16.6203 15.13 16.9703 14.9C17.3403 14.69 17.8003 14.8 18.0203 15.15L19.6003 17.72C19.6603 17.81 19.7803 17.84 19.8703 17.78C21.0303 16.95 21.2903 15.39 20.4103 14.21Z" fill="#292D32"/>
</svg>
