<svg width="25" height="24" viewBox="0 0 25 24" fill="none" xmlns="http://www.w3.org/2000/svg">
<path d="M17.7098 10.6399L10.3598 3.28989L9.48978 2.41989C9.19978 2.12989 8.71978 2.12989 8.42978 2.41989C8.13978 2.70989 8.13978 3.18989 8.42978 3.47989L9.29978 4.34989L3.66978 9.97989C3.02978 10.6199 2.68978 11.2699 2.66978 11.9199C2.64978 12.6099 2.98978 13.2999 3.66978 13.9899L7.67978 17.9999C9.01978 19.3299 10.3598 19.3299 11.6898 17.9999L17.7098 11.9799C17.9098 11.7799 17.9998 11.5099 17.9798 11.2499C17.9698 11.0299 17.8698 10.7999 17.7098 10.6399Z" fill="#292D32"/>
<path d="M16.6699 22.75H3.66992C3.25992 22.75 2.91992 22.41 2.91992 22C2.91992 21.59 3.25992 21.25 3.66992 21.25H16.6699C17.0799 21.25 17.4199 21.59 17.4199 22C17.4199 22.41 17.0799 22.75 16.6699 22.75Z" fill="#292D32"/>
<path d="M20.0199 14.7801C19.7599 14.5001 19.2799 14.5001 19.0199 14.7801C18.7099 15.1201 17.1699 16.8501 17.1699 18.1701C17.1699 19.4701 18.2199 20.5201 19.5199 20.5201C20.8199 20.5201 21.8699 19.4701 21.8699 18.1701C21.8699 16.8601 20.3299 15.1201 20.0199 14.7801Z" fill="#292D32"/>
</svg>
