<svg width="25" height="24" viewBox="0 0 25 24" fill="none" xmlns="http://www.w3.org/2000/svg">
<path d="M16.8599 2H8.47992C4.83992 2 2.66992 4.17 2.66992 7.81V16.18C2.66992 19.83 4.83992 22 8.47992 22H16.8499C20.4899 22 22.6599 19.83 22.6599 16.19V7.81C22.6699 4.17 20.4999 2 16.8599 2ZM9.72992 16.25L7.16992 13.68C6.72992 13.24 6.51992 12.8 6.52992 12.35C6.53992 11.93 6.75992 11.52 7.16992 11.11L10.7699 7.51L10.2099 6.96C10.0199 6.77 10.0199 6.47 10.2099 6.28C10.3999 6.09 10.6999 6.09 10.8899 6.28L11.4399 6.83L16.1399 11.53C16.2399 11.63 16.3099 11.78 16.3099 11.92C16.3199 12.09 16.2699 12.26 16.1399 12.39L12.2899 16.24C11.4499 17.1 10.5899 17.1 9.72992 16.25ZM17.3099 17.86C16.4799 17.86 15.8099 17.19 15.8099 16.36C15.8099 15.52 16.7999 14.41 16.9999 14.19C17.1599 14.01 17.4699 14.01 17.6399 14.19C17.8399 14.4 18.8299 15.52 18.8299 16.36C18.8099 17.19 18.1399 17.86 17.3099 17.86Z" fill="#292D32"/>
</svg>
