<svg width="25" height="24" viewBox="0 0 25 24" fill="none" xmlns="http://www.w3.org/2000/svg">
<path d="M11.4196 4.63986L6.98965 2.44986C4.59965 1.27986 2.63965 2.46986 2.63965 5.08986V19.9299C2.63965 21.0699 3.58965 21.9999 4.74965 21.9999H12.1696C12.7196 21.9999 13.1696 21.5499 13.1696 20.9999V7.40986C13.1696 6.35986 12.3796 5.10986 11.4196 4.63986ZM9.63965 13.7499H6.16965C5.75965 13.7499 5.41965 13.4099 5.41965 12.9999C5.41965 12.5899 5.75965 12.2499 6.16965 12.2499H9.63965C10.0496 12.2499 10.3896 12.5899 10.3896 12.9999C10.3896 13.4099 10.0596 13.7499 9.63965 13.7499ZM9.63965 9.74986H6.16965C5.75965 9.74986 5.41965 9.40986 5.41965 8.99986C5.41965 8.58986 5.75965 8.24986 6.16965 8.24986H9.63965C10.0496 8.24986 10.3896 8.58986 10.3896 8.99986C10.3896 9.40986 10.0596 9.74986 9.63965 9.74986Z" fill="#292D32"/>
<path d="M22.6699 18.04V19.5C22.6699 20.88 21.5499 22 20.1699 22H15.6399C15.0999 22 14.6699 21.57 14.6699 21.03V18.87C15.7399 19 16.8699 18.69 17.6799 18.04C18.3599 18.59 19.2299 18.92 20.1799 18.92C21.1099 18.92 21.9799 18.59 22.6699 18.04Z" fill="#292D32"/>
<path d="M22.6699 15.05V15.06C22.5899 16.37 21.5199 17.42 20.1799 17.42C18.7899 17.42 17.6799 16.29 17.6799 14.92C17.6799 16.45 16.2699 17.68 14.6699 17.37V12C14.6699 11.36 15.2599 10.88 15.8899 11.02L17.6799 11.42L18.1599 11.53L20.1999 11.99C20.6899 12.09 21.1399 12.26 21.5299 12.51C21.5299 12.52 21.5399 12.52 21.5399 12.52C21.6399 12.59 21.7399 12.67 21.8299 12.76C22.2899 13.22 22.5899 13.89 22.6599 14.87C22.6599 14.93 22.6699 14.99 22.6699 15.05Z" fill="#292D32"/>
</svg>
