<svg width="25" height="24" viewBox="0 0 25 24" fill="none" xmlns="http://www.w3.org/2000/svg">
<path d="M11.2699 4.15C11.2699 4.34 11.1099 4.5 10.9199 4.5H9.78992C7.62992 4.5 5.86992 6.26 5.86992 8.42V17.65C5.86992 17.84 5.70992 18 5.51992 18H4.81992C3.62992 18 2.66992 17.04 2.66992 15.85V4.15C2.66992 2.96 3.62992 2 4.81992 2H9.11992C10.3099 2 11.2699 2.96 11.2699 4.15Z" fill="#292D32"/>
<path d="M22.6698 4.15V15.85C22.6698 17.04 21.7098 18 20.5198 18H19.8898C19.6998 18 19.5398 17.84 19.5398 17.65V8.42C19.5398 6.26 17.7798 4.5 15.6198 4.5H14.4198C14.2298 4.5 14.0698 4.34 14.0698 4.15C14.0698 2.96 15.0298 2 16.2198 2H20.5198C21.7098 2 22.6698 2.96 22.6698 4.15Z" fill="#292D32"/>
<path d="M15.6201 6H9.79012C8.45012 6 7.37012 7.08 7.37012 8.42V19.58C7.37012 20.92 8.45012 22 9.79012 22H11.4201C11.7001 22 11.9201 21.78 11.9201 21.5V19C11.9201 18.59 12.2601 18.25 12.6701 18.25C13.0801 18.25 13.4201 18.59 13.4201 19V21.5C13.4201 21.78 13.6401 22 13.9201 22H15.6301C16.9601 22 18.0401 20.92 18.0401 19.59V8.42C18.0401 7.08 16.9601 6 15.6201 6ZM14.6701 14.75H10.6701C10.2601 14.75 9.92012 14.41 9.92012 14C9.92012 13.59 10.2601 13.25 10.6701 13.25H14.6701C15.0801 13.25 15.4201 13.59 15.4201 14C15.4201 14.41 15.0801 14.75 14.6701 14.75ZM14.6701 11.75H10.6701C10.2601 11.75 9.92012 11.41 9.92012 11C9.92012 10.59 10.2601 10.25 10.6701 10.25H14.6701C15.0801 10.25 15.4201 10.59 15.4201 11C15.4201 11.41 15.0801 11.75 14.6701 11.75Z" fill="#292D32"/>
</svg>
