<svg width="25" height="24" viewBox="0 0 25 24" fill="none" xmlns="http://www.w3.org/2000/svg">
<path d="M4.66992 13.5V18.9C4.66992 20.6 6.05992 22 7.76992 22H17.5699C19.2699 22 20.6699 20.61 20.6699 18.9V13.5C20.6699 13.22 20.4499 13 20.1699 13H5.16992C4.88992 13 4.66992 13.22 4.66992 13.5ZM9.54992 18.38C9.31992 18.62 8.99992 18.75 8.66992 18.75C8.58992 18.75 8.50992 18.74 8.42992 18.73C8.34992 18.71 8.26992 18.69 8.18992 18.65C8.11992 18.62 8.03992 18.58 7.97992 18.54C7.90992 18.49 7.83992 18.44 7.78992 18.38C7.54992 18.15 7.41992 17.83 7.41992 17.5C7.41992 17.17 7.54992 16.85 7.78992 16.62C7.83992 16.56 7.90992 16.51 7.97992 16.46C8.03992 16.42 8.11992 16.38 8.18992 16.35C8.26992 16.31 8.34992 16.29 8.42992 16.27C8.82992 16.19 9.25992 16.33 9.54992 16.62C9.78992 16.85 9.91992 17.17 9.91992 17.5C9.91992 17.83 9.78992 18.15 9.54992 18.38ZM17.5499 18.38C17.4999 18.44 17.4299 18.49 17.3599 18.54C17.2999 18.58 17.2199 18.62 17.1499 18.65C17.0699 18.69 16.9899 18.71 16.9199 18.73C16.8299 18.74 16.7499 18.75 16.6699 18.75C16.5899 18.75 16.5099 18.74 16.4299 18.73C16.3499 18.71 16.2699 18.69 16.1899 18.65C16.1199 18.62 16.0399 18.58 15.9799 18.54C15.9099 18.49 15.8399 18.44 15.7899 18.38C15.5499 18.15 15.4199 17.83 15.4199 17.5C15.4199 17.17 15.5499 16.85 15.7899 16.62C15.8399 16.56 15.9099 16.51 15.9799 16.46C16.0399 16.42 16.1199 16.38 16.1899 16.35C16.2699 16.31 16.3499 16.29 16.4299 16.27C16.5899 16.24 16.7499 16.24 16.9199 16.27C16.9899 16.29 17.0699 16.31 17.1499 16.35C17.2199 16.38 17.2999 16.42 17.3599 16.46C17.4299 16.51 17.4999 16.56 17.5499 16.62C17.7899 16.85 17.9199 17.17 17.9199 17.5C17.9199 17.83 17.7899 18.15 17.5499 18.38Z" fill="#292D32"/>
<path d="M17.5699 2H7.76992C6.05992 2 4.66992 3.39 4.66992 5.1V7.5C4.66992 7.78 4.88992 8 5.16992 8H20.1699C20.4499 8 20.6699 7.78 20.6699 7.5V5.1C20.6699 3.39 19.2799 2 17.5699 2ZM15.1699 5.75H10.1699C9.75992 5.75 9.41992 5.41 9.41992 5C9.41992 4.59 9.75992 4.25 10.1699 4.25H15.1699C15.5799 4.25 15.9199 4.59 15.9199 5C15.9199 5.41 15.5799 5.75 15.1699 5.75Z" fill="#292D32"/>
<path d="M20.1699 12H5.16992C4.88992 12 4.66992 11.78 4.66992 11.5V9.5C4.66992 9.22 4.88992 9 5.16992 9H20.1699C20.4499 9 20.6699 9.22 20.6699 9.5V11.5C20.6699 11.78 20.4499 12 20.1699 12Z" fill="#292D32"/>
</svg>
