<svg width="25" height="24" viewBox="0 0 25 24" fill="none" xmlns="http://www.w3.org/2000/svg">
<path d="M21.5603 13V14H20.6903C19.9503 14 19.3503 14.6 19.3503 15.35V15.65C19.3503 16.4 18.7503 17 18.0003 17C17.2603 17 16.6603 16.4 16.6603 15.65V15.35C16.6603 14.6 16.0503 14 15.3103 14C14.5703 14 13.9703 14.6 13.9703 15.35V15.65C13.9703 16.4 13.3603 17 12.6203 17C11.8803 17 11.2703 16.4 11.2703 15.65V15.35C11.2703 14.6 10.6703 14 9.93027 14C9.19027 14 8.58027 14.6 8.58027 15.35V15.65C8.58027 16.4 7.98027 17 7.24027 17C6.49027 17 5.89027 16.4 5.89027 15.65V15.33C5.89027 14.59 5.30027 13.99 4.57027 13.98H3.78027V13C3.78027 11.62 4.82027 10.45 6.23027 10.11C6.51027 10.04 6.80027 10 7.11027 10H18.2303C18.5403 10 18.8303 10.04 19.1103 10.11C20.5203 10.45 21.5603 11.62 21.5603 13Z" fill="#292D32"/>
<path d="M19.1095 7.17V8.58C18.8195 8.52 18.5295 8.5 18.2295 8.5H7.10949C6.80949 8.5 6.51949 8.53 6.22949 8.59V7.17C6.22949 5.97 7.30949 5 8.64949 5H16.6895C18.0295 5 19.1095 5.97 19.1095 7.17Z" fill="#292D32"/>
<path d="M9.41992 3.54999V5.00999H8.64992C8.38992 5.00999 8.14992 5.03999 7.91992 5.09999V3.54999C7.91992 3.19999 8.25992 2.89999 8.66992 2.89999C9.07992 2.89999 9.41992 3.19999 9.41992 3.54999Z" fill="#292D32"/>
<path d="M17.4199 3.33V5.1C17.1899 5.03 16.9499 5 16.6899 5H15.9199V3.33C15.9199 2.92 16.2599 2.58 16.6699 2.58C17.0799 2.58 17.4199 2.92 17.4199 3.33Z" fill="#292D32"/>
<path d="M13.4199 2.82V5H11.9199V2.82C11.9199 2.37 12.2599 2 12.6699 2C13.0799 2 13.4199 2.37 13.4199 2.82Z" fill="#292D32"/>
<path d="M22.6699 21.25C22.6699 21.66 22.3299 22 21.9199 22H3.41992C3.00992 22 2.66992 21.66 2.66992 21.25C2.66992 20.84 3.00992 20.5 3.41992 20.5H3.77992V15.48H4.38992V15.55C4.38992 16.89 5.26992 18.13 6.57992 18.42C7.59992 18.66 8.56992 18.33 9.22992 17.68C9.60992 17.3 10.2299 17.29 10.6099 17.67C11.1299 18.18 11.8399 18.5 12.6199 18.5C13.3999 18.5 14.1099 18.19 14.6299 17.67C15.0099 17.3 15.6199 17.3 16.0099 17.68C16.6599 18.33 17.6299 18.66 18.6599 18.42C19.9699 18.13 20.8499 16.89 20.8499 15.55V15.5H21.5599V20.5H21.9199C22.3299 20.5 22.6699 20.84 22.6699 21.25Z" fill="#292D32"/>
</svg>
