<svg width="25" height="24" viewBox="0 0 25 24" fill="none" xmlns="http://www.w3.org/2000/svg">
<path d="M12.6699 2C7.14992 2 2.66992 6.48 2.66992 12C2.66992 17.52 7.14992 22 12.6699 22C18.1899 22 22.6699 17.52 22.6699 12C22.6699 6.48 18.1899 2 12.6699 2ZM7.51992 9.44C7.93992 8.47 8.72992 7.72 9.81992 7.38V6.58C9.81992 6.17 10.1599 5.83 10.5699 5.83C10.9799 5.83 11.3199 6.17 11.3199 6.58V7.17H14.0299V6.58C14.0299 6.17 14.3699 5.83 14.7799 5.83C15.1899 5.83 15.5299 6.17 15.5299 6.58V7.37C16.6199 7.71 17.4099 8.46 17.8299 9.43C17.9699 9.76 17.7299 10.14 17.3699 10.14H7.97992C7.61992 10.14 7.37992 9.77 7.51992 9.44ZM18.1699 14.17C18.1699 16.37 16.6699 18.17 14.1699 18.17H11.1699C8.66992 18.17 7.16992 16.37 7.16992 14.17V11.64C7.16992 11.36 7.38992 11.14 7.66992 11.14H17.6699C17.9499 11.14 18.1699 11.36 18.1699 11.64V14.17Z" fill="#292D32"/>
</svg>
