<svg width="25" height="24" viewBox="0 0 25 24" fill="none" xmlns="http://www.w3.org/2000/svg">
<path d="M17.4202 3.56V2C17.4202 1.59 17.0802 1.25 16.6702 1.25C16.2602 1.25 15.9202 1.59 15.9202 2V3.5H9.42015V2C9.42015 1.59 9.08015 1.25 8.67015 1.25C8.26015 1.25 7.92015 1.59 7.92015 2V3.56C5.22015 3.81 3.91015 5.42 3.71015 7.81C3.69015 8.1 3.93015 8.34 4.21015 8.34H21.1301C21.4202 8.34 21.6602 8.09 21.6301 7.81C21.4301 5.42 20.1202 3.81 17.4202 3.56Z" fill="#292D32"/>
<path d="M20.6699 9.84009H4.66992C4.11992 9.84009 3.66992 10.2901 3.66992 10.8401V17.0001C3.66992 20.0001 5.16992 22.0001 8.66992 22.0001H13.5999C14.2899 22.0001 14.7699 21.3301 14.5499 20.6801C14.3499 20.1001 14.1799 19.4601 14.1799 19.0001C14.1799 15.9701 16.6499 13.5001 19.6799 13.5001C19.9699 13.5001 20.2599 13.5201 20.5399 13.5701C21.1399 13.6601 21.6799 13.1901 21.6799 12.5901V10.8501C21.6699 10.2901 21.2199 9.84009 20.6699 9.84009ZM9.87992 17.7101C9.68992 17.8901 9.42992 18.0001 9.16992 18.0001C9.03992 18.0001 8.90992 17.9701 8.78992 17.9201C8.66992 17.8701 8.55992 17.8001 8.45992 17.7101C8.27992 17.5201 8.16992 17.2701 8.16992 17.0001C8.16992 16.8701 8.19992 16.7401 8.24992 16.6201C8.29992 16.4901 8.36992 16.3901 8.45992 16.2901C8.55992 16.2001 8.66992 16.1301 8.78992 16.0801C9.14992 15.9201 9.59992 16.0101 9.87992 16.2901C9.96992 16.3901 10.0399 16.4901 10.0899 16.6201C10.1399 16.7401 10.1699 16.8701 10.1699 17.0001C10.1699 17.2701 10.0599 17.5201 9.87992 17.7101ZM9.87992 14.2101C9.68992 14.3901 9.42992 14.5001 9.16992 14.5001C9.03992 14.5001 8.90992 14.4801 8.78992 14.4201C8.66992 14.3701 8.55992 14.3001 8.45992 14.2101C8.27992 14.0201 8.16992 13.7601 8.16992 13.5001C8.16992 13.3701 8.19992 13.2401 8.24992 13.1201C8.29992 13.0001 8.36992 12.8901 8.45992 12.7901C8.55992 12.7001 8.66992 12.6301 8.78992 12.5801C9.14992 12.4301 9.59992 12.5101 9.87992 12.7901C9.96992 12.8901 10.0399 13.0001 10.0899 13.1201C10.1399 13.2401 10.1699 13.3701 10.1699 13.5001C10.1699 13.7601 10.0599 14.0201 9.87992 14.2101ZM13.5899 13.8801C13.5399 14.0001 13.4699 14.1101 13.3799 14.2101C13.2799 14.3001 13.1699 14.3701 13.0499 14.4201C12.9299 14.4801 12.7999 14.5001 12.6699 14.5001C12.4099 14.5001 12.1499 14.3901 11.9599 14.2101C11.8699 14.1101 11.7999 14.0001 11.7499 13.8801C11.6999 13.7601 11.6699 13.6301 11.6699 13.5001C11.6699 13.2401 11.7799 12.9801 11.9599 12.7901C12.2399 12.5101 12.6799 12.4201 13.0499 12.5801C13.1699 12.6301 13.2799 12.7001 13.3799 12.7901C13.5599 12.9801 13.6699 13.2401 13.6699 13.5001C13.6699 13.6301 13.6499 13.7601 13.5899 13.8801Z" fill="#292D32"/>
<path d="M19.6699 15C17.4599 15 15.6699 16.79 15.6699 19C15.6699 21.21 17.4599 23 19.6699 23C21.8799 23 23.6699 21.21 23.6699 19C23.6699 16.79 21.8799 15 19.6699 15ZM21.2699 20.64C21.1199 20.79 20.9299 20.86 20.7399 20.86C20.5499 20.86 20.3599 20.79 20.2099 20.64L19.6799 20.11L19.1299 20.66C18.9799 20.81 18.7899 20.88 18.5999 20.88C18.4099 20.88 18.2199 20.81 18.0699 20.66C17.7799 20.37 17.7799 19.89 18.0699 19.6L18.6199 19.05L18.0899 18.52C17.7999 18.23 17.7999 17.75 18.0899 17.46C18.3799 17.17 18.8599 17.17 19.1499 17.46L19.6799 18L20.1799 17.5C20.4699 17.21 20.9499 17.21 21.2399 17.5C21.5299 17.79 21.5299 18.27 21.2399 18.56L20.7399 19.06L21.2699 19.59C21.5599 19.88 21.5599 20.35 21.2699 20.64Z" fill="#292D32"/>
</svg>
