<svg width="25" height="24" viewBox="0 0 25 24" fill="none" xmlns="http://www.w3.org/2000/svg">
<path d="M17.4202 3.56V2C17.4202 1.59 17.0802 1.25 16.6702 1.25C16.2602 1.25 15.9202 1.59 15.9202 2V3.5H9.42015V2C9.42015 1.59 9.08015 1.25 8.67015 1.25C8.26015 1.25 7.92015 1.59 7.92015 2V3.56C5.22015 3.81 3.91015 5.42 3.71015 7.81C3.69015 8.1 3.93015 8.34 4.21015 8.34H21.1301C21.4202 8.34 21.6602 8.09 21.6301 7.81C21.4301 5.42 20.1202 3.81 17.4202 3.56Z" fill="#292D32"/>
<path d="M19.6699 15C17.4599 15 15.6699 16.79 15.6699 19C15.6699 19.75 15.8799 20.46 16.2499 21.06C16.9399 22.22 18.2099 23 19.6699 23C21.1299 23 22.3999 22.22 23.0899 21.06C23.4599 20.46 23.6699 19.75 23.6699 19C23.6699 16.79 21.8799 15 19.6699 15ZM21.7399 18.57L19.6099 20.54C19.4699 20.67 19.2799 20.74 19.0999 20.74C18.9099 20.74 18.7199 20.67 18.5699 20.52L17.5799 19.53C17.2899 19.24 17.2899 18.76 17.5799 18.47C17.8699 18.18 18.3499 18.18 18.6399 18.47L19.1199 18.95L20.7199 17.47C21.0199 17.19 21.4999 17.21 21.7799 17.51C22.0599 17.81 22.0399 18.28 21.7399 18.57Z" fill="#292D32"/>
<path d="M20.6699 9.84009H4.66992C4.11992 9.84009 3.66992 10.2901 3.66992 10.8401V17.0001C3.66992 20.0001 5.16992 22.0001 8.66992 22.0001H13.5999C14.2899 22.0001 14.7699 21.3301 14.5499 20.6801C14.3499 20.1001 14.1799 19.4601 14.1799 19.0001C14.1799 15.9701 16.6499 13.5001 19.6799 13.5001C19.9699 13.5001 20.2599 13.5201 20.5399 13.5701C21.1399 13.6601 21.6799 13.1901 21.6799 12.5901V10.8501C21.6699 10.2901 21.2199 9.84009 20.6699 9.84009ZM9.87992 18.2101C9.68992 18.3901 9.42992 18.5001 9.16992 18.5001C8.90992 18.5001 8.64992 18.3901 8.45992 18.2101C8.27992 18.0201 8.16992 17.7601 8.16992 17.5001C8.16992 17.2401 8.27992 16.9801 8.45992 16.7901C8.55992 16.7001 8.65992 16.6301 8.78992 16.5801C9.15992 16.4201 9.59992 16.5101 9.87992 16.7901C10.0599 16.9801 10.1699 17.2401 10.1699 17.5001C10.1699 17.7601 10.0599 18.0201 9.87992 18.2101ZM9.87992 14.7101C9.82992 14.7501 9.77992 14.7901 9.72992 14.8301C9.66992 14.8701 9.60992 14.9001 9.54992 14.9201C9.48992 14.9501 9.42992 14.9701 9.36992 14.9801C9.29992 14.9901 9.22992 15.0001 9.16992 15.0001C8.90992 15.0001 8.64992 14.8901 8.45992 14.7101C8.27992 14.5201 8.16992 14.2601 8.16992 14.0001C8.16992 13.7401 8.27992 13.4801 8.45992 13.2901C8.68992 13.0601 9.03992 12.9501 9.36992 13.0201C9.42992 13.0301 9.48992 13.0501 9.54992 13.0801C9.60992 13.1001 9.66992 13.1301 9.72992 13.1701C9.77992 13.2101 9.82992 13.2501 9.87992 13.2901C10.0599 13.4801 10.1699 13.7401 10.1699 14.0001C10.1699 14.2601 10.0599 14.5201 9.87992 14.7101ZM13.3799 14.7101C13.1899 14.8901 12.9299 15.0001 12.6699 15.0001C12.4099 15.0001 12.1499 14.8901 11.9599 14.7101C11.7799 14.5201 11.6699 14.2601 11.6699 14.0001C11.6699 13.7401 11.7799 13.4801 11.9599 13.2901C12.3399 12.9201 13.0099 12.9201 13.3799 13.2901C13.5599 13.4801 13.6699 13.7401 13.6699 14.0001C13.6699 14.2601 13.5599 14.5201 13.3799 14.7101Z" fill="#292D32"/>
</svg>
