<svg width="25" height="24" viewBox="0 0 25 24" fill="none" xmlns="http://www.w3.org/2000/svg">
<path d="M22.4398 2.23C22.1398 1.93 21.6498 1.93 21.3498 2.23L2.8998 20.69C2.5998 20.99 2.5998 21.48 2.8998 21.78C3.0498 21.92 3.2398 22 3.4398 22C3.6398 22 3.8298 21.92 3.9798 21.77L22.4398 3.31C22.7498 3.01 22.7498 2.53 22.4398 2.23Z" fill="#292D32"/>
<path d="M17.2201 5.11L16.5001 3.66C16.0401 2.75 14.8401 2 13.8201 2H11.5301C10.5001 2 9.30009 2.75 8.84009 3.66L8.12009 5.11C7.84009 5.65 7.28009 6 6.67009 6C4.50009 6 2.78009 7.83 2.92009 9.99L3.44009 18.25C3.49009 19.1 3.70009 19.89 4.15009 20.52L18.6701 6C18.0601 6 17.5001 5.65 17.2201 5.11ZM10.1701 10.75H7.17009C6.76009 10.75 6.42009 10.41 6.42009 10C6.42009 9.59 6.76009 9.25 7.17009 9.25H10.1701C10.5801 9.25 10.9201 9.59 10.9201 10C10.9201 10.41 10.5801 10.75 10.1701 10.75Z" fill="#292D32"/>
<path d="M22.4202 9.99L21.9002 18.25C21.7702 20.31 20.6702 22 17.9102 22H8.08018C7.19018 22 6.74018 20.92 7.37018 20.29L9.84018 17.82C10.1502 17.51 10.6302 17.47 11.0202 17.69C11.7102 18.08 12.5402 18.23 13.4202 18.04C14.6902 17.77 15.7202 16.73 15.9702 15.45C16.1402 14.59 15.9902 13.78 15.6102 13.11C15.3902 12.72 15.4202 12.23 15.7402 11.92L20.2402 7.42C20.6502 7.01 21.3402 7.06 21.6902 7.53C22.2102 8.21 22.4802 9.07 22.4202 9.99Z" fill="#292D32"/>
</svg>
