<svg width="25" height="24" viewBox="0 0 25 24" fill="none" xmlns="http://www.w3.org/2000/svg">
<path d="M19.9419 3.65002L14.8419 8.75002H3.87188C3.21188 8.75002 2.67188 8.21002 2.67188 7.55002V7.54002C2.67188 5.25002 4.52187 3.40002 6.81187 3.40002H18.5219C19.0219 3.40002 19.5019 3.49002 19.9419 3.65002Z" fill="#292D32"/>
<path d="M13.3419 10.25L7.84188 15.75H6.67188C6.26187 15.75 5.92188 16.09 5.92188 16.5C5.92188 16.81 6.12188 17.09 6.40188 17.19L4.05188 19.54C3.20188 18.79 2.67188 17.69 2.67188 16.46V11.45C2.67188 10.79 3.21188 10.25 3.87188 10.25H13.3419Z" fill="#292D32"/>
<path d="M22.6716 11V16.46C22.6716 18.75 20.8216 20.6 18.5316 20.6H9.48155C8.59155 20.6 8.14155 19.52 8.77155 18.89L10.1216 17.54C10.3116 17.35 10.5616 17.25 10.8316 17.25H15.1716C15.5816 17.25 15.9216 16.91 15.9216 16.5C15.9216 16.09 15.5816 15.75 15.1716 15.75H14.3316C13.4416 15.75 12.9915 14.67 13.6216 14.04L17.0816 10.58C17.4616 10.21 17.9716 10 18.5016 10H21.6716C22.2216 10 22.6716 10.45 22.6716 11Z" fill="#292D32"/>
<path d="M22.4418 2.23C22.1418 1.93 21.6518 1.93 21.3518 2.23L2.90176 20.69C2.60176 20.99 2.60176 21.48 2.90176 21.78C3.05176 21.92 3.24176 22 3.44176 22C3.64176 22 3.83176 21.92 3.98176 21.77L22.4418 3.31C22.7518 3.01 22.7518 2.53 22.4418 2.23Z" fill="#292D32"/>
<path d="M22.4414 3.31006L21.2814 4.47006L17.0014 8.75006L3.98145 21.7701C3.83145 21.9201 3.64145 22.0001 3.44145 22.0001C3.24145 22.0001 3.05145 21.9201 2.90145 21.7701C2.59145 21.4701 2.59145 20.9901 2.90145 20.6901L4.05145 19.5401L6.40145 17.1901L19.9414 3.65006L21.3614 2.23006C21.6614 1.92006 22.1414 1.92006 22.4414 2.23006C22.7514 2.53006 22.7514 3.01006 22.4414 3.31006Z" fill="#292D32"/>
<path d="M22.6714 7.41002C22.6714 6.52002 21.5914 6.07002 20.9614 6.70002L20.6714 7.00002L20.3814 7.29002C19.7514 7.92002 20.1914 9.00002 21.0814 9.00002H21.6714C22.2214 9.00002 22.6714 8.55002 22.6714 8.00002V7.41002Z" fill="#292D32"/>
</svg>
