<svg width="25" height="24" viewBox="0 0 25 24" fill="none" xmlns="http://www.w3.org/2000/svg">
<path d="M17.8203 10C18.3726 10 18.8203 9.55228 18.8203 9C18.8203 8.44772 18.3726 8 17.8203 8C17.268 8 16.8203 8.44772 16.8203 9C16.8203 9.55228 17.268 10 17.8203 10Z" fill="black"/>
<path d="M17.8203 16C18.3726 16 18.8203 15.5523 18.8203 15C18.8203 14.4477 18.3726 14 17.8203 14C17.268 14 16.8203 14.4477 16.8203 15C16.8203 15.5523 17.268 16 17.8203 16Z" fill="black"/>
<path d="M20.4199 13C20.9722 13 21.4199 12.5523 21.4199 12C21.4199 11.4477 20.9722 11 20.4199 11C19.8676 11 19.4199 11.4477 19.4199 12C19.4199 12.5523 19.8676 13 20.4199 13Z" fill="black"/>
<path d="M7.47021 10C8.0225 10 8.47021 9.55228 8.47021 9C8.47021 8.44772 8.0225 8 7.47021 8C6.91793 8 6.47021 8.44772 6.47021 9C6.47021 9.55228 6.91793 10 7.47021 10Z" fill="black"/>
<path d="M7.47021 16C8.0225 16 8.47021 15.5523 8.47021 15C8.47021 14.4477 8.0225 14 7.47021 14C6.91793 14 6.47021 14.4477 6.47021 15C6.47021 15.5523 6.91793 16 7.47021 16Z" fill="black"/>
<path d="M4.87012 13C5.4224 13 5.87012 12.5523 5.87012 12C5.87012 11.4477 5.4224 11 4.87012 11C4.31783 11 3.87012 11.4477 3.87012 12C3.87012 12.5523 4.31783 13 4.87012 13Z" fill="black"/>
<path d="M16.5703 6.2C17.1226 6.2 17.5703 5.75228 17.5703 5.2C17.5703 4.64771 17.1226 4.2 16.5703 4.2C16.018 4.2 15.5703 4.64771 15.5703 5.2C15.5703 5.75228 16.018 6.2 16.5703 6.2Z" fill="black"/>
<path d="M8.77002 6.2C9.3223 6.2 9.77002 5.75228 9.77002 5.2C9.77002 4.64771 9.3223 4.2 8.77002 4.2C8.21773 4.2 7.77002 4.64771 7.77002 5.2C7.77002 5.75228 8.21773 6.2 8.77002 6.2Z" fill="black"/>
<path d="M12.7202 7C13.2725 7 13.7202 6.55228 13.7202 6C13.7202 5.44772 13.2725 5 12.7202 5C12.1679 5 11.7202 5.44772 11.7202 6C11.7202 6.55228 12.1679 7 12.7202 7Z" fill="black"/>
<path d="M16.5703 20C17.1226 20 17.5703 19.5523 17.5703 19C17.5703 18.4477 17.1226 18 16.5703 18C16.018 18 15.5703 18.4477 15.5703 19C15.5703 19.5523 16.018 20 16.5703 20Z" fill="black"/>
<path d="M8.77002 20C9.3223 20 9.77002 19.5523 9.77002 19C9.77002 18.4477 9.3223 18 8.77002 18C8.21773 18 7.77002 18.4477 7.77002 19C7.77002 19.5523 8.21773 20 8.77002 20Z" fill="black"/>
<path d="M12.7202 19.2C13.2725 19.2 13.7202 18.7523 13.7202 18.2C13.7202 17.6477 13.2725 17.2 12.7202 17.2C12.1679 17.2 11.7202 17.6477 11.7202 18.2C11.7202 18.7523 12.1679 19.2 12.7202 19.2Z" fill="black"/>
<path d="M14.4199 10.25C15.1103 10.25 15.6699 9.69036 15.6699 9C15.6699 8.30964 15.1103 7.75 14.4199 7.75C13.7296 7.75 13.1699 8.30964 13.1699 9C13.1699 9.69036 13.7296 10.25 14.4199 10.25Z" fill="black"/>
<path d="M10.9199 10.25C11.6103 10.25 12.1699 9.69036 12.1699 9C12.1699 8.30964 11.6103 7.75 10.9199 7.75C10.2296 7.75 9.66992 8.30964 9.66992 9C9.66992 9.69036 10.2296 10.25 10.9199 10.25Z" fill="black"/>
<path d="M16.1699 13.25C16.8603 13.25 17.4199 12.6904 17.4199 12C17.4199 11.3096 16.8603 10.75 16.1699 10.75C15.4796 10.75 14.9199 11.3096 14.9199 12C14.9199 12.6904 15.4796 13.25 16.1699 13.25Z" fill="black"/>
<path d="M9.16992 13.25C9.86028 13.25 10.4199 12.6904 10.4199 12C10.4199 11.3096 9.86028 10.75 9.16992 10.75C8.47957 10.75 7.91992 11.3096 7.91992 12C7.91992 12.6904 8.47957 13.25 9.16992 13.25Z" fill="black"/>
<path d="M10.9199 16.25C11.6103 16.25 12.1699 15.6904 12.1699 15C12.1699 14.3096 11.6103 13.75 10.9199 13.75C10.2296 13.75 9.66992 14.3096 9.66992 15C9.66992 15.6904 10.2296 16.25 10.9199 16.25Z" fill="black"/>
<path d="M14.4199 16.25C15.1103 16.25 15.6699 15.6904 15.6699 15C15.6699 14.3096 15.1103 13.75 14.4199 13.75C13.7296 13.75 13.1699 14.3096 13.1699 15C13.1699 15.6904 13.7296 16.25 14.4199 16.25Z" fill="black"/>
<path d="M12.67 3.33001C12.18 3.33001 11.79 2.94001 11.79 2.45001C11.79 1.96001 12.18 1.57001 12.67 1.57001C13.16 1.57001 13.55 1.96001 13.55 2.45001C13.55 2.94001 13.16 3.33001 12.67 3.33001Z" fill="black"/>
<path d="M17.9202 3.60001C17.5002 3.60001 17.1602 3.26001 17.1602 2.85001C17.1602 2.44001 17.5002 2.10001 17.9102 2.10001C18.3202 2.10001 18.6702 2.44001 18.6702 2.85001C18.6702 3.26001 18.3402 3.60001 17.9202 3.60001Z" fill="black"/>
<path d="M7.41992 3.60001C7.00992 3.60001 6.66992 3.26001 6.66992 2.85001C6.66992 2.44001 6.99992 2.10001 7.41992 2.10001H7.42993C7.83993 2.10001 8.17993 2.44001 8.17993 2.85001C8.17993 3.26001 7.83992 3.60001 7.41992 3.60001Z" fill="black"/>
<path d="M12.67 22.38C12.18 22.38 11.79 21.99 11.79 21.5C11.79 21.01 12.18 20.62 12.67 20.62C13.16 20.62 13.55 21.01 13.55 21.5C13.55 21.99 13.16 22.38 12.67 22.38Z" fill="black"/>
<path d="M17.9202 21.85C17.5002 21.85 17.1602 21.51 17.1602 21.1C17.1602 20.69 17.5002 20.35 17.9102 20.35C18.3202 20.35 18.6702 20.69 18.6702 21.1C18.6702 21.51 18.3402 21.85 17.9202 21.85Z" fill="black"/>
<path d="M7.41992 21.85C7.00992 21.85 6.66992 21.51 6.66992 21.1C6.66992 20.69 6.99992 20.35 7.41992 20.35H7.42993C7.83993 20.35 8.17993 20.69 8.17993 21.1C8.17993 21.51 7.83992 21.85 7.41992 21.85Z" fill="black"/>
<path d="M2.21982 12.88C1.73982 12.88 1.33984 12.49 1.33984 12.01V12C1.33984 11.52 1.72982 11.12 2.21982 11.12C2.70982 11.12 3.09982 11.51 3.09982 12C3.09982 12.49 2.69982 12.88 2.21982 12.88Z" fill="black"/>
<path d="M4.41992 17.75C4.00992 17.75 3.66992 17.42 3.66992 17V16.99C3.66992 16.58 4.00992 16.24 4.41992 16.24C4.82992 16.24 5.16992 16.58 5.16992 16.99C5.16992 17.4 4.82992 17.75 4.41992 17.75Z" fill="black"/>
<path d="M4.41992 7.75999C4.00992 7.75999 3.66992 7.41999 3.66992 7.00999C3.66992 6.59999 4.00992 6.25999 4.41992 6.25999C4.82992 6.25999 5.16992 6.58999 5.16992 6.99999V7.00999C5.16992 7.41999 4.82992 7.75999 4.41992 7.75999Z" fill="black"/>
<path d="M23.17 12.88C22.69 12.88 22.29 12.49 22.29 12.01V12C22.29 11.52 22.68 11.12 23.17 11.12C23.66 11.12 24.05 11.51 24.05 12C24.05 12.49 23.65 12.88 23.17 12.88Z" fill="black"/>
<path d="M20.9697 17.75C20.5597 17.75 20.2197 17.42 20.2197 17V16.99C20.2197 16.58 20.5597 16.24 20.9697 16.24C21.3797 16.24 21.7197 16.58 21.7197 16.99C21.7197 17.4 21.3797 17.75 20.9697 17.75Z" fill="black"/>
<path d="M20.9697 7.75999C20.5597 7.75999 20.2197 7.41999 20.2197 7.00999C20.2197 6.59999 20.5597 6.25999 20.9697 6.25999C21.3797 6.25999 21.7197 6.58999 21.7197 7.00999V7.01999C21.7197 7.41999 21.3797 7.75999 20.9697 7.75999Z" fill="black"/>
</svg>
