<svg width="25" height="24" viewBox="0 0 25 24" fill="none" xmlns="http://www.w3.org/2000/svg">
<path d="M2.67188 11.46V16.46C2.67188 18.75 4.52187 20.6 6.81187 20.6H18.5219C20.8119 20.6 22.6719 18.74 22.6719 16.45V11.46C22.6719 10.79 22.1319 10.25 21.4619 10.25H3.88188C3.21188 10.25 2.67188 10.79 2.67188 11.46ZM8.67188 17.25H6.67188C6.26187 17.25 5.92188 16.91 5.92188 16.5C5.92188 16.09 6.26187 15.75 6.67188 15.75H8.67188C9.08187 15.75 9.42188 16.09 9.42188 16.5C9.42188 16.91 9.08187 17.25 8.67188 17.25ZM15.1719 17.25H11.1719C10.7619 17.25 10.4219 16.91 10.4219 16.5C10.4219 16.09 10.7619 15.75 11.1719 15.75H15.1719C15.5819 15.75 15.9219 16.09 15.9219 16.5C15.9219 16.91 15.5819 17.25 15.1719 17.25Z" fill="#292D32"/>
<path d="M14.1719 4.61002V7.54002C14.1719 8.21002 13.6319 8.75002 12.9619 8.75002H3.88188C3.20188 8.75002 2.67188 8.19002 2.67188 7.52002C2.68187 6.39002 3.13188 5.36002 3.88188 4.61002C4.63188 3.86002 5.67188 3.40002 6.81187 3.40002H12.9619C13.6319 3.40002 14.1719 3.94002 14.1719 4.61002Z" fill="#292D32"/>
<path d="M20.6419 2H17.7019C16.4319 2 15.6719 2.76 15.6719 4.03V6.97C15.6719 8.24 16.4319 9 17.7019 9H20.6419C21.9119 9 22.6719 8.24 22.6719 6.97V4.03C22.6719 2.76 21.9119 2 20.6419 2ZM21.3019 4.45L18.9319 7.22C18.8419 7.33 18.7019 7.4 18.5619 7.4C18.5519 7.4 18.5519 7.4 18.5419 7.4C18.4019 7.4 18.2719 7.35 18.1719 7.25L17.0719 6.17C16.8719 5.97 16.8719 5.64 17.0719 5.44C17.2719 5.24 17.6019 5.23 17.8019 5.44L18.5019 6.13L20.5019 3.79C20.6919 3.57 21.0119 3.55 21.2319 3.73C21.4619 3.91 21.4819 4.24 21.3019 4.45Z" fill="#292D32"/>
</svg>
