<svg width="25" height="24" viewBox="0 0 25 24" fill="none" xmlns="http://www.w3.org/2000/svg">
<path d="M12.6699 15.7V15.81C12.6699 16.09 12.4499 16.31 12.1699 16.31H3.16992C2.88992 16.31 2.66992 16.09 2.66992 15.81V15.7C2.66992 13.94 3.10992 13.5 4.88992 13.5H10.4499C12.2299 13.5 12.6699 13.94 12.6699 15.7Z" fill="#292D32"/>
<path d="M3.16992 17.3101C2.88992 17.3101 2.66992 17.5301 2.66992 17.8101V18.8101V19.8001C2.66992 21.5601 3.10992 22.0001 4.88992 22.0001H10.4499C12.2299 22.0001 12.6699 21.5601 12.6699 19.8001V18.8101V17.8101C12.6699 17.5301 12.4499 17.3101 12.1699 17.3101H3.16992Z" fill="#292D32"/>
<path d="M22.6699 15C22.6699 18.87 19.5399 22 15.6699 22L16.7199 20.25" stroke="#292D32" stroke-width="1.5" stroke-linecap="round" stroke-linejoin="round"/>
<path d="M2.66992 9C2.66992 5.13 5.79992 2 9.66992 2L8.61992 3.75" stroke="#292D32" stroke-width="1.5" stroke-linecap="round" stroke-linejoin="round"/>
<path d="M19.1699 11C21.6552 11 23.6699 8.98528 23.6699 6.5C23.6699 4.01472 21.6552 2 19.1699 2C16.6846 2 14.6699 4.01472 14.6699 6.5C14.6699 8.98528 16.6846 11 19.1699 11Z" fill="#292D32"/>
</svg>
