<svg width="25" height="24" viewBox="0 0 25 24" fill="none" xmlns="http://www.w3.org/2000/svg">
<path d="M15.8919 6.55005H6.45188C6.17188 6.55005 5.91188 6.56005 5.67188 6.57005C3.30188 6.71005 2.67188 7.58005 2.67188 10.28V10.86C2.67188 11.41 3.12187 11.86 3.67188 11.86H18.6719C19.2219 11.86 19.6719 11.41 19.6719 10.86V10.28C19.6719 7.30005 18.9119 6.55005 15.8919 6.55005Z" fill="#292D32"/>
<path d="M3.67188 13.36C3.12187 13.36 2.67188 13.81 2.67188 14.36V17.27C2.67188 20.25 3.43188 21 6.45188 21H15.8919C18.8619 21 19.6419 20.28 19.6719 17.43V14.36C19.6719 13.81 19.2219 13.36 18.6719 13.36H3.67188ZM7.63188 18.56H5.92188C5.51187 18.56 5.17188 18.22 5.17188 17.81C5.17188 17.4 5.51187 17.06 5.92188 17.06H7.64187C8.05187 17.06 8.39187 17.4 8.39187 17.81C8.39187 18.22 8.05188 18.56 7.63188 18.56ZM13.2219 18.56H9.78187C9.37187 18.56 9.03187 18.22 9.03187 17.81C9.03187 17.4 9.37187 17.06 9.78187 17.06H13.2219C13.6319 17.06 13.9719 17.4 13.9719 17.81C13.9719 18.22 13.6419 18.56 13.2219 18.56Z" fill="#292D32"/>
<path d="M22.6715 13.33V8.08998C22.6715 4.95998 20.8815 3.59998 18.1815 3.59998H9.25149C8.49149 3.59998 7.81149 3.70998 7.21149 3.93998C6.74149 4.10998 6.32149 4.35998 5.98149 4.68998C5.80149 4.85998 5.9415 5.13998 6.20149 5.13998H17.0715C19.3215 5.13998 21.1415 6.95998 21.1415 9.20998V16.38C21.1415 16.63 21.4115 16.77 21.5915 16.59C22.2815 15.86 22.6715 14.79 22.6715 13.33Z" fill="#292D32"/>
</svg>
