<svg width="25" height="24" viewBox="0 0 25 24" fill="none" xmlns="http://www.w3.org/2000/svg">
<path d="M12.6699 2C7.14992 2 2.66992 6.48 2.66992 12C2.66992 17.52 7.14992 22 12.6699 22C18.1899 22 22.6699 17.52 22.6699 12C22.6699 6.48 18.1899 2 12.6699 2ZM17.5999 15.74C16.4199 17.3 14.6199 18.19 12.6699 18.19C9.25992 18.19 6.47992 15.41 6.47992 12C6.47992 8.59 9.25992 5.81 12.6699 5.81C14.0199 5.81 15.3099 6.24 16.3899 7.05C16.7199 7.3 16.7899 7.77001 16.5399 8.10001C16.2899 8.43001 15.8199 8.5 15.4899 8.25C14.6699 7.63 13.6999 7.31 12.6699 7.31C10.0899 7.31 7.97992 9.41 7.97992 12C7.97992 14.59 10.0799 16.69 12.6699 16.69C14.1499 16.69 15.5099 16.01 16.4099 14.83C16.6599 14.5 17.1299 14.44 17.4599 14.69C17.7899 14.94 17.8499 15.41 17.5999 15.74ZM18.0899 11.34C17.4399 11.34 16.9199 10.82 16.9199 10.17C16.9199 9.52 17.4399 9 18.0899 9C18.7399 9 19.2599 9.52 19.2599 10.17C19.2599 10.82 18.7399 11.34 18.0899 11.34Z" fill="black"/>
</svg>
