<svg width="25" height="24" viewBox="0 0 25 24" fill="none" xmlns="http://www.w3.org/2000/svg">
<path d="M16.8619 2H8.48187C4.84187 2 2.67188 4.17 2.67188 7.81V16.18C2.67188 19.83 4.84187 22 8.48187 22H16.8519C20.4919 22 22.6619 19.83 22.6619 16.19V7.81C22.6719 4.17 20.5019 2 16.8619 2ZM9.78187 16.9C9.78187 17.18 9.56187 17.4 9.28187 17.4H6.49188C6.21188 17.4 5.99188 17.18 5.99188 16.9V12.28C5.99188 11.65 6.50187 11.14 7.13188 11.14H9.28187C9.56187 11.14 9.78187 11.36 9.78187 11.64V16.9ZM14.5619 16.9C14.5619 17.18 14.3419 17.4 14.0619 17.4H11.2719C10.9919 17.4 10.7719 17.18 10.7719 16.9V7.74C10.7719 7.11 11.2819 6.6 11.9119 6.6H13.4319C14.0619 6.6 14.5719 7.11 14.5719 7.74V16.9H14.5619ZM19.3519 16.9C19.3519 17.18 19.1319 17.4 18.8519 17.4H16.0619C15.7819 17.4 15.5619 17.18 15.5619 16.9V13.35C15.5619 13.07 15.7819 12.85 16.0619 12.85H18.2119C18.8419 12.85 19.3519 13.36 19.3519 13.99V16.9Z" fill="#292D32"/>
</svg>
