<svg width="25" height="24" viewBox="0 0 25 24" fill="none" xmlns="http://www.w3.org/2000/svg">
<path d="M16.8599 2H8.47992C4.83992 2 2.66992 4.17 2.66992 7.81V16.18C2.66992 19.83 4.83992 22 8.47992 22H16.8499C20.4899 22 22.6599 19.83 22.6599 16.19V7.81C22.6699 4.17 20.4999 2 16.8599 2ZM10.5799 16.19C10.5799 16.83 10.0599 17.35 9.40992 17.35C8.76992 17.35 8.24992 16.83 8.24992 16.19V12.93C8.24992 12.29 8.76992 11.77 9.40992 11.77C10.0599 11.77 10.5799 12.29 10.5799 12.93V16.19ZM17.0899 16.19C17.0899 16.83 16.5699 17.35 15.9299 17.35C15.2799 17.35 14.7599 16.83 14.7599 16.19V7.81C14.7599 7.17 15.2799 6.65 15.9299 6.65C16.5699 6.65 17.0899 7.17 17.0899 7.81V16.19Z" fill="#292D32"/>
</svg>
