<svg width="25" height="24" viewBox="0 0 25 24" fill="none" xmlns="http://www.w3.org/2000/svg">
<path d="M15.6699 22C15.2599 22 14.9199 21.66 14.9199 21.25V2.75C14.9199 2.34 15.2599 2 15.6699 2C16.0799 2 16.4199 2.34 16.4199 2.75V21.25C16.4199 21.66 16.0799 22 15.6699 22Z" fill="#292D32"/>
<path d="M18.6699 20H15.6699V4H18.6699C20.8799 4 22.6699 5.79 22.6699 8V16C22.6699 18.21 20.8799 20 18.6699 20Z" fill="#292D32"/>
<path d="M6.66992 4C4.45992 4 2.66992 5.79 2.66992 8V16C2.66992 18.21 4.45992 20 6.66992 20H11.6699C12.2199 20 12.6699 19.55 12.6699 19V5C12.6699 4.45 12.2199 4 11.6699 4H6.66992ZM8.41992 15.5C8.41992 15.91 8.07992 16.25 7.66992 16.25C7.25992 16.25 6.91992 15.91 6.91992 15.5V8.5C6.91992 8.09 7.25992 7.75 7.66992 7.75C8.07992 7.75 8.41992 8.09 8.41992 8.5V15.5Z" fill="#292D32"/>
</svg>
