<svg width="25" height="24" viewBox="0 0 25 24" fill="none" xmlns="http://www.w3.org/2000/svg">
<path d="M12.4895 6.9C15.3495 6.28 18.2495 6.19 21.1195 6.66C19.3495 3.86 16.2295 2 12.6695 2C9.55945 2 6.77945 3.42 4.93945 5.65C5.37945 6.95 5.93945 8.19 6.60945 9.37C6.98945 10.05 7.95945 10.02 8.34945 9.35C9.19945 7.92 10.7295 6.96 12.4895 6.9Z" fill="#292D32"/>
<path d="M8.38994 14.72C6.38994 12.58 4.82994 10.14 3.75994 7.44C2.25994 10.4 2.26994 14.03 4.09994 17.08C5.69994 19.75 8.33994 21.41 11.1999 21.84C12.0899 20.79 12.8699 19.67 13.5399 18.5C13.9299 17.82 13.3999 17.01 12.6199 17.01C10.9499 17.02 9.33994 16.2 8.38994 14.72Z" fill="#292D32"/>
<path d="M9.24023 12C9.24023 12.61 9.39023 13.18 9.70023 13.72C10.3102 14.77 11.4402 15.43 12.6602 15.43C13.8802 15.43 15.0202 14.77 15.6202 13.72C15.9302 13.18 16.0902 12.61 16.0902 12C16.0902 10.11 14.5502 8.58 12.6602 8.58C10.7802 8.57 9.24023 10.11 9.24023 12Z" fill="#292D32"/>
<path d="M22.0101 8.42C20.6401 8.13 19.2501 7.97 17.8701 7.95C17.0801 7.94 16.6301 8.8 17.0201 9.49C17.4201 10.2 17.6501 11.02 17.6501 11.89C17.6501 12.73 17.4301 13.56 17.0201 14.3C16.0801 17.18 14.6801 19.74 12.8301 22C18.2801 21.91 22.6701 17.47 22.6701 12C22.6701 10.74 22.4401 9.53 22.0101 8.42Z" fill="#292D32"/>
</svg>
