<svg width="25" height="24" viewBox="0 0 25 24" fill="none" xmlns="http://www.w3.org/2000/svg">
<path d="M12.6699 2C7.15992 2 2.66992 6.49 2.66992 12C2.66992 17.51 7.15992 22 12.6699 22C18.1799 22 22.6699 17.51 22.6699 12C22.6699 6.49 18.1799 2 12.6699 2ZM16.0299 14.3C16.3199 14.59 16.3199 15.07 16.0299 15.36C15.8799 15.51 15.6899 15.58 15.4999 15.58C15.3099 15.58 15.1199 15.51 14.9699 15.36L12.6699 13.06L10.3699 15.36C10.2199 15.51 10.0299 15.58 9.83992 15.58C9.64992 15.58 9.45992 15.51 9.30992 15.36C9.01992 15.07 9.01992 14.59 9.30992 14.3L11.6099 12L9.30992 9.7C9.01992 9.41 9.01992 8.93 9.30992 8.64C9.59992 8.35 10.0799 8.35 10.3699 8.64L12.6699 10.94L14.9699 8.64C15.2599 8.35 15.7399 8.35 16.0299 8.64C16.3199 8.93 16.3199 9.41 16.0299 9.7L13.7299 12L16.0299 14.3Z" fill="#292D32"/>
</svg>
