<svg width="25" height="24" viewBox="0 0 25 24" fill="none" xmlns="http://www.w3.org/2000/svg">
<path d="M20.8399 17.5699C20.3099 18.0599 19.6999 18.4299 19.0399 18.6799C18.3799 18.9299 17.6699 18.4499 17.6699 17.7399V16.4199C17.6699 14.4699 16.0899 12.8899 14.1399 12.8899H11.1999C9.24992 12.8899 7.66992 14.4699 7.66992 16.4199V17.9999C7.66992 18.5499 7.21992 18.9999 6.66992 18.9999H6.21992C3.76992 18.6299 2.66992 16.6399 2.66992 14.8599C2.66992 13.1799 3.64992 11.3199 5.77992 10.7999C5.18992 8.46994 5.68992 6.27994 7.20992 4.68994C8.93992 2.87994 11.6999 2.15994 14.0799 2.89994C16.2699 3.56994 17.8099 5.36994 18.3599 7.86994C20.2699 8.29994 21.7999 9.73994 22.4099 11.7399C23.0699 13.9099 22.4699 16.1399 20.8399 17.5699Z" fill="#292D32"/>
<path d="M14.1399 14.3899H11.1999C9.92992 14.3899 9.16992 15.1499 9.16992 16.4199V19.3599C9.16992 20.6299 9.92992 21.3899 11.1999 21.3899H14.1399C15.4099 21.3899 16.1699 20.6299 16.1699 19.3599V16.4199C16.1699 15.1499 15.4099 14.3899 14.1399 14.3899ZM12.3799 18.8399L11.1399 20.0699C11.0499 20.1599 10.9299 20.2099 10.8199 20.2099C10.6899 20.2099 10.5799 20.1599 10.4899 20.0699C10.3099 19.8899 10.3099 19.5999 10.4899 19.4199L11.7199 18.1799C11.9099 17.9999 12.1999 17.9999 12.3799 18.1799C12.5599 18.3599 12.5599 18.6599 12.3799 18.8399ZM12.3799 16.3599L11.1399 17.5999C11.0499 17.6899 10.9299 17.7399 10.8199 17.7399C10.6899 17.7399 10.5799 17.6899 10.4899 17.5999C10.3099 17.4199 10.3099 17.1199 10.4899 16.9399L11.7199 15.7099C11.9099 15.5299 12.1999 15.5299 12.3799 15.7099C12.5599 15.8899 12.5599 16.1799 12.3799 16.3599ZM14.8499 18.8399L13.6199 20.0699C13.5199 20.1599 13.4099 20.2099 13.2899 20.2099C13.1699 20.2099 13.0499 20.1599 12.9599 20.0699C12.7799 19.8899 12.7799 19.5999 12.9599 19.4199L14.1999 18.1799C14.3799 17.9999 14.6699 17.9999 14.8499 18.1799C15.0299 18.3599 15.0299 18.6599 14.8499 18.8399ZM14.8499 16.3599L13.6199 17.5999C13.5199 17.6899 13.4099 17.7399 13.2899 17.7399C13.1699 17.7399 13.0499 17.6899 12.9599 17.5999C12.7799 17.4199 12.7799 17.1199 12.9599 16.9399L14.1999 15.7099C14.3799 15.5299 14.6699 15.5299 14.8499 15.7099C15.0299 15.8899 15.0299 16.1799 14.8499 16.3599Z" fill="#292D32"/>
</svg>
