<svg width="25" height="24" viewBox="0 0 25 24" fill="none" xmlns="http://www.w3.org/2000/svg">
<path d="M21.2797 10.83C20.5097 9.90996 19.5197 9.30996 18.3697 9.04996C18.1097 7.88996 17.6597 6.88996 16.9997 6.05996C16.9797 6.02996 16.9597 5.99996 16.9397 5.97996C14.7397 3.31996 11.1397 3.32996 8.70969 4.70996C6.62969 5.89996 4.85969 8.40996 5.78969 11.99C3.65969 12.51 2.67969 14.37 2.67969 16.05C2.67969 17.93 3.90969 20.04 6.64969 20.24H16.9897C16.9997 20.24 17.0197 20.24 17.0297 20.24C18.4497 20.24 19.8097 19.71 20.8597 18.75C23.3697 16.53 23.0397 12.91 21.2797 10.83Z" fill="#292D32"/>
<path d="M22.4301 8.74001C22.4301 9.08001 22.3901 9.41001 22.2901 9.73001C21.5601 8.88001 20.6301 8.25001 19.6001 7.86001C19.2801 6.86001 18.8201 5.97001 18.2201 5.19001C18.1901 5.15001 18.1601 5.11001 18.1201 5.06001C18.3101 5.02001 18.5101 5.01001 18.7001 5.01001C20.7601 5.01001 22.4301 6.68001 22.4301 8.74001Z" fill="#292D32"/>
</svg>
