<svg width="25" height="24" viewBox="0 0 25 24" fill="none" xmlns="http://www.w3.org/2000/svg">
<path d="M20.8399 17.5699C20.3099 18.0599 19.6999 18.4299 19.0399 18.6799C18.3799 18.9299 17.6699 18.4499 17.6699 17.7399V16.4199C17.6699 14.4699 16.0899 12.8899 14.1399 12.8899H11.1999C9.24992 12.8899 7.66992 14.4699 7.66992 16.4199V17.9999C7.66992 18.5499 7.21992 18.9999 6.66992 18.9999H6.21992C3.76992 18.6299 2.66992 16.6399 2.66992 14.8599C2.66992 13.1799 3.64992 11.3199 5.77992 10.7999C5.18992 8.46994 5.68992 6.27994 7.20992 4.68994C8.93992 2.87994 11.6999 2.15994 14.0799 2.89994C16.2699 3.56994 17.8099 5.36994 18.3599 7.86994C20.2699 8.29994 21.7999 9.73994 22.4099 11.7399C23.0699 13.9099 22.4699 16.1399 20.8399 17.5699Z" fill="#292D32"/>
<path d="M14.1399 14.3899H11.1999C9.92992 14.3899 9.16992 15.1499 9.16992 16.4199V19.3599C9.16992 20.6299 9.92992 21.3899 11.1999 21.3899H14.1399C15.4099 21.3899 16.1699 20.6299 16.1699 19.3599V16.4199C16.1699 15.1499 15.4099 14.3899 14.1399 14.3899ZM11.1699 17.6299C10.7499 17.6299 10.4199 17.2899 10.4199 16.8799C10.4199 16.4699 10.7499 16.1299 11.1699 16.1299C11.5899 16.1299 11.9199 16.4699 11.9199 16.8799C11.9199 17.2899 11.5799 17.6299 11.1699 17.6299ZM12.6699 19.8799C12.2599 19.8799 11.9199 19.5399 11.9199 19.1299C11.9199 18.7199 12.2599 18.3799 12.6699 18.3799C13.0799 18.3799 13.4199 18.7199 13.4199 19.1299C13.4199 19.5399 13.0899 19.8799 12.6699 19.8799ZM14.1799 17.6299C13.7599 17.6299 13.4299 17.2899 13.4299 16.8799C13.4299 16.4699 13.7599 16.1299 14.1799 16.1299C14.5999 16.1299 14.9299 16.4699 14.9299 16.8799C14.9299 17.2899 14.5899 17.6299 14.1799 17.6299Z" fill="#292D32"/>
</svg>
