<svg width="25" height="24" viewBox="0 0 25 24" fill="none" xmlns="http://www.w3.org/2000/svg">
<path d="M20.8399 17.5699C20.3099 18.0599 19.6999 18.4299 19.0399 18.6799C18.3799 18.9299 17.6699 18.4499 17.6699 17.7399V16.4199C17.6699 14.4699 16.0899 12.8899 14.1399 12.8899H11.1999C9.24992 12.8899 7.66992 14.4699 7.66992 16.4199V17.9999C7.66992 18.5499 7.21992 18.9999 6.66992 18.9999H6.21992C3.76992 18.6299 2.66992 16.6399 2.66992 14.8599C2.66992 13.1799 3.64992 11.3199 5.77992 10.7999C5.18992 8.46994 5.68992 6.27994 7.20992 4.68994C8.93992 2.87994 11.6999 2.15994 14.0799 2.89994C16.2699 3.56994 17.8099 5.36994 18.3599 7.86994C20.2699 8.29994 21.7999 9.73994 22.4099 11.7399C23.0699 13.9099 22.4699 16.1399 20.8399 17.5699Z" fill="#292D32"/>
<path d="M14.1399 14.3899H11.1999C9.92992 14.3899 9.16992 15.1499 9.16992 16.4199V19.3599C9.16992 20.6299 9.92992 21.3899 11.1999 21.3899H14.1399C15.4099 21.3899 16.1699 20.6299 16.1699 19.3599V16.4199C16.1699 15.1499 15.4099 14.3899 14.1399 14.3899ZM14.6399 18.9399C14.8899 19.1899 14.8899 19.5999 14.6399 19.8499C14.5099 19.9699 14.3499 20.0299 14.1799 20.0299C14.0199 20.0299 13.8599 19.9699 13.7299 19.8499L12.6699 18.7899L11.6199 19.8499C11.4899 19.9699 11.3299 20.0299 11.1599 20.0299C10.9999 20.0299 10.8399 19.9699 10.7099 19.8499C10.4599 19.5999 10.4599 19.1899 10.7099 18.9399L11.7699 17.8799L10.7099 16.8299C10.4599 16.5799 10.4599 16.1699 10.7099 15.9199C10.9599 15.6699 11.3699 15.6699 11.6199 15.9199L12.6699 16.9799L13.7299 15.9199C13.9799 15.6699 14.3899 15.6699 14.6399 15.9199C14.8899 16.1699 14.8899 16.5799 14.6399 16.8299L13.5799 17.8799L14.6399 18.9399Z" fill="#292D32"/>
</svg>
