<svg width="25" height="24" viewBox="0 0 25 24" fill="none" xmlns="http://www.w3.org/2000/svg">
<path d="M12.6699 11.53C9.90992 11.53 7.66992 13.77 7.66992 16.53C7.66992 17.27 7.82992 17.97 8.12992 18.59C8.20992 18.77 8.29992 18.94 8.39992 19.1C9.25992 20.55 10.8499 21.53 12.6699 21.53C14.4899 21.53 16.0799 20.55 16.9399 19.1C17.0399 18.94 17.1299 18.77 17.2099 18.59C17.5099 17.97 17.6699 17.27 17.6699 16.53C17.6699 13.77 15.4299 11.53 12.6699 11.53ZM14.7399 16.1L12.6099 18.07C12.4699 18.2 12.2799 18.27 12.0999 18.27C11.9099 18.27 11.7199 18.2 11.5699 18.05L10.5799 17.06C10.2899 16.77 10.2899 16.29 10.5799 16C10.8699 15.71 11.3499 15.71 11.6399 16L12.1199 16.48L13.7199 15C14.0299 14.72 14.4999 14.74 14.7799 15.04C15.0599 15.34 15.0399 15.81 14.7399 16.1Z" fill="#292D32"/>
<path d="M20.8697 17.07C20.5097 17.39 20.1197 17.66 19.6997 17.88C19.3397 18.06 18.9797 17.71 19.0397 17.31C19.0798 17.02 19.0997 16.72 19.0997 16.41C19.0997 12.83 16.1797 9.91003 12.5997 9.91003C9.01975 9.91003 6.09975 12.83 6.09975 16.41C6.09975 16.87 6.14975 17.31 6.23975 17.74C6.30975 18.09 6.03975 18.44 5.68975 18.35C1.73975 17.39 1.71975 11.31 6.13975 11H6.18975C2.97975 2.07003 16.5197 -1.49997 18.0697 7.88003C22.3997 8.43003 24.1497 14.2 20.8697 17.07Z" fill="#292D32"/>
</svg>
