<svg width="25" height="24" viewBox="0 0 25 24" fill="none" xmlns="http://www.w3.org/2000/svg">
<path d="M12.6699 2C7.14992 2 2.66992 6.48 2.66992 12C2.66992 17.52 7.14992 22 12.6699 22C18.1899 22 22.6699 17.52 22.6699 12C22.6699 6.48 18.1899 2 12.6699 2ZM9.19992 13.47C9.48992 13.76 9.48992 14.24 9.19992 14.53C9.04992 14.68 8.85992 14.75 8.66992 14.75C8.47992 14.75 8.28992 14.68 8.13992 14.53L6.13992 12.53C5.84992 12.24 5.84992 11.76 6.13992 11.47L8.13992 9.47C8.42992 9.18 8.90992 9.18 9.19992 9.47C9.48992 9.76 9.48992 10.24 9.19992 10.53L7.72992 12L9.19992 13.47ZM14.3599 9.96L12.3599 14.63C12.2399 14.91 11.9599 15.08 11.6699 15.08C11.5699 15.08 11.4699 15.06 11.3799 15.02C10.9999 14.86 10.8199 14.42 10.9899 14.03L12.9899 9.36C13.1499 8.98 13.5899 8.8 13.9699 8.97C14.3499 9.14 14.5199 9.58 14.3599 9.96ZM19.1999 12.53L17.1999 14.53C17.0499 14.68 16.8599 14.75 16.6699 14.75C16.4799 14.75 16.2899 14.68 16.1399 14.53C15.8499 14.24 15.8499 13.76 16.1399 13.47L17.6099 12L16.1399 10.53C15.8499 10.24 15.8499 9.76 16.1399 9.47C16.4299 9.18 16.9099 9.18 17.1999 9.47L19.1999 11.47C19.4899 11.76 19.4899 12.24 19.1999 12.53Z" fill="#292D32"/>
</svg>
