<svg width="25" height="24" viewBox="0 0 25 24" fill="none" xmlns="http://www.w3.org/2000/svg">
<path d="M6.66992 5.12C6.25992 5.12 5.91992 4.78 5.91992 4.37V2.62C5.91992 2.21 6.25992 1.87 6.66992 1.87C7.07992 1.87 7.41992 2.21 7.41992 2.62V4.37C7.41992 4.79 7.07992 5.12 6.66992 5.12Z" fill="#292D32"/>
<path d="M10.6699 5.12C10.2599 5.12 9.91992 4.78 9.91992 4.37V2.62C9.91992 2.21 10.2599 1.87 10.6699 1.87C11.0799 1.87 11.4199 2.21 11.4199 2.62V4.37C11.4199 4.79 11.0799 5.12 10.6699 5.12Z" fill="#292D32"/>
<path d="M14.6699 5.12C14.2599 5.12 13.9199 4.78 13.9199 4.37V2.62C13.9199 2.21 14.2599 1.87 14.6699 1.87C15.0799 1.87 15.4199 2.21 15.4199 2.62V4.37C15.4199 4.79 15.0799 5.12 14.6699 5.12Z" fill="#292D32"/>
<path d="M22.9199 13.25C22.9199 10.63 20.8899 8.51 18.3299 8.29C17.5899 7.08 16.2699 6.26 14.7499 6.26H7.37992C5.05992 6.26 3.16992 8.15 3.16992 10.47V11H18.9599V10.47C18.9599 10.28 18.9299 10.09 18.8999 9.91C20.3499 10.34 21.4199 11.66 21.4199 13.25C21.4199 14.82 20.3799 16.13 18.9599 16.57V12H3.16992V17.79C3.16992 20.11 5.05992 22 7.37992 22H14.7499C16.9499 22 18.7399 20.3 18.9199 18.14C21.1999 17.68 22.9199 15.66 22.9199 13.25Z" fill="#292D32"/>
</svg>
