<svg width="25" height="24" viewBox="0 0 25 24" fill="none" xmlns="http://www.w3.org/2000/svg">
<path d="M15.6711 22.75C15.4011 22.75 15.1511 22.6 15.0211 22.37C14.8911 22.14 14.8911 21.85 15.0311 21.62L16.0811 19.87C16.2911 19.51 16.7511 19.4 17.1111 19.61C17.4711 19.82 17.5811 20.28 17.3711 20.64L17.1011 21.09C19.8611 20.44 21.9311 17.96 21.9311 15C21.9311 14.59 22.2711 14.25 22.6811 14.25C23.0911 14.25 23.4311 14.59 23.4311 15C23.4211 19.27 19.9411 22.75 15.6711 22.75Z" fill="#292D32"/>
<path d="M2.6709 9.75C2.2609 9.75 1.9209 9.41 1.9209 9C1.9209 4.73 5.4009 1.25 9.6709 1.25C9.9409 1.25 10.1909 1.4 10.3209 1.63C10.4509 1.86 10.4509 2.15 10.3109 2.38L9.2609 4.14C9.0509 4.49 8.5909 4.61 8.2309 4.39C7.8809 4.18 7.7609 3.72 7.9809 3.36L8.2509 2.91C5.4809 3.56 3.4209 6.04 3.4209 9C3.4209 9.41 3.0809 9.75 2.6709 9.75Z" fill="#292D32"/>
<path d="M11.3409 13.8499L8.20086 12.1599C7.87086 11.9799 7.47086 11.9799 7.14086 12.1599L4.00086 13.8499C3.77086 13.9699 3.63086 14.2199 3.63086 14.4899C3.63086 14.7599 3.77086 15.0099 4.00086 15.1299L7.14086 16.8199C7.31086 16.9099 7.49086 16.9499 7.67086 16.9499C7.85086 16.9499 8.03086 16.9099 8.20086 16.8199L11.3409 15.1299C11.5709 15.0099 11.7109 14.7599 11.7109 14.4899C11.7109 14.2199 11.5609 13.9799 11.3409 13.8499Z" fill="#292D32"/>
<path d="M6.6209 17.4101L3.7009 15.9501C3.4809 15.8401 3.2209 15.8501 3.0009 15.9801C2.8009 16.1101 2.6709 16.3401 2.6709 16.5901V19.3501C2.6709 19.8301 2.9309 20.2601 3.3609 20.4701L6.2809 21.9301C6.3809 21.9701 6.4909 22.0001 6.6009 22.0001C6.7309 22.0001 6.8609 21.9601 6.9809 21.8901C7.1909 21.7601 7.3209 21.5301 7.3209 21.2801V18.5201C7.3209 18.0501 7.0509 17.6201 6.6209 17.4101Z" fill="#292D32"/>
<path d="M12.331 15.9801C12.121 15.8501 11.861 15.8401 11.631 15.9501L8.711 17.4101C8.281 17.6201 8.021 18.0501 8.021 18.5301V21.2901C8.021 21.5401 8.151 21.7701 8.361 21.9001C8.481 21.9601 8.611 22.0001 8.741 22.0001C8.851 22.0001 8.961 21.9701 9.061 21.9201L11.981 20.4601C12.411 20.2501 12.671 19.8201 12.671 19.3401V16.5801C12.671 16.3401 12.541 16.1101 12.331 15.9801Z" fill="#292D32"/>
<path d="M21.3409 3.82988L18.2009 2.13988C17.8709 1.95988 17.4709 1.95988 17.1409 2.13988L14.0009 3.82988C13.7709 3.94988 13.6309 4.19988 13.6309 4.46988C13.6309 4.73988 13.7709 4.98988 14.0009 5.10988L17.1409 6.79988C17.3109 6.88988 17.4909 6.92988 17.6709 6.92988C17.8509 6.92988 18.0309 6.88988 18.2009 6.79988L21.3409 5.10988C21.5709 4.98988 21.7109 4.73988 21.7109 4.46988C21.7109 4.18988 21.5609 3.94988 21.3409 3.82988Z" fill="#292D32"/>
<path d="M16.6209 7.37986L13.7009 5.91986C13.4809 5.80986 13.2209 5.81986 13.0009 5.94986C12.8009 6.07986 12.6709 6.30986 12.6709 6.55986V9.31986C12.6709 9.79986 12.9309 10.2299 13.3609 10.4399L16.2809 11.8999C16.3809 11.9499 16.4909 11.9799 16.6009 11.9799C16.7309 11.9799 16.8609 11.9399 16.9809 11.8699C17.1909 11.7399 17.3209 11.5099 17.3209 11.2599V8.49986C17.3209 8.01986 17.0509 7.58986 16.6209 7.37986Z" fill="#292D32"/>
<path d="M22.331 5.94986C22.121 5.81986 21.861 5.80986 21.631 5.91986L18.711 7.37986C18.281 7.58986 18.021 8.01986 18.021 8.49986V11.2599C18.021 11.5099 18.151 11.7399 18.361 11.8699C18.481 11.9399 18.611 11.9799 18.741 11.9799C18.851 11.9799 18.961 11.9499 19.061 11.8999L21.981 10.4399C22.411 10.2199 22.671 9.78986 22.671 9.31986V6.55986C22.671 6.30986 22.541 6.07986 22.331 5.94986Z" fill="#292D32"/>
</svg>
