<svg width="25" height="24" viewBox="0 0 25 24" fill="none" xmlns="http://www.w3.org/2000/svg">
<path d="M22.6699 21.2502H21.4199V11.0002C21.4199 8.58019 20.0899 7.25019 17.6699 7.25019H13.4199V6.02019C13.9999 6.16019 14.5799 6.24019 15.1699 6.24019C16.1099 6.24019 17.0499 6.06019 17.9499 5.70019C18.2299 5.59019 18.4199 5.31019 18.4199 5.00019V2.00019C18.4199 1.75019 18.2999 1.52019 18.0899 1.38019C17.8799 1.24019 17.6199 1.21019 17.3899 1.30019C15.9599 1.87019 14.3799 1.87019 12.9499 1.30019C12.7199 1.21019 12.4599 1.24019 12.2499 1.38019C12.0399 1.52019 11.9199 1.75019 11.9199 2.00019V5.00019V7.25019H7.66992C5.24992 7.25019 3.91992 8.58019 3.91992 11.0002V21.2502H2.66992C2.25992 21.2502 1.91992 21.5902 1.91992 22.0002C1.91992 22.4102 2.25992 22.7502 2.66992 22.7502H4.66992H20.6699H22.6699C23.0799 22.7502 23.4199 22.4102 23.4199 22.0002C23.4199 21.5902 23.0799 21.2502 22.6699 21.2502ZM7.90992 21.2502H5.41992V12.7502H7.90992V21.2502ZM11.9099 21.2502H9.40992V12.7502H11.9099V21.2502ZM15.9099 21.2502H13.4099V12.7502H15.9099V21.2502ZM19.9199 21.2502H17.4099V12.7502H19.9199V21.2502Z" fill="#292D32"/>
</svg>
