<svg width="25" height="24" viewBox="0 0 25 24" fill="none" xmlns="http://www.w3.org/2000/svg">
<path d="M21.9199 12.75C22.3399 12.75 22.6699 12.41 22.6699 12C22.6699 11.58 22.3399 11.25 21.9199 11.25H20.6699V9.05H21.9199C22.3399 9.05 22.6699 8.72 22.6699 8.3C22.6699 7.89 22.3399 7.55 21.9199 7.55H20.4399C19.9599 5.96 18.7099 4.71 17.1199 4.23V2.75C17.1199 2.34 16.7799 2 16.3699 2C15.9599 2 15.6199 2.34 15.6199 2.75V4H13.4199V2.75C13.4199 2.34 13.0799 2 12.6699 2C12.2599 2 11.9199 2.34 11.9199 2.75V4H9.72992V2.75C9.72992 2.34 9.38992 2 8.97992 2C8.55992 2 8.22992 2.34 8.22992 2.75V4.23C6.62992 4.71 5.37992 5.96 4.89992 7.55H3.41992C3.00992 7.55 2.66992 7.89 2.66992 8.3C2.66992 8.72 3.00992 9.05 3.41992 9.05H4.66992V11.25H3.41992C3.00992 11.25 2.66992 11.58 2.66992 12C2.66992 12.41 3.00992 12.75 3.41992 12.75H4.66992V14.95H3.41992C3.00992 14.95 2.66992 15.28 2.66992 15.7C2.66992 16.11 3.00992 16.45 3.41992 16.45H4.89992C5.36992 18.04 6.62992 19.29 8.22992 19.77V21.25C8.22992 21.66 8.55992 22 8.97992 22C9.38992 22 9.72992 21.66 9.72992 21.25V20H11.9299V21.25C11.9299 21.66 12.2599 22 12.6799 22C13.0899 22 13.4299 21.66 13.4299 21.25V20H15.6199V21.25C15.6199 21.66 15.9599 22 16.3699 22C16.7799 22 17.1199 21.66 17.1199 21.25V19.77C18.7099 19.29 19.9599 18.04 20.4399 16.45H21.9199C22.3399 16.45 22.6699 16.11 22.6699 15.7C22.6699 15.28 22.3399 14.95 21.9199 14.95H20.6699V12.75H21.9199ZM17.9299 14.26C17.9299 15.91 16.5799 17.26 14.9299 17.26H10.4099C8.75992 17.26 7.40992 15.91 7.40992 14.26V9.74C7.40992 8.09 8.75992 6.74 10.4099 6.74H14.9299C16.5799 6.74 17.9299 8.09 17.9299 9.74V14.26Z" fill="#292D32"/>
<path d="M10.6899 16.25H14.6599C15.9099 16.25 16.9299 15.24 16.9299 13.98V10.01C16.9299 8.75999 15.9199 7.73999 14.6599 7.73999H10.6899C9.43992 7.73999 8.41992 8.74999 8.41992 10.01V13.98C8.41992 15.24 9.42992 16.25 10.6899 16.25Z" fill="#292D32"/>
</svg>
