<svg width="25" height="24" viewBox="0 0 25 24" fill="none" xmlns="http://www.w3.org/2000/svg">
<path d="M6.19992 2C5.77992 2 5.44992 2.34 5.44992 2.75V4.78H3.41992C3.00992 4.78 2.66992 5.11 2.66992 5.53C2.66992 5.95 3.00992 6.28 3.41992 6.28H6.19992C6.60992 6.28 6.94992 5.94 6.94992 5.53V2.75C6.94992 2.34 6.60992 2 6.19992 2Z" fill="#292D32"/>
<path d="M21.9201 17.72H19.1401C18.7301 17.72 18.3901 18.06 18.3901 18.47V21.25C18.3901 21.66 18.7301 22 19.1401 22C19.5501 22 19.8901 21.66 19.8901 21.25V19.22H21.9201C22.3301 19.22 22.6701 18.88 22.6701 18.47C22.6701 18.06 22.3301 17.72 21.9201 17.72Z" fill="#292D32"/>
<path d="M17.39 18.4701C17.39 17.5101 18.18 16.7201 19.14 16.7201H19.83V10.0501C19.83 7.16007 17.49 4.82007 14.6 4.82007H7.95V5.51007C7.95 6.47007 7.16 7.26007 6.2 7.26007H5.5V13.9301C5.5 16.8201 7.84 19.1601 10.73 19.1601H17.4V18.4701H17.39Z" fill="#292D32"/>
</svg>
