<svg width="25" height="24" viewBox="0 0 25 24" fill="none" xmlns="http://www.w3.org/2000/svg">
<path d="M11.9199 18.25H9.66992C8.56992 18.25 7.66992 19.15 7.66992 20.25V20.5H6.66992C6.25992 20.5 5.91992 20.84 5.91992 21.25C5.91992 21.66 6.25992 22 6.66992 22H18.6699C19.0799 22 19.4199 21.66 19.4199 21.25C19.4199 20.84 19.0799 20.5 18.6699 20.5H17.6699V20.25C17.6699 19.15 16.7699 18.25 15.6699 18.25H13.4199V15.96C13.1699 15.99 12.9199 16 12.6699 16C12.4199 16 12.1699 15.99 11.9199 15.96V18.25Z" fill="#292D32"/>
<path d="M19.1502 11.64C19.8102 11.39 20.3902 10.98 20.8502 10.52C21.7802 9.49 22.3902 8.26 22.3902 6.82C22.3902 5.38 21.2602 4.25 19.8202 4.25H19.2602C18.6102 2.92 17.2502 2 15.6702 2H9.6702C8.0902 2 6.7302 2.92 6.0802 4.25H5.5202C4.0802 4.25 2.9502 5.38 2.9502 6.82C2.9502 8.26 3.5602 9.49 4.4902 10.52C4.9502 10.98 5.5302 11.39 6.1902 11.64C7.2302 14.2 9.7302 16 12.6702 16C15.6102 16 18.1102 14.2 19.1502 11.64ZM15.5102 8.45L14.8902 9.21C14.7902 9.32 14.7202 9.54 14.7302 9.69L14.7902 10.67C14.8302 11.27 14.4002 11.58 13.8402 11.36L12.9302 11C12.7902 10.95 12.5502 10.95 12.4102 11L11.5002 11.36C10.9402 11.58 10.5102 11.27 10.5502 10.67L10.6102 9.69C10.6202 9.54 10.5502 9.32 10.4502 9.21L9.8302 8.45C9.4402 7.99 9.6102 7.48 10.1902 7.33L11.1402 7.09C11.2902 7.05 11.4702 6.91 11.5502 6.78L12.0802 5.96C12.4102 5.45 12.9302 5.45 13.2602 5.96L13.7902 6.78C13.8702 6.91 14.0502 7.05 14.2002 7.09L15.1502 7.33C15.7302 7.48 15.9002 7.99 15.5102 8.45Z" fill="#292D32"/>
</svg>
