<svg width="25" height="24" viewBox="0 0 25 24" fill="none" xmlns="http://www.w3.org/2000/svg">
<path d="M19.3596 11.53C18.7896 11.38 18.1196 11.3 17.3196 11.3C16.2096 11.3 15.7996 11.57 15.2296 12C15.1996 12.02 15.1696 12.05 15.1396 12.08L14.1896 13.09C13.3896 13.93 11.9496 13.94 11.1496 13.08L10.1996 12.08C10.1696 12.05 10.1396 12.02 10.1096 12C9.53961 11.57 9.12961 11.3 8.01961 11.3C7.21961 11.3 6.54961 11.38 5.97961 11.53C3.59961 12.17 3.59961 14.06 3.59961 15.72V16.65C3.59961 19.16 3.59961 22 8.94961 22H16.3896C19.9396 22 21.7396 20.2 21.7396 16.65V15.72C21.7396 14.06 21.7396 12.17 19.3596 11.53ZM14.9996 18.4H10.3396C9.95961 18.4 9.64961 18.09 9.64961 17.7C9.64961 17.31 9.95961 17 10.3396 17H14.9996C15.3796 17 15.6896 17.31 15.6896 17.7C15.6896 18.09 15.3796 18.4 14.9996 18.4Z" fill="#292D32"/>
<path d="M19.88 6.42V10.12C19.84 10.1 19.79 10.09 19.75 10.08C19.05 9.89 18.26 9.8 17.32 9.8C15.78 9.8 15.06 10.25 14.32 10.81C14.22 10.88 14.13 10.97 14.05 11.05L13.09 12.06C13 12.16 12.84 12.22 12.67 12.22C12.5 12.22 12.34 12.16 12.24 12.05L11.3 11.06C11.21 10.96 11.11 10.87 11.01 10.8C10.29 10.25 9.55996 9.8 8.01996 9.8C7.07996 9.8 6.28996 9.89 5.58996 10.08C5.54996 10.09 5.49996 10.1 5.45996 10.12V6.42C5.45996 4.35 5.45996 2 9.87996 2H15.46C19.88 2 19.88 4.35 19.88 6.42Z" fill="#292D32"/>
</svg>
