<svg width="25" height="24" viewBox="0 0 25 24" fill="none" xmlns="http://www.w3.org/2000/svg">
<path d="M19.3596 11.53C18.7896 11.38 18.1196 11.3 17.3196 11.3C16.2096 11.3 15.7996 11.57 15.2296 12C15.1996 12.02 15.1696 12.05 15.1396 12.08L14.1896 13.09C13.3996 13.94 11.9496 13.94 11.1496 13.09L10.1996 12.09C10.1696 12.05 10.1396 12.02 10.1096 12C9.52961 11.57 9.11961 11.3 8.01961 11.3C7.21961 11.3 6.54961 11.37 5.97961 11.53C3.59961 12.17 3.59961 14.06 3.59961 15.72V16.65C3.59961 19.16 3.59961 22 8.94961 22H16.3896C19.9396 22 21.7396 20.2 21.7396 16.65V15.72C21.7396 14.06 21.7396 12.17 19.3596 11.53Z" fill="#292D32"/>
<path d="M15.46 2H9.87996C5.45996 2 5.45996 4.35 5.45996 6.42V10.12C5.49996 10.1 5.54996 10.09 5.58996 10.08C6.28996 9.89 7.07996 9.8 8.01996 9.8C9.55996 9.8 10.29 10.25 11.01 10.8C11.11 10.87 11.21 10.96 11.3 11.06L12.24 12.05C12.34 12.16 12.5 12.22 12.67 12.22C12.84 12.22 13 12.16 13.09 12.06L14.05 11.05C14.13 10.97 14.22 10.88 14.32 10.81C15.06 10.25 15.78 9.8 17.32 9.8C18.26 9.8 19.05 9.89 19.75 10.08C19.79 10.09 19.84 10.1 19.88 10.12V6.42C19.88 4.35 19.88 2 15.46 2ZM14.22 8.5H11.12C10.74 8.5 10.42 8.18 10.42 7.8C10.42 7.41 10.74 7.1 11.12 7.1H14.22C14.6 7.1 14.92 7.41 14.92 7.8C14.92 8.18 14.6 8.5 14.22 8.5ZM15 5.71H10.34C9.95996 5.71 9.64996 5.39 9.64996 5.01C9.64996 4.62 9.95996 4.31 10.34 4.31H15C15.38 4.31 15.69 4.62 15.69 5.01C15.69 5.39 15.38 5.71 15 5.71Z" fill="#292D32"/>
</svg>
