<svg width="25" height="24" viewBox="0 0 25 24" fill="none" xmlns="http://www.w3.org/2000/svg">
<path d="M19.6699 8C21.3268 8 22.6699 6.65685 22.6699 5C22.6699 3.34315 21.3268 2 19.6699 2C18.0131 2 16.6699 3.34315 16.6699 5C16.6699 6.65685 18.0131 8 19.6699 8Z" fill="#292D32"/>
<path d="M21.0099 12.72H17.6999C16.7699 12.72 15.9399 13.24 15.5199 14.06L14.7199 15.64C14.5299 16.02 14.1499 16.25 13.7299 16.25H10.6199C10.3299 16.25 9.89992 16.19 9.62992 15.63L8.83992 14.06C8.41992 13.23 7.58992 12.71 6.65992 12.71H3.32992C2.96992 12.72 2.66992 13.02 2.66992 13.38V16.47C2.66992 19.94 4.73992 22 8.19992 22H16.1599C19.4199 22 21.4299 20.21 21.6699 17.04V13.38C21.6699 13.02 21.3699 12.72 21.0099 12.72Z" fill="#292D32"/>
<path d="M21.6699 10.4V11.33C21.4599 11.26 21.2399 11.22 21.0099 11.22H17.6999C16.1999 11.22 14.8499 12.05 14.1899 13.39L13.4899 14.76H10.8599L10.1799 13.4C9.49992 12.05 8.15992 11.22 6.65992 11.22H3.32992C3.09992 11.22 2.87992 11.26 2.66992 11.33V8.52C2.66992 5.47 5.13992 3 8.18992 3H14.2699C14.9099 3 15.3699 3.58 15.2499 4.2C15.0899 5 15.1599 5.87 15.5499 6.79C15.9999 7.83 16.8399 8.67 17.8799 9.12C18.7999 9.51 19.6699 9.58 20.4699 9.42C21.0899 9.3 21.6699 9.76 21.6699 10.4Z" fill="#292D32"/>
</svg>
