<svg width="25" height="24" viewBox="0 0 25 24" fill="none" xmlns="http://www.w3.org/2000/svg">
<path d="M12.6719 2C7.15188 2 2.67188 6.48 2.67188 12C2.67188 17.52 7.15188 22 12.6719 22C18.1919 22 22.6719 17.52 22.6719 12C22.6719 6.48 18.1919 2 12.6719 2ZM9.67188 8C10.2219 8 10.6719 8.45 10.6719 9C10.6719 9.55 10.2319 10 9.67188 10C9.12187 10 8.67188 9.55 8.67188 9C8.67188 8.45 9.12187 8 9.67188 8ZM10.2019 15.53C10.0519 15.68 9.86188 15.75 9.67188 15.75C9.48187 15.75 9.29188 15.68 9.14188 15.53C8.85188 15.24 8.85188 14.76 9.14188 14.47L15.1419 8.47C15.4319 8.18 15.9119 8.18 16.2019 8.47C16.4919 8.76 16.4919 9.24 16.2019 9.53L10.2019 15.53ZM15.6719 16C15.1119 16 14.6619 15.55 14.6619 15C14.6619 14.45 15.1119 14 15.6619 14C16.2119 14 16.6619 14.45 16.6619 15C16.6619 15.55 16.2219 16 15.6719 16Z" fill="#292D32"/>
</svg>
