<svg width="25" height="24" viewBox="0 0 25 24" fill="none" xmlns="http://www.w3.org/2000/svg">
<path d="M21.1699 10.19H18.2799C15.9099 10.19 13.9799 8.26 13.9799 5.89V3C13.9799 2.45 13.5299 2 12.9799 2H8.73992C5.65992 2 3.16992 4 3.16992 7.57V16.43C3.16992 20 5.65992 22 8.73992 22H16.5999C19.6799 22 22.1699 20 22.1699 16.43V11.19C22.1699 10.64 21.7199 10.19 21.1699 10.19ZM13.1499 15.7C12.6299 17.37 10.7999 18.27 10.1699 18.27C9.52992 18.27 7.73992 17.4 7.18992 15.7C6.82992 14.59 7.23992 13.14 8.50992 12.73C9.08992 12.54 9.70992 12.65 10.1599 13C10.6099 12.65 11.2299 12.54 11.8199 12.73C13.0999 13.14 13.4999 14.59 13.1499 15.7Z" fill="#292D32"/>
<path d="M18.1001 8.80999C19.0501 8.81999 20.3701 8.81999 21.5001 8.81999C22.0701 8.81999 22.3701 8.14999 21.9701 7.74999C20.5301 6.29999 17.9501 3.68999 16.4701 2.20999C16.0601 1.79999 15.3501 2.07999 15.3501 2.64999V6.13999C15.3501 7.59999 16.5901 8.80999 18.1001 8.80999Z" fill="#292D32"/>
</svg>
