<svg width="25" height="24" viewBox="0 0 25 24" fill="none" xmlns="http://www.w3.org/2000/svg">
<path d="M21.1699 10.19H18.2799C15.9099 10.19 13.9799 8.26 13.9799 5.89V3C13.9799 2.45 13.5299 2 12.9799 2H8.73992C5.65992 2 3.16992 4 3.16992 7.57V16.43C3.16992 20 5.65992 22 8.73992 22H16.5999C19.6799 22 22.1699 20 22.1699 16.43V11.19C22.1699 10.64 21.7199 10.19 21.1699 10.19ZM13.0699 15.58L11.2099 17.44C10.9799 17.67 10.6599 17.8 10.3199 17.8C9.97992 17.8 9.66992 17.67 9.42992 17.44L7.56992 15.58C7.15992 15.17 7.08992 14.48 7.41992 14L8.26992 12.72C8.47992 12.39 8.91992 12.16 9.30992 12.16H11.3199C11.7099 12.16 12.1399 12.39 12.3599 12.72L13.2199 14C13.5299 14.48 13.4699 15.17 13.0699 15.58Z" fill="#292D32"/>
<path d="M18.1001 8.80999C19.0501 8.81999 20.3701 8.81999 21.5001 8.81999C22.0701 8.81999 22.3701 8.14999 21.9701 7.74999C20.5301 6.29999 17.9501 3.68999 16.4701 2.20999C16.0601 1.79999 15.3501 2.07999 15.3501 2.64999V6.13999C15.3501 7.59999 16.5901 8.80999 18.1001 8.80999Z" fill="#292D32"/>
</svg>
