<svg width="25" height="24" viewBox="0 0 25 24" fill="none" xmlns="http://www.w3.org/2000/svg">
<path d="M3.89992 1H12.0299C12.7099 1 13.2599 1.56 13.2599 2.25V3.62C13.2599 4.12 12.9499 4.74 12.6399 5.05L9.99992 7.43C9.62992 7.74 9.38992 8.36 9.38992 8.86V11.54C9.38992 11.91 9.13992 12.41 8.83992 12.6L7.96992 13.17C7.16992 13.67 6.05992 13.11 6.05992 12.11V8.8C6.05992 8.36 5.80992 7.8 5.56992 7.49L3.22992 4.99C2.91992 4.68 2.66992 4.12 2.66992 3.75V2.31C2.66992 1.56 3.21992 1 3.89992 1Z" fill="#292D32"/>
<path d="M17.6699 2H15.2699C14.9899 2 14.7699 2.22 14.7699 2.5C14.7699 2.98 14.7699 3.62 14.7699 3.62C14.7699 4.61 14.2399 5.58 13.7199 6.11L10.9999 8.54C10.9699 8.61 10.9199 8.71 10.8899 8.79V11.54C10.8899 12.45 10.3499 13.44 9.60992 13.89L8.78992 14.42C8.32992 14.71 7.81992 14.85 7.30992 14.85C6.84992 14.85 6.38992 14.73 5.96992 14.5C5.45246 14.2134 5.06175 13.781 4.82302 13.2736C4.70105 13.0143 4.66992 12.7245 4.66992 12.438V10.21C4.66992 10.08 4.61992 9.95 4.51992 9.86L3.51992 8.86C3.20992 8.54 2.66992 8.76 2.66992 9.21V17C2.66992 19.76 4.90992 22 7.66992 22H17.6699C20.4299 22 22.6699 19.76 22.6699 17V7C22.6699 4.24 20.4299 2 17.6699 2ZM18.6699 17.75H11.6699C11.2599 17.75 10.9199 17.41 10.9199 17C10.9199 16.59 11.2599 16.25 11.6699 16.25H18.6699C19.0799 16.25 19.4199 16.59 19.4199 17C19.4199 17.41 19.0799 17.75 18.6699 17.75ZM18.6699 13.75H13.6699C13.2599 13.75 12.9199 13.41 12.9199 13C12.9199 12.59 13.2599 12.25 13.6699 12.25H18.6699C19.0799 12.25 19.4199 12.59 19.4199 13C19.4199 13.41 19.0799 13.75 18.6699 13.75Z" fill="#292D32"/>
</svg>
