<svg width="25" height="24" viewBox="0 0 25 24" fill="none" xmlns="http://www.w3.org/2000/svg">
<path d="M21.1699 10.19H18.2799C15.9099 10.19 13.9799 8.26 13.9799 5.89V3C13.9799 2.45 13.5299 2 12.9799 2H8.73992C5.65992 2 3.16992 4 3.16992 7.57V16.43C3.16992 20 5.65992 22 8.73992 22H16.5999C19.6799 22 22.1699 20 22.1699 16.43V11.19C22.1699 10.64 21.7199 10.19 21.1699 10.19ZM14.4199 14.94C14.4199 14.99 14.4199 15.05 14.4199 15.1C14.3999 15.24 14.3399 15.37 14.2399 15.49C14.2299 15.5 14.2099 15.52 14.1999 15.53L12.1999 17.53C12.0499 17.68 11.8599 17.75 11.6699 17.75C11.4799 17.75 11.2899 17.68 11.1399 17.53C10.8499 17.24 10.8499 16.76 11.1399 16.47L11.8599 15.75H7.66992C7.25992 15.75 6.91992 15.41 6.91992 15C6.91992 14.59 7.25992 14.25 7.66992 14.25H11.8599L11.1399 13.53C10.9899 13.38 10.9199 13.19 10.9199 13C10.9199 12.81 10.9899 12.62 11.1399 12.47C11.4299 12.18 11.9099 12.18 12.1999 12.47L14.1999 14.47C14.3299 14.61 14.3999 14.77 14.4199 14.94Z" fill="#292D32"/>
<path d="M18.1001 8.80999C19.0501 8.81999 20.3701 8.81999 21.5001 8.81999C22.0701 8.81999 22.3701 8.14999 21.9701 7.74999C20.5301 6.29999 17.9501 3.68999 16.4701 2.20999C16.0601 1.79999 15.3501 2.07999 15.3501 2.64999V6.13999C15.3501 7.59999 16.5901 8.80999 18.1001 8.80999Z" fill="#292D32"/>
</svg>
