<svg width="25" height="24" viewBox="0 0 25 24" fill="none" xmlns="http://www.w3.org/2000/svg">
<path d="M13.4219 15.9199H14.0719C14.7219 15.9199 15.2619 15.3399 15.2619 14.6399C15.2619 13.7699 14.9519 13.5999 14.4419 13.4199L13.4319 13.0699V15.9199H13.4219Z" fill="#292D32"/>
<path d="M12.6419 1.90004C7.12194 1.92004 2.65194 6.41004 2.67194 11.93C2.69194 17.45 7.18194 21.92 12.7019 21.9C18.2219 21.88 22.6919 17.39 22.6719 11.87C22.6519 6.35004 18.1619 1.89004 12.6419 1.90004ZM14.9319 12C15.7119 12.27 16.7619 12.85 16.7619 14.64C16.7619 16.18 15.5519 17.42 14.0719 17.42H13.4219V18C13.4219 18.41 13.0819 18.75 12.6719 18.75C12.2619 18.75 11.9219 18.41 11.9219 18V17.42H11.5619C9.92194 17.42 8.59194 16.04 8.59194 14.34C8.59194 13.93 8.93194 13.59 9.34194 13.59C9.75194 13.59 10.0919 13.93 10.0919 14.34C10.0919 15.21 10.7519 15.92 11.5619 15.92H11.9219V12.54L10.4119 12C9.63194 11.73 8.58194 11.15 8.58194 9.36004C8.58194 7.82004 9.79194 6.58004 11.2719 6.58004H11.9219V6.00004C11.9219 5.59004 12.2619 5.25004 12.6719 5.25004C13.0819 5.25004 13.4219 5.59004 13.4219 6.00004V6.58004H13.7819C15.4219 6.58004 16.7519 7.96004 16.7519 9.66004C16.7519 10.07 16.4119 10.41 16.0019 10.41C15.5919 10.41 15.2519 10.07 15.2519 9.66004C15.2519 8.79004 14.5919 8.08004 13.7819 8.08004H13.4219V11.46L14.9319 12Z" fill="#292D32"/>
<path d="M10.0918 9.36996C10.0918 10.24 10.4018 10.41 10.9118 10.59L11.9218 10.94V8.07996H11.2718C10.6218 8.07996 10.0918 8.65996 10.0918 9.36996Z" fill="#292D32"/>
</svg>
