<svg width="25" height="24" viewBox="0 0 25 24" fill="none" xmlns="http://www.w3.org/2000/svg">
<path d="M12.6699 18.75C12.2599 18.75 11.9199 18.41 11.9199 18V17C11.9199 16.59 12.2599 16.25 12.6699 16.25C13.0799 16.25 13.4199 16.59 13.4199 17V18C13.4199 18.41 13.0799 18.75 12.6699 18.75Z" fill="#292D32"/>
<path d="M12.6699 22.75C12.2599 22.75 11.9199 22.41 11.9199 22V21C11.9199 20.59 12.2599 20.25 12.6699 20.25C13.0799 20.25 13.4199 20.59 13.4199 21V22C13.4199 22.41 13.0799 22.75 12.6699 22.75Z" fill="#292D32"/>
<path d="M2.67002 22.7501C2.61002 22.7501 2.55002 22.7401 2.49002 22.7301C2.09002 22.6301 1.84002 22.2201 1.94002 21.8201L2.94002 17.8201C3.04002 17.4201 3.44002 17.1701 3.85002 17.2701C4.25002 17.3701 4.50002 17.7801 4.40002 18.1801L3.40002 22.1801C3.31002 22.5201 3.01002 22.7501 2.67002 22.7501Z" fill="#292D32"/>
<path d="M22.4226 22.5026C22.0826 22.5026 21.7826 22.2726 21.6926 21.9326L20.6926 17.9326C20.5926 17.5326 20.8326 17.1226 21.2426 17.0226C21.6426 16.9226 22.0526 17.1626 22.1526 17.5726L23.1526 21.5726C23.2526 21.9726 23.0126 22.3826 22.6026 22.4826C22.5426 22.4926 22.4826 22.5026 22.4226 22.5026Z" fill="#292D32"/>
<path d="M19.8102 5.3C19.8102 5.6 19.5602 5.84 19.2702 5.84H6.20016C5.90016 5.84 5.66016 5.59 5.66016 5.3C5.66016 5 5.91016 4.76 6.20016 4.76H6.94016L7.22016 3.45C7.48016 2.17 8.02016 1 10.1802 1H15.2702C17.4302 1 17.9802 2.17 18.2402 3.44L18.5202 4.75H19.2602C19.5602 4.75 19.8102 5 19.8102 5.3Z" fill="#292D32"/>
<path d="M20.1201 9.39993C20.0101 8.19993 19.6901 6.92993 17.3601 6.92993H8.10007C5.77007 6.92993 5.46007 8.20993 5.34007 9.39993L4.93007 13.8199C4.88007 14.3699 5.06007 14.9199 5.44007 15.3399C5.83007 15.7599 6.37007 15.9999 6.95007 15.9999H8.31007C9.49007 15.9999 9.71007 15.3299 9.86007 14.8799L10.0101 14.4399C10.1801 13.9399 10.2201 13.8199 10.8701 13.8199H14.5901C15.2401 13.8199 15.2601 13.8899 15.4501 14.4399L15.6001 14.8799C15.7401 15.3299 15.9701 15.9999 17.1401 15.9999H18.5001C19.0701 15.9999 19.6201 15.7599 20.0101 15.3399C20.3901 14.9299 20.5701 14.3699 20.5201 13.8199L20.1201 9.39993ZM10.5501 10.9199H8.38007C8.08007 10.9199 7.84007 10.6699 7.84007 10.3799C7.84007 10.0899 8.09007 9.83993 8.38007 9.83993H10.5601C10.8601 9.83993 11.1001 10.0899 11.1001 10.3799C11.1001 10.6699 10.8501 10.9199 10.5501 10.9199ZM17.0801 10.9199H14.9001C14.6001 10.9199 14.3601 10.6699 14.3601 10.3799C14.3601 10.0899 14.6101 9.83993 14.9001 9.83993H17.0801C17.3801 9.83993 17.6201 10.0899 17.6201 10.3799C17.6201 10.6699 17.3801 10.9199 17.0801 10.9199Z" fill="#292D32"/>
</svg>
