<svg width="25" height="24" viewBox="0 0 25 24" fill="none" xmlns="http://www.w3.org/2000/svg">
<path d="M11.6699 19.9V4.1C11.6699 2.6 11.0299 2 9.43992 2H5.39992C3.80992 2 3.16992 2.6 3.16992 4.1V19.9C3.16992 21.4 3.80992 22 5.39992 22H9.43992C11.0299 22 11.6699 21.4 11.6699 19.9Z" fill="#292D32"/>
<path d="M22.1699 10.9V4.1C22.1699 2.6 21.5299 2 19.9399 2H15.8999C14.3099 2 13.6699 2.6 13.6699 4.1V10.9C13.6699 12.4 14.3099 13 15.8999 13H19.9399C21.5299 13 22.1699 12.4 22.1699 10.9Z" fill="#292D32"/>
<path d="M22.1699 19.9V17.1C22.1699 15.6 21.5299 15 19.9399 15H15.8999C14.3099 15 13.6699 15.6 13.6699 17.1V19.9C13.6699 21.4 14.3099 22 15.8999 22H19.9399C21.5299 22 22.1699 21.4 22.1699 19.9Z" fill="#292D32"/>
</svg>
