<svg width="25" height="24" viewBox="0 0 25 24" fill="none" xmlns="http://www.w3.org/2000/svg">
<path d="M16.8599 2H8.47992C4.83992 2 2.66992 4.17 2.66992 7.81V16.18C2.66992 19.83 4.83992 22 8.47992 22H16.8499C20.4899 22 22.6599 19.83 22.6599 16.19V7.81C22.6699 4.17 20.4999 2 16.8599 2ZM9.16992 6.38C10.1999 6.38 11.0499 7.22 11.0499 8.26C11.0499 9.3 10.2099 10.14 9.16992 10.14C8.12992 10.14 7.28992 9.28 7.28992 8.25C7.28992 7.22 8.13992 6.38 9.16992 6.38ZM12.6699 19.08C9.97992 19.08 7.78992 16.89 7.78992 14.2C7.78992 13.5 8.35992 12.92 9.05992 12.92H16.2599C16.9599 12.92 17.5299 13.49 17.5299 14.2C17.5499 16.89 15.3599 19.08 12.6699 19.08ZM16.1699 10.12C15.1399 10.12 14.2899 9.28 14.2899 8.24C14.2899 7.2 15.1299 6.36 16.1699 6.36C17.2099 6.36 18.0499 7.2 18.0499 8.24C18.0499 9.28 17.1999 10.12 16.1699 10.12Z" fill="#292D32"/>
</svg>
