<svg width="25" height="24" viewBox="0 0 25 24" fill="none" xmlns="http://www.w3.org/2000/svg">
<path d="M16.8599 2H8.47992C4.83992 2 2.66992 4.17 2.66992 7.81V16.18C2.66992 19.83 4.83992 22 8.47992 22H16.8499C20.4899 22 22.6599 19.83 22.6599 16.19V7.81C22.6699 4.17 20.4999 2 16.8599 2ZM7.13992 7.72C7.42992 7.43 7.90992 7.43 8.19992 7.72C8.90992 8.43 10.0699 8.43 10.7799 7.72C11.0699 7.43 11.5499 7.43 11.8399 7.72C12.1299 8.01 12.1299 8.49 11.8399 8.78C11.1899 9.43 10.3399 9.75 9.48992 9.75C8.63992 9.75 7.78992 9.43 7.13992 8.78C6.84992 8.48 6.84992 8.01 7.13992 7.72ZM12.6699 18.78C9.97992 18.78 7.78992 16.59 7.78992 13.9C7.78992 13.2 8.35992 12.62 9.05992 12.62H16.2599C16.9599 12.62 17.5299 13.19 17.5299 13.9C17.5499 16.59 15.3599 18.78 12.6699 18.78ZM18.1999 8.78C17.5499 9.43 16.6999 9.75 15.8499 9.75C14.9999 9.75 14.1499 9.43 13.4999 8.78C13.2099 8.49 13.2099 8.01 13.4999 7.72C13.7899 7.43 14.2699 7.43 14.5599 7.72C15.2699 8.43 16.4299 8.43 17.1399 7.72C17.4299 7.43 17.9099 7.43 18.1999 7.72C18.4899 8.01 18.4899 8.48 18.1999 8.78Z" fill="#292D32"/>
</svg>
