<svg width="25" height="24" viewBox="0 0 25 24" fill="none" xmlns="http://www.w3.org/2000/svg">
<path d="M5.68164 15C4.66164 15 3.72164 15.39 3.01164 16.03C2.85164 16.17 2.70164 16.32 2.57164 16.49C2.01164 17.18 1.68164 18.05 1.68164 19C1.68164 21.21 3.48164 23 5.68164 23C6.64164 23 7.51164 22.66 8.20164 22.11C8.76164 21.64 9.20164 21.03 9.44164 20.33C9.60164 19.92 9.68164 19.47 9.68164 19C9.68164 16.8 7.89164 15 5.68164 15ZM8.08164 18.23C8.08164 18.51 7.86164 18.72 7.59164 18.72C7.32164 18.72 7.10164 18.51 7.10164 18.23V18.13C7.10164 18.02 7.02164 17.93 6.91164 17.93H4.91164C5.01164 18.12 4.99164 18.35 4.83164 18.51C4.74164 18.6 4.62164 18.65 4.48164 18.65C4.36164 18.65 4.23164 18.6 4.14164 18.51L3.42164 17.79C3.38164 17.75 3.34164 17.69 3.31164 17.63C3.27164 17.51 3.27164 17.38 3.31164 17.26C3.34164 17.21 3.37164 17.14 3.42164 17.1L4.14164 16.39C4.33164 16.19 4.64164 16.19 4.82164 16.39C4.98164 16.54 5.00164 16.78 4.90164 16.96H6.91164C7.55164 16.96 8.07164 17.48 8.07164 18.13V18.23H8.08164ZM6.88164 21.76C6.75164 21.76 6.62164 21.72 6.53164 21.62C6.37164 21.47 6.35164 21.23 6.45164 21.05H4.44164C3.80164 21.05 3.28164 20.53 3.28164 19.88V19.78C3.28164 19.5 3.50164 19.29 3.77164 19.29C4.04164 19.29 4.26164 19.5 4.26164 19.78V19.88C4.26164 19.99 4.34164 20.08 4.45164 20.08H6.46164C6.36164 19.89 6.38164 19.66 6.54164 19.5C6.73164 19.31 7.04164 19.31 7.22164 19.5L7.94164 20.22C7.98164 20.26 8.02164 20.32 8.05164 20.38C8.09164 20.5 8.09164 20.63 8.05164 20.75C8.02164 20.8 7.98164 20.86 7.94164 20.9L7.22164 21.61C7.13164 21.71 7.00164 21.76 6.88164 21.76Z" fill="#292D32"/>
<path d="M15.5316 3.95005V7.75005H14.0316V3.95005C14.0316 3.68005 13.7916 3.55005 13.6316 3.55005C13.5816 3.55005 13.5316 3.56005 13.4816 3.58005L5.55164 6.57005C5.02164 6.77005 4.68164 7.27005 4.68164 7.84005V8.51005C3.77164 9.19005 3.18164 10.28 3.18164 11.51V7.84005C3.18164 6.65005 3.91164 5.59005 5.02164 5.17005L12.9616 2.17005C13.1816 2.09005 13.4116 2.05005 13.6316 2.05005C14.6316 2.05005 15.5316 2.86005 15.5316 3.95005Z" fill="#292D32"/>
<path d="M22.1813 14.5V15.5C22.1813 15.77 21.9713 15.99 21.6913 16H20.2313C19.7013 16 19.2213 15.61 19.1813 15.09C19.1513 14.78 19.2713 14.49 19.4713 14.29C19.6513 14.1 19.9013 14 20.1713 14H21.6813C21.9713 14.01 22.1813 14.23 22.1813 14.5Z" fill="#292D32"/>
<path d="M20.1616 12.95H21.1816C21.7316 12.95 22.1816 12.5 22.1816 11.95V11.51C22.1816 9.44 20.4916 7.75 18.4216 7.75H6.94164C6.09164 7.75 5.31164 8.03 4.68164 8.51C3.77164 9.19 3.18164 10.28 3.18164 11.51V13.29C3.18164 13.67 3.58164 13.91 3.94164 13.79C4.50164 13.6 5.09164 13.5 5.68164 13.5C8.71164 13.5 11.1816 15.97 11.1816 19C11.1816 19.72 10.9916 20.51 10.6916 21.21C10.5316 21.57 10.7816 22 11.1716 22H18.4216C20.4916 22 22.1816 20.31 22.1816 18.24V18.05C22.1816 17.5 21.7316 17.05 21.1816 17.05H20.3116C19.3516 17.05 18.4316 16.46 18.1816 15.53C17.9816 14.77 18.2216 14.03 18.7216 13.55C19.0916 13.17 19.6016 12.95 20.1616 12.95ZM14.6816 12.75H9.68164C9.27164 12.75 8.93164 12.41 8.93164 12C8.93164 11.59 9.27164 11.25 9.68164 11.25H14.6816C15.0916 11.25 15.4316 11.59 15.4316 12C15.4316 12.41 15.0916 12.75 14.6816 12.75Z" fill="#292D32"/>
</svg>
