<svg width="25" height="24" viewBox="0 0 25 24" fill="none" xmlns="http://www.w3.org/2000/svg">
<path d="M8.92954 21.2458C9.57651 20.5988 9.94818 19.7729 10.0445 18.9194C10.1753 17.7838 9.79676 16.6068 8.92954 15.7396C8.41334 15.2234 7.78013 14.8793 7.11251 14.721C5.83921 14.3975 4.42826 14.7347 3.42338 15.7396C2.72823 16.4347 2.34968 17.3226 2.3015 18.238C2.26709 18.6303 2.3015 19.0364 2.40474 19.4287C2.56305 20.0963 2.90718 20.7296 3.42338 21.2458C4.94446 22.7668 7.40846 22.7668 8.92954 21.2458ZM7.63559 17.7769C8.03479 17.7769 8.36516 18.1072 8.36516 18.5064C8.35828 18.9125 8.03479 19.236 7.62871 19.2429L6.90603 19.236L6.91291 19.9312C6.90603 20.3372 6.58254 20.6607 6.17646 20.6676C5.77038 20.6607 5.4469 20.3372 5.44001 19.9312L5.4469 19.236L4.72421 19.2429C4.31813 19.236 3.99465 18.9125 3.98776 18.5064C3.99465 18.3068 4.07724 18.1279 4.20801 17.9971C4.33878 17.8663 4.51773 17.7838 4.71733 17.7769L5.4469 17.7769L5.44689 17.0198C5.44689 16.8133 5.52949 16.6343 5.66026 16.5036C5.79103 16.3728 5.96998 16.2902 6.17646 16.2902C6.57566 16.2902 6.90603 16.6206 6.90603 17.0198L6.90603 17.7769L7.63559 17.7769Z" fill="#292D32"/>
<path d="M15.7651 3.84645V7.54522H14.3051V3.84645C14.3051 3.58365 14.0715 3.45711 13.9158 3.45711C13.8671 3.45711 13.8184 3.46684 13.7697 3.48631L6.051 6.39666C5.53512 6.59133 5.20418 7.07801 5.20418 7.63283V8.28498C4.31842 8.94686 3.74414 10.0078 3.74414 11.2051V7.63283C3.74414 6.47453 4.45469 5.44277 5.53512 5.03395L13.2636 2.11387C13.4777 2.036 13.7016 1.99707 13.9158 1.99707C14.8891 1.99707 15.7651 2.78549 15.7651 3.84645Z" fill="#292D32"/>
<path d="M22.239 14.1162V15.0896C22.239 15.3524 22.0346 15.5665 21.762 15.5762H20.3409C19.8251 15.5762 19.3578 15.1966 19.3189 14.6905C19.2897 14.3887 19.4065 14.1065 19.6012 13.9118C19.7764 13.7269 20.0197 13.6295 20.2825 13.6295H21.7523C22.0346 13.6393 22.239 13.8534 22.239 14.1162Z" fill="#292D32"/>
<path d="M20.2718 12.606H21.2646C21.8 12.606 22.238 12.168 22.238 11.6327V11.2044C22.238 9.18953 20.593 7.54456 18.5781 7.54456H7.40398C6.57662 7.54456 5.8174 7.8171 5.20418 8.28431C4.31842 8.94619 3.74414 10.0072 3.74414 11.2044V12.937C3.74414 13.3068 4.13348 13.5405 4.48389 13.4237C5.02898 13.2387 5.60326 13.1414 6.17754 13.1414C9.12682 13.1414 11.531 15.5456 11.531 18.4949C11.531 19.1957 11.3461 19.9646 11.0541 20.646C10.8983 20.9964 11.1417 21.4149 11.5213 21.4149H18.5781C20.593 21.4149 22.238 19.77 22.238 17.7551V17.5702C22.238 17.0348 21.8 16.5968 21.2646 16.5968H20.4178C19.4834 16.5968 18.5879 16.0225 18.3445 15.1173C18.1499 14.3775 18.3835 13.6573 18.8702 13.19C19.2303 12.8202 19.7267 12.606 20.2718 12.606ZM14.9378 12.4114H10.071C9.6719 12.4114 9.34096 12.0804 9.34096 11.6813C9.34096 11.2823 9.6719 10.9513 10.071 10.9513H14.9378C15.3369 10.9513 15.6678 11.2823 15.6678 11.6813C15.6678 12.0804 15.3369 12.4114 14.9378 12.4114Z" fill="#292D32"/>
</svg>
