<svg width="25" height="24" viewBox="0 0 25 24" fill="none" xmlns="http://www.w3.org/2000/svg">
<path d="M5.67188 15C4.73187 15 3.86188 15.33 3.17188 15.88C2.25187 16.61 1.67188 17.74 1.67188 19C1.67188 19.75 1.88188 20.46 2.25188 21.06C2.94187 22.22 4.21187 23 5.67188 23C6.68188 23 7.60188 22.63 8.30188 22C8.61188 21.74 8.88188 21.42 9.09188 21.06C9.46187 20.46 9.67188 19.75 9.67188 19C9.67188 16.79 7.88188 15 5.67188 15ZM7.74188 18.57L5.61188 20.54C5.47187 20.67 5.28187 20.74 5.10187 20.74C4.91187 20.74 4.72188 20.67 4.57188 20.52L3.58188 19.53C3.29188 19.24 3.29188 18.76 3.58188 18.47C3.87188 18.18 4.35188 18.18 4.64188 18.47L5.12187 18.95L6.72188 17.47C7.02188 17.19 7.50187 17.21 7.78188 17.51C8.06188 17.81 8.04188 18.29 7.74188 18.57Z" fill="#292D32"/>
<path d="M15.5219 3.95005V7.75005H14.0219V3.95005C14.0219 3.68005 13.7819 3.55005 13.6219 3.55005C13.5719 3.55005 13.5219 3.56005 13.4719 3.58005L5.54187 6.57005C5.01187 6.77005 4.67188 7.27005 4.67188 7.84005V8.51005C3.76187 9.19005 3.17188 10.28 3.17188 11.51V7.84005C3.17188 6.65005 3.90188 5.59005 5.01188 5.17005L12.9519 2.17005C13.1719 2.09005 13.4019 2.05005 13.6219 2.05005C14.6219 2.05005 15.5219 2.86005 15.5219 3.95005Z" fill="#292D32"/>
<path d="M22.1716 14.5V15.5C22.1716 15.77 21.9616 15.99 21.6816 16H20.2216C19.6916 16 19.2116 15.61 19.1716 15.09C19.1416 14.78 19.2616 14.49 19.4616 14.29C19.6416 14.1 19.8916 14 20.1616 14H21.6716C21.9616 14.01 22.1716 14.23 22.1716 14.5Z" fill="#292D32"/>
<path d="M20.1519 12.95H21.1719C21.7219 12.95 22.1719 12.5 22.1719 11.95V11.51C22.1719 9.44 20.4819 7.75 18.4119 7.75H6.93188C6.08188 7.75 5.30188 8.03 4.67188 8.51C3.76187 9.19 3.17188 10.28 3.17188 11.51V13.29C3.17188 13.67 3.57187 13.91 3.93187 13.79C4.49187 13.6 5.08188 13.5 5.67188 13.5C8.70187 13.5 11.1719 15.97 11.1719 19C11.1719 19.72 10.9819 20.51 10.6819 21.21C10.5219 21.57 10.7719 22 11.1619 22H18.4119C20.4819 22 22.1719 20.31 22.1719 18.24V18.05C22.1719 17.5 21.7219 17.05 21.1719 17.05H20.3019C19.3419 17.05 18.4219 16.46 18.1719 15.53C17.9719 14.77 18.2119 14.03 18.7119 13.55C19.0819 13.17 19.5919 12.95 20.1519 12.95ZM14.6719 12.75H9.67188C9.26188 12.75 8.92188 12.41 8.92188 12C8.92188 11.59 9.26188 11.25 9.67188 11.25H14.6719C15.0819 11.25 15.4219 11.59 15.4219 12C15.4219 12.41 15.0819 12.75 14.6719 12.75Z" fill="#292D32"/>
</svg>
