<svg width="25" height="24" viewBox="0 0 25 24" fill="none" xmlns="http://www.w3.org/2000/svg">
<path d="M15.5199 3.95005V7.75005H14.0199V3.95005C14.0199 3.68005 13.7799 3.55005 13.6199 3.55005C13.5699 3.55005 13.5199 3.56005 13.4699 3.58005L5.53992 6.57005C5.00992 6.77005 4.66992 7.27005 4.66992 7.84005V8.51005C3.75992 9.19005 3.16992 10.28 3.16992 11.51V7.84005C3.16992 6.65005 3.89992 5.59005 5.00992 5.17005L12.9499 2.17005C13.1699 2.09005 13.3999 2.05005 13.6199 2.05005C14.6199 2.05005 15.5199 2.86005 15.5199 3.95005Z" fill="#292D32"/>
<path d="M22.1696 14.5V15.5C22.1696 15.77 21.9596 15.99 21.6796 16H20.2196C19.6896 16 19.2096 15.61 19.1696 15.09C19.1396 14.78 19.2596 14.49 19.4596 14.29C19.6396 14.1 19.8896 14 20.1596 14H21.6696C21.9596 14.01 22.1696 14.23 22.1696 14.5Z" fill="#292D32"/>
<path d="M20.1499 12.95H21.1699C21.7199 12.95 22.1699 12.5 22.1699 11.95V11.51C22.1699 9.44 20.4799 7.75 18.4099 7.75H6.92992C6.07992 7.75 5.29992 8.03 4.66992 8.51C3.75992 9.19 3.16992 10.28 3.16992 11.51V18.24C3.16992 20.31 4.85992 22 6.92992 22H18.4099C20.4799 22 22.1699 20.31 22.1699 18.24V18.05C22.1699 17.5 21.7199 17.05 21.1699 17.05H20.2999C19.3399 17.05 18.4199 16.46 18.1699 15.53C17.9599 14.77 18.2099 14.04 18.7099 13.55C19.0799 13.17 19.5899 12.95 20.1499 12.95ZM14.6699 12.75H7.66992C7.25992 12.75 6.91992 12.41 6.91992 12C6.91992 11.59 7.25992 11.25 7.66992 11.25H14.6699C15.0799 11.25 15.4199 11.59 15.4199 12C15.4199 12.41 15.0799 12.75 14.6699 12.75Z" fill="#292D32"/>
</svg>
