<svg width="25" height="24" viewBox="0 0 25 24" fill="none" xmlns="http://www.w3.org/2000/svg">
<path d="M9.95004 20.31C10.12 20.79 9.60003 21.23 9.16003 20.97L6.01004 19.18C5.44004 18.85 5.09005 18.06 5.21005 17.42L6.15005 12.75C6.26005 12.2 7.02005 12.15 7.21005 12.67L9.95004 20.31Z" fill="black"/>
<path d="M19.3297 19.18L16.1697 20.98C15.7297 21.23 15.2097 20.8 15.3797 20.32L18.1297 12.61C18.3197 12.09 19.0797 12.14 19.1897 12.69L20.1397 17.42C20.2497 18.06 19.8997 18.85 19.3297 19.18Z" fill="black"/>
<path d="M17.7499 7.32001C17.9899 7.62001 18.0599 8.02001 17.9299 8.38001L13.1899 21.63C13.0199 22.12 12.3299 22.12 12.1599 21.63L7.41992 8.39001C7.28992 8.03001 7.35991 7.63001 7.59991 7.33001L11.4199 2.63001C12.1099 1.80001 13.2499 1.80001 13.9499 2.63001L17.7499 7.32001Z" fill="black"/>
</svg>
