<svg width="25" height="24" viewBox="0 0 25 24" fill="none" xmlns="http://www.w3.org/2000/svg">
<path d="M9.44003 14.43L11.05 15.15C12.08 15.61 13.26 15.61 14.3 15.15L15.91 14.43C17.35 13.79 18.68 15.53 17.68 16.75L14.22 20.98C13.37 22.02 11.98 22.02 11.12 20.98L7.67003 16.75C6.66003 15.53 7.99003 13.79 9.44003 14.43Z" fill="black"/>
<path d="M9.2397 11.67C8.9397 11.89 8.9797 12.35 9.3197 12.52L11.6697 13.69C12.2197 13.97 13.1097 13.97 13.6497 13.69L15.9997 12.52C16.3297 12.35 16.3697 11.9 16.0797 11.67L12.9697 9.33C12.7897 9.2 12.5497 9.2 12.3697 9.33L9.2397 11.67Z" fill="black"/>
<path d="M18.5497 8.23999L14.3797 3.03999C14.2997 2.93999 14.2097 2.84999 14.1197 2.75999C13.8597 2.50999 13.4897 2.73999 13.4897 3.09999V7.39999C13.4897 7.55999 13.5597 7.70999 13.6897 7.79999L17.8397 10.92L18.0197 11.05C18.1997 11.18 18.4497 11.18 18.5997 11.02C19.2997 10.26 19.2897 9.15999 18.5497 8.23999Z" fill="black"/>
<path d="M6.77978 8.33L10.9298 3.05C11.0098 2.95 11.0898 2.86 11.1798 2.77C11.4398 2.52 11.8098 2.74 11.8098 3.11V7.48C11.8098 7.64 11.7398 7.78 11.6098 7.88L7.47977 11.05L7.30978 11.18C7.12978 11.31 6.87978 11.31 6.71978 11.14C6.03978 10.37 6.04978 9.27 6.77978 8.33Z" fill="black"/>
</svg>
