<svg width="25" height="24" viewBox="0 0 25 24" fill="none" xmlns="http://www.w3.org/2000/svg">
<path d="M21.8099 9.90002H13.4199V15.38C13.4199 15.79 13.0799 16.13 12.6699 16.13C12.2599 16.13 11.9199 15.79 11.9199 15.38V9.90002H3.52992C3.04992 9.90002 2.66992 10.28 2.66992 10.76C2.66992 16.65 6.77992 20.76 12.6699 20.76C18.5599 20.76 22.6699 16.65 22.6699 10.76C22.6699 10.28 22.2899 9.90002 21.8099 9.90002Z" fill="#292D32"/>
<path d="M13.4198 5.80005L14.9798 7.36005C15.2698 7.65005 15.7498 7.65005 16.0398 7.36005C16.3298 7.07005 16.3298 6.59005 16.0398 6.30005L13.1898 3.46005C12.8998 3.17005 12.4198 3.17005 12.1298 3.46005L9.28982 6.31005C9.14982 6.46005 9.06982 6.65005 9.06982 6.84005C9.06982 7.03005 9.13982 7.22005 9.28982 7.37005C9.57982 7.66005 10.0598 7.66005 10.3498 7.37005L11.9098 5.81005V9.90005H13.4098V5.80005H13.4198Z" fill="#292D32"/>
</svg>
