<svg width="25" height="24" viewBox="0 0 25 24" fill="none" xmlns="http://www.w3.org/2000/svg">
<path d="M21.9199 9.15018C19.6099 5.52017 16.2299 3.43018 12.6699 3.43018C10.8899 3.43018 9.15992 3.95018 7.57992 4.92018C5.99992 5.90018 4.57992 7.33017 3.41992 9.15018C2.41992 10.7202 2.41992 13.2702 3.41992 14.8402C5.72992 18.4802 9.10992 20.5602 12.6699 20.5602C14.4499 20.5602 16.1799 20.0402 17.7599 19.0702C19.3399 18.0902 20.7599 16.6602 21.9199 14.8402C22.9199 13.2802 22.9199 10.7202 21.9199 9.15018ZM12.6699 16.0402C10.4299 16.0402 8.62992 14.2302 8.62992 12.0002C8.62992 9.77018 10.4299 7.96018 12.6699 7.96018C14.9099 7.96018 16.7099 9.77018 16.7099 12.0002C16.7099 14.2302 14.9099 16.0402 12.6699 16.0402Z" fill="#292D32"/>
<path d="M12.6698 9.14014C11.0998 9.14014 9.81982 10.4201 9.81982 12.0001C9.81982 13.5701 11.0998 14.8501 12.6698 14.8501C14.2398 14.8501 15.5298 13.5701 15.5298 12.0001C15.5298 10.4301 14.2398 9.14014 12.6698 9.14014Z" fill="#292D32"/>
</svg>
