<svg width="25" height="24" viewBox="0 0 25 24" fill="none" xmlns="http://www.w3.org/2000/svg">
<path d="M22.6699 16.19C22.6699 19.83 20.4999 22 16.8599 22H15.6699C15.1199 22 14.6699 21.55 14.6699 21V15.23C14.6699 14.96 14.8899 14.73 15.1599 14.73L16.9199 14.7C17.0599 14.69 17.1799 14.59 17.2099 14.45L17.5599 12.54C17.5899 12.36 17.4499 12.19 17.2599 12.19L15.1299 12.22C14.8499 12.22 14.6299 12 14.6199 11.73L14.5799 9.28C14.5799 9.12 14.7099 8.98001 14.8799 8.98001L17.2799 8.94C17.4499 8.94 17.5799 8.81001 17.5799 8.64001L17.5399 6.23999C17.5399 6.06999 17.4099 5.94 17.2399 5.94L14.5399 5.98001C12.8799 6.01001 11.5599 7.37 11.5899 9.03L11.6399 11.78C11.6499 12.06 11.4299 12.28 11.1499 12.29L9.94992 12.31C9.77992 12.31 9.64993 12.44 9.64993 12.61L9.67993 14.51C9.67993 14.68 9.80992 14.81 9.97992 14.81L11.1799 14.79C11.4599 14.79 11.6799 15.01 11.6899 15.28L11.7799 20.98C11.7899 21.54 11.3399 22 10.7799 22H8.47992C4.83992 22 2.66992 19.83 2.66992 16.18V7.81C2.66992 4.17 4.83992 2 8.47992 2H16.8599C20.4999 2 22.6699 4.17 22.6699 7.81V16.19Z" fill="black"/>
</svg>
