<svg width="25" height="24" viewBox="0 0 25 24" fill="none" xmlns="http://www.w3.org/2000/svg">
<path d="M19.7898 14.9399L20.1098 15.5899C20.2698 15.9099 20.6798 16.2099 21.0198 16.2699L21.4498 16.3399C22.7598 16.5599 23.0598 17.5199 22.1298 18.4599L21.7298 18.8599C21.4598 19.1299 21.3198 19.6499 21.3998 20.0299L21.4498 20.2699C21.8098 21.8499 20.9698 22.4599 19.5998 21.6299L19.3098 21.4499C18.9598 21.2399 18.3798 21.2399 18.0298 21.4499L17.7398 21.6299C16.3598 22.4599 15.5298 21.8499 15.8898 20.2699L15.9398 20.0299C16.0198 19.6599 15.8798 19.1299 15.6098 18.8599L15.2098 18.4599C14.2798 17.5099 14.5798 16.5599 15.8898 16.3399L16.3198 16.2699C16.6698 16.2099 17.0698 15.9099 17.2298 15.5899L17.5498 14.9399C18.1698 13.6899 19.1698 13.6899 19.7898 14.9399Z" fill="#292D32"/>
<path d="M16.8599 2H8.47992C4.83992 2 2.66992 4.17 2.66992 7.81V16.19C2.66992 19.83 4.83992 22 8.47992 22H13.7599C14.1099 22 14.3599 21.64 14.3199 21.29C14.2799 20.91 14.2999 20.46 14.4199 19.94C14.4399 19.87 14.4199 19.79 14.3599 19.73L14.1399 19.51C13.2899 18.65 12.9799 17.61 13.2799 16.66C13.5899 15.72 14.4499 15.06 15.6399 14.86L15.9399 14.81L16.2099 14.27C16.7599 13.15 17.6599 12.5 18.6699 12.5C19.6799 12.5 20.5799 13.15 21.1299 14.27L21.2799 14.58C21.3499 14.73 21.4899 14.83 21.6499 14.86C21.7399 14.88 21.8299 14.9 21.9199 14.92C22.2699 15.01 22.6699 14.73 22.6699 14.36V7.81C22.6699 4.17 20.4999 2 16.8599 2ZM16.9299 8.96L14.6199 11.94C14.3299 12.31 13.9199 12.55 13.4499 12.6C12.9899 12.66 12.5199 12.53 12.1599 12.24L10.3299 10.82C10.2599 10.76 10.1799 10.76 10.1399 10.77C10.0999 10.77 10.0299 10.79 9.96992 10.87L7.58992 13.96C7.43992 14.15 7.21992 14.25 6.98992 14.25C6.82992 14.25 6.66992 14.2 6.52992 14.09C6.19992 13.84 6.13992 13.37 6.38992 13.04L8.76992 9.95C9.05992 9.58 9.46992 9.34 9.93992 9.28C10.4099 9.22 10.8699 9.35 11.2399 9.64L13.0699 11.08C13.1399 11.14 13.2099 11.13 13.2599 11.13C13.2999 11.13 13.3699 11.11 13.4299 11.03L15.7399 8.05C15.9899 7.72 16.4599 7.66 16.7899 7.92C17.1299 8.17 17.1799 8.64 16.9299 8.96Z" fill="#292D32"/>
</svg>
