<svg width="25" height="24" viewBox="0 0 25 24" fill="none" xmlns="http://www.w3.org/2000/svg">
<path d="M18.5898 6.37C18.2598 6.29 17.9098 6.25 17.5498 6.25C14.9298 6.25 12.7998 8.38 12.7998 11C12.7998 11.89 13.0498 12.73 13.4898 13.45C13.8598 14.07 14.3698 14.6 14.9898 14.98C15.7298 15.47 16.6098 15.75 17.5498 15.75C19.2898 15.75 20.7998 14.82 21.6198 13.45C22.0598 12.73 22.2998 11.89 22.2998 11C22.2998 8.74 20.7198 6.84 18.5898 6.37ZM19.4998 10.57L17.0698 13C16.9798 13.09 16.7898 13.18 16.6598 13.2L15.7298 13.33C15.3898 13.38 15.1598 13.14 15.2098 12.81L15.3398 11.88C15.3598 11.75 15.4498 11.57 15.5398 11.47L17.6198 9.39L17.9698 9.04C18.3898 8.62 18.8798 8.42 19.4898 9.04C20.0998 9.66 19.9198 10.15 19.4998 10.57Z" fill="#292D32"/>
<path d="M21.2498 4.02V4.98C21.2498 5.39 20.7798 5.64 20.4098 5.45C19.9498 5.21 19.4598 5.03 18.9398 4.91C18.4998 4.8 18.0298 4.75 17.5498 4.75C14.0998 4.75 11.2998 7.55 11.2998 11C11.2998 12.14 11.6098 13.26 12.1998 14.22C12.6998 15.06 13.3998 15.76 14.1598 16.23C14.3298 16.34 14.5098 16.44 14.6798 16.54C14.8498 16.63 14.9698 16.81 14.9698 17V19.07C14.9698 19.68 14.5698 20.49 14.0698 20.79L12.6698 21.7C11.3698 22.51 9.57984 21.6 9.57984 19.98V14.63C9.57984 13.92 9.17984 13.01 8.77984 12.51L4.98984 8.47C4.48984 7.96 4.08984 7.05 4.08984 6.45V4.12C4.08984 2.91 4.98984 2 6.07984 2H19.2598C20.3498 2 21.2498 2.91 21.2498 4.02Z" fill="#292D32"/>
</svg>
