<svg width="25" height="24" viewBox="0 0 25 24" fill="none" xmlns="http://www.w3.org/2000/svg">
<path d="M22.6699 9.75C22.2599 9.75 21.9199 9.41 21.9199 9V7C21.9199 4.42 20.2499 2.75 17.6699 2.75H15.6699C15.2599 2.75 14.9199 2.41 14.9199 2C14.9199 1.59 15.2599 1.25 15.6699 1.25H17.6699C21.1099 1.25 23.4199 3.56 23.4199 7V9C23.4199 9.41 23.0799 9.75 22.6699 9.75Z" fill="#292D32"/>
<path d="M2.66992 9.75C2.25992 9.75 1.91992 9.41 1.91992 9V7C1.91992 3.56 4.22992 1.25 7.66992 1.25H9.66992C10.0799 1.25 10.4199 1.59 10.4199 2C10.4199 2.41 10.0799 2.75 9.66992 2.75H7.66992C5.08992 2.75 3.41992 4.42 3.41992 7V9C3.41992 9.41 3.07992 9.75 2.66992 9.75Z" fill="#292D32"/>
<path d="M17.6699 22.75H15.6699C15.2599 22.75 14.9199 22.41 14.9199 22C14.9199 21.59 15.2599 21.25 15.6699 21.25H17.6699C20.2499 21.25 21.9199 19.58 21.9199 17V15C21.9199 14.59 22.2599 14.25 22.6699 14.25C23.0799 14.25 23.4199 14.59 23.4199 15V17C23.4199 20.44 21.1099 22.75 17.6699 22.75Z" fill="#292D32"/>
<path d="M9.66992 22.75H7.66992C4.22992 22.75 1.91992 20.44 1.91992 17V15C1.91992 14.59 2.25992 14.25 2.66992 14.25C3.07992 14.25 3.41992 14.59 3.41992 15V17C3.41992 19.58 5.08992 21.25 7.66992 21.25H9.66992C10.0799 21.25 10.4199 21.59 10.4199 22C10.4199 22.41 10.0799 22.75 9.66992 22.75Z" fill="#292D32"/>
<path d="M12.67 9.87012C12.18 9.87012 11.77 10.2701 11.77 10.7701V13.2401C11.77 13.7401 12.17 14.1401 12.67 14.1401C13.17 14.1401 13.57 13.7401 13.57 13.2401V10.7701C13.57 10.2701 13.16 9.87012 12.67 9.87012Z" fill="#292D32"/>
<path d="M16.1997 7.40018C15.8597 7.06018 15.4697 6.77018 15.0497 6.53018C14.9097 6.46018 14.7597 6.39018 14.6097 6.32018C14.4597 6.26018 14.3097 6.20018 14.1497 6.16018C13.9897 6.11018 13.8297 6.07018 13.6697 6.03018C13.6597 6.03018 13.6397 6.03018 13.6297 6.02018C13.3197 5.96018 12.9997 5.93018 12.6797 5.93018H12.6597C12.3397 5.93018 12.0297 5.96018 11.7197 6.02018C11.6797 6.03018 11.6397 6.03018 11.6097 6.05018C11.4697 6.08018 11.3297 6.11018 11.1897 6.16018C11.0197 6.20018 10.8497 6.27018 10.6797 6.34018C10.5497 6.40018 10.4197 6.47018 10.2997 6.53018C10.1497 6.61018 10.0197 6.70018 9.87969 6.79018C9.61969 6.97018 9.36969 7.17018 9.13969 7.40018C9.02969 7.51018 8.91969 7.63018 8.81969 7.75018C8.71969 7.88018 8.61969 8.00018 8.52969 8.14018C8.43969 8.27018 8.35969 8.41018 8.27969 8.55018C7.89969 9.26018 7.67969 10.0702 7.67969 10.9302V13.0702C7.67969 14.8002 8.55969 16.3202 9.87969 17.2102C9.99969 17.3002 10.1297 17.3702 10.2597 17.4502L10.8097 17.7102C11.0897 17.8202 11.3797 17.9102 11.6697 17.9702C11.9897 18.0302 12.3197 18.0702 12.6597 18.0702C12.6697 18.0702 12.6697 18.0702 12.6797 18.0702C13.0197 18.0702 13.3497 18.0302 13.6697 17.9702C13.9697 17.9102 14.2597 17.8202 14.5397 17.7102C14.7297 17.6302 14.9097 17.5402 15.0797 17.4502C16.6197 16.6002 17.6597 14.9502 17.6597 13.0702V10.9302C17.6597 9.55018 17.0997 8.30018 16.1997 7.40018ZM15.0697 13.2402C15.0697 14.5602 13.9897 15.6402 12.6697 15.6402C11.3497 15.6402 10.2697 14.5602 10.2697 13.2402V10.7702C10.2697 9.45018 11.3497 8.37018 12.6697 8.37018C13.9897 8.37018 15.0697 9.45018 15.0697 10.7702V13.2402Z" fill="#292D32"/>
</svg>
