<svg width="25" height="24" viewBox="0 0 25 24" fill="none" xmlns="http://www.w3.org/2000/svg">
<path d="M21.6719 5.25H14.6719C14.2619 5.25 13.9219 4.91 13.9219 4.5C13.9219 4.09 14.2619 3.75 14.6719 3.75H21.6719C22.0819 3.75 22.4219 4.09 22.4219 4.5C22.4219 4.91 22.0819 5.25 21.6719 5.25Z" fill="#292D32"/>
<path d="M21.6719 10.25H14.6719C14.2619 10.25 13.9219 9.91 13.9219 9.5C13.9219 9.09 14.2619 8.75 14.6719 8.75H21.6719C22.0819 8.75 22.4219 9.09 22.4219 9.5C22.4219 9.91 22.0819 10.25 21.6719 10.25Z" fill="#292D32"/>
<path d="M21.6719 15.25H3.67188C3.26188 15.25 2.92188 14.91 2.92188 14.5C2.92188 14.09 3.26188 13.75 3.67188 13.75H21.6719C22.0819 13.75 22.4219 14.09 22.4219 14.5C22.4219 14.91 22.0819 15.25 21.6719 15.25Z" fill="#292D32"/>
<path d="M21.6719 20.25H3.67188C3.26188 20.25 2.92188 19.91 2.92188 19.5C2.92188 19.09 3.26188 18.75 3.67188 18.75H21.6719C22.0819 18.75 22.4219 19.09 22.4219 19.5C22.4219 19.91 22.0819 20.25 21.6719 20.25Z" fill="#292D32"/>
<path d="M8.59188 3.5H5.75187C4.35187 3.5 3.67188 4.18 3.67188 5.58V8.43C3.67188 9.83 4.35187 10.51 5.75187 10.51H8.60187C10.0019 10.51 10.6819 9.83 10.6819 8.43V5.58C10.6719 4.18 9.99188 3.5 8.59188 3.5Z" fill="#292D32"/>
</svg>
