<svg width="25" height="24" viewBox="0 0 25 24" fill="none" xmlns="http://www.w3.org/2000/svg">
<path d="M12.6699 2C7.14992 2 2.66992 6.48 2.66992 12C2.66992 17.52 7.14992 22 12.6699 22C18.1899 22 22.6699 17.52 22.6699 12C22.6699 6.48 18.1899 2 12.6699 2ZM16.1999 13.23L11.0199 16.82C10.2599 17.35 9.81992 17.04 10.0399 16.15L10.9899 12.31L9.33992 11.9C8.58992 11.72 8.49992 11.2 9.12992 10.76L14.3099 7.17C15.0699 6.64 15.5099 6.95 15.2899 7.84L14.3399 11.68L15.9899 12.09C16.7399 12.28 16.8299 12.79 16.1999 13.23Z" fill="#292D32"/>
</svg>
