<svg width="25" height="24" viewBox="0 0 25 24" fill="none" xmlns="http://www.w3.org/2000/svg">
<path d="M20.1044 4.03448C20.2367 4.2424 20.0101 4.48461 19.7698 4.43C19.2998 4.29 18.7798 4.22 18.2498 4.22H14.9495C14.7923 4.22 14.6442 4.14605 14.5498 4.02037L13.3998 2.49C13.2589 2.29044 13.392 2 13.6363 2H16.3898C17.9508 2 19.3258 2.81073 20.1044 4.03448Z" fill="#292D32"/>
<path d="M20.8099 6.54C20.3799 6.23 19.8899 6 19.3599 5.87C18.9999 5.77 18.6299 5.72 18.2499 5.72H14.5299C13.9499 5.72 13.9099 5.67 13.5999 5.26L12.1999 3.4C11.5499 2.53 11.0399 2 9.40992 2H7.08992C4.64992 2 2.66992 3.98 2.66992 6.42V17.58C2.66992 20.02 4.64992 22 7.08992 22H18.2499C20.6899 22 22.6699 20.02 22.6699 17.58V10.14C22.6699 8.65 21.9399 7.34 20.8099 6.54ZM15.0599 16.34H10.2699C9.87992 16.34 9.57992 16.03 9.57992 15.64C9.57992 15.26 9.87992 14.94 10.2699 14.94H15.0599C15.4499 14.94 15.7599 15.26 15.7599 15.64C15.7599 16.03 15.4499 16.34 15.0599 16.34Z" fill="#292D32"/>
</svg>
