<svg width="25" height="24" viewBox="0 0 25 24" fill="none" xmlns="http://www.w3.org/2000/svg">
<path d="M21.6868 7.99175C22.0847 8.55833 21.6104 9.25 20.9181 9.25H3.66992C3.11764 9.25 2.66992 8.80228 2.66992 8.25V6.42C2.66992 3.98 4.64992 2 7.08992 2H9.40992C11.0399 2 11.5499 2.53 12.1999 3.4L13.5999 5.26C13.9099 5.67 13.9499 5.72 14.5299 5.72H17.3199C19.1245 5.72 20.7216 6.61709 21.6868 7.99175Z" fill="#292D32"/>
<path d="M22.6533 11.7464C22.6514 11.1954 22.2043 10.7498 21.6533 10.7498L3.66991 10.7501C3.11763 10.7501 2.66992 11.1978 2.66992 11.7501V16.6501C2.66992 19.6001 5.06992 22.0001 8.01992 22.0001H17.3199C20.2699 22.0001 22.6699 19.6001 22.6699 16.6501L22.6533 11.7464ZM15.0099 18.2801C14.8599 18.4201 14.6699 18.5001 14.4799 18.5001C14.2899 18.5001 14.0899 18.4201 13.9499 18.2801L12.7099 17.0401L11.4299 18.3201C11.2899 18.4601 11.0899 18.5401 10.8999 18.5401C10.7099 18.5401 10.5199 18.4601 10.3699 18.3201C10.0799 18.0301 10.0799 17.5501 10.3699 17.2601L11.6499 15.9801L10.4099 14.7401C10.1199 14.4501 10.1199 13.9701 10.4099 13.6801C10.7099 13.3901 11.1799 13.3901 11.4699 13.6801L12.7099 14.9201L13.9099 13.7201C14.1999 13.4301 14.6699 13.4301 14.9699 13.7201C15.2599 14.0201 15.2599 14.4901 14.9699 14.7801L13.7699 15.9801L15.0099 17.2201C15.2999 17.5101 15.2999 17.9901 15.0099 18.2801Z" fill="#292D32"/>
</svg>
