<svg width="25" height="24" viewBox="0 0 25 24" fill="none" xmlns="http://www.w3.org/2000/svg">
<path d="M21.6868 7.99175C22.0847 8.55833 21.6104 9.25 20.9181 9.25H3.66992C3.11764 9.25 2.66992 8.80228 2.66992 8.25V6.42C2.66992 3.98 4.64992 2 7.08992 2H9.40992C11.0399 2 11.5499 2.53 12.1999 3.4L13.5999 5.26C13.9099 5.67 13.9499 5.72 14.5299 5.72H17.3199C19.1245 5.72 20.7216 6.61709 21.6868 7.99175Z" fill="#292D32"/>
<path d="M22.6533 11.7466C22.6514 11.1957 22.2043 10.75 21.6533 10.75L3.66992 10.75C3.11764 10.75 2.66992 11.1977 2.66992 11.75V16.65C2.66992 19.6 5.06992 22 8.01992 22H17.3199C20.2699 22 22.6699 19.6 22.6699 16.65L22.6533 11.7466ZM15.2099 16.97L13.0599 18.85C12.9499 18.95 12.8099 19 12.6699 19C12.5299 19 12.3899 18.95 12.2799 18.85L10.1299 16.97C9.44992 16.37 9.35992 15.35 9.92992 14.64C10.4999 13.92 11.5299 13.79 12.2699 14.34L12.6699 14.64L13.0699 14.34C13.8099 13.79 14.8399 13.92 15.4099 14.64C15.9799 15.35 15.8899 16.37 15.2099 16.97Z" fill="#292D32"/>
</svg>
