<svg width="25" height="24" viewBox="0 0 25 24" fill="none" xmlns="http://www.w3.org/2000/svg">
<path d="M13.4199 16H16.1699C18.9699 16 19.6699 15.3 19.6699 12.5V8.3C19.6699 5.5 18.9699 4.8 16.1699 4.8H14.0699C13.3699 4.8 13.2199 4.59 12.9499 4.24L11.8999 2.84C11.4999 2.31 11.2699 2 10.2199 2H9.16992C6.36992 2 5.66992 2.7 5.66992 5.5V12.5C5.66992 15.3 6.36992 16 9.16992 16H11.9199V19C11.9199 19.05 11.9399 19.09 11.9499 19.14C11.4299 19.34 11.0099 19.76 10.8099 20.28C10.7599 20.27 10.7199 20.25 10.6699 20.25H6.66992C6.25992 20.25 5.91992 20.59 5.91992 21C5.91992 21.41 6.25992 21.75 6.66992 21.75H10.6699C10.7199 21.75 10.7599 21.73 10.8099 21.72C11.0999 22.47 11.8199 23 12.6699 23C13.5199 23 14.2399 22.47 14.5299 21.72C14.5799 21.73 14.6199 21.75 14.6699 21.75H18.6699C19.0799 21.75 19.4199 21.41 19.4199 21C19.4199 20.59 19.0799 20.25 18.6699 20.25H14.6699C14.6199 20.25 14.5799 20.27 14.5299 20.28C14.3299 19.76 13.9099 19.34 13.3899 19.14C13.3999 19.09 13.4199 19.05 13.4199 19V16Z" fill="#292D32"/>
</svg>
