<svg width="25" height="24" viewBox="0 0 25 24" fill="none" xmlns="http://www.w3.org/2000/svg">
<path d="M16.2495 19.7C14.1395 19.85 14.1395 22.91 16.2495 23.06H21.2595C21.8695 23.06 22.4495 22.84 22.8995 22.43C24.3795 21.14 23.5895 18.54 21.6395 18.3C20.9395 14.08 14.8295 15.68 16.2795 19.7" fill="#292D32"/>
<path d="M16.2495 19.7C14.1395 19.85 14.1395 22.91 16.2495 23.06H21.2595C21.8695 23.06 22.4495 22.84 22.8995 22.43C24.3795 21.14 23.5895 18.54 21.6395 18.3C20.9395 14.08 14.8295 15.68 16.2795 19.7" fill="#292D32"/>
<path d="M22.6699 11.07V15.34C22.6699 15.66 22.1599 15.8 21.9399 15.57C21.4699 15.08 20.8799 14.71 20.1999 14.5C18.6299 14.01 16.8199 14.49 15.6799 15.67C14.9599 16.44 14.5699 17.4 14.5499 18.44C14.5499 18.62 14.4599 18.78 14.3199 18.89C13.5999 19.46 13.1599 20.35 13.1599 21.37V21.38C13.1599 21.7 12.9299 21.99 12.6099 21.99H8.00992C5.06992 22 2.66992 19.6 2.66992 16.65V6.42C2.66992 3.98 4.64992 2 7.08992 2H9.40992C11.0399 2 11.5499 2.53 12.1999 3.4L13.5999 5.26C13.9099 5.67 13.9499 5.72 14.5299 5.72H17.3199C19.6999 5.72 21.7199 7.28 22.4099 9.44C22.5599 9.89 22.6399 10.35 22.6599 10.84C22.6699 10.91 22.6699 11 22.6699 11.07Z" fill="#292D32"/>
</svg>
