<svg width="25" height="24" viewBox="0 0 25 24" fill="none" xmlns="http://www.w3.org/2000/svg">
<path d="M21.7699 7.87C22.3499 7.23 22.6699 6.4 22.6699 5.53C22.6699 3.58 21.0899 2 19.1399 2C18.2699 2 17.4499 2.32 16.8099 2.9C15.5199 2.3 14.1299 2 12.6699 2C11.2399 2 9.81992 2.31 8.53992 2.9C7.89992 2.32 7.06992 2 6.19992 2C4.24992 2 2.66992 3.58 2.66992 5.53C2.66992 6.4 2.98992 7.23 3.56992 7.87C2.97992 9.15 2.66992 10.57 2.66992 12C2.66992 13.46 2.96992 14.85 3.56992 16.14C2.98992 16.78 2.66992 17.6 2.66992 18.47C2.66992 20.42 4.24992 22 6.19992 22C7.06992 22 7.89992 21.68 8.53992 21.1C9.81992 21.69 11.2399 22 12.6699 22C14.1299 22 15.5199 21.7 16.8099 21.1C17.4499 21.68 18.2699 22 19.1399 22C21.0899 22 22.6699 20.42 22.6699 18.47C22.6699 17.6 22.3499 16.78 21.7699 16.14C22.3699 14.85 22.6699 13.46 22.6699 12C22.6699 10.57 22.3599 9.15 21.7699 7.87ZM20.3499 15.17C20.2399 15.13 20.1299 15.09 20.0199 15.06C19.8499 15.02 19.6699 14.99 19.4999 14.97C19.3799 14.96 19.2599 14.95 19.1399 14.95C17.1999 14.95 15.6199 16.53 15.6199 18.47C15.6199 18.59 15.6299 18.71 15.6399 18.83C15.6599 19 15.6899 19.18 15.7299 19.35C15.7599 19.46 15.7999 19.57 15.8399 19.68C15.8399 19.71 15.8499 19.74 15.8699 19.77C15.8799 19.8 15.8899 19.83 15.8999 19.86C13.8899 20.7 11.4899 20.71 9.43992 19.86C9.44992 19.83 9.45992 19.8 9.46992 19.77C9.48992 19.74 9.49992 19.71 9.49992 19.68C9.53992 19.57 9.57992 19.46 9.60992 19.35C9.64992 19.18 9.67992 19 9.69992 18.83C9.70992 18.71 9.71992 18.59 9.71992 18.47C9.71992 16.53 8.13992 14.95 6.19992 14.95C6.07992 14.95 5.95992 14.96 5.83992 14.97C5.66992 14.99 5.48992 15.02 5.31992 15.06C5.20992 15.09 5.09992 15.13 4.98992 15.17C4.95992 15.17 4.92992 15.18 4.89992 15.2C4.86992 15.21 4.83992 15.22 4.80992 15.23C4.37992 14.22 4.16992 13.13 4.16992 12C4.16992 10.89 4.38992 9.78 4.80992 8.77C4.81992 8.77 4.83992 8.78 4.84992 8.78C4.72992 8.73 4.59992 8.67 4.48992 8.61C4.32992 8.52 4.16992 8.42 4.01992 8.3C4.31992 8.53 4.63992 8.71 4.98992 8.83C5.10992 8.88 5.23992 8.92 5.35992 8.95C5.43992 8.97 5.50992 8.98 5.57992 8.99C5.66992 9.01 5.74992 9.02 5.83992 9.03C5.95992 9.04 6.07992 9.05 6.19992 9.05C8.13992 9.05 9.71992 7.47 9.71992 5.53C9.71992 5.41 9.70992 5.29 9.69992 5.17C9.68992 5.08 9.67992 5 9.65992 4.91C9.64992 4.84 9.63992 4.77 9.61992 4.69C9.58992 4.57 9.54992 4.44 9.49992 4.32C9.37992 3.97 9.19992 3.65 8.96992 3.35C9.08992 3.5 9.18992 3.66 9.27992 3.82C9.33992 3.93 9.39992 4.06 9.44992 4.18C9.44992 4.17 9.43992 4.15 9.43992 4.14C11.4799 3.29 13.8899 3.3 15.8999 4.14C15.8899 4.17 15.8799 4.2 15.8699 4.23C15.8499 4.26 15.8399 4.29 15.8399 4.32C15.7999 4.43 15.7599 4.54 15.7299 4.65C15.6899 4.82 15.6599 5 15.6399 5.17C15.6299 5.29 15.6199 5.41 15.6199 5.53C15.6199 7.47 17.1999 9.05 19.1399 9.05C19.2599 9.05 19.3799 9.04 19.4999 9.03C19.6699 9.01 19.8499 8.98 20.0199 8.94C20.1299 8.91 20.2399 8.87 20.3499 8.83C20.3799 8.83 20.4099 8.82 20.4399 8.8C20.4699 8.79 20.4999 8.78 20.5299 8.77C20.9499 9.78 21.1699 10.89 21.1699 12C21.1699 13.13 20.9599 14.22 20.5299 15.23C20.4999 15.22 20.4699 15.21 20.4399 15.2C20.4099 15.18 20.3799 15.17 20.3499 15.17Z" fill="#292D32"/>
</svg>
