<svg width="25" height="24" viewBox="0 0 25 24" fill="none" xmlns="http://www.w3.org/2000/svg">
<path d="M21.4199 16.5V7.5C22.6099 7 23.4199 5.83 23.4199 4.5C23.4199 2.71 21.9599 1.25 20.1699 1.25C18.8499 1.25 17.6699 2.06 17.1699 3.25H8.16992C7.66992 2.06 6.49992 1.25 5.16992 1.25C3.37992 1.25 1.91992 2.71 1.91992 4.5C1.91992 5.82 2.72992 7 3.91992 7.5V16.5C2.72992 17 1.91992 18.17 1.91992 19.5C1.91992 21.29 3.37992 22.75 5.16992 22.75C6.48992 22.75 7.66992 21.94 8.16992 20.75H17.1699C17.6699 21.94 18.8399 22.75 20.1699 22.75C21.9599 22.75 23.4199 21.29 23.4199 19.5C23.4199 18.18 22.6099 17 21.4199 16.5ZM19.8299 16.27C19.7199 16.28 19.6199 16.3 19.5099 16.32C19.2399 16.37 18.9799 16.46 18.7299 16.59C18.6699 16.62 18.6099 16.65 18.5499 16.69C18.0499 16.97 17.6399 17.38 17.3599 17.88C17.3199 17.94 17.2899 18 17.2599 18.06C17.1299 18.31 17.0399 18.57 16.9899 18.84C16.9699 18.95 16.9499 19.05 16.9399 19.16C16.9299 19.19 16.9299 19.22 16.9299 19.25H8.40992C8.38992 19 8.33992 18.76 8.26992 18.53C8.24992 18.45 8.21992 18.36 8.17992 18.28C8.14992 18.21 8.11992 18.14 8.07992 18.06C8.04992 18 8.01992 17.94 7.97992 17.88C7.69992 17.38 7.28992 16.97 6.78992 16.69C6.72992 16.65 6.66992 16.62 6.60992 16.59C6.52992 16.55 6.45992 16.52 6.38992 16.49C6.30992 16.45 6.21992 16.42 6.13992 16.4C5.90992 16.33 5.66992 16.28 5.41992 16.26V7.74C5.67992 7.72 5.91992 7.67 6.15992 7.59C6.24992 7.57 6.34992 7.53 6.43992 7.49C6.48992 7.47 6.54992 7.44 6.60992 7.41C6.66992 7.38 6.72992 7.35 6.78992 7.31C7.28992 7.03 7.69992 6.62 7.97992 6.12C8.01992 6.06 8.04992 6 8.07992 5.94C8.10992 5.88 8.13992 5.82 8.15992 5.77C8.19992 5.68 8.23992 5.58 8.25992 5.49C8.33992 5.25 8.38992 5.01 8.40992 4.75H16.9299C16.9499 5.02 16.9999 5.27 17.0899 5.52C17.1099 5.6 17.1399 5.69 17.1799 5.77C17.1999 5.83 17.2299 5.88 17.2599 5.94C17.2899 6 17.3199 6.06 17.3599 6.12C17.6399 6.62 18.0499 7.03 18.5499 7.31C18.6099 7.35 18.6699 7.38 18.7299 7.41C18.7899 7.44 18.8399 7.47 18.8999 7.49C18.9799 7.53 19.0699 7.56 19.1499 7.58C19.3999 7.67 19.6499 7.72 19.9199 7.74V16.26C19.8899 16.26 19.8599 16.26 19.8299 16.27Z" fill="#292D32"/>
</svg>
