<svg width="25" height="24" viewBox="0 0 25 24" fill="none" xmlns="http://www.w3.org/2000/svg">
<path d="M20.3595 7.35C20.1095 7.02 19.6395 6.95 19.3095 7.2C18.9795 7.45 18.9095 7.92 19.1595 8.25C20.2395 9.69 20.8095 11.37 20.8095 13.11C20.8095 17.6 17.1595 21.25 12.6695 21.25C8.17953 21.25 4.52953 17.6 4.52953 13.11C4.52953 8.62 8.17953 4.98 12.6695 4.98C13.2495 4.98 13.8395 5.05 14.4795 5.2C14.5095 5.21 14.5395 5.2 14.5795 5.2C14.5995 5.2 14.6295 5.22 14.6495 5.22C14.6795 5.22 14.6995 5.21 14.7295 5.21C14.7695 5.21 14.7995 5.2 14.8295 5.19C14.8795 5.18 14.9295 5.16 14.9795 5.13C15.0095 5.11 15.0495 5.1 15.0795 5.08C15.0895 5.07 15.1095 5.07 15.1195 5.06C15.1495 5.04 15.1595 5.01 15.1795 4.99C15.2195 4.95 15.2495 4.92 15.2795 4.87C15.3095 4.83 15.3195 4.78 15.3395 4.74C15.3495 4.71 15.3695 4.68 15.3795 4.65C15.3795 4.63 15.3795 4.62 15.3795 4.6C15.3895 4.55 15.3895 4.5 15.3795 4.45C15.3795 4.4 15.3795 4.36 15.3695 4.31C15.3595 4.27 15.3395 4.23 15.3195 4.18C15.2995 4.13 15.2795 4.08 15.2495 4.04C15.2395 4.02 15.2395 4.01 15.2295 4L13.2495 1.53C12.9895 1.21 12.5195 1.16 12.1995 1.41C11.8795 1.67 11.8295 2.14 12.0795 2.46L12.8995 3.48C12.8195 3.48 12.7395 3.47 12.6595 3.47C7.34953 3.47 3.01953 7.79 3.01953 13.11C3.01953 18.43 7.33953 22.75 12.6595 22.75C17.9795 22.75 22.2995 18.43 22.2995 13.11C22.3095 11.04 21.6295 9.05 20.3595 7.35Z" fill="#292D32"/>
<path d="M10.2095 16.67C9.79947 16.67 9.45947 16.33 9.45947 15.92V12.53L9.26947 12.75C8.98947 13.06 8.51947 13.08 8.20947 12.81C7.89947 12.53 7.87947 12.06 8.14947 11.75L9.64947 10.08C9.85947 9.85 10.1895 9.77 10.4795 9.88C10.7695 9.99 10.9595 10.27 10.9595 10.58V15.93C10.9595 16.34 10.6295 16.67 10.2095 16.67Z" fill="#292D32"/>
<path d="M14.6699 16.67C13.1499 16.67 11.9199 15.44 11.9199 13.92V12.57C11.9199 11.05 13.1499 9.82 14.6699 9.82C16.1899 9.82 17.4199 11.05 17.4199 12.57V13.92C17.4199 15.44 16.1899 16.67 14.6699 16.67ZM14.6699 11.33C13.9799 11.33 13.4199 11.89 13.4199 12.58V13.93C13.4199 14.62 13.9799 15.18 14.6699 15.18C15.3599 15.18 15.9199 14.62 15.9199 13.93V12.58C15.9199 11.89 15.3599 11.33 14.6699 11.33Z" fill="#292D32"/>
</svg>
