<svg width="25" height="24" viewBox="0 0 25 24" fill="none" xmlns="http://www.w3.org/2000/svg">
<path d="M16.8599 2H8.47992C4.83992 2 2.66992 4.17 2.66992 7.81V16.18C2.66992 19.83 4.83992 22 8.47992 22H16.8499C20.4899 22 22.6599 19.83 22.6599 16.19V7.81C22.6699 4.17 20.4999 2 16.8599 2ZM18.1999 9.72L16.6299 11.29C16.4799 11.44 16.2899 11.51 16.0999 11.51C15.9099 11.51 15.7199 11.44 15.5699 11.29C15.2799 11 15.2799 10.52 15.5699 10.23L15.8299 9.97H10.7499C9.46992 9.97 8.41992 11.01 8.41992 12.3C8.41992 13.59 9.45992 14.63 10.7499 14.63H15.6699C16.0799 14.63 16.4199 14.97 16.4199 15.38C16.4199 15.79 16.0799 16.13 15.6699 16.13H10.7499C8.63992 16.13 6.91992 14.41 6.91992 12.3C6.91992 10.19 8.63992 8.47 10.7499 8.47H15.8999L15.5699 8.15C15.2799 7.86 15.2799 7.38 15.5699 7.09C15.8599 6.8 16.3399 6.8 16.6299 7.09L18.1999 8.66C18.4899 8.96 18.4899 9.43 18.1999 9.72Z" fill="#292D32"/>
</svg>
