<svg width="25" height="24" viewBox="0 0 25 24" fill="none" xmlns="http://www.w3.org/2000/svg">
<path d="M15.1003 16.92H12.8103C12.4003 16.92 12.0603 16.58 12.0603 16.17C12.0603 15.76 12.4003 15.42 12.8103 15.42H15.1003C15.5303 15.42 15.8803 15.07 15.8803 14.64C15.8803 14.21 15.5303 13.86 15.1003 13.86H12.8103C12.5703 13.86 12.3403 13.74 12.2003 13.55C12.0603 13.36 12.0203 13.1 12.1003 12.87L12.8603 10.58C12.9603 10.27 13.2503 10.07 13.5703 10.07H16.6303C17.0403 10.07 17.3803 10.41 17.3803 10.82C17.3803 11.23 17.0403 11.57 16.6303 11.57H14.1103L13.8503 12.36H15.1003C16.3603 12.36 17.3803 13.38 17.3803 14.64C17.3803 15.9 16.3503 16.92 15.1003 16.92Z" fill="#292D32"/>
<path d="M10.2103 16.92C9.80033 16.92 9.46033 16.58 9.46033 16.17V12.78L9.27033 13C8.99033 13.31 8.52033 13.33 8.21033 13.06C7.91033 12.78 7.88033 12.31 8.16033 12L9.66033 10.33C9.87033 10.1 10.2003 10.02 10.4903 10.13C10.7803 10.24 10.9703 10.52 10.9703 10.83V16.18C10.9603 16.59 10.6303 16.92 10.2103 16.92Z" fill="#292D32"/>
<path d="M20.3595 7.35C20.1095 7.02 19.6395 6.95 19.3095 7.2C18.9795 7.45 18.9095 7.92 19.1595 8.25C20.2395 9.69 20.8095 11.37 20.8095 13.11C20.8095 17.6 17.1595 21.25 12.6695 21.25C8.17953 21.25 4.52953 17.6 4.52953 13.11C4.52953 8.62 8.17953 4.98 12.6695 4.98C13.2495 4.98 13.8395 5.05 14.4795 5.2C14.5095 5.21 14.5395 5.2 14.5695 5.2C14.5995 5.2 14.6195 5.22 14.6395 5.22C14.6695 5.22 14.6895 5.21 14.7195 5.21C14.7495 5.21 14.7795 5.2 14.8195 5.19C14.8795 5.18 14.9295 5.15 14.9795 5.13C15.0095 5.11 15.0395 5.1 15.0695 5.08C15.0795 5.07 15.0995 5.07 15.1095 5.06C15.1395 5.04 15.1495 5.01 15.1695 4.99C15.2095 4.95 15.2395 4.92 15.2695 4.87C15.2995 4.83 15.3095 4.78 15.3295 4.73C15.3395 4.7 15.3595 4.67 15.3695 4.64C15.3695 4.62 15.3695 4.61 15.3695 4.59C15.3795 4.54 15.3795 4.49 15.3695 4.44C15.3695 4.39 15.3695 4.35 15.3595 4.3C15.3495 4.26 15.3295 4.22 15.3095 4.17C15.2895 4.12 15.2695 4.07 15.2395 4.03C15.2395 4.02 15.2395 4.01 15.2295 4L13.2495 1.53C12.9895 1.21 12.5195 1.15 12.1995 1.41C11.8795 1.67 11.8295 2.14 12.0795 2.46L12.8995 3.48C12.8195 3.48 12.7395 3.47 12.6595 3.47C7.34953 3.47 3.01953 7.79 3.01953 13.11C3.01953 18.43 7.33953 22.75 12.6595 22.75C17.9795 22.75 22.2995 18.43 22.2995 13.11C22.3095 11.04 21.6295 9.05 20.3595 7.35Z" fill="#292D32"/>
</svg>
