<svg width="25" height="24" viewBox="0 0 25 24" fill="none" xmlns="http://www.w3.org/2000/svg">
<path d="M5.16992 10.49V16.43C5.16992 16.74 5.30992 17.04 5.53992 17.24L10.8999 21.83C11.5999 22.43 12.6699 21.93 12.6699 21.02V16.92H17.5799C18.5299 16.92 19.0099 15.77 18.3399 15.09L12.6699 9.42001H6.23993C5.64993 9.41001 5.16992 9.88999 5.16992 10.49Z" fill="black"/>
<path d="M19.0997 1.91H7.75972C6.80972 1.91 6.32971 3.05999 6.99971 3.73999L12.6697 9.41H19.0997C19.6897 9.41 20.1697 8.93 20.1697 8.34V2.98001C20.1697 2.39001 19.6897 1.91 19.0997 1.91Z" fill="black"/>
</svg>
