<svg width="25" height="24" viewBox="0 0 25 24" fill="none" xmlns="http://www.w3.org/2000/svg">
<path d="M16.8597 2H8.4897C4.8497 2 2.67969 4.17 2.67969 7.81V16.18C2.67969 19.82 4.8497 21.99 8.4897 21.99H16.8597C20.4997 21.99 22.6697 19.82 22.6697 16.18V7.81C22.6697 4.17 20.4997 2 16.8597 2ZM11.6697 7.5C11.6697 7.78 11.4497 8 11.1697 8H9.66969C9.11969 8 8.66969 8.45 8.66969 9V10.5C8.66969 10.78 8.44969 11 8.16969 11H6.16969C5.88969 11 5.66969 10.78 5.66969 10.5V9C5.66969 6.79 7.45969 5 9.66969 5H11.1697C11.4497 5 11.6697 5.22 11.6697 5.5V7.5ZM19.6697 15C19.6697 17.21 17.8797 19 15.6697 19H14.1697C13.8897 19 13.6697 18.78 13.6697 18.5V16.5C13.6697 16.22 13.8897 16 14.1697 16H15.6697C16.2197 16 16.6697 15.55 16.6697 15V13.5C16.6697 13.22 16.8897 13 17.1697 13H19.1697C19.4497 13 19.6697 13.22 19.6697 13.5V15Z" fill="black"/>
</svg>
