<svg width="25" height="24" viewBox="0 0 25 24" fill="none" xmlns="http://www.w3.org/2000/svg">
<path d="M3.24973 19.01L3.22973 19.03C2.95973 18.44 2.78973 17.77 2.71973 17.03C2.78973 17.76 2.97973 18.42 3.24973 19.01Z" fill="#292D32"/>
<path d="M9.67004 10.38C10.9845 10.38 12.05 9.31443 12.05 8C12.05 6.68556 10.9845 5.62 9.67004 5.62C8.3556 5.62 7.29004 6.68556 7.29004 8C7.29004 9.31443 8.3556 10.38 9.67004 10.38Z" fill="#292D32"/>
<path d="M16.8599 2H8.47992C4.83992 2 2.66992 4.17 2.66992 7.81V16.19C2.66992 17.28 2.85992 18.23 3.22992 19.03C4.08992 20.93 5.92992 22 8.47992 22H16.8599C20.4999 22 22.6699 19.83 22.6699 16.19V13.9V7.81C22.6699 4.17 20.4999 2 16.8599 2ZM21.0399 12.5C20.2599 11.83 18.9999 11.83 18.2199 12.5L14.0599 16.07C13.2799 16.74 12.0199 16.74 11.2399 16.07L10.8999 15.79C10.1899 15.17 9.05992 15.11 8.25992 15.65L4.51992 18.16C4.29992 17.6 4.16992 16.95 4.16992 16.19V7.81C4.16992 4.99 5.65992 3.5 8.47992 3.5H16.8599C19.6799 3.5 21.1699 4.99 21.1699 7.81V12.61L21.0399 12.5Z" fill="#292D32"/>
</svg>
