<svg width="25" height="24" viewBox="0 0 25 24" fill="none" xmlns="http://www.w3.org/2000/svg">
<path d="M22.4398 2.23C22.1398 1.93 21.6498 1.93 21.3498 2.23L2.8998 20.69C2.5998 20.99 2.5998 21.48 2.8998 21.78C3.0498 21.92 3.2398 22 3.4398 22C3.6398 22 3.8298 21.92 3.9798 21.77L22.4398 3.31C22.7498 3.01 22.7498 2.53 22.4398 2.23Z" fill="#292D32"/>
<path d="M9.67004 10.38C10.9845 10.38 12.05 9.31443 12.05 8C12.05 6.68556 10.9845 5.62 9.67004 5.62C8.3556 5.62 7.29004 6.68556 7.29004 8C7.29004 9.31443 8.3556 10.38 9.67004 10.38Z" fill="#292D32"/>
<path d="M22.2803 5.39L21.0603 6.61C21.1403 6.98 21.1703 7.38 21.1703 7.81V12.61L21.0403 12.5C20.2603 11.83 19.0003 11.83 18.2203 12.5L14.0603 16.07C13.3503 16.68 12.2303 16.74 11.4503 16.22L6.07031 21.6C6.11031 21.62 6.15031 21.63 6.19031 21.64C6.46031 21.73 6.73031 21.8 7.02031 21.86C7.12031 21.88 7.22031 21.9 7.33031 21.91C7.70031 21.96 8.08031 22 8.48031 22H16.8603C20.5003 22 22.6703 19.83 22.6703 16.19V7.81C22.6703 6.91 22.5403 6.1 22.2803 5.39Z" fill="#292D32"/>
<path d="M22.2796 5.39L21.0596 6.61C21.1396 6.98 21.1696 7.38 21.1696 7.81V12.61L21.0396 12.5C20.2596 11.83 18.9996 11.83 18.2196 12.5L14.0596 16.07C13.3496 16.68 12.2296 16.74 11.4496 16.22L6.05957 21.61C6.76957 21.87 7.57957 22 8.47957 22H16.8596C20.4996 22 22.6696 19.83 22.6696 16.19V7.81C22.6696 6.91 22.5396 6.1 22.2796 5.39Z" fill="#292D32"/>
<path d="M21.1299 3.54L20.0699 4.6C19.3499 3.87 18.2699 3.5 16.8599 3.5H8.47992C5.65992 3.5 4.16992 4.99 4.16992 7.81V16.19C4.16992 16.95 4.29992 17.6 4.51992 18.16L8.25992 15.65C8.59992 15.42 8.98992 15.3 9.37992 15.29L4.20992 20.46C3.80992 20.06 3.47992 19.58 3.22992 19.03C2.85992 18.23 2.66992 17.28 2.66992 16.19V7.81C2.66992 4.17 4.83992 2 8.47992 2H16.8599C18.6799 2 20.1299 2.54 21.1299 3.54Z" fill="#292D32"/>
</svg>
