<svg width="25" height="24" viewBox="0 0 25 24" fill="none" xmlns="http://www.w3.org/2000/svg">
<path d="M17.6699 2H7.66992C5.46992 2 3.66992 3.8 3.66992 6V18C3.66992 20.2 5.46992 22 7.66992 22H17.6699C19.8699 22 21.6699 20.2 21.6699 18V6C21.6699 3.8 19.8699 2 17.6699 2ZM11.5299 18.14C11.3799 18.29 11.1899 18.36 10.9999 18.36C10.8099 18.36 10.6199 18.29 10.4699 18.14L9.81992 17.49L9.19992 18.11C9.04992 18.26 8.85992 18.33 8.66992 18.33C8.47992 18.33 8.28992 18.26 8.13992 18.11C7.84992 17.82 7.84992 17.34 8.13992 17.05L8.75992 16.43L8.16992 15.84C7.87992 15.55 7.87992 15.07 8.16992 14.78C8.45992 14.49 8.93992 14.49 9.22992 14.78L9.81992 15.37L10.4399 14.75C10.7299 14.46 11.2099 14.46 11.4999 14.75C11.7899 15.04 11.7899 15.52 11.4999 15.81L10.8799 16.43L11.5299 17.08C11.8199 17.37 11.8199 17.85 11.5299 18.14ZM15.1599 18.49C14.6099 18.49 14.1599 18.05 14.1599 17.5V17.48C14.1599 16.93 14.6099 16.48 15.1599 16.48C15.7099 16.48 16.1599 16.93 16.1599 17.48C16.1599 18.03 15.7099 18.49 15.1599 18.49ZM17.1799 16.33C16.6299 16.33 16.1699 15.88 16.1699 15.33C16.1699 14.78 16.6099 14.33 17.1599 14.33H17.1799C17.7299 14.33 18.1799 14.78 18.1799 15.33C18.1799 15.88 17.7299 16.33 17.1799 16.33ZM18.6699 9.25C18.6699 10.21 17.8799 11 16.9199 11H8.41992C7.45992 11 6.66992 10.21 6.66992 9.25V6.75C6.66992 5.79 7.45992 5 8.41992 5H16.9199C17.8799 5 18.6699 5.79 18.6699 6.75V9.25Z" fill="#292D32"/>
</svg>
