<svg width="25" height="24" viewBox="0 0 25 24" fill="none" xmlns="http://www.w3.org/2000/svg">
<path d="M23.0099 9.33L21.0099 8.33C20.6399 8.15 20.1799 8.29 19.9999 8.66C19.8099 9.04 19.9599 9.49 20.3299 9.67L21.9199 10.46V15.25L18.1699 15.26V5C18.1699 3 16.8299 2 15.1699 2H7.16992C5.50992 2 4.16992 3 4.16992 5V21.25H2.66992C2.25992 21.25 1.91992 21.59 1.91992 22C1.91992 22.41 2.25992 22.75 2.66992 22.75H19.6699C20.0799 22.75 20.4199 22.41 20.4199 22C20.4199 21.59 20.0799 21.25 19.6699 21.25H18.1699V16.76L22.6699 16.75C23.0899 16.75 23.4199 16.41 23.4199 16V10C23.4199 9.72 23.2599 9.46 23.0099 9.33ZM6.66992 6.89C6.66992 5.5 7.51992 5 8.55992 5H13.7899C14.8199 5 15.6699 5.5 15.6699 6.89V8.12C15.6699 9.5 14.8199 10 13.7799 10H8.55992C7.51992 10 6.66992 9.5 6.66992 8.11V6.89ZM7.16992 12.25H10.1699C10.5799 12.25 10.9199 12.59 10.9199 13C10.9199 13.41 10.5799 13.75 10.1699 13.75H7.16992C6.75992 13.75 6.41992 13.41 6.41992 13C6.41992 12.59 6.75992 12.25 7.16992 12.25Z" fill="#292D32"/>
</svg>
