<svg width="25" height="24" viewBox="0 0 25 24" fill="none" xmlns="http://www.w3.org/2000/svg">
<g clip-path="url(#clip0_12_64909)">
<path d="M8.31949 20.9098C8.28949 20.9098 8.24949 20.9298 8.21949 20.9298C6.27949 19.9698 4.69949 18.3798 3.72949 16.4398C3.72949 16.4098 3.74949 16.3698 3.74949 16.3398C4.96949 16.6998 6.22949 16.9698 7.47949 17.1798C7.69949 18.4398 7.95949 19.6898 8.31949 20.9098Z" fill="#292D32"/>
<path d="M21.61 16.4498C20.62 18.4398 18.97 20.0498 16.96 21.0198C17.34 19.7498 17.66 18.4698 17.87 17.1798C19.13 16.9698 20.37 16.6998 21.59 16.3398C21.58 16.3798 21.61 16.4198 21.61 16.4498Z" fill="#292D32"/>
<path d="M21.69 7.70998C20.43 7.32998 19.16 7.01998 17.87 6.79998C17.66 5.50998 17.35 4.22998 16.96 2.97998C19.03 3.96998 20.7 5.63998 21.69 7.70998Z" fill="#292D32"/>
<path d="M8.32039 3.09006C7.96039 4.31006 7.70039 5.55006 7.49039 6.81006C6.20039 7.01006 4.92039 7.33006 3.65039 7.71006C4.62039 5.70006 6.23039 4.05006 8.22039 3.06006C8.25039 3.06006 8.29039 3.09006 8.32039 3.09006Z" fill="#292D32"/>
<path d="M16.1597 6.59C13.8397 6.33 11.4997 6.33 9.17969 6.59C9.42969 5.22 9.74969 3.85 10.1997 2.53C10.2197 2.45 10.2097 2.39 10.2197 2.31C11.0097 2.12 11.8197 2 12.6697 2C13.5097 2 14.3297 2.12 15.1097 2.31C15.1197 2.39 15.1197 2.45 15.1397 2.53C15.5897 3.86 15.9097 5.22 16.1597 6.59Z" fill="#292D32"/>
<path d="M7.25992 15.4898C5.87992 15.2398 4.51992 14.9198 3.19992 14.4698C3.11992 14.4498 3.05992 14.4598 2.97992 14.4498C2.78992 13.6598 2.66992 12.8498 2.66992 11.9998C2.66992 11.1598 2.78992 10.3398 2.97992 9.55977C3.05992 9.54977 3.11992 9.54977 3.19992 9.52977C4.52992 9.08977 5.87992 8.75977 7.25992 8.50977C7.00992 10.8298 7.00992 13.1698 7.25992 15.4898Z" fill="#292D32"/>
<path d="M22.6701 11.9998C22.6701 12.8498 22.5501 13.6598 22.3601 14.4498C22.2801 14.4598 22.2201 14.4498 22.1401 14.4698C20.8101 14.9098 19.4501 15.2398 18.0801 15.4898C18.3401 13.1698 18.3401 10.8298 18.0801 8.50977C19.4501 8.75977 20.8201 9.07977 22.1401 9.52977C22.2201 9.54977 22.2801 9.55977 22.3601 9.55977C22.5501 10.3498 22.6701 11.1598 22.6701 11.9998Z" fill="#292D32"/>
<path d="M16.1597 17.4102C15.9097 18.7902 15.5897 20.1502 15.1397 21.4702C15.1197 21.5502 15.1197 21.6102 15.1097 21.6902C14.3297 21.8802 13.5097 22.0002 12.6697 22.0002C11.8197 22.0002 11.0097 21.8802 10.2197 21.6902C10.2097 21.6102 10.2197 21.5502 10.1997 21.4702C9.75969 20.1402 9.42969 18.7902 9.17969 17.4102C10.3397 17.5402 11.4997 17.6302 12.6697 17.6302C13.8397 17.6302 15.0097 17.5402 16.1597 17.4102Z" fill="#292D32"/>
<path d="M16.4333 15.7633C13.9322 16.0789 11.4077 16.0789 8.90659 15.7633C8.59103 13.2622 8.59103 10.7378 8.90659 8.23667C11.4077 7.92111 13.9322 7.92111 16.4333 8.23667C16.7488 10.7378 16.7488 13.2622 16.4333 15.7633Z" fill="#292D32"/>
</g>
<defs>
<clipPath id="clip0_12_64909">
<rect width="24" height="24" fill="white" transform="translate(0.669922)"/>
</clipPath>
</defs>
</svg>
