<svg width="25" height="24" viewBox="0 0 25 24" fill="none" xmlns="http://www.w3.org/2000/svg">
<path d="M22.4101 11.07C22.3601 10.56 21.9301 10.18 21.4201 10.18H13.8701C13.3201 10.18 12.8701 10.63 12.8701 11.18V12.89C12.8701 13.44 13.3201 13.89 13.8701 13.89H18.3801C18.2701 14.81 17.6701 16.2 16.3401 17.13C15.4901 17.72 14.3601 18.13 12.8701 18.13C12.8001 18.13 12.7401 18.13 12.6701 18.12C10.1201 18.04 7.96012 16.33 7.18012 13.98C6.97012 13.35 6.85012 12.69 6.85012 12C6.85012 11.31 6.97012 10.64 7.17012 10.02C7.23012 9.83999 7.30012 9.66001 7.38012 9.48001C8.30012 7.41001 10.3101 5.95 12.6701 5.88C12.7301 5.87 12.8001 5.87 12.8701 5.87C14.3001 5.87 15.3701 6.33999 16.1201 6.85999C16.5101 7.12999 17.0301 7.06999 17.3701 6.73999L18.7601 5.38C19.2001 4.95 19.1601 4.21999 18.6601 3.85999C17.0701 2.68999 15.1301 2 12.8701 2C12.8001 2 12.7401 2.00001 12.6701 2.01001C8.84012 2.08001 5.55012 4.30001 3.94012 7.51001C3.26012 8.87001 2.87012 10.39 2.87012 12C2.87012 13.61 3.26012 15.13 3.94012 16.49H3.95012C5.56012 19.7 8.85012 21.92 12.6701 21.99C12.7401 22 12.8001 22 12.8701 22C15.5701 22 17.8401 21.11 19.4901 19.58C21.3801 17.83 22.4701 15.27 22.4701 12.22C22.4701 11.79 22.4501 11.42 22.4101 11.07Z" fill="black"/>
</svg>
