<svg width="25" height="24" viewBox="0 0 25 24" fill="none" xmlns="http://www.w3.org/2000/svg">
<g clip-path="url(#clip0_12_64954)">
<path d="M22.6699 11.25H20.6299C20.2699 7.44 17.2299 4.39 13.4199 4.04V2C13.4199 1.59 13.0799 1.25 12.6699 1.25C12.2599 1.25 11.9199 1.59 11.9199 2V4.04C8.10992 4.4 5.05992 7.44 4.70992 11.25H2.66992C2.25992 11.25 1.91992 11.59 1.91992 12C1.91992 12.41 2.25992 12.75 2.66992 12.75H4.70992C5.06992 16.56 8.10992 19.61 11.9199 19.96V22C11.9199 22.41 12.2599 22.75 12.6699 22.75C13.0799 22.75 13.4199 22.41 13.4199 22V19.96C17.2299 19.6 20.2799 16.56 20.6299 12.75H22.6699C23.0799 12.75 23.4199 12.41 23.4199 12C23.4199 11.59 23.0799 11.25 22.6699 11.25ZM12.6699 15.12C10.9499 15.12 9.54992 13.72 9.54992 12C9.54992 10.28 10.9499 8.88 12.6699 8.88C14.3899 8.88 15.7899 10.28 15.7899 12C15.7899 13.72 14.3899 15.12 12.6699 15.12Z" fill="#292D32"/>
</g>
<defs>
<clipPath id="clip0_12_64954">
<rect width="24" height="24" fill="white" transform="translate(0.669922)"/>
</clipPath>
</defs>
</svg>
