<svg width="25" height="24" viewBox="0 0 25 24" fill="none" xmlns="http://www.w3.org/2000/svg">
<path d="M19.7804 4.96C15.8704 1.05 9.52038 1.05 5.61038 4.96C1.63038 8.94 1.70038 15.43 5.81038 19.33C9.61038 22.92 15.7704 22.92 19.5704 19.33C23.6904 15.43 23.7604 8.94 19.7804 4.96ZM17.0504 16.65C15.8504 17.79 14.2704 18.36 12.6904 18.36C11.1104 18.36 9.53038 17.79 8.33038 16.65C8.03038 16.36 8.02038 15.89 8.30038 15.59C8.59038 15.29 9.06038 15.28 9.36038 15.56C11.1904 17.29 14.1804 17.3 16.0204 15.56C16.3204 15.28 16.8004 15.29 17.0804 15.59C17.3704 15.89 17.3504 16.36 17.0504 16.65Z" fill="#292D32"/>
</svg>
