<svg width="25" height="24" viewBox="0 0 25 24" fill="none" xmlns="http://www.w3.org/2000/svg">
<path d="M8.41992 2V7.8H2.66992C2.66992 4.19 4.81992 2.02 8.41992 2Z" fill="#292D32"/>
<path d="M22.6699 7.8H16.9199V2C20.5199 2.02 22.6699 4.19 22.6699 7.8Z" fill="#292D32"/>
<path d="M22.6699 16.3C22.6299 19.85 20.4899 21.98 16.9199 22V16.3H22.6699Z" fill="#292D32"/>
<path d="M8.41992 16.3V22C4.84992 21.98 2.70992 19.85 2.66992 16.3H8.41992Z" fill="#292D32"/>
<path d="M8.41992 9.30005H2.66992V14.8H8.41992V9.30005Z" fill="#292D32"/>
<path d="M22.6699 9.30005H16.9199V14.8H22.6699V9.30005Z" fill="#292D32"/>
<path d="M15.4199 9.30005H9.91992V14.8H15.4199V9.30005Z" fill="#292D32"/>
<path d="M15.4199 2H9.91992V7.8H15.4199V2Z" fill="#292D32"/>
<path d="M15.4199 16.3H9.91992V22H15.4199V16.3Z" fill="#292D32"/>
</svg>
