<svg width="25" height="24" viewBox="0 0 25 24" fill="none" xmlns="http://www.w3.org/2000/svg">
<path d="M12.6396 2C7.11965 2 2.63965 6.48 2.63965 12C2.63965 17.52 7.11965 22 12.6396 22C18.1596 22 22.6396 17.52 22.6396 12C22.6396 6.48 18.1696 2 12.6396 2ZM18.0696 16.43C16.8396 18.2 14.8196 19.25 12.6696 19.25C10.5196 19.25 8.49965 18.2 7.26965 16.43C7.02965 16.09 7.11965 15.62 7.45965 15.39C7.79965 15.15 8.26965 15.24 8.49965 15.58C9.44965 16.94 11.0096 17.76 12.6696 17.76C14.3296 17.76 15.8896 16.95 16.8396 15.58C17.0796 15.24 17.5396 15.16 17.8796 15.39C18.2296 15.62 18.3096 16.09 18.0696 16.43Z" fill="#292D32"/>
</svg>
