<svg width="25" height="24" viewBox="0 0 25 24" fill="none" xmlns="http://www.w3.org/2000/svg">
<path d="M10.75 11.8299H12.4L12.59 10.1699H10.94L10.75 11.8299Z" fill="#292D32"/>
<path d="M22.6399 7.21C22.4399 4.13 20.5399 2.23 17.4599 2.03C17.2599 2.01 17.0599 2 16.8599 2H8.47992C8.27992 2 8.07992 2.01 7.87992 2.03C4.79992 2.23 2.89992 4.13 2.69992 7.21C2.67992 7.41 2.66992 7.61 2.66992 7.81V16.19C2.66992 16.39 2.67992 16.59 2.69992 16.79C2.89992 19.87 4.79992 21.77 7.87992 21.97C8.07992 21.99 8.27992 22 8.47992 22H14.1699C14.7199 22 15.1699 21.55 15.1699 21V18.03C15.1699 16.08 16.7499 14.5 18.6999 14.5H21.6699C22.2199 14.5 22.6699 14.05 22.6699 13.5V7.81C22.6699 7.61 22.6599 7.41 22.6399 7.21ZM16.6699 10.17H14.0999L13.9099 11.83H16.1399C16.5599 11.83 16.8899 12.17 16.8899 12.58C16.8899 12.99 16.5599 13.33 16.1399 13.33H13.7499L13.4699 15.82C13.4299 16.2 13.0999 16.49 12.7199 16.49C12.6999 16.49 12.6699 16.49 12.6399 16.48C12.2299 16.44 11.9299 16.07 11.9799 15.65L12.2399 13.33H10.5899L10.3099 15.82C10.2699 16.2 9.93992 16.49 9.56992 16.49C9.53992 16.49 9.50992 16.49 9.47992 16.48C9.06992 16.44 8.76992 16.07 8.81992 15.65L9.07992 13.33H6.66992C6.25992 13.33 5.91992 12.99 5.91992 12.58C5.91992 12.17 6.25992 11.83 6.66992 11.83H9.23992L9.42992 10.17H7.19992C6.77992 10.17 6.44992 9.83 6.44992 9.42C6.44992 9.01 6.77992 8.67 7.19992 8.67H9.58992L9.86992 6.18C9.91992 5.77 10.2899 5.47 10.6999 5.52C11.1099 5.56 11.4099 5.93 11.3599 6.35L11.0999 8.67H12.7499L13.0299 6.18C13.0799 5.77 13.4499 5.47 13.8599 5.52C14.2699 5.56 14.5699 5.93 14.5199 6.35L14.2599 8.67H16.6699C17.0799 8.67 17.4199 9.01 17.4199 9.42C17.4199 9.83 17.0799 10.17 16.6699 10.17Z" fill="#292D32"/>
<path d="M21.6399 23H18.6999C17.4299 23 16.6699 22.24 16.6699 20.97V18.03C16.6699 16.76 17.4299 16 18.6999 16H21.6399C22.9099 16 23.6699 16.76 23.6699 18.03V20.97C23.6699 22.24 22.9099 23 21.6399 23ZM21.8599 19.69C21.7399 19.57 21.5799 19.51 21.4199 19.51C21.2599 19.51 21.0999 19.57 20.9799 19.69L20.7999 19.87V17.63C20.7999 17.28 20.5199 17 20.1699 17C19.8199 17 19.5399 17.28 19.5399 17.63V19.87L19.3599 19.69C19.1199 19.45 18.7199 19.45 18.4799 19.69C18.2399 19.93 18.2399 20.33 18.4799 20.57L19.7299 21.82C19.7799 21.87 19.8499 21.91 19.9199 21.94C19.9399 21.95 19.9599 21.95 19.9799 21.96C20.0299 21.98 20.0799 21.99 20.1399 21.99C20.1599 21.99 20.1799 21.99 20.1999 21.99C20.2699 21.99 20.3299 21.98 20.3999 21.95C20.4099 21.95 20.4099 21.95 20.4199 21.95C20.4899 21.92 20.5499 21.88 20.5999 21.83C20.6099 21.82 20.6099 21.82 20.6199 21.82L21.8699 20.57C22.1099 20.33 22.1099 19.93 21.8599 19.69Z" fill="#292D32"/>
</svg>
