<svg width="25" height="24" viewBox="0 0 25 24" fill="none" xmlns="http://www.w3.org/2000/svg">
<path d="M11.0898 13.4201H13.9298L14.2498 10.5801H11.4098L11.0898 13.4201Z" fill="#292D32"/>
<path d="M16.8599 2H8.47992C4.83992 2 2.66992 4.17 2.66992 7.81V16.18C2.66992 19.83 4.83992 22 8.47992 22H16.8499C20.4899 22 22.6599 19.83 22.6599 16.19V7.81C22.6699 4.17 20.4999 2 16.8599 2ZM19.4899 10.58H15.7199L15.3999 13.43H18.7699C19.1699 13.43 19.4999 13.76 19.4999 14.16C19.4999 14.56 19.1699 14.89 18.7699 14.89H15.2399L14.8299 18.55C14.7899 18.92 14.4699 19.2 14.0999 19.2C14.0699 19.2 14.0499 19.2 14.0199 19.2C13.6199 19.16 13.3299 18.79 13.3699 18.39L13.7599 14.89H10.9199L10.5099 18.55C10.4699 18.92 10.1499 19.2 9.77992 19.2C9.74992 19.2 9.72992 19.2 9.69992 19.2C9.29992 19.16 9.00992 18.79 9.04992 18.39L9.43992 14.89H5.84992C5.44992 14.89 5.11992 14.56 5.11992 14.16C5.11992 13.76 5.44992 13.43 5.84992 13.43H9.61992L9.93992 10.58H6.56992C6.16992 10.58 5.83992 10.25 5.83992 9.85C5.83992 9.45 6.16992 9.12 6.56992 9.12H10.0999L10.5099 5.46C10.5499 5.06 10.9199 4.77 11.3199 4.81C11.7199 4.85 12.0099 5.22 11.9699 5.62L11.5799 9.12H14.4199L14.8299 5.46C14.8799 5.06 15.2399 4.77 15.6399 4.81C16.0399 4.85 16.3299 5.22 16.2899 5.62L15.8999 9.12H19.5099C19.9099 9.12 20.2399 9.45 20.2399 9.85C20.2399 10.25 19.8899 10.58 19.4899 10.58Z" fill="#292D32"/>
</svg>
