<svg width="25" height="24" viewBox="0 0 25 24" fill="none" xmlns="http://www.w3.org/2000/svg">
<path d="M3.41974 18.65C3.00974 18.65 2.66974 18.31 2.66974 17.9V12.2C2.61974 9.49005 3.62974 6.93005 5.50974 5.01005C7.38974 3.10005 9.90974 2.05005 12.6197 2.05005C18.1597 2.05005 22.6697 6.56005 22.6697 12.1V17.8C22.6697 18.21 22.3297 18.55 21.9197 18.55C21.5097 18.55 21.1697 18.21 21.1697 17.8V12.1C21.1697 7.39005 17.3397 3.55005 12.6197 3.55005C10.3097 3.55005 8.16974 4.44005 6.57974 6.06005C4.97974 7.69005 4.12974 9.86005 4.16974 12.18V17.89C4.16974 18.31 3.83974 18.65 3.41974 18.65Z" fill="#292D32"/>
<path d="M6.60992 12.45H6.47992C4.37992 12.45 2.66992 14.16 2.66992 16.26V18.14C2.66992 20.24 4.37992 21.95 6.47992 21.95H6.60992C8.70992 21.95 10.4199 20.24 10.4199 18.14V16.26C10.4199 14.16 8.70992 12.45 6.60992 12.45Z" fill="#292D32"/>
<path d="M18.8599 12.45H18.7299C16.6299 12.45 14.9199 14.16 14.9199 16.26V18.14C14.9199 20.24 16.6299 21.95 18.7299 21.95H18.8599C20.9599 21.95 22.6699 20.24 22.6699 18.14V16.26C22.6699 14.16 20.9599 12.45 18.8599 12.45Z" fill="#292D32"/>
</svg>
