<svg width="25" height="24" viewBox="0 0 25 24" fill="none" xmlns="http://www.w3.org/2000/svg">
<path d="M22.6698 8.69008C22.6698 9.88008 22.4798 10.9801 22.1498 12.0001C20.5698 17.0001 15.6998 19.9901 13.2898 20.8101C12.9498 20.9301 12.3898 20.9301 12.0498 20.8101C11.4098 20.5901 10.5998 20.2201 9.7298 19.7001C9.1698 19.3701 9.0798 18.5901 9.5398 18.1301L20.8198 6.85008C21.3598 6.31008 22.3098 6.54008 22.4998 7.28008C22.6098 7.73008 22.6698 8.20008 22.6698 8.69008Z" fill="#292D32"/>
<path d="M23.2004 1.46994C22.9104 1.17994 22.4304 1.17994 22.1404 1.46994L19.8004 3.80994C19.0103 3.35994 18.0904 3.09994 17.1104 3.09994C15.3004 3.09994 13.6804 3.97994 12.6704 5.32994C11.6604 3.97994 10.0404 3.09994 8.23035 3.09994C5.16035 3.09994 2.67035 5.59994 2.67035 8.68994C2.67035 9.87994 2.86035 10.9799 3.19035 11.9999C3.84035 14.0699 5.06035 15.7999 6.44035 17.1699L2.14035 21.4699C1.85035 21.7599 1.85035 22.2399 2.14035 22.5299C2.29035 22.6799 2.48035 22.7499 2.67035 22.7499C2.86035 22.7499 3.05035 22.6799 3.20035 22.5299L23.2004 2.52994C23.4904 2.23994 23.4904 1.75994 23.2004 1.46994Z" fill="#292D32"/>
</svg>
