<svg width="25" height="24" viewBox="0 0 25 24" fill="none" xmlns="http://www.w3.org/2000/svg">
<path d="M17.1099 3.1001C15.2999 3.1001 13.6799 3.9801 12.6699 5.3301C11.6599 3.9801 10.0399 3.1001 8.22992 3.1001C5.15992 3.1001 2.66992 5.6001 2.66992 8.6901C2.66992 9.8801 2.85992 10.9801 3.18992 12.0001C4.76992 17.0001 9.63992 19.9901 12.0499 20.8101C12.3899 20.9301 12.9499 20.9301 13.2899 20.8101C15.6999 19.9901 20.5699 17.0001 22.1499 12.0001C22.4799 10.9801 22.6699 9.8801 22.6699 8.6901C22.6699 5.6001 20.1799 3.1001 17.1099 3.1001ZM15.5099 11.3801L11.9699 14.9201C11.8299 15.0601 11.5699 15.1901 11.3799 15.2201L10.0299 15.4001C9.53992 15.4701 9.19992 15.1301 9.26992 14.6401L9.45992 13.2901C9.48992 13.1001 9.61992 12.8301 9.75992 12.7001L13.2999 9.1601C13.9099 8.5501 14.6199 8.2601 15.5199 9.1601C16.4099 10.0601 16.1199 10.7701 15.5099 11.3801Z" fill="#292D32"/>
</svg>
