<svg width="25" height="24" viewBox="0 0 25 24" fill="none" xmlns="http://www.w3.org/2000/svg">
<path d="M12.6699 2C7.14992 2 2.66992 6.48 2.66992 12C2.66992 17.52 7.14992 22 12.6699 22C18.1899 22 22.6699 17.52 22.6699 12C22.6699 6.48 18.1899 2 12.6699 2ZM12.9999 17C12.8199 17.06 12.5099 17.06 12.3299 17C10.7699 16.47 7.26992 14.24 7.26992 10.46C7.26992 8.79 8.60992 7.44 10.2699 7.44C11.2499 7.44 12.1199 7.91 12.6699 8.65C13.2099 7.92 14.0899 7.44 15.0699 7.44C16.7299 7.44 18.0699 8.79 18.0699 10.46C18.0699 14.24 14.5699 16.47 12.9999 17Z" fill="#292D32"/>
</svg>
