<svg width="25" height="24" viewBox="0 0 25 24" fill="none" xmlns="http://www.w3.org/2000/svg">
<path d="M21.3503 13.9099V13.8999C20.4703 12.9699 19.2403 12.3999 17.8703 12.3999C15.2203 12.3999 13.0703 14.5499 13.0703 17.1999C13.0703 18.4299 13.5403 19.5499 14.3003 20.3999C15.1803 21.3799 16.4503 21.9999 17.8703 21.9999C20.5203 21.9999 22.6703 19.8499 22.6703 17.1999C22.6703 15.9299 22.1703 14.7699 21.3503 13.9099ZM19.6603 18.0099H18.6203V19.0999C18.6203 19.5099 18.2803 19.8499 17.8703 19.8499C17.4603 19.8499 17.1203 19.5099 17.1203 19.0999V18.0099H16.0803C15.6603 18.0099 15.3303 17.6799 15.3303 17.2599C15.3303 16.8499 15.6503 16.5199 16.0703 16.5099H17.1203V15.5099C17.1203 15.4899 17.1203 15.4699 17.1303 15.4499C17.1503 15.0699 17.4803 14.7599 17.8703 14.7599C18.2703 14.7599 18.6003 15.0799 18.6203 15.4799V16.5099H19.6603C20.0803 16.5099 20.4103 16.8499 20.4103 17.2599C20.4103 17.6799 20.0803 18.0099 19.6603 18.0099Z" fill="#292D32"/>
<path d="M22.6699 8.73014C22.6699 9.92014 22.4799 11.0201 22.1499 12.0401C22.0899 12.2501 21.8399 12.3101 21.6599 12.1801C20.5699 11.3701 19.2399 10.9401 17.8699 10.9401C14.3999 10.9401 11.5699 13.7701 11.5699 17.2401C11.5699 18.3201 11.8499 19.3801 12.3799 20.3201C12.5399 20.6001 12.3499 20.9601 12.0499 20.8501C9.63992 20.0301 4.76992 17.0401 3.18992 12.0401C2.85992 11.0201 2.66992 9.92014 2.66992 8.73014C2.66992 5.64014 5.15992 3.14014 8.22992 3.14014C10.0399 3.14014 11.6599 4.02014 12.6699 5.37014C13.6799 4.02014 15.2999 3.14014 17.1099 3.14014C20.1799 3.14014 22.6699 5.64014 22.6699 8.73014Z" fill="#292D32"/>
</svg>
