<svg width="25" height="24" viewBox="0 0 25 24" fill="none" xmlns="http://www.w3.org/2000/svg">
<path d="M22.4099 20.5102L21.5499 19.6502C21.9999 18.9702 22.2599 18.1602 22.2599 17.2902C22.2599 14.9202 20.3399 12.9902 17.9599 12.9902C15.5799 12.9902 13.6699 14.9202 13.6699 17.3002C13.6699 19.6802 15.5899 21.6002 17.9699 21.6002C18.8399 21.6002 19.6499 21.3402 20.3299 20.8902L21.1899 21.7502C21.3599 21.9202 21.5799 22.0102 21.8099 22.0102C22.0399 22.0102 22.2599 21.9202 22.4299 21.7502C22.7599 21.4002 22.7599 20.8502 22.4099 20.5102Z" fill="#292D32"/>
<path d="M22.6699 8.73014C22.6699 9.92014 22.4799 11.0201 22.1499 12.0401C22.0899 12.2501 21.8399 12.3101 21.6599 12.1801C20.5699 11.3701 19.2399 10.9401 17.8699 10.9401C14.3999 10.9401 11.5699 13.7701 11.5699 17.2401C11.5699 18.3201 11.8499 19.3801 12.3799 20.3201C12.5399 20.6001 12.3499 20.9601 12.0499 20.8501C9.63992 20.0301 4.76992 17.0401 3.18992 12.0401C2.85992 11.0201 2.66992 9.92014 2.66992 8.73014C2.66992 5.64014 5.15992 3.14014 8.22992 3.14014C10.0399 3.14014 11.6599 4.02014 12.6699 5.37014C13.6799 4.02014 15.2999 3.14014 17.1099 3.14014C20.1799 3.14014 22.6699 5.64014 22.6699 8.73014Z" fill="#292D32"/>
</svg>
