<svg width="25" height="24" viewBox="0 0 25 24" fill="none" xmlns="http://www.w3.org/2000/svg">
<path d="M16.8599 2H8.47992C4.83992 2 2.66992 4.17 2.66992 7.81V16.18C2.66992 19.83 4.83992 22 8.47992 22H16.8499C20.4899 22 22.6599 19.83 22.6599 16.19V7.81C22.6699 4.17 20.4999 2 16.8599 2ZM17.0799 9.83C16.4699 11.57 14.8299 12.74 12.9899 12.74C12.9799 12.74 12.9799 12.74 12.9699 12.74L10.9099 12.73C10.9099 12.73 10.9099 12.73 10.8999 12.73C10.1399 12.73 9.47992 13.24 9.27992 13.97C10.1699 14.25 10.8199 15.08 10.8199 16.06C10.8199 17.27 9.82992 18.26 8.61992 18.26C7.40992 18.26 6.41992 17.27 6.41992 16.06C6.41992 15.17 6.95992 14.4 7.71992 14.06V9.7C6.95992 9.4 6.41992 8.66 6.41992 7.8C6.41992 6.67 7.33992 5.75 8.46992 5.75C9.59992 5.75 10.5199 6.67 10.5199 7.8C10.5199 8.67 9.97992 9.4 9.21992 9.7V11.72C9.70992 11.41 10.2899 11.23 10.8999 11.23H10.9099L12.9699 11.24C14.1499 11.28 15.1999 10.52 15.6199 9.42C15.1299 9.04 14.8099 8.46 14.8099 7.8C14.8099 6.67 15.7299 5.75 16.8599 5.75C17.9899 5.75 18.9099 6.67 18.9099 7.8C18.9199 8.86 18.1099 9.72 17.0799 9.83Z" fill="#292D32"/>
</svg>
