<svg width="25" height="24" viewBox="0 0 25 24" fill="none" xmlns="http://www.w3.org/2000/svg">
<path d="M21.5302 8.37L14.6002 2.83C13.5302 1.97 11.8002 1.97 10.7402 2.82L3.81019 8.37C3.03019 8.99 2.53019 10.3 2.70019 11.28L4.03019 19.24C4.27019 20.66 5.63019 21.81 7.07019 21.81H18.2702C19.7002 21.81 21.0702 20.65 21.3102 19.24L22.6402 11.28C22.8002 10.3 22.3002 8.99 21.5302 8.37ZM13.3802 17.2C13.1802 17.4 12.9302 17.5 12.6702 17.5C12.4102 17.5 12.1602 17.4 11.9602 17.21C11.5702 16.82 11.5702 16.19 11.9602 15.8C12.3502 15.41 12.9902 15.41 13.3802 15.8C13.7702 16.18 13.7702 16.81 13.3802 17.2ZM15.3302 14.9C15.1802 15.05 14.9902 15.13 14.7902 15.13C14.6002 15.13 14.4202 15.06 14.2702 14.92C13.3002 13.99 12.0402 13.99 11.0602 14.92C10.7602 15.21 10.2902 15.2 10.0002 14.9C9.71019 14.6 9.72019 14.13 10.0202 13.84C11.5702 12.35 13.7402 12.35 15.3002 13.84C15.6102 14.12 15.6202 14.6 15.3302 14.9ZM17.4502 12.78C17.3002 12.93 17.1102 13.01 16.9102 13.01C16.7202 13.01 16.5302 12.94 16.3902 12.8C15.9202 12.34 15.3902 11.97 14.8302 11.7C13.4302 11.03 11.9002 11.03 10.5102 11.7C9.95019 11.97 9.43019 12.34 8.95019 12.8C8.66019 13.09 8.18019 13.09 7.89019 12.79C7.60019 12.49 7.61019 12.02 7.90019 11.73C8.49019 11.15 9.15019 10.69 9.86019 10.35C11.6702 9.48 13.6702 9.48 15.4702 10.35C16.1802 10.69 16.8402 11.15 17.4302 11.73C17.7302 12.01 17.7402 12.49 17.4502 12.78Z" fill="#292D32"/>
</svg>
