<svg width="25" height="24" viewBox="0 0 25 24" fill="none" xmlns="http://www.w3.org/2000/svg">
<path d="M20.7102 6.82018L14.9502 2.79018C13.3802 1.69018 10.9702 1.75018 9.46016 2.92018L4.45016 6.83018C3.45016 7.61018 2.66016 9.21018 2.66016 10.4702V17.3702C2.66016 19.9202 4.73016 22.0002 7.28016 22.0002H18.0602C20.6102 22.0002 22.6802 19.9302 22.6802 17.3802V10.6002C22.6802 9.25018 21.8102 7.59018 20.7102 6.82018ZM17.5502 16.1902C17.5502 16.2802 17.5302 16.3702 17.5002 16.4602C17.4302 16.6302 17.2902 16.7702 17.1202 16.8402C17.0302 16.8802 16.9402 16.8902 16.8502 16.8902H14.9902C14.6002 16.8902 14.2902 16.5802 14.2902 16.1902C14.2902 15.8002 14.6002 15.4902 14.9902 15.4902H15.1702L13.0602 13.3802L12.0402 14.9002C11.9202 15.0702 11.7402 15.1902 11.5302 15.2102C11.3102 15.2302 11.1202 15.1602 10.9702 15.0102L7.99016 12.0302C7.72016 11.7602 7.72016 11.3202 7.99016 11.0402C8.26016 10.7602 8.70016 10.7702 8.98016 11.0402L11.3602 13.4202L12.3802 11.9002C12.5002 11.7302 12.6802 11.6102 12.8902 11.5902C13.1102 11.5702 13.3002 11.6402 13.4502 11.7902L16.1702 14.5102V14.3302C16.1702 13.9402 16.4802 13.6302 16.8702 13.6302C17.2602 13.6302 17.5702 13.9402 17.5702 14.3302V16.1902H17.5502Z" fill="#292D32"/>
</svg>
