<svg width="25" height="24" viewBox="0 0 25 24" fill="none" xmlns="http://www.w3.org/2000/svg">
<path d="M21.5302 8.37L14.6002 2.83C13.5302 1.97 11.8002 1.97 10.7402 2.82L3.81019 8.37C3.03019 8.99 2.53019 10.3 2.70019 11.28L4.03019 19.24C4.27019 20.66 5.63019 21.81 7.07019 21.81H18.2702C19.7002 21.81 21.0702 20.65 21.3102 19.24L22.6402 11.28C22.8002 10.3 22.3002 8.99 21.5302 8.37ZM12.6702 15.5C11.2902 15.5 10.1702 14.38 10.1702 13C10.1702 11.62 11.2902 10.5 12.6702 10.5C14.0502 10.5 15.1702 11.62 15.1702 13C15.1702 14.38 14.0502 15.5 12.6702 15.5Z" fill="#292D32"/>
</svg>
