<svg width="25" height="24" viewBox="0 0 25 24" fill="none" xmlns="http://www.w3.org/2000/svg">
<path d="M20.7102 6.82L14.9502 2.79C13.3802 1.69 10.9702 1.75 9.46016 2.92L4.45016 6.83C3.45016 7.61 2.66016 9.21 2.66016 10.47V17.37C2.66016 19.92 4.73016 22 7.28016 22H18.0602C20.6102 22 22.6802 19.93 22.6802 17.38V10.6C22.6802 9.25 21.8102 7.59 20.7102 6.82ZM13.4202 18C13.4202 18.41 13.0802 18.75 12.6702 18.75C12.2602 18.75 11.9202 18.41 11.9202 18V15C11.9202 14.59 12.2602 14.25 12.6702 14.25C13.0802 14.25 13.4202 14.59 13.4202 15V18Z" fill="#292D32"/>
</svg>
