<svg width="25" height="24" viewBox="0 0 25 24" fill="none" xmlns="http://www.w3.org/2000/svg">
<path d="M20.5498 2H4.77976C4.17976 2 3.71977 2.52 3.78977 3.11L5.58975 19.33C5.62975 19.73 5.91979 20.07 6.30979 20.18L12.3897 21.92C12.5697 21.97 12.7598 21.97 12.9398 21.92L19.0197 20.18C19.4097 20.07 19.6898 19.73 19.7398 19.33L21.5398 3.11C21.6098 2.52 21.1498 2 20.5498 2ZM16.9198 7.5H9.2598L9.58975 10.5H16.4198C16.6298 10.5 16.8298 10.59 16.9798 10.75C17.1198 10.91 17.1898 11.12 17.1698 11.33L16.6698 16.33C16.6398 16.64 16.4298 16.89 16.1298 16.98L12.6298 17.98C12.5598 18 12.4898 18.01 12.4198 18.01C12.3498 18.01 12.2797 18 12.2097 17.98L8.70975 16.98C8.38975 16.89 8.16977 16.59 8.16977 16.26V14.26C8.16977 13.85 8.50977 13.51 8.91977 13.51C9.32977 13.51 9.66977 13.85 9.66977 14.26V15.69L12.4198 16.48L15.2198 15.68L15.5898 12.01H8.91977C8.53977 12.01 8.21977 11.72 8.16977 11.34L7.66977 6.84C7.64977 6.63 7.70977 6.41999 7.85977 6.25999C7.99977 6.09999 8.20977 6.00999 8.41977 6.00999H16.9198C17.3298 6.00999 17.6698 6.34999 17.6698 6.75999C17.6698 7.16999 17.3298 7.5 16.9198 7.5Z" fill="black"/>
</svg>
