<svg width="25" height="24" viewBox="0 0 25 24" fill="none" xmlns="http://www.w3.org/2000/svg">
<path d="M16.8599 2H8.47992C4.83992 2 2.66992 4.17 2.66992 7.81V16.18C2.66992 19.82 4.83992 21.99 8.47992 21.99H16.8499C20.4899 21.99 22.6599 19.82 22.6599 16.18V7.81C22.6699 4.17 20.4999 2 16.8599 2ZM13.7299 16.68C13.6499 16.71 13.5699 16.72 13.4899 16.72C13.1799 16.72 12.8799 16.52 12.7799 16.21L12.0699 14.08H8.98992L8.00992 16.28C7.83992 16.66 7.39992 16.83 7.01992 16.66C6.63992 16.49 6.46992 16.05 6.63992 15.67L10.1699 7.73999C10.2999 7.45999 10.5699 7.26999 10.8899 7.29999C11.1999 7.30999 11.4699 7.52 11.5699 7.81L14.2099 15.74C14.3299 16.12 14.1199 16.55 13.7299 16.68ZM17.7699 15.97C17.7699 16.38 17.4299 16.72 17.0199 16.72C16.6099 16.72 16.2699 16.38 16.2699 15.97V10.68C16.2699 10.27 16.6099 9.92999 17.0199 9.92999C17.4299 9.92999 17.7699 10.27 17.7699 10.68V15.97ZM17.9399 8.42001C17.8899 8.54001 17.8199 8.64999 17.7199 8.73999C17.6299 8.82999 17.5199 8.90999 17.3999 8.95999C17.2799 9.00999 17.1499 9.03 17.0199 9.03C16.7499 9.03 16.4999 8.92999 16.3099 8.73999C16.2199 8.64999 16.1399 8.54001 16.0899 8.42001C16.0399 8.29001 16.0199 8.17 16.0199 8.03C16.0199 7.9 16.0399 7.76999 16.0899 7.64999C16.1499 7.52999 16.2199 7.41999 16.3099 7.32999C16.3999 7.22999 16.5099 7.15999 16.6299 7.10999C16.9999 6.95999 17.4499 7.04999 17.7199 7.32999C17.8199 7.41999 17.8899 7.52999 17.9399 7.64999C17.9899 7.76999 18.0199 7.9 18.0199 8.03C18.0199 8.17 17.9899 8.30001 17.9399 8.42001Z" fill="black"/>
<path d="M9.6499 12.57H11.5699L10.7499 10.11L9.6499 12.57Z" fill="black"/>
</svg>
