<svg width="25" height="24" viewBox="0 0 25 24" fill="none" xmlns="http://www.w3.org/2000/svg">
<path d="M22.2298 10.74L20.8798 9.16C20.6298 8.86 20.4198 8.3 20.4198 7.9V6.2C20.4198 5.14 19.5498 4.27 18.4898 4.27H16.7898C16.3898 4.27 15.8198 4.06 15.5198 3.81L13.9398 2.46C13.2498 1.87 12.1198 1.87 11.4298 2.46L9.8298 3.81C9.5298 4.06 8.9698 4.27 8.5698 4.27H6.8398C5.7798 4.27 4.9098 5.14 4.9098 6.2V7.9C4.9098 8.29 4.7098 8.85 4.4598 9.15L3.1098 10.74C2.5298 11.44 2.5298 12.56 3.1098 13.24L4.4598 14.83C4.7098 15.12 4.9098 15.69 4.9098 16.08V17.79C4.9098 18.85 5.7798 19.72 6.8398 19.72H8.5798C8.9698 19.72 9.5398 19.93 9.8398 20.18L11.4198 21.53C12.1098 22.12 13.2398 22.12 13.9298 21.53L15.5098 20.18C15.8098 19.93 16.3698 19.72 16.7698 19.72H18.4698C19.5298 19.72 20.3998 18.85 20.3998 17.79V16.09C20.3998 15.69 20.6098 15.13 20.8598 14.83L22.2098 13.25C22.8198 12.57 22.8198 11.44 22.2298 10.74ZM11.9198 8.13C11.9198 7.72 12.2598 7.38 12.6698 7.38C13.0798 7.38 13.4198 7.72 13.4198 8.13V12.96C13.4198 13.37 13.0798 13.71 12.6698 13.71C12.2598 13.71 11.9198 13.37 11.9198 12.96V8.13ZM12.6698 16.87C12.1198 16.87 11.6698 16.42 11.6698 15.87C11.6698 15.32 12.1098 14.87 12.6698 14.87C13.2198 14.87 13.6698 15.32 13.6698 15.87C13.6698 16.42 13.2298 16.87 12.6698 16.87Z" fill="#292D32"/>
</svg>
