<svg width="25" height="24" viewBox="0 0 25 24" fill="none" xmlns="http://www.w3.org/2000/svg">
<path d="M12.6699 2C7.15992 2 2.66992 6.49 2.66992 12C2.66992 17.51 7.15992 22 12.6699 22C18.1799 22 22.6699 17.51 22.6699 12C22.6699 6.49 18.1799 2 12.6699 2ZM11.9199 8C11.9199 7.59 12.2599 7.25 12.6699 7.25C13.0799 7.25 13.4199 7.59 13.4199 8V13C13.4199 13.41 13.0799 13.75 12.6699 13.75C12.2599 13.75 11.9199 13.41 11.9199 13V8ZM13.5899 16.38C13.5399 16.51 13.4699 16.61 13.3799 16.71C13.2799 16.8 13.1699 16.87 13.0499 16.92C12.9299 16.97 12.7999 17 12.6699 17C12.5399 17 12.4099 16.97 12.2899 16.92C12.1699 16.87 12.0599 16.8 11.9599 16.71C11.8699 16.61 11.7999 16.51 11.7499 16.38C11.6999 16.26 11.6699 16.13 11.6699 16C11.6699 15.87 11.6999 15.74 11.7499 15.62C11.7999 15.5 11.8699 15.39 11.9599 15.29C12.0599 15.2 12.1699 15.13 12.2899 15.08C12.5299 14.98 12.8099 14.98 13.0499 15.08C13.1699 15.13 13.2799 15.2 13.3799 15.29C13.4699 15.39 13.5399 15.5 13.5899 15.62C13.6399 15.74 13.6699 15.87 13.6699 16C13.6699 16.13 13.6399 16.26 13.5899 16.38Z" fill="#292D32"/>
</svg>
