<svg width="25" height="24" viewBox="0 0 25 24" fill="none" xmlns="http://www.w3.org/2000/svg">
<path d="M20.1802 6.42L13.6802 2.60001C13.0502 2.23001 12.2801 2.23001 11.6501 2.60001L5.15015 6.42C4.54015 6.78 4.16016 7.44 4.16016 8.14V15.85C4.16016 16.56 4.54015 17.21 5.15015 17.57L11.6501 21.39C12.2801 21.76 13.0502 21.76 13.6802 21.39L20.1802 17.57C20.7902 17.21 21.1702 16.55 21.1702 15.85V8.14C21.1702 7.44 20.7902 6.78 20.1802 6.42ZM18.0602 15.64L13.0602 18.64C12.9402 18.71 12.8102 18.75 12.6702 18.75C12.5302 18.75 12.4002 18.71 12.2802 18.64L7.28015 15.64C6.92015 15.43 6.81014 14.97 7.02014 14.61C7.23014 14.25 7.69017 14.14 8.05017 14.35L12.6602 17.12L16.2002 14.99L14.3401 13.87L13.6902 14.52C13.5402 14.67 13.3502 14.74 13.1602 14.74C12.9702 14.74 12.7802 14.67 12.6302 14.52C12.3402 14.23 12.3402 13.75 12.6302 13.46L13.0102 13.08L11.2101 12L10.6902 12.52C10.5402 12.67 10.3502 12.74 10.1602 12.74C9.97016 12.74 9.78019 12.67 9.63019 12.52C9.34019 12.23 9.34019 11.75 9.63019 11.46L9.89014 11.2L7.28015 9.63001C7.05015 9.49001 6.92017 9.25001 6.92017 8.99001C6.92017 8.73001 7.06015 8.48001 7.28015 8.35001L12.2802 5.35001C12.5202 5.21001 12.8202 5.21001 13.0502 5.35001L18.0502 8.35001C18.4102 8.56001 18.5202 9.02001 18.3102 9.38001C18.1002 9.73001 17.6402 9.85 17.2802 9.64L12.6702 6.87L9.13019 9L10.9902 10.12L11.6401 9.47001C11.9301 9.18001 12.4102 9.18001 12.7002 9.47001C12.9902 9.76 12.9902 10.24 12.7002 10.53L12.3202 10.91L14.1202 11.99L14.6401 11.47C14.9301 11.18 15.4102 11.18 15.7002 11.47C15.9902 11.76 15.9902 12.24 15.7002 12.53L15.4402 12.79L18.0502 14.36C18.2802 14.5 18.4102 14.74 18.4102 15C18.4102 15.26 18.2802 15.51 18.0602 15.64Z" fill="black"/>
</svg>
