<svg width="25" height="24" viewBox="0 0 25 24" fill="none" xmlns="http://www.w3.org/2000/svg">
<path d="M17.6699 22.75H7.66992C7.25992 22.75 6.91992 22.41 6.91992 22C6.91992 21.59 7.25992 21.25 7.66992 21.25H17.6699C18.0799 21.25 18.4199 21.59 18.4199 22C18.4199 22.41 18.0799 22.75 17.6699 22.75Z" fill="#292D32"/>
<path d="M18.6699 2H6.66992C4.45992 2 2.66992 3.79 2.66992 6V15C2.66992 17.21 4.45992 19 6.66992 19H18.6699C20.8799 19 22.6699 17.21 22.6699 15V6C22.6699 3.79 20.8799 2 18.6699 2ZM10.6599 7.32C11.2199 7.32 11.6699 7.77 11.6699 8.32C11.6699 8.87 11.2199 9.32 10.6699 9.32C10.1199 9.32 9.66992 8.87 9.66992 8.32C9.66992 7.77 10.1099 7.32 10.6599 7.32ZM7.50992 7.32C8.06992 7.32 8.51992 7.77 8.51992 8.32C8.51992 8.87 8.06992 9.32 7.51992 9.32C6.96992 9.32 6.51992 8.87 6.51992 8.32C6.51992 7.77 6.94992 7.32 7.50992 7.32ZM17.9299 14.86H7.42992C7.00992 14.86 6.66992 14.52 6.66992 14.11C6.66992 13.7 6.99992 13.36 7.40992 13.36H17.9399C18.3499 13.36 18.6899 13.7 18.6899 14.11C18.6899 14.52 18.3499 14.86 17.9299 14.86ZM17.9299 9.07H14.2499C13.8399 9.07 13.4999 8.73 13.4999 8.32C13.4999 7.91 13.8399 7.57 14.2499 7.57H17.9299C18.3399 7.57 18.6799 7.91 18.6799 8.32C18.6799 8.73 18.3499 9.07 17.9299 9.07Z" fill="#292D32"/>
</svg>
