<svg width="25" height="24" viewBox="0 0 25 24" fill="none" xmlns="http://www.w3.org/2000/svg">
<path d="M15.9301 21.9999C15.8701 21.9999 15.8001 21.9899 15.7401 21.9699C13.7301 21.3999 11.6201 21.3999 9.61008 21.9699C9.24008 22.0699 8.85008 21.8599 8.75008 21.4899C8.64008 21.1199 8.86008 20.7299 9.23008 20.6299C11.4901 19.9899 13.8701 19.9899 16.1301 20.6299C16.5001 20.7399 16.7201 21.1199 16.6101 21.4899C16.5101 21.7999 16.2301 21.9999 15.9301 21.9999Z" fill="#292D32"/>
<path d="M19.8801 6.36001C18.8401 4.26001 16.8301 2.71001 14.5001 2.20001C12.0601 1.66001 9.56014 2.24001 7.65014 3.78001C5.73014 5.31001 4.64014 7.60001 4.64014 10.05C4.64014 12.64 6.19014 15.35 8.53014 16.92V17.75C8.52014 18.03 8.51014 18.46 8.85014 18.81C9.20014 19.17 9.72014 19.21 10.1301 19.21H15.2601C15.8001 19.21 16.2101 19.06 16.4901 18.78C16.8701 18.39 16.8601 17.89 16.8501 17.62V16.92C19.9501 14.83 21.9001 10.42 19.8801 6.36001ZM14.3901 11.62L13.3201 13.48C13.1801 13.72 12.9301 13.86 12.6701 13.86C12.5401 13.86 12.4101 13.83 12.3001 13.76C11.9401 13.55 11.8201 13.09 12.0201 12.74L12.8701 11.26H12.0301C11.5301 11.26 11.1201 11.04 10.9001 10.67C10.6801 10.29 10.7001 9.83001 10.9501 9.39001L12.0201 7.53001C12.2301 7.17001 12.6901 7.05001 13.0401 7.25001C13.4001 7.46001 13.5201 7.92001 13.3201 8.27001L12.4701 9.75001H13.3101C13.8101 9.75001 14.2201 9.97001 14.4401 10.34C14.6601 10.72 14.6401 11.19 14.3901 11.62Z" fill="#292D32"/>
</svg>
