<svg width="25" height="24" viewBox="0 0 25 24" fill="none" xmlns="http://www.w3.org/2000/svg">
<path d="M18.6699 2H6.66992C5.00992 2 3.66992 3.33 3.66992 4.97V15.88C3.66992 17.52 5.00992 18.85 6.66992 18.85H7.42992C8.22992 18.85 8.98992 19.16 9.54992 19.72L11.2599 21.41C12.0399 22.18 13.3099 22.18 14.0899 21.41L15.7999 19.72C16.3599 19.16 17.1299 18.85 17.9199 18.85H18.6699C20.3299 18.85 21.6699 17.52 21.6699 15.88V4.97C21.6699 3.33 20.3299 2 18.6699 2ZM17.3499 10.5L16.1799 14.06C16.0299 14.65 15.3999 15.13 14.7599 15.13H12.9099C12.5899 15.13 12.1399 15.02 11.9399 14.82L10.4699 13.67C10.4399 14.31 10.1499 14.58 9.43992 14.58H8.95992C8.21992 14.58 7.91992 14.29 7.91992 13.59V8.82C7.91992 8.12 8.21992 7.83 8.95992 7.83H9.44992C10.1899 7.83 10.4899 8.12 10.4899 8.82V9.18L12.4299 6.3C12.6299 5.99 13.1399 5.77 13.5699 5.94C14.0399 6.1 14.3399 6.62 14.2399 7.08L13.9999 8.64C13.9699 8.77 13.9999 8.91 14.0899 9C14.1699 9.09 14.2899 9.15 14.4199 9.15H16.3699C16.7499 9.15 17.0699 9.3 17.2599 9.57C17.4399 9.83 17.4699 10.16 17.3499 10.5Z" fill="#292D32"/>
</svg>
