<svg width="25" height="24" viewBox="0 0 25 24" fill="none" xmlns="http://www.w3.org/2000/svg">
<path d="M19.7421 14.24C19.4521 14.53 18.9921 14.53 18.7121 14.24C18.4221 13.95 18.4221 13.49 18.7121 13.21C20.7121 11.21 20.7121 7.95998 18.7121 5.96998C16.7121 3.97998 13.4621 3.96998 11.4721 5.96998C9.48215 7.96998 9.47215 11.22 11.4721 13.21C11.7621 13.5 11.7621 13.96 11.4721 14.24C11.1821 14.53 10.7221 14.53 10.4421 14.24C7.87215 11.67 7.87215 7.48998 10.4421 4.92998C13.0121 2.36998 17.1921 2.35998 19.7521 4.92998C22.3121 7.49998 22.3121 11.67 19.7421 14.24Z" fill="#292D32"/>
<path d="M5.6016 9.75998C5.8916 9.46998 6.3516 9.46998 6.6316 9.75998C6.9216 10.05 6.9216 10.51 6.6316 10.79C4.6316 12.79 4.6316 16.04 6.6316 18.03C8.6316 20.02 11.8816 20.03 13.8716 18.03C15.8616 16.03 15.8716 12.78 13.8716 10.79C13.5816 10.5 13.5816 10.04 13.8716 9.75998C14.1616 9.46998 14.6216 9.46998 14.9016 9.75998C17.4716 12.33 17.4716 16.51 14.9016 19.07C12.3316 21.63 8.1516 21.64 5.5916 19.07C3.0316 16.5 3.0316 12.33 5.6016 9.75998Z" fill="#292D32"/>
</svg>
