<svg width="25" height="24" viewBox="0 0 25 24" fill="none" xmlns="http://www.w3.org/2000/svg">
<path d="M12.6699 2C7.14992 2 2.66992 6.48 2.66992 12C2.66992 17.52 7.14992 22 12.6699 22C18.1899 22 22.6699 17.52 22.6699 12C22.6699 6.48 18.1899 2 12.6699 2ZM16.4899 16.32C16.3999 16.8 15.9899 17.14 15.5099 17.14H9.96991C9.30991 17.14 8.82992 16.5 9.00992 15.87L9.84991 12.92L8.13992 13.26C8.08992 13.27 8.03993 13.27 7.98993 13.27C7.63993 13.27 7.32992 13.02 7.25992 12.67C7.17992 12.26 7.43991 11.87 7.84991 11.79L10.3199 11.3L11.6299 6.73C11.6899 6.52 11.8899 6.37 12.1099 6.37H13.4699C14.1299 6.37 14.6099 6.99 14.4399 7.63L13.6299 10.64L15.5599 10.25C15.9599 10.17 16.3599 10.43 16.4399 10.84C16.5199 11.25 16.2599 11.64 15.8499 11.72L13.1899 12.25L12.6399 14.3H15.6699C16.2899 14.3 16.7599 14.86 16.6499 15.48L16.4899 16.32Z" fill="black"/>
</svg>
