<svg width="25" height="24" viewBox="0 0 25 24" fill="none" xmlns="http://www.w3.org/2000/svg">
<g clip-path="url(#clip0_12_64837)">
<path d="M16.4496 20.98C15.3896 22 14.0296 22.51 12.6696 22.51C11.3096 22.51 9.94957 21.99 8.88957 20.97C8.52957 20.63 8.16957 20.25 7.80957 19.86L20.7096 6.95996C20.9596 7.49996 21.1496 8.06996 21.2896 8.69996C22.4596 13.86 19.2996 18.22 16.4496 20.98Z" fill="#292D32"/>
<path d="M22.4398 2.22988C22.1398 1.92988 21.6498 1.92988 21.3498 2.22988L2.8998 20.6899C2.5998 20.9899 2.5998 21.4799 2.8998 21.7799C3.0498 21.9199 3.2398 21.9999 3.4398 21.9999C3.6398 21.9999 3.8298 21.9199 3.9798 21.7699L22.4398 3.30988C22.7498 3.00988 22.7498 2.52988 22.4398 2.22988Z" fill="#292D32"/>
<path d="M9.51955 10.31C9.51955 8.57 10.9295 7.16 12.6695 7.16C13.9795 7.16 15.0995 7.96 15.5795 9.1L19.5595 5.12C17.7895 2.98 15.1095 2 12.6695 2C10.8995 2 9.00955 2.52 7.42955 3.61C5.84955 4.71 4.56955 6.38 4.04955 8.69C3.20955 12.36 4.56955 15.64 6.45955 18.21L11.4595 13.21C10.3195 12.74 9.51955 11.61 9.51955 10.31Z" fill="#292D32"/>
</g>
<defs>
<clipPath id="clip0_12_64837">
<rect width="24" height="24" fill="white" transform="translate(0.669922)"/>
</clipPath>
</defs>
</svg>
