<svg width="25" height="24" viewBox="0 0 25 24" fill="none" xmlns="http://www.w3.org/2000/svg">
<g clip-path="url(#clip0_12_64822)">
<path d="M21.2897 8.7C20.2497 4.07 16.2097 2 12.6697 2C12.6697 2 12.6697 2 12.6597 2C9.12967 2 5.09967 4.07 4.04967 8.69C2.86967 13.85 6.02967 18.22 8.88967 20.98C9.94967 22 11.3097 22.51 12.6697 22.51C14.0297 22.51 15.3897 22 16.4397 20.98C19.2997 18.22 22.4597 13.86 21.2897 8.7ZM15.4197 11.75H9.91967C9.50967 11.75 9.16967 11.41 9.16967 11C9.16967 10.59 9.50967 10.25 9.91967 10.25H15.4197C15.8297 10.25 16.1697 10.59 16.1697 11C16.1697 11.41 15.8297 11.75 15.4197 11.75Z" fill="#292D32"/>
</g>
<defs>
<clipPath id="clip0_12_64822">
<rect width="24" height="24" fill="white" transform="translate(0.669922)"/>
</clipPath>
</defs>
</svg>
