<svg width="25" height="24" viewBox="0 0 25 24" fill="none" xmlns="http://www.w3.org/2000/svg">
<g clip-path="url(#clip0_12_64849)">
<path d="M21.29 8.45C20.24 3.83 16.21 1.75 12.67 1.75C12.67 1.75 12.67 1.75 12.66 1.75C9.13002 1.75 5.09002 3.82 4.04002 8.44C2.87002 13.6 6.03002 17.97 8.89002 20.72C9.95002 21.74 11.31 22.25 12.67 22.25C14.03 22.25 15.39 21.74 16.44 20.72C19.3 17.97 22.46 13.61 21.29 8.45ZM12.67 13.46C10.93 13.46 9.52002 12.05 9.52002 10.31C9.52002 8.57 10.93 7.16 12.67 7.16C14.41 7.16 15.82 8.57 15.82 10.31C15.82 12.05 14.41 13.46 12.67 13.46Z" fill="#292D32"/>
</g>
<defs>
<clipPath id="clip0_12_64849">
<rect width="24" height="24" fill="white" transform="translate(0.669922)"/>
</clipPath>
</defs>
</svg>
