<svg width="25" height="24" viewBox="0 0 25 24" fill="none" xmlns="http://www.w3.org/2000/svg">
<path d="M14.2997 15.72C14.2997 16.62 13.5697 17.35 12.6697 17.35C12.0297 17.35 11.4797 16.98 11.2197 16.45L13.3997 14.27C13.9297 14.53 14.2997 15.08 14.2997 15.72Z" fill="#292D32"/>
<path d="M22.44 2.23C22.14 1.93 21.65 1.93 21.35 2.23L18.54 5.04C17.77 3.02 15.8 2 12.67 2C7.04004 2 6.39004 5.58 6.39004 8.28V9.53C6.40004 9.53 6.41004 9.53 6.42004 9.53C3.59004 9.87 2.67004 11.28 2.67004 14.79V16.65C2.67004 18.25 2.86004 19.41 3.34004 20.24L2.89004 20.69C2.59004 20.99 2.59004 21.48 2.89004 21.78C3.05004 21.92 3.24004 22 3.44004 22C3.64004 22 3.83004 21.92 3.98004 21.77L22.44 3.31C22.75 3.01 22.75 2.53 22.44 2.23ZM8.02004 9.44C7.94004 9.44 7.87004 9.44 7.79004 9.44V8.28C7.79004 5.35 8.62004 3.4 12.67 3.4C16.07 3.4 17.14 4.7 17.44 6.15L14.15 9.44H8.02004Z" fill="#292D32"/>
<path d="M22.67 14.79V16.65C22.67 20.75 21.42 22 17.32 22H8.07997C7.18997 22 6.74997 20.92 7.37997 20.29L10.2 17.47C10.27 17.57 10.35 17.66 10.43 17.75C11.13 18.51 12.17 18.91 13.32 18.67C13.41 18.65 13.5 18.63 13.59 18.59C13.68 18.57 13.76 18.54 13.84 18.5C14.04 18.43 14.23 18.32 14.41 18.19C14.48 18.15 14.54 18.1 14.59 18.05C14.74 17.93 14.88 17.79 15 17.64C15.05 17.59 15.1 17.53 15.14 17.46C15.27 17.28 15.38 17.09 15.45 16.89C15.49 16.81 15.52 16.73 15.54 16.64C15.58 16.55 15.6 16.46 15.62 16.37C15.86 15.22 15.46 14.18 14.7 13.48C14.62 13.4 14.52 13.32 14.42 13.25L17.54 10.13C17.59 10.08 17.63 10.04 17.68 9.99998C18.08 9.66998 18.59 9.50998 19.1 9.54998C19.19 9.55998 19.29 9.56998 19.38 9.58998C19.55 9.61998 19.72 9.65998 19.88 9.69998C20.04 9.73998 20.19 9.78998 20.34 9.83998C20.63 9.94998 20.88 10.08 21.11 10.23C21.34 10.38 21.53 10.56 21.71 10.77C21.8 10.88 21.89 11 21.96 11.13C22.03 11.24 22.09 11.36 22.15 11.49C22.21 11.62 22.26 11.76 22.31 11.9C22.37 12.07 22.42 12.26 22.46 12.46C22.5 12.6 22.52 12.75 22.55 12.91C22.57 13.06 22.59 13.22 22.61 13.39C22.65 13.81 22.67 14.28 22.67 14.79Z" fill="#292D32"/>
</svg>
