<svg width="25" height="24" viewBox="0 0 25 24" fill="none" xmlns="http://www.w3.org/2000/svg">
<path d="M11.4298 2C10.9498 2 10.5698 2.38 10.5698 2.86V11.32H14.2398L12.6698 9.75C12.3798 9.46 12.3798 8.98 12.6698 8.69C12.9598 8.4 13.4398 8.4 13.7298 8.69L16.5698 11.54C16.8598 11.83 16.8598 12.31 16.5698 12.6L13.7298 15.45C13.5798 15.6 13.3898 15.67 13.1998 15.67C13.0098 15.67 12.8198 15.6 12.6698 15.45C12.3798 15.16 12.3798 14.68 12.6698 14.39L14.2298 12.83H10.5698V21.16C10.5698 21.63 10.9498 22.02 11.4298 22.02C17.3198 22.02 21.4298 17.91 21.4298 12.02C21.4298 6.13 17.3098 2 11.4298 2Z" fill="#292D32"/>
<path d="M4.66016 11.3199C4.25016 11.3199 3.91016 11.6599 3.91016 12.0699C3.91016 12.4799 4.25016 12.8199 4.66016 12.8199H10.5602V11.3199H4.66016Z" fill="#292D32"/>
</svg>
