<svg width="25" height="24" viewBox="0 0 25 24" fill="none" xmlns="http://www.w3.org/2000/svg">
<path d="M19.4697 9.91016C18.3397 9.91016 17.3297 10.4602 16.6997 11.3002C16.0697 10.4602 15.0597 9.91016 13.9297 9.91016C12.0197 9.91016 10.4697 11.4702 10.4697 13.3902C10.4697 14.1302 10.5897 14.8202 10.7897 15.4502C11.7697 18.5602 14.8097 20.4302 16.3097 20.9402C16.5197 21.0102 16.8697 21.0102 17.0797 20.9402C18.5797 20.4302 21.6197 18.5702 22.5997 15.4502C22.8097 14.8102 22.9197 14.1302 22.9197 13.3902C22.9297 11.4702 21.3797 9.91016 19.4697 9.91016Z" fill="#292D32"/>
<path d="M21.4199 8.3401C21.4199 8.5701 21.1899 8.7201 20.9699 8.6601C19.6199 8.3101 18.1399 8.6001 17.0199 9.4001C16.7999 9.5601 16.4999 9.5601 16.2899 9.4001C15.4999 8.8201 14.5399 8.5001 13.5299 8.5001C10.9499 8.5001 8.84992 10.6101 8.84992 13.2101C8.84992 16.0301 10.1999 18.1401 11.5599 19.5501C11.6299 19.6201 11.5699 19.7401 11.4799 19.7001C8.74992 18.7701 2.66992 14.9101 2.66992 8.3401C2.66992 5.4401 4.99992 3.1001 7.87992 3.1001C9.58992 3.1001 11.0999 3.9201 12.0499 5.1901C13.0099 3.9201 14.5199 3.1001 16.2199 3.1001C19.0899 3.1001 21.4199 5.4401 21.4199 8.3401Z" fill="#292D32"/>
</svg>
