<svg width="25" height="24" viewBox="0 0 25 24" fill="none" xmlns="http://www.w3.org/2000/svg">
<g clip-path="url(#clip0_12_64965)">
<path d="M8.29996 3.57018C8.47934 3.47233 8.66996 3.62286 8.66996 3.82719V17.383C8.66996 17.6063 8.51754 17.795 8.32016 17.8993C8.31339 17.9029 8.30666 17.9065 8.29996 17.9102L5.94996 19.2502C4.30996 20.1902 2.95996 19.4102 2.95996 17.5102V7.78018C2.95996 7.15018 3.40996 6.37018 3.96996 6.05018L8.29996 3.57018Z" fill="#292D32"/>
<path d="M15.3918 6.10241C15.5622 6.18676 15.6699 6.3604 15.6699 6.55047V19.7036C15.6699 20.0721 15.2849 20.314 14.9529 20.1541L10.7029 18.1065C10.5299 18.0231 10.4199 17.8481 10.4199 17.656V4.44571C10.4199 4.07486 10.8095 3.83306 11.1418 3.99765L15.3918 6.10241Z" fill="#292D32"/>
<path d="M22.6699 6.49006V16.2201C22.6699 16.8501 22.2199 17.6301 21.6599 17.9501L18.1685 19.951C17.8352 20.1421 17.4199 19.9014 17.4199 19.5172V6.33038C17.4199 6.15087 17.5162 5.98513 17.6721 5.89615L19.6799 4.75006C21.3199 3.81006 22.6699 4.59006 22.6699 6.49006Z" fill="#292D32"/>
</g>
<defs>
<clipPath id="clip0_12_64965">
<rect width="24" height="24" fill="white" transform="translate(0.669922)"/>
</clipPath>
</defs>
</svg>
