<svg width="25" height="24" viewBox="0 0 25 24" fill="none" xmlns="http://www.w3.org/2000/svg">
<path d="M16.8599 2H8.47992C4.83992 2 2.66992 4.17 2.66992 7.81V16.18C2.66992 19.83 4.83992 22 8.47992 22H16.8499C20.4899 22 22.6599 19.83 22.6599 16.19V7.81C22.6699 4.17 20.4999 2 16.8599 2ZM18.9499 12.91C18.9499 13.11 18.9399 13.31 18.9199 13.5C18.7399 15.62 17.4899 16.68 15.1899 16.68H14.8699C14.6699 16.68 14.4799 16.77 14.3699 16.93L13.4299 18.19C13.0099 18.75 12.3399 18.75 11.9199 18.19L10.9799 16.93C10.8799 16.8 10.6499 16.68 10.4799 16.68H10.1599C7.64992 16.68 6.39992 16.06 6.39992 12.92V9.76C6.39992 7.46 7.45992 6.21 9.57992 6.03C9.74992 6.01 9.94992 6 10.1599 6H15.1899C17.6999 6 18.9499 7.26 18.9499 9.76V12.91Z" fill="#292D32"/>
</svg>
