<svg width="25" height="24" viewBox="0 0 25 24" fill="none" xmlns="http://www.w3.org/2000/svg">
<path d="M13.8599 6H7.45992C7.19992 6 6.94992 6.01 6.70992 6.04C4.01992 6.27 2.66992 7.86 2.66992 10.79V14.79C2.66992 18.79 4.26992 19.58 7.45992 19.58H7.85992C8.07992 19.58 8.36992 19.73 8.49992 19.9L9.69992 21.5C10.2299 22.21 11.0899 22.21 11.6199 21.5L12.8199 19.9C12.9699 19.7 13.2099 19.58 13.4599 19.58H13.8599C16.7899 19.58 18.3799 18.24 18.6099 15.54C18.6399 15.3 18.6499 15.05 18.6499 14.79V10.79C18.6499 7.6 17.0499 6 13.8599 6ZM7.16992 14C6.60992 14 6.16992 13.55 6.16992 13C6.16992 12.45 6.61992 12 7.16992 12C7.71992 12 8.16992 12.45 8.16992 13C8.16992 13.55 7.71992 14 7.16992 14ZM10.6599 14C10.0999 14 9.65992 13.55 9.65992 13C9.65992 12.45 10.1099 12 10.6599 12C11.2099 12 11.6599 12.45 11.6599 13C11.6599 13.55 11.2199 14 10.6599 14ZM14.1599 14C13.5999 14 13.1599 13.55 13.1599 13C13.1599 12.45 13.6099 12 14.1599 12C14.7099 12 15.1599 12.45 15.1599 13C15.1599 13.55 14.7099 14 14.1599 14Z" fill="#292D32"/>
<path d="M22.6502 6.79V10.79C22.6502 12.79 22.0302 14.15 20.7902 14.9C20.4902 15.08 20.1402 14.84 20.1402 14.49L20.1502 10.79C20.1502 6.79 17.8602 4.5 13.8602 4.5L7.77017 4.51C7.42017 4.51 7.18017 4.16 7.36017 3.86C8.11017 2.62 9.47017 2 11.4602 2H17.8602C21.0502 2 22.6502 3.6 22.6502 6.79Z" fill="#292D32"/>
</svg>
