<svg width="25" height="24" viewBox="0 0 25 24" fill="none" xmlns="http://www.w3.org/2000/svg">
<path d="M17.6699 2H7.66992C4.90992 2 2.66992 4.23 2.66992 6.98V12.96V13.96C2.66992 16.71 4.90992 18.94 7.66992 18.94H9.16992C9.43992 18.94 9.79992 19.12 9.96992 19.34L11.4699 21.33C12.1299 22.21 13.2099 22.21 13.8699 21.33L15.3699 19.34C15.5599 19.09 15.8599 18.94 16.1699 18.94H17.6699C20.4299 18.94 22.6699 16.71 22.6699 13.96V6.98C22.6699 4.23 20.4299 2 17.6699 2ZM16.3299 14.53C16.1799 14.68 15.9899 14.75 15.7999 14.75C15.6099 14.75 15.4199 14.68 15.2699 14.53L14.5299 13.79C13.9499 14.17 13.2499 14.4 12.4999 14.4C10.4599 14.4 8.79992 12.74 8.79992 10.7C8.79992 8.66 10.4499 7 12.4999 7C14.5499 7 16.1999 8.66 16.1999 10.7C16.1999 11.45 15.9699 12.15 15.5899 12.73L16.3299 13.47C16.6199 13.76 16.6199 14.24 16.3299 14.53Z" fill="#292D32"/>
</svg>
