<svg width="25" height="24" viewBox="0 0 25 24" fill="none" xmlns="http://www.w3.org/2000/svg">
<path d="M16.6699 2H8.66992C4.66992 2 2.66992 4 2.66992 8V21C2.66992 21.55 3.11992 22 3.66992 22H16.6699C20.6699 22 22.6699 20 22.6699 16V8C22.6699 4 20.6699 2 16.6699 2ZM11.7799 16.66C11.5299 16.91 11.0699 17.14 10.7299 17.19L8.64992 17.48C8.56992 17.49 8.48992 17.5 8.41992 17.5C8.06992 17.5 7.74992 17.38 7.51992 17.15C7.23992 16.87 7.11992 16.46 7.18992 16.02L7.47992 13.94C7.52992 13.6 7.75992 13.13 8.00992 12.89L11.7799 9.12C11.8399 9.3 11.9199 9.48 12.0099 9.68C12.0999 9.86 12.1899 10.04 12.2899 10.21C12.3699 10.35 12.4599 10.49 12.5399 10.59C12.6399 10.74 12.7399 10.87 12.8099 10.94C12.8499 11 12.8899 11.04 12.8999 11.06C13.1199 11.31 13.3499 11.55 13.5699 11.73C13.6299 11.79 13.6699 11.82 13.6799 11.83C13.8099 11.93 13.9299 12.04 14.0499 12.11C14.1799 12.21 14.3199 12.3 14.4599 12.38C14.6299 12.48 14.8099 12.58 14.9999 12.67C15.1899 12.76 15.3699 12.83 15.5499 12.89L11.7799 16.66ZM17.2199 11.23L16.4399 12.01C16.3899 12.06 16.3199 12.09 16.2499 12.09C16.2299 12.09 16.1899 12.09 16.1699 12.08C14.4499 11.59 13.0799 10.22 12.5899 8.5C12.5599 8.41 12.5899 8.31 12.6599 8.24L13.4499 7.45C14.7399 6.16 15.9599 6.19 17.2199 7.45C17.8599 8.09 18.1799 8.71 18.1699 9.35C18.1699 9.98 17.8599 10.59 17.2199 11.23Z" fill="#292D32"/>
</svg>
