<svg width="25" height="24" viewBox="0 0 25 24" fill="none" xmlns="http://www.w3.org/2000/svg">
<path d="M20.6699 6.75C22.1887 6.75 23.4199 5.51878 23.4199 4C23.4199 2.48122 22.1887 1.25 20.6699 1.25C19.1511 1.25 17.9199 2.48122 17.9199 4C17.9199 5.51878 19.1511 6.75 20.6699 6.75Z" fill="#292D32"/>
<path d="M19.7099 8.15C18.1399 7.81 16.8599 6.53 16.5199 4.96C16.3899 4.35 16.3799 3.76 16.4899 3.2C16.6199 2.58 16.1599 2 15.5199 2H7.66992C4.90992 2 2.66992 4.24 2.66992 7V13.95C2.66992 16.71 4.90992 18.95 7.66992 18.95H9.16992C9.44992 18.95 9.80992 19.13 9.96992 19.35L11.4699 21.34C12.1299 22.22 13.2099 22.22 13.8699 21.34L15.3699 19.35C15.5599 19.1 15.8499 18.95 16.1699 18.95H17.6799C20.4399 18.95 22.6699 16.72 22.6699 13.96V9.15C22.6699 8.52 22.0899 8.06 21.4699 8.18C20.9099 8.28 20.3199 8.28 19.7099 8.15ZM8.66992 12C8.10992 12 7.66992 11.55 7.66992 11C7.66992 10.45 8.10992 10 8.66992 10C9.21992 10 9.66992 10.45 9.66992 11C9.66992 11.55 9.22992 12 8.66992 12ZM12.6699 12C12.1099 12 11.6699 11.55 11.6699 11C11.6699 10.45 12.1099 10 12.6699 10C13.2199 10 13.6699 10.45 13.6699 11C13.6699 11.55 13.2299 12 12.6699 12ZM16.6699 12C16.1099 12 15.6699 11.55 15.6699 11C15.6699 10.45 16.1099 10 16.6699 10C17.2199 10 17.6699 10.45 17.6699 11C17.6699 11.55 17.2299 12 16.6699 12Z" fill="#292D32"/>
</svg>
