<svg width="25" height="24" viewBox="0 0 25 24" fill="none" xmlns="http://www.w3.org/2000/svg">
<path d="M18.6699 16V19C18.6699 20.65 17.3199 22 15.6699 22H9.66992C8.01992 22 6.66992 20.65 6.66992 19V14.99C6.66992 14.44 7.11992 13.99 7.67992 13.99L10.5599 14C11.2499 14 11.9299 14.15 12.5599 14.45C13.2499 14.77 13.9799 15 14.7499 15H17.6699C18.2199 15 18.6699 15.45 18.6699 16Z" fill="#292D32"/>
<path d="M18.0799 9.41L15.9599 7.29C15.7699 7.1 15.6699 6.85 15.6699 6.59V4.91C16.2499 4.71 16.6699 4.15 16.6699 3.5C16.6699 2.67 15.9999 2 15.1699 2H10.1699C9.33992 2 8.66992 2.67 8.66992 3.5C8.66992 4.15 9.08992 4.71 9.66992 4.91V6.59C9.66992 6.85 9.56992 7.1 9.37992 7.29L7.25992 9.41C6.93992 9.73 6.66992 10.38 6.66992 10.83V11.48C6.66992 12.03 7.10992 12.48 7.65992 12.48L10.5699 12.5C11.5499 12.5 12.5399 12.74 13.4199 13.2C13.8399 13.42 14.3199 13.5 14.7899 13.5H17.6699C18.2199 13.5 18.6699 13.05 18.6699 12.5V10.83C18.6699 10.38 18.3999 9.73 18.0799 9.41Z" fill="#292D32"/>
</svg>
