<svg width="25" height="24" viewBox="0 0 25 24" fill="none" xmlns="http://www.w3.org/2000/svg">
<path opacity="0.4" d="M21.3797 17.52C21.0097 18.74 20.2797 19.68 19.2397 20.26C19.1997 20.1 19.1797 19.93 19.1797 19.76C19.1797 18.54 20.1697 17.54 21.3797 17.52Z" fill="#292D32"/>
<path d="M21.6699 7.52V9.48397C21.6699 10.0065 21.2559 10.4294 20.7499 10.56L17.7999 11.38C16.2399 11.78 15.1999 13.13 15.1999 14.74V16.2849C15.1999 16.7595 14.8573 17.1556 14.4311 17.3644C13.4156 17.8619 12.6397 18.8714 12.3469 20.0107C12.2094 20.5456 11.7722 21 11.2199 21H8.18992C4.73992 21 2.66992 18.94 2.66992 15.48V7.52C2.66992 4.06 4.73992 2 8.18992 2H16.1499C19.5999 2 21.6699 4.06 21.6699 7.52Z" fill="#292D32"/>
<path d="M22.98 12.25C22.72 12.06 22.3 11.86 21.67 11.92C21.51 11.93 21.34 11.96 21.15 12.01L18.17 12.83C17.28 13.06 16.7 13.81 16.7 14.74V18.65C16.47 18.57 16.22 18.52 15.96 18.52C14.72 18.52 13.71 19.52 13.71 20.76C13.71 20.84 13.71 20.92 13.72 21C13.84 22.12 14.8 23 15.96 23C17.18 23 18.17 22.01 18.19 20.8C18.19 20.78 18.2 20.77 18.2 20.76V17.07L21.65 16.12L22.17 15.98V17.66C21.94 17.58 21.69 17.52 21.42 17.52H21.38C20.17 17.54 19.18 18.54 19.18 19.76C19.18 19.93 19.2 20.1 19.24 20.26C19.47 21.26 20.36 22.01 21.42 22.01C22.65 22.01 23.64 21.02 23.66 19.8C23.66 19.79 23.67 19.78 23.67 19.76V13.93C23.67 13.17 23.44 12.61 22.98 12.25ZM15.96 21.5C15.63 21.5 15.35 21.29 15.26 21C15.22 20.93 15.21 20.84 15.21 20.76C15.21 20.35 15.55 20.02 15.96 20.02C16.36 20.02 16.7 20.35 16.7 20.76C16.7 20.84 16.69 20.91 16.66 20.98C16.57 21.28 16.29 21.5 15.96 21.5ZM21.42 20.51C21.02 20.51 20.68 20.17 20.68 19.76C20.68 19.36 21.02 19.02 21.42 19.02C21.83 19.02 22.17 19.36 22.17 19.76C22.17 20.17 21.83 20.51 21.42 20.51Z" fill="#292D32"/>
</svg>
