<svg width="25" height="24" viewBox="0 0 25 24" fill="none" xmlns="http://www.w3.org/2000/svg">
<path d="M17.6699 3H7.66992C4.90992 3 2.66992 5.24 2.66992 8V9V16C2.66992 18.76 4.90992 21 7.66992 21H16.6699H17.6699C20.4299 21 22.6699 18.76 22.6699 16V8C22.6699 5.24 20.4299 3 17.6699 3ZM11.1599 16.81C11.1299 16.81 11.0999 16.82 11.0599 16.82C10.6899 16.82 10.3699 16.54 10.3199 16.17C10.1899 15.15 9.44992 14.41 8.42992 14.28C8.01992 14.23 7.72992 13.85 7.77992 13.44C7.82992 13.03 8.20992 12.74 8.61992 12.79C10.3099 13.01 11.5899 14.29 11.8099 15.98C11.8599 16.38 11.5699 16.76 11.1599 16.81ZM14.2099 16.3C14.1799 16.3 14.1499 16.31 14.1099 16.31C13.7399 16.31 13.4199 16.03 13.3699 15.66C13.0599 13.28 11.3299 11.54 8.93992 11.23C8.52992 11.18 8.23992 10.8 8.28992 10.39C8.33992 9.98 8.71992 9.69 9.12992 9.74C12.2099 10.14 14.4599 12.38 14.8599 15.47C14.9099 15.87 14.6199 16.24 14.2099 16.3ZM16.9099 15.43C16.8799 15.43 16.8499 15.44 16.8099 15.44C16.4399 15.44 16.1199 15.16 16.0699 14.79C15.6399 11.41 13.1799 8.95 9.79992 8.52C9.38992 8.47 9.09992 8.09 9.14992 7.68C9.19992 7.27 9.57992 6.98 9.98992 7.03C14.0599 7.55 17.0299 10.52 17.5599 14.6C17.6099 15.01 17.3199 15.38 16.9099 15.43Z" fill="#292D32"/>
</svg>
