<svg width="25" height="24" viewBox="0 0 25 24" fill="none" xmlns="http://www.w3.org/2000/svg">
<path d="M17.6768 3.5H7.67676C4.67676 3.5 2.67676 5 2.67676 8.5V15.5C2.67676 19 4.67676 20.5 7.67676 20.5H17.6768C20.6768 20.5 22.6768 19 22.6768 15.5V8.5C22.6768 5 20.6768 3.5 17.6768 3.5ZM8.67676 17.75H5.67676C5.26676 17.75 4.92676 17.41 4.92676 17C4.92676 16.59 5.26676 16.25 5.67676 16.25H8.67676C9.08676 16.25 9.42676 16.59 9.42676 17C9.42676 17.41 9.08676 17.75 8.67676 17.75ZM12.6768 15C11.0168 15 9.67676 13.66 9.67676 12C9.67676 10.34 11.0168 9 12.6768 9C14.3368 9 15.6768 10.34 15.6768 12C15.6768 13.66 14.3368 15 12.6768 15ZM19.6768 7.75H16.6768C16.2668 7.75 15.9268 7.41 15.9268 7C15.9268 6.59 16.2668 6.25 16.6768 6.25H19.6768C20.0868 6.25 20.4268 6.59 20.4268 7C20.4268 7.41 20.0868 7.75 19.6768 7.75Z" fill="#292D32"/>
</svg>
