<svg width="25" height="24" viewBox="0 0 25 24" fill="none" xmlns="http://www.w3.org/2000/svg">
<path d="M17.6719 3.5H7.67188C4.67188 3.5 2.67188 5 2.67188 8.5V15.5C2.67188 19 4.67188 20.5 7.67188 20.5H17.6719C20.6719 20.5 22.6719 19 22.6719 15.5V8.5C22.6719 5 20.6719 3.5 17.6719 3.5ZM6.92188 14.5C6.92188 14.91 6.58188 15.25 6.17188 15.25C5.76187 15.25 5.42188 14.91 5.42188 14.5V9.5C5.42188 9.09 5.76187 8.75 6.17188 8.75C6.58188 8.75 6.92188 9.09 6.92188 9.5V14.5ZM12.6719 15C11.0119 15 9.67188 13.66 9.67188 12C9.67188 10.34 11.0119 9 12.6719 9C14.3319 9 15.6719 10.34 15.6719 12C15.6719 13.66 14.3319 15 12.6719 15ZM19.9219 14.5C19.9219 14.91 19.5819 15.25 19.1719 15.25C18.7619 15.25 18.4219 14.91 18.4219 14.5V9.5C18.4219 9.09 18.7619 8.75 19.1719 8.75C19.5819 8.75 19.9219 9.09 19.9219 9.5V14.5Z" fill="#292D32"/>
</svg>
