<svg width="25" height="24" viewBox="0 0 25 24" fill="none" xmlns="http://www.w3.org/2000/svg">
<path d="M12.6738 15C14.3307 15 15.6738 13.6569 15.6738 12C15.6738 10.3431 14.3307 9 12.6738 9C11.017 9 9.67383 10.3431 9.67383 12C9.67383 13.6569 11.017 15 12.6738 15Z" fill="#292D32"/>
<path d="M17.6738 3.5H7.67383C4.67383 3.5 2.67383 5 2.67383 8.5V9V15V15.5C2.67383 19 4.67383 20.5 7.67383 20.5H17.6738C20.6738 20.5 22.6738 19 22.6738 15.5V15V9V8.5C22.6738 5 20.6738 3.5 17.6738 3.5ZM7.67383 19C7.67383 16.18 6.76383 15.14 4.17383 15.02V15V9V8.98C6.76383 8.86 7.67383 7.82 7.67383 5H17.6738C17.6738 7.82 18.5838 8.86 21.1738 8.98V9V15V15.02C18.5838 15.14 17.6738 16.18 17.6738 19H7.67383Z" fill="#292D32"/>
</svg>
