<svg width="25" height="24" viewBox="0 0 25 24" fill="none" xmlns="http://www.w3.org/2000/svg">
<path d="M19.8418 6.64002C19.4118 4.47002 17.8018 3.52002 15.5618 3.52002H6.78184C4.14184 3.52002 2.38184 4.84002 2.38184 7.92002V13.07C2.38184 15.29 3.29184 16.59 4.79184 17.15C5.01184 17.23 5.25184 17.3 5.50184 17.34C5.90184 17.43 6.33184 17.47 6.78184 17.47H15.5718C18.2118 17.47 19.9718 16.15 19.9718 13.07V7.92002C19.9718 7.45002 19.9318 7.03002 19.8418 6.64002ZM6.20184 12C6.20184 12.41 5.86184 12.75 5.45184 12.75C5.04184 12.75 4.70184 12.41 4.70184 12V9.00002C4.70184 8.59002 5.04184 8.25002 5.45184 8.25002C5.86184 8.25002 6.20184 8.59002 6.20184 9.00002V12ZM11.1718 13.14C9.71184 13.14 8.53184 11.96 8.53184 10.5C8.53184 9.04002 9.71184 7.86002 11.1718 7.86002C12.6318 7.86002 13.8118 9.04002 13.8118 10.5C13.8118 11.96 12.6318 13.14 11.1718 13.14ZM17.6318 12C17.6318 12.41 17.2918 12.75 16.8818 12.75C16.4718 12.75 16.1318 12.41 16.1318 12V9.00002C16.1318 8.59002 16.4718 8.25002 16.8818 8.25002C17.2918 8.25002 17.6318 8.59002 17.6318 9.00002V12Z" fill="#292D32"/>
<path d="M22.9716 10.92V16.07C22.9716 19.15 21.2116 20.48 18.5616 20.48H9.78164C9.03164 20.48 8.36164 20.37 7.78164 20.15C7.31164 19.98 6.90164 19.73 6.57164 19.41C6.39164 19.24 6.53164 18.97 6.78164 18.97H15.5616C19.2616 18.97 21.4616 16.77 21.4616 13.08V7.92003C21.4616 7.68003 21.7316 7.53003 21.9016 7.71003C22.5816 8.43003 22.9716 9.48003 22.9716 10.92Z" fill="#292D32"/>
</svg>
