<svg width="25" height="24" viewBox="0 0 25 24" fill="none" xmlns="http://www.w3.org/2000/svg">
<path d="M21.6399 10.37V13.56C21.6399 15.88 19.7599 17.76 17.4399 17.76H13.8799C13.3299 17.76 12.8799 18.2 12.8799 18.76V19.58C12.8799 20.13 13.3299 20.58 13.8799 20.58H16.1399C16.5299 20.58 16.8499 20.89 16.8499 21.29C16.8499 21.68 16.5299 22 16.1399 22H8.19992C7.80992 22 7.48992 21.68 7.48992 21.29C7.48992 20.89 7.80992 20.58 8.19992 20.58H10.4599C11.0099 20.58 11.4599 20.13 11.4599 19.58V18.76C11.4599 18.2 11.0099 17.76 10.4599 17.76H6.85992C4.54992 17.76 2.66992 15.88 2.66992 13.56V7.19C2.66992 4.88 4.54992 3 6.85992 3H11.1699C11.7199 3 12.1699 3.45 12.1699 4V6.15C12.1699 8.08 13.4599 9.37 15.3799 9.37H20.6399C21.1899 9.37 21.6399 9.82 21.6399 10.37Z" fill="#292D32"/>
<path d="M22.6599 2.36011L21.5299 3.15011V2.73011C21.5299 1.78011 20.7599 1.02011 19.8199 1.02011H15.5399C14.5099 1.01011 13.6699 1.85011 13.6699 2.88011V6.16011C13.6699 7.02011 14.0999 7.87011 15.3799 7.87011H19.8099C20.7599 7.87011 21.5199 7.10011 21.5199 6.16011V5.73011L22.6499 6.52011C23.2199 6.91011 23.6699 6.67011 23.6699 5.99011V2.89011C23.6699 2.21011 23.2199 1.98011 22.6599 2.36011Z" fill="#292D32"/>
</svg>
