<svg width="25" height="24" viewBox="0 0 25 24" fill="none" xmlns="http://www.w3.org/2000/svg">
<path d="M21.6599 9.71C21.3199 9.57 20.8699 9.5 20.3099 9.5H15.0299C13.2899 9.5 12.6699 10.12 12.6699 11.88V19.62C12.6699 20.2 12.7399 20.65 12.8899 21C13.1999 21.72 13.8599 22 15.0299 22H20.3099C22.0499 22 22.6699 21.37 22.6699 19.62V11.88C22.6699 10.69 22.3899 10.02 21.6599 9.71ZM18.6699 19.75H16.6699C16.6499 19.75 16.6199 19.75 16.5999 19.74C16.4499 19.73 16.3199 19.68 16.2099 19.58C16.0299 19.45 15.9199 19.24 15.9199 19C15.9199 18.59 16.2599 18.25 16.6699 18.25H18.6699C19.0799 18.25 19.4199 18.59 19.4199 19C19.4199 19.41 19.0799 19.75 18.6699 19.75Z" fill="#292D32"/>
<path d="M21.6597 6.19V7C21.6597 7.55 21.2097 8 20.6597 8H15.0297C12.4697 8 11.1697 9.31 11.1697 11.88V21C11.1697 21.55 10.7197 22 10.1697 22H8.21969C7.81969 22 7.49969 21.68 7.49969 21.29C7.49969 20.89 7.81969 20.58 8.21969 20.58H10.1697V16.75H6.66969C4.44969 16.64 2.67969 14.81 2.67969 12.56V6.19C2.67969 3.88 4.55969 2 6.87969 2H17.4697C19.7797 2 21.6597 3.88 21.6597 6.19Z" fill="#292D32"/>
</svg>
