<svg width="25" height="24" viewBox="0 0 25 24" fill="none" xmlns="http://www.w3.org/2000/svg">
<path d="M16.8599 2H8.47992C4.83992 2 2.66992 4.17 2.66992 7.81V16.18C2.66992 19.83 4.83992 22 8.47992 22H16.8499C20.4899 22 22.6599 19.83 22.6599 16.19V7.81C22.6699 4.17 20.4999 2 16.8599 2ZM7.66992 13.31C6.94992 13.31 6.35992 12.72 6.35992 12C6.35992 11.28 6.94992 10.69 7.66992 10.69C8.38992 10.69 8.97992 11.28 8.97992 12C8.97992 12.72 8.38992 13.31 7.66992 13.31ZM12.6699 13.31C11.9499 13.31 11.3599 12.72 11.3599 12C11.3599 11.28 11.9499 10.69 12.6699 10.69C13.3899 10.69 13.9799 11.28 13.9799 12C13.9799 12.72 13.3899 13.31 12.6699 13.31ZM17.6699 13.31C16.9499 13.31 16.3599 12.72 16.3599 12C16.3599 11.28 16.9499 10.69 17.6699 10.69C18.3899 10.69 18.9799 11.28 18.9799 12C18.9799 12.72 18.3899 13.31 17.6699 13.31Z" fill="#292D32"/>
</svg>
