<svg width="25" height="24" viewBox="0 0 25 24" fill="none" xmlns="http://www.w3.org/2000/svg">
<path d="M21.6699 7.52V13.4C21.6699 13.74 21.3399 13.98 21.0199 13.88L17.0899 12.66C16.0099 12.33 14.8499 12.61 14.0599 13.4C13.2599 14.2 12.9699 15.37 13.3099 16.45L14.5199 20.35C14.6199 20.67 14.3799 21 14.0399 21H8.18992C4.73992 21 2.66992 18.94 2.66992 15.48V7.52C2.66992 4.06 4.73992 2 8.18992 2H16.1499C19.5999 2 21.6699 4.06 21.6699 7.52Z" fill="#292D32"/>
<path d="M22.6296 18.84L20.9996 19.39C20.5496 19.54 20.1896 19.89 20.0396 20.35L19.4896 21.98C19.0196 23.39 17.0396 23.36 16.5996 21.95L14.7496 16C14.3896 14.82 15.4796 13.72 16.6496 14.09L22.6096 15.94C24.0096 16.38 24.0296 18.37 22.6296 18.84Z" fill="#292D32"/>
</svg>
