<svg width="25" height="24" viewBox="0 0 25 24" fill="none" xmlns="http://www.w3.org/2000/svg">
<path d="M13.9678 2.11565C13.6763 2.06437 13.4199 2.29691 13.4199 2.59282V5.4536C13.4199 5.65196 13.5409 5.82662 13.7058 5.93681C14.209 6.27299 14.5399 6.84695 14.5399 7.50004V9.50004C14.5399 10.53 13.6999 11.38 12.6699 11.38C11.6299 11.38 10.7899 10.53 10.7899 9.50004V7.50004C10.7899 6.84676 11.1282 6.27265 11.6339 5.93651C11.7991 5.8267 11.9199 5.65196 11.9199 5.4536V2.59347C11.9199 2.29732 11.6634 2.06468 11.3718 2.1161C9.82235 2.38932 8.43571 3.13425 7.36992 4.20004C6.00992 5.56004 5.16992 7.44004 5.16992 9.50004V14.5C5.16992 18.63 8.53992 22 12.6699 22C16.7999 22 20.1699 18.63 20.1699 14.5V9.50004C20.1699 5.80955 17.483 2.73426 13.9678 2.11565Z" fill="#292D32"/>
</svg>
