<svg width="25" height="24" viewBox="0 0 25 24" fill="none" xmlns="http://www.w3.org/2000/svg">
<path d="M19.8799 15.01C18.7899 14.94 17.6699 15.34 16.8399 16.17C15.2799 17.73 15.2799 20.26 16.8399 21.83C17.3699 22.36 18.0199 22.71 18.7099 22.88C19.0899 22.98 19.4899 23.01 19.8899 22.99C20.8399 22.95 21.7699 22.57 22.4999 21.84C23.5299 20.81 23.8799 19.36 23.5499 18.05C23.3899 17.36 23.0299 16.71 22.4999 16.18C21.7799 15.45 20.8399 15.06 19.8799 15.01ZM21.9099 18.98C21.9099 19.19 21.8299 19.37 21.6899 19.51C21.5499 19.65 21.3699 19.73 21.1599 19.73H20.4199V20.51C20.4199 20.72 20.3399 20.9 20.1999 21.04C20.0599 21.18 19.8799 21.26 19.6699 21.26C19.2599 21.26 18.9199 20.92 18.9199 20.51V19.73H18.1699C17.7599 19.73 17.4199 19.39 17.4199 18.98C17.4199 18.57 17.7599 18.23 18.1699 18.23H18.9199V17.52C18.9199 17.11 19.2599 16.77 19.6699 16.77C20.0799 16.77 20.4199 17.11 20.4199 17.52V18.23H21.1599C21.5799 18.23 21.9099 18.57 21.9099 18.98Z" fill="#292D32"/>
<path d="M12.9002 12.07C12.4902 12.07 12.1602 12.4 12.1602 12.81C12.1602 13.22 12.4902 13.55 12.9002 13.55C13.3102 13.55 13.6402 13.22 13.6402 12.81C13.6402 12.4 13.3102 12.07 12.9002 12.07Z" fill="#292D32"/>
<path d="M7.42945 13.06C7.01945 13.06 6.68945 13.39 6.68945 13.8C6.68945 14.21 7.01945 14.54 7.42945 14.54C7.83945 14.54 8.16945 14.21 8.16945 13.8C8.16945 13.39 7.83945 13.06 7.42945 13.06Z" fill="#292D32"/>
<path d="M16.8599 2H8.47992C8.19992 2 7.92992 2.01 7.66992 2.05C4.51992 2.34 2.66992 4.45 2.66992 7.81V16.19C2.66992 19.55 4.51992 21.66 7.66992 21.95C7.92992 21.99 8.19992 22 8.47992 22H14.1699C14.5599 22 14.8099 21.56 14.6599 21.2C14.3699 20.51 14.1699 19.71 14.1699 19C14.1699 15.97 16.6399 13.5 19.6699 13.5C20.4299 13.5 21.1699 13.65 21.8499 13.95C22.2199 14.11 22.6699 13.86 22.6699 13.46V7.81C22.6699 4.17 20.4999 2 16.8599 2ZM15.1499 8.05V12.81C15.1499 12.82 15.1399 12.83 15.1399 12.85C15.1199 14.07 14.1299 15.06 12.8999 15.06C11.6599 15.06 10.6599 14.05 10.6599 12.82C10.6599 11.58 11.6699 10.58 12.8999 10.58C13.1599 10.58 13.4099 10.63 13.6499 10.72V9.03L9.67992 10.11V13.81C9.67992 13.82 9.66992 13.83 9.66992 13.84C9.64992 15.06 8.65992 16.04 7.42992 16.04C6.18992 16.04 5.18992 15.03 5.18992 13.8C5.18992 12.57 6.19992 11.56 7.42992 11.56C7.68992 11.56 7.93992 11.61 8.16992 11.7V9.54V7.79C8.16992 6.86 8.74992 6.11 9.63992 5.87L12.6199 5.05C13.5499 4.8 14.1199 5.05 14.4399 5.29C14.8999 5.64 15.1299 6.21 15.1299 6.97V8.05H15.1499Z" fill="#292D32"/>
</svg>
