<svg width="25" height="24" viewBox="0 0 25 24" fill="none" xmlns="http://www.w3.org/2000/svg">
<path d="M22.6399 16.33C21.9199 15.51 20.8499 15 19.6699 15C17.4599 15 15.6699 16.79 15.6699 19C15.6699 19.75 15.8799 20.46 16.2499 21.06C16.4499 21.4 16.7099 21.71 17.0099 21.97C17.7099 22.61 18.6399 23 19.6699 23C21.1299 23 22.3999 22.22 23.0899 21.06C23.4599 20.46 23.6699 19.75 23.6699 19C23.6699 17.98 23.2799 17.04 22.6399 16.33ZM21.2699 20.58C21.1199 20.73 20.9299 20.8 20.7399 20.8C20.5499 20.8 20.3599 20.73 20.2099 20.58L19.6799 20.05L19.1299 20.6C18.9799 20.75 18.7899 20.82 18.5999 20.82C18.4099 20.82 18.2199 20.75 18.0699 20.6C17.7799 20.31 17.7799 19.83 18.0699 19.54L18.6199 18.99L18.0899 18.46C17.7999 18.17 17.7999 17.69 18.0899 17.4C18.3799 17.11 18.8599 17.11 19.1499 17.4L19.6799 17.93L20.1799 17.43C20.4699 17.14 20.9499 17.14 21.2399 17.43C21.5299 17.72 21.5299 18.2 21.2399 18.49L20.7399 18.99L21.2699 19.52C21.5599 19.81 21.5599 20.28 21.2699 20.58Z" fill="#292D32"/>
<path d="M12.9002 12.07C12.4902 12.07 12.1602 12.4 12.1602 12.81C12.1602 13.22 12.4902 13.55 12.9002 13.55C13.3102 13.55 13.6402 13.22 13.6402 12.81C13.6402 12.4 13.3102 12.07 12.9002 12.07Z" fill="#292D32"/>
<path d="M7.42945 13.06C7.01945 13.06 6.68945 13.39 6.68945 13.8C6.68945 14.21 7.01945 14.54 7.42945 14.54C7.83945 14.54 8.16945 14.21 8.16945 13.8C8.16945 13.39 7.83945 13.06 7.42945 13.06Z" fill="#292D32"/>
<path d="M16.8599 2H8.47992C8.19992 2 7.92992 2.01 7.66992 2.05C4.51992 2.34 2.66992 4.45 2.66992 7.81V16.19C2.66992 19.55 4.51992 21.66 7.66992 21.95C7.92992 21.99 8.19992 22 8.47992 22H14.1699C14.5599 22 14.8099 21.56 14.6599 21.2C14.3699 20.51 14.1699 19.71 14.1699 19C14.1699 15.97 16.6399 13.5 19.6699 13.5C20.4299 13.5 21.1699 13.65 21.8499 13.95C22.2199 14.11 22.6699 13.86 22.6699 13.46V7.81C22.6699 4.17 20.4999 2 16.8599 2ZM15.1499 8.05V12.81C15.1499 12.82 15.1399 12.83 15.1399 12.85C15.1199 14.07 14.1299 15.06 12.8999 15.06C11.6599 15.06 10.6599 14.05 10.6599 12.82C10.6599 11.58 11.6699 10.58 12.8999 10.58C13.1599 10.58 13.4099 10.63 13.6499 10.72V9.03L9.67992 10.11V13.81C9.67992 13.82 9.66992 13.83 9.66992 13.84C9.64992 15.06 8.65992 16.04 7.42992 16.04C6.18992 16.04 5.18992 15.03 5.18992 13.8C5.18992 12.57 6.19992 11.56 7.42992 11.56C7.68992 11.56 7.93992 11.61 8.16992 11.7V9.54V7.79C8.16992 6.86 8.74992 6.11 9.63992 5.87L12.6199 5.05C13.5499 4.8 14.1199 5.05 14.4399 5.29C14.8999 5.64 15.1299 6.21 15.1299 6.97V8.05H15.1499Z" fill="#292D32"/>
</svg>
