<svg width="25" height="24" viewBox="0 0 25 24" fill="none" xmlns="http://www.w3.org/2000/svg">
<path d="M18.6699 5.25H6.66992C6.25992 5.25 5.91992 4.91 5.91992 4.5C5.91992 4.09 6.25992 3.75 6.66992 3.75H18.6699C19.0799 3.75 19.4199 4.09 19.4199 4.5C19.4199 4.91 19.0799 5.25 18.6699 5.25Z" fill="#292D32"/>
<path d="M15.6699 2.75H9.66992C9.25992 2.75 8.91992 2.41 8.91992 2C8.91992 1.59 9.25992 1.25 9.66992 1.25H15.6699C16.0799 1.25 16.4199 1.59 16.4199 2C16.4199 2.41 16.0799 2.75 15.6699 2.75Z" fill="#292D32"/>
<path d="M14.58 16.21C14.24 16.21 13.96 16.49 13.96 16.83C13.96 17.17 14.24 17.45 14.58 17.45C14.92 17.45 15.2 17.17 15.2 16.83C15.2 16.49 14.92 16.21 14.58 16.21Z" fill="#292D32"/>
<path d="M10.1795 17.74C10.1795 17.4 9.89945 17.13 9.55945 17.13C9.21945 17.13 8.93945 17.41 8.93945 17.75C8.93945 18.09 9.21945 18.37 9.55945 18.37C9.89945 18.36 10.1795 18.08 10.1795 17.74Z" fill="#292D32"/>
<path d="M18.6699 7H6.66992C4.46992 7 2.66992 8.8 2.66992 11V18C2.66992 20.2 4.46992 22 6.66992 22H18.6699C20.8699 22 22.6699 20.2 22.6699 18V11C22.6699 8.8 20.8699 7 18.6699 7ZM16.6999 12.46V16.83C16.6999 16.85 16.6899 16.86 16.6899 16.88C16.6599 18.02 15.7299 18.95 14.5799 18.95C13.4099 18.95 12.4599 18 12.4599 16.83C12.4599 15.66 13.4099 14.71 14.5799 14.71C14.7999 14.71 14.9999 14.75 15.1999 14.81V13.44L11.6799 14.4V17.73V17.74C11.6799 18.91 10.7299 19.86 9.55992 19.86C8.38992 19.86 7.43992 18.91 7.43992 17.74C7.43992 16.57 8.38992 15.62 9.55992 15.62C9.77992 15.62 9.97992 15.66 10.1799 15.72V13.82V12.22C10.1799 11.33 10.7299 10.61 11.5799 10.39L14.3099 9.64C15.1899 9.41 15.7299 9.64 16.0399 9.88C16.3399 10.11 16.6999 10.58 16.6999 11.47V12.46Z" fill="#292D32"/>
</svg>
