<svg width="25" height="24" viewBox="0 0 25 24" fill="none" xmlns="http://www.w3.org/2000/svg">
<path d="M17.6699 4.75H16.6699V3.26C16.6699 2.43 15.9899 1.75 15.1599 1.75H10.1799C9.34992 1.75 8.66992 2.43 8.66992 3.26V4.75H7.66992C6.56992 4.75 5.66992 5.65 5.66992 6.75V6.88C5.98992 6.79 6.31992 6.75 6.66992 6.75H18.6699C19.0199 6.75 19.3499 6.79 19.6699 6.88V6.75C19.6699 5.65 18.7699 4.75 17.6699 4.75Z" fill="#292D32"/>
<path d="M14.6003 16.93C14.2803 16.93 14.0303 17.19 14.0303 17.5C14.0303 17.81 14.2903 18.07 14.6003 18.07C14.9103 18.07 15.1703 17.81 15.1703 17.5C15.1703 17.19 14.9103 16.93 14.6003 16.93Z" fill="#292D32"/>
<path d="M9.73992 17.81C9.41992 17.81 9.16992 18.07 9.16992 18.38C9.16992 18.69 9.42992 18.95 9.73992 18.95C10.0499 18.95 10.3099 18.69 10.3099 18.38C10.3099 18.07 10.0599 17.81 9.73992 17.81Z" fill="#292D32"/>
<path d="M19.6699 8.38C19.3499 8.29 19.0199 8.25 18.6699 8.25H6.66992C6.31992 8.25 5.98992 8.29 5.66992 8.38C3.94992 8.83 2.66992 10.4 2.66992 12.25V18.25C2.66992 20.45 4.46992 22.25 6.66992 22.25H18.6699C20.8699 22.25 22.6699 20.45 22.6699 18.25V12.25C22.6699 10.4 21.3899 8.83 19.6699 8.38ZM16.6699 13.28V17.5C16.6699 18.64 15.7399 19.57 14.5999 19.57C13.4599 19.57 12.5299 18.64 12.5299 17.5C12.5299 16.36 13.4599 15.43 14.5999 15.43C14.7999 15.43 14.9899 15.47 15.1699 15.52V14.26L11.8199 15.17V18.38C11.8199 18.39 11.8199 18.4 11.8099 18.41C11.7999 19.54 10.8699 20.46 9.73992 20.46C8.59992 20.46 7.66992 19.53 7.66992 18.38C7.66992 17.23 8.59992 16.31 9.73992 16.31C9.93992 16.31 10.1299 16.35 10.3199 16.4V14.6V13.05C10.3199 12.19 10.8599 11.49 11.6799 11.27L14.3299 10.54C15.1799 10.31 15.7199 10.53 16.0199 10.76C16.3199 10.99 16.6699 11.44 16.6699 12.33V13.28Z" fill="#292D32"/>
</svg>
