<svg width="25" height="24" viewBox="0 0 25 24" fill="none" xmlns="http://www.w3.org/2000/svg">
<path d="M3.24955 9.42C3.16955 9.42 3.07955 9.41 2.99955 9.38C2.60955 9.24 2.40955 8.81 2.53955 8.42C3.20955 6.54 4.36955 4.89 5.91955 3.64C6.23955 3.38 6.70955 3.43 6.96955 3.75C7.22955 4.07 7.17955 4.54 6.85955 4.81C5.53955 5.88 4.52955 7.3 3.95955 8.92C3.84955 9.23 3.55955 9.42 3.24955 9.42Z" fill="#292D32"/>
<path d="M3.24992 16.08C2.93992 16.08 2.64992 15.89 2.53992 15.58C2.12992 14.42 1.91992 13.21 1.91992 12C1.91992 11.59 2.25992 11.25 2.66992 11.25C3.07992 11.25 3.41992 11.59 3.41992 12C3.41992 13.04 3.59992 14.08 3.95992 15.08C4.09992 15.47 3.88992 15.9 3.49992 16.04C3.41992 16.07 3.32992 16.08 3.24992 16.08Z" fill="#292D32"/>
<path d="M12.6695 22.75C11.6095 22.75 10.5595 22.59 9.53954 22.28C9.13954 22.16 8.91954 21.74 9.03954 21.34C9.15954 20.94 9.57954 20.72 9.97954 20.84C10.8495 21.11 11.7595 21.24 12.6695 21.24C17.7695 21.24 21.9195 17.09 21.9195 11.99C21.9195 11.47 21.8695 10.93 21.7695 10.36C21.6995 9.95 21.9695 9.56 22.3795 9.49C22.7795 9.42 23.1795 9.69 23.2495 10.1C23.3695 10.76 23.4295 11.38 23.4295 12C23.4195 17.93 18.5995 22.75 12.6695 22.75Z" fill="#292D32"/>
<path d="M6.39013 20.5C6.22013 20.5 6.06013 20.45 5.92013 20.33C5.35013 19.87 4.89013 19.43 4.50013 18.98C4.23013 18.67 4.27013 18.19 4.58013 17.92C4.90013 17.65 5.37013 17.69 5.64013 18C5.97013 18.38 6.37013 18.76 6.86013 19.16C7.18013 19.42 7.23013 19.89 6.97013 20.21C6.83013 20.4 6.61013 20.5 6.39013 20.5Z" fill="#292D32"/>
<path d="M20.9103 7.09C20.6703 7.09 20.4403 6.98 20.2903 6.76C18.5703 4.25 15.7103 2.75 12.6703 2.75C11.7603 2.75 10.8503 2.88 9.98032 3.15C9.59032 3.27 9.17032 3.05 9.04032 2.65C8.91032 2.25 9.14032 1.83 9.54032 1.71C10.5603 1.41 11.6103 1.25 12.6703 1.25C16.2103 1.25 19.5203 3 21.5303 5.92C21.7603 6.26 21.6803 6.73 21.3403 6.96C21.2103 7.05 21.0603 7.09 20.9103 7.09Z" fill="#292D32"/>
<path d="M16.6999 6.5C16.3699 6.25 15.7699 6 14.8099 6.26L11.6199 7.12C10.6999 7.38 10.0999 8.16 10.0999 9.12V10.76V13.34C9.83992 13.24 9.55992 13.18 9.25992 13.18C7.96992 13.18 6.91992 14.23 6.91992 15.52C6.91992 16.81 7.96992 17.86 9.25992 17.86C10.5399 17.86 11.5699 16.83 11.5899 15.56C11.5899 15.55 11.5999 15.54 11.5999 15.52V11.33L15.9199 10.15V12.28C15.6599 12.18 15.3799 12.12 15.0799 12.12C13.7899 12.12 12.7399 13.17 12.7399 14.46C12.7399 15.75 13.7899 16.8 15.0799 16.8C16.3699 16.8 17.4199 15.75 17.4199 14.46V9.17V8.25C17.4199 7.45 17.1799 6.86 16.6999 6.5ZM9.25992 16.36C8.79992 16.36 8.41992 15.98 8.41992 15.52C8.41992 15.06 8.79992 14.68 9.25992 14.68C9.71992 14.68 10.0999 15.06 10.0999 15.52C10.0999 15.98 9.71992 16.36 9.25992 16.36ZM15.0799 15.3C14.6199 15.3 14.2399 14.92 14.2399 14.46C14.2399 14 14.6199 13.62 15.0799 13.62C15.5399 13.62 15.9199 14 15.9199 14.46C15.9199 14.92 15.5399 15.3 15.0799 15.3Z" fill="#292D32"/>
</svg>
