<svg width="25" height="24" viewBox="0 0 25 24" fill="none" xmlns="http://www.w3.org/2000/svg">
<path d="M15.7401 17.88L14.7301 20.1C14.4701 20.66 14.0901 21.15 13.5801 21.49C13.0601 21.84 12.3801 21.87 11.8401 21.53C10.2001 20.49 6.62015 17.82 4.45015 13.19C4.37015 13.03 4.59011 12.87 4.73011 12.97C5.30011 13.37 5.91009 13.65 6.58009 13.81C6.99009 13.9 7.41013 13.94 7.81013 13.94C9.67013 13.94 11.3501 12.99 12.4701 12.17C12.8001 11.93 13.2401 11.88 13.5801 12.09C14.7001 12.79 15.4501 13.63 15.8201 14.58C16.4601 16.26 15.7601 17.81 15.7401 17.88Z" fill="black"/>
<path d="M17.5201 18.05C17.4401 18.14 17.2802 18.04 17.3202 17.93C17.7602 16.47 18.3301 12.62 13.2301 10.18C12.9201 10.03 12.6901 9.75001 12.6501 9.41001C12.0301 3.85001 16.8202 2.85 16.8202 2.85C17.2102 2.77 17.6201 2.77 18.0001 2.88C19.0801 3.17 20.1801 3.57 21.2901 4.11C22.2401 4.57 22.7901 5.57001 22.6501 6.62001C22.3201 9.10001 21.2201 13.88 17.5201 18.05Z" fill="black"/>
<path d="M11.23 10.21L11.26 10.41C11.33 10.79 11.1699 11.18 10.8499 11.38C8.69995 12.73 5.17994 13.75 3.02994 7.84C2.82994 7.3 2.70996 6.9 2.66996 6.32C2.61996 5.56 3.04995 4.69001 3.72995 4.37001C5.48995 3.55001 9.20998 2.12 13.7 2.25C13.9 2.26 13.97 2.52 13.81 2.63C12.08 3.95 10.59 6.33 11.23 10.21Z" fill="black"/>
</svg>
