<svg width="25" height="24" viewBox="0 0 25 24" fill="none" xmlns="http://www.w3.org/2000/svg">
<path d="M6.63992 1H3.69992C2.42992 1 1.66992 1.76 1.66992 3.03V5.97C1.66992 7.24 2.42992 8 3.69992 8H6.63992C7.90992 8 8.66992 7.24 8.66992 5.97V3.03C8.66992 1.76 7.90992 1 6.63992 1ZM7.13992 5.56C7.38992 5.81 7.38992 6.22 7.13992 6.47C7.00992 6.59 6.83992 6.65 6.67992 6.65C6.51992 6.65 6.35992 6.59 6.22992 6.47L5.15992 5.41L4.11992 6.47C3.98992 6.59 3.82992 6.65 3.64992 6.65C3.48992 6.65 3.32992 6.59 3.19992 6.47C2.94992 6.22 2.94992 5.81 3.19992 5.56L4.26992 4.5L3.20992 3.45C2.95992 3.2 2.95992 2.79 3.20992 2.54C3.45992 2.29 3.86992 2.29 4.11992 2.54L5.15992 3.6L6.21992 2.54C6.46992 2.29 6.87992 2.29 7.12992 2.54C7.37992 2.79 7.37992 3.2 7.12992 3.45L6.07992 4.5L7.13992 5.56Z" fill="#292D32"/>
<path d="M22.1699 15.8201C22.1699 15.9701 22.1199 16.1201 21.9899 16.2501C20.5399 17.7101 17.9599 20.3101 16.4799 21.8001C16.3499 21.9401 16.1799 22.0001 16.0099 22.0001C15.6799 22.0001 15.3599 21.7401 15.3599 21.3601V17.8601C15.3599 16.4001 16.5999 15.1901 18.1199 15.1901C19.0699 15.1801 20.3899 15.1801 21.5199 15.1801C21.9099 15.1801 22.1699 15.4901 22.1699 15.8201Z" fill="#292D32"/>
<path d="M22.1699 15.8201C22.1699 15.9701 22.1199 16.1201 21.9899 16.2501C20.5399 17.7101 17.9599 20.3101 16.4799 21.8001C16.3499 21.9401 16.1799 22.0001 16.0099 22.0001C15.6799 22.0001 15.3599 21.7401 15.3599 21.3601V17.8601C15.3599 16.4001 16.5999 15.1901 18.1199 15.1901C19.0699 15.1801 20.3899 15.1801 21.5199 15.1801C21.9099 15.1801 22.1699 15.4901 22.1699 15.8201Z" fill="#292D32"/>
<path d="M17.2999 2H11.1699C10.6199 2 10.1699 2.45 10.1699 3V6.5C10.1699 8.16 8.82992 9.5 7.16992 9.5H4.16992C3.61992 9.5 3.16992 9.95 3.16992 10.5V17.13C3.16992 19.82 5.34992 22 8.03992 22H12.8599C13.4099 22 13.8599 21.55 13.8599 21V17.86C13.8599 15.56 15.7699 13.69 18.1199 13.69C18.6499 13.68 19.9399 13.68 21.1699 13.68C21.7199 13.68 22.1699 13.24 22.1699 12.68V6.87C22.1699 4.18 19.9899 2 17.2999 2ZM9.38992 17.01H6.74992C6.33992 17.01 5.99992 16.67 5.99992 16.26C5.99992 15.84 6.33992 15.5 6.74992 15.5H9.38992C9.81992 15.5 10.1399 15.84 10.1399 16.26C10.1399 16.67 9.81992 17.01 9.38992 17.01ZM12.1799 13.3H6.74992C6.33992 13.3 5.99992 12.96 5.99992 12.55C5.99992 12.13 6.33992 11.79 6.74992 11.79H12.1799C12.5899 11.79 12.9399 12.13 12.9399 12.55C12.9399 12.96 12.5899 13.3 12.1799 13.3Z" fill="#292D32"/>
</svg>
