<svg width="25" height="24" viewBox="0 0 25 24" fill="none" xmlns="http://www.w3.org/2000/svg">
<path d="M22.2898 12.1L21.6698 11.89L19.9998 11.34C19.4198 11.15 18.8298 11.22 18.3798 11.54C17.9398 11.87 17.6798 12.4 17.6798 13.02V17.81C17.2798 17.59 16.8298 17.45 16.3398 17.45C14.7998 17.45 13.5498 18.71 13.5498 20.25C13.5498 20.51 13.5898 20.76 13.6498 21C13.9798 22.19 15.0598 23.05 16.3398 23.05C17.8698 23.05 19.1098 21.83 19.1398 20.31V15.7C19.1598 15.7 19.1698 15.71 19.1898 15.72L21.4698 16.48C21.5098 16.49 21.5598 16.51 21.5998 16.51C21.7798 16.56 21.9398 16.58 22.1098 16.58C22.4698 16.58 22.8098 16.48 23.0898 16.27C23.5398 15.95 23.7898 15.42 23.7898 14.8V14.2C23.7898 13.29 23.1498 12.39 22.2898 12.1ZM16.3398 21.59C15.8798 21.59 15.4798 21.36 15.2398 21C15.0898 20.79 15.0098 20.53 15.0098 20.25C15.0098 19.52 15.6098 18.92 16.3398 18.92C17.0798 18.92 17.6798 19.52 17.6798 20.25C17.6798 20.48 17.6198 20.69 17.5198 20.87C17.2998 21.3 16.8498 21.59 16.3398 21.59Z" fill="#292D32"/>
<path d="M23.7898 14.2V14.8C23.7898 15.42 23.5398 15.95 23.0898 16.27C22.8098 16.48 22.4698 16.58 22.1098 16.58C21.9398 16.58 21.7798 16.56 21.5998 16.51C21.5598 16.51 21.5098 16.49 21.4698 16.48L19.1898 15.72C19.1698 15.71 19.1598 15.7 19.1398 15.7V20.31C19.1098 21.83 17.8698 23.05 16.3398 23.05C15.0598 23.05 13.9798 22.19 13.6498 21C13.5898 20.76 13.5498 20.51 13.5498 20.25C13.5498 18.71 14.7998 17.45 16.3398 17.45C16.8298 17.45 17.2798 17.59 17.6798 17.81V13.02C17.6798 12.4 17.9398 11.87 18.3798 11.54C18.8298 11.22 19.4198 11.15 19.9998 11.34L21.6698 11.89L22.2898 12.1C23.1498 12.39 23.7898 13.29 23.7898 14.2Z" fill="#292D32"/>
<path d="M21.6699 7.52V9.62C21.6699 9.96 21.3399 10.2 21.0099 10.09L20.4699 9.91C19.4199 9.58 18.3499 9.72 17.4799 10.34C16.6499 10.96 16.1799 11.94 16.1799 13.02V15.47C16.1799 15.74 15.9699 15.96 15.6999 16C13.6399 16.31 12.0499 18.1 12.0499 20.25C12.0499 20.3 12.0499 20.35 12.0499 20.4C12.0599 20.71 11.8299 21 11.5099 21H8.18992C4.73992 21 2.66992 18.94 2.66992 15.48V7.52C2.66992 4.06 4.73992 2 8.18992 2H16.1499C19.5999 2 21.6699 4.06 21.6699 7.52Z" fill="#292D32"/>
</svg>
