<svg width="25" height="24" viewBox="0 0 25 24" fill="none" xmlns="http://www.w3.org/2000/svg">
<path d="M8.41992 3.5V2C8.41992 1.59 8.07992 1.25 7.66992 1.25C7.25992 1.25 6.91992 1.59 6.91992 2V3.56C7.16992 3.53 7.39992 3.5 7.66992 3.5H8.41992Z" fill="#292D32"/>
<path d="M16.4199 3.56V2C16.4199 1.59 16.0799 1.25 15.6699 1.25C15.2599 1.25 14.9199 1.59 14.9199 2V3.5H15.6699C15.9399 3.5 16.1699 3.53 16.4199 3.56Z" fill="#292D32"/>
<path d="M21.9599 14.97C21.1899 14.36 20.2199 14 19.1699 14C18.1199 14 17.1299 14.37 16.3599 14.99C15.3199 15.81 14.6699 17.09 14.6699 18.5C14.6699 19.34 14.9099 20.15 15.3199 20.81C15.6399 21.33 16.0499 21.79 16.5399 22.14C17.2799 22.68 18.1799 23 19.1699 23C20.3099 23 21.3399 22.58 22.1299 21.88C22.4799 21.59 22.7799 21.23 23.0199 20.82C23.4299 20.15 23.6699 19.34 23.6699 18.5C23.6699 17.07 22.9999 15.79 21.9599 14.97ZM19.1699 20.64C19.1699 19.46 18.2099 18.5 17.0299 18.5C18.2099 18.5 19.1699 17.54 19.1699 16.36C19.1699 17.54 20.1299 18.5 21.3099 18.5C20.1299 18.5 19.1699 19.46 19.1699 20.64Z" fill="#292D32"/>
<path d="M16.4199 3.56V5C16.4199 5.41 16.0799 5.75 15.6699 5.75C15.2599 5.75 14.9199 5.41 14.9199 5V3.5H8.41992V5C8.41992 5.41 8.07992 5.75 7.66992 5.75C7.25992 5.75 6.91992 5.41 6.91992 5V3.56C3.96992 3.83 2.66992 5.73 2.66992 8.5V17C2.66992 20 4.16992 22 7.66992 22H11.7999C12.5599 22 13.0699 21.15 12.8799 20.41C12.7399 19.87 12.6699 19.31 12.6699 18.75C12.6699 16.67 13.5999 14.75 15.2099 13.48C16.3799 12.53 17.8799 12 19.4199 12H19.4599C20.0899 12 20.6699 11.54 20.6699 10.91V8.5C20.6699 5.73 19.3699 3.83 16.4199 3.56ZM9.66992 16.75H7.66992C7.25992 16.75 6.91992 16.41 6.91992 16C6.91992 15.59 7.25992 15.25 7.66992 15.25H9.66992C10.0799 15.25 10.4199 15.59 10.4199 16C10.4199 16.41 10.0799 16.75 9.66992 16.75ZM12.6699 11.75H7.66992C7.25992 11.75 6.91992 11.41 6.91992 11C6.91992 10.59 7.25992 10.25 7.66992 10.25H12.6699C13.0799 10.25 13.4199 10.59 13.4199 11C13.4199 11.41 13.0799 11.75 12.6699 11.75Z" fill="#292D32"/>
</svg>
