<svg width="25" height="24" viewBox="0 0 25 24" fill="none" xmlns="http://www.w3.org/2000/svg">
<path d="M19.6699 8C21.3268 8 22.6699 6.65685 22.6699 5C22.6699 3.34315 21.3268 2 19.6699 2C18.0131 2 16.6699 3.34315 16.6699 5C16.6699 6.65685 18.0131 8 19.6699 8Z" fill="#292D32"/>
<path d="M20.4699 9.42C20.4399 9.43 20.4099 9.43 20.3799 9.44C20.2999 9.45 20.2299 9.46 20.1399 9.47C19.9899 9.49 19.8299 9.5 19.6699 9.5C19.2399 9.5 18.8299 9.44 18.4399 9.32C18.2699 9.28 18.1099 9.23 17.9599 9.16C17.8099 9.1 17.6499 9.02 17.5099 8.94C16.7599 8.53 16.1399 7.91 15.7299 7.16C15.6499 7.02 15.5699 6.86 15.5099 6.71C15.4399 6.56 15.3899 6.4 15.3499 6.23C15.2299 5.84 15.1699 5.43 15.1699 5C15.1699 4.84 15.1799 4.68 15.1999 4.53C15.2099 4.44 15.2199 4.37 15.2299 4.29C15.2399 4.26 15.2399 4.23 15.2499 4.2C15.3699 3.58 14.9099 3 14.2699 3H8.18992C8.04992 3 7.90992 3.01 7.77992 3.02C7.65992 3.03 7.54992 3.04 7.42992 3.06C7.30992 3.07 7.18992 3.09 7.07992 3.11C4.66992 3.46 3.12992 4.99 2.77992 7.41C2.75992 7.52 2.73992 7.64 2.72992 7.76C2.70992 7.88 2.69992 7.99 2.68992 8.11C2.67992 8.24 2.66992 8.38 2.66992 8.52V16.48C2.66992 16.62 2.67992 16.76 2.68992 16.89C2.69992 17.01 2.70992 17.12 2.72992 17.24C2.73992 17.36 2.75992 17.48 2.77992 17.59C3.12992 20.01 4.66992 21.54 7.07992 21.89C7.18992 21.91 7.30992 21.93 7.42992 21.94C7.54992 21.96 7.65992 21.97 7.77992 21.98C7.90992 21.99 8.04992 22 8.18992 22H16.1499C16.2899 22 16.4299 21.99 16.5599 21.98C16.6799 21.97 16.7899 21.96 16.9099 21.94C17.0299 21.93 17.1499 21.91 17.2599 21.89C19.6699 21.54 21.2099 20.01 21.5599 17.59C21.5799 17.48 21.5999 17.36 21.6099 17.24C21.6299 17.12 21.6399 17.01 21.6499 16.89C21.6599 16.76 21.6699 16.62 21.6699 16.48V10.4C21.6699 9.76 21.0899 9.3 20.4699 9.42ZM12.9499 15.25C12.4199 16.92 10.5999 17.82 9.96992 17.82C9.32992 17.82 7.53992 16.94 6.99992 15.25H6.98992C6.63992 14.14 7.03992 12.69 8.30992 12.28C8.88992 12.09 9.50992 12.2 9.95992 12.55C10.4099 12.2 11.0399 12.09 11.6299 12.28C12.8999 12.69 13.2999 14.14 12.9499 15.25Z" fill="#292D32"/>
</svg>
