<svg width="25" height="24" viewBox="0 0 25 24" fill="none" xmlns="http://www.w3.org/2000/svg">
<path d="M17.6699 7C17.6699 9.76 15.4299 12 12.6699 12C15.4299 12 17.6699 14.24 17.6699 17C20.4299 17 22.6699 14.76 22.6699 12C22.6699 9.24 20.4299 7 17.6699 7Z" fill="black"/>
<path d="M12.6699 12C12.6699 14.76 10.4299 17 7.66992 17C7.66992 19.76 9.90992 22 12.6699 22C15.4299 22 17.6699 19.76 17.6699 17C14.9099 17 12.6699 14.76 12.6699 12Z" fill="black"/>
<path d="M12.6699 12C12.6699 9.24 14.9099 7 17.6699 7C17.6699 4.24 15.4299 2 12.6699 2C9.90992 2 7.66992 4.24 7.66992 7C10.4299 7 12.6699 9.24 12.6699 12Z" fill="black"/>
<path d="M12.6699 12C9.90992 12 7.66992 9.76 7.66992 7C4.90992 7 2.66992 9.24 2.66992 12C2.66992 14.76 4.90992 17 7.66992 17C7.66992 14.24 9.90992 12 12.6699 12Z" fill="black"/>
</svg>
