<svg width="25" height="24" viewBox="0 0 25 24" fill="none" xmlns="http://www.w3.org/2000/svg">
<path d="M16.8619 2H8.48187C4.84187 2 2.67188 4.17 2.67188 7.81V16.18C2.67188 19.83 4.84187 22 8.48187 22H16.8519C20.4919 22 22.6619 19.83 22.6619 16.19V7.81C22.6719 4.17 20.5019 2 16.8619 2ZM17.4219 13.71C17.4219 15.23 16.1919 16.46 14.6719 16.46C13.1519 16.46 11.9219 15.23 11.9219 13.71V11.71C11.9219 11.3 12.2619 10.96 12.6719 10.96C13.0819 10.96 13.4219 11.3 13.4219 11.71V13.71C13.4219 14.4 13.9819 14.96 14.6719 14.96C15.3619 14.96 15.9219 14.4 15.9219 13.71V10.57C15.9219 8.78 14.4619 7.32 12.6719 7.32C10.8819 7.32 9.42188 8.78 9.42188 10.57V14C9.42188 15.48 10.6219 16.68 12.1019 16.68C12.5119 16.68 12.8519 17.02 12.8519 17.43C12.8519 17.84 12.5119 18.18 12.1019 18.18C9.80188 18.18 7.92188 16.3 7.92188 14V10.57C7.92188 7.95 10.0519 5.82 12.6719 5.82C15.2919 5.82 17.4219 7.95 17.4219 10.57V13.71Z" fill="#292D32"/>
</svg>
