<svg width="25" height="24" viewBox="0 0 25 24" fill="none" xmlns="http://www.w3.org/2000/svg">
<path d="M14.8204 22.0001H10.5004C8.96039 22.0001 7.82039 20.7501 8.12039 19.4201L8.64039 17.1001C8.74039 16.6401 9.15039 16.3201 9.62039 16.3201H15.7104C16.1804 16.3201 16.5804 16.6401 16.6904 17.1001L17.2104 19.4101C17.5304 20.8401 16.4604 22.0001 14.8204 22.0001Z" fill="#292D32"/>
<path d="M19.4898 13.69L18.4198 14.63C18.0498 14.95 17.5798 15.13 17.0998 15.13H8.25975C7.76975 15.13 7.28975 14.95 6.92975 14.62L5.87975 13.68C4.15975 12.27 4.14975 11.19 5.46975 9.53L10.6998 2.92C10.7363 2.87094 10.7738 2.82374 10.8122 2.77836C11.2531 2.25735 11.9398 2.70487 11.9398 3.38743V6.86C11.9298 7.29 12.2698 7.63 12.6898 7.62C13.1098 7.63 13.4398 7.29 13.4498 6.86V3.38743C13.4498 2.70487 14.1261 2.2676 14.5788 2.77848C14.6162 2.82077 14.6532 2.8646 14.6898 2.91L19.8998 9.53C21.1998 11.19 21.1498 12.22 19.4898 13.69Z" fill="#292D32"/>
</svg>
