<svg width="25" height="24" viewBox="0 0 25 24" fill="none" xmlns="http://www.w3.org/2000/svg">
<path d="M21.22 9.44004H20.12C19.97 9.44004 19.82 9.47004 19.68 9.51004L14.69 4.52004C15.17 3.90004 15.13 3.01004 14.56 2.45004L13.78 1.67004C13.19 1.08004 12.15 1.08004 11.55 1.67004L10.77 2.45004C10.21 3.01004 10.17 3.90004 10.65 4.52004L5.66004 9.51004C5.52004 9.47004 5.37004 9.44004 5.22004 9.44004H4.12004C3.25004 9.44004 2.54004 10.15 2.54004 11.02V12.12C2.54004 12.99 3.25004 13.7 4.12004 13.7H5.22004C6.09004 13.7 6.80004 12.99 6.80004 12.12V11.02C6.80004 10.87 6.77004 10.72 6.73004 10.58L11.72 5.59004C11.99 5.80004 12.33 5.91004 12.67 5.91004C13.01 5.91004 13.35 5.79004 13.63 5.58004L18.62 10.57C18.58 10.71 18.55 10.86 18.55 11.01V12.11C18.55 12.98 19.26 13.69 20.13 13.69H21.23C22.1 13.69 22.81 12.98 22.81 12.11V11.01C22.79 10.14 22.09 9.44004 21.22 9.44004Z" fill="#292D32"/>
<path d="M16.42 16.55L14.78 18H10.52L8.87997 16.55C7.92997 15.77 7.92997 15.17 8.64997 14.25L11.54 10.59C11.74 10.34 11.97 10.17 12.23 10.08C12.5 9.98995 12.79 9.98995 13.07 10.08C13.32 10.17 13.55 10.34 13.76 10.59L16.65 14.25C17.37 15.16 17.34 15.73 16.42 16.55Z" fill="#292D32"/>
<path d="M13.9598 22.0001H11.3698C10.4498 22.0001 9.75982 21.2501 9.93982 20.4501L10.2498 19.0601C10.3098 18.7801 10.5598 18.5901 10.8398 18.5901H14.4898C14.7698 18.5901 15.0098 18.7801 15.0798 19.0601L15.3898 20.4501C15.5898 21.3001 14.9398 22.0001 13.9598 22.0001Z" fill="#292D32"/>
</svg>
