<svg width="25" height="24" viewBox="0 0 25 24" fill="none" xmlns="http://www.w3.org/2000/svg">
<path d="M12.6855 2C7.16555 2 2.68555 6.48 2.68555 12C2.68555 17.52 7.16555 22 12.6855 22C18.2055 22 22.6855 17.52 22.6855 12C22.6855 6.48 18.2055 2 12.6855 2ZM9.41555 7.66C10.2255 7.66 10.8955 8.32 10.8955 9.14C10.8955 9.95 10.2355 10.62 9.41555 10.62C8.60555 10.62 7.93555 9.96 7.93555 9.14C7.93555 8.32 8.59555 7.66 9.41555 7.66ZM9.53555 15.8C9.38555 15.95 9.19555 16.02 9.00555 16.02C8.81555 16.02 8.62555 15.95 8.47555 15.8C8.18555 15.51 8.18555 15.03 8.47555 14.74L15.0255 8.19C15.3155 7.9 15.7955 7.9 16.0855 8.19C16.3755 8.48 16.3755 8.96 16.0855 9.25L9.53555 15.8ZM15.9555 16.34C15.1455 16.34 14.4755 15.68 14.4755 14.86C14.4755 14.05 15.1355 13.38 15.9555 13.38C16.7655 13.38 17.4355 14.04 17.4355 14.86C17.4355 15.68 16.7755 16.34 15.9555 16.34Z" fill="#292D32"/>
</svg>
