<svg width="25" height="24" viewBox="0 0 25 24" fill="none" xmlns="http://www.w3.org/2000/svg">
<path d="M16.8736 2H8.49359C4.85359 2 2.68359 4.17 2.68359 7.81V16.18C2.68359 19.83 4.85359 22 8.49359 22H16.8636C20.5036 22 22.6736 19.83 22.6736 16.19V7.81C22.6836 4.17 20.5136 2 16.8736 2ZM8.43359 9.14C8.43359 8.33 9.09359 7.66 9.91359 7.66C10.7236 7.66 11.3936 8.32 11.3936 9.14C11.3936 9.95 10.7336 10.62 9.91359 10.62C9.09359 10.61 8.43359 9.95 8.43359 9.14ZM9.50359 16.02C9.31359 16.02 9.12359 15.95 8.97359 15.8C8.68359 15.51 8.68359 15.04 8.97359 14.74L15.5236 8.19C15.8136 7.9 16.2936 7.9 16.5836 8.19C16.8736 8.48 16.8736 8.96 16.5836 9.25L10.0336 15.8C9.88359 15.95 9.69359 16.02 9.50359 16.02ZM16.4536 16.34C15.6436 16.34 14.9736 15.68 14.9736 14.86C14.9736 14.05 15.6336 13.38 16.4536 13.38C17.2636 13.38 17.9336 14.04 17.9336 14.86C17.9336 15.68 17.2736 16.34 16.4536 16.34Z" fill="#292D32"/>
</svg>
