<svg width="25" height="24" viewBox="0 0 25 24" fill="none" xmlns="http://www.w3.org/2000/svg">
<path d="M19.7502 15.72C19.1602 12.19 15.7702 9.32 12.1902 9.32C8.3002 9.32 4.8802 12.47 4.5502 16.35C4.4202 17.85 4.9002 19.27 5.8902 20.34C6.8702 21.41 8.2502 22 9.7502 22H14.4302C16.1202 22 17.6002 21.34 18.6102 20.15C19.6202 18.96 20.0202 17.38 19.7502 15.72Z" fill="#292D32"/>
<path d="M10.9495 7.86C12.5677 7.86 13.8795 6.54819 13.8795 4.93C13.8795 3.31181 12.5677 2 10.9495 2C9.33134 2 8.01953 3.31181 8.01953 4.93C8.01953 6.54819 9.33134 7.86 10.9495 7.86Z" fill="#292D32"/>
<path d="M17.6099 9.03C18.9575 9.03 20.0499 7.93758 20.0499 6.59C20.0499 5.24243 18.9575 4.15 17.6099 4.15C16.2623 4.15 15.1699 5.24243 15.1699 6.59C15.1699 7.93758 16.2623 9.03 17.6099 9.03Z" fill="#292D32"/>
<path d="M21.2195 12.93C22.2965 12.93 23.1695 12.057 23.1695 10.98C23.1695 9.90304 22.2965 9.03 21.2195 9.03C20.1426 9.03 19.2695 9.90304 19.2695 10.98C19.2695 12.057 20.1426 12.93 21.2195 12.93Z" fill="#292D32"/>
<path d="M4.60992 10.98C5.9575 10.98 7.04992 9.88757 7.04992 8.54C7.04992 7.19242 5.9575 6.1 4.60992 6.1C3.26235 6.1 2.16992 7.19242 2.16992 8.54C2.16992 9.88757 3.26235 10.98 4.60992 10.98Z" fill="#292D32"/>
</svg>
