<svg width="25" height="24" viewBox="0 0 25 24" fill="none" xmlns="http://www.w3.org/2000/svg">
<path d="M10.1699 8.75H8.91992V11.25H10.1699C10.8599 11.25 11.4199 10.69 11.4199 10C11.4199 9.31 10.8599 8.75 10.1699 8.75Z" fill="black"/>
<path d="M16.8597 2H8.48969C4.84968 2 2.67969 4.17 2.67969 7.81V16.18C2.67969 19.82 4.84968 21.99 8.48969 21.99H16.8597C20.4997 21.99 22.6697 19.82 22.6697 16.18V7.81C22.6697 4.17 20.4997 2 16.8597 2ZM10.1697 12.75H8.91969V16C8.91969 16.41 8.57969 16.75 8.16969 16.75C7.75969 16.75 7.41969 16.41 7.41969 16V8C7.41969 7.59 7.75969 7.25 8.16969 7.25H10.1697C11.6897 7.25 12.9197 8.48 12.9197 10C12.9197 11.52 11.6897 12.75 10.1697 12.75ZM15.9197 12.75C17.0197 12.75 17.9197 13.65 17.9197 14.75C17.9197 15.85 17.0197 16.75 15.9197 16.75H14.6697C14.2597 16.75 13.9197 16.41 13.9197 16C13.9197 15.59 14.2597 15.25 14.6697 15.25H15.9197C16.1997 15.25 16.4197 15.03 16.4197 14.75C16.4197 14.47 16.1997 14.25 15.9197 14.25C14.8197 14.25 13.9197 13.35 13.9197 12.25C13.9197 11.15 14.8197 10.25 15.9197 10.25H17.1697C17.5797 10.25 17.9197 10.59 17.9197 11C17.9197 11.41 17.5797 11.75 17.1697 11.75H15.9197C15.6397 11.75 15.4197 11.97 15.4197 12.25C15.4197 12.53 15.6397 12.75 15.9197 12.75Z" fill="black"/>
</svg>
