<svg width="25" height="24" viewBox="0 0 25 24" fill="none" xmlns="http://www.w3.org/2000/svg">
<path d="M12.6396 2C7.11965 2 2.63965 6.48 2.63965 12C2.63965 17.52 7.11965 22 12.6396 22C18.1596 22 22.6396 17.52 22.6396 12C22.6396 6.48 18.1696 2 12.6396 2ZM15.6396 14.23L12.7396 15.9C12.3796 16.11 11.9796 16.21 11.5896 16.21C11.1896 16.21 10.7996 16.11 10.4396 15.9C9.71965 15.48 9.28965 14.74 9.28965 13.9V10.55C9.28965 9.72 9.71965 8.97 10.4396 8.55C11.1596 8.13 12.0196 8.13 12.7496 8.55L15.6496 10.22C16.3696 10.64 16.7996 11.38 16.7996 12.22C16.7996 13.06 16.3696 13.81 15.6396 14.23Z" fill="#292D32"/>
</svg>
