<svg width="25" height="24" viewBox="0 0 25 24" fill="none" xmlns="http://www.w3.org/2000/svg">
<path d="M9.66992 2C7.04992 2 4.91992 4.13 4.91992 6.75C4.91992 9.32 6.92992 11.4 9.54992 11.49C9.62992 11.48 9.70992 11.48 9.76992 11.49C9.78992 11.49 9.79992 11.49 9.81992 11.49C9.82992 11.49 9.82992 11.49 9.83992 11.49C12.3999 11.4 14.4099 9.32 14.4199 6.75C14.4199 4.13 12.2899 2 9.66992 2Z" fill="#292D32"/>
<path d="M14.7499 14.1499C11.9599 12.2899 7.40988 12.2899 4.59988 14.1499C3.32988 14.9999 2.62988 16.1499 2.62988 17.3799C2.62988 18.6099 3.32988 19.7499 4.58988 20.5899C5.98988 21.5299 7.82988 21.9999 9.66988 21.9999C11.5099 21.9999 13.3499 21.5299 14.7499 20.5899C16.0099 19.7399 16.7099 18.5999 16.7099 17.3599C16.6999 16.1299 16.0099 14.9899 14.7499 14.1499Z" fill="#292D32"/>
<path d="M20.6598 7.3401C20.8198 9.2801 19.4398 10.9801 17.5298 11.2101C17.5198 11.2101 17.5198 11.2101 17.5098 11.2101H17.4798C17.4198 11.2101 17.3598 11.2101 17.3098 11.2301C16.3398 11.2801 15.4498 10.9701 14.7798 10.4001C15.8098 9.4801 16.3998 8.1001 16.2798 6.6001C16.2098 5.7901 15.9298 5.0501 15.5098 4.4201C15.8898 4.2301 16.3298 4.1101 16.7798 4.0701C18.7398 3.9001 20.4898 5.3601 20.6598 7.3401Z" fill="#292D32"/>
<path d="M22.6602 16.5899C22.5802 17.5599 21.9602 18.3999 20.9202 18.9699C19.9202 19.5199 18.6602 19.7799 17.4102 19.7499C18.1302 19.0999 18.5502 18.2899 18.6302 17.4299C18.7302 16.1899 18.1402 14.9999 16.9602 14.0499C16.2902 13.5199 15.5102 13.0999 14.6602 12.7899C16.8702 12.1499 19.6502 12.5799 21.3602 13.9599C22.2802 14.6999 22.7502 15.6299 22.6602 16.5899Z" fill="#292D32"/>
</svg>
