<svg width="25" height="24" viewBox="0 0 25 24" fill="none" xmlns="http://www.w3.org/2000/svg">
<path d="M6.41992 16.11V7.89C7.70992 7.56 8.66992 6.4 8.66992 5C8.66992 3.34 7.32992 2 5.66992 2C4.00992 2 2.66992 3.34 2.66992 5C2.66992 6.4 3.62992 7.56 4.91992 7.89V16.1C3.62992 16.44 2.66992 17.6 2.66992 19C2.66992 20.66 4.00992 22 5.66992 22C7.32992 22 8.66992 20.66 8.66992 19C8.66992 17.6 7.70992 16.44 6.41992 16.11Z" fill="#292D32"/>
<path d="M20.4199 16.1099V6.49993C20.4199 4.97993 19.1899 3.74993 17.6699 3.74993H14.7399L16.1499 2.57993C16.4699 2.30993 16.5099 1.83993 16.2499 1.51993C15.9799 1.19993 15.5099 1.15993 15.1899 1.41993L12.1899 3.91993C12.0199 4.05993 11.9199 4.26993 11.9199 4.49993C11.9199 4.72993 12.0199 4.92993 12.1899 5.07993L15.1899 7.57993C15.3299 7.69993 15.4999 7.74993 15.6699 7.74993C15.8799 7.74993 16.0999 7.65993 16.2499 7.47993C16.5199 7.15993 16.4699 6.68993 16.1499 6.41993L14.7399 5.24993H17.6699C18.3599 5.24993 18.9199 5.80993 18.9199 6.49993V16.1099C17.6299 16.4399 16.6699 17.5999 16.6699 18.9999C16.6699 20.6599 18.0099 21.9999 19.6699 21.9999C21.3299 21.9999 22.6699 20.6599 22.6699 18.9999C22.6699 17.5999 21.7099 16.4399 20.4199 16.1099Z" fill="#292D32"/>
</svg>
