<svg width="25" height="24" viewBox="0 0 25 24" fill="none" xmlns="http://www.w3.org/2000/svg">
<path d="M20.3999 16.0999C20.3999 16.0699 20.4199 16.0399 20.4199 15.9999V6.49993C20.4199 4.97993 19.1899 3.74993 17.6699 3.74993H13.7399L15.1499 2.57993C15.4699 2.30993 15.5099 1.83993 15.2499 1.51993C14.9799 1.19993 14.5099 1.15993 14.1899 1.41993L11.1899 3.91993C11.0199 4.05993 10.9199 4.26993 10.9199 4.49993C10.9199 4.72993 11.0199 4.92993 11.1899 5.07993L14.1899 7.57993C14.3299 7.69993 14.4999 7.74993 14.6699 7.74993C14.8799 7.74993 15.0999 7.65993 15.2499 7.47993C15.5199 7.15993 15.4699 6.68993 15.1499 6.41993L13.7399 5.24993H17.6699C18.3599 5.24993 18.9199 5.80993 18.9199 6.49993V15.9999C18.9199 16.0399 18.9399 16.0699 18.9399 16.0999C17.6399 16.4299 16.6699 17.5999 16.6699 18.9999C16.6699 20.6599 18.0099 21.9999 19.6699 21.9999C21.3299 21.9999 22.6699 20.6599 22.6699 18.9999C22.6699 17.5999 21.6999 16.4299 20.3999 16.0999Z" fill="#292D32"/>
<path d="M14.1499 18.92L11.1499 16.42C10.8299 16.15 10.3599 16.2 10.0899 16.52C9.81992 16.84 9.86992 17.31 10.1899 17.58L11.5999 18.75H7.66992C6.97992 18.75 6.41992 18.19 6.41992 17.5V8C6.41992 7.96 6.39992 7.93 6.39992 7.9C7.69992 7.57 8.66992 6.4 8.66992 5C8.66992 3.34 7.32992 2 5.66992 2C4.00992 2 2.66992 3.34 2.66992 5C2.66992 6.4 3.63992 7.57 4.93992 7.9C4.93992 7.93 4.91992 7.96 4.91992 8V17.5C4.91992 19.02 6.14992 20.25 7.66992 20.25H11.5999L10.1899 21.42C9.86992 21.69 9.82992 22.16 10.0899 22.48C10.2399 22.66 10.4499 22.75 10.6699 22.75C10.8399 22.75 11.0099 22.69 11.1499 22.58L14.1499 20.08C14.3199 19.94 14.4199 19.73 14.4199 19.5C14.4199 19.27 14.3199 19.07 14.1499 18.92Z" fill="#292D32"/>
</svg>
