<svg width="25" height="24" viewBox="0 0 25 24" fill="none" xmlns="http://www.w3.org/2000/svg">
<path d="M16.582 12.3699H21.272C21.192 17.0399 20.272 17.8099 17.402 19.5099C17.072 19.7099 16.962 20.1299 17.162 20.4699C17.362 20.7999 17.782 20.9099 18.122 20.7099C21.502 18.7099 22.682 17.4899 22.682 11.6699V6.27994C22.682 4.56994 21.292 3.18994 19.592 3.18994H16.592C14.832 3.18994 13.502 4.51994 13.502 6.27994V9.27994C13.492 11.0399 14.822 12.3699 16.582 12.3699Z" fill="#292D32"/>
<path d="M5.76188 12.3699H10.4519C10.3719 17.0399 9.45187 17.8099 6.58187 19.5099C6.25187 19.7099 6.14188 20.1299 6.34188 20.4699C6.54188 20.7999 6.96187 20.9099 7.30188 20.7099C10.6819 18.7099 11.8619 17.4899 11.8619 11.6699V6.27994C11.8619 4.56994 10.4719 3.18994 8.77188 3.18994H5.77187C4.00187 3.18994 2.67188 4.51994 2.67188 6.27994V9.27994C2.67188 11.0399 4.00188 12.3699 5.76188 12.3699Z" fill="#292D32"/>
</svg>
