<svg width="25" height="24" viewBox="0 0 25 24" fill="none" xmlns="http://www.w3.org/2000/svg">
<path d="M12.6719 2C7.15188 2 2.67188 6.48 2.67188 12C2.67188 17.52 7.15188 22 12.6719 22C18.1919 22 22.6719 17.52 22.6719 12C22.6719 6.48 18.1919 2 12.6719 2ZM12.2819 11.84C12.2819 14.92 11.6119 15.61 9.82187 16.67C9.70187 16.74 9.57188 16.77 9.44188 16.77C9.18188 16.77 8.93187 16.64 8.79187 16.4C8.58187 16.04 8.70188 15.58 9.05188 15.37C10.2619 14.65 10.6819 14.39 10.7619 12.58H8.86187C7.77187 12.58 6.92188 11.73 6.92188 10.64V9.16C6.92188 8.07 7.77187 7.22 8.86187 7.22H10.3519C11.4219 7.22 12.2919 8.09 12.2919 9.16V11.84H12.2819ZM18.4219 11.84C18.4219 14.92 17.7519 15.61 15.9619 16.67C15.8419 16.74 15.7119 16.77 15.5819 16.77C15.3219 16.77 15.0719 16.64 14.9319 16.4C14.7219 16.04 14.8419 15.58 15.1919 15.37C16.4019 14.65 16.8219 14.39 16.9019 12.58H14.9919C13.9019 12.58 13.0519 11.73 13.0519 10.64V9.16C13.0519 8.07 13.9019 7.22 14.9919 7.22H16.4819C17.5519 7.22 18.4219 8.09 18.4219 9.16V11.84Z" fill="#292D32"/>
</svg>
