<svg width="25" height="24" viewBox="0 0 25 24" fill="none" xmlns="http://www.w3.org/2000/svg">
<path d="M16.8619 2H8.48187C4.84187 2 2.67188 4.17 2.67188 7.81V16.18C2.67188 19.83 4.84187 22 8.48187 22H16.8519C20.4919 22 22.6619 19.83 22.6619 16.19V7.81C22.6719 4.17 20.5019 2 16.8619 2ZM12.2819 14.84C12.2819 15.93 11.4319 16.78 10.3419 16.78H8.86187C7.79187 16.78 6.92188 15.91 6.92188 14.84V12.17C6.92188 9.09 7.59188 8.4 9.38188 7.34C9.50187 7.27 9.63188 7.24 9.76188 7.24C10.0219 7.24 10.2719 7.37 10.4119 7.61C10.6219 7.97 10.5019 8.43 10.1519 8.64C8.94187 9.34 8.52187 9.6 8.44187 11.41H10.3519C11.4419 11.41 12.2919 12.26 12.2919 13.35V14.84H12.2819ZM18.4219 14.84C18.4219 15.93 17.5719 16.78 16.4819 16.78H14.9919C13.9219 16.78 13.0519 15.91 13.0519 14.84V12.17C13.0519 9.09 13.7219 8.4 15.5119 7.34C15.6319 7.27 15.7619 7.24 15.8919 7.24C16.1519 7.24 16.4019 7.37 16.5419 7.61C16.7519 7.97 16.6319 8.43 16.2819 8.64C15.0719 9.36 14.6519 9.62 14.5719 11.43H16.4819C17.5719 11.43 18.4219 12.28 18.4219 13.37V14.84Z" fill="#292D32"/>
</svg>
