<svg width="25" height="24" viewBox="0 0 25 24" fill="none" xmlns="http://www.w3.org/2000/svg">
<path d="M8.41992 2V5H7.66992C7.40992 5 7.15992 5.01 6.91992 5.05V2C6.91992 1.59 7.25992 1.25 7.66992 1.25C8.07992 1.25 8.41992 1.59 8.41992 2Z" fill="#292D32"/>
<path d="M17.6699 5H7.66992C7.40992 5 7.15992 5.01 6.91992 5.05C4.33992 5.35 2.66992 7.26 2.66992 10V17C2.66992 20 4.66992 22 7.66992 22H17.6699C20.6699 22 22.6699 20 22.6699 17V10C22.6699 7 20.6699 5 17.6699 5ZM8.54992 16C7.16992 16 6.04992 14.88 6.04992 13.5C6.04992 12.12 7.16992 11 8.54992 11C9.92992 11 11.0499 12.12 11.0499 13.5C11.0499 14.88 9.92992 16 8.54992 16ZM15.0499 16.25H14.5499C14.1399 16.25 13.7999 15.91 13.7999 15.5C13.7999 15.09 14.1399 14.75 14.5499 14.75H15.0499C15.4599 14.75 15.7999 15.09 15.7999 15.5C15.7999 15.91 15.4599 16.25 15.0499 16.25ZM18.5499 16.25H18.0499C17.6399 16.25 17.2999 15.91 17.2999 15.5C17.2999 15.09 17.6399 14.75 18.0499 14.75H18.5499C18.9599 14.75 19.2999 15.09 19.2999 15.5C19.2999 15.91 18.9599 16.25 18.5499 16.25ZM18.5499 12.25H14.5499C14.1399 12.25 13.7999 11.91 13.7999 11.5C13.7999 11.09 14.1399 10.75 14.5499 10.75H18.5499C18.9599 10.75 19.2999 11.09 19.2999 11.5C19.2999 11.91 18.9599 12.25 18.5499 12.25Z" fill="#292D32"/>
</svg>
