<svg width="25" height="24" viewBox="0 0 25 24" fill="none" xmlns="http://www.w3.org/2000/svg">
<path d="M20.1699 9C20.7199 9 21.1699 8.55 21.1699 8V7C21.1699 4 19.6399 2 16.1699 2H9.16992C5.63992 2 4.16992 4 4.16992 7V17C4.16992 19.3139 5.0482 21.0255 7.06485 21.6836C7.36641 21.782 7.65887 21.5422 7.65776 21.2249L7.64992 19C7.64992 17.34 8.99992 16 10.6499 16H14.6599C16.2999 16 17.6499 17.34 17.6599 18.98L17.6756 21.227C17.6778 21.5435 17.9716 21.7801 18.2717 21.6794C20.2598 21.0126 21.1699 19.3027 21.1699 17V15.83C21.1699 15.3 20.9599 14.79 20.5799 14.41L19.7599 13.59C19.3799 13.21 19.1699 12.7 19.1699 12.17V10C19.1699 9.45 19.6199 9 20.1699 9ZM14.6399 8.53H8.63992C8.22992 8.53 7.88992 8.19 7.88992 7.78C7.88992 7.37 8.22992 7.03 8.63992 7.03H14.6399C15.0499 7.03 15.3899 7.37 15.3899 7.78C15.3899 8.19 15.0599 8.53 14.6399 8.53Z" fill="#292D32"/>
<path d="M16.6803 20.97C16.6858 21.5261 16.2365 21.98 15.6803 21.98H9.66366C9.11398 21.98 8.66736 21.5364 8.66368 20.9867L8.65039 19C8.65039 17.9 9.54039 17 10.6504 17H14.6604C15.7604 17 16.6504 17.89 16.6604 18.99L16.6803 20.97Z" fill="#292D32"/>
</svg>
