<svg width="25" height="24" viewBox="0 0 25 24" fill="none" xmlns="http://www.w3.org/2000/svg">
<path d="M13.9699 8.10983L15.2899 10.7498C15.4699 11.1098 15.9499 11.4698 16.3499 11.5298L18.7399 11.9298C20.2699 12.1898 20.6299 13.2898 19.5299 14.3898L17.6699 16.2598C17.3599 16.5698 17.1799 17.1798 17.2799 17.6198L17.8099 19.9298C18.2299 21.7498 17.2599 22.4598 15.6499 21.5098L13.4099 20.1798C12.9999 19.9398 12.3399 19.9398 11.9299 20.1798L9.6799 21.4998C8.0699 22.4498 7.0999 21.7398 7.5199 19.9198L8.0499 17.6098C8.1499 17.1798 7.9699 16.5698 7.6599 16.2498L5.8099 14.3998C4.7099 13.2998 5.0699 12.1898 6.5999 11.9398L8.9899 11.5398C9.38989 11.4698 9.8699 11.1198 10.0499 10.7598L11.3699 8.11983C12.0799 6.67983 13.2599 6.67983 13.9699 8.10983Z" fill="#292D32"/>
<path d="M6.66992 9.75C6.25992 9.75 5.91992 9.41 5.91992 9V2C5.91992 1.59 6.25992 1.25 6.66992 1.25C7.07992 1.25 7.41992 1.59 7.41992 2V9C7.41992 9.41 7.07992 9.75 6.66992 9.75Z" fill="#292D32"/>
<path d="M18.6699 9.75C18.2599 9.75 17.9199 9.41 17.9199 9V2C17.9199 1.59 18.2599 1.25 18.6699 1.25C19.0799 1.25 19.4199 1.59 19.4199 2V9C19.4199 9.41 19.0799 9.75 18.6699 9.75Z" fill="#292D32"/>
<path d="M12.6699 4.75C12.2599 4.75 11.9199 4.41 11.9199 4V2C11.9199 1.59 12.2599 1.25 12.6699 1.25C13.0799 1.25 13.4199 1.59 13.4199 2V4C13.4199 4.41 13.0799 4.75 12.6699 4.75Z" fill="#292D32"/>
</svg>
