<svg width="25" height="24" viewBox="0 0 25 24" fill="none" xmlns="http://www.w3.org/2000/svg">
<path d="M16.4519 2H8.89188C5.11188 2 4.17188 3.01 4.17188 7.04V18.3C4.17188 20.96 5.63188 21.59 7.40188 19.69L7.41187 19.68C8.23187 18.81 9.48188 18.88 10.1919 19.83L11.2019 21.18C12.0119 22.25 13.3219 22.25 14.1319 21.18L15.1419 19.83C15.8619 18.87 17.1119 18.8 17.9319 19.68C19.7119 21.58 21.1619 20.95 21.1619 18.29V7.04C21.1719 3.01 20.2319 2 16.4519 2ZM9.67188 7C10.2219 7 10.6719 7.45 10.6719 8C10.6719 8.55 10.2319 9 9.67188 9C9.11188 9 8.67188 8.55 8.67188 8C8.67188 7.45 9.11188 7 9.67188 7ZM15.6719 14C15.1119 14 14.6719 13.55 14.6719 13C14.6719 12.45 15.1219 12 15.6719 12C16.2219 12 16.6719 12.45 16.6719 13C16.6719 13.55 16.2319 14 15.6719 14ZM16.5719 7.59L9.84188 14.32C9.69187 14.47 9.50188 14.54 9.31188 14.54C9.12188 14.54 8.93187 14.47 8.78187 14.32C8.49187 14.03 8.49187 13.55 8.78187 13.26L15.5119 6.53C15.8019 6.24 16.2819 6.24 16.5719 6.53C16.8619 6.82 16.8619 7.3 16.5719 7.59Z" fill="#292D32"/>
</svg>
