<svg width="25" height="24" viewBox="0 0 25 24" fill="none" xmlns="http://www.w3.org/2000/svg">
<path d="M16.4519 2H8.89188C5.11188 2 4.17188 3.01 4.17188 7.04V18.3C4.17188 20.96 5.63188 21.59 7.40188 19.69L7.41187 19.68C8.23187 18.81 9.48188 18.88 10.1919 19.83L11.2019 21.18C12.0119 22.25 13.3219 22.25 14.1319 21.18L15.1419 19.83C15.8619 18.87 17.1119 18.8 17.9319 19.68C19.7119 21.58 21.1619 20.95 21.1619 18.29V7.04C21.1719 3.01 20.2319 2 16.4519 2ZM16.3319 14.53C16.1819 14.68 15.9919 14.75 15.8019 14.75C15.6119 14.75 15.4219 14.68 15.2719 14.53L14.5319 13.79C13.9519 14.17 13.2519 14.4 12.5019 14.4C10.4619 14.4 8.80188 12.74 8.80188 10.7C8.80188 8.66 10.4519 7 12.5019 7C14.5519 7 16.2019 8.66 16.2019 10.7C16.2019 11.45 15.9719 12.15 15.5919 12.73L16.3319 13.47C16.6219 13.76 16.6219 14.24 16.3319 14.53Z" fill="#292D32"/>
</svg>
