<svg width="25" height="24" viewBox="0 0 25 24" fill="none" xmlns="http://www.w3.org/2000/svg">
<path d="M5.37992 18.1899C5.47992 18.2299 5.56992 18.2499 5.66992 18.2499H15.9399C16.3499 18.2499 16.6899 17.9099 16.6899 17.4999C16.6899 17.0899 16.3499 16.7499 15.9399 16.7499H7.47992L20.1999 4.02994C20.4899 3.73994 20.4899 3.25994 20.1999 2.96994C19.9099 2.67994 19.4299 2.67994 19.1399 2.96994L6.41992 15.6899V7.22994C6.41992 6.81994 6.07992 6.47994 5.66992 6.47994C5.25992 6.47994 4.91992 6.81994 4.91992 7.22994V17.4999C4.91992 17.5999 4.93992 17.6899 4.97992 17.7899C5.04992 17.9699 5.19992 18.1199 5.37992 18.1899Z" fill="#292D32"/>
<path d="M21.1699 21.25H4.16992C3.75992 21.25 3.41992 21.59 3.41992 22C3.41992 22.41 3.75992 22.75 4.16992 22.75H21.1699C21.5799 22.75 21.9199 22.41 21.9199 22C21.9199 21.59 21.5799 21.25 21.1699 21.25Z" fill="#292D32"/>
</svg>
