<svg width="25" height="24" viewBox="0 0 25 24" fill="none" xmlns="http://www.w3.org/2000/svg">
<path d="M16.8599 2H8.47992C4.83992 2 2.66992 4.17 2.66992 7.81V16.18C2.66992 19.83 4.83992 22 8.47992 22H16.8499C20.4899 22 22.6599 19.83 22.6599 16.19V7.81C22.6699 4.17 20.4999 2 16.8599 2ZM9.30992 7.15C9.59992 6.86 10.0799 6.86 10.3699 7.15L14.7499 11.53V9.1C14.7499 8.69 15.0899 8.35 15.4999 8.35C15.9099 8.35 16.2499 8.69 16.2499 9.1V13.34C16.2499 13.44 16.2299 13.53 16.1899 13.63C16.1099 13.81 15.9699 13.96 15.7799 14.04C15.6899 14.08 15.5899 14.1 15.4899 14.1H11.2499C10.8399 14.1 10.4999 13.76 10.4999 13.35C10.4999 12.94 10.8399 12.6 11.2499 12.6H13.6799L9.30992 8.21C9.01992 7.92 9.01992 7.45 9.30992 7.15ZM18.9099 17.22C16.8999 17.89 14.7899 18.23 12.6699 18.23C10.5499 18.23 8.43992 17.89 6.42992 17.22C6.03992 17.09 5.82992 16.66 5.95992 16.27C6.08992 15.88 6.50992 15.66 6.90992 15.8C10.6299 17.04 14.7199 17.04 18.4399 15.8C18.8299 15.67 19.2599 15.88 19.3899 16.27C19.5099 16.67 19.2999 17.09 18.9099 17.22Z" fill="#292D32"/>
</svg>
