<svg width="25" height="24" viewBox="0 0 25 24" fill="none" xmlns="http://www.w3.org/2000/svg">
<path d="M20.2996 7.24C20.5996 7.71 20.4396 8.34 19.9596 8.63L19.3696 8.98L6.25959 16.84C5.77959 17.13 5.14959 16.97 4.86959 16.48C3.86959 14.74 3.41959 12.62 3.80959 10.4C4.46959 6.63 7.56959 3.63 11.3596 3.09C15.1096 2.56 18.4996 4.36 20.2996 7.24Z" fill="#292D32"/>
<path d="M21.5601 13.43C20.8801 17.68 17.1201 20.93 12.8101 21C10.9101 21.03 9.15007 20.48 7.69007 19.49C7.07007 19.08 7.09007 18.16 7.73007 17.78L20.1401 10.49C20.7901 10.11 21.5901 10.55 21.6501 11.3C21.7001 12 21.6701 12.71 21.5601 13.43Z" fill="#292D32"/>
</svg>
