<svg width="25" height="24" viewBox="0 0 25 24" fill="none" xmlns="http://www.w3.org/2000/svg">
<path d="M16.8599 2H8.47992C4.83992 2 2.66992 4.17 2.66992 7.81V16.18C2.66992 19.83 4.83992 22 8.47992 22H16.8499C20.4899 22 22.6599 19.83 22.6599 16.19V7.81C22.6699 4.17 20.4999 2 16.8599 2ZM12.6699 18.01C9.49992 18.01 6.91992 15.43 6.91992 12.26C6.91992 9.09 9.49992 6.51 12.6699 6.51C12.8099 6.51 12.9599 6.53 13.0999 6.54L12.8199 6.22C12.5499 5.91 12.5799 5.43 12.8899 5.16C13.1999 4.89 13.6799 4.92 13.9499 5.23L15.6199 7.14C15.6299 7.15 15.6299 7.16 15.6399 7.17C15.6499 7.18 15.6599 7.18 15.6599 7.19C15.6799 7.22 15.6899 7.26 15.7099 7.3C15.7299 7.35 15.7599 7.39 15.7699 7.44C15.7799 7.49 15.7799 7.53 15.7899 7.58C15.7899 7.63 15.7999 7.67 15.7999 7.72C15.7999 7.77 15.7799 7.81 15.7599 7.86C15.7399 7.91 15.7299 7.96 15.7099 8C15.6899 8.04 15.6499 8.08 15.6199 8.12C15.5899 8.15 15.5799 8.19 15.5499 8.21C15.5399 8.22 15.5299 8.22 15.5199 8.23C15.5099 8.24 15.5099 8.25 15.4999 8.25L13.5599 9.67C13.4299 9.77 13.2699 9.81 13.1199 9.81C12.8899 9.81 12.6599 9.7 12.5099 9.5C12.2699 9.17 12.3399 8.7 12.6699 8.45L13.2299 8.04C13.0399 8.03 12.8599 8.01 12.6699 8.01C10.3299 8.01 8.41992 9.92 8.41992 12.26C8.41992 14.6 10.3299 16.51 12.6699 16.51C15.0099 16.51 16.9199 14.6 16.9199 12.26C16.9199 11.41 16.6699 10.6 16.2099 9.9C15.9799 9.56 16.0699 9.09 16.4199 8.86C16.7599 8.63 17.2299 8.72 17.4599 9.07C18.0899 10.02 18.4299 11.12 18.4299 12.26C18.4199 15.44 15.8399 18.01 12.6699 18.01Z" fill="#292D32"/>
</svg>
