<svg width="25" height="24" viewBox="0 0 25 24" fill="none" xmlns="http://www.w3.org/2000/svg">
<path d="M16.8599 2H8.47992C4.83992 2 2.66992 4.17 2.66992 7.81V16.18C2.66992 19.83 4.83992 22 8.47992 22H16.8499C20.4899 22 22.6599 19.83 22.6599 16.19V7.81C22.6699 4.17 20.4999 2 16.8599 2ZM5.91992 11.89C5.94992 10.13 6.64992 8.47 7.88992 7.23C9.16992 5.95 10.8699 5.25 12.6699 5.25C14.4699 5.25 16.1699 5.95 17.4399 7.23C17.4699 7.26 17.4999 7.3 17.5299 7.34V6.48C17.5299 6.07 17.8699 5.73 18.2799 5.73C18.6899 5.73 19.0299 6.07 19.0299 6.48V9.13C19.0299 9.54 18.6899 9.88 18.2799 9.88H15.6299C15.2199 9.88 14.8799 9.54 14.8799 9.13C14.8799 8.72 15.2199 8.38 15.6299 8.38H16.4599C16.4299 8.35 16.4099 8.32 16.3799 8.29C15.3899 7.3 14.0699 6.75 12.6699 6.75C11.2699 6.75 9.94992 7.3 8.95992 8.29C7.98992 9.26 7.44992 10.55 7.42992 11.92C7.41992 12.32 7.07992 12.65 6.66992 12.65H6.65992C6.24992 12.65 5.91992 12.3 5.91992 11.89ZM17.4399 16.77C16.1699 18.04 14.4699 18.75 12.6699 18.75C10.8699 18.75 9.16992 18.05 7.89992 16.77C7.86992 16.74 7.83992 16.7 7.80992 16.66V17.51C7.80992 17.92 7.46992 18.26 7.05992 18.26C6.64992 18.26 6.30992 17.92 6.30992 17.51V14.86C6.30992 14.45 6.64992 14.11 7.05992 14.11H9.70992C10.1199 14.11 10.4599 14.45 10.4599 14.86C10.4599 15.27 10.1199 15.61 9.70992 15.61H8.87992C8.90992 15.64 8.92992 15.67 8.95992 15.7C9.94992 16.69 11.2699 17.24 12.6699 17.24C14.0699 17.24 15.3899 16.69 16.3799 15.7C17.3599 14.72 17.9099 13.41 17.9099 12.01C17.9099 11.6 18.2499 11.26 18.6599 11.26C19.0699 11.26 19.4099 11.6 19.4099 12.01C19.4099 13.82 18.7099 15.51 17.4399 16.77Z" fill="#292D32"/>
</svg>
