<svg width="25" height="24" viewBox="0 0 25 24" fill="none" xmlns="http://www.w3.org/2000/svg">
<path d="M4.57992 17.18C4.38992 17.18 4.19992 17.11 4.04992 16.96C2.67992 15.58 1.91992 13.76 1.91992 11.83C1.91992 7.82 5.16992 4.56 9.16992 4.56L15.2399 4.58L14.1499 3.54C13.8499 3.25 13.8399 2.78 14.1299 2.48C14.4199 2.18 14.8899 2.17 15.1899 2.46L17.6299 4.8C17.8499 5.01 17.9199 5.34 17.8099 5.62C17.6999 5.9 17.4199 6.09 17.1099 6.09L9.16992 6.07C5.99992 6.07 3.41992 8.66 3.41992 11.84C3.41992 13.37 4.01992 14.82 5.10992 15.91C5.39992 16.2 5.39992 16.68 5.10992 16.97C4.95992 17.11 4.76992 17.18 4.57992 17.18Z" fill="#292D32"/>
<path d="M10.6698 21.75C10.4798 21.75 10.2998 21.68 10.1498 21.54L7.70982 19.2C7.48982 18.99 7.41982 18.66 7.52982 18.38C7.63982 18.1 7.91982 17.91 8.22982 17.91L16.1798 17.93C19.3498 17.93 21.9298 15.34 21.9298 12.16C21.9298 10.63 21.3298 9.18 20.2398 8.09C19.9498 7.8 19.9498 7.32 20.2398 7.03C20.5298 6.74 21.0098 6.74 21.2998 7.03C22.6698 8.41 23.4298 10.23 23.4298 12.16C23.4298 16.17 20.1798 19.43 16.1798 19.43L10.1098 19.41L11.1998 20.45C11.4998 20.74 11.5098 21.21 11.2198 21.51C11.0598 21.67 10.8698 21.75 10.6698 21.75Z" fill="#292D32"/>
<path d="M9.66992 15.5H15.6699C17.5899 15.5 19.1699 13.93 19.1699 12C19.1699 10.08 17.5999 8.5 15.6699 8.5H9.66992C7.74992 8.5 6.16992 10.07 6.16992 12C6.16992 13.93 7.73992 15.5 9.66992 15.5Z" fill="#292D32"/>
</svg>
