<svg width="25" height="24" viewBox="0 0 25 24" fill="none" xmlns="http://www.w3.org/2000/svg">
<path d="M22.6396 18V19C22.6396 20.65 22.6396 22 19.6396 22H5.63965C2.63965 22 2.63965 20.65 2.63965 19V18C2.63965 17.45 3.08965 17 3.63965 17H21.6396C22.1896 17 22.6396 17.45 22.6396 18Z" fill="#292D32"/>
<path d="M15.0795 5.18C15.1295 4.98 15.1595 4.79 15.1695 4.58C15.1995 3.42 14.4895 2.4 13.3695 2.1C11.6895 1.64 10.1695 2.9 10.1695 4.5C10.1695 4.74 10.1995 4.96 10.2595 5.18C6.64945 5.95 3.93945 9.16 3.93945 13V14.5C3.93945 15.05 4.38945 15.5 4.93945 15.5H20.3895C20.9395 15.5 21.3895 15.05 21.3895 14.5V13C21.3895 9.16 18.6895 5.96 15.0795 5.18ZM15.6695 11.75H9.66945C9.25945 11.75 8.91945 11.41 8.91945 11C8.91945 10.59 9.25945 10.25 9.66945 10.25H15.6695C16.0795 10.25 16.4195 10.59 16.4195 11C16.4195 11.41 16.0795 11.75 15.6695 11.75Z" fill="#292D32"/>
</svg>
