<svg width="25" height="24" viewBox="0 0 25 24" fill="none" xmlns="http://www.w3.org/2000/svg">
<g clip-path="url(#clip0_12_64972)">
<path d="M9.54995 4.60022C8.74995 1.14022 3.53995 1.13022 2.73995 4.60022C2.26995 6.63022 3.55995 8.35022 4.67995 9.42022C5.49995 10.1902 6.78995 10.1902 7.60995 9.42022C8.72995 8.35022 10.0099 6.63022 9.54995 4.60022ZM6.17995 6.20022C5.62995 6.20022 5.17995 5.75022 5.17995 5.20022C5.17995 4.65022 5.61995 4.20022 6.16995 4.20022H6.17995C6.73995 4.20022 7.17995 4.65022 7.17995 5.20022C7.17995 5.75022 6.73995 6.20022 6.17995 6.20022Z" fill="#292D32"/>
<path d="M22.5799 16.6002C21.7799 13.1402 16.5499 13.1302 15.7399 16.6002C15.2699 18.6302 16.5599 20.3502 17.6899 21.4202C18.5099 22.1902 19.8099 22.1902 20.6299 21.4202C21.7599 20.3502 23.0499 18.6302 22.5799 16.6002ZM19.1999 18.2002C18.6499 18.2002 18.1999 17.7502 18.1999 17.2002C18.1999 16.6502 18.6399 16.2002 19.1899 16.2002H19.1999C19.7499 16.2002 20.1999 16.6502 20.1999 17.2002C20.1999 17.7502 19.7499 18.2002 19.1999 18.2002Z" fill="#292D32"/>
<path d="M12.6694 19.75H9.98937C8.82937 19.75 7.81937 19.05 7.41937 17.97C7.00937 16.89 7.30937 15.7 8.17937 14.93L16.1694 7.94C16.6494 7.52 16.6594 6.95 16.5194 6.56C16.3694 6.17 15.9894 5.75 15.3494 5.75H12.6694C12.2594 5.75 11.9194 5.41 11.9194 5C11.9194 4.59 12.2594 4.25 12.6694 4.25H15.3494C16.5094 4.25 17.5194 4.95 17.9194 6.03C18.3294 7.11 18.0294 8.3 17.1594 9.07L9.16937 16.06C8.68937 16.48 8.67937 17.05 8.81937 17.44C8.96937 17.83 9.34937 18.25 9.98937 18.25H12.6694C13.0794 18.25 13.4194 18.59 13.4194 19C13.4194 19.41 13.0794 19.75 12.6694 19.75Z" fill="#292D32"/>
</g>
<defs>
<clipPath id="clip0_12_64972">
<rect width="24" height="24" fill="white" transform="translate(0.669922)"/>
</clipPath>
</defs>
</svg>
