<svg width="25" height="24" viewBox="0 0 25 24" fill="none" xmlns="http://www.w3.org/2000/svg">
<g clip-path="url(#clip0_12_64979)">
<path d="M12.6684 19.75H9.9884C8.8284 19.75 7.8184 19.05 7.4184 17.97C7.0084 16.89 7.3084 15.7 8.1784 14.93L16.1684 7.94C16.6484 7.52 16.6584 6.95 16.5184 6.56C16.3684 6.17 15.9884 5.75 15.3484 5.75H12.6684C12.2584 5.75 11.9184 5.41 11.9184 5C11.9184 4.59 12.2584 4.25 12.6684 4.25H15.3484C16.5084 4.25 17.5184 4.95 17.9184 6.03C18.3284 7.11 18.0284 8.3 17.1584 9.07L9.1684 16.06C8.6884 16.48 8.6784 17.05 8.8184 17.44C8.9684 17.83 9.3484 18.25 9.9884 18.25H12.6684C13.0784 18.25 13.4184 18.59 13.4184 19C13.4184 19.41 13.0784 19.75 12.6684 19.75Z" fill="#292D32"/>
<path d="M20.6689 15H17.6689C16.5689 15 15.6689 15.9 15.6689 17V20C15.6689 21.1 16.5689 22 17.6689 22H20.6689C21.7689 22 22.6689 21.1 22.6689 20V17C22.6689 15.9 21.7689 15 20.6689 15ZM19.1789 19.5C18.6289 19.5 18.1789 19.05 18.1789 18.5C18.1789 17.95 18.6189 17.5 19.1789 17.5H19.1889C19.7389 17.5 20.1889 17.95 20.1889 18.5C20.1889 19.05 19.7389 19.5 19.1789 19.5Z" fill="#292D32"/>
<path d="M6.13867 2C4.20867 2 2.63867 3.57 2.63867 5.5C2.63867 7.43 4.20867 9 6.13867 9C8.06867 9 9.63867 7.43 9.63867 5.5C9.63867 3.57 8.07867 2 6.13867 2ZM6.17867 6.5C5.62867 6.5 5.17867 6.05 5.17867 5.5C5.17867 4.95 5.61867 4.5 6.17867 4.5H6.18867C6.73867 4.5 7.18867 4.95 7.18867 5.5C7.18867 6.05 6.73867 6.5 6.17867 6.5Z" fill="#292D32"/>
</g>
<defs>
<clipPath id="clip0_12_64979">
<rect width="24" height="24" fill="white" transform="translate(0.669922)"/>
</clipPath>
</defs>
</svg>
