<svg width="25" height="24" viewBox="0 0 25 24" fill="none" xmlns="http://www.w3.org/2000/svg">
<path d="M13.5599 5.87988H5.77992C4.06992 5.87988 2.66992 7.27988 2.66992 8.98988V20.3499C2.66992 21.7999 3.70992 22.4199 4.97992 21.7099L8.90992 19.5199C9.32992 19.2899 10.0099 19.2899 10.4199 19.5199L14.3499 21.7099C15.6299 22.4099 16.6699 21.7999 16.6699 20.3499V8.98988C16.6699 7.27988 15.2699 5.87988 13.5599 5.87988Z" fill="#292D32"/>
<path d="M22.6698 5.11V16.47C22.6698 17.92 21.6298 18.53 20.3598 17.83L18.4298 16.75C18.2698 16.66 18.1698 16.49 18.1698 16.31V8.99C18.1698 6.45 16.0998 4.38 13.5598 4.38H9.48976C9.11976 4.38 8.85976 3.99 9.02976 3.67C9.54976 2.68 10.5898 2 11.7798 2H19.5598C21.2698 2 22.6698 3.4 22.6698 5.11Z" fill="#292D32"/>
</svg>
