<svg width="25" height="24" viewBox="0 0 25 24" fill="none" xmlns="http://www.w3.org/2000/svg">
<path d="M2.66992 9.75C2.25992 9.75 1.91992 9.41 1.91992 9V6.5C1.91992 3.6 4.27992 1.25 7.16992 1.25H9.66992C10.0799 1.25 10.4199 1.59 10.4199 2C10.4199 2.41 10.0799 2.75 9.66992 2.75H7.16992C5.09992 2.75 3.41992 4.43 3.41992 6.5V9C3.41992 9.41 3.07992 9.75 2.66992 9.75Z" fill="#292D32"/>
<path d="M22.6699 9.75C22.2599 9.75 21.9199 9.41 21.9199 9V6.5C21.9199 4.43 20.2399 2.75 18.1699 2.75H15.6699C15.2599 2.75 14.9199 2.41 14.9199 2C14.9199 1.59 15.2599 1.25 15.6699 1.25H18.1699C21.0599 1.25 23.4199 3.6 23.4199 6.5V9C23.4199 9.41 23.0799 9.75 22.6699 9.75Z" fill="#292D32"/>
<path d="M18.1699 22.75H16.6699C16.2599 22.75 15.9199 22.41 15.9199 22C15.9199 21.59 16.2599 21.25 16.6699 21.25H18.1699C20.2399 21.25 21.9199 19.57 21.9199 17.5V16C21.9199 15.59 22.2599 15.25 22.6699 15.25C23.0799 15.25 23.4199 15.59 23.4199 16V17.5C23.4199 20.4 21.0599 22.75 18.1699 22.75Z" fill="#292D32"/>
<path d="M9.66992 22.75H7.16992C4.27992 22.75 1.91992 20.4 1.91992 17.5V15C1.91992 14.59 2.25992 14.25 2.66992 14.25C3.07992 14.25 3.41992 14.59 3.41992 15V17.5C3.41992 19.57 5.09992 21.25 7.16992 21.25H9.66992C10.0799 21.25 10.4199 21.59 10.4199 22C10.4199 22.41 10.0799 22.75 9.66992 22.75Z" fill="#292D32"/>
<path d="M9.17004 11.3801C10.7606 11.3801 12.05 10.0907 12.05 8.50012C12.05 6.90954 10.7606 5.62012 9.17004 5.62012C7.57946 5.62012 6.29004 6.90954 6.29004 8.50012C6.29004 10.0907 7.57946 11.3801 9.17004 11.3801Z" fill="#292D32"/>
<path d="M8.17004 18.3801C9.20833 18.3801 10.05 17.5384 10.05 16.5001C10.05 15.4618 9.20833 14.6201 8.17004 14.6201C7.13174 14.6201 6.29004 15.4618 6.29004 16.5001C6.29004 17.5384 7.13174 18.3801 8.17004 18.3801Z" fill="#292D32"/>
<path d="M17.17 9.38012C18.2083 9.38012 19.05 8.53841 19.05 7.50012C19.05 6.46182 18.2083 5.62012 17.17 5.62012C16.1317 5.62012 15.29 6.46182 15.29 7.50012C15.29 8.53841 16.1317 9.38012 17.17 9.38012Z" fill="#292D32"/>
<path d="M16.17 18.3801C17.7606 18.3801 19.05 17.0907 19.05 15.5001C19.05 13.9095 17.7606 12.6201 16.17 12.6201C14.5795 12.6201 13.29 13.9095 13.29 15.5001C13.29 17.0907 14.5795 18.3801 16.17 18.3801Z" fill="#292D32"/>
</svg>
