<svg width="25" height="24" viewBox="0 0 25 24" fill="none" xmlns="http://www.w3.org/2000/svg">
<path d="M12.1699 2C6.92992 2 2.66992 6.26 2.66992 11.5C2.66992 16.74 6.92992 21 12.1699 21C17.4099 21 21.6699 16.74 21.6699 11.5C21.6699 6.26 17.4099 2 12.1699 2ZM12.1699 13.75H9.16992C8.75992 13.75 8.41992 13.41 8.41992 13C8.41992 12.59 8.75992 12.25 9.16992 12.25H12.1699C12.5799 12.25 12.9199 12.59 12.9199 13C12.9199 13.41 12.5799 13.75 12.1699 13.75ZM15.1699 10.75H9.16992C8.75992 10.75 8.41992 10.41 8.41992 10C8.41992 9.59 8.75992 9.25 9.16992 9.25H15.1699C15.5799 9.25 15.9199 9.59 15.9199 10C15.9199 10.41 15.5799 10.75 15.1699 10.75Z" fill="#292D32"/>
<path d="M21.9705 21.9986C21.7905 21.9986 21.6105 21.9286 21.4805 21.7986L19.6205 19.9386C19.3505 19.6686 19.3505 19.2286 19.6205 18.9486C19.8905 18.6786 20.3305 18.6786 20.6105 18.9486L22.4705 20.8086C22.7405 21.0786 22.7405 21.5186 22.4705 21.7986C22.3305 21.9286 22.1505 21.9986 21.9705 21.9986Z" fill="#292D32"/>
</svg>
