<svg width="25" height="24" viewBox="0 0 25 24" fill="none" xmlns="http://www.w3.org/2000/svg">
<path d="M21.9695 22.0001C21.7895 22.0001 21.6095 21.9301 21.4795 21.8001L19.6195 19.9401C19.3495 19.6701 19.3495 19.2301 19.6195 18.9501C19.8895 18.6801 20.3295 18.6801 20.6095 18.9501L22.4695 20.8101C22.7395 21.0801 22.7395 21.5201 22.4695 21.8001C22.3295 21.9301 22.1495 22.0001 21.9695 22.0001Z" fill="#292D32"/>
<path d="M12.1699 2C6.92992 2 2.66992 6.26 2.66992 11.5C2.66992 16.74 6.92992 21 12.1699 21C17.4099 21 21.6699 16.74 21.6699 11.5C21.6699 6.26 17.4099 2 12.1699 2ZM14.8699 12.45H13.1199V14.2C13.1199 14.61 12.7799 14.95 12.3699 14.95C11.9599 14.95 11.6199 14.61 11.6199 14.2V12.45H9.86992C9.45992 12.45 9.11992 12.11 9.11992 11.7C9.11992 11.29 9.45992 10.95 9.86992 10.95H11.6199V9.2C11.6199 8.79 11.9599 8.45 12.3699 8.45C12.7799 8.45 13.1199 8.79 13.1199 9.2V10.95H14.8699C15.2799 10.95 15.6199 11.29 15.6199 11.7C15.6199 12.11 15.2799 12.45 14.8699 12.45Z" fill="#292D32"/>
</svg>
