<svg width="25" height="24" viewBox="0 0 25 24" fill="none" xmlns="http://www.w3.org/2000/svg">
<path d="M21.9695 22.0001C21.7895 22.0001 21.6095 21.9301 21.4795 21.8001L19.6195 19.9401C19.3495 19.6701 19.3495 19.2301 19.6195 18.9501C19.8895 18.6801 20.3295 18.6801 20.6095 18.9501L22.4695 20.8101C22.7395 21.0801 22.7395 21.5201 22.4695 21.8001C22.3295 21.9301 22.1495 22.0001 21.9695 22.0001Z" fill="#292D32"/>
<path d="M12.1699 2C6.92992 2 2.66992 6.26 2.66992 11.5C2.66992 16.74 6.92992 21 12.1699 21C17.4099 21 21.6699 16.74 21.6699 11.5C21.6699 6.26 17.4099 2 12.1699 2ZM15.3499 12.06C14.7899 13.84 12.8399 14.81 12.1699 14.81C11.4799 14.81 9.56992 13.88 8.98992 12.06C8.60992 10.87 9.03992 9.32 10.3999 8.89C11.0199 8.69 11.6799 8.81 12.1699 9.18C12.6499 8.81 13.3199 8.69 13.9499 8.89C15.2999 9.33 15.7299 10.88 15.3499 12.06Z" fill="#292D32"/>
</svg>
