<svg width="25" height="24" viewBox="0 0 25 24" fill="none" xmlns="http://www.w3.org/2000/svg">
<path d="M19.1698 4.10982L14.1798 2.23982C13.3498 1.92982 11.9898 1.92982 11.1598 2.23982L6.16983 4.10982C5.01983 4.53982 4.07983 5.89982 4.07983 7.11982V14.5498C4.07983 15.7298 4.85983 17.2798 5.80983 17.9898L10.1098 21.1998C11.5198 22.2598 13.8398 22.2598 15.2498 21.1998L19.5498 17.9898C20.4998 17.2798 21.2798 15.7298 21.2798 14.5498V7.11982C21.2598 5.89982 20.3198 4.53982 19.1698 4.10982ZM12.5998 7.02982C13.7798 7.02982 14.7398 7.98982 14.7398 9.16982C14.7398 10.3298 13.8298 11.2598 12.6798 11.2998H12.6598H12.6398C12.6198 11.2998 12.5998 11.2998 12.5798 11.2998C11.3798 11.2598 10.4798 10.3298 10.4798 9.16982C10.4698 7.98982 11.4298 7.02982 12.5998 7.02982ZM14.8598 16.3598C14.2498 16.7598 13.4598 16.9698 12.6698 16.9698C11.8798 16.9698 11.0798 16.7698 10.4798 16.3598C9.90983 15.9798 9.59983 15.4598 9.58983 14.8898C9.58983 14.3298 9.90983 13.7898 10.4798 13.4098C11.6898 12.6098 13.6598 12.6098 14.8698 13.4098C15.4398 13.7898 15.7598 14.3098 15.7598 14.8798C15.7498 15.4398 15.4298 15.9798 14.8598 16.3598Z" fill="#292D32"/>
</svg>
