<svg width="25" height="24" viewBox="0 0 25 24" fill="none" xmlns="http://www.w3.org/2000/svg">
<path d="M16.81 2.96L7.78004 5.96C1.71004 7.99 1.71004 11.3 7.78004 13.32L10.46 14.21L11.35 16.89C13.37 22.96 16.69 22.96 18.71 16.89L21.72 7.87C23.06 3.82 20.86 1.61 16.81 2.96ZM17.13 8.34L13.33 12.16C13.18 12.31 12.99 12.38 12.8 12.38C12.61 12.38 12.42 12.31 12.27 12.16C11.98 11.87 11.98 11.39 12.27 11.1L16.07 7.28C16.36 6.99 16.84 6.99 17.13 7.28C17.42 7.57 17.42 8.05 17.13 8.34Z" fill="#292D32"/>
</svg>
