<svg width="25" height="24" viewBox="0 0 25 24" fill="none" xmlns="http://www.w3.org/2000/svg">
<path d="M16.8599 2H8.47992C4.83992 2 2.66992 4.17 2.66992 7.81V16.18C2.66992 19.83 4.83992 22 8.47992 22H16.8499C20.4899 22 22.6599 19.83 22.6599 16.19V7.81C22.6699 4.17 20.4999 2 16.8599 2ZM9.13992 8.98L12.1399 5.98C12.2099 5.91 12.2899 5.86 12.3799 5.82C12.5599 5.74 12.7699 5.74 12.9499 5.82C13.0399 5.86 13.1199 5.91 13.1899 5.98L16.1899 8.98C16.4799 9.27 16.4799 9.75 16.1899 10.04C16.0399 10.19 15.8499 10.26 15.6599 10.26C15.4699 10.26 15.2799 10.19 15.1299 10.04L13.4099 8.32V14.51C13.4099 14.92 13.0699 15.26 12.6599 15.26C12.2499 15.26 11.9099 14.92 11.9099 14.51V8.32L10.1899 10.04C9.89992 10.33 9.41992 10.33 9.12992 10.04C8.83992 9.75 8.84992 9.28 9.13992 8.98ZM18.9099 17.22C16.8999 17.89 14.7899 18.23 12.6699 18.23C10.5499 18.23 8.43992 17.89 6.42992 17.22C6.03992 17.09 5.82992 16.66 5.95992 16.27C6.08992 15.88 6.51992 15.66 6.90992 15.8C10.6299 17.04 14.7199 17.04 18.4399 15.8C18.8299 15.67 19.2599 15.88 19.3899 16.27C19.5099 16.67 19.2999 17.09 18.9099 17.22Z" fill="#292D32"/>
</svg>
