<svg width="25" height="24" viewBox="0 0 25 24" fill="none" xmlns="http://www.w3.org/2000/svg">
<path d="M21.1699 21.25H4.16992C3.75992 21.25 3.41992 21.59 3.41992 22C3.41992 22.41 3.75992 22.75 4.16992 22.75H21.1699C21.5799 22.75 21.9199 22.41 21.9199 22C21.9199 21.59 21.5799 21.25 21.1699 21.25Z" fill="#292D32"/>
<path d="M5.66992 14.52C6.07992 14.52 6.41992 14.18 6.41992 13.77V5.31L19.1399 18.03C19.2899 18.18 19.4799 18.25 19.6699 18.25C19.8599 18.25 20.0499 18.18 20.1999 18.03C20.4899 17.74 20.4899 17.26 20.1999 16.97L7.47992 4.25H15.9399C16.3499 4.25 16.6899 3.91 16.6899 3.5C16.6899 3.09 16.3499 2.75 15.9399 2.75H5.66992C5.56992 2.75 5.47992 2.77 5.37992 2.81C5.19992 2.88 5.04992 3.03 4.97992 3.21C4.93992 3.31 4.91992 3.4 4.91992 3.5V13.77C4.91992 14.18 5.25992 14.52 5.66992 14.52Z" fill="#292D32"/>
</svg>
