<svg width="25" height="24" viewBox="0 0 25 24" fill="none" xmlns="http://www.w3.org/2000/svg">
<path d="M16.8599 2H8.47992C4.83992 2 2.66992 4.17 2.66992 7.81V16.18C2.66992 19.83 4.83992 22 8.47992 22H16.8499C20.4899 22 22.6599 19.83 22.6599 16.19V7.81C22.6699 4.17 20.4999 2 16.8599 2ZM8.33992 5.5C8.33992 5.09 8.67992 4.75 9.08992 4.75C9.49992 4.75 9.83992 5.09 9.83992 5.5V9.4C9.83992 9.81 9.49992 10.15 9.08992 10.15C8.67992 10.15 8.33992 9.81 8.33992 9.4V5.5ZM10.1927 16.4313C9.9893 16.5216 9.83992 16.7132 9.83992 16.9358V18.5C9.83992 18.91 9.49992 19.25 9.08992 19.25C8.67992 19.25 8.33992 18.91 8.33992 18.5V16.9358C8.33992 16.7132 8.19052 16.5216 7.98715 16.4311C7.03268 16.0064 6.36992 15.058 6.36992 13.95C6.36992 12.45 7.58992 11.22 9.08992 11.22C10.5899 11.22 11.8199 12.44 11.8199 13.95C11.8199 15.0582 11.1491 16.0066 10.1927 16.4313ZM16.9999 18.5C16.9999 18.91 16.6599 19.25 16.2499 19.25C15.8399 19.25 15.4999 18.91 15.4999 18.5V14.6C15.4999 14.19 15.8399 13.85 16.2499 13.85C16.6599 13.85 16.9999 14.19 16.9999 14.6V18.5ZM16.2499 12.77C14.7499 12.77 13.5199 11.55 13.5199 10.04C13.5199 8.93185 14.1908 7.98342 15.1471 7.55873C15.3505 7.46839 15.4999 7.27681 15.4999 7.05421V5.5C15.4999 5.09 15.8399 4.75 16.2499 4.75C16.6599 4.75 16.9999 5.09 16.9999 5.5V7.06421C16.9999 7.28681 17.1493 7.47835 17.3527 7.56885C18.3072 7.9936 18.9699 8.94195 18.9699 10.05C18.9699 11.55 17.7499 12.77 16.2499 12.77Z" fill="#292D32"/>
</svg>
