<svg width="25" height="24" viewBox="0 0 25 24" fill="none" xmlns="http://www.w3.org/2000/svg">
<path d="M20.7699 9.21994C18.9599 9.21994 18.2199 7.93994 19.1199 6.36994C19.6399 5.45994 19.3299 4.29994 18.4199 3.77994L16.6899 2.78994C15.8999 2.31994 14.8799 2.59994 14.4099 3.38994L14.2999 3.57994C13.3999 5.14994 11.9199 5.14994 11.0099 3.57994L10.8999 3.38994C10.4499 2.59994 9.42992 2.31994 8.63992 2.78994L6.90992 3.77994C5.99992 4.29994 5.68992 5.46994 6.20992 6.37994C7.11992 7.93994 6.37992 9.21994 4.56992 9.21994C3.52992 9.21994 2.66992 10.0699 2.66992 11.1199V12.8799C2.66992 13.9199 3.51992 14.7799 4.56992 14.7799C6.37992 14.7799 7.11992 16.0599 6.20992 17.6299C5.68992 18.5399 5.99992 19.6999 6.90992 20.2199L8.63992 21.2099C9.42992 21.6799 10.4499 21.3999 10.9199 20.6099L11.0299 20.4199C11.9299 18.8499 13.4099 18.8499 14.3199 20.4199L14.4299 20.6099C14.8999 21.3999 15.9199 21.6799 16.7099 21.2099L18.4399 20.2199C19.3499 19.6999 19.6599 18.5299 19.1399 17.6299C18.2299 16.0599 18.9699 14.7799 20.7799 14.7799C21.8199 14.7799 22.6799 13.9299 22.6799 12.8799V11.1199C22.6699 10.0799 21.8199 9.21994 20.7699 9.21994ZM12.6699 15.2499C10.8799 15.2499 9.41992 13.7899 9.41992 11.9999C9.41992 10.2099 10.8799 8.74994 12.6699 8.74994C14.4599 8.74994 15.9199 10.2099 15.9199 11.9999C15.9199 13.7899 14.4599 15.2499 12.6699 15.2499Z" fill="#292D32"/>
</svg>
