<svg width="25" height="24" viewBox="0 0 25 24" fill="none" xmlns="http://www.w3.org/2000/svg">
<path d="M19.2097 4.17014L13.7097 2.11014C13.1397 1.90014 12.2097 1.90014 11.6397 2.11014L6.13973 4.17014C5.07973 4.57014 4.21973 5.81014 4.21973 6.94014V15.0401C4.21973 15.8501 4.74973 16.9201 5.39973 17.4001L10.8997 21.5101C11.8697 22.2401 13.4597 22.2401 14.4297 21.5101L19.9297 17.4001C20.5797 16.9101 21.1097 15.8501 21.1097 15.0401V6.94014C21.1197 5.81014 20.2597 4.57014 19.2097 4.17014ZM13.4197 12.8701V15.5001C13.4197 15.9101 13.0797 16.2501 12.6697 16.2501C12.2597 16.2501 11.9197 15.9101 11.9197 15.5001V12.8701C10.9097 12.5501 10.1697 11.6101 10.1697 10.5001C10.1697 9.12014 11.2897 8.00014 12.6697 8.00014C14.0497 8.00014 15.1697 9.12014 15.1697 10.5001C15.1697 11.6201 14.4297 12.5501 13.4197 12.8701Z" fill="#292D32"/>
</svg>
