<svg width="25" height="24" viewBox="0 0 25 24" fill="none" xmlns="http://www.w3.org/2000/svg">
<path d="M20.0297 4.63984L6.49973 18.1698L5.39973 17.3498C4.74973 16.8598 4.21973 15.7998 4.21973 14.9798V6.88984C4.21973 5.75984 5.07973 4.51984 6.12973 4.11984L11.6297 2.05984C12.1997 1.84984 13.1397 1.84984 13.7097 2.05984L19.2097 4.11984C19.4997 4.22984 19.7797 4.40984 20.0297 4.63984Z" fill="#292D32"/>
<path d="M21.1199 14.9798C21.1199 15.7998 20.5899 16.8598 19.9399 17.3498L14.4399 21.4598C13.4599 22.1798 11.8799 22.1798 10.8999 21.4598L9.13991 20.1498C8.64991 19.7898 8.59991 19.0698 9.02991 18.6398L19.4099 8.25983C20.0399 7.62983 21.1199 8.07983 21.1199 8.96983V14.9798Z" fill="#292D32"/>
<path d="M22.4398 2.22988C22.1398 1.92988 21.6498 1.92988 21.3498 2.22988L2.8998 20.6899C2.5998 20.9899 2.5998 21.4799 2.8998 21.7799C3.0498 21.9199 3.2398 21.9999 3.4398 21.9999C3.6398 21.9999 3.8298 21.9199 3.9798 21.7699L22.4398 3.30988C22.7498 3.00988 22.7498 2.52988 22.4398 2.22988Z" fill="#292D32"/>
</svg>
