<svg width="25" height="24" viewBox="0 0 25 24" fill="none" xmlns="http://www.w3.org/2000/svg">
<path d="M19.2097 4.11984L13.7097 2.05984C13.1397 1.84984 12.2097 1.84984 11.6397 2.05984L6.13973 4.11984C5.07973 4.51984 4.21973 5.75984 4.21973 6.88984V14.9898C4.21973 15.7998 4.74973 16.8698 5.39973 17.3498L10.8997 21.4598C11.8697 22.1898 13.4597 22.1898 14.4297 21.4598L19.9297 17.3498C20.5797 16.8598 21.1097 15.7998 21.1097 14.9898V6.88984C21.1197 5.75984 20.2597 4.51984 19.2097 4.11984ZM16.1497 9.71984L11.8497 14.0198C11.6997 14.1698 11.5097 14.2398 11.3197 14.2398C11.1297 14.2398 10.9397 14.1698 10.7897 14.0198L9.18973 12.3998C8.89973 12.1098 8.89973 11.6298 9.18973 11.3398C9.47973 11.0498 9.95973 11.0498 10.2497 11.3398L11.3297 12.4198L15.0997 8.64984C15.3897 8.35984 15.8697 8.35984 16.1597 8.64984C16.4497 8.93984 16.4497 9.42984 16.1497 9.71984Z" fill="#292D32"/>
</svg>
