<svg width="25" height="24" viewBox="0 0 25 24" fill="none" xmlns="http://www.w3.org/2000/svg">
<path d="M22.2997 14.66L21.8897 16.52C21.1797 19.72 18.6697 22 15.0497 22H10.2897C6.66966 22 4.15966 19.72 3.44966 16.52L3.03966 14.66C2.83966 13.75 3.37966 12.72 4.24966 12.37L5.66966 11.8L11.1797 9.59005C11.6597 9.40005 12.1697 9.30005 12.6697 9.30005C13.1697 9.30005 13.6797 9.40005 14.1597 9.59005L19.6697 11.8L21.0897 12.37C21.9597 12.72 22.4997 13.75 22.2997 14.66Z" fill="#292D32"/>
<path d="M19.6699 8V9.44C19.6699 9.79 19.3099 10.04 18.9799 9.9L14.7099 8.19C13.3999 7.68 11.9399 7.68 10.6199 8.2L6.35992 9.91C6.02992 10.05 5.66992 9.8 5.66992 9.45V8C5.66992 6.35 7.01992 5 8.66992 5H16.6699C18.3199 5 19.6699 6.35 19.6699 8Z" fill="#292D32"/>
<path d="M15.1699 5H10.1699V3C10.1699 2.45 10.6199 2 11.1699 2H14.1699C14.7199 2 15.1699 2.45 15.1699 3V5Z" fill="#292D32"/>
</svg>
