<svg width="25" height="24" viewBox="0 0 25 24" fill="none" xmlns="http://www.w3.org/2000/svg">
<path d="M8.47016 22.1502C5.82016 22.1502 3.66016 20.0002 3.66016 17.3402V14.5002C3.66016 13.8302 4.32016 13.3802 4.95016 13.6002C5.21016 13.6902 5.47016 13.7502 5.74016 13.7902C5.86016 13.8102 5.98016 13.8302 6.10016 13.8302C6.25016 13.8502 6.41016 13.8602 6.56016 13.8602C7.67016 13.8602 8.77016 13.4502 9.64016 12.7402C10.4702 13.4502 11.5402 13.8602 12.6802 13.8602C13.8202 13.8602 14.8802 13.4702 15.7102 12.7502C16.5702 13.4502 17.6502 13.8602 18.7502 13.8602C18.9202 13.8602 19.1002 13.8502 19.2602 13.8302C19.3802 13.8202 19.4802 13.8102 19.5902 13.7902C19.8902 13.7502 20.1602 13.6702 20.4302 13.5802C21.0502 13.3702 21.7002 13.8302 21.7002 14.4802V17.3402C21.7002 19.9902 19.5502 22.1502 16.8902 22.1502H8.47016Z" fill="#292D32"/>
<path d="M22.6498 8.5901L22.3698 5.9301C21.9698 3.0301 20.6498 1.8501 17.8298 1.8501H15.5698H14.1498H11.2298H9.79977H7.48977C4.66977 1.8501 3.35977 3.0301 2.94977 5.9601L2.68977 8.6001C2.58977 9.6301 2.86977 10.6301 3.47977 11.4101C4.20977 12.3601 5.32977 12.9001 6.57977 12.9001C7.78977 12.9001 8.94977 12.2901 9.67977 11.3201C10.3298 12.2901 11.4498 12.9001 12.6898 12.9001C13.9298 12.9001 15.0198 12.3201 15.6798 11.3601C16.4198 12.3101 17.5598 12.9001 18.7598 12.9001C20.0398 12.9001 21.1898 12.3301 21.9098 11.3301C22.4898 10.5601 22.7498 9.5901 22.6498 8.5901ZM14.1698 7.7301H13.4198V8.5101C13.4198 8.9301 13.0798 9.2601 12.6698 9.2601C12.2598 9.2601 11.9198 8.9301 11.9198 8.5101V7.7301H11.1698C10.7598 7.7301 10.4198 7.4001 10.4198 6.9801C10.4198 6.5701 10.7598 6.2301 11.1698 6.2301H11.9198V5.5201C11.9198 5.1101 12.2598 4.7701 12.6698 4.7701C13.0798 4.7701 13.4198 5.1101 13.4198 5.5201V6.2301H14.1698C14.5798 6.2301 14.9198 6.5701 14.9198 6.9801C14.9198 7.4001 14.5798 7.7301 14.1698 7.7301Z" fill="#292D32"/>
</svg>
