<svg width="25" height="24" viewBox="0 0 25 24" fill="none" xmlns="http://www.w3.org/2000/svg">
<path d="M3.71994 19.87C4.00994 20.29 4.37994 20.66 4.79994 20.95C5.74994 21.64 6.98994 22 8.47994 22H16.8599C20.2999 22 22.4299 20.06 22.6399 16.78H2.68994C2.76994 18.01 3.11994 19.05 3.71994 19.87Z" fill="#292D32"/>
<path d="M21.6199 4.13C21.3299 3.71 20.9599 3.34 20.5399 3.05C19.5899 2.36 18.3499 2 16.8599 2H8.47992C4.83992 2 2.66992 4.17 2.66992 7.81V15.28H22.6699V7.81C22.6699 6.32 22.3099 5.08 21.6199 4.13ZM15.7599 9.56L13.1999 12.12C12.9099 12.41 12.4299 12.41 12.1399 12.12L9.57992 9.56C9.42992 9.41 9.35992 9.22 9.35992 9.03C9.35992 8.84 9.42992 8.64 9.57992 8.5C9.86992 8.2 10.3499 8.2 10.6399 8.5L12.6699 10.52L14.6999 8.49C14.9899 8.2 15.4699 8.2 15.7599 8.49C16.0499 8.78 16.0499 9.26 15.7599 9.56Z" fill="#292D32"/>
</svg>
