<svg width="25" height="24" viewBox="0 0 25 24" fill="none" xmlns="http://www.w3.org/2000/svg">
<path d="M21.62 4.13C21.33 3.71 20.96 3.34 20.54 3.05C19.59 2.36 18.35 2 16.86 2H8.47995C5.03995 2 2.90995 3.94 2.69995 7.22H22.65C22.57 5.99 22.22 4.95 21.62 4.13Z" fill="#292D32"/>
<path d="M2.66992 16.19C2.66992 17.68 3.02992 18.92 3.71992 19.87C4.00992 20.29 4.37992 20.66 4.79992 20.95C5.74992 21.64 6.98992 22 8.47992 22H16.8599C20.4999 22 22.6699 19.83 22.6699 16.19V8.71997H2.66992V16.19ZM9.57992 14.44L12.1399 11.88C12.4299 11.59 12.9099 11.59 13.1999 11.88L15.7599 14.44C15.9099 14.59 15.9799 14.78 15.9799 14.97C15.9799 15.16 15.9099 15.35 15.7599 15.5C15.4699 15.79 14.9899 15.79 14.6999 15.5L12.6699 13.48L10.6399 15.5C10.3499 15.79 9.86992 15.79 9.57992 15.5C9.28992 15.21 9.28992 14.74 9.57992 14.44Z" fill="#292D32"/>
</svg>
