<svg width="25" height="24" viewBox="0 0 25 24" fill="none" xmlns="http://www.w3.org/2000/svg">
<path d="M19.0098 14.13L16.8298 12.38C16.5198 12.14 16.1298 12 15.7298 12H13.4198V9H17.8898C18.8598 9 19.6398 8.22 19.6398 7.25V3.75C19.6398 2.78 18.8598 2 17.8898 2H9.62977C9.23977 2 8.84977 2.14 8.53977 2.38L6.34977 4.13C5.47977 4.83 5.47977 6.17 6.34977 6.87L8.53977 8.62C8.84977 8.86 9.23977 9 9.62977 9H11.9198V12H7.46977C6.49977 12 5.71977 12.78 5.71977 13.75V17.25C5.71977 18.22 6.49977 19 7.46977 19H11.9198V21.25H9.66977C9.25977 21.25 8.91977 21.59 8.91977 22C8.91977 22.41 9.25977 22.75 9.66977 22.75H15.6698C16.0798 22.75 16.4198 22.41 16.4198 22C16.4198 21.59 16.0798 21.25 15.6698 21.25H13.4198V19H15.7298C16.1298 19 16.5198 18.86 16.8298 18.62L19.0098 16.87C19.8898 16.17 19.8898 14.83 19.0098 14.13Z" fill="#292D32"/>
</svg>
