<svg width="25" height="24" viewBox="0 0 25 24" fill="none" xmlns="http://www.w3.org/2000/svg">
<path d="M16.6699 12.6899V18.0799C16.6699 20.4199 15.1099 21.9699 12.7799 21.9699H6.55992C4.22992 21.9699 2.66992 20.4199 2.66992 18.0799V10.3099C2.66992 7.96992 4.22992 6.41992 6.55992 6.41992H10.3899C11.4199 6.41992 12.4099 6.82992 13.1399 7.55992L15.5299 9.93992C16.2599 10.6699 16.6699 11.6599 16.6699 12.6899Z" fill="#292D32"/>
<path d="M22.6695 8.24997V13.64C22.6695 15.97 21.1095 17.53 18.7795 17.53H17.6695V12.69C17.6695 11.4 17.1495 10.14 16.2395 9.22997L13.8495 6.84997C12.9395 5.93997 11.6795 5.41997 10.3895 5.41997H8.68945C8.86945 3.33997 10.3795 1.96997 12.5595 1.96997H16.3895C17.4195 1.96997 18.4095 2.37997 19.1395 3.10997L21.5295 5.49997C22.2595 6.22997 22.6695 7.21997 22.6695 8.24997Z" fill="#292D32"/>
</svg>
