<svg width="25" height="24" viewBox="0 0 25 24" fill="none" xmlns="http://www.w3.org/2000/svg">
<path d="M4.16992 5.06006V18.9401C4.16992 19.3501 3.82992 19.6901 3.41992 19.6901C3.00992 19.6901 2.66992 19.3501 2.66992 18.9401V5.06006C2.66992 4.65006 3.00992 4.31006 3.41992 4.31006C3.82992 4.31006 4.16992 4.65006 4.16992 5.06006Z" fill="#292D32"/>
<path d="M22.6699 5.06006V18.9401C22.6699 19.3501 22.3299 19.6901 21.9199 19.6901C21.5099 19.6901 21.1699 19.3501 21.1699 18.9401V5.06006C21.1699 4.65006 21.5099 4.31006 21.9199 4.31006C22.3299 4.31006 22.6699 4.65006 22.6699 5.06006Z" fill="#292D32"/>
<path d="M8.66992 21.25H16.6699C18.3299 21.25 19.6699 19.91 19.6699 18.25V5.75C19.6699 4.09 18.3299 2.75 16.6699 2.75H8.66992C7.00992 2.75 5.66992 4.09 5.66992 5.75V18.25C5.66992 19.91 7.00992 21.25 8.66992 21.25Z" fill="#292D32"/>
</svg>
