<svg width="25" height="24" viewBox="0 0 25 24" fill="none" xmlns="http://www.w3.org/2000/svg">
<path d="M21.6219 4.13C21.3319 3.71 20.9619 3.34 20.5419 3.05C19.5919 2.36 18.3519 2 16.8619 2H8.48187C8.28188 2 8.08187 2.01 7.89187 2.03C4.61187 2.24 2.67188 4.37 2.67188 7.81V16.19C2.67188 17.68 3.03187 18.92 3.72187 19.87C4.01187 20.29 4.38188 20.66 4.80188 20.95C5.62188 21.55 6.66187 21.9 7.89187 21.98C8.08187 21.99 8.28188 22 8.48187 22H16.8619C20.5019 22 22.6719 19.83 22.6719 16.19V7.81C22.6719 6.32 22.3119 5.08 21.6219 4.13ZM12.0619 15.88H9.19188C8.78188 15.88 8.44187 15.54 8.44187 15.13C8.44187 14.72 8.78188 14.38 9.19188 14.38H10.1919V7.91H7.62187C7.51187 7.91 7.42188 8 7.42188 8.11V8.89C7.42188 9.3 7.08187 9.63 6.67188 9.63C6.26187 9.63 5.92188 9.3 5.92188 8.88V8.1C5.92188 7.16 6.68187 6.4 7.62187 6.4H14.2619C15.2019 6.4 15.9619 7.16 15.9619 8.1V8.88C15.9619 9.29 15.6219 9.63 15.2119 9.63C14.8019 9.63 14.4619 9.29 14.4619 8.88V8.1C14.4619 7.99 14.3719 7.9 14.2619 7.9H11.6919V14.38H12.0619C12.4719 14.38 12.8119 14.72 12.8119 15.13C12.8119 15.54 12.4719 15.88 12.0619 15.88ZM19.4219 12.23C19.4219 12.64 19.0819 12.98 18.6719 12.98C18.2619 12.98 17.9219 12.64 17.9219 12.23V11.9H16.3719V16.1H16.7219C17.1319 16.1 17.4719 16.44 17.4719 16.85C17.4719 17.26 17.1319 17.6 16.7219 17.6H14.5219C14.1119 17.6 13.7719 17.26 13.7719 16.85C13.7719 16.44 14.1119 16.1 14.5219 16.1H14.8719V11.9H14.3919C13.9819 11.9 13.6419 11.56 13.6419 11.15C13.6419 10.74 13.9819 10.4 14.3919 10.4H17.9919C18.7819 10.4 19.4219 11.04 19.4219 11.83V12.23Z" fill="#292D32"/>
</svg>
