<svg width="25" height="24" viewBox="0 0 25 24" fill="none" xmlns="http://www.w3.org/2000/svg">
<path d="M21.5302 8.56L14.6002 3.02C13.5302 2.16 11.8002 2.16 10.7402 3.01L3.81019 8.56C3.03019 9.18 2.53019 10.49 2.70019 11.47L4.03019 19.43C4.27019 20.85 5.63019 22 7.07019 22H18.2702C19.7002 22 21.0702 20.84 21.3102 19.43L22.6402 11.47C22.8002 10.49 22.3002 9.18 21.5302 8.56ZM10.0502 17.38C9.49019 17.38 9.05019 16.93 9.05019 16.38C9.05019 15.83 9.50019 15.38 10.0502 15.38C10.6002 15.38 11.0502 15.83 11.0502 16.38C11.0502 16.93 10.6002 17.38 10.0502 17.38ZM13.0602 17.12C13.0502 17.12 13.0502 17.12 13.0402 17.12C12.6302 17.12 12.3002 16.79 12.2902 16.39C12.2602 15.04 11.3702 14.15 10.0202 14.12C9.61019 14.11 9.28019 13.77 9.29019 13.35C9.30019 12.94 9.63019 12.62 10.0402 12.62C10.0502 12.62 10.0502 12.62 10.0602 12.62C12.2102 12.67 13.7502 14.2 13.7902 16.35C13.8002 16.77 13.4802 17.12 13.0602 17.12ZM16.0502 17.12C15.6302 17.12 15.3002 16.79 15.2902 16.38C15.2802 15.72 15.1702 15.09 14.9702 14.5C14.4602 13.04 13.3702 11.96 11.9102 11.44C11.3202 11.23 10.6902 11.12 10.0302 11.12C9.62019 11.12 9.28019 10.78 9.29019 10.36C9.29019 9.95 9.63019 9.62 10.0402 9.62H10.0502C10.8802 9.63 11.6702 9.77 12.4102 10.03C14.3002 10.7 15.7102 12.11 16.3802 14C16.6402 14.74 16.7802 15.54 16.7902 16.36C16.8002 16.78 16.4702 17.12 16.0502 17.12Z" fill="#292D32"/>
</svg>
