<svg width="25" height="24" viewBox="0 0 25 24" fill="none" xmlns="http://www.w3.org/2000/svg">
<path d="M10.6699 1H4.66992C3.00992 1 1.66992 2.34 1.66992 4V10C1.66992 11.66 3.00992 13 4.66992 13H9.16992C9.16992 10.52 11.1899 8.5 13.6699 8.5V4C13.6699 2.34 12.3299 1 10.6699 1ZM4.43992 4.27C5.20992 3.72 6.25992 3.71 7.04992 4.25C7.38992 4.48 7.47992 4.95 7.24992 5.29C7.01992 5.63 6.54992 5.72 6.20992 5.49C5.93992 5.3 5.56992 5.3 5.29992 5.5C5.16992 5.59 5.01992 5.63 4.86992 5.63C4.63992 5.63 4.39992 5.52 4.25992 5.32C4.01992 4.98 4.09992 4.51 4.43992 4.27ZM9.93992 8.24C9.67992 8.57 9.20992 8.62 8.88992 8.36C8.53992 8.08 8.11992 7.93 7.66992 7.93C6.66992 7.93 5.83992 8.69 5.72992 9.67H7.82992C8.23992 9.67 8.57992 10.01 8.57992 10.42C8.57992 10.83 8.23992 11.17 7.82992 11.17H5.50992C4.79992 11.17 4.21992 10.59 4.21992 9.88C4.21992 7.98 5.76992 6.43 7.66992 6.43C8.44992 6.43 9.21992 6.7 9.82992 7.19C10.1499 7.45 10.1999 7.92 9.93992 8.24ZM11.2499 5.29C11.0199 5.63 10.5499 5.72 10.2099 5.49C9.93992 5.3 9.56992 5.3 9.29992 5.5C9.16992 5.59 9.01992 5.63 8.86992 5.63C8.63992 5.63 8.39992 5.52 8.25992 5.32C8.01992 4.98 8.09992 4.51 8.43992 4.27C9.20992 3.72 10.2599 3.71 11.0499 4.25C11.3899 4.48 11.4799 4.95 11.2499 5.29Z" fill="#292D32"/>
<path d="M18.8896 16.6801C18.8196 16.6001 18.7196 16.5601 18.6096 16.5601H14.7296C14.6196 16.5601 14.5196 16.6001 14.4496 16.6801C14.3796 16.7601 14.3396 16.8701 14.3596 16.9701C14.4896 18.1501 15.4796 19.0501 16.6696 19.0501C17.8596 19.0501 18.8496 18.1601 18.9796 16.9701C18.9896 16.8601 18.9596 16.7601 18.8896 16.6801Z" fill="#292D32"/>
<path d="M19.6699 10H13.6699C12.0199 10 10.6699 11.35 10.6699 13V19C10.6699 20.65 12.0199 22 13.6699 22H19.6699C21.3199 22 22.6699 20.65 22.6699 19V13C22.6699 11.35 21.3199 10 19.6699 10ZM13.2599 13.17C13.4999 12.83 13.9699 12.75 14.3099 12.99C14.5799 13.18 14.9399 13.18 15.2099 13C15.5499 12.76 16.0199 12.85 16.2499 13.2C16.4799 13.54 16.3999 14.01 16.0499 14.24C15.6599 14.5 15.2099 14.64 14.7599 14.64C14.2899 14.64 13.8299 14.5 13.4399 14.22C13.0999 13.97 13.0199 13.5 13.2599 13.17ZM16.6699 20.17C14.7699 20.17 13.2199 18.62 13.2199 16.72C13.2199 16.01 13.7999 15.43 14.5099 15.43H18.8299C19.5399 15.43 20.1199 16.01 20.1199 16.72C20.1199 18.62 18.5699 20.17 16.6699 20.17ZM20.0499 14.23C19.6599 14.49 19.2099 14.63 18.7599 14.63C18.2899 14.63 17.8299 14.49 17.4399 14.21C17.0999 13.97 17.0199 13.5 17.2599 13.16C17.4999 12.82 17.9699 12.74 18.3099 12.98C18.5799 13.17 18.9399 13.17 19.2099 12.99C19.5499 12.75 20.0199 12.84 20.2499 13.19C20.4799 13.54 20.3899 14 20.0499 14.23Z" fill="#292D32"/>
</svg>
