<svg width="25" height="24" viewBox="0 0 25 24" fill="none" xmlns="http://www.w3.org/2000/svg">
<path d="M17.6699 3H7.66992C4.66992 3 2.66992 4.5 2.66992 8V15.96C2.66992 18.25 4.51992 20.1 6.80992 20.1H13.0699C13.6499 20.1 14.1499 19.61 14.0899 19.03C13.9499 17.5 14.4499 15.85 15.8099 14.52C16.3699 13.97 17.0599 13.55 17.8099 13.31C19.0599 12.91 20.2699 12.96 21.3399 13.33C21.9899 13.55 22.6699 13.08 22.6699 12.39V8C22.6699 4.5 20.6699 3 17.6699 3ZM18.1399 8.59L15.0099 11.09C14.3499 11.62 13.5099 11.88 12.6699 11.88C11.8299 11.88 10.9799 11.62 10.3299 11.09L7.19992 8.59C6.87992 8.33 6.82992 7.86 7.07992 7.53C7.33992 7.21 7.80992 7.15 8.12992 7.41L11.2599 9.91C12.0199 10.52 13.3099 10.52 14.0699 9.91L17.1999 7.41C17.5199 7.15 17.9999 7.2 18.2499 7.53C18.5099 7.86 18.4599 8.33 18.1399 8.59Z" fill="#292D32"/>
<path d="M23.3199 21.4499L22.5699 20.6999C22.9599 20.1099 23.1899 19.3999 23.1899 18.6399C23.1899 16.5599 21.5099 14.8799 19.4299 14.8799C17.3499 14.8799 15.6699 16.5599 15.6699 18.6299C15.6699 20.6999 17.3499 22.3899 19.4299 22.3899C20.1899 22.3899 20.8999 22.1599 21.4899 21.7699L22.2399 22.5199C22.3899 22.6699 22.5799 22.7399 22.7799 22.7399C22.9799 22.7399 23.1699 22.6699 23.3199 22.5199C23.6199 22.2299 23.6199 21.7499 23.3199 21.4499Z" fill="#292D32"/>
</svg>
