<svg width="25" height="24" viewBox="0 0 25 24" fill="none" xmlns="http://www.w3.org/2000/svg">
<path d="M19.8099 20.25C19.6199 20.25 19.4299 20.18 19.2799 20.04C18.9799 19.75 18.9799 19.28 19.2699 18.98C20.9799 17.24 21.9199 14.94 21.9199 12.5C21.9199 7.4 17.7699 3.25 12.6699 3.25C7.56992 3.25 3.41992 7.4 3.41992 12.5C3.41992 14.93 4.34992 17.22 6.04992 18.96C6.33992 19.26 6.32992 19.73 6.03992 20.02C5.73992 20.31 5.26992 20.3 4.97992 20.01C3.00992 17.99 1.91992 15.32 1.91992 12.5C1.91992 6.57 6.73992 1.75 12.6699 1.75C18.5999 1.75 23.4199 6.57 23.4199 12.5C23.4199 15.33 22.3299 18.01 20.3399 20.03C20.1999 20.18 19.9999 20.25 19.8099 20.25Z" fill="#292D32"/>
<path d="M12.67 22C14.8129 22 16.55 20.2629 16.55 18.12C16.55 15.9771 14.8129 14.24 12.67 14.24C10.5272 14.24 8.79004 15.9771 8.79004 18.12C8.79004 20.2629 10.5272 22 12.67 22Z" fill="#292D32"/>
<path d="M16.6699 8.5C15.5699 8.5 14.6699 9.4 14.6699 10.5V11.25C14.6699 11.94 15.2299 12.5 15.9199 12.5H16.6699C17.7699 12.5 18.6699 11.6 18.6699 10.5C18.6699 9.4 17.7699 8.5 16.6699 8.5Z" fill="#292D32"/>
</svg>
