<svg width="25" height="24" viewBox="0 0 25 24" fill="none" xmlns="http://www.w3.org/2000/svg">
<path d="M19.3701 14.46C19.0201 14.81 18.8201 15.51 18.9301 15.99L19.6201 19.01C19.9101 20.26 19.7301 21.2 19.1101 21.65C18.8601 21.83 18.5601 21.92 18.2101 21.92C17.7001 21.92 17.1001 21.73 16.4401 21.34L13.5101 19.6C13.0501 19.33 12.2901 19.33 11.8301 19.6L8.90012 21.34C7.79012 21.99 6.84012 22.1 6.23012 21.65C6.19012 21.62 6.15012 21.59 6.12012 21.55L18.7401 8.93003C19.2001 8.47003 19.8501 8.26003 20.4901 8.37003L20.6401 8.40003C21.7001 8.58003 22.4101 9.06003 22.6401 9.76003C22.8601 10.46 22.5601 11.27 21.8001 12.03L19.3701 14.46Z" fill="#292D32"/>
<path d="M6.41027 16C6.52027 15.52 6.32027 14.81 5.97027 14.46L3.54027 12.03C2.78027 11.27 2.48027 10.46 2.70027 9.76C2.93027 9.06 3.64027 8.58 4.70027 8.4L7.82027 7.88C8.27027 7.8 8.82027 7.4 9.03027 6.99L10.7503 3.54C11.2503 2.55 11.9303 2 12.6703 2C13.4103 2 14.0903 2.55 14.5903 3.54L16.3103 6.99C16.4403 7.25 16.7103 7.5 17.0003 7.67L5.74027 18.93L6.41027 16Z" fill="#292D32"/>
<path d="M22.4398 2.22988C22.1398 1.92988 21.6498 1.92988 21.3498 2.22988L2.8998 20.6899C2.5998 20.9899 2.5998 21.4799 2.8998 21.7799C3.0498 21.9199 3.2398 21.9999 3.4398 21.9999C3.6398 21.9999 3.8298 21.9199 3.9798 21.7699L22.4398 3.30988C22.7498 3.00988 22.7498 2.52988 22.4398 2.22988Z" fill="#292D32"/>
</svg>
