<svg width="25" height="24" viewBox="0 0 25 24" fill="none" xmlns="http://www.w3.org/2000/svg">
<path d="M21.0299 7.78L5.20992 17.28C4.59992 17.65 3.77992 17.28 3.69992 16.57C3.67992 16.38 3.66992 16.19 3.66992 16V8C3.66992 5 5.66992 3 8.66992 3H16.6699C19.6699 3 20.8999 4.54 21.4799 6.65C21.5999 7.09 21.4099 7.55 21.0299 7.78Z" fill="#292D32"/>
<path d="M21.6703 11.09V16C21.6703 19 19.6703 21 16.6703 21H8.67032C7.75032 21 6.88032 20.75 6.14032 20.31C5.50032 19.94 5.54032 19 6.17032 18.62L20.1503 10.23C20.8203 9.83001 21.6703 10.31 21.6703 11.09Z" fill="#292D32"/>
</svg>
