<svg width="25" height="24" viewBox="0 0 25 24" fill="none" xmlns="http://www.w3.org/2000/svg">
<path d="M16.8619 2H8.48187C4.84187 2 2.67188 4.17 2.67188 7.81V16.18C2.67188 19.83 4.84187 22 8.48187 22H16.8519C20.4919 22 22.6619 19.83 22.6619 16.19V7.81C22.6719 4.17 20.5019 2 16.8619 2ZM19.6719 8.24C19.6719 8.79 19.2219 9.24 18.6719 9.24H16.6719C16.2619 9.24 15.9219 9.58 15.9219 9.99C15.9219 10.41 16.2619 10.74 16.6719 10.74H18.6719C19.2219 10.74 19.6719 11.19 19.6719 11.74V12.25C19.6719 12.8 19.2219 13.25 18.6719 13.25H16.6719C16.2619 13.25 15.9219 13.59 15.9219 14C15.9219 14.41 16.2619 14.75 16.6719 14.75H18.6719C19.2219 14.75 19.6719 15.2 19.6719 15.75V16C19.6719 17.66 18.3319 19 16.6719 19H8.67188C7.01188 19 5.67188 17.66 5.67188 16V15.5C5.67188 14.95 6.12188 14.5 6.67188 14.5H8.15188C9.62187 14.5 10.7919 13.24 10.6419 11.74C10.5119 10.44 9.32188 9.5 8.01188 9.5H6.67188C6.12188 9.5 5.67188 9.05 5.67188 8.5V8C5.67188 6.34 7.01188 5 8.67188 5H16.6719C18.3319 5 19.6719 6.34 19.6719 8V8.24ZM5.67188 12C5.67188 11.45 6.12188 11 6.67188 11H7.67188C8.22188 11 8.67188 11.45 8.67188 12C8.67188 12.55 8.22188 13 7.67188 13H6.67188C6.12188 13 5.67188 12.55 5.67188 12Z" fill="#292D32"/>
</svg>
