<svg width="25" height="24" viewBox="0 0 25 24" fill="none" xmlns="http://www.w3.org/2000/svg">
<path d="M13.9219 12.58V14.56C13.9219 15.25 13.3619 15.81 12.6719 15.81C11.9819 15.81 11.4219 15.25 11.4219 14.56V12.58C11.0619 12.36 10.7819 12.04 10.5819 11.66H3.67188C3.12187 11.66 2.67188 12.11 2.67188 12.66V16.19C2.67188 19.4 5.27187 22 8.48187 22H16.8519C20.0719 22 22.6719 19.4 22.6719 16.19V12.66C22.6719 12.11 22.2219 11.66 21.6719 11.66H14.7619C14.5619 12.04 14.2819 12.36 13.9219 12.58Z" fill="#292D32"/>
<path d="M16.8619 2H8.48187C5.27187 2 2.67188 4.6 2.67188 7.81V9.16C2.67188 9.71 3.12187 10.16 3.67188 10.16H10.3419C10.5719 8.84 11.8819 7.9 13.3119 8.28C14.1119 8.49 14.7619 9.14 14.9719 9.94C14.9919 10.01 14.9919 10.09 15.0019 10.16H21.6719C22.2219 10.16 22.6719 9.71 22.6719 9.16V7.81C22.6719 4.6 20.0719 2 16.8619 2Z" fill="#292D32"/>
</svg>
