<svg width="25" height="24" viewBox="0 0 25 24" fill="none" xmlns="http://www.w3.org/2000/svg">
<path d="M19.1496 12.25C19.4296 12.25 19.6696 12.01 19.6496 11.73C19.3796 8.1 16.3596 5.25 12.6696 5.25C8.97964 5.25 5.95964 8.1 5.68964 11.73C5.66964 12.01 5.90964 12.25 6.18964 12.25H19.1496Z" fill="#292D32"/>
<path d="M22.6699 13H22.5899C22.0399 13 21.5899 12.55 21.5899 12C21.5899 11.45 22.0399 11 22.5899 11C23.1399 11 23.6299 11.45 23.6299 12C23.6299 12.55 23.2199 13 22.6699 13ZM2.74992 13H2.66992C2.11992 13 1.66992 12.55 1.66992 12C1.66992 11.45 2.11992 11 2.66992 11C3.21992 11 3.70992 11.45 3.70992 12C3.70992 12.55 3.29992 13 2.74992 13ZM19.6799 5.99C19.4199 5.99 19.1699 5.89 18.9699 5.7C18.5799 5.31 18.5799 4.68 18.9699 4.29L19.0999 4.16C19.4899 3.77 20.1199 3.77 20.5099 4.16C20.8999 4.55 20.8999 5.18 20.5099 5.57L20.3799 5.7C20.1899 5.89 19.9399 5.99 19.6799 5.99ZM5.65992 5.99C5.39992 5.99 5.14992 5.89 4.94992 5.7L4.81992 5.56C4.42992 5.17 4.42992 4.54 4.81992 4.15C5.20992 3.76 5.83992 3.76 6.22992 4.15L6.35992 4.28C6.74992 4.67 6.74992 5.3 6.35992 5.69C6.16992 5.89 5.90992 5.99 5.65992 5.99ZM12.6699 3.04C12.1199 3.04 11.6699 2.63 11.6699 2.08V2C11.6699 1.45 12.1199 1 12.6699 1C13.2199 1 13.6699 1.45 13.6699 2C13.6699 2.55 13.2199 3.04 12.6699 3.04Z" fill="#292D32"/>
<path d="M20.6699 15.75H4.66992C4.25992 15.75 3.91992 15.41 3.91992 15C3.91992 14.59 4.25992 14.25 4.66992 14.25H20.6699C21.0799 14.25 21.4199 14.59 21.4199 15C21.4199 15.41 21.0799 15.75 20.6699 15.75Z" fill="#292D32"/>
<path d="M18.6699 18.75H6.66992C6.25992 18.75 5.91992 18.41 5.91992 18C5.91992 17.59 6.25992 17.25 6.66992 17.25H18.6699C19.0799 17.25 19.4199 17.59 19.4199 18C19.4199 18.41 19.0799 18.75 18.6699 18.75Z" fill="#292D32"/>
<path d="M15.6699 21.75H9.66992C9.25992 21.75 8.91992 21.41 8.91992 21C8.91992 20.59 9.25992 20.25 9.66992 20.25H15.6699C16.0799 20.25 16.4199 20.59 16.4199 21C16.4199 21.41 16.0799 21.75 15.6699 21.75Z" fill="#292D32"/>
</svg>
