<svg width="25" height="24" viewBox="0 0 25 24" fill="none" xmlns="http://www.w3.org/2000/svg">
<path d="M12.6699 19C16.5359 19 19.6699 15.866 19.6699 12C19.6699 8.13401 16.5359 5 12.6699 5C8.80393 5 5.66992 8.13401 5.66992 12C5.66992 15.866 8.80393 19 12.6699 19Z" fill="#292D32"/>
<path d="M12.6699 22.96C12.1199 22.96 11.6699 22.55 11.6699 22V21.92C11.6699 21.37 12.1199 20.92 12.6699 20.92C13.2199 20.92 13.6699 21.37 13.6699 21.92C13.6699 22.47 13.2199 22.96 12.6699 22.96ZM19.8099 20.14C19.5499 20.14 19.2999 20.04 19.0999 19.85L18.9699 19.72C18.5799 19.33 18.5799 18.7 18.9699 18.31C19.3599 17.92 19.9899 17.92 20.3799 18.31L20.5099 18.44C20.8999 18.83 20.8999 19.46 20.5099 19.85C20.3199 20.04 20.0699 20.14 19.8099 20.14ZM5.52992 20.14C5.26992 20.14 5.01992 20.04 4.81992 19.85C4.42992 19.46 4.42992 18.83 4.81992 18.44L4.94992 18.31C5.33992 17.92 5.96992 17.92 6.35992 18.31C6.74992 18.7 6.74992 19.33 6.35992 19.72L6.22992 19.85C6.03992 20.04 5.77992 20.14 5.52992 20.14ZM22.6699 13H22.5899C22.0399 13 21.5899 12.55 21.5899 12C21.5899 11.45 22.0399 11 22.5899 11C23.1399 11 23.6299 11.45 23.6299 12C23.6299 12.55 23.2199 13 22.6699 13ZM2.74992 13H2.66992C2.11992 13 1.66992 12.55 1.66992 12C1.66992 11.45 2.11992 11 2.66992 11C3.21992 11 3.70992 11.45 3.70992 12C3.70992 12.55 3.29992 13 2.74992 13ZM19.6799 5.99C19.4199 5.99 19.1699 5.89 18.9699 5.7C18.5799 5.31 18.5799 4.68 18.9699 4.29L19.0999 4.16C19.4899 3.77 20.1199 3.77 20.5099 4.16C20.8999 4.55 20.8999 5.18 20.5099 5.57L20.3799 5.7C20.1899 5.89 19.9399 5.99 19.6799 5.99ZM5.65992 5.99C5.39992 5.99 5.14992 5.89 4.94992 5.7L4.81992 5.56C4.42992 5.17 4.42992 4.54 4.81992 4.15C5.20992 3.76 5.83992 3.76 6.22992 4.15L6.35992 4.28C6.74992 4.67 6.74992 5.3 6.35992 5.69C6.16992 5.89 5.90992 5.99 5.65992 5.99ZM12.6699 3.04C12.1199 3.04 11.6699 2.63 11.6699 2.08V2C11.6699 1.45 12.1199 1 12.6699 1C13.2199 1 13.6699 1.45 13.6699 2C13.6699 2.55 13.2199 3.04 12.6699 3.04Z" fill="#292D32"/>
</svg>
