<svg width="25" height="24" viewBox="0 0 25 24" fill="none" xmlns="http://www.w3.org/2000/svg">
<path d="M18.6699 2H6.66992C5.00992 2 3.66992 3.33 3.66992 4.97V15.88C3.66992 17.52 5.00992 18.86 6.66992 18.86H7.42992C8.21992 18.86 8.98992 19.17 9.54992 19.73L11.2599 21.42C12.0399 22.19 13.2999 22.19 14.0799 21.42L15.7899 19.73C16.3499 19.17 17.1199 18.86 17.9099 18.86H18.6699C20.3299 18.86 21.6699 17.52 21.6699 15.88V4.97C21.6699 3.33 20.3299 2 18.6699 2ZM12.6699 5.55C13.7499 5.55 14.6199 6.43 14.6199 7.5C14.6199 8.56 13.7799 9.41 12.7399 9.45C12.6999 9.45 12.6399 9.45 12.5899 9.45C11.5399 9.41 10.7099 8.56 10.7099 7.5C10.7199 6.43 11.5899 5.55 12.6699 5.55ZM15.4199 14.69C13.9099 15.7 11.4299 15.7 9.91992 14.69C8.58992 13.81 8.58992 12.35 9.91992 11.46C11.4399 10.45 13.9199 10.45 15.4199 11.46C16.7499 12.35 16.7499 13.8 15.4199 14.69Z" fill="#292D32"/>
</svg>
