<svg width="25" height="24" viewBox="0 0 25 24" fill="none" xmlns="http://www.w3.org/2000/svg">
<path d="M17.5 15.6399C18.17 15.1999 19.05 15.6799 19.05 16.4799V17.7699C19.05 19.0399 18.06 20.3999 16.87 20.7999L13.68 21.8599C13.12 22.0499 12.21 22.0499 11.66 21.8599L8.47004 20.7999C7.27004 20.3999 6.29004 19.0399 6.29004 17.7699V16.4699C6.29004 15.6799 7.17004 15.1999 7.83004 15.6299L9.89004 16.9699C10.68 17.4999 11.68 17.7599 12.68 17.7599C13.68 17.7599 14.68 17.4999 15.47 16.9699L17.5 15.6399Z" fill="#292D32"/>
<path d="M20.6499 6.46006L14.6599 2.53006C13.5799 1.82006 11.7999 1.82006 10.7199 2.53006L4.69994 6.46006C2.76994 7.71006 2.76994 10.5401 4.69994 11.8001L6.29994 12.8401L10.7199 15.7201C11.7999 16.4301 13.5799 16.4301 14.6599 15.7201L19.0499 12.8401L20.4199 11.9401V15.0001C20.4199 15.4101 20.7599 15.7501 21.1699 15.7501C21.5799 15.7501 21.9199 15.4101 21.9199 15.0001V10.0801C22.3199 8.79006 21.9099 7.29006 20.6499 6.46006Z" fill="#292D32"/>
</svg>
