<svg width="25" height="24" viewBox="0 0 25 24" fill="none" xmlns="http://www.w3.org/2000/svg">
<path d="M22.38 9.9L19.98 5.08C19.51 4.13 18.26 3.36 17.2 3.36H8.14002C7.08002 3.36 5.83002 4.13 5.36002 5.08L2.96001 9.9C2.38001 11.06 2.70002 12.71 3.65002 13.58L10.58 19.87C11.73 20.91 13.6 20.91 14.75 19.87L21.68 13.58C22.64 12.71 22.96 11.05 22.38 9.9ZM16.67 9.25H13.42V14.5C13.42 14.91 13.08 15.25 12.67 15.25C12.26 15.25 11.92 14.91 11.92 14.5V9.25H8.67002C8.26002 9.25 7.92002 8.91 7.92002 8.5C7.92002 8.09 8.26002 7.75 8.67002 7.75H16.67C17.08 7.75 17.42 8.09 17.42 8.5C17.42 8.91 17.08 9.25 16.67 9.25Z" fill="black"/>
</svg>
