<svg width="25" height="24" viewBox="0 0 25 24" fill="none" xmlns="http://www.w3.org/2000/svg">
<path d="M21.6219 4.13C21.3319 3.71 20.9619 3.34 20.5419 3.05C19.5919 2.36 18.3519 2 16.8619 2H8.48187C8.28188 2 8.08187 2.01 7.89187 2.03C4.61187 2.24 2.67188 4.37 2.67188 7.81V16.19C2.67188 17.68 3.03187 18.92 3.72187 19.87C4.01187 20.29 4.38188 20.66 4.80188 20.95C5.62188 21.55 6.66187 21.9 7.89187 21.98C8.08187 21.99 8.28188 22 8.48187 22H16.8619C20.5019 22 22.6719 19.83 22.6719 16.19V7.81C22.6719 6.32 22.3119 5.08 21.6219 4.13ZM16.5419 7.51H14.5919L12.3519 16.48H14.1919C14.6019 16.48 14.9419 16.82 14.9419 17.23C14.9419 17.64 14.6019 17.98 14.1919 17.98H8.80188C8.39188 17.98 8.05188 17.64 8.05188 17.23C8.05188 16.82 8.39188 16.48 8.80188 16.48H10.8019L13.0419 7.51H11.1519C10.7419 7.51 10.4019 7.17 10.4019 6.76C10.4019 6.35 10.7419 6.01 11.1519 6.01H16.5319C16.9419 6.01 17.2819 6.35 17.2819 6.76C17.2819 7.17 16.9519 7.51 16.5419 7.51Z" fill="#292D32"/>
</svg>
