<svg width="25" height="24" viewBox="0 0 25 24" fill="none" xmlns="http://www.w3.org/2000/svg">
<path d="M21.6219 4.13C21.3319 3.71 20.9619 3.34 20.5419 3.05C19.5919 2.36 18.3519 2 16.8619 2H8.48187C8.28188 2 8.08187 2.01 7.89187 2.03C4.61187 2.24 2.67188 4.37 2.67188 7.81V16.19C2.67188 17.68 3.03187 18.92 3.72187 19.87C4.01187 20.29 4.38188 20.66 4.80188 20.95C5.62188 21.55 6.66187 21.9 7.89187 21.98C8.08187 21.99 8.28188 22 8.48187 22H16.8619C20.5019 22 22.6719 19.83 22.6719 16.19V7.81C22.6719 6.32 22.3119 5.08 21.6219 4.13ZM17.5019 18.96H7.84188C7.43188 18.96 7.09188 18.62 7.09188 18.21C7.09188 17.8 7.43188 17.46 7.84188 17.46H17.5119C17.9219 17.46 18.2619 17.8 18.2619 18.21C18.2619 18.62 17.9219 18.96 17.5019 18.96ZM18.2519 10.62C18.2519 13.7 15.7519 16.2 12.6719 16.2C9.59188 16.2 7.09188 13.7 7.09188 10.62V5.79C7.09188 5.38 7.43188 5.04 7.84188 5.04C8.25187 5.04 8.59188 5.38 8.59188 5.79V10.62C8.59188 12.87 10.4219 14.7 12.6719 14.7C14.9219 14.7 16.7519 12.87 16.7519 10.62V5.79C16.7519 5.38 17.0919 5.04 17.5019 5.04C17.9119 5.04 18.2519 5.38 18.2519 5.79V10.62Z" fill="#292D32"/>
</svg>
