<svg width="25" height="24" viewBox="0 0 25 24" fill="none" xmlns="http://www.w3.org/2000/svg">
<path d="M16.8619 2H8.48187C4.84187 2 2.67188 4.17 2.67188 7.81V16.18C2.67188 19.83 4.84187 22 8.48187 22H16.8519C20.4919 22 22.6619 19.83 22.6619 16.19V7.81C22.6719 4.17 20.5019 2 16.8619 2ZM18.3419 9.22C18.1519 9.59 17.7119 9.74 17.3319 9.56C16.1019 8.94 14.7719 8.6 13.4219 8.5V16.29C13.4219 16.7 13.0819 17.04 12.6719 17.04C12.2619 17.04 11.9219 16.7 11.9219 16.29V8.5C10.5719 8.6 9.24188 8.94 8.01188 9.56C7.90188 9.61 7.78188 9.63 7.67188 9.63C7.40188 9.63 7.13188 9.48 7.00187 9.22C6.81187 8.85 6.96187 8.4 7.33187 8.21C10.6719 6.54 14.6619 6.54 18.0019 8.21C18.3819 8.4 18.5319 8.85 18.3419 9.22Z" fill="#292D32"/>
</svg>
