<svg width="25" height="24" viewBox="0 0 25 24" fill="none" xmlns="http://www.w3.org/2000/svg">
<path d="M12.6699 2C7.14992 2 2.66992 6.48 2.66992 12C2.66992 17.52 7.14992 22 12.6699 22C18.1899 22 22.6699 17.52 22.6699 12C22.6699 6.48 18.1899 2 12.6699 2ZM8.60992 10.56C8.60992 8.7 10.1199 7.18 11.9899 7.18C13.8599 7.18 15.3699 8.69 15.3699 10.56C15.3699 12.43 13.8599 13.94 11.9899 13.94C10.1199 13.94 8.60992 12.43 8.60992 10.56ZM16.2599 15.34L13.2599 18.34C13.1099 18.49 12.9199 18.56 12.7299 18.56C12.5399 18.56 12.3499 18.49 12.1999 18.34C11.9099 18.05 11.9099 17.57 12.1999 17.28L15.1999 14.28C15.4899 13.99 15.9699 13.99 16.2599 14.28C16.5499 14.57 16.5599 15.05 16.2599 15.34ZM17.1799 8.31C16.6299 8.31 16.1799 7.86 16.1799 7.31C16.1799 6.76 16.6199 6.31 17.1799 6.31H17.1899C17.7399 6.31 18.1899 6.76 18.1899 7.31C18.1899 7.86 17.7299 8.31 17.1799 8.31Z" fill="black"/>
</svg>
