<svg width="25" height="24" viewBox="0 0 25 24" fill="none" xmlns="http://www.w3.org/2000/svg">
<path d="M14.6699 9.75H13.4199V8.5C13.4199 8.09 13.0799 7.75 12.6699 7.75C12.2599 7.75 11.9199 8.09 11.9199 8.5V9.75H10.6699C10.2599 9.75 9.91992 10.09 9.91992 10.5C9.91992 10.91 10.2599 11.25 10.6699 11.25H14.6699C15.0799 11.25 15.4199 10.91 15.4199 10.5C15.4199 10.09 15.0799 9.75 14.6699 9.75Z" fill="black"/>
<path d="M14.6699 12.75H10.6699C10.2599 12.75 9.91992 13.09 9.91992 13.5C9.91992 13.91 10.2599 14.25 10.6699 14.25H11.9199V15.5C11.9199 15.91 12.2599 16.25 12.6699 16.25C13.0799 16.25 13.4199 15.91 13.4199 15.5V14.25H14.6699C15.0799 14.25 15.4199 13.91 15.4199 13.5C15.4199 13.09 15.0799 12.75 14.6699 12.75Z" fill="black"/>
<path d="M16.8597 2H8.48969C4.84968 2 2.67969 4.17 2.67969 7.81V16.18C2.67969 19.82 4.84968 21.99 8.48969 21.99H16.8597C20.4997 21.99 22.6697 19.82 22.6697 16.18V7.81C22.6697 4.17 20.4997 2 16.8597 2ZM17.6697 16.15C17.6697 17.17 16.8397 18 15.8197 18H9.51965C8.49965 18 7.66968 17.17 7.66968 16.15V7.85C7.66968 6.83 8.49965 6 9.51965 6H15.8197C16.8397 6 17.6697 6.83 17.6697 7.85V16.15Z" fill="black"/>
</svg>
