<svg width="25" height="24" viewBox="0 0 25 24" fill="none" xmlns="http://www.w3.org/2000/svg">
<path d="M12.6699 2C7.15992 2 2.66992 6.49 2.66992 12C2.66992 17.51 7.15992 22 12.6699 22C18.1799 22 22.6699 17.51 22.6699 12C22.6699 6.49 18.1799 2 12.6699 2ZM17.4499 9.7L11.7799 15.37C11.6399 15.51 11.4499 15.59 11.2499 15.59C11.0499 15.59 10.8599 15.51 10.7199 15.37L7.88992 12.54C7.59992 12.25 7.59992 11.77 7.88992 11.48C8.17992 11.19 8.65992 11.19 8.94992 11.48L11.2499 13.78L16.3899 8.64C16.6799 8.35 17.1599 8.35 17.4499 8.64C17.7399 8.93 17.7399 9.4 17.4499 9.7Z" fill="#292D32"/>
</svg>
