<svg width="25" height="24" viewBox="0 0 25 24" fill="none" xmlns="http://www.w3.org/2000/svg">
<path d="M22.6719 10.75C23.0819 10.75 23.4219 10.41 23.4219 10V9C23.4219 4.59 22.0819 3.25 17.6719 3.25H11.4219V5.5C11.4219 5.91 11.0819 6.25 10.6719 6.25C10.2619 6.25 9.92188 5.91 9.92188 5.5V3.25H7.67188C3.26188 3.25 1.92188 4.59 1.92188 9V9.5C1.92188 9.91 2.26188 10.25 2.67188 10.25C3.63188 10.25 4.42188 11.04 4.42188 12C4.42188 12.96 3.63188 13.75 2.67188 13.75C2.26188 13.75 1.92188 14.09 1.92188 14.5V15C1.92188 19.41 3.26188 20.75 7.67188 20.75H9.92188V18.5C9.92188 18.09 10.2619 17.75 10.6719 17.75C11.0819 17.75 11.4219 18.09 11.4219 18.5V20.75H17.6719C22.0819 20.75 23.4219 19.41 23.4219 15C23.4219 14.59 23.0819 14.25 22.6719 14.25C21.7119 14.25 20.9219 13.46 20.9219 12.5C20.9219 11.54 21.7119 10.75 22.6719 10.75ZM11.4219 14.17C11.4219 14.58 11.0819 14.92 10.6719 14.92C10.2619 14.92 9.92188 14.58 9.92188 14.17V9.83C9.92188 9.42 10.2619 9.08 10.6719 9.08C11.0819 9.08 11.4219 9.42 11.4219 9.83V14.17Z" fill="#292D32"/>
</svg>
