<svg width="25" height="24" viewBox="0 0 25 24" fill="none" xmlns="http://www.w3.org/2000/svg">
<path d="M15.5596 3.45H9.77957C9.37957 3.45 9.05957 3.13 9.05957 2.73C9.05957 2.33 9.37957 2 9.77957 2H15.5596C15.9596 2 16.2796 2.32 16.2796 2.72C16.2796 3.12 15.9596 3.45 15.5596 3.45Z" fill="#292D32"/>
<path d="M14.67 19.9699V17.0299C14.67 15.2199 15.89 13.9999 17.7 13.9999H20.64C20.87 13.9999 21.09 14.0199 21.3 14.0599C21.32 13.8199 21.34 13.5799 21.34 13.3299C21.34 8.5399 17.45 4.6499 12.67 4.6499C7.89 4.6499 4 8.5399 4 13.3299C4 18.1099 7.89 21.9999 12.67 21.9999C13.52 21.9999 14.33 21.8599 15.11 21.6399C14.83 21.1699 14.67 20.6099 14.67 19.9699ZM13.42 12.9999C13.42 13.4099 13.08 13.7499 12.67 13.7499C12.26 13.7499 11.92 13.4099 11.92 12.9999V7.9999C11.92 7.5899 12.26 7.2499 12.67 7.2499C13.08 7.2499 13.42 7.5899 13.42 7.9999V12.9999Z" fill="#292D32"/>
<path d="M20.6399 15H17.7099C16.4299 15 15.6699 15.76 15.6699 17.03V19.97C15.6699 21.24 16.4299 22 17.7099 22H20.6399C21.9099 22 22.6699 21.24 22.6699 19.97V17.03C22.6699 15.76 21.9099 15 20.6399 15ZM18.5899 20.06C18.5899 20.38 18.3299 20.64 17.9999 20.64C17.6799 20.64 17.4199 20.38 17.4199 20.06V16.94C17.4199 16.62 17.6799 16.36 17.9999 16.36C18.3299 16.36 18.5899 16.62 18.5899 16.94V20.06ZM20.9199 20.06C20.9199 20.38 20.6599 20.64 20.3399 20.64C20.0199 20.64 19.7499 20.38 19.7499 20.06V16.94C19.7499 16.62 20.0199 16.36 20.3399 16.36C20.6599 16.36 20.9199 16.62 20.9199 16.94V20.06Z" fill="#292D32"/>
</svg>
