<svg width="25" height="24" viewBox="0 0 25 24" fill="none" xmlns="http://www.w3.org/2000/svg">
<path d="M15.5601 3.45H9.78006C9.38006 3.45 9.06006 3.13 9.06006 2.73C9.06006 2.33 9.38006 2 9.78006 2H15.5601C15.9601 2 16.2801 2.32 16.2801 2.72C16.2801 3.12 15.9601 3.45 15.5601 3.45Z" fill="#292D32"/>
<path d="M20.6399 15H17.6999C16.4299 15 15.6699 15.76 15.6699 17.03V19.97C15.6699 21.24 16.4299 22 17.6999 22H20.6399C21.9099 22 22.6699 21.24 22.6699 19.97V17.03C22.6699 15.76 21.9099 15 20.6399 15ZM20.3599 19.46L19.1799 20.14C18.9399 20.28 18.6999 20.35 18.4799 20.35C18.3099 20.35 18.1599 20.31 18.0199 20.23C17.6999 20.04 17.5199 19.67 17.5199 19.18V17.82C17.5199 17.33 17.6999 16.96 18.0199 16.77C18.3399 16.58 18.7499 16.62 19.1799 16.86L20.3599 17.54C20.7799 17.79 21.0199 18.13 21.0199 18.5C21.0199 18.87 20.7899 19.21 20.3599 19.46Z" fill="#292D32"/>
<path d="M14.67 19.9699V17.0299C14.67 15.2199 15.89 13.9999 17.7 13.9999H20.64C20.87 13.9999 21.09 14.0199 21.3 14.0599C21.32 13.8199 21.34 13.5799 21.34 13.3299C21.34 8.5399 17.45 4.6499 12.67 4.6499C7.89 4.6499 4 8.5399 4 13.3299C4 18.1099 7.89 21.9999 12.67 21.9999C13.52 21.9999 14.33 21.8599 15.11 21.6399C14.83 21.1699 14.67 20.6099 14.67 19.9699ZM13.42 12.9999C13.42 13.4099 13.08 13.7499 12.67 13.7499C12.26 13.7499 11.92 13.4099 11.92 12.9999V7.9999C11.92 7.5899 12.26 7.2499 12.67 7.2499C13.08 7.2499 13.42 7.5899 13.42 7.9999V12.9999Z" fill="#292D32"/>
</svg>
