<svg width="25" height="24" viewBox="0 0 25 24" fill="none" xmlns="http://www.w3.org/2000/svg">
<path d="M17.3199 3.85986H8.01992C3.91992 3.85986 2.66992 5.10986 2.66992 9.20986V14.7899C2.66992 18.8899 3.91992 20.1399 8.01992 20.1399H17.3199C21.4199 20.1399 22.6699 18.8899 22.6699 14.7899V9.20986C22.6699 5.10986 21.4199 3.85986 17.3199 3.85986ZM19.4099 13.1199C19.4099 15.3699 18.3599 16.4199 16.1099 16.4199H13.8799C11.6299 16.4199 10.5799 15.3699 10.5799 13.1199V10.8899C10.5799 8.63986 11.6299 7.58986 13.8799 7.58986H16.1099C18.3599 7.58986 19.4099 8.63986 19.4099 10.8899V13.1199Z" fill="#292D32"/>
</svg>
