<svg width="25" height="24" viewBox="0 0 25 24" fill="none" xmlns="http://www.w3.org/2000/svg">
<path d="M16.4597 2H8.89969C5.11969 2 4.17969 3.01 4.17969 7.04V18.3C4.17969 20.96 5.63969 21.59 7.40969 19.69L7.41969 19.68C8.23969 18.81 9.48969 18.88 10.1997 19.83L11.2097 21.18C12.0197 22.25 13.3297 22.25 14.1397 21.18L15.1497 19.83C15.8697 18.87 17.1197 18.8 17.9397 19.68C19.7197 21.58 21.1697 20.95 21.1697 18.29V7.04C21.1797 3.01 20.2397 2 16.4597 2ZM15.4297 10.75H9.92969C9.51969 10.75 9.17969 10.41 9.17969 10C9.17969 9.59 9.51969 9.25 9.92969 9.25H15.4297C15.8397 9.25 16.1797 9.59 16.1797 10C16.1797 10.41 15.8397 10.75 15.4297 10.75Z" fill="#292D32"/>
</svg>
