<svg width="25" height="24" viewBox="0 0 25 24" fill="none" xmlns="http://www.w3.org/2000/svg">
<path d="M9.60188 2H5.69187C3.67188 2 2.67188 3 2.67188 5.02V8.94C2.67188 11 3.67188 12 5.69187 11.95H9.61187C11.6719 12 12.6719 11 12.6219 8.93V5.02C12.6719 3 11.6719 2 9.60188 2ZM9.68188 9.76C9.00188 9.76 8.34188 9.5 7.79187 9.04C7.17188 9.49 6.42188 9.76 5.61188 9.76C5.20187 9.76 4.86188 9.42 4.86188 9.01C4.86188 8.6 5.20187 8.26 5.61188 8.26C6.63188 8.26 7.48187 7.56 7.79187 6.6H5.61188C5.20187 6.6 4.86188 6.26 4.86188 5.85C4.86188 5.44 5.20187 5.1 5.61188 5.1H6.90188C6.94187 4.72 7.25187 4.42 7.64187 4.42C8.03187 4.42 8.34188 4.72 8.38188 5.1H8.64187C8.65188 5.1 8.66187 5.1 8.66187 5.1H8.68188H9.67188C10.0819 5.1 10.4219 5.44 10.4219 5.85C10.4219 6.26 10.0919 6.6 9.67188 6.6H9.34188C9.25187 7.08 9.06188 7.53 8.81188 7.94C9.08188 8.14 9.37188 8.26 9.68188 8.26C10.0919 8.26 10.4319 8.6 10.4319 9.01C10.4319 9.42 10.0919 9.76 9.68188 9.76Z" fill="#292D32"/>
<path d="M9.67188 22.75C5.40188 22.75 1.92188 19.27 1.92188 15C1.92188 14.59 2.26188 14.25 2.67188 14.25C3.08187 14.25 3.42188 14.59 3.42188 15C3.42188 17.96 5.48187 20.44 8.25187 21.09L7.98187 20.64C7.77187 20.28 7.88188 19.82 8.24188 19.61C8.59188 19.4 9.06188 19.51 9.27188 19.87L10.3219 21.62C10.4619 21.85 10.4619 22.14 10.3319 22.37C10.1919 22.6 9.94188 22.75 9.67188 22.75Z" fill="#292D32"/>
<path d="M22.6723 9.75C22.2623 9.75 21.9223 9.41 21.9223 9C21.9223 6.04 19.8623 3.56 17.0923 2.91L17.3623 3.36C17.5723 3.72 17.4623 4.18 17.1023 4.39C16.7523 4.6 16.2823 4.49 16.0723 4.13L15.0223 2.38C14.8823 2.15 14.8823 1.86 15.0123 1.63C15.1523 1.4 15.4023 1.25 15.6723 1.25C19.9423 1.25 23.4223 4.73 23.4223 9C23.4223 9.41 23.0823 9.75 22.6723 9.75Z" fill="#292D32"/>
<path d="M17.5917 11.85C14.7917 11.85 12.5117 14.12 12.5117 16.93C12.5117 19.73 14.7817 22.01 17.5917 22.01C20.3917 22.01 22.6717 19.74 22.6717 16.93C22.6717 14.12 20.4017 11.85 17.5917 11.85ZM20.0717 19.34C19.7017 19.52 19.2517 19.38 19.0617 19L18.8917 18.66H16.3017L16.1317 19C16.0017 19.26 15.7317 19.41 15.4617 19.41C15.3517 19.41 15.2317 19.38 15.1317 19.33C14.7617 19.14 14.6117 18.69 14.7917 18.32L16.9317 14.05C17.0617 13.8 17.3217 13.64 17.6017 13.64C17.8817 13.64 18.1417 13.8 18.2717 14.06L20.4117 18.33C20.5917 18.7 20.4417 19.15 20.0717 19.34Z" fill="#292D32"/>
<path d="M17.0518 17.1599H18.1418L17.5918 16.0699L17.0518 17.1599Z" fill="#292D32"/>
</svg>
