<svg width="25" height="24" viewBox="0 0 25 24" fill="none" xmlns="http://www.w3.org/2000/svg">
<path d="M16.8599 2H8.47992C4.83992 2 2.66992 4.17 2.66992 7.81V16.18C2.66992 19.83 4.83992 22 8.47992 22H16.8499C20.4899 22 22.6599 19.83 22.6599 16.19V7.81C22.6699 4.17 20.4999 2 16.8599 2ZM17.5499 14.33C17.5499 14.42 17.5299 14.51 17.4999 14.6C17.4299 14.77 17.2899 14.91 17.1199 14.98C17.0299 15.02 16.9399 15.03 16.8499 15.03H14.9899C14.5999 15.03 14.2899 14.72 14.2899 14.33C14.2899 13.94 14.5999 13.63 14.9899 13.63H15.1699L13.0599 11.52L12.0399 13.04C11.9199 13.21 11.7399 13.33 11.5299 13.35C11.3199 13.37 11.1199 13.3 10.9699 13.15L7.98992 10.17C7.71992 9.9 7.71992 9.46 7.98992 9.18C8.25992 8.9 8.69992 8.91 8.97992 9.18L11.3599 11.56L12.3799 10.04C12.4999 9.87 12.6799 9.75 12.8899 9.73C13.1099 9.71 13.2999 9.78 13.4499 9.93L16.1699 12.65V12.47C16.1699 12.08 16.4799 11.77 16.8699 11.77C17.2599 11.77 17.5699 12.08 17.5699 12.47V14.33H17.5499Z" fill="#292D32"/>
</svg>
