<svg width="25" height="24" viewBox="0 0 25 24" fill="none" xmlns="http://www.w3.org/2000/svg">
<path d="M20.0696 10.53C20.5896 10.43 20.9496 11.02 20.6296 11.44L13.6796 20.29C13.3296 20.74 12.6095 20.45 12.6695 19.89L13.3696 12.29C13.3896 12.04 13.5795 11.83 13.8295 11.78L20.0696 10.53Z" fill="black"/>
<path d="M22.3097 7.69C22.5297 7.93 22.4097 8.32 22.0997 8.39L13.6597 10.08C13.1097 10.19 12.7497 9.52 13.1497 9.12L18.1697 4.1C18.3997 3.87 18.7697 3.88 18.9897 4.11L22.3097 7.69Z" fill="black"/>
<path d="M15.3595 3.19C15.8295 3.25 16.0195 3.82 15.6895 4.16L12.1295 7.72C11.9195 7.93 11.5795 7.94 11.3495 7.74L6.00949 2.99C5.58949 2.62 5.90944 1.93 6.45944 2L15.3595 3.19Z" fill="black"/>
<path d="M11.3897 10.07C11.6597 10.31 11.7897 10.66 11.7697 11.01L10.9097 21.47C10.8597 22.07 10.0297 22.19 9.80971 21.63L2.95967 3.96C2.73967 3.4 3.4197 2.93 3.8697 3.33L11.3897 10.07Z" fill="black"/>
</svg>
