<svg width="25" height="24" viewBox="0 0 25 24" fill="none" xmlns="http://www.w3.org/2000/svg">
<path d="M14.6709 2.92V11.23C14.6709 12.25 13.8409 13.08 12.8209 13.08H3.6709C3.1209 13.08 2.6709 12.63 2.6709 12.08V5.69C2.6709 3.65 4.3209 2 6.3609 2H13.7409C14.2609 2 14.6709 2.41 14.6709 2.92Z" fill="#292D32"/>
<path d="M22.1709 15.5C22.4509 15.5 22.6709 15.72 22.6709 16V17C22.6709 18.66 21.3309 20 19.6709 20C19.6709 18.35 18.3209 17 16.6709 17C15.0209 17 13.6709 18.35 13.6709 20H11.6709C11.6709 18.35 10.3209 17 8.6709 17C7.0209 17 5.6709 18.35 5.6709 20C4.0109 20 2.6709 18.66 2.6709 17V15C2.6709 14.45 3.1209 14 3.6709 14H13.1709C14.5509 14 15.6709 12.88 15.6709 11.5V6C15.6709 5.45 16.1209 5 16.6709 5H17.5109C18.2309 5 18.8909 5.39 19.2509 6.01L19.8909 7.13C19.9809 7.29 19.8609 7.5 19.6709 7.5C18.2909 7.5 17.1709 8.62 17.1709 10V13C17.1709 14.38 18.2909 15.5 19.6709 15.5H22.1709Z" fill="#292D32"/>
<path d="M8.6709 22C9.77547 22 10.6709 21.1046 10.6709 20C10.6709 18.8954 9.77547 18 8.6709 18C7.56633 18 6.6709 18.8954 6.6709 20C6.6709 21.1046 7.56633 22 8.6709 22Z" fill="#292D32"/>
<path d="M16.6709 22C17.7755 22 18.6709 21.1046 18.6709 20C18.6709 18.8954 17.7755 18 16.6709 18C15.5663 18 14.6709 18.8954 14.6709 20C14.6709 21.1046 15.5663 22 16.6709 22Z" fill="#292D32"/>
<path d="M22.6709 12.53V14H19.6709C19.1209 14 18.6709 13.55 18.6709 13V10C18.6709 9.45 19.1209 9 19.6709 9H20.9609L22.4109 11.54C22.5809 11.84 22.6709 12.18 22.6709 12.53Z" fill="#292D32"/>
</svg>
