<svg width="25" height="24" viewBox="0 0 25 24" fill="none" xmlns="http://www.w3.org/2000/svg">
<path d="M16.8599 2H8.47992C4.83992 2 2.66992 4.17 2.66992 7.81V16.18C2.66992 19.83 4.83992 22 8.47992 22H16.8499C20.4899 22 22.6599 19.83 22.6599 16.19V7.81C22.6699 4.17 20.4999 2 16.8599 2ZM16.4299 15.76C16.3699 16.61 16.2999 17.67 14.3799 17.67H10.9599C9.04992 17.67 8.96992 16.61 8.90992 15.76L8.59992 11.8C8.57992 11.54 8.66992 11.29 8.83992 11.1C9.00992 10.91 9.25992 10.81 9.50992 10.81H15.8299C16.0799 10.81 16.3299 10.92 16.4999 11.1C16.6699 11.29 16.7599 11.54 16.7399 11.79L16.4299 15.76ZM17.4699 9.82C17.4499 9.82 17.4299 9.82 17.4099 9.82C16.3699 9.72 15.4199 9.65 14.5099 9.61C13.2899 9.55 12.0699 9.53 10.8399 9.58C10.2399 9.61 9.62992 9.65 9.02992 9.71L7.93992 9.82C7.91992 9.82 7.88992 9.82 7.86992 9.82C7.51992 9.82 7.21992 9.56 7.18992 9.2C7.14992 8.83 7.42992 8.49 7.79992 8.46L8.88992 8.35C9.31992 8.31 9.73992 8.28 10.1699 8.26L10.2499 7.79C10.3299 7.29 10.4799 6.33 11.9799 6.33H13.3699C14.8799 6.33 15.0299 7.32 15.0999 7.8L15.1799 8.28C15.9299 8.32 16.6999 8.38 17.5399 8.46C17.9199 8.5 18.1899 8.83 18.1599 9.21C18.1199 9.56 17.8199 9.82 17.4699 9.82Z" fill="#292D32"/>
</svg>
