<svg width="25" height="24" viewBox="0 0 25 24" fill="none" xmlns="http://www.w3.org/2000/svg">
<path fill-rule="evenodd" clip-rule="evenodd" d="M21.1699 2H5.70992C5.37992 2 5.05993 2.17001 4.87993 2.45001L3.33992 4.75C3.22992 4.91 3.16992 5.10999 3.16992 5.29999V18C3.16992 18.55 3.61992 19 4.16992 19H6.16992C6.71992 19 7.16992 19.45 7.16992 20V21C7.16992 21.55 7.61992 22 8.16992 22H9.62993C9.95993 22 10.2799 21.83 10.4599 21.55L11.8699 19.44C12.0599 19.16 12.3699 18.99 12.6999 18.99H16.7499C17.0199 18.99 17.2699 18.88 17.4599 18.7L21.8699 14.29C22.0599 14.1 22.1599 13.85 22.1599 13.58V3C22.1699 2.45 21.7199 2 21.1699 2ZM11.4599 12.86C11.4599 13.18 11.1999 13.43 10.8899 13.43H9.74992C9.42992 13.43 9.17992 13.17 9.17992 12.86V7.14999C9.17992 6.82999 9.43992 6.57999 9.74992 6.57999H10.8899C11.2099 6.57999 11.4599 6.83999 11.4599 7.14999V12.86ZM17.1699 12.86C17.1699 13.18 16.9099 13.43 16.5999 13.43H15.4599C15.1399 13.43 14.8899 13.17 14.8899 12.86V7.14999C14.8899 6.82999 15.1499 6.57999 15.4599 6.57999H16.5999C16.9199 6.57999 17.1699 6.83999 17.1699 7.14999V12.86Z" fill="black"/>
</svg>
