<svg width="25" height="24" viewBox="0 0 25 24" fill="none" xmlns="http://www.w3.org/2000/svg">
<path d="M18.6698 6.34C18.5298 6.34 18.0898 6.37001 18.0898 6.79001C18.0898 7.08001 18.3098 7.25 18.6698 7.25C19.0298 7.25 19.2498 7.08001 19.2498 6.79001C19.2498 6.46001 18.9498 6.34 18.6698 6.34Z" fill="black"/>
<path d="M18.67 5.51001C18.94 5.51001 19.11 5.36 19.11 5.13C19.11 4.85 18.88 4.76001 18.67 4.76001C18.46 4.76001 18.23 4.86 18.23 5.13C18.23 5.36 18.4 5.51001 18.67 5.51001Z" fill="black"/>
<path d="M18.6699 2C16.5699 2 14.8599 3.61 14.6899 5.66C14.6699 5.77 14.6699 5.89 14.6699 6C14.6699 8.21 16.4599 10 18.6699 10C19.0199 10 19.3499 9.96 19.6699 9.87C21.3999 9.43 22.6699 7.86 22.6699 6C22.6699 3.79 20.8799 2 18.6699 2ZM18.6699 8.20001C17.6799 8.20001 17.0699 7.70001 17.0699 6.89001C17.0699 6.50001 17.2499 6.15 17.5699 5.91C17.3299 5.7 17.1999 5.40999 17.1999 5.07999C17.1999 4.30999 17.7899 3.79999 18.6599 3.79999C19.5299 3.79999 20.1199 4.31999 20.1199 5.07999C20.1199 5.40999 19.9999 5.7 19.7499 5.91C20.0799 6.14 20.2599 6.49001 20.2599 6.89001C20.2699 7.70001 19.6599 8.20001 18.6699 8.20001Z" fill="black"/>
<path d="M18.6699 11.5C17.5199 11.5 16.4499 11.15 15.5699 10.54C15.4999 10.49 15.4099 10.54 15.4099 10.62L15.4199 15.44C15.4199 15.86 15.0799 16.19 14.6699 16.19C14.2599 16.19 13.9199 15.86 13.9199 15.44V10.5C13.9199 10.17 14.1399 9.89001 14.4399 9.79001C14.5199 9.76001 14.5699 9.65 14.5099 9.59C13.6799 8.63 13.1699 7.38001 13.1699 6.01001C13.1699 5.84001 13.1799 5.65999 13.1999 5.48999C13.1999 5.44999 13.2099 5.42 13.2099 5.38C13.2399 5.15 13.1199 4.92999 12.9199 4.82999L12.0199 4.39999C11.4799 4.14999 10.8599 4.14999 10.3199 4.39999L3.81992 7.45999C3.11992 7.78999 2.66992 8.48999 2.66992 9.26999V16.73C2.66992 17.51 3.11992 18.21 3.81992 18.54L10.3199 21.6C10.8599 21.85 11.4799 21.85 12.0199 21.6L18.5199 18.54C19.2199 18.21 19.6699 17.51 19.6699 16.73V12.02C19.6699 11.71 19.3799 11.47 19.0699 11.49C18.9399 11.5 18.8099 11.5 18.6699 11.5ZM12.4199 13.5C12.4199 15.02 11.1899 16.25 9.66992 16.25C8.14992 16.25 6.91992 15.02 6.91992 13.5V10.5C6.91992 10.09 7.25992 9.75 7.66992 9.75C8.07992 9.75 8.41992 10.09 8.41992 10.5V13.5C8.41992 14.19 8.97992 14.75 9.66992 14.75C10.3599 14.75 10.9199 14.19 10.9199 13.5V10.5C10.9199 10.09 11.2599 9.75 11.6699 9.75C12.0799 9.75 12.4199 10.09 12.4199 10.5V13.5Z" fill="black"/>
</svg>
