<svg width="25" height="24" viewBox="0 0 25 24" fill="none" xmlns="http://www.w3.org/2000/svg">
<path d="M16.8599 2H8.47992C4.83992 2 2.66992 4.17 2.66992 7.81V16.18C2.66992 19.83 4.83992 22 8.47992 22H16.8499C20.4899 22 22.6599 19.83 22.6599 16.19V7.81C22.6699 4.17 20.4999 2 16.8599 2ZM14.5899 16.63H9.66992C9.25992 16.63 8.91992 16.29 8.91992 15.88C8.91992 15.47 9.25992 15.13 9.66992 15.13H14.5899C15.8699 15.13 16.9199 14.09 16.9199 12.8C16.9199 11.51 15.8799 10.47 14.5899 10.47H9.51992L9.77992 10.73C10.0699 11.02 10.0699 11.5 9.77992 11.79C9.62992 11.94 9.43992 12.01 9.24992 12.01C9.05992 12.01 8.86992 11.94 8.71992 11.79L7.14992 10.22C6.85992 9.93 6.85992 9.45 7.14992 9.16L8.71992 7.59C9.00992 7.3 9.48992 7.3 9.77992 7.59C10.0699 7.88 10.0699 8.36 9.77992 8.65L9.43992 8.98H14.5899C16.6999 8.98 18.4199 10.7 18.4199 12.81C18.4199 14.92 16.6999 16.63 14.5899 16.63Z" fill="#292D32"/>
</svg>
