<svg width="25" height="24" viewBox="0 0 25 24" fill="none" xmlns="http://www.w3.org/2000/svg">
<path d="M13.4199 14.52H13.6499C13.9799 14.52 14.2599 14.22 14.2599 13.85C14.2599 13.38 14.1499 13.32 13.8299 13.21L13.4199 13.07V14.52Z" fill="black"/>
<path d="M12.6699 2C7.14992 2 2.66992 6.48 2.66992 12C2.66992 17.52 7.14992 22 12.6699 22C18.1899 22 22.6699 17.52 22.6699 12C22.6699 6.48 18.1899 2 12.6699 2ZM8.24991 16.42C8.53991 16.71 8.53991 17.19 8.24991 17.48C8.09991 17.63 7.90991 17.7 7.71991 17.7C7.52991 17.7 7.33991 17.63 7.18991 17.48C5.72991 16.02 4.91992 14.07 4.91992 12C4.91992 9.93 5.72991 7.98 7.18991 6.52C7.47991 6.23 7.95991 6.23 8.24991 6.52C8.53991 6.81 8.53991 7.29 8.24991 7.58C7.06991 8.76 6.41992 10.33 6.41992 12C6.41992 13.67 7.06991 15.24 8.24991 16.42ZM14.3199 11.78C15.2799 12.12 15.7499 12.79 15.7499 13.84C15.7499 15.04 14.8099 16.01 13.6399 16.01H13.4099V16.19C13.4099 16.6 13.0699 16.94 12.6599 16.94C12.2499 16.94 11.9099 16.6 11.9099 16.19V16.01H11.8799C10.6099 16.01 9.56992 14.94 9.56992 13.63C9.56992 13.22 9.90992 12.88 10.3199 12.88C10.7299 12.88 11.0699 13.22 11.0699 13.63C11.0699 14.12 11.4299 14.51 11.8799 14.51H11.9099V12.53L11.0099 12.21C10.0499 11.87 9.57993 11.2 9.57993 10.15C9.57993 8.95 10.5199 7.98 11.6899 7.98H11.9199V7.8C11.9199 7.39 12.2599 7.05 12.6699 7.05C13.0799 7.05 13.4199 7.39 13.4199 7.8V7.98H13.4499C14.7199 7.98 15.7599 9.05 15.7599 10.36C15.7599 10.77 15.4199 11.11 15.0099 11.11C14.5999 11.11 14.2599 10.77 14.2599 10.36C14.2599 9.87 13.8999 9.48 13.4499 9.48H13.4199V11.46L14.3199 11.78ZM18.1499 17.48C17.9999 17.63 17.8099 17.7 17.6199 17.7C17.4299 17.7 17.2399 17.63 17.0899 17.48C16.7999 17.19 16.7999 16.71 17.0899 16.42C18.2699 15.24 18.9199 13.67 18.9199 12C18.9199 10.33 18.2699 8.76 17.0899 7.58C16.7999 7.29 16.7999 6.81 17.0899 6.52C17.3799 6.23 17.8599 6.23 18.1499 6.52C19.6099 7.98 20.4199 9.93 20.4199 12C20.4199 14.07 19.6099 16.02 18.1499 17.48Z" fill="black"/>
<path d="M11.0898 10.16C11.0898 10.63 11.1998 10.69 11.5198 10.8L11.9298 10.94V9.48001H11.6998C11.3598 9.48001 11.0898 9.79001 11.0898 10.16Z" fill="black"/>
</svg>
