<svg width="25" height="24" viewBox="0 0 25 24" fill="none" xmlns="http://www.w3.org/2000/svg">
<path d="M16.8599 2H8.47992C4.83992 2 2.66992 4.17 2.66992 7.81V16.19C2.66992 19 3.95992 20.93 6.22992 21.66C6.88992 21.89 7.64992 22 8.47992 22H16.8599C17.6899 22 18.4499 21.89 19.1099 21.66C21.3799 20.93 22.6699 19 22.6699 16.19V7.81C22.6699 4.17 20.4999 2 16.8599 2ZM21.1699 16.19C21.1699 18.33 20.3299 19.68 18.6399 20.24C17.6699 18.33 15.3699 16.97 12.6699 16.97C9.96992 16.97 7.67992 18.32 6.69992 20.24H6.68992C5.01992 19.7 4.16992 18.34 4.16992 16.2V7.81C4.16992 4.99 5.65992 3.5 8.47992 3.5H16.8599C19.6799 3.5 21.1699 4.99 21.1699 7.81V16.19Z" fill="#292D32"/>
<path d="M12.6698 8C10.6898 8 9.08984 9.6 9.08984 11.58C9.08984 13.56 10.6898 15.17 12.6698 15.17C14.6498 15.17 16.2498 13.56 16.2498 11.58C16.2498 9.6 14.6498 8 12.6698 8Z" fill="#292D32"/>
</svg>
