<svg width="25" height="24" viewBox="0 0 25 24" fill="none" xmlns="http://www.w3.org/2000/svg">
<path d="M20.1798 5.85L14.2398 2.42C13.2698 1.86 12.0698 1.86 11.0898 2.42L5.15984 5.85C4.18984 6.41 3.58984 7.45 3.58984 8.58V15.42C3.58984 16.54 4.18984 17.58 5.15984 18.15L11.0998 21.58C12.0698 22.14 13.2698 22.14 14.2498 21.58L20.1898 18.15C21.1598 17.59 21.7598 16.55 21.7598 15.42V8.58C21.7498 7.45 21.1498 6.42 20.1798 5.85ZM12.6698 7.34C13.9598 7.34 14.9998 8.38 14.9998 9.67C14.9998 10.96 13.9598 12 12.6698 12C11.3798 12 10.3398 10.96 10.3398 9.67C10.3398 8.39 11.3798 7.34 12.6698 7.34ZM15.3498 16.66H9.98984C9.17984 16.66 8.70984 15.76 9.15984 15.09C9.83984 14.08 11.1598 13.4 12.6698 13.4C14.1798 13.4 15.4998 14.08 16.1798 15.09C16.6298 15.75 16.1498 16.66 15.3498 16.66Z" fill="#292D32"/>
</svg>
