<svg width="25" height="24" viewBox="0 0 25 24" fill="none" xmlns="http://www.w3.org/2000/svg">
<path d="M12.6701 14C7.66008 14 3.58008 17.36 3.58008 21.5C3.58008 21.78 3.80008 22 4.08008 22H21.2601C21.5401 22 21.7601 21.78 21.7601 21.5C21.7601 17.36 17.6801 14 12.6701 14Z" fill="#292D32"/>
<path d="M12.6699 2C11.4899 2 10.4099 2.41 9.54992 3.1C8.39992 4.01 7.66992 5.42 7.66992 7C7.66992 7.94 7.92992 8.82 8.39992 9.57C9.25992 11.02 10.8399 12 12.6699 12C13.9299 12 15.0799 11.54 15.9599 10.75C16.3499 10.42 16.6899 10.02 16.9499 9.57C17.4099 8.82 17.6699 7.94 17.6699 7C17.6699 4.24 15.4299 2 12.6699 2ZM15.2599 6.46L12.5899 8.92C12.4099 9.09 12.1799 9.17 11.9499 9.17C11.7099 9.17 11.4699 9.08 11.2899 8.9L10.0599 7.66C9.68992 7.29 9.68992 6.7 10.0599 6.33C10.4299 5.96 11.0199 5.96 11.3899 6.33L11.9799 6.92L13.9899 5.07C14.3699 4.72 14.9599 4.74 15.3099 5.12C15.6599 5.51 15.6399 6.11 15.2599 6.46Z" fill="#292D32"/>
</svg>
