<svg width="25" height="24" viewBox="0 0 25 24" fill="none" xmlns="http://www.w3.org/2000/svg">
<path d="M12.6701 14C7.66008 14 3.58008 17.36 3.58008 21.5C3.58008 21.78 3.80008 22 4.08008 22H21.2601C21.5401 22 21.7601 21.78 21.7601 21.5C21.7601 17.36 17.6801 14 12.6701 14Z" fill="#292D32"/>
<path d="M17.3899 10.35L16.4299 9.39C16.9299 8.64 17.2199 7.74 17.2199 6.77C17.2199 4.13 15.0799 2 12.4499 2C9.81992 2 7.66992 4.14 7.66992 6.77C7.66992 9.4 9.80992 11.54 12.4399 11.54C13.4099 11.54 14.3099 11.25 15.0599 10.75L16.0199 11.71C16.2099 11.9 16.4599 11.99 16.6999 11.99C16.9499 11.99 17.1999 11.9 17.3799 11.71C17.7599 11.34 17.7599 10.73 17.3899 10.35Z" fill="#292D32"/>
</svg>
