<svg width="25" height="24" viewBox="0 0 25 24" fill="none" xmlns="http://www.w3.org/2000/svg">
<path d="M12.6701 14C7.66008 14 3.58008 17.36 3.58008 21.5C3.58008 21.78 3.80008 22 4.08008 22H21.2601C21.5401 22 21.7601 21.78 21.7601 21.5C21.7601 17.36 17.6801 14 12.6701 14Z" fill="#292D32"/>
<path d="M17.52 5.80008C17.4 5.31008 17.2 4.83008 16.92 4.39008C16.73 4.07008 16.48 3.75008 16.21 3.47008C15.31 2.57008 14.14 2.08008 12.94 2.02008C11.58 1.93008 10.19 2.43008 9.14001 3.47008C8.15001 4.45008 7.65001 5.76008 7.67001 7.08008C7.68001 8.33008 8.18001 9.58008 9.13001 10.5401C9.79001 11.2001 10.6 11.6401 11.47 11.8401C11.94 11.9601 12.44 12.0201 12.94 11.9801C14.13 11.9301 15.29 11.4601 16.2 10.5401C17.49 9.25008 17.93 7.44008 17.52 5.80008ZM14.67 9.00008C14.31 9.36008 13.71 9.36008 13.35 9.00008L12.66 8.31008L12 8.97008C11.64 9.33008 11.04 9.33008 10.68 8.97008C10.31 8.60008 10.31 8.01008 10.67 7.65008L11.33 6.99008L10.69 6.37008C10.33 6.00008 10.33 5.41008 10.69 5.03008C11.06 4.67008 11.65 4.67008 12.03 5.03008L12.65 5.67008L13.32 5.00008C13.68 4.64008 14.27 4.64008 14.64 5.00008C15 5.36008 15 5.96008 14.64 6.32008L13.98 6.98008L14.67 7.68008C15.03 8.04008 15.03 8.64008 14.67 9.00008Z" fill="#292D32"/>
</svg>
