<svg width="25" height="24" viewBox="0 0 25 24" fill="none" xmlns="http://www.w3.org/2000/svg">
<path d="M22.2298 10.74L20.8698 9.16C20.6098 8.86 20.3998 8.3 20.3998 7.9V6.2C20.3998 5.14 19.5298 4.27 18.4698 4.27H16.7698C16.3798 4.27 15.8098 4.06 15.5098 3.8L13.9298 2.44C13.2398 1.85 12.1098 1.85 11.4098 2.44L9.8398 3.81C9.5398 4.06 8.9698 4.27 8.5798 4.27H6.8498C5.7898 4.27 4.9198 5.14 4.9198 6.2V7.91C4.9198 8.3 4.7098 8.86 4.4598 9.16L3.1098 10.75C2.5298 11.44 2.5298 12.56 3.1098 13.25L4.4598 14.84C4.7098 15.14 4.9198 15.7 4.9198 16.09V17.8C4.9198 18.86 5.7898 19.73 6.8498 19.73H8.5798C8.9698 19.73 9.5398 19.94 9.8398 20.2L11.4198 21.56C12.1098 22.15 13.2398 22.15 13.9398 21.56L15.5198 20.2C15.8198 19.94 16.3798 19.73 16.7798 19.73H18.4798C19.5398 19.73 20.4098 18.86 20.4098 17.8V16.1C20.4098 15.71 20.6198 15.14 20.8798 14.84L22.2398 13.26C22.8198 12.57 22.8198 11.43 22.2298 10.74ZM16.8298 10.11L11.9998 14.94C11.8598 15.08 11.6698 15.16 11.4698 15.16C11.2698 15.16 11.0798 15.08 10.9398 14.94L8.5198 12.52C8.2298 12.23 8.2298 11.75 8.5198 11.46C8.8098 11.17 9.2898 11.17 9.5798 11.46L11.4698 13.35L15.7698 9.05C16.0598 8.76 16.5398 8.76 16.8298 9.05C17.1198 9.34 17.1198 9.82 16.8298 10.11Z" fill="#292D32"/>
</svg>
