<svg width="25" height="24" viewBox="0 0 25 24" fill="none" xmlns="http://www.w3.org/2000/svg">
<path d="M12.6699 2C7.14992 2 2.66992 6.48 2.66992 12C2.66992 17.52 7.14992 22 12.6699 22C18.1899 22 22.6699 17.52 22.6699 12C22.6699 6.48 18.1899 2 12.6699 2ZM9.71991 8.28999C9.79991 8.11999 9.97992 8.00999 10.1699 8.00999H15.1699C15.3599 8.00999 15.5299 8.11999 15.6199 8.28999C15.7099 8.45999 15.6899 8.66 15.5699 8.81L13.0699 12.14C12.9799 12.27 12.8299 12.34 12.6699 12.34C12.5099 12.34 12.3599 12.27 12.2699 12.14L9.7699 8.81C9.6599 8.67 9.63991 8.45999 9.71991 8.28999ZM18.2799 10.44L13.2799 17.44C13.1399 17.64 12.9099 17.75 12.6699 17.75C12.4299 17.75 12.1999 17.63 12.0599 17.44L7.05994 10.44C6.81994 10.1 6.89992 9.63 7.22992 9.39C7.56992 9.15 8.03991 9.23 8.27991 9.56L12.6699 15.71L17.0599 9.56C17.2999 9.22 17.7699 9.14 18.1099 9.39C18.4399 9.63 18.5199 10.1 18.2799 10.44Z" fill="black"/>
</svg>
