<svg width="25" height="24" viewBox="0 0 25 24" fill="none" xmlns="http://www.w3.org/2000/svg">
<path d="M22.6499 15.65C21.8299 14.64 20.5799 14 19.1699 14C18.1099 14 17.1299 14.37 16.3599 14.99C15.3199 15.81 14.6699 17.08 14.6699 18.5C14.6699 19.34 14.9099 20.14 15.3199 20.82C15.5899 21.27 15.9299 21.66 16.3299 21.98H16.3399C17.1099 22.62 18.0999 23 19.1699 23C20.3099 23 21.3399 22.58 22.1299 21.88C22.4799 21.58 22.7799 21.22 23.0199 20.82C23.4299 20.14 23.6699 19.34 23.6699 18.5C23.6699 17.42 23.2899 16.42 22.6499 15.65ZM21.4299 17.94L19.0299 20.16C18.8899 20.29 18.6999 20.36 18.5199 20.36C18.3299 20.36 18.1399 20.29 17.9899 20.14L16.8799 19.03C16.5899 18.74 16.5899 18.26 16.8799 17.97C17.1699 17.68 17.6499 17.68 17.9399 17.97L18.5399 18.57L20.4099 16.84C20.7099 16.56 21.1899 16.58 21.4699 16.88C21.7599 17.19 21.7399 17.66 21.4299 17.94Z" fill="#292D32"/>
<path d="M15.3995 5.86V2.5C15.3995 2.22 15.1795 2 14.8995 2H10.4395C10.1595 2 9.93945 2.22 9.93945 2.5V5.86C9.93945 6.14 10.1595 6.36 10.4395 6.36H14.8995C15.1795 6.36 15.3995 6.14 15.3995 5.86Z" fill="#292D32"/>
<path d="M7.92039 2.02C5.36039 2.18 3.61039 3.5 2.96039 5.7C2.86039 6.03 3.10039 6.36 3.44039 6.36H7.94039C8.22039 6.36 8.44039 6.14 8.44039 5.86V2.52C8.44039 2.24 8.20039 2 7.92039 2.02Z" fill="#292D32"/>
<path d="M17.4204 2.00999C19.9804 2.16999 21.7304 3.48999 22.3804 5.68999C22.4804 6.01999 22.2404 6.34999 21.9004 6.34999H17.4004C17.1204 6.34999 16.9004 6.12999 16.9004 5.84999V2.50999C16.9004 2.22999 17.1404 1.98999 17.4204 2.00999Z" fill="#292D32"/>
<path d="M22.6699 8.35998V12.74C22.6699 13.11 22.2799 13.35 21.9499 13.18C21.1099 12.74 20.1499 12.5 19.1699 12.5C17.5599 12.5 15.9899 13.16 14.8699 14.31C13.7699 15.43 13.1699 16.92 13.1699 18.5C13.1699 19.31 13.4899 20.35 13.8899 21.22C14.0499 21.57 13.8099 22 13.4199 22H8.47992C5.26992 22 2.66992 19.4 2.66992 16.19V8.35998C2.66992 8.07998 2.88992 7.85999 3.16992 7.85999H22.1699C22.4499 7.85999 22.6699 8.07998 22.6699 8.35998Z" fill="#292D32"/>
</svg>
