<svg width="25" height="24" viewBox="0 0 25 24" fill="none" xmlns="http://www.w3.org/2000/svg">
<path opacity="0.4" d="M18.4104 7.57001C18.4204 7.64001 18.4204 7.72001 18.4104 7.79001C18.4104 7.72001 18.4004 7.65001 18.4004 7.58001L18.4104 7.57001Z" fill="#292D32"/>
<path d="M17.9498 6.56L4.4998 20.01C3.0998 19.12 2.5498 17.53 2.5498 16V8C2.5498 4.58 3.8798 3.25 7.2998 3.25H13.2998C16.1898 3.25 17.5798 4.2 17.9498 6.56Z" fill="#292D32"/>
<path d="M22.0699 2.23C21.7699 1.93 21.2799 1.93 20.9799 2.23L2.51992 20.69C2.21992 20.99 2.21992 21.48 2.51992 21.78C2.66992 21.92 2.86992 22 3.05992 22C3.25992 22 3.44992 21.92 3.59992 21.77L22.0699 3.31C22.3699 3.01 22.3699 2.53 22.0699 2.23Z" fill="#292D32"/>
<path d="M23.0501 8.38V15.62C23.0501 17.05 22.3501 17.62 21.9501 17.83C21.7601 17.93 21.4601 18.04 21.0901 18.04C20.6601 18.04 20.1301 17.9 19.5101 17.46L18.0301 16.42C17.9601 18.63 17.2601 19.89 15.6701 20.42C15.0301 20.65 14.2401 20.75 13.2901 20.75H7.29008C7.05008 20.75 6.82008 20.74 6.58008 20.71L15.6701 11.63L21.3201 5.98C21.5801 6 21.7901 6.08 21.9501 6.17C22.3501 6.38 23.0501 6.95 23.0501 8.38Z" fill="#292D32"/>
</svg>
