<svg width="25" height="24" viewBox="0 0 25 24" fill="none" xmlns="http://www.w3.org/2000/svg">
<path d="M11.9199 7.85999H2.66992V16.19C2.66992 16.25 2.66992 16.31 2.67992 16.36H11.9199V7.85999Z" fill="#292D32"/>
<path d="M8.36035 6.36H11.9204V2H8.39035V6.24C8.39035 6.28 8.37035 6.32 8.36035 6.36Z" fill="#292D32"/>
<path d="M6.8898 6.24V2.16C4.6698 2.62 3.2198 4.1 2.7998 6.36H6.9098C6.8998 6.32 6.8898 6.28 6.8898 6.24Z" fill="#292D32"/>
<path d="M16.8899 2H13.4199V6.36H16.8899V2Z" fill="#292D32"/>
<path d="M18.3799 6.35999H22.5399C22.1199 4.07999 20.6499 2.58999 18.3899 2.14999V6.32999C18.3899 6.33999 18.3799 6.34999 18.3799 6.35999Z" fill="#292D32"/>
<path d="M18.3896 21.85C20.5796 21.42 22.0196 20.02 22.4896 17.86H18.3896V21.85Z" fill="#292D32"/>
<path d="M16.8899 17.86H13.4199V22H16.8899V17.86Z" fill="#292D32"/>
<path d="M13.4199 16.36H22.6599C22.6699 16.31 22.6699 16.25 22.6699 16.19V7.85999H13.4199V16.36Z" fill="#292D32"/>
<path d="M11.9196 17.86H8.38965V22H11.9196V17.86Z" fill="#292D32"/>
<path d="M2.84961 17.86C3.31961 20 4.73961 21.4 6.88961 21.84V17.86H2.84961Z" fill="#292D32"/>
</svg>
