<svg width="25" height="24" viewBox="0 0 25 24" fill="none" xmlns="http://www.w3.org/2000/svg">
<path d="M12.6699 2C7.14992 2 2.66992 6.48 2.66992 12C2.66992 17.52 7.14992 22 12.6699 22C18.1899 22 22.6699 17.52 22.6699 12C22.6699 6.48 18.1899 2 12.6699 2ZM7.41992 14.14C7.41992 14.55 7.07992 14.89 6.66992 14.89C6.25992 14.89 5.91992 14.55 5.91992 14.14V9.86C5.91992 9.45 6.25992 9.11 6.66992 9.11C7.07992 9.11 7.41992 9.45 7.41992 9.86V14.14ZM10.4199 15.57C10.4199 15.98 10.0799 16.32 9.66992 16.32C9.25992 16.32 8.91992 15.98 8.91992 15.57V8.43C8.91992 8.02 9.25992 7.68 9.66992 7.68C10.0799 7.68 10.4199 8.02 10.4199 8.43V15.57ZM13.4199 17C13.4199 17.41 13.0799 17.75 12.6699 17.75C12.2599 17.75 11.9199 17.41 11.9199 17V7C11.9199 6.59 12.2599 6.25 12.6699 6.25C13.0799 6.25 13.4199 6.59 13.4199 7V17ZM16.4199 15.57C16.4199 15.98 16.0799 16.32 15.6699 16.32C15.2599 16.32 14.9199 15.98 14.9199 15.57V8.43C14.9199 8.02 15.2599 7.68 15.6699 7.68C16.0799 7.68 16.4199 8.02 16.4199 8.43V15.57ZM19.4199 14.14C19.4199 14.55 19.0799 14.89 18.6699 14.89C18.2599 14.89 17.9199 14.55 17.9199 14.14V9.86C17.9199 9.45 18.2599 9.11 18.6699 9.11C19.0799 9.11 19.4199 9.45 19.4199 9.86V14.14Z" fill="#292D32"/>
</svg>
