<svg width="25" height="24" viewBox="0 0 25 24" fill="none" xmlns="http://www.w3.org/2000/svg">
<path d="M16.3903 9.68999C14.3403 7.62999 11.0003 7.62999 8.95027 9.68999C6.89027 11.75 6.89027 15.08 8.95027 17.13C11.0103 19.19 14.3403 19.19 16.3903 17.13C18.4503 15.07 18.4503 11.74 16.3903 9.68999ZM13.2003 13.94L11.6103 15.53C11.4603 15.68 11.2703 15.75 11.0803 15.75C10.8903 15.75 10.6903 15.68 10.5503 15.53C10.2603 15.24 10.2603 14.76 10.5503 14.46L12.1403 12.87C12.4303 12.58 12.9103 12.58 13.2103 12.87C13.5003 13.17 13.5003 13.65 13.2003 13.94Z" fill="#292D32"/>
<path d="M20.27 5.81C20.05 5.59 19.77 5.47 19.46 5.47C19.15 5.47 18.87 5.59 18.65 5.8C18.2 6.25 18.2 6.97 18.65 7.42C18.87 7.64 19.15 7.76 19.46 7.76C19.77 7.76 20.05 7.64 20.27 7.43C20.49 7.21 20.61 6.93 20.61 6.62C20.61 6.31 20.49 6.02 20.27 5.81Z" fill="#292D32"/>
<path d="M6.68949 19.39C6.46949 19.17 6.18949 19.05 5.87949 19.05C5.56949 19.05 5.28949 19.17 5.06949 19.38C4.84949 19.6 4.72949 19.88 4.72949 20.19C4.72949 20.5 4.84949 20.78 5.06949 21C5.28949 21.22 5.58949 21.33 5.87949 21.33C6.16949 21.33 6.46949 21.22 6.68949 20.99C7.12949 20.56 7.12949 19.83 6.68949 19.39Z" fill="#292D32"/>
<path d="M23.0796 12.6C22.8696 12.38 22.5796 12.27 22.2696 12.26C21.9596 12.26 21.6796 12.38 21.4596 12.6C21.0096 13.05 21.0096 13.77 21.4596 14.22C21.6796 14.44 21.9796 14.55 22.2696 14.55C22.5596 14.55 22.8596 14.44 23.0796 14.22C23.5296 13.77 23.5296 13.04 23.0796 12.6Z" fill="#292D32"/>
<path d="M3.88035 12.6C3.44035 12.16 2.71035 12.15 2.26035 12.6C1.81035 13.05 1.81035 13.77 2.26035 14.22C2.48035 14.44 2.78035 14.55 3.07035 14.55C3.36035 14.55 3.66035 14.44 3.88035 14.22C4.32035 13.77 4.32035 13.04 3.88035 12.6Z" fill="#292D32"/>
<path d="M20.27 19.39C19.82 18.94 19.1 18.94 18.65 19.39C18.2 19.84 18.2 20.56 18.65 21.01C18.87 21.23 19.17 21.34 19.46 21.34C19.75 21.34 20.05 21.23 20.27 21.01C20.49 20.79 20.61 20.5 20.61 20.2C20.61 19.89 20.49 19.6 20.27 19.39Z" fill="#292D32"/>
<path d="M6.68949 5.81C6.46949 5.59 6.18949 5.47 5.87949 5.47C5.56949 5.47 5.28949 5.59 5.06949 5.8C4.84949 6.02 4.72949 6.3 4.72949 6.61C4.72949 6.92 4.84949 7.21 5.06949 7.42C5.28949 7.64 5.56949 7.76 5.87949 7.76C6.18949 7.76 6.46949 7.64 6.68949 7.43C7.12949 6.98 7.12949 6.25 6.68949 5.81Z" fill="#292D32"/>
<path d="M13.4795 3.00001C13.4795 2.99001 13.4795 2.99001 13.4795 3.00001C13.0295 2.55001 12.3095 2.55001 11.8595 3.00001C11.6395 3.22001 11.5195 3.51001 11.5195 3.81001C11.5195 4.12001 11.6395 4.40001 11.8495 4.62001C12.0695 4.84001 12.3495 4.96001 12.6595 4.96001C12.9695 4.96001 13.2495 4.84001 13.4695 4.62001C13.9295 4.17001 13.9295 3.44001 13.4795 3.00001Z" fill="#292D32"/>
</svg>
