<svg width="25" height="24" viewBox="0 0 25 24" fill="none" xmlns="http://www.w3.org/2000/svg">
<path d="M12.6121 2.20995L10.2021 7.81995H7.79207C7.39207 7.81995 7.00207 7.84995 6.62207 7.92995L7.62207 5.52995L7.66207 5.43995L7.72207 5.27995C7.75207 5.20995 7.77207 5.14995 7.80207 5.09995C8.96207 2.40995 10.2621 1.56995 12.6121 2.20995Z" fill="#292D32"/>
<path d="M19.402 8.09002L19.382 8.08002C18.782 7.91002 18.172 7.82002 17.552 7.82002H11.292L13.542 2.59002L13.572 2.52002C13.712 2.57002 13.862 2.64002 14.012 2.69002L16.222 3.62002C17.452 4.13002 18.312 4.66002 18.842 5.30002C18.932 5.42002 19.012 5.53002 19.092 5.66002C19.182 5.80002 19.252 5.94002 19.292 6.09002C19.332 6.18002 19.362 6.26002 19.382 6.35002C19.532 6.86002 19.542 7.44002 19.402 8.09002Z" fill="#292D32"/>
<path d="M18.9621 9.51995C18.5121 9.38995 18.0421 9.31995 17.5521 9.31995H7.79211C7.11211 9.31995 6.47211 9.44995 5.87211 9.70995C4.13211 10.4599 2.91211 12.1899 2.91211 14.1999V16.1499C2.91211 16.3899 2.93211 16.6199 2.96211 16.8599C3.18211 20.0399 4.88211 21.7399 8.06211 21.9499C8.29211 21.9799 8.52211 21.9999 8.77211 21.9999H16.5721C20.2721 21.9999 22.2221 20.2399 22.4121 16.7399C22.4221 16.5499 22.4321 16.3499 22.4321 16.1499V14.1999C22.4321 11.9899 20.9621 10.1299 18.9621 9.51995ZM15.1721 16.7499H10.1721C9.76211 16.7499 9.42211 16.4099 9.42211 15.9999C9.42211 15.5899 9.76211 15.2499 10.1721 15.2499H15.1721C15.5821 15.2499 15.9221 15.5899 15.9221 15.9999C15.9221 16.4099 15.5821 16.7499 15.1721 16.7499Z" fill="#292D32"/>
</svg>
