<svg width="25" height="24" viewBox="0 0 25 24" fill="none" xmlns="http://www.w3.org/2000/svg">
<path d="M22.6721 12.62V14.68C22.6721 15.24 22.2121 15.7 21.6421 15.7H19.7121C18.6321 15.7 17.6421 14.91 17.5521 13.83C17.4921 13.2 17.7321 12.61 18.1521 12.2C18.5221 11.82 19.0321 11.6 19.5921 11.6H21.6421C22.2121 11.6 22.6721 12.06 22.6721 12.62Z" fill="#292D32"/>
<path d="M16.0519 13.96C15.9619 12.91 16.3419 11.88 17.1019 11.13C17.7419 10.48 18.6319 10.1 19.5919 10.1H20.1619C20.4419 10.1 20.6719 9.87002 20.6319 9.59002C20.3619 7.65002 18.6819 6.15002 16.6719 6.15002H6.67188C4.46187 6.15002 2.67188 7.94002 2.67188 10.15V17.15C2.67188 19.36 4.46187 21.15 6.67188 21.15H16.6719C18.6919 21.15 20.3619 19.65 20.6319 17.71C20.6719 17.43 20.4419 17.2 20.1619 17.2H19.7119C17.8119 17.2 16.2119 15.78 16.0519 13.96ZM13.6719 11.9H7.67188C7.26188 11.9 6.92188 11.57 6.92188 11.15C6.92188 10.73 7.26188 10.4 7.67188 10.4H13.6719C14.0819 10.4 14.4219 10.74 14.4219 11.15C14.4219 11.56 14.0819 11.9 13.6719 11.9Z" fill="#292D32"/>
<path d="M14.8815 3.97998C15.1415 4.24998 14.9115 4.64998 14.5315 4.64998H6.70154C5.61154 4.64998 4.59154 4.96998 3.74154 5.51998C3.35154 5.76998 2.82154 5.49998 3.01154 5.06998C3.57154 3.75998 4.88154 2.84998 6.39154 2.84998H12.0115C13.1715 2.84998 14.2015 3.25998 14.8815 3.97998Z" fill="#292D32"/>
</svg>
