<svg width="25" height="24" viewBox="0 0 25 24" fill="none" xmlns="http://www.w3.org/2000/svg">
<path d="M22.6721 10.97V13.03C22.6721 13.58 22.2321 14.03 21.6721 14.05H19.7121C18.6321 14.05 17.6421 13.26 17.5521 12.18C17.4921 11.55 17.7321 10.96 18.1521 10.55C18.5221 10.17 19.0321 9.94995 19.5921 9.94995H21.6721C22.2321 9.96995 22.6721 10.42 22.6721 10.97Z" fill="#292D32"/>
<path d="M21.1419 15.55H19.7119C17.8119 15.55 16.2119 14.12 16.0519 12.3C15.9619 11.26 16.3419 10.22 17.1019 9.48C17.7419 8.82 18.6319 8.45 19.5919 8.45H21.1419C21.4319 8.45 21.6719 8.21 21.6419 7.92C21.4219 5.49 19.8119 3.83 17.4219 3.55C17.1819 3.51 16.9319 3.5 16.6719 3.5H7.67188C7.39187 3.5 7.12187 3.52 6.86188 3.56C4.31188 3.88 2.67188 5.78 2.67188 8.5V15.5C2.67188 18.26 4.91188 20.5 7.67188 20.5H16.6719C19.4719 20.5 21.4019 18.75 21.6419 16.08C21.6719 15.79 21.4319 15.55 21.1419 15.55ZM13.6719 9.75H7.67188C7.26188 9.75 6.92188 9.41 6.92188 9C6.92188 8.59 7.26188 8.25 7.67188 8.25H13.6719C14.0819 8.25 14.4219 8.59 14.4219 9C14.4219 9.41 14.0819 9.75 13.6719 9.75Z" fill="#292D32"/>
</svg>
