<svg width="25" height="24" viewBox="0 0 25 24" fill="none" xmlns="http://www.w3.org/2000/svg">
<path d="M12.6121 2.20995L10.2021 7.81995H7.79207C7.39207 7.81995 7.00207 7.84995 6.62207 7.92995L7.62207 5.52995L7.66207 5.43995L7.72207 5.27995C7.75207 5.20995 7.77207 5.14995 7.80207 5.09995C8.96207 2.40995 10.2621 1.56995 12.6121 2.20995Z" fill="#292D32"/>
<path d="M19.402 8.09002L19.382 8.08002C18.782 7.91002 18.172 7.82002 17.552 7.82002H11.292L13.542 2.59002L13.572 2.52002C13.712 2.57002 13.862 2.64002 14.012 2.69002L16.222 3.62002C17.452 4.13002 18.312 4.66002 18.842 5.30002C18.932 5.42002 19.012 5.53002 19.092 5.66002C19.182 5.80002 19.252 5.94002 19.292 6.09002C19.332 6.18002 19.362 6.26002 19.382 6.35002C19.532 6.86002 19.542 7.44002 19.402 8.09002Z" fill="#292D32"/>
<path d="M13.1914 17.66H13.4414C13.7414 17.66 13.9914 17.39 13.9914 17.06C13.9914 16.64 13.8714 16.58 13.6114 16.48L13.1914 16.33V17.66Z" fill="#292D32"/>
<path d="M18.9621 9.51995C18.5121 9.38995 18.0421 9.31995 17.5521 9.31995H7.79211C7.11211 9.31995 6.47211 9.44995 5.87211 9.70995C4.13211 10.4599 2.91211 12.1899 2.91211 14.1999V16.1499C2.91211 16.3899 2.93211 16.6199 2.96211 16.8599C3.18211 20.0399 4.88211 21.7399 8.06211 21.9499C8.29211 21.9799 8.52211 21.9999 8.77211 21.9999H16.5721C20.2721 21.9999 22.2221 20.2399 22.4121 16.7399C22.4221 16.5499 22.4321 16.3499 22.4321 16.1499V14.1999C22.4321 11.9899 20.9621 10.1299 18.9621 9.51995ZM13.9521 15.4999C14.4121 15.6599 15.0321 15.9999 15.0321 17.0599C15.0321 17.9699 14.3221 18.6999 13.4421 18.6999H13.1921V18.9199C13.1921 19.2099 12.9621 19.4399 12.6721 19.4399C12.3821 19.4399 12.1521 19.2099 12.1521 18.9199V18.6999H12.0621C11.1021 18.6999 10.3121 17.8899 10.3121 16.8899C10.3121 16.5999 10.5421 16.3699 10.8321 16.3699C11.1221 16.3699 11.3521 16.5999 11.3521 16.8899C11.3521 17.3099 11.6721 17.6599 12.0621 17.6599H12.1521V15.9699L11.3921 15.6999C10.9321 15.5399 10.3121 15.1999 10.3121 14.1399C10.3121 13.2299 11.0221 12.4999 11.9021 12.4999H12.1521V12.2799C12.1521 11.9899 12.3821 11.7599 12.6721 11.7599C12.9621 11.7599 13.1921 11.9899 13.1921 12.2799V12.4999H13.2821C14.2421 12.4999 15.0321 13.3099 15.0321 14.3099C15.0321 14.5999 14.8021 14.8299 14.5121 14.8299C14.2221 14.8299 13.9921 14.5999 13.9921 14.3099C13.9921 13.8899 13.6721 13.5399 13.2821 13.5399H13.1921V15.2299L13.9521 15.4999Z" fill="#292D32"/>
<path d="M11.3516 14.14C11.3516 14.56 11.4716 14.62 11.7316 14.72L12.1516 14.87V13.54H11.9016C11.5916 13.54 11.3516 13.81 11.3516 14.14Z" fill="#292D32"/>
</svg>
