<svg width="25" height="24" viewBox="0 0 25 24" fill="none" xmlns="http://www.w3.org/2000/svg">
<path d="M22.6497 11.41C22.3097 5.61001 17.0397 1.14002 10.9697 2.14002C6.78972 2.83002 3.43973 6.22 2.78973 10.4C2.40973 12.82 2.90975 15.11 3.99975 17L3.10973 20.31C2.90973 21.06 3.59971 21.74 4.33971 21.53L7.59972 20.63C9.07972 21.5 10.8097 22 12.6597 22C18.2997 22 22.9797 17.03 22.6497 11.41ZM17.5497 15.72C17.4597 15.9 17.3497 16.07 17.2097 16.23C16.9597 16.5 16.6897 16.7 16.3897 16.82C16.0897 16.95 15.7597 17.01 15.4097 17.01C14.8997 17.01 14.3497 16.89 13.7797 16.64C13.1997 16.39 12.6297 16.06 12.0597 15.65C11.4797 15.23 10.9397 14.76 10.4197 14.25C9.89973 13.73 9.43971 13.18 9.01971 12.61C8.60971 12.04 8.27973 11.47 8.03973 10.9C7.79973 10.33 7.67974 9.78002 7.67974 9.26002C7.67974 8.92002 7.73973 8.59002 7.85973 8.29002C7.97973 7.98002 8.16975 7.70002 8.43975 7.45002C8.75975 7.13002 9.10973 6.98002 9.47973 6.98002C9.61973 6.98002 9.7597 7.01002 9.8897 7.07002C10.0197 7.13002 10.1397 7.22001 10.2297 7.35001L11.3897 8.99C11.4797 9.12 11.5497 9.23 11.5897 9.34C11.6397 9.45 11.6597 9.55 11.6597 9.65C11.6597 9.77 11.6197 9.89002 11.5497 10.01C11.4797 10.13 11.3897 10.25 11.2697 10.37L10.8897 10.77C10.8297 10.83 10.8097 10.89 10.8097 10.97C10.8097 11.01 10.8197 11.05 10.8297 11.09C10.8497 11.13 10.8597 11.16 10.8697 11.19C10.9597 11.36 11.1197 11.57 11.3397 11.83C11.5697 12.09 11.8098 12.36 12.0698 12.62C12.3398 12.89 12.5997 13.13 12.8697 13.36C13.1297 13.58 13.3497 13.73 13.5197 13.82C13.5497 13.83 13.5797 13.85 13.6097 13.86C13.6497 13.88 13.6897 13.88 13.7397 13.88C13.8297 13.88 13.8898 13.85 13.9498 13.79L14.3297 13.41C14.4597 13.28 14.5798 13.19 14.6898 13.13C14.8098 13.06 14.9197 13.02 15.0497 13.02C15.1497 13.02 15.2497 13.04 15.3597 13.09C15.4697 13.14 15.5897 13.2 15.7097 13.29L17.3697 14.47C17.4997 14.56 17.5897 14.67 17.6497 14.79C17.6997 14.92 17.7297 15.04 17.7297 15.18C17.6697 15.35 17.6297 15.54 17.5497 15.72Z" fill="black"/>
</svg>
