<svg width="25" height="24" viewBox="0 0 25 24" fill="none" xmlns="http://www.w3.org/2000/svg">
<path d="M19.7599 12.59C19.5999 12.59 19.4399 12.54 19.2999 12.43C15.2699 9.32 10.0599 9.32 6.02985 12.43C5.69985 12.68 5.22985 12.62 4.97985 12.3C4.72985 11.97 4.78985 11.5 5.10985 11.25C9.69985 7.7 15.6299 7.7 20.2099 11.25C20.5399 11.5 20.5999 11.97 20.3399 12.3C20.2099 12.49 19.9899 12.59 19.7599 12.59Z" fill="#292D32"/>
<path d="M22.6699 9.11C22.5099 9.11 22.3499 9.06 22.2099 8.95C16.4099 4.47 8.91993 4.47 3.12993 8.95C2.79993 9.2 2.32993 9.14 2.07993 8.82C1.81993 8.5 1.87993 8.02 2.20993 7.77C8.55993 2.86 16.7699 2.86 23.1299 7.77C23.4599 8.02 23.5199 8.49 23.2599 8.82C23.1199 9.01 22.8899 9.11 22.6699 9.11Z" fill="#292D32"/>
<path d="M17.8795 16.24C17.7195 16.24 17.5595 16.19 17.4195 16.08C14.5395 13.85 10.8095 13.85 7.9195 16.08C7.5895 16.33 7.1195 16.27 6.8695 15.95C6.6195 15.62 6.6795 15.15 6.9995 14.9C10.4395 12.24 14.8895 12.24 18.3295 14.9C18.6595 15.15 18.7195 15.62 18.4595 15.95C18.3195 16.14 18.0995 16.24 17.8795 16.24Z" fill="#292D32"/>
<path d="M15.2701 19.9C15.1101 19.9 14.9501 19.85 14.8101 19.74C13.5101 18.73 11.8201 18.73 10.5201 19.74C10.1901 19.99 9.72009 19.93 9.47009 19.61C9.22009 19.28 9.28009 18.81 9.60009 18.56C11.4601 17.12 13.8601 17.12 15.7201 18.56C16.0501 18.81 16.1101 19.28 15.8501 19.61C15.7201 19.79 15.5001 19.9 15.2701 19.9Z" fill="#292D32"/>
</svg>
