<svg width="25" height="24" viewBox="0 0 25 24" fill="none" xmlns="http://www.w3.org/2000/svg">
<path d="M22.6698 13.85C22.5398 13.85 22.4098 13.82 22.2898 13.74L19.7898 12.24C18.4898 11.46 16.8698 11.46 15.5598 12.24C13.7798 13.31 11.5698 13.31 9.7898 12.24C8.4898 11.46 6.8698 11.46 5.5598 12.24L3.0598 13.74C2.6998 13.95 2.2398 13.84 2.0298 13.48C1.8198 13.13 1.9298 12.66 2.2898 12.45L4.7898 10.95C6.5698 9.87996 8.7798 9.87996 10.5598 10.95C11.8598 11.73 13.4798 11.73 14.7898 10.95C16.5698 9.87996 18.7798 9.87996 20.5598 10.95L23.0598 12.45C23.4198 12.66 23.5298 13.12 23.3198 13.48C23.1698 13.72 22.9198 13.85 22.6698 13.85Z" fill="#292D32"/>
<path d="M7.66976 6.85003C6.66976 6.85003 5.66976 6.58003 4.77976 6.05003L2.27976 4.55003C1.92976 4.33003 1.80976 3.87003 2.02976 3.52003C2.23976 3.16003 2.69976 3.05003 3.05976 3.26003L5.55976 4.76003C6.85976 5.54003 8.47976 5.54003 9.78976 4.76003C11.5698 3.69003 13.7798 3.69003 15.5598 4.76003C16.8598 5.54003 18.4798 5.54003 19.7898 4.76003L22.2898 3.26003C22.6498 3.05003 23.1098 3.16003 23.3198 3.52003C23.5298 3.87003 23.4198 4.34003 23.0598 4.55003L20.5598 6.05003C18.7798 7.12003 16.5698 7.12003 14.7898 6.05003C13.4898 5.27003 11.8698 5.27003 10.5598 6.05003C9.66976 6.58003 8.66976 6.85003 7.66976 6.85003Z" fill="#292D32"/>
<path d="M22.6698 20.85C22.5398 20.85 22.4098 20.82 22.2898 20.74L19.7898 19.24C18.4898 18.46 16.8698 18.46 15.5598 19.24C13.7798 20.31 11.5698 20.31 9.7898 19.24C8.4898 18.46 6.8698 18.46 5.5598 19.24L3.0598 20.74C2.6998 20.95 2.2398 20.84 2.0298 20.48C1.8198 20.13 1.9298 19.66 2.2898 19.45L4.7898 17.95C6.5698 16.88 8.7798 16.88 10.5598 17.95C11.8598 18.73 13.4798 18.73 14.7898 17.95C16.5698 16.88 18.7798 16.88 20.5598 17.95L23.0598 19.45C23.4198 19.66 23.5298 20.12 23.3198 20.48C23.1698 20.72 22.9198 20.85 22.6698 20.85Z" fill="#292D32"/>
</svg>
