<svg width="25" height="24" viewBox="0 0 25 24" fill="none" xmlns="http://www.w3.org/2000/svg">
<path d="M15.8398 13.77C15.8398 14.33 16.2998 14.79 16.8598 14.79H17.8799V12.76H16.8598C16.2998 12.75 15.8398 13.21 15.8398 13.77Z" fill="black"/>
<path d="M16.8597 2H8.4897C4.8497 2 2.67969 4.17 2.67969 7.81V16.18C2.67969 19.82 4.8497 21.99 8.4897 21.99H16.8597C20.4997 21.99 22.6697 19.82 22.6697 16.18V7.81C22.6697 4.17 20.4997 2 16.8597 2ZM12.9497 15.06C13.2097 15.38 13.1597 15.86 12.8297 16.11C12.6897 16.22 12.5297 16.27 12.3597 16.27C12.1397 16.27 11.9197 16.17 11.7697 15.99L9.52969 13.19L7.28969 15.99C7.13969 16.17 6.91969 16.27 6.69969 16.27C6.53969 16.27 6.36969 16.22 6.22969 16.11C5.90969 15.85 5.8497 15.38 6.1097 15.06L8.55969 12L6.1097 8.94C5.8497 8.62 5.89969 8.14001 6.22969 7.89001C6.54969 7.63001 7.02969 7.68001 7.27969 8.01001L9.5197 10.81L11.7597 8.01001C12.0197 7.69001 12.4897 7.63001 12.8097 7.89001C13.1297 8.15001 13.1897 8.62 12.9297 8.94L10.4797 12L12.9497 15.06ZM19.3797 15.53C19.3797 15.94 19.0397 16.28 18.6297 16.28H16.8597C15.4697 16.28 14.3397 15.15 14.3397 13.76C14.3397 12.37 15.4697 11.24 16.8597 11.24H17.8797V8.45999C17.8797 8.04999 18.2197 7.70999 18.6297 7.70999C19.0397 7.70999 19.3797 8.04999 19.3797 8.45999V15.53Z" fill="black"/>
</svg>
