<svg width="25" height="24" viewBox="0 0 25 24" fill="none" xmlns="http://www.w3.org/2000/svg">
<path d="M12.6699 2C7.14992 2 2.66992 6.48 2.66992 12C2.66992 17.52 7.14992 22 12.6699 22C18.1899 22 22.6699 17.52 22.6699 12C22.6699 6.48 18.1899 2 12.6699 2ZM19.1699 14.02C19.1699 14.2 19.0699 14.36 18.9199 14.45L16.9199 15.6C16.7699 15.69 16.5799 15.69 16.4199 15.6L14.4199 14.45C14.2599 14.36 14.1699 14.2 14.1699 14.02V13.19L12.9199 13.91C12.7699 14 12.5799 14 12.4199 13.91L11.1699 13.19V14.02C11.1699 14.2 11.0699 14.36 10.9199 14.45L8.91992 15.6C8.76992 15.69 8.57992 15.69 8.41992 15.6L6.41992 14.45C6.25992 14.36 6.16992 14.2 6.16992 14.02V11.74C6.16992 11.56 6.26992 11.4 6.41992 11.31L8.41992 10.16C8.56992 10.07 8.76992 10.07 8.91992 10.16L9.91992 10.74V9.61C9.91992 9.43 10.0199 9.26999 10.1699 9.17999L12.4199 7.89C12.5699 7.8 12.7599 7.8 12.9199 7.89L15.1699 9.17999C15.3299 9.26999 15.4199 9.43 15.4199 9.61V10.74L16.4199 10.16C16.5699 10.07 16.7599 10.07 16.9199 10.16L18.9199 11.31C19.0799 11.4 19.1699 11.56 19.1699 11.74V14.02Z" fill="black"/>
</svg>
