<svg width="24" height="24" viewBox="0 0 24 24" fill="none" xmlns="http://www.w3.org/2000/svg">
<path d="M3 13.0828C3 13.006 3 12.9676 3.00211 12.9352C3.0347 12.4341 3.43395 12.0348 3.93511 12.0022C3.96752 12.0001 4.00591 12.0001 4.08268 12.0001H19.9173C19.9941 12.0001 20.0325 12.0001 20.0649 12.0022C20.5661 12.0348 20.9653 12.4341 20.9979 12.9352C21 12.9676 21 13.006 21 13.0828C21 13.4785 21 13.6763 20.9859 13.8978C20.7773 17.1856 17.983 20.0868 14.7053 20.4188C14.4845 20.4411 14.3558 20.446 14.0982 20.4556C13.364 20.4832 12.6493 20.5001 12 20.5001C11.3507 20.5001 10.636 20.4832 9.90183 20.4556C9.64425 20.446 9.51545 20.4411 9.29467 20.4188C6.01705 20.0868 3.22272 17.1856 3.01406 13.8978C3 13.6763 3 13.4785 3 13.0828Z" stroke="#1C274C" stroke-width="1.5"/>
<path opacity="0.5" d="M6 20.0001L5 22.0001" stroke="#1C274C" stroke-width="1.5" stroke-linecap="round"/>
<path opacity="0.5" d="M18 20.0001L19 22.0001" stroke="#1C274C" stroke-width="1.5" stroke-linecap="round"/>
<path d="M2 12.0001H22" stroke="#1C274C" stroke-width="1.5" stroke-linecap="round"/>
<path opacity="0.5" d="M3 13.0001V4.38529C3 3.068 4.06787 2.00012 5.38516 2.00012C6.36047 2.00012 7.23752 2.59391 7.59973 3.49946L8 4.38529" stroke="#1C274C" stroke-width="1.5" stroke-linecap="round"/>
<path d="M7.97894 4.44732L8.30722 5.12166L7.97894 4.44732ZM6.3622 6.1925L7.05709 6.47469L6.3622 6.1925ZM10.5771 4.37801L10.2824 5.06771L10.5771 4.37801ZM6.34567 8.74174L5.64789 9.01669C5.7223 9.20553 5.87006 9.35614 6.05744 9.43414C6.24482 9.51215 6.45581 9.51088 6.64223 9.43062L6.34567 8.74174ZM12.3064 6.17566L12.603 6.86454C12.9751 6.70435 13.1527 6.27762 13.0042 5.90071L12.3064 6.17566ZM7.04346 8.46679C6.80176 7.85339 6.78647 7.1411 7.05709 6.47469L5.66731 5.91032C5.24701 6.94533 5.26967 8.05683 5.64789 9.01669L7.04346 8.46679ZM12.0099 5.48678L6.04912 8.05286L6.64223 9.43062L12.603 6.86454L12.0099 5.48678ZM10.2824 5.06771C10.904 5.33325 11.3671 5.83759 11.6086 6.45061L13.0042 5.90071C12.6259 4.94047 11.8871 4.12207 10.8717 3.68831L10.2824 5.06771ZM7.05709 6.47469C7.31127 5.84878 7.76836 5.38398 8.30722 5.12166L7.65066 3.77297C6.78346 4.19514 6.06261 4.93689 5.66731 5.91032L7.05709 6.47469ZM8.30722 5.12166C8.91461 4.82597 9.62514 4.7869 10.2824 5.06771L10.8717 3.68831C9.79395 3.22786 8.62883 3.29679 7.65066 3.77298L8.30722 5.12166Z" fill="#1C274C"/>
</svg>
