<svg width="24" height="24" viewBox="0 0 24 24" fill="none" xmlns="http://www.w3.org/2000/svg">
<path opacity="0.5" d="M2 12.0006C2 7.28657 2 4.92954 3.46447 3.46508C4.92893 2.00061 7.28595 2.00061 12 2.00061C16.714 2.00061 19.0711 2.00061 20.5355 3.46508C22 4.92954 22 7.28657 22 12.0006" stroke="#1C274C" stroke-width="1.5"/>
<path d="M14 6.00061H10C7.19974 6.00061 5.79961 6.00061 4.73005 6.54558C3.78924 7.02494 3.02433 7.78985 2.54497 8.73066C2 9.80022 2 11.2003 2 14.0006C2 16.8009 2 18.201 2.54497 19.2706C3.02433 20.2114 3.78924 20.9763 4.73005 21.4556C5.79961 22.0006 7.19974 22.0006 10 22.0006H14C16.8003 22.0006 18.2004 22.0006 19.27 21.4556C20.2108 20.9763 20.9757 20.2114 21.455 19.2706C22 18.201 22 16.8009 22 14.0006C22 11.2003 22 9.80022 21.455 8.73066C20.9757 7.78985 20.2108 7.02494 19.27 6.54558C18.2004 6.00061 16.8003 6.00061 14 6.00061Z" stroke="#1C274C" stroke-width="1.5"/>
<path opacity="0.5" d="M17 6.00061V10.8082C17 11.7831 17 12.2706 16.8709 12.5613C16.5766 13.2239 15.8506 13.5812 15.1461 13.4101C14.8369 13.335 14.4507 13.0376 13.6782 12.4429C13.2421 12.107 13.024 11.9391 12.797 11.8405C12.2886 11.6196 11.7114 11.6196 11.203 11.8405C10.976 11.9391 10.7579 12.107 10.3218 12.4429C9.5493 13.0376 9.16307 13.335 8.85391 13.4101C8.14942 13.5812 7.42342 13.2239 7.12914 12.5613C7 12.2706 7 11.7831 7 10.8082V6.00061" stroke="#1C274C" stroke-width="1.5"/>
</svg>
