<svg width="24" height="24" viewBox="0 0 24 24" fill="none" xmlns="http://www.w3.org/2000/svg">
<path d="M12.728 5.53562C14.2901 3.97353 16.8227 3.97345 18.3848 5.53555C19.9469 7.09765 19.9469 9.63038 18.3848 11.1925M3.57952 12.9792L2.91264 11.883C2.04059 10.1745 2.60083 7.96511 4.40773 7.01107C5.26153 6.56027 6.21846 6.13185 7.16933 5.86002C10.0288 5.04256 12.5347 5.34229 12.5347 5.34229L18.5779 11.3855C18.5779 11.3855 18.8777 13.8914 18.0602 16.7509C17.7884 17.7018 17.3599 18.6587 16.9091 19.5125C15.9551 21.3194 13.7457 21.8796 12.0373 21.0076L10.9409 20.3406C7.93352 18.5111 5.40903 15.9866 3.57952 12.9792Z" stroke="#1C274C" stroke-width="1.5"/>
<path opacity="0.5" d="M20.5061 3.41406L18.3848 5.53538" stroke="#1C274C" stroke-width="1.5" stroke-linecap="round"/>
</svg>
