<svg width="24" height="24" viewBox="0 0 24 24" fill="none" xmlns="http://www.w3.org/2000/svg">
<path d="M14.381 9.02714C14.9767 8.81904 15.6178 8.70581 16.2857 8.70581C16.9404 8.70581 17.5693 8.81461 18.1551 9.01491C20.393 9.78016 22 11.8811 22 14.3529C22 17.4717 19.4416 19.9999 16.2857 19.9999H6.28571C3.91878 19.9999 2 18.1037 2 15.7646C2 13.4255 3.91878 11.5293 6.28571 11.5293C6.56983 11.5293 6.8475 11.5567 7.11616 11.6088C7.68059 11.7183 8.20528 11.9373 8.66667 12.2425" stroke="#1C274C" stroke-width="1.5" stroke-linecap="round"/>
<path opacity="0.5" d="M7.11622 11.6089C6.88712 10.9978 6.76196 10.3369 6.76196 9.64706C6.76196 6.52827 9.32034 4 12.4762 4C15.4159 4 17.8372 6.19371 18.1551 9.01498" stroke="#1C274C" stroke-width="1.5" stroke-linecap="round"/>
</svg>
