<svg width="24" height="24" viewBox="0 0 24 24" fill="none" xmlns="http://www.w3.org/2000/svg">
<path opacity="0.5" d="M2 5.68433C2 3.6496 3.64948 2.00012 5.68421 2.00012C7.71894 2.00012 9.36842 3.6496 9.36842 5.68433V15.0001" stroke="#1C274C" stroke-width="1.5" stroke-linecap="round"/>
<path d="M22 14.5001V15.6843C22 19.1724 19.1723 22.0001 15.6842 22.0001C12.1961 22.0001 9.36842 19.1724 9.36842 15.6843V14.6317M22 14.5001C22 15.8808 19.0539 17.0002 16 17.0002C12.9461 17.0002 9.36842 16.0124 9.36842 14.6317M22 14.5001C22 13.1194 19.0539 12.0001 16 12.0001C12.9461 12.0001 9.36842 13.251 9.36842 14.6317" stroke="#1C274C" stroke-width="1.5"/>
</svg>
