<svg width="24" height="24" viewBox="0 0 24 24" fill="none" xmlns="http://www.w3.org/2000/svg">
<g clip-path="url(#clip0_1_21956)">
<path d="M13 2.0011C16.1143 2.01021 17.7653 2.10865 18.8284 3.17174C20 4.34331 20 6.22893 20 10.0002V14.0002C20 17.7714 20 19.657 18.8284 20.8286C17.6569 22.0002 15.7712 22.0002 12 22.0002C8.22876 22.0002 6.34315 22.0002 5.17157 20.8286C4 19.657 4 17.7714 4 14.0002V11.0011" stroke="#1C274C" stroke-width="1.5" stroke-linecap="round"/>
<path d="M2.73016 4.00012H1.98016H2.73016ZM2.73016 4.80012L2.17621 5.30572C2.31831 5.46142 2.51937 5.55012 2.73016 5.55012C2.94096 5.55012 3.14202 5.46142 3.28412 5.30572L2.73016 4.80012ZM4.01428 4.50572C4.29352 4.19978 4.27187 3.7254 3.96593 3.44616C3.65998 3.16693 3.1856 3.18858 2.90637 3.49452L4.01428 4.50572ZM2.55396 3.49452C2.27472 3.18858 1.80034 3.16693 1.4944 3.44616C1.18846 3.7254 1.16681 4.19978 1.44604 4.50572L2.55396 3.49452ZM8.53968 1.83059C8.79878 2.15377 9.27081 2.20571 9.59398 1.94661C9.91715 1.68751 9.9691 1.21549 9.71 0.892316L8.53968 1.83059ZM6.38098 -0.749878C3.88747 -0.749878 1.98016 1.44272 1.98016 4.00012H3.48016C3.48016 2.13925 4.84191 0.750122 6.38098 0.750122V-0.749878ZM1.98016 4.00012L1.98016 4.80012H3.48016L3.48016 4.00012L1.98016 4.00012ZM3.28412 5.30572L4.01428 4.50572L2.90637 3.49452L2.17621 4.29452L3.28412 5.30572ZM3.28412 4.29452L2.55396 3.49452L1.44604 4.50572L2.17621 5.30572L3.28412 4.29452ZM9.71 0.892316C8.9139 -0.100668 7.72551 -0.749878 6.38098 -0.749878V0.750122C7.22351 0.750122 7.99759 1.15444 8.53968 1.83059L9.71 0.892316Z" fill="#1C274C"/>
<path opacity="0.5" d="M10.2698 3.20032L10.8238 2.69472C10.6817 2.53902 10.4806 2.45032 10.2698 2.45032C10.059 2.45032 9.85798 2.53902 9.71588 2.69472L10.2698 3.20032ZM8.98572 3.49472C8.70648 3.80066 8.72813 4.27504 9.03408 4.55427C9.34002 4.83351 9.8144 4.81186 10.0936 4.50592L8.98572 3.49472ZM10.446 4.50592C10.7253 4.81186 11.1997 4.83351 11.5056 4.55427C11.8115 4.27504 11.8332 3.80066 11.554 3.49472L10.446 4.50592ZM4.57638 6.3065C4.29935 5.99855 3.82514 5.97349 3.5172 6.25052C3.20925 6.52754 3.18419 7.00176 3.46122 7.3097L4.57638 6.3065ZM6.61902 8.75032C9.11253 8.75032 11.0198 6.55772 11.0198 4.00032H9.51984C9.51984 5.86119 8.15809 7.25032 6.61902 7.25032V8.75032ZM11.0198 4.00032V3.20032H9.51984V4.00032H11.0198ZM9.71588 2.69472L8.98572 3.49472L10.0936 4.50592L10.8238 3.70592L9.71588 2.69472ZM9.71588 3.70592L10.446 4.50592L11.554 3.49472L10.8238 2.69472L9.71588 3.70592ZM3.46122 7.3097C4.25149 8.18816 5.3685 8.75032 6.61902 8.75032V7.25032C5.83415 7.25032 5.11029 6.9 4.57638 6.3065L3.46122 7.3097Z" fill="#1C274C"/>
<path opacity="0.5" d="M15 19.0001H9" stroke="#1C274C" stroke-width="1.5" stroke-linecap="round"/>
</g>
<defs>
<clipPath id="clip0_1_21956">
<rect width="24" height="24" fill="white"/>
</clipPath>
</defs>
</svg>
