<svg width="24" height="24" viewBox="0 0 24 24" fill="none" xmlns="http://www.w3.org/2000/svg">
<path d="M5.55556 18.0001H18.4444C20.4081 18.0001 22 16.4082 22 14.4446V12.0001C22 10.8956 21.1046 10.0001 20 10.0001C18.8954 10.0001 18 10.8956 18 12.0001V13.2001C18 13.6419 17.6418 14.0001 17.2 14.0001H6.8C6.35817 14.0001 6 13.6419 6 13.2001V12.0001C6 10.8956 5.10457 10.0001 4 10.0001C2.89543 10.0001 2 10.8956 2 12.0001V14.4446C2 16.4082 3.59188 18.0001 5.55556 18.0001Z" stroke="#1C274C" stroke-width="1.5"/>
<path opacity="0.5" d="M16.7804 5.07698L16.634 5.81257L16.7804 5.07698ZM19.9231 8.21976L20.6587 8.07344L20.6587 8.07344L19.9231 8.21976ZM7.21964 5.07698L7.36596 5.81257L7.21964 5.07698ZM4.07686 8.21976L4.81245 8.36608L4.07686 8.21976ZM9 5.75012H15V4.25012H9V5.75012ZM15 5.75012C15.9653 5.75012 16.3384 5.75375 16.634 5.81257L16.9267 4.34139C16.4496 4.24649 15.8934 4.25012 15 4.25012V5.75012ZM20.75 10.0001C20.75 9.10676 20.7536 8.55055 20.6587 8.07344L19.1876 8.36608C19.2464 8.66176 19.25 9.03486 19.25 10.0001H20.75ZM16.634 5.81257C17.9233 6.06902 18.9311 7.07683 19.1876 8.36608L20.6587 8.07344C20.2839 6.18916 18.811 4.7162 16.9267 4.34139L16.634 5.81257ZM9 4.25012C8.10664 4.25012 7.55043 4.24649 7.07332 4.34139L7.36596 5.81257C7.66164 5.75375 8.03474 5.75012 9 5.75012V4.25012ZM4.75 10.0001C4.75 9.03486 4.75363 8.66176 4.81245 8.36608L3.34127 8.07344C3.24637 8.55055 3.25 9.10676 3.25 10.0001H4.75ZM7.07332 4.34139C5.18904 4.7162 3.71608 6.18916 3.34127 8.07344L4.81245 8.36608C5.06889 7.07683 6.07671 6.06902 7.36596 5.81257L7.07332 4.34139ZM11.25 5.00012V14.0001H12.75V5.00012H11.25Z" fill="#1C274C"/>
<path opacity="0.5" d="M20 19.0001V18.0001M4 19.0001V18.0001" stroke="#1C274C" stroke-width="1.5" stroke-linecap="round"/>
</svg>
