<svg width="24" height="24" viewBox="0 0 24 24" fill="none" xmlns="http://www.w3.org/2000/svg">
<path d="M6.18177 10.5457L6.7121 11.076L6.18177 10.5457ZM13.4545 17.8184L13.9848 18.3488L13.4545 17.8184ZM17.7373 9.01035L17.207 9.54068L17.7373 9.01035ZM19.0238 10.5694L19.7286 10.3129L19.0238 10.5694ZM17.7373 13.5356L17.207 13.0053L17.7373 13.5356ZM19.0238 11.9765L19.7286 12.233L19.0238 11.9765ZM14.9898 6.26287L15.5202 5.73254L14.9898 6.26287ZM13.4308 4.97635L13.1743 5.68112L13.4308 4.97635ZM10.4646 6.26287L10.9949 6.7932V6.7932L10.4646 6.26287ZM12.0237 4.97635L12.2802 5.68112L12.0237 4.97635ZM19.4696 7.43967C19.7625 7.73256 20.2374 7.73256 20.5303 7.43967C20.8232 7.14677 20.8232 6.6719 20.5303 6.37901L19.4696 7.43967ZM17.6212 3.46991C17.3283 3.17702 16.8534 3.17702 16.5605 3.46991C16.2676 3.76281 16.2676 4.23768 16.5605 4.53057L17.6212 3.46991ZM14.4595 6.7932L17.207 9.54068L18.2677 8.48002L15.5202 5.73254L14.4595 6.7932ZM17.207 13.0053L12.9242 17.2881L13.9848 18.3488L18.2677 14.0659L17.207 13.0053ZM6.7121 11.076L10.9949 6.7932L9.93427 5.73254L5.65144 10.0154L6.7121 11.076ZM6.7121 17.2881C4.99668 15.5727 4.99668 12.7914 6.7121 11.076L5.65144 10.0154C3.35024 12.3166 3.35024 16.0476 5.65144 18.3488L6.7121 17.2881ZM12.9242 17.2881C11.2087 19.0035 8.42751 19.0035 6.7121 17.2881L5.65144 18.3488C7.95264 20.65 11.6836 20.65 13.9848 18.3488L12.9242 17.2881ZM17.207 9.54068C17.5919 9.92561 17.8507 10.1851 18.0359 10.4006C18.2159 10.6101 18.2849 10.7321 18.3191 10.8259L19.7286 10.3129C19.6068 9.97817 19.4094 9.69752 19.1736 9.42305C18.9429 9.15452 18.6364 8.84878 18.2677 8.48002L17.207 9.54068ZM18.2677 14.0659C18.6364 13.6972 18.9429 13.3914 19.1736 13.1229C19.4094 12.8484 19.6068 12.5678 19.7286 12.233L18.3191 11.72C18.2849 11.8138 18.2159 11.9358 18.0359 12.1453C17.8507 12.3608 17.5919 12.6203 17.207 13.0053L18.2677 14.0659ZM18.3191 10.8259C18.4242 11.1147 18.4242 11.4312 18.3191 11.72L19.7286 12.233C19.9543 11.6129 19.9543 10.9331 19.7286 10.3129L18.3191 10.8259ZM15.5202 5.73254C15.1514 5.36378 14.8457 5.05733 14.5771 4.8266C14.3027 4.59077 14.022 4.39342 13.6873 4.27158L13.1743 5.68112C13.268 5.71526 13.3901 5.78431 13.5996 5.96433C13.8151 6.14944 14.0746 6.40827 14.4595 6.7932L15.5202 5.73254ZM10.9949 6.7932C11.3799 6.40827 11.6394 6.14945 11.8548 5.96433C12.0644 5.78431 12.1864 5.71526 12.2802 5.68112L11.7672 4.27158C11.4324 4.39342 11.1518 4.59077 10.8773 4.8266C10.6088 5.05733 10.303 5.36378 9.93427 5.73254L10.9949 6.7932ZM13.6873 4.27158C13.0671 4.04587 12.3873 4.04587 11.7672 4.27158L12.2802 5.68112C12.5689 5.57602 12.8855 5.57602 13.1743 5.68112L13.6873 4.27158ZM18.0151 5.98512L19.4696 7.43967L20.5303 6.37901L19.0757 4.92446L18.0151 5.98512ZM19.0757 4.92446L17.6212 3.46991L16.5605 4.53057L18.0151 5.98512L19.0757 4.92446Z" fill="#1C274C"/>
<path d="M17.091 14.1822L9.81824 6.90942" stroke="#1C274C" stroke-width="1.5" stroke-linecap="round"/>
<path opacity="0.5" d="M6.18182 17.8186L4 20.0004" stroke="#1C274C" stroke-width="1.5" stroke-linecap="round"/>
<path opacity="0.5" d="M15.8332 7.10632C15.5403 7.39922 15.5403 7.87409 15.8332 8.16698C16.1261 8.45988 16.601 8.45988 16.8939 8.16698L15.8332 7.10632ZM19.0757 5.98516C19.3686 5.69227 19.3686 5.2174 19.0757 4.9245C18.7828 4.63161 18.3079 4.63161 18.015 4.9245L19.0757 5.98516ZM16.8939 8.16698L19.0757 5.98516L18.015 4.9245L15.8332 7.10632L16.8939 8.16698Z" fill="#1C274C"/>
<path opacity="0.5" d="M14.3787 16.8942C14.6716 17.1871 15.1464 17.1871 15.4393 16.8942C15.7322 16.6013 15.7322 16.1264 15.4393 15.8336L14.3787 16.8942ZM12.554 12.9482C12.2611 12.6553 11.7862 12.6553 11.4933 12.9482C11.2004 13.2411 11.2004 13.716 11.4933 14.0088L12.554 12.9482ZM12.7423 18.5306C13.0352 18.8235 13.5101 18.8235 13.803 18.5306C14.0959 18.2377 14.0959 17.7628 13.803 17.4699L12.7423 18.5306ZM12.157 15.824C11.8641 15.5311 11.3893 15.5311 11.0964 15.824C10.8035 16.1169 10.8035 16.5917 11.0964 16.8846L12.157 15.824ZM15.4393 15.8336L12.554 12.9482L11.4933 14.0088L14.3787 16.8942L15.4393 15.8336ZM13.803 17.4699L12.157 15.824L11.0964 16.8846L12.7423 18.5306L13.803 17.4699Z" fill="#1C274C"/>
</svg>
