<svg width="24" height="24" viewBox="0 0 24 24" fill="none" xmlns="http://www.w3.org/2000/svg">
<path d="M2 12.0001C2 7.28608 2 4.92905 3.17157 3.46459C4.34315 2.00012 6.22876 2.00012 10 2.00012H14C17.7712 2.00012 19.6569 2.00012 20.8284 3.46459C22 4.92905 22 7.28608 22 12.0001C22 16.7142 22 19.0712 20.8284 20.5357C19.6569 22.0001 17.7712 22.0001 14 22.0001H10C6.22876 22.0001 4.34315 22.0001 3.17157 20.5357C2 19.0712 2 16.7142 2 12.0001Z" stroke="#1C274C" stroke-width="1.5"/>
<rect x="6" y="8.00012" width="8" height="8" rx="4" stroke="#1C274C" stroke-width="1.5"/>
<path opacity="0.5" d="M14.6646 16.3293C14.2941 16.5145 14.1439 16.965 14.3292 17.3355C14.5144 17.706 14.9649 17.8562 15.3354 17.6709L14.6646 16.3293ZM15.8944 16.5529L15.559 15.8821H15.559L15.8944 16.5529ZM15.3354 17.6709L16.2298 17.2237L15.559 15.8821L14.6646 16.3293L15.3354 17.6709ZM17.75 14.7641V10.5001H16.25V14.7641H17.75ZM16.2298 17.2237C17.1615 16.7579 17.75 15.8057 17.75 14.7641H16.25C16.25 15.2375 15.9825 15.6703 15.559 15.8821L16.2298 17.2237ZM17 9.75012C16.5858 9.75012 16.25 9.41434 16.25 9.00012H14.75C14.75 10.2428 15.7574 11.2501 17 11.2501V9.75012ZM17.75 9.00012C17.75 9.41434 17.4142 9.75012 17 9.75012V11.2501C18.2426 11.2501 19.25 10.2428 19.25 9.00012H17.75ZM17 8.25012C17.4142 8.25012 17.75 8.58591 17.75 9.00012H19.25C19.25 7.75748 18.2426 6.75012 17 6.75012V8.25012ZM17 6.75012C15.7574 6.75012 14.75 7.75748 14.75 9.00012H16.25C16.25 8.58591 16.5858 8.25012 17 8.25012V6.75012Z" fill="#1C274C"/>
</svg>
