<svg width="24" height="24" viewBox="0 0 24 24" fill="none" xmlns="http://www.w3.org/2000/svg">
<path d="M16.5395 4.62012H15.4995C13.9095 4.62012 13.2695 5.22012 13.2695 6.74012V18.6201H18.7695V6.74012C18.7595 5.22012 18.1195 4.62012 16.5395 4.62012Z" fill="#292D32"/>
<path opacity="0.4" d="M8.02 9.62012H6.98C5.39 9.62012 4.75 10.2301 4.75 11.7401V18.6201H10.25V11.7401C10.25 10.2301 9.6 9.62012 8.02 9.62012Z" fill="#292D32"/>
<path d="M2.75 17.8799H21.25C21.66 17.8799 22 18.2199 22 18.6299C22 19.0399 21.66 19.3799 21.25 19.3799H2.75C2.34 19.3799 2 19.0399 2 18.6199C2 18.1999 2.34 17.8799 2.75 17.8799Z" fill="#292D32"/>
</svg>
