<svg width="24" height="24" viewBox="0 0 24 24" fill="none" xmlns="http://www.w3.org/2000/svg">
<path opacity="0.5" d="M22 11.9756V14.0005C22 16.8289 22 18.2431 21.1213 19.1218C20.2426 20.0005 18.8284 20.0005 16 20.0005H8C5.17157 20.0005 3.75736 20.0005 2.87868 19.1218C2 18.2431 2 16.8289 2 14.0005V11.9756C2 10.1299 2 9.20712 2.39219 8.51747C2.65908 8.04816 3.04767 7.65957 3.51698 7.39268C4.20663 7.00049 5.12945 7.00049 6.97508 7.00049H7.25464C7.37758 7.00049 7.43905 7.00049 7.49576 6.99399C7.79166 6.9601 8.05705 6.79608 8.21969 6.54658C8.25086 6.49877 8.27835 6.44378 8.33331 6.33387L8.33333 6.33382C8.44329 6.11391 8.49827 6.00395 8.56062 5.90831C8.8859 5.4093 9.41668 5.08126 10.0085 5.01348C10.1219 5.00049 10.2448 5.00049 10.4907 5.00049H13.5093C13.7552 5.00049 13.8781 5.00049 13.9915 5.01348C14.5833 5.08126 15.1141 5.4093 15.4394 5.90831C15.5017 6.00394 15.5567 6.11394 15.6667 6.33382C15.7216 6.44378 15.7491 6.49876 15.7803 6.54658C15.943 6.79608 16.2083 6.9601 16.5042 6.99399C16.561 7.00049 16.6224 7.00049 16.7454 7.00049H17.0249C18.8706 7.00049 19.7934 7.00049 20.483 7.39268C20.9523 7.65957 21.3409 8.04816 21.6078 8.51747C22 9.20712 22 10.1299 22 11.9756Z" fill="#1C274C"/>
<path fill-rule="evenodd" clip-rule="evenodd" d="M16.5 11.2505C16.9142 11.2505 17.25 11.5863 17.25 12.0005V12.7505H18C18.4142 12.7505 18.75 13.0863 18.75 13.5005C18.75 13.9147 18.4142 14.2505 18 14.2505H17.25V15.0005C17.25 15.4147 16.9142 15.7505 16.5 15.7505C16.0858 15.7505 15.75 15.4147 15.75 15.0005V14.2505H15C14.5858 14.2505 14.25 13.9147 14.25 13.5005C14.25 13.0863 14.5858 12.7505 15 12.7505H15.75V12.0005C15.75 11.5863 16.0858 11.2505 16.5 11.2505ZM5.25 13.5005C5.25 13.0863 5.58579 12.7505 6 12.7505H9C9.41421 12.7505 9.75 13.0863 9.75 13.5005C9.75 13.9147 9.41421 14.2505 9 14.2505H6C5.58579 14.2505 5.25 13.9147 5.25 13.5005Z" fill="#1C274C"/>
<path d="M19.044 3.25049C19.4769 3.25044 19.8737 3.25039 20.1965 3.29379C20.552 3.34159 20.9277 3.45404 21.2367 3.76306C21.5458 4.07208 21.6582 4.44781 21.706 4.80329C21.7494 5.12608 21.7493 7.52296 21.7493 7.95575L21.7493 8.81943C21.709 8.71308 21.6622 8.61304 21.6078 8.51747C21.3409 8.04816 20.9523 7.65957 20.483 7.39268C19.7934 7.00049 18.8706 7.00049 17.0249 7.00049H16.7454C16.6224 7.00049 16.561 7.00049 16.5042 6.99399C16.4285 6.98532 16.3547 6.96811 16.2842 6.94312V4.87148C16.2868 4.8484 16.2896 4.82567 16.2926 4.80329C16.3404 4.44781 16.4528 4.07208 16.7619 3.76306C17.0709 3.45404 17.4466 3.34159 17.8021 3.29379C18.1249 3.25039 18.5217 3.25044 18.9545 3.25049H19.044Z" fill="#1C274C"/>
<path d="M4.98913 3.25049C4.55632 3.25044 4.15949 3.25039 3.83668 3.29379C3.48119 3.34159 3.10547 3.45404 2.79645 3.76306C2.48742 4.07208 2.37497 4.44781 2.32718 4.80329C2.28378 5.12608 2.28383 7.52296 2.28388 7.95575L2.28388 8.73675C2.31616 8.66074 2.35212 8.58789 2.39217 8.51747C2.65905 8.04816 3.04765 7.65957 3.51696 7.39268C4.20661 7.00049 5.12942 7.00049 6.97505 7.00049H7.25462C7.37755 7.00049 7.43902 7.00049 7.49573 6.99399C7.58346 6.98394 7.66851 6.96246 7.749 6.93069V4.87148C7.74639 4.8484 7.74359 4.82567 7.74058 4.80329C7.69279 4.44781 7.58034 4.07208 7.27132 3.76306C6.9623 3.45404 6.58657 3.34159 6.23109 3.29379C5.90828 3.25039 5.51145 3.25044 5.07863 3.25049H4.98913Z" fill="#1C274C"/>
</svg>
