<svg width="24" height="24" viewBox="0 0 24 24" fill="none" xmlns="http://www.w3.org/2000/svg">
<path d="M12.75 21.0004C16.3552 20.9998 18.183 20.9742 19.3284 19.8288C20.5 18.6572 20.5 16.7716 20.5 13.0004V6.99841C20.3548 7.00045 20.1509 7.00041 20 7.00038H4C3.84905 7.00041 3.6452 7.00045 3.5 6.99841V13.0004C3.5 16.7716 3.5 18.6572 4.67157 19.8288C5.81697 20.9742 7.64485 20.9998 11.25 21.0004L11.25 13.9548L9.55748 15.8354C9.28038 16.1433 8.80617 16.1683 8.49828 15.8912C8.1904 15.6141 8.16544 15.1399 8.44254 14.832L11.4425 11.4986C11.5848 11.3406 11.7874 11.2504 12 11.2504C12.2126 11.2504 12.4152 11.3406 12.5575 11.4986L15.5575 14.832C15.8346 15.1399 15.8096 15.6141 15.5017 15.8912C15.1938 16.1683 14.7196 16.1433 14.4425 15.8354L12.75 13.9548L12.75 21.0004Z" fill="#1C274C"/>
<g opacity="0.5">
<path d="M2 5.00037C2 4.05756 2 3.58615 2.29289 3.29326C2.58579 3.00037 3.05719 3.00037 4 3.00037H20C20.9428 3.00037 21.4142 3.00037 21.7071 3.29326C22 3.58615 22 4.05756 22 5.00037C22 5.94318 22 6.41458 21.7071 6.70747C21.4142 7.00037 20.9428 7.00037 20 7.00037H4C3.05719 7.00037 2.58579 7.00037 2.29289 6.70747C2 6.41458 2 5.94318 2 5.00037Z" fill="#1C274C"/>
</g>
</svg>
