<svg width="24" height="24" viewBox="0 0 24 24" fill="none" xmlns="http://www.w3.org/2000/svg">
<path fill-rule="evenodd" clip-rule="evenodd" d="M7.2915 4.78595C4.78799 5.52343 3.03694 7.79749 3.00057 10.4167C3 10.4578 3 10.504 3 10.5964V12.9195C3.10197 12.9194 3.2056 12.9401 3.30479 12.9839C8.84065 15.4277 15.1597 15.4277 20.6956 12.9839C20.7947 12.9402 20.8982 12.9195 21 12.9195V10.5964C21 10.504 21 10.4578 20.9994 10.4167C20.9631 7.79751 19.212 5.52346 16.7085 4.78597C16.4308 4.69495 15.5892 4.53224 15.2032 4.46226C13.0832 4.1021 10.9169 4.1021 8.79689 4.46225C8.39226 4.53883 7.52471 4.71079 7.2915 4.78595ZM10 11.9263C9.58579 11.9263 9.25 12.2598 9.25 12.6712C9.25 13.0826 9.58579 13.4161 10 13.4161H14C14.4142 13.4161 14.75 13.0826 14.75 12.6712C14.75 12.2598 14.4142 11.9263 14 11.9263H10Z" fill="#1C274C"/>
<path opacity="0.5" d="M8.87313 3.99224C9.17888 3.11698 10.0165 2.49038 10.9995 2.49038H12.9995C13.9826 2.49038 14.8202 3.11698 15.1259 3.99224C15.1714 4.12237 15.1935 4.27254 15.2027 4.46232C15.5887 4.5323 16.4303 4.69502 16.7081 4.78604V4.72502C16.7081 4.3865 16.6965 3.9431 16.5431 3.50385C16.0344 2.04763 14.641 1.00049 12.9995 1.00049H10.9995C9.35804 1.00049 7.96471 2.04763 7.45601 3.50384C7.30256 3.9431 7.29102 4.3865 7.29102 4.72502V4.78602C7.52422 4.71086 8.39178 4.5389 8.7964 4.46231C8.80554 4.27254 8.82767 4.12237 8.87313 3.99224Z" fill="#1C274C"/>
<path opacity="0.5" d="M21 14.4772C20.1 14.8591 19.1814 15.1812 18.2502 15.4435V16.6443C18.2502 17.0557 17.9144 17.3893 17.5002 17.3893C17.086 17.3893 16.7502 17.0557 16.7502 16.6443V15.8122C12.1726 16.7757 7.36827 16.3307 3 14.4771V16.0234C3 18.1271 4.47101 19.9485 6.53853 20.4048C10.1356 21.1988 13.8644 21.1988 17.4615 20.4048C19.529 19.9485 21 18.1271 21 16.0234V14.4772Z" fill="#1C274C"/>
</svg>
