<svg width="24" height="24" viewBox="0 0 24 24" fill="none" xmlns="http://www.w3.org/2000/svg">
<path opacity="0.5" d="M4.0828 10.8948C4.52171 8.55388 4.74117 7.38343 5.57434 6.69196C6.40752 6.00049 7.59835 6.00049 9.98003 6.00049H14.0209C16.4026 6.00049 17.5934 6.00049 18.4266 6.69196C19.2598 7.38343 19.4792 8.55387 19.9181 10.8948L20.6681 14.8948C21.2853 18.1865 21.5939 19.8323 20.6942 20.9164C19.7945 22.0005 18.12 22.0005 14.7709 22.0005H9.23003C5.88097 22.0005 4.20644 22.0005 3.30672 20.9164C2.40701 19.8323 2.7156 18.1865 3.3328 14.8948L4.0828 10.8948Z" fill="#1C274C"/>
<path d="M9.75 5.00049C9.75 3.75785 10.7574 2.75049 12 2.75049C13.2426 2.75049 14.25 3.75785 14.25 5.00049V6.00049C14.25 6.00048 14.25 6.0005 14.25 6.00049C14.816 6.00067 15.3119 6.00223 15.7499 6.01537C15.75 6.01042 15.75 6.00546 15.75 6.00049V5.00049C15.75 2.92942 14.0711 1.25049 12 1.25049C9.92893 1.25049 8.25 2.92942 8.25 5.00049V6.00049C8.25 6.00547 8.25005 6.01044 8.25015 6.0154C8.68814 6.00224 9.18397 6.00069 9.75 6.00051C9.75 6.0005 9.75 6.00052 9.75 6.00051V5.00049Z" fill="#1C274C"/>
<path d="M8.25983 10.8773C8.32793 10.4687 8.71435 10.1927 9.12293 10.2608C9.53151 10.3289 9.80752 10.7153 9.73942 11.1239L8.73942 17.1239C8.67133 17.5325 8.28491 17.8085 7.87633 17.7404C7.46775 17.6723 7.19174 17.2859 7.25983 16.8773L8.25983 10.8773Z" fill="#1C274C"/>
<path d="M14.8766 10.2608C15.2851 10.1927 15.6716 10.4687 15.7397 10.8773L16.7397 16.8773C16.8078 17.2859 16.5317 17.6723 16.1232 17.7404C15.7146 17.8085 15.3282 17.5325 15.2601 17.1239L14.2601 11.1239C14.192 10.7153 14.468 10.3289 14.8766 10.2608Z" fill="#1C274C"/>
</svg>
