<svg width="24" height="24" viewBox="0 0 24 24" fill="none" xmlns="http://www.w3.org/2000/svg">
<path opacity="0.5" d="M5.57386 4.69196C4.74068 5.38343 4.52122 6.55388 4.08231 8.89476L3.33231 12.8948C2.71512 16.1865 2.40652 17.8323 3.30624 18.9164C4.20595 20.0005 5.88048 20.0005 9.22954 20.0005H14.7704C18.1195 20.0005 19.794 20.0005 20.6937 18.9164C21.5934 17.8323 21.2849 16.1865 20.6677 12.8948L19.9177 8.89476C19.4787 6.55387 19.2593 5.38343 18.4261 4.69196C17.5929 4.00049 16.4021 4.00049 14.0204 4.00049H9.97954C7.59787 4.00049 6.40703 4.00049 5.57386 4.69196Z" fill="#1C274C"/>
<path d="M12.0004 9.25045C11.0219 9.25045 10.1875 8.62542 9.87823 7.75051C9.7402 7.35998 9.31171 7.15528 8.92117 7.29332C8.53063 7.43135 8.32594 7.85985 8.46397 8.25038C8.97841 9.70586 10.3665 10.7504 12.0004 10.7504C13.6343 10.7504 15.0224 9.70586 15.5368 8.25038C15.6749 7.85985 15.4702 7.43135 15.0796 7.29332C14.6891 7.15528 14.2606 7.35998 14.1226 7.75051C13.8133 8.62542 12.9789 9.25045 12.0004 9.25045Z" fill="#1C274C"/>
</svg>
