<svg width="24" height="24" viewBox="0 0 24 24" fill="none" xmlns="http://www.w3.org/2000/svg">
<path d="M8.50573 10.7149C8.50573 9.79441 9.2609 9.04821 10.1924 9.04821C11.124 9.04821 11.8792 9.79441 11.8792 10.7149C11.8792 11.6354 11.124 12.3816 10.1924 12.3816C9.2609 12.3816 8.50573 11.6354 8.50573 10.7149Z" fill="#1C274C"/>
<path fill-rule="evenodd" clip-rule="evenodd" d="M2 10.7148C2 8.02106 2 6.67418 2.84691 5.83733C3.69381 5.00049 5.05688 5.00049 7.78303 5.00049H12.6022C15.3284 5.00049 16.6914 5.00049 17.5384 5.83733C18.3853 6.67418 18.3853 8.02106 18.3853 10.7148C18.3853 13.4086 18.3853 14.7555 17.5384 15.5923C16.6914 16.4292 15.3284 16.4292 12.6022 16.4292H7.78303C5.05688 16.4292 3.69381 16.4292 2.84691 15.5923C2 14.7555 2 13.4086 2 10.7148ZM7.05997 10.7149C7.05997 9.00543 8.46243 7.61963 10.1924 7.61963C11.9225 7.61963 13.3249 9.00543 13.3249 10.7149C13.3249 12.4244 11.9225 13.8102 10.1924 13.8102C8.46243 13.8102 7.05997 12.4244 7.05997 10.7149ZM4.16846 12.6197C4.16846 13.0142 4.4921 13.334 4.89134 13.334C5.29057 13.334 5.61422 13.0142 5.61422 12.6197L5.61421 8.81012C5.61421 8.41562 5.29057 8.09582 4.89134 8.09582C4.4921 8.09582 4.16846 8.41562 4.16846 8.81012L4.16846 12.6197ZM15.4936 13.334C15.0943 13.334 14.7707 13.0142 14.7707 12.6197V8.81012C14.7707 8.41562 15.0943 8.09582 15.4936 8.09582C15.8928 8.09582 16.2164 8.41562 16.2164 8.81012V12.6197C16.2164 13.0142 15.8928 13.334 15.4936 13.334Z" fill="#1C274C"/>
<path opacity="0.5" d="M4.06519 16.2256C4.07822 16.3766 4.09388 16.5211 4.1127 16.6594C4.22934 17.5166 4.47887 18.2384 5.05902 18.8117C5.14161 18.8933 5.22725 18.9683 5.3159 19.0372C5.88128 19.5512 6.5817 19.7792 7.40583 19.8887C8.24145 19.9997 9.30391 19.9997 10.622 19.9996H15.547C16.8651 19.9997 17.9276 19.9997 18.7632 19.8887C19.6308 19.7734 20.3613 19.5268 20.9414 18.9536C21.5216 18.3803 21.7711 17.6585 21.8877 16.8013C22.0001 15.9756 22.0001 14.9257 22 13.6233V13.5188C22.0001 12.2163 22.0001 11.1664 21.8877 10.3407C21.7711 9.48349 21.5216 8.7617 20.9414 8.18844C20.8588 8.10683 20.7732 8.03184 20.6845 7.9629C20.1192 7.44894 19.4187 7.22095 18.5946 7.11147C18.4638 7.09409 18.3275 7.07944 18.1854 7.06708C18.3852 7.90047 18.3852 9.05061 18.3852 10.7148C18.3852 13.4086 18.3852 14.7555 17.5382 15.5923C16.6913 16.4292 15.3283 16.4292 12.6021 16.4292H7.78293C6.08123 16.4292 4.91064 16.4292 4.06519 16.2256Z" fill="#1C274C"/>
</svg>
