<svg width="24" height="24" viewBox="0 0 24 24" fill="none" xmlns="http://www.w3.org/2000/svg">
<path d="M13.4528 8.39786C15.1814 6.92862 16.5399 5.18694 17.1249 3.44861L17.1354 3.41748C18.5511 4.26284 19.7771 5.47075 20.6601 7.00014C21.5428 8.52915 21.9759 10.1944 22.0004 11.8427C20.0047 11.4114 17.8141 11.7417 15.7445 12.5218C15.4238 11.6581 15.0597 10.8349 14.6501 10.1255C14.3139 9.54316 13.9038 8.96236 13.4528 8.39786Z" fill="#1C274C"/>
<path fill-rule="evenodd" clip-rule="evenodd" d="M3.33956 17.0001C4.2227 18.5298 5.44893 19.7378 6.86494 20.5832L6.86537 20.5819C7.68346 18.1139 10.0653 15.636 12.8571 13.9372C13.3432 13.6414 13.8476 13.3657 14.3649 13.1153C14.0628 12.2928 13.7247 11.5227 13.351 10.8755C13.0529 10.3591 12.6829 9.83585 12.2697 9.31987C11.9238 9.56704 11.5682 9.80283 11.2055 10.0255C8.44784 11.7186 5.09286 12.7687 2.14382 12.1879L1.99927 12.1594C2.02401 13.8071 2.45711 15.4717 3.33956 17.0001Z" fill="#1C274C"/>
<g opacity="0.5">
<path d="M16.2258 13.943C18.1134 13.2241 20.0374 12.9478 21.7027 13.3131L21.9074 13.3581C21.7856 14.2423 21.5463 15.1076 21.1961 15.929C20.4717 17.6282 19.2729 19.1401 17.6585 20.2456L17.6461 20.1664C17.6158 19.9753 17.5705 19.6995 17.5099 19.3582C17.3887 18.6762 17.2059 17.7299 16.9592 16.6724C16.7602 15.8197 16.5166 14.8808 16.2258 13.943Z" fill="#1C274C"/>
<path d="M8.31858 3.45453C8.06654 3.25522 7.86131 3.09793 7.71833 2.98993L7.69597 2.97307C9.45842 2.1305 11.3642 1.84942 13.1953 2.07137C14.0827 2.17892 14.9525 2.40461 15.7799 2.74178L15.703 2.97022C15.2258 4.38817 14.0529 5.92086 12.4746 7.26092C11.7442 6.46586 10.9739 5.72929 10.2721 5.09981C9.51489 4.42067 8.82226 3.85286 8.31858 3.45453Z" fill="#1C274C"/>
<path d="M10.4204 8.74727C7.83379 10.3354 4.87003 11.1961 2.43341 10.7162L2.09082 10.6487C2.4601 7.95537 3.91941 5.43794 6.28139 3.79569L6.60934 4.0341L6.61138 4.03559L6.62071 4.04243L6.65975 4.07121C6.69459 4.097 6.74671 4.13585 6.81422 4.18684C6.94924 4.28883 7.14564 4.43932 7.38813 4.63108C7.87349 5.01492 8.54147 5.56255 9.27053 6.21646C9.93034 6.80826 10.6282 7.47663 11.2825 8.18106C11.0033 8.37694 10.7155 8.56609 10.4204 8.74727Z" fill="#1C274C"/>
<path d="M16.2047 20.6631L16.2066 20.676L16.2071 20.6796L16.2596 21.048C13.6547 22.2781 10.7413 22.2858 8.22086 21.2593L8.28893 21.0539C8.95247 19.0522 11.0084 16.8179 13.6366 15.2187C14.0314 14.9784 14.4347 14.7552 14.8433 14.5512C15.0955 15.381 15.314 16.2228 15.4984 17.0133C15.7377 18.0388 15.9153 18.958 16.033 19.6206C16.0918 19.9517 16.1356 20.2181 16.1645 20.4009C16.179 20.4923 16.1898 20.5629 16.1968 20.6101L16.2047 20.6631Z" fill="#1C274C"/>
</g>
</svg>
