<svg width="24" height="24" viewBox="0 0 24 24" fill="none" xmlns="http://www.w3.org/2000/svg">
<path opacity="0.5" fill-rule="evenodd" clip-rule="evenodd" d="M2 10.0001C2 9.55819 2.00189 8.39215 2.00377 8.00012H22C22.0019 8.39215 22 9.55819 22 10.0001V12.0001C22 12.4421 22 13.6081 21.9981 14.0001H2.00189C2 13.6081 2 12.4421 2 12.0001V10.0001Z" fill="#1C274C"/>
<path d="M13 11.0001C13 11.5524 12.5523 12.0001 12 12.0001C11.4477 12.0001 11 11.5524 11 11.0001C11 10.4478 11.4477 10.0001 12 10.0001C12.5523 10.0001 13 10.4478 13 11.0001Z" fill="#1C274C"/>
<path fill-rule="evenodd" clip-rule="evenodd" d="M2.02588 7.25012C2.09201 5.22894 2.32819 4.01524 3.17174 3.17169C4.34331 2.00012 6.22893 2.00012 10.0002 2.00012H14.0002C17.7714 2.00012 19.657 2.00012 20.8286 3.17169C21.6721 4.01524 21.9083 5.22894 21.9744 7.25012L22 8.00012H2L2.02588 7.25012ZM12 6.00012C12.5523 6.00012 13 5.55241 13 5.00012C13 4.44784 12.5523 4.00012 12 4.00012C11.4477 4.00012 11 4.44784 11 5.00012C11 5.55241 11.4477 6.00012 12 6.00012Z" fill="#1C274C"/>
<path fill-rule="evenodd" clip-rule="evenodd" d="M2.02588 14.7501C2.09201 16.7713 2.32819 17.985 3.17174 18.8286C3.47615 19.133 3.82878 19.3583 4.25016 19.5251V22.0001C4.25016 22.4143 4.58595 22.7501 5.00016 22.7501C5.41438 22.7501 5.75016 22.4143 5.75016 22.0001V19.8714C6.82005 20.0001 8.1938 20.0001 10.0002 20.0001H14.0002C15.8065 20.0001 17.1803 20.0001 18.2502 19.8714V22.0001C18.2502 22.4143 18.5859 22.7501 19.0002 22.7501C19.4144 22.7501 19.7502 22.4143 19.7502 22.0001V19.5251C20.1715 19.3583 20.5242 19.133 20.8286 18.8286C21.6721 17.985 21.9083 16.7713 21.9744 14.7501V14.0001H2L2.02588 14.7501ZM12.0002 18.0001C12.5524 18.0001 13.0002 17.5524 13.0002 17.0001C13.0002 16.4478 12.5524 16.0001 12.0002 16.0001C11.4479 16.0001 11.0002 16.4478 11.0002 17.0001C11.0002 17.5524 11.4479 18.0001 12.0002 18.0001Z" fill="#1C274C"/>
</svg>
