<svg width="24" height="24" viewBox="0 0 24 24" fill="none" xmlns="http://www.w3.org/2000/svg">
<path opacity="0.5" d="M18.7491 9.00036V9.70447C18.7491 10.5495 18.9903 11.3755 19.4422 12.0786L20.5496 13.8015C21.5612 15.3752 20.789 17.5143 19.0296 18.0119C14.4273 19.3138 9.57274 19.3138 4.97036 18.0119C3.21105 17.5143 2.43882 15.3752 3.45036 13.8015L4.5578 12.0786C5.00972 11.3755 5.25087 10.5495 5.25087 9.70447V9.00036C5.25087 5.13437 8.27256 2.00037 12 2.00037C15.7274 2.00037 18.7491 5.13437 18.7491 9.00036Z" fill="#1C274C"/>
<path d="M7.24316 18.5453C7.8941 20.5504 9.77767 22 11.9998 22C14.222 22 16.1055 20.5504 16.7565 18.5453C13.611 19.1356 10.3886 19.1356 7.24316 18.5453Z" fill="#1C274C"/>
<path d="M9.34865 9.00037C9.34865 9.41458 9.67241 9.75037 10.0718 9.75037H12.1827L9.56045 12.47C9.35364 12.6845 9.29177 13.0071 9.4037 13.2874C9.51562 13.5676 9.7793 13.7504 10.0718 13.7504H13.9284C14.3278 13.7504 14.6515 13.4146 14.6515 13.0004C14.6515 12.5862 14.3278 12.2504 13.9284 12.2504H11.8175L14.4397 9.5307C14.6466 9.3162 14.7084 8.99361 14.5965 8.71335C14.4846 8.4331 14.2209 8.25037 13.9284 8.25037H10.0718C9.67241 8.25037 9.34865 8.58615 9.34865 9.00037Z" fill="#1C274C"/>
</svg>
