<svg width="24" height="24" viewBox="0 0 24 24" fill="none" xmlns="http://www.w3.org/2000/svg">
<path opacity="0.5" d="M3.46447 20.5361C4.92893 22.0006 7.28595 22.0006 12 22.0006C16.714 22.0006 19.0711 22.0006 20.5355 20.5361C22 19.0716 22 16.7145 22 12.0005C22 7.28644 22 4.92942 20.5355 3.46495C19.0711 2.00049 16.714 2.00049 12 2.00049C7.28595 2.00049 4.92893 2.00049 3.46447 3.46495C2 4.92942 2 7.28651 2 12.0006C2 16.7146 2 19.0716 3.46447 20.5361Z" fill="#1C274C"/>
<path d="M7 17.2505C6.58579 17.2505 6.25 17.5863 6.25 18.0005C6.25 18.4147 6.58579 18.7505 7 18.7505H17C17.4142 18.7505 17.75 18.4147 17.75 18.0005C17.75 17.5863 17.4142 17.2505 17 17.2505H7Z" fill="#1C274C"/>
<path d="M7.7649 9.89807C7.7503 9.64473 7.75 9.30482 7.75 8.80809V2.06922C8.9058 2.00049 10.2996 2.00049 12 2.00049C13.7004 2.00049 15.0942 2.00049 16.25 2.06922V8.80809C16.25 9.30482 16.2497 9.64473 16.2351 9.89807C16.22 10.1605 16.1923 10.2413 16.1854 10.2568C16.0383 10.5881 15.6753 10.7667 15.323 10.6812C15.3066 10.6772 15.2257 10.6498 15.0085 10.5017C14.7989 10.3587 14.5294 10.1515 14.1358 9.84848L14.0688 9.79685C13.6986 9.51143 13.4101 9.289 13.0958 9.15245C12.3968 8.84877 11.6032 8.84877 10.9042 9.15245C10.5899 9.289 10.3014 9.51143 9.9312 9.79685L9.86419 9.84848C9.47062 10.1515 9.20112 10.3587 8.99148 10.5017C8.77428 10.6498 8.69342 10.6772 8.67695 10.6812C8.32471 10.7667 7.96171 10.5881 7.81457 10.2568C7.80769 10.2413 7.78003 10.1605 7.7649 9.89807Z" fill="#1C274C"/>
</svg>
