<svg width="24" height="24" viewBox="0 0 24 24" fill="none" xmlns="http://www.w3.org/2000/svg">
<path opacity="0.5" d="M3.46447 20.5358C4.92893 22.0002 7.28595 22.0002 12 22.0002C16.714 22.0002 19.0711 22.0002 20.5355 20.5358C22 19.0713 22 16.7143 22 12.0002C22 7.2862 22 4.92918 20.5355 3.46471C19.0711 2.00024 16.714 2.00024 12 2.00024C7.28595 2.00024 4.92893 2.00024 3.46447 3.46471C2 4.92918 2 7.2862 2 12.0002C2 16.7143 2 19.0713 3.46447 20.5358Z" fill="#1C274C"/>
<path d="M12.75 6.50024C12.75 6.08603 12.4142 5.75024 12 5.75024C11.5858 5.75024 11.25 6.08603 11.25 6.50024V12.5002C11.25 14.2952 9.79493 15.7502 8 15.7502H7.81066L8.03033 15.5306C8.32322 15.2377 8.32322 14.7628 8.03033 14.4699C7.73744 14.177 7.26256 14.177 6.96967 14.4699L5.46967 15.9699C5.17678 16.2628 5.17678 16.7377 5.46967 17.0306L6.96967 18.5306C7.26256 18.8235 7.73744 18.8235 8.03033 18.5306C8.32322 18.2377 8.32322 17.7628 8.03033 17.4699L7.81066 17.2502H8C9.67947 17.2502 11.1554 16.3786 12 15.0631C12.8446 16.3786 14.3205 17.2502 16 17.2502H16.1893L15.9697 17.4699C15.6768 17.7628 15.6768 18.2377 15.9697 18.5306C16.2626 18.8235 16.7374 18.8235 17.0303 18.5306L18.5303 17.0306C18.8232 16.7377 18.8232 16.2628 18.5303 15.9699L17.0303 14.4699C16.7374 14.177 16.2626 14.177 15.9697 14.4699C15.6768 14.7628 15.6768 15.2377 15.9697 15.5306L16.1893 15.7502H16C14.2051 15.7502 12.75 14.2952 12.75 12.5002V6.50024Z" fill="#1C274C"/>
</svg>
