<svg width="24" height="24" viewBox="0 0 24 24" fill="none" xmlns="http://www.w3.org/2000/svg">
<path opacity="0.5" d="M5 10.0004C5 6.13437 8.13401 3.00037 12 3.00037C15.866 3.00037 19 6.13437 19 10.0004V15.0004C19 18.8664 15.866 22.0004 12 22.0004C8.13401 22.0004 5 18.8664 5 15.0004V10.0004Z" fill="#1C274C"/>
<path d="M9.75 15.5004C9.75 15.0862 10.0858 14.7504 10.5 14.7504H13.5C13.9142 14.7504 14.25 15.0862 14.25 15.5004C14.25 15.9146 13.9142 16.2504 13.5 16.2504H10.5C10.0858 16.2504 9.75 15.9146 9.75 15.5004Z" fill="#1C274C"/>
<path d="M10.5 9.75037C10.0858 9.75037 9.75 10.0862 9.75 10.5004C9.75 10.9146 10.0858 11.2504 10.5 11.2504H13.5C13.9142 11.2504 14.25 10.9146 14.25 10.5004C14.25 10.0862 13.9142 9.75037 13.5 9.75037H10.5Z" fill="#1C274C"/>
<path d="M17.416 2.62436C17.7607 2.3946 17.8538 1.92895 17.624 1.5843C17.3943 1.23965 16.9286 1.14652 16.584 1.37629L13.7982 3.23344C14.3906 3.39043 14.9521 3.62312 15.4718 3.92054L17.416 2.62436Z" fill="#1C274C"/>
<path d="M18.8297 8.45865C18.7198 7.96973 18.5587 7.50016 18.3525 7.05586C18.3753 7.04383 18.3991 7.03287 18.4236 7.02306L20.2213 6.30397C20.6059 6.15013 21.0424 6.33719 21.1962 6.72178C21.3501 7.10637 21.163 7.54285 20.7784 7.69668L18.9807 8.41577C18.931 8.43566 18.8804 8.44985 18.8297 8.45865Z" fill="#1C274C"/>
<path d="M19 13.7503H22C22.4142 13.7503 22.75 13.4145 22.75 13.0003C22.75 12.5861 22.4142 12.2503 22 12.2503H19V13.7503Z" fill="#1C274C"/>
<path d="M17.9422 18.7021C18.1871 18.3099 18.3942 17.8917 18.5584 17.4526C18.6321 17.4584 18.7063 17.4752 18.7785 17.5042L20.7785 18.3042C21.1631 18.458 21.3502 18.8945 21.1964 19.2791C21.0425 19.6637 20.606 19.8507 20.2215 19.6969L18.2215 18.8969C18.1109 18.8527 18.0167 18.7851 17.9422 18.7021Z" fill="#1C274C"/>
<path d="M5.44158 17.4526C5.60585 17.8917 5.81295 18.3099 6.0578 18.7021C5.9833 18.7851 5.88908 18.8527 5.77854 18.8969L3.77854 19.6969C3.39396 19.8507 2.95748 19.6637 2.80364 19.2791C2.64981 18.8945 2.83687 18.458 3.22146 18.3042L5.22146 17.5042C5.29374 17.4752 5.36785 17.4584 5.44158 17.4526Z" fill="#1C274C"/>
<path d="M5 12.2503H2C1.58579 12.2503 1.25 12.5861 1.25 13.0003C1.25 13.4145 1.58579 13.7503 2 13.7503H5V12.2503Z" fill="#1C274C"/>
<path d="M5.64754 7.05586C5.44126 7.50016 5.28021 7.96973 5.17032 8.45865C5.1196 8.44985 5.06902 8.43566 5.01931 8.41577L3.22158 7.69668C2.83699 7.54285 2.64993 7.10637 2.80376 6.72178C2.9576 6.33719 3.39408 6.15013 3.77867 6.30397L5.57639 7.02306C5.60093 7.03287 5.62465 7.04383 5.64754 7.05586Z" fill="#1C274C"/>
<path d="M8.52824 3.92054L6.58397 2.62436C6.23933 2.3946 6.1462 1.92895 6.37596 1.5843C6.60573 1.23965 7.07138 1.14652 7.41603 1.37629L10.2018 3.23344C9.60944 3.39043 9.04794 3.62312 8.52824 3.92054Z" fill="#1C274C"/>
</svg>
