<svg width="24" height="24" viewBox="0 0 24 24" fill="none" xmlns="http://www.w3.org/2000/svg">
<path opacity="0.5" d="M3.46447 20.536C4.92893 22.0005 7.28595 22.0005 12 22.0005C16.714 22.0005 19.0711 22.0005 20.5355 20.536C22 19.0716 22 16.7145 22 12.0005C22 7.28644 22 4.92942 20.5355 3.46495C19.0711 2.00049 16.714 2.00049 12 2.00049C7.28595 2.00049 4.92893 2.00049 3.46447 3.46495C2 4.92942 2 7.28644 2 12.0005C2 16.7145 2 19.0716 3.46447 20.536Z" fill="#1C274C"/>
<path fill-rule="evenodd" clip-rule="evenodd" d="M8 5.75049C8.41421 5.75049 8.75 6.08627 8.75 6.50049L8.75 7.7505H10C10.4142 7.7505 10.75 8.08629 10.75 8.5005C10.75 8.91472 10.4142 9.2505 10 9.2505H8.75V10.5005C8.75 10.9147 8.41421 11.2505 8 11.2505C7.58579 11.2505 7.25 10.9147 7.25 10.5005L7.25 9.2505L6 9.2505C5.58579 9.2505 5.25 8.91472 5.25 8.5005C5.25 8.08629 5.58579 7.7505 6 7.7505H7.25L7.25 6.50049C7.25 6.08627 7.58579 5.75049 8 5.75049ZM13.25 8.50049C13.25 8.08627 13.5858 7.75049 14 7.75049H18C18.4142 7.75049 18.75 8.08627 18.75 8.50049C18.75 8.9147 18.4142 9.25049 18 9.25049H14C13.5858 9.25049 13.25 8.9147 13.25 8.50049ZM13.25 14.5005C13.25 14.0863 13.5858 13.7505 14 13.7505H18C18.4142 13.7505 18.75 14.0863 18.75 14.5005C18.75 14.9147 18.4142 15.2505 18 15.2505H14C13.5858 15.2505 13.25 14.9147 13.25 14.5005ZM5.96967 13.9702C6.26256 13.6773 6.73744 13.6773 7.03033 13.9702L8.00001 14.9399L8.96967 13.9702C9.26256 13.6773 9.73744 13.6773 10.0303 13.9702C10.3232 14.2631 10.3232 14.738 10.0303 15.0309L9.06067 16.0005L10.0303 16.9702C10.3232 17.2631 10.3232 17.7379 10.0303 18.0308C9.73742 18.3237 9.26255 18.3237 8.96966 18.0308L8.00001 17.0612L7.03034 18.0308C6.73745 18.3237 6.26258 18.3237 5.96968 18.0308C5.67679 17.7379 5.67679 17.2631 5.96968 16.9702L6.93935 16.0005L5.96967 15.0308C5.67678 14.7379 5.67678 14.2631 5.96967 13.9702ZM13.25 17.5005C13.25 17.0863 13.5858 16.7505 14 16.7505H18C18.4142 16.7505 18.75 17.0863 18.75 17.5005C18.75 17.9147 18.4142 18.2505 18 18.2505H14C13.5858 18.2505 13.25 17.9147 13.25 17.5005Z" fill="#1C274C"/>
</svg>
