<svg width="24" height="24" viewBox="0 0 24 24" fill="none" xmlns="http://www.w3.org/2000/svg">
<path opacity="0.5" d="M9.99976 20.0005H13.9998C17.771 20.0005 19.6566 20.0005 20.8282 18.8289C21.9998 17.6573 21.9998 15.7717 21.9998 12.0005C21.9998 11.5586 21.9981 10.3925 21.9962 10.0005H2C1.99811 10.3925 1.99976 11.5586 1.99976 12.0005C1.99976 15.7717 1.99976 17.6573 3.17133 18.8289C4.34291 20.0005 6.22852 20.0005 9.99976 20.0005Z" fill="#1C274C"/>
<path d="M9.99484 4.00049H14.0052C17.7861 4.00049 19.6766 4.00049 20.8512 5.11627C21.6969 5.91964 21.9337 7.07556 22 9.00049V10.0005H2V9.00049C2.0663 7.07556 2.3031 5.91964 3.14881 5.11627C4.3234 4.00049 6.21388 4.00049 9.99484 4.00049Z" fill="#1C274C"/>
<path d="M12.5 15.2505C12.0858 15.2505 11.75 15.5863 11.75 16.0005C11.75 16.4147 12.0858 16.7505 12.5 16.7505H14C14.4142 16.7505 14.75 16.4147 14.75 16.0005C14.75 15.5863 14.4142 15.2505 14 15.2505H12.5Z" fill="#1C274C"/>
<path d="M6 15.2505C5.58579 15.2505 5.25 15.5863 5.25 16.0005C5.25 16.4147 5.58579 16.7505 6 16.7505H10C10.4142 16.7505 10.75 16.4147 10.75 16.0005C10.75 15.5863 10.4142 15.2505 10 15.2505H6Z" fill="#1C274C"/>
</svg>
