<svg width="24" height="24" viewBox="0 0 24 24" fill="none" xmlns="http://www.w3.org/2000/svg">
<path opacity="0.5" d="M2.08416 2.75169C2.22155 2.36092 2.6497 2.15552 3.04047 2.2929L3.34187 2.39887C3.95839 2.6156 4.48203 2.79968 4.89411 3.00188C5.33474 3.21808 5.71259 3.48442 5.99677 3.90028C6.27875 4.31292 6.39517 4.76564 6.4489 5.26202C6.47295 5.48422 6.48564 5.73016 6.49233 6.00049H17.1305C18.8155 6.00049 20.3323 6.00049 20.7762 6.57757C21.2202 7.15465 21.0466 8.02418 20.6995 9.76324L20.1997 12.188C19.8846 13.7168 19.727 14.4813 19.1753 14.9309C18.6236 15.3805 17.8431 15.3805 16.2821 15.3805H10.9792C8.19028 15.3805 6.79583 15.3805 5.92943 14.4667C5.06302 13.5528 4.99979 12.5821 4.99979 9.64049L4.99979 7.03881C4.99979 6.29886 4.99877 5.80364 4.95761 5.42344C4.91828 5.06009 4.84858 4.87867 4.75832 4.74658C4.67026 4.61772 4.53659 4.49729 4.23336 4.3485C3.91052 4.1901 3.47177 4.03455 2.80416 3.79983L2.54295 3.70799C2.15218 3.57061 1.94678 3.14246 2.08416 2.75169Z" fill="#1C274C"/>
<path d="M7.5 18.0005C8.32843 18.0005 9 18.6721 9 19.5005C9 20.3289 8.32843 21.0005 7.5 21.0005C6.67157 21.0005 6 20.3289 6 19.5005C6 18.6721 6.67157 18.0005 7.5 18.0005Z" fill="#1C274C"/>
<path d="M16.5 18.0006C17.3284 18.0006 18 18.6721 18 19.5006C18 20.329 17.3284 21.0006 16.5 21.0006C15.6716 21.0006 15 20.329 15 19.5006C15 18.6721 15.6716 18.0006 16.5 18.0006Z" fill="#1C274C"/>
<path d="M15.5421 9.51773C15.8278 9.21778 15.8162 8.74305 15.5163 8.45739C15.2163 8.17172 14.7416 8.1833 14.4559 8.48325L12.1419 10.913L11.5421 10.2832C11.2565 9.9833 10.7817 9.97172 10.4818 10.2574C10.1818 10.5431 10.1703 11.0178 10.4559 11.3177L11.5988 12.5177C11.7403 12.6664 11.9366 12.7505 12.1419 12.7505C12.3471 12.7505 12.5434 12.6664 12.685 12.5177L15.5421 9.51773Z" fill="#1C274C"/>
</svg>
