<svg width="24" height="24" viewBox="0 0 24 24" fill="none" xmlns="http://www.w3.org/2000/svg">
<path opacity="0.5" d="M7.40192 4.50012C7 5.19627 7 6.13089 7 8.00012V12.027C7.43028 12 7.91397 12.0001 8.43477 12.0001H15.5648C16.0858 12.0001 16.5696 12 17 12.0271V8.00012C17 6.13089 17 5.19627 16.5981 4.50012C16.3348 4.04406 15.9561 3.66535 15.5 3.40205C14.8038 3.00012 13.8692 3.00012 12 3.00012C10.1308 3.00012 9.19615 3.00012 8.5 3.40205C8.04394 3.66535 7.66523 4.04406 7.40192 4.50012Z" fill="#1C274C"/>
<path d="M6.25 15.9915C5.74796 15.9712 5.44406 15.9033 5.236 15.6763C4.93926 15.3524 4.97792 14.9019 5.05525 14.0009C5.11107 13.3504 5.2373 12.9126 5.52274 12.5859C6.0345 12.0001 6.85816 12.0001 8.50549 12.0001H15.4945C17.1418 12.0001 17.9655 12.0001 18.4773 12.5859C18.7627 12.9126 18.8889 13.3504 18.9448 14.0009C19.0221 14.9019 19.0607 15.3524 18.764 15.6763C18.5559 15.9033 18.252 15.9712 17.75 15.9915V21.0001C17.75 21.4143 17.4142 21.7501 17 21.7501C16.5858 21.7501 16.25 21.4143 16.25 21.0001V16.0001H7.75V21.0001C7.75 21.4143 7.41421 21.7501 7 21.7501C6.58579 21.7501 6.25 21.4143 6.25 21.0001V15.9915Z" fill="#1C274C"/>
</svg>
