<svg width="24" height="24" viewBox="0 0 24 24" fill="none" xmlns="http://www.w3.org/2000/svg">
<path opacity="0.5" d="M13.6288 20.4721L13.0867 21.3879C12.6035 22.2042 11.3965 22.2042 10.9133 21.3879L10.3712 20.4721C9.95073 19.7617 9.74049 19.4065 9.40279 19.2101C9.06509 19.0137 8.63992 19.0063 7.78958 18.9917C6.53422 18.9701 5.74689 18.8931 5.08658 18.6196C3.86144 18.1122 2.88807 17.1388 2.3806 15.9137C2 14.9948 2 13.83 2 11.5002V10.5002C2 7.22681 2 5.5901 2.7368 4.38775C3.14908 3.71497 3.71473 3.14932 4.38751 2.73704C5.58985 2.00024 7.22657 2.00024 10.5 2.00024H13.5C16.7734 2.00024 18.4101 2.00024 19.6125 2.73704C20.2853 3.14932 20.8509 3.71497 21.2632 4.38775C22 5.5901 22 7.22681 22 10.5002V11.5002C22 13.83 22 14.9948 21.6194 15.9137C21.1119 17.1388 20.1386 18.1122 18.9134 18.6196C18.2531 18.8932 17.4658 18.9701 16.2104 18.9917C15.36 19.0063 14.9349 19.0137 14.5972 19.2101C14.2595 19.4065 14.0492 19.7617 13.6288 20.4721Z" fill="#1C274C"/>
<path d="M7.25 9.00024C7.25 8.58603 7.58579 8.25024 8 8.25024H16C16.4142 8.25024 16.75 8.58603 16.75 9.00024C16.75 9.41446 16.4142 9.75024 16 9.75024H8C7.58579 9.75024 7.25 9.41446 7.25 9.00024Z" fill="#1C274C"/>
<path d="M7.25 12.5002C7.25 12.086 7.58579 11.7502 8 11.7502H13.5C13.9142 11.7502 14.25 12.086 14.25 12.5002C14.25 12.9145 13.9142 13.2502 13.5 13.2502H8C7.58579 13.2502 7.25 12.9145 7.25 12.5002Z" fill="#1C274C"/>
</svg>
