<svg width="24" height="24" viewBox="0 0 24 24" fill="none" xmlns="http://www.w3.org/2000/svg">
<path opacity="0.5" d="M21 15.9986V9.99863C21 7.1702 21 5.75599 20.1213 4.87731C19.3529 4.10892 18.175 4.01247 16 4.00037H8C5.82497 4.01247 4.64706 4.10892 3.87868 4.87731C3 5.75599 3 7.1702 3 9.99863V15.9986C3 18.8271 3 20.2413 3.87868 21.1199C4.75736 21.9986 6.17157 21.9986 9 21.9986H15C17.8284 21.9986 19.2426 21.9986 20.1213 21.1199C21 20.2413 21 18.8271 21 15.9986Z" fill="#1C274C"/>
<path d="M8 3.50037C8 2.67194 8.67157 2.00037 9.5 2.00037H14.5C15.3284 2.00037 16 2.67194 16 3.50037V4.50037C16 5.32879 15.3284 6.00037 14.5 6.00037H9.5C8.67157 6.00037 8 5.32879 8 4.50037V3.50037Z" fill="#1C274C"/>
<path d="M9 12.6971C9 13.6815 10.1649 14.7217 11.0429 15.3659C11.4626 15.6739 11.6725 15.8279 12 15.8279C12.3275 15.8279 12.5374 15.6739 12.9571 15.3659C13.8352 14.7217 15 13.6815 15 12.6971C15 11.0239 13.35 10.3992 12 11.6917C10.65 10.3992 9 11.0239 9 12.6971Z" fill="#1C274C"/>
</svg>
