<svg width="24" height="24" viewBox="0 0 24 24" fill="none" xmlns="http://www.w3.org/2000/svg">
<path fill-rule="evenodd" clip-rule="evenodd" d="M2.02563 15.7501C2.09177 17.7713 2.32795 18.985 3.17149 19.8285C3.47591 20.133 3.82853 20.3583 4.24992 20.5251V22.0001C4.24992 22.4143 4.5857 22.7501 4.99992 22.7501C5.41413 22.7501 5.74992 22.4143 5.74992 22.0001V20.8714C6.81981 21.0001 8.19356 21.0001 9.99992 21.0001H12.0002H13.9999C15.8063 21.0001 17.18 21.0001 18.2499 20.8714V22.0001C18.2499 22.4143 18.5857 22.7501 18.9999 22.7501C19.4141 22.7501 19.7499 22.4143 19.7499 22.0001V20.5251C20.1713 20.3583 20.5239 20.133 20.8283 19.8285C21.6365 19.0204 21.8872 17.8724 21.965 16.0001L21.9742 15.7501C21.9761 15.3581 21.9999 13.4421 21.9999 13.0001V10.0001C21.9999 6.22889 21.9999 4.34327 20.8283 3.17169C19.6568 2.00012 17.7712 2.00012 13.9999 2.00012H12.7499V15.7501H12.0002H2.02563ZM6.24992 18.0001C6.24992 17.5859 6.5857 17.2501 6.99992 17.2501H8.99992C9.41413 17.2501 9.74992 17.5859 9.74992 18.0001C9.74992 18.4143 9.41413 18.7501 8.99992 18.7501H6.99992C6.5857 18.7501 6.24992 18.4143 6.24992 18.0001ZM14.9999 17.2501C14.5857 17.2501 14.2499 17.5859 14.2499 18.0001C14.2499 18.4143 14.5857 18.7501 14.9999 18.7501H16.9999C17.4141 18.7501 17.7499 18.4143 17.7499 18.0001C17.7499 17.5859 17.4141 17.2501 16.9999 17.2501H14.9999ZM14.9999 7.25012C15.4141 7.25012 15.7499 7.58591 15.7499 8.00012V10.0001C15.7499 10.4143 15.4141 10.7501 14.9999 10.7501C14.5857 10.7501 14.2499 10.4143 14.2499 10.0001V8.00012C14.2499 7.58591 14.5857 7.25012 14.9999 7.25012Z" fill="#1C274C"/>
<g opacity="0.5">
<path d="M10 2.00012H11.25V7.25012H2.02572C2.09185 5.22895 2.32803 4.01524 3.17157 3.17169C4.34315 2.00012 6.22876 2.00012 10 2.00012Z" fill="#1C274C"/>
<path d="M2.00189 8.75012C2 9.14215 2 9.55819 2 10.0001V13.0001C2 13.4421 2.02351 15.3581 2.02539 15.7501H11.25V8.75012H2.00189Z" fill="#1C274C"/>
</g>
</svg>
