<svg width="24" height="24" viewBox="0 0 24 24" fill="none" xmlns="http://www.w3.org/2000/svg">
<path opacity="0.5" d="M12 22.0002C17.5228 22.0002 22 17.5231 22 12.0002C22 6.4774 17.5228 2.00024 12 2.00024C6.47715 2.00024 2 6.4774 2 12.0002C2 17.5231 6.47715 22.0002 12 22.0002Z" fill="#1C274C"/>
<path d="M13.024 14.5603C13.5166 14.3633 13.763 14.2647 13.9562 14.0953C14.0055 14.0521 14.0518 14.0057 14.095 13.9565C14.2645 13.7632 14.363 13.5169 14.5601 13.0242C15.484 10.7144 15.946 9.55954 15.4977 8.89989C15.3914 8.74348 15.2565 8.60858 15.1001 8.5023C14.4405 8.05404 13.2856 8.516 10.9758 9.43991C10.4831 9.63698 10.2368 9.73551 10.0435 9.90498C9.99429 9.94817 9.94792 9.99453 9.90474 10.0438C9.73527 10.237 9.63673 10.4834 9.43966 10.976C8.51575 13.2858 8.0538 14.4407 8.50206 15.1004C8.60834 15.2568 8.74324 15.3917 8.89964 15.4979C9.5593 15.9462 10.7142 15.4842 13.024 14.5603Z" fill="#1C274C"/>
</svg>
