<svg width="24" height="24" viewBox="0 0 24 24" fill="none" xmlns="http://www.w3.org/2000/svg">
<path fill-rule="evenodd" clip-rule="evenodd" d="M6 2.00012H18C19.8856 2.00012 20.8284 2.00012 21.4142 2.58591C22 3.17169 22 4.1145 22 6.00012V9.00012C22 11.8285 22 13.2428 21.1213 14.1214C20.5902 14.6526 19.8634 14.8626 18.7469 14.9457C18.7417 14.277 18.7273 13.5438 18.6884 13.2543C18.6223 12.7626 18.4732 12.2914 18.091 11.9091C17.7087 11.5269 17.2375 11.3778 16.7458 11.3117C16.2871 11.2501 15.7142 11.2501 15.0494 11.2501H8.95063C8.28576 11.2501 7.7129 11.2501 7.25416 11.3117C6.76252 11.3778 6.29126 11.5269 5.90901 11.9091C5.52676 12.2914 5.37771 12.7626 5.31161 13.2543C5.27268 13.5438 5.25834 14.277 5.25306 14.9457C4.13657 14.8626 3.4098 14.6526 2.87868 14.1214C2 13.2428 2 11.8285 2 9.00012V6.00012C2 4.1145 2 3.17169 2.58579 2.58591C3.17157 2.00012 4.11438 2.00012 6 2.00012ZM5.25 8.50012C5.25 8.08591 5.58579 7.75012 6 7.75012H18C18.4142 7.75012 18.75 8.08591 18.75 8.50012C18.75 8.91434 18.4142 9.25012 18 9.25012H6C5.58579 9.25012 5.25 8.91434 5.25 8.50012ZM5.25 6.00012C5.25 5.58591 5.58579 5.25012 6 5.25012H18C18.4142 5.25012 18.75 5.58591 18.75 6.00012C18.75 6.41434 18.4142 6.75012 18 6.75012H6C5.58579 6.75012 5.25 6.41434 5.25 6.00012Z" fill="#1C274C"/>
<path opacity="0.5" d="M18.7469 14.9457H5.25305C5.25833 14.277 5.27268 13.5438 5.3116 13.2543C5.3777 12.7626 5.52676 12.2914 5.90901 11.9091C6.29125 11.5269 6.76252 11.3778 7.25415 11.3117C7.7129 11.2501 8.28576 11.2501 8.95062 11.2501L15.0494 11.2501C15.7142 11.2501 16.2871 11.2501 16.7458 11.3117C17.2375 11.3778 17.7087 11.5269 18.091 11.9091C18.4732 12.2914 18.6223 12.7626 18.6884 13.2543C18.7273 13.5438 18.7417 14.277 18.7469 14.9457Z" fill="#1C274C"/>
<g opacity="0.5">
<path fill-rule="evenodd" clip-rule="evenodd" d="M6.83521 16.8295C7.20569 17.0147 7.35586 17.4652 7.17062 17.8357L6.98684 18.2032C6.94237 18.2922 6.9598 18.3996 7.03013 18.47C7.55699 18.9968 7.68761 19.8017 7.35439 20.4682L7.17062 20.8357C6.98537 21.2062 6.53487 21.3563 6.16439 21.1711C5.7939 20.9859 5.64373 20.5354 5.82898 20.1649L6.01275 19.7973C6.05722 19.7084 6.03979 19.6009 5.96947 19.5306C5.4426 19.0038 5.31198 18.1989 5.6452 17.5324L5.82898 17.1649C6.01422 16.7944 6.46472 16.6442 6.83521 16.8295Z" fill="#1C274C"/>
<path fill-rule="evenodd" clip-rule="evenodd" d="M17.8352 16.8295C18.2057 17.0147 18.3559 17.4652 18.1706 17.8357L17.9868 18.2032C17.9424 18.2922 17.9598 18.3996 18.0301 18.47C18.557 18.9968 18.6876 19.8017 18.3544 20.4682L18.1706 20.8357C17.9854 21.2062 17.5349 21.3563 17.1644 21.1711C16.7939 20.9859 16.6437 20.5354 16.829 20.1649L17.0127 19.7973C17.0572 19.7084 17.0398 19.6009 16.9695 19.5306C16.4426 19.0038 16.312 18.1989 16.6452 17.5324L16.829 17.1649C17.0142 16.7944 17.4647 16.6442 17.8352 16.8295Z" fill="#1C274C"/>
<path fill-rule="evenodd" clip-rule="evenodd" d="M12.4159 16.8762C12.7606 17.1059 12.8537 17.5716 12.6239 17.9162L12.3173 18.3762C12.1491 18.6285 12.2073 18.9683 12.4499 19.1502C13.3294 19.8098 13.5404 21.0416 12.9305 21.9563L12.6239 22.4162C12.3942 22.7609 11.9285 22.854 11.5839 22.6242C11.2392 22.3945 11.1461 21.9288 11.3758 21.5842L11.6825 21.1242C11.8507 20.8719 11.7925 20.5322 11.5499 20.3502C10.6704 19.6906 10.4594 18.4588 11.0692 17.5441L11.3758 17.0842C11.6056 16.7395 12.0713 16.6464 12.4159 16.8762Z" fill="#1C274C"/>
</g>
</svg>
