<svg width="24" height="24" viewBox="0 0 24 24" fill="none" xmlns="http://www.w3.org/2000/svg">
<path d="M14.8149 2.00012H9.18527C7.34749 2.00012 6.42859 2.00012 5.70585 2.44444C5.58115 2.5211 5.46223 2.60679 5.35004 2.70081C4.69979 3.24575 4.40893 4.11739 3.82722 5.86068L3.79139 5.96803C3.47263 6.9233 3.31325 7.40093 3.48163 7.76207C3.53477 7.87604 3.60893 7.97897 3.70022 8.06545C3.98949 8.33949 4.49301 8.33949 5.50006 8.33949H18.5001C19.5071 8.33949 20.0106 8.33949 20.2999 8.06545C20.3912 7.97897 20.4653 7.87604 20.5185 7.76207C20.6869 7.40093 20.5275 6.9233 20.2087 5.96804L20.1729 5.86068L20.1729 5.86062C19.5912 4.11739 19.3003 3.24574 18.6501 2.70081C18.5379 2.60679 18.419 2.5211 18.2943 2.44444C17.5715 2.00012 16.6526 2.00012 14.8149 2.00012Z" fill="#1C274C"/>
<path opacity="0.5" d="M10.958 22.0001H13.044C14.6926 22.0001 15.517 22.0001 16.0802 21.5133C16.6435 21.0265 16.7629 20.2108 17.0018 18.5796L18.501 8.33948H5.50098L7.00019 18.5796C7.23902 20.2108 7.35843 21.0265 7.92171 21.5133C8.48499 22.0001 9.30932 22.0001 10.958 22.0001Z" fill="#1C274C"/>
<path d="M6.76895 17.0001H17.233L17.965 12.0001H6.03692L6.76895 17.0001Z" fill="#1C274C"/>
</svg>
