<svg width="24" height="24" viewBox="0 0 24 24" fill="none" xmlns="http://www.w3.org/2000/svg">
<path d="M20.2699 8.48541L20.9754 12.5652C21.1516 13.5842 20.368 14.5162 19.335 14.5162H14.1539C13.6404 14.5162 13.2494 14.9771 13.3325 15.4844L13.9952 19.5289C14.1028 20.186 14.0721 20.8584 13.9049 21.5028C13.7664 22.0367 13.3545 22.4654 12.8128 22.6394L12.6678 22.686C12.3404 22.7912 11.9831 22.7667 11.6744 22.618C11.3347 22.4543 11.0861 22.1556 10.994 21.8005L10.5183 19.9666C10.3669 19.3831 10.1465 18.8199 9.86218 18.2878C9.44683 17.5102 8.80465 16.8879 8.13711 16.3127L6.69838 15.0729C6.29272 14.7233 6.07968 14.1998 6.12584 13.666L6.93801 4.27329C7.0125 3.41175 7.7328 2.75037 8.59658 2.75037H13.2452C16.7265 2.75037 19.6975 5.17597 20.2699 8.48541Z" fill="#1C274C"/>
<path opacity="0.5" fill-rule="evenodd" clip-rule="evenodd" d="M2.96767 15.2655C3.36893 15.2828 3.71261 14.9809 3.74721 14.5808L4.71881 3.34426C4.78122 2.62246 4.21268 2.00037 3.48671 2.00037C2.80289 2.00037 2.25 2.55511 2.25 3.23763V14.5162C2.25 14.9178 2.5664 15.2482 2.96767 15.2655Z" fill="#1C274C"/>
</svg>
