<svg width="24" height="24" viewBox="0 0 24 24" fill="none" xmlns="http://www.w3.org/2000/svg">
<path opacity="0.5" d="M12 2.00012C6.47715 2.00012 2 6.47727 2 12.0001C2 12.3541 2.01839 12.7037 2.05426 13.0481C2.40307 13.3525 4.367 15.0001 6 15.0001C7.21199 15.0001 8.60628 14.0925 9.38725 13.5001L9.39619 13.4912C9.14413 13.0519 9 12.5429 9 12.0001C9 10.3433 10.3431 9.00012 12 9.00012C13.6569 9.00012 15 10.3433 15 12.0001C15 12.8852 14.6167 13.6808 14.007 14.2299C14.4774 14.6426 15.0911 15.0001 15.8053 15.0001C17.4948 15.0001 17.4948 13.0001 19.1842 13.0001C20.2618 13.0001 21.1102 13.8137 21.5835 14.4031L21.6758 14.5354C21.8874 13.7257 22 12.8761 22 12.0001C22 6.47727 17.5228 2.00012 12 2.00012Z" fill="#1C274C"/>
<path d="M19.5276 5.41729C19.5076 5.4336 19.4881 5.4511 19.4694 5.46979L18.4694 6.46979C18.1765 6.76269 18.1765 7.23756 18.4694 7.53045C18.7623 7.82335 19.2372 7.82335 19.5301 7.53045L20.4345 6.62606C20.1625 6.20007 19.8591 5.79606 19.5276 5.41729Z" fill="#1C274C"/>
<path d="M5.41692 4.47224C5.43323 4.49232 5.45073 4.51176 5.46943 4.53045L6.46943 5.53045C6.76232 5.82335 7.2372 5.82335 7.53009 5.53045C7.82298 5.23756 7.82298 4.76269 7.53009 4.46979L6.6257 3.5654C6.19971 3.83738 5.7957 4.14075 5.41692 4.47224Z" fill="#1C274C"/>
<path d="M10.4694 4.53045C10.1765 4.23756 10.1765 3.76269 10.4694 3.46979C10.7623 3.1769 11.2372 3.1769 11.5301 3.46979L12.5301 4.46979C12.823 4.76269 12.823 5.23756 12.5301 5.53045C12.2372 5.82335 11.7623 5.82335 11.4694 5.53045L10.4694 4.53045Z" fill="#1C274C"/>
<path d="M16.5998 5.45012C16.8483 5.11875 16.7811 4.64865 16.4498 4.40012C16.1184 4.15159 15.6483 4.21875 15.3998 4.55012L13.8998 6.55012C13.6512 6.88149 13.7184 7.35159 14.0498 7.60012C14.3811 7.84865 14.8512 7.78149 15.0998 7.45012L16.5998 5.45012Z" fill="#1C274C"/>
<path d="M8.40929 7.56026C8.5165 7.96036 8.92775 8.1978 9.32785 8.09059L10.6939 7.72457C11.094 7.61736 11.3314 7.20611 11.2242 6.80601C11.117 6.40591 10.7057 6.16847 10.3056 6.27568L8.93962 6.6417C8.53952 6.74891 8.30208 7.16016 8.40929 7.56026Z" fill="#1C274C"/>
<path d="M17.4651 10.3542C17.4845 10.7679 17.1649 11.1191 16.7511 11.1386C16.3373 11.158 15.9862 10.8383 15.9667 10.4246L15.9003 9.01194C15.8809 8.59818 16.2005 8.247 16.6143 8.22755C17.028 8.20811 17.3792 8.52776 17.3987 8.94152L17.4651 10.3542Z" fill="#1C274C"/>
<path d="M18.4366 12.0587C18.7103 12.3695 19.1842 12.3996 19.4951 12.1258L21.1732 10.648C21.484 10.3742 21.5141 9.9003 21.2403 9.58945C20.9666 9.2786 20.4926 9.24854 20.1818 9.5223L18.5037 11.0001C18.1929 11.2739 18.1628 11.7478 18.4366 12.0587Z" fill="#1C274C"/>
<path d="M5.52421 8.16689C5.3528 7.78981 5.51953 7.34517 5.89662 7.17376C6.2737 7.00235 6.71834 7.16909 6.88975 7.54617L7.47497 8.83361C7.64638 9.2107 7.47965 9.65534 7.10257 9.82675C6.72548 9.99815 6.28084 9.83142 6.10943 9.45434L5.52421 8.16689Z" fill="#1C274C"/>
<path d="M6.94271 10.8951C7.27696 11.1398 7.34962 11.6091 7.10498 11.9433L6.26975 13.0845C6.02511 13.4188 5.55583 13.4914 5.22158 13.2468C4.88732 13.0022 4.81467 12.5329 5.0593 12.1986L5.89454 11.0574C6.13917 10.7232 6.60845 10.6505 6.94271 10.8951Z" fill="#1C274C"/>
<path d="M2.85519 8.97941C2.83215 8.56583 3.14874 8.21189 3.56231 8.18885C3.97588 8.16581 4.32982 8.4824 4.35286 8.89597L4.43153 10.308C4.45457 10.7216 4.13798 11.0755 3.7244 11.0986C3.31083 11.1216 2.95689 10.805 2.93385 10.3914L2.85519 8.97941Z" fill="#1C274C"/>
<path d="M5.99994 15.0001C7.21193 15.0001 8.60622 14.0925 9.38719 13.5001L9.39613 13.4912C9.91356 14.3928 10.8858 15.0001 11.9999 15.0001C12.7717 15.0001 13.4754 14.7087 14.007 14.2299C14.4774 14.6426 15.091 15.0001 15.8053 15.0001C16.65 15.0001 17.0724 14.5001 17.4947 14.0001C17.9171 13.5001 18.3395 13.0001 19.1842 13.0001C20.2617 13.0001 21.1102 13.8137 21.5834 14.4031L21.6757 14.5354C21.6599 14.5961 21.6435 14.6565 21.6265 14.7168C21.086 14.2561 20.1861 14.2718 19.4787 14.795C18.8772 15.2398 18.5857 15.9253 18.6854 16.5212L18.584 16.6227L18.2495 16.1704C17.6338 15.3378 16.322 15.2639 15.3195 16.0053C14.317 16.7467 14.0034 18.0226 14.6191 18.8552L14.8044 19.1058L14.6191 19.291C14.1063 19.1296 13.4716 19.2375 12.944 19.6276C12.1467 20.2173 12.0091 21.3208 12.4914 21.9882C12.3286 21.996 12.1648 22 12 22C6.83109 22 2.57808 18.0784 2.0542 13.0481C2.40301 13.3525 4.36694 15.0001 5.99994 15.0001Z" fill="#1C274C"/>
</svg>
