<svg width="24" height="24" viewBox="0 0 24 24" fill="none" xmlns="http://www.w3.org/2000/svg">
<path fill-rule="evenodd" clip-rule="evenodd" d="M3.43157 15.6198L8.3807 20.5689C9.28489 21.4731 9.73699 21.9252 10.2891 21.9897C10.4123 22.0041 10.5368 22.0041 10.6601 21.9897C11.2121 21.9252 11.6642 21.4731 12.5684 20.5689C13.4726 19.6647 13.9247 19.2126 13.9892 18.6605C14.0036 18.5373 14.0036 18.4128 13.9892 18.2896C13.9247 17.7375 13.4726 17.2854 12.5684 16.3812L11.4565 15.2693L8.35253 12.1653L7.6193 11.4321C6.71511 10.5279 6.26301 10.0758 5.71092 10.0113C5.58768 9.99689 5.46318 9.99689 5.33994 10.0113C4.78785 10.0758 4.33575 10.5279 3.43156 11.4321C2.52737 12.3362 2.07528 12.7883 2.0108 13.3404C1.9964 13.4637 1.9964 13.5882 2.0108 13.7114C2.07528 14.2635 2.52737 14.7156 3.43157 15.6198ZM12.1648 8.35302L15.2688 11.457L16.3807 12.5689C17.2849 13.4731 17.737 13.9252 18.2891 13.9897C18.4123 14.0041 18.5368 14.0041 18.6601 13.9897C19.2122 13.9252 19.6642 13.4731 20.5684 12.5689C21.4726 11.6647 21.9247 11.2126 21.9892 10.6605C22.0036 10.5373 22.0036 10.4128 21.9892 10.2896C21.9247 9.73748 21.4726 9.28538 20.5684 8.38119L15.6193 3.43205C14.7151 2.52786 14.263 2.07577 13.7109 2.01128C13.5877 1.99689 13.4632 1.99689 13.3399 2.01128C12.7879 2.07577 12.3358 2.52786 11.4316 3.43205C10.5274 4.33624 10.0753 4.78834 10.0108 5.34043C9.9964 5.46367 9.9964 5.58817 10.0108 5.71141C10.0753 6.2635 10.5274 6.7156 11.4316 7.61979L12.1648 8.35302Z" fill="#1C274C"/>
<path opacity="0.5" d="M11.4566 15.2693L15.2688 11.457L12.1648 8.35303L8.35254 12.1653L11.4566 15.2693Z" fill="#1C274C"/>
<path opacity="0.5" fill-rule="evenodd" clip-rule="evenodd" d="M17.4885 1.9682C17.7814 1.67531 18.2562 1.67531 18.5491 1.96821L21.6531 5.07222C21.946 5.36511 21.946 5.83998 21.6531 6.13288C21.3602 6.42577 20.8854 6.42577 20.5925 6.13288L17.4885 3.02887C17.1956 2.73597 17.1956 2.2611 17.4885 1.9682ZM1.96723 17.4881C2.26012 17.1952 2.735 17.1952 3.02789 17.4881L6.1319 20.5921C6.42479 20.885 6.42479 21.3599 6.1319 21.6528C5.83901 21.9457 5.36413 21.9457 5.07124 21.6528L1.96723 18.5488C1.67434 18.2559 1.67434 17.781 1.96723 17.4881Z" fill="#1C274C"/>
</svg>
