<svg width="24" height="24" viewBox="0 0 24 24" fill="none" xmlns="http://www.w3.org/2000/svg">
<path opacity="0.5" fill-rule="evenodd" clip-rule="evenodd" d="M10 2.00049H9C6.17157 2.00049 4.75736 2.00049 3.87868 2.87917C3 3.75785 3 5.17206 3 8.00049V21.2505H16V17.7505V16.2505V8.00049C16 5.17206 16 3.75785 15.1213 2.87917C14.2426 2.00049 12.8284 2.00049 10 2.00049Z" fill="#1C274C"/>
<path d="M3 21.2505H2C1.58579 21.2505 1.25 21.5863 1.25 22.0005C1.25 22.4147 1.58579 22.7505 2 22.7505H17.25C17.6642 22.7505 18 22.4147 18 22.0005C18 21.5863 17.6642 21.2505 17.25 21.2505H16H3Z" fill="#1C274C"/>
<path d="M10.1431 10.3865C10.3562 10.0313 10.2411 9.57059 9.88587 9.35748C9.53069 9.14437 9.06999 9.25954 8.85688 9.61473L7.35688 12.1147C7.21786 12.3464 7.21422 12.635 7.34735 12.8701C7.48048 13.1053 7.7298 13.2506 8 13.2506H9.67536L8.85688 14.6147C8.64377 14.9699 8.75894 15.4306 9.11413 15.6437C9.46931 15.8568 9.93001 15.7417 10.1431 15.3865L11.6431 12.8865C11.7821 12.6548 11.7858 12.3662 11.6527 12.1311C11.5195 11.8959 11.2702 11.7506 11 11.7506H9.32464L10.1431 10.3865Z" fill="#1C274C"/>
<path d="M16 17.7505H17.5714C17.9462 17.7505 18.25 18.0543 18.25 18.4291V18.5005C18.25 19.7432 19.2574 20.7505 20.5 20.7505C21.7426 20.7505 22.75 19.7432 22.75 18.5005V7.60226C22.75 7.4456 22.75 7.33751 22.7441 7.2321C22.6884 6.24112 22.2422 5.31263 21.5031 4.65011C21.4245 4.57964 21.3401 4.51212 21.2178 4.41427L19.9685 3.41486C19.6451 3.15611 19.1731 3.20855 18.9143 3.53199C18.6556 3.85544 18.708 4.32741 19.0315 4.58617L20.2646 5.57263C20.4091 5.68823 20.4585 5.72817 20.5019 5.76702C20.9453 6.16453 21.2131 6.72163 21.2465 7.31622C21.2497 7.37432 21.25 7.43792 21.25 7.62296V8.00049H20.5C19.6716 8.00049 19 8.67206 19 9.50049V11.9193C19 12.565 19.4131 13.1382 20.0257 13.3424L21.25 13.7505V18.5005C21.25 18.9147 20.9142 19.2505 20.5 19.2505C20.0858 19.2505 19.75 18.9147 19.75 18.5005V18.4291C19.75 17.2259 18.7746 16.2505 17.5714 16.2505H16V17.7505Z" fill="#1C274C"/>
</svg>
