<svg width="24" height="24" viewBox="0 0 24 24" fill="none" xmlns="http://www.w3.org/2000/svg">
<path opacity="0.5" d="M14 22.0002H10C6.22876 22.0002 4.34315 22.0002 3.17157 20.8287C2 19.6571 2 17.7715 2 14.0002V10.0002C2 6.22901 2 4.34339 3.17157 3.17182C4.34315 2.00024 6.23869 2.00024 10.0298 2.00024C10.6358 2.00024 11.1214 2.00024 11.53 2.01691C11.5166 2.09684 11.5095 2.17837 11.5092 2.26081L11.5 5.09521C11.4999 6.19232 11.4998 7.16189 11.6049 7.9434C11.7188 8.79052 11.9803 9.63751 12.6716 10.3288C13.3628 11.02 14.2098 11.2816 15.0569 11.3954C15.8385 11.5005 16.808 11.5004 17.9051 11.5004L18 11.5004H21.9574C22 12.0346 22 12.6903 22 13.5631V14.0002C22 17.7715 22 19.6571 20.8284 20.8287C19.6569 22.0002 17.7712 22.0002 14 22.0002Z" fill="#1C274C"/>
<path fill-rule="evenodd" clip-rule="evenodd" d="M6.37641 11.5002C5.61624 11.5002 5 12.138 5 12.9247C5 13.4048 5.22952 13.8294 5.58121 14.0875C5.22952 14.3455 5 14.7701 5 15.2502C5 15.7304 5.22953 16.155 5.58122 16.413C5.22953 16.6711 5 17.0957 5 17.5758C5 18.3625 5.61624 19.0002 6.3764 19.0002C7.13657 19.0002 7.75281 18.3625 7.75281 17.5758V16.3534C7.99004 16.5542 8.29322 16.6747 8.6236 16.6747C9.38376 16.6747 10 16.0369 10 15.2502C10 14.7701 9.77047 14.3455 9.41879 14.0875C9.77047 13.8294 10 13.4048 10 12.9247C10 12.138 9.38376 11.5002 8.62359 11.5002H6.37641Z" fill="#1C274C"/>
<path d="M11.5092 2.26034L11.5 5.09474C11.4999 6.19184 11.4998 7.16142 11.6049 7.94293C11.7188 8.79005 11.9803 9.63704 12.6716 10.3283C13.3629 11.0196 14.2098 11.2811 15.057 11.395C15.8385 11.5 16.808 11.5 17.9051 11.4999L21.9574 11.4999C21.9698 11.6554 21.9786 11.8213 21.9848 11.9998H22C22 11.7323 22 11.5985 21.9901 11.4411C21.9335 10.5465 21.5617 9.52149 21.0315 8.79877C20.9382 8.67155 20.8743 8.59517 20.7467 8.44243C19.9542 7.49383 18.911 6.31217 18 5.49978C17.1892 4.7767 16.0787 3.98561 15.1101 3.33874C14.2781 2.78299 13.862 2.50511 13.2915 2.29858C13.1403 2.24383 12.9408 2.18335 12.7846 2.1449C12.4006 2.05038 12.0268 2.0175 11.5 2.0061L11.5092 2.26034Z" fill="#1C274C"/>
</svg>
