<svg width="24" height="24" viewBox="0 0 24 24" fill="none" xmlns="http://www.w3.org/2000/svg">
<path d="M18 10.8529V6.00012H14V10.8529C14 11.143 14 11.288 14.0949 11.3466C14.1897 11.4053 14.3194 11.3404 14.5789 11.2107L15.8211 10.5896C15.9089 10.5457 15.9528 10.5237 16 10.5237C16.0472 10.5237 16.0911 10.5457 16.1789 10.5896L17.4211 11.2107C17.6806 11.3404 17.8103 11.4053 17.9051 11.3466C18 11.288 18 11.143 18 10.8529Z" fill="#1C274C"/>
<path opacity="0.5" d="M2 6.94987C2 6.06734 2 5.62607 2.06935 5.25851C2.37464 3.64043 3.64031 2.37476 5.25839 2.06947C5.62595 2.00012 6.06722 2.00012 6.94975 2.00012C7.33642 2.00012 7.52976 2.00012 7.71557 2.0175C8.51665 2.09241 9.27652 2.40716 9.89594 2.92064C10.0396 3.03974 10.1763 3.17645 10.4497 3.44987L11 4.00012C11.8158 4.8159 12.2237 5.22379 12.7121 5.49555C12.9804 5.64483 13.2651 5.76273 13.5604 5.8469C14.0979 6.00012 14.6747 6.00012 15.8284 6.00012H16.2021C18.8345 6.00012 20.1506 6.00012 21.0062 6.76959C21.0849 6.84037 21.1598 6.91526 21.2305 6.99395C22 7.84947 22 9.16566 22 11.798V14.0001C22 17.7714 22 19.657 20.8284 20.8285C19.6569 22.0001 17.7712 22.0001 14 22.0001H10C6.22876 22.0001 4.34315 22.0001 3.17157 20.8285C2 19.657 2 17.7714 2 14.0001V6.94987Z" fill="#1C274C"/>
</svg>
