<svg width="24" height="24" viewBox="0 0 24 24" fill="none" xmlns="http://www.w3.org/2000/svg">
<path opacity="0.5" d="M2 20.0001C2 19.5859 2.33579 19.2501 2.75 19.2501H10H11.25V18.0001V15.0001H12.75V18.0001V19.2501H14H21.25C21.6642 19.2501 22 19.5859 22 20.0001C22 20.4143 21.6642 20.7501 21.25 20.7501H14H10H2.75C2.33579 20.7501 2 20.4143 2 20.0001Z" fill="#1C274C"/>
<path fill-rule="evenodd" clip-rule="evenodd" d="M19 9.80012V8.36876C19 6.65772 19 5.8022 18.4614 5.24611C18.4118 5.19496 18.3594 5.14628 18.3043 5.10027C17.7055 4.60012 16.7841 4.60012 14.9415 4.60012H14.6799C13.8723 4.60012 13.4685 4.60012 13.0922 4.50053C12.8855 4.44581 12.6863 4.36918 12.4985 4.27215C12.1566 4.09551 11.871 3.83038 11.3 3.30012L10.9148 2.94246C10.7234 2.76473 10.6277 2.67587 10.5272 2.59846C10.0936 2.2647 9.56166 2.06011 9.0009 2.01142C8.87083 2.00012 8.7355 2.00012 8.46482 2.00012C7.84705 2.00012 7.53817 2.00012 7.28087 2.0452C6.14822 2.24364 5.26225 3.06632 5.04855 4.11807C5 4.35699 5 4.64381 5 5.21746V9.80012C5 12.2514 5 13.4771 5.8201 14.2386C6.6402 15.0001 7.96013 15.0001 10.6 15.0001H11.25H12.75H13.4C16.0399 15.0001 17.3598 15.0001 18.1799 14.2386C19 13.4771 19 12.2514 19 9.80012ZM13.5 6.75012C13.0858 6.75012 12.75 7.08591 12.75 7.50012C12.75 7.91434 13.0858 8.25012 13.5 8.25012H16.5C16.9142 8.25012 17.25 7.91434 17.25 7.50012C17.25 7.08591 16.9142 6.75012 16.5 6.75012H13.5Z" fill="#1C274C"/>
<circle cx="12" cy="20.0001" r="2" fill="#1C274C"/>
</svg>
