<svg width="24" height="24" viewBox="0 0 24 24" fill="none" xmlns="http://www.w3.org/2000/svg">
<path opacity="0.5" d="M12 22.0005C17.5228 22.0005 22 17.5233 22 12.0005C22 6.47764 17.5228 2.00049 12 2.00049C6.47715 2.00049 2 6.47764 2 12.0005C2 17.5233 6.47715 22.0005 12 22.0005Z" fill="#1C274C"/>
<path d="M15.658 3.22382L14.3376 4.15505C13.6404 4.64679 13.1571 4.98766 12.7387 5.17603V9.5743L14.2887 10.7597L18.3858 9.06308C18.4193 8.60617 18.5719 8.03616 18.7915 7.21577L19.2095 5.6539L19.3212 5.21026C20.9695 6.99353 21.9769 9.37923 21.9769 12.0005C21.9769 12.1976 21.9712 12.3934 21.96 12.5877L20.4493 11.5891C19.7353 11.1171 19.2411 10.7904 18.9132 10.4682L14.7009 12.2126L14.1186 14.0991L16.6986 17.0833C17.146 17.0005 17.7315 17.0005 18.5696 17.0005H20.6406C19.2551 19.3984 16.9037 21.1668 14.1189 21.7725L14.1917 21.5005L14.7793 19.7356C15.0515 18.918 15.2394 18.3536 15.4674 17.9527L12.9151 15.0005H11.0415L8.71853 17.9588C8.9449 18.3593 9.13229 18.9221 9.40314 19.7356L9.99076 21.5005L10.0999 21.822C7.20965 21.2683 4.76172 19.4675 3.33628 17.0005H5.61279C6.45913 17.0005 7.04778 17.0005 7.49688 17.0857L9.85371 14.0843L9.27685 12.2154L5.12864 10.4672C4.8008 10.7898 4.30632 11.1166 3.59168 11.589L2.04097 12.614L2.01944 12.6294C2.00654 12.4214 2 12.2117 2 12.0005C2 9.35972 3.02243 6.95804 4.69259 5.17055L4.8315 5.65381L5.24951 7.21567C5.46881 8.03506 5.62126 8.60467 5.65502 9.0613L9.68715 10.7606L11.2387 9.5739V5.15821C10.8253 4.96053 10.3502 4.60983 9.66562 4.10452L8.16997 3.00049L7.9628 2.84588C9.19428 2.3023 10.5562 2.00049 11.9885 2.00049C13.436 2.00049 14.8117 2.30877 16.0534 2.86334L15.658 3.22382Z" fill="#1C274C"/>
</svg>
