<svg width="24" height="24" viewBox="0 0 24 24" fill="none" xmlns="http://www.w3.org/2000/svg">
<path d="M7 4.82948C7 6.37727 8.72593 8.00773 10.1497 9.08944C10.9489 9.69656 11.3484 10.0001 12 10.0001C12.6516 10.0001 13.0512 9.69657 13.8503 9.08945C15.2741 8.00775 17 6.37729 17 4.82947C17 2.0393 14.2499 0.997585 12 3.15297C9.75008 0.997585 7 2.0393 7 4.82948Z" fill="#1C274C"/>
<path opacity="0.5" d="M6.25993 21.3885H6C5.05719 21.3885 4.58579 21.3885 4.29289 21.0956C4 20.8027 4 20.3313 4 19.3885V18.2766C4 17.7581 4 17.4988 4.13318 17.2673C4.26636 17.0358 4.46727 16.9189 4.8691 16.6852C7.51457 15.1466 11.2715 14.2804 13.7791 15.776C13.9475 15.8765 14.0991 15.9978 14.2285 16.1432C14.7866 16.7701 14.746 17.7162 14.1028 18.2776C13.9669 18.3962 13.8222 18.4861 13.6764 18.5173C13.7962 18.5034 13.911 18.4875 14.0206 18.47C14.932 18.3247 15.697 17.8376 16.3974 17.3086L18.2046 15.9434C18.8417 15.4621 19.7873 15.462 20.4245 15.9432C20.9982 16.3763 21.1736 17.0895 20.8109 17.6709C20.388 18.3488 19.7921 19.2161 19.2199 19.746C18.6469 20.2767 17.7939 20.7505 17.0975 21.0867C16.326 21.459 15.4738 21.6736 14.6069 21.8139C12.8488 22.0985 11.0166 22.055 9.27633 21.6965C8.29253 21.4938 7.27079 21.3885 6.25993 21.3885Z" fill="#1C274C"/>
</svg>
