<svg width="24" height="24" viewBox="0 0 24 24" fill="none" xmlns="http://www.w3.org/2000/svg">
<path fill-rule="evenodd" clip-rule="evenodd" d="M11.1902 3.30852C10.9762 2.94145 10.3524 2.71883 9.7187 3.08098C9.08735 3.44181 8.9763 4.07785 9.18664 4.43854L11.7123 8.76966C11.921 9.12748 11.8 9.5867 11.4422 9.79536C11.0844 10.004 10.6252 9.8831 10.4165 9.52528L7.04897 3.75045C6.83492 3.38338 6.21111 3.16076 5.57743 3.52291C4.94608 3.88374 4.83503 4.51978 5.04537 4.88047L8.83385 11.3771C9.04251 11.735 8.92159 12.1942 8.56377 12.4028C8.20596 12.6115 7.74673 12.4906 7.53807 12.1328L5.8543 9.24536C5.64025 8.87828 5.01644 8.65566 4.38276 9.01782C3.75141 9.37864 3.64036 10.0147 3.8507 10.3754L7.63918 16.872C9.24812 19.6311 13.2185 20.5265 16.5855 18.6023C19.9501 16.6793 21.1462 12.8378 19.5409 10.0851L17.0153 5.754C16.8012 5.38693 16.1774 5.16431 15.5437 5.52647C14.9124 5.88729 14.8013 6.52333 15.0117 6.88402L16.6954 9.77143C16.7962 9.94424 16.8238 10.1502 16.772 10.3434C16.7202 10.5366 16.5934 10.7011 16.4197 10.8004C14.8772 11.6819 14.4045 13.3865 15.0798 14.5445C15.2885 14.9023 15.1676 15.3615 14.8098 15.5702C14.4519 15.7788 13.9927 15.6579 13.7841 15.3001C12.8713 13.7349 13.2401 11.8503 14.419 10.5182C14.7486 10.1458 14.8615 9.60409 14.6109 9.17451L11.1902 3.30852Z" fill="#1C274C"/>
<g opacity="0.5">
<path fill-rule="evenodd" clip-rule="evenodd" d="M4.41382 17.8592C4.77163 17.6505 5.23086 17.7714 5.43951 18.1292C6.26638 19.5472 7.53047 20.6195 9.08935 21.3152C9.4676 21.484 9.63738 21.9275 9.46856 22.3058C9.29974 22.684 8.85625 22.8538 8.478 22.685C6.66649 21.8765 5.14669 20.6048 4.14374 18.8849C3.93508 18.527 4.056 18.0678 4.41382 17.8592Z" fill="#1C274C"/>
<path fill-rule="evenodd" clip-rule="evenodd" d="M18.9058 3.92206C17.8919 2.88659 16.4459 2.50464 15.0304 2.90742C14.632 3.02078 14.2171 2.78971 14.1038 2.39131C13.9904 1.99291 14.2215 1.57805 14.6199 1.46468C16.5581 0.913194 18.5745 1.43972 19.9776 2.87262C20.2674 3.16858 20.2624 3.64343 19.9664 3.93322C19.6704 4.22302 19.1956 4.21802 18.9058 3.92206Z" fill="#1C274C"/>
</g>
</svg>
