<svg width="24" height="24" viewBox="0 0 24 24" fill="none" xmlns="http://www.w3.org/2000/svg">
<path opacity="0.5" d="M2 12.0004C2 7.28632 2 4.9293 3.46447 3.46483C4.92893 2.00037 7.28595 2.00037 12 2.00037C16.714 2.00037 19.0711 2.00037 20.5355 3.46483C22 4.9293 22 7.28632 22 12.0004C22 16.7144 22 19.0714 20.5355 20.5359C19.0711 22.0004 16.714 22.0004 12 22.0004C7.28595 22.0004 4.92893 22.0004 3.46447 20.5359C2 19.0714 2 16.7144 2 12.0004Z" fill="#1C274C"/>
<path fill-rule="evenodd" clip-rule="evenodd" d="M11.7184 7.21595C11.8374 6.81921 11.6123 6.4011 11.2155 6.28207C10.8188 6.16305 10.4007 6.38819 10.2816 6.78493L9.54198 9.25044H7C6.58579 9.25044 6.25 9.58623 6.25 10.0004C6.25 10.4147 6.58579 10.7504 7 10.7504H9.09198L8.34198 13.2504H6C5.58579 13.2504 5.25 13.5862 5.25 14.0004C5.25 14.4147 5.58579 14.7504 6 14.7504H7.89198L7.28163 16.7849C7.16261 17.1817 7.38774 17.5998 7.78449 17.7188C8.18123 17.8378 8.59935 17.6127 8.71837 17.216L9.45802 14.7504H12.892L12.2816 16.7849C12.1626 17.1817 12.3877 17.5998 12.7845 17.7188C13.1812 17.8378 13.5993 17.6127 13.7184 17.216L14.458 14.7504H17C17.4142 14.7504 17.75 14.4147 17.75 14.0004C17.75 13.5862 17.4142 13.2504 17 13.2504H14.908L15.658 10.7504H18C18.4142 10.7504 18.75 10.4147 18.75 10.0004C18.75 9.58623 18.4142 9.25044 18 9.25044H16.108L16.7184 7.21595C16.8374 6.81921 16.6123 6.4011 16.2155 6.28207C15.8188 6.16305 15.4007 6.38819 15.2816 6.78493L14.542 9.25044H11.108L11.7184 7.21595ZM14.092 10.7504L13.342 13.2504H9.90802L10.658 10.7504H14.092Z" fill="#1C274C"/>
</svg>
