<svg width="24" height="24" viewBox="0 0 24 24" fill="none" xmlns="http://www.w3.org/2000/svg">
<path opacity="0.5" fill-rule="evenodd" clip-rule="evenodd" d="M2 9.13746C2 13.5425 5.29819 16.0837 8.10627 18.2472C8.39814 18.4721 8.68471 18.6929 8.96173 18.9112C10 19.7297 11 20.5004 12 20.5004V5.501C7.50016 0.82583 2 4.27453 2 9.13746Z" fill="#1C274C"/>
<path d="M14 7.49964L12 5.501V20.5004C13 20.5004 14 19.7297 15.0383 18.9112C15.3153 18.6929 15.6019 18.4721 15.8937 18.2472C18.7018 16.0837 22 13.5425 22 9.13746C22 4.67501 17.3685 1.40345 13.1285 4.50749L15.0605 6.43879C15.3534 6.73163 15.3535 7.20651 15.0607 7.49945C14.7678 7.7924 14.2929 7.79248 14 7.49964Z" fill="#1C274C"/>
</svg>
