<svg width="24" height="24" viewBox="0 0 24 24" fill="none" xmlns="http://www.w3.org/2000/svg">
<path opacity="0.5" d="M2 9.13746C2 14.0004 6.01943 16.5918 8.96173 18.9112C10 19.7297 11 20.5004 12 20.5004C13 20.5004 14 19.7297 15.0383 18.9112C17.9806 16.5918 22 14.0004 22 9.13746C22 4.27453 16.4998 0.82583 12 5.501C7.50016 0.82583 2 4.27453 2 9.13746Z" fill="#1C274C"/>
<path d="M16.5 13.2874C14.0251 10.5717 11 12.575 11 15.3998C11 17.9587 12.814 19.4348 14.3584 20.6915L14.4018 20.7268C14.5474 20.8453 14.6903 20.9619 14.829 21.0773C15.4 21.5527 15.95 22.0004 16.5 22.0004C17.05 22.0004 17.6 21.5527 18.171 21.0773C19.7893 19.7299 22 18.2246 22 15.3998C22 14.4718 21.6735 13.6325 21.1474 13.02C20.0718 11.7681 18.1619 11.4639 16.5 13.2874Z" fill="#1C274C"/>
</svg>
