<svg width="24" height="24" viewBox="0 0 24 24" fill="none" xmlns="http://www.w3.org/2000/svg">
<path fill-rule="evenodd" clip-rule="evenodd" d="M12 2.00049C7.86697 2.00049 5.80046 2.00049 5.19825 3.29967C5.14649 3.41134 5.10282 3.52734 5.06765 3.64658C4.65857 5.03378 6.11981 6.6416 9.0423 9.85723L11 12.0005H13L14.9577 9.85723C17.8802 6.6416 19.3414 5.03378 18.9323 3.64658C18.8972 3.52734 18.8535 3.41134 18.8017 3.29967C18.1995 2.00049 16.133 2.00049 12 2.00049ZM10 4.75049C9.58579 4.75049 9.25 5.08627 9.25 5.50049C9.25 5.9147 9.58579 6.25049 10 6.25049H14C14.4142 6.25049 14.75 5.9147 14.75 5.50049C14.75 5.08627 14.4142 4.75049 14 4.75049H10Z" fill="#1C274C"/>
<path opacity="0.5" d="M5.19825 20.7013C5.80046 22.0005 7.86697 22.0005 12 22.0005C16.133 22.0005 18.1995 22.0005 18.8017 20.7013C18.8535 20.5896 18.8972 20.4736 18.9323 20.3544C19.3414 18.9672 17.8802 17.3594 14.9577 14.1437L13 12.0005H11L9.0423 14.1437C6.11981 17.3594 4.65857 18.9672 5.06765 20.3544C5.10282 20.4736 5.14649 20.5896 5.19825 20.7013Z" fill="#1C274C"/>
<path d="M10 17.7505C9.58579 17.7505 9.25 18.0863 9.25 18.5005C9.25 18.9147 9.58579 19.2505 10 19.2505H14C14.4142 19.2505 14.75 18.9147 14.75 18.5005C14.75 18.0863 14.4142 17.7505 14 17.7505H10Z" fill="#1C274C"/>
</svg>
