<svg width="24" height="24" viewBox="0 0 24 24" fill="none" xmlns="http://www.w3.org/2000/svg">
<path fill-rule="evenodd" clip-rule="evenodd" d="M12 22.0004C7.58172 22.0004 4 18.3545 4 13.8571C4 9.3949 6.55332 4.18796 10.5371 2.32592C11.0014 2.10888 11.5007 2.00037 12 2.00037V22.0004Z" fill="#1C274C"/>
<path opacity="0.3" d="M13.4629 2.32592C12.9986 2.10888 12.4993 2.00037 12 2.00037V9.00043L16.4317 4.56877C15.5689 3.62095 14.5713 2.84398 13.4629 2.32592Z" fill="#1C274C"/>
<path opacity="0.4" d="M12 9.00044V14.5004L18.6142 7.88614C18.0421 6.66597 17.3062 5.5296 16.4317 4.56879L12 9.00044Z" fill="#1C274C"/>
<path opacity="0.6" d="M12 19.5004L19.811 11.6894C19.5911 10.3989 19.1838 9.10097 18.6142 7.88611L12 14.5004V19.5004Z" fill="#1C274C"/>
<path opacity="0.7" d="M19.811 11.6894L12 19.5004V22.0003C16.4183 22.0003 20 18.3545 20 13.857C20 13.1478 19.9355 12.4198 19.811 11.6894Z" fill="#1C274C"/>
</svg>
