<svg width="24" height="24" viewBox="0 0 24 24" fill="none" xmlns="http://www.w3.org/2000/svg">
<path opacity="0.5" d="M12.7949 2.00037H10.7949C8.9093 2.00037 7.96649 2.00037 7.38071 2.58615C6.79492 3.17194 6.79492 4.11475 6.79492 6.00037V8.00037V9.50037H16.7949V8.00037V6.00037C16.7949 4.11475 16.7949 3.17194 16.2091 2.58615C15.6233 2.00037 14.6805 2.00037 12.7949 2.00037Z" fill="#1C274C"/>
<path fill-rule="evenodd" clip-rule="evenodd" d="M13.2304 5.78347C12.3352 5.29532 11.2533 5.29532 10.358 5.78347L5.56381 8.39765C4.59982 8.92329 4 9.93355 4 11.0315V15.9692C4 17.0672 4.59982 18.0774 5.56381 18.6031L10.358 21.2172C11.2533 21.7054 12.3352 21.7054 13.2304 21.2172L18.0246 18.6031C18.9886 18.0774 19.5885 17.0672 19.5885 15.9692V11.0315C19.5885 9.93355 18.9886 8.92328 18.0246 8.39765L13.2304 5.78347ZM11.7944 10.5004C11.5104 10.5004 11.3204 10.8412 10.9404 11.5229L10.8421 11.6992C10.7341 11.8929 10.6801 11.9898 10.5959 12.0537C10.5117 12.1176 10.4069 12.1413 10.1972 12.1888L10.0063 12.232C9.26839 12.3989 8.89944 12.4824 8.81166 12.7647C8.72388 13.047 8.97541 13.3411 9.47846 13.9293L9.60861 14.0815C9.75156 14.2487 9.82304 14.3323 9.85519 14.4357C9.88735 14.5391 9.87654 14.6506 9.85493 14.8736L9.83525 15.0767C9.7592 15.8615 9.72117 16.254 9.95098 16.4284C10.1808 16.6029 10.5262 16.4438 11.2171 16.1257L11.3959 16.0434C11.5922 15.953 11.6904 15.9078 11.7944 15.9078C11.8985 15.9078 11.9967 15.953 12.193 16.0434L12.3717 16.1257C13.0626 16.4438 13.4081 16.6029 13.6379 16.4284C13.8677 16.254 13.8297 15.8615 13.7536 15.0767L13.7339 14.8736C13.7123 14.6506 13.7015 14.5391 13.7337 14.4357C13.7658 14.3323 13.8373 14.2487 13.9802 14.0815L14.1104 13.9293C14.6135 13.3411 14.865 13.047 14.7772 12.7647C14.6894 12.4824 14.3205 12.3989 13.5826 12.232L13.3917 12.1888C13.182 12.1413 13.0771 12.1176 12.993 12.0537C12.9088 11.9898 12.8548 11.8929 12.7468 11.6992L12.6485 11.5229C12.2685 10.8412 12.0785 10.5004 11.7944 10.5004Z" fill="#1C274C"/>
</svg>
