<svg width="24" height="24" viewBox="0 0 24 24" fill="none" xmlns="http://www.w3.org/2000/svg">
<path d="M14.5 4.50049C14.5 5.8812 13.3807 7.00049 12 7.00049C10.6193 7.00049 9.5 5.8812 9.5 4.50049C9.5 3.11978 10.6193 2.00049 12 2.00049C13.3807 2.00049 14.5 3.11978 14.5 4.50049Z" fill="#1C274C"/>
<path fill-rule="evenodd" clip-rule="evenodd" d="M8.9 15.5505C9.14853 15.2191 9.61863 15.152 9.95 15.4005C10.2814 15.649 10.3485 16.1191 10.1 16.4505L9.17549 17.6832C9.16815 17.693 9.1609 17.7026 9.15373 17.7122C9.02731 17.8809 8.92789 18.0135 8.81333 18.1333C8.5315 18.4279 8.18768 18.6562 7.80675 18.8016C7.65192 18.8607 7.49109 18.9009 7.28659 18.9519C7.27499 18.9548 7.26326 18.9578 7.25138 18.9607L5.45797 19.4091C5.04189 19.5131 4.75 19.8869 4.75 20.3158C4.75 20.832 5.16846 21.2505 5.68466 21.2505H6.36842C7.91433 21.2505 9.41854 20.7491 10.6553 19.8215L12.55 18.4005C12.8814 18.152 13.3515 18.2191 13.6 18.5505C13.8485 18.8819 13.7814 19.352 13.45 19.6005L12.5453 20.279L13.0371 20.4634C13.571 20.6636 13.8118 20.7536 14.0537 20.8293C14.7819 21.0569 15.5355 21.1935 16.2973 21.2361C16.5503 21.2502 16.8074 21.2505 17.3776 21.2505H18.3153C18.8315 21.2505 19.25 20.832 19.25 20.3158C19.25 19.8869 18.9581 19.5131 18.542 19.4091L17.0684 19.0407C17.0408 19.0338 17.0136 19.027 16.9866 19.0203C16.511 18.9017 16.1357 18.8081 15.8003 18.6148C15.7 18.557 15.6035 18.4929 15.5114 18.4229C15.203 18.1889 14.9711 17.8793 14.6773 17.4869C14.6606 17.4647 14.6438 17.4422 14.6267 17.4194L13.9 16.4505C13.6515 16.1191 13.7186 15.649 14.05 15.4005C14.3814 15.152 14.8515 15.2191 15.1 15.5505L15.8267 16.5194C16.1952 17.0108 16.2982 17.137 16.4182 17.2281C16.4601 17.2599 16.504 17.289 16.5496 17.3153C16.6801 17.3906 16.8364 17.4365 17.4322 17.5855L18.9058 17.9539C19.9897 18.2248 20.75 19.1986 20.75 20.3158C20.75 21.6605 19.66 22.7505 18.3153 22.7505H17.3524C16.8139 22.7505 16.5133 22.7505 16.2136 22.7337C15.3283 22.6843 14.4525 22.5255 13.6062 22.2609C13.3197 22.1714 13.0382 22.0658 12.534 21.8767L11.1016 21.3396C9.69806 22.258 8.05372 22.7505 6.36842 22.7505H5.68466C4.34003 22.7505 3.25 21.6605 3.25 20.3158C3.25 19.1986 4.01034 18.2248 5.09417 17.9539L6.88758 17.5055C7.14327 17.4416 7.21157 17.4232 7.27182 17.4002C7.44497 17.3341 7.60125 17.2304 7.72936 17.0964C7.77394 17.0498 7.81736 16.994 7.97549 16.7832L8.9 15.5505Z" fill="#1C274C"/>
<g opacity="0.5">
<path d="M12.0002 9.771C11.644 9.77101 11.3211 9.79149 11.1392 9.82234L10.2476 9.97248C8.23506 10.3114 6.7502 12.074 6.7502 14.1506C6.7502 15.2314 6.2157 16.2438 5.32068 16.8468L5.21944 16.915C4.96467 17.0866 4.6882 17.2232 4.3973 17.3212L3.2396 17.7112C2.84706 17.8434 2.42165 17.6323 2.28944 17.2398C2.15722 16.8472 2.36826 16.4218 2.76081 16.2896L3.9185 15.8997C4.08198 15.8446 4.23766 15.7677 4.3814 15.6709L4.48263 15.6027C4.96024 15.281 5.2502 14.7368 5.2502 14.1506C5.2502 11.353 7.25281 8.95571 9.99849 8.49331L10.8885 8.34343C11.1929 8.29188 11.6133 8.27101 12.0002 8.271C12.3869 8.27098 12.8071 8.29172 13.1116 8.34338L14.0019 8.49331C16.7476 8.95571 18.7502 11.353 18.7502 14.1506C18.7502 14.7368 19.0402 15.281 19.5178 15.6027L19.619 15.6709C19.7627 15.7677 19.9184 15.8446 20.0819 15.8997L21.2396 16.2896C21.6321 16.4218 21.8432 16.8472 21.711 17.2398C21.5788 17.6323 21.1534 17.8434 20.7608 17.7112L19.6031 17.3212C19.3122 17.2232 19.0357 17.0866 18.781 16.915L18.6797 16.8468C17.7847 16.2439 17.2502 15.2314 17.2502 14.1506C17.2502 12.074 15.7653 10.3114 13.7528 9.97248L12.861 9.8223C12.6793 9.79144 12.3565 9.77098 12.0002 9.771Z" fill="#1C274C"/>
</g>
</svg>
