<svg width="24" height="24" viewBox="0 0 24 24" fill="none" xmlns="http://www.w3.org/2000/svg">
<path d="M12.052 1.25025H11.948C11.0495 1.25022 10.3003 1.25019 9.70552 1.33016C9.07773 1.41456 8.51093 1.60023 8.05546 2.0557C7.59999 2.51117 7.41432 3.07797 7.32991 3.70577C7.24995 4.30054 7.24997 5.04975 7.25 5.94821L7.25 6.02596C7.70703 6.01101 8.20535 6.00475 8.75 6.00213V6.00025C8.75 5.03624 8.7516 4.38868 8.81654 3.90564C8.87858 3.44418 8.9858 3.24668 9.11612 3.11636C9.24644 2.98605 9.44393 2.87882 9.9054 2.81678C10.3884 2.75184 11.036 2.75025 12 2.75025C12.964 2.75025 13.6116 2.75184 14.0946 2.81678C14.5561 2.87882 14.7536 2.98605 14.8839 3.11636C15.0142 3.24668 15.1214 3.44418 15.1835 3.90564C15.2484 4.38868 15.25 5.03624 15.25 6.00025V6.00213C15.7947 6.00475 16.293 6.01101 16.75 6.02596V5.94825C16.75 5.04979 16.7501 4.30054 16.6701 3.70577C16.5857 3.07797 16.4 2.51117 15.9445 2.0557C15.4891 1.60023 14.9223 1.41456 14.2945 1.33016C13.6997 1.25019 12.9505 1.25022 12.052 1.25025Z" fill="#1C274C"/>
<path opacity="0.5" fill-rule="evenodd" clip-rule="evenodd" d="M2 14.0002C2 10.229 2 8.34339 3.17157 7.17182C4.34315 6.00024 6.22876 6.00024 10 6.00024H14C17.7712 6.00024 19.6569 6.00024 20.8284 7.17182C22 8.34339 22 10.229 22 14.0002C22 17.7715 22 19.6571 20.8284 20.8287C19.6569 22.0002 17.7712 22.0002 14 22.0002H9.99998C6.22876 22.0002 4.34314 22.0002 3.17157 20.8287C2 19.6571 2 17.7715 2 14.0002ZM12.75 12.5002C12.75 12.086 12.4142 11.7502 12 11.7502C11.5858 11.7502 11.25 12.086 11.25 12.5002V13.2502H10.5C10.0858 13.2502 9.75 13.586 9.75 14.0002C9.75 14.4145 10.0858 14.7502 10.5 14.7502H11.25V15.5002C11.25 15.9145 11.5858 16.2502 12 16.2502C12.4142 16.2502 12.75 15.9145 12.75 15.5002V14.7502H13.5C13.9142 14.7502 14.25 14.4145 14.25 14.0002C14.25 13.586 13.9142 13.2502 13.5 13.2502H12.75V12.5002Z" fill="#1C274C"/>
<path fill-rule="evenodd" clip-rule="evenodd" d="M12 18.0002C14.2091 18.0002 16 16.2094 16 14.0002C16 11.7911 14.2091 10.0002 12 10.0002C9.79086 10.0002 8 11.7911 8 14.0002C8 16.2094 9.79086 18.0002 12 18.0002ZM12.75 12.5002C12.75 12.086 12.4142 11.7502 12 11.7502C11.5858 11.7502 11.25 12.086 11.25 12.5002V13.2502H10.5C10.0858 13.2502 9.75 13.586 9.75 14.0002C9.75 14.4145 10.0858 14.7502 10.5 14.7502H11.25V15.5002C11.25 15.9145 11.5858 16.2502 12 16.2502C12.4142 16.2502 12.75 15.9145 12.75 15.5002V14.7502H13.5C13.9142 14.7502 14.25 14.4145 14.25 14.0002C14.25 13.586 13.9142 13.2502 13.5 13.2502H12.75V12.5002Z" fill="#1C274C"/>
</svg>
