<svg width="24" height="24" viewBox="0 0 24 24" fill="none" xmlns="http://www.w3.org/2000/svg">
<path d="M12.475 5.18365L7.49717 9.60839C6.56659 10.4356 6.1013 10.8492 5.92983 11.3375C5.77925 11.7664 5.77925 12.2338 5.92983 12.6627C6.1013 13.151 6.56659 13.5646 7.49717 14.3918L12.475 18.8166C12.8973 19.1919 13.1085 19.3796 13.2878 19.3863C13.4436 19.3922 13.5932 19.325 13.6924 19.2047C13.8065 19.0662 13.8065 18.7836 13.8065 18.2186V15.4287C16.2346 15.4287 18.7991 16.2085 20.6718 17.5929C21.6467 18.3136 22.1341 18.674 22.3198 18.6597C22.5008 18.6459 22.6156 18.5752 22.7095 18.4199C22.8058 18.2605 22.7208 17.7626 22.5506 16.7668C21.4456 10.3007 16.9956 8.57153 13.8065 8.57153V5.78158C13.8065 5.21656 13.8065 4.93406 13.6924 4.79555C13.5932 4.67523 13.4436 4.60804 13.2878 4.61388C13.1085 4.62059 12.8973 4.80828 12.475 5.18365Z" fill="#1C274C"/>
<g opacity="0.5">
<path fill-rule="evenodd" clip-rule="evenodd" d="M9.81753 3.98991C9.53568 3.68638 9.06113 3.6688 8.7576 3.95065L3.54139 8.79427C2.59445 9.67357 2.0564 10.9074 2.0564 12.1997C2.0564 13.5619 2.65407 14.8555 3.69138 15.7384L8.7818 20.0714C9.09722 20.3398 9.57057 20.3018 9.83905 19.9864C10.1075 19.671 10.0695 19.1976 9.75406 18.9291L4.66364 14.5962C3.96116 13.9983 3.5564 13.1222 3.5564 12.1997C3.5564 11.3246 3.92078 10.4889 4.56207 9.89346L9.77827 5.04984C10.0818 4.76799 10.0994 4.29344 9.81753 3.98991Z" fill="#1C274C"/>
</g>
</svg>
