<svg width="24" height="24" viewBox="0 0 24 24" fill="none" xmlns="http://www.w3.org/2000/svg">
<path fill-rule="evenodd" clip-rule="evenodd" d="M14.2502 4.48003L14.2502 7.53769C14.2501 7.64891 14.2498 7.80747 14.2711 7.94359C14.2971 8.11 14.3827 8.43128 14.7154 8.6266C15.0357 8.81471 15.3491 8.74485 15.498 8.69855C15.6279 8.65819 15.7703 8.59036 15.8764 8.53979L17.0002 8.00594L18.1241 8.53979C18.2302 8.59036 18.3726 8.65819 18.5025 8.69855C18.6514 8.74485 18.9648 8.81471 19.2851 8.6266C19.6178 8.43128 19.7034 8.11001 19.7294 7.94359C19.7507 7.80748 19.7504 7.64894 19.7503 7.53771L19.7502 3.03179C19.863 3.02649 19.9738 3.02201 20.082 3.01824C21.1538 2.9809 22.0001 3.86123 22.0001 4.93368V16.1441C22.0001 17.2551 21.094 18.154 19.9852 18.2233C19.0158 18.2839 17.8768 18.4025 17.0001 18.6338C15.9186 18.9192 15.0108 19.7013 13.6277 20.0697C13.0015 20.2365 12.3031 20.3262 12.0002 20.393V5.17436C12.321 5.09579 13.3825 4.9719 13.6739 4.80324C13.8582 4.69659 14.0514 4.5878 14.2502 4.48003ZM19.7278 12.8186C19.8283 13.2204 19.584 13.6276 19.1821 13.7281L15.1821 14.7281C14.7803 14.8286 14.3731 14.5842 14.2726 14.1824C14.1722 13.7805 14.4165 13.3733 14.8183 13.2729L18.8183 12.2729C19.2202 12.1724 19.6274 12.4167 19.7278 12.8186Z" fill="#1C274C"/>
<path d="M18.2502 3.1515C17.6302 3.2248 17.0207 3.33208 16.5001 3.48793C16.2585 3.56024 16.0064 3.6519 15.7502 3.75689V3.95051V6.93908L16.4996 6.58314L16.5084 6.57871C16.5574 6.55365 16.7639 6.44805 17.0002 6.44805C17.0478 6.44805 17.0941 6.45233 17.1382 6.45936C17.3133 6.48727 17.453 6.55869 17.4921 6.57871L17.5009 6.58314L18.2502 6.93908V3.64714V3.1515Z" fill="#1C274C"/>
<path opacity="0.5" d="M12 5.21444C11.6658 5.15095 10.9426 5.05313 10.2823 4.87593C8.9381 4.51524 8.04921 3.76478 7 3.48791C6.11349 3.25398 4.95877 3.13537 3.9824 3.07536C2.8863 3.00799 2 3.9001 2 4.99827V16.1441C2 17.255 2.90605 18.1539 4.01486 18.2233C4.98428 18.2839 6.12329 18.4025 7 18.6338C7.48596 18.7621 8.21615 19.065 8.87295 19.3597C9.87752 19.8105 10.9247 20.1561 12 20.3931V5.21444Z" fill="#1C274C"/>
<path d="M4.27257 12.8188C4.37303 12.4169 4.78023 12.1726 5.18208 12.2731L9.18208 13.2731C9.58393 13.3735 9.82825 13.7807 9.72778 14.1826C9.62732 14.5844 9.22012 14.8287 8.81828 14.7283L4.81828 13.7283C4.41643 13.6278 4.17211 13.2206 4.27257 12.8188Z" fill="#1C274C"/>
<path d="M5.18208 8.27306C4.78023 8.1726 4.37303 8.41692 4.27257 8.81876C4.17211 9.22061 4.41643 9.62781 4.81828 9.72827L8.81828 10.7283C9.22012 10.8287 9.62732 10.5844 9.72778 10.1826C9.82825 9.78072 9.58393 9.37352 9.18208 9.27306L5.18208 8.27306Z" fill="#1C274C"/>
</svg>
