<svg width="24" height="24" viewBox="0 0 24 24" fill="none" xmlns="http://www.w3.org/2000/svg">
<path d="M13.2978 20.0263L20.0785 13.3966C22.6407 10.8914 22.6407 6.82963 20.0785 4.32441C17.5162 1.8192 13.3619 1.8192 10.7996 4.32442L10.3343 4.77942C9.91498 3.15171 8.66775 1.97856 7.21321 2.00042C5.4411 2.02706 4.03233 3.81744 4.06664 5.99935L4.03449 9.34069C4.02721 10.0968 4.02358 10.4749 3.88984 10.8111L3.88574 10.8212L13.1931 20.1286L13.2978 20.0263Z" fill="#1C274C"/>
<path opacity="0.5" d="M4.0188 16.5369L7.58758 20.0262C8.93345 21.3421 9.60638 22 10.4426 22C11.2568 22 11.9163 21.3762 13.1929 20.1285L3.88558 10.8212C3.74995 11.1537 3.45438 11.475 2.86916 12.1113C2.28972 12.7413 2 13.209 2 13.7455C2 14.563 2.67293 15.221 4.0188 16.5369Z" fill="#1C274C"/>
</svg>
