<svg width="24" height="24" viewBox="0 0 24 24" fill="none" xmlns="http://www.w3.org/2000/svg">
<path opacity="0.5" d="M1 12.0002C1 6.81479 1 4.22207 2.61091 2.61116C4.22183 1.00024 6.81455 1.00024 12 1.00024C17.1854 1.00024 19.7782 1.00024 21.3891 2.61116C23 4.22207 23 6.81479 23 12.0002C23 17.1857 23 19.7784 21.3891 21.3893C19.7782 23.0002 17.1854 23.0002 12 23.0002C6.81455 23.0002 4.22183 23.0002 2.61091 21.3893C1 19.7784 1 17.1857 1 12.0002Z" fill="#1C274C"/>
<path d="M13.9265 14.3021C14.1716 14.111 14.3938 13.8888 14.8382 13.4443L20.3785 7.90399C20.5125 7.77004 20.4512 7.53934 20.2722 7.47725C19.6182 7.25036 18.7675 6.82438 17.9717 6.0286C17.176 5.23281 16.75 4.3821 16.5231 3.72813C16.461 3.54916 16.2303 3.48786 16.0964 3.62181L10.556 9.16216C10.1116 9.60658 9.88937 9.82879 9.69827 10.0738C9.47284 10.3628 9.27957 10.6755 9.12188 11.0064C8.9882 11.2869 8.88883 11.585 8.69008 12.1813L8.43327 12.9517L8.02491 14.1768L7.64202 15.3254C7.54422 15.6189 7.62058 15.9424 7.83928 16.1611C8.05798 16.3798 8.38148 16.4561 8.6749 16.3583L9.82357 15.9754L11.0486 15.5671L11.8191 15.3103L11.8191 15.3103C12.4153 15.1115 12.7134 15.0121 12.9939 14.8785C13.3248 14.7208 13.6375 14.5275 13.9265 14.3021Z" fill="#1C274C"/>
<path d="M22.1132 6.1693C23.2957 4.9868 23.2957 3.06961 22.1132 1.88711C20.9307 0.704621 19.0135 0.704621 17.831 1.88711L17.6529 2.06523C17.481 2.23711 17.4032 2.47719 17.4461 2.71644C17.4731 2.86695 17.5232 3.08699 17.6143 3.34955C17.7965 3.87464 18.1405 4.56392 18.7885 5.21189C19.4364 5.85986 20.1257 6.20388 20.6508 6.38605C20.9134 6.47715 21.1334 6.52722 21.2839 6.55423C21.5231 6.59717 21.7632 6.5193 21.9351 6.34742L22.1132 6.1693Z" fill="#1C274C"/>
</svg>
