<svg width="24" height="24" viewBox="0 0 24 24" fill="none" xmlns="http://www.w3.org/2000/svg">
<path opacity="0.5" d="M20.8482 8.7133C22.3839 7.1776 22.3839 4.68773 20.8482 3.15202C19.3125 1.61632 16.8226 1.61632 15.2869 3.15202L14.3999 4.03906C14.412 4.07574 14.4246 4.11293 14.4377 4.1506C14.7628 5.08774 15.3763 6.31625 16.5303 7.47026C17.6843 8.62428 18.9128 9.23773 19.85 9.56286C19.8875 9.57587 19.9245 9.58841 19.961 9.60051L20.8482 8.7133Z" fill="#1C274C"/>
<path d="M14.4386 4.00087L14.4004 4.03906C14.4125 4.07574 14.4251 4.11293 14.4382 4.1506C14.7633 5.08774 15.3768 6.31625 16.5308 7.47027C17.6848 8.62428 18.9133 9.23773 19.8505 9.56286C19.8876 9.57576 19.9243 9.5882 19.9606 9.6002L11.4001 18.1606C10.823 18.7378 10.5343 19.0264 10.2162 19.2746C9.84082 19.5673 9.43469 19.8183 9.00498 20.0231C8.6407 20.1967 8.25351 20.3258 7.47918 20.5839L3.39584 21.945C3.01478 22.072 2.59466 21.9729 2.31063 21.6888C2.0266 21.4048 1.92743 20.9847 2.05445 20.6036L3.41556 16.5203C3.67368 15.7459 3.80273 15.3588 3.97634 14.9945C4.18114 14.5648 4.43213 14.1587 4.7249 13.7833C4.97307 13.4651 5.26165 13.1765 5.83874 12.5994L14.4386 4.00087Z" fill="#1C274C"/>
</svg>
