<svg width="24" height="24" viewBox="0 0 24 24" fill="none" xmlns="http://www.w3.org/2000/svg">
<path fill-rule="evenodd" clip-rule="evenodd" d="M19.1518 7.79024L16.2098 4.84828C14.1822 2.82068 13.1684 1.80688 12.0612 2.03047C10.954 2.25406 10.4131 3.58183 9.33118 6.23736L8.31654 8.72784C8.01814 9.46027 7.86894 9.82648 7.61178 10.106C7.52422 10.2012 7.42809 10.2881 7.32459 10.3656C7.02061 10.5933 6.64123 10.7049 5.88249 10.9281C4.08897 11.4556 3.19221 11.7193 2.8851 12.3363C2.78514 12.537 2.7291 12.7568 2.7207 12.981C2.69489 13.6696 3.35586 14.3306 4.67779 15.6525L5.95409 16.9288L7.0709 18.0456L8.34755 19.3223C9.66948 20.6442 10.3304 21.3052 11.0191 21.2794C11.2432 21.271 11.463 21.2149 11.6638 21.115C12.2807 20.8079 12.5445 19.9111 13.072 18.1176C13.2952 17.3588 13.4067 16.9795 13.6345 16.6755C13.712 16.572 13.7989 16.4758 13.8941 16.3883C14.1736 16.1311 14.5398 15.9819 15.2722 15.6835L17.7627 14.6689C20.4182 13.587 21.746 13.0461 21.9696 11.9389C22.1932 10.8316 21.1794 9.81784 19.1518 7.79024Z" fill="#1C274C"/>
<path opacity="0.5" d="M3.34811 21.7686L7.07083 18.0455L5.95401 16.9287L2.2313 20.6518C1.9229 20.9602 1.9229 21.4602 2.2313 21.7686C2.5397 22.077 3.03971 22.077 3.34811 21.7686Z" fill="#1C274C"/>
</svg>
