<svg width="24" height="24" viewBox="0 0 24 24" fill="none" xmlns="http://www.w3.org/2000/svg">
<path opacity="0.5" d="M20 12C20 16.4183 16.4183 20 12 20C7.58172 20 4 16.4183 4 12C4 7.58172 7.58172 4 12 4C16.4183 4 20 7.58172 20 12Z" fill="#1C274C"/>
<path d="M17.7124 5.45331C18.7594 5.25995 19.7184 5.19444 20.5094 5.30066C21.2797 5.40411 22.0451 5.69443 22.465 6.36546C22.9112 7.07875 22.7767 7.90702 22.4527 8.62306C22.1235 9.35067 21.5345 10.1218 20.7806 10.8912C19.2652 12.4379 16.9446 14.1173 14.1836 15.5883C11.4215 17.0599 8.68925 18.0721 6.49016 18.5079C5.39465 18.7249 4.39198 18.807 3.56747 18.709C2.76733 18.614 1.96781 18.3262 1.53504 17.6345C1.06424 16.882 1.23861 16.0043 1.60464 15.2551C1.97965 14.4875 2.63746 13.6693 3.47687 12.8522L4.00002 12.4165C4.00002 12.6349 4.08338 13.1257 4.16812 13.5624C4.21264 13.7918 4.25755 14.0062 4.29095 14.1584C3.63911 14.8237 3.19305 15.421 2.95238 15.9136C2.67515 16.481 2.74419 16.7391 2.80667 16.8389C2.87949 16.9553 3.11171 17.1443 3.74443 17.2195C4.35277 17.2918 5.18408 17.2375 6.19862 17.0365C8.21964 16.636 10.8119 15.685 13.4783 14.2644C16.1457 12.8433 18.3298 11.2493 19.7092 9.84143C20.4027 9.13359 20.8587 8.50726 21.0861 8.00467C21.3188 7.4905 21.2527 7.25586 21.1933 7.16105C21.1231 7.04882 20.9042 6.86715 20.3097 6.78731C19.7683 6.7146 19.0379 6.74602 18.1466 6.89948L16.8698 5.65597C17.2085 5.55454 17.5279 5.48526 17.7124 5.45331Z" fill="#1C274C"/>
</svg>
