<svg width="24" height="24" viewBox="0 0 24 24" fill="none" xmlns="http://www.w3.org/2000/svg">
<path opacity="0.5" d="M3 13.0371C3 11.9341 3 11.3826 3.39264 11.0609C3.53204 10.9467 3.70147 10.8553 3.89029 10.7924C4.42213 10.6153 5.12109 10.7897 6.51901 11.1385C7.58626 11.4048 8.11989 11.538 8.6591 11.5242C8.85714 11.5191 9.05401 11.4994 9.24685 11.4653C9.77191 11.3724 10.2399 11.1388 11.176 10.6717L12.5583 9.98186C13.7574 9.38351 14.3569 9.08434 15.0451 9.01536C15.7333 8.94637 16.4168 9.11693 17.7839 9.45804L18.9487 9.74866C19.9387 9.99568 20.4337 10.1192 20.7169 10.4132C21 10.7073 21 11.0979 21 11.879V17.9634C21 19.0664 21 19.6179 20.6074 19.9396C20.468 20.0538 20.2985 20.1452 20.1097 20.2081C19.5779 20.3852 18.8789 20.2108 17.481 19.862C16.4137 19.5957 15.8801 19.4625 15.3409 19.4763C15.1429 19.4814 14.946 19.5011 14.7532 19.5352C14.2281 19.6281 13.7601 19.8617 12.824 20.3288L11.4417 21.0186C10.2426 21.617 9.64311 21.9161 8.95493 21.9851C8.26674 22.0541 7.58319 21.8836 6.21609 21.5425L5.05132 21.2518C4.06129 21.0048 3.56627 20.8813 3.28314 20.5872C3 20.2932 3 19.9026 3 19.1215V13.0371Z" fill="#1C274C"/>
<path fill-rule="evenodd" clip-rule="evenodd" d="M12 2.00024C8.68629 2.00024 6 4.55236 6 7.70055C6 10.8241 7.91499 14.4689 10.9028 15.7724C11.5993 16.0762 12.4007 16.0762 13.0972 15.7724C16.085 14.4689 18 10.8241 18 7.70055C18 4.55236 15.3137 2.00024 12 2.00024ZM12 10.0002C13.1046 10.0002 14 9.10481 14 8.00024C14 6.89567 13.1046 6.00024 12 6.00024C10.8954 6.00024 10 6.89567 10 8.00024C10 9.10481 10.8954 10.0002 12 10.0002Z" fill="#1C274C"/>
</svg>
