<svg width="24" height="24" viewBox="0 0 24 24" fill="none" xmlns="http://www.w3.org/2000/svg">
<path opacity="0.5" d="M21.9998 11.9995C21.9998 6.47666 17.5226 1.99951 11.9998 1.99951C6.47691 1.99951 1.99976 6.47666 1.99976 11.9995C1.99976 17.5224 6.47691 21.9995 11.9998 21.9995C17.5226 21.9995 21.9998 17.5224 21.9998 11.9995Z" fill="#1C274C"/>
<path d="M8.46943 12.9694C8.17653 13.2623 8.17653 13.7372 8.46943 14.0301C8.76232 14.323 9.23719 14.323 9.53009 14.0301L11.9998 11.5604L14.4694 14.0301C14.7623 14.323 15.2372 14.323 15.5301 14.0301C15.823 13.7372 15.823 13.2623 15.5301 12.9694L12.5301 9.96943C12.2372 9.67653 11.7623 9.67653 11.4694 9.96943L8.46943 12.9694Z" fill="#1C274C"/>
</svg>
