<svg width="24" height="24" viewBox="0 0 24 24" fill="none" xmlns="http://www.w3.org/2000/svg">
<path fill-rule="evenodd" clip-rule="evenodd" d="M17.4697 16.4699C17.7626 16.177 18.2374 16.177 18.5303 16.4699L20.5303 18.4699C20.8232 18.7628 20.8232 19.2377 20.5303 19.5306L18.5303 21.5306C18.2374 21.8235 17.7626 21.8235 17.4697 21.5306C17.1768 21.2377 17.1768 20.7628 17.4697 20.4699L18.9393 19.0002L17.4697 17.5306C17.1768 17.2377 17.1768 16.7628 17.4697 16.4699Z" fill="#1C274C"/>
<path d="M8 5.00024C8 6.10481 7.10457 7.00024 6 7.00024C4.89543 7.00024 4 6.10481 4 5.00024C4 3.89567 4.89543 3.00024 6 3.00024C7.10457 3.00024 8 3.89567 8 5.00024Z" fill="#1C274C"/>
<path opacity="0.5" d="M7.85462 5.75024C7.94837 5.51864 8 5.26547 8 5.00024C8 4.73502 7.94837 4.48185 7.85462 4.25024H16.5C18.8472 4.25024 20.75 6.15303 20.75 8.50024C20.75 10.8475 18.8472 12.7502 16.5 12.7502H7.5C5.98122 12.7502 4.75 13.9815 4.75 15.5002C4.75 17.019 5.98122 18.2502 7.5 18.2502H18.1893L18.9393 19.0002L18.1893 19.7502H7.5C5.15279 19.7502 3.25 17.8475 3.25 15.5002C3.25 13.153 5.15279 11.2502 7.5 11.2502H16.5C18.0188 11.2502 19.25 10.019 19.25 8.50024C19.25 6.98146 18.0188 5.75024 16.5 5.75024H7.85462Z" fill="#1C274C"/>
</svg>
