<svg width="24" height="24" viewBox="0 0 24 24" fill="none" xmlns="http://www.w3.org/2000/svg">
<path opacity="0.5" d="M3.46447 20.536C4.92893 22.0005 7.28595 22.0005 12 22.0005C16.714 22.0005 19.0711 22.0005 20.5355 20.536C22 19.0716 22 16.7145 22 12.0005C22 7.28644 22 4.92942 20.5355 3.46495C19.0711 2.00049 16.714 2.00049 12 2.00049C7.28595 2.00049 4.92893 2.00049 3.46447 3.46495C2 4.92942 2 7.28644 2 12.0005C2 16.7145 2 19.0716 3.46447 20.536Z" fill="#1C274C"/>
<path d="M15.5303 8.47016C15.8232 8.76305 15.8232 9.23793 15.5303 9.53082L9.53033 15.5308C9.23744 15.8237 8.76256 15.8237 8.46967 15.5308C8.17678 15.2379 8.17678 14.7631 8.46967 14.4702L14.4697 8.47016C14.7626 8.17726 15.2374 8.17726 15.5303 8.47016Z" fill="#1C274C"/>
<path d="M14.5 15.5005C15.0523 15.5005 15.5 15.0528 15.5 14.5005C15.5 13.9482 15.0523 13.5005 14.5 13.5005C13.9477 13.5005 13.5 13.9482 13.5 14.5005C13.5 15.0528 13.9477 15.5005 14.5 15.5005Z" fill="#1C274C"/>
<path d="M9.5 10.5005C10.0523 10.5005 10.5 10.0528 10.5 9.50049C10.5 8.9482 10.0523 8.50049 9.5 8.50049C8.94772 8.50049 8.5 8.9482 8.5 9.50049C8.5 10.0528 8.94772 10.5005 9.5 10.5005Z" fill="#1C274C"/>
</svg>
