<svg width="24" height="24" viewBox="0 0 24 24" fill="none" xmlns="http://www.w3.org/2000/svg">
<path fill-rule="evenodd" clip-rule="evenodd" d="M11.3023 13.737H12.6977H18.5116C20.0529 13.737 21.3023 12.5352 21.3023 11.0528C21.3023 9.5703 20.0529 8.36854 18.5116 8.36854C20.0529 8.36854 21.3023 7.16678 21.3023 5.68433C21.3023 4.20188 20.0529 3.00012 18.5116 3.00012H5.48839C3.94713 3.00012 2.69769 4.20188 2.69769 5.68433C2.69769 7.16678 3.94713 8.36854 5.48839 8.36854C3.94713 8.36854 2.69769 9.5703 2.69769 11.0528C2.69769 12.5352 3.94713 13.737 5.48839 13.737H11.3023ZM12.9303 5.01328C12.5449 5.01328 12.2326 5.31372 12.2326 5.68433C12.2326 6.05494 12.5449 6.35539 12.9303 6.35539H18.5116C18.897 6.35539 19.2093 6.05494 19.2093 5.68433C19.2093 5.31372 18.897 5.01328 18.5116 5.01328H12.9303ZM12.9303 10.3817C12.5449 10.3817 12.2326 10.6821 12.2326 11.0528C12.2326 11.4234 12.5449 11.7238 12.9303 11.7238H18.5116C18.897 11.7238 19.2093 11.4234 19.2093 11.0528C19.2093 10.6821 18.897 10.3817 18.5116 10.3817H12.9303ZM7.34886 5.68433C7.34886 6.17848 6.93238 6.57907 6.41862 6.57907C5.90487 6.57907 5.48839 6.17848 5.48839 5.68433C5.48839 5.19018 5.90487 4.7896 6.41862 4.7896C6.93238 4.7896 7.34886 5.19018 7.34886 5.68433ZM7.34886 11.0528C7.34886 11.5469 6.93238 11.9475 6.41862 11.9475C5.90487 11.9475 5.48839 11.5469 5.48839 11.0528C5.48839 10.5586 5.90487 10.158 6.41862 10.158C6.93238 10.158 7.34886 10.5586 7.34886 11.0528Z" fill="#1C274C"/>
<path opacity="0.6" d="M22 18.2111C22 17.8405 21.6876 17.5401 21.3023 17.5401H13.7252C13.5364 17.0915 13.164 16.7333 12.6977 16.5517V13.7374H11.3023V16.5517C10.836 16.7333 10.4636 17.0915 10.2748 17.5401H2.69767C2.31236 17.5401 2 17.8405 2 18.2111C2 18.5817 2.31236 18.8822 2.69767 18.8822H10.2748C10.5508 19.538 11.2192 20.0006 12 20.0006C12.7808 20.0006 13.4492 19.538 13.7252 18.8822H21.3023C21.6876 18.8822 22 18.5817 22 18.2111Z" fill="#1C274C"/>
</svg>
