<svg width="24" height="24" viewBox="0 0 24 24" fill="none" xmlns="http://www.w3.org/2000/svg">
<path d="M14.5 21.9918V18.5005C14.5 17.5659 14.5 17.0986 14.299 16.7505C14.1674 16.5225 13.978 16.3331 13.75 16.2014C13.4019 16.0005 12.9346 16.0005 12 16.0005C11.0654 16.0005 10.5981 16.0005 10.25 16.2014C10.022 16.3331 9.83261 16.5225 9.70096 16.7505C9.5 17.0986 9.5 17.5659 9.5 18.5005V21.9918H14.5Z" fill="#1C274C"/>
<path opacity="0.5" fill-rule="evenodd" clip-rule="evenodd" d="M5.73204 12.0005C4.84126 12.0005 4.05323 11.6244 3.5 11.0334V14.0005C3.5 17.7717 3.5 19.6573 4.67157 20.8289C5.61466 21.772 7.02043 21.9559 9.5 21.9918H14.5C16.9796 21.9559 18.3853 21.772 19.3284 20.8289C20.5 19.6573 20.5 17.7717 20.5 14.0005V11.0344C19.9468 11.6249 19.1592 12.0005 18.269 12.0005C16.6973 12.0005 15.3814 10.8096 15.225 9.24572L15.152 8.51782C15.3385 10.3825 13.8742 12.0005 12.0003 12.0005C10.139 12.0005 8.6819 10.4043 8.84499 8.5556L8.77598 9.24572C8.6196 10.8096 7.30367 12.0005 5.73204 12.0005ZM14.5 18.5005V21.9918H9.5V18.5005C9.5 17.5659 9.5 17.0986 9.70096 16.7505C9.83261 16.5225 10.022 16.3331 10.25 16.2014C10.5981 16.0005 11.0654 16.0005 12 16.0005C12.9346 16.0005 13.4019 16.0005 13.75 16.2014C13.978 16.3331 14.1674 16.5225 14.299 16.7505C14.5 17.0986 14.5 17.5659 14.5 18.5005Z" fill="#1C274C"/>
<path d="M9.4998 2.00049H14.4998L15.1515 8.51786C15.338 10.3825 13.8737 12.0005 11.9998 12.0005C10.1259 12.0005 8.6616 10.3825 8.84806 8.51786L9.4998 2.00049Z" fill="#1C274C"/>
<path opacity="0.7" d="M3.32975 5.35181C3.50783 4.46142 3.59687 4.01622 3.77791 3.65533C4.15938 2.89488 4.84579 2.33216 5.66628 2.10724C6.05567 2.00049 6.50969 2.00049 7.41771 2.00049H9.50002L8.77549 9.24576C8.61911 10.8096 7.30318 12.0005 5.73155 12.0005C3.8011 12.0005 2.35324 10.2344 2.73183 8.34142L3.32975 5.35181Z" fill="#1C274C"/>
<path opacity="0.7" d="M20.6703 5.35181C20.4922 4.46142 20.4031 4.01622 20.2221 3.65533C19.8406 2.89488 19.1542 2.33216 18.3337 2.10724C17.9443 2.00049 17.4903 2.00049 16.5823 2.00049H14.5L15.2245 9.24576C15.3809 10.8096 16.6968 12.0005 18.2685 12.0005C20.1989 12.0005 21.6468 10.2344 21.2682 8.34142L20.6703 5.35181Z" fill="#1C274C"/>
</svg>
