<svg width="24" height="24" viewBox="0 0 24 24" fill="none" xmlns="http://www.w3.org/2000/svg">
<path opacity="0.5" fill-rule="evenodd" clip-rule="evenodd" d="M3.17157 4.17197C2 5.34354 2 7.22916 2 11.0004V13.0004C2 16.7716 2 18.6573 3.17157 19.8288C4.34315 21.0004 6.22876 21.0004 10 21.0004H14C14.0843 21.0004 14.9176 21.0004 15 21.0004L15 3.00043C14.9176 3.00041 14.0843 3.0004 14 3.0004H10C6.22876 3.0004 4.34315 3.0004 3.17157 4.17197Z" fill="#1C274C"/>
<path d="M22 13.0004V11.0004C22 7.22913 22 5.34351 20.8284 4.17194C19.8541 3.19761 17.6359 3.03357 15 3.00596V20.9948C17.6359 20.9672 19.8541 20.8031 20.8284 19.8288C22 18.6572 22 16.7716 22 13.0004Z" fill="#1C274C"/>
</svg>
