<svg width="24" height="24" viewBox="0 0 24 24" fill="none" xmlns="http://www.w3.org/2000/svg">
<path opacity="0.5" d="M4.8778 13.696C2.95927 11.7775 2 10.8182 2 9.62618C2 8.43415 2.95927 7.47489 4.8778 5.55635L5.55611 4.87805C7.47464 2.95951 8.43391 2.00024 9.62593 2.00024C10.818 2.00024 11.7772 2.95951 13.6958 4.87805L19.1222 10.3045C21.0407 12.223 22 13.1823 22 14.3743C22 15.5663 21.0407 16.5256 19.1222 18.4441L18.4439 19.1224C16.5254 21.041 15.5661 22.0002 14.3741 22.0002C13.182 22.0002 12.2228 21.041 10.3042 19.1224L4.8778 13.696Z" fill="#1C274C"/>
<path d="M9.47752 6.08709C9.77041 5.7942 9.77041 5.31933 9.47752 5.02643C9.18462 4.73354 8.70975 4.73354 8.41686 5.02643L5.02533 8.41796C4.73244 8.71085 4.73244 9.18572 5.02533 9.47862C5.31823 9.77151 5.7931 9.77151 6.08599 9.47862L9.47752 6.08709Z" fill="#1C274C"/>
<path d="M16.7476 16.749C17.3095 16.187 17.3095 15.276 16.7476 14.714C16.1857 14.1521 15.2746 14.1521 14.7127 14.714C14.1508 15.276 14.1508 16.187 14.7127 16.749C15.2746 17.3109 16.1857 17.3109 16.7476 16.749Z" fill="#1C274C"/>
<path fill-rule="evenodd" clip-rule="evenodd" d="M16.2606 1.87446C16.3301 1.46611 16.7174 1.1914 17.1258 1.26086C20.3254 1.80519 22.75 4.62133 22.75 8.00024C22.75 8.27771 22.5968 8.5325 22.3518 8.66263C22.1067 8.79277 21.8098 8.77698 21.58 8.62159L20.08 7.60757C19.7368 7.37559 19.6467 6.90934 19.8787 6.56618C20.1106 6.22303 20.5769 6.1329 20.92 6.36488L21.0196 6.4322C20.4426 4.52283 18.8399 3.07403 16.8742 2.73962C16.4659 2.67015 16.1912 2.28281 16.2606 1.87446Z" fill="#1C274C"/>
<path fill-rule="evenodd" clip-rule="evenodd" d="M7.73938 22.126C7.66991 22.5344 7.28256 22.8091 6.87422 22.7396C3.67459 22.1953 1.25 19.3792 1.25 16.0002C1.25 15.7228 1.40319 15.468 1.64824 15.3378C1.89329 15.2077 2.19017 15.2235 2.42004 15.3789L3.92004 16.3929C4.2632 16.6249 4.35332 17.0911 4.12134 17.4343C3.88936 17.7775 3.42312 17.8676 3.07996 17.6356L2.98038 17.5683C3.55736 19.4777 5.16008 20.9265 7.12578 21.2609C7.53413 21.3303 7.80885 21.7177 7.73938 22.126Z" fill="#1C274C"/>
</svg>
