<svg width="24" height="24" viewBox="0 0 24 24" fill="none" xmlns="http://www.w3.org/2000/svg">
<path d="M9.46142 15.6262C10.2165 15.7047 11.0596 15.7503 12.0001 15.7503C12.9436 15.7503 13.7867 15.7051 14.5394 15.6273C14.3253 15.2009 14.0738 14.9081 13.7895 14.7058C13.3846 14.4178 12.8244 14.2501 12.0001 14.2501C11.1758 14.2501 10.6156 14.4178 10.2107 14.7058C9.92674 14.9079 9.67539 15.2004 9.46142 15.6262Z" fill="#1C274C"/>
<path fill-rule="evenodd" clip-rule="evenodd" d="M3.32102 6.6583C3.56225 4.55379 5.15124 2.85188 7.23935 2.46152L7.4544 2.42132C10.4585 1.85972 13.541 1.85972 16.5451 2.42132L16.8681 2.48169C18.8934 2.86032 20.4367 4.50777 20.6774 6.54821C20.9299 8.68769 21.0342 10.8403 20.9902 12.9907L20.4926 13.448C20.195 13.7215 19.5597 14.2848 18.2763 14.7872C17.694 15.0152 16.972 15.233 16.0807 15.4036C15.76 14.597 15.305 13.9432 14.6591 13.4836C13.9212 12.9586 13.0225 12.7501 12.0001 12.7501C10.9777 12.7501 10.0791 12.9586 9.34116 13.4836C8.6958 13.9428 8.24108 14.5958 7.92034 15.4015C5.1302 14.8665 3.92931 13.8651 3.49291 13.4846L3.00908 13.0629C2.96793 10.9711 3.06668 8.87722 3.30532 6.79528L3.32102 6.6583ZM8.48897 4.97995C8.80305 4.7099 8.83874 4.23637 8.56869 3.92229C8.29863 3.60822 7.8251 3.57253 7.51103 3.84258C7.04402 4.24412 6.75 4.84204 6.75 5.41127C6.75 6.42495 7.51705 7.12184 8.40313 7.52615C9.31388 7.9417 10.5556 8.16127 12 8.16127C13.4444 8.16127 14.6861 7.9417 15.5969 7.52615C16.483 7.12184 17.25 6.42495 17.25 5.41127C17.25 4.78775 16.9047 4.28861 16.489 3.93112C16.1749 3.66106 15.7014 3.69675 15.4313 4.01083C15.1613 4.32491 15.1969 4.79844 15.511 5.06849C15.7359 5.26186 15.75 5.38122 15.75 5.41127C15.75 5.55105 15.6478 5.85416 14.9742 6.16149C14.3253 6.45757 13.317 6.66127 12 6.66127C10.683 6.66127 9.6747 6.45757 9.0258 6.16149C8.35224 5.85416 8.25 5.55105 8.25 5.41127C8.25 5.37952 8.26057 5.31005 8.30437 5.21998C8.34679 5.13273 8.4102 5.04769 8.48897 4.97995Z" fill="#1C274C"/>
<path opacity="0.5" d="M18.8227 16.1838C19.7765 15.8104 20.4432 15.3987 20.9019 15.0568C20.8552 15.7788 20.7918 16.5 20.7115 17.2198L20.6944 17.3739C20.4469 19.595 18.7037 21.357 16.4796 21.6342L15.5734 21.7471C15.0786 21.8088 14.8312 21.8396 14.584 21.8654C12.8656 22.0448 11.1331 22.0448 9.41464 21.8654C9.16751 21.8396 8.9201 21.8088 8.42528 21.7471L7.40978 21.6205C5.24827 21.3511 3.55225 19.6422 3.30491 17.4844C3.21322 16.6845 3.14218 15.8828 3.0918 15.0802C4.30981 15.9556 6.86258 17.2501 11.9997 17.2501C15.1501 17.2501 17.3246 16.7703 18.8227 16.1838Z" fill="#1C274C"/>
</svg>
