<svg width="24" height="24" viewBox="0 0 24 24" fill="none" xmlns="http://www.w3.org/2000/svg">
<path opacity="0.5" d="M20.4302 21.1528C21.2771 20.3059 21.2771 18.9428 21.2771 16.2167C21.2771 13.4905 21.2771 12.1274 20.4302 11.2805C19.9791 10.8293 18.7484 10.6212 17.448 10.5245C16.5561 10.4582 16.1101 10.4251 15.802 10.7111C15.494 10.9971 15.494 11.4653 15.494 12.4018V20.0439C15.494 20.9804 15.494 21.4487 15.803 21.7348C16.1121 22.021 16.5573 21.9866 17.4478 21.9179C18.7483 21.8175 19.979 21.604 20.4302 21.1528Z" fill="#1C274C"/>
<path d="M19.1089 14.2894C19.1089 13.8902 18.7852 13.5665 18.386 13.5665C17.9867 13.5665 17.6631 13.8902 17.6631 14.2894V18.1448C17.6631 18.5441 17.9867 18.8677 18.386 18.8677C18.7852 18.8677 19.1089 18.5441 19.1089 18.1448V14.2894Z" fill="#1C274C"/>
<g opacity="0.5">
<path d="M2 8.50588C2 5.7797 2 4.41661 2.84692 3.56969C3.69384 2.72278 5.05694 2.72278 7.78313 2.72278H8.74699C11.4732 2.72278 12.8363 2.72278 13.6832 3.56969C14.5301 4.41661 14.5301 5.7797 14.5301 8.50588V16.2167C14.5301 18.9429 14.5301 20.3059 13.6832 21.1529C12.8363 21.9998 11.4732 21.9998 8.74699 21.9998H7.78313C5.05694 21.9998 3.69384 21.9998 2.84692 21.1529C2 20.3059 2 18.9429 2 16.2167V8.50588Z" fill="#1C274C"/>
</g>
<path d="M5.8557 4.89172C5.45646 4.89172 5.13281 5.21537 5.13281 5.61461C5.13281 6.01385 5.45646 6.3375 5.8557 6.3375H10.675C11.0742 6.3375 11.3979 6.01385 11.3979 5.61461C11.3979 5.21537 11.0742 4.89172 10.675 4.89172H5.8557Z" fill="#1C274C"/>
<path d="M8.26534 19.1085C9.06383 19.1085 9.71113 18.4612 9.71113 17.6627C9.71113 16.8643 9.06383 16.217 8.26534 16.217C7.46686 16.217 6.81956 16.8643 6.81956 17.6627C6.81956 18.4612 7.46686 19.1085 8.26534 19.1085Z" fill="#1C274C"/>
<path fill-rule="evenodd" clip-rule="evenodd" d="M15.7447 2.60189C15.8117 2.2083 16.185 1.94352 16.5786 2.01048C19.6626 2.53512 21.9996 5.24946 21.9996 8.50622C21.9996 8.77366 21.8519 9.01924 21.6157 9.14467C21.3795 9.2701 21.0934 9.25488 20.8718 9.10511L19.426 8.12774C19.0953 7.90415 19.0084 7.45476 19.232 7.12401C19.4556 6.79325 19.905 6.70638 20.2357 6.92998L20.3317 6.99486C19.7756 5.15452 18.2308 3.75809 16.3361 3.43577C15.9426 3.36882 15.6778 2.99547 15.7447 2.60189Z" fill="#1C274C"/>
</svg>
