<svg width="24" height="24" viewBox="0 0 24 24" fill="none" xmlns="http://www.w3.org/2000/svg">
<path opacity="0.5" d="M5.87883 2.8788C5.00015 3.75748 5.00015 5.17169 5.00015 8.00012V16.0001C5.00015 18.8285 5.00015 20.2428 5.87883 21.1214C6.75751 22.0001 8.17173 22.0001 11.0002 22.0001H13.0002C15.8286 22.0001 17.2428 22.0001 18.1215 21.1214C19.0002 20.2428 19.0002 18.8285 19.0002 16.0001V8.00012C19.0002 5.17169 19.0002 3.75748 18.1215 2.8788C17.2428 2.00012 15.8286 2.00012 13.0002 2.00012H11.0002C8.17173 2.00012 6.75751 2.00012 5.87883 2.8788Z" fill="#1C274C"/>
<path d="M9.5 18.2501C9.08579 18.2501 8.75 18.5859 8.75 19.0001C8.75 19.4143 9.08579 19.7501 9.5 19.7501H14.5C14.9142 19.7501 15.25 19.4143 15.25 19.0001C15.25 18.5859 14.9142 18.2501 14.5 18.2501H9.5Z" fill="#1C274C"/>
<path fill-rule="evenodd" clip-rule="evenodd" d="M1.66475 5.32947C2.03524 5.14422 2.48574 5.29439 2.67098 5.66488L3.44738 7.21766C3.69371 7.71034 3.69371 8.29024 3.44738 8.78291L2.89459 9.88848C2.8594 9.95887 2.8594 10.0417 2.89459 10.1121L3.44738 11.2177C3.69371 11.7103 3.69371 12.2902 3.44738 12.7829L2.89459 13.8885C2.8594 13.9589 2.8594 14.0417 2.89459 14.1121L3.44738 15.2177C3.69371 15.7103 3.69371 16.2902 3.44738 16.7829L2.67098 18.3357C2.48574 18.7062 2.03524 18.8563 1.66475 18.6711C1.29427 18.4859 1.1441 18.0354 1.32934 17.6649L2.10574 16.1121C2.14093 16.0417 2.14093 15.9589 2.10574 15.8885L1.55295 14.7829C1.30661 14.2902 1.30661 13.7103 1.55295 13.2177L2.10574 12.1121C2.14093 12.0417 2.14093 11.9589 2.10574 11.8885L1.55295 10.7829C1.30661 10.2902 1.30661 9.71034 1.55295 9.21766L2.10574 8.11209C2.14093 8.04171 2.14093 7.95886 2.10574 7.88848L1.32934 6.3357C1.1441 5.96521 1.29427 5.51471 1.66475 5.32947ZM22.3356 5.32947C22.7061 5.51471 22.8562 5.96521 22.671 6.3357L21.8946 7.88848C21.8594 7.95886 21.8594 8.04171 21.8946 8.11209L22.4474 9.21766C22.6937 9.71034 22.6937 10.2902 22.4474 10.7829L21.8946 11.8885C21.8594 11.9589 21.8594 12.0417 21.8946 12.1121L22.4474 13.2177C22.6937 13.7103 22.6937 14.2902 22.4474 14.7829L21.8946 15.8885C21.8594 15.9589 21.8594 16.0417 21.8946 16.1121L22.671 17.6649C22.8562 18.0354 22.7061 18.4859 22.3356 18.6711C21.9651 18.8563 21.5146 18.7062 21.3293 18.3357L20.5529 16.7829C20.3066 16.2902 20.3066 15.7103 20.5529 15.2177L21.1057 14.1121C21.1409 14.0417 21.1409 13.9589 21.1057 13.8885L20.5529 12.7829C20.3066 12.2902 20.3066 11.7103 20.5529 11.2177L21.1057 10.1121C21.1409 10.0417 21.1409 9.95887 21.1057 9.88848L20.5529 8.78291C20.3066 8.29024 20.3066 7.71034 20.5529 7.21766L21.3293 5.66488C21.5146 5.29439 21.9651 5.14422 22.3356 5.32947Z" fill="#1C274C"/>
</svg>
