<svg width="24" height="24" viewBox="0 0 24 24" fill="none" xmlns="http://www.w3.org/2000/svg">
<path opacity="0.5" d="M16.4413 19.4271L15.441 20.5448L15.9998 21.045C16.6628 21.6384 17.54 22.0001 18.5 22.0001C20.5711 22.0001 22.25 20.3211 22.25 18.2501C22.25 17.2901 21.8883 16.4128 21.295 15.7499L20.7948 15.191L19.6771 16.1914L16.4413 19.4271Z" fill="#1C274C"/>
<path opacity="0.5" d="M7.55818 19.4271L8.55855 20.5448L7.9997 21.045C7.33675 21.6384 6.45947 22.0001 5.49951 22.0001C3.42844 22.0001 1.74951 20.3211 1.74951 18.2501C1.74951 17.2901 2.1112 16.4128 2.70455 15.7499L3.20474 15.191L4.32244 16.1914L7.55818 19.4271Z" fill="#1C274C"/>
<path d="M12 6.50012C10.7574 6.50012 9.75 7.50748 9.75 8.75012C9.75 9.99276 10.7574 11.0001 12 11.0001C13.2426 11.0001 14.25 9.99276 14.25 8.75012C14.25 7.50748 13.2426 6.50012 12 6.50012Z" fill="#1C274C"/>
<path fill-rule="evenodd" clip-rule="evenodd" d="M22 11.7501C22 17.273 17.5228 21.7501 12 21.7501C6.47715 21.7501 2 17.273 2 11.7501C2 6.22727 6.47715 1.75012 12 1.75012C17.5228 1.75012 22 6.22727 22 11.7501ZM8.25 8.75012C8.25 6.67905 9.92893 5.00012 12 5.00012C14.0711 5.00012 15.75 6.67905 15.75 8.75012C15.75 10.8212 14.0711 12.5001 12 12.5001C9.92893 12.5001 8.25 10.8212 8.25 8.75012ZM12.75 15.7501C12.75 15.3359 12.4142 15.0001 12 15.0001C11.5858 15.0001 11.25 15.3359 11.25 15.7501V17.7501C11.25 18.1643 11.5858 18.5001 12 18.5001C12.4142 18.5001 12.75 18.1643 12.75 17.7501V15.7501Z" fill="#1C274C"/>
</svg>
