<svg width="24" height="24" viewBox="0 0 24 24" fill="none" xmlns="http://www.w3.org/2000/svg">
<path opacity="0.5" d="M3.46447 3.46471C4.92893 2.00024 7.28595 2.00024 12 2.00024C16.714 2.00024 19.0711 2.00024 20.5355 3.46471C22 4.92918 22 7.2862 22 12.0002C22 16.7143 22 19.0713 20.5355 20.5358C19.0711 22.0002 16.714 22.0002 12 22.0002C7.28595 22.0002 4.92893 22.0002 3.46447 20.5358C2 19.0713 2 16.7143 2 12.0002C2 7.2862 2 4.92918 3.46447 3.46471Z" fill="#1C274C"/>
<path fill-rule="evenodd" clip-rule="evenodd" d="M16.4697 1.46991C16.7626 1.17702 17.2374 1.17702 17.5303 1.46991L22.5303 6.46991C22.8232 6.76281 22.8232 7.23768 22.5303 7.53057L17.5303 12.5306C17.2374 12.8235 16.7626 12.8235 16.4697 12.5306C16.1768 12.2377 16.1768 11.7628 16.4697 11.4699L20.1893 7.75024H14C12.4485 7.75024 11.5328 8.50725 11.212 8.82957L11.0211 9.02139L10.8293 9.21229C10.507 9.53304 9.75 10.4488 9.75 12.0002V15.0002C9.75 15.4145 9.41421 15.7502 9 15.7502C8.58579 15.7502 8.25 15.4145 8.25 15.0002V12.0002C8.25 9.91645 9.27703 8.64086 9.77125 8.14905L9.96049 7.96073L10.1488 7.7715C10.6406 7.27728 11.9162 6.25024 14 6.25024H20.1893L16.4697 2.53057C16.1768 2.23768 16.1768 1.76281 16.4697 1.46991Z" fill="#1C274C"/>
</svg>
