<svg width="24" height="24" viewBox="0 0 24 24" fill="none" xmlns="http://www.w3.org/2000/svg">
<path d="M21.0124 4.04858L13.0607 12.0003L21.0124 19.9519C22 18.4556 22 16.1343 22 12.0003C22 7.86626 22 5.54492 21.0124 4.04858Z" fill="#1C274C"/>
<path d="M12 13.0609L4.04834 21.0126C5.54468 22.0003 7.86601 22.0003 12 22.0003C16.134 22.0003 18.4554 22.0003 19.9517 21.0126L12 13.0609Z" fill="#1C274C"/>
<path opacity="0.5" d="M3.46447 3.46471C2 4.92918 2 7.2862 2 12.0002C2 16.1342 2 18.4556 2.98767 19.9519L19.9517 2.98791C18.4553 2.00024 16.134 2.00024 12 2.00024C7.28595 2.00024 4.92893 2.00024 3.46447 3.46471Z" fill="#1C274C"/>
</svg>
