<svg width="24" height="24" viewBox="0 0 24 24" fill="none" xmlns="http://www.w3.org/2000/svg">
<path opacity="0.5" d="M3.17157 7.92194C2 9.09351 2 10.9791 2 14.7504C2 18.5216 2 20.4072 3.17157 21.5788C4.34315 22.7504 6.22876 22.7504 10 22.7504H14C17.7712 22.7504 19.6569 22.7504 20.8284 21.5788C22 20.4072 22 18.5216 22 14.7504C22 10.9791 22 9.09351 20.8284 7.92194C19.6569 6.75037 17.7712 6.75037 14 6.75037H10C6.22876 6.75037 4.34315 6.75037 3.17157 7.92194Z" fill="#1C274C"/>
<path d="M16 10.7504C16.5523 10.7504 17 10.3027 17 9.75037C17 9.19808 16.5523 8.75037 16 8.75037C15.4477 8.75037 15 9.19808 15 9.75037C15 10.3027 15.4477 10.7504 16 10.7504Z" fill="#1C274C"/>
<path d="M9 9.75037C9 10.3027 8.55228 10.7504 8 10.7504C7.44772 10.7504 7 10.3027 7 9.75037C7 9.19808 7.44772 8.75037 8 8.75037C8.55228 8.75037 9 9.19808 9 9.75037Z" fill="#1C274C"/>
<path d="M12.052 2.00037H11.948C11.0495 2.00034 10.3003 2.00032 9.70552 2.08028C9.07773 2.16469 8.51093 2.35036 8.05546 2.80583C7.59999 3.2613 7.41432 3.8281 7.32991 4.45589C7.24995 5.05066 7.24997 5.79987 7.25 6.69833L7.25 6.77608C7.70703 6.76113 8.20535 6.75487 8.75 6.75225V6.75037C8.75 5.78636 8.7516 5.1388 8.81654 4.65576C8.87858 4.1943 8.9858 3.9968 9.11612 3.86649C9.24644 3.73617 9.44393 3.62895 9.9054 3.56691C10.3884 3.50196 11.036 3.50037 12 3.50037C12.964 3.50037 13.6116 3.50196 14.0946 3.56691C14.5561 3.62895 14.7536 3.73617 14.8839 3.86649C15.0142 3.9968 15.1214 4.1943 15.1835 4.65576C15.2484 5.1388 15.25 5.78636 15.25 6.75037V6.75225C15.7947 6.75487 16.293 6.76113 16.75 6.77608V6.69838C16.75 5.79991 16.7501 5.05067 16.6701 4.45589C16.5857 3.8281 16.4 3.2613 15.9445 2.80583C15.4891 2.35036 14.9223 2.16469 14.2945 2.08028C13.6997 2.00032 12.9505 2.00034 12.052 2.00037Z" fill="#1C274C"/>
</svg>
