<svg width="24" height="24" viewBox="0 0 24 24" fill="none" xmlns="http://www.w3.org/2000/svg">
<path opacity="0.5" d="M17.9665 6.55861L16.1369 4.72897L16.1369 4.72897C14.5913 3.18344 13.8186 2.41067 12.816 2.12313C11.8134 1.83558 10.7485 2.08132 8.61875 2.5728L7.39057 2.85623C5.5988 3.26971 4.70292 3.47645 4.08944 4.08993C3.47597 4.70341 3.26922 5.59929 2.85574 7.39105L2.85574 7.39106L2.57231 8.61924C2.08083 10.749 1.83509 11.8139 2.12264 12.8165C2.41018 13.8191 3.18295 14.5918 4.72848 16.1374L6.55812 17.967L6.55813 17.967C9.24711 20.656 10.5916 22.0005 12.2623 22.0005C13.933 22.0005 15.2775 20.656 17.9665 17.967L17.9665 17.967L17.9665 17.967C20.6555 15.278 22 13.9335 22 12.2628C22 10.5921 20.6555 9.2476 17.9665 6.55861L17.9665 6.55861Z" fill="#1C274C"/>
<path d="M11.1469 14.3289C10.4739 13.656 10.4796 12.6904 10.882 11.9251C10.6809 11.633 10.7103 11.23 10.9701 10.9702C11.2289 10.7113 11.63 10.6812 11.9219 10.8799C12.2617 10.6993 12.6351 10.6038 13.0073 10.6073C13.4215 10.6112 13.7541 10.9502 13.7502 11.3644C13.7462 11.7786 13.4073 12.1112 12.9931 12.1073C12.8162 12.1056 12.5837 12.185 12.3843 12.3844C11.9968 12.7719 12.0987 13.1594 12.2075 13.2683C12.3164 13.3771 12.7039 13.479 13.0914 13.0915C13.8754 12.3075 15.2291 12.0472 16.0966 12.9147C16.7696 13.5877 16.7639 14.5533 16.3614 15.3185C16.5625 15.6107 16.5332 16.0137 16.2734 16.2735C16.0145 16.5324 15.6133 16.5624 15.3214 16.3636C14.8645 16.6064 14.3448 16.6974 13.8492 16.5955C13.4435 16.5122 13.1822 16.1156 13.2655 15.7099C13.3489 15.3042 13.7454 15.0429 14.1512 15.1262C14.3283 15.1626 14.6139 15.1045 14.8592 14.8593C15.2467 14.4717 15.1448 14.0842 15.0359 13.9754C14.9271 13.8665 14.5396 13.7646 14.1521 14.1521C13.368 14.9362 12.0143 15.1964 11.1469 14.3289Z" fill="#1C274C"/>
<path d="M10.0211 10.2936C10.8022 9.51256 10.8022 8.24623 10.0211 7.46518C9.2401 6.68413 7.97377 6.68413 7.19272 7.46518C6.41167 8.24623 6.41167 9.51256 7.19272 10.2936C7.97377 11.0747 9.2401 11.0747 10.0211 10.2936Z" fill="#1C274C"/>
</svg>
