<svg width="24" height="24" viewBox="0 0 24 24" fill="none" xmlns="http://www.w3.org/2000/svg">
<g opacity="0.5">
<path d="M17.976 2.60226C18.4394 2.34267 18.742 2.17441 18.9825 2.07849C19.209 1.98817 19.3082 1.99277 19.3758 2.01032C19.4425 2.02767 19.5291 2.0707 19.6774 2.25715C19.8356 2.45605 20.0105 2.74765 20.2782 3.19759L21.3821 5.05262C21.6499 5.50269 21.8227 5.79522 21.921 6.02727C22.0133 6.24527 22.0063 6.33526 21.9904 6.39314C21.9741 6.45188 21.9326 6.53485 21.7385 6.68015C21.5329 6.83409 21.2316 7.00412 20.7681 7.26379L16.8361 9.4663C16.3975 9.71197 16.1138 9.86965 15.889 9.95911C15.6784 10.0429 15.5925 10.0359 15.5381 10.0215C15.4837 10.0072 15.4058 9.97084 15.2658 9.79432C15.1165 9.60594 14.9506 9.32937 14.6952 8.90019L13.5162 6.91893C13.2539 6.47809 13.0851 6.19224 12.989 5.96563C12.8987 5.75293 12.9059 5.66651 12.9206 5.61214C12.9354 5.55778 12.9729 5.4794 13.1589 5.33973C13.3569 5.19093 13.6479 5.02666 14.0984 4.77431L17.976 2.60226Z" fill="#1C274C"/>
<path d="M6.62684 10.1961L3.23194 12.0978C2.76839 12.3574 2.46708 12.5275 2.26148 12.6814C2.06741 12.8267 2.02586 12.9097 2.00964 12.9684C1.99365 13.0263 1.98667 13.1163 2.07902 13.3343C2.17732 13.5663 2.35007 13.8589 2.6179 14.3089C2.88564 14.7589 3.06048 15.0505 3.21868 15.2494C3.36698 15.4358 3.45364 15.4788 3.52035 15.4962C3.58788 15.5137 3.68707 15.5183 3.91358 15.428C4.15411 15.3321 4.45672 15.1638 4.92014 14.9043L8.29723 13.0126C8.13943 12.7878 7.97589 12.5129 7.79249 12.2047L7.1303 11.0919C6.93035 10.756 6.75363 10.459 6.62684 10.1961Z" fill="#1C274C"/>
</g>
<path d="M8.63781 8.45078L12.087 6.51868C12.2139 6.78175 12.3907 7.0789 12.5908 7.41513L13.8049 9.45544C13.9881 9.76333 14.1516 10.0381 14.3093 10.2627L12.7624 11.1292L16.9384 20.9182C17.1076 21.3148 16.919 21.7717 16.5171 21.9387C16.1153 22.1057 15.6524 21.9196 15.4832 21.523L12.0002 13.3585L8.51729 21.523C8.34809 21.9196 7.88517 22.1057 7.48332 21.9387C7.08147 21.7717 6.89287 21.3148 7.06207 20.9182L10.7594 12.2512C10.357 12.4764 10.0901 12.623 9.87649 12.7081C9.66589 12.7919 9.57996 12.7849 9.52559 12.7705C9.47122 12.7561 9.39324 12.7198 9.25331 12.5433C9.10398 12.3549 8.93812 12.0783 8.68272 11.6491L8.05567 10.5954C7.79333 10.1546 7.62455 9.86872 7.52838 9.6421C7.43811 9.4294 7.44527 9.34298 7.46003 9.28862C7.47478 9.23425 7.51236 9.15588 7.69827 9.01621C7.89635 8.8674 8.18731 8.70313 8.63781 8.45078Z" fill="#1C274C"/>
</svg>
