<svg width="24" height="24" viewBox="0 0 24 24" fill="none" xmlns="http://www.w3.org/2000/svg">
<path fill-rule="evenodd" clip-rule="evenodd" d="M8.25 9.00049C8.25 8.58627 8.58579 8.25049 9 8.25049H15C15.4142 8.25049 15.75 8.58627 15.75 9.00049C15.75 9.4147 15.4142 9.75049 15 9.75049H12.75V15.0005C12.75 15.4147 12.4142 15.7505 12 15.7505C11.5858 15.7505 11.25 15.4147 11.25 15.0005V9.75049H9C8.58579 9.75049 8.25 9.4147 8.25 9.00049Z" fill="#1C274C"/>
<path d="M4 6.00049C5.10457 6.00049 6 5.10506 6 4.00049C6 2.89592 5.10457 2.00049 4 2.00049C2.89543 2.00049 2 2.89592 2 4.00049C2 5.10506 2.89543 6.00049 4 6.00049Z" fill="#1C274C"/>
<path d="M4 22.0005C5.10457 22.0005 6 21.1051 6 20.0005C6 18.8959 5.10457 18.0005 4 18.0005C2.89543 18.0005 2 18.8959 2 20.0005C2 21.1051 2.89543 22.0005 4 22.0005Z" fill="#1C274C"/>
<path d="M22 4.00049C22 5.10506 21.1046 6.00049 20 6.00049C18.8954 6.00049 18 5.10506 18 4.00049C18 2.89592 18.8954 2.00049 20 2.00049C21.1046 2.00049 22 2.89592 22 4.00049Z" fill="#1C274C"/>
<path d="M20 22.0005C21.1046 22.0005 22 21.1051 22 20.0005C22 18.8959 21.1046 18.0005 20 18.0005C18.8954 18.0005 18 18.8959 18 20.0005C18 21.1051 18.8954 22.0005 20 22.0005Z" fill="#1C274C"/>
<g opacity="0.5">
<path d="M4.75 5.85511C4.51839 5.94886 4.26523 6.00049 4 6.00049C3.73477 6.00049 3.48161 5.94886 3.25 5.85511V18.1459C3.48161 18.0521 3.73477 18.0005 4 18.0005C4.26523 18.0005 4.51839 18.0521 4.75 18.1459V5.85511Z" fill="#1C274C"/>
<path d="M5.85462 4.75049H18.1454C18.0516 4.51888 18 4.26571 18 4.00049C18 3.73526 18.0516 3.4821 18.1454 3.25049H5.85462C5.94837 3.4821 6 3.73526 6 4.00049C6 4.26571 5.94837 4.51888 5.85462 4.75049Z" fill="#1C274C"/>
<path d="M19.25 5.85511C19.4816 5.94886 19.7348 6.00049 20 6.00049C20.2652 6.00049 20.5184 5.94886 20.75 5.85511V18.1459C20.5184 18.0521 20.2652 18.0005 20 18.0005C19.7348 18.0005 19.4816 18.0521 19.25 18.1459V5.85511Z" fill="#1C274C"/>
<path d="M18.1454 19.2505H5.85462C5.94837 19.4821 6 19.7353 6 20.0005C6 20.2657 5.94837 20.5189 5.85462 20.7505H18.1454C18.0516 20.5189 18 20.2657 18 20.0005C18 19.7353 18.0516 19.4821 18.1454 19.2505Z" fill="#1C274C"/>
</g>
</svg>
