<svg width="24" height="24" viewBox="0 0 24 24" fill="none" xmlns="http://www.w3.org/2000/svg">
<path d="M7.75 7.00049C7.33579 7.00049 7 7.33627 7 7.75049C7 8.1647 7.33579 8.50049 7.75 8.50049H11V15.7505C11 16.1647 11.3358 16.5005 11.75 16.5005C12.1642 16.5005 12.5 16.1647 12.5 15.7505V8.50049H15.75C16.1642 8.50049 16.5 8.1647 16.5 7.75049C16.5 7.33627 16.1642 7.00049 15.75 7.00049H7.75Z" fill="#1C274C"/>
<path d="M20 11.7505C20 11.3363 20.3358 11.0005 20.75 11.0005L23.25 11.0005C23.6642 11.0005 24 11.3363 24 11.7505C24 12.1647 23.6642 12.5005 23.25 12.5005H20.75C20.3358 12.5005 20 12.1647 20 11.7505Z" fill="#1C274C"/>
<path d="M0.75 11.0005C0.335786 11.0005 0 11.3363 0 11.7505C0 12.1647 0.335786 12.5005 0.75 12.5005H3.25C3.66421 12.5005 4 12.1647 4 11.7505C4 11.3363 3.66421 11.0005 3.25 11.0005H0.75Z" fill="#1C274C"/>
<path opacity="0.5" d="M2 12.0005C2 7.28644 2 4.92942 3.46447 3.46495C4.92893 2.00049 7.28595 2.00049 12 2.00049C16.714 2.00049 19.0711 2.00049 20.5355 3.46495C22 4.92942 22 7.28644 22 12.0005C22 16.7145 22 19.0716 20.5355 20.536C19.0711 22.0005 16.714 22.0005 12 22.0005C7.28595 22.0005 4.92893 22.0005 3.46447 20.536C2 19.0716 2 16.7145 2 12.0005Z" fill="#1C274C"/>
</svg>
