<svg width="24" height="24" viewBox="0 0 24 24" fill="none" xmlns="http://www.w3.org/2000/svg">
<path d="M17 4.00049C17 5.10506 16.1046 6.00049 15 6.00049C13.8954 6.00049 13 5.10506 13 4.00049C13 2.89592 13.8954 2.00049 15 2.00049C16.1046 2.00049 17 2.89592 17 4.00049Z" fill="#1C274C"/>
<path fill-rule="evenodd" clip-rule="evenodd" d="M6.21002 6.04729C7.60385 5.17615 9.33593 5.04277 10.8467 5.69024C12.0283 6.19665 12.3248 7.73632 11.4158 8.64535L9.76183 10.2993C9.41236 10.6488 9.43841 11.2229 9.81807 11.5393L10.8145 12.3696C11.4073 12.8636 11.75 13.5953 11.75 14.367V16.0005C11.75 16.4147 11.4142 16.7505 11 16.7505C10.5858 16.7505 10.25 16.4147 10.25 16.0005V14.367C10.25 14.0405 10.105 13.7309 9.85422 13.522L8.8578 12.6916C7.80052 11.8105 7.728 10.2118 8.70117 9.23866L10.3551 7.58469C10.5138 7.42604 10.462 7.15734 10.2558 7.06896C9.19661 6.61501 7.98224 6.70852 7.00502 7.31929L4.8975 8.63649C4.54625 8.85602 4.08353 8.74924 3.864 8.39799C3.64447 8.04673 3.75125 7.58402 4.1025 7.36449L6.21002 6.04729Z" fill="#1C274C"/>
<path d="M3.08684 22.0005H19.4888C20.8757 22.0005 22 20.8762 22 19.4893C22 17.9293 20.5926 16.7468 19.0559 17.0157L18.8931 17.0442L20.0333 9.00077L20.0338 8.9979C20.0864 8.64721 20.1179 8.44496 20.1568 8.29898C20.1744 8.23301 20.1885 8.19932 20.1965 8.18337C20.2002 8.17598 20.2029 8.17193 20.2029 8.17193L20.2037 8.1709L20.2047 8.17003C20.2047 8.17003 20.2086 8.16709 20.2159 8.16305C20.2314 8.15434 20.2644 8.13862 20.3294 8.11783C20.4737 8.07172 20.6749 8.03036 21.0244 7.96047L22.1471 7.73592C22.5533 7.65469 22.8167 7.25957 22.7354 6.8534C22.6542 6.44723 22.2591 6.18382 21.8529 6.26505L20.6963 6.49638C20.3927 6.55706 20.1072 6.61413 19.8728 6.68901C19.6117 6.77246 19.3447 6.89794 19.1177 7.13628C18.8906 7.37461 18.7782 7.64735 18.7076 7.91221C18.6441 8.1499 18.601 8.43785 18.5551 8.74403L18.5499 8.77825L17.3395 17.3161L2.89949 19.8431C2.37943 19.9341 2 20.3857 2 20.9136C2 21.5139 2.48659 22.0005 3.08684 22.0005Z" fill="#1C274C"/>
<g opacity="0.5">
<path d="M11.75 10.0005C11.75 9.58627 12.0858 9.25049 12.5 9.25049H15.5C15.9142 9.25049 16.25 9.58627 16.25 10.0005C16.25 10.4147 15.9142 10.7505 15.5 10.7505H12.5C12.0858 10.7505 11.75 10.4147 11.75 10.0005Z" fill="#1C274C"/>
<path d="M7.53033 13.4702C7.82322 13.7631 7.82322 14.2379 7.53033 14.5308L7.2019 14.8592L7.1165 14.9448C6.62299 15.4392 6.2324 15.8306 5.72395 16.0412C5.2155 16.2518 4.6626 16.2512 3.964 16.2506L3.84315 16.2505H3C2.58579 16.2505 2.25 15.9147 2.25 15.5005C2.25 15.0863 2.58579 14.7505 3 14.7505H3.84315C4.72184 14.7505 4.95226 14.7372 5.14993 14.6553C5.34759 14.5735 5.51991 14.4199 6.14124 13.7986L6.46967 13.4702C6.76256 13.1773 7.23744 13.1773 7.53033 13.4702Z" fill="#1C274C"/>
</g>
</svg>
