<svg width="24" height="24" viewBox="0 0 24 24" fill="none" xmlns="http://www.w3.org/2000/svg">
<path opacity="0.5" d="M2 12.0005C2 7.28644 2 4.92942 3.46447 3.46495C4.92893 2.00049 7.28595 2.00049 12 2.00049C16.714 2.00049 19.0711 2.00049 20.5355 3.46495C22 4.92942 22 7.28644 22 12.0005C22 16.7145 22 19.0716 20.5355 20.536C19.0711 22.0005 16.714 22.0005 12 22.0005C7.28596 22.0005 4.92893 22.0005 3.46447 20.536C2 19.0716 2 16.7145 2 12.0005Z" fill="#1C274C"/>
<path d="M13.25 16.0005C13.25 15.5863 13.5858 15.2505 14 15.2505H19C19.4142 15.2505 19.75 15.5863 19.75 16.0005C19.75 16.4147 19.4142 16.7505 19 16.7505H14C13.5858 16.7505 13.25 16.4147 13.25 16.0005Z" fill="#1C274C"/>
<path d="M10 7.25049C10.4142 7.25049 10.75 7.58627 10.75 8.00049C10.75 8.4147 10.4142 8.75049 10 8.75049L5 8.75049C4.58579 8.75049 4.25 8.4147 4.25 8.00049C4.25 7.58627 4.58579 7.25049 5 7.25049L10 7.25049Z" fill="#1C274C"/>
<path d="M4.25 16.0005C4.25 15.5863 4.58579 15.2505 5 15.2505H6C6.41421 15.2505 6.75 15.5863 6.75 16.0005C6.75 16.4147 6.41421 16.7505 6 16.7505H5C4.58579 16.7505 4.25 16.4147 4.25 16.0005Z" fill="#1C274C"/>
<path d="M19 7.25049C19.4142 7.25049 19.75 7.58627 19.75 8.00049C19.75 8.4147 19.4142 8.75049 19 8.75049H18C17.5858 8.75049 17.25 8.4147 17.25 8.00049C17.25 7.58628 17.5858 7.25049 18 7.25049L19 7.25049Z" fill="#1C274C"/>
<path fill-rule="evenodd" clip-rule="evenodd" d="M7.25 16.0005C7.25 17.5193 8.48122 18.7505 10 18.7505C11.5188 18.7505 12.75 17.5193 12.75 16.0005C12.75 14.4817 11.5188 13.2505 10 13.2505C8.48122 13.2505 7.25 14.4817 7.25 16.0005ZM8.75 16.0005C8.75 16.6908 9.30964 17.2505 10 17.2505C10.6904 17.2505 11.25 16.6908 11.25 16.0005C11.25 15.3101 10.6904 14.7505 10 14.7505C9.30964 14.7505 8.75 15.3101 8.75 16.0005Z" fill="#1C274C"/>
<path fill-rule="evenodd" clip-rule="evenodd" d="M14 10.7505C15.5188 10.7505 16.75 9.51927 16.75 8.00049C16.75 6.48171 15.5188 5.25049 14 5.25049C12.4812 5.25049 11.25 6.48171 11.25 8.00049C11.25 9.51927 12.4812 10.7505 14 10.7505ZM14 9.25049C14.6904 9.25049 15.25 8.69084 15.25 8.00049C15.25 7.31013 14.6904 6.75049 14 6.75049C13.3096 6.75049 12.75 7.31013 12.75 8.00049C12.75 8.69084 13.3096 9.25049 14 9.25049Z" fill="#1C274C"/>
</svg>
