<svg width="24" height="24" viewBox="0 0 24 24" fill="none" xmlns="http://www.w3.org/2000/svg">
<path opacity="0.5" d="M3.17157 3.46459C2 4.92905 2 7.28608 2 12.0001C2 16.7142 2 19.0712 3.17157 20.5357C4.34315 22.0001 6.22876 22.0001 10 22.0001H14C17.7712 22.0001 19.6569 22.0001 20.8284 20.5357C22 19.0712 22 16.7142 22 12.0001C22 7.28608 22 4.92905 20.8284 3.46459C19.6569 2.00012 17.7712 2.00012 14 2.00012H10C6.22876 2.00012 4.34315 2.00012 3.17157 3.46459Z" fill="#1C274C"/>
<path fill-rule="evenodd" clip-rule="evenodd" d="M5.25 12.0001C5.25 9.37677 7.37665 7.25012 10 7.25012C12.6234 7.25012 14.75 9.37677 14.75 12.0001C14.75 14.6235 12.6234 16.7501 10 16.7501C7.37665 16.7501 5.25 14.6235 5.25 12.0001ZM6.75 12.0001C6.75 10.2052 8.20507 8.75012 10 8.75012C11.7949 8.75012 13.25 10.2052 13.25 12.0001C13.25 13.795 11.7949 15.2501 10 15.2501C8.20507 15.2501 6.75 13.795 6.75 12.0001Z" fill="#1C274C"/>
<path fill-rule="evenodd" clip-rule="evenodd" d="M14.75 9.00012C14.75 7.75748 15.7574 6.75012 17 6.75012C18.2426 6.75012 19.25 7.75748 19.25 9.00012C19.25 9.97979 18.6239 10.8132 17.75 11.1221V14.7641C17.75 15.8057 17.1615 16.7579 16.2298 17.2237L15.3354 17.6709C14.9649 17.8562 14.5144 17.706 14.3292 17.3355C14.1439 16.965 14.2941 16.5145 14.6646 16.3293L15.559 15.8821C15.9825 15.6703 16.25 15.2375 16.25 14.7641V11.1221C15.3761 10.8132 14.75 9.97979 14.75 9.00012ZM16.25 9.00012C16.25 8.58591 16.5858 8.25012 17 8.25012C17.4142 8.25012 17.75 8.58591 17.75 9.00012C17.75 9.41434 17.4142 9.75012 17 9.75012C16.5858 9.75012 16.25 9.41434 16.25 9.00012Z" fill="#1C274C"/>
</svg>
