<svg width="24" height="24" viewBox="0 0 24 24" fill="none" xmlns="http://www.w3.org/2000/svg">
<path fill-rule="evenodd" clip-rule="evenodd" d="M3.90469 15.8923C4.149 13.8156 5.90904 12.2505 8.00007 12.2505H16.0001C18.0911 12.2505 19.8511 13.8156 20.0955 15.8923L20.7449 21.4129C20.7933 21.8242 20.4991 22.197 20.0877 22.2454C19.6763 22.2937 19.3036 21.9995 19.2552 21.5881L18.6057 16.0676C18.4503 14.7463 17.3305 13.7505 16.0001 13.7505H8.00007C6.66967 13.7505 5.54986 14.7463 5.39441 16.0676L4.74494 21.5881C4.69654 21.9995 4.32382 22.2937 3.91244 22.2454C3.50106 22.197 3.20681 21.8242 3.25521 21.4129L3.90469 15.8923Z" fill="#1C274C"/>
<circle cx="12" cy="6.00049" r="4" fill="#1C274C"/>
<path opacity="0.5" d="M8 13.7505V18.0005C8 19.8861 8 20.8289 8.58579 21.4147C9.17157 22.0005 10.1144 22.0005 12 22.0005C13.8856 22.0005 14.8284 22.0005 15.4142 21.4147C16 20.8289 16 19.8861 16 18.0005V13.7505H8Z" fill="#1C274C"/>
</svg>
