<svg width="24" height="24" viewBox="0 0 24 24" fill="none" xmlns="http://www.w3.org/2000/svg">
<path opacity="0.5" d="M14 4.00049H10C6.22876 4.00049 4.34315 4.00049 3.17157 5.17206C2 6.34363 2 8.22925 2 12.0005C2 15.7717 2 17.6573 3.17157 18.8289C4.34315 20.0005 6.22876 20.0005 10 20.0005H14C17.7712 20.0005 19.6569 20.0005 20.8284 18.8289C22 17.6573 22 15.7717 22 12.0005C22 8.22925 22 6.34363 20.8284 5.17206C19.6569 4.00049 17.7712 4.00049 14 4.00049Z" fill="#1C274C"/>
<path d="M13.25 9.00049C13.25 8.58627 13.5858 8.25049 14 8.25049H19C19.4142 8.25049 19.75 8.58627 19.75 9.00049C19.75 9.4147 19.4142 9.75049 19 9.75049H14C13.5858 9.75049 13.25 9.4147 13.25 9.00049Z" fill="#1C274C"/>
<path d="M14.25 12.0005C14.25 11.5863 14.5858 11.2505 15 11.2505H19C19.4142 11.2505 19.75 11.5863 19.75 12.0005C19.75 12.4147 19.4142 12.7505 19 12.7505H15C14.5858 12.7505 14.25 12.4147 14.25 12.0005Z" fill="#1C274C"/>
<path d="M15.25 15.0005C15.25 14.5863 15.5858 14.2505 16 14.2505H19C19.4142 14.2505 19.75 14.5863 19.75 15.0005C19.75 15.4147 19.4142 15.7505 19 15.7505H16C15.5858 15.7505 15.25 15.4147 15.25 15.0005Z" fill="#1C274C"/>
<path d="M9 11.0005C10.1046 11.0005 11 10.1051 11 9.00049C11 7.89592 10.1046 7.00049 9 7.00049C7.89543 7.00049 7 7.89592 7 9.00049C7 10.1051 7.89543 11.0005 9 11.0005Z" fill="#1C274C"/>
<path d="M9 17.0005C13 17.0005 13 16.1051 13 15.0005C13 13.8959 11.2091 13.0005 9 13.0005C6.79086 13.0005 5 13.8959 5 15.0005C5 16.1051 5 17.0005 9 17.0005Z" fill="#1C274C"/>
</svg>
