<svg width="24" height="24" viewBox="0 0 24 24" fill="none" xmlns="http://www.w3.org/2000/svg">
<circle cx="10" cy="6.00049" r="4" fill="#1C274C"/>
<path opacity="0.5" d="M18 17.2505C18 19.7358 18 21.7505 10 21.7505C2 21.7505 2 19.7358 2 17.2505C2 14.7652 5.58172 12.7505 10 12.7505C14.4183 12.7505 18 14.7652 18 17.2505Z" fill="#1C274C"/>
<path d="M16 9.69722C16 10.6816 17.1649 11.7218 18.0429 12.3661C18.4626 12.6741 18.6725 12.828 19 12.828C19.3275 12.828 19.5374 12.6741 19.9571 12.3661C20.8352 11.7218 22 10.6817 22 9.69721C22 8.02398 20.35 7.39928 19 8.69184C17.65 7.39928 16 8.02398 16 9.69722Z" fill="#1C274C"/>
</svg>
