<svg width="24" height="24" viewBox="0 0 24 24" fill="none" xmlns="http://www.w3.org/2000/svg">
<path d="M6.46609 3.66999C3.77398 5.46192 2 8.52404 2 12.0005C2 13.6191 2.38456 15.1479 3.06729 16.5005H3.5C6.65478 16.5005 9.63285 15.044 11.5697 12.5537L12 12.0005C10.4317 9.49124 10.1761 6.37775 11.3142 3.64634L12 2.00049C10.7892 2.00049 9.62861 2.21569 8.55447 2.60992L8.18409 3.37544C7.05502 6.0957 6.76934 9.0294 7.32465 11.856C7.4045 12.2624 7.13974 12.6567 6.7333 12.7365C6.32685 12.8164 5.93263 12.5516 5.85278 12.1452C5.29921 9.3274 5.50423 6.41416 6.46609 3.66999Z" fill="#1C274C"/>
<path opacity="0.7" d="M14.1551 6.08085C13.7498 5.99506 13.3518 6.25401 13.266 6.65925C13.1802 7.06448 13.4392 7.46253 13.8444 7.54832C16.4253 8.09473 18.8156 9.37793 20.7098 11.2713L20.712 11.2735L21.9788 12.5612L21.9846 12.5555C21.8994 14.1125 21.4581 15.5746 20.7407 16.8618L20.4997 16.5005C18.6255 13.6891 15.4702 12.0005 12.0914 12.0005H11.9997C10.4315 9.49124 10.1759 6.37775 11.314 3.64634L11.9997 2.00049C16.9418 2.00049 21.0465 5.58545 21.8552 10.2967L21.777 10.2172L21.7727 10.2129C19.6711 8.11132 17.0188 6.68715 14.1551 6.08085Z" fill="#1C274C"/>
<path opacity="0.4" d="M15.4332 17.323C15.7712 17.0837 15.8512 16.6156 15.6118 16.2775C15.3724 15.9395 14.9043 15.8595 14.5663 16.0989C11.9689 17.9383 8.82217 19.0434 5.73242 19.0434H4.90097C4.16435 18.3009 3.54339 17.4435 3.06738 16.5005H3.50009C6.65487 16.5005 9.63295 15.044 11.5698 12.5537L12.0001 12.0005H12.0918C15.4706 12.0005 18.6259 13.6891 20.5001 16.5005L20.741 16.8618C19.0325 19.9271 15.7584 22.0005 12.0001 22.0005C10.0714 22.0005 8.27017 21.4545 6.74265 20.5085C9.83849 20.2961 12.8902 19.1239 15.4332 17.323Z" fill="#1C274C"/>
</svg>
