<svg width="24" height="24" viewBox="0 0 24 24" fill="none" xmlns="http://www.w3.org/2000/svg">
<path fill-rule="evenodd" clip-rule="evenodd" d="M11.9999 1.25049C12.4141 1.25049 12.7499 1.58627 12.7499 2.00049V3.00049C12.7499 3.4147 12.4141 3.75049 11.9999 3.75049C11.5857 3.75049 11.2499 3.4147 11.2499 3.00049V2.00049C11.2499 1.58627 11.5857 1.25049 11.9999 1.25049ZM1.24993 12.0005C1.24993 11.5863 1.58571 11.2505 1.99993 11.2505H2.99993C3.41414 11.2505 3.74993 11.5863 3.74993 12.0005C3.74993 12.4147 3.41414 12.7505 2.99993 12.7505H1.99993C1.58571 12.7505 1.24993 12.4147 1.24993 12.0005ZM20.2499 12.0005C20.2499 11.5863 20.5857 11.2505 20.9999 11.2505H21.9999C22.4141 11.2505 22.7499 11.5863 22.7499 12.0005C22.7499 12.4147 22.4141 12.7505 21.9999 12.7505H20.9999C20.5857 12.7505 20.2499 12.4147 20.2499 12.0005Z" fill="#1C274C"/>
<path d="M22.1719 16.0429C20.8486 15.731 20.1706 14.9896 19.5455 14.0439C19.1368 13.4255 18.4902 13.188 17.869 13.253C17.9548 12.8491 17.9999 12.43 17.9999 12.0005C17.9999 8.68678 15.3136 6.00049 11.9999 6.00049C8.68622 6.00049 5.99993 8.68678 5.99993 12.0005C5.99993 12.3628 6.03203 12.7176 6.09356 13.0621C5.51674 13.04 4.93342 13.2977 4.56979 13.8662C3.9075 14.9016 3.22886 15.7128 1.82791 16.0429C1.42474 16.1379 1.17492 16.5417 1.26992 16.9449C1.36492 17.3481 1.76877 17.5979 2.17194 17.5029C4.13904 17.0394 5.09392 15.8306 5.83341 14.6745C5.88418 14.5951 5.95364 14.5623 6.02957 14.5607C6.11008 14.559 6.20368 14.5939 6.2754 14.6857C7.38852 16.1106 9.15735 17.7505 11.9999 17.7505C14.7602 17.7505 16.5383 16.4809 17.706 14.9199C17.7934 14.8032 17.922 14.7454 18.0406 14.7432C18.1516 14.7411 18.2372 14.7848 18.2942 14.871C19.0203 15.9697 19.9759 17.0665 21.8279 17.5029C22.2311 17.5979 22.6349 17.3481 22.7299 16.9449C22.8249 16.5417 22.5751 16.1379 22.1719 16.0429Z" fill="#1C274C"/>
<g opacity="0.5">
<path d="M4.39936 4.39887C4.69225 4.10598 5.16712 4.10598 5.46002 4.39887L5.85285 4.79171C6.14575 5.0846 6.14575 5.55947 5.85285 5.85237C5.55996 6.14526 5.08509 6.14526 4.79219 5.85237L4.39936 5.45953C4.10646 5.16664 4.10646 4.69176 4.39936 4.39887Z" fill="#1C274C"/>
<path d="M19.6009 4.39913C19.8938 4.69202 19.8938 5.1669 19.6009 5.45979L19.2081 5.85263C18.9152 6.14552 18.4403 6.14552 18.1474 5.85262C17.8545 5.55973 17.8545 5.08486 18.1474 4.79196L18.5402 4.39913C18.8331 4.10623 19.308 4.10624 19.6009 4.39913Z" fill="#1C274C"/>
</g>
<g opacity="0.5">
<path d="M4.57004 18.8664C5.25688 17.7926 6.72749 17.8278 7.4577 18.7625C8.4477 20.0298 9.82965 21.2507 12.0002 21.2507C14.2088 21.2507 15.5699 20.2719 16.5051 19.0216C17.2251 18.0592 18.7909 17.902 19.5458 19.0441C20.1708 19.9898 20.8488 20.7312 22.1722 21.0431C22.5754 21.1381 22.8252 21.5419 22.7302 21.9451C22.6352 22.3483 22.2313 22.5981 21.8282 22.5031C19.9762 22.0667 19.0206 20.9699 18.2944 19.8712C18.2374 19.785 18.1519 19.7413 18.0408 19.7434C17.9223 19.7456 17.7936 19.8034 17.7063 19.9201C16.5386 21.4811 14.7604 22.7507 12.0002 22.7507C9.15759 22.7507 7.38876 21.1108 6.27565 19.6859C6.20392 19.5941 6.11032 19.5592 6.02981 19.5609C5.95388 19.5625 5.88442 19.5953 5.83365 19.6747C5.09416 20.8308 4.13929 22.0396 2.17218 22.5031C1.76901 22.5981 1.36516 22.3483 1.27016 21.9451C1.17516 21.5419 1.42498 21.1381 1.82816 21.0431C3.2291 20.713 3.90775 19.9018 4.57004 18.8664Z" fill="#1C274C"/>
</g>
</svg>
