<svg width="24" height="24" viewBox="0 0 24 24" fill="none" xmlns="http://www.w3.org/2000/svg">
<g opacity="0.5">
<path d="M12 15.0005C13.6569 15.0005 15 13.6573 15 12.0005C15 10.3436 13.6569 9.00049 12 9.00049C10.3431 9.00049 9 10.3436 9 12.0005C9 13.6573 10.3431 15.0005 12 15.0005Z" fill="#1C274C"/>
<path fill-rule="evenodd" clip-rule="evenodd" d="M22 12.0005C22 17.5233 17.5228 22.0005 12 22.0005C6.47715 22.0005 2 17.5233 2 12.0005C2 6.47764 6.47715 2.00049 12 2.00049C17.5228 2.00049 22 6.47764 22 12.0005ZM12 18.0005C15.3137 18.0005 18 15.3142 18 12.0005C18 8.68678 15.3137 6.00049 12 6.00049C8.68629 6.00049 6 8.68678 6 12.0005C6 15.3142 8.68629 18.0005 12 18.0005ZM15 12.0005C15 13.6573 13.6569 15.0005 12 15.0005C10.3431 15.0005 9 13.6573 9 12.0005C9 10.3436 10.3431 9.00049 12 9.00049C13.6569 9.00049 15 10.3436 15 12.0005Z" fill="#1C274C"/>
</g>
<path d="M9.67217 17.5323L11.1967 14.8918C10.7001 14.7541 10.2553 14.492 9.89804 14.141L8.37377 16.7812C8.77077 17.0828 9.2065 17.3361 9.67217 17.5323Z" fill="#1C274C"/>
<path d="M6.0464 12.7503H9.09446C9.0328 12.5107 9 12.2594 9 12.0005C9 11.7415 9.03283 11.4901 9.09456 11.2503H6.04644C6.01579 11.4961 6 11.7465 6 12.0005C6 12.2545 6.01577 12.5047 6.0464 12.7503Z" fill="#1C274C"/>
<path d="M8.37388 7.21984L9.89814 9.85994C10.2555 9.50904 10.7003 9.24692 11.1968 9.10928L9.6723 6.46877C9.20662 6.66496 8.77089 6.91824 8.37388 7.21984Z" fill="#1C274C"/>
<path d="M12.8031 9.10926L14.3276 6.46875C14.7933 6.66493 15.2291 6.91821 15.6261 7.2198L14.1018 9.8599C13.7445 9.50901 13.2997 9.24689 12.8031 9.10926Z" fill="#1C274C"/>
<path d="M14.9055 12.7503C14.9672 12.5107 15 12.2594 15 12.0005C15 11.7415 14.9672 11.4901 14.9054 11.2503H17.9536C17.9842 11.4961 18 11.7465 18 12.0005C18 12.2545 17.9842 12.5047 17.9536 12.7503H14.9055Z" fill="#1C274C"/>
<path d="M12.8034 14.8918C13.3 14.7541 13.7447 14.4919 14.102 14.141L15.6263 16.7811C15.2293 17.0827 14.7936 17.336 14.3279 17.5322L12.8034 14.8918Z" fill="#1C274C"/>
</svg>
