<svg width="24" height="24" viewBox="0 0 24 24" fill="none" xmlns="http://www.w3.org/2000/svg">
<path fill-rule="evenodd" clip-rule="evenodd" d="M17.952 2.87408C16.1404 2.46764 13.9349 3.07381 12.2941 4.71459C10.7139 6.29475 9.6359 8.88852 9.71122 10.9859C9.71334 11.0449 9.71635 11.1032 9.72026 11.1609C9.90527 10.8072 10.1197 10.4492 10.3482 10.0979C11.3192 8.60527 12.6636 7.05551 13.5767 6.14244C14.4911 5.22812 15.8484 4.07656 17.1559 3.30038C17.4171 3.14526 17.6843 3.00039 17.952 2.87408ZM21.0789 2.92139C18.4782 0.320807 13.9918 0.89568 11.2334 3.65392C9.38534 5.50194 8.12062 8.48986 8.21219 11.0398C8.25779 12.3096 8.64447 13.5437 9.55036 14.4496C10.4566 15.3558 11.6912 15.7424 12.9616 15.7877C15.5113 15.8788 18.4985 14.6142 20.3463 12.7665C23.1046 10.0083 23.6796 5.52199 21.0789 2.92139ZM20.0182 3.98206C19.9729 3.9368 19.8406 3.84735 19.432 3.93111C19.0286 4.01377 18.5106 4.24053 17.9216 4.59022C16.753 5.28396 15.4936 6.34696 14.6374 7.20311C13.78 8.06051 12.5071 9.52994 11.6056 10.9159C11.1514 11.614 10.8206 12.2471 10.6685 12.7453C10.5926 12.9936 10.574 13.168 10.5822 13.2783C10.586 13.33 10.5951 13.3586 10.6004 13.3715C10.605 13.3825 10.6083 13.3862 10.611 13.3889C10.6137 13.3916 10.6174 13.395 10.6284 13.3995C10.6413 13.4048 10.6699 13.4139 10.7217 13.4178C10.8321 13.4259 11.0065 13.4073 11.2548 13.3315C11.7531 13.1794 12.3863 12.8487 13.0845 12.3946C14.4706 11.4932 15.9402 10.2206 16.7976 9.36321C17.6538 8.5071 18.7166 7.24763 19.4103 6.07894C19.7599 5.48986 19.9866 4.97177 20.0692 4.56843C20.153 4.15969 20.0635 4.02734 20.0182 3.98206ZM12.8397 14.2796C13.1932 14.0947 13.5511 13.8805 13.9023 13.6521C15.3951 12.6813 16.9451 11.337 17.8583 10.4239C18.7727 9.50952 19.9241 8.15211 20.7002 6.84452C20.8552 6.58328 21 6.31622 21.1263 6.04856C21.5326 7.86 20.9263 10.0652 19.2856 11.7058C17.7057 13.2857 15.1125 14.3636 13.0152 14.2887C12.956 14.2866 12.8975 14.2836 12.8397 14.2796Z" fill="#1C274C"/>
<path opacity="0.5" d="M8.26895 11.7054C8.41001 12.7339 8.80393 13.7032 9.55036 14.4496C10.297 15.1962 11.2666 15.5901 12.2954 15.731L6.85993 21.1663C5.74815 22.2781 3.94561 22.2781 2.83383 21.1663C1.72206 20.0546 1.72206 18.2521 2.83383 17.1404L8.26895 11.7054Z" fill="#1C274C"/>
</svg>
