<svg width="24" height="24" viewBox="0 0 24 24" fill="none" xmlns="http://www.w3.org/2000/svg">
<path opacity="0.4" fill-rule="evenodd" clip-rule="evenodd" d="M16.4998 4.50037C14.521 4.50037 12.823 5.71068 12.1091 7.43435C11.9507 7.81705 11.5119 7.9988 11.1292 7.84031C10.7466 7.68183 10.5648 7.24311 10.7233 6.86042C11.6612 4.59576 13.8933 3.00037 16.4998 3.00037C19.1064 3.00037 21.3385 4.59576 22.2764 6.86042C22.4349 7.24311 22.2531 7.68183 21.8704 7.84031C21.4878 7.9988 21.049 7.81705 20.8905 7.43435C20.1767 5.71068 18.4787 4.50037 16.4998 4.50037Z" fill="#1C274C"/>
<path opacity="0.7" fill-rule="evenodd" clip-rule="evenodd" d="M16.5006 7.00037C15.4782 7.00037 14.6133 7.68281 14.3403 8.61857C14.2243 9.0162 13.8078 9.24448 13.4102 9.12845C13.0126 9.01241 12.7843 8.59601 12.9003 8.19838C13.3551 6.64006 14.7938 5.50037 16.5006 5.50037C18.2074 5.50037 19.6461 6.64006 20.1008 8.19838C20.2168 8.59601 19.9886 9.01241 19.5909 9.12845C19.1933 9.24448 18.7769 9.0162 18.6609 8.61857C18.3878 7.68281 17.5229 7.00037 16.5006 7.00037Z" fill="#1C274C"/>
<path fill-rule="evenodd" clip-rule="evenodd" d="M2 15.7504C2 13.8647 2 12.9219 2.58579 12.3362C3.17157 11.7504 4.11438 11.7504 6 11.7504H18C19.8856 11.7504 20.8284 11.7504 21.4142 12.3362C22 12.9219 22 13.8647 22 15.7504C22 17.636 22 18.5788 21.4142 19.1646C20.8284 19.7504 19.8856 19.7504 18 19.7504H6C4.11438 19.7504 3.17157 19.7504 2.58579 19.1646C2 18.5788 2 17.636 2 15.7504ZM6 16.7504C6.55228 16.7504 7 16.3027 7 15.7504C7 15.1981 6.55228 14.7504 6 14.7504C5.44772 14.7504 5 15.1981 5 15.7504C5 16.3027 5.44772 16.7504 6 16.7504ZM9 16.7504C9.55228 16.7504 10 16.3027 10 15.7504C10 15.1981 9.55228 14.7504 9 14.7504C8.44772 14.7504 8 15.1981 8 15.7504C8 16.3027 8.44772 16.7504 9 16.7504Z" fill="#1C274C"/>
<path d="M17.25 8.75037C17.25 8.33615 16.9142 8.00037 16.5 8.00037C16.0858 8.00037 15.75 8.33615 15.75 8.75037V11.7504H17.25V8.75037Z" fill="#1C274C"/>
</svg>
