<svg width="24" height="24" viewBox="0 0 24 24" fill="none" xmlns="http://www.w3.org/2000/svg">
<path opacity="0.5" d="M2 6.21101C2 4.22615 2 3.23372 2.65901 2.61711C3.31802 2.00049 4.37868 2.00049 6.5 2.00049C8.62132 2.00049 9.68198 2.00049 10.341 2.61711C11 3.23372 11 4.22615 11 6.21101V17.79C11 19.7748 11 20.7673 10.341 21.3839C9.68198 22.0005 8.62132 22.0005 6.5 22.0005C4.37868 22.0005 3.31802 22.0005 2.65901 21.3839C2 20.7673 2 19.7748 2 17.79V6.21101Z" fill="#1C274C"/>
<path d="M13 15.4005C13 13.3263 13 12.2892 13.659 11.6449C14.318 11.0005 15.3787 11.0005 17.5 11.0005C19.6213 11.0005 20.682 11.0005 21.341 11.6449C22 12.2892 22 13.3263 22 15.4005V17.6005C22 19.6747 22 20.7118 21.341 21.3561C20.682 22.0005 19.6213 22.0005 17.5 22.0005C15.3787 22.0005 14.318 22.0005 13.659 21.3561C13 20.7118 13 19.6747 13 17.6005V15.4005Z" fill="#1C274C"/>
<path d="M13 5.50049C13 4.41329 13 3.86969 13.1713 3.44089C13.3996 2.86916 13.8376 2.41492 14.389 2.1781C14.8024 2.00049 15.3266 2.00049 16.375 2.00049H18.625C19.6734 2.00049 20.1976 2.00049 20.611 2.1781C21.1624 2.41492 21.6004 2.86916 21.8287 3.44089C22 3.86969 22 4.41329 22 5.50049C22 6.58769 22 7.13128 21.8287 7.56008C21.6004 8.13181 21.1624 8.58605 20.611 8.82287C20.1976 9.00049 19.6734 9.00049 18.625 9.00049H16.375C15.3266 9.00049 14.8024 9.00049 14.389 8.82287C13.8376 8.58605 13.3996 8.13181 13.1713 7.56008C13 7.13128 13 6.58769 13 5.50049Z" fill="#1C274C"/>
</svg>
