<svg width="24" height="24" viewBox="0 0 24 24" fill="none" xmlns="http://www.w3.org/2000/svg">
<path opacity="0.5" d="M4.17157 3.17182C3 4.34339 3 6.22901 3 10.0002V14.0002C3 17.7715 3 19.6571 4.17157 20.8287C5.34315 22.0002 7.22876 22.0002 11 22.0002H13C16.7712 22.0002 18.6569 22.0002 19.8284 20.8287C21 19.6571 21 17.7715 21 14.0002V10.0002C21 6.22901 21 4.34339 19.8284 3.17182C18.6569 2.00024 16.7712 2.00024 13 2.00024H12L9.5 2.00363C6.70613 2.02401 5.17628 2.16711 4.17157 3.17182Z" fill="#1C274C"/>
<path d="M13.5 8.00024H12V9.00024C12 9.47165 12 9.70735 12.1464 9.8538C12.2929 10.0002 12.5286 10.0002 13 10.0002H13.5C13.9714 10.0002 14.2071 10.0002 14.3536 9.8538C14.5 9.70735 14.5 9.47165 14.5 9.00024C14.5 8.52884 14.5 8.29314 14.3536 8.14669C14.2071 8.00024 13.9714 8.00024 13.5 8.00024Z" fill="#1C274C"/>
<path d="M9.64645 6.14669C9.5 6.29314 9.5 6.52884 9.5 7.00024C9.5 7.47165 9.5 7.70735 9.64645 7.8538C9.79289 8.00024 10.0286 8.00024 10.5 8.00024H12V6.00024H10.5C10.0286 6.00024 9.79289 6.00024 9.64645 6.14669Z" fill="#1C274C"/>
<path d="M13.5 4.00024H12V6.00024H13.5C13.9714 6.00024 14.2071 6.00024 14.3536 5.8538C14.5 5.70735 14.5 5.47165 14.5 5.00024C14.5 4.52884 14.5 4.29314 14.3536 4.14669C14.2071 4.00024 13.9714 4.00024 13.5 4.00024Z" fill="#1C274C"/>
<path d="M12 4.00024V3.00024V2.00024L9.5 2.00363V3.00024C9.5 3.47165 9.5 3.70735 9.64645 3.8538C9.79289 4.00024 10.0286 4.00024 10.5 4.00024H12Z" fill="#1C274C"/>
<path d="M9.5 13.0002V12.8752C9.5 12.392 9.89175 12.0002 10.375 12.0002H13.625C14.1082 12.0002 14.5 12.392 14.5 12.8752V13.0002C14.5 14.381 13.3807 15.5002 12 15.5002C10.6193 15.5002 9.5 14.381 9.5 13.0002Z" fill="#1C274C"/>
</svg>
