<svg width="24" height="24" viewBox="0 0 24 24" fill="none" xmlns="http://www.w3.org/2000/svg">
<path d="M3.74157 20.555C4.94119 22.0005 7.17389 22.0005 11.6393 22.0005H12.3605C16.8259 22.0005 19.0586 22.0005 20.2582 20.555M3.74157 20.555C2.54194 19.1096 2.9534 16.9151 3.77633 12.5262C4.36155 9.405 4.65416 7.84441 5.76506 6.92245M3.74157 20.555V20.555ZM20.2582 20.555C21.4578 19.1096 21.0464 16.9151 20.2235 12.5262C19.6382 9.405 19.3456 7.84441 18.2347 6.92245M20.2582 20.555V20.555ZM18.2347 6.92245C17.1238 6.00049 15.5361 6.00049 12.3605 6.00049H11.6393C8.46374 6.00049 6.87596 6.00049 5.76506 6.92245M18.2347 6.92245V6.92245ZM5.76506 6.92245V6.92245Z" stroke="#1C274C" stroke-width="1.5"/>
<path opacity="0.5" d="M9 6.00049V5.00049C9 3.34363 10.3431 2.00049 12 2.00049C13.6569 2.00049 15 3.34363 15 5.00049V6.00049" stroke="#1C274C" stroke-width="1.5" stroke-linecap="round"/>
<path opacity="0.5" d="M12.7416 10.6297L12.4062 9.9589L12.4062 9.9589L12.7416 10.6297ZM14.0584 9.97136L13.7229 9.30054V9.30054L14.0584 9.97136ZM13.9416 13.0297L13.6062 12.3589L13.6062 12.3589L13.9416 13.0297ZM12.0598 12.7231L12.7649 12.4677V12.4677L12.0598 12.7231ZM13.1159 13.3758L13.029 12.6308H13.029L13.1159 13.3758ZM15.9822 11.5705L16.7188 11.7115V11.7115L15.9822 11.5705ZM15.6074 12.1769L16.0629 12.7727L16.0629 12.7727L15.6074 12.1769ZM14.8841 9.62531L14.971 10.3703L14.8841 9.62531ZM15.9402 10.278L15.2351 10.5334V10.5334L15.9402 10.278ZM12.3926 10.8242L12.8482 11.42L12.8482 11.42L12.3926 10.8242ZM12.0178 11.4306L11.2812 11.2896V11.2896L12.0178 11.4306ZM11.25 17.0005C11.25 17.6909 10.6904 18.2505 10 18.2505V19.7505C11.5188 19.7505 12.75 18.5193 12.75 17.0005H11.25ZM10 18.2505C9.30964 18.2505 8.75 17.6909 8.75 17.0005H7.25C7.25 18.5193 8.48122 19.7505 10 19.7505V18.2505ZM8.75 17.0005C8.75 16.3102 9.30964 15.7505 10 15.7505V14.2505C8.48122 14.2505 7.25 15.4818 7.25 17.0005H8.75ZM10 15.7505C10.6904 15.7505 11.25 16.3102 11.25 17.0005H12.75C12.75 15.4818 11.5188 14.2505 10 14.2505V15.7505ZM12.75 17.0005V12.0005H11.25V17.0005H12.75ZM13.0771 11.3005L14.3938 10.6422L13.7229 9.30054L12.4062 9.9589L13.0771 11.3005ZM14.9229 11.7005L13.6062 12.3589L14.2771 13.7005L15.5938 13.0422L14.9229 11.7005ZM11.25 11.8297C11.25 12.0643 11.2498 12.2696 11.2585 12.436C11.2672 12.6004 11.2866 12.7907 11.3546 12.9785L12.7649 12.4677C12.7732 12.4904 12.7627 12.4769 12.7564 12.3572C12.7502 12.2395 12.75 12.0807 12.75 11.8297H11.25ZM13.6062 12.3589C13.3817 12.4712 13.2396 12.542 13.1316 12.589C13.0217 12.6369 13.0049 12.6336 13.029 12.6308L13.2028 14.1207C13.4012 14.0976 13.5801 14.0298 13.731 13.9641C13.8837 13.8975 14.0673 13.8054 14.2771 13.7005L13.6062 12.3589ZM11.3546 12.9785C11.6311 13.7419 12.3963 14.2148 13.2028 14.1207L13.029 12.6308C12.9138 12.6443 12.8044 12.5767 12.7649 12.4677L11.3546 12.9785ZM15.25 11.1714C15.25 11.2785 15.2499 11.3396 15.2482 11.3858C15.2468 11.4274 15.2446 11.4345 15.2455 11.4295L16.7188 11.7115C16.7532 11.5318 16.75 11.345 16.75 11.1714H15.25ZM15.5938 13.0422C15.7491 12.9645 15.9176 12.8838 16.0629 12.7727L15.1518 11.5811C15.1559 11.578 15.1505 11.5832 15.114 11.6031C15.0734 11.6252 15.0188 11.6526 14.9229 11.7005L15.5938 13.0422ZM15.2455 11.4295C15.234 11.4898 15.2006 11.5438 15.1518 11.5811L16.0629 12.7727C16.4045 12.5116 16.638 12.1338 16.7188 11.7115L15.2455 11.4295ZM14.3938 10.6422C14.6183 10.5299 14.7604 10.4591 14.8684 10.4121C14.9783 10.3642 14.9951 10.3675 14.971 10.3703L14.7972 8.88036C14.5988 8.90351 14.4199 8.97125 14.269 9.03702C14.1163 9.10359 13.9327 9.19565 13.7229 9.30054L14.3938 10.6422ZM16.75 11.1714C16.75 10.9368 16.7502 10.7315 16.7415 10.5651C16.7328 10.4007 16.7134 10.2104 16.6454 10.0226L15.2351 10.5334C15.2268 10.5106 15.2373 10.5242 15.2436 10.6439C15.2498 10.7616 15.25 10.9204 15.25 11.1714H16.75ZM14.971 10.3703C15.0862 10.3568 15.1956 10.4244 15.2351 10.5334L16.6454 10.0226C16.3689 9.25923 15.6037 8.7863 14.7972 8.88036L14.971 10.3703ZM12.4062 9.9589C12.2509 10.0366 12.0824 10.1172 11.9371 10.2284L12.8482 11.42C12.8441 11.4231 12.8495 11.4179 12.886 11.398C12.9266 11.3759 12.9812 11.3485 13.0771 11.3005L12.4062 9.9589ZM12.75 11.8297C12.75 11.7226 12.7501 11.6615 12.7518 11.6153C12.7532 11.5737 12.7554 11.5666 12.7545 11.5716L11.2812 11.2896C11.2468 11.4693 11.25 11.6561 11.25 11.8297H12.75ZM11.9371 10.2284C11.5955 10.4895 11.362 10.8673 11.2812 11.2896L12.7545 11.5716C12.766 11.5112 12.7994 11.4573 12.8482 11.42L11.9371 10.2284Z" fill="#1C274C"/>
</svg>
