<svg width="24" height="24" viewBox="0 0 24 24" fill="none" xmlns="http://www.w3.org/2000/svg">
<path d="M2 10.0005C2 7.17206 2 5.75785 2.87868 4.87917C3.75736 4.00049 5.17157 4.00049 8 4.00049H13C15.8284 4.00049 17.2426 4.00049 18.1213 4.87917C19 5.75785 19 7.17206 19 10.0005C19 12.8289 19 14.2431 18.1213 15.1218C17.2426 16.0005 15.8284 16.0005 13 16.0005H8C5.17157 16.0005 3.75736 16.0005 2.87868 15.1218C2 14.2431 2 12.8289 2 10.0005Z" stroke="#1C274C" stroke-width="1.5"/>
<path opacity="0.5" d="M19.0003 7.07666C19.9754 7.17257 20.6317 7.38933 21.1216 7.87922C22.0003 8.7579 22.0003 10.1721 22.0003 13.0005C22.0003 15.829 22.0003 17.2432 21.1216 18.1219C20.2429 19.0005 18.8287 19.0005 16.0003 19.0005H11.0003C8.17187 19.0005 6.75766 19.0005 5.87898 18.1219C5.38909 17.632 5.17233 16.9756 5.07642 16.0005" stroke="#1C274C" stroke-width="1.5"/>
<path d="M13 10.0005C13 11.3812 11.8807 12.5005 10.5 12.5005C9.11929 12.5005 8 11.3812 8 10.0005C8 8.61978 9.11929 7.50049 10.5 7.50049C11.8807 7.50049 13 8.61978 13 10.0005Z" stroke="#1C274C" stroke-width="1.5"/>
<path opacity="0.5" d="M16 12.0005L16 8.00049" stroke="#1C274C" stroke-width="1.5" stroke-linecap="round"/>
<path opacity="0.5" d="M5 12.0005L5 8.00049" stroke="#1C274C" stroke-width="1.5" stroke-linecap="round"/>
</svg>
