<svg width="24" height="24" viewBox="0 0 24 24" fill="none" xmlns="http://www.w3.org/2000/svg">
<path d="M4.01207 15.7618L5.70156 10.6933C6.46758 8.39525 6.85059 7.24623 7.75684 7.03229C8.6631 6.81835 9.51953 7.67478 11.2324 9.38764L14.6114 12.7666C16.3242 14.4795 17.1807 15.3359 16.9667 16.2422C16.7528 17.1484 15.6038 17.5314 13.3057 18.2975L8.23724 19.987C5.47183 20.9088 4.08912 21.3697 3.35924 20.6398C2.62936 19.9099 3.09026 18.5272 4.01207 15.7618Z" stroke="#1C274C" stroke-width="1.5" stroke-linecap="round"/>
<path opacity="0.5" d="M12.2351 18.3463C12.2351 18.3463 11.477 16.0652 11.477 14.5554C11.477 13.0457 12.2351 10.7646 12.2351 10.7646M8.06517 19.4836C8.06517 19.4836 7.42484 16.7317 7.307 14.9345C7.11229 11.9653 8.06517 7.35278 8.06517 7.35278" stroke="#1C274C" stroke-width="1.5" stroke-linecap="round"/>
<path d="M14.5093 10.0061L14.6533 9.28614C14.7986 8.55924 15.3224 7.96597 16.0256 7.73155C16.7289 7.49714 17.2526 6.90387 17.398 6.17697L17.542 5.45703" stroke="#1C274C" stroke-width="1.5" stroke-linecap="round"/>
<path d="M17.5693 13.2533L17.7822 13.3762C18.4393 13.7556 19.2655 13.6719 19.8332 13.1685C20.3473 12.7126 21.0794 12.597 21.709 12.8723L22.0005 12.9997" stroke="#1C274C" stroke-width="1.5" stroke-linecap="round"/>
<path d="M9.79513 2.77927C9.45764 3.33133 9.54223 4.04271 9.99976 4.50024L10.0976 4.59812C10.4908 4.99128 10.6358 5.56886 10.4749 6.10109" stroke="#1C274C" stroke-width="1.5" stroke-linecap="round"/>
<g opacity="0.5">
<path d="M6.92761 3.94079C7.13708 3.73132 7.47669 3.73132 7.68616 3.94079C7.89563 4.15026 7.89563 4.48988 7.68616 4.69935C7.47669 4.90882 7.13708 4.90882 6.92761 4.69935C6.71814 4.48988 6.71814 4.15026 6.92761 3.94079Z" fill="#1C274C"/>
</g>
<g opacity="0.5">
<path d="M12.1571 7.1571C12.3666 6.94763 12.7062 6.94763 12.9157 7.1571C13.1251 7.36657 13.1251 7.70619 12.9157 7.91566C12.7062 8.12512 12.3666 8.12512 12.1571 7.91566C11.9476 7.70619 11.9476 7.36657 12.1571 7.1571Z" fill="#1C274C"/>
</g>
<g opacity="0.5">
<path d="M17.1571 10.1571C17.3666 9.94763 17.7062 9.94763 17.9157 10.1571C18.1251 10.3666 18.1251 10.7062 17.9157 10.9157C17.7062 11.1251 17.3666 11.1251 17.1571 10.9157C16.9476 10.7062 16.9476 10.3666 17.1571 10.1571Z" fill="#1C274C"/>
</g>
<path opacity="0.5" d="M19.0582 15.3134C19.2677 15.1039 19.6073 15.1039 19.8168 15.3134C20.0262 15.5228 20.0262 15.8624 19.8168 16.0719C19.6073 16.2814 19.2677 16.2814 19.0582 16.0719C18.8488 15.8624 18.8488 15.5228 19.0582 15.3134Z" fill="#1C274C"/>
<path d="M19.1722 10.3278L18.6869 10.4479L18.7593 10.7407L19.0521 10.8131L19.1722 10.3278ZM21.0002 8.49976L20.5002 8.49842C20.4999 8.63149 20.5526 8.75921 20.6467 8.85331C20.7408 8.9474 20.8685 9.00011 21.0016 8.99975L21.0002 8.49976ZM19.1722 10.3278C19.6576 10.2076 19.6576 10.2077 19.6576 10.2078C19.6576 10.2078 19.6577 10.2079 19.6577 10.2079C19.6577 10.208 19.6577 10.2081 19.6577 10.2081C19.6577 10.2081 19.6577 10.208 19.6576 10.2078C19.6575 10.2074 19.6573 10.2065 19.657 10.2052C19.6564 10.2026 19.6553 10.1982 19.6539 10.1922C19.6511 10.1801 19.6468 10.1613 19.6415 10.1367C19.6307 10.0874 19.6158 10.0148 19.5997 9.92521C19.5673 9.7449 19.5312 9.50074 19.5145 9.24035C19.4976 8.97697 19.5019 8.71501 19.5414 8.49281C19.5823 8.26319 19.6508 8.13193 19.7151 8.06767L19.008 7.36057C18.7371 7.63144 18.6144 7.99446 18.5569 8.31772C18.4981 8.64842 18.4969 8.99799 18.5165 9.30423C18.5363 9.61348 18.5786 9.89705 18.6154 10.1021C18.6339 10.2051 18.6513 10.2896 18.6643 10.3492C18.6708 10.379 18.6762 10.4027 18.6801 10.4194C18.682 10.4277 18.6836 10.4344 18.6847 10.4391C18.6853 10.4415 18.6858 10.4435 18.6861 10.4449C18.6863 10.4457 18.6865 10.4463 18.6866 10.4468C18.6867 10.447 18.6867 10.4472 18.6868 10.4474C18.6868 10.4475 18.6868 10.4476 18.6868 10.4477C18.6869 10.4478 18.6869 10.4479 19.1722 10.3278ZM19.7151 8.06767C19.9578 7.82491 20.1498 7.84347 20.2385 7.88445C20.3349 7.92897 20.5013 8.08862 20.5002 8.49842L21.5002 8.50109C21.5021 7.81705 21.2041 7.22892 20.6578 6.97662C20.1039 6.72076 19.4751 6.89343 19.008 7.36057L19.7151 8.06767ZM19.1722 10.3278C19.0521 10.8131 19.0522 10.8131 19.0523 10.8132C19.0524 10.8132 19.0525 10.8132 19.0526 10.8132C19.0528 10.8133 19.053 10.8133 19.0532 10.8134C19.0537 10.8135 19.0543 10.8137 19.0551 10.8139C19.0565 10.8142 19.0585 10.8147 19.0609 10.8153C19.0656 10.8164 19.0723 10.818 19.0806 10.8199C19.0973 10.8238 19.121 10.8292 19.1508 10.8357C19.2104 10.8487 19.2949 10.8661 19.3979 10.8846C19.6029 10.9214 19.8865 10.9637 20.1958 10.9835C20.502 11.0031 20.8516 11.0019 21.1823 10.9431C21.5055 10.8856 21.8686 10.7629 22.1394 10.492L21.4323 9.78493C21.3681 9.84919 21.2368 9.91772 21.0072 9.95856C20.785 9.99808 20.523 10.0024 20.2596 9.9855C19.9993 9.96883 19.7551 9.93273 19.5748 9.90033C19.4852 9.88423 19.4126 9.86928 19.3633 9.85855C19.3387 9.85319 19.3199 9.84891 19.3078 9.84608C19.3018 9.84467 19.2974 9.84363 19.2948 9.843C19.2935 9.84269 19.2926 9.84248 19.2922 9.84238C19.292 9.84233 19.2919 9.8423 19.2919 9.84231C19.292 9.84231 19.292 9.84232 19.2921 9.84234C19.2921 9.84235 19.2922 9.84237 19.2922 9.84237C19.2923 9.84239 19.2924 9.84241 19.1722 10.3278ZM22.1394 10.492C22.6066 10.0249 22.7792 9.39606 22.5234 8.84215C22.2711 8.29592 21.683 7.99793 20.9989 7.99976L21.0016 8.99975C21.4114 8.99866 21.571 9.16509 21.6156 9.26148C21.6565 9.3502 21.6751 9.54218 21.4323 9.78493L22.1394 10.492Z" fill="#1C274C"/>
<path opacity="0.5" d="M15.1884 3.41748L15.1608 3.51459C15.1305 3.62126 15.1153 3.67459 15.1225 3.72695C15.1296 3.77931 15.1583 3.82476 15.2157 3.91567L15.2679 3.99844C15.4698 4.31836 15.5707 4.47831 15.5019 4.60915C15.4332 4.73998 15.2402 4.75504 14.8544 4.78517L14.7546 4.79296C14.6449 4.80152 14.5901 4.8058 14.5422 4.83099C14.4943 4.85618 14.4587 4.89943 14.3875 4.98592L14.3226 5.06467C14.072 5.36905 13.9467 5.52124 13.8038 5.50167C13.6609 5.4821 13.595 5.30373 13.4632 4.94699L13.4291 4.85469C13.3916 4.75332 13.3729 4.70263 13.3361 4.66584C13.2993 4.62905 13.2486 4.61033 13.1472 4.57287L13.0549 4.53878C12.6982 4.40698 12.5198 4.34108 12.5003 4.19815C12.4807 4.05522 12.6329 3.92992 12.9373 3.67932L13.016 3.61448C13.1025 3.54327 13.1458 3.50767 13.1709 3.45974C13.1961 3.41181 13.2004 3.35699 13.209 3.24735L13.2168 3.14753C13.2469 2.76169 13.262 2.56877 13.3928 2.50001C13.5236 2.43124 13.6836 2.53217 14.0035 2.73403L14.0863 2.78626C14.1772 2.84362 14.2226 2.8723 14.275 2.87947C14.3273 2.88664 14.3807 2.87148 14.4873 2.84117L14.5845 2.81358C14.9598 2.70692 15.1475 2.65359 15.2479 2.75402C15.3483 2.85445 15.295 3.04213 15.1884 3.41748Z" stroke="#1C274C"/>
</svg>
