<svg width="24" height="24" viewBox="0 0 24 24" fill="none" xmlns="http://www.w3.org/2000/svg">
<path d="M2.90565 13.793C2.48385 10.6294 2.27294 9.04765 3.16932 8.02383C4.0657 7 5.66147 7 8.85302 7H15.1468C18.3384 7 19.9341 7 20.8305 8.02383C21.7269 9.04765 21.516 10.6294 21.0942 13.793L20.6942 16.793C20.3634 19.2739 20.198 20.5143 19.3495 21.2572C18.5011 22 17.2497 22 14.7468 22H9.25302C6.75018 22 5.49877 22 4.6503 21.2572C3.80183 20.5143 3.63644 19.2739 3.30565 16.793L2.90565 13.793Z" stroke="#1C274C" stroke-width="1.5"/>
<path opacity="0.5" d="M19.562 7C19.7906 5.69523 18.7866 4.5 17.4619 4.5H6.53812C5.21347 4.5 4.20946 5.69523 4.43809 7M17.4999 4.5C17.5283 4.24092 17.5425 4.11135 17.5427 4.00435C17.545 2.98072 16.7739 2.12064 15.7561 2.01142C15.6497 2 15.5194 2 15.2588 2H8.74099C8.48035 2 8.35002 2 8.24362 2.01142C7.22584 2.12064 6.45481 2.98072 6.45704 4.00434C6.45727 4.11135 6.47146 4.2409 6.49983 4.5" stroke="#1C274C" stroke-width="1.5"/>
<path d="M12.5606 12.699L12.2076 13.3608L12.2076 13.3608L12.5606 12.699ZM13.4429 13.1696L13.7958 12.5079V12.5079L13.4429 13.1696ZM14.4394 11.3011L14.7924 10.6393L14.7924 10.6393L14.4394 11.3011ZM13.5571 10.8305L13.91 10.1688L13.91 10.1688L13.5571 10.8305ZM12.0018 11.6062L12.7505 11.6516V11.6516L12.0018 11.6062ZM13.4163 10.7575L13.1041 11.4394L13.1041 11.4394L13.4163 10.7575ZM14.9995 12.1683L15.7491 12.1445V12.1445L14.9995 12.1683ZM14.4984 11.3331L14.8722 10.6829L14.8722 10.6829L14.4984 11.3331ZM13.5837 13.2426L13.8959 12.5607L13.8959 12.5607L13.5837 13.2426ZM14.9982 12.394L14.2495 12.3486V12.3486L14.9982 12.394ZM12.5016 12.667L12.1278 13.3172L12.1278 13.3172L12.5016 12.667ZM12.0005 11.8319L11.2509 11.8557V11.8557L12.0005 11.8319ZM11.25 16.5001C11.25 16.9143 10.9142 17.2501 10.5 17.2501V18.7501C11.7426 18.7501 12.75 17.7427 12.75 16.5001H11.25ZM10.5 17.2501C10.0858 17.2501 9.75 16.9143 9.75 16.5001H8.25C8.25 17.7427 9.25736 18.7501 10.5 18.7501V17.2501ZM9.75 16.5001C9.75 16.0859 10.0858 15.7501 10.5 15.7501V14.2501C9.25736 14.2501 8.25 15.2574 8.25 16.5001H9.75ZM10.5 15.7501C10.9142 15.7501 11.25 16.0859 11.25 16.5001H12.75C12.75 15.2574 11.7426 14.2501 10.5 14.2501V15.7501ZM12.75 16.5001V12.0001H11.25V16.5001H12.75ZM12.2076 13.3608L13.09 13.8314L13.7958 12.5079L12.9135 12.0373L12.2076 13.3608ZM14.7924 10.6393L13.91 10.1688L13.2042 11.4923L14.0865 11.9629L14.7924 10.6393ZM12.75 11.7648C12.75 11.7206 12.75 11.6925 12.7502 11.6716C12.7504 11.65 12.7507 11.6471 12.7505 11.6516L11.2532 11.5607C11.2496 11.6199 11.25 11.6927 11.25 11.7648H12.75ZM13.91 10.1688C13.8464 10.1348 13.7824 10.1002 13.7285 10.0756L13.1041 11.4394C13.1 11.4376 13.1027 11.4386 13.1218 11.4486C13.1404 11.4583 13.1652 11.4715 13.2042 11.4923L13.91 10.1688ZM12.7505 11.6516C12.7611 11.4763 12.9444 11.3663 13.1041 11.4394L13.7285 10.0756C12.6108 9.56386 11.3277 10.3337 11.2532 11.5607L12.7505 11.6516ZM15.75 12.2354C15.75 12.2063 15.7501 12.1751 15.7491 12.1445L14.2499 12.1921C14.2498 12.1913 14.2499 12.1925 14.25 12.1995C14.25 12.2072 14.25 12.2174 14.25 12.2354H15.75ZM14.0865 11.9629C14.1023 11.9713 14.1113 11.9761 14.1181 11.9798C14.1243 11.9831 14.1253 11.9838 14.1246 11.9833L14.8722 10.6829C14.8456 10.6676 14.8181 10.6531 14.7924 10.6393L14.0865 11.9629ZM15.7491 12.1445C15.7298 11.5382 15.398 10.9852 14.8722 10.6829L14.1246 11.9833C14.1997 12.0265 14.2471 12.1055 14.2499 12.1921L15.7491 12.1445ZM13.09 13.8314C13.1536 13.8653 13.2176 13.8999 13.2715 13.9246L13.8959 12.5607C13.9 12.5626 13.8973 12.5615 13.8782 12.5515C13.8596 12.5419 13.8348 12.5287 13.7958 12.5079L13.09 13.8314ZM14.25 12.2354C14.25 12.2796 14.25 12.3076 14.2498 12.3286C14.2496 12.3501 14.2493 12.353 14.2495 12.3486L15.7468 12.4394C15.7504 12.3803 15.75 12.3075 15.75 12.2354H14.25ZM13.2715 13.9246C14.3892 14.4363 15.6723 13.6664 15.7468 12.4394L14.2495 12.3486C14.2389 12.5238 14.0556 12.6338 13.8959 12.5607L13.2715 13.9246ZM12.9135 12.0373C12.8977 12.0288 12.8887 12.024 12.8819 12.0203C12.8757 12.017 12.8746 12.0164 12.8754 12.0168L12.1278 13.3172C12.1544 13.3325 12.1819 13.3471 12.2076 13.3608L12.9135 12.0373ZM11.25 11.7648C11.25 11.7939 11.2499 11.8251 11.2509 11.8557L12.7501 11.808C12.7502 11.8089 12.7501 11.8076 12.75 11.8007C12.75 11.7929 12.75 11.7827 12.75 11.7648H11.25ZM12.8754 12.0168C12.8003 11.9736 12.7529 11.8946 12.7501 11.808L11.2509 11.8557C11.2702 12.4619 11.602 13.0149 12.1278 13.3172L12.8754 12.0168Z" fill="#1C274C"/>
</svg>
