<svg width="24" height="24" viewBox="0 0 24 24" fill="none" xmlns="http://www.w3.org/2000/svg">
<path opacity="0.5" d="M4 22.0002H20" stroke="#1C274C" stroke-width="1.5" stroke-linecap="round"/>
<path d="M14.6296 2.92167L13.8881 3.66317L7.07106 10.4802C6.60933 10.9419 6.37846 11.1728 6.17992 11.4273C5.94571 11.7276 5.74491 12.0525 5.58107 12.3963C5.44219 12.6877 5.33894 12.9974 5.13245 13.6169L4.25745 16.2419L4.04356 16.8836C3.94194 17.1884 4.02128 17.5245 4.2485 17.7517C4.47573 17.979 4.81182 18.0583 5.11667 17.9567L5.75834 17.7428L8.38334 16.8678L8.3834 16.8678C9.00284 16.6613 9.31256 16.5581 9.60398 16.4192C9.94775 16.2553 10.2727 16.0545 10.5729 15.8203C10.8275 15.6218 11.0583 15.3909 11.5201 14.9292L11.5201 14.9292L18.3371 8.11219L19.0786 7.37069C20.3071 6.14213 20.3071 4.15023 19.0786 2.92167C17.85 1.6931 15.8581 1.6931 14.6296 2.92167Z" stroke="#1C274C" stroke-width="1.5"/>
<path opacity="0.5" d="M13.8879 3.66333C13.8879 3.66333 13.9806 5.23903 15.3709 6.62934C16.7613 8.01966 18.337 8.11235 18.337 8.11235M5.75821 17.743L4.25732 16.2421" stroke="#1C274C" stroke-width="1.5"/>
</svg>
