<svg width="24" height="24" viewBox="0 0 24 24" fill="none" xmlns="http://www.w3.org/2000/svg">
<path opacity="0.5" d="M16.6522 3.45532C16.6522 3.45532 16.7333 4.83406 17.9499 6.05058C19.1664 7.26711 20.5451 7.34822 20.5451 7.34822M10.1002 15.5878L8.4126 13.9003" stroke="#1C274C" stroke-width="1.5"/>
<path d="M16.652 3.4553L17.3009 2.80649C18.3759 1.7315 20.1188 1.7315 21.1938 2.80649C22.2687 3.88148 22.2687 5.62439 21.1938 6.69938L20.5449 7.3482L14.5801 13.3131C14.1761 13.7171 13.9741 13.9191 13.7513 14.0928C13.4886 14.2977 13.2043 14.4734 12.9035 14.6168C12.6485 14.7383 12.3775 14.8287 11.8354 15.0093L10.1 15.5878L8.97709 15.9621C8.71035 16.051 8.41626 15.9816 8.21744 15.7828C8.01862 15.584 7.9492 15.2899 8.03811 15.0232L8.41242 13.9002L8.99089 12.1648C9.17157 11.6228 9.26191 11.3518 9.38344 11.0968C9.52679 10.796 9.70249 10.5117 9.90743 10.2489C10.0812 10.0262 10.2832 9.82419 10.6872 9.42017L16.652 3.4553Z" stroke="#1C274C" stroke-width="1.5"/>
<path opacity="0.5" d="M22 12.0002C22 17.5231 17.5228 22.0002 12 22.0002C6.47715 22.0002 2 17.5231 2 12.0002C2 6.4774 6.47715 2.00024 12 2.00024" stroke="#1C274C" stroke-width="1.5" stroke-linecap="round"/>
</svg>
