<svg width="24" height="24" viewBox="0 0 24 24" fill="none" xmlns="http://www.w3.org/2000/svg">
<path d="M5.00659 6.93321C5.04956 5.79972 5.70084 4.77436 6.53785 3.93735C7.9308 2.5444 10.1532 2.73156 11.0376 4.31629L11.6866 5.47922C12.2723 6.52871 12.0372 7.90545 11.1147 8.82793M17.067 18.9936C18.2004 18.9506 19.2258 18.2993 20.0628 17.4623C21.4558 16.0694 21.2686 13.8469 19.6839 12.9625L18.5209 12.3135C17.4715 11.7278 16.0947 11.9629 15.1722 12.8854" stroke="#1C274C" stroke-width="1.5"/>
<path opacity="0.5" d="M5.00655 6.93323C4.93421 8.84136 5.41713 12.0819 8.6677 15.3324C11.9183 18.583 15.1588 19.0659 17.0669 18.9936M15.1722 12.8854C15.1722 12.8854 14.0532 14.0043 12.0245 11.9756C9.99578 9.94689 11.1147 8.82794 11.1147 8.82794" stroke="#1C274C" stroke-width="1.5"/>
</svg>
