<svg width="24" height="24" viewBox="0 0 24 24" fill="none" xmlns="http://www.w3.org/2000/svg">
<path d="M2 16.9005C2 15.5911 2 14.9364 2.29472 14.4555C2.45963 14.1864 2.68589 13.9601 2.955 13.7952C3.43594 13.5005 4.09063 13.5005 5.4 13.5005H6.5C8.38562 13.5005 9.32843 13.5005 9.91421 14.0863C10.5 14.6721 10.5 15.6149 10.5 17.5005V18.6005C10.5 19.9099 10.5 20.5645 10.2053 21.0455C10.0404 21.3146 9.81411 21.5409 9.545 21.7058C9.06406 22.0005 8.40937 22.0005 7.1 22.0005C5.13594 22.0005 4.15391 22.0005 3.4325 21.5584C3.02884 21.311 2.68945 20.9717 2.44208 20.568C2 19.8466 2 18.8645 2 16.9005Z" stroke="#1C274C" stroke-width="1.5"/>
<path d="M13.5 5.40049C13.5 4.09112 13.5 3.43643 13.7947 2.95549C13.9596 2.68638 14.1859 2.46012 14.455 2.29521C14.9359 2.00049 15.5906 2.00049 16.9 2.00049C18.8641 2.00049 19.8461 2.00049 20.5675 2.44257C20.9712 2.68993 21.3106 3.02933 21.5579 3.43299C22 4.1544 22 5.13643 22 7.10049C22 8.40986 22 9.06455 21.7053 9.54549C21.5404 9.8146 21.3141 10.0409 21.045 10.2058C20.5641 10.5005 19.9094 10.5005 18.6 10.5005H17.5C15.6144 10.5005 14.6716 10.5005 14.0858 9.9147C13.5 9.32892 13.5 8.38611 13.5 6.50049V5.40049Z" stroke="#1C274C" stroke-width="1.5"/>
<path opacity="0.5" d="M16.5 6.25049C16.5 5.73508 16.5 5.47738 16.6291 5.29542C16.6747 5.23121 16.7307 5.17515 16.7949 5.1296C16.9769 5.00049 17.2346 5.00049 17.75 5.00049C18.2654 5.00049 18.5231 5.00049 18.7051 5.1296C18.7693 5.17515 18.8253 5.23121 18.8709 5.29542C19 5.47738 19 5.73508 19 6.25049C19 6.7659 19 7.0236 18.8709 7.20556C18.8253 7.26976 18.7693 7.32582 18.7051 7.37138C18.5231 7.50049 18.2654 7.50049 17.75 7.50049C17.2346 7.50049 16.9769 7.50049 16.7949 7.37138C16.7307 7.32582 16.6747 7.26976 16.6291 7.20556C16.5 7.0236 16.5 6.7659 16.5 6.25049Z" fill="#1C274C"/>
<path d="M19 13.5005H17C15.5955 13.5005 14.8933 13.5005 14.3889 13.8375C14.1705 13.9835 13.983 14.171 13.8371 14.3893C13.5 14.8938 13.5 15.596 13.5 17.0005" stroke="#1C274C" stroke-width="1.5"/>
<path opacity="0.5" d="M12.75 22.0005C12.75 22.4147 13.0858 22.7505 13.5 22.7505C13.9142 22.7505 14.25 22.4147 14.25 22.0005H12.75ZM12.75 19.0005V22.0005H14.25V19.0005H12.75Z" fill="#1C274C"/>
<path d="M17 22.0005H19C19.9319 22.0005 20.3978 22.0005 20.7654 21.8482C21.2554 21.6453 21.6448 21.2559 21.8478 20.7659C22 20.3983 22 19.9324 22 19.0005" stroke="#1C274C" stroke-width="1.5" stroke-linejoin="round"/>
<path opacity="0.5" d="M22.75 13.5005C22.75 13.0863 22.4142 12.7505 22 12.7505C21.5858 12.7505 21.25 13.0863 21.25 13.5005H22.75ZM22.75 17.0005V13.5005H21.25V17.0005H22.75Z" fill="#1C274C"/>
<path d="M2 7.10049C2 5.13643 2 4.1544 2.44208 3.43299C2.68945 3.02933 3.02884 2.68993 3.4325 2.44257C4.15391 2.00049 5.13594 2.00049 7.1 2.00049C8.40937 2.00049 9.06406 2.00049 9.545 2.29521C9.81411 2.46012 10.0404 2.68638 10.2053 2.95549C10.5 3.43643 10.5 4.09112 10.5 5.40049V6.50049C10.5 8.38611 10.5 9.32892 9.91421 9.9147C9.32843 10.5005 8.38562 10.5005 6.5 10.5005H5.4C4.09063 10.5005 3.43594 10.5005 2.955 10.2058C2.68589 10.0409 2.45963 9.8146 2.29472 9.54549C2 9.06455 2 8.40986 2 7.10049Z" stroke="#1C274C" stroke-width="1.5"/>
<path opacity="0.5" d="M5 6.25049C5 5.73508 5 5.47738 5.12911 5.29542C5.17466 5.23121 5.23072 5.17515 5.29493 5.1296C5.47689 5.00049 5.73459 5.00049 6.25 5.00049C6.76541 5.00049 7.02311 5.00049 7.20507 5.1296C7.26928 5.17515 7.32534 5.23121 7.37089 5.29542C7.5 5.47738 7.5 5.73508 7.5 6.25049C7.5 6.7659 7.5 7.0236 7.37089 7.20556C7.32534 7.26976 7.26928 7.32582 7.20507 7.37138C7.02311 7.50049 6.76541 7.50049 6.25 7.50049C5.73459 7.50049 5.47689 7.50049 5.29493 7.37138C5.23072 7.32582 5.17466 7.26976 5.12911 7.20556C5 7.0236 5 6.7659 5 6.25049Z" fill="#1C274C"/>
<path opacity="0.5" d="M5 17.7505C5 17.2351 5 16.9774 5.12911 16.7954C5.17466 16.7312 5.23072 16.6752 5.29493 16.6296C5.47689 16.5005 5.73459 16.5005 6.25 16.5005C6.76541 16.5005 7.02311 16.5005 7.20507 16.6296C7.26928 16.6752 7.32534 16.7312 7.37089 16.7954C7.5 16.9774 7.5 17.2351 7.5 17.7505C7.5 18.2659 7.5 18.5236 7.37089 18.7056C7.32534 18.7698 7.26928 18.8258 7.20507 18.8714C7.02311 19.0005 6.76541 19.0005 6.25 19.0005C5.73459 19.0005 5.47689 19.0005 5.29493 18.8714C5.23072 18.8258 5.17466 18.7698 5.12911 18.7056C5 18.5236 5 18.2659 5 17.7505Z" fill="#1C274C"/>
<path opacity="0.5" d="M16 17.7505C16 17.0483 16 16.6971 16.1685 16.4449C16.2415 16.3357 16.3352 16.242 16.4444 16.169C16.6967 16.0005 17.0478 16.0005 17.75 16.0005C18.4522 16.0005 18.8033 16.0005 19.0556 16.169C19.1648 16.242 19.2585 16.3357 19.3315 16.4449C19.5 16.6971 19.5 17.0483 19.5 17.7505C19.5 18.4527 19.5 18.8038 19.3315 19.0561C19.2585 19.1652 19.1648 19.259 19.0556 19.332C18.8033 19.5005 18.4522 19.5005 17.75 19.5005C17.0478 19.5005 16.6967 19.5005 16.4444 19.332C16.3352 19.259 16.2415 19.1652 16.1685 19.0561C16 18.8038 16 18.4527 16 17.7505Z" fill="#1C274C"/>
</svg>
