<svg width="24" height="24" viewBox="0 0 24 24" fill="none" xmlns="http://www.w3.org/2000/svg">
<path d="M12 22.0005C10.9808 22.0005 10.62 21.8429 9.89856 21.5278C7.23896 20.366 3 17.6299 3 11.9918V10.4173C3 7.21967 3 5.62088 3.37752 5.08301C3.75503 4.54514 5.25825 4.03045 8.26484 3.00128L8.83765 2.8052C10.4049 2.26873 11.1885 2.00049 11.9999 2.00049" stroke="#1C274C" stroke-width="1.5"/>
<path opacity="0.5" d="M12.0001 22.0005C13.0193 22.0005 13.3801 21.8429 14.1015 21.5278C16.7611 20.366 21.0001 17.6299 21.0001 11.9918V10.4173C21.0001 7.21967 21.0001 5.62088 20.6226 5.08301C20.245 4.54514 18.7417 4.03044 15.7351 3.00128L15.1623 2.80521C13.595 2.26873 12.8114 2.00049 12 2.00049" stroke="#1C274C" stroke-width="1.5"/>
</svg>
