<svg width="24" height="24" viewBox="0 0 24 24" fill="none" xmlns="http://www.w3.org/2000/svg">
<path d="M18.4439 19.1223L18.9742 19.6527V19.6526L18.4439 19.1223ZM10.3042 19.1223L10.8346 18.592L10.3042 19.1223ZM19.1222 10.3044L18.5919 10.8347L19.1222 10.3044ZM19.1222 18.444L18.5919 17.9137L19.1222 18.444ZM22 14.3742H22.75H22ZM5.55611 4.87792L6.08644 5.40825L5.55611 4.87792ZM13.6958 4.87792L14.2261 4.34759V4.34759L13.6958 4.87792ZM9.62593 2.00012V2.75012V2.00012ZM4.8778 5.55623L4.34747 5.0259H4.34747L4.8778 5.55623ZM4.8778 13.6959L4.34747 14.2262H4.34747L4.8778 13.6959ZM2 9.62606H1.25H2ZM5.40813 6.08656L6.08644 5.40825L5.02578 4.34759L4.34747 5.0259L5.40813 6.08656ZM13.1654 5.40825L18.5919 10.8347L19.6525 9.77403L14.2261 4.34759L13.1654 5.40825ZM18.5919 17.9137L17.9136 18.592L18.9742 19.6526L19.6525 18.9743L18.5919 17.9137ZM10.8346 18.592L5.40813 13.1656L4.34747 14.2262L9.77391 19.6526L10.8346 18.592ZM17.9136 18.592C16.9393 19.5662 16.2608 20.2425 15.6816 20.6844C15.1197 21.1131 14.7402 21.2501 14.3741 21.2501V22.7501C15.2 22.7501 15.8961 22.4075 16.5915 21.8769C17.2695 21.3596 18.0299 20.5969 18.9742 19.6527L17.9136 18.592ZM9.77391 19.6526C10.7182 20.5969 11.4786 21.3596 12.1567 21.8769C12.852 22.4075 13.5481 22.7501 14.3741 22.7501V21.2501C14.008 21.2501 13.6285 21.1131 13.0665 20.6844C12.4873 20.2425 11.8088 19.5662 10.8346 18.592L9.77391 19.6526ZM18.5919 10.8347C19.5661 11.809 20.2423 12.4874 20.6843 13.0667C21.113 13.6286 21.25 14.0081 21.25 14.3742H22.75C22.75 13.5483 22.4074 12.8521 21.8768 12.1568C21.3595 11.4787 20.5968 10.7183 19.6525 9.77403L18.5919 10.8347ZM19.6525 18.9743C20.5968 18.0301 21.3595 17.2696 21.8768 16.5916C22.4074 15.8962 22.75 15.2001 22.75 14.3742H21.25C21.25 14.7403 21.113 15.1198 20.6843 15.6817C20.2423 16.261 19.5661 16.9394 18.5919 17.9137L19.6525 18.9743ZM6.08644 5.40825C7.0607 4.43399 7.73917 3.75778 8.3184 3.31584C8.88032 2.88711 9.25984 2.75012 9.62593 2.75012V1.25012C8.8 1.25012 8.10388 1.59277 7.40853 2.12331C6.73048 2.64064 5.97005 3.40332 5.02578 4.34759L6.08644 5.40825ZM14.2261 4.34759C13.2818 3.40332 12.5214 2.64064 11.8433 2.12331C11.148 1.59277 10.4519 1.25012 9.62593 1.25012V2.75012C9.99203 2.75012 10.3715 2.88711 10.9335 3.31584C11.5127 3.75778 12.1912 4.43399 13.1654 5.40825L14.2261 4.34759ZM4.34747 5.0259C3.4032 5.97017 2.64051 6.7306 2.12318 7.40865C1.59265 8.104 1.25 8.80013 1.25 9.62606H2.75C2.75 9.25996 2.88698 8.88044 3.31572 8.31852C3.75765 7.73929 4.43387 7.06082 5.40813 6.08656L4.34747 5.0259ZM5.40813 13.1656C4.43387 12.1913 3.75765 11.5128 3.31572 10.9336C2.88698 10.3717 2.75 9.99215 2.75 9.62606H1.25C1.25 10.452 1.59265 11.1481 2.12318 11.8435C2.64051 12.5215 3.4032 13.2819 4.34747 14.2262L5.40813 13.1656Z" fill="#1C274C"/>
<path opacity="0.5" d="M9.47801 6.08709C9.7709 5.7942 9.7709 5.31933 9.47801 5.02643C9.18511 4.73354 8.71024 4.73354 8.41735 5.02643L9.47801 6.08709ZM5.02582 8.41796C4.73293 8.71085 4.73293 9.18572 5.02582 9.47862C5.31872 9.77151 5.79359 9.77151 6.08648 9.47862L5.02582 8.41796ZM8.41735 5.02643L5.02582 8.41796L6.08648 9.47862L9.47801 6.08709L8.41735 5.02643ZM16.2179 15.2444C16.4869 15.5134 16.4869 15.9496 16.2179 16.2187L17.2786 17.2793C18.1334 16.4245 18.1334 15.0386 17.2786 14.1838L16.2179 15.2444ZM16.2179 16.2187C15.9489 16.4877 15.5127 16.4877 15.2437 16.2187L14.183 17.2793C15.0378 18.1341 16.4238 18.1341 17.2786 17.2793L16.2179 16.2187ZM15.2437 16.2187C14.9746 15.9496 14.9746 15.5134 15.2437 15.2444L14.183 14.1838C13.3282 15.0386 13.3282 16.4245 14.183 17.2793L15.2437 16.2187ZM15.2437 15.2444C15.5127 14.9754 15.9489 14.9754 16.2179 15.2444L17.2786 14.1838C16.4238 13.3289 15.0378 13.3289 14.183 14.1838L15.2437 15.2444Z" fill="#1C274C"/>
<path opacity="0.5" d="M20.5 6.9861L22 8.00012C22 4.98544 19.8377 2.48287 17 2.00012" stroke="#1C274C" stroke-width="1.5" stroke-linecap="round" stroke-linejoin="round"/>
<path d="M3.5 17.0141L2 16.0001C2 19.0148 4.16229 21.5174 7 22.0001" stroke="#1C274C" stroke-width="1.5" stroke-linecap="round" stroke-linejoin="round"/>
</svg>
