<svg width="24" height="24" viewBox="0 0 24 24" fill="none" xmlns="http://www.w3.org/2000/svg">
<path d="M11.5802 4.77604C12.275 3.00516 12.6223 2.11971 13.3488 2.01056C14.0752 1.90141 14.6997 2.64083 15.9485 4.11967L16.2716 4.50226C16.6265 4.9225 16.8039 5.13263 17.0452 5.25261C17.2865 5.37259 17.5642 5.38884 18.1198 5.42135L18.6256 5.45095C20.5805 5.56537 21.558 5.62258 21.8972 6.26168C22.2365 6.90079 21.7128 7.69854 20.6653 9.29403L20.3944 9.7068C20.0967 10.1602 19.9479 10.3869 19.9077 10.6457C19.8675 10.9045 19.9404 11.1662 20.0864 11.6895L20.2192 12.166C20.7327 14.0076 20.9895 14.9284 20.4727 15.4325C19.9559 15.9367 19.0078 15.6903 17.1116 15.1975L16.621 15.07C16.0822 14.93 15.8127 14.86 15.5466 14.8999C15.2805 14.9399 15.0478 15.0854 14.5825 15.3763L14.1588 15.6412C12.5212 16.6649 11.7024 17.1768 11.0438 16.8493C10.3852 16.5217 10.3229 15.5717 10.1984 13.6717L10.1662 13.1801C10.1308 12.6402 10.1131 12.3702 9.98887 12.1361C9.86461 11.902 9.64784 11.7302 9.21431 11.3867L8.81962 11.0739C7.29401 9.86506 6.53121 9.26062 6.64097 8.55405C6.75072 7.84748 7.66035 7.50672 9.4796 6.8252L9.95027 6.64888C10.4672 6.45522 10.7257 6.35839 10.915 6.17371C11.1044 5.98903 11.2031 5.73742 11.4005 5.23419L11.5802 4.77604Z" stroke="#1C274C" stroke-width="1.5" stroke-linecap="round"/>
<path opacity="0.5" d="M6.59527 8.55078C3.48192 10.6857 1.09828 14.7691 2.33125 21.9998C3.42268 18.9857 6.71261 16.5716 10.3877 15.4097" stroke="#1C274C" stroke-width="1.5" stroke-linecap="round" stroke-linejoin="round"/>
</svg>
