<svg width="24" height="24" viewBox="0 0 24 24" fill="none" xmlns="http://www.w3.org/2000/svg">
<path d="M12 14.0005C10.8954 14.0005 10 13.1051 10 12.0005C10 10.8959 10.8954 10.0005 12 10.0005C13.1046 10.0005 14 10.8959 14 12.0005C14 13.1051 13.1046 14.0005 12 14.0005Z" stroke="#1C274C" stroke-width="1.5"/>
<path d="M14 6.00049C12.8954 6.00049 12 5.10506 12 4.00049C12 2.89592 12.8954 2.00049 14 2.00049C15.1046 2.00049 16 2.89592 16 4.00049C16 5.10506 15.1046 6.00049 14 6.00049Z" stroke="#1C274C" stroke-width="1.5"/>
<path d="M10 22.0005C11.1046 22.0005 12 21.1051 12 20.0005C12 18.8959 11.1046 18.0005 10 18.0005C8.89543 18.0005 8 18.8959 8 20.0005C8 21.1051 8.89543 22.0005 10 22.0005Z" stroke="#1C274C" stroke-width="1.5"/>
<path opacity="0.5" d="M12 20.0005H19M19 12.0005H14M19 4.00049H16" stroke="#1C274C" stroke-width="1.5" stroke-linecap="round"/>
<path opacity="0.5" d="M12 4.00049L5 4.00049M10 12.0005H5M5 20.0005H7.66667" stroke="#1C274C" stroke-width="1.5" stroke-linecap="round"/>
</svg>
