<svg width="24" height="24" viewBox="0 0 24 24" fill="none" xmlns="http://www.w3.org/2000/svg">
<path d="M9.5 14.0005C11.1569 14.0005 12.5 15.3436 12.5 17.0005C12.5 18.6573 11.1569 20.0005 9.5 20.0005C7.84315 20.0005 6.5 18.6573 6.5 17.0005C6.5 15.3436 7.84315 14.0005 9.5 14.0005Z" stroke="#1C274C" stroke-width="1.5"/>
<path d="M14.5 4.00046C12.8431 4.00046 11.5 5.34361 11.5 7.00046C11.5 8.65732 12.8431 10.0005 14.5 10.0005C16.1569 10.0005 17.5 8.65732 17.5 7.00046C17.5 5.34361 16.1569 4.00046 14.5 4.00046Z" stroke="#1C274C" stroke-width="1.5"/>
<path opacity="0.5" d="M13 17.0005L22 17.0005" stroke="#1C274C" stroke-width="1.5" stroke-linecap="round"/>
<path opacity="0.5" d="M11 7.00049L2 6.95898" stroke="#1C274C" stroke-width="1.5" stroke-linecap="round"/>
<path opacity="0.5" d="M2 17.0005L6 17.0005" stroke="#1C274C" stroke-width="1.5" stroke-linecap="round"/>
<path opacity="0.5" d="M22 7.00049L18 7.00049" stroke="#1C274C" stroke-width="1.5" stroke-linecap="round"/>
</svg>
