<svg width="24" height="24" viewBox="0 0 24 24" fill="none" xmlns="http://www.w3.org/2000/svg">
<path d="M19.8159 12.2361C22.3733 9.67879 22.7721 5.67515 20.5485 3.45167C18.3249 1.22818 14.3211 1.62685 11.7637 4.1842C9.20626 6.74155 7.85707 11.6957 10.0806 13.9192C12.3042 16.1427 17.2585 14.7935 19.8159 12.2361Z" stroke="#1C274C" stroke-width="1.5"/>
<path opacity="0.5" d="M12.8991 15.1271L6.85994 21.1661C5.74816 22.2778 3.94561 22.2778 2.83383 21.1661C1.72206 20.0543 1.72206 18.2518 2.83383 17.1401L8.87299 11.1011" stroke="#1C274C" stroke-width="1.5"/>
<path opacity="0.5" d="M20.5485 3.4515C21.7566 4.65957 19.0985 8.12285 17.3279 9.89333C15.5574 11.6638 11.2888 15.1271 10.0807 13.919C8.87255 12.711 12.3365 8.44303 14.107 6.67255C15.8776 4.90208 19.3404 2.24343 20.5485 3.4515Z" stroke="#1C274C" stroke-width="1.5"/>
</svg>
