<svg width="24" height="24" viewBox="0 0 24 24" fill="none" xmlns="http://www.w3.org/2000/svg">
<path d="M3.33946 17.0002C6.10089 21.7831 12.2168 23.4219 16.9997 20.6605C18.9493 19.5349 20.3765 17.8519 21.1962 15.929C22.3875 13.1346 22.2958 9.83352 20.66 7.00021C19.0242 4.16689 16.2112 2.43691 13.1955 2.07137C11.1204 1.81984 8.94932 2.21434 6.99972 3.33995C2.21679 6.10137 0.578039 12.2173 3.33946 17.0002Z" stroke="#1C274C" stroke-width="1.5"/>
<path opacity="0.5" d="M16.9497 20.5737C16.9497 20.5737 16.0107 13.9826 14.0004 10.5005C11.99 7.01852 7.05018 3.4273 7.05018 3.4273M7.57711 20.818C9.05874 16.3482 16.4525 11.3936 21.8635 12.5806M16.4139 3.20947C14.926 7.63053 7.67424 12.5128 2.28857 11.4521" stroke="#1C274C" stroke-width="1.5" stroke-linecap="round"/>
</svg>
