<svg width="24" height="24" viewBox="0 0 24 24" fill="none" xmlns="http://www.w3.org/2000/svg">
<path d="M4 8.00061C4 5.17218 4 3.75797 4.87868 2.87929C5.75736 2.00061 7.17157 2.00061 10 2.00061H14C16.8284 2.00061 18.2426 2.00061 19.1213 2.87929C20 3.75797 20 5.17218 20 8.00061V16.0006C20 18.829 20 20.2433 19.1213 21.1219C18.2426 22.0006 16.8284 22.0006 14 22.0006H10C7.17157 22.0006 5.75736 22.0006 4.87868 21.1219C4 20.2433 4 18.829 4 16.0006V8.00061Z" stroke="#1C274C" stroke-width="1.5"/>
<path opacity="0.5" d="M6.12132 16.1028L5.92721 15.3784L6.12132 16.1028ZM3.27556 18.03C3.16835 18.4301 3.40579 18.8414 3.80589 18.9486C4.20599 19.0558 4.61724 18.8184 4.72444 18.4183L3.27556 18.03ZM6.25 16.0006C6.25 16.4148 6.58579 16.7506 7 16.7506C7.41421 16.7506 7.75 16.4148 7.75 16.0006H6.25ZM7.75 2.50061C7.75 2.0864 7.41421 1.75061 7 1.75061C6.58579 1.75061 6.25 2.0864 6.25 2.50061H7.75ZM7.89778 16.7506H19.8978V15.2506H7.89778V16.7506ZM7.89778 15.2506C7.01609 15.2506 6.42812 15.2442 5.92721 15.3784L6.31543 16.8273C6.57752 16.7571 6.91952 16.7506 7.89778 16.7506V15.2506ZM5.92721 15.3784C4.63311 15.7251 3.62231 16.7359 3.27556 18.03L4.72444 18.4183C4.9325 17.6418 5.53898 17.0353 6.31543 16.8273L5.92721 15.3784ZM7.75 16.0006V2.50061H6.25V16.0006H7.75Z" fill="#1C274C"/>
</svg>
