<svg width="24" height="24" viewBox="0 0 24 24" fill="none" xmlns="http://www.w3.org/2000/svg">
<path opacity="0.5" d="M18.6667 12.0005C20.5513 11.7218 22 10.0462 22 8.02085C22 5.80046 20.2589 4.00049 18.1111 4.00049H5.88889C3.74112 4.00049 2 5.80046 2 8.02085C2 10.0462 3.44873 11.7218 5.33333 12.0005" stroke="#1C274C" stroke-width="1.5"/>
<path d="M12 7.00049V14.0005M12 14.0005L14 11.6672M12 14.0005L10 11.6672" stroke="#1C274C" stroke-width="1.5" stroke-linecap="round" stroke-linejoin="round"/>
<path d="M5 11.0005C5 9.11487 5 8.17206 5.58579 7.58627C6.17157 7.00049 7.11438 7.00049 9 7.00049H15C16.8856 7.00049 17.8284 7.00049 18.4142 7.58627C19 8.17206 19 9.11487 19 11.0005V17.0005C19 18.8861 19 19.8289 18.4142 20.4147C17.8284 21.0005 16.8856 21.0005 15 21.0005H9C7.11438 21.0005 6.17157 21.0005 5.58579 20.4147C5 19.8289 5 18.8861 5 17.0005V11.0005Z" stroke="#1C274C" stroke-width="1.5"/>
<path opacity="0.5" d="M5 18.0005H19" stroke="#1C274C" stroke-width="1.5" stroke-linecap="round" stroke-linejoin="round"/>
</svg>
