<svg width="24" height="24" viewBox="0 0 24 24" fill="none" xmlns="http://www.w3.org/2000/svg">
<path d="M18.2611 13.4824L17.7308 14.0127L18.2611 13.4824ZM10.5177 5.73897L11.0481 5.20864L11.0481 5.20864L10.5177 5.73897ZM13.6151 2.64161L14.1454 2.11128V2.11128L13.6151 2.64161ZM21.3585 10.385L20.8282 10.9153L21.3585 10.385ZM21.8888 9.85468L14.1454 2.11128L13.0848 3.17194L20.8282 10.9153L21.8888 9.85468ZM9.98741 6.2693L17.7308 14.0127L18.7915 12.952L11.0481 5.20864L9.98741 6.2693ZM17.7308 14.0127C18.879 15.1609 20.7406 15.1609 21.8888 14.0127L20.8282 12.952C20.2658 13.5145 19.3539 13.5145 18.7915 12.952L17.7308 14.0127ZM9.98741 2.11128C8.8392 3.25948 8.8392 5.12109 9.98741 6.2693L11.0481 5.20864C10.4856 4.64622 10.4856 3.73436 11.0481 3.17194L9.98741 2.11128ZM14.1454 2.11128C12.9972 0.963071 11.1356 0.963071 9.98741 2.11128L11.0481 3.17194C11.6105 2.60952 12.5223 2.60952 13.0848 3.17194L14.1454 2.11128ZM20.8282 10.9153C21.3906 11.4778 21.3906 12.3896 20.8282 12.952L21.8888 14.0127C23.037 12.8645 23.037 11.0029 21.8888 9.85468L20.8282 10.9153Z" fill="#1C274C"/>
<path opacity="0.5" d="M1.46967 21.4696C1.17678 21.7625 1.17678 22.2374 1.46967 22.5303C1.76256 22.8231 2.23744 22.8231 2.53033 22.5303L1.46967 21.4696ZM4.55227 19.4477L4.02194 18.9173L4.55227 19.4477ZM4.767 18.2051L4.08919 18.5262H4.08919L4.767 18.2051ZM3.81775 16.2011L3.13994 16.5222L3.13994 16.5222L3.81775 16.2011ZM4.60611 15.5045L4.20405 16.1377L4.20405 16.1377L4.60611 15.5045ZM11.3132 19.7638L11.7153 19.1307H11.7152L11.3132 19.7638ZM12.0559 18.9885L11.4406 19.4173L12.0559 18.9885ZM6.46344 10.9645L5.84814 11.3933L5.84814 11.3933L6.46344 10.9645ZM7.22572 10.2022L7.65457 9.58691V9.58691L7.22572 10.2022ZM12.7735 14.0688L12.3446 14.6841L12.7735 14.0688ZM13.5529 13.3327L12.9141 13.7257L12.9141 13.7257L13.5529 13.3327ZM12.9069 12.283L13.5457 11.8899L13.5457 11.8899L12.9069 12.283ZM14.9198 10.1408C15.2127 9.84791 15.2127 9.37304 14.9198 9.08014C14.6269 8.78725 14.152 8.78725 13.8591 9.08014L14.9198 10.1408ZM2.53033 22.5303L5.0826 19.978L4.02194 18.9173L1.46967 21.4696L2.53033 22.5303ZM5.4448 17.8841L4.49555 15.8801L3.13994 16.5222L4.08919 18.5262L5.4448 17.8841ZM4.20405 16.1377L10.9111 20.3969L11.7152 19.1307L5.00816 14.8714L4.20405 16.1377ZM12.6712 18.5596L7.07874 10.5357L5.84814 11.3933L11.4406 19.4173L12.6712 18.5596ZM6.79688 10.8175L12.3446 14.6841L13.2023 13.4535L7.65457 9.58691L6.79688 10.8175ZM14.1916 12.9396L13.5457 11.8899L12.2682 12.676L12.9141 13.7257L14.1916 12.9396ZM13.5955 11.465L14.9198 10.1408L13.8591 9.08014L12.5349 10.4044L13.5955 11.465ZM13.5457 11.8899C13.4619 11.7538 13.4826 11.578 13.5955 11.465L12.5349 10.4044C11.9307 11.0085 11.8204 11.9484 12.2682 12.676L13.5457 11.8899ZM12.3446 14.6841C13.499 15.4887 14.929 14.1379 14.1916 12.9396L12.9141 13.7257C12.8971 13.6981 12.8811 13.6439 12.8917 13.5821C12.9007 13.529 12.9252 13.4936 12.9475 13.4724C12.9699 13.4513 13.0067 13.4289 13.0602 13.4229C13.1226 13.4158 13.1757 13.435 13.2023 13.4535L12.3446 14.6841ZM7.07874 10.5357C7.0968 10.5616 7.11677 10.6164 7.10832 10.6814C7.10113 10.7367 7.07711 10.7733 7.0558 10.7946C7.03449 10.8159 6.99789 10.8399 6.94266 10.8471C6.87765 10.8555 6.82279 10.8356 6.79688 10.8175L7.65457 9.58691C6.46624 8.75868 5.01991 10.205 5.84814 11.3933L7.07874 10.5357ZM10.9111 20.3969C12.1075 21.1566 13.4816 19.7223 12.6712 18.5596L11.4406 19.4173C11.4222 19.3909 11.4028 19.3373 11.4102 19.2743C11.4166 19.2204 11.4393 19.1836 11.4605 19.1615C11.4817 19.1394 11.5174 19.1151 11.5711 19.1064C11.6337 19.0963 11.688 19.1134 11.7153 19.1307L10.9111 20.3969ZM4.49555 15.8801C4.51012 15.9108 4.51904 15.9618 4.50603 16.0161C4.49456 16.0641 4.47046 16.0974 4.44664 16.1185C4.42281 16.1395 4.38677 16.1593 4.33777 16.1648C4.28222 16.171 4.23278 16.1559 4.20405 16.1377L5.00816 14.8714C3.91 14.174 2.58305 15.3465 3.13994 16.5222L4.49555 15.8801ZM5.0826 19.978C5.63444 19.4261 5.77831 18.5881 5.4448 17.8841L4.08919 18.5262C4.15191 18.6586 4.12458 18.8147 4.02194 18.9173L5.0826 19.978Z" fill="#1C274C"/>
<path opacity="0.5" d="M22.0002 12.0002C22.0002 13.1877 21.0376 14.1502 19.8502 14.1502C18.6628 14.1502 17.7002 13.1877 17.7002 12.0002C17.7002 10.8128 18.6628 9.85024 19.8502 9.85024C21.0376 9.85024 22.0002 10.8128 22.0002 12.0002Z" stroke="#1C274C" stroke-width="1.5"/>
</svg>
