<svg width="24" height="24" viewBox="0 0 24 24" fill="none" xmlns="http://www.w3.org/2000/svg">
<path d="M15.3588 21.7513C17.3819 21.1218 20 19.2548 20 15.0004C20 10.3785 14.9439 5.41424 11.5727 2.84618C11.0161 2.42214 10.2157 2.72748 9.95605 3.37727C8.31029 7.49518 4 11.8539 4 15.0004C4 18.1072 6.24558 20.3092 8.08142 21.3719" stroke="#1C274C" stroke-width="1.5"/>
<path opacity="0.5" d="M15.3588 21.7513C14.9274 21.8856 14.6438 21.3826 14.9019 21.0118C15.7823 19.7466 16.8001 17.8167 16.8001 16.0008C16.8001 14.0502 15.156 11.7473 13.8722 10.3269C13.5787 10.0022 13.0667 10.217 13.0507 10.6545C12.9977 12.1037 12.769 14.0426 11.7829 15.5621C11.6242 15.8067 11.2872 15.827 11.1064 15.5983C10.7983 15.2086 10.4901 14.7273 10.182 14.347C10.0161 14.1422 9.71611 14.1393 9.52467 14.3206C8.77832 15.0273 7.7334 16.1294 7.7334 17.5008C7.7334 18.49 8.20479 19.7209 8.69077 20.6744C8.91147 21.1074 8.50204 21.6154 8.08142 21.3719" stroke="#1C274C" stroke-width="1.5"/>
</svg>
