<svg width="24" height="24" viewBox="0 0 24 24" fill="none" xmlns="http://www.w3.org/2000/svg">
<path opacity="0.5" d="M20.1848 17.7505C20.599 17.7505 20.9348 17.4147 20.9348 17.0005C20.9348 16.5863 20.599 16.2505 20.1848 16.2505V17.7505ZM14.7793 19.7356L14.0677 19.4987L14.7793 19.7356ZM13.4801 21.2636C13.3493 21.6566 13.5618 22.0812 13.9548 22.2121C14.3478 22.3429 14.7725 22.1304 14.9033 21.7374L13.4801 21.2636ZM3.99774 16.2505C3.58352 16.2505 3.24774 16.5863 3.24774 17.0005C3.24774 17.4147 3.58352 17.7505 3.99774 17.7505V16.2505ZM9.40319 19.7356L10.1148 19.4987H10.1148L9.40319 19.7356ZM9.27922 21.7374C9.41007 22.1304 9.83473 22.3429 10.2277 22.2121C10.6207 22.0812 10.8333 21.6566 10.7024 21.2636L9.27922 21.7374ZM8.22076 17.378L7.78189 17.9862L8.22076 17.378ZM5.55604 5.4599C5.44895 5.05977 5.03777 4.82222 4.63764 4.92931C4.23751 5.0364 3.99995 5.44758 4.10704 5.84771L5.55604 5.4599ZM5.24956 7.21567L4.52506 7.40958V7.40958L5.24956 7.21567ZM3.59173 11.589L3.17816 10.9633H3.17816L3.59173 11.589ZM1.62744 11.9884C1.2819 12.2168 1.18694 12.6821 1.41535 13.0276C1.64376 13.3732 2.10905 13.4681 2.45459 13.2397L1.62744 11.9884ZM19.934 5.84781C20.0411 5.44768 19.8036 5.03649 19.4034 4.9294C19.0033 4.82231 18.5921 5.05987 18.485 5.46L19.934 5.84781ZM18.7915 7.21577L18.067 7.02186L18.7915 7.21577ZM20.4493 11.5891L20.0358 12.2148L20.4493 11.5891ZM21.5865 13.2398C21.932 13.4682 22.3973 13.3733 22.6257 13.0277C22.8541 12.6822 22.7592 12.2169 22.4136 11.9885L21.5865 13.2398ZM16.0903 3.83672C16.4288 3.59799 16.5097 3.13005 16.2709 2.79156C16.0322 2.45306 15.5643 2.37219 15.2258 2.61092L16.0903 3.83672ZM14.3377 4.15505L14.7699 4.76795V4.76795L14.3377 4.15505ZM9.66567 4.10451L9.22025 4.70793V4.70793L9.66567 4.10451ZM8.61543 2.39708C8.28218 2.15108 7.8126 2.22182 7.56661 2.55507C7.32061 2.88833 7.39135 3.35791 7.72461 3.6039L8.61543 2.39708ZM14.4924 10.6753C14.1097 10.8338 13.9279 11.2725 14.0864 11.6552C14.2449 12.0379 14.6836 12.2197 15.0663 12.0612L14.4924 10.6753ZM11.2385 9.2589C11.2385 9.67311 11.5743 10.0089 11.9885 10.0089C12.4027 10.0089 12.7385 9.67311 12.7385 9.2589H11.2385ZM14.2886 14.2959C14.0177 13.9826 13.5441 13.9482 13.2307 14.2191C12.9174 14.49 12.883 14.9636 13.1539 15.277L14.2886 14.2959ZM10.8456 15.2496C11.1015 14.9239 11.0447 14.4524 10.719 14.1966C10.3932 13.9408 9.9217 13.9975 9.66589 14.3233L10.8456 15.2496ZM8.90641 12.0594C9.28811 12.2202 9.72794 12.0412 9.8888 11.6595C10.0497 11.2778 9.87064 10.838 9.48893 10.6771L8.90641 12.0594ZM20.1848 16.2505H18.5697V17.7505H20.1848V16.2505ZM14.0677 19.4987L13.4801 21.2636L14.9033 21.7374L15.4909 19.9725L14.0677 19.4987ZM18.5697 16.2505C17.8921 16.2505 17.3208 16.2494 16.8556 16.3025C16.3711 16.3579 15.9265 16.4786 15.5229 16.7698L16.4006 17.9862C16.5202 17.8999 16.6846 17.8318 17.0259 17.7928C17.3864 17.7516 17.8575 17.7505 18.5697 17.7505V16.2505ZM15.4909 19.9725C15.7161 19.2961 15.8662 18.8489 16.0193 18.5194C16.1643 18.2074 16.281 18.0725 16.4006 17.9862L15.5229 16.7698C15.1194 17.061 14.8646 17.4449 14.659 17.8873C14.4616 18.3122 14.282 18.855 14.0677 19.4987L15.4909 19.9725ZM3.99774 17.7505H5.61283V16.2505H3.99774V17.7505ZM8.69159 19.9725L9.27922 21.7374L10.7024 21.2636L10.1148 19.4987L8.69159 19.9725ZM5.61283 17.7505C6.32505 17.7505 6.79615 17.7516 7.15663 17.7928C7.49788 17.8318 7.66233 17.8999 7.78189 17.9862L8.65963 16.7698C8.25602 16.4786 7.81142 16.3579 7.32697 16.3025C6.86173 16.2494 6.29046 16.2505 5.61283 16.2505V17.7505ZM10.1148 19.4987C9.90048 18.855 9.72095 18.3122 9.5235 17.8873C9.31795 17.4449 9.06316 17.061 8.65963 16.7698L7.78189 17.9862C7.90153 18.0725 8.0182 18.2074 8.16319 18.5194C8.31629 18.8489 8.46639 19.2961 8.69159 19.9725L10.1148 19.4987ZM4.10704 5.84771L4.52506 7.40958L5.97406 7.02177L5.55604 5.4599L4.10704 5.84771ZM3.17816 10.9633L1.62744 11.9884L2.45459 13.2397L4.00531 12.2147L3.17816 10.9633ZM4.52506 7.40958C4.70938 8.09826 4.83026 8.5543 4.88383 8.91372C4.93456 9.25411 4.91145 9.43118 4.85901 9.56951L6.26161 10.1012C6.438 9.6359 6.43936 9.17514 6.36744 8.6926C6.29836 8.22911 6.14946 7.67712 5.97406 7.02177L4.52506 7.40958ZM4.00531 12.2147C4.57081 11.8409 5.04812 11.5267 5.40705 11.2257C5.78079 10.9123 6.0852 10.5666 6.26161 10.1012L4.85901 9.56951C4.80659 9.70778 4.70664 9.85549 4.44325 10.0763C4.16506 10.3096 3.77249 10.5705 3.17816 10.9633L4.00531 12.2147ZM18.485 5.46L18.067 7.02186L19.516 7.40967L19.934 5.84781L18.485 5.46ZM20.0358 12.2148L21.5865 13.2398L22.4136 11.9885L20.8629 10.9634L20.0358 12.2148ZM18.067 7.02186C17.8916 7.67721 17.7427 8.2292 17.6736 8.69269C17.6017 9.17523 17.6031 9.63599 17.7795 10.1013L19.1821 9.5696C19.1296 9.43127 19.1065 9.25421 19.1572 8.91382C19.2108 8.55439 19.3317 8.09835 19.516 7.40967L18.067 7.02186ZM20.8629 10.9634C20.2686 10.5706 19.876 10.3097 19.5978 10.0764C19.3344 9.85558 19.2345 9.70787 19.1821 9.5696L17.7795 10.1013C17.9559 10.5667 18.2603 10.9124 18.634 11.2258C18.9929 11.5268 19.4703 11.8409 20.0358 12.2148L20.8629 10.9634ZM15.2258 2.61092L13.9054 3.54215L14.7699 4.76795L16.0903 3.83672L15.2258 2.61092ZM10.1111 3.5011L8.61543 2.39708L7.72461 3.6039L9.22025 4.70793L10.1111 3.5011ZM13.9054 3.54215C13.3232 3.95279 12.9373 4.22352 12.6189 4.3977C12.3174 4.56262 12.1438 4.60173 11.9966 4.60014L11.9804 6.10005C12.478 6.10544 12.9109 5.9477 13.3388 5.71369C13.7496 5.48894 14.216 5.15866 14.7699 4.76795L13.9054 3.54215ZM9.22025 4.70793C9.76567 5.11053 10.2248 5.45082 10.6307 5.6844C11.0533 5.9276 11.4827 6.09467 11.9804 6.10005L11.9966 4.60014C11.8494 4.59855 11.6767 4.55569 11.3788 4.38428C11.0642 4.20325 10.6843 3.92424 10.1111 3.5011L9.22025 4.70793ZM18.1938 9.14251L14.4924 10.6753L15.0663 12.0612L18.7677 10.5284L18.1938 9.14251ZM12.7385 9.2589V5.3501H11.2385V9.2589H12.7385ZM16.5291 16.8875L14.2886 14.2959L13.1539 15.277L15.3944 17.8685L16.5291 16.8875ZM8.81063 17.8412L10.8456 15.2496L9.66589 14.3233L7.63089 16.9148L8.81063 17.8412ZM9.48893 10.6771L5.85157 9.14422L5.26905 10.5265L8.90641 12.0594L9.48893 10.6771Z" fill="#1C274C"/>
<path d="M9.19766 11.9591L9.9143 11.7379H9.9143L9.19766 11.9591ZM9.54562 10.8692L9.08999 10.2735L9.08999 10.2735L9.54562 10.8692ZM9.919 14.2961L9.20236 14.5173H9.20236L9.919 14.2961ZM14.058 14.2961L13.3413 14.0749L14.058 14.2961ZM14.4314 10.8692L13.9757 11.465H13.9757L14.4314 10.8692ZM14.7793 11.9591L15.496 12.1803V12.1803L14.7793 11.9591ZM12.5949 9.46462L13.0505 8.86889V8.86889L12.5949 9.46462ZM11.3821 9.46462L11.8378 10.0604L11.8378 10.0604L11.3821 9.46462ZM14.7793 11.3686L14.0627 11.5898L14.7793 11.3686ZM13.7212 14.7868L14.1852 15.3761L13.7212 14.7868ZM10.2558 14.7868L9.79176 15.3761L10.2558 14.7868ZM9.19766 11.3686L9.91429 11.5898L9.19766 11.3686ZM12.1392 10.0604L13.9757 11.465L14.887 10.2735L13.0505 8.86889L12.1392 10.0604ZM14.0627 11.7379L13.3413 14.0749L14.7746 14.5173L15.496 12.1803L14.0627 11.7379ZM13.1037 14.2509H10.8733V15.7509H13.1037V14.2509ZM10.6356 14.0749L9.9143 11.7379L8.48102 12.1803L9.20236 14.5173L10.6356 14.0749ZM10.0012 11.465L11.8378 10.0604L10.9265 8.86889L9.08999 10.2735L10.0012 11.465ZM13.9757 11.465C14.0179 11.4972 14.0475 11.5408 14.0627 11.5898L15.496 11.1474C15.3912 10.8079 15.1828 10.4997 14.887 10.2735L13.9757 11.465ZM14.0627 11.5898C14.0773 11.6373 14.078 11.6884 14.0627 11.7379L15.496 12.1803C15.6023 11.8358 15.5975 11.4762 15.496 11.1474L14.0627 11.5898ZM13.0505 8.86889C12.7372 8.62925 12.3624 8.50928 11.9885 8.50928V10.0093C12.042 10.0093 12.0946 10.0262 12.1392 10.0604L13.0505 8.86889ZM11.9885 8.50928C11.6146 8.50928 11.2398 8.62925 10.9265 8.86889L11.8378 10.0604C11.8824 10.0262 11.935 10.0093 11.9885 10.0093V8.50928ZM13.3413 14.0749C13.3259 14.125 13.2963 14.1669 13.2572 14.1976L14.1852 15.3761C14.4575 15.1617 14.6671 14.8655 14.7746 14.5173L13.3413 14.0749ZM13.2572 14.1976C13.214 14.2316 13.1607 14.2509 13.1037 14.2509V15.7509C13.5064 15.7509 13.8847 15.6127 14.1852 15.3761L13.2572 14.1976ZM10.8733 14.2509C10.8163 14.2509 10.763 14.2316 10.7197 14.1976L9.79176 15.3761C10.0923 15.6127 10.4706 15.7509 10.8733 15.7509V14.2509ZM10.7197 14.1976C10.6807 14.1669 10.6511 14.125 10.6356 14.0749L9.20236 14.5173C9.30983 14.8655 9.51947 15.1617 9.79176 15.3761L10.7197 14.1976ZM9.9143 11.7379C9.89903 11.6884 9.89965 11.6373 9.91429 11.5898L8.48102 11.1474C8.37953 11.4762 8.37469 11.8358 8.48102 12.1803L9.9143 11.7379ZM9.91429 11.5898C9.92943 11.5408 9.95909 11.4972 10.0012 11.465L9.08999 10.2735C8.79415 10.4997 8.58583 10.8079 8.48102 11.1474L9.91429 11.5898Z" fill="#1C274C"/>
<path d="M21.2269 12.0005C21.2269 17.1099 17.0899 21.2505 11.9885 21.2505V22.7505C17.92 22.7505 22.7269 17.9367 22.7269 12.0005H21.2269ZM11.9885 21.2505C6.88701 21.2505 2.75 17.1099 2.75 12.0005H1.25C1.25 17.9367 6.05695 22.7505 11.9885 22.7505V21.2505ZM2.75 12.0005C2.75 6.89104 6.88701 2.75049 11.9885 2.75049V1.25049C6.05695 1.25049 1.25 6.06424 1.25 12.0005H2.75ZM11.9885 2.75049C17.0899 2.75049 21.2269 6.89104 21.2269 12.0005H22.7269C22.7269 6.06424 17.92 1.25049 11.9885 1.25049V2.75049Z" fill="#1C274C"/>
</svg>
