<svg width="24" height="24" viewBox="0 0 24 24" fill="none" xmlns="http://www.w3.org/2000/svg">
<path d="M8.10684 17.4176L15.4867 10.3514C15.9347 9.92239 16.1588 9.70788 16.2759 9.47509C16.4856 9.05814 16.4856 8.57244 16.2759 8.15549C16.1588 7.9227 15.9347 7.70819 15.4867 7.27916M3.50781 10.1466L9.49724 4.41173C10.5416 3.41174 11.0638 2.91175 11.607 2.61144C13.0812 1.79651 14.8974 1.79651 16.3716 2.61144C16.9148 2.91175 17.437 3.41174 18.4814 4.41173" stroke="#1C274C" stroke-width="1.5" stroke-linecap="round"/>
<path opacity="0.5" d="M18.4815 13.0147L17.9628 12.4729L18.4815 13.0147ZM11.0482 20.132L10.5295 19.5903L11.0482 20.132ZM4.95178 14.2948L4.43308 13.753L4.95178 14.2948ZM12.2781 7.27979L11.7594 6.73807L12.2781 7.27979ZM14.5715 6.52415L14.2575 7.20523L14.2575 7.20523L14.5715 6.52415ZM13.1934 6.52415L12.8793 5.84307L13.1934 6.52415ZM4.95178 20.132L4.43308 20.6738L4.95178 20.132ZM3.11183 17.9423L3.82747 17.7179L3.82747 17.7179L3.11183 17.9423ZM3.11183 16.4845L2.3962 16.2601L3.11183 16.4845ZM8.76124 21.8938L8.96849 22.6146H8.96849L8.76124 21.8938ZM7.2387 21.8938L7.44595 21.173L7.44595 21.173L7.2387 21.8938ZM19.0002 3.87064C18.701 3.58417 18.2262 3.59448 17.9398 3.89366C17.6533 4.19284 17.6636 4.6676 17.9628 4.95407L19.0002 3.87064ZM20.3617 6.43248L21.0039 6.0452V6.0452L20.3617 6.43248ZM20.3617 10.9945L21.0039 11.3818L20.3617 10.9945ZM17.9628 12.4729L10.5295 19.5903L11.5669 20.6738L19.0002 13.5564L17.9628 12.4729ZM5.47047 14.8365L12.7968 7.82151L11.7594 6.73807L4.43308 13.753L5.47047 14.8365ZM16.0055 6.73807C15.6012 6.35103 15.2712 6.02088 14.8856 5.84307L14.2575 7.20523C14.3581 7.25162 14.4761 7.35049 14.9681 7.82151L16.0055 6.73807ZM12.7968 7.82151C13.2887 7.35049 13.4068 7.25162 13.5074 7.20523L12.8793 5.84307C12.4937 6.02088 12.1637 6.35103 11.7594 6.73807L12.7968 7.82151ZM14.8856 5.84307C14.2508 5.55038 13.5141 5.55038 12.8793 5.84307L13.5074 7.20523C13.7436 7.09633 14.0213 7.09633 14.2575 7.20523L14.8856 5.84307ZM5.47047 19.5903C4.91163 19.0552 4.52727 18.6863 4.2548 18.3766C3.98794 18.0733 3.87862 17.881 3.82747 17.7179L2.3962 18.1668C2.53687 18.6153 2.79815 18.9918 3.12862 19.3674C3.45347 19.7367 3.89317 20.1568 4.43308 20.6738L5.47047 19.5903ZM4.43308 13.753C3.89317 14.27 3.45347 14.6901 3.12862 15.0594C2.79815 15.435 2.53687 15.8115 2.3962 16.2601L3.82747 16.7089C3.87862 16.5458 3.98794 16.3535 4.2548 16.0502C4.52727 15.7405 4.91163 15.3716 5.47047 14.8365L4.43308 13.753ZM3.82747 17.7179C3.72418 17.3885 3.72418 17.0383 3.82747 16.7089L2.3962 16.2601C2.20127 16.8816 2.20127 17.5452 2.3962 18.1668L3.82747 17.7179ZM10.5295 19.5903C9.97082 20.1252 9.58528 20.4935 9.26135 20.7548C8.94539 21.0096 8.7384 21.12 8.55399 21.173L8.96849 22.6146C9.42288 22.4839 9.80998 22.2394 10.2031 21.9223C10.5882 21.6117 11.0268 21.1909 11.5669 20.6738L10.5295 19.5903ZM4.43308 20.6738C4.97318 21.1909 5.41171 21.6117 5.79685 21.9223C6.18996 22.2394 6.57706 22.4839 7.03145 22.6146L7.44595 21.173C7.26154 21.12 7.05455 21.0096 6.73859 20.7548C6.41466 20.4935 6.02912 20.1252 5.47047 19.5903L4.43308 20.6738ZM8.55399 21.173C8.19285 21.2768 7.80709 21.2768 7.44595 21.173L7.03145 22.6146C7.66343 22.7963 8.3365 22.7963 8.96849 22.6146L8.55399 21.173ZM17.9628 4.95407C19.0429 5.98829 19.4703 6.40672 19.7194 6.81975L21.0039 6.0452C20.6257 5.41795 20.0088 4.83639 19.0002 3.87064L17.9628 4.95407ZM19.0002 13.5564C20.0088 12.5906 20.6257 12.0091 21.0039 11.3818L19.7194 10.6073C19.4703 11.0203 19.0429 11.4387 17.9628 12.4729L19.0002 13.5564ZM19.7194 6.81975C20.4269 7.99305 20.4269 9.43396 19.7194 10.6073L21.0039 11.3818C21.9987 9.7321 21.9987 7.69491 21.0039 6.0452L19.7194 6.81975Z" fill="#1C274C"/>
</svg>
