<svg width="24" height="24" viewBox="0 0 24 24" fill="none" xmlns="http://www.w3.org/2000/svg">
<path d="M12 12.0002L5.00194 6.33613C4.57282 5.98881 3.93866 6.05249 3.63596 6.51417C3.06675 7.3823 2.6241 8.35456 2.34075 9.41203C0.911334 14.7467 4.07716 20.2301 9.41182 21.6595C14.7465 23.0889 20.2298 19.9231 21.6593 14.5884C23.0887 9.25375 19.9229 3.77038 14.5882 2.34097C11.9556 1.63557 9.28681 2.04924 7.08687 3.2904" stroke="#1C274C" stroke-width="1.5" stroke-linecap="round"/>
<path opacity="0.5" d="M9.86583 5.59479C9.47284 5.72568 9.26035 6.15036 9.39124 6.54335C9.52212 6.93634 9.9468 7.14883 10.3398 7.01794L9.86583 5.59479ZM17.25 12.0002C17.25 14.8997 14.8995 17.2502 12 17.2502V18.7502C15.7279 18.7502 18.75 15.7282 18.75 12.0002H17.25ZM12 17.2502C9.1005 17.2502 6.75 14.8997 6.75 12.0002H5.25C5.25 15.7282 8.27208 18.7502 12 18.7502V17.2502ZM12 6.75024C14.8995 6.75024 17.25 9.10075 17.25 12.0002H18.75C18.75 8.27232 15.7279 5.25024 12 5.25024V6.75024ZM6.75 12.0002C6.75 10.7315 7.19908 9.56969 7.94772 8.66209L6.79057 7.70762C5.82849 8.87399 5.25 10.3706 5.25 12.0002H6.75ZM10.3398 7.01794C10.8606 6.84448 11.4186 6.75024 12 6.75024V5.25024C11.2554 5.25024 10.5376 5.37108 9.86583 5.59479L10.3398 7.01794Z" fill="#1C274C"/>
</svg>
