<svg width="24" height="24" viewBox="0 0 24 24" fill="none" xmlns="http://www.w3.org/2000/svg">
<path opacity="0.5" d="M20.4699 10.9179C20.4699 10.9179 18.6229 10.3025 16.1602 7.83985C13.6976 5.37723 13.082 3.53003 13.082 3.53003" stroke="#1C274C" stroke-width="1.5"/>
<path opacity="0.5" d="M1.63576 9.03121C1.27368 9.23237 1.14322 9.68897 1.34439 10.0511C1.54555 10.4131 2.00215 10.5436 2.36424 10.3424L1.63576 9.03121ZM13.6576 21.6357C13.4565 21.9978 13.5869 22.4544 13.949 22.6556C14.3111 22.8567 14.7677 22.7263 14.9688 22.3642L13.6576 21.6357ZM16.6905 8.37019C16.9834 8.07729 16.9834 7.60242 16.6905 7.30953C16.3977 7.01663 15.9228 7.01663 15.6299 7.30952L16.6905 8.37019ZM4.46967 18.4696C4.17678 18.7625 4.17678 19.2374 4.46967 19.5303C4.76256 19.8232 5.23743 19.8232 5.53033 19.5303L4.46967 18.4696ZM12.7177 2.87441L1.63576 9.03121L2.36424 10.3424L13.4462 4.18564L12.7177 2.87441ZM19.8143 10.5537L13.6576 21.6357L14.9688 22.3642L21.1255 11.2821L19.8143 10.5537ZM15.6299 7.30952L4.46967 18.4696L5.53033 19.5303L16.6905 8.37019L15.6299 7.30952Z" fill="#1C274C"/>
<path d="M13.0818 10.918C15.122 12.9581 18.4297 12.9581 20.4698 10.918C22.5099 8.87785 22.5099 5.57019 20.4698 3.53008C18.4297 1.48997 15.122 1.48997 13.0818 3.53008C11.0417 5.57019 11.0417 8.87785 13.0818 10.918Z" stroke="#1C274C" stroke-width="1.5" stroke-linecap="round"/>
</svg>
