<svg width="24" height="24" viewBox="0 0 24 24" fill="none" xmlns="http://www.w3.org/2000/svg">
<path d="M10 9.50049C10 11.1573 8.65685 12.5005 7 12.5005C5.34315 12.5005 4 11.1573 4 9.50049C4 7.84363 5.34315 6.50049 7 6.50049C8.65685 6.50049 10 7.84363 10 9.50049Z" stroke="#1C274C" stroke-width="1.5"/>
<path d="M20 14.5005C20 12.8436 18.6569 11.5005 17 11.5005C15.3431 11.5005 14 12.8436 14 14.5005C14 16.1573 15.3431 17.5005 17 17.5005C18.6569 17.5005 20 16.1573 20 14.5005Z" stroke="#1C274C" stroke-width="1.5"/>
<path opacity="0.5" d="M17 11.0005L17.0415 2.00049M7 2.00049L7 6.00049" stroke="#1C274C" stroke-width="1.5" stroke-linecap="round"/>
<path opacity="0.5" d="M7 13.0005L7 22.0005M17 22.0005V18.0005" stroke="#1C274C" stroke-width="1.5" stroke-linecap="round"/>
</svg>
