<svg width="24" height="24" viewBox="0 0 24 24" fill="none" xmlns="http://www.w3.org/2000/svg">
<path d="M12.0646 17.9999C16.4827 18.0355 20.0354 14.4828 19.9997 10.0647C19.9641 5.64655 16.3536 2.03604 11.9354 2.00039C7.51731 1.96474 3.96461 5.51744 4.00027 9.93557C4.03592 14.3537 7.64642 17.9642 12.0646 17.9999Z" stroke="#1C274C" stroke-width="1.5" stroke-linecap="round"/>
<path opacity="0.5" d="M12.8569 7.00012L9.99972 10.0001H13.9997L11.1426 13.0001" stroke="#1C274C" stroke-width="1.5" stroke-linecap="round" stroke-linejoin="round"/>
<path opacity="0.5" d="M11.25 22.0001C11.25 22.4143 11.5858 22.7501 12 22.7501C12.4142 22.7501 12.75 22.4143 12.75 22.0001H11.25ZM11.1173 20.924L10.8303 21.6169L10.8303 21.6169L11.1173 20.924ZM10.5761 20.3828L9.88321 20.6698H9.88321L10.5761 20.3828ZM13.4239 20.3828L14.1168 20.6698L14.1168 20.6698L13.4239 20.3828ZM12.8827 20.924L13.1697 21.6169L13.1697 21.6169L12.8827 20.924ZM11.25 21.0001V22.0001H12.75V21.0001H11.25ZM12.75 18.0001V19.5001H14.25V18.0001H12.75ZM11.25 19.5001V18.0001H9.75V19.5001H11.25ZM12 20.2501C11.7568 20.2501 11.6119 20.2497 11.5039 20.2423C11.4026 20.2354 11.3896 20.225 11.4043 20.2311L10.8303 21.6169C11.0288 21.6991 11.2241 21.7267 11.4018 21.7389C11.5727 21.7505 11.7773 21.7501 12 21.7501V20.2501ZM9.75 19.5001C9.75 19.7228 9.74959 19.9274 9.76125 20.0983C9.77338 20.276 9.80099 20.4713 9.88321 20.6698L11.269 20.0958C11.2751 20.1105 11.2647 20.0975 11.2578 19.9962C11.2504 19.8882 11.25 19.7434 11.25 19.5001H9.75ZM11.4043 20.2311C11.3431 20.2057 11.2944 20.157 11.269 20.0958L9.88321 20.6698C10.0608 21.0986 10.4015 21.4393 10.8303 21.6169L11.4043 20.2311ZM12.75 19.5001C12.75 19.7434 12.7496 19.8882 12.7422 19.9962C12.7353 20.0975 12.7249 20.1105 12.731 20.0958L14.1168 20.6698C14.199 20.4713 14.2266 20.276 14.2387 20.0983C14.2504 19.9274 14.25 19.7228 14.25 19.5001H12.75ZM12 21.7501C12.2227 21.7501 12.4273 21.7505 12.5982 21.7389C12.7759 21.7267 12.9712 21.6991 13.1697 21.6169L12.5957 20.2311C12.6104 20.225 12.5974 20.2354 12.4961 20.2423C12.3881 20.2497 12.2432 20.2501 12 20.2501V21.7501ZM12.731 20.0958C12.7056 20.157 12.6569 20.2057 12.5957 20.2311L13.1697 21.6169C13.5985 21.4393 13.9392 21.0986 14.1168 20.6698L12.731 20.0958Z" fill="#1C274C"/>
</svg>
