<svg width="25" height="24" viewBox="0 0 25 24" fill="none" xmlns="http://www.w3.org/2000/svg">
<path opacity="0.4" d="M18.6699 18.8597H17.9099C17.1099 18.8597 16.3499 19.1697 15.7899 19.7297L14.0799 21.4197C13.2999 22.1897 12.0299 22.1897 11.2499 21.4197L9.53992 19.7297C8.97992 19.1697 8.20992 18.8597 7.41992 18.8597H6.66992C5.00992 18.8597 3.66992 17.5298 3.66992 15.8898V4.97974C3.66992 3.33974 5.00992 2.00977 6.66992 2.00977H18.6699C20.3299 2.00977 21.6699 3.33974 21.6699 4.97974V15.8898C21.6699 17.5198 20.3299 18.8597 18.6699 18.8597Z" fill="#292D32"/>
<path d="M11.0502 14.5099H8.37015C7.93015 14.5099 7.52015 14.2999 7.26015 13.9399C7.01015 13.5999 6.95014 13.18 7.07014 12.78C7.42014 11.71 8.28015 11.1299 9.04015 10.6099C9.84015 10.0699 10.2901 9.72996 10.2901 9.14996C10.2901 8.62996 9.87014 8.20996 9.35014 8.20996C8.83014 8.20996 8.41016 8.62996 8.41016 9.14996C8.41016 9.55996 8.07016 9.89996 7.66016 9.89996C7.25016 9.89996 6.91016 9.55996 6.91016 9.14996C6.91016 7.80996 8.00014 6.70996 9.35014 6.70996C10.7001 6.70996 11.7901 7.79996 11.7901 9.14996C11.7901 10.56 10.7302 11.2799 9.88016 11.8599C9.35016 12.2199 8.85014 12.5599 8.60014 13.0099H11.0401C11.4501 13.0099 11.7901 13.3499 11.7901 13.7599C11.7901 14.1699 11.4602 14.5099 11.0502 14.5099Z" fill="#292D32"/>
<path d="M16.7098 14.5099C16.2998 14.5099 15.9598 14.1699 15.9598 13.7599V13.0699H13.9998C13.9998 13.0699 13.9998 13.0699 13.9898 13.0699C13.4998 13.0699 13.0498 12.81 12.7998 12.39C12.5498 11.96 12.5498 11.4299 12.7998 11.0099C13.4798 9.83995 14.2698 8.50991 14.9898 7.34991C15.3098 6.83991 15.9198 6.60996 16.4898 6.76996C17.0598 6.93996 17.4598 7.45993 17.4498 8.05993V11.58H17.6698C18.0798 11.58 18.4198 11.92 18.4198 12.33C18.4198 12.74 18.0798 13.08 17.6698 13.08H17.4598V13.77C17.4598 14.18 17.1298 14.5099 16.7098 14.5099ZM15.9598 8.63995C15.3698 9.59995 14.7598 10.6299 14.2098 11.5699H15.9598V8.63995Z" fill="#292D32"/>
</svg>
