<svg width="25" height="24" viewBox="0 0 25 24" fill="none" xmlns="http://www.w3.org/2000/svg">
<path d="M19.9996 5.68L13.7296 2.3C13.0696 1.94 12.2696 1.94 11.6096 2.3L5.33961 5.68C4.87961 5.93 4.59961 6.41 4.59961 6.96C4.59961 7.5 4.87961 7.99 5.33961 8.24L11.6096 11.62C11.9396 11.8 12.3096 11.89 12.6696 11.89C13.0296 11.89 13.3996 11.8 13.7296 11.62L19.9996 8.24C20.4596 7.99 20.7396 7.51 20.7396 6.96C20.7396 6.41 20.4596 5.93 19.9996 5.68Z" fill="#292D32"/>
<path opacity="0.4" d="M10.5799 12.79L4.73992 9.87C4.28992 9.65 3.76992 9.67 3.34992 9.93C2.91992 10.2 2.66992 10.65 2.66992 11.15V16.66C2.66992 17.61 3.19992 18.47 4.04992 18.9L9.87992 21.82C10.0799 21.92 10.2999 21.97 10.5199 21.97C10.7799 21.97 11.0399 21.9 11.2699 21.76C11.6999 21.5 11.9499 21.04 11.9499 20.54V15.03C11.9599 14.07 11.4299 13.21 10.5799 12.79Z" fill="#292D32"/>
<path opacity="0.4" d="M21.9896 9.93C21.5596 9.67 21.0396 9.64 20.5996 9.87L14.7696 12.79C13.9196 13.22 13.3896 14.07 13.3896 15.03V20.54C13.3896 21.04 13.6396 21.5 14.0696 21.76C14.2996 21.9 14.5596 21.97 14.8196 21.97C15.0396 21.97 15.2596 21.92 15.4596 21.82L21.2896 18.9C22.1396 18.47 22.6696 17.62 22.6696 16.66V11.15C22.6696 10.65 22.4196 10.2 21.9896 9.93Z" fill="#292D32"/>
</svg>
