<svg width="25" height="24" viewBox="0 0 25 24" fill="none" xmlns="http://www.w3.org/2000/svg">
<path opacity="0.4" d="M11.1699 4.83002V17.11C11.1699 17.93 10.6499 18.62 9.91992 18.88C9.71992 18.96 9.49991 19 9.27991 19C8.96991 19 8.66992 18.92 8.41992 18.78C7.80992 18.47 7.38992 17.84 7.38992 17.11V9.56H6.44992C4.36992 9.56 2.66992 7.86003 2.66992 5.78003C2.66992 4.74003 3.08991 3.79999 3.77991 3.10999C4.46991 2.41999 5.40992 2 6.44992 2H8.33994C9.88994 2 11.1699 3.28002 11.1699 4.83002Z" fill="#292D32"/>
<path d="M6.44977 7.47003C5.51977 7.47003 4.75977 6.71008 4.75977 5.77008C4.75977 4.83008 5.51977 4.08008 6.44977 4.08008C6.85977 4.08008 7.19977 4.42008 7.19977 4.83008C7.19977 5.24008 6.85977 5.58008 6.44977 5.58008C6.33977 5.58008 6.25977 5.67008 6.25977 5.77008C6.25977 5.87008 6.34977 5.97003 6.44977 5.97003C6.85977 5.97003 7.19977 6.31003 7.19977 6.72003C7.19977 7.13003 6.85977 7.47003 6.44977 7.47003Z" fill="#292D32"/>
<path opacity="0.4" d="M22.6699 5.78003C22.6699 7.86003 20.9699 9.56 18.8899 9.56H17.9499V17.11C17.9499 17.84 17.5299 18.47 16.9199 18.78C16.6699 18.92 16.3699 19 16.0599 19C15.8399 19 15.6199 18.96 15.4199 18.88C14.6899 18.62 14.1699 17.93 14.1699 17.11V4.83002C14.1699 3.28002 15.4399 2 16.9999 2H18.8899C19.9299 2 20.8699 2.41999 21.5599 3.10999C22.2499 3.79999 22.6699 4.74003 22.6699 5.78003Z" fill="#292D32"/>
<path d="M18.8901 7.47003C18.4801 7.47003 18.1401 7.13003 18.1401 6.72003C18.1401 6.31003 18.4801 5.97003 18.8901 5.97003C19.0001 5.97003 19.0801 5.88008 19.0801 5.77008C19.0801 5.66008 18.9901 5.58008 18.8901 5.58008C18.4801 5.58008 18.1401 5.24008 18.1401 4.83008C18.1401 4.42008 18.4801 4.08008 18.8901 4.08008C19.8201 4.08008 20.5801 4.84008 20.5801 5.77008C20.5801 6.70008 19.8301 7.47003 18.8901 7.47003Z" fill="#292D32"/>
<path d="M9.91992 18.88V22C9.91992 22.41 9.57992 22.75 9.16992 22.75C8.75992 22.75 8.41992 22.41 8.41992 22V18.78C8.66992 18.92 8.96991 19 9.27991 19C9.49991 19 9.71992 18.96 9.91992 18.88Z" fill="#292D32"/>
<path d="M16.9199 18.78V22C16.9199 22.41 16.5799 22.75 16.1699 22.75C15.7599 22.75 15.4199 22.41 15.4199 22V18.88C15.6199 18.96 15.8399 19 16.0599 19C16.3699 19 16.6699 18.92 16.9199 18.78Z" fill="#292D32"/>
</svg>
