<svg width="25" height="24" viewBox="0 0 25 24" fill="none" xmlns="http://www.w3.org/2000/svg">
<path d="M20.0498 15.98V17.02C20.0498 18.61 19.4498 19.25 17.9298 19.25H6.0498V13.75H17.9298C19.4498 13.75 20.0498 14.39 20.0498 15.98Z" fill="#292D32"/>
<path opacity="0.4" d="M15.0498 7.48V8.52C15.0498 10.11 14.4398 10.75 12.9298 10.75H6.0498V5.25H12.9298C14.4398 5.25 15.0498 5.89 15.0498 7.48Z" fill="#292D32"/>
<path d="M6.05002 22C5.64002 22 5.30002 21.66 5.30002 21.25V2.75C5.29002 2.33 5.63002 2 6.05002 2C6.47002 2 6.80002 2.34 6.80002 2.75V21.25C6.79002 21.66 6.46002 22 6.05002 22Z" fill="#292D32"/>
</svg>
