<svg width="25" height="24" viewBox="0 0 25 24" fill="none" xmlns="http://www.w3.org/2000/svg">
<path opacity="0.58" d="M24.6699 0H0.669922V24H24.6699V0Z" fill="white"/>
<path d="M21.5598 10.5301C21.1498 10.5301 20.8098 10.1901 20.8098 9.78006V6.91006L12.6698 2.84006L4.52979 6.91006V9.78006C4.52979 10.1901 4.18979 10.5301 3.77979 10.5301C3.36979 10.5301 3.02979 10.1901 3.02979 9.78006V6.44006C3.02979 6.16006 3.18983 5.90006 3.44983 5.77006L12.3398 1.33006C12.5498 1.22006 12.7998 1.22006 13.0098 1.33006L21.8998 5.77006C22.1498 5.90006 22.3198 6.16006 22.3198 6.44006V9.77006C22.3098 10.1901 21.9698 10.5301 21.5598 10.5301Z" fill="#292D32"/>
<path d="M12.6698 22.75C12.5498 22.75 12.4398 22.72 12.3398 22.67L3.44983 18.23C3.19983 18.1 3.02979 17.84 3.02979 17.56V14.23C3.02979 13.82 3.36979 13.48 3.77979 13.48C4.18979 13.48 4.52979 13.82 4.52979 14.23V17.1L12.6698 21.17L20.8098 17.1V14.23C20.8098 13.82 21.1498 13.48 21.5598 13.48C21.9698 13.48 22.3098 13.82 22.3098 14.23V17.56C22.3098 17.84 22.1498 18.1 21.8898 18.23L12.9998 22.67C12.8998 22.72 12.7898 22.75 12.6698 22.75Z" fill="#292D32"/>
<path opacity="0.4" d="M17.11 12.0001C17.11 9.55006 15.12 7.56006 12.67 7.56006C10.22 7.56006 8.22998 9.55006 8.22998 12.0001C8.22998 14.2001 9.84 16.0201 11.94 16.3701C11.94 16.4001 11.93 16.4201 11.93 16.4401V22.0001C11.93 22.4101 12.27 22.7501 12.68 22.7501C13.09 22.7501 13.43 22.4101 13.43 22.0001V16.4401C13.43 16.4101 13.42 16.3901 13.42 16.3701C15.51 16.0201 17.11 14.2001 17.11 12.0001Z" fill="#292D32"/>
</svg>
