<svg width="25" height="24" viewBox="0 0 25 24" fill="none" xmlns="http://www.w3.org/2000/svg">
<path opacity="0.4" d="M17.4902 2H7.85023C5.72023 2 3.99023 3.74 3.99023 5.86V19.95C3.99023 21.75 5.28023 22.51 6.86023 21.64L11.7402 18.93C12.2602 18.64 13.1002 18.64 13.6102 18.93L18.4902 21.64C20.0702 22.52 21.3602 21.76 21.3602 19.95V5.86C21.3502 3.74 19.6202 2 17.4902 2Z" fill="#292D32"/>
<path d="M12.6697 10.2801C11.6497 10.2801 10.6297 10.1001 9.65968 9.75005C9.26968 9.61005 9.06968 9.18005 9.20968 8.79005C9.35968 8.40005 9.78968 8.20005 10.1797 8.34005C11.7897 8.92005 13.5597 8.92005 15.1697 8.34005C15.5597 8.20005 15.9897 8.40005 16.1297 8.79005C16.2697 9.18005 16.0697 9.61005 15.6797 9.75005C14.7097 10.1001 13.6897 10.2801 12.6697 10.2801Z" fill="#292D32"/>
</svg>
