<svg width="25" height="24" viewBox="0 0 25 24" fill="none" xmlns="http://www.w3.org/2000/svg">
<path opacity="0.4" d="M17.4902 2H7.85023C5.72023 2 3.99023 3.74 3.99023 5.86V19.95C3.99023 21.75 5.28023 22.51 6.86023 21.64L11.7402 18.93C12.2602 18.64 13.1002 18.64 13.6102 18.93L18.4902 21.64C20.0702 22.52 21.3602 21.76 21.3602 19.95V5.86C21.3502 3.74 19.6202 2 17.4902 2Z" fill="#292D32"/>
<path d="M15.1699 9.89996H13.4199V8.20996C13.4199 7.79996 13.0799 7.45996 12.6699 7.45996C12.2599 7.45996 11.9199 7.79996 11.9199 8.20996V9.89996H10.1699C9.75992 9.89996 9.41992 10.24 9.41992 10.65C9.41992 11.06 9.75992 11.4 10.1699 11.4H11.9199V13.21C11.9199 13.62 12.2599 13.96 12.6699 13.96C13.0799 13.96 13.4199 13.62 13.4199 13.21V11.4H15.1699C15.5799 11.4 15.9199 11.06 15.9199 10.65C15.9199 10.24 15.5799 9.89996 15.1699 9.89996Z" fill="#292D32"/>
</svg>
