<svg width="25" height="24" viewBox="0 0 25 24" fill="none" xmlns="http://www.w3.org/2000/svg">
<path opacity="0.4" d="M17.4902 2H7.85023C5.72023 2 3.99023 3.74 3.99023 5.86V19.95C3.99023 21.75 5.28023 22.51 6.86023 21.64L11.7402 18.93C12.2602 18.64 13.1002 18.64 13.6102 18.93L18.4902 21.64C20.0702 22.52 21.3602 21.76 21.3602 19.95V5.86C21.3502 3.74 19.6202 2 17.4902 2Z" fill="#292D32"/>
<path d="M15.1699 11.3999H10.1699C9.75992 11.3999 9.41992 11.0599 9.41992 10.6499C9.41992 10.2399 9.75992 9.8999 10.1699 9.8999H15.1699C15.5799 9.8999 15.9199 10.2399 15.9199 10.6499C15.9199 11.0599 15.5799 11.3999 15.1699 11.3999Z" fill="#292D32"/>
</svg>
