<svg width="25" height="24" viewBox="0 0 25 24" fill="none" xmlns="http://www.w3.org/2000/svg">
<path opacity="0.4" d="M16.8599 2H8.48992C4.83992 2 2.66992 4.17 2.66992 7.81V16.18C2.66992 19.82 4.83992 21.99 8.47992 21.99H16.8499C20.4899 21.99 22.6599 19.82 22.6599 16.18V7.81C22.6699 4.17 20.4999 2 16.8599 2Z" fill="#292D32"/>
<path d="M10.85 6.09998C10.44 6.09998 10.1 6.43998 10.1 6.84998V15.35L8.34 13.59C8.05 13.3 7.57 13.3 7.28 13.59C6.99 13.88 6.99 14.36 7.28 14.65L10.32 17.69C10.39 17.76 10.47 17.81 10.56 17.85C10.65 17.89 10.75 17.91 10.85 17.91C10.95 17.91 11.04 17.89 11.14 17.85C11.32 17.77 11.47 17.63 11.55 17.44C11.59 17.35 11.61 17.25 11.61 17.15V6.84998C11.6 6.42998 11.27 6.09998 10.85 6.09998Z" fill="#292D32"/>
<path d="M18.0602 9.35998L15.0202 6.31998C14.9502 6.24998 14.8702 6.19998 14.7802 6.15998C14.6002 6.07998 14.3902 6.07998 14.2102 6.15998C14.0302 6.23998 13.8802 6.37998 13.8002 6.56998C13.7602 6.65998 13.7402 6.75998 13.7402 6.85998V17.17C13.7402 17.58 14.0802 17.92 14.4902 17.92C14.9002 17.92 15.2402 17.58 15.2402 17.17V8.66998L17.0002 10.43C17.1502 10.58 17.3402 10.65 17.5302 10.65C17.7202 10.65 17.9102 10.58 18.0602 10.43C18.3502 10.12 18.3502 9.64998 18.0602 9.35998Z" fill="#292D32"/>
</svg>
