<svg width="25" height="24" viewBox="0 0 25 24" fill="none" xmlns="http://www.w3.org/2000/svg">
<path opacity="0.4" d="M16.8599 2H8.47992C4.83992 2 2.66992 4.17 2.66992 7.81V16.18C2.66992 19.83 4.83992 22 8.47992 22H16.8499C20.4899 22 22.6599 19.83 22.6599 16.19V7.81C22.6699 4.17 20.4999 2 16.8599 2Z" fill="#292D32"/>
<path d="M18.52 13.5299C18.44 13.3499 18.3 13.1999 18.11 13.1199C18.02 13.0799 17.92 13.0599 17.82 13.0599H7.52002C7.11002 13.0599 6.77002 13.3999 6.77002 13.8099C6.77002 14.2199 7.11002 14.5599 7.52002 14.5599H16.02L14.26 16.3199C13.97 16.6099 13.97 17.0899 14.26 17.3799C14.41 17.5299 14.6 17.5999 14.79 17.5999C14.98 17.5999 15.17 17.5299 15.32 17.3799L18.36 14.3399C18.43 14.2699 18.48 14.1899 18.52 14.0999C18.59 13.9199 18.59 13.7099 18.52 13.5299Z" fill="#292D32"/>
<path d="M6.82008 10.47C6.90008 10.65 7.04008 10.8 7.23008 10.88C7.32008 10.92 7.42008 10.94 7.52008 10.94H17.8301C18.2401 10.94 18.5801 10.6 18.5801 10.19C18.5801 9.77997 18.2401 9.43997 17.8301 9.43997H9.33008L11.0901 7.67997C11.3801 7.38997 11.3801 6.90997 11.0901 6.61997C10.8001 6.32997 10.3201 6.32997 10.0301 6.61997L6.99008 9.64997C6.92008 9.71997 6.86008 9.80997 6.82008 9.89997C6.75008 10.08 6.75008 10.29 6.82008 10.47Z" fill="#292D32"/>
</svg>
