<svg width="25" height="24" viewBox="0 0 25 24" fill="none" xmlns="http://www.w3.org/2000/svg">
<path d="M11.6499 6.19L7.93991 2.47998C7.86991 2.40998 7.7799 2.35 7.6799 2.31C7.6699 2.31 7.65987 2.30999 7.64987 2.29999C7.56987 2.26999 7.47986 2.25 7.38986 2.25C7.18986 2.25 6.9999 2.32997 6.85989 2.46997L3.13986 6.19C2.84986 6.48 2.84986 6.96 3.13986 7.25C3.42986 7.54 3.90992 7.54 4.19992 7.25L6.64987 4.79999V21C6.64987 21.41 6.98987 21.75 7.39987 21.75C7.80987 21.75 8.14987 21.41 8.14987 21V4.81L10.5899 7.25C10.7399 7.4 10.9299 7.46997 11.1199 7.46997C11.3099 7.46997 11.4999 7.4 11.6499 7.25C11.9399 6.96 11.9399 6.49 11.6499 6.19Z" fill="#292D32"/>
<path opacity="0.4" d="M22.2002 16.75C21.9102 16.46 21.4301 16.46 21.1401 16.75L18.6902 19.2V3C18.6902 2.59 18.3502 2.25 17.9402 2.25C17.5302 2.25 17.1902 2.59 17.1902 3V19.19L14.7502 16.75C14.4602 16.46 13.9802 16.46 13.6902 16.75C13.4002 17.04 13.4002 17.52 13.6902 17.81L17.4001 21.52C17.4701 21.59 17.5601 21.65 17.6601 21.69C17.6701 21.69 17.6802 21.69 17.6902 21.7C17.7702 21.73 17.8602 21.75 17.9502 21.75C18.1502 21.75 18.3401 21.67 18.4801 21.53L22.2002 17.81C22.4902 17.51 22.4902 17.04 22.2002 16.75Z" fill="#292D32"/>
</svg>
