<svg width="25" height="24" viewBox="0 0 25 24" fill="none" xmlns="http://www.w3.org/2000/svg">
<path opacity="0.4" d="M16.8599 2H8.47992C4.83992 2 2.66992 4.17 2.66992 7.81V16.18C2.66992 19.83 4.83992 22 8.47992 22H16.8499C20.4899 22 22.6599 19.83 22.6599 16.19V7.81C22.6699 4.17 20.4999 2 16.8599 2Z" fill="#292D32"/>
<path d="M12.6701 14.9099C12.4801 14.9099 12.2901 14.8399 12.1401 14.6899L8.61008 11.1599C8.32008 10.8699 8.32008 10.3899 8.61008 10.0999C8.90008 9.80995 9.38008 9.80995 9.67008 10.0999L12.6701 13.0999L15.6701 10.0999C15.9601 9.80995 16.4401 9.80995 16.7301 10.0999C17.0201 10.3899 17.0201 10.8699 16.7301 11.1599L13.2001 14.6899C13.0501 14.8399 12.8601 14.9099 12.6701 14.9099Z" fill="#292D32"/>
</svg>
