<svg width="25" height="24" viewBox="0 0 25 24" fill="none" xmlns="http://www.w3.org/2000/svg">
<path opacity="0.4" d="M16.8597 2H8.48969C4.84968 2 2.67969 4.17 2.67969 7.81V16.18C2.67969 19.82 4.84968 21.99 8.48969 21.99H16.8597C20.4997 21.99 22.6697 19.82 22.6697 16.18V7.81C22.6697 4.17 20.4997 2 16.8597 2Z" fill="#292D32"/>
<path d="M20.0194 8.2702C19.9794 8.1802 19.9295 8.1002 19.8595 8.0302L18.0595 6.2302C17.7695 5.9402 17.2895 5.9402 16.9995 6.2302C16.7095 6.5202 16.7095 7.00019 16.9995 7.29019L17.5194 7.8102H17.3695C15.4195 7.8102 13.7295 8.8802 12.7995 10.4502C11.8795 8.8802 10.1895 7.8102 8.23947 7.8102H7.80948L8.32944 7.29019C8.61944 7.00019 8.61944 6.5202 8.32944 6.2302C8.03944 5.9402 7.55944 5.9402 7.26944 6.2302L5.46945 8.0302C5.17945 8.3202 5.17945 8.8002 5.46945 9.0902L7.26944 10.8902C7.41944 11.0402 7.60947 11.1102 7.79947 11.1102C7.98947 11.1102 8.17944 11.0402 8.32944 10.8902C8.61944 10.6002 8.61944 10.1202 8.32944 9.8302L7.80948 9.3102H8.22946C10.3295 9.3102 12.0395 11.0202 12.0395 13.1202V15.0802V17.2502C12.0395 17.6602 12.3795 18.0002 12.7895 18.0002C13.1995 18.0002 13.5395 17.6602 13.5395 17.2502V15.0802V13.1202C13.5395 11.0202 15.2495 9.3102 17.3595 9.3102H17.5095L16.9895 9.8302C16.6995 10.1202 16.6995 10.6002 16.9895 10.8902C17.1395 11.0402 17.3294 11.1102 17.5194 11.1102C17.7094 11.1102 17.8995 11.0402 18.0495 10.8902L19.8495 9.0902C19.9195 9.0202 19.9695 8.94021 20.0095 8.85021C20.0995 8.66021 20.0994 8.4502 20.0194 8.2702Z" fill="#292D32"/>
</svg>
