<svg width="25" height="24" viewBox="0 0 25 24" fill="none" xmlns="http://www.w3.org/2000/svg">
<path opacity="0.4" d="M12.6699 22.75C12.2599 22.75 11.9199 22.41 11.9199 22V20C11.9199 19.59 12.2599 19.25 12.6699 19.25C13.0799 19.25 13.4199 19.59 13.4199 20V22C13.4199 22.41 13.0799 22.75 12.6699 22.75Z" fill="#292D32"/>
<path opacity="0.4" d="M12.6699 18.75C12.2599 18.75 11.9199 18.41 11.9199 18V16C11.9199 15.59 12.2599 15.25 12.6699 15.25C13.0799 15.25 13.4199 15.59 13.4199 16V18C13.4199 18.41 13.0799 18.75 12.6699 18.75Z" fill="#292D32"/>
<path d="M12.6699 14.75C12.2599 14.75 11.9199 14.41 11.9199 14V11C11.9199 6.73 15.3999 3.25 19.6699 3.25H22.6699C23.0799 3.25 23.4199 3.59 23.4199 4C23.4199 4.41 23.0799 4.75 22.6699 4.75H19.6699C16.2199 4.75 13.4199 7.55 13.4199 11V14C13.4199 14.41 13.0799 14.75 12.6699 14.75Z" fill="#292D32"/>
<path d="M12.6699 14.75C12.2599 14.75 11.9199 14.41 11.9199 14V11C11.9199 7.55 9.11992 4.75 5.66992 4.75H2.66992C2.25992 4.75 1.91992 4.41 1.91992 4C1.91992 3.59 2.25992 3.25 2.66992 3.25H5.66992C9.93992 3.25 13.4199 6.73 13.4199 11V14C13.4199 14.41 13.0799 14.75 12.6699 14.75Z" fill="#292D32"/>
<path d="M4.6694 6.74994C4.4794 6.74994 4.28938 6.67994 4.13937 6.52994L2.13938 4.52994C1.84938 4.23994 1.84938 3.75994 2.13938 3.46994L4.13937 1.46994C4.42937 1.17994 4.90943 1.17994 5.19943 1.46994C5.48943 1.75994 5.48943 2.23994 5.19943 2.52994L3.7294 3.99994L5.19943 5.46994C5.48943 5.75994 5.48943 6.23994 5.19943 6.52994C5.04943 6.67994 4.8594 6.74994 4.6694 6.74994Z" fill="#292D32"/>
<path d="M20.6694 6.74994C20.4794 6.74994 20.2894 6.67994 20.1394 6.52994C19.8494 6.23994 19.8494 5.75994 20.1394 5.46994L21.6094 3.99994L20.1394 2.52994C19.8494 2.23994 19.8494 1.75994 20.1394 1.46994C20.4294 1.17994 20.9094 1.17994 21.1994 1.46994L23.1994 3.46994C23.4894 3.75994 23.4894 4.23994 23.1994 4.52994L21.1994 6.52994C21.0494 6.67994 20.8594 6.74994 20.6694 6.74994Z" fill="#292D32"/>
</svg>
