<svg width="25" height="24" viewBox="0 0 25 24" fill="none" xmlns="http://www.w3.org/2000/svg">
<path opacity="0.4" d="M16.8599 2H8.47992C4.83992 2 2.66992 4.17 2.66992 7.81V16.18C2.66992 19.83 4.83992 22 8.47992 22H16.8499C20.4899 22 22.6599 19.83 22.6599 16.19V7.81C22.6699 4.17 20.4999 2 16.8599 2Z" fill="#292D32"/>
<path d="M16.2001 14.21C16.0101 14.21 15.8201 14.14 15.6701 13.99L12.6701 10.99L9.67008 13.99C9.38008 14.28 8.90008 14.28 8.61008 13.99C8.32008 13.7 8.32008 13.22 8.61008 12.93L12.1401 9.4C12.4301 9.11 12.9101 9.11 13.2001 9.4L16.7301 12.93C17.0201 13.22 17.0201 13.7 16.7301 13.99C16.5801 14.14 16.3901 14.21 16.2001 14.21Z" fill="#292D32"/>
</svg>
