<svg width="25" height="24" viewBox="0 0 25 24" fill="none" xmlns="http://www.w3.org/2000/svg">
<path d="M24.6699 0H0.669922V24H24.6699V0Z" fill="white"/>
<path d="M6.73025 15.58L12.3402 5.96995C12.5002 5.68995 12.9002 5.66995 13.0902 5.92995L14.6502 8.01995C15.1002 8.61995 15.1303 9.42995 14.7403 10.07L11.4002 15.42C11.0702 15.95 10.4903 16.27 9.86026 16.27H7.12027C6.77027 16.26 6.55025 15.88 6.73025 15.58Z" fill="#292D32"/>
<path d="M15.91 12.37L13.99 15.57C13.81 15.87 14.03 16.26 14.38 16.26H18.22C18.57 16.26 18.79 15.88 18.61 15.57L16.69 12.37C16.52 12.08 16.09 12.08 15.91 12.37Z" fill="#292D32"/>
<path opacity="0.4" d="M12.6699 22C18.1928 22 22.6699 17.5228 22.6699 12C22.6699 6.47715 18.1928 2 12.6699 2C7.14707 2 2.66992 6.47715 2.66992 12C2.66992 17.5228 7.14707 22 12.6699 22Z" fill="#292D32"/>
</svg>
