<svg width="25" height="24" viewBox="0 0 25 24" fill="none" xmlns="http://www.w3.org/2000/svg">
<path d="M10.2095 16.67C9.79947 16.67 9.45947 16.33 9.45947 15.92V12.53L9.26947 12.74C8.98947 13.05 8.51947 13.07 8.20947 12.8C7.89947 12.52 7.87947 12.05 8.14947 11.74L9.64947 10.07C9.85947 9.84002 10.1895 9.76001 10.4795 9.87001C10.7695 9.98001 10.9595 10.26 10.9595 10.57V15.92C10.9595 16.34 10.6295 16.67 10.2095 16.67Z" fill="#292D32"/>
<path opacity="0.4" d="M12.6695 3.47998C12.5895 3.47998 12.5095 3.48999 12.4295 3.48999L13.2495 2.46997C13.5095 2.14997 13.4595 1.66998 13.1295 1.41998C12.8095 1.15998 12.3395 1.20998 12.0795 1.53998L10.0995 4.01001C10.0895 4.02001 10.0895 4.03999 10.0795 4.04999C10.0495 4.08999 10.0295 4.14 10.0095 4.19C9.98952 4.23 9.96953 4.27001 9.95953 4.32001C9.94953 4.37001 9.94952 4.41002 9.94952 4.46002C9.94952 4.51002 9.94952 4.55999 9.94952 4.60999C9.94952 4.62999 9.94952 4.63997 9.94952 4.65997C9.95952 4.68997 9.97953 4.72 9.98953 4.75C10.0095 4.8 10.0195 4.84001 10.0495 4.88001C10.0795 4.92001 10.1095 4.96 10.1495 5C10.1695 5.02 10.1795 5.05001 10.2095 5.07001C10.2195 5.08001 10.2395 5.08003 10.2495 5.09003C10.2795 5.11003 10.3095 5.13002 10.3495 5.14002C10.3995 5.17002 10.4495 5.19001 10.4995 5.20001C10.5295 5.21001 10.5695 5.20997 10.5995 5.21997C10.6295 5.21997 10.6495 5.22998 10.6795 5.22998C10.6995 5.22998 10.7295 5.22002 10.7495 5.21002C10.7795 5.21002 10.8095 5.21002 10.8495 5.21002C11.4895 5.06002 12.0895 4.98999 12.6595 4.98999C17.1495 4.98999 20.7995 8.64001 20.7995 13.13C20.7995 17.62 17.1495 21.27 12.6595 21.27C8.16952 21.27 4.51953 17.62 4.51953 13.13C4.51953 11.39 5.08953 9.71002 6.16953 8.27002C6.41953 7.94002 6.34953 7.46997 6.01953 7.21997C5.68953 6.96997 5.21951 7.04 4.96951 7.37C3.68951 9.07 3.01953 11.06 3.01953 13.13C3.01953 18.44 7.33952 22.77 12.6595 22.77C17.9795 22.77 22.2995 18.45 22.2995 13.13C22.2995 7.81 17.9795 3.47998 12.6695 3.47998Z" fill="#292D32"/>
<path d="M14.6699 16.67C13.1499 16.67 11.9199 15.44 11.9199 13.92V12.57C11.9199 11.05 13.1499 9.82001 14.6699 9.82001C16.1899 9.82001 17.4199 11.05 17.4199 12.57V13.92C17.4199 15.44 16.1899 16.67 14.6699 16.67ZM14.6699 11.33C13.9799 11.33 13.4199 11.89 13.4199 12.58V13.93C13.4199 14.62 13.9799 15.18 14.6699 15.18C15.3599 15.18 15.9199 14.62 15.9199 13.93V12.58C15.9199 11.89 15.3599 11.33 14.6699 11.33Z" fill="#292D32"/>
</svg>
