<svg width="25" height="24" viewBox="0 0 25 24" fill="none" xmlns="http://www.w3.org/2000/svg">
<path opacity="0.4" d="M16.8603 8.8599C16.4703 8.8599 16.1603 8.5499 16.1603 8.1599V6.8799C16.1603 5.8999 15.7403 4.9599 15.0203 4.2999C14.2803 3.6299 13.3303 3.3199 12.3303 3.4099C10.6503 3.5699 9.18027 5.2799 9.18027 7.0599V7.9599C9.18027 8.3499 8.87027 8.6599 8.48027 8.6599C8.09027 8.6599 7.78027 8.3499 7.78027 7.9599V7.0599C7.78027 4.5599 9.80027 2.2499 12.1903 2.0199C13.5803 1.8899 14.9203 2.3299 15.9503 3.2699C16.9703 4.1899 17.5503 5.5099 17.5503 6.8799V8.1599C17.5503 8.5499 17.2403 8.8599 16.8603 8.8599Z" fill="#292D32"/>
<path d="M20.6297 8.96008C19.7897 8.03008 18.4097 7.58008 16.3897 7.58008H8.94967C6.92967 7.58008 5.54967 8.03008 4.70967 8.96008C3.73967 10.0401 3.76967 11.4801 3.87967 12.4801L4.57967 18.0501C4.78967 20.0001 5.57967 22.0001 9.87967 22.0001H15.4597C19.7597 22.0001 20.5497 20.0001 20.7597 18.0601L21.4597 12.4701C21.5697 11.4801 21.5897 10.0401 20.6297 8.96008ZM9.08967 13.1501H9.07967C8.52967 13.1501 8.07967 12.7001 8.07967 12.1501C8.07967 11.6001 8.52967 11.1501 9.07967 11.1501C9.63967 11.1501 10.0897 11.6001 10.0897 12.1501C10.0897 12.7001 9.63967 13.1501 9.08967 13.1501ZM16.0897 13.1501H16.0797C15.5297 13.1501 15.0797 12.7001 15.0797 12.1501C15.0797 11.6001 15.5297 11.1501 16.0797 11.1501C16.6397 11.1501 17.0897 11.6001 17.0897 12.1501C17.0897 12.7001 16.6397 13.1501 16.0897 13.1501Z" fill="#292D32"/>
</svg>
