<svg width="25" height="24" viewBox="0 0 25 24" fill="none" xmlns="http://www.w3.org/2000/svg">
<path opacity="0.4" d="M19.9099 5.58006H19.5099L16.1299 2.20006C15.8599 1.93006 15.4199 1.93006 15.1399 2.20006C14.8699 2.47006 14.8699 2.91006 15.1399 3.19006L17.5299 5.58006H7.80992L10.1999 3.19006C10.4699 2.92006 10.4699 2.48006 10.1999 2.20006C9.92992 1.93006 9.48992 1.93006 9.20992 2.20006L5.83992 5.58006H5.43992C4.53992 5.58006 2.66992 5.58006 2.66992 8.14006C2.66992 9.11006 2.86992 9.75006 3.28992 10.1701C3.52992 10.4201 3.81992 10.5501 4.12992 10.6201C4.41992 10.6901 4.72992 10.7001 5.02992 10.7001H20.3099C20.6199 10.7001 20.9099 10.6801 21.1899 10.6201C22.0299 10.4201 22.6699 9.82006 22.6699 8.14006C22.6699 5.58006 20.7999 5.58006 19.9099 5.58006Z" fill="#292D32"/>
<path d="M20.3199 10.6999H5.02988C4.73988 10.6999 4.41988 10.6899 4.12988 10.6099L5.38988 18.2999C5.66988 20.0199 6.41988 21.9999 9.74988 21.9999H15.3599C18.7299 21.9999 19.3299 20.3099 19.6899 18.4199L21.1999 10.6099C20.9199 10.6799 20.6199 10.6999 20.3199 10.6999ZM12.6699 18.4999C10.3299 18.4999 8.41988 16.5899 8.41988 14.2499C8.41988 13.8399 8.75988 13.4999 9.16988 13.4999C9.57988 13.4999 9.91988 13.8399 9.91988 14.2499C9.91988 15.7699 11.1499 16.9999 12.6699 16.9999C14.1899 16.9999 15.4199 15.7699 15.4199 14.2499C15.4199 13.8399 15.7599 13.4999 16.1699 13.4999C16.5799 13.4999 16.9199 13.8399 16.9199 14.2499C16.9199 16.5899 15.0099 18.4999 12.6699 18.4999Z" fill="#292D32"/>
</svg>
