<svg width="25" height="24" viewBox="0 0 25 24" fill="none" xmlns="http://www.w3.org/2000/svg">
<path d="M22.6699 19V22H2.66992V19C2.66992 18.45 3.11992 18 3.66992 18H21.6699C22.2199 18 22.6699 18.45 22.6699 19Z" fill="#292D32" stroke="#292D32" stroke-width="1.5" stroke-miterlimit="10" stroke-linecap="round" stroke-linejoin="round"/>
<path opacity="0.6" d="M8.66992 11H4.66992V18H8.66992V11Z" fill="#292D32"/>
<path opacity="0.4" d="M12.6699 11H8.66992V18H12.6699V11Z" fill="#292D32"/>
<path opacity="0.6" d="M16.6699 11H12.6699V18H16.6699V11Z" fill="#292D32"/>
<path opacity="0.4" d="M20.6699 11H16.6699V18H20.6699V11Z" fill="#292D32"/>
<path d="M23.6699 22.75H1.66992C1.25992 22.75 0.919922 22.41 0.919922 22C0.919922 21.59 1.25992 21.25 1.66992 21.25H23.6699C24.0799 21.25 24.4199 21.59 24.4199 22C24.4199 22.41 24.0799 22.75 23.6699 22.75Z" fill="#292D32"/>
<path d="M22.0399 5.74982L13.0399 2.14984C12.8399 2.06984 12.4999 2.06984 12.2999 2.14984L3.29993 5.74982C2.94993 5.88982 2.66992 6.29981 2.66992 6.67981V9.99982C2.66992 10.5498 3.11992 10.9998 3.66992 10.9998H21.6699C22.2199 10.9998 22.6699 10.5498 22.6699 9.99982V6.67981C22.6699 6.29981 22.3899 5.88982 22.0399 5.74982ZM12.6699 8.49982C11.8399 8.49982 11.1699 7.82982 11.1699 6.99982C11.1699 6.16982 11.8399 5.49982 12.6699 5.49982C13.4999 5.49982 14.1699 6.16982 14.1699 6.99982C14.1699 7.82982 13.4999 8.49982 12.6699 8.49982Z" fill="#292D32"/>
</svg>
