<svg width="25" height="24" viewBox="0 0 25 24" fill="none" xmlns="http://www.w3.org/2000/svg">
<path opacity="0.4" d="M13.5999 4.79H8.01992C3.91992 4.79 2.66992 6.04 2.66992 10.14V13.86C2.66992 17.96 3.91992 19.21 8.01992 19.21H13.5999C17.6999 19.21 18.9499 17.96 18.9499 13.86V10.14C18.9499 6.04 17.6999 4.79 13.5999 4.79Z" fill="#292D32"/>
<path d="M21.0901 9C20.9501 8.99 20.7701 8.98 20.5701 8.98C20.1801 8.98 19.8701 9.29 19.8701 9.68V14.33C19.8701 14.72 20.1801 15.03 20.5701 15.03C20.7701 15.03 20.9401 15.02 21.1101 15.01C22.6701 14.83 22.6701 13.73 22.6701 12.93V11.07C22.6701 10.27 22.6701 9.17 21.0901 9Z" fill="#292D32"/>
<path d="M10.6796 16.24C10.5096 16.24 10.3296 16.18 10.1896 16.06C9.87961 15.79 9.83961 15.32 10.1096 15L11.9096 12.89C11.9196 12.86 11.9096 12.83 11.8896 12.8C11.8696 12.76 11.8296 12.74 11.7796 12.74H9.78961C9.19961 12.74 8.67961 12.44 8.37961 11.93C8.08961 11.42 8.08961 10.82 8.37961 10.31L10.0896 8.05C10.3396 7.72 10.8096 7.65 11.1396 7.9C11.4696 8.15 11.5396 8.62 11.2896 8.95L9.63961 11.14C9.66961 11.1 9.66961 11.14 9.68961 11.19C9.70961 11.23 9.74961 11.25 9.79961 11.25H11.8096C12.3996 11.25 12.9196 11.55 13.2196 12.06C13.5096 12.57 13.5096 13.17 13.2196 13.68C13.1996 13.72 13.1696 13.76 13.1396 13.79L11.2696 15.98C11.1096 16.16 10.8996 16.24 10.6796 16.24Z" fill="#292D32"/>
</svg>
