<svg width="25" height="24" viewBox="0 0 25 24" fill="none" xmlns="http://www.w3.org/2000/svg">
<path opacity="0.4" d="M13.5999 4.79H8.01992C3.91992 4.79 2.66992 6.04 2.66992 10.14V13.86C2.66992 17.96 3.91992 19.21 8.01992 19.21H13.5999C17.6999 19.21 18.9499 17.96 18.9499 13.86V10.14C18.9499 6.04 17.6999 4.79 13.5999 4.79Z" fill="#292D32"/>
<path d="M21.0901 9C20.9501 8.99 20.7701 8.98 20.5701 8.98C20.1801 8.98 19.8701 9.29 19.8701 9.68V14.33C19.8701 14.72 20.1801 15.03 20.5701 15.03C20.7701 15.03 20.9401 15.02 21.1101 15.01C22.6701 14.83 22.6701 13.73 22.6701 12.93V11.07C22.6701 10.27 22.6701 9.17 21.0901 9Z" fill="#292D32"/>
<path d="M7.04951 14.75C6.98951 14.75 6.92951 14.74 6.86951 14.73C6.46951 14.63 6.21951 14.22 6.31951 13.82C6.61951 12.63 6.61951 11.37 6.31951 10.18C6.21951 9.78 6.45951 9.37 6.86951 9.27C7.25951 9.17 7.66951 9.42 7.76951 9.82C8.12951 11.25 8.12951 12.76 7.76951 14.18C7.68951 14.52 7.37951 14.75 7.04951 14.75Z" fill="#292D32"/>
</svg>
