<svg width="25" height="24" viewBox="0 0 25 24" fill="none" xmlns="http://www.w3.org/2000/svg">
<path opacity="0.4" d="M24.1999 12.05C23.9099 11.76 23.4299 11.76 23.1399 12.05L22.6799 12.51V12C22.6799 6.48 18.1899 1.98999 12.6699 1.98999C9.61992 1.98999 6.76992 3.35999 4.85992 5.73999C4.59992 6.05999 4.64992 6.53998 4.97992 6.78998C5.29992 7.04998 5.77992 6.99998 6.02992 6.66998C7.65992 4.63998 10.0799 3.47998 12.6699 3.47998C17.3599 3.47998 21.1799 7.29999 21.1799 11.99V12.49L20.7199 12.03C20.4299 11.74 19.9499 11.74 19.6599 12.03C19.3699 12.32 19.3699 12.8 19.6599 13.09L21.3999 14.83C21.4699 14.9 21.5499 14.95 21.6399 14.99C21.7299 15.03 21.8299 15.05 21.9299 15.05C22.0299 15.05 22.1199 15.03 22.2199 14.99C22.3099 14.95 22.3899 14.9 22.4599 14.83L24.1999 13.09C24.4899 12.82 24.4899 12.34 24.1999 12.05Z" fill="#292D32"/>
<path opacity="0.4" d="M20.3599 17.2C20.0399 16.94 19.5599 16.9899 19.3099 17.3199C17.6799 19.3499 15.2599 20.51 12.6699 20.51C7.97987 20.51 4.15987 16.6899 4.15987 11.9999V11.4999L4.61987 11.96C4.76987 12.11 4.95987 12.1799 5.14987 12.1799C5.33987 12.1799 5.52987 12.11 5.67987 11.96C5.96987 11.67 5.96987 11.19 5.67987 10.9L3.93987 9.15991C3.86987 9.08991 3.78987 9.03994 3.69987 8.99994C3.51987 8.91994 3.30987 8.91994 3.12987 8.99994C3.03987 9.03994 2.95987 9.08991 2.88987 9.15991L1.14987 10.9C0.859873 11.19 0.859873 11.67 1.14987 11.96C1.43987 12.25 1.91987 12.25 2.20987 11.96L2.66987 11.4999V11.9999C2.66987 17.5199 7.15987 22.01 12.6799 22.01C15.7299 22.01 18.5799 20.64 20.4899 18.26C20.7399 17.94 20.6899 17.46 20.3599 17.2Z" fill="#292D32"/>
<path d="M16.1199 11.64C16.3899 11.24 16.5399 10.77 16.5399 10.25C16.5399 8.92 15.3699 7.75 14.0399 7.75H13.2199V6.75C13.2199 6.34 12.8799 6 12.4699 6C12.0599 6 11.7199 6.34 11.7199 6.75V7.75H9.66992C9.25992 7.75 8.91992 8.09 8.91992 8.5V12V15.5C8.91992 15.91 9.25992 16.25 9.66992 16.25H11.7199V17.25C11.7199 17.66 12.0599 18 12.4699 18C12.8799 18 13.2199 17.66 13.2199 17.25V16.25H14.6699C16.1899 16.25 17.4199 15.13 17.4199 13.75C17.4199 12.86 16.8999 12.08 16.1199 11.64ZM10.4199 9.25H14.0399C14.5899 9.25 15.0399 9.8 15.0399 10.25C15.0399 10.8 14.5899 11.25 14.0399 11.25H10.4199V9.25ZM14.6699 14.75H10.4199V12.75H14.0399H14.6699C15.3599 12.75 15.9199 13.2 15.9199 13.75C15.9199 14.3 15.3599 14.75 14.6699 14.75Z" fill="#292D32"/>
</svg>
