<svg width="25" height="24" viewBox="0 0 25 24" fill="none" xmlns="http://www.w3.org/2000/svg">
<path opacity="0.4" fill-rule="evenodd" clip-rule="evenodd" d="M23.6699 15.22C24.0841 15.22 24.4199 15.5558 24.4199 15.97C24.4199 20.2542 20.9541 23.72 16.6699 23.72C16.3997 23.72 16.1504 23.5746 16.0173 23.3395C15.8841 23.1044 15.8878 22.8158 16.0268 22.5841L17.0768 20.8341C17.2899 20.4789 17.7506 20.3637 18.1058 20.5769C18.461 20.79 18.5762 21.2507 18.363 21.6058L18.0917 22.058C20.8608 21.4156 22.9199 18.9365 22.9199 15.97C22.9199 15.5558 23.2557 15.22 23.6699 15.22Z" fill="#292D32"/>
<path opacity="0.4" fill-rule="evenodd" clip-rule="evenodd" d="M7.24812 1.88191C4.47902 2.52434 2.41992 5.00339 2.41992 7.96997C2.41992 8.38418 2.08414 8.71997 1.66992 8.71997C1.25571 8.71997 0.919922 8.38418 0.919922 7.96997C0.919922 3.68576 4.38571 0.219971 8.66992 0.219971C8.94013 0.219971 9.18944 0.365315 9.32257 0.600446C9.4557 0.835578 9.45206 1.12414 9.31304 1.35584L8.26304 3.10584C8.04993 3.46103 7.58924 3.5762 7.23405 3.36309C6.87887 3.14998 6.76369 2.68928 6.9768 2.3341L7.24812 1.88191Z" fill="#292D32"/>
<path opacity="0.4" d="M15.5199 15.33C15.5199 18.74 12.7599 21.4999 9.34993 21.4999C5.93993 21.4999 3.17993 18.74 3.17993 15.33C3.17993 11.92 5.93993 9.15991 9.34993 9.15991C9.50993 9.15991 9.65993 9.16993 9.82993 9.17993C12.8599 9.40993 15.2799 11.8299 15.5099 14.8599C15.5099 15.0099 15.5199 15.16 15.5199 15.33Z" fill="#292D32"/>
<path d="M22.1698 8.66998C22.1698 12.08 19.4098 14.84 15.9998 14.84H15.5098C15.2798 11.81 12.8598 9.38997 9.82983 9.15997V8.66998C9.82983 5.25998 12.5898 2.5 15.9998 2.5C19.4098 2.5 22.1698 5.25998 22.1698 8.66998Z" fill="#292D32"/>
<path d="M11.79 15.0099C11.91 14.7599 11.98 14.49 11.98 14.2C11.98 13.2 11.1 12.3199 10.1 12.3199H9.84004V11.9399C9.84004 11.5299 9.50004 11.1899 9.09004 11.1899C8.68004 11.1899 8.34004 11.5299 8.34004 11.9399V12.3199H7.29004C6.88004 12.3199 6.54004 12.6599 6.54004 13.0699V15.3199V17.5699C6.54004 17.9799 6.88004 18.3199 7.29004 18.3199H8.34004V18.7C8.34004 19.11 8.68004 19.45 9.09004 19.45C9.50004 19.45 9.84004 19.11 9.84004 18.7V18.3199H10.5C11.62 18.3199 12.54 17.4799 12.54 16.4399C12.54 15.8699 12.24 15.3499 11.79 15.0099ZM8.04004 13.8199H10.1C10.31 13.8199 10.48 14.05 10.48 14.2C10.48 14.41 10.31 14.58 10.1 14.58H8.04004V13.8199ZM10.5 16.83H8.03004V16.08H10.09H10.49C10.81 16.08 11.03 16.28 11.03 16.46C11.03 16.64 10.82 16.83 10.5 16.83Z" fill="#292D32"/>
</svg>
