<svg width="25" height="24" viewBox="0 0 25 24" fill="none" xmlns="http://www.w3.org/2000/svg">
<path opacity="0.4" d="M22.6699 7.53986V16.4599C22.6699 18.7499 20.8099 20.5999 18.5199 20.5999H6.81992C4.52992 20.5999 2.66992 18.7499 2.66992 16.4599V7.53986C2.66992 5.24986 4.52992 3.3999 6.81992 3.3999H18.5199C20.8099 3.3999 22.6699 5.24986 22.6699 7.53986Z" fill="#292D32"/>
<path d="M9.91992 12.75H5.91992C5.50992 12.75 5.16992 12.41 5.16992 12C5.16992 11.59 5.50992 11.25 5.91992 11.25H9.91992C10.3299 11.25 10.6699 11.59 10.6699 12C10.6699 12.41 10.3299 12.75 9.91992 12.75Z" fill="#292D32"/>
<path d="M19.3099 11.67C19.4499 11.39 19.5399 11.08 19.5399 10.75C19.5399 9.68 18.6099 8.75 17.5399 8.75H16.9299V8.25C16.9299 7.84 16.5899 7.5 16.1799 7.5C15.7699 7.5 15.4299 7.84 15.4299 8.25V8.75H14.4199H13.4199C13.0099 8.75 12.6699 9.09 12.6699 9.5C12.6699 9.91 13.0099 10.25 13.4199 10.25H13.6699V12V13.75H13.4199C13.0099 13.75 12.6699 14.09 12.6699 14.5C12.6699 14.91 13.0099 15.25 13.4199 15.25H14.4199H15.4299V15.75C15.4299 16.16 15.7699 16.5 16.1799 16.5C16.5899 16.5 16.9299 16.16 16.9299 15.75V15.25H17.9899C19.1899 15.25 20.1699 14.35 20.1699 13.25C20.1699 12.6 19.8299 12.04 19.3099 11.67ZM15.6099 10.25H17.5499C17.8099 10.25 18.0499 10.53 18.0499 10.75C18.0499 11.03 17.8299 11.25 17.5499 11.25H15.1699V10.25H15.6099ZM17.9899 13.75H15.6099H15.1699V12.75H17.5499H17.9999C18.3699 12.75 18.6799 12.98 18.6799 13.25C18.6799 13.52 18.3599 13.75 17.9899 13.75Z" fill="#292D32"/>
</svg>
