<svg width="25" height="24" viewBox="0 0 25 24" fill="none" xmlns="http://www.w3.org/2000/svg">
<path d="M13.1695 17.53C13.0295 17.68 12.8395 17.75 12.6395 17.75C12.4495 17.75 12.2595 17.68 12.1095 17.53L10.5195 15.94C11.1095 15.87 11.6795 15.73 12.2095 15.51L13.1695 16.47C13.4695 16.76 13.4695 17.24 13.1695 17.53Z" fill="#292D32"/>
<path d="M16.63 15.9301C16.49 16.0801 16.29 16.1601 16.1 16.1601C15.91 16.1601 15.72 16.0801 15.57 15.9401L14.04 14.4401C14.43 14.1301 14.79 13.7701 15.1 13.3701L16.62 14.8701C16.92 15.1601 16.92 15.6401 16.63 15.9301Z" fill="#292D32"/>
<path d="M18.1704 12.5299C18.0304 12.6799 17.8404 12.7499 17.6404 12.7499C17.4504 12.7499 17.2604 12.6799 17.1104 12.5299L16.1504 11.5699C16.3704 11.0399 16.5104 10.4699 16.5804 9.87988L18.1704 11.4699C18.4704 11.7599 18.4704 12.2399 18.1704 12.5299Z" fill="#292D32"/>
<path d="M16.5696 8.07C16.1196 4.64 13.1896 2 9.63965 2C5.76965 2 2.63965 5.13 2.63965 9C2.63965 12.55 5.27965 15.48 8.70965 15.93C9.00965 15.98 9.31965 16 9.63965 16C9.93965 16 10.2296 15.98 10.5196 15.94L10.1396 15.56C9.84965 15.26 9.84965 14.79 10.1396 14.5C10.4296 14.2 10.9096 14.2 11.1996 14.5L12.2096 15.51C12.8796 15.25 13.4896 14.89 14.0396 14.44L13.1396 13.55C12.8496 13.26 12.8396 12.79 13.1396 12.49C13.4296 12.2 13.8996 12.19 14.1996 12.48L15.0996 13.37C15.5396 12.83 15.8996 12.23 16.1496 11.57L15.1396 10.56C14.8496 10.26 14.8496 9.79 15.1396 9.5C15.4296 9.2 15.9096 9.2 16.1996 9.5L16.5796 9.88C16.6196 9.59 16.6396 9.3 16.6396 9C16.6396 8.68 16.6196 8.37 16.5696 8.07Z" fill="#292D32"/>
<path opacity="0.4" d="M22.64 15.0001C22.64 18.8701 19.51 22.0001 15.64 22.0001C12.09 22.0001 9.15996 19.3601 8.70996 15.9301C9.00996 15.9801 9.31996 16.0001 9.63996 16.0001C9.93996 16.0001 10.23 15.9801 10.52 15.9401L12.11 17.5301C12.26 17.6801 12.45 17.7501 12.64 17.7501C12.84 17.7501 13.03 17.6801 13.17 17.5301C13.47 17.2401 13.47 16.7601 13.17 16.4701L12.21 15.5101C12.88 15.2501 13.49 14.8901 14.04 14.4401L15.57 15.9401C15.72 16.0801 15.91 16.1601 16.1 16.1601C16.29 16.1601 16.49 16.0801 16.63 15.9301C16.92 15.6401 16.92 15.1601 16.62 14.8701L15.1 13.3701C15.54 12.8301 15.9 12.2301 16.15 11.5701L17.11 12.5301C17.26 12.6801 17.45 12.7501 17.64 12.7501C17.84 12.7501 18.03 12.6801 18.17 12.5301C18.47 12.2401 18.47 11.7601 18.17 11.4701L16.58 9.88007C16.62 9.59007 16.64 9.30007 16.64 9.00007C16.64 8.68007 16.62 8.37007 16.57 8.07007C20 8.52007 22.64 11.4501 22.64 15.0001Z" fill="#292D32"/>
</svg>
