<svg width="25" height="24" viewBox="0 0 25 24" fill="none" xmlns="http://www.w3.org/2000/svg">
<path opacity="0.58" d="M24.6699 0H0.669922V24H24.6699V0Z" fill="white"/>
<path d="M17.6699 11C17.1199 11 16.6699 10.55 16.6699 10V9C16.6699 7 15.6699 6 13.6699 6H9.66992C7.66992 6 6.66992 7 6.66992 9V15C6.66992 17 7.66992 18 9.66992 18H15.6699C17.6699 18 18.6699 17 18.6699 15V12C18.6699 11.45 18.2199 11 17.6699 11ZM10.6699 9.25H12.6699C13.0799 9.25 13.4199 9.59 13.4199 10C13.4199 10.41 13.0799 10.75 12.6699 10.75H10.6699C10.2599 10.75 9.91992 10.41 9.91992 10C9.91992 9.59 10.2599 9.25 10.6699 9.25ZM14.6699 14.75H10.6699C10.2599 14.75 9.91992 14.41 9.91992 14C9.91992 13.59 10.2599 13.25 10.6699 13.25H14.6699C15.0799 13.25 15.4199 13.59 15.4199 14C15.4199 14.41 15.0799 14.75 14.6699 14.75Z" fill="#292D32"/>
<path opacity="0.4" d="M16.8597 2H8.48969C4.84968 2 2.67969 4.17 2.67969 7.81V16.18C2.67969 19.82 4.84968 21.99 8.48969 21.99H16.8597C20.4997 21.99 22.6697 19.82 22.6697 16.18V7.81C22.6697 4.17 20.4997 2 16.8597 2Z" fill="#292D32"/>
</svg>
