<svg width="25" height="24" viewBox="0 0 25 24" fill="none" xmlns="http://www.w3.org/2000/svg">
<path opacity="0.4" d="M12.6699 22C18.1928 22 22.6699 17.5228 22.6699 12C22.6699 6.47715 18.1928 2 12.6699 2C7.14707 2 2.66992 6.47715 2.66992 12C2.66992 17.5228 7.14707 22 12.6699 22Z" fill="#292D32"/>
<path fill-rule="evenodd" clip-rule="evenodd" d="M12.7885 6.00216C13.3692 5.72427 13.9366 6.01769 14.2799 6.30377L16.338 8.02214C16.3385 8.02256 16.339 8.02298 16.3395 8.02341C16.9749 8.5507 17.0062 9.48518 16.3836 10.0455L14.2466 12.0049L16.3836 13.9644C17.0062 14.5247 16.9749 15.4591 16.3395 15.9864C16.339 15.9869 16.3385 15.9873 16.338 15.9877L14.2805 17.7056L14.2788 17.707C13.9356 17.992 13.3735 18.276 12.7981 18.0067C12.2212 17.7367 12.0798 17.121 12.0798 16.6699V13.9918L9.76664 16.1127C9.46134 16.3927 8.98691 16.3721 8.70697 16.0668C8.42704 15.7615 8.4476 15.2871 8.7529 15.0071L12.0271 12.0049L8.7529 9.00274C8.4476 8.7228 8.42704 8.24837 8.70697 7.94307C8.98691 7.63777 9.46134 7.61721 9.76664 7.89714L12.0798 10.0181V7.33993C12.0798 6.89698 12.2138 6.27721 12.7885 6.00216ZM13.5798 13.4286L15.2397 14.9506L13.5798 16.3366V13.4286ZM13.5798 10.5813V7.6733L15.2397 9.05926L13.5798 10.5813Z" fill="#292D32"/>
</svg>
