<svg width="25" height="24" viewBox="0 0 25 24" fill="none" xmlns="http://www.w3.org/2000/svg">
<path opacity="0.4" d="M13.2802 2.21C12.9202 1.93 12.4202 1.93 12.0602 2.21C10.1602 3.66 4.5502 8.39 4.5802 13.9C4.5802 18.36 8.21024 22 12.6802 22C17.1502 22 20.7802 18.37 20.7802 13.91C20.7902 8.48 15.1702 3.67 13.2802 2.21Z" fill="#292D32"/>
<path d="M20.7599 14.2C20.7399 14.81 20.6499 15.41 20.4899 15.99L13.4199 19.43V21.97C13.1699 21.99 12.9199 22 12.6699 22C12.4199 22 12.1699 21.99 11.9199 21.97V2.31C11.9699 2.27 12.0099 2.24 12.0499 2.21C12.4199 1.93 12.9199 1.93 13.2799 2.21C13.3199 2.24 13.3699 2.28 13.4199 2.32V7.76L17.2 5.92C17.53 6.3 17.8399 6.69 18.1499 7.1C18.1099 7.14 18.0699 7.17 18.0199 7.19L13.4199 9.43V12.76L19.7099 9.7C19.7199 9.7 19.7199 9.69 19.7299 9.69C19.9499 10.14 20.1399 10.6 20.2899 11.08L13.4199 14.43V17.76L20.0399 14.54L20.7599 14.2Z" fill="#292D32"/>
</svg>
