<svg width="25" height="24" viewBox="0 0 25 24" fill="none" xmlns="http://www.w3.org/2000/svg">
<path d="M17.6699 4.96V12.08C17.6699 14.07 16.2599 14.84 14.5299 13.8L13.2099 13C12.9099 12.82 12.4299 12.82 12.1299 13L10.8099 13.8C9.07992 14.84 7.66992 14.07 7.66992 12.08V4.99C7.67992 3 8.67992 2 10.6699 2H14.6699C16.6499 2 17.6499 2.99 17.6699 4.96Z" fill="#292D32"/>
<path opacity="0.4" d="M22.6699 11.9V14.93C22.6699 19.98 20.6699 22 15.6699 22H9.66992C4.66992 22 2.66992 19.98 2.66992 14.93V11.9C2.66992 7.65996 4.07992 5.55996 7.48992 4.98996H7.66992V12.08C7.66992 14.07 9.07992 14.84 10.8099 13.8L12.1299 13C12.4299 12.82 12.9099 12.82 13.2099 13L14.5299 13.8C16.2599 14.84 17.6699 14.07 17.6699 12.08V4.95996C21.2099 5.47996 22.6699 7.58996 22.6699 11.9Z" fill="#292D32"/>
</svg>
