<svg width="25" height="24" viewBox="0 0 25 24" fill="none" xmlns="http://www.w3.org/2000/svg">
<path opacity="0.4" d="M21.1699 7V15H7.01992C5.44992 15 4.16992 16.28 4.16992 17.85V7C4.16992 3 5.16992 2 9.16992 2H16.1699C20.1699 2 21.1699 3 21.1699 7Z" fill="#292D32"/>
<path d="M21.1699 15V18.5C21.1699 20.43 19.5999 22 17.6699 22H7.66992C5.73992 22 4.16992 20.43 4.16992 18.5V17.85C4.16992 16.28 5.44992 15 7.01992 15H21.1699Z" fill="#292D32"/>
<path d="M16.6699 7.75H8.66992C8.25992 7.75 7.91992 7.41 7.91992 7C7.91992 6.59 8.25992 6.25 8.66992 6.25H16.6699C17.0799 6.25 17.4199 6.59 17.4199 7C17.4199 7.41 17.0799 7.75 16.6699 7.75Z" fill="#292D32"/>
<path d="M13.6699 11.25H8.66992C8.25992 11.25 7.91992 10.91 7.91992 10.5C7.91992 10.09 8.25992 9.75 8.66992 9.75H13.6699C14.0799 9.75 14.4199 10.09 14.4199 10.5C14.4199 10.91 14.0799 11.25 13.6699 11.25Z" fill="#292D32"/>
</svg>
