<svg width="25" height="24" viewBox="0 0 25 24" fill="none" xmlns="http://www.w3.org/2000/svg">
<path opacity="0.4" d="M20.0198 5.65995L13.7298 2.27C13.0698 1.91 12.2698 1.91 11.5998 2.27L5.30984 5.65995C4.84984 5.90995 4.56982 6.39998 4.56982 6.93998C4.56982 7.47998 4.84984 7.96995 5.30984 8.21995L11.5998 11.61C11.9298 11.79 12.2998 11.88 12.6598 11.88C13.0198 11.88 13.3898 11.79 13.7198 11.61L20.0098 8.21995C20.4698 7.96995 20.7498 7.47998 20.7498 6.93998C20.7698 6.39998 20.4798 5.90995 20.0198 5.65995Z" fill="#292D32"/>
<path opacity="0.4" d="M10.5701 12.7899L4.72012 9.85989C4.27012 9.62989 3.75013 9.65989 3.32013 9.91989C2.89013 10.1799 2.64014 10.6399 2.64014 11.1399V16.6699C2.64014 17.6299 3.17012 18.4899 4.03012 18.9199L9.88013 21.8399C10.0801 21.9399 10.3001 21.9899 10.5201 21.9899C10.7801 21.9899 11.0401 21.9199 11.2701 21.7699C11.7001 21.5099 11.9501 21.0499 11.9501 20.5499V15.0199C11.9601 14.0799 11.4301 13.2199 10.5701 12.7899Z" fill="#292D32"/>
<path opacity="0.4" d="M22.6999 11.1502V15.7401C22.6899 15.7301 22.6799 15.7101 22.6699 15.7001C22.6699 15.6901 22.6599 15.6801 22.6499 15.6701C22.6099 15.6101 22.5599 15.5501 22.5099 15.5001C22.4999 15.4901 22.4899 15.4702 22.4799 15.4602C21.6699 14.5602 20.4799 14.0001 19.1699 14.0001C17.9099 14.0001 16.7599 14.5201 15.9399 15.3601C15.1499 16.1701 14.6699 17.2801 14.6699 18.5001C14.6699 19.3401 14.9099 20.1401 15.3199 20.8201C15.4899 21.1101 15.6999 21.3701 15.9299 21.6101L15.4599 21.8501C15.2599 21.9501 15.0399 22.0001 14.8199 22.0001C14.5599 22.0001 14.2999 21.9302 14.0599 21.7802C13.6399 21.5202 13.3799 21.0601 13.3799 20.5601V15.0401C13.3799 14.0801 13.9099 13.2201 14.7699 12.7901L20.6199 9.87013C21.0699 9.64013 21.5899 9.66012 22.0199 9.93012C22.4399 10.1901 22.6999 10.6502 22.6999 11.1502Z" fill="#292D32"/>
<path d="M22.6499 15.67C21.8299 14.66 20.5799 14.02 19.1699 14.02C18.1099 14.02 17.1299 14.39 16.3599 15.01C15.3199 15.83 14.6699 17.1 14.6699 18.52C14.6699 19.36 14.9099 20.16 15.3199 20.84C15.5899 21.29 15.9299 21.68 16.3299 22H16.3399C17.1099 22.64 18.0999 23.02 19.1699 23.02C20.3099 23.02 21.3399 22.6 22.1299 21.9C22.4799 21.6 22.7799 21.24 23.0199 20.84C23.4299 20.16 23.6699 19.36 23.6699 18.52C23.6699 17.44 23.2899 16.44 22.6499 15.67ZM21.4299 17.96L19.0299 20.18C18.8899 20.31 18.6999 20.38 18.5199 20.38C18.3299 20.38 18.1399 20.31 17.9899 20.16L16.8799 19.05C16.5899 18.76 16.5899 18.28 16.8799 17.99C17.1699 17.7 17.6499 17.7 17.9399 17.99L18.5399 18.59L20.4099 16.86C20.7099 16.58 21.1899 16.6 21.4699 16.9C21.7599 17.21 21.7399 17.68 21.4299 17.96Z" fill="#292D32"/>
</svg>
