<svg width="25" height="24" viewBox="0 0 25 24" fill="none" xmlns="http://www.w3.org/2000/svg">
<path opacity="0.4" d="M20.7698 6.93998C20.7698 7.47998 20.4798 7.96995 20.0198 8.21995L18.2798 9.15995L16.7998 9.94999L13.7298 11.61C13.3998 11.79 13.0398 11.88 12.6698 11.88C12.2998 11.88 11.9398 11.79 11.6098 11.61L5.31982 8.21995C4.85982 7.96995 4.56982 7.47998 4.56982 6.93998C4.56982 6.39998 4.85982 5.90995 5.31982 5.65995L7.28983 4.59996L8.85983 3.74998L11.6098 2.27C12.2698 1.91 13.0698 1.91 13.7298 2.27L20.0198 5.65995C20.4798 5.90995 20.7698 6.39998 20.7698 6.93998Z" fill="#292D32"/>
<path opacity="0.4" d="M10.5701 12.7899L4.72012 9.85989C4.27012 9.62989 3.75013 9.65989 3.32013 9.91989C2.89013 10.1799 2.64014 10.6399 2.64014 11.1399V16.6699C2.64014 17.6299 3.17012 18.4899 4.03012 18.9199L9.88013 21.8399C10.0801 21.9399 10.3001 21.9899 10.5201 21.9899C10.7801 21.9899 11.0401 21.9199 11.2701 21.7699C11.7001 21.5099 11.9501 21.0499 11.9501 20.5499V15.0199C11.9601 14.0799 11.4301 13.2199 10.5701 12.7899Z" fill="#292D32"/>
<path opacity="0.4" d="M22.6999 11.1502V16.6801C22.6999 17.6301 22.1699 18.4901 21.3099 18.9201L15.4599 21.8501C15.2599 21.9501 15.0399 22.0001 14.8199 22.0001C14.5599 22.0001 14.2999 21.9302 14.0599 21.7802C13.6399 21.5202 13.3799 21.0601 13.3799 20.5601V15.0401C13.3799 14.0801 13.9099 13.2201 14.7699 12.7901L16.9199 11.7201L18.4199 10.9701L20.6199 9.87013C21.0699 9.64013 21.5899 9.66012 22.0199 9.93012C22.4399 10.1901 22.6999 10.6502 22.6999 11.1502Z" fill="#292D32"/>
<path d="M23.27 21.6398L22.51 20.8798C22.91 20.2798 23.14 19.5597 23.14 18.7897C23.14 16.6797 21.43 14.9697 19.32 14.9697C17.21 14.9697 15.5 16.6797 15.5 18.7897C15.5 20.8997 17.21 22.6097 19.32 22.6097C20.09 22.6097 20.81 22.3797 21.41 21.9797L22.17 22.7397C22.32 22.8897 22.52 22.9697 22.72 22.9697C22.92 22.9697 23.12 22.8897 23.27 22.7397C23.57 22.4297 23.57 21.9398 23.27 21.6398Z" fill="#292D32"/>
</svg>
