<svg width="25" height="24" viewBox="0 0 25 24" fill="none" xmlns="http://www.w3.org/2000/svg">
<path opacity="0.4" d="M21.7104 7.19L12.6704 12.42L3.63037 7.19C4.03037 6.45 4.61037 5.8 5.26037 5.44L10.6004 2.48C11.7404 1.84 13.6004 1.84 14.7404 2.48L20.0804 5.44C20.7304 5.8 21.3104 6.45 21.7104 7.19Z" fill="#292D32"/>
<path opacity="0.6" d="M12.6705 12.4199V21.9999C11.9205 21.9999 11.1705 21.8399 10.6005 21.5199L5.26055 18.5599C4.05055 17.8899 3.06055 16.2099 3.06055 14.8299V9.16994C3.06055 8.52994 3.28055 7.82994 3.63055 7.18994L12.6705 12.4199Z" fill="#292D32"/>
<path d="M22.2804 9.16994V14.8299C22.2804 16.2099 21.2904 17.8899 20.0804 18.5599L14.7404 21.5199C14.1704 21.8399 13.4204 21.9999 12.6704 21.9999V12.4199L21.7104 7.18994C22.0604 7.82994 22.2804 8.52994 22.2804 9.16994Z" fill="#292D32"/>
</svg>
