<svg width="25" height="24" viewBox="0 0 25 24" fill="none" xmlns="http://www.w3.org/2000/svg">
<path d="M21.76 6.98002C20.91 6.04002 19.49 5.57002 17.43 5.57002H17.19V5.53002C17.19 3.85002 17.19 1.77002 13.43 1.77002H11.91C8.14996 1.77002 8.14996 3.86002 8.14996 5.53002V5.58002H7.90996C5.83996 5.58002 4.42996 6.05002 3.57996 6.99002C2.58996 8.09002 2.61996 9.57002 2.71996 10.58L2.72996 10.65L2.82996 11.7C2.83996 11.71 2.85996 11.73 2.87996 11.74C3.20996 11.96 3.54996 12.18 3.90996 12.38C4.04996 12.47 4.19996 12.55 4.34996 12.63C6.05996 13.57 7.93996 14.2 9.84996 14.51C9.93996 15.45 10.35 16.55 12.54 16.55C14.73 16.55 15.16 15.46 15.23 14.49C17.27 14.16 19.24 13.45 21.02 12.41C21.08 12.38 21.12 12.35 21.17 12.32C21.63 12.06 22.06 11.78 22.48 11.47C22.5 11.46 22.52 11.44 22.53 11.42L22.57 11.06L22.62 10.59C22.63 10.53 22.63 10.48 22.64 10.41C22.72 9.40002 22.7 8.02002 21.76 6.98002ZM13.76 13.83C13.76 14.89 13.76 15.05 12.53 15.05C11.3 15.05 11.3 14.86 11.3 13.84V12.58H13.76V13.83ZM9.57996 5.57002V5.53002C9.57996 3.83002 9.57996 3.20002 11.91 3.20002H13.43C15.76 3.20002 15.76 3.84002 15.76 5.53002V5.58002H9.57996V5.57002Z" fill="#292D32"/>
<path opacity="0.4" d="M21.1701 12.2999C21.1201 12.3299 21.0701 12.3599 21.0201 12.3899C19.2401 13.4299 17.2701 14.1299 15.2301 14.4699C15.1501 15.4299 14.7301 16.5299 12.5401 16.5299C10.3501 16.5299 9.93008 15.4399 9.85008 14.4899C7.94008 14.1899 6.06008 13.5599 4.35008 12.6099C4.20008 12.5299 4.05008 12.4499 3.91008 12.3599C3.55008 12.1599 3.21008 11.9399 2.88008 11.7199C2.86008 11.7099 2.84008 11.6899 2.83008 11.6799L3.44008 18.1899C3.65008 20.1799 4.47008 22.2299 8.87008 22.2299H16.4901C20.8901 22.2299 21.7101 20.1799 21.9201 18.1799L22.5501 11.3999C22.5401 11.4199 22.5201 11.4399 22.5001 11.4499C22.0701 11.7599 21.6301 12.0499 21.1701 12.2999Z" fill="#292D32"/>
</svg>
