<svg width="25" height="24" viewBox="0 0 25 24" fill="none" xmlns="http://www.w3.org/2000/svg">
<path d="M10.1699 19.5V18H5.16992C4.61992 18 4.11992 17.78 3.75992 17.41C3.38992 17.05 3.16992 16.55 3.16992 16C3.16992 14.97 3.96992 14.11 4.97992 14.01C5.03992 14 5.09992 14 5.16992 14H20.1699C20.2399 14 20.2999 14 20.3599 14.01C20.8399 14.05 21.2599 14.26 21.5799 14.59C21.9899 14.99 22.2099 15.56 22.1599 16.18C22.0699 17.23 21.1199 18 20.0599 18H15.1699V19.5C15.1699 20.88 14.0499 22 12.6699 22C11.2899 22 10.1699 20.88 10.1699 19.5Z" fill="#292D32"/>
<path opacity="0.4" d="M20.8401 5.3L20.3601 14.01C20.3001 14 20.2401 14 20.1701 14H5.17008C5.10008 14 5.04008 14 4.98008 14.01L4.50008 5.3C4.32008 3.53 5.71008 2 7.48008 2H17.8601C19.6301 2 21.0201 3.53 20.8401 5.3Z" fill="#292D32"/>
<path d="M9.41016 2V7C9.41016 7.41 9.07016 7.75 8.66016 7.75C8.25016 7.75 7.91016 7.41 7.91016 7V2H9.41016Z" fill="#292D32"/>
<path d="M13.4199 2V4C13.4199 4.41 13.0799 4.75 12.6699 4.75C12.2599 4.75 11.9199 4.41 11.9199 4V2H13.4199Z" fill="#292D32"/>
</svg>
