<svg width="25" height="24" viewBox="0 0 25 24" fill="none" xmlns="http://www.w3.org/2000/svg">
<path opacity="0.4" d="M16.8599 2.00024H8.47992C4.83992 2.00024 2.66992 4.17024 2.66992 7.81024V16.1802C2.66992 19.8302 4.83992 22.0002 8.47992 22.0002H16.8499C20.4899 22.0002 22.6599 19.8302 22.6599 16.1902V7.81024C22.6699 4.17024 20.4999 2.00024 16.8599 2.00024Z" fill="#292D32"/>
<path d="M22.5002 3.55022C21.4502 6.16022 19.0702 9.57022 16.7902 11.8002C16.4602 9.74022 14.8202 8.13022 12.7402 7.84022C14.9802 5.56022 18.4102 3.14022 21.0302 2.08022C21.4902 1.90022 21.9602 2.04022 22.2402 2.33022C22.5502 2.63022 22.6902 3.09022 22.5002 3.55022Z" fill="#292D32"/>
<path opacity="0.4" d="M16.7896 11.7903C16.3896 12.1803 15.9896 12.5403 15.6096 12.8403L14.0396 14.1003C13.8396 14.2403 13.6396 14.3603 13.4196 14.4603C13.4196 14.3103 13.3996 14.1603 13.3896 14.0003C13.2996 13.3403 12.9996 12.7103 12.4596 12.1703C11.9096 11.6303 11.2496 11.3203 10.5796 11.2303C10.4196 11.2103 10.2496 11.2103 10.0996 11.2103C10.1896 10.9603 10.3196 10.7303 10.4896 10.5403L11.7396 8.97032C12.0396 8.59032 12.3796 8.21032 12.7496 7.83032C14.8196 8.12032 16.4696 9.74032 16.7896 11.7903Z" fill="#292D32"/>
<path d="M13.4195 14.4702C13.4195 15.3502 13.0795 16.1902 12.4495 16.8202C11.9595 17.3102 11.3095 17.6502 10.5095 17.7502L8.54951 17.9702C7.47951 18.0902 6.55951 17.1702 6.67951 16.0902L6.89951 14.1302C7.08951 12.3802 8.54951 11.2602 10.0995 11.2302C10.2495 11.2202 10.4195 11.2302 10.5795 11.2502C11.2595 11.3402 11.9095 11.6502 12.4595 12.1902C12.9895 12.7202 13.2995 13.3602 13.3895 14.0202C13.3995 14.1702 13.4195 14.3202 13.4195 14.4702Z" fill="#292D32"/>
</svg>
