<svg width="25" height="24" viewBox="0 0 25 24" fill="none" xmlns="http://www.w3.org/2000/svg">
<path d="M11.2699 4.15002V6H9.78992C8.17992 6 7.36993 6.80998 7.36993 8.41998V18H4.81995C3.38995 18 2.66992 17.28 2.66992 15.85V4.15002C2.66992 2.72002 3.38995 2 4.81995 2H9.11993C10.5499 2 11.2699 2.72002 11.2699 4.15002Z" fill="#292D32"/>
<path opacity="0.4" d="M18.0401 8.41998V19.58C18.0401 21.19 17.2401 22 15.6301 22H9.7901C8.1801 22 7.37012 21.19 7.37012 19.58V8.41998C7.37012 6.80998 8.1801 6 9.7901 6H15.6301C17.2401 6 18.0401 6.80998 18.0401 8.41998Z" fill="#292D32"/>
<path d="M22.6698 4.15002V15.85C22.6698 17.28 21.9498 18 20.5198 18H18.0398V8.41998C18.0398 6.80998 17.2398 6 15.6298 6H14.0698V4.15002C14.0698 2.72002 14.7898 2 16.2198 2H20.5198C21.9498 2 22.6698 2.72002 22.6698 4.15002Z" fill="#292D32"/>
<path d="M14.6699 11.75H10.6699C10.2599 11.75 9.91992 11.41 9.91992 11C9.91992 10.59 10.2599 10.25 10.6699 10.25H14.6699C15.0799 10.25 15.4199 10.59 15.4199 11C15.4199 11.41 15.0799 11.75 14.6699 11.75Z" fill="#292D32"/>
<path d="M14.6699 14.75H10.6699C10.2599 14.75 9.91992 14.41 9.91992 14C9.91992 13.59 10.2599 13.25 10.6699 13.25H14.6699C15.0799 13.25 15.4199 13.59 15.4199 14C15.4199 14.41 15.0799 14.75 14.6699 14.75Z" fill="#292D32"/>
<path d="M13.4199 19V22H11.9199V19C11.9199 18.59 12.2599 18.25 12.6699 18.25C13.0799 18.25 13.4199 18.59 13.4199 19Z" fill="#292D32"/>
</svg>
