<svg width="25" height="24" viewBox="0 0 25 24" fill="none" xmlns="http://www.w3.org/2000/svg">
<path opacity="0.4" d="M17.5699 22H7.76993C6.06993 22 4.66992 20.61 4.66992 18.9V5.10001C4.66992 3.40001 6.05993 2 7.76993 2H17.5699C19.2699 2 20.6699 3.39001 20.6699 5.10001V18.9C20.6699 20.61 19.2799 22 17.5699 22Z" fill="#292D32"/>
<path d="M20.6699 8H4.66992V13H20.6699V8Z" fill="#292D32"/>
<path d="M8.66992 18.7501C8.58992 18.7501 8.50992 18.7401 8.42992 18.7301C8.34992 18.7101 8.26993 18.6901 8.18993 18.6501C8.11993 18.6201 8.03992 18.5801 7.97992 18.5401C7.90992 18.4901 7.83992 18.4401 7.78992 18.3801C7.54992 18.1501 7.41992 17.8301 7.41992 17.5001C7.41992 17.1701 7.54992 16.8501 7.78992 16.6201C7.83992 16.5601 7.90992 16.5101 7.97992 16.4601C8.03992 16.4201 8.11993 16.3801 8.18993 16.3501C8.26993 16.3101 8.34992 16.2901 8.42992 16.2701C8.82992 16.1901 9.25993 16.3301 9.54993 16.6201C9.78993 16.8501 9.91992 17.1701 9.91992 17.5001C9.91992 17.8301 9.78993 18.1501 9.54993 18.3801C9.31993 18.6201 8.99992 18.7501 8.66992 18.7501Z" fill="#292D32"/>
<path d="M16.6699 18.7501C16.5899 18.7501 16.5099 18.7401 16.4299 18.7301C16.3499 18.7101 16.2699 18.6901 16.1899 18.6501C16.1199 18.6201 16.0399 18.5801 15.9799 18.5401C15.9099 18.4901 15.8399 18.4401 15.7899 18.3801C15.5499 18.1501 15.4199 17.8301 15.4199 17.5001C15.4199 17.1701 15.5499 16.8501 15.7899 16.6201C15.8399 16.5601 15.9099 16.5101 15.9799 16.4601C16.0399 16.4201 16.1199 16.3801 16.1899 16.3501C16.2699 16.3101 16.3499 16.2901 16.4299 16.2701C16.5899 16.2401 16.7499 16.2401 16.9199 16.2701C16.9899 16.2901 17.0699 16.3101 17.1499 16.3501C17.2199 16.3801 17.2999 16.4201 17.3599 16.4601C17.4299 16.5101 17.4999 16.5601 17.5499 16.6201C17.7899 16.8501 17.9199 17.1701 17.9199 17.5001C17.9199 17.8301 17.7899 18.1501 17.5499 18.3801C17.4999 18.4401 17.4299 18.4901 17.3599 18.5401C17.2999 18.5801 17.2199 18.6201 17.1499 18.6501C17.0699 18.6901 16.9899 18.7101 16.9199 18.7301C16.8299 18.7401 16.7499 18.7501 16.6699 18.7501Z" fill="#292D32"/>
<path d="M15.1699 5.75H10.1699C9.75992 5.75 9.41992 5.41 9.41992 5C9.41992 4.59 9.75992 4.25 10.1699 4.25H15.1699C15.5799 4.25 15.9199 4.59 15.9199 5C15.9199 5.41 15.5799 5.75 15.1699 5.75Z" fill="#292D32"/>
</svg>
