<svg width="25" height="24" viewBox="0 0 25 24" fill="none" xmlns="http://www.w3.org/2000/svg">
<path d="M22.6699 8.5C22.6699 12.09 19.7599 15 16.1699 15C15.9999 15 15.8199 14.99 15.6499 14.98C15.3999 11.81 12.8599 9.27 9.68991 9.02C9.67991 8.85 9.66992 8.67 9.66992 8.5C9.66992 4.91 12.5799 2 16.1699 2C19.7599 2 22.6699 4.91 22.6699 8.5Z" fill="#292D32"/>
<path opacity="0.4" d="M15.6699 15.5C15.6699 19.09 12.7599 22 9.16992 22C5.57992 22 2.66992 19.09 2.66992 15.5C2.66992 11.91 5.57992 9 9.16992 9C9.33992 9 9.51991 9.01 9.68991 9.02C12.8599 9.27 15.3999 11.81 15.6499 14.98C15.6599 15.15 15.6699 15.33 15.6699 15.5Z" fill="#292D32"/>
<path d="M8.28992 14.62L9.16992 13L10.0499 14.62L11.6699 15.5L10.0499 16.38L9.16992 18L8.28992 16.38L6.66992 15.5L8.28992 14.62Z" fill="#292D32"/>
</svg>
