<svg width="25" height="24" viewBox="0 0 25 24" fill="none" xmlns="http://www.w3.org/2000/svg">
<path d="M17.4201 3.56V2C17.4201 1.59 17.0801 1.25 16.6701 1.25C16.2601 1.25 15.9201 1.59 15.9201 2V3.5H9.42014V2C9.42014 1.59 9.08014 1.25 8.67014 1.25C8.26014 1.25 7.92014 1.59 7.92014 2V3.56C5.22014 3.81 3.91015 5.42 3.71015 7.81C3.69015 8.1 3.93015 8.34 4.21015 8.34H21.1301C21.4201 8.34 21.6601 8.09 21.6301 7.81C21.4301 5.42 20.1201 3.81 17.4201 3.56Z" fill="#292D32"/>
<path opacity="0.4" d="M20.6699 9.84009C21.2199 9.84009 21.6699 10.2901 21.6699 10.8401V17.0001C21.6699 20.0001 20.1699 22.0001 16.6699 22.0001H8.66992C5.16992 22.0001 3.66992 20.0001 3.66992 17.0001V10.8401C3.66992 10.2901 4.11992 9.84009 4.66992 9.84009H20.6699Z" fill="#292D32"/>
<path d="M9.16992 14.9999C9.03992 14.9999 8.90992 14.9699 8.78992 14.9199C8.66992 14.8699 8.55993 14.7999 8.45993 14.7099C8.36993 14.6099 8.29991 14.4999 8.24991 14.3799C8.19991 14.2599 8.16992 14.1299 8.16992 13.9999C8.16992 13.8699 8.19991 13.7399 8.24991 13.6199C8.29991 13.4999 8.36993 13.3899 8.45993 13.2899C8.55993 13.1999 8.66992 13.1299 8.78992 13.0799C9.02992 12.9799 9.30993 12.9799 9.54993 13.0799C9.66993 13.1299 9.77991 13.1999 9.87991 13.2899C9.96991 13.3899 10.0399 13.4999 10.0899 13.6199C10.1399 13.7399 10.1699 13.8699 10.1699 13.9999C10.1699 14.1299 10.1399 14.2599 10.0899 14.3799C10.0399 14.4999 9.96991 14.6099 9.87991 14.7099C9.77991 14.7999 9.66993 14.8699 9.54993 14.9199C9.42993 14.9699 9.29992 14.9999 9.16992 14.9999Z" fill="#292D32"/>
<path d="M12.6699 15.0001C12.5399 15.0001 12.4099 14.9701 12.2899 14.9201C12.1699 14.8701 12.0599 14.8001 11.9599 14.7101C11.7799 14.5201 11.6699 14.2601 11.6699 14.0001C11.6699 13.7401 11.7799 13.4801 11.9599 13.2901C12.0599 13.2001 12.1699 13.1301 12.2899 13.0801C12.5299 12.9701 12.8099 12.9701 13.0499 13.0801C13.1699 13.1301 13.2799 13.2001 13.3799 13.2901C13.5599 13.4801 13.6699 13.7401 13.6699 14.0001C13.6699 14.2601 13.5599 14.5201 13.3799 14.7101C13.2799 14.8001 13.1699 14.8701 13.0499 14.9201C12.9299 14.9701 12.7999 15.0001 12.6699 15.0001Z" fill="#292D32"/>
<path d="M9.16992 18.4999C9.03992 18.4999 8.90992 18.4699 8.78992 18.4199C8.66992 18.3699 8.55993 18.2999 8.45993 18.2099C8.27993 18.0199 8.16992 17.7599 8.16992 17.4999C8.16992 17.2399 8.27993 16.9799 8.45993 16.7899C8.55993 16.6999 8.66992 16.6299 8.78992 16.5799C9.02992 16.4799 9.30993 16.4799 9.54993 16.5799C9.66993 16.6299 9.77991 16.6999 9.87991 16.7899C10.0599 16.9799 10.1699 17.2399 10.1699 17.4999C10.1699 17.7599 10.0599 18.0199 9.87991 18.2099C9.77991 18.2999 9.66993 18.3699 9.54993 18.4199C9.42993 18.4699 9.29992 18.4999 9.16992 18.4999Z" fill="#292D32"/>
</svg>
