<svg width="25" height="24" viewBox="0 0 25 24" fill="none" xmlns="http://www.w3.org/2000/svg">
<path opacity="0.4" d="M20.6699 9.84009C21.2199 9.84009 21.6699 10.2901 21.6699 10.8401V17.0001C21.6699 20.0001 20.1699 22.0001 16.6699 22.0001H8.66992C5.16992 22.0001 3.66992 20.0001 3.66992 17.0001V10.8401C3.66992 10.2901 4.11992 9.84009 4.66992 9.84009H20.6699Z" fill="#292D32"/>
<path d="M17.4202 3.56V2C17.4202 1.59 17.0802 1.25 16.6702 1.25C16.2602 1.25 15.9202 1.59 15.9202 2V3.5H9.42016V2C9.42016 1.59 9.08016 1.25 8.67016 1.25C8.26016 1.25 7.92016 1.59 7.92016 2V3.56C5.22016 3.81 3.91015 5.42 3.71015 7.81C3.69015 8.1 3.93015 8.34 4.21015 8.34H21.1302C21.4202 8.34 21.6602 8.09 21.6302 7.81C21.4302 5.42 20.1202 3.81 17.4202 3.56Z" fill="#292D32"/>
<path d="M16.3298 18.47L15.5898 17.73C15.9698 17.15 16.1998 16.45 16.1998 15.7C16.1998 13.66 14.5398 12 12.4998 12C10.4598 12 8.7998 13.66 8.7998 15.7C8.7998 17.74 10.4598 19.4 12.4998 19.4C13.2498 19.4 13.9498 19.17 14.5298 18.79L15.2698 19.53C15.4198 19.68 15.6098 19.75 15.7998 19.75C15.9898 19.75 16.1798 19.68 16.3298 19.53C16.6198 19.24 16.6198 18.76 16.3298 18.47Z" fill="#292D32"/>
</svg>
