<svg width="25" height="24" viewBox="0 0 25 24" fill="none" xmlns="http://www.w3.org/2000/svg">
<path d="M17.4202 3.56V2C17.4202 1.59 17.0802 1.25 16.6702 1.25C16.2602 1.25 15.9202 1.59 15.9202 2V3.5H9.42016V2C9.42016 1.59 9.08016 1.25 8.67016 1.25C8.26016 1.25 7.92016 1.59 7.92016 2V3.56C5.22016 3.81 3.91015 5.42 3.71015 7.81C3.69015 8.1 3.93015 8.34 4.21015 8.34H21.1302C21.4202 8.34 21.6602 8.09 21.6302 7.81C21.4302 5.42 20.1202 3.81 17.4202 3.56Z" fill="#292D32"/>
<path opacity="0.4" d="M21.6699 10.8401V12.5801C21.6699 13.1901 21.1299 13.6601 20.5299 13.5601C20.2499 13.5201 19.9599 13.4901 19.6699 13.4901C16.6399 13.4901 14.1699 15.9601 14.1699 18.9901C14.1699 19.4501 14.3499 20.0901 14.5399 20.6701C14.7599 21.3201 14.2799 21.9901 13.5899 21.9901H8.66992C5.16992 21.9901 3.66992 19.9901 3.66992 16.9901V10.8301C3.66992 10.2801 4.11992 9.83008 4.66992 9.83008H20.6699C21.2199 9.84008 21.6699 10.2901 21.6699 10.8401Z" fill="#292D32"/>
<path d="M9.16992 14.9999C8.90992 14.9999 8.64992 14.8899 8.45992 14.7099C8.27992 14.5199 8.16992 14.2599 8.16992 13.9999C8.16992 13.7399 8.27992 13.4799 8.45992 13.2899C8.68992 13.0599 9.03992 12.9499 9.36992 13.0199C9.42992 13.0299 9.48992 13.0499 9.54992 13.0799C9.60992 13.0999 9.66992 13.1299 9.72992 13.1699C9.77992 13.2099 9.82992 13.2499 9.87992 13.2899C10.0599 13.4799 10.1699 13.7399 10.1699 13.9999C10.1699 14.2599 10.0599 14.5199 9.87992 14.7099C9.82992 14.7499 9.77992 14.7899 9.72992 14.8299C9.66992 14.8699 9.60992 14.8999 9.54992 14.9199C9.48992 14.9499 9.42992 14.9699 9.36992 14.9799C9.29992 14.9899 9.22992 14.9999 9.16992 14.9999Z" fill="#292D32"/>
<path d="M12.6699 14.9999C12.4099 14.9999 12.1499 14.8899 11.9599 14.7099C11.7799 14.5199 11.6699 14.2599 11.6699 13.9999C11.6699 13.7399 11.7799 13.48 11.9599 13.29C12.3399 12.92 13.0099 12.92 13.3799 13.29C13.5599 13.48 13.6699 13.7399 13.6699 13.9999C13.6699 14.2599 13.5599 14.5199 13.3799 14.7099C13.1899 14.8899 12.9299 14.9999 12.6699 14.9999Z" fill="#292D32"/>
<path d="M9.16992 18.4999C8.90992 18.4999 8.64992 18.3899 8.45992 18.2099C8.27992 18.0199 8.16992 17.7599 8.16992 17.4999C8.16992 17.2399 8.27992 16.9799 8.45992 16.7899C8.55992 16.6999 8.65992 16.6299 8.78992 16.5799C9.15992 16.4199 9.59992 16.5099 9.87992 16.7899C10.0599 16.9799 10.1699 17.2399 10.1699 17.4999C10.1699 17.7599 10.0599 18.0199 9.87992 18.2099C9.68992 18.3899 9.42992 18.4999 9.16992 18.4999Z" fill="#292D32"/>
<path d="M22.4999 16.17C20.9399 14.61 18.3999 14.61 16.8399 16.17C15.2799 17.73 15.2799 20.27 16.8399 21.83C18.3999 23.39 20.9399 23.39 22.4999 21.83C24.0599 20.27 24.0599 17.73 22.4999 16.17ZM21.7399 19.56C21.6099 19.7 21.4199 19.78 21.2099 19.78H20.4699V20.56C20.4699 20.77 20.3899 20.95 20.2499 21.09C20.1099 21.23 19.9299 21.31 19.7199 21.31C19.3099 21.31 18.9699 20.97 18.9699 20.56V19.78H18.2199C17.8099 19.78 17.4699 19.45 17.4699 19.03C17.4699 18.62 17.8099 18.28 18.2199 18.28H18.9699V17.57C18.9699 17.16 19.2999 16.82 19.7199 16.82C20.1299 16.82 20.4699 17.16 20.4699 17.57V18.28H21.2099C21.6299 18.28 21.9599 18.62 21.9599 19.03C21.9599 19.24 21.8799 19.43 21.7399 19.56Z" fill="#292D32"/>
</svg>
