<svg width="25" height="24" viewBox="0 0 25 24" fill="none" xmlns="http://www.w3.org/2000/svg">
<path d="M22.4398 2.23C22.1398 1.93 21.6498 1.93 21.3498 2.23L2.8998 20.69C2.5998 20.99 2.5998 21.48 2.8998 21.78C3.0498 21.92 3.2398 22 3.4398 22C3.6398 22 3.8298 21.92 3.9798 21.77L22.4398 3.31C22.7498 3.01 22.7498 2.53 22.4398 2.23Z" fill="#292D32"/>
<path opacity="0.4" d="M22.4196 9.99L21.8996 18.25C21.7696 20.31 20.6696 22 17.9096 22H7.42965C6.83965 22 6.32965 21.92 5.88965 21.78L20.9196 6.75C21.8996 7.48 22.5096 8.67 22.4196 9.99Z" fill="#292D32"/>
<path opacity="0.4" d="M18.6701 6L4.15009 20.52C3.70009 19.89 3.49009 19.1 3.44009 18.25L2.92009 9.99C2.78009 7.83 4.50009 6 6.67009 6C7.28009 6 7.84009 5.65 8.12009 5.11L8.84009 3.66C9.30009 2.75 10.5001 2 11.5301 2H13.8201C14.8401 2 16.0401 2.75 16.5001 3.66L17.2201 5.11C17.5001 5.65 18.0601 6 18.6701 6Z" fill="#292D32"/>
<path d="M10.1699 10.75H7.16992C6.75992 10.75 6.41992 10.41 6.41992 10C6.41992 9.59 6.75992 9.25 7.16992 9.25H10.1699C10.5799 9.25 10.9199 9.59 10.9199 10C10.9199 10.41 10.5799 10.75 10.1699 10.75Z" fill="#292D32"/>
<path d="M13.2398 11.43L9.3498 15.32C9.3198 15.14 9.2998 14.94 9.2998 14.75C9.2998 12.89 10.8098 11.38 12.6698 11.38C12.8598 11.38 13.0598 11.4 13.2398 11.43Z" fill="#292D32"/>
<path d="M16.0499 14.75C16.0499 16.61 14.5299 18.12 12.6699 18.12C11.7999 18.12 11.0099 17.79 10.4199 17.25L15.1699 12.5C15.7199 13.09 16.0499 13.88 16.0499 14.75Z" fill="#292D32"/>
</svg>
