<svg width="25" height="24" viewBox="0 0 25 24" fill="none" xmlns="http://www.w3.org/2000/svg">
<path opacity="0.4" d="M22.8495 13.66C22.6995 12.01 22.2595 10.25 19.0495 10.25H6.28952C3.07952 10.25 2.64952 12.01 2.48952 13.66L1.92952 19.75C1.85952 20.51 2.10952 21.27 2.62952 21.84C3.15952 22.42 3.90952 22.75 4.70952 22.75H6.58952C8.20952 22.75 8.51952 21.82 8.71952 21.21L8.91952 20.61C9.14952 19.92 9.20952 19.75 10.1095 19.75H15.2295C16.1295 19.75 16.1595 19.85 16.4195 20.61L16.6195 21.21C16.8195 21.82 17.1295 22.75 18.7495 22.75H20.6295C21.4195 22.75 22.1795 22.42 22.7095 21.84C23.2295 21.27 23.4795 20.51 23.4095 19.75L22.8495 13.66Z" fill="#292D32"/>
<path d="M21.6699 7.25008H20.6699C20.6599 7.25008 20.6599 7.25008 20.6499 7.25008L20.2699 5.44008C19.9099 3.69008 19.1599 2.08008 16.1799 2.08008H13.4199H11.9199H9.15992C6.17992 2.08008 5.42992 3.69008 5.06992 5.44008L4.68992 7.25008C4.67992 7.25008 4.67992 7.25008 4.66992 7.25008H3.66992C3.25992 7.25008 2.91992 7.59008 2.91992 8.00008C2.91992 8.41008 3.25992 8.75008 3.66992 8.75008H4.37992L3.95992 10.7501C4.49992 10.4401 5.24992 10.2501 6.28992 10.2501H19.0499C20.0899 10.2501 20.8399 10.4401 21.3799 10.7501L20.9599 8.75008H21.6699C22.0799 8.75008 22.4199 8.41008 22.4199 8.00008C22.4199 7.59008 22.0799 7.25008 21.6699 7.25008Z" fill="#292D32"/>
<path d="M9.66992 15.75H6.66992C6.25992 15.75 5.91992 15.41 5.91992 15C5.91992 14.59 6.25992 14.25 6.66992 14.25H9.66992C10.0799 14.25 10.4199 14.59 10.4199 15C10.4199 15.41 10.0799 15.75 9.66992 15.75Z" fill="#292D32"/>
<path d="M18.6699 15.75H15.6699C15.2599 15.75 14.9199 15.41 14.9199 15C14.9199 14.59 15.2599 14.25 15.6699 14.25H18.6699C19.0799 14.25 19.4199 14.59 19.4199 15C19.4199 15.41 19.0799 15.75 18.6699 15.75Z" fill="#292D32"/>
</svg>
