<svg width="25" height="24" viewBox="0 0 25 24" fill="none" xmlns="http://www.w3.org/2000/svg">
<path opacity="0.4" d="M12.6699 15.7V16.31H2.66992V15.7C2.66992 13.94 3.10989 13.5 4.88989 13.5H10.45C12.23 13.5 12.6699 13.94 12.6699 15.7Z" fill="#292D32"/>
<path d="M2.66992 16.3101V17.8101V19.8001C2.66992 21.5601 3.10989 22.0001 4.88989 22.0001H10.45C12.23 22.0001 12.6699 21.5601 12.6699 19.8001V17.8101V16.3101H2.66992Z" fill="#292D32"/>
<g opacity="0.4">
<path fill-rule="evenodd" clip-rule="evenodd" d="M22.6699 14.25C23.0841 14.25 23.4199 14.5858 23.4199 15C23.4199 19.2842 19.9541 22.75 15.6699 22.75C15.3997 22.75 15.1504 22.6047 15.0173 22.3695C14.8841 22.1344 14.8878 21.8458 15.0268 21.6141L16.0768 19.8641C16.2899 19.5089 16.7506 19.3938 17.1058 19.6069C17.461 19.82 17.5761 20.2807 17.363 20.6359L17.0917 21.0881C19.8608 20.4456 21.9199 17.9666 21.9199 15C21.9199 14.5858 22.2557 14.25 22.6699 14.25Z" fill="#292D32"/>
<path fill-rule="evenodd" clip-rule="evenodd" d="M8.24813 2.91194C5.47902 3.55436 3.41992 6.03342 3.41992 9C3.41992 9.41421 3.08414 9.75 2.66992 9.75C2.25571 9.75 1.91992 9.41421 1.91992 9C1.91992 4.71579 5.38571 1.25 9.66992 1.25C9.94012 1.25 10.1894 1.39534 10.3226 1.63047C10.4557 1.8656 10.4521 2.15417 10.313 2.38587L9.26306 4.13587C9.04995 4.49105 8.58925 4.60623 8.23407 4.39312C7.87888 4.18001 7.7637 3.71932 7.97681 3.36413L8.24813 2.91194Z" fill="#292D32"/>
</g>
<path opacity="0.4" d="M23.6699 6.5H14.6699C14.6699 8.98 16.6899 11 19.1699 11C21.6599 11 23.6699 8.98 23.6699 6.5Z" fill="#292D32"/>
<path d="M23.6699 6.5C23.6699 4.01 21.6599 2 19.1699 2C16.6899 2 14.6699 4.01 14.6699 6.5H23.6699Z" fill="#292D32"/>
</svg>
