<svg width="25" height="24" viewBox="0 0 25 24" fill="none" xmlns="http://www.w3.org/2000/svg">
<path opacity="0.4" d="M19.6699 10.28V17.43C19.6399 20.28 18.8599 21 15.8899 21H6.44995C3.42995 21 2.66992 20.25 2.66992 17.27V10.28C2.66992 7.58005 3.29992 6.71005 5.66992 6.57005C5.90992 6.56005 6.16995 6.55005 6.44995 6.55005H15.8899C18.9099 6.55005 19.6699 7.30005 19.6699 10.28Z" fill="#292D32"/>
<path d="M22.6699 6.73V13.72C22.6699 16.42 22.0399 17.29 19.6699 17.43V10.28C19.6699 7.3 18.9099 6.55 15.8899 6.55H6.44995C6.16995 6.55 5.90992 6.56 5.66992 6.57C5.69992 3.72 6.47995 3 9.44995 3H18.8899C21.9099 3 22.6699 3.75 22.6699 6.73Z" fill="#292D32"/>
<path d="M7.63019 18.5601H5.91016C5.50016 18.5601 5.16016 18.2201 5.16016 17.8101C5.16016 17.4001 5.50016 17.0601 5.91016 17.0601H7.63019C8.04019 17.0601 8.38019 17.4001 8.38019 17.8101C8.38019 18.2201 8.05019 18.5601 7.63019 18.5601Z" fill="#292D32"/>
<path d="M13.2203 18.5601H9.78027C9.37027 18.5601 9.03027 18.2201 9.03027 17.8101C9.03027 17.4001 9.37027 17.0601 9.78027 17.0601H13.2203C13.6303 17.0601 13.9703 17.4001 13.9703 17.8101C13.9703 18.2201 13.6403 18.5601 13.2203 18.5601Z" fill="#292D32"/>
<path d="M19.6699 11.86H2.66992V13.36H19.6699V11.86Z" fill="#292D32"/>
</svg>
