<svg width="25" height="24" viewBox="0 0 25 24" fill="none" xmlns="http://www.w3.org/2000/svg">
<path d="M7.90992 2H6.00992C3.81992 2 2.66992 3.15 2.66992 5.33V7.23C2.66992 9.41 3.81992 10.56 5.99992 10.56H7.89992C10.0799 10.56 11.2299 9.41 11.2299 7.23V5.33C11.2399 3.15 10.0899 2 7.90992 2Z" fill="#292D32"/>
<path opacity="0.4" d="M19.3399 2H17.4399C15.2599 2 14.1099 3.15 14.1099 5.33V7.23C14.1099 9.41 15.2599 10.56 17.4399 10.56H19.3399C21.5199 10.56 22.6699 9.41 22.6699 7.23V5.33C22.6699 3.15 21.5199 2 19.3399 2Z" fill="#292D32"/>
<path d="M19.3399 13.4302H17.4399C15.2599 13.4302 14.1099 14.5802 14.1099 16.7602V18.6602C14.1099 20.8402 15.2599 21.9902 17.4399 21.9902H19.3399C21.5199 21.9902 22.6699 20.8402 22.6699 18.6602V16.7602C22.6699 14.5802 21.5199 13.4302 19.3399 13.4302Z" fill="#292D32"/>
<path opacity="0.4" d="M7.90992 13.4302H6.00992C3.81992 13.4302 2.66992 14.5802 2.66992 16.7602V18.6602C2.66992 20.8502 3.81992 22.0002 5.99992 22.0002H7.89992C10.0799 22.0002 11.2299 20.8502 11.2299 18.6702V16.7702C11.2399 14.5802 10.0899 13.4302 7.90992 13.4302Z" fill="#292D32"/>
</svg>
