<svg width="25" height="24" viewBox="0 0 25 24" fill="none" xmlns="http://www.w3.org/2000/svg">
<path opacity="0.58" d="M24.6699 0H0.669922V24H24.6699V0Z" fill="white"/>
<path opacity="0.4" d="M15.6699 16C19.5359 16 22.6699 12.866 22.6699 9C22.6699 5.13401 19.5359 2 15.6699 2C11.8039 2 8.66992 5.13401 8.66992 9C8.66992 12.866 11.8039 16 15.6699 16Z" fill="#292D32"/>
<path d="M9.66992 22C13.5359 22 16.6699 18.866 16.6699 15C16.6699 11.134 13.5359 8 9.66992 8C5.80393 8 2.66992 11.134 2.66992 15C2.66992 18.866 5.80393 22 9.66992 22Z" fill="#292D32"/>
</svg>
