<svg width="25" height="24" viewBox="0 0 25 24" fill="none" xmlns="http://www.w3.org/2000/svg">
<path d="M24.6699 0H0.669922V24H24.6699V0Z" fill="white"/>
<path opacity="0.4" d="M12.6699 22C18.1928 22 22.6699 17.5228 22.6699 12C22.6699 6.47715 18.1928 2 12.6699 2C7.14707 2 2.66992 6.47715 2.66992 12C2.66992 17.5228 7.14707 22 12.6699 22Z" fill="#292D32"/>
<path d="M12.67 18.1901C9.25998 18.1901 6.47998 15.4101 6.47998 12.0001C6.47998 8.59006 9.25998 5.81006 12.67 5.81006C14.02 5.81006 15.31 6.24006 16.39 7.05006C16.72 7.30006 16.79 7.77006 16.54 8.10006C16.29 8.43006 15.82 8.50006 15.49 8.25006C14.67 7.64006 13.7 7.31006 12.67 7.31006C10.09 7.31006 7.97998 9.41006 7.97998 12.0001C7.97998 14.5901 10.08 16.6901 12.67 16.6901C14.15 16.6901 15.51 16.0101 16.41 14.8301C16.66 14.5001 17.13 14.4401 17.46 14.6901C17.79 14.9401 17.85 15.4101 17.6 15.7401C16.42 17.2901 14.62 18.1901 12.67 18.1901Z" fill="#292D32"/>
<path d="M18.0899 11.34C18.7361 11.34 19.2599 10.8162 19.2599 10.17C19.2599 9.52383 18.7361 9 18.0899 9C17.4437 9 16.9199 9.52383 16.9199 10.17C16.9199 10.8162 17.4437 11.34 18.0899 11.34Z" fill="#292D32"/>
</svg>
