<svg width="25" height="24" viewBox="0 0 25 24" fill="none" xmlns="http://www.w3.org/2000/svg">
<path opacity="0.4" d="M16.8597 2H8.48969C4.84968 2 2.67969 4.17 2.67969 7.81V16.18C2.67969 19.82 4.84968 21.99 8.48969 21.99H16.8597C20.4997 21.99 22.6697 19.82 22.6697 16.18V7.81C22.6697 4.17 20.4997 2 16.8597 2Z" fill="#292D32"/>
<path d="M10.7802 11.15H8.13022C7.50022 11.15 6.99023 11.66 6.99023 12.29V17.41H10.7802V11.15Z" fill="#292D32"/>
<path opacity="0.4" d="M13.4305 6.59998H11.9105C11.2805 6.59998 10.7705 7.10999 10.7705 7.73999V17.4H14.5605V7.73999C14.5605 7.10999 14.0605 6.59998 13.4305 6.59998Z" fill="#292D32"/>
<path d="M17.2203 12.85H14.5703V17.4H18.3603V13.99C18.3503 13.36 17.8403 12.85 17.2203 12.85Z" fill="#292D32"/>
</svg>
