<svg width="25" height="24" viewBox="0 0 25 24" fill="none" xmlns="http://www.w3.org/2000/svg">
<path d="M21.6399 16H18.6999C17.4299 16 16.6699 16.76 16.6699 18.03V20.97C16.6699 22.24 17.4299 23 18.6999 23H21.6399C22.9099 23 23.6699 22.24 23.6699 20.97V18.03C23.6699 16.76 22.9099 16 21.6399 16ZM22.2999 18.45L19.9299 21.22C19.8399 21.33 19.6999 21.4 19.5599 21.4C19.5499 21.4 19.5499 21.4 19.5399 21.4C19.3999 21.4 19.2699 21.35 19.1699 21.25L18.0799 20.17C17.8799 19.97 17.8799 19.64 18.0799 19.44C18.2799 19.24 18.6099 19.23 18.8099 19.44L19.5099 20.13L21.5099 17.79C21.6999 17.57 22.0199 17.55 22.2399 17.73C22.4599 17.91 22.4799 18.24 22.2999 18.45Z" fill="#292D32"/>
<path opacity="0.4" d="M16.6699 20.97V18.03C16.6699 16.76 17.4299 16 18.6999 16H21.6399C22.0399 16 22.3799 16.08 22.6699 16.22C22.6699 16.21 22.6699 16.2 22.6699 16.18V7.81C22.6699 4.17 20.4999 2 16.8599 2H8.47992C4.83992 2 2.66992 4.17 2.66992 7.81V16.18C2.66992 19.83 4.83992 22 8.47992 22H16.8499C16.8599 22 16.8699 22 16.8899 22C16.7499 21.71 16.6699 21.37 16.6699 20.97Z" fill="#292D32"/>
<path d="M7.66992 14.25C7.25992 14.25 6.91992 13.91 6.91992 13.5V10.5C6.91992 10.09 7.25992 9.75 7.66992 9.75C8.07992 9.75 8.41992 10.09 8.41992 10.5V13.5C8.41992 13.91 8.07992 14.25 7.66992 14.25Z" fill="#292D32"/>
<path d="M12.6699 14.25C12.2599 14.25 11.9199 13.91 11.9199 13.5V10.5C11.9199 10.09 12.2599 9.75 12.6699 9.75C13.0799 9.75 13.4199 10.09 13.4199 10.5V13.5C13.4199 13.91 13.0799 14.25 12.6699 14.25Z" fill="#292D32"/>
<path d="M17.6699 14.25C17.2599 14.25 16.9199 13.91 16.9199 13.5V10.5C16.9199 10.09 17.2599 9.75 17.6699 9.75C18.0799 9.75 18.4199 10.09 18.4199 10.5V13.5C18.4199 13.91 18.0799 14.25 17.6699 14.25Z" fill="#292D32"/>
</svg>
