<svg width="25" height="24" viewBox="0 0 25 24" fill="none" xmlns="http://www.w3.org/2000/svg">
<path opacity="0.4" d="M16.91 3.65002H8.42996C5.95996 3.65002 3.95996 5.66002 3.95996 8.12002V17.53C3.95996 19.99 5.96996 22 8.42996 22H16.9C19.37 22 21.37 19.99 21.37 17.53V8.12002C21.38 5.65002 19.37 3.65002 16.91 3.65002Z" fill="#292D32"/>
<path d="M15.0199 2H10.3199C9.27993 2 8.42993 2.84 8.42993 3.88V4.82C8.42993 5.86 9.26993 6.7 10.3099 6.7H15.0199C16.0599 6.7 16.8999 5.86 16.8999 4.82V3.88C16.9099 2.84 16.0599 2 15.0199 2Z" fill="#292D32"/>
<path d="M15.6699 13.2499C15.2599 13.2499 14.9199 13.5899 14.9199 13.9999V15.1899L10.1999 10.4699C9.90986 10.1799 9.42986 10.1799 9.13986 10.4699C8.84986 10.7599 8.84986 11.2399 9.13986 11.5299L13.8599 16.2499H12.6699C12.2599 16.2499 11.9199 16.5899 11.9199 16.9999C11.9199 17.4099 12.2599 17.7499 12.6699 17.7499H15.6699C16.0799 17.7499 16.4199 17.4099 16.4199 16.9999V13.9999C16.4199 13.5899 16.0799 13.2499 15.6699 13.2499Z" fill="#292D32"/>
</svg>
