<svg width="25" height="24" viewBox="0 0 25 24" fill="none" xmlns="http://www.w3.org/2000/svg">
<path opacity="0.4" d="M16.91 3.65002H8.42996C5.95996 3.65002 3.95996 5.66002 3.95996 8.12002V17.53C3.95996 19.99 5.96996 22 8.42996 22H16.9C19.37 22 21.37 19.99 21.37 17.53V8.12002C21.38 5.65002 19.37 3.65002 16.91 3.65002Z" fill="#292D32"/>
<path d="M15.0199 2H10.3199C9.27993 2 8.42993 2.84 8.42993 3.88V4.82C8.42993 5.86 9.26993 6.7 10.3099 6.7H15.0199C16.0599 6.7 16.8999 5.86 16.8999 4.82V3.88C16.9099 2.84 16.0599 2 15.0199 2Z" fill="#292D32"/>
<path d="M16.1999 16.47L11.4799 11.75H12.6699C13.0799 11.75 13.4199 11.41 13.4199 11C13.4199 10.59 13.0799 10.25 12.6699 10.25H9.66992C9.25992 10.25 8.91992 10.59 8.91992 11V14C8.91992 14.41 9.25992 14.75 9.66992 14.75C10.0799 14.75 10.4199 14.41 10.4199 14V12.81L15.1399 17.53C15.2899 17.68 15.4799 17.75 15.6699 17.75C15.8599 17.75 16.0499 17.68 16.1999 17.53C16.4899 17.24 16.4899 16.76 16.1999 16.47Z" fill="#292D32"/>
</svg>
