<svg width="25" height="24" viewBox="0 0 25 24" fill="none" xmlns="http://www.w3.org/2000/svg">
<path opacity="0.4" d="M16.91 3.65002H8.42996C5.95996 3.65002 3.95996 5.66002 3.95996 8.12002V17.53C3.95996 19.99 5.96996 22 8.42996 22H16.9C19.37 22 21.37 19.99 21.37 17.53V8.12002C21.38 5.65002 19.37 3.65002 16.91 3.65002Z" fill="#292D32"/>
<path d="M15.0199 2H10.3199C9.27993 2 8.42993 2.84 8.42993 3.88V4.82C8.42993 5.86 9.26993 6.7 10.3099 6.7H15.0199C16.0599 6.7 16.8999 5.86 16.8999 4.82V3.88C16.9099 2.84 16.0599 2 15.0199 2Z" fill="#292D32"/>
<path d="M15.6699 12.95H8.66992C8.25992 12.95 7.91992 12.61 7.91992 12.2C7.91992 11.79 8.25992 11.45 8.66992 11.45H15.6699C16.0799 11.45 16.4199 11.79 16.4199 12.2C16.4199 12.61 16.0799 12.95 15.6699 12.95Z" fill="#292D32"/>
<path d="M13.0499 16.95H8.66992C8.25992 16.95 7.91992 16.61 7.91992 16.2C7.91992 15.79 8.25992 15.45 8.66992 15.45H13.0499C13.4599 15.45 13.7999 15.79 13.7999 16.2C13.7999 16.61 13.4599 16.95 13.0499 16.95Z" fill="#292D32"/>
</svg>
