<svg width="25" height="24" viewBox="0 0 25 24" fill="none" xmlns="http://www.w3.org/2000/svg">
<path opacity="0.4" d="M16.91 3.65002H8.42996C5.95996 3.65002 3.95996 5.66002 3.95996 8.12002V17.53C3.95996 19.99 5.96996 22 8.42996 22H16.9C19.37 22 21.37 19.99 21.37 17.53V8.12002C21.38 5.65002 19.37 3.65002 16.91 3.65002Z" fill="#292D32"/>
<path d="M15.0199 2H10.3199C9.27993 2 8.42993 2.84 8.42993 3.88V4.82C8.42993 5.86 9.26993 6.7 10.3099 6.7H15.0199C16.0599 6.7 16.8999 5.86 16.8999 4.82V3.88C16.9099 2.84 16.0599 2 15.0199 2Z" fill="#292D32"/>
<path d="M11.4799 16.95C11.2899 16.95 11.0999 16.88 10.9499 16.73L9.44992 15.23C9.15992 14.94 9.15992 14.46 9.44992 14.17C9.73992 13.88 10.2199 13.88 10.5099 14.17L11.4799 15.14L14.9499 11.67C15.2399 11.38 15.7199 11.38 16.0099 11.67C16.2999 11.96 16.2999 12.44 16.0099 12.73L12.0099 16.73C11.8699 16.88 11.6699 16.95 11.4799 16.95Z" fill="#292D32"/>
</svg>
