<svg width="25" height="24" viewBox="0 0 25 24" fill="none" xmlns="http://www.w3.org/2000/svg">
<path opacity="0.4" d="M22.4099 11.7401C21.7999 9.74005 20.2799 8.30005 18.3699 7.87005C17.8099 5.37005 16.2699 3.58005 14.0899 2.90005C11.7099 2.17005 8.94992 2.88005 7.21992 4.69005C5.68992 6.28005 5.18992 8.47005 5.77992 10.8001C3.64992 11.3201 2.66992 13.1801 2.66992 14.8601C2.66992 16.7401 3.89992 18.8501 6.63992 19.0401H9.16992V16.4101C9.16992 15.1401 9.92992 14.3801 11.1999 14.3801H14.1399C15.4099 14.3801 16.1699 15.1401 16.1699 16.4101V19.0401H16.9799C16.9899 19.0401 17.0099 19.0401 17.0199 19.0401C18.4399 19.0401 19.7999 18.5101 20.8399 17.5601C22.4699 16.1401 23.0699 13.9101 22.4099 11.7401Z" fill="#292D32"/>
<path d="M14.1399 14.3899H11.1999C9.92992 14.3899 9.16992 15.1499 9.16992 16.4199V19.3599C9.16992 20.6299 9.92992 21.3899 11.1999 21.3899H14.1399C15.4099 21.3899 16.1699 20.6299 16.1699 19.3599V16.4199C16.1699 15.1499 15.4099 14.3899 14.1399 14.3899ZM14.3399 18.0499L12.6699 19.9499L12.4699 20.1799C12.1999 20.4899 11.9699 20.4099 11.9699 19.9899V18.2099H11.2099C10.8599 18.2099 10.7699 17.9999 10.9999 17.7399L12.6699 15.8399L12.8699 15.6099C13.1399 15.2999 13.3699 15.3799 13.3699 15.7999V17.5799H14.1299C14.4799 17.5699 14.5699 17.7899 14.3399 18.0499Z" fill="#292D32"/>
</svg>
