<svg width="25" height="24" viewBox="0 0 25 24" fill="none" xmlns="http://www.w3.org/2000/svg">
<path opacity="0.4" d="M22.4099 11.7401C21.7999 9.74005 20.2799 8.30005 18.3699 7.87005C17.8099 5.37005 16.2699 3.58005 14.0899 2.90005C11.7099 2.17005 8.94992 2.88005 7.21992 4.69005C5.68992 6.28005 5.18992 8.47005 5.77992 10.8001C3.64992 11.3201 2.66992 13.1801 2.66992 14.8601C2.66992 16.7401 3.89992 18.8501 6.63992 19.0401H9.16992V16.4101C9.16992 15.1401 9.92992 14.3801 11.1999 14.3801H14.1399C15.4099 14.3801 16.1699 15.1401 16.1699 16.4101V19.0401H16.9799C16.9899 19.0401 17.0099 19.0401 17.0199 19.0401C18.4399 19.0401 19.7999 18.5101 20.8399 17.5601C22.4699 16.1401 23.0699 13.9101 22.4099 11.7401Z" fill="#292D32"/>
<path d="M14.1399 14.3899H11.1999C9.92992 14.3899 9.16992 15.1499 9.16992 16.4199V19.3599C9.16992 20.6299 9.92992 21.3899 11.1999 21.3899H14.1399C15.4099 21.3899 16.1699 20.6299 16.1699 19.3599V16.4199C16.1699 15.1499 15.4099 14.3899 14.1399 14.3899ZM12.3799 18.8399L11.1399 20.0699C11.0499 20.1599 10.9299 20.2099 10.8199 20.2099C10.6899 20.2099 10.5799 20.1599 10.4899 20.0699C10.3099 19.8899 10.3099 19.5999 10.4899 19.4199L11.7199 18.1799C11.9099 17.9999 12.1999 17.9999 12.3799 18.1799C12.5599 18.3599 12.5599 18.6599 12.3799 18.8399ZM12.3799 16.3599L11.1399 17.5999C11.0499 17.6899 10.9299 17.7399 10.8199 17.7399C10.6899 17.7399 10.5799 17.6899 10.4899 17.5999C10.3099 17.4199 10.3099 17.1199 10.4899 16.9399L11.7199 15.7099C11.9099 15.5299 12.1999 15.5299 12.3799 15.7099C12.5599 15.8899 12.5599 16.1799 12.3799 16.3599ZM14.8499 18.8399L13.6199 20.0699C13.5199 20.1599 13.4099 20.2099 13.2899 20.2099C13.1699 20.2099 13.0499 20.1599 12.9599 20.0699C12.7799 19.8899 12.7799 19.5999 12.9599 19.4199L14.1999 18.1799C14.3799 17.9999 14.6699 17.9999 14.8499 18.1799C15.0299 18.3599 15.0299 18.6599 14.8499 18.8399ZM14.8499 16.3599L13.6199 17.5999C13.5199 17.6899 13.4099 17.7399 13.2899 17.7399C13.1699 17.7399 13.0499 17.6899 12.9599 17.5999C12.7799 17.4199 12.7799 17.1199 12.9599 16.9399L14.1999 15.7099C14.3799 15.5299 14.6699 15.5299 14.8499 15.7099C15.0299 15.8899 15.0299 16.1799 14.8499 16.3599Z" fill="#292D32"/>
</svg>
