<svg width="25" height="24" viewBox="0 0 25 24" fill="none" xmlns="http://www.w3.org/2000/svg">
<path opacity="0.4" d="M21.2797 10.83C20.5097 9.90996 19.5197 9.30996 18.3697 9.04996C18.1097 7.88996 17.6597 6.88996 16.9997 6.05996C16.9797 6.02996 16.9597 5.99996 16.9397 5.97996C14.7397 3.31996 11.1397 3.32996 8.70969 4.70996C6.62969 5.89996 4.85969 8.40996 5.78969 11.99C3.65969 12.51 2.67969 14.37 2.67969 16.05C2.67969 17.93 3.90969 20.04 6.64969 20.24H16.9897C16.9997 20.24 17.0197 20.24 17.0297 20.24C18.4497 20.24 19.8097 19.71 20.8597 18.75C23.3697 16.53 23.0397 12.91 21.2797 10.83Z" fill="#292D32"/>
<path d="M22.4299 8.74001C22.4299 9.64001 22.1099 10.5 21.5299 11.16C21.4599 11.05 21.3699 10.94 21.2799 10.83C20.5199 9.92001 19.5199 9.30001 18.3699 9.05001C18.1199 7.89001 17.6599 6.90001 16.9999 6.07001C16.9899 6.04001 16.9599 6.01001 16.9399 5.99001C16.8399 5.87001 16.7299 5.76001 16.6299 5.65001C17.2399 5.23001 17.9399 5.01001 18.6999 5.01001C20.7599 5.01001 22.4299 6.68001 22.4299 8.74001Z" fill="#292D32"/>
</svg>
