<svg width="25" height="24" viewBox="0 0 25 24" fill="none" xmlns="http://www.w3.org/2000/svg">
<path d="M14.1399 14.3899H11.1999C9.92992 14.3899 9.16992 15.1499 9.16992 16.4199V19.3599C9.16992 20.6299 9.92992 21.3899 11.1999 21.3899H14.1399C15.4099 21.3899 16.1699 20.6299 16.1699 19.3599V16.4199C16.1699 15.1499 15.4099 14.3899 14.1399 14.3899ZM15.0799 18.3199C14.9799 18.4199 14.8299 18.4899 14.6699 18.4999H13.2599L13.2699 19.8899C13.2599 20.0599 13.1999 20.1999 13.0799 20.3199C12.9799 20.4199 12.8299 20.4899 12.6699 20.4899C12.3399 20.4899 12.0699 20.2199 12.0699 19.8899V18.4899L10.6699 18.4999C10.3399 18.4999 10.0699 18.2199 10.0699 17.8899C10.0699 17.5599 10.3399 17.2899 10.6699 17.2899L12.0699 17.2999V15.8999C12.0699 15.5699 12.3399 15.2899 12.6699 15.2899C12.9999 15.2899 13.2699 15.5699 13.2699 15.8999L13.2599 17.2899H14.6699C14.9999 17.2899 15.2699 17.5599 15.2699 17.8899C15.2599 18.0599 15.1899 18.1999 15.0799 18.3199Z" fill="#292D32"/>
<path opacity="0.4" d="M22.4099 11.7401C21.7999 9.74005 20.2799 8.30005 18.3699 7.87005C17.8099 5.37005 16.2699 3.58005 14.0899 2.90005C11.7099 2.17005 8.94992 2.88005 7.21992 4.69005C5.68992 6.28005 5.18992 8.47005 5.77992 10.8001C3.64992 11.3201 2.66992 13.1801 2.66992 14.8601C2.66992 16.7401 3.89992 18.8501 6.63992 19.0401H9.16992V16.4101C9.16992 15.1401 9.92992 14.3801 11.1999 14.3801H14.1399C15.4099 14.3801 16.1699 15.1401 16.1699 16.4101V19.0401H16.9799C16.9899 19.0401 17.0099 19.0401 17.0199 19.0401C18.4399 19.0401 19.7999 18.5101 20.8399 17.5601C22.4699 16.1401 23.0699 13.9101 22.4099 11.7401Z" fill="#292D32"/>
</svg>
