<svg width="25" height="24" viewBox="0 0 25 24" fill="none" xmlns="http://www.w3.org/2000/svg">
<path opacity="0.4" d="M16.8599 2H8.47992C4.83992 2 2.66992 4.17 2.66992 7.81V16.18C2.66992 19.83 4.83992 22 8.47992 22H16.8499C20.4899 22 22.6599 19.83 22.6599 16.19V7.81C22.6699 4.17 20.4999 2 16.8599 2Z" fill="#292D32"/>
<path d="M7.55983 15.75C7.27983 15.75 7.01983 15.6 6.88983 15.34C6.69983 14.97 6.84983 14.52 7.22983 14.33C8.09983 13.9 8.83983 13.24 9.36983 12.44C9.54983 12.17 9.54983 11.83 9.36983 11.56C8.82983 10.76 8.08983 10.1 7.22983 9.67002C6.84983 9.49002 6.69983 9.04002 6.88983 8.66002C7.06983 8.29002 7.51983 8.14002 7.88983 8.33002C8.98983 8.88002 9.92983 9.71002 10.6098 10.73C11.1198 11.5 11.1198 12.5 10.6098 13.27C9.92983 14.29 8.98983 15.12 7.88983 15.67C7.78983 15.72 7.66983 15.75 7.55983 15.75Z" fill="#292D32"/>
<path d="M17.6699 15.75H13.6699C13.2599 15.75 12.9199 15.41 12.9199 15C12.9199 14.59 13.2599 14.25 13.6699 14.25H17.6699C18.0799 14.25 18.4199 14.59 18.4199 15C18.4199 15.41 18.0799 15.75 17.6699 15.75Z" fill="#292D32"/>
</svg>
