<svg width="25" height="24" viewBox="0 0 25 24" fill="none" xmlns="http://www.w3.org/2000/svg">
<path opacity="0.4" d="M16.8599 2H8.48993C4.83993 2 2.66992 4.17 2.66992 7.81V16.18C2.66992 19.82 4.83992 21.99 8.47992 21.99H16.8499C20.4899 21.99 22.6599 19.82 22.6599 16.18V7.81C22.6699 4.17 20.4999 2 16.8599 2Z" fill="#292D32"/>
<path opacity="0.6" d="M13.8699 14.3999C13.8699 15.4599 13.4099 16.4199 12.6699 17.0799C12.0299 17.6599 11.1899 17.9999 10.2699 17.9999C8.2799 17.9999 6.66992 16.3899 6.66992 14.3999C6.66992 12.7399 7.79995 11.3399 9.31995 10.9299C9.72995 11.9699 10.6199 12.7799 11.7199 13.0799C12.0199 13.1599 12.3399 13.2099 12.6699 13.2099C12.9999 13.2099 13.3199 13.1699 13.6199 13.0799C13.7799 13.4799 13.8699 13.9299 13.8699 14.3999Z" fill="#292D32"/>
<path d="M16.2703 9.6C16.2703 10.07 16.1803 10.52 16.0203 10.93C15.6103 11.97 14.7203 12.78 13.6203 13.08C13.3203 13.16 13.0003 13.21 12.6703 13.21C12.3403 13.21 12.0203 13.17 11.7203 13.08C10.6203 12.78 9.73031 11.98 9.32031 10.93C9.16031 10.52 9.07031 10.07 9.07031 9.6C9.07031 7.61 10.6803 6 12.6703 6C14.6603 6 16.2703 7.61 16.2703 9.6Z" fill="#292D32"/>
<path opacity="0.4" d="M18.6699 14.3999C18.6699 16.3899 17.0599 17.9999 15.0699 17.9999C14.1499 17.9999 13.3099 17.6499 12.6699 17.0799C13.4099 16.4299 13.8699 15.4699 13.8699 14.3999C13.8699 13.9299 13.7799 13.4799 13.6199 13.0699C14.7199 12.7699 15.6099 11.9699 16.0199 10.9199C17.5399 11.3399 18.6699 12.7399 18.6699 14.3999Z" fill="#292D32"/>
</svg>
