<svg width="25" height="24" viewBox="0 0 25 24" fill="none" xmlns="http://www.w3.org/2000/svg">
<path opacity="0.4" fill-rule="evenodd" clip-rule="evenodd" d="M22.6699 14.25C23.0841 14.25 23.4199 14.5858 23.4199 15C23.4199 19.2842 19.9541 22.75 15.6699 22.75C15.3997 22.75 15.1504 22.6047 15.0173 22.3695C14.8841 22.1344 14.8878 21.8458 15.0268 21.6141L16.0768 19.8641C16.2899 19.5089 16.7506 19.3938 17.1058 19.6069C17.461 19.82 17.5761 20.2807 17.363 20.6359L17.0917 21.0881C19.8608 20.4456 21.9199 17.9666 21.9199 15C21.9199 14.5858 22.2557 14.25 22.6699 14.25Z" fill="#292D32"/>
<path opacity="0.4" fill-rule="evenodd" clip-rule="evenodd" d="M8.24813 2.91194C5.47902 3.55436 3.41992 6.03342 3.41992 9C3.41992 9.41421 3.08414 9.75 2.66992 9.75C2.25571 9.75 1.91992 9.41421 1.91992 9C1.91992 4.71579 5.38571 1.25 9.66992 1.25C9.94012 1.25 10.1894 1.39534 10.3226 1.63047C10.4557 1.8656 10.4521 2.15417 10.313 2.38587L9.26306 4.13587C9.04995 4.49105 8.58925 4.60623 8.23407 4.39312C7.87888 4.18001 7.7637 3.71932 7.97681 3.36413L8.24813 2.91194Z" fill="#292D32"/>
<path opacity="0.4" d="M12.6699 15.7V16.31H2.66992V15.7C2.66992 13.94 3.10992 13.5 4.88992 13.5H10.4499C12.2299 13.5 12.6699 13.94 12.6699 15.7Z" fill="#292D32"/>
<path d="M2.66992 16.3101V17.8101V19.8001C2.66992 21.5601 3.10992 22.0001 4.88992 22.0001H10.4499C12.2299 22.0001 12.6699 21.5601 12.6699 19.8001V17.8101V16.3101H2.66992Z" fill="#292D32"/>
<path opacity="0.4" d="M22.6699 4.2V4.81H12.6699V4.2C12.6699 2.44 13.1099 2 14.8899 2H20.4499C22.2299 2 22.6699 2.44 22.6699 4.2Z" fill="#292D32"/>
<path d="M12.6699 4.81006V6.31006V8.30006C12.6699 10.0601 13.1099 10.5001 14.8899 10.5001H20.4499C22.2299 10.5001 22.6699 10.0601 22.6699 8.30006V6.31006V4.81006H12.6699Z" fill="#292D32"/>
</svg>
