<svg width="25" height="24" viewBox="0 0 25 24" fill="none" xmlns="http://www.w3.org/2000/svg">
<path opacity="0.4" d="M22.7002 12.03C22.7002 15.06 21.3502 17.78 19.2102 19.62C18.8302 19.94 18.4302 20.24 18.0002 20.51C16.4702 21.47 14.6502 22.03 12.7002 22.03C7.1802 22.03 2.7002 17.55 2.7002 12.03C2.7002 9.00003 4.0502 6.28003 6.1902 4.44003C6.5702 4.12003 6.9702 3.82003 7.4002 3.55003C8.93019 2.59003 10.7502 2.03003 12.7002 2.03003C18.2202 2.03003 22.7002 6.51003 22.7002 12.03Z" fill="#292D32"/>
<path d="M15.7699 7.68005L15.7599 12.23C15.7599 12.54 15.5699 12.81 15.2899 12.92C15.1999 12.96 15.0999 12.98 15.0099 12.98C14.8099 12.98 14.6199 12.9 14.4799 12.76L6.28994 4.56005C6.24994 4.52005 6.21994 4.48005 6.18994 4.44005C6.56994 4.12005 6.96994 3.82005 7.39994 3.55005L14.2599 10.42L14.2699 7.68005C14.2699 7.27005 14.6099 6.93005 15.0199 6.93005C15.4399 6.93005 15.7699 7.27005 15.7699 7.68005Z" fill="#292D32"/>
<path d="M19.2099 19.6201C18.8299 19.9401 18.4299 20.2401 17.9999 20.5101L11.1399 13.6401L11.1299 16.3801C11.1299 16.7901 10.7899 17.1301 10.3799 17.1301C9.95988 17.1301 9.62988 16.7901 9.62988 16.3801L9.63988 11.8301C9.63988 11.5201 9.82988 11.2501 10.1099 11.1401C10.3799 11.0201 10.7099 11.0801 10.9199 11.3001L19.1099 19.5001C19.1499 19.5401 19.1799 19.5801 19.2099 19.6201Z" fill="#292D32"/>
</svg>
