<svg width="25" height="24" viewBox="0 0 25 24" fill="none" xmlns="http://www.w3.org/2000/svg">
<path opacity="0.4" d="M17.7697 2H13.5697C10.1197 2 8.71969 3.37 8.67969 6.75H11.7697C15.9697 6.75 17.9197 8.7 17.9197 12.9V15.99C21.2997 15.95 22.6697 14.55 22.6697 11.1V6.9C22.6697 3.4 21.2697 2 17.7697 2Z" fill="#292D32"/>
<path d="M11.7699 8H7.56992C4.06992 8 2.66992 9.4 2.66992 12.9V17.1C2.66992 20.6 4.06992 22 7.56992 22H11.7699C15.2699 22 16.6699 20.6 16.6699 17.1V12.9C16.6699 9.4 15.2699 8 11.7699 8ZM12.9599 13.65L9.24992 17.36C9.10992 17.5 8.92992 17.57 8.73992 17.57C8.54992 17.57 8.36992 17.5 8.22992 17.36L6.36992 15.5C6.08992 15.22 6.08992 14.77 6.36992 14.49C6.64992 14.21 7.09992 14.21 7.37992 14.49L8.72992 15.84L11.9399 12.63C12.2199 12.35 12.6699 12.35 12.9499 12.63C13.2299 12.91 13.2399 13.37 12.9599 13.65Z" fill="#292D32"/>
</svg>
