<svg width="25" height="24" viewBox="0 0 25 24" fill="none" xmlns="http://www.w3.org/2000/svg">
<path opacity="0.4" d="M20.6699 9V11.92L19.8899 11.47C19.2499 11.1 18.4499 11.21 17.9299 11.71C17.8199 11.81 17.7299 11.93 17.6499 12.06L17.5899 12.17C17.4799 12.36 17.3899 12.41 17.3799 12.42C17.3599 12.41 17.2599 12.36 17.1499 12.16L17.0899 12.06C16.8699 11.68 16.5199 11.42 16.0999 11.31C15.6699 11.19 15.2299 11.25 14.8599 11.47L13.9499 12C13.5399 12.23 13.2499 12.61 13.1299 13.06C13.0099 13.52 13.0699 13.99 13.2999 14.4C13.4099 14.58 13.4099 14.69 13.4099 14.71C13.3999 14.72 13.2999 14.78 13.0799 14.78C12.1099 14.78 11.3199 15.57 11.3199 16.53V17.47C11.3199 18.43 12.1099 19.22 13.0799 19.22C13.2999 19.22 13.3999 19.28 13.3999 19.29C13.4099 19.3 13.4099 19.42 13.2999 19.6C13.2299 19.73 13.1699 19.86 13.1399 20H9.66992C6.90992 20 4.66992 17.76 4.66992 15V9C4.66992 6.24 6.90992 4 9.66992 4H15.6699C18.4299 4 20.6699 6.24 20.6699 9Z" fill="#292D32"/>
<path d="M17.9302 9.73999V11.71C17.8202 11.81 17.7302 11.93 17.6502 12.06L17.5902 12.17C17.4802 12.36 17.3902 12.41 17.3802 12.42C17.3602 12.41 17.2602 12.36 17.1502 12.16L17.0902 12.06C16.8702 11.68 16.5202 11.42 16.1002 11.31C15.6702 11.19 15.2302 11.25 14.8602 11.47L13.9502 12C13.5402 12.23 13.2502 12.61 13.1302 13.06C13.0102 13.52 13.0702 13.99 13.3002 14.4C13.4102 14.58 13.4102 14.69 13.4102 14.71C13.4002 14.72 13.3002 14.78 13.0802 14.78C12.1102 14.78 11.3202 15.57 11.3202 16.53V17.26H10.4102C8.76016 17.26 7.41016 15.91 7.41016 14.26V9.73999C7.41016 8.08999 8.76016 6.73999 10.4102 6.73999H14.9302C16.5802 6.73999 17.9302 8.08999 17.9302 9.73999Z" fill="#292D32"/>
<path d="M9.72949 2.75V4H9.66949C9.16949 4 8.68949 4.07 8.22949 4.21V2.75C8.22949 2.34 8.55949 2 8.97949 2C9.38949 2 9.72949 2.34 9.72949 2.75Z" fill="#292D32"/>
<path d="M13.4199 2.75V4H11.9199V2.75C11.9199 2.34 12.2599 2 12.6699 2C13.0799 2 13.4199 2.34 13.4199 2.75Z" fill="#292D32"/>
<path d="M17.1201 2.75V4.21C16.6601 4.07 16.1701 4 15.6701 4H15.6201V2.75C15.6201 2.34 15.9601 2 16.3701 2C16.7801 2 17.1201 2.34 17.1201 2.75Z" fill="#292D32"/>
<path d="M22.67 8.30005C22.67 8.72005 22.34 9.05005 21.92 9.05005H20.67V9.00005C20.67 8.50005 20.6 8.01005 20.46 7.55005H21.92C22.34 7.55005 22.67 7.89005 22.67 8.30005Z" fill="#292D32"/>
<path d="M9.72949 20V21.25C9.72949 21.66 9.38949 22 8.97949 22C8.55949 22 8.22949 21.66 8.22949 21.25V19.79C8.68949 19.93 9.16949 20 9.66949 20H9.72949Z" fill="#292D32"/>
<path d="M4.87992 7.55005C4.73992 8.01005 4.66992 8.50005 4.66992 9.00005V9.05005H3.41992C3.00992 9.05005 2.66992 8.72005 2.66992 8.30005C2.66992 7.89005 3.00992 7.55005 3.41992 7.55005H4.87992Z" fill="#292D32"/>
<path d="M4.66992 11.25V12.75H3.41992C3.00992 12.75 2.66992 12.41 2.66992 12C2.66992 11.58 3.00992 11.25 3.41992 11.25H4.66992Z" fill="#292D32"/>
<path d="M4.87992 16.45H3.41992C3.00992 16.45 2.66992 16.11 2.66992 15.7C2.66992 15.28 3.00992 14.95 3.41992 14.95H4.66992V15C4.66992 15.5 4.73992 15.99 4.87992 16.45Z" fill="#292D32"/>
<path opacity="0.4" d="M21.6603 15.53C20.9803 15.53 20.5903 15.19 20.5903 14.69C20.5903 14.49 20.6503 14.26 20.7903 14.02C21.0703 13.54 20.9003 12.92 20.4203 12.65L19.5103 12.12C19.0903 11.87 18.5503 12.02 18.3003 12.44L18.2403 12.54C17.7603 13.37 16.9803 13.37 16.5003 12.54L16.4403 12.44C16.2003 12.02 15.6503 11.87 15.2403 12.12L14.3203 12.65C14.0003 12.83 13.8103 13.17 13.8103 13.52C13.8103 13.69 13.8603 13.86 13.9503 14.02C14.0903 14.26 14.1603 14.49 14.1603 14.69C14.1603 15.19 13.7603 15.53 13.0803 15.53C12.5303 15.53 12.0703 15.98 12.0703 16.53V17.47C12.0703 18.02 12.5303 18.47 13.0803 18.47C13.7603 18.47 14.1603 18.81 14.1603 19.31C14.1603 19.51 14.0903 19.74 13.9503 19.98C13.6703 20.46 13.8403 21.08 14.3203 21.35L15.2403 21.88C15.6503 22.13 16.2003 21.98 16.4403 21.56L16.5003 21.46C16.9803 20.63 17.7603 20.63 18.2403 21.46L18.3003 21.56C18.5503 21.98 19.0903 22.13 19.5103 21.88L20.4203 21.35C20.7403 21.17 20.9303 20.83 20.9303 20.48C20.9303 20.31 20.8803 20.14 20.7903 19.98C20.6503 19.74 20.5903 19.51 20.5903 19.31C20.5903 18.81 20.9803 18.47 21.6603 18.47C22.2203 18.47 22.6703 18.02 22.6703 17.47V16.53C22.6703 15.98 22.2203 15.53 21.6603 15.53ZM17.3703 18.72C16.4203 18.72 15.6503 17.95 15.6503 17C15.6503 16.05 16.4203 15.28 17.3703 15.28C18.3203 15.28 19.0903 16.05 19.0903 17C19.0903 17.95 18.3203 18.72 17.3703 18.72Z" fill="#292D32"/>
<path d="M19.0904 17C19.0904 17.95 18.3204 18.72 17.3704 18.72C16.4204 18.72 15.6504 17.95 15.6504 17C15.6504 16.05 16.4204 15.28 17.3704 15.28C18.3204 15.28 19.0904 16.05 19.0904 17Z" fill="#292D32"/>
</svg>
