<svg width="25" height="24" viewBox="0 0 25 24" fill="none" xmlns="http://www.w3.org/2000/svg">
<path opacity="0.4" d="M12.6699 22C7.14992 22 2.66992 17.52 2.66992 12C2.66992 6.48 7.14992 2 12.6699 2C18.1899 2 22.6699 6.48 22.6699 12C22.6699 17.52 18.1899 22 12.6699 22Z" fill="#292D32"/>
<path d="M9.66003 15.62C7.66003 15.62 6.04004 14 6.04004 12C6.04004 10 7.66003 8.38 9.66003 8.38C10.54 8.38 11.38 8.70003 12.05 9.28003C12.36 9.55003 12.3901 10.03 12.1201 10.34C11.8501 10.65 11.3701 10.68 11.0601 10.41C10.6701 10.07 10.18 9.88 9.66003 9.88C8.49003 9.88 7.54004 10.83 7.54004 12C7.54004 13.17 8.49003 14.12 9.66003 14.12C10.17 14.12 10.6701 13.93 11.0601 13.59C11.3701 13.32 11.8501 13.35 12.1201 13.66C12.3901 13.97 12.36 14.45 12.05 14.72C11.38 15.3 10.53 15.62 9.66003 15.62Z" fill="#292D32"/>
<path d="M16.66 15.62C14.66 15.62 13.04 14 13.04 12C13.04 10 14.66 8.38 16.66 8.38C17.54 8.38 18.38 8.70003 19.05 9.28003C19.36 9.55003 19.3901 10.03 19.1201 10.34C18.8501 10.65 18.3701 10.68 18.0601 10.41C17.6701 10.07 17.18 9.88 16.66 9.88C15.49 9.88 14.54 10.83 14.54 12C14.54 13.17 15.49 14.12 16.66 14.12C17.17 14.12 17.6701 13.93 18.0601 13.59C18.3701 13.32 18.8501 13.35 19.1201 13.66C19.3901 13.97 19.36 14.45 19.05 14.72C18.38 15.3 17.53 15.62 16.66 15.62Z" fill="#292D32"/>
</svg>
