<svg width="25" height="24" viewBox="0 0 25 24" fill="none" xmlns="http://www.w3.org/2000/svg">
<path opacity="0.4" d="M18.6699 20.5H17.6699V20.25C17.6699 19.15 16.7699 18.25 15.6699 18.25H13.4199V15.96C13.1699 15.99 12.9199 16 12.6699 16C12.4199 16 12.1699 15.99 11.9199 15.96V18.25H9.66992C8.56992 18.25 7.66992 19.15 7.66992 20.25V20.5H6.66992C6.25992 20.5 5.91992 20.84 5.91992 21.25C5.91992 21.66 6.25992 22 6.66992 22H18.6699C19.0799 22 19.4199 21.66 19.4199 21.25C19.4199 20.84 19.0799 20.5 18.6699 20.5Z" fill="#292D32"/>
<path opacity="0.4" d="M6.1902 11.64C5.5302 11.39 4.9502 10.98 4.4902 10.52C3.5602 9.49 2.9502 8.26 2.9502 6.82C2.9502 5.38 4.0802 4.25 5.5202 4.25H6.0802C5.8202 4.78 5.6702 5.37 5.6702 6V9C5.6702 9.94 5.8502 10.83 6.1902 11.64Z" fill="#292D32"/>
<path opacity="0.4" d="M22.3904 6.82C22.3904 8.26 21.7804 9.49 20.8504 10.52C20.3904 10.98 19.8104 11.39 19.1504 11.64C19.4904 10.83 19.6704 9.94 19.6704 9V6C19.6704 5.37 19.5204 4.78 19.2604 4.25H19.8204C21.2604 4.25 22.3904 5.38 22.3904 6.82Z" fill="#292D32"/>
<path d="M15.6699 2H9.66992C7.45992 2 5.66992 3.79 5.66992 6V9C5.66992 12.87 8.79992 16 12.6699 16C16.5399 16 19.6699 12.87 19.6699 9V6C19.6699 3.79 17.8799 2 15.6699 2ZM15.5099 8.45L14.8899 9.21C14.7899 9.32 14.7199 9.54 14.7299 9.69L14.7899 10.67C14.8299 11.27 14.3999 11.58 13.8399 11.36L12.9299 11C12.7899 10.95 12.5499 10.95 12.4099 11L11.4999 11.36C10.9399 11.58 10.5099 11.27 10.5499 10.67L10.6099 9.69C10.6199 9.54 10.5499 9.32 10.4499 9.21L9.82992 8.45C9.43992 7.99 9.60992 7.48 10.1899 7.33L11.1399 7.09C11.2899 7.05 11.4699 6.91 11.5499 6.78L12.0799 5.96C12.4099 5.45 12.9299 5.45 13.2599 5.96L13.7899 6.78C13.8699 6.91 14.0499 7.05 14.1999 7.09L15.1499 7.33C15.7299 7.48 15.8999 7.99 15.5099 8.45Z" fill="#292D32"/>
<path opacity="0.4" d="M15.5097 8.45001L14.8897 9.21001C14.7897 9.32001 14.7197 9.54001 14.7297 9.69001L14.7897 10.67C14.8297 11.27 14.3997 11.58 13.8397 11.36L12.9297 11C12.7897 10.95 12.5497 10.95 12.4097 11L11.4997 11.36C10.9397 11.58 10.5097 11.27 10.5497 10.67L10.6097 9.69001C10.6197 9.54001 10.5497 9.32001 10.4497 9.21001L9.82967 8.45001C9.43967 7.99001 9.60967 7.48001 10.1897 7.33001L11.1397 7.09001C11.2897 7.05001 11.4697 6.91001 11.5497 6.78001L12.0797 5.96001C12.4097 5.45001 12.9297 5.45001 13.2597 5.96001L13.7897 6.78001C13.8697 6.91001 14.0497 7.05001 14.1997 7.09001L15.1497 7.33001C15.7297 7.48001 15.8997 7.99001 15.5097 8.45001Z" fill="#292D32"/>
</svg>
