<svg width="25" height="24" viewBox="0 0 25 24" fill="none" xmlns="http://www.w3.org/2000/svg">
<path opacity="0.58" d="M24.6699 0H0.669922V24H24.6699V0Z" fill="white"/>
<path d="M6.31995 7.65L3.51996 4.85C3.20996 4.54 3.42994 4 3.87994 4H7.46994C7.59994 4 7.72995 4.05 7.81995 4.15L12.8199 9.15C13.1299 9.46 12.9099 10 12.4699 10H9.17996C7.24996 10 5.67996 11.57 5.67996 13.5C5.67996 15.43 7.24996 17 9.17996 17H10.68L12.83 19.15C13.14 19.46 12.9199 20 12.4799 20H9.18994C5.59994 20 2.68994 17.09 2.68994 13.5C2.68994 11.01 4.08994 8.84 6.15994 7.75L6.31995 7.65Z" fill="#292D32"/>
<path opacity="0.4" d="M19.0196 16.35L21.8196 19.15C22.1296 19.46 21.9096 20 21.4696 20H17.8796C17.7496 20 17.6196 19.95 17.5296 19.85L12.5296 14.85C12.2196 14.54 12.4396 14 12.8796 14H16.1696C18.0996 14 19.6696 12.43 19.6696 10.5C19.6696 8.57 18.0996 7 16.1696 7H14.6696L12.5196 4.85C12.2096 4.54 12.4296 4 12.8796 4H16.1696C19.7596 4 22.6696 6.91 22.6696 10.5C22.6696 12.99 21.2696 15.16 19.1996 16.25L19.0196 16.35Z" fill="#292D32"/>
</svg>
