<svg width="25" height="24" viewBox="0 0 25 24" fill="none" xmlns="http://www.w3.org/2000/svg">
<path d="M17.6901 21.2902L14.2101 19.5502C13.2401 19.0702 12.1101 19.0702 11.1401 19.5502L7.66008 21.2902C4.67008 22.7802 1.52008 19.5702 3.08008 16.6202L3.90008 15.0802C4.01008 14.8702 4.19008 14.7002 4.41008 14.6002L17.0501 8.90017C17.5701 8.67017 18.1801 8.88017 18.4401 9.38017L22.2501 16.6202C23.8101 19.5702 20.6701 22.7802 17.6901 21.2902Z" fill="#292D32"/>
<path opacity="0.4" d="M16.2704 7.69002L7.99037 11.42C7.06037 11.84 6.12037 10.84 6.60037 9.94002L9.64037 4.17002C10.9304 1.72002 14.4304 1.72002 15.7204 4.17002L16.7904 6.21002C17.0704 6.76002 16.8304 7.44002 16.2704 7.69002Z" fill="#292D32"/>
</svg>
