<svg width="25" height="24" viewBox="0 0 25 24" fill="none" xmlns="http://www.w3.org/2000/svg">
<path d="M17.6901 2.7202L14.2101 4.4602C13.2401 4.9402 12.1101 4.9402 11.1401 4.4602L7.65014 2.7102C4.67014 1.2202 1.52014 4.4402 3.08014 7.3902L3.90014 8.9302C4.01014 9.1402 4.19014 9.3102 4.41014 9.4102L17.0601 15.1002C17.5801 15.3302 18.1901 15.1202 18.4501 14.6202L22.2601 7.3802C23.8101 4.4402 20.6701 1.2202 17.6901 2.7202Z" fill="#292D32"/>
<path opacity="0.4" d="M16.2704 16.3102L7.99037 12.5802C7.06037 12.1602 6.12037 13.1602 6.60037 14.0602L9.64037 19.8302C10.9304 22.2802 14.4304 22.2802 15.7204 19.8302L16.7904 17.7902C17.0704 17.2402 16.8304 16.5702 16.2704 16.3102Z" fill="#292D32"/>
</svg>
