<svg width="25" height="24" viewBox="0 0 25 24" fill="none" xmlns="http://www.w3.org/2000/svg">
<path opacity="0.4" d="M16.8599 4H8.47992C4.83992 4 2.66992 6.17 2.66992 9.81V16.18C2.66992 19.83 4.83992 22 8.47992 22H16.8499C20.4899 22 22.6599 19.83 22.6599 16.19V9.81C22.6699 6.17 20.4999 4 16.8599 4Z" fill="#292D32"/>
<path d="M21.9699 12.23H18.4899C17.5099 12.23 16.6399 12.77 16.1999 13.65L15.3599 15.31C15.1599 15.71 14.7599 15.96 14.3199 15.96H11.0399C10.7299 15.96 10.2899 15.89 9.99992 15.31L9.15992 13.66C8.71992 12.79 7.83992 12.24 6.86992 12.24H3.36992C2.97992 12.24 2.66992 12.55 2.66992 12.94V16.2C2.66992 19.83 4.84992 22 8.48992 22H16.8699C20.2999 22 22.4099 20.12 22.6699 16.78V12.93C22.6699 12.55 22.3599 12.23 21.9699 12.23Z" fill="#292D32"/>
<path d="M15.2004 6.47C14.9104 6.18 14.4304 6.18 14.1404 6.47L13.4204 7.19V2C13.4204 1.59 13.0804 1.25 12.6704 1.25C12.2604 1.25 11.9204 1.59 11.9204 2V7.19L11.2004 6.47C10.9104 6.18 10.4304 6.18 10.1404 6.47C9.85035 6.76 9.85035 7.24 10.1404 7.53L12.1404 9.53C12.1504 9.54 12.1604 9.54 12.1604 9.55C12.2204 9.61 12.3004 9.66 12.3804 9.7C12.4804 9.73 12.5704 9.75 12.6704 9.75C12.7704 9.75 12.8604 9.73 12.9504 9.69C13.0404 9.65 13.1204 9.6 13.2004 9.53L15.2004 7.53C15.4904 7.24 15.4904 6.76 15.2004 6.47Z" fill="#292D32"/>
</svg>
