<svg width="25" height="24" viewBox="0 0 25 24" fill="none" xmlns="http://www.w3.org/2000/svg">
<path d="M3.8999 1H12.0299C12.7099 1 13.2599 1.56 13.2599 2.25V3.62C13.2599 4.12 12.9499 4.73999 12.6399 5.04999L9.98993 7.42001C9.61993 7.73001 9.36993 8.36001 9.36993 8.85001V11.53C9.36993 11.9 9.11995 12.4 8.81995 12.59L7.9599 13.15C7.1599 13.65 6.04993 13.09 6.04993 12.09V8.78C6.04993 8.34 5.79994 7.78 5.55994 7.47L3.21991 4.97C2.90991 4.66 2.66992 4.1 2.66992 3.72V2.29001C2.66992 1.56001 3.2199 1 3.8999 1Z" fill="#292D32"/>
<path opacity="0.4" d="M17.6699 2H15.2699C14.9899 2 14.7699 2.22 14.7699 2.5C14.7699 2.98 14.7699 3.62 14.7699 3.62C14.7699 4.61 14.2399 5.57999 13.7199 6.10999L10.9999 8.54001C10.9699 8.61001 10.9199 8.71001 10.8899 8.79001V11.54C10.8899 12.45 10.3499 13.44 9.60992 13.89L8.78992 14.42C8.32992 14.71 7.81994 14.85 7.30994 14.85C6.84994 14.85 6.38991 14.73 5.96991 14.5C5.31991 14.14 4.86992 13.55 4.66992 12.87V10.21C4.66992 10.08 4.6199 9.94999 4.5199 9.85999L3.5199 8.85999C3.1999 8.54999 2.66992 8.76999 2.66992 9.20999V17C2.66992 19.76 4.90992 22 7.66992 22H17.6699C20.4299 22 22.6699 19.76 22.6699 17V7C22.6699 4.24 20.4299 2 17.6699 2Z" fill="#292D32"/>
<path d="M18.6699 13.75H13.6699C13.2599 13.75 12.9199 13.41 12.9199 13C12.9199 12.59 13.2599 12.25 13.6699 12.25H18.6699C19.0799 12.25 19.4199 12.59 19.4199 13C19.4199 13.41 19.0799 13.75 18.6699 13.75Z" fill="#292D32"/>
<path d="M18.6699 17.75H11.6699C11.2599 17.75 10.9199 17.41 10.9199 17C10.9199 16.59 11.2599 16.25 11.6699 16.25H18.6699C19.0799 16.25 19.4199 16.59 19.4199 17C19.4199 17.41 19.0799 17.75 18.6699 17.75Z" fill="#292D32"/>
</svg>
