<svg width="25" height="24" viewBox="0 0 25 24" fill="none" xmlns="http://www.w3.org/2000/svg">
<path opacity="0.4" d="M21.1699 10.19H18.2799C15.9099 10.19 13.9799 8.26 13.9799 5.89V3C13.9799 2.45 13.5299 2 12.9799 2H8.73992C5.65992 2 3.16992 4.00001 3.16992 7.57001V16.43C3.16992 20 5.65992 22 8.73992 22H16.5999C19.6799 22 22.1699 20 22.1699 16.43V11.19C22.1699 10.64 21.7199 10.19 21.1699 10.19Z" fill="#292D32"/>
<path d="M16.4699 2.21C16.0599 1.8 15.3499 2.07998 15.3499 2.64998V6.13999C15.3499 7.59999 16.5899 8.80999 18.0999 8.80999C19.0499 8.81999 20.3699 8.82 21.4999 8.82C22.0699 8.82 22.3699 8.14999 21.9699 7.74999C20.5299 6.29999 17.9499 3.69 16.4699 2.21Z" fill="#292D32"/>
<path d="M15.43 19.2601C13.08 19.4301 13.08 22.8301 15.43 23.0001H20.99C21.66 23.0001 22.32 22.7501 22.81 22.3001C24.46 20.8601 23.58 17.9801 21.41 17.7101C20.63 13.0201 13.85 14.8001 15.45 19.2701" fill="#292D32"/>
</svg>
