<svg width="25" height="24" viewBox="0 0 25 24" fill="none" xmlns="http://www.w3.org/2000/svg">
<path opacity="0.58" d="M24.6699 0H0.669922V24H24.6699V0Z" fill="white"/>
<path fill-rule="evenodd" clip-rule="evenodd" d="M16.5501 20.92C16.5801 21.08 16.4901 21.25 16.3401 21.31C15.2001 21.76 13.9701 22 12.6801 22C10.4801 22 8.43015 21.29 6.78015 20.07C6.64015 19.97 6.60015 19.77 6.69015 19.62C7.24015 18.64 9.39015 15.49 14.1401 13.73C14.3201 13.66 14.5201 13.75 14.5801 13.93C15.7801 17.12 16.3401 19.82 16.5501 20.92Z" fill="black"/>
<path fill-rule="evenodd" clip-rule="evenodd" d="M22.49 13.89C22.03 16.35 20.65 18.49 18.72 19.95C18.51 20.11 18.21 19.99 18.16 19.74C17.95 18.66 17.44 16.33 16.46 13.56C16.39 13.35 16.53 13.12 16.75 13.09C19.24 12.79 21.42 13.27 22.24 13.49C22.41 13.55 22.52 13.72 22.49 13.89Z" fill="black"/>
<path opacity="0.4" fill-rule="evenodd" clip-rule="evenodd" d="M22.2602 11.82C21.2402 11.64 18.6402 11.26 15.9802 11.55C15.8202 11.57 15.6802 11.48 15.6102 11.33C15.5702 11.24 15.5402 11.15 15.5002 11.06C15.3402 10.69 15.1702 10.31 15.0002 9.94002C14.9102 9.76002 15.0002 9.54002 15.1802 9.46002C17.9802 8.25002 19.5402 6.69002 20.1502 5.99002C20.3002 5.82002 20.5602 5.83002 20.7002 6.01002C21.8502 7.54002 22.5602 9.41002 22.6702 11.43C22.6802 11.68 22.4802 11.86 22.2602 11.82Z" fill="black"/>
<path fill-rule="evenodd" clip-rule="evenodd" d="M19.1101 4.79C18.5901 5.42 17.1301 6.92 14.3601 8.02C14.2001 8.09 14.0101 8.02 13.9201 7.86C12.6401 5.54 11.2801 3.59 10.6501 2.71C10.5001 2.49 10.6201 2.2 10.8801 2.15C11.4601 2.05 12.0601 2 12.6801 2C15.1001 2 17.3301 2.86 19.0601 4.3C19.2101 4.42 19.2301 4.64 19.1101 4.79Z" fill="black"/>
<path fill-rule="evenodd" clip-rule="evenodd" d="M11.6897 8.83998C7.89969 9.78998 4.54969 9.91998 3.32969 9.93998C3.09969 9.93998 2.92969 9.71998 2.98969 9.49998C3.70969 6.69998 5.62969 4.35998 8.15969 3.06998C8.30969 2.98998 8.49969 3.03998 8.59969 3.17998C9.11969 3.89998 10.5297 5.92998 11.9097 8.31998C12.0197 8.51998 11.9197 8.77998 11.6897 8.83998Z" fill="black"/>
<path opacity="0.4" fill-rule="evenodd" clip-rule="evenodd" d="M13.5899 11.6C13.6799 11.79 13.5699 12.02 13.3699 12.09C8.93992 13.52 6.28992 17.07 5.48992 18.29C5.35992 18.49 5.07992 18.5 4.92992 18.32C3.51992 16.6 2.66992 14.63 2.66992 12.23V12.05C2.66992 11.85 2.82992 11.69 3.02992 11.7C4.28992 11.75 8.39992 11.58 12.6699 10.35C12.8299 10.3 13.0099 10.38 13.0799 10.53C13.2599 10.89 13.4299 11.24 13.5899 11.6Z" fill="black"/>
</svg>
