<svg width="25" height="24" viewBox="0 0 25 24" fill="none" xmlns="http://www.w3.org/2000/svg">
<path opacity="0.58" d="M24.6699 0H0.669922V24H24.6699V0Z" fill="white"/>
<path opacity="0.4" d="M12.6698 6.00005L7.10977 10.0001L3.85977 7.80006C3.27977 7.41006 3.26979 6.57006 3.83979 6.16006L7.66977 3.40005C8.00977 3.16005 8.46979 3.15005 8.80979 3.38005L12.6698 6.00005Z" fill="#292D32"/>
<path opacity="0.4" d="M21.4799 7.80005L18.2299 10L12.6699 6.00005L16.5299 3.39005C16.8799 3.16005 17.3299 3.16005 17.6699 3.41005L21.4999 6.17005C22.0699 6.57005 22.0599 7.41005 21.4799 7.80005Z" fill="#292D32"/>
<path opacity="0.4" d="M12.6698 14L8.22984 17L5.66984 15.16L3.82985 13.84C3.26985 13.43 3.27983 12.59 3.84983 12.2L7.09983 10L12.6698 14Z" fill="#292D32"/>
<path opacity="0.4" d="M21.4799 12.2C22.0599 12.59 22.0699 13.43 21.4999 13.84L19.6699 15.16L17.1099 17L12.6699 14L18.2299 10L21.4799 12.2Z" fill="#292D32"/>
<path d="M19.6699 15.16V18.13C19.6699 18.52 19.4399 18.87 19.0899 19.04L13.0899 21.81C12.8199 21.93 12.5199 21.93 12.2499 21.81L6.24991 19.04C5.89991 18.88 5.66992 18.52 5.66992 18.13V15.16L8.22992 17L12.6699 14L17.1099 17L19.6699 15.16Z" fill="#292D32"/>
</svg>
