<svg width="25" height="24" viewBox="0 0 25 24" fill="none" xmlns="http://www.w3.org/2000/svg">
<path opacity="0.4" d="M16.8599 2H8.47992C4.83992 2 2.66992 4.17 2.66992 7.81V16.18C2.66992 19.83 4.83992 22 8.47992 22H16.8499C20.4899 22 22.6599 19.83 22.6599 16.19V7.81C22.6699 4.17 20.4999 2 16.8599 2Z" fill="#292D32"/>
<path d="M16.17 10.13C17.2083 10.13 18.05 9.28829 18.05 8.25C18.05 7.2117 17.2083 6.37 16.17 6.37C15.1317 6.37 14.29 7.2117 14.29 8.25C14.29 9.28829 15.1317 10.13 16.17 10.13Z" fill="#292D32"/>
<path d="M9.17004 10.13C10.2083 10.13 11.05 9.28829 11.05 8.25C11.05 7.2117 10.2083 6.37 9.17004 6.37C8.13174 6.37 7.29004 7.2117 7.29004 8.25C7.29004 9.28829 8.13174 10.13 9.17004 10.13Z" fill="#292D32"/>
<path d="M16.2698 12.92H9.0698C8.3698 12.92 7.7998 13.49 7.7998 14.2C7.7998 16.89 9.9898 19.08 12.6798 19.08C15.3698 19.08 17.5598 16.89 17.5598 14.2C17.5498 13.5 16.9698 12.92 16.2698 12.92Z" fill="#292D32"/>
</svg>
