<svg width="25" height="24" viewBox="0 0 25 24" fill="none" xmlns="http://www.w3.org/2000/svg">
<path opacity="0.4" d="M16.8599 2H8.47992C4.83992 2 2.66992 4.17 2.66992 7.81V16.18C2.66992 19.83 4.83992 22 8.47992 22H16.8499C20.4899 22 22.6599 19.83 22.6599 16.19V7.81C22.6699 4.17 20.4999 2 16.8599 2Z" fill="#292D32"/>
<path d="M9.49035 9.75C8.64035 9.75 7.79035 9.43 7.14035 8.78C6.85035 8.49 6.85035 8.01 7.14035 7.72C7.43035 7.43 7.91035 7.43 8.20035 7.72C8.91035 8.43 10.0704 8.43 10.7804 7.72C11.0704 7.43 11.5504 7.43 11.8404 7.72C12.1304 8.01 12.1304 8.49 11.8404 8.78C11.1904 9.42 10.3404 9.75 9.49035 9.75Z" fill="#292D32"/>
<path d="M15.8497 9.75C14.9997 9.75 14.1497 9.43 13.4997 8.78C13.2097 8.49 13.2097 8.01 13.4997 7.72C13.7897 7.43 14.2697 7.43 14.5597 7.72C15.2697 8.43 16.4297 8.43 17.1397 7.72C17.4297 7.43 17.9097 7.43 18.1997 7.72C18.4897 8.01 18.4897 8.49 18.1997 8.78C17.5497 9.42 16.6997 9.75 15.8497 9.75Z" fill="#292D32"/>
<path d="M16.2698 12.62H9.0698C8.3698 12.62 7.7998 13.19 7.7998 13.9C7.7998 16.59 9.9898 18.78 12.6798 18.78C15.3698 18.78 17.5598 16.59 17.5598 13.9C17.5498 13.2 16.9698 12.62 16.2698 12.62Z" fill="#292D32"/>
</svg>
