<svg width="25" height="24" viewBox="0 0 25 24" fill="none" xmlns="http://www.w3.org/2000/svg">
<path opacity="0.4" d="M20.1499 12.95H22.1699V11.51C22.1699 9.44001 20.4799 7.75 18.4099 7.75H6.92992C4.85992 7.75 3.16992 9.44001 3.16992 11.51V18.24C3.16992 20.31 4.85992 22 6.92992 22H18.4099C20.4799 22 22.1699 20.31 22.1699 18.24V17.05H20.2699C19.1899 17.05 18.1999 16.26 18.1099 15.18C18.0499 14.55 18.2899 13.96 18.7099 13.55C19.0799 13.17 19.5899 12.95 20.1499 12.95ZM7.26992 20.58C7.11992 20.72 6.92992 20.79 6.73992 20.79C6.54992 20.79 6.35992 20.72 6.20992 20.58L5.67992 20.05L5.12992 20.6C4.97992 20.75 4.78992 20.82 4.59992 20.82C4.40992 20.82 4.21992 20.75 4.06992 20.6C3.77992 20.31 3.77992 19.83 4.06992 19.54L4.61992 18.99L4.08992 18.46C3.79992 18.17 3.79992 17.69 4.08992 17.4C4.38992 17.11 4.85992 17.11 5.15992 17.4L5.67992 17.93L6.17992 17.42C6.47992 17.13 6.94992 17.13 7.24992 17.42C7.53992 17.72 7.53992 18.19 7.24992 18.49L6.73992 18.99L7.26992 19.51C7.55992 19.81 7.55992 20.28 7.26992 20.58Z" fill="#292D32"/>
<path d="M15.5199 3.95V7.74999H6.92992C4.85992 7.74999 3.16992 9.44 3.16992 11.51V7.84002C3.16992 6.65002 3.89992 5.58997 5.00992 5.16997L12.9499 2.16997C14.1899 1.70997 15.5199 2.62 15.5199 3.95Z" fill="#292D32"/>
<path d="M23.2297 13.9699V16.03C23.2297 16.58 22.7897 17.0299 22.2297 17.0499H20.2697C19.1897 17.0499 18.1997 16.2599 18.1097 15.1799C18.0497 14.5499 18.2897 13.9599 18.7097 13.5499C19.0797 13.1699 19.5897 12.95 20.1497 12.95H22.2297C22.7897 12.97 23.2297 13.4199 23.2297 13.9699Z" fill="#292D32"/>
<path d="M14.6699 12.75H7.66992C7.25992 12.75 6.91992 12.41 6.91992 12C6.91992 11.59 7.25992 11.25 7.66992 11.25H14.6699C15.0799 11.25 15.4199 11.59 15.4199 12C15.4199 12.41 15.0799 12.75 14.6699 12.75Z" fill="#292D32"/>
<path d="M5.66992 15C4.72992 15 3.85992 15.33 3.16992 15.88C2.24992 16.61 1.66992 17.74 1.66992 19C1.66992 19.75 1.87992 20.46 2.24992 21.06C2.93992 22.22 4.20992 23 5.66992 23C6.67992 23 7.59992 22.63 8.29992 22C8.60992 21.74 8.87992 21.42 9.08992 21.06C9.45992 20.46 9.66992 19.75 9.66992 19C9.66992 16.79 7.87992 15 5.66992 15ZM4.08992 18.46C3.79992 18.17 3.79992 17.69 4.08992 17.4C4.38992 17.11 4.85992 17.11 5.15992 17.4L5.67992 17.93L6.17992 17.42C6.47992 17.13 6.94992 17.13 7.24992 17.42C7.53992 17.72 7.53992 18.19 7.24992 18.49L6.73992 18.99L7.26992 19.51C7.55992 19.81 7.55992 20.28 7.26992 20.58C7.11992 20.72 6.92992 20.79 6.73992 20.79C6.54992 20.79 6.35992 20.72 6.20992 20.58L5.67992 20.05L5.12992 20.6C4.97992 20.75 4.78992 20.82 4.59992 20.82C4.40992 20.82 4.21992 20.75 4.06992 20.6C3.77992 20.31 3.77992 19.83 4.06992 19.54L4.61992 18.99L4.08992 18.46Z" fill="#292D32"/>
</svg>
