<svg width="25" height="24" viewBox="0 0 25 24" fill="none" xmlns="http://www.w3.org/2000/svg">
<path opacity="0.4" d="M20.2697 12.6049H22.2359V11.2033C22.2359 9.18843 20.5909 7.54346 18.5761 7.54346H7.40199C5.38715 7.54346 3.74219 9.18843 3.74219 11.2033V15.4568C4.4138 14.9215 5.26061 14.6003 6.17556 14.6003C8.32667 14.6003 10.069 16.3425 10.069 18.4937C10.069 19.2237 9.86456 19.9147 9.50442 20.4988C9.30002 20.8492 9.03721 21.1606 8.73548 21.4137H18.5761C20.5909 21.4137 22.2359 19.7687 22.2359 17.7539V16.5956H20.3865C19.3353 16.5956 18.3717 15.8267 18.2841 14.7754C18.2257 14.1622 18.4593 13.588 18.8681 13.1889C19.2282 12.819 19.7246 12.6049 20.2697 12.6049Z" fill="#292D32"/>
<path d="M15.7631 3.8449V7.54362H7.40199C5.38715 7.54362 3.74219 9.1886 3.74219 11.2034V7.63125C3.74219 6.47296 4.45273 5.44117 5.53315 5.03236L13.2616 2.11231C14.4685 1.66457 15.7631 2.55035 15.7631 3.8449Z" fill="#292D32"/>
<path d="M23.2688 13.5979V15.603C23.2688 16.1384 22.8405 16.5764 22.2954 16.5958H20.3877C19.3365 16.5958 18.3728 15.8269 18.2852 14.7757C18.2268 14.1624 18.4604 13.5882 18.8693 13.1891C19.2294 12.8192 19.7258 12.6051 20.2709 12.6051H22.2954C22.8405 12.6246 23.2688 13.0625 23.2688 13.5979Z" fill="#292D32"/>
<path d="M14.936 12.4102H8.12259C7.72352 12.4102 7.39258 12.0793 7.39258 11.6802C7.39258 11.2811 7.72352 10.9502 8.12259 10.9502H14.936C15.3351 10.9502 15.6661 11.2811 15.6661 11.6802C15.6661 12.0793 15.3351 12.4102 14.936 12.4102Z" fill="#292D32"/>
<path d="M8.92883 15.7407C8.28187 15.0938 7.45595 14.7221 6.6025 14.6257C5.46687 14.495 4.28994 14.8735 3.42273 15.7407C2.90653 16.2569 2.5624 16.8901 2.4041 17.5577C2.08062 18.831 2.41787 20.242 3.42273 21.2468C4.11787 21.942 5.00573 22.3205 5.92112 22.3687C6.31343 22.4031 6.71951 22.3687 7.11182 22.2655C7.77943 22.1072 8.41264 21.763 8.92883 21.2468C10.4499 19.7258 10.4499 17.2618 8.92883 15.7407ZM5.45997 17.0347C5.45997 16.6355 5.79034 16.3051 6.18953 16.3051C6.5956 16.312 6.91909 16.6355 6.92597 17.0416L6.91911 17.7642L7.61426 17.7573C8.02034 17.7642 8.34382 18.0877 8.35071 18.4938C8.34382 18.8998 8.02033 19.2233 7.61426 19.2302L6.91911 19.2233L6.92598 19.946C6.9191 20.3521 6.59561 20.6756 6.18953 20.6825C5.98994 20.6756 5.81102 20.593 5.68025 20.4622C5.54948 20.3314 5.46686 20.1525 5.45998 19.9529L5.46 19.2233L4.70291 19.2233C4.49644 19.2233 4.31747 19.1407 4.1867 19.01C4.05593 18.8792 3.97336 18.7002 3.97336 18.4938C3.97336 18.0946 4.30372 17.7642 4.70291 17.7642L5.45999 17.7642L5.45997 17.0347Z" fill="#292D32"/>
</svg>
