<svg width="25" height="24" viewBox="0 0 25 24" fill="none" xmlns="http://www.w3.org/2000/svg">
<path d="M24.6699 0H0.669922V24H24.6699V0Z" fill="white"/>
<path d="M17.6499 8.09L17.4799 8.52L12.7599 21.75H12.5799L7.84994 8.5L7.68994 8.1C7.74994 7.95 7.82994 7.81 7.90994 7.71L11.5199 3.38C12.1499 2.62 13.1899 2.62 13.8199 3.38L17.4299 7.71C17.5099 7.8 17.5899 7.95 17.6499 8.09Z" fill="#292D32"/>
<path opacity="0.4" d="M12.58 21.75C12.34 21.74 12.11 21.68 11.93 21.57L6.61001 18.54C6.09001 18.24 5.77001 17.52 5.88001 16.94L7.60001 8.37C7.62001 8.29 7.65001 8.2 7.69001 8.1L7.85001 8.5L12.58 21.75Z" fill="#292D32"/>
<path opacity="0.4" d="M18.7298 18.54L13.4098 21.57C13.2298 21.68 12.9998 21.74 12.7598 21.75L17.4798 8.52L17.6498 8.09C17.6898 8.19 17.7198 8.29 17.7398 8.37L19.4598 16.94C19.5698 17.52 19.2498 18.24 18.7298 18.54Z" fill="#292D32"/>
</svg>
