<svg width="25" height="24" viewBox="0 0 25 24" fill="none" xmlns="http://www.w3.org/2000/svg">
<path opacity="0.4" d="M16.8616 2H8.49165C4.85165 2 2.68164 4.17 2.68164 7.81V16.18C2.68164 19.82 4.85165 21.99 8.49165 21.99H16.8616C20.5016 21.99 22.6716 19.82 22.6716 16.18V7.81C22.6716 4.17 20.5016 2 16.8616 2Z" fill="#292D32"/>
<path d="M14.2523 14.69L11.9323 17.01C11.2923 17.66 10.2423 17.66 9.5923 17.01L7.6623 15.08C7.0123 14.43 7.0123 13.38 7.6623 12.74L9.9823 10.42L14.2523 14.69Z" fill="#292D32"/>
<path opacity="0.6" d="M17.6814 11.2599L14.2514 14.6899L9.98145 10.4199L13.4115 6.98994C14.0515 6.33994 15.1014 6.33994 15.7514 6.98994L17.6814 8.91994C18.3314 9.56994 18.3314 10.6199 17.6814 11.2599Z" fill="#292D32"/>
</svg>
