<svg width="25" height="24" viewBox="0 0 25 24" fill="none" xmlns="http://www.w3.org/2000/svg">
<path opacity="0.58" d="M24.6699 0H0.669922V24H24.6699V0Z" fill="white"/>
<path opacity="0.4" d="M16.8597 2H8.48969C4.84968 2 2.67969 4.17 2.67969 7.81V16.18C2.67969 19.82 4.84968 21.99 8.48969 21.99H16.8597C20.4997 21.99 22.6697 19.82 22.6697 16.18V7.81C22.6697 4.17 20.4997 2 16.8597 2Z" fill="#292D32"/>
<path d="M14.5899 9.27995L14.6399 12.23L17.2699 12.19C17.4599 12.19 17.5999 12.36 17.5699 12.54L17.2199 14.45C17.1899 14.59 17.0699 14.69 16.9299 14.7L14.6799 14.74L14.7999 21.99L11.7999 22.04L11.6799 14.79L9.97989 14.82C9.80989 14.82 9.6799 14.69 9.6799 14.52L9.6499 12.62C9.6499 12.45 9.77989 12.32 9.94989 12.32L11.6499 12.29L11.5999 9.03996C11.5699 7.37996 12.8899 6.01995 14.5499 5.98995L17.2499 5.94995C17.4199 5.94995 17.5499 6.07995 17.5499 6.24995L17.5899 8.64996C17.5899 8.81996 17.4599 8.94995 17.2899 8.94995L14.8899 8.98995C14.7199 8.97995 14.5899 9.11995 14.5899 9.27995Z" fill="#292D32"/>
</svg>
