<svg width="25" height="24" viewBox="0 0 25 24" fill="none" xmlns="http://www.w3.org/2000/svg">
<path d="M20.42 15.41L19.5701 14.56C20.0101 13.89 20.27 13.1 20.27 12.24C20.27 9.89999 18.37 8 16.03 8C13.69 8 11.79 9.89999 11.79 12.24C11.79 14.58 13.69 16.48 16.03 16.48C16.89 16.48 17.69 16.22 18.35 15.78L19.2001 16.63C19.3701 16.8 19.5901 16.88 19.8101 16.88C20.0301 16.88 20.25 16.8 20.42 16.63C20.75 16.29 20.75 15.74 20.42 15.41Z" fill="#292D32"/>
<path opacity="0.4" d="M6.08008 2H19.2501C20.3501 2 21.2501 2.90999 21.2501 4.01999V6.23999C21.2501 7.04999 20.7501 8.06 20.2501 8.56L15.9601 12.4C15.3601 12.91 14.9601 13.92 14.9601 14.72V19.06C14.9601 19.67 14.5601 20.47 14.0601 20.78L12.6601 21.69C11.3601 22.5 9.57013 21.59 9.57013 19.97V14.62C9.57013 13.91 9.17008 13 8.77008 12.5L4.9801 8.45999C4.4801 7.94999 4.08008 7.05 4.08008 6.44V4.12C4.09008 2.91 4.99008 2 6.08008 2Z" fill="#292D32"/>
</svg>
