<svg width="25" height="24" viewBox="0 0 25 24" fill="none" xmlns="http://www.w3.org/2000/svg">
<path opacity="0.4" d="M21.2499 4.01999V5.97C20.5699 5.47 19.7899 5.1 18.9399 4.91C18.4999 4.8 18.0299 4.75 17.5499 4.75C14.0999 4.75 11.2999 7.55 11.2999 11C11.2999 12.14 11.6099 13.26 12.1999 14.22C12.6999 15.06 13.3999 15.76 14.1599 16.23C14.4199 16.4 14.6898 16.55 14.9698 16.68V19.07C14.9698 19.68 14.5699 20.49 14.0699 20.79L12.6699 21.7C11.3699 22.51 9.57983 21.6 9.57983 19.98V14.63C9.57983 13.92 9.17985 13.01 8.77985 12.51L4.98987 8.47C4.48987 7.96 4.08984 7.05001 4.08984 6.45001V4.12C4.08984 2.91 4.98983 2 6.07983 2H19.2599C20.3499 2 21.2499 2.90999 21.2499 4.01999Z" fill="#292D32"/>
<path d="M18.5898 6.37C18.2598 6.29 17.9098 6.25 17.5498 6.25C14.9298 6.25 12.7998 8.38 12.7998 11C12.7998 11.89 13.0498 12.73 13.4898 13.45C13.8598 14.07 14.3698 14.6 14.9898 14.98C15.7298 15.47 16.6098 15.75 17.5498 15.75C19.2898 15.75 20.7998 14.82 21.6198 13.45C22.0598 12.73 22.2998 11.89 22.2998 11C22.2998 8.74 20.7198 6.84 18.5898 6.37ZM19.4998 10.57L17.0698 13C16.9798 13.09 16.7898 13.18 16.6598 13.2L15.7298 13.33C15.3898 13.38 15.1598 13.14 15.2098 12.81L15.3398 11.88C15.3598 11.75 15.4498 11.57 15.5398 11.47L17.6198 9.39001L17.9698 9.04001C18.3898 8.62001 18.8798 8.42001 19.4898 9.04001C20.0998 9.66001 19.9198 10.15 19.4998 10.57Z" fill="#292D32"/>
</svg>
