<svg width="25" height="24" viewBox="0 0 25 24" fill="none" xmlns="http://www.w3.org/2000/svg">
<path opacity="0.4" d="M6.07984 2H19.2498C20.3498 2 21.2498 2.90999 21.2498 4.01999V6.23999C21.2498 7.04999 20.7498 8.06 20.2498 8.56L15.9598 12.4C15.3598 12.91 14.9598 13.92 14.9598 14.72V19.06C14.9598 19.67 14.5598 20.47 14.0598 20.78L12.6698 21.7C11.3698 22.51 9.57984 21.6 9.57984 19.98V14.63C9.57984 13.92 9.17984 13.01 8.77984 12.51L4.98984 8.47C4.48984 7.96 4.08984 7.06001 4.08984 6.45001V4.13C4.08984 2.91 4.98984 2 6.07984 2Z" fill="#292D32"/>
<path d="M17.5498 10C14.9298 10 12.7998 12.13 12.7998 14.75C12.7998 15.64 13.0498 16.48 13.4898 17.2C14.3098 18.58 15.8198 19.5 17.5498 19.5C19.2798 19.5 20.7898 18.57 21.6098 17.2C22.0498 16.49 22.2998 15.64 22.2998 14.75C22.2998 12.13 20.1798 10 17.5498 10ZM19.3498 16.52C19.1998 16.67 19.0098 16.74 18.8198 16.74C18.6298 16.74 18.4398 16.67 18.2898 16.52L17.5698 15.8L16.8198 16.55C16.6698 16.7 16.4798 16.77 16.2898 16.77C16.0998 16.77 15.9098 16.7 15.7598 16.55C15.4698 16.26 15.4698 15.78 15.7598 15.49L16.5098 14.74L15.7898 14.01C15.4998 13.72 15.4998 13.24 15.7898 12.95C16.0798 12.66 16.5598 12.66 16.8498 12.95L17.5698 13.67L18.2698 12.97C18.5598 12.68 19.0398 12.68 19.3298 12.97C19.6198 13.26 19.6198 13.74 19.3298 14.03L18.6298 14.73L19.3498 15.46C19.6498 15.75 19.6498 16.23 19.3498 16.52Z" fill="#292D32"/>
</svg>
