<svg width="25" height="24" viewBox="0 0 25 24" fill="none" xmlns="http://www.w3.org/2000/svg">
<path opacity="0.4" d="M12.6699 22C18.1928 22 22.6699 17.5228 22.6699 12C22.6699 6.47715 18.1928 2 12.6699 2C7.14707 2 2.66992 6.47715 2.66992 12C2.66992 17.5228 7.14707 22 12.6699 22Z" fill="#292D32"/>
<path d="M12.67 9.87012C12.18 9.87012 11.77 10.2701 11.77 10.7701V13.2401C11.77 13.7401 12.17 14.1401 12.67 14.1401C13.17 14.1401 13.57 13.7401 13.57 13.2401V10.7701C13.57 10.2701 13.16 9.87012 12.67 9.87012Z" fill="#292D32"/>
<path d="M12.6699 17.5502C10.0499 17.5502 7.91992 15.4202 7.91992 12.8002V11.2002C7.91992 8.5802 10.0499 6.4502 12.6699 6.4502C15.2899 6.4502 17.4199 8.5802 17.4199 11.2002V12.8002C17.4199 15.4202 15.2899 17.5502 12.6699 17.5502ZM12.6699 7.9502C10.8799 7.9502 9.41992 9.4102 9.41992 11.2002V12.8002C9.41992 14.5902 10.8799 16.0502 12.6699 16.0502C14.4599 16.0502 15.9199 14.5902 15.9199 12.8002V11.2002C15.9199 9.4102 14.4599 7.9502 12.6699 7.9502Z" fill="#292D32"/>
</svg>
