<svg width="25" height="24" viewBox="0 0 25 24" fill="none" xmlns="http://www.w3.org/2000/svg">
<path d="M5.82031 22C5.41031 22 5.07031 21.66 5.07031 21.25V2.75C5.07031 2.34 5.41031 2 5.82031 2C6.23031 2 6.57031 2.34 6.57031 2.75V21.25C6.57031 21.66 6.23031 22 5.82031 22Z" fill="#292D32"/>
<path opacity="0.4" d="M18.6895 12.33L17.4695 11.11C17.1795 10.86 17.0095 10.49 16.9995 10.08C16.9795 9.62999 17.1595 9.17999 17.4895 8.84999L18.6895 7.64999C19.7295 6.60999 20.1195 5.60999 19.7895 4.81999C19.4695 4.03999 18.4795 3.60999 17.0195 3.60999H5.81945C5.60945 3.61999 5.43945 3.78999 5.43945 3.99999V16C5.43945 16.21 5.60945 16.38 5.81945 16.38H17.0195C18.4595 16.38 19.4295 15.94 19.7595 15.15C20.0895 14.35 19.7095 13.36 18.6895 12.33Z" fill="#292D32"/>
</svg>
