<svg width="25" height="24" viewBox="0 0 25 24" fill="none" xmlns="http://www.w3.org/2000/svg">
<path opacity="0.4" d="M19.4199 21C19.4199 21.41 19.0799 21.75 18.6699 21.75H14.6699C14.6199 21.75 14.5799 21.73 14.5299 21.72C14.2399 22.47 13.5199 23 12.6699 23C11.8199 23 11.0999 22.47 10.8099 21.72C10.7599 21.73 10.7199 21.75 10.6699 21.75H6.66992C6.25992 21.75 5.91992 21.41 5.91992 21C5.91992 20.59 6.25992 20.25 6.66992 20.25H10.6699C10.7199 20.25 10.7599 20.27 10.8099 20.28C11.0099 19.76 11.43 19.34 11.95 19.14C11.94 19.09 11.9199 19.05 11.9199 19V16H13.4199V19C13.4199 19.05 13.3999 19.09 13.3899 19.14C13.9099 19.34 14.3299 19.76 14.5299 20.28C14.5799 20.27 14.6199 20.25 14.6699 20.25H18.6699C19.0799 20.25 19.4199 20.59 19.4199 21Z" fill="#292D32"/>
<path d="M19.6699 8.29999V12.5C19.6699 15.3 18.9699 16 16.1699 16H9.16992C6.36992 16 5.66992 15.3 5.66992 12.5V5.5C5.66992 2.7 6.36992 2 9.16992 2H10.2199C11.2699 2 11.4999 2.31003 11.8999 2.84003L12.95 4.23999C13.22 4.58999 13.3699 4.79999 14.0699 4.79999H16.1699C18.9699 4.79999 19.6699 5.49999 19.6699 8.29999Z" fill="#292D32"/>
</svg>
