<svg width="25" height="24" viewBox="0 0 25 24" fill="none" xmlns="http://www.w3.org/2000/svg">
<path opacity="0.4" d="M22.6602 10.84C22.6402 10.36 22.5602 9.88999 22.4102 9.43999C21.7202 7.27999 19.7002 5.71999 17.3202 5.71999H14.5302C13.9502 5.71999 13.9102 5.65998 13.6002 5.24998L12.2002 3.38998C11.5502 2.51998 11.0402 1.98999 9.41016 1.98999H7.08014C4.64014 1.98999 2.66016 3.96999 2.66016 6.40999V9.42998V16.64C2.66016 19.59 5.06019 21.99 8.01019 21.99H17.3102C20.2602 21.99 22.6602 19.59 22.6602 16.64V11.06C22.6702 11 22.6702 10.91 22.6602 10.84Z" fill="#292D32"/>
<path d="M16.2495 19.7C14.1395 19.85 14.1395 22.91 16.2495 23.06H21.2595C21.8695 23.06 22.4495 22.84 22.8995 22.43C24.3795 21.14 23.5894 18.54 21.6394 18.3C20.9394 14.08 14.8295 15.68 16.2795 19.7" fill="#292D32"/>
</svg>
