<svg width="25" height="24" viewBox="0 0 25 24" fill="none" xmlns="http://www.w3.org/2000/svg">
<path opacity="0.4" d="M16.39 2H8.95C8.57 2 8.25 2.32 8.25 2.7C8.25 3.08 8.57 3.4 8.95 3.4H12.21L13.61 5.26C13.92 5.67 13.96 5.73 14.54 5.73H18.26C18.64 5.73 19.01 5.78 19.37 5.88C19.41 6.06 19.43 6.24 19.43 6.43V6.78C19.43 7.16 19.75 7.48 20.13 7.48C20.51 7.48 20.83 7.16 20.83 6.78V6.42C20.81 3.98 18.83 2 16.39 2Z" fill="#292D32"/>
<path d="M20.8099 6.54C20.3799 6.23 19.8899 6 19.3599 5.87C19.0099 5.77 18.6299 5.72 18.2499 5.72H14.5299C13.9499 5.72 13.9099 5.66 13.5999 5.25L12.1999 3.39C11.5499 2.53 11.0399 2 9.40992 2H7.08992C4.64992 2 2.66992 3.98 2.66992 6.42V17.58C2.66992 20.02 4.64992 22 7.08992 22H18.2499C20.6899 22 22.6699 20.02 22.6699 17.58V10.14C22.6699 8.65 21.9399 7.34 20.8099 6.54ZM14.9999 16H10.3399C9.94992 16 9.63992 15.69 9.63992 15.3C9.63992 14.92 9.94992 14.6 10.3399 14.6H14.9899C15.3699 14.6 15.6899 14.92 15.6899 15.3C15.6899 15.69 15.3799 16 14.9999 16Z" fill="#292D32"/>
</svg>
