<svg width="25" height="24" viewBox="0 0 25 24" fill="none" xmlns="http://www.w3.org/2000/svg">
<path opacity="0.4" d="M22.4099 9.44H2.66992V6.42C2.66992 3.98 4.64992 2 7.08992 2H9.41992C11.0499 2 11.5599 2.53 12.2099 3.4L13.6099 5.26C13.9199 5.67 13.9599 5.73 14.5399 5.73H17.3299C19.6999 5.72 21.7199 7.28 22.4099 9.44Z" fill="#292D32"/>
<path d="M22.6599 10.8399C22.6399 10.3499 22.5599 9.88994 22.4099 9.43994H2.66992V16.6499C2.66992 19.5999 5.06992 21.9999 8.01992 21.9999H17.3199C20.2699 21.9999 22.6699 19.5999 22.6699 16.6499V11.0699C22.6699 10.9999 22.6699 10.9099 22.6599 10.8399ZM15.0999 16.2999H10.0999C9.68992 16.2999 9.34992 15.9599 9.34992 15.5499C9.34992 15.1399 9.68992 14.7999 10.0999 14.7999H15.0999C15.5099 14.7999 15.8499 15.1399 15.8499 15.5499C15.8499 15.9599 15.5099 16.2999 15.0999 16.2999Z" fill="#292D32"/>
</svg>
