<svg width="25" height="24" viewBox="0 0 25 24" fill="none" xmlns="http://www.w3.org/2000/svg">
<path d="M22.6699 11.0699V16.6499C22.6699 19.5999 20.2699 21.9999 17.3199 21.9999H8.01992C5.06992 21.9999 2.66992 19.5999 2.66992 16.6499V9.43994H22.4099C22.5599 9.88994 22.6399 10.3499 22.6599 10.8399C22.6699 10.9099 22.6699 10.9999 22.6699 11.0699Z" fill="#292D32"/>
<path opacity="0.4" d="M22.4099 9.44H2.66992V6.42C2.66992 3.98 4.64992 2 7.08992 2H9.41992C11.0499 2 11.5599 2.53 12.2099 3.4L13.6099 5.26C13.9199 5.67 13.9599 5.73 14.5399 5.73H17.3299C19.6999 5.72 21.7199 7.28 22.4099 9.44Z" fill="#292D32"/>
</svg>
