<svg width="25" height="24" viewBox="0 0 25 24" fill="none" xmlns="http://www.w3.org/2000/svg">
<path opacity="0.4" d="M15.5699 2H9.76993C9.08993 2 8.12992 2.4 7.64992 2.88L3.54993 6.98001C3.06993 7.46001 2.66992 8.42001 2.66992 9.10001V14.9C2.66992 15.58 3.06993 16.54 3.54993 17.02L7.64992 21.12C8.12992 21.6 9.08993 22 9.76993 22H15.5699C16.2499 22 17.2099 21.6 17.6899 21.12L21.7899 17.02C22.2699 16.54 22.6699 15.58 22.6699 14.9V9.10001C22.6699 8.42001 22.2699 7.46001 21.7899 6.98001L17.6899 2.88C17.2099 2.4 16.2499 2 15.5699 2Z" fill="#292D32"/>
<path d="M13.7303 12L16.7003 9.03C16.9903 8.74 16.9903 8.26 16.7003 7.97C16.4103 7.68 15.9304 7.68 15.6404 7.97L12.6704 10.94L9.70035 7.97C9.41035 7.68 8.93035 7.68 8.64035 7.97C8.35035 8.26 8.35035 8.74 8.64035 9.03L11.6104 12L8.64035 14.97C8.35035 15.26 8.35035 15.74 8.64035 16.03C8.79035 16.18 8.98035 16.25 9.17035 16.25C9.36035 16.25 9.55035 16.18 9.70035 16.03L12.6704 13.06L15.6404 16.03C15.7904 16.18 15.9804 16.25 16.1704 16.25C16.3604 16.25 16.5503 16.18 16.7003 16.03C16.9903 15.74 16.9903 15.26 16.7003 14.97L13.7303 12Z" fill="#292D32"/>
</svg>
