<svg width="25" height="24" viewBox="0 0 25 24" fill="none" xmlns="http://www.w3.org/2000/svg">
<path opacity="0.4" d="M15.5699 2H9.76993C9.08993 2 8.12992 2.4 7.64992 2.88L3.54993 6.98001C3.06993 7.46001 2.66992 8.42001 2.66992 9.10001V14.9C2.66992 15.58 3.06993 16.54 3.54993 17.02L7.64992 21.12C8.12992 21.6 9.08993 22 9.76993 22H15.5699C16.2499 22 17.2099 21.6 17.6899 21.12L21.7899 17.02C22.2699 16.54 22.6699 15.58 22.6699 14.9V9.10001C22.6699 8.42001 22.2699 7.46001 21.7899 6.98001L17.6899 2.88C17.2099 2.4 16.2499 2 15.5699 2Z" fill="#292D32"/>
<path d="M3.68988 21.75C3.49988 21.75 3.30988 21.68 3.15988 21.53C2.86988 21.24 2.86988 20.76 3.15988 20.47L21.1399 2.48996C21.4299 2.19996 21.9099 2.19996 22.1999 2.48996C22.4899 2.77996 22.4899 3.25996 22.1999 3.54996L4.21988 21.53C4.07988 21.68 3.88988 21.75 3.68988 21.75Z" fill="#292D32"/>
</svg>
