<svg width="25" height="24" viewBox="0 0 25 24" fill="none" xmlns="http://www.w3.org/2000/svg">
<path opacity="0.58" d="M24.6699 0H0.669922V24H24.6699V0Z" fill="white"/>
<path d="M5.16992 10.49V16.4299C5.16992 16.7399 5.30992 17.04 5.53992 17.24L10.8999 21.83C11.5999 22.43 12.6699 21.93 12.6699 21.02V16.92H17.5799C18.5299 16.92 19.0099 15.77 18.3399 15.09L12.6699 9.41995H6.23993C5.64993 9.40995 5.16992 9.88996 5.16992 10.49Z" fill="#292D32"/>
<path opacity="0.4" d="M19.0997 1.91003H7.75972C6.80972 1.91003 6.32971 3.06004 6.99971 3.74004L12.6697 9.41003H19.0997C19.6897 9.41003 20.1697 8.93003 20.1697 8.34003V2.98003C20.1697 2.39003 19.6897 1.91003 19.0997 1.91003Z" fill="#292D32"/>
</svg>
