<svg width="25" height="24" viewBox="0 0 25 24" fill="none" xmlns="http://www.w3.org/2000/svg">
<path opacity="0.4" d="M21.1299 3.54L4.20992 20.46C3.20992 19.46 2.66992 18.01 2.66992 16.19V7.81C2.66992 4.17 4.83992 2 8.47992 2H16.8599C18.6799 2 20.1299 2.54 21.1299 3.54Z" fill="#292D32"/>
<path opacity="0.4" d="M22.6702 7.81V13.9L21.0402 12.5C20.2602 11.83 19.0002 11.83 18.2202 12.5L14.0602 16.07C13.3502 16.68 12.2302 16.74 11.4502 16.22L22.2802 5.39C22.4202 5.77 22.5202 6.17 22.5802 6.6C22.6402 6.98 22.6702 7.39 22.6702 7.81Z" fill="#292D32"/>
<path d="M22.6696 13.9V16.19C22.6696 19.83 20.4996 22 16.8596 22H8.47957C8.05957 22 7.64957 21.97 7.26957 21.91C6.83957 21.85 6.43957 21.75 6.05957 21.61L11.4496 16.22C12.2296 16.74 13.3496 16.68 14.0596 16.07L18.2196 12.5C18.9996 11.83 20.2596 11.83 21.0396 12.5L22.6696 13.9Z" fill="#292D32"/>
<path d="M22.4398 2.23C22.1398 1.93 21.6498 1.93 21.3498 2.23L2.8998 20.69C2.5998 20.99 2.5998 21.48 2.8998 21.78C3.0498 21.92 3.2398 22 3.4398 22C3.6398 22 3.8298 21.92 3.9798 21.77L22.4398 3.31C22.7498 3.01 22.7498 2.53 22.4398 2.23Z" fill="#292D32"/>
<path d="M8.67004 10.38C9.98448 10.38 11.05 9.31444 11.05 8C11.05 6.68557 9.98448 5.62 8.67004 5.62C7.3556 5.62 6.29004 6.68557 6.29004 8C6.29004 9.31444 7.3556 10.38 8.67004 10.38Z" fill="#292D32"/>
</svg>
