<svg width="25" height="24" viewBox="0 0 25 24" fill="none" xmlns="http://www.w3.org/2000/svg">
<path d="M10.7999 15.0099L9.76988 13.9799L10.7599 12.9899C11.0499 12.6999 11.0499 12.2199 10.7599 11.9299C10.4699 11.6399 9.98988 11.6399 9.69988 11.9299L8.70988 12.9199L7.74988 11.9599C7.45988 11.6699 6.97988 11.6699 6.68988 11.9599C6.39988 12.2499 6.39988 12.7299 6.68988 13.0199L7.64988 13.9799L6.65988 14.9699C6.36988 15.2599 6.36988 15.7399 6.65988 16.0299C6.80988 16.1799 6.99988 16.2499 7.18988 16.2499C7.37988 16.2499 7.56988 16.1799 7.71988 16.0299L8.70988 15.0399L9.73988 16.0699C9.88988 16.2199 10.0799 16.2899 10.2699 16.2899C10.4599 16.2899 10.6499 16.2199 10.7999 16.0699C11.0899 15.7799 11.0899 15.2999 10.7999 15.0099Z" fill="#292D32"/>
<path d="M14.2097 15C13.6597 15 13.1997 14.55 13.1997 14C13.1997 13.45 13.6397 13 14.1897 13H14.2097C14.7597 13 15.2097 13.45 15.2097 14C15.2097 14.55 14.7697 15 14.2097 15Z" fill="#292D32"/>
<path d="M18.1501 15C17.6001 15 17.1401 14.55 17.1401 14C17.1401 13.45 17.5801 13 18.1301 13H18.1501C18.7001 13 19.1501 13.45 19.1501 14C19.1501 14.55 18.7101 15 18.1501 15Z" fill="#292D32"/>
<path d="M16.1699 16.97C15.6199 16.97 15.1699 16.53 15.1699 15.98V15.96C15.1699 15.41 15.6199 14.96 16.1699 14.96C16.7199 14.96 17.1699 15.41 17.1699 15.96C17.1699 16.51 16.7299 16.97 16.1699 16.97Z" fill="#292D32"/>
<path d="M16.1699 13.03C15.6199 13.03 15.1699 12.59 15.1699 12.04V12.02C15.1699 11.47 15.6199 11.02 16.1699 11.02C16.7199 11.02 17.1699 11.47 17.1699 12.02C17.1699 12.57 16.7299 13.03 16.1699 13.03Z" fill="#292D32"/>
<path opacity="0.4" d="M22.6699 11.07V16.65C22.6699 19.6 20.2699 22 17.3199 22H8.01992C5.06992 22 2.66992 19.6 2.66992 16.65V11.07C2.66992 8.11997 5.06992 5.71997 8.01992 5.71997H17.3199C20.2699 5.71997 22.6699 8.11997 22.6699 11.07Z" fill="#292D32"/>
<path d="M14.3098 2.71L14.2998 3.65C14.2898 4.53 13.5598 5.26 12.6698 5.26C12.5198 5.26 12.4298 5.36 12.4298 5.49C12.4298 5.62 12.5298 5.72 12.6598 5.72H11.0498C11.0398 5.65 11.0298 5.57 11.0298 5.49C11.0298 4.59 11.7598 3.86 12.6498 3.86C12.7998 3.86 12.8998 3.76 12.8998 3.63L12.9098 2.69C12.9198 2.31 13.2298 2 13.6098 2H13.6198C14.0098 2 14.3098 2.32 14.3098 2.71Z" fill="#292D32"/>
</svg>
