<svg width="25" height="24" viewBox="0 0 25 24" fill="none" xmlns="http://www.w3.org/2000/svg">
<path opacity="0.58" d="M24.6699 0H0.669922V24H24.6699V0Z" fill="white"/>
<path opacity="0.4" d="M8.37012 15.71L5.26013 21L2.08008 15.71H8.37012Z" fill="#292D32"/>
<path d="M12.6701 8.41L8.37012 15.71H2.08008L9.49011 3L12.6701 8.41Z" fill="#292D32"/>
<path opacity="0.4" d="M15.8502 3L12.6702 8.41L9.49023 3H15.8502Z" fill="#292D32"/>
<path d="M23.2599 15.63C23.2599 15.63 23.24 15.66 23.2 15.71H16.9699L12.6699 8.41L15.8499 3C15.8499 3 23.2099 15.63 23.2599 15.63Z" fill="#292D32"/>
<path opacity="0.4" d="M23.1998 15.71C22.7798 16.37 20.0797 21 20.0797 21L16.9697 15.71H23.1998Z" fill="#292D32"/>
<path d="M20.0797 21H5.25977L8.36975 15.71H16.9697L20.0797 21Z" fill="#292D32"/>
<path opacity="0.4" d="M16.9701 15.71H8.37012L12.6701 8.41003L16.9701 15.71Z" fill="#292D32"/>
</svg>
