<svg width="25" height="24" viewBox="0 0 25 24" fill="none" xmlns="http://www.w3.org/2000/svg">
<path opacity="0.58" d="M24.6699 0H0.669922V24H24.6699V0Z" fill="white"/>
<path d="M12.8699 5.87C12.7999 5.87 12.7299 5.87 12.6699 5.88V2.00999C12.7399 1.99999 12.7999 2 12.8699 2C15.1299 2 17.0699 2.69 18.6599 3.86C19.1599 4.22 19.1999 4.95 18.7599 5.38L17.3699 6.74001C17.0299 7.07001 16.5099 7.13 16.1199 6.86C15.3699 6.34 14.2999 5.87 12.8699 5.87Z" fill="#292D32"/>
<path d="M22.4699 12.2199C22.4699 15.2699 21.3799 17.8299 19.4899 19.5799C17.8399 21.1099 15.5699 21.9999 12.8699 21.9999C12.7999 21.9999 12.7399 21.9999 12.6699 21.9899V18.1199C12.7399 18.1299 12.7999 18.1299 12.8699 18.1299C14.3599 18.1299 15.4899 17.7199 16.3399 17.1299C17.6699 16.1999 18.2699 14.8099 18.3799 13.8899H13.8699C13.3199 13.8899 12.8699 13.4399 12.8699 12.8899V11.1799C12.8699 10.6299 13.3199 10.1799 13.8699 10.1799H21.4199C21.9299 10.1799 22.3599 10.5599 22.4099 11.0699C22.4499 11.4199 22.4699 11.7899 22.4699 12.2199Z" fill="#292D32"/>
<path opacity="0.4" d="M7.17012 10.02C6.97012 10.64 6.85012 11.31 6.85012 12C6.85012 12.69 6.97012 13.35 7.18012 13.98C7.96012 16.33 10.1201 18.04 12.6701 18.12V21.99C8.85012 21.92 5.56012 19.7 3.95012 16.49H3.94012C3.26012 15.13 2.87012 13.61 2.87012 12C2.87012 10.39 3.26012 8.87001 3.94012 7.51001C5.55012 4.30001 8.84012 2.08001 12.6701 2.01001V5.88002C10.3101 5.95002 8.30012 7.41001 7.38012 9.48001C7.30012 9.66001 7.23012 9.84002 7.17012 10.02Z" fill="#292D32"/>
</svg>
