<svg width="25" height="24" viewBox="0 0 25 24" fill="none" xmlns="http://www.w3.org/2000/svg">
<path d="M9.17992 2V8.5H2.66992V7.81C2.66992 4.17 4.83992 2 8.47992 2H9.17992Z" fill="#292D32"/>
<path d="M22.6697 7.81V8.5H16.1797V2H16.8597C20.4997 2 22.6697 4.17 22.6697 7.81Z" fill="#292D32"/>
<path d="M22.6697 15.5V16.19C22.6697 19.83 20.4997 22 16.8597 22H16.1797V15.5H22.6697Z" fill="#292D32"/>
<path d="M9.17992 15.5V22H8.47992C4.83992 22 2.66992 19.83 2.66992 16.19V15.5H9.17992Z" fill="#292D32"/>
<path opacity="0.4" d="M9.17992 8.5H2.66992V15.5H9.17992V8.5Z" fill="#292D32"/>
<path opacity="0.4" d="M22.6697 8.5H16.1797V15.5H22.6697V8.5Z" fill="#292D32"/>
<path d="M16.1797 8.5H9.17969V15.5H16.1797V8.5Z" fill="#292D32"/>
<path opacity="0.4" d="M16.1797 2H9.17969V8.5H16.1797V2Z" fill="#292D32"/>
<path opacity="0.4" d="M16.1797 15.5H9.17969V22H16.1797V15.5Z" fill="#292D32"/>
</svg>
