<svg width="25" height="24" viewBox="0 0 25 24" fill="none" xmlns="http://www.w3.org/2000/svg">
<path d="M9.06012 2.16992V8.61993H2.6001V7.93994C2.6001 4.32994 4.75011 2.17993 8.36011 2.17993H9.06012V2.16992Z" fill="#292D32"/>
<path d="M22.4402 7.92993C22.4402 8.30993 22.1303 8.60992 21.7603 8.60992H16.0103V2.15991H16.6803C19.8603 2.16991 22.4402 4.74993 22.4402 7.92993Z" fill="#292D32"/>
<path d="M9.06036 15.5498V21.3098C9.06036 21.6898 8.75034 21.9898 8.38034 21.9898H8.37036C5.19036 21.9898 2.61035 19.4098 2.61035 16.2298V15.5498H9.06036Z" fill="#292D32"/>
<path opacity="0.4" d="M9.07034 8.60986H2.61035V15.5499H9.07034V8.60986Z" fill="#292D32"/>
<path d="M16 8.60986V14.8699C16 15.2499 15.69 15.5499 15.32 15.5499H9.06006V8.60986H16Z" fill="#292D32"/>
<path opacity="0.4" d="M16 2.16992H9.06006V8.61993H16V2.16992Z" fill="#292D32"/>
<path opacity="0.4" d="M20.4697 20.7L18.5697 22.6099C18.0497 23.1299 17.1897 23.1299 16.6497 22.6099L15.0697 21.02C14.5497 20.49 14.5497 19.6399 15.0697 19.0999L16.9797 17.21L20.4697 20.7Z" fill="#292D32"/>
<path d="M23.28 17.9L20.47 20.7L16.98 17.21L19.78 14.39C20.31 13.87 21.17 13.87 21.7 14.39L23.28 15.98C23.8 16.51 23.8 17.38 23.28 17.9Z" fill="#292D32"/>
</svg>
