<svg width="25" height="24" viewBox="0 0 25 24" fill="none" xmlns="http://www.w3.org/2000/svg">
<path opacity="0.4" d="M16.8597 2H8.48969C4.84968 2 2.67969 4.17 2.67969 7.81V16.18C2.67969 19.82 4.84968 21.99 8.48969 21.99H16.8597C20.4997 21.99 22.6697 19.82 22.6697 16.18V7.81C22.6697 4.17 20.4997 2 16.8597 2Z" fill="#292D32"/>
<path d="M19.6699 15H19.4199V14.5V14V11V7.75C19.4199 6.23 18.1899 5 16.6699 5H8.66992C7.14992 5 5.91992 6.23 5.91992 7.75V11V14V14.5V15H5.66992C5.25992 15 4.91992 15.34 4.91992 15.75C4.91992 16.16 5.25992 16.5 5.66992 16.5H6.66992H9.50995C9.84995 17.93 11.1399 19 12.6699 19C14.1999 19 15.4899 17.93 15.8299 16.5H18.6699H19.6699C20.0799 16.5 20.4199 16.16 20.4199 15.75C20.4199 15.34 20.0799 15 19.6699 15ZM17.4599 11.88C17.3999 11.86 17.3399 11.84 17.2699 11.82C17.0699 11.78 16.8699 11.75 16.6599 11.75H8.65991C8.44991 11.75 8.24993 11.78 8.04993 11.82C7.98993 11.83 7.92992 11.86 7.85992 11.88C7.72992 11.92 7.59992 11.96 7.47992 12.02C7.44992 12.03 7.4199 12.04 7.3999 12.05V11C7.3999 10.31 7.9599 9.75 8.6499 9.75H16.6499C17.3399 9.75 17.8999 10.31 17.8999 11V12.05C17.8699 12.04 17.8499 12.03 17.8199 12.02C17.7199 11.96 17.5899 11.92 17.4599 11.88ZM8.66992 6.5H16.6699C17.3599 6.5 17.9199 7.06 17.9199 7.75V8.56C17.5399 8.37 17.1199 8.25 16.6699 8.25H8.66992C8.21992 8.25 7.79992 8.37 7.41992 8.56V7.75C7.41992 7.06 7.97992 6.5 8.66992 6.5ZM15.1699 15C14.7599 15 14.4199 15.34 14.4199 15.75C14.4199 16.71 13.6299 17.5 12.6699 17.5C11.7099 17.5 10.9199 16.71 10.9199 15.75C10.9199 15.34 10.5799 15 10.1699 15H7.41992V14.5C7.41992 13.81 7.97992 13.25 8.66992 13.25H16.6699C17.3599 13.25 17.9199 13.81 17.9199 14.5V15H15.1699Z" fill="#292D32"/>
</svg>
