<svg width="25" height="24" viewBox="0 0 25 24" fill="none" xmlns="http://www.w3.org/2000/svg">
<path d="M21.6399 16H18.6999C17.4299 16 16.6699 16.76 16.6699 18.03V20.97C16.6699 22.24 17.4299 23 18.6999 23H21.6399C22.9099 23 23.6699 22.24 23.6699 20.97V18.03C23.6699 16.76 22.9099 16 21.6399 16ZM21.8599 19.31C21.7399 19.43 21.5799 19.49 21.4199 19.49C21.2599 19.49 21.0999 19.43 20.9799 19.31L20.7999 19.13V21.37C20.7999 21.72 20.5199 22 20.1699 22C19.8199 22 19.5399 21.72 19.5399 21.37V19.13L19.3599 19.31C19.1199 19.55 18.7199 19.55 18.4799 19.31C18.2399 19.07 18.2399 18.67 18.4799 18.43L19.7299 17.18C19.7799 17.13 19.8499 17.09 19.9199 17.06C19.9399 17.05 19.9599 17.05 19.9799 17.04C20.0299 17.02 20.0799 17.01 20.1399 17.01C20.1599 17.01 20.1799 17.01 20.1999 17.01C20.2699 17.01 20.3299 17.02 20.3999 17.05C20.4099 17.05 20.4099 17.05 20.4199 17.05C20.4899 17.08 20.5499 17.12 20.5999 17.17C20.6099 17.18 20.6099 17.18 20.6199 17.18L21.8699 18.43C22.1099 18.67 22.1099 19.07 21.8599 19.31Z" fill="#292D32"/>
<path opacity="0.4" d="M16.6699 20.97V18.03C16.6699 16.76 17.4299 16 18.6999 16H21.6399C22.0399 16 22.3799 16.08 22.6699 16.22C22.6699 16.21 22.6699 16.2 22.6699 16.18V7.81C22.6699 4.17 20.4999 2 16.8599 2H8.47992C4.83992 2 2.66992 4.17 2.66992 7.81V16.18C2.66992 19.83 4.83992 22 8.47992 22H16.8499C16.8599 22 16.8699 22 16.8899 22C16.7499 21.71 16.6699 21.37 16.6699 20.97Z" fill="#292D32"/>
<path d="M16.6699 10.1701C17.0799 10.1701 17.4199 9.8301 17.4199 9.4201C17.4199 9.0101 17.0799 8.6701 16.6699 8.6701H14.2599L14.5199 6.3501C14.5699 5.9401 14.2699 5.5701 13.8599 5.5201C13.4499 5.4801 13.0799 5.7701 13.0299 6.1801L12.7499 8.6701H11.0999L11.3599 6.3501C11.4099 5.9401 11.1099 5.5701 10.6999 5.5201C10.2899 5.4701 9.91992 5.7701 9.86992 6.1801L9.58992 8.6701H7.18992C6.77992 8.6701 6.43992 9.0101 6.43992 9.4201C6.43992 9.8301 6.77992 10.1701 7.18992 10.1701H9.41992L9.23992 11.8301H6.66992C6.25992 11.8301 5.91992 12.1701 5.91992 12.5801C5.91992 12.9901 6.25992 13.3301 6.66992 13.3301H9.07992L8.81992 15.6501C8.76992 16.0601 9.06992 16.4301 9.47992 16.4801C9.50992 16.4801 9.53992 16.4801 9.55992 16.4801C9.93992 16.4801 10.2599 16.2001 10.2999 15.8101L10.5799 13.3201H12.2299L11.9699 15.6401C11.9199 16.0501 12.2199 16.4201 12.6299 16.4701C12.6599 16.4701 12.6899 16.4701 12.7099 16.4701C13.0899 16.4701 13.4099 16.1901 13.4499 15.8001L13.7299 13.3101H16.1299C16.5399 13.3101 16.8799 12.9701 16.8799 12.5601C16.8799 12.1501 16.5399 11.8101 16.1299 11.8101H13.8999L14.0799 10.1501H16.6699V10.1701ZM12.3999 11.8301H10.7499L10.9299 10.1701H12.5799L12.3999 11.8301Z" fill="#292D32"/>
</svg>
