<svg width="25" height="24" viewBox="0 0 25 24" fill="none" xmlns="http://www.w3.org/2000/svg">
<path opacity="0.4" d="M9.16992 12.75C8.75992 12.75 8.41992 12.41 8.41992 12V6C8.41992 5.59 8.75992 5.25 9.16992 5.25C9.57992 5.25 9.91992 5.59 9.91992 6V12C9.91992 12.41 9.57992 12.75 9.16992 12.75Z" fill="#292D32"/>
<path opacity="0.4" d="M9.16992 22.75C8.75992 22.75 8.41992 22.41 8.41992 22V18C8.41992 17.59 8.75992 17.25 9.16992 17.25C9.57992 17.25 9.91992 17.59 9.91992 18V22C9.91992 22.41 9.57992 22.75 9.16992 22.75Z" fill="#292D32"/>
<path d="M16.1699 22.75C15.7599 22.75 15.4199 22.41 15.4199 22V6C15.4199 5.59 15.7599 5.25 16.1699 5.25C16.5799 5.25 16.9199 5.59 16.9199 6V22C16.9199 22.41 16.5799 22.75 16.1699 22.75Z" fill="#292D32"/>
<path d="M10.7697 5.29999C10.7697 5.78999 10.5697 6.25001 10.2397 6.57001C9.91975 6.90001 9.46973 7.09998 8.96973 7.09998H6.71973C6.99973 6.72998 7.16974 6.25 7.16974 5.75V4.84998C7.16974 4.34998 6.99973 3.87 6.71973 3.5H8.96973C9.95973 3.5 10.7697 4.30999 10.7697 5.29999Z" fill="#292D32"/>
<path d="M7.16992 4.85002V5.75005C7.16992 6.25005 6.99991 6.73002 6.71991 7.10002C5.95991 8.11002 4.39992 8.45002 2.94992 7.16002C2.78992 7.02002 2.66992 6.72005 2.66992 6.50005V4.16002C2.66992 3.97002 2.76993 3.69003 2.89993 3.55003C4.15993 2.23003 5.67992 2.42005 6.50992 3.25005C6.57992 3.32005 6.64991 3.40004 6.71991 3.49004C6.99991 3.87004 7.16992 4.35002 7.16992 4.85002Z" fill="#292D32"/>
<path d="M14.5698 5.29999C14.5698 5.78999 14.7698 6.25001 15.0998 6.57001C15.4198 6.90001 15.8698 7.09998 16.3698 7.09998H18.6198C18.3398 6.72998 18.1698 6.25 18.1698 5.75V4.84998C18.1698 4.34998 18.3398 3.87 18.6198 3.5H16.3698C15.3798 3.5 14.5698 4.30999 14.5698 5.29999Z" fill="#292D32"/>
<path d="M18.1699 4.85002V5.75005C18.1699 6.25005 18.3399 6.73002 18.6199 7.10002C19.3799 8.11002 20.9399 8.45002 22.3899 7.16002C22.5499 7.02002 22.6699 6.72005 22.6699 6.50005V4.16002C22.6699 3.97002 22.5699 3.69003 22.4399 3.55003C21.1799 2.23003 19.6599 2.42005 18.8299 3.25005C18.7599 3.32005 18.6899 3.40004 18.6199 3.49004C18.3399 3.87004 18.1699 4.35002 18.1699 4.85002Z" fill="#292D32"/>
<path d="M10.6699 13.5V17.5C10.6699 18.33 9.99992 19 9.16992 19C8.33992 19 7.66992 18.33 7.66992 17.5V13.5C7.66992 12.67 8.33992 12 9.16992 12C9.99992 12 10.6699 12.67 10.6699 13.5Z" fill="#292D32"/>
</svg>
