<svg width="25" height="24" viewBox="0 0 25 24" fill="none" xmlns="http://www.w3.org/2000/svg">
<path opacity="0.4" d="M17.1099 3.1001C15.2999 3.1001 13.6799 3.98008 12.6699 5.33008C11.6599 3.98008 10.0399 3.1001 8.22992 3.1001C5.15992 3.1001 2.66992 5.60009 2.66992 8.69009C2.66992 9.88009 2.85992 10.9801 3.18992 12.0001C4.76992 17.0001 9.63992 19.9901 12.0499 20.8101C12.3899 20.9301 12.9499 20.9301 13.2899 20.8101C15.6999 19.9901 20.5699 17.0001 22.1499 12.0001C22.4799 10.9801 22.6699 9.88009 22.6699 8.69009C22.6699 5.60009 20.1799 3.1001 17.1099 3.1001Z" fill="#292D32"/>
<path d="M15.5101 9.16025C14.6101 8.26025 13.9001 8.55025 13.2901 9.16025L9.75011 12.7003C9.61011 12.8403 9.48011 13.1003 9.45011 13.2903L9.26011 14.6403C9.19011 15.1303 9.53011 15.4702 10.0201 15.4002L11.3701 15.2102C11.5601 15.1802 11.8301 15.0502 11.9601 14.9102L15.5001 11.3702C16.1201 10.7702 16.4101 10.0602 15.5101 9.16025Z" fill="#292D32"/>
</svg>
