<svg width="25" height="24" viewBox="0 0 25 24" fill="none" xmlns="http://www.w3.org/2000/svg">
<path opacity="0.4" d="M22.6698 8.69008C22.6698 9.88008 22.4798 10.9801 22.1498 12.0001C20.5698 17.0001 15.6998 19.9901 13.2898 20.8101C12.9498 20.9301 12.3898 20.9301 12.0498 20.8101C11.4098 20.5901 10.5998 20.2201 9.7298 19.7001C9.1698 19.3701 9.0798 18.5901 9.5398 18.1301L20.8198 6.85008C21.3598 6.31008 22.3098 6.54007 22.4998 7.28007C22.6098 7.73007 22.6698 8.20008 22.6698 8.69008Z" fill="#292D32"/>
<path d="M23.1994 1.46994C22.9094 1.17994 22.4294 1.17994 22.1394 1.46994L19.7994 3.80994C19.0094 3.35994 18.0894 3.09995 17.1094 3.09995C15.2994 3.09995 13.6794 3.97993 12.6694 5.32993C11.6594 3.97993 10.0394 3.09995 8.2294 3.09995C5.1594 3.09995 2.6694 5.59994 2.6694 8.68994C2.6694 9.87994 2.85942 10.9799 3.18942 11.9999C3.83942 14.0699 5.05942 15.8 6.43942 17.17L2.13938 21.4699C1.84938 21.7599 1.84938 22.2399 2.13938 22.5299C2.28938 22.6799 2.4794 22.7499 2.6694 22.7499C2.8594 22.7499 3.04943 22.6799 3.19943 22.5299L23.1994 2.52994C23.4894 2.23994 23.4894 1.75994 23.1994 1.46994Z" fill="#292D32"/>
</svg>
