<svg width="25" height="24" viewBox="0 0 25 24" fill="none" xmlns="http://www.w3.org/2000/svg">
<path opacity="0.4" d="M22.6699 8.69009C22.6699 9.88009 22.4799 10.9801 22.1499 12.0001C21.9399 12.6701 21.6699 13.3101 21.3499 13.9001C20.4699 12.9701 19.2399 12.4001 17.8699 12.4001C15.2199 12.4001 13.0699 14.5501 13.0699 17.2001C13.0699 18.4301 13.5399 19.5501 14.2999 20.4001C13.9299 20.5701 13.5899 20.7101 13.2899 20.8101C12.9499 20.9301 12.3899 20.9301 12.0499 20.8101C9.63993 19.9901 4.76994 17.0001 3.18994 12.0001C2.85994 10.9801 2.66992 9.88009 2.66992 8.69009C2.66992 5.60009 5.15992 3.1001 8.22992 3.1001C10.0399 3.1001 11.6599 3.98008 12.6699 5.33008C13.6799 3.98008 15.2999 3.1001 17.1099 3.1001C20.1799 3.1001 22.6699 5.60009 22.6699 8.69009Z" fill="#292D32"/>
<path d="M21.3603 13.9199C21.3503 13.9199 21.3503 13.9099 21.3503 13.9099V13.8999C20.4703 12.9799 19.2403 12.3999 17.8703 12.3999C15.2203 12.3999 13.0703 14.5499 13.0703 17.1999C13.0703 18.4299 13.5403 19.5499 14.3003 20.3999C15.1803 21.3799 16.4503 21.9999 17.8703 21.9999C20.5203 21.9999 22.6703 19.8499 22.6703 17.1999C22.6703 15.9299 22.1703 14.7799 21.3603 13.9199ZM19.6803 19.0699C19.5403 19.2099 19.3403 19.2899 19.1503 19.2899C18.9603 19.2899 18.7703 19.2099 18.6203 19.0699L17.8803 18.3299L17.1203 19.0999C16.9703 19.2399 16.7803 19.3199 16.5903 19.3199C16.4903 19.3199 16.4003 19.2999 16.3103 19.2599C16.2203 19.2299 16.1303 19.1699 16.0603 19.0999C15.7603 18.7999 15.7603 18.3299 16.0603 18.0399L16.8203 17.2699L16.0903 16.5299C15.7903 16.2399 15.7903 15.7599 16.0903 15.4699C16.3803 15.1799 16.8503 15.1799 17.1503 15.4699L17.8803 16.2099L18.5903 15.4999C18.8903 15.2099 19.3603 15.2099 19.6503 15.4999C19.8203 15.6699 19.8903 15.8899 19.8603 16.1099C19.8503 16.2799 19.7803 16.4399 19.6503 16.5599L18.9403 17.2699L19.6803 18.0099C19.9803 18.2999 19.9803 18.7699 19.6803 19.0699Z" fill="#292D32"/>
</svg>
