<svg width="25" height="24" viewBox="0 0 25 24" fill="none" xmlns="http://www.w3.org/2000/svg">
<path opacity="0.4" d="M16.8599 2H8.48993C4.84993 2 2.67993 4.17 2.67993 7.81V16.18C2.67993 19.82 4.84993 21.99 8.48993 21.99H16.8599C20.4999 21.99 22.6699 19.82 22.6699 16.18V7.81C22.6699 4.17 20.4999 2 16.8599 2Z" fill="#292D32"/>
<path d="M17.0799 14.17C16.4699 12.43 14.8299 11.26 12.9899 11.26C12.9799 11.26 12.9799 11.26 12.9699 11.26L10.9099 11.27C10.9099 11.27 10.9099 11.27 10.8999 11.27C10.1399 11.27 9.47991 10.76 9.27991 10.03C10.1699 9.75 10.8199 8.92 10.8199 7.94C10.8199 6.73 9.82993 5.73999 8.61993 5.73999C7.40993 5.73999 6.41992 6.73 6.41992 7.94C6.41992 8.83 6.95991 9.6 7.71991 9.94V14.28C6.95991 14.58 6.41992 15.32 6.41992 16.18C6.41992 17.31 7.33991 18.23 8.46991 18.23C9.59991 18.23 10.5199 17.31 10.5199 16.18C10.5199 15.31 9.97991 14.58 9.21991 14.28V12.26C9.70991 12.57 10.2899 12.75 10.8999 12.75H10.9099L12.9699 12.74C14.1499 12.7 15.1999 13.46 15.6199 14.56C15.1299 14.94 14.8099 15.52 14.8099 16.18C14.8099 17.31 15.7299 18.23 16.8599 18.23C17.9899 18.23 18.9099 17.31 18.9099 16.18C18.9199 15.14 18.1099 14.28 17.0799 14.17Z" fill="#292D32"/>
</svg>
