<svg width="25" height="24" viewBox="0 0 25 24" fill="none" xmlns="http://www.w3.org/2000/svg">
<path opacity="0.4" d="M16.8599 22H8.48993C4.84993 22 2.67993 19.83 2.67993 16.19V7.82001C2.67993 4.18001 4.84993 2.01001 8.48993 2.01001H16.8599C20.4999 2.01001 22.6699 4.18001 22.6699 7.82001V16.19C22.6699 19.83 20.4999 22 16.8599 22Z" fill="#292D32"/>
<path d="M17.0799 9.83002C16.4699 11.57 14.8299 12.74 12.9899 12.74C12.9799 12.74 12.9799 12.74 12.9699 12.74L10.9099 12.73C10.9099 12.73 10.9099 12.73 10.8999 12.73C10.1399 12.73 9.47991 13.24 9.27991 13.97C10.1699 14.25 10.8199 15.08 10.8199 16.06C10.8199 17.27 9.82993 18.26 8.61993 18.26C7.40993 18.26 6.41992 17.27 6.41992 16.06C6.41992 15.17 6.95991 14.4 7.71991 14.06V9.72003C6.95991 9.42003 6.41992 8.68004 6.41992 7.82004C6.41992 6.69004 7.33991 5.77002 8.46991 5.77002C9.59991 5.77002 10.5199 6.69004 10.5199 7.82004C10.5199 8.69004 9.97991 9.42003 9.21991 9.72003V11.74C9.70991 11.43 10.2899 11.25 10.8999 11.25H10.9099L12.9699 11.26C14.1499 11.3 15.1999 10.54 15.6199 9.44003C15.1299 9.06003 14.8099 8.48004 14.8099 7.82004C14.8099 6.69004 15.7299 5.77002 16.8599 5.77002C17.9899 5.77002 18.9099 6.69004 18.9099 7.82004C18.9199 8.86004 18.1099 9.72002 17.0799 9.83002Z" fill="#292D32"/>
</svg>
