<svg width="25" height="24" viewBox="0 0 25 24" fill="none" xmlns="http://www.w3.org/2000/svg">
<path opacity="0.4" d="M20.7102 6.82018L14.9502 2.79018C13.3802 1.69018 10.9702 1.75018 9.46016 2.92018L4.45016 6.83018C3.45016 7.61018 2.66016 9.21018 2.66016 10.4702V17.3702C2.66016 19.9202 4.73016 22.0002 7.28016 22.0002H18.0602C20.6102 22.0002 22.6802 19.9302 22.6802 17.3802V10.6002C22.6802 9.25018 21.8102 7.59018 20.7102 6.82018Z" fill="#292D32"/>
<path d="M17.5501 14.3304C17.5501 13.9404 17.2401 13.6304 16.8501 13.6304C16.4601 13.6304 16.1501 13.9404 16.1501 14.3304V14.5104L13.4301 11.7904C13.2801 11.6404 13.0801 11.5704 12.8701 11.5904C12.6601 11.6104 12.4701 11.7204 12.3601 11.9004L11.3401 13.4204L8.96008 11.0404C8.69008 10.7704 8.25008 10.7704 7.97008 11.0404C7.70008 11.3104 7.70008 11.7504 7.97008 12.0304L10.9501 15.0104C11.1001 15.1604 11.3001 15.2304 11.5101 15.2104C11.7201 15.1904 11.9101 15.0804 12.0201 14.9004L13.0401 13.3804L15.1501 15.4904H14.9701C14.5801 15.4904 14.2701 15.8004 14.2701 16.1904C14.2701 16.5804 14.5801 16.8904 14.9701 16.8904H16.8301C16.9201 16.8904 17.0101 16.8704 17.1001 16.8404C17.2701 16.7704 17.4101 16.6304 17.4801 16.4604C17.5201 16.3704 17.5301 16.2804 17.5301 16.1904V14.3304H17.5501Z" fill="#292D32"/>
</svg>
