<svg width="25" height="24" viewBox="0 0 25 24" fill="none" xmlns="http://www.w3.org/2000/svg">
<path opacity="0.4" d="M20.6999 6.82018L14.9499 2.79018C13.3799 1.69018 10.9799 1.75018 9.46992 2.92018L4.45992 6.83018C3.44992 7.61018 2.66992 9.21018 2.66992 10.4702V17.3702C2.66992 19.9202 4.73992 22.0002 7.27992 22.0002H18.0499C20.5899 22.0002 22.6599 19.9302 22.6599 17.3802V10.6002C22.6699 9.25018 21.7999 7.59018 20.6999 6.82018Z" fill="#292D32"/>
<path d="M14.0703 8.51025H11.2703C9.35027 8.51025 7.78027 10.0703 7.78027 12.0003V14.7903C7.78027 16.7103 9.35027 18.2803 11.2703 18.2803H14.0603C15.9803 18.2803 17.5503 16.7203 17.5503 14.7903V12.0003C17.5503 10.0803 15.9903 8.51025 14.0703 8.51025ZM16.1603 12.0003V12.7003H13.3703V9.91025H14.0703C15.2203 9.91025 16.1603 10.8503 16.1603 12.0003ZM11.2703 9.91025H11.9703V12.7003H9.18027V12.0003C9.18027 10.8503 10.1203 9.91025 11.2703 9.91025ZM9.18027 14.7903V14.0903H11.9703V16.8803H11.2703C10.1203 16.8803 9.18027 15.9403 9.18027 14.7903ZM14.0703 16.8803H13.3703V14.0903H16.1603V14.7903C16.1603 15.9403 15.2203 16.8803 14.0703 16.8803Z" fill="#292D32"/>
</svg>
