<svg width="25" height="24" viewBox="0 0 25 24" fill="none" xmlns="http://www.w3.org/2000/svg">
<path opacity="0.4" d="M20.7102 6.82L14.9502 2.79C13.3802 1.69 10.9702 1.75 9.46016 2.92L4.45016 6.83C3.45016 7.61 2.66016 9.21 2.66016 10.47V17.37C2.66016 19.92 4.73016 22 7.28016 22H18.0602C20.6102 22 22.6802 19.93 22.6802 17.38V10.6C22.6802 9.25 21.8102 7.59 20.7102 6.82Z" fill="#292D32"/>
<path d="M12.6699 18.75C12.2599 18.75 11.9199 18.41 11.9199 18V15C11.9199 14.59 12.2599 14.25 12.6699 14.25C13.0799 14.25 13.4199 14.59 13.4199 15V18C13.4199 18.41 13.0799 18.75 12.6699 18.75Z" fill="#292D32"/>
</svg>
