<svg width="25" height="24" viewBox="0 0 25 24" fill="none" xmlns="http://www.w3.org/2000/svg">
<path d="M22.6699 22.75H2.66992C2.25992 22.75 1.91992 22.41 1.91992 22C1.91992 21.59 2.25992 21.25 2.66992 21.25H22.6699C23.0799 21.25 23.4199 21.59 23.4199 22C23.4199 22.41 23.0799 22.75 22.6699 22.75Z" fill="#292D32"/>
<path opacity="0.4" d="M21.6701 9.98017V22.0002H3.62012L3.67012 9.97016C3.67012 9.36016 3.95012 8.78022 4.44012 8.40022L11.4401 2.96021C12.1601 2.39021 13.1801 2.39021 13.9001 2.96021L15.2401 4.00019L19.6701 7.4402L20.9001 8.40022C21.3901 8.78022 21.6701 9.36017 21.6701 9.98017Z" fill="#292D32"/>
<path d="M13.6699 17H11.6699C10.8399 17 10.1699 17.67 10.1699 18.5V22H15.1699V18.5C15.1699 17.67 14.4999 17 13.6699 17Z" fill="#292D32"/>
<path d="M10.1699 13.75H8.16992C7.61992 13.75 7.16992 13.3 7.16992 12.75V11.25C7.16992 10.7 7.61992 10.25 8.16992 10.25H10.1699C10.7199 10.25 11.1699 10.7 11.1699 11.25V12.75C11.1699 13.3 10.7199 13.75 10.1699 13.75Z" fill="#292D32"/>
<path d="M17.1699 13.75H15.1699C14.6199 13.75 14.1699 13.3 14.1699 12.75V11.25C14.1699 10.7 14.6199 10.25 15.1699 10.25H17.1699C17.7199 10.25 18.1699 10.7 18.1699 11.25V12.75C18.1699 13.3 17.7199 13.75 17.1699 13.75Z" fill="#292D32"/>
<path d="M19.6697 7.44L15.2397 4H18.6497C19.1997 4 19.6497 4.43999 19.6497 4.98999L19.6697 7.44Z" fill="#292D32"/>
</svg>
