<svg width="25" height="24" viewBox="0 0 25 24" fill="none" xmlns="http://www.w3.org/2000/svg">
<path opacity="0.58" d="M24.6699 0H0.669922V24H24.6699V0Z" fill="white"/>
<path opacity="0.4" d="M4.79002 2H20.56C21.16 2 21.62 2.52 21.55 3.11L19.75 19.33C19.71 19.73 19.42 20.07 19.03 20.18L12.95 21.92C12.77 21.97 12.58 21.97 12.4 21.92L6.32002 20.18C5.93002 20.07 5.65002 19.73 5.60002 19.33L3.80002 3.11C3.73002 2.52 4.19002 2 4.79002 2Z" fill="#292D32"/>
<path d="M17.7299 6.49998C17.5899 6.33998 17.3899 6.24998 17.1699 6.24998L8.16992 6.22998C7.75992 6.22998 7.41992 6.55998 7.41992 6.97998C7.41992 7.38998 7.74992 7.72998 8.16992 7.72998L16.3299 7.74998L16.0499 10.25H8.66992C8.25992 10.25 7.91992 10.59 7.91992 11C7.91992 11.41 8.25992 11.75 8.66992 11.75H15.8899L15.4799 15.42L12.6699 16.22L9.78992 15.4L9.38992 13.82C9.28992 13.42 8.87992 13.17 8.47992 13.27C8.07992 13.37 7.82992 13.78 7.92992 14.18L8.42992 16.18C8.48992 16.44 8.68992 16.65 8.94992 16.72L12.4499 17.72C12.5199 17.74 12.5899 17.75 12.6599 17.75C12.7299 17.75 12.7999 17.74 12.8699 17.72L16.3699 16.72C16.6599 16.64 16.8799 16.39 16.9099 16.08L17.9099 7.07998C17.9399 6.86998 17.8699 6.65998 17.7299 6.49998Z" fill="#292D32"/>
</svg>
