<svg width="25" height="24" viewBox="0 0 25 24" fill="none" xmlns="http://www.w3.org/2000/svg">
<path opacity="0.58" d="M24.6699 0H0.669922V24H24.6699V0Z" fill="white"/>
<path opacity="0.4" d="M20.9297 5.25C20.0997 5.25 19.4297 4.58 19.4297 3.75C19.4297 2.92 20.0997 2.25 20.9297 2.25H20.9397C21.7697 2.25 22.4397 2.92 22.4397 3.75C22.4397 4.58 21.7597 5.25 20.9297 5.25Z" fill="#292D32"/>
<path opacity="0.4" d="M4.42969 21.75C3.59969 21.75 2.92969 21.08 2.92969 20.25C2.92969 19.42 3.59969 18.75 4.42969 18.75H4.43967C5.26967 18.75 5.93967 19.42 5.93967 20.25C5.93967 21.08 5.25969 21.75 4.42969 21.75Z" fill="#292D32"/>
<path d="M6.69992 16.4C6.44992 16.4 6.19994 16.27 6.05994 16.04C5.31994 14.83 4.91992 13.43 4.91992 12C4.91992 7.73 8.39992 4.25 12.6699 4.25C14.0799 4.25 15.4599 4.63 16.6599 5.35C17.0099 5.56 17.1299 6.02 16.9199 6.38C16.7099 6.73 16.2499 6.85 15.8899 6.64C14.9199 6.06 13.8099 5.75 12.6799 5.75C9.22993 5.75 6.42993 8.55 6.42993 12C6.42993 13.15 6.74991 14.28 7.34991 15.26C7.56991 15.61 7.45991 16.07 7.09991 16.29C6.96991 16.37 6.82992 16.4 6.69992 16.4Z" fill="#292D32"/>
<path d="M12.67 19.75C11.23 19.75 9.83005 19.35 8.62005 18.61C8.27005 18.39 8.16005 17.93 8.37005 17.58C8.59005 17.23 9.05005 17.12 9.40005 17.33C10.38 17.93 11.51 18.25 12.67 18.25C16.12 18.25 18.92 15.45 18.92 12C18.92 10.85 18.6 9.72004 18 8.74004C17.78 8.39004 17.89 7.93004 18.25 7.71004C18.6 7.50004 19.06 7.60004 19.28 7.96004C20.02 9.18004 20.42 10.57 20.42 12.01C20.42 16.27 16.94 19.75 12.67 19.75Z" fill="#292D32"/>
</svg>
