<svg width="25" height="24" viewBox="0 0 25 24" fill="none" xmlns="http://www.w3.org/2000/svg">
<path opacity="0.4" d="M22.6699 10.76C22.6699 10.29 22.2899 9.90002 21.8099 9.90002H3.52992C3.04992 9.90002 2.66992 10.28 2.66992 10.76C2.66992 16.65 6.77992 20.76 12.6699 20.76C18.5599 20.76 22.6699 16.64 22.6699 10.76Z" fill="#292D32"/>
<path d="M13.1298 15.9L15.9798 13.06C16.2698 12.77 16.2698 12.29 15.9798 12C15.6898 11.71 15.2098 11.71 14.9198 12L13.3598 13.56V3.98999C13.3598 3.57999 13.0198 3.23999 12.6098 3.23999C12.1998 3.23999 11.8598 3.57999 11.8598 3.98999V13.56L10.2898 12C9.99977 11.71 9.51977 11.71 9.22977 12C9.07977 12.15 9.00977 12.34 9.00977 12.53C9.00977 12.72 9.07977 12.91 9.22977 13.06L12.0798 15.9C12.3698 16.2 12.8398 16.2 13.1298 15.9Z" fill="#292D32"/>
</svg>
