<svg width="25" height="24" viewBox="0 0 25 24" fill="none" xmlns="http://www.w3.org/2000/svg">
<path opacity="0.4" d="M16.8599 2H8.47992C4.83992 2 2.66992 4.17 2.66992 7.81V16.18C2.66992 19.83 4.83992 22 8.47992 22H16.8499C20.4899 22 22.6599 19.83 22.6599 16.19V7.81C22.6699 4.17 20.4999 2 16.8599 2Z" fill="#292D32"/>
<path d="M12.67 15.88C14.8129 15.88 16.55 14.1429 16.55 12C16.55 9.85713 14.8129 8.12 12.67 8.12C10.5272 8.12 8.79004 9.85713 8.79004 12C8.79004 14.1429 10.5272 15.88 12.67 15.88Z" fill="#292D32"/>
<path d="M17.6699 7.5C17.3999 7.5 17.1499 7.4 16.9599 7.21C16.8699 7.11 16.7999 7 16.7499 6.88C16.6999 6.76 16.6699 6.63 16.6699 6.5C16.6699 6.37 16.6999 6.24 16.7499 6.12C16.7999 5.99 16.8699 5.89 16.9599 5.79C17.1899 5.56 17.5399 5.45 17.8599 5.52C17.9299 5.53 17.9899 5.55 18.0499 5.58C18.1099 5.6 18.1699 5.63 18.2299 5.67C18.2799 5.7 18.3299 5.75 18.3799 5.79C18.4699 5.89 18.5399 5.99 18.5899 6.12C18.6399 6.24 18.6699 6.37 18.6699 6.5C18.6699 6.63 18.6399 6.76 18.5899 6.88C18.5399 7 18.4699 7.11 18.3799 7.21C18.2799 7.3 18.1699 7.37 18.0499 7.42C17.9299 7.47 17.7999 7.5 17.6699 7.5Z" fill="#292D32"/>
</svg>
