<svg width="25" height="24" viewBox="0 0 25 24" fill="none" xmlns="http://www.w3.org/2000/svg">
<path opacity="0.4" d="M16.8599 2H8.47992C4.83992 2 2.66992 4.17 2.66992 7.81V16.18C2.66992 19.83 4.83992 22 8.47992 22H16.8499C20.4899 22 22.6599 19.83 22.6599 16.19V7.81C22.6699 4.17 20.4999 2 16.8599 2Z" fill="#292D32"/>
<path d="M16.5601 8.10982C15.0801 6.63982 12.6801 6.63982 11.2101 8.10982C10.1801 9.12982 9.87012 10.6098 10.2701 11.9098L7.92012 14.2598C7.76012 14.4298 7.64012 14.7598 7.68012 14.9998L7.83012 16.0898C7.88012 16.4498 8.22012 16.7898 8.58012 16.8398L9.67012 16.9998C9.91012 17.0298 10.2401 16.9298 10.4101 16.7498L10.8201 16.3398C10.9201 16.2498 10.9201 16.0898 10.8201 15.9898L9.85012 15.0198C9.71012 14.8798 9.71012 14.6398 9.85012 14.4898C9.99012 14.3498 10.2301 14.3498 10.3801 14.4898L11.3501 15.4598C11.4401 15.5498 11.6001 15.5498 11.7001 15.4598L12.7601 14.4098C14.0501 14.8098 15.5301 14.4998 16.5601 13.4798C18.0401 11.9898 18.0401 9.58982 16.5601 8.10982ZM13.9201 11.9998C13.2301 11.9998 12.6701 11.4398 12.6701 10.7498C12.6701 10.0598 13.2301 9.49982 13.9201 9.49982C14.6101 9.49982 15.1701 10.0598 15.1701 10.7498C15.1701 11.4398 14.6101 11.9998 13.9201 11.9998Z" fill="#292D32"/>
</svg>
