<svg width="25" height="24" viewBox="0 0 25 24" fill="none" xmlns="http://www.w3.org/2000/svg">
<path opacity="0.4" d="M18.9399 3.35C18.4699 3.28 17.9299 3.25 17.1699 3.25H8.16992C7.41992 3.25 6.86992 3.28 6.42992 3.34C3.07992 3.71 2.41992 5.7 2.41992 9V15C2.41992 18.3 3.07992 20.29 6.39992 20.65C6.86992 20.72 7.40992 20.75 8.16992 20.75H17.1699C17.9199 20.75 18.4699 20.72 18.9099 20.66C22.2599 20.29 22.9199 18.31 22.9199 15V9C22.9199 5.7 22.2599 3.71 18.9399 3.35Z" fill="#292D32"/>
<path d="M17.6699 10.75H14.1699C13.7599 10.75 13.4199 10.41 13.4199 10C13.4199 9.59 13.7599 9.25 14.1699 9.25H17.6699C18.0799 9.25 18.4199 9.59 18.4199 10C18.4199 10.41 18.0799 10.75 17.6699 10.75Z" fill="#292D32"/>
<path d="M10.7695 11C10.2195 11 9.76953 10.55 9.76953 10C9.76953 9.45 10.2095 9 10.7695 9H10.7795C11.3295 9 11.7795 9.45 11.7795 10C11.7795 10.55 11.3295 11 10.7695 11Z" fill="#292D32"/>
<path d="M7.76953 11C7.21953 11 6.76953 10.55 6.76953 10C6.76953 9.45 7.20953 9 7.76953 9C8.31953 9 8.76953 9.45 8.76953 10C8.76953 10.55 8.32953 11 7.76953 11Z" fill="#292D32"/>
<path d="M17.6697 16.25H7.68969C7.27969 16.25 6.92969 15.91 6.92969 15.5C6.92969 15.09 7.25969 14.75 7.66969 14.75H17.6697C18.0797 14.75 18.4197 15.09 18.4197 15.5C18.4197 15.91 18.0797 16.25 17.6697 16.25Z" fill="#292D32"/>
</svg>
