<svg width="25" height="24" viewBox="0 0 25 24" fill="none" xmlns="http://www.w3.org/2000/svg">
<path opacity="0.58" d="M24.6699 0H0.669922V24H24.6699V0Z" fill="white"/>
<path opacity="0.6" d="M19.6699 7.16003V15.97C19.6699 16.4 19.5299 16.81 19.2899 17.15L18.8299 16.91L10.6699 12L19.2099 7.26003L19.6599 7.03003C19.6699 7.07003 19.6699 7.12003 19.6699 7.16003Z" fill="#292D32"/>
<path d="M19.6599 7.02995L19.2099 7.25995L10.6699 11.9999L12.6699 2.99995L12.8099 2.31995C13.0999 2.33995 13.3899 2.41995 13.6599 2.56995L18.6599 5.41995C19.2499 5.75995 19.6199 6.35995 19.6599 7.02995Z" fill="#292D32"/>
<path opacity="0.4" d="M12.6699 2.99997L10.6699 12L12.5199 21.23L12.5699 21.53C12.1899 21.52 11.8199 21.4 11.5099 21.17L6.50995 17.6C5.97995 17.22 5.66992 16.62 5.66992 15.97V7.15997C5.66992 6.43997 6.04993 5.77997 6.67993 5.41997L11.6799 2.56997C12.0299 2.36997 12.4199 2.27997 12.8099 2.31997L12.6699 2.99997Z" fill="#292D32"/>
<path d="M19.2899 17.15C19.1599 17.32 19.0099 17.47 18.8299 17.6L13.8299 21.17C13.4599 21.44 13.0099 21.56 12.5699 21.53L12.5199 21.23L10.6699 12L18.8299 16.91L19.2899 17.15Z" fill="#292D32"/>
</svg>
