<svg width="25" height="24" viewBox="0 0 25 24" fill="none" xmlns="http://www.w3.org/2000/svg">
<path d="M15.9301 21.9999C15.8701 21.9999 15.8001 21.9899 15.7401 21.9699C13.7301 21.3999 11.6201 21.3999 9.61008 21.9699C9.24008 22.0699 8.85008 21.8599 8.75008 21.4899C8.64008 21.1199 8.86008 20.7299 9.23008 20.6299C11.4901 19.9899 13.8701 19.9899 16.1301 20.6299C16.5001 20.7399 16.7201 21.1199 16.6101 21.4899C16.5101 21.7999 16.2301 21.9999 15.9301 21.9999Z" fill="#292D32"/>
<path d="M4.85004 19.0799C4.66004 19.0799 4.47004 19.0099 4.32004 18.8599C4.03004 18.5699 4.03004 18.0899 4.32004 17.7999L20.17 1.94992C20.46 1.65992 20.94 1.65992 21.23 1.94992C21.52 2.23992 21.52 2.71992 21.23 3.00992L5.38004 18.8599C5.23004 19.0099 5.04004 19.0799 4.85004 19.0799Z" fill="#292D32"/>
<path opacity="0.4" d="M17.3001 3.42007L6.16014 14.5601C5.20014 13.2001 4.64014 11.6001 4.64014 10.0501C4.64014 7.60007 5.73014 5.31007 7.64014 3.77007C9.55014 2.23007 12.0501 1.66007 14.5001 2.20007C15.5101 2.42007 16.4601 2.84007 17.3001 3.42007Z" fill="#292D32"/>
<path opacity="0.4" d="M16.8398 16.9201V17.6201C16.8498 17.8801 16.8698 18.3801 16.4798 18.7801C16.1998 19.0601 15.7898 19.2101 15.2498 19.2101H10.1198C9.70978 19.2101 9.18979 19.1601 8.83979 18.8101C8.50979 18.4601 8.51979 18.0301 8.52979 17.7501V16.9201C8.07979 16.6201 7.65979 16.2801 7.27979 15.9001L18.6198 4.56006C19.1198 5.09006 19.5498 5.70006 19.8798 6.36006C21.8998 10.4201 19.9498 14.8301 16.8398 16.9201Z" fill="#292D32"/>
</svg>
