<svg width="25" height="24" viewBox="0 0 25 24" fill="none" xmlns="http://www.w3.org/2000/svg">
<path opacity="0.4" d="M22.6396 12C22.6396 14.49 21.7296 16.77 20.2196 18.52C19.8896 18.9 19.5396 19.26 19.1596 19.57C17.4196 21.09 15.1396 22 12.6396 22C10.1496 22 7.86965 21.09 6.11965 19.58C5.73965 19.25 5.38965 18.9 5.05965 18.52C3.54965 16.77 2.63965 14.49 2.63965 12C2.63965 9.51 3.54965 7.23 5.06965 5.48C5.38965 5.1 5.74965 4.74 6.12965 4.42C7.87965 2.91 10.1496 2 12.6396 2C15.1396 2 17.4196 2.91 19.1596 4.43C19.5396 4.75 19.8996 5.1 20.2196 5.49C21.7296 7.24 22.6396 9.51 22.6396 12Z" fill="#292D32"/>
<path d="M16.3196 14.6199L20.2196 18.5199C19.8896 18.8999 19.5396 19.2599 19.1596 19.5699L15.2596 15.6699C14.5196 16.1899 13.6296 16.4999 12.6696 16.4999C11.6896 16.4999 10.7896 16.1799 10.0496 15.6499L6.11957 19.5799C5.73957 19.2499 5.38957 18.8999 5.05957 18.5199L8.99957 14.5899C8.47957 13.8499 8.16957 12.9599 8.16957 11.9999C8.16957 11.0399 8.47957 10.1499 8.99957 9.40992L5.06957 5.47992C5.38957 5.09992 5.74957 4.73992 6.12957 4.41992L10.0496 8.34992C10.7896 7.81992 11.6896 7.49992 12.6696 7.49992C13.6296 7.49992 14.5196 7.80992 15.2596 8.32992L19.1596 4.42992C19.5396 4.74992 19.8996 5.09992 20.2196 5.48992L16.3196 9.37992C16.8496 10.1199 17.1696 11.0199 17.1696 11.9999C17.1696 12.9799 16.8496 13.8799 16.3196 14.6199Z" fill="#292D32"/>
</svg>
