<svg width="25" height="24" viewBox="0 0 25 24" fill="none" xmlns="http://www.w3.org/2000/svg">
<path opacity="0.4" d="M13.8201 15.3699C13.6001 15.0499 13.2101 14.8699 12.7601 14.8699H10.4301C10.2801 14.8699 10.1301 14.8099 10.0401 14.6899C9.94008 14.5699 9.90007 14.4199 9.92007 14.2499L10.2101 12.3899C10.3301 11.8399 9.96007 11.2099 9.41007 11.0199C8.89007 10.8299 8.29008 11.0899 8.04008 11.4599L5.65008 15.0099L5.58008 15.1299V20.1499L5.67007 20.2398L7.47008 21.6299C7.71008 21.8699 8.25007 21.9999 8.63007 21.9999H10.8401C11.6001 21.9999 12.3601 21.4298 12.5401 20.7298L13.9401 16.4798C14.0801 16.0698 14.0401 15.6799 13.8201 15.3699Z" fill="#292D32"/>
<path d="M4.48992 13.2998H3.90992C3.02992 13.2998 2.66992 13.6398 2.66992 14.4798V20.1898C2.66992 21.0298 3.02992 21.3698 3.90992 21.3698H4.48992C5.36992 21.3698 5.72992 21.0298 5.72992 20.1898V14.4798C5.72992 13.6398 5.36992 13.2998 4.48992 13.2998Z" fill="#292D32"/>
<path opacity="0.4" d="M11.8696 8.59973C12.0896 8.91973 12.4796 9.09973 12.9296 9.09973H15.2596C15.4096 9.09973 15.5596 9.15979 15.6496 9.27979C15.7496 9.39979 15.7896 9.54973 15.7696 9.71973L15.4796 11.5798C15.3596 12.1298 15.7296 12.7598 16.2796 12.9498C16.7996 13.1398 17.3996 12.8798 17.6496 12.5098L20.0396 8.95978L20.1096 8.83978V3.81976L20.0196 3.72974L18.2196 2.33978C17.9796 2.09978 17.4396 1.96973 17.0596 1.96973H14.8496C14.0896 1.96973 13.3296 2.53975 13.1496 3.23975L11.7496 7.48975C11.6096 7.88975 11.6496 8.28973 11.8696 8.59973Z" fill="#292D32"/>
<path d="M21.2 10.6696H21.78C22.66 10.6696 23.02 10.3296 23.02 9.48962V3.77966C23.02 2.93966 22.66 2.59961 21.78 2.59961H21.2C20.32 2.59961 19.96 2.93966 19.96 3.77966V9.48962C19.96 10.3296 20.32 10.6696 21.2 10.6696Z" fill="#292D32"/>
</svg>
