<svg width="25" height="24" viewBox="0 0 25 24" fill="none" xmlns="http://www.w3.org/2000/svg">
<path opacity="0.4" d="M16.8616 2H8.49165C4.85165 2 2.68164 4.17 2.68164 7.81V16.18C2.68164 19.82 4.85165 21.99 8.49165 21.99H16.8616C20.5016 21.99 22.6716 19.82 22.6716 16.18V7.81C22.6716 4.17 20.5016 2 16.8616 2Z" fill="#292D32"/>
<path d="M8.85147 16.77C8.83147 16.77 8.80148 16.77 8.78148 16.77C7.81148 16.68 6.90148 16.23 6.22148 15.51C4.62148 13.83 4.62148 11.1 6.22148 9.41998L8.41149 7.11996C9.19149 6.29996 10.2415 5.83997 11.3615 5.83997C12.4815 5.83997 13.5315 6.28996 14.3115 7.11996C15.9115 8.79996 15.9115 11.53 14.3115 13.21L13.2215 14.36C12.9315 14.66 12.4615 14.67 12.1615 14.39C11.8615 14.1 11.8515 13.63 12.1315 13.33L13.2215 12.18C14.2815 11.07 14.2815 9.25997 13.2215 8.15997C12.2315 7.11997 10.4915 7.11997 9.49149 8.15997L7.30149 10.46C6.24149 11.57 6.24149 13.38 7.30149 14.48C7.73149 14.94 8.31148 15.22 8.92148 15.28C9.33148 15.32 9.63148 15.69 9.59148 16.1C9.56148 16.48 9.23147 16.77 8.85147 16.77Z" fill="#292D32"/>
<path d="M13.9811 18.1599C12.8611 18.1599 11.8111 17.7099 11.0311 16.8799C9.43105 15.1999 9.43105 12.4699 11.0311 10.7899L12.1211 9.63991C12.4111 9.33991 12.881 9.32988 13.181 9.60988C13.481 9.89988 13.491 10.3699 13.211 10.6699L12.1211 11.8199C11.0611 12.9299 11.0611 14.7399 12.1211 15.8399C13.1111 16.8799 14.851 16.8899 15.851 15.8399L18.041 13.5399C19.101 12.4299 19.101 10.6199 18.041 9.51989C17.611 9.05989 17.0311 8.7799 16.4211 8.7199C16.0111 8.6799 15.7111 8.30989 15.7511 7.89989C15.7911 7.48989 16.151 7.17991 16.571 7.22991C17.541 7.32991 18.4511 7.76989 19.1311 8.48989C20.7311 10.1699 20.7311 12.8999 19.1311 14.5799L16.9411 16.8799C16.1511 17.7099 15.1011 18.1599 13.9811 18.1599Z" fill="#292D32"/>
</svg>
