<svg width="25" height="24" viewBox="0 0 25 24" fill="none" xmlns="http://www.w3.org/2000/svg">
<path opacity="0.4" d="M21.29 8.45C20.24 3.83 16.21 1.75 12.67 1.75C12.67 1.75 12.67 1.75 12.66 1.75C9.13002 1.75 5.09002 3.82 4.04002 8.44C2.87002 13.6 6.03002 17.97 8.89002 20.72C9.95002 21.74 11.31 22.25 12.67 22.25C14.03 22.25 15.39 21.74 16.44 20.72C19.3 17.97 22.46 13.61 21.29 8.45Z" fill="#292D32"/>
<path d="M12.6695 13.4602C14.4092 13.4602 15.8195 12.0499 15.8195 10.3102C15.8195 8.57046 14.4092 7.16016 12.6695 7.16016C10.9298 7.16016 9.51953 8.57046 9.51953 10.3102C9.51953 12.0499 10.9298 13.4602 12.6695 13.4602Z" fill="#292D32"/>
</svg>
