<svg width="25" height="24" viewBox="0 0 25 24" fill="none" xmlns="http://www.w3.org/2000/svg">
<path opacity="0.4" d="M19.5595 5.11L6.45955 18.21C4.56955 15.64 3.20955 12.36 4.04955 8.69C4.56955 6.38 5.84955 4.71 7.42955 3.61C9.00955 2.52 10.8995 2 12.6695 2C15.1095 2 17.7895 2.98 19.5595 5.11Z" fill="#292D32"/>
<path opacity="0.4" d="M16.4496 20.98C15.3896 22 14.0296 22.51 12.6696 22.51C11.3096 22.51 9.94957 21.99 8.88957 20.97C8.52957 20.63 8.16957 20.25 7.80957 19.86L20.7096 6.95996C20.9596 7.49996 21.1496 8.06996 21.2896 8.69996C22.4596 13.86 19.2996 18.22 16.4496 20.98Z" fill="#292D32"/>
<path d="M22.4395 2.23006C22.1395 1.92006 21.6595 1.92006 21.3595 2.23006L15.6895 7.90006L14.9695 8.62006C14.4295 7.88006 13.5795 7.44006 12.6695 7.44006C11.0895 7.44006 9.79949 8.73006 9.79949 10.3101C9.79949 11.2101 10.2395 12.0601 10.9795 12.6101L2.89949 20.6901C2.58949 20.9901 2.58949 21.4701 2.89949 21.7701C3.04949 21.9201 3.23949 22.0001 3.43949 22.0001C3.63949 22.0001 3.82949 21.9201 3.97949 21.7701L22.4395 3.31006C22.7495 3.01006 22.7495 2.53006 22.4395 2.23006Z" fill="#292D32"/>
</svg>
