<svg width="25" height="24" viewBox="0 0 25 24" fill="none" xmlns="http://www.w3.org/2000/svg">
<path opacity="0.4" d="M12.6699 22C18.1928 22 22.6699 17.5228 22.6699 12C22.6699 6.47715 18.1928 2 12.6699 2C7.14707 2 2.66992 6.47715 2.66992 12C2.66992 17.5228 7.14707 22 12.6699 22Z" fill="#292D32"/>
<path d="M16.42 10.73V10C16.42 9.07 16.42 6.25 12.67 6.25C8.92004 6.25 8.92004 9.07 8.92004 10V10.73C7.70004 11 7.29004 11.79 7.29004 13.5V14.5C7.29004 16.7 7.97004 17.38 10.17 17.38H15.17C17.37 17.38 18.05 16.7 18.05 14.5V13.5C18.05 11.79 17.64 11 16.42 10.73ZM12.67 15.1C12.06 15.1 11.5701 14.61 11.5701 14C11.5701 13.39 12.06 12.9 12.67 12.9C13.28 12.9 13.77 13.39 13.77 14C13.77 14.61 13.28 15.1 12.67 15.1ZM14.92 10.62H10.42V10C10.42 8.54 10.78 7.75 12.67 7.75C14.56 7.75 14.92 8.54 14.92 10V10.62Z" fill="#292D32"/>
</svg>
