<svg width="25" height="24" viewBox="0 0 25 24" fill="none" xmlns="http://www.w3.org/2000/svg">
<path d="M24.6699 0H0.669922V24H24.6699V0Z" fill="white"/>
<path opacity="0.4" d="M12.6699 22C18.1928 22 22.6699 17.5228 22.6699 12C22.6699 6.47715 18.1928 2 12.6699 2C7.14707 2 2.66992 6.47715 2.66992 12C2.66992 17.5228 7.14707 22 12.6699 22Z" fill="#292D32"/>
<path d="M11.42 15.2499C11.01 15.2499 10.67 14.9099 10.67 14.4999V12.4199L8 10.8199V14.4999C8 14.9099 7.66 15.2499 7.25 15.2499C6.84 15.2499 6.5 14.9099 6.5 14.4999V9.49995C6.5 9.22995 6.65 8.97995 6.88 8.84995C7.11 8.71995 7.4 8.71995 7.63 8.85995L11.8 11.3599C12.03 11.4999 12.16 11.7399 12.16 11.9999V14.4999C12.17 14.9099 11.83 15.2499 11.42 15.2499Z" fill="#292D32"/>
<path d="M18.0899 15.2499C17.6799 15.2499 17.3399 14.9099 17.3399 14.4999V10.8199L14.6699 12.4199V14.4999C14.6699 14.9099 14.3299 15.2499 13.9199 15.2499C13.5099 15.2499 13.1699 14.9099 13.1699 14.4999V11.9999C13.1699 11.7399 13.3099 11.4899 13.5299 11.3599L17.7 8.85995C17.93 8.71995 18.22 8.71995 18.45 8.84995C18.69 8.97995 18.8299 9.22995 18.8299 9.49995V14.4999C18.8399 14.9099 18.4999 15.2499 18.0899 15.2499Z" fill="#292D32"/>
</svg>
