<svg width="25" height="24" viewBox="0 0 25 24" fill="none" xmlns="http://www.w3.org/2000/svg">
<path opacity="0.4" d="M9.22996 3.33984V17.6698C8.88996 17.6798 8.54996 17.7598 8.29996 17.9098L5.94996 19.2498C4.30996 20.1898 2.95996 19.4098 2.95996 17.5098V7.77984C2.95996 7.14984 3.40996 6.36984 3.96996 6.04984L8.29996 3.56984C8.54996 3.42984 8.88996 3.34984 9.22996 3.33984Z" fill="#292D32"/>
<path d="M16.3995 6.32994V20.6599C16.0495 20.6699 15.7095 20.6099 15.4395 20.4799L10.1895 17.8499C9.91949 17.7199 9.57949 17.6599 9.22949 17.6699V3.33994C9.57949 3.32994 9.91949 3.38994 10.1895 3.51994L15.4395 6.14994C15.7095 6.27994 16.0495 6.33994 16.3995 6.32994Z" fill="#292D32"/>
<path opacity="0.4" d="M22.6704 6.49006V16.2201C22.6704 16.8501 22.2204 17.6301 21.6604 17.9501L17.3304 20.4301C17.0804 20.5701 16.7404 20.6501 16.4004 20.6601V6.33006C16.7404 6.32006 17.0804 6.24006 17.3304 6.09006L19.6804 4.75006C21.3204 3.81006 22.6704 4.59006 22.6704 6.49006Z" fill="#292D32"/>
</svg>
