<svg width="25" height="24" viewBox="0 0 25 24" fill="none" xmlns="http://www.w3.org/2000/svg">
<path opacity="0.4" d="M16.8599 2H8.47992C4.83992 2 2.66992 4.17 2.66992 7.81V16.18C2.66992 19.83 4.83992 22 8.47992 22H16.8499C20.4899 22 22.6599 19.83 22.6599 16.19V7.81C22.6699 4.17 20.4999 2 16.8599 2Z" fill="#292D32"/>
<path d="M3.41992 9.97C3.00992 9.97 2.66992 9.64 2.66992 9.22V6.91C2.66992 4.2 4.86992 2 7.57992 2H9.88992C10.2999 2 10.6399 2.34 10.6399 2.75C10.6399 3.16 10.3099 3.5 9.88992 3.5H7.57992C5.69992 3.5 4.16992 5.03 4.16992 6.91V9.22C4.16992 9.64 3.82992 9.97 3.41992 9.97Z" fill="#292D32"/>
<path d="M21.9197 9.97C21.5097 9.97 21.1697 9.63 21.1697 9.22V6.91C21.1697 5.03 19.6397 3.5 17.7597 3.5H15.4497C15.0397 3.5 14.6997 3.16 14.6997 2.75C14.6997 2.34 15.0297 2 15.4497 2H17.7597C20.4697 2 22.6697 4.2 22.6697 6.91V9.22C22.6697 9.64 22.3297 9.97 21.9197 9.97Z" fill="#292D32"/>
<path d="M17.7601 22H16.3701C15.9601 22 15.6201 21.66 15.6201 21.25C15.6201 20.84 15.9601 20.5 16.3701 20.5H17.7601C19.6401 20.5 21.1701 18.97 21.1701 17.09V15.7C21.1701 15.29 21.5101 14.95 21.9201 14.95C22.3301 14.95 22.6701 15.29 22.6701 15.7V17.09C22.6701 19.8 20.4701 22 17.7601 22Z" fill="#292D32"/>
<path d="M9.88992 22H7.57992C4.86992 22 2.66992 19.8 2.66992 17.09V14.78C2.66992 14.37 3.00992 14.03 3.41992 14.03C3.82992 14.03 4.16992 14.37 4.16992 14.78V17.09C4.16992 18.97 5.69992 20.5 7.57992 20.5H9.88992C10.2999 20.5 10.6399 20.84 10.6399 21.25C10.6399 21.66 10.3099 22 9.88992 22Z" fill="#292D32"/>
</svg>
