<svg width="25" height="24" viewBox="0 0 25 24" fill="none" xmlns="http://www.w3.org/2000/svg">
<path opacity="0.4" d="M16.8599 2H8.47992C4.83992 2 2.66992 4.17 2.66992 7.81V16.18C2.66992 19.83 4.83992 22 8.47992 22H16.8499C20.4899 22 22.6599 19.83 22.6599 16.19V7.81C22.6699 4.17 20.4999 2 16.8599 2Z" fill="#292D32"/>
<path d="M19.3599 5.71C19.2799 5.53 19.1399 5.38 18.9499 5.3C18.8599 5.27 18.7699 5.25 18.6699 5.25H14.6699C14.2599 5.25 13.9199 5.59 13.9199 6C13.9199 6.41 14.2599 6.75 14.6699 6.75H16.8599L7.41992 16.19V14C7.41992 13.59 7.07992 13.25 6.66992 13.25C6.25992 13.25 5.91992 13.59 5.91992 14V18C5.91992 18.1 5.93992 18.19 5.97992 18.29C6.05992 18.47 6.19992 18.62 6.38992 18.7C6.46992 18.73 6.56992 18.75 6.66992 18.75H10.6699C11.0799 18.75 11.4199 18.41 11.4199 18C11.4199 17.59 11.0799 17.25 10.6699 17.25H8.47992L17.9199 7.81V10C17.9199 10.41 18.2599 10.75 18.6699 10.75C19.0799 10.75 19.4199 10.41 19.4199 10V6C19.4199 5.9 19.3999 5.81 19.3599 5.71Z" fill="#292D32"/>
</svg>
