<svg width="25" height="24" viewBox="0 0 25 24" fill="none" xmlns="http://www.w3.org/2000/svg">
<path opacity="0.4" d="M18.21 8.81014C19.8448 8.81014 21.17 7.4849 21.17 5.85014C21.17 4.21537 19.8448 2.89014 18.21 2.89014C16.5752 2.89014 15.25 4.21537 15.25 5.85014C15.25 7.4849 16.5752 8.81014 18.21 8.81014Z" fill="#292D32"/>
<path d="M7.12992 8.81014C8.76468 8.81014 10.0899 7.4849 10.0899 5.85014C10.0899 4.21537 8.76468 2.89014 7.12992 2.89014C5.49516 2.89014 4.16992 4.21537 4.16992 5.85014C4.16992 7.4849 5.49516 8.81014 7.12992 8.81014Z" fill="#292D32"/>
<path d="M18.21 21.1099C19.8448 21.1099 21.17 19.7847 21.17 18.1499C21.17 16.5152 19.8448 15.1899 18.21 15.1899C16.5752 15.1899 15.25 16.5152 15.25 18.1499C15.25 19.7847 16.5752 21.1099 18.21 21.1099Z" fill="#292D32"/>
<path opacity="0.4" d="M7.12992 21.1099C8.76468 21.1099 10.0899 19.7847 10.0899 18.1499C10.0899 16.5152 8.76468 15.1899 7.12992 15.1899C5.49516 15.1899 4.16992 16.5152 4.16992 18.1499C4.16992 19.7847 5.49516 21.1099 7.12992 21.1099Z" fill="#292D32"/>
</svg>
