<svg width="25" height="24" viewBox="0 0 25 24" fill="none" xmlns="http://www.w3.org/2000/svg">
<path opacity="0.4" d="M16.6699 2H8.66992C4.66992 2 2.66992 4 2.66992 8V21C2.66992 21.55 3.11992 22 3.66992 22H16.6699C20.6699 22 22.6699 20 22.6699 16V8C22.6699 4 20.6699 2 16.6699 2Z" fill="#292D32"/>
<path d="M17.2203 7.45995C15.9603 6.19995 14.7403 6.16995 13.4503 7.45995L12.6603 8.24995C12.5903 8.31995 12.5704 8.41995 12.5904 8.50995C13.0804 10.2299 14.4503 11.5999 16.1703 12.0899C16.1903 12.0999 16.2203 12.0999 16.2503 12.0999C16.3203 12.0999 16.3903 12.0699 16.4403 12.0199L17.2203 11.2399C17.8603 10.5999 18.1703 9.98994 18.1703 9.36995C18.1703 8.71994 17.8603 8.09995 17.2203 7.45995Z" fill="#292D32"/>
<path d="M15.0103 12.6699C14.8203 12.5799 14.6403 12.4899 14.4703 12.3799C14.3303 12.2999 14.1904 12.2099 14.0604 12.1099C13.9504 12.0399 13.8203 11.9399 13.6903 11.8299C13.6703 11.8199 13.6304 11.7899 13.5804 11.7299C13.3704 11.5499 13.1303 11.3099 12.9103 11.0599C12.8903 11.0499 12.8603 10.9999 12.8203 10.9399C12.7503 10.8599 12.6504 10.7299 12.5504 10.5899C12.4704 10.4899 12.3804 10.3499 12.3004 10.2099C12.2004 10.0399 12.1004 9.85987 12.0204 9.67987C11.9304 9.47987 11.8603 9.29987 11.7903 9.11987L8.02036 12.8899C7.77036 13.1399 7.54036 13.5999 7.49036 13.9399L7.20035 16.0199C7.13035 16.4599 7.26034 16.8699 7.53034 17.1499C7.76034 17.3799 8.08036 17.4999 8.43036 17.4999C8.51036 17.4999 8.58034 17.4899 8.66034 17.4799L10.7404 17.1899C11.0804 17.1399 11.5403 16.9099 11.7903 16.6599L15.5604 12.8899C15.3804 12.8199 15.2003 12.7499 15.0103 12.6699Z" fill="#292D32"/>
</svg>
