<svg width="25" height="24" viewBox="0 0 25 24" fill="none" xmlns="http://www.w3.org/2000/svg">
<path opacity="0.4" d="M17.6699 18.4302H13.6699L9.21991 21.3902C8.55991 21.8302 7.66992 21.3602 7.66992 20.5602V18.4302C4.66992 18.4302 2.66992 16.4302 2.66992 13.4302V7.43018C2.66992 4.43018 4.66992 2.43018 7.66992 2.43018H17.6699C20.6699 2.43018 22.6699 4.43018 22.6699 7.43018V13.4302C22.6699 16.4302 20.6699 18.4302 17.6699 18.4302Z" fill="#292D32"/>
<path d="M12.6697 12.1099C12.2597 12.1099 11.9197 11.7699 11.9197 11.3599V11.1499C11.9197 9.9899 12.7697 9.41989 13.0897 9.19989C13.4597 8.94989 13.5797 8.7799 13.5797 8.5199C13.5797 8.0199 13.1697 7.60986 12.6697 7.60986C12.1697 7.60986 11.7598 8.0199 11.7598 8.5199C11.7598 8.9299 11.4198 9.2699 11.0098 9.2699C10.5998 9.2699 10.2598 8.9299 10.2598 8.5199C10.2598 7.1899 11.3397 6.10986 12.6697 6.10986C13.9997 6.10986 15.0797 7.1899 15.0797 8.5199C15.0797 9.6599 14.2397 10.2299 13.9297 10.4399C13.5397 10.6999 13.4197 10.8699 13.4197 11.1499V11.3599C13.4197 11.7799 13.0797 12.1099 12.6697 12.1099Z" fill="#292D32"/>
<path d="M12.6699 14.6001C12.2499 14.6001 11.9199 14.2601 11.9199 13.8501C11.9199 13.4401 12.2599 13.1001 12.6699 13.1001C13.0799 13.1001 13.4199 13.4401 13.4199 13.8501C13.4199 14.2601 13.0899 14.6001 12.6699 14.6001Z" fill="#292D32"/>
</svg>
