<svg width="25" height="24" viewBox="0 0 25 24" fill="none" xmlns="http://www.w3.org/2000/svg">
<path d="M23.1999 21.47L22.4599 20.73C22.8399 20.15 23.0699 19.45 23.0699 18.7C23.0699 16.66 21.4099 15 19.3699 15C17.3299 15 15.6699 16.66 15.6699 18.7C15.6699 20.74 17.3299 22.4 19.3699 22.4C20.1199 22.4 20.8199 22.17 21.3999 21.79L22.1399 22.53C22.2899 22.68 22.4799 22.75 22.6699 22.75C22.8599 22.75 23.0499 22.68 23.1999 22.53C23.4899 22.24 23.4899 21.76 23.1999 21.47Z" fill="#292D32"/>
<path opacity="0.4" d="M2.66992 12.97V6.99001C2.66992 4.24001 4.90992 2.01001 7.66992 2.01001H17.6699C20.4299 2.01001 22.6699 4.24001 22.6699 7.00001V13.98C22.6699 16.73 20.4299 18.96 17.6699 18.96H16.1699C15.8599 18.96 15.5599 19.11 15.3699 19.36L13.8699 21.35C13.2099 22.23 12.1299 22.23 11.4699 21.35L9.96991 19.36C9.79991 19.14 9.44992 18.96 9.16992 18.96H7.66992C4.90992 18.96 2.66992 16.73 2.66992 13.98V12.97Z" fill="#292D32"/>
<path d="M12.6702 12C12.1102 12 11.6602 11.55 11.6602 11C11.6602 10.45 12.1102 10 12.6602 10C13.2102 10 13.6602 10.45 13.6602 11C13.6602 11.55 13.2302 12 12.6702 12Z" fill="#292D32"/>
<path d="M16.6702 12C16.1102 12 15.6602 11.55 15.6602 11C15.6602 10.45 16.1102 10 16.6602 10C17.2102 10 17.6602 10.45 17.6602 11C17.6602 11.55 17.2302 12 16.6702 12Z" fill="#292D32"/>
<path d="M8.67017 12C8.11017 12 7.66016 11.55 7.66016 11C7.66016 10.45 8.11016 10 8.66016 10C9.21016 10 9.66016 10.45 9.66016 11C9.66016 11.55 9.23017 12 8.67017 12Z" fill="#292D32"/>
</svg>
