<svg width="25" height="24" viewBox="0 0 25 24" fill="none" xmlns="http://www.w3.org/2000/svg">
<path opacity="0.4" d="M9.16992 18.97H8.66992C4.66992 18.97 2.66992 17.97 2.66992 12.97V7.96997C2.66992 3.96997 4.66992 1.96997 8.66992 1.96997H16.6699C20.6699 1.96997 22.6699 3.96997 22.6699 7.96997V12.97C22.6699 16.97 20.6699 18.97 16.6699 18.97H16.1699C15.8599 18.97 15.5599 19.12 15.3699 19.37L13.8699 21.37C13.2099 22.25 12.1299 22.25 11.4699 21.37L9.96991 19.37C9.80991 19.15 9.44992 18.97 9.16992 18.97Z" fill="#292D32"/>
<path d="M8.66986 13.4499C8.47986 13.4499 8.28986 13.3799 8.13986 13.2299L6.13986 11.2299C5.84986 10.9399 5.84986 10.4599 6.13986 10.1699L8.13986 8.16989C8.42986 7.87989 8.90986 7.87989 9.19986 8.16989C9.48986 8.45989 9.48986 8.93989 9.19986 9.22989L7.72986 10.6999L9.19986 12.1699C9.48986 12.4599 9.48986 12.9399 9.19986 13.2299C9.04986 13.3799 8.85986 13.4499 8.66986 13.4499Z" fill="#292D32"/>
<path d="M16.6699 13.4499C16.4799 13.4499 16.2899 13.3799 16.1399 13.2299C15.8499 12.9399 15.8499 12.4599 16.1399 12.1699L17.6099 10.6999L16.1399 9.22989C15.8499 8.93989 15.8499 8.45989 16.1399 8.16989C16.4299 7.87989 16.9099 7.87989 17.1999 8.16989L19.1999 10.1699C19.4899 10.4599 19.4899 10.9399 19.1999 11.2299L17.1999 13.2299C17.0499 13.3799 16.8599 13.4499 16.6699 13.4499Z" fill="#292D32"/>
<path d="M11.6698 13.78C11.5698 13.78 11.4698 13.76 11.3698 13.72C10.9898 13.56 10.8098 13.12 10.9798 12.73L12.9798 8.05999C13.1398 7.67999 13.5798 7.49998 13.9698 7.66998C14.3498 7.82998 14.5298 8.26997 14.3598 8.65997L12.3598 13.33C12.2398 13.61 11.9598 13.78 11.6698 13.78Z" fill="#292D32"/>
</svg>
