<svg width="25" height="24" viewBox="0 0 25 24" fill="none" xmlns="http://www.w3.org/2000/svg">
<path opacity="0.4" d="M22.6699 7.42993V13.4299C22.6699 14.9299 22.1699 16.1799 21.2899 17.0599C20.4199 17.9299 19.1699 18.4299 17.6699 18.4299V20.5599C17.6699 21.3599 16.7799 21.84 16.1199 21.4L11.6699 18.4299H9.54993C9.62993 18.1299 9.66992 17.8199 9.66992 17.4999C9.66992 16.4799 9.27992 15.54 8.63992 14.83C7.91992 14.01 6.84992 13.4999 5.66992 13.4999C4.54992 13.4999 3.52993 13.96 2.79993 14.71C2.70993 14.31 2.66992 13.8799 2.66992 13.4299V7.42993C2.66992 4.42993 4.66992 2.42993 7.66992 2.42993H17.6699C20.6699 2.42993 22.6699 4.42993 22.6699 7.42993Z" fill="#292D32"/>
<path d="M16.1699 11.25H9.16992C8.75992 11.25 8.41992 10.91 8.41992 10.5C8.41992 10.09 8.75992 9.75 9.16992 9.75H16.1699C16.5799 9.75 16.9199 10.09 16.9199 10.5C16.9199 10.91 16.5799 11.25 16.1699 11.25Z" fill="#292D32"/>
<path d="M5.66992 13.5C3.45992 13.5 1.66992 15.29 1.66992 17.5C1.66992 18.25 1.87991 18.96 2.24991 19.56C2.93991 20.72 4.20992 21.5 5.66992 21.5C7.12992 21.5 8.39994 20.72 9.08994 19.56C9.45994 18.96 9.66992 18.25 9.66992 17.5C9.66992 15.29 7.87992 13.5 5.66992 13.5ZM7.63992 17.17L5.50992 19.14C5.36992 19.27 5.17991 19.34 4.99991 19.34C4.80991 19.34 4.61991 19.27 4.46991 19.12L3.47992 18.13C3.18992 17.84 3.18992 17.36 3.47992 17.07C3.76992 16.78 4.24992 16.78 4.53992 17.07L5.01993 17.55L6.61993 16.07C6.91993 15.79 7.39993 15.81 7.67993 16.11C7.95993 16.41 7.93992 16.89 7.63992 17.17Z" fill="#292D32"/>
</svg>
