<svg width="25" height="24" viewBox="0 0 25 24" fill="none" xmlns="http://www.w3.org/2000/svg">
<path opacity="0.4" d="M16.9099 2H8.42992C5.66992 2 4.66992 3 4.66992 5.81V18.19C4.66992 21 5.66992 22 8.42992 22H16.8999C19.6699 22 20.6699 21 20.6699 18.19V5.81C20.6699 3 19.6699 2 16.9099 2Z" fill="#292D32"/>
<path d="M14.6699 6.25H10.6699C10.2599 6.25 9.91992 5.91 9.91992 5.5C9.91992 5.09 10.2599 4.75 10.6699 4.75H14.6699C15.0799 4.75 15.4199 5.09 15.4199 5.5C15.4199 5.91 15.0799 6.25 14.6699 6.25Z" fill="#292D32"/>
<path d="M12.6699 19.3C13.6364 19.3 14.4199 18.5165 14.4199 17.55C14.4199 16.5835 13.6364 15.8 12.6699 15.8C11.7034 15.8 10.9199 16.5835 10.9199 17.55C10.9199 18.5165 11.7034 19.3 12.6699 19.3Z" fill="#292D32"/>
</svg>
