<svg width="25" height="24" viewBox="0 0 25 24" fill="none" xmlns="http://www.w3.org/2000/svg">
<path opacity="0.4" d="M22.6699 9V15C22.6699 18.5 20.6699 20 17.6699 20H9.11993C9.46993 19.41 9.66992 18.73 9.66992 18C9.66992 15.79 7.87992 14 5.66992 14C4.46992 14 3.39992 14.53 2.66992 15.36V9C2.66992 5.5 4.66992 4 7.66992 4H17.6699C20.6699 4 22.6699 5.5 22.6699 9Z" fill="#292D32"/>
<path d="M12.6699 14.5C14.0506 14.5 15.1699 13.3807 15.1699 12C15.1699 10.6193 14.0506 9.5 12.6699 9.5C11.2892 9.5 10.1699 10.6193 10.1699 12C10.1699 13.3807 11.2892 14.5 12.6699 14.5Z" fill="#292D32"/>
<path d="M19.1699 14.75C18.7599 14.75 18.4199 14.41 18.4199 14V10C18.4199 9.59 18.7599 9.25 19.1699 9.25C19.5799 9.25 19.9199 9.59 19.9199 10V14C19.9199 14.41 19.5799 14.75 19.1699 14.75Z" fill="#292D32"/>
<path d="M5.66992 14C4.46992 14 3.39992 14.53 2.66992 15.36C2.04992 16.07 1.66992 16.99 1.66992 18C1.66992 18.75 1.87994 19.46 2.24994 20.06C2.93994 21.22 4.20992 22 5.66992 22C6.67992 22 7.59993 21.63 8.29993 21C8.60993 20.74 8.8799 20.42 9.0899 20.06C9.4599 19.46 9.66992 18.75 9.66992 18C9.66992 15.79 7.87992 14 5.66992 14ZM7.2699 19.58C7.1199 19.73 6.92993 19.8 6.73993 19.8C6.54993 19.8 6.3599 19.73 6.2099 19.58L5.67993 19.05L5.12994 19.6C4.97994 19.75 4.78991 19.82 4.59991 19.82C4.40991 19.82 4.21995 19.75 4.06995 19.6C3.77995 19.31 3.77995 18.83 4.06995 18.54L4.61993 17.99L4.0899 17.46C3.7999 17.17 3.7999 16.69 4.0899 16.4C4.3799 16.11 4.8599 16.11 5.1499 16.4L5.67993 16.93L6.17993 16.43C6.46993 16.14 6.94993 16.14 7.23993 16.43C7.52993 16.72 7.52993 17.2 7.23993 17.49L6.73993 17.99L7.2699 18.52C7.5599 18.81 7.5599 19.28 7.2699 19.58Z" fill="#292D32"/>
</svg>
