<svg width="25" height="24" viewBox="0 0 25 24" fill="none" xmlns="http://www.w3.org/2000/svg">
<path opacity="0.4" d="M22.6699 9V15C22.6699 18.5 20.6699 20 17.6699 20H10.4099C10.5799 19.53 10.6699 19.03 10.6699 18.5C10.6699 16.02 8.65992 14 6.16992 14C4.75992 14 3.48992 14.66 2.66992 15.68V9C2.66992 5.5 4.66992 4 7.66992 4H17.6699C20.6699 4 22.6699 5.5 22.6699 9Z" fill="#292D32"/>
<path d="M12.6699 14.5C14.0506 14.5 15.1699 13.3807 15.1699 12C15.1699 10.6193 14.0506 9.5 12.6699 9.5C11.2892 9.5 10.1699 10.6193 10.1699 12C10.1699 13.3807 11.2892 14.5 12.6699 14.5Z" fill="#292D32"/>
<path d="M19.1699 14.75C18.7599 14.75 18.4199 14.41 18.4199 14V10C18.4199 9.59 18.7599 9.25 19.1699 9.25C19.5799 9.25 19.9199 9.59 19.9199 10V14C19.9199 14.41 19.5799 14.75 19.1699 14.75Z" fill="#292D32"/>
<path d="M6.16992 14C4.75992 14 3.48992 14.66 2.66992 15.68C2.03992 16.45 1.66992 17.43 1.66992 18.5C1.66992 20.99 3.68992 23 6.16992 23C8.12992 23 9.79991 21.75 10.4099 20C10.5799 19.53 10.6699 19.03 10.6699 18.5C10.6699 16.02 8.65992 14 6.16992 14ZM8.8299 20.46C8.79989 20.52 8.7599 20.59 8.7099 20.64L7.8999 21.44C7.7999 21.55 7.6599 21.6 7.5199 21.6C7.3699 21.6 7.22994 21.55 7.12994 21.44C6.94994 21.27 6.92992 21 7.03992 20.8H4.77991C4.05991 20.8 3.46991 20.21 3.46991 19.48V19.37C3.46991 19.06 3.7199 18.82 4.0199 18.82C4.3199 18.82 4.56995 19.06 4.56995 19.37V19.48C4.56995 19.6 4.65991 19.7 4.77991 19.7H7.03992C6.92992 19.49 6.94994 19.23 7.12994 19.05C7.33994 18.84 7.6899 18.84 7.8999 19.05L8.7099 19.86C8.7599 19.91 8.79989 19.97 8.8299 20.04C8.8799 20.17 8.8799 20.32 8.8299 20.46ZM8.86993 17.63C8.86993 17.94 8.61995 18.18 8.31995 18.18C8.01995 18.18 7.7699 17.94 7.7699 17.63V17.52C7.7699 17.4 7.67994 17.3 7.55994 17.3H5.29993C5.40993 17.51 5.3899 17.77 5.2099 17.95C5.1099 18.05 4.96995 18.11 4.81995 18.11C4.67995 18.11 4.53994 18.05 4.43994 17.95L3.62994 17.14C3.57994 17.09 3.53995 17.03 3.50995 16.96C3.45995 16.83 3.45995 16.68 3.50995 16.54C3.53995 16.48 3.57994 16.41 3.62994 16.36L4.43994 15.56C4.64994 15.34 4.9999 15.34 5.2099 15.56C5.3899 15.73 5.40993 16 5.29993 16.2H7.55994C8.27994 16.2 8.86993 16.79 8.86993 17.52V17.63Z" fill="#292D32"/>
</svg>
