<svg width="25" height="24" viewBox="0 0 25 24" fill="none" xmlns="http://www.w3.org/2000/svg">
<path opacity="0.4" d="M22.6699 9V15C22.6699 18.5 20.6699 20 17.6699 20H9.11993C9.46993 19.41 9.66992 18.73 9.66992 18C9.66992 15.79 7.87992 14 5.66992 14C4.46992 14 3.39992 14.53 2.66992 15.36V9C2.66992 5.5 4.66992 4 7.66992 4H17.6699C20.6699 4 22.6699 5.5 22.6699 9Z" fill="#292D32"/>
<path d="M12.6699 14.5C14.0506 14.5 15.1699 13.3807 15.1699 12C15.1699 10.6193 14.0506 9.5 12.6699 9.5C11.2892 9.5 10.1699 10.6193 10.1699 12C10.1699 13.3807 11.2892 14.5 12.6699 14.5Z" fill="#292D32"/>
<path d="M19.1699 14.75C18.7599 14.75 18.4199 14.41 18.4199 14V10C18.4199 9.59 18.7599 9.25 19.1699 9.25C19.5799 9.25 19.9199 9.59 19.9199 10V14C19.9199 14.41 19.5799 14.75 19.1699 14.75Z" fill="#292D32"/>
<path d="M5.66992 14C3.45992 14 1.66992 15.79 1.66992 18C1.66992 18.75 1.87991 19.46 2.24991 20.06C2.93991 21.22 4.20992 22 5.66992 22C7.12992 22 8.39994 21.22 9.08994 20.06C9.45994 19.46 9.66992 18.75 9.66992 18C9.66992 15.79 7.87992 14 5.66992 14ZM7.63992 17.67L5.50992 19.64C5.36992 19.77 5.17991 19.84 4.99991 19.84C4.80991 19.84 4.61991 19.77 4.46991 19.62L3.47992 18.63C3.18992 18.34 3.18992 17.86 3.47992 17.57C3.76992 17.28 4.24992 17.28 4.53992 17.57L5.01993 18.05L6.61993 16.57C6.91993 16.29 7.39993 16.31 7.67993 16.61C7.95993 16.91 7.93992 17.39 7.63992 17.67Z" fill="#292D32"/>
</svg>
