<svg width="25" height="24" viewBox="0 0 25 24" fill="none" xmlns="http://www.w3.org/2000/svg">
<path d="M24.6699 0H0.669922V24H24.6699V0Z" fill="white"/>
<path d="M22.2097 15C20.9296 19.06 17.1396 22 12.6696 22C8.20965 22 4.42965 19.08 3.13965 15.04H3.71965L7.66965 15V11.76C7.66965 10.84 8.81965 10.41 9.41965 11.11L12.6696 15L15.9196 11.11C16.5196 10.41 17.6696 10.84 17.6696 11.76V15H22.2097Z" fill="#292D32"/>
<path opacity="0.4" d="M22.6699 12C22.6699 13.05 22.5099 14.05 22.2099 15H17.6699V11.76C17.6699 10.84 16.5199 10.41 15.9199 11.11L12.6699 15L9.41992 11.11C8.81992 10.41 7.66992 10.84 7.66992 11.76V15L3.71992 15.04H3.13992C2.83992 14.08 2.66992 13.06 2.66992 12C2.66992 6.48 7.14992 2 12.6699 2C18.1899 2 22.6699 6.48 22.6699 12Z" fill="#292D32"/>
</svg>
