<svg width="25" height="24" viewBox="0 0 25 24" fill="none" xmlns="http://www.w3.org/2000/svg">
<path d="M5.66992 14C3.45992 14 1.66992 15.79 1.66992 18C1.66992 20.21 3.45992 22 5.66992 22C7.87992 22 9.66992 20.21 9.66992 18C9.66992 15.79 7.87992 14 5.66992 14ZM6.66992 17.68C6.66992 18.29 6.33995 18.87 5.81995 19.18L5.05994 19.64C4.93994 19.71 4.80993 19.75 4.67993 19.75C4.42993 19.75 4.17992 19.62 4.03992 19.39C3.82992 19.04 3.93993 18.57 4.29993 18.36L5.05994 17.9C5.12994 17.86 5.17993 17.77 5.17993 17.69V16.76C5.17993 16.35 5.51993 16.01 5.92993 16.01C6.33993 16.01 6.67993 16.35 6.67993 16.76V17.68H6.66992Z" fill="#292D32"/>
<path opacity="0.4" d="M22.6699 9V15C22.6699 18.5 20.6699 20 17.6699 20H9.11993C9.46993 19.41 9.66992 18.73 9.66992 18C9.66992 15.79 7.87992 14 5.66992 14C4.46992 14 3.39992 14.53 2.66992 15.36V9C2.66992 5.5 4.66992 4 7.66992 4H17.6699C20.6699 4 22.6699 5.5 22.6699 9Z" fill="#292D32"/>
<path d="M12.6699 14.5C14.0506 14.5 15.1699 13.3807 15.1699 12C15.1699 10.6193 14.0506 9.5 12.6699 9.5C11.2892 9.5 10.1699 10.6193 10.1699 12C10.1699 13.3807 11.2892 14.5 12.6699 14.5Z" fill="#292D32"/>
<path d="M19.1699 14.75C18.7599 14.75 18.4199 14.41 18.4199 14V10C18.4199 9.59 18.7599 9.25 19.1699 9.25C19.5799 9.25 19.9199 9.59 19.9199 10V14C19.9199 14.41 19.5799 14.75 19.1699 14.75Z" fill="#292D32"/>
</svg>
