<svg width="25" height="24" viewBox="0 0 25 24" fill="none" xmlns="http://www.w3.org/2000/svg">
<path opacity="0.4" d="M17.6699 20.5H7.66992C4.66992 20.5 2.66992 19 2.66992 15.5V8.5C2.66992 5 4.66992 3.5 7.66992 3.5H17.6699C20.6699 3.5 22.6699 5 22.6699 8.5V15.5C22.6699 19 20.6699 20.5 17.6699 20.5Z" fill="#292D32"/>
<path d="M12.6699 15C14.3268 15 15.6699 13.6569 15.6699 12C15.6699 10.3431 14.3268 9 12.6699 9C11.0131 9 9.66992 10.3431 9.66992 12C9.66992 13.6569 11.0131 15 12.6699 15Z" fill="#292D32"/>
<path d="M6.16992 15.25C5.75992 15.25 5.41992 14.91 5.41992 14.5V9.5C5.41992 9.09 5.75992 8.75 6.16992 8.75C6.57992 8.75 6.91992 9.09 6.91992 9.5V14.5C6.91992 14.91 6.57992 15.25 6.16992 15.25Z" fill="#292D32"/>
<path d="M19.1699 15.25C18.7599 15.25 18.4199 14.91 18.4199 14.5V9.5C18.4199 9.09 18.7599 8.75 19.1699 8.75C19.5799 8.75 19.9199 9.09 19.9199 9.5V14.5C19.9199 14.91 19.5799 15.25 19.1699 15.25Z" fill="#292D32"/>
</svg>
