<svg width="25" height="24" viewBox="0 0 25 24" fill="none" xmlns="http://www.w3.org/2000/svg">
<path opacity="0.4" d="M21.6399 7.19V13.37H2.66992V7.19C2.66992 4.88 4.54992 3 6.85992 3H17.4499C19.7599 3 21.6399 4.88 21.6399 7.19Z" fill="#292D32"/>
<path d="M2.66992 13.3701V13.5601C2.66992 15.8801 4.54992 17.7501 6.85992 17.7501H10.4599C11.0099 17.7501 11.4599 18.2001 11.4599 18.7501V19.5701C11.4599 20.1201 11.0099 20.5701 10.4599 20.5701H8.19992C7.80992 20.5701 7.48992 20.8901 7.48992 21.2801C7.48992 21.6701 7.80992 21.9901 8.19992 21.9901H16.1299C16.5199 21.9901 16.8399 21.6701 16.8399 21.2801C16.8399 20.8901 16.5199 20.5701 16.1299 20.5701H13.8799C13.3299 20.5701 12.8799 20.1201 12.8799 19.5701V18.7501C12.8799 18.2001 13.3299 17.7501 13.8799 17.7501H17.4499C19.7699 17.7501 21.6399 15.8701 21.6399 13.5601V13.3701H2.66992Z" fill="#292D32"/>
<path d="M22.6599 2.36011L21.5299 3.15011V2.73011C21.5299 1.78011 20.7599 1.02011 19.8199 1.02011H15.5399C14.5099 1.01011 13.6699 1.85011 13.6699 2.88011V6.16011C13.6699 7.02011 14.0999 7.87011 15.3799 7.87011H19.8099C20.7599 7.87011 21.5199 7.10011 21.5199 6.16011V5.73011L22.6499 6.52011C23.2199 6.91011 23.6699 6.67011 23.6699 5.99011V2.89011C23.6699 2.21011 23.2199 1.98011 22.6599 2.36011Z" fill="#292D32"/>
</svg>
