<svg width="25" height="24" viewBox="0 0 25 24" fill="none" xmlns="http://www.w3.org/2000/svg">
<path opacity="0.4" d="M16.8599 2H8.47992C4.83992 2 2.66992 4.17 2.66992 7.81V16.18C2.66992 19.83 4.83992 22 8.47992 22H16.8499C20.4899 22 22.6599 19.83 22.6599 16.19V7.81C22.6699 4.17 20.4999 2 16.8599 2Z" fill="#292D32"/>
<path d="M12.6699 10.6899C11.9499 10.6899 11.3599 11.2799 11.3599 11.9999C11.3599 12.7199 11.9499 13.3099 12.6699 13.3099C13.3899 13.3099 13.9799 12.7199 13.9799 11.9999C13.9799 11.2799 13.3899 10.6899 12.6699 10.6899Z" fill="#292D32"/>
<path d="M7.66986 10.6899C6.94986 10.6899 6.35986 11.2799 6.35986 11.9999C6.35986 12.7199 6.94986 13.3099 7.66986 13.3099C8.38986 13.3099 8.97986 12.7199 8.97986 11.9999C8.97986 11.2799 8.38986 10.6899 7.66986 10.6899Z" fill="#292D32"/>
<path d="M17.6699 10.6899C16.9499 10.6899 16.3599 11.2799 16.3599 11.9999C16.3599 12.7199 16.9499 13.3099 17.6699 13.3099C18.3899 13.3099 18.9799 12.7199 18.9799 11.9999C18.9799 11.2799 18.3899 10.6899 17.6699 10.6899Z" fill="#292D32"/>
</svg>
