<svg width="25" height="24" viewBox="0 0 25 24" fill="none" xmlns="http://www.w3.org/2000/svg">
<path opacity="0.4" d="M16.8599 2H8.47992C4.83992 2 2.66992 4.17 2.66992 7.81V16.18C2.66992 19.83 4.83992 22 8.47992 22H16.8499C20.4899 22 22.6599 19.83 22.6599 16.19V7.81C22.6699 4.17 20.4999 2 16.8599 2Z" fill="#292D32"/>
<path d="M12.6699 13C12.1099 13 11.6699 12.55 11.6699 12C11.6699 11.45 12.1199 11 12.6699 11C13.2199 11 13.6699 11.45 13.6699 12C13.6699 12.55 13.2299 13 12.6699 13Z" fill="#292D32"/>
<path d="M16.6699 13C16.1099 13 15.6699 12.55 15.6699 12C15.6699 11.45 16.1199 11 16.6699 11C17.2199 11 17.6699 11.45 17.6699 12C17.6699 12.55 17.2299 13 16.6699 13Z" fill="#292D32"/>
<path d="M8.66992 13C8.10992 13 7.66992 12.55 7.66992 12C7.66992 11.45 8.11992 11 8.66992 11C9.21992 11 9.66992 11.45 9.66992 12C9.66992 12.55 9.22992 13 8.66992 13Z" fill="#292D32"/>
</svg>
