<svg width="25" height="24" viewBox="0 0 25 24" fill="none" xmlns="http://www.w3.org/2000/svg">
<path d="M13.8501 11.8601C13.4501 11.8601 13.0901 11.6401 12.9201 11.2801L11.4701 8.39013L11.0501 9.17009C10.8201 9.60009 10.3601 9.87011 9.87015 9.87011H9.14014C8.73014 9.87011 8.39014 9.53011 8.39014 9.12011C8.39014 8.71011 8.73014 8.37011 9.14014 8.37011H9.78012L10.5701 6.91008C10.7601 6.57008 11.1401 6.3401 11.5001 6.3601C11.8901 6.3601 12.2401 6.5901 12.4201 6.9301L13.8501 9.79009L14.1901 9.10009C14.4201 8.64009 14.8701 8.3601 15.3901 8.3601H16.2001C16.6101 8.3601 16.9501 8.7001 16.9501 9.1101C16.9501 9.5201 16.6101 9.8601 16.2001 9.8601H15.4901L14.7801 11.2701C14.6001 11.6401 14.2501 11.8601 13.8501 11.8601Z" fill="#292D32"/>
<path opacity="0.4" d="M3.41974 18.6501C3.00974 18.6501 2.66974 18.3101 2.66974 17.9001V12.2001C2.61974 9.49007 3.62974 6.93007 5.50974 5.01007C7.38974 3.10007 9.90975 2.05005 12.6198 2.05005C18.1598 2.05005 22.6697 6.56004 22.6697 12.1V17.8C22.6697 18.21 22.3297 18.55 21.9197 18.55C21.5097 18.55 21.1697 18.21 21.1697 17.8V12.1C21.1697 7.39004 17.3398 3.55005 12.6198 3.55005C10.3098 3.55005 8.16974 4.44006 6.57974 6.06006C4.97974 7.69006 4.12974 9.86005 4.16974 12.1801V17.8901C4.16974 18.3101 3.83974 18.6501 3.41974 18.6501Z" fill="#292D32"/>
<path d="M6.60992 12.4502H6.47992C4.37992 12.4502 2.66992 14.1602 2.66992 16.2602V18.1402C2.66992 20.2402 4.37992 21.9502 6.47992 21.9502H6.60992C8.70992 21.9502 10.4199 20.2402 10.4199 18.1402V16.2602C10.4199 14.1602 8.70992 12.4502 6.60992 12.4502Z" fill="#292D32"/>
<path d="M18.8599 12.4502H18.7299C16.6299 12.4502 14.9199 14.1602 14.9199 16.2602V18.1402C14.9199 20.2402 16.6299 21.9502 18.7299 21.9502H18.8599C20.9599 21.9502 22.6699 20.2402 22.6699 18.1402V16.2602C22.6699 14.1602 20.9599 12.4502 18.8599 12.4502Z" fill="#292D32"/>
</svg>
