<svg width="25" height="24" viewBox="0 0 25 24" fill="none" xmlns="http://www.w3.org/2000/svg">
<path d="M7.66992 2.04999V21.95C4.51992 21.66 2.66992 19.55 2.66992 16.19V7.81C2.66992 4.45 4.51992 2.33999 7.66992 2.04999Z" fill="#292D32"/>
<path opacity="0.4" d="M22.6699 7.81V16.19C22.6699 19.83 20.4999 22 16.8599 22H8.47992C8.19992 22 7.92992 21.99 7.66992 21.95V2.04999C7.92992 2.00999 8.19992 2 8.47992 2H16.8599C20.4999 2 22.6699 4.17 22.6699 7.81Z" fill="#292D32"/>
<path d="M19.1602 6.8C18.8402 6.55 18.2602 6.31001 17.3402 6.56001L14.3602 7.38002C13.4702 7.61002 12.8902 8.36 12.8902 9.3V11.05V13.21C12.6602 13.13 12.4102 13.07 12.1502 13.07C10.9102 13.07 9.91016 14.08 9.91016 15.31C9.91016 16.54 10.9202 17.55 12.1502 17.55C13.3702 17.55 14.3702 16.56 14.3902 15.35C14.3902 15.34 14.4002 15.33 14.4002 15.32V11.62L18.3702 10.54V12.22C18.1402 12.14 17.8902 12.08 17.6202 12.08C16.3802 12.08 15.3802 13.09 15.3802 14.32C15.3802 15.56 16.3902 16.56 17.6202 16.56C18.8402 16.56 19.8402 15.57 19.8602 14.35C19.8602 14.34 19.8702 14.33 19.8702 14.31V9.55V8.47999C19.8502 7.71999 19.6202 7.16 19.1602 6.8ZM12.1402 16.05C11.7302 16.05 11.4002 15.72 11.4002 15.31C11.4002 14.9 11.7302 14.57 12.1402 14.57C12.5502 14.57 12.8802 14.9 12.8802 15.31C12.8802 15.72 12.5402 16.05 12.1402 16.05ZM17.6002 15.05C17.1902 15.05 16.8602 14.72 16.8602 14.31C16.8602 13.9 17.1902 13.57 17.6002 13.57C18.0102 13.57 18.3402 13.9 18.3402 14.31C18.3402 14.72 18.0102 15.05 17.6002 15.05Z" fill="#292D32"/>
</svg>
