<svg width="25" height="24" viewBox="0 0 25 24" fill="none" xmlns="http://www.w3.org/2000/svg">
<path d="M19.6699 7V8.13C19.3499 8.04 19.0199 8 18.6699 8H6.66992C6.31992 8 5.98992 8.04 5.66992 8.13V7C5.66992 5.9 6.56992 5 7.66992 5H17.6699C18.7699 5 19.6699 5.9 19.6699 7Z" fill="#292D32"/>
<path opacity="0.4" d="M16.6699 3.51001V5H8.66992V3.51001C8.66992 2.68001 9.34993 2 10.1799 2H15.1599C15.9899 2 16.6699 2.68001 16.6699 3.51001Z" fill="#292D32"/>
<path opacity="0.4" d="M22.6699 12V18C22.6699 20.2 20.8699 22 18.6699 22H6.66992C4.46992 22 2.66992 20.2 2.66992 18V12C2.66992 10.15 3.94992 8.58 5.66992 8.13C5.98992 8.04 6.31992 8 6.66992 8H18.6699C19.0199 8 19.3499 8.04 19.6699 8.13C21.3899 8.58 22.6699 10.15 22.6699 12Z" fill="#292D32"/>
<path d="M16.0199 10.51C15.7199 10.28 15.1799 10.06 14.3299 10.29L11.6799 11.02C10.8499 11.24 10.3199 11.94 10.3199 12.8V14.35V16.15C10.1399 16.1 9.93993 16.06 9.73993 16.06C8.59993 16.06 7.66992 16.99 7.66992 18.13C7.66992 19.27 8.59993 20.2 9.73993 20.2C10.8799 20.2 11.7999 19.28 11.8099 18.15C11.8099 18.14 11.8199 18.13 11.8199 18.12V14.91L15.1699 14V15.26C14.9899 15.21 14.7999 15.17 14.5999 15.17C13.4599 15.17 12.5299 16.1 12.5299 17.24C12.5299 18.38 13.4599 19.31 14.5999 19.31C15.7399 19.31 16.6699 18.38 16.6699 17.24V13.02V12.07C16.6699 11.2 16.3099 10.74 16.0199 10.51ZM9.73993 18.71C9.41993 18.71 9.16992 18.45 9.16992 18.14C9.16992 17.83 9.42993 17.57 9.73993 17.57C10.0499 17.57 10.3099 17.83 10.3099 18.14C10.3099 18.45 10.0599 18.71 9.73993 18.71ZM14.5999 17.82C14.2799 17.82 14.0299 17.56 14.0299 17.25C14.0299 16.94 14.2899 16.68 14.5999 16.68C14.9099 16.68 15.1699 16.94 15.1699 17.25C15.1699 17.56 14.9099 17.82 14.5999 17.82Z" fill="#292D32"/>
</svg>
