<svg width="25" height="24" viewBox="0 0 25 24" fill="none" xmlns="http://www.w3.org/2000/svg">
<path d="M10.9603 10.34V18.41C10.9603 20.39 9.34027 22 7.37027 22C5.39027 22 3.78027 20.39 3.78027 18.41C3.78027 16.44 5.39027 14.83 7.37027 14.83C8.20027 14.83 8.95027 15.12 9.56027 15.59V10.74L10.9603 10.34Z" fill="#292D32"/>
<path d="M21.5599 7.32001V16.48C21.5599 18.46 19.9499 20.07 17.9699 20.07C15.9999 20.07 14.3799 18.46 14.3799 16.48C14.3799 14.51 15.9999 12.9 17.9699 12.9C18.8099 12.9 19.5599 13.19 20.1699 13.67V7.72001L21.5599 7.32001Z" fill="#292D32"/>
<path opacity="0.4" d="M21.5596 5.18001V7.32001L9.55957 10.74V6.75001C9.55957 5.28001 10.4496 4.14001 11.8596 3.76001L17.6396 2.18001C18.8096 1.86001 19.7996 1.97001 20.4996 2.51001C21.2096 3.04001 21.5596 3.94001 21.5596 5.18001Z" fill="#292D32"/>
</svg>
