<svg width="25" height="24" viewBox="0 0 25 24" fill="none" xmlns="http://www.w3.org/2000/svg">
<path d="M18.6699 5.25H6.66992C6.25992 5.25 5.91992 4.91 5.91992 4.5C5.91992 4.09 6.25992 3.75 6.66992 3.75H18.6699C19.0799 3.75 19.4199 4.09 19.4199 4.5C19.4199 4.91 19.0799 5.25 18.6699 5.25Z" fill="#292D32"/>
<path d="M15.6699 2.75H9.66992C9.25992 2.75 8.91992 2.41 8.91992 2C8.91992 1.59 9.25992 1.25 9.66992 1.25H15.6699C16.0799 1.25 16.4199 1.59 16.4199 2C16.4199 2.41 16.0799 2.75 15.6699 2.75Z" fill="#292D32"/>
<path opacity="0.4" d="M18.6699 7H6.66992C4.46992 7 2.66992 8.8 2.66992 11V18C2.66992 20.2 4.46992 22 6.66992 22H18.6699C20.8699 22 22.6699 20.2 22.6699 18V11C22.6699 8.8 20.8699 7 18.6699 7Z" fill="#292D32"/>
<path d="M16.0394 9.89C15.7394 9.65 15.1894 9.42001 14.3094 9.65001L11.5794 10.4C10.7294 10.62 10.1794 11.34 10.1794 12.23V13.83V15.73C9.97944 15.67 9.77945 15.63 9.55945 15.63C8.38945 15.63 7.43945 16.58 7.43945 17.75C7.43945 18.92 8.38945 19.87 9.55945 19.87C10.7294 19.87 11.6794 18.92 11.6794 17.75V17.74V14.41L15.1995 13.45V14.82C14.9995 14.76 14.7994 14.72 14.5794 14.72C13.4094 14.72 12.4594 15.67 12.4594 16.84C12.4594 18.01 13.4094 18.96 14.5794 18.96C15.7294 18.96 16.6695 18.04 16.6895 16.89C16.6895 16.87 16.6995 16.86 16.6995 16.84V12.47V11.49C16.6995 10.59 16.3394 10.12 16.0394 9.89ZM9.55945 18.36C9.21945 18.36 8.93945 18.08 8.93945 17.74C8.93945 17.4 9.21945 17.12 9.55945 17.12C9.89945 17.12 10.1694 17.39 10.1794 17.73C10.1794 18.08 9.89945 18.36 9.55945 18.36ZM14.5794 17.45C14.2394 17.45 13.9594 17.17 13.9594 16.83C13.9594 16.49 14.2394 16.21 14.5794 16.21C14.9194 16.21 15.1995 16.49 15.1995 16.83C15.1995 17.17 14.9194 17.45 14.5794 17.45Z" fill="#292D32"/>
</svg>
