<svg width="25" height="24" viewBox="0 0 25 24" fill="none" xmlns="http://www.w3.org/2000/svg">
<path d="M23.4599 21.76L22.7399 21.04C23.1099 20.48 23.3299 19.8 23.3299 19.08C23.3299 17.1 21.7299 15.5 19.7499 15.5C17.7699 15.5 16.1699 17.1 16.1699 19.08C16.1699 21.06 17.7699 22.66 19.7499 22.66C20.4799 22.66 21.1499 22.44 21.7099 22.07L22.4299 22.79C22.5699 22.93 22.7599 23 22.9399 23C23.1299 23 23.3099 22.93 23.4499 22.79C23.7399 22.5 23.7399 22.04 23.4599 21.76Z" fill="#292D32"/>
<path opacity="0.4" d="M16.8597 2H8.4897C4.8497 2 2.67969 4.17 2.67969 7.81V16.18C2.67969 19.82 4.8497 21.99 8.4897 21.99H16.8597C20.4997 21.99 22.6697 19.82 22.6697 16.18V7.81C22.6697 4.17 20.4997 2 16.8597 2Z" fill="#292D32"/>
<path d="M14.4502 5.3C14.1302 5.05 13.5502 4.81001 12.6302 5.06001L9.65019 5.88002C8.76019 6.11002 8.18019 6.86 8.18019 7.8V9.55V11.71C7.95019 11.63 7.7002 11.57 7.4402 11.57C6.2002 11.57 5.2002 12.58 5.2002 13.81C5.2002 15.04 6.2102 16.05 7.4402 16.05C8.6602 16.05 9.66019 15.06 9.68019 13.85C9.68019 13.84 9.6902 13.83 9.6902 13.82V10.12L13.6602 9.03999V10.72C13.4302 10.64 13.1802 10.58 12.9102 10.58C11.6702 10.58 10.6702 11.59 10.6702 12.82C10.6702 14.06 11.6802 15.06 12.9102 15.06C14.1302 15.06 15.1302 14.07 15.1502 12.85C15.1502 12.84 15.1602 12.83 15.1602 12.81V8.05V6.97999C15.1502 6.21999 14.9102 5.65 14.4502 5.3ZM7.43019 14.55C7.02019 14.55 6.6902 14.22 6.6902 13.81C6.6902 13.4 7.02019 13.07 7.43019 13.07C7.84019 13.07 8.1702 13.4 8.1702 13.81C8.1702 14.22 7.84019 14.55 7.43019 14.55ZM12.9002 13.55C12.4902 13.55 12.1602 13.22 12.1602 12.81C12.1602 12.4 12.4902 12.07 12.9002 12.07C13.3102 12.07 13.6402 12.4 13.6402 12.81C13.6402 13.22 13.3102 13.55 12.9002 13.55Z" fill="#292D32"/>
</svg>
