<svg width="25" height="24" viewBox="0 0 25 24" fill="none" xmlns="http://www.w3.org/2000/svg">
<path d="M7.66992 5.75C7.25992 5.75 6.91992 5.41 6.91992 5V2C6.91992 1.59 7.25992 1.25 7.66992 1.25C8.07992 1.25 8.41992 1.59 8.41992 2V5C8.41992 5.41 8.07992 5.75 7.66992 5.75Z" fill="#292D32"/>
<path d="M15.6699 5.75C15.2599 5.75 14.9199 5.41 14.9199 5V2C14.9199 1.59 15.2599 1.25 15.6699 1.25C16.0799 1.25 16.4199 1.59 16.4199 2V5C16.4199 5.41 16.0799 5.75 15.6699 5.75Z" fill="#292D32"/>
<path opacity="0.4" d="M20.6699 8.5V17C20.6699 20 19.1699 22 15.6699 22H7.66992C4.16992 22 2.66992 20 2.66992 17V8.5C2.66992 5.5 4.16992 3.5 7.66992 3.5H15.6699C19.1699 3.5 20.6699 5.5 20.6699 8.5Z" fill="#292D32"/>
<path d="M13.6699 11.75H7.66992C7.25992 11.75 6.91992 11.41 6.91992 11C6.91992 10.59 7.25992 10.25 7.66992 10.25H13.6699C14.0799 10.25 14.4199 10.59 14.4199 11C14.4199 11.41 14.0799 11.75 13.6699 11.75Z" fill="#292D32"/>
<path d="M10.6699 16.75H7.66992C7.25992 16.75 6.91992 16.41 6.91992 16C6.91992 15.59 7.25992 15.25 7.66992 15.25H10.6699C11.0799 15.25 11.4199 15.59 11.4199 16C11.4199 16.41 11.0799 16.75 10.6699 16.75Z" fill="#292D32"/>
<path d="M21.6699 13.63C20.7799 12.92 19.6499 12.5 18.4199 12.5C17.1899 12.5 16.0399 12.93 15.1399 13.66C13.9299 14.61 13.1699 16.1 13.1699 17.75C13.1699 18.73 13.4499 19.67 13.9299 20.45C14.2999 21.06 14.7799 21.59 15.3499 22C16.2099 22.63 17.2699 23 18.4199 23C19.7499 23 20.9499 22.51 21.8699 21.69C22.2799 21.35 22.6299 20.93 22.9099 20.45C23.3899 19.67 23.6699 18.73 23.6699 17.75C23.6699 16.08 22.8899 14.59 21.6699 13.63ZM18.4199 20.25C18.4199 18.87 17.2999 17.75 15.9199 17.75C17.2999 17.75 18.4199 16.63 18.4199 15.25C18.4199 16.63 19.5399 17.75 20.9199 17.75C19.5399 17.75 18.4199 18.87 18.4199 20.25Z" fill="#292D32"/>
</svg>
