<svg width="25" height="24" viewBox="0 0 25 24" fill="none" xmlns="http://www.w3.org/2000/svg">
<path d="M19.6699 8C21.3268 8 22.6699 6.65685 22.6699 5C22.6699 3.34315 21.3268 2 19.6699 2C18.0131 2 16.6699 3.34315 16.6699 5C16.6699 6.65685 18.0131 8 19.6699 8Z" fill="#292D32"/>
<path opacity="0.4" d="M19.6699 9.5C17.1899 9.5 15.1699 7.48 15.1699 5C15.1699 4.09 15.4399 3.25 15.9099 2.55C14.8899 2.2 13.7999 2 12.6699 2C7.15992 2 2.66992 6.49 2.66992 12C2.66992 17.51 7.15992 22 12.6699 22C18.1799 22 22.6699 17.51 22.6699 12C22.6699 10.87 22.4699 9.78 22.1199 8.76C21.4199 9.23 20.5799 9.5 19.6699 9.5Z" fill="#292D32"/>
</svg>
