<svg width="25" height="24" viewBox="0 0 25 24" fill="none" xmlns="http://www.w3.org/2000/svg">
<path opacity="0.4" d="M21.0701 16.3298C20.7901 17.0798 20.2001 17.6498 19.4301 17.9098C18.3501 18.2698 17.2401 18.5398 16.1201 18.7298C16.0101 18.7498 15.9001 18.7698 15.7901 18.7798C15.6101 18.8098 15.4301 18.8298 15.2501 18.8498C15.0301 18.8798 14.8001 18.8998 14.5701 18.9198C13.9401 18.9698 13.3201 18.9998 12.6901 18.9998C12.0501 18.9998 11.4101 18.9698 10.7801 18.9098C10.5101 18.8898 10.2501 18.8598 9.99012 18.8198C9.84012 18.7998 9.69012 18.7798 9.55012 18.7598C9.44012 18.7398 9.33012 18.7298 9.22012 18.7098C8.11012 18.5298 7.01012 18.2598 5.94012 17.8998C5.14012 17.6298 4.53012 17.0598 4.26012 16.3298C3.99012 15.6098 4.09012 14.7698 4.52012 14.0498L5.65012 12.1698C5.89012 11.7598 6.11012 10.9698 6.11012 10.4898V8.6298C6.11012 4.9998 9.06013 2.0498 12.6901 2.0498C16.3101 2.0498 19.2601 4.9998 19.2601 8.6298V10.4898C19.2601 10.9698 19.4801 11.7598 19.7301 12.1698L20.8601 14.0498C21.2701 14.7498 21.3501 15.5698 21.0701 16.3298Z" fill="#292D32"/>
<path d="M12.6702 10.7601C12.2502 10.7601 11.9102 10.4201 11.9102 10.0001V6.90014C11.9102 6.48014 12.2502 6.14014 12.6702 6.14014C13.0902 6.14014 13.4302 6.48014 13.4302 6.90014V10.0001C13.4202 10.4201 13.0802 10.7601 12.6702 10.7601Z" fill="#292D32"/>
<path d="M15.5001 20.01C15.0801 21.17 13.9701 22 12.6701 22C11.8801 22 11.1001 21.68 10.5501 21.11C10.2301 20.81 9.9901 20.41 9.8501 20C9.9801 20.02 10.1101 20.03 10.2501 20.05C10.4801 20.08 10.7201 20.11 10.9601 20.13C11.5301 20.18 12.1101 20.21 12.6901 20.21C13.2601 20.21 13.8301 20.18 14.3901 20.13C14.6001 20.11 14.8101 20.1 15.0101 20.07C15.1701 20.05 15.3301 20.03 15.5001 20.01Z" fill="#292D32"/>
</svg>
