<svg width="25" height="24" viewBox="0 0 25 24" fill="none" xmlns="http://www.w3.org/2000/svg">
<path opacity="0.4" d="M12.6699 22C18.1928 22 22.6699 17.5228 22.6699 12C22.6699 6.47715 18.1928 2 12.6699 2C7.14707 2 2.66992 6.47715 2.66992 12C2.66992 17.5228 7.14707 22 12.6699 22Z" fill="#292D32"/>
<path d="M17.6699 17.25H14.5699C14.2699 17.25 13.9999 17.08 13.8799 16.8C13.7599 16.52 13.8099 16.21 14.0099 15.99L15.6299 14.2C16.2999 13.45 16.6799 12.5 16.6799 11.52C16.6799 10.52 16.2699 9.58 15.5199 8.87C14.7699 8.16 13.7299 7.75 12.6699 7.75C11.6099 7.75 10.5699 8.16 9.81995 8.87C9.06995 9.58 8.65991 10.52 8.65991 11.52C8.65991 12.5 9.0299 13.45 9.7099 14.2L11.3299 15.99C11.5299 16.21 11.5799 16.53 11.4599 16.8C11.3399 17.07 11.0699 17.25 10.7699 17.25H7.66992C7.25992 17.25 6.91992 16.91 6.91992 16.5C6.91992 16.09 7.25992 15.75 7.66992 15.75H9.0799L8.5899 15.21C7.6699 14.19 7.15991 12.88 7.15991 11.52C7.15991 10.13 7.74992 8.76003 8.78992 7.78003C9.82992 6.79003 11.2099 6.25 12.6699 6.25C14.1299 6.25 15.5099 6.79003 16.5499 7.78003C17.5799 8.76003 18.1799 10.13 18.1799 11.52C18.1799 12.87 17.6699 14.18 16.7499 15.21L16.2599 15.75H17.6699C18.0799 15.75 18.4199 16.09 18.4199 16.5C18.4199 16.91 18.0799 17.25 17.6699 17.25Z" fill="#292D32"/>
</svg>
