<svg width="25" height="24" viewBox="0 0 25 24" fill="none" xmlns="http://www.w3.org/2000/svg">
<path opacity="0.4" d="M16.8619 2H8.48187C4.84187 2 2.67188 4.17 2.67188 7.81V16.18C2.67188 19.83 4.84187 22 8.48187 22H16.8519C20.4919 22 22.6619 19.83 22.6619 16.19V7.81C22.6719 4.17 20.5019 2 16.8619 2Z" fill="#292D32"/>
<path d="M12.8722 17.66C12.1722 17.66 11.4622 17.39 10.9322 16.86C9.86219 15.79 9.86219 14.04 10.9322 12.97L12.3422 11.56C12.6322 11.27 13.1122 11.27 13.4022 11.56C13.6922 11.85 13.6922 12.33 13.4022 12.62L11.9922 14.03C11.5022 14.52 11.5022 15.31 11.9922 15.8C12.4822 16.29 13.2722 16.29 13.7622 15.8L15.9822 13.58C16.5922 12.97 16.9322 12.15 16.9322 11.28C16.9322 10.41 16.5922 9.60003 15.9822 8.98003C14.7522 7.75003 12.6122 7.75003 11.3822 8.98003L8.96219 11.4C7.92219 12.44 7.92219 14.14 8.96219 15.19C9.25219 15.48 9.25219 15.96 8.96219 16.25C8.67219 16.54 8.19219 16.54 7.90219 16.25C6.27219 14.62 6.27219 11.97 7.90219 10.34L10.3222 7.92003C11.2222 7.02003 12.4122 6.53003 13.6822 6.53003C14.9522 6.53003 16.1422 7.02003 17.0422 7.92003C17.9422 8.82003 18.4322 10.01 18.4322 11.28C18.4322 12.55 17.9422 13.74 17.0422 14.64L14.8222 16.86C14.2822 17.39 13.5822 17.66 12.8722 17.66Z" fill="#292D32"/>
</svg>
