<svg width="25" height="24" viewBox="0 0 25 24" fill="none" xmlns="http://www.w3.org/2000/svg">
<path opacity="0.4" d="M16.8619 2H8.48187C4.84187 2 2.67188 4.17 2.67188 7.81V16.18C2.67188 19.83 4.84187 22 8.48187 22H16.8519C20.4919 22 22.6619 19.83 22.6619 16.19V7.81C22.6719 4.17 20.5019 2 16.8619 2Z" fill="#292D32"/>
<path d="M12.1019 18.1799C9.80188 18.1799 7.92188 16.2999 7.92188 13.9999V10.5699C7.92188 7.94995 10.0519 5.81995 12.6719 5.81995C15.2919 5.81995 17.4219 7.94995 17.4219 10.5699V13.7099C17.4219 15.2299 16.1919 16.4599 14.6719 16.4599C13.1519 16.4599 11.9219 15.2299 11.9219 13.7099V11.7099C11.9219 11.2999 12.2619 10.9599 12.6719 10.9599C13.0819 10.9599 13.4219 11.2999 13.4219 11.7099V13.7099C13.4219 14.3999 13.9819 14.9599 14.6719 14.9599C15.3619 14.9599 15.9219 14.3999 15.9219 13.7099V10.5699C15.9219 8.77995 14.4619 7.31995 12.6719 7.31995C10.8819 7.31995 9.42188 8.77995 9.42188 10.5699V13.9999C9.42188 15.4799 10.6219 16.6799 12.1019 16.6799C12.5119 16.6799 12.8519 17.0199 12.8519 17.4299C12.8519 17.8399 12.5119 18.1799 12.1019 18.1799Z" fill="#292D32"/>
</svg>
