<svg width="25" height="24" viewBox="0 0 25 24" fill="none" xmlns="http://www.w3.org/2000/svg">
<path d="M15.6699 22C15.2599 22 14.9199 21.66 14.9199 21.25V2.75C14.9199 2.34 15.2599 2 15.6699 2C16.0799 2 16.4199 2.34 16.4199 2.75V21.25C16.4199 21.66 16.0799 22 15.6699 22Z" fill="#292D32"/>
<path opacity="0.4" d="M7.16992 20H13.1699V4H7.16992C4.95992 4 3.16992 5.79 3.16992 8V16C3.16992 18.21 4.95992 20 7.16992 20Z" fill="#292D32"/>
<path opacity="0.4" d="M18.6699 20H15.6699V4H18.6699C20.8799 4 22.6699 5.79 22.6699 8V16C22.6699 18.21 20.8799 20 18.6699 20Z" fill="#292D32"/>
<path d="M6.41992 12.9999C6.28992 12.9999 6.15992 12.9699 6.03992 12.9199C5.91992 12.8699 5.80992 12.7999 5.70992 12.7099C5.61992 12.6099 5.54992 12.4999 5.48992 12.3799C5.43992 12.2599 5.41992 12.1299 5.41992 11.9999C5.41992 11.7399 5.52992 11.4799 5.70992 11.2899C5.75992 11.2499 5.80992 11.2099 5.85992 11.1699C5.91992 11.1299 5.97992 11.0999 6.03992 11.0799C6.09992 11.0499 6.15992 11.0299 6.21992 11.0199C6.55992 10.9499 6.89992 11.0599 7.12992 11.2899C7.30992 11.4799 7.41992 11.7399 7.41992 11.9999C7.41992 12.1299 7.38992 12.2599 7.33992 12.3799C7.28992 12.4999 7.21992 12.6099 7.12992 12.7099C7.02992 12.7999 6.91992 12.8699 6.79992 12.9199C6.67992 12.9699 6.54992 12.9999 6.41992 12.9999Z" fill="#292D32"/>
<path d="M9.91992 13.0002C9.78992 13.0002 9.65992 12.9702 9.53992 12.9202C9.41992 12.8702 9.30992 12.8002 9.20992 12.7102C9.01992 12.5202 8.91992 12.2702 8.91992 12.0002C8.91992 11.8702 8.94992 11.7402 8.99992 11.6202C9.04992 11.4902 9.11992 11.3902 9.20992 11.2902C9.57992 10.9202 10.2499 10.9202 10.6299 11.2902C10.8099 11.4802 10.9199 11.7402 10.9199 12.0002C10.9199 12.1302 10.8899 12.2602 10.8399 12.3802C10.7899 12.5002 10.7199 12.6102 10.6299 12.7102C10.5299 12.8002 10.4199 12.8702 10.2999 12.9202C10.1799 12.9702 10.0499 13.0002 9.91992 13.0002Z" fill="#292D32"/>
</svg>
