<svg width="25" height="24" viewBox="0 0 25 24" fill="none" xmlns="http://www.w3.org/2000/svg">
<path d="M20.6895 10.6999L17.8895 12.4699L12.2295 6.80992L13.9895 4.00992C14.8095 2.71992 16.4495 2.65992 17.6595 3.85992L20.8395 7.03992C21.9695 8.16992 21.8995 9.92992 20.6895 10.6999Z" fill="#292D32"/>
<path opacity="0.4" d="M15.3802 19.95L6.67022 20.98C6.07022 21.05 5.53022 20.96 5.08022 20.74C4.59022 20.5 4.21022 20.12 3.97022 19.63C3.75022 19.18 3.67022 18.64 3.73022 18.05L4.77022 9.32998C5.02022 7.14998 5.83022 6.43999 8.13022 6.56999L12.2502 6.81999L17.9102 12.48L18.1502 16.6C18.3602 18.9 17.5702 19.7 15.3802 19.95Z" fill="#292D32"/>
<path d="M8.64996 17.1499L5.06996 20.7299C4.57996 20.4899 4.19996 20.1099 3.95996 19.6199L7.54996 16.0299C7.85996 15.7299 8.35996 15.7299 8.65996 16.0299C8.96996 16.3499 8.96996 16.8399 8.64996 17.1499Z" fill="#292D32"/>
</svg>
