<svg width="25" height="24" viewBox="0 0 25 24" fill="none" xmlns="http://www.w3.org/2000/svg">
<path opacity="0.4" d="M16.8599 2H8.47992C4.83992 2 2.66992 4.17 2.66992 7.81V16.18C2.66992 19.83 4.83992 22 8.47992 22H16.8499C20.4899 22 22.6599 19.83 22.6599 16.19V7.81C22.6699 4.17 20.4999 2 16.8599 2Z" fill="#292D32"/>
<path d="M17.3302 11.25L15.7102 12.27L12.4102 8.97998L13.4402 7.34998C13.9102 6.60998 14.8702 6.56998 15.5702 7.26998L17.4202 9.11998C18.0802 9.76998 18.0402 10.8 17.3302 11.25Z" fill="#292D32"/>
<path opacity="0.6" d="M14.2495 16.6199L9.17951 17.2199C8.95951 17.2499 8.75951 17.2399 8.56951 17.1799C8.01951 17.0599 7.62951 16.6699 7.50951 16.1199C7.44951 15.9299 7.43951 15.7299 7.46951 15.5099L8.05951 10.4399C8.21951 9.16993 8.67951 8.75993 10.0195 8.83993L12.4095 8.97993L15.7095 12.2699L15.8495 14.6699C15.9795 16.0099 15.5195 16.4699 14.2495 16.6199Z" fill="#292D32"/>
<path d="M10.5498 15.2001L8.56977 17.1801C8.01977 17.0601 7.62977 16.6701 7.50977 16.1201L9.47977 14.1401C9.77977 13.8501 10.2498 13.8501 10.5498 14.1401C10.8398 14.4301 10.8398 14.9101 10.5498 15.2001Z" fill="#292D32"/>
</svg>
