<svg width="25" height="24" viewBox="0 0 25 24" fill="none" xmlns="http://www.w3.org/2000/svg">
<path d="M14.8195 22.0001H10.5395C9.00952 22.0001 7.86952 20.7601 8.15952 19.4301L8.85952 16.3501H16.4995L17.1995 19.4301C17.5195 20.8401 16.4495 22.0001 14.8195 22.0001Z" fill="#292D32"/>
<path opacity="0.4" d="M19.4401 13.7399L16.5001 16.3499H8.86006L5.92006 13.7399C4.21006 12.3399 4.21006 11.2599 5.51006 9.60993L10.7001 3.03993C11.0601 2.58993 11.4801 2.27993 11.9301 2.11993C12.4201 1.94993 12.9401 1.94993 13.4301 2.11993C13.8801 2.27993 14.3001 2.58993 14.6601 3.03993L19.8501 9.60993C21.1501 11.2599 21.0901 12.2799 19.4401 13.7399Z" fill="#292D32"/>
<path d="M13.4297 2.11993V6.96993C13.4297 7.37993 13.0897 7.71993 12.6797 7.71993C12.2697 7.71993 11.9297 7.37993 11.9297 6.96993V2.11993C12.4197 1.94993 12.9397 1.94993 13.4297 2.11993Z" fill="#292D32"/>
</svg>
