<svg width="25" height="24" viewBox="0 0 25 24" fill="none" xmlns="http://www.w3.org/2000/svg">
<path d="M13.1895 1.5H12.1895C11.3595 1.5 10.6895 2.17 10.6895 3V4C10.6895 4.83 11.3595 5.5 12.1895 5.5H13.1895C14.0195 5.5 14.6895 4.83 14.6895 4V3C14.6895 2.17 14.0195 1.5 13.1895 1.5Z" fill="#292D32"/>
<path d="M4.93945 10.6699H3.93945C3.10945 10.6699 2.43945 11.3399 2.43945 12.1699V13.1699C2.43945 13.9999 3.10945 14.6699 3.93945 14.6699H4.93945C5.76945 14.6699 6.43945 13.9999 6.43945 13.1699V12.1699C6.43945 11.3399 5.75945 10.6699 4.93945 10.6699Z" fill="#292D32"/>
<path d="M21.3994 10.6699H20.3994C19.5694 10.6699 18.8994 11.3399 18.8994 12.1699V13.1699C18.8994 13.9999 19.5694 14.6699 20.3994 14.6699H21.3994C22.2294 14.6699 22.8994 13.9999 22.8994 13.1699V12.1699C22.8994 11.3399 22.2294 10.6699 21.3994 10.6699Z" fill="#292D32"/>
<path d="M4.41992 11.9201C4.00992 11.9201 3.66992 11.5801 3.66992 11.1701C3.66992 6.90007 6.86992 3.31008 11.1099 2.81008C11.5099 2.77008 11.8899 3.06005 11.9399 3.47005C11.9899 3.88005 11.6899 4.25007 11.2799 4.30007C7.79992 4.71007 5.16992 7.66007 5.16992 11.1701C5.16992 11.5801 4.82992 11.9201 4.41992 11.9201Z" fill="#292D32"/>
<path d="M20.9199 11.92C20.5099 11.92 20.1699 11.58 20.1699 11.17C20.1699 7.68003 17.5599 4.73005 14.0999 4.31005C13.6899 4.26005 13.3999 3.89003 13.4499 3.48003C13.4999 3.07003 13.8799 2.78007 14.2899 2.83007C18.4999 3.34007 21.6799 6.93004 21.6799 11.18C21.6699 11.58 21.3399 11.92 20.9199 11.92Z" fill="#292D32"/>
<path d="M13.9597 22.0099H11.3897C10.4697 22.0099 9.78974 21.2698 9.95974 20.4698L10.3798 18.6199H14.9697L15.3897 20.4698C15.5797 21.3198 14.9397 22.0099 13.9597 22.0099Z" fill="#292D32"/>
<path opacity="0.4" d="M16.7397 17.0499L14.9697 18.6199H10.3797L8.60973 17.0499C7.57973 16.2099 7.57973 15.5599 8.35973 14.5699L11.4797 10.6299C11.6997 10.3599 11.9497 10.1699 12.2197 10.0799C12.5097 9.97988 12.8297 9.97988 13.1197 10.0799C13.3897 10.1799 13.6397 10.3599 13.8597 10.6299L16.9797 14.5699C17.7597 15.5599 17.7297 16.1799 16.7397 17.0499Z" fill="#292D32"/>
</svg>
