<svg width="25" height="24" viewBox="0 0 25 24" fill="none" xmlns="http://www.w3.org/2000/svg">
<path opacity="0.4" d="M18.2 7.77C18.13 7.76 18.06 7.76 17.99 7.77C16.44 7.72 15.21 6.45 15.21 4.89C15.21 3.3 16.5 2 18.1 2C19.69 2 20.99 3.29 20.99 4.89C20.98 6.45 19.75 7.72 18.2 7.77Z" fill="#292D32"/>
<path opacity="0.4" d="M21.46 14.6999C20.34 15.4499 18.77 15.7299 17.32 15.5399C17.7 14.7199 17.9 13.8099 17.91 12.8499C17.91 11.8499 17.69 10.8999 17.27 10.0699C18.75 9.86992 20.32 10.1499 21.45 10.8999C23.03 11.9399 23.03 13.6499 21.46 14.6999Z" fill="#292D32"/>
<path opacity="0.4" d="M7.10982 7.77C7.17982 7.76 7.24982 7.76 7.31982 7.77C8.86982 7.72 10.0998 6.45 10.0998 4.89C10.0998 3.3 8.80982 2 7.20982 2C5.61982 2 4.31982 3.29 4.31982 4.89C4.32982 6.45 5.55982 7.72 7.10982 7.77Z" fill="#292D32"/>
<path opacity="0.4" d="M7.22004 12.8501C7.22004 13.8201 7.43004 14.7401 7.81004 15.5701C6.40004 15.7201 4.93004 15.4201 3.85004 14.7101C2.27004 13.6601 2.27004 11.9501 3.85004 10.9001C4.92004 10.1801 6.43004 9.8901 7.85004 10.0501C7.44004 10.8901 7.22004 11.8401 7.22004 12.8501Z" fill="#292D32"/>
<path d="M12.7897 15.87C12.7097 15.86 12.6197 15.86 12.5297 15.87C10.6897 15.81 9.21973 14.3 9.21973 12.44C9.21973 10.54 10.7497 9 12.6597 9C14.5597 9 16.0997 10.54 16.0997 12.44C16.0997 14.3 14.6397 15.81 12.7897 15.87Z" fill="#292D32"/>
<path d="M9.53973 17.9399C8.02973 18.9499 8.02973 20.6099 9.53973 21.6099C11.2597 22.7599 14.0797 22.7599 15.7997 21.6099C17.3097 20.5999 17.3097 18.9399 15.7997 17.9399C14.0897 16.7899 11.2697 16.7899 9.53973 17.9399Z" fill="#292D32"/>
</svg>
