<svg width="25" height="24" viewBox="0 0 25 24" fill="none" xmlns="http://www.w3.org/2000/svg">
<path opacity="0.4" d="M12.6836 22C18.2064 22 22.6836 17.5228 22.6836 12C22.6836 6.47715 18.2064 2 12.6836 2C7.16075 2 2.68359 6.47715 2.68359 12C2.68359 17.5228 7.16075 22 12.6836 22Z" fill="#292D32"/>
<path d="M9.00336 16.02C8.81336 16.02 8.62336 15.95 8.47336 15.8C8.18336 15.51 8.18336 15.03 8.47336 14.74L15.0233 8.19003C15.3133 7.90003 15.7933 7.90003 16.0833 8.19003C16.3733 8.48003 16.3733 8.96003 16.0833 9.25003L9.53336 15.8C9.38336 15.95 9.19336 16.02 9.00336 16.02Z" fill="#292D32"/>
<path d="M9.4136 7.66003C8.6036 7.66003 7.93359 8.32005 7.93359 9.14005C7.93359 9.95005 8.5936 10.62 9.4136 10.62C10.2236 10.62 10.8936 9.96005 10.8936 9.14005C10.8836 8.32005 10.2236 7.66003 9.4136 7.66003Z" fill="#292D32"/>
<path d="M15.9536 13.39C15.1436 13.39 14.4736 14.05 14.4736 14.87C14.4736 15.68 15.1336 16.35 15.9536 16.35C16.7636 16.35 17.4336 15.69 17.4336 14.87C17.4336 14.05 16.7736 13.39 15.9536 13.39Z" fill="#292D32"/>
</svg>
