<svg width="25" height="24" viewBox="0 0 25 24" fill="none" xmlns="http://www.w3.org/2000/svg">
<path opacity="0.58" d="M24.6699 0H0.669922V24H24.6699V0Z" fill="white"/>
<path opacity="0.4" d="M16.8597 2H8.48969C4.84968 2 2.67969 4.17 2.67969 7.81V16.18C2.67969 19.82 4.84968 21.99 8.48969 21.99H16.8597C20.4997 21.99 22.6697 19.82 22.6697 16.18V7.81C22.6697 4.17 20.4997 2 16.8597 2Z" fill="#292D32"/>
<path d="M8.16992 16.75C7.75992 16.75 7.41992 16.41 7.41992 16V8C7.41992 7.59 7.75992 7.25 8.16992 7.25H10.1699C11.6899 7.25 12.9199 8.48 12.9199 10C12.9199 11.52 11.6899 12.75 10.1699 12.75H8.91992V16C8.91992 16.41 8.57992 16.75 8.16992 16.75ZM8.91992 11.25H10.1699C10.8599 11.25 11.4199 10.69 11.4199 10C11.4199 9.31 10.8599 8.75 10.1699 8.75H8.91992V11.25Z" fill="#292D32"/>
<path d="M15.9199 16.75H14.6699C14.2599 16.75 13.9199 16.41 13.9199 16C13.9199 15.59 14.2599 15.25 14.6699 15.25H15.9199C16.1999 15.25 16.4199 15.03 16.4199 14.75C16.4199 14.47 16.1999 14.25 15.9199 14.25C14.8199 14.25 13.9199 13.35 13.9199 12.25C13.9199 11.15 14.8199 10.25 15.9199 10.25H17.1699C17.5799 10.25 17.9199 10.59 17.9199 11C17.9199 11.41 17.5799 11.75 17.1699 11.75H15.9199C15.6399 11.75 15.4199 11.97 15.4199 12.25C15.4199 12.53 15.6399 12.75 15.9199 12.75C17.0199 12.75 17.9199 13.65 17.9199 14.75C17.9199 15.85 17.0199 16.75 15.9199 16.75Z" fill="#292D32"/>
</svg>
