<svg width="25" height="24" viewBox="0 0 25 24" fill="none" xmlns="http://www.w3.org/2000/svg">
<path d="M16.6699 15V19C16.6699 20.66 15.3299 22 13.6699 22H11.6699C10.0099 22 8.66992 20.66 8.66992 19V15H16.6699Z" fill="#292D32"/>
<path d="M7.66992 7V5C7.66992 3.34 9.00992 2 10.6699 2H14.6699C16.3299 2 17.6699 3.34 17.6699 5V7H7.66992Z" fill="#292D32"/>
<path opacity="0.4" d="M18.6699 7H6.66992C4.66992 7 3.66992 8 3.66992 10V15C3.66992 17 4.66992 18 6.66992 18H8.66992V15H16.6699V18H18.6699C20.6699 18 21.6699 17 21.6699 15V10C21.6699 8 20.6699 7 18.6699 7ZM10.6699 11.75H7.66992C7.25992 11.75 6.91992 11.41 6.91992 11C6.91992 10.59 7.25992 10.25 7.66992 10.25H10.6699C11.0799 10.25 11.4199 10.59 11.4199 11C11.4199 11.41 11.0799 11.75 10.6699 11.75Z" fill="#292D32"/>
<path d="M11.4199 11C11.4199 11.41 11.0799 11.75 10.6699 11.75H7.66992C7.25992 11.75 6.91992 11.41 6.91992 11C6.91992 10.59 7.25992 10.25 7.66992 10.25H10.6699C11.0799 10.25 11.4199 10.59 11.4199 11Z" fill="#292D32"/>
<path d="M17.6699 15.75H7.66992C7.25992 15.75 6.91992 15.41 6.91992 15C6.91992 14.59 7.25992 14.25 7.66992 14.25H17.6699C18.0799 14.25 18.4199 14.59 18.4199 15C18.4199 15.41 18.0799 15.75 17.6699 15.75Z" fill="#292D32"/>
</svg>
