<svg width="25" height="24" viewBox="0 0 25 24" fill="none" xmlns="http://www.w3.org/2000/svg">
<path opacity="0.4" d="M6.66992 7C4.66992 7 3.66992 8 3.66992 10V15C3.66992 17 4.66992 18 6.66992 18L8.66992 16V15H9.66992L17.6699 7H6.66992ZM7.66992 11.75C7.25992 11.75 6.91992 11.41 6.91992 11C6.91992 10.59 7.25992 10.25 7.66992 10.25H9.66992C10.0799 10.25 10.4199 10.59 10.4199 11C10.4199 11.41 10.0799 11.75 9.66992 11.75H7.66992Z" fill="#292D32"/>
<path d="M9.66992 15L8.66992 16V15H9.66992Z" fill="#292D32"/>
<path d="M17.6699 5V7H7.66992V5C7.66992 3.34 9.00992 2 10.6699 2H14.6699C16.3299 2 17.6699 3.34 17.6699 5Z" fill="#292D32"/>
<path fill-rule="evenodd" clip-rule="evenodd" d="M23.2003 1.46967C23.4931 1.76256 23.4931 2.23744 23.2003 2.53033L3.20025 22.5303C2.90736 22.8232 2.43248 22.8232 2.13959 22.5303C1.8467 22.2374 1.8467 21.7626 2.13959 21.4697L22.1396 1.46967C22.4325 1.17678 22.9074 1.17678 23.2003 1.46967Z" fill="#292D32"/>
<path d="M10.4199 11C10.4199 11.41 10.0799 11.75 9.66992 11.75H7.66992C7.25992 11.75 6.91992 11.41 6.91992 11C6.91992 10.59 7.25992 10.25 7.66992 10.25H9.66992C10.0799 10.25 10.4199 10.59 10.4199 11Z" fill="#292D32"/>
<path d="M18.4199 15C18.4199 15.41 18.0799 15.75 17.6699 15.75H11.9199L13.4199 14.25H17.6699C18.0799 14.25 18.4199 14.59 18.4199 15Z" fill="#292D32"/>
<path d="M16.6699 15V19C16.6699 20.66 15.3299 22 13.6699 22H11.6699C10.0099 22 8.66992 20.66 8.66992 19L12.6699 15H16.6699Z" fill="#292D32"/>
<path opacity="0.4" d="M21.6699 10.0001V15.0001C21.6699 17.0001 20.6699 18.0001 18.6699 18.0001H16.6699V15.0001H12.6699L20.3399 7.33008C21.2299 7.78008 21.6699 8.67008 21.6699 10.0001Z" fill="#292D32"/>
</svg>
