<svg width="25" height="24" viewBox="0 0 25 24" fill="none" xmlns="http://www.w3.org/2000/svg">
<path d="M8.76215 11.63H4.07214C4.15214 6.95997 5.07214 6.18996 7.94214 4.48996C8.27214 4.28996 8.38213 3.86996 8.18213 3.52996C7.98213 3.19996 7.56211 3.08997 7.22211 3.28997C3.84211 5.28997 2.66211 6.50995 2.66211 12.33V17.72C2.66211 19.43 4.05214 20.81 5.75214 20.81H8.75214C10.5121 20.81 11.8421 19.48 11.8421 17.72V14.72C11.8521 12.96 10.5221 11.63 8.76215 11.63Z" fill="#292D32"/>
<path opacity="0.4" d="M19.5814 11.63H14.8914C14.9714 6.95997 15.8915 6.18996 18.7615 4.48996C19.0915 4.28996 19.2015 3.86996 19.0015 3.52996C18.8015 3.19996 18.3814 3.08997 18.0414 3.28997C14.6614 5.28997 13.4814 6.50995 13.4814 12.33V17.72C13.4814 19.43 14.8715 20.81 16.5715 20.81H19.5715C21.3315 20.81 22.6614 19.48 22.6614 17.72V14.72C22.6714 12.96 21.3414 11.63 19.5814 11.63Z" fill="#292D32"/>
</svg>
