<svg width="25" height="24" viewBox="0 0 25 24" fill="none" xmlns="http://www.w3.org/2000/svg">
<path opacity="0.4" d="M16.8616 2H8.49164C4.85164 2 2.68164 4.17 2.68164 7.81V16.18C2.68164 19.82 4.85164 21.99 8.49164 21.99H16.8616C20.5016 21.99 22.6716 19.82 22.6716 16.18V7.81C22.6716 4.17 20.5016 2 16.8616 2Z" fill="#292D32"/>
<path d="M16.4818 7.21997H14.9918C13.9018 7.21997 13.0518 8.06997 13.0518 9.15997V10.65C13.0518 11.74 13.9018 12.59 14.9918 12.59H16.9018C16.8218 14.4 16.4018 14.67 15.1918 15.38C14.8318 15.59 14.7218 16.05 14.9318 16.41C15.0718 16.65 15.3218 16.78 15.5818 16.78C15.7118 16.78 15.8418 16.75 15.9618 16.68C17.7518 15.62 18.4218 14.93 18.4218 11.85V9.17999C18.4218 8.08999 17.5518 7.21997 16.4818 7.21997Z" fill="#292D32"/>
<path d="M10.3519 7.21997H8.86187C7.77187 7.21997 6.92188 8.06997 6.92188 9.15997V10.65C6.92188 11.74 7.77187 12.59 8.86187 12.59H10.7719C10.6919 14.4 10.2719 14.67 9.06187 15.38C8.70187 15.59 8.59188 16.05 8.80188 16.41C8.94188 16.65 9.19187 16.78 9.45187 16.78C9.58187 16.78 9.71187 16.75 9.83187 16.68C11.6219 15.62 12.2919 14.93 12.2919 11.85V9.17999C12.2819 8.08999 11.4119 7.21997 10.3519 7.21997Z" fill="#292D32"/>
</svg>
