<svg width="25" height="24" viewBox="0 0 25 24" fill="none" xmlns="http://www.w3.org/2000/svg">
<path opacity="0.4" d="M16.8616 2H8.49164C4.85164 2 2.68164 4.17 2.68164 7.81V16.18C2.68164 19.82 4.85164 21.99 8.49164 21.99H16.8616C20.5016 21.99 22.6716 19.82 22.6716 16.18V7.81C22.6716 4.17 20.5016 2 16.8616 2Z" fill="#292D32"/>
<path d="M8.86188 16.78H10.3519C11.4419 16.78 12.2919 15.93 12.2919 14.84V13.35C12.2919 12.26 11.4419 11.41 10.3519 11.41H8.44187C8.52187 9.59997 8.94188 9.33 10.1519 8.62C10.5119 8.41 10.6219 7.95003 10.4119 7.59003C10.2719 7.35003 10.0219 7.21997 9.76187 7.21997C9.63187 7.21997 9.50187 7.25001 9.38187 7.32001C7.59187 8.38001 6.92188 9.07002 6.92188 12.15V14.82C6.92188 15.91 7.79188 16.78 8.86188 16.78Z" fill="#292D32"/>
<path d="M14.9918 16.78H16.4818C17.5718 16.78 18.4218 15.93 18.4218 14.84V13.35C18.4218 12.26 17.5718 11.41 16.4818 11.41H14.5718C14.6518 9.59997 15.0718 9.33 16.2818 8.62C16.6418 8.41 16.7518 7.95003 16.5418 7.59003C16.4018 7.35003 16.1518 7.21997 15.8918 7.21997C15.7618 7.21997 15.6318 7.25001 15.5118 7.32001C13.7218 8.38001 13.0518 9.07002 13.0518 12.15V14.82C13.0618 15.91 13.9318 16.78 14.9918 16.78Z" fill="#292D32"/>
</svg>
