<svg width="25" height="24" viewBox="0 0 25 24" fill="none" xmlns="http://www.w3.org/2000/svg">
<path d="M22.6699 6V8.42C22.6699 10 21.6699 11 20.0899 11H16.6699V4.01C16.6699 2.9 17.5799 2 18.6899 2C19.7799 2.01 20.7799 2.45 21.4999 3.17C22.2199 3.9 22.6699 4.9 22.6699 6Z" fill="#292D32"/>
<path opacity="0.4" d="M2.66992 7V21C2.66992 21.83 3.60993 22.3 4.26993 21.8L5.97992 20.52C6.37992 20.22 6.93993 20.26 7.29993 20.62L8.95992 22.29C9.34992 22.68 9.98993 22.68 10.3799 22.29L12.0599 20.61C12.4099 20.26 12.9699 20.22 13.3599 20.52L15.0699 21.8C15.7299 22.29 16.6699 21.82 16.6699 21V4C16.6699 2.9 17.5699 2 18.6699 2H7.66992H6.66992C3.66992 2 2.66992 3.79 2.66992 6V7Z" fill="#292D32"/>
<path d="M12.6699 9.75H6.66992C6.25992 9.75 5.91992 9.41 5.91992 9C5.91992 8.59 6.25992 8.25 6.66992 8.25H12.6699C13.0799 8.25 13.4199 8.59 13.4199 9C13.4199 9.41 13.0799 9.75 12.6699 9.75Z" fill="#292D32"/>
<path d="M11.9199 13.75H7.41992C7.00992 13.75 6.66992 13.41 6.66992 13C6.66992 12.59 7.00992 12.25 7.41992 12.25H11.9199C12.3299 12.25 12.6699 12.59 12.6699 13C12.6699 13.41 12.3299 13.75 11.9199 13.75Z" fill="#292D32"/>
</svg>
