<svg width="25" height="24" viewBox="0 0 25 24" fill="none" xmlns="http://www.w3.org/2000/svg">
<path d="M9.57016 16.5299C10.0502 16.0099 10.7902 16.0499 11.2102 16.6199L11.8102 17.4199C12.2802 18.0499 13.0602 18.0499 13.5302 17.4199L14.1202 16.6299C14.5402 16.0699 15.2802 16.0299 15.7602 16.5399C16.8102 17.6599 17.6602 17.2899 17.6602 15.7199V9.08988C17.6602 6.71988 17.1002 6.12988 14.8802 6.12988H10.4402C8.22016 6.12988 7.66016 6.71988 7.66016 9.08988V15.7199C7.67016 17.2699 8.53016 17.6399 9.57016 16.5299Z" fill="#292D32"/>
<path opacity="0.4" d="M16.8597 2H8.48969C4.84968 2 2.67969 4.17 2.67969 7.81V16.18C2.67969 19.82 4.84968 21.99 8.48969 21.99H16.8597C20.4997 21.99 22.6697 19.82 22.6697 16.18V7.81C22.6697 4.17 20.4997 2 16.8597 2Z" fill="#292D32"/>
</svg>
