<svg width="25" height="24" viewBox="0 0 25 24" fill="none" xmlns="http://www.w3.org/2000/svg">
<path opacity="0.4" d="M16.8597 2H8.4897C4.8497 2 2.67969 4.17 2.67969 7.81V16.18C2.67969 19.82 4.8497 21.99 8.4897 21.99H16.8597C20.4997 21.99 22.6697 19.82 22.6697 16.18V7.81C22.6697 4.17 20.4997 2 16.8597 2Z" fill="#292D32"/>
<path d="M13.69 12.59H11.26C10.85 12.59 10.51 12.93 10.51 13.34C10.51 13.75 10.85 14.09 11.26 14.09H15.5C15.6 14.09 15.69 14.07 15.79 14.03C15.97 13.95 16.12 13.81 16.2 13.62C16.24 13.53 16.26 13.43 16.26 13.33V9.09999C16.26 8.68999 15.92 8.34999 15.51 8.34999C15.1 8.34999 14.76 8.68999 14.76 9.09999V11.53L10.3801 7.15C10.0901 6.86 9.61004 6.86 9.32004 7.15C9.03004 7.44 9.03004 7.91999 9.32004 8.20999L13.69 12.59Z" fill="#292D32"/>
<path d="M19.3801 16.28C19.2501 15.89 18.8301 15.68 18.4301 15.81C14.7101 17.05 10.6201 17.05 6.9001 15.81C6.5101 15.68 6.0801 15.89 5.9501 16.28C5.8201 16.67 6.0301 17.1 6.4201 17.23C8.4301 17.9 10.5401 18.24 12.6601 18.24C14.7801 18.24 16.8901 17.9 18.9001 17.23C19.3001 17.09 19.5101 16.67 19.3801 16.28Z" fill="#292D32"/>
</svg>
