<svg width="25" height="24" viewBox="0 0 25 24" fill="none" xmlns="http://www.w3.org/2000/svg">
<path d="M5.67031 18.2C5.47031 18.2 5.27031 18.1 5.17031 18C4.87031 17.7 4.87031 17.2 5.17031 16.9L19.1703 2.90005C19.4703 2.60005 19.9703 2.60005 20.2703 2.90005C20.5703 3.20005 20.5703 3.70005 20.2703 4.00005L6.27031 18C6.07031 18.2 5.87031 18.2 5.67031 18.2Z" fill="#292D32"/>
<path d="M15.9701 18.2H5.67012C5.27012 18.2 4.87012 17.9 4.87012 17.4V7.20002C4.87012 6.80002 5.17012 6.40002 5.67012 6.40002C6.17012 6.40002 6.47012 6.70002 6.47012 7.20002V16.7H15.9701C16.3701 16.7 16.7701 17 16.7701 17.5C16.7701 18 16.3701 18.2 15.9701 18.2Z" fill="#292D32"/>
<path opacity="0.4" d="M21.1701 22.7999H4.17012C3.77012 22.7999 3.37012 22.5 3.37012 22C3.37012 21.5 3.67012 21.2 4.17012 21.2H21.1701C21.5701 21.2 21.9701 21.5 21.9701 22C21.9701 22.5 21.5701 22.7999 21.1701 22.7999Z" fill="#292D32"/>
</svg>
