<svg width="25" height="24" viewBox="0 0 25 24" fill="none" xmlns="http://www.w3.org/2000/svg">
<path d="M22.6699 5.99996V8.41996C22.6699 9.99996 21.6699 11 20.0899 11H16.6699V4.00996C16.6699 2.89996 17.5799 1.98996 18.6899 1.99996C19.7799 2.00996 20.7799 2.44996 21.4999 3.16996C22.2199 3.89996 22.6699 4.89996 22.6699 5.99996Z" fill="#292D32"/>
<path opacity="0.4" d="M2.66992 7V21C2.66992 21.83 3.60992 22.3 4.26992 21.8L5.97992 20.52C6.37992 20.22 6.93992 20.26 7.29992 20.62L8.95992 22.29C9.34992 22.68 9.98992 22.68 10.3799 22.29L12.0599 20.61C12.4099 20.26 12.9699 20.22 13.3599 20.52L15.0699 21.8C15.7299 22.29 16.6699 21.82 16.6699 21V4C16.6699 2.9 17.5699 2 18.6699 2H7.66992H6.66992C3.66992 2 2.66992 3.79 2.66992 6V7Z" fill="#292D32"/>
<path d="M12.0996 12.08C11.5496 12.08 11.0996 12.53 11.0996 13.08C11.0996 13.63 11.5496 14.08 12.0996 14.08C12.6496 14.08 13.0996 13.63 13.0996 13.08C13.0996 12.53 12.6496 12.08 12.0996 12.08Z" fill="#292D32"/>
<path d="M7.24023 10.0299C7.80023 10.0299 8.24023 9.57991 8.24023 9.02991C8.24023 8.47991 7.79023 8.02991 7.24023 8.02991C6.69023 8.02991 6.24023 8.47991 6.24023 9.02991C6.24023 9.57991 6.69023 10.0299 7.24023 10.0299Z" fill="#292D32"/>
<path d="M12.9299 7.73996C12.6399 7.44996 12.1599 7.44996 11.8699 7.73996L6.40988 13.2C6.11988 13.49 6.11988 13.97 6.40988 14.26C6.55988 14.41 6.74988 14.48 6.93988 14.48C7.12988 14.48 7.31988 14.41 7.46988 14.26L12.9299 8.79996C13.2199 8.50996 13.2199 8.02996 12.9299 7.73996Z" fill="#292D32"/>
</svg>
