<svg width="25" height="24" viewBox="0 0 25 24" fill="none" xmlns="http://www.w3.org/2000/svg">
<path d="M22.6699 5.99996V8.41996C22.6699 9.99996 21.6699 11 20.0899 11H16.6699V4.00996C16.6699 2.89996 17.5799 1.98996 18.6899 1.99996C19.7799 2.00996 20.7799 2.44996 21.4999 3.16996C22.2199 3.89996 22.6699 4.89996 22.6699 5.99996Z" fill="#292D32"/>
<path opacity="0.4" d="M2.66992 7V21C2.66992 21.83 3.60992 22.3 4.26992 21.8L5.97992 20.52C6.37992 20.22 6.93992 20.26 7.29992 20.62L8.95992 22.29C9.34992 22.68 9.98992 22.68 10.3799 22.29L12.0599 20.61C12.4099 20.26 12.9699 20.22 13.3599 20.52L15.0699 21.8C15.7299 22.29 16.6699 21.82 16.6699 21V4C16.6699 2.9 17.5699 2 18.6699 2H7.66992H6.66992C3.66992 2 2.66992 3.79 2.66992 6V7Z" fill="#292D32"/>
<path d="M12.6699 12.26H9.66992C9.25992 12.26 8.91992 12.6 8.91992 13.01C8.91992 13.42 9.25992 13.76 9.66992 13.76H12.6699C13.0799 13.76 13.4199 13.42 13.4199 13.01C13.4199 12.6 13.0799 12.26 12.6699 12.26Z" fill="#292D32"/>
<path d="M9.66992 9.76001H12.6699C13.0799 9.76001 13.4199 9.42001 13.4199 9.01001C13.4199 8.60001 13.0799 8.26001 12.6699 8.26001H9.66992C9.25992 8.26001 8.91992 8.60001 8.91992 9.01001C8.91992 9.42001 9.25992 9.76001 9.66992 9.76001Z" fill="#292D32"/>
<path d="M6.63965 8.01001C6.07965 8.01001 5.63965 8.46001 5.63965 9.01001C5.63965 9.56001 6.08965 10.01 6.63965 10.01C7.18965 10.01 7.63965 9.56001 7.63965 9.01001C7.63965 8.46001 7.18965 8.01001 6.63965 8.01001Z" fill="#292D32"/>
<path d="M6.63965 12.01C6.07965 12.01 5.63965 12.46 5.63965 13.01C5.63965 13.56 6.08965 14.01 6.63965 14.01C7.18965 14.01 7.63965 13.56 7.63965 13.01C7.63965 12.46 7.18965 12.01 6.63965 12.01Z" fill="#292D32"/>
</svg>
