<svg width="25" height="24" viewBox="0 0 25 24" fill="none" xmlns="http://www.w3.org/2000/svg">
<path opacity="0.4" d="M7.40018 19.7C8.22018 18.82 9.47015 18.89 10.1902 19.85L11.2002 21.2C12.0102 22.27 13.3202 22.27 14.1302 21.2L15.1402 19.85C15.8602 18.89 17.1102 18.82 17.9302 19.7C19.7102 21.6 21.1602 20.97 21.1602 18.31V7.04999C21.1602 3.01999 20.2202 2.01001 16.4402 2.01001H8.88016C5.10016 2.01001 4.16016 3.01999 4.16016 7.04999V18.31C4.17016 20.97 5.63018 21.59 7.40018 19.7Z" fill="#292D32"/>
<path d="M15.5099 9.98993L15.0099 10.4999H14.9999L11.9699 13.5299C11.8399 13.6599 11.5699 13.7999 11.3799 13.8199L10.0299 14.0199C9.53985 14.0899 9.19987 13.7399 9.26987 13.2599L9.45988 11.8999C9.48988 11.7099 9.61986 11.4499 9.74986 11.3099L12.7899 8.27994L13.2899 7.76993C13.6199 7.43993 13.9899 7.19995 14.3899 7.19995C14.7299 7.19995 15.0999 7.35993 15.5099 7.76993C16.4099 8.66993 16.1199 9.37993 15.5099 9.98993Z" fill="#292D32"/>
</svg>
