<svg width="25" height="24" viewBox="0 0 25 24" fill="none" xmlns="http://www.w3.org/2000/svg">
<path opacity="0.4" d="M16.8599 2H8.48993C4.83993 2 2.66992 4.17 2.66992 7.81V16.18C2.66992 19.82 4.83992 21.99 8.47992 21.99H16.8499C20.4899 21.99 22.6599 19.82 22.6599 16.18V7.81C22.6699 4.17 20.4999 2 16.8599 2Z" fill="#292D32"/>
<path d="M17.4499 9.06999C17.2199 8.71999 16.7499 8.62999 16.4099 8.85999C16.0699 9.08999 15.9699 9.55999 16.1999 9.89999C16.6699 10.6 16.9099 11.42 16.9099 12.26C16.9099 14.6 14.9999 16.51 12.6599 16.51C10.3199 16.51 8.40993 14.6 8.40993 12.26C8.40993 9.91999 10.3199 8.00999 12.6599 8.00999C12.8499 8.00999 13.0299 8.02999 13.2199 8.04999L12.6699 8.45999C12.3399 8.69999 12.2599 9.16999 12.5099 9.50999C12.6599 9.70999 12.8899 9.81999 13.1199 9.81999C13.2699 9.81999 13.4299 9.76999 13.5599 9.67999L15.4999 8.25999C15.5099 8.24999 15.5099 8.23999 15.5199 8.23999C15.5299 8.22999 15.5399 8.22999 15.5499 8.21999C15.5799 8.18999 15.5999 8.15999 15.6199 8.12999C15.6499 8.08999 15.6899 8.05999 15.7099 8.00999C15.7299 7.96999 15.7399 7.91999 15.7599 7.87999C15.7699 7.82999 15.7899 7.78999 15.7999 7.73999C15.8099 7.68999 15.7999 7.64999 15.7899 7.59999C15.7899 7.54999 15.7899 7.50999 15.7699 7.45999C15.7599 7.40999 15.7299 7.36999 15.7099 7.31999C15.6899 7.28999 15.6899 7.24999 15.6599 7.20999C15.6499 7.19999 15.6399 7.19999 15.6399 7.18999C15.6299 7.17999 15.6299 7.16999 15.6199 7.15999L13.9499 5.24999C13.6799 4.93999 13.1999 4.89999 12.8899 5.17999C12.5799 5.44999 12.5499 5.92999 12.8199 6.23999L13.0999 6.55999C12.9599 6.54999 12.8199 6.52999 12.6699 6.52999C9.49992 6.52999 6.91992 9.10999 6.91992 12.28C6.91992 15.45 9.49992 18.03 12.6699 18.03C15.8399 18.03 18.4199 15.45 18.4199 12.28C18.4199 11.12 18.0899 10.02 17.4499 9.06999Z" fill="#292D32"/>
</svg>
