<svg width="25" height="24" viewBox="0 0 25 24" fill="none" xmlns="http://www.w3.org/2000/svg">
<path opacity="0.4" d="M12.6699 22C18.1928 22 22.6699 17.5228 22.6699 12C22.6699 6.47715 18.1928 2 12.6699 2C7.14707 2 2.66992 6.47715 2.66992 12C2.66992 17.5228 7.14707 22 12.6699 22Z" fill="#292D32"/>
<path d="M17.43 11.9301C17.01 11.8601 16.64 12.1601 16.58 12.5701C16.46 13.4401 16.07 14.2201 15.47 14.8201C14.09 16.2001 11.95 16.3401 10.4 15.2701H11.15C11.56 15.2701 11.9 14.9301 11.9 14.5201C11.9 14.1101 11.56 13.7701 11.15 13.7701H8.47998C8.06998 13.7701 7.72998 14.1101 7.72998 14.5201V17.1901C7.72998 17.6001 8.06998 17.9401 8.47998 17.9401C8.88998 17.9401 9.22998 17.6001 9.22998 17.1901V16.2501C10.23 17.0601 11.44 17.4901 12.66 17.4901C14.06 17.4901 15.46 16.9601 16.53 15.8901C17.36 15.0601 17.89 13.9901 18.06 12.7901C18.13 12.3601 17.84 11.9801 17.43 11.9301Z" fill="#292D32"/>
<path d="M8.00985 12.0801C8.37985 12.0801 8.69984 11.8101 8.74984 11.4401C8.86984 10.5701 9.25985 9.79006 9.85985 9.19006C11.2399 7.81006 13.3799 7.67005 14.9299 8.74005H14.1799C13.7699 8.74005 13.4299 9.08005 13.4299 9.49005C13.4299 9.90005 13.7699 10.2401 14.1799 10.2401H16.8498C17.2598 10.2401 17.5998 9.90005 17.5998 9.49005V6.82007C17.5998 6.41007 17.2598 6.07007 16.8498 6.07007C16.4398 6.07007 16.0998 6.41007 16.0998 6.82007V7.76007C13.9498 6.02007 10.7999 6.13006 8.80987 8.12006C7.97987 8.95006 7.44984 10.02 7.27984 11.22C7.21984 11.63 7.50985 12.0101 7.91985 12.0701C7.93985 12.0801 7.97985 12.0801 8.00985 12.0801Z" fill="#292D32"/>
</svg>
