<svg width="25" height="24" viewBox="0 0 25 24" fill="none" xmlns="http://www.w3.org/2000/svg">
<path opacity="0.4" d="M16.8599 2H8.48993C4.83993 2 2.66992 4.17 2.66992 7.81V16.18C2.66992 19.82 4.83992 21.99 8.47992 21.99H16.8499C20.4899 21.99 22.6599 19.82 22.6599 16.18V7.81C22.6699 4.17 20.4999 2 16.8599 2Z" fill="#292D32"/>
<path d="M18.6703 11.27C18.2503 11.27 17.9203 11.6 17.9203 12.02C17.9103 13.42 17.3703 14.73 16.3903 15.71C15.4003 16.7 14.0803 17.25 12.6803 17.25C11.2803 17.25 9.96031 16.7 8.97031 15.71C8.94031 15.68 8.92032 15.65 8.89032 15.62H9.72031C10.1303 15.62 10.4703 15.28 10.4703 14.87C10.4703 14.46 10.1303 14.12 9.72031 14.12H7.07031C6.66031 14.12 6.32031 14.46 6.32031 14.87V17.52C6.32031 17.93 6.66031 18.27 7.07031 18.27C7.48031 18.27 7.82031 17.93 7.82031 17.52V16.67C7.85031 16.7 7.88031 16.74 7.91031 16.78C9.18031 18.05 10.8803 18.76 12.6803 18.76C14.4803 18.76 16.1803 18.06 17.4503 16.78C18.7103 15.52 19.4103 13.83 19.4203 12.03C19.4203 11.61 19.0803 11.28 18.6703 11.27Z" fill="#292D32"/>
<path d="M6.67014 12.65C7.08014 12.65 7.41014 12.32 7.42014 11.91C7.44014 10.54 7.99014 9.25 8.95014 8.28C9.94014 7.29 11.2601 6.74 12.6601 6.74C14.0601 6.74 15.3802 7.29 16.3702 8.28C16.4002 8.31 16.4201 8.34 16.4501 8.37H15.6202C15.2102 8.37 14.8702 8.71 14.8702 9.12C14.8702 9.53 15.2102 9.87 15.6202 9.87H18.2701C18.6801 9.87 19.0201 9.53 19.0201 9.12V6.48C19.0201 6.07 18.6801 5.73 18.2701 5.73C17.8601 5.73 17.5201 6.07 17.5201 6.48V7.34C17.4901 7.31 17.4602 7.27 17.4302 7.23C16.1602 5.96 14.4601 5.25 12.6601 5.25C10.8601 5.25 9.16014 5.95 7.89014 7.23C6.64014 8.47 5.94014 10.13 5.92014 11.89C5.91014 12.3 6.24013 12.64 6.66013 12.65C6.67013 12.65 6.67014 12.65 6.67014 12.65Z" fill="#292D32"/>
</svg>
