<svg width="25" height="24" viewBox="0 0 25 24" fill="none" xmlns="http://www.w3.org/2000/svg">
<path opacity="0.4" d="M12.6699 22C18.1928 22 22.6699 17.5228 22.6699 12C22.6699 6.47715 18.1928 2 12.6699 2C7.14707 2 2.66992 6.47715 2.66992 12C2.66992 17.5228 7.14707 22 12.6699 22Z" fill="#292D32"/>
<path d="M15.5699 7.59H9.97992L10.3899 7.17996C10.6799 6.88996 10.6799 6.40997 10.3899 6.11997C10.0999 5.82997 9.61993 5.82997 9.32993 6.11997L7.63993 7.80997C7.56993 7.87997 7.51992 7.95996 7.47992 8.04996C7.39992 8.22996 7.39992 8.43997 7.47992 8.61997C7.51992 8.70997 7.56993 8.78996 7.63993 8.85996L9.32993 10.55C9.47993 10.7 9.66993 10.77 9.85993 10.77C10.0499 10.77 10.2399 10.7 10.3899 10.55C10.6799 10.26 10.6799 9.77996 10.3899 9.48996L9.97992 9.07999H15.5699C16.0399 9.07999 16.4199 9.45996 16.4199 9.92996V11.7C16.4199 12.11 16.7599 12.45 17.1699 12.45C17.5799 12.45 17.9199 12.11 17.9199 11.7V9.92996C17.9199 8.64996 16.8599 7.59 15.5699 7.59Z" fill="#292D32"/>
<path d="M17.8599 15.3701C17.8199 15.2801 17.7699 15.2001 17.6999 15.1301L16.0099 13.4401C15.7199 13.1501 15.2399 13.1501 14.9499 13.4401C14.6599 13.7301 14.6599 14.2101 14.9499 14.5001L15.3599 14.91H9.76993C9.29993 14.91 8.91992 14.5301 8.91992 14.0601V12.29C8.91992 11.88 8.57992 11.54 8.16992 11.54C7.75992 11.54 7.41992 11.88 7.41992 12.29V14.0601C7.41992 15.3601 8.47993 16.41 9.76993 16.41H15.3599L14.9499 16.8201C14.6599 17.1101 14.6599 17.5901 14.9499 17.8801C15.0999 18.0301 15.2899 18.1 15.4799 18.1C15.6699 18.1 15.8599 18.0301 16.0099 17.8801L17.6999 16.1901C17.7699 16.1201 17.8199 16.0401 17.8599 15.9501C17.9399 15.7601 17.9399 15.5501 17.8599 15.3701Z" fill="#292D32"/>
</svg>
