<svg width="25" height="24" viewBox="0 0 25 24" fill="none" xmlns="http://www.w3.org/2000/svg">
<path opacity="0.4" d="M6.13965 9C8.07264 9 9.63965 7.433 9.63965 5.5C9.63965 3.567 8.07264 2 6.13965 2C4.20665 2 2.63965 3.567 2.63965 5.5C2.63965 7.433 4.20665 9 6.13965 9Z" fill="#292D32"/>
<path opacity="0.4" d="M17.6699 15H20.6699C21.7699 15 22.6699 15.9 22.6699 17V20C22.6699 21.1 21.7699 22 20.6699 22H17.6699C16.5699 22 15.6699 21.1 15.6699 20V17C15.6699 15.9 16.5699 15 17.6699 15Z" fill="#292D32"/>
<path d="M12.6704 19.75H9.99035C8.83035 19.75 7.82035 19.05 7.42035 17.97C7.01035 16.89 7.31035 15.7 8.18035 14.93L16.1704 7.94C16.6504 7.52 16.6604 6.95 16.5204 6.56C16.3704 6.17 15.9904 5.75 15.3504 5.75H12.6704C12.2604 5.75 11.9204 5.41 11.9204 5C11.9204 4.59 12.2604 4.25 12.6704 4.25H15.3504C16.5104 4.25 17.5204 4.95 17.9204 6.03C18.3304 7.11 18.0304 8.3 17.1604 9.07L9.17035 16.06C8.69035 16.48 8.68035 17.05 8.82035 17.44C8.97035 17.83 9.35035 18.25 9.99035 18.25H12.6704C13.0804 18.25 13.4204 18.59 13.4204 19C13.4204 19.41 13.0804 19.75 12.6704 19.75Z" fill="#292D32"/>
<path d="M19.1797 19.5C18.6297 19.5 18.1797 19.05 18.1797 18.5C18.1797 17.95 18.6197 17.5 19.1797 17.5H19.1897C19.7397 17.5 20.1897 17.95 20.1897 18.5C20.1897 19.05 19.7397 19.5 19.1797 19.5Z" fill="#292D32"/>
<path d="M6.17969 6.5C5.62969 6.5 5.17969 6.05 5.17969 5.5C5.17969 4.95 5.61969 4.5 6.17969 4.5H6.18969C6.73969 4.5 7.18969 4.95 7.18969 5.5C7.18969 6.05 6.73969 6.5 6.17969 6.5Z" fill="#292D32"/>
</svg>
