<svg width="25" height="24" viewBox="0 0 25 24" fill="none" xmlns="http://www.w3.org/2000/svg">
<path opacity="0.4" d="M16.6699 8.98987V20.3499C16.6699 21.7999 15.6299 22.4099 14.3599 21.7099L10.4299 19.5199C10.0099 19.2899 9.32991 19.2899 8.90991 19.5199L4.97992 21.7099C3.70992 22.4099 2.66992 21.7999 2.66992 20.3499V8.98987C2.66992 7.27987 4.06991 5.87988 5.77991 5.87988H13.5599C15.2699 5.87988 16.6699 7.27987 16.6699 8.98987Z" fill="#292D32"/>
<path d="M22.6699 5.10999V16.47C22.6699 17.92 21.6299 18.53 20.3599 17.83L16.6699 15.77V8.98999C16.6699 7.27999 15.2699 5.88 13.5599 5.88H8.66992V5.10999C8.66992 3.39999 10.0699 2 11.7799 2H19.5599C21.2699 2 22.6699 3.39999 22.6699 5.10999Z" fill="#292D32"/>
<path d="M11.6699 11.25H10.4199V10C10.4199 9.59 10.0799 9.25 9.66992 9.25C9.25992 9.25 8.91992 9.59 8.91992 10V11.25H7.66992C7.25992 11.25 6.91992 11.59 6.91992 12C6.91992 12.41 7.25992 12.75 7.66992 12.75H8.91992V14C8.91992 14.41 9.25992 14.75 9.66992 14.75C10.0799 14.75 10.4199 14.41 10.4199 14V12.75H11.6699C12.0799 12.75 12.4199 12.41 12.4199 12C12.4199 11.59 12.0799 11.25 11.6699 11.25Z" fill="#292D32"/>
</svg>
