<svg width="25" height="24" viewBox="0 0 25 24" fill="none" xmlns="http://www.w3.org/2000/svg">
<path opacity="0.4" d="M16.6699 8.98987V20.3499C16.6699 21.7999 15.6299 22.4099 14.3599 21.7099L10.4299 19.5199C10.0099 19.2899 9.32992 19.2899 8.90992 19.5199L4.97992 21.7099C3.70992 22.4099 2.66992 21.7999 2.66992 20.3499V8.98987C2.66992 7.27987 4.06992 5.87988 5.77992 5.87988H13.5599C15.2699 5.87988 16.6699 7.27987 16.6699 8.98987Z" fill="#292D32"/>
<path d="M10.7297 11.9998L11.6097 11.1198C11.8997 10.8298 11.8997 10.3498 11.6097 10.0598C11.3197 9.76979 10.8397 9.76979 10.5497 10.0598L9.66971 10.9398L8.78971 10.0598C8.49971 9.76979 8.01971 9.76979 7.72971 10.0598C7.43971 10.3498 7.43971 10.8298 7.72971 11.1198L8.60971 11.9998L7.72971 12.8798C7.43971 13.1698 7.43971 13.6498 7.72971 13.9398C7.87971 14.0898 8.06971 14.1598 8.25971 14.1598C8.44971 14.1598 8.63971 14.0898 8.78971 13.9398L9.66971 13.0598L10.5497 13.9398C10.6997 14.0898 10.8897 14.1598 11.0797 14.1598C11.2697 14.1598 11.4597 14.0898 11.6097 13.9398C11.8997 13.6498 11.8997 13.1698 11.6097 12.8798L10.7297 11.9998Z" fill="#292D32"/>
<path d="M22.6699 5.10999V16.47C22.6699 17.92 21.6299 18.53 20.3599 17.83L16.6699 15.77V8.98999C16.6699 7.27999 15.2699 5.88 13.5599 5.88H8.66992V5.10999C8.66992 3.39999 10.0699 2 11.7799 2H19.5599C21.2699 2 22.6699 3.39999 22.6699 5.10999Z" fill="#292D32"/>
</svg>
