<svg width="25" height="24" viewBox="0 0 25 24" fill="none" xmlns="http://www.w3.org/2000/svg">
<path d="M6.16992 10C8.10292 10 9.66992 8.433 9.66992 6.5C9.66992 4.567 8.10292 3 6.16992 3C4.23693 3 2.66992 4.567 2.66992 6.5C2.66992 8.433 4.23693 10 6.16992 10Z" fill="#292D32"/>
<path d="M6.16992 21C8.10292 21 9.66992 19.433 9.66992 17.5C9.66992 15.567 8.10292 14 6.16992 14C4.23693 14 2.66992 15.567 2.66992 17.5C2.66992 19.433 4.23693 21 6.16992 21Z" fill="#292D32"/>
<path opacity="0.4" d="M15.92 11.98L23.12 6.60003C23.45 6.35003 23.52 5.88003 23.27 5.55003C23.02 5.22003 22.55 5.15003 22.22 5.40003L14.67 11.05L9.12 6.90003C8.79 6.65003 8.31998 6.72003 8.06998 7.05003C7.81998 7.38003 7.88998 7.85003 8.21998 8.10003L13.42 11.99L7.52 16.41C7.19 16.66 7.12 17.13 7.37 17.46C7.52 17.66 7.73998 17.76 7.96998 17.76C8.12998 17.76 8.27999 17.71 8.41999 17.61L14.68 12.93L22.23 18.58C22.36 18.68 22.52 18.73 22.68 18.73C22.91 18.73 23.13 18.63 23.28 18.43C23.53 18.1 23.46 17.63 23.13 17.38L15.92 11.98Z" fill="#292D32"/>
</svg>
