<svg width="25" height="24" viewBox="0 0 25 24" fill="none" xmlns="http://www.w3.org/2000/svg">
<path opacity="0.4" d="M12.1699 21C17.4166 21 21.6699 16.7467 21.6699 11.5C21.6699 6.25329 17.4166 2 12.1699 2C6.92322 2 2.66992 6.25329 2.66992 11.5C2.66992 16.7467 6.92322 21 12.1699 21Z" fill="#292D32"/>
<path d="M21.9695 22.0001C21.7895 22.0001 21.6095 21.9301 21.4795 21.8001L19.6195 19.9401C19.3495 19.6701 19.3495 19.2301 19.6195 18.9501C19.8895 18.6801 20.3295 18.6801 20.6095 18.9501L22.4695 20.8101C22.7395 21.0801 22.7395 21.5201 22.4695 21.8001C22.3295 21.9301 22.1495 22.0001 21.9695 22.0001Z" fill="#292D32"/>
<path d="M13.9399 8.88995C13.3099 8.68995 12.6398 8.80995 12.1598 9.17995C11.6698 8.80995 11.0199 8.68995 10.3899 8.88995C9.02985 9.32995 8.59985 10.8799 8.97985 12.0599C9.55985 13.8699 11.4698 14.8099 12.1598 14.8099C12.8298 14.8099 14.7799 13.8499 15.3398 12.0599C15.7298 10.8799 15.2999 9.32995 13.9399 8.88995Z" fill="#292D32"/>
</svg>
