<svg width="25" height="24" viewBox="0 0 25 24" fill="none" xmlns="http://www.w3.org/2000/svg">
<path opacity="0.4" d="M12.1699 21C17.4166 21 21.6699 16.7467 21.6699 11.5C21.6699 6.25329 17.4166 2 12.1699 2C6.92322 2 2.66992 6.25329 2.66992 11.5C2.66992 16.7467 6.92322 21 12.1699 21Z" fill="#292D32"/>
<path d="M21.9695 22.0001C21.7895 22.0001 21.6095 21.9301 21.4795 21.8001L19.6195 19.9401C19.3495 19.6701 19.3495 19.2301 19.6195 18.9501C19.8895 18.6801 20.3295 18.6801 20.6095 18.9501L22.4695 20.8101C22.7395 21.0801 22.7395 21.5201 22.4695 21.8001C22.3295 21.9301 22.1495 22.0001 21.9695 22.0001Z" fill="#292D32"/>
<path d="M14.8701 10.9502H13.1201V9.2002C13.1201 8.7902 12.7801 8.4502 12.3701 8.4502C11.9601 8.4502 11.6201 8.7902 11.6201 9.2002V10.9502H9.87012C9.46012 10.9502 9.12012 11.2902 9.12012 11.7002C9.12012 12.1102 9.46012 12.4502 9.87012 12.4502H11.6201V14.2002C11.6201 14.6102 11.9601 14.9502 12.3701 14.9502C12.7801 14.9502 13.1201 14.6102 13.1201 14.2002V12.4502H14.8701C15.2801 12.4502 15.6201 12.1102 15.6201 11.7002C15.6201 11.2902 15.2801 10.9502 14.8701 10.9502Z" fill="#292D32"/>
</svg>
