<svg width="25" height="24" viewBox="0 0 25 24" fill="none" xmlns="http://www.w3.org/2000/svg">
<path opacity="0.4" d="M21.58 11.1198C21.58 16.0098 18.03 20.5898 13.18 21.9298C12.85 22.0198 12.49 22.0198 12.16 21.9298C7.31 20.5898 3.76001 16.0098 3.76001 11.1198V6.72982C3.76001 5.90982 4.38002 4.97982 5.15002 4.66982L10.72 2.38982C11.97 1.87982 13.38 1.87982 14.63 2.38982L20.2 4.66982C20.96 4.97982 21.59 5.90982 21.59 6.72982L21.58 11.1198Z" fill="#292D32"/>
<path d="M15.1699 10.5C15.1699 9.12 14.0499 8 12.6699 8C11.2899 8 10.1699 9.12 10.1699 10.5C10.1699 11.62 10.9099 12.55 11.9199 12.87V15.5C11.9199 15.91 12.2599 16.25 12.6699 16.25C13.0799 16.25 13.4199 15.91 13.4199 15.5V12.87C14.4299 12.55 15.1699 11.62 15.1699 10.5Z" fill="#292D32"/>
</svg>
