<svg width="25" height="24" viewBox="0 0 25 24" fill="none" xmlns="http://www.w3.org/2000/svg">
<path opacity="0.4" d="M11.1598 2.23006L6.16983 4.10007C5.01983 4.53007 4.07983 5.89006 4.07983 7.12006V14.5501C4.07983 15.7301 4.85984 17.2801 5.80984 17.9901L10.1098 21.2001C11.5198 22.2601 13.8398 22.2601 15.2498 21.2001L19.5498 17.9901C20.4998 17.2801 21.2798 15.7301 21.2798 14.5501V7.12006C21.2798 5.89006 20.3398 4.53007 19.1898 4.10007L14.1998 2.23006C13.3498 1.92006 11.9898 1.92006 11.1598 2.23006Z" fill="#292D32"/>
<path d="M12.5697 11.2998C12.5897 11.2998 12.6097 11.2998 12.6297 11.2998H12.6497H12.6697C13.8197 11.2598 14.7197 10.3298 14.7297 9.16978C14.7297 7.98978 13.7697 7.02979 12.5897 7.02979C11.4097 7.02979 10.4497 7.98978 10.4497 9.16978C10.4697 10.3198 11.3697 11.2598 12.5697 11.2998Z" fill="#292D32"/>
<path d="M14.8598 13.4096C13.6498 12.6096 11.6898 12.6096 10.4698 13.4096C9.90982 13.7896 9.57983 14.3296 9.57983 14.8896C9.57983 15.4596 9.89982 15.9796 10.4698 16.3596C11.0798 16.7596 11.8698 16.9696 12.6598 16.9696C13.4498 16.9696 14.2498 16.7696 14.8498 16.3596C15.4098 15.9796 15.7398 15.4396 15.7398 14.8796C15.7498 14.3096 15.4298 13.7896 14.8598 13.4096Z" fill="#292D32"/>
</svg>
