<svg width="25" height="24" viewBox="0 0 25 24" fill="none" xmlns="http://www.w3.org/2000/svg">
<path opacity="0.4" d="M11.6297 2.10989L6.12973 4.16989C5.07973 4.56989 4.21973 5.80989 4.21973 6.93989V15.0399C4.21973 15.8499 4.74973 16.9199 5.39973 17.3999L10.8997 21.5099C11.8697 22.2399 13.4597 22.2399 14.4297 21.5099L19.9297 17.3999C20.5797 16.9099 21.1097 15.8499 21.1097 15.0399V6.93989C21.1097 5.81989 20.2497 4.56988 19.1997 4.17988L13.6997 2.11989C13.1397 1.89989 12.1997 1.89989 11.6297 2.10989Z" fill="#292D32"/>
<path d="M12.6699 16.25C10.0499 16.25 7.91992 14.12 7.91992 11.5C7.91992 8.88 10.0499 6.75 12.6699 6.75C15.2899 6.75 17.4199 8.88 17.4199 11.5C17.4199 14.12 15.2899 16.25 12.6699 16.25ZM12.6699 8.25C10.8799 8.25 9.41992 9.71 9.41992 11.5C9.41992 13.29 10.8799 14.75 12.6699 14.75C14.4599 14.75 15.9199 13.29 15.9199 11.5C15.9199 9.71 14.4599 8.25 12.6699 8.25Z" fill="#292D32"/>
<path d="M11.6698 13.25C11.4198 13.25 11.1698 13.12 11.0298 12.89C10.8198 12.53 10.9298 12.07 11.2898 11.86L12.0498 11.4C12.1298 11.35 12.1698 11.27 12.1698 11.19V10.26C12.1698 9.85001 12.5098 9.51001 12.9198 9.51001C13.3298 9.51001 13.6698 9.84001 13.6698 10.25V11.18C13.6698 11.79 13.3398 12.37 12.8198 12.68L12.0498 13.14C11.9398 13.22 11.7998 13.25 11.6698 13.25Z" fill="#292D32"/>
</svg>
