<svg width="25" height="24" viewBox="0 0 25 24" fill="none" xmlns="http://www.w3.org/2000/svg">
<path opacity="0.4" d="M21.1701 22.7999H4.17012C3.77012 22.7999 3.37012 22.5 3.37012 22C3.37012 21.5 3.67012 21.2 4.17012 21.2H21.1701C21.5701 21.2 21.9701 21.5 21.9701 22C21.9701 22.5 21.5701 22.7999 21.1701 22.7999Z" fill="#292D32"/>
<path d="M19.6703 18.1999C19.4703 18.1999 19.2703 18.0999 19.1703 17.9999L5.17031 3.9999C4.87031 3.6999 4.87031 3.2999 5.17031 2.9999C5.47031 2.6999 5.97031 2.6999 6.27031 2.9999L20.2703 16.9999C20.5703 17.2999 20.5703 17.7999 20.2703 18.0999C20.0703 18.1999 19.8703 18.1999 19.6703 18.1999Z" fill="#292D32"/>
<path d="M5.67012 14.5C5.27012 14.5 4.87012 14.2 4.87012 13.7V3.49995C4.87012 3.09995 5.17012 2.69995 5.67012 2.69995H15.9701C16.3701 2.69995 16.7701 2.99995 16.7701 3.49995C16.7701 3.99995 16.4701 4.29995 15.9701 4.29995H6.47012V13.8C6.47012 14.2 6.07012 14.5 5.67012 14.5Z" fill="#292D32"/>
</svg>
