<svg width="25" height="24" viewBox="0 0 25 24" fill="none" xmlns="http://www.w3.org/2000/svg">
<path opacity="0.4" d="M7.78031 5.96L16.8003 2.95C20.8503 1.6 23.0503 3.81 21.7103 7.86L18.7003 16.88C16.6803 22.95 13.3603 22.95 11.3403 16.88L10.4503 14.2L7.77031 13.31C1.71031 11.3 1.71031 7.99 7.78031 5.96Z" fill="#292D32"/>
<path d="M12.79 11.63L16.6 7.81L12.79 11.63Z" fill="#292D32"/>
<path d="M12.7895 12.38C12.5995 12.38 12.4095 12.31 12.2595 12.16C11.9695 11.87 11.9695 11.39 12.2595 11.1L16.0595 7.28C16.3495 6.99 16.8295 6.99 17.1195 7.28C17.4095 7.57 17.4095 8.05 17.1195 8.34L13.3195 12.16C13.1695 12.3 12.9795 12.38 12.7895 12.38Z" fill="#292D32"/>
</svg>
