<svg width="25" height="24" viewBox="0 0 25 24" fill="none" xmlns="http://www.w3.org/2000/svg">
<path opacity="0.4" d="M11.6297 2.06008L6.12973 4.12008C5.07973 4.52008 4.21973 5.76008 4.21973 6.89008V14.9901C4.21973 15.8001 4.74973 16.8701 5.39973 17.3501L10.8997 21.4601C11.8697 22.1901 13.4597 22.1901 14.4297 21.4601L19.9297 17.3501C20.5797 16.8601 21.1097 15.8001 21.1097 14.9901V6.89008C21.1097 5.77008 20.2497 4.52008 19.1997 4.13008L13.6997 2.07008C13.1397 1.85008 12.1997 1.85008 11.6297 2.06008Z" fill="#292D32"/>
<path d="M11.3302 14.2301C11.1402 14.2301 10.9502 14.1601 10.8002 14.0101L9.19016 12.4001C8.90016 12.1101 8.90016 11.6301 9.19016 11.3401C9.48016 11.0501 9.96016 11.0501 10.2502 11.3401L11.3302 12.4201L15.1002 8.65012C15.3902 8.36012 15.8702 8.36012 16.1602 8.65012C16.4502 8.94012 16.4502 9.42012 16.1602 9.71012L11.8602 14.0101C11.7102 14.1601 11.5202 14.2301 11.3302 14.2301Z" fill="#292D32"/>
</svg>
