<svg width="25" height="24" viewBox="0 0 25 24" fill="none" xmlns="http://www.w3.org/2000/svg">
<path opacity="0.4" d="M10.6297 2.10989L5.12973 4.16989C4.07973 4.56989 3.21973 5.80989 3.21973 6.93989V15.0399C3.21973 15.8499 3.74973 16.9199 4.39973 17.3999L9.89973 21.5099C10.8697 22.2399 12.4597 22.2399 13.4297 21.5099L18.9297 17.3999C19.5797 16.9099 20.1097 15.8499 20.1097 15.0399V6.93989C20.1097 5.81989 19.2497 4.56988 18.1997 4.17988L12.6997 2.11989C12.1397 1.89989 11.1997 1.89989 10.6297 2.10989Z" fill="#292D32"/>
<path d="M16.6699 11.5098C14.1899 11.5098 12.1699 13.5298 12.1699 16.0098C12.1699 18.4898 14.1899 20.5098 16.6699 20.5098C19.1499 20.5098 21.1699 18.4898 21.1699 16.0098C21.1699 13.5198 19.1499 11.5098 16.6699 11.5098Z" fill="#292D32"/>
<path d="M21.6699 21.9999C21.3999 21.9999 21.1499 21.8899 20.9599 21.7099C20.9199 21.6599 20.8699 21.6099 20.8399 21.5499C20.7999 21.4999 20.7699 21.4399 20.7499 21.3799C20.7199 21.3199 20.6999 21.2599 20.6899 21.1999C20.6799 21.1299 20.6699 21.0699 20.6699 20.9999C20.6699 20.8699 20.6999 20.7399 20.7499 20.6199C20.7999 20.4899 20.8699 20.3899 20.9599 20.2899C21.1899 20.0599 21.5399 19.9499 21.8599 20.0199C21.9299 20.0299 21.9899 20.0499 22.0499 20.0799C22.1099 20.0999 22.1699 20.1299 22.2199 20.1699C22.2799 20.1999 22.3299 20.2499 22.3799 20.2899C22.4699 20.3899 22.5399 20.4899 22.5899 20.6199C22.6399 20.7399 22.6699 20.8699 22.6699 20.9999C22.6699 21.2599 22.5599 21.5199 22.3799 21.7099C22.3299 21.7499 22.2799 21.7899 22.2199 21.8299C22.1699 21.8699 22.1099 21.8999 22.0499 21.9199C21.9899 21.9499 21.9299 21.9699 21.8599 21.9799C21.7999 21.9899 21.7299 21.9999 21.6699 21.9999Z" fill="#292D32"/>
</svg>
