<svg width="25" height="24" viewBox="0 0 25 24" fill="none" xmlns="http://www.w3.org/2000/svg">
<path d="M22.2997 14.6601L21.8897 16.5201C21.1797 19.72 18.6697 22.0001 15.0497 22.0001H10.2897C6.66966 22.0001 4.15966 19.72 3.44966 16.5201L3.03966 14.6601C2.83966 13.7501 3.37965 12.7201 4.24965 12.3701L5.66967 11.8L11.1797 9.59006C11.6597 9.40006 12.1697 9.30005 12.6697 9.30005C13.1697 9.30005 13.6797 9.40006 14.1597 9.59006L19.6697 11.8L21.0897 12.3701C21.9597 12.7201 22.4997 13.7501 22.2997 14.6601Z" fill="#292D32"/>
<path opacity="0.4" d="M19.6699 8V11.8L14.1599 9.59C13.1999 9.21 12.1399 9.21 11.1799 9.59L5.66992 11.8V8C5.66992 6.35 7.01992 5 8.66992 5H16.6699C18.3199 5 19.6699 6.35 19.6699 8Z" fill="#292D32"/>
<path d="M15.1699 5H10.1699V3C10.1699 2.45 10.6199 2 11.1699 2H14.1699C14.7199 2 15.1699 2.45 15.1699 3V5Z" fill="#292D32"/>
</svg>
