<svg width="25" height="24" viewBox="0 0 25 24" fill="none" xmlns="http://www.w3.org/2000/svg">
<path opacity="0.4" d="M22.0398 11.3899V17.3799C22.0398 20.1399 19.7998 22.3799 17.0398 22.3799H8.2998C5.5398 22.3799 3.2998 20.1399 3.2998 17.3799V11.4599C4.0598 12.2799 5.1398 12.7499 6.3098 12.7499C7.5698 12.7499 8.7798 12.1199 9.5398 11.1099C10.2198 12.1199 11.3798 12.7499 12.6698 12.7499C13.9498 12.7499 15.0898 12.1499 15.7798 11.1499C16.5498 12.1399 17.7398 12.7499 18.9798 12.7499C20.1898 12.7499 21.2898 12.2599 22.0398 11.3899Z" fill="#292D32"/>
<path d="M15.6603 1.25H9.66026L8.92026 8.61C8.86026 9.29 8.96026 9.93 9.21026 10.51C9.79026 11.87 11.1503 12.75 12.6703 12.75C14.2103 12.75 15.5403 11.89 16.1403 10.52C16.3203 10.09 16.4303 9.59 16.4403 9.08V8.89L15.6603 1.25Z" fill="#292D32"/>
<path opacity="0.6" d="M23.0297 8.27L22.7397 5.5C22.3197 2.48 20.9497 1.25 18.0197 1.25H14.1797L14.9197 8.75C14.9297 8.85 14.9397 8.96 14.9397 9.15C14.9997 9.67 15.1597 10.15 15.3997 10.58C16.1197 11.9 17.5197 12.75 18.9797 12.75C20.3097 12.75 21.5097 12.16 22.2597 11.12C22.8597 10.32 23.1297 9.31 23.0297 8.27Z" fill="#292D32"/>
<path opacity="0.6" d="M7.25957 1.25C4.31957 1.25 2.95957 2.48 2.52957 5.53L2.25957 8.28C2.15957 9.35 2.44957 10.39 3.07957 11.2C3.83957 12.19 5.00957 12.75 6.30957 12.75C7.76957 12.75 9.16957 11.9 9.87957 10.6C10.1396 10.15 10.3096 9.63 10.3596 9.09L11.1396 1.26H7.25957V1.25Z" fill="#292D32"/>
<path d="M12.02 16.6602C10.75 16.7902 9.79004 17.8702 9.79004 19.1502V22.3802H15.54V19.5002C15.55 17.4102 14.32 16.4202 12.02 16.6602Z" fill="#292D32"/>
</svg>
