<svg width="25" height="24" viewBox="0 0 25 24" fill="none" xmlns="http://www.w3.org/2000/svg">
<path d="M8.59991 16.28C8.49991 16.17 8.3899 16.06 8.2699 15.97C7.5699 15.36 6.66992 15 5.66992 15C4.95992 15 4.2899 15.19 3.7099 15.52C3.5199 15.62 3.33992 15.74 3.16992 15.88C2.24992 16.61 1.66992 17.74 1.66992 19C1.66992 19.75 1.87994 20.46 2.24994 21.06C2.33994 21.22 2.44995 21.37 2.56995 21.51C2.58995 21.54 2.61989 21.56 2.63989 21.59C3.35989 22.45 4.44992 23 5.66992 23C6.67992 23 7.59993 22.63 8.29993 22C8.33993 21.97 8.3699 21.94 8.3999 21.9C8.6699 21.67 8.8999 21.38 9.0899 21.06C9.4599 20.46 9.66992 19.75 9.66992 19C9.66992 17.95 9.25991 17 8.59991 16.28ZM7.16992 19.73H4.17993C3.76993 19.73 3.42993 19.39 3.42993 18.98C3.42993 18.57 3.76993 18.23 4.17993 18.23H7.16992C7.57992 18.23 7.91992 18.57 7.91992 18.98C7.91992 19.39 7.57992 19.73 7.16992 19.73Z" fill="#292D32"/>
<path opacity="0.4" d="M21.7195 11.7102V17.7002C21.7195 20.4602 19.4795 22.7002 16.7195 22.7002H7.97949C7.74949 22.7002 7.5195 22.6802 7.2995 22.6502C7.6695 22.4902 7.9995 22.2702 8.2995 22.0002C8.3395 21.9702 8.36947 21.9402 8.39948 21.9002C8.66948 21.6702 8.89948 21.3802 9.08948 21.0602C9.45948 20.4602 9.66949 19.7502 9.66949 19.0002C9.66949 17.9502 9.25949 17.0002 8.59949 16.2802C8.49949 16.1702 8.38947 16.0602 8.26947 15.9702C7.56947 15.3602 6.66949 15.0002 5.66949 15.0002C4.95949 15.0002 4.28947 15.1902 3.70947 15.5202C3.51947 15.6202 3.33949 15.7402 3.16949 15.8802C3.09949 15.9302 3.03949 15.9902 2.97949 16.0502V11.7802C3.73949 12.6002 4.8195 13.0702 5.9895 13.0702C7.2495 13.0702 8.45948 12.4402 9.21948 11.4302C9.89948 12.4402 11.0595 13.0702 12.3495 13.0702C13.6295 13.0702 14.7695 12.4702 15.4595 11.4702C16.2295 12.4602 17.4195 13.0702 18.6595 13.0702C19.8695 13.0702 20.9695 12.5802 21.7195 11.7102Z" fill="#292D32"/>
<path d="M15.3399 1.56982H9.33994L8.59995 8.92981C8.53995 9.60981 8.63993 10.2498 8.88993 10.8298C9.46993 12.1898 10.83 13.0698 12.35 13.0698C13.89 13.0698 15.22 12.2098 15.82 10.8398C16 10.4098 16.11 9.90984 16.12 9.39984V9.20984L15.3399 1.56982Z" fill="#292D32"/>
<path opacity="0.6" d="M22.7101 8.59009L22.4301 5.81006C22.0101 2.79006 20.6401 1.56006 17.7101 1.56006H13.8701L14.6101 9.06006C14.6201 9.16006 14.6301 9.27008 14.6301 9.46008C14.6901 9.98008 14.8501 10.4601 15.0901 10.8901C15.8101 12.2101 17.2101 13.0601 18.6701 13.0601C20.0001 13.0601 21.2001 12.4701 21.9501 11.4301C22.5401 10.6401 22.8101 9.63009 22.7101 8.59009Z" fill="#292D32"/>
<path opacity="0.6" d="M6.94024 1.56982C4.00024 1.56982 2.64019 2.79979 2.21019 5.84979L1.94024 8.59979C1.84024 9.66979 2.13024 10.7098 2.76024 11.5198C3.52024 12.5098 4.69022 13.0698 5.99022 13.0698C7.45022 13.0698 8.85023 12.2198 9.56023 10.9198C9.82023 10.4698 9.99021 9.94979 10.0402 9.40979L10.8202 1.57983H6.94024V1.56982Z" fill="#292D32"/>
</svg>
