<svg width="25" height="24" viewBox="0 0 25 24" fill="none" xmlns="http://www.w3.org/2000/svg">
<path opacity="0.4" d="M2.66992 7.81V16.19C2.66992 19.83 4.83992 22 8.47992 22H16.8599C17.0599 22 17.2599 21.99 17.4499 21.98C18.6799 21.9 19.7199 21.55 20.5399 20.95C20.9599 20.66 21.3299 20.29 21.6199 19.87C22.3099 18.92 22.6699 17.68 22.6699 16.19V7.81C22.6699 4.37 20.7299 2.24 17.4499 2.03C17.2599 2.01 17.0599 2 16.8599 2H8.47992C6.98992 2 5.74992 2.36 4.79992 3.05C4.37992 3.34 4.00992 3.71 3.71992 4.13C3.02992 5.08 2.66992 6.32 2.66992 7.81Z" fill="#292D32"/>
<path d="M15.95 2V22H16.86C17.06 22 17.26 21.99 17.45 21.98V2.03C17.26 2.01 17.06 2 16.86 2H15.95Z" fill="#292D32"/>
<path d="M9.69989 15.3099C9.88989 15.3099 10.0799 15.2399 10.2299 15.0899L12.7899 12.5299C13.0799 12.2399 13.0799 11.7599 12.7899 11.4699L10.2299 8.90988C9.93989 8.61988 9.45989 8.61988 9.16989 8.90988C8.87989 9.19988 8.87989 9.67988 9.16989 9.96988L11.1899 11.9999L9.16989 14.0299C8.87989 14.3199 8.87989 14.7999 9.16989 15.0899C9.30989 15.2399 9.49989 15.3099 9.69989 15.3099Z" fill="#292D32"/>
</svg>
