<svg width="25" height="24" viewBox="0 0 25 24" fill="none" xmlns="http://www.w3.org/2000/svg">
<path d="M22.6396 5.5V9.5C22.6396 11.43 21.0696 13 19.1396 13H17.6396V12.25C17.6396 9.35 15.2896 7 12.3896 7H11.6396V5.5C11.6396 3.57 13.2096 2 15.1396 2H19.1396C21.0796 2 22.6396 3.57 22.6396 5.5Z" fill="#292D32"/>
<path opacity="0.4" d="M12.3896 7H11.6396H7.63965C4.87965 7 2.63965 9.24 2.63965 12V17C2.63965 19.76 4.87965 22 7.63965 22H12.6396C15.3996 22 17.6396 19.76 17.6396 17V13V12.25C17.6396 9.35 15.2896 7 12.3896 7Z" fill="#292D32"/>
</svg>
