<svg width="25" height="24" viewBox="0 0 25 24" fill="none" xmlns="http://www.w3.org/2000/svg">
<path d="M19.3801 9.49C19.2801 9.49 19.18 9.47 19.08 9.43C18.7 9.26 18.53 8.82001 18.69 8.44001C18.88 8.01001 18.77 7.37999 18.42 6.85999C18.07 6.32999 17.54 5.98 17.05 6C16.61 6 16.3 5.67001 16.29 5.26001C16.29 4.84001 16.62 4.51 17.03 4.5C18.06 4.48 19.03 5.07002 19.66 6.02002C20.3 6.98002 20.45 8.13003 20.06 9.03003C19.95 9.32003 19.6701 9.49 19.3801 9.49Z" fill="#292D32"/>
<path d="M22.4901 10.4801C22.4201 10.4801 22.3601 10.4701 22.2901 10.4501C21.8901 10.3401 21.6601 9.93011 21.7701 9.53011C22.1501 8.17011 21.8301 6.55009 20.9201 5.19009C20.0101 3.83009 18.6301 2.92008 17.2201 2.75008C16.8101 2.70008 16.5201 2.33007 16.5701 1.92007C16.6201 1.51007 17.0001 1.2101 17.4001 1.2701C19.2301 1.4901 21.0101 2.65008 22.1601 4.37008C23.3101 6.09008 23.7001 8.1701 23.2101 9.9501C23.1201 10.2601 22.8201 10.4801 22.4901 10.4801Z" fill="#292D32"/>
<path opacity="0.4" d="M18.1902 15.8401C18.0802 14.6201 17.7502 13.3101 15.3702 13.3101H5.9002C3.5202 13.3101 3.20021 14.6201 3.08021 15.8401L2.66021 20.36C2.61021 20.92 2.8002 21.49 3.1802 21.91C3.5702 22.34 4.13021 22.5901 4.72021 22.5901H6.11021C7.31021 22.5901 7.54021 21.9001 7.69021 21.4501L7.84021 21.0101C8.01021 20.5001 8.05021 20.3701 8.72021 20.3701H12.5202C13.1802 20.3701 13.2102 20.4401 13.4002 21.0101L13.5502 21.4601C13.7002 21.9101 13.9302 22.6 15.1302 22.6H16.5202C17.1102 22.6 17.6702 22.35 18.0602 21.92C18.4402 21.5 18.6302 20.9301 18.5802 20.3701L18.1902 15.8401Z" fill="#292D32"/>
<path d="M17.3201 11.09H16.5802C16.5702 11.09 16.5702 11.09 16.5602 11.09L16.2802 9.73999C16.0102 8.43999 15.4602 7.25 13.2502 7.25H11.2001H10.0901H8.04015C5.83015 7.25 5.27015 8.43999 5.01015 9.73999L4.73015 11.09C4.72015 11.09 4.72014 11.09 4.71014 11.09H3.97015C3.66015 11.09 3.41016 11.34 3.41016 11.65C3.41016 11.96 3.66015 12.21 3.97015 12.21H4.50015L4.19016 13.69C4.59016 13.46 5.15015 13.32 5.92015 13.32H15.3902C16.1602 13.32 16.7201 13.46 17.1201 13.69L16.8102 12.21H17.3401C17.6501 12.21 17.9001 11.96 17.9001 11.65C17.8801 11.34 17.6301 11.09 17.3201 11.09Z" fill="#292D32"/>
<path d="M8.41988 17.39H6.18988C5.87988 17.39 5.62988 17.14 5.62988 16.83C5.62988 16.52 5.87988 16.27 6.18988 16.27H8.41988C8.72988 16.27 8.97987 16.52 8.97987 16.83C8.96987 17.14 8.72988 17.39 8.41988 17.39Z" fill="#292D32"/>
<path d="M15.1005 17.39H12.8705C12.5605 17.39 12.3105 17.14 12.3105 16.83C12.3105 16.52 12.5605 16.27 12.8705 16.27H15.1005C15.4105 16.27 15.6606 16.52 15.6606 16.83C15.6506 17.14 15.4005 17.39 15.1005 17.39Z" fill="#292D32"/>
</svg>
