<svg width="25" height="24" viewBox="0 0 25 24" fill="none" xmlns="http://www.w3.org/2000/svg">
<path opacity="0.4" d="M7.66992 3H17.6699C20.6699 3 22.6699 4.5 22.6699 8V11.14C22.6699 11.87 21.9199 12.33 21.2499 12.04C20.1499 11.56 18.8999 11.38 17.5899 11.59C14.9699 12.02 12.8299 14.09 12.2999 16.69C12.1499 17.45 12.1299 18.19 12.2299 18.9C12.3099 19.49 11.8299 20.01 11.2399 20.01H7.66992C4.66992 20.01 2.66992 18.51 2.66992 15.01V8.01001C2.66992 4.50001 4.66992 3 7.66992 3Z" fill="#292D32"/>
<path d="M12.6697 11.87C11.8297 11.87 10.9797 11.61 10.3297 11.08L7.1997 8.57996C6.8797 8.31996 6.8197 7.84997 7.0797 7.52997C7.3397 7.20997 7.80969 7.14997 8.12969 7.40997L11.2597 9.90997C12.0197 10.52 13.3097 10.52 14.0697 9.90997L17.1997 7.40997C17.5197 7.14997 17.9997 7.19997 18.2497 7.52997C18.5097 7.84997 18.4597 8.32996 18.1297 8.57996L14.9997 11.08C14.3597 11.61 13.5097 11.87 12.6697 11.87Z" fill="#292D32"/>
<path d="M18.6699 13C15.9099 13 13.6699 15.23 13.6699 18C13.6699 20.76 15.9099 23 18.6699 23C21.4399 23 23.6699 20.76 23.6699 18C23.6699 15.23 21.4399 13 18.6699 13ZM20.7199 17.55L20.3499 17.91L18.1799 20.09C18.0799 20.18 17.8899 20.28 17.7499 20.3L16.7699 20.44C16.4199 20.49 16.1699 20.24 16.2199 19.89L16.3599 18.91C16.3799 18.77 16.4699 18.58 16.5699 18.48L18.7499 16.31L19.1099 15.94C19.3499 15.7 19.6199 15.54 19.8999 15.54C20.1399 15.54 20.4099 15.65 20.7099 15.94C21.3699 16.6 21.1599 17.11 20.7199 17.55Z" fill="#292D32"/>
</svg>
