<svg width="25" height="24" viewBox="0 0 25 24" fill="none" xmlns="http://www.w3.org/2000/svg">
<path d="M20.1699 8C21.5506 8 22.6699 6.88071 22.6699 5.5C22.6699 4.11929 21.5506 3 20.1699 3C18.7892 3 17.6699 4.11929 17.6699 5.5C17.6699 6.88071 18.7892 8 20.1699 8Z" fill="#292D32"/>
<path d="M20.1699 8C21.5506 8 22.6699 6.88071 22.6699 5.5C22.6699 4.11929 21.5506 3 20.1699 3C18.7892 3 17.6699 4.11929 17.6699 5.5C17.6699 6.88071 18.7892 8 20.1699 8Z" fill="#292D32"/>
<path opacity="0.4" d="M21.3899 9.31001C22.0199 9.11001 22.6699 9.60002 22.6699 10.27V15.51C22.6699 19.01 20.6699 20.51 17.6699 20.51H7.66992C4.66992 20.51 2.66992 19.01 2.66992 15.51V8.51001C2.66992 5.01001 4.66992 3.51001 7.66992 3.51001H15.2799C15.9299 3.51001 16.3699 4.11002 16.2499 4.74002C16.1299 5.33002 16.1499 5.96002 16.3299 6.61002C16.6999 7.95002 17.7899 9.02001 19.1299 9.37001C19.9199 9.57001 20.6899 9.53001 21.3899 9.31001Z" fill="#292D32"/>
<path d="M12.6697 12.87C11.8297 12.87 10.9797 12.61 10.3297 12.08L7.1997 9.58002C6.8797 9.32002 6.8197 8.85002 7.0797 8.53002C7.3397 8.21002 7.80969 8.15003 8.12969 8.41003L11.2597 10.91C12.0197 11.52 13.3097 11.52 14.0697 10.91L15.2497 9.97002C15.5697 9.71002 16.0497 9.76002 16.2997 10.09C16.5597 10.41 16.5097 10.89 16.1797 11.14L14.9997 12.08C14.3597 12.61 13.5097 12.87 12.6697 12.87Z" fill="#292D32"/>
</svg>
