<svg width="25" height="24" viewBox="0 0 25 24" fill="none" xmlns="http://www.w3.org/2000/svg">
<path opacity="0.4" d="M19.7701 20.3C19.5701 20.3 19.3701 20.2 19.2701 20.1C18.9701 19.8 18.9701 19.3 19.2701 19C20.9701 17.3 21.8701 15 21.8701 12.5C21.8701 7.4 17.7701 3.3 12.6701 3.3C7.57012 3.3 3.47012 7.4 3.47012 12.5C3.47012 14.9 4.37012 17.2 6.07012 19C6.37012 19.3 6.37012 19.8 6.07012 20.1C5.77012 20.4 5.27012 20.4 4.97012 20.1C2.97012 18.1 1.87012 15.4 1.87012 12.6C1.87012 6.6 6.77012 1.7 12.6701 1.7C18.5701 1.7 23.4701 6.5 23.4701 12.5C23.4701 15.3 22.3701 18 20.3701 20C20.1701 20.2 19.9701 20.3 19.7701 20.3Z" fill="#292D32"/>
<path d="M12.6695 22C14.8234 22 16.5695 20.2539 16.5695 18.1C16.5695 15.9461 14.8234 14.2 12.6695 14.2C10.5156 14.2 8.76953 15.9461 8.76953 18.1C8.76953 20.2539 10.5156 22 12.6695 22Z" fill="#292D32"/>
<path d="M16.6699 8.5C15.5699 8.5 14.6699 9.4 14.6699 10.5V11.3C14.6699 12 15.2699 12.5 15.8699 12.5H16.6699C17.7699 12.5 18.6699 11.6 18.6699 10.5C18.6699 9.4 17.7699 8.5 16.6699 8.5Z" fill="#292D32"/>
</svg>
