<svg width="25" height="24" viewBox="0 0 25 24" fill="none" xmlns="http://www.w3.org/2000/svg">
<path opacity="0.58" d="M24.6699 0H0.669922V24H24.6699V0Z" fill="white"/>
<path opacity="0.4" d="M12.6699 22C18.1928 22 22.6699 17.5228 22.6699 12C22.6699 6.47715 18.1928 2 12.6699 2C7.14707 2 2.66992 6.47715 2.66992 12C2.66992 17.5228 7.14707 22 12.6699 22Z" fill="#292D32"/>
<path d="M18.1497 11.42C17.9997 11.42 17.8497 11.37 17.7097 11.28C14.7297 9.14003 10.9097 8.67003 7.50966 10.03C7.11966 10.18 6.68965 9.99003 6.53965 9.61003C6.38965 9.23003 6.57965 8.79003 6.95965 8.64003C10.8397 7.10003 15.1897 7.63004 18.5897 10.07C18.9297 10.31 18.9997 10.78 18.7597 11.12C18.6197 11.31 18.3897 11.42 18.1497 11.42Z" fill="#292D32"/>
<path d="M16.5798 14.1101C16.4298 14.1101 16.2798 14.0601 16.1398 13.9701C14.0198 12.4501 11.3098 12.1201 8.87977 13.0801C8.49977 13.2301 8.05977 13.0401 7.90977 12.6601C7.75977 12.2701 7.94977 11.8401 8.32977 11.6901C11.2298 10.5401 14.4798 10.94 17.0098 12.76C17.3498 13 17.4198 13.47 17.1798 13.81C17.0398 14 16.8098 14.1101 16.5798 14.1101Z" fill="#292D32"/>
<path d="M15.4799 16.9001C15.3299 16.9001 15.1799 16.8501 15.0399 16.7601C13.4999 15.6601 11.5299 15.4201 9.76991 16.1101C9.38991 16.2601 8.94991 16.0701 8.79991 15.6901C8.64991 15.3001 8.83991 14.8701 9.21991 14.7201C11.4599 13.8301 13.9599 14.1401 15.9099 15.5401C16.2499 15.7801 16.3199 16.2501 16.0799 16.5901C15.9499 16.7901 15.7199 16.9001 15.4799 16.9001Z" fill="#292D32"/>
</svg>
