<svg width="25" height="24" viewBox="0 0 25 24" fill="none" xmlns="http://www.w3.org/2000/svg">
<path d="M16.0599 5.21L17.4699 8.03C17.6599 8.42 18.1699 8.79 18.5999 8.87L21.1499 9.29C22.7799 9.56 23.1599 10.74 21.9899 11.92L19.9999 13.91C19.6699 14.24 19.4799 14.89 19.5899 15.36L20.1599 17.82C20.6099 19.76 19.5699 20.52 17.8599 19.5L15.4699 18.08C15.0399 17.82 14.3199 17.82 13.8899 18.08L11.4999 19.5C9.78986 20.51 8.74987 19.76 9.19987 17.82L9.76988 15.36C9.87988 14.9 9.68987 14.25 9.35987 13.91L7.36988 11.92C6.19988 10.75 6.57988 9.57 8.20988 9.29L10.7599 8.87C11.1899 8.8 11.6999 8.42 11.8899 8.03L13.2999 5.21C14.0499 3.68 15.2899 3.68 16.0599 5.21Z" fill="#292D32"/>
<path opacity="0.4" d="M8.66992 5.75H2.66992C2.25992 5.75 1.91992 5.41 1.91992 5C1.91992 4.59 2.25992 4.25 2.66992 4.25H8.66992C9.07992 4.25 9.41992 4.59 9.41992 5C9.41992 5.41 9.07992 5.75 8.66992 5.75Z" fill="#292D32"/>
<path opacity="0.4" d="M5.66992 19.75H2.66992C2.25992 19.75 1.91992 19.41 1.91992 19C1.91992 18.59 2.25992 18.25 2.66992 18.25H5.66992C6.07992 18.25 6.41992 18.59 6.41992 19C6.41992 19.41 6.07992 19.75 5.66992 19.75Z" fill="#292D32"/>
<path opacity="0.4" d="M3.66992 12.75H2.66992C2.25992 12.75 1.91992 12.41 1.91992 12C1.91992 11.59 2.25992 11.25 2.66992 11.25H3.66992C4.07992 11.25 4.41992 11.59 4.41992 12C4.41992 12.41 4.07992 12.75 3.66992 12.75Z" fill="#292D32"/>
</svg>
