<svg width="25" height="24" viewBox="0 0 25 24" fill="none" xmlns="http://www.w3.org/2000/svg">
<path opacity="0.4" d="M16.8599 2H8.47992C4.83992 2 2.66992 4.17 2.66992 7.81V16.18C2.66992 19.83 4.83992 22 8.47992 22H16.8499C20.4899 22 22.6599 19.83 22.6599 16.19V7.81C22.6699 4.17 20.4999 2 16.8599 2Z" fill="#292D32"/>
<path d="M7.5498 18.9001C7.1398 18.9001 6.7998 18.5601 6.7998 18.1501V16.0801C6.7998 15.6701 7.1398 15.3301 7.5498 15.3301C7.9598 15.3301 8.2998 15.6701 8.2998 16.0801V18.1501C8.2998 18.5701 7.9598 18.9001 7.5498 18.9001Z" fill="#292D32"/>
<path d="M12.6699 18.9C12.2599 18.9 11.9199 18.56 11.9199 18.15V14C11.9199 13.59 12.2599 13.25 12.6699 13.25C13.0799 13.25 13.4199 13.59 13.4199 14V18.15C13.4199 18.57 13.0799 18.9 12.6699 18.9Z" fill="#292D32"/>
<path d="M17.79 18.9002C17.38 18.9002 17.04 18.5602 17.04 18.1502V11.9302C17.04 11.5202 17.38 11.1802 17.79 11.1802C18.2 11.1802 18.54 11.5202 18.54 11.9302V18.1502C18.54 18.5702 18.21 18.9002 17.79 18.9002Z" fill="#292D32"/>
<path d="M18.5399 5.8201C18.5399 5.7701 18.5199 5.7101 18.5099 5.6601C18.4999 5.6201 18.4899 5.5701 18.4799 5.5301C18.4599 5.4901 18.4299 5.4601 18.4099 5.4201C18.3799 5.3801 18.3499 5.3301 18.3099 5.3001C18.2999 5.2901 18.2999 5.2801 18.2899 5.2801C18.2599 5.2601 18.2299 5.2501 18.1999 5.2301C18.1599 5.2001 18.1099 5.1701 18.0599 5.1501C18.0099 5.1301 17.9599 5.1301 17.9099 5.1201C17.8699 5.1101 17.8399 5.1001 17.7999 5.1001H14.8699C14.4599 5.1001 14.1199 5.4401 14.1199 5.8501C14.1199 6.2601 14.4599 6.6001 14.8699 6.6001H16.1199C13.7399 9.1001 10.7399 10.8601 7.3699 11.7101C6.9699 11.8101 6.7199 12.2201 6.8199 12.6201C6.8999 12.9601 7.2099 13.1901 7.5499 13.1901C7.6099 13.1901 7.6699 13.1801 7.7299 13.1701C11.2999 12.2801 14.4899 10.4301 17.0399 7.8101V8.7801C17.0399 9.1901 17.3799 9.5301 17.7899 9.5301C18.1999 9.5301 18.5399 9.1901 18.5399 8.7801V5.8501C18.5399 5.8401 18.5399 5.8301 18.5399 5.8201Z" fill="#292D32"/>
</svg>
