<svg width="25" height="24" viewBox="0 0 25 24" fill="none" xmlns="http://www.w3.org/2000/svg">
<path opacity="0.4" d="M22.1699 8.37V15.82C22.1699 15.97 22.1199 16.12 21.9899 16.25C20.5399 17.71 17.9599 20.31 16.4799 21.8C16.3499 21.94 16.1799 22 16.0099 22H8.03992C5.34992 22 3.16992 19.82 3.16992 17.13V8.37C3.16992 5.68 5.34992 3.5 8.03992 3.5H17.2999C19.9899 3.5 22.1699 5.68 22.1699 8.37Z" fill="#292D32"/>
<path d="M8.95996 6.29C8.53996 6.29 8.20996 5.95 8.20996 5.54V2.75C8.20996 2.34 8.53996 2 8.95996 2C9.37996 2 9.70996 2.34 9.70996 2.75V5.53C9.70996 5.95 9.37996 6.29 8.95996 6.29Z" fill="#292D32"/>
<path d="M16.3799 6.29C15.9599 6.29 15.6299 5.95 15.6299 5.54V2.75C15.6299 2.33 15.9699 2 16.3799 2C16.7999 2 17.1299 2.34 17.1299 2.75V5.53C17.1299 5.95 16.7999 6.29 16.3799 6.29Z" fill="#292D32"/>
<path d="M15.4498 12.71H8.02979C7.60979 12.71 7.27979 12.37 7.27979 11.96C7.27979 11.55 7.61979 11.21 8.02979 11.21H15.4498C15.8698 11.21 16.1998 11.55 16.1998 11.96C16.1998 12.37 15.8698 12.71 15.4498 12.71Z" fill="#292D32"/>
<path d="M12.6698 16.42H8.02979C7.60979 16.42 7.27979 16.08 7.27979 15.67C7.27979 15.25 7.61979 14.92 8.02979 14.92H12.6698C13.0898 14.92 13.4198 15.26 13.4198 15.67C13.4198 16.08 13.0898 16.42 12.6698 16.42Z" fill="#292D32"/>
<path d="M22.1699 15.8201C22.1699 15.9701 22.1199 16.1201 21.9899 16.2501C20.5399 17.7101 17.9599 20.3101 16.4799 21.8001C16.3499 21.9401 16.1799 22.0001 16.0099 22.0001C15.6799 22.0001 15.3599 21.7401 15.3599 21.3601V17.8601C15.3599 16.4001 16.5999 15.1901 18.1199 15.1901C19.0699 15.1801 20.3899 15.1801 21.5199 15.1801C21.9099 15.1801 22.1699 15.4901 22.1699 15.8201Z" fill="#292D32"/>
</svg>
