<svg width="25" height="24" viewBox="0 0 25 24" fill="none" xmlns="http://www.w3.org/2000/svg">
<path d="M21.5699 7.66L20.7899 8.13L20.2999 8.43L19.3699 8.98L5.42992 17.34L5.33992 17.39L4.80992 17.71L4.19992 18.08C3.83992 17.19 3.66992 16.07 3.66992 14.7V9.3C3.66992 4.8 5.46992 3 9.96992 3H15.3699C19.2799 3 21.1499 4.36 21.5699 7.66Z" fill="#292D32"/>
<path opacity="0.4" d="M21.6704 9.20001V14.7C21.6704 19.2 19.8704 21 15.3704 21H9.97039C7.53039 21 5.88039 20.47 4.90039 19.26L5.20039 19.08L5.81039 18.71L6.34039 18.39L6.43039 18.34L20.3704 9.98001L21.3004 9.43001L21.6704 9.20001Z" fill="#292D32"/>
</svg>
