<svg width="25" height="24" viewBox="0 0 25 24" fill="none" xmlns="http://www.w3.org/2000/svg">
<path opacity="0.4" d="M10.9496 20.25H17.6696C20.4296 20.25 22.6696 18.01 22.6696 15.25V8.75C22.6696 5.99 20.4296 3.75 17.6696 3.75H10.9496C9.53961 3.75 8.19961 4.34 7.24961 5.39L3.71961 9.27C2.30961 10.82 2.30961 13.18 3.71961 14.73L7.24961 18.61C8.19961 19.66 9.53961 20.25 10.9496 20.25Z" fill="#292D32"/>
<path d="M15.2599 12L17.1999 10.06C17.4899 9.77 17.4899 9.29 17.1999 9C16.9099 8.71 16.4299 8.71 16.1399 9L14.1999 10.94L12.2599 9C11.9699 8.71 11.4899 8.71 11.1999 9C10.9099 9.29 10.9099 9.77 11.1999 10.06L13.1399 12L11.1999 13.94C10.9099 14.23 10.9099 14.71 11.1999 15C11.3499 15.15 11.5399 15.22 11.7299 15.22C11.9199 15.22 12.1099 15.15 12.2599 15L14.1999 13.06L16.1399 15C16.2899 15.15 16.4799 15.22 16.6699 15.22C16.8599 15.22 17.0499 15.15 17.1999 15C17.4899 14.71 17.4899 14.23 17.1999 13.94L15.2599 12Z" fill="#292D32"/>
</svg>
