<svg width="25" height="24" viewBox="0 0 25 24" fill="none" xmlns="http://www.w3.org/2000/svg">
<path opacity="0.4" d="M4.8403 15.3L9.3703 19.83C11.2303 21.6901 14.2503 21.6901 16.1203 19.83L20.5103 15.44C22.3703 13.58 22.3703 10.56 20.5103 8.69005L15.9703 4.17005C15.0203 3.22005 13.7103 2.71005 12.3703 2.78005L7.3703 3.02005C5.3703 3.11005 3.7803 4.70005 3.6803 6.69005L3.4403 11.69C3.3803 13.04 3.8903 14.35 4.8403 15.3Z" fill="#292D32"/>
<path d="M10.17 12.38C11.7606 12.38 13.05 11.0906 13.05 9.5C13.05 7.90942 11.7606 6.62 10.17 6.62C8.57946 6.62 7.29004 7.90942 7.29004 9.5C7.29004 11.0906 8.57946 12.38 10.17 12.38Z" fill="#292D32"/>
</svg>
