<svg width="25" height="24" viewBox="0 0 25 24" fill="none" xmlns="http://www.w3.org/2000/svg">
<path opacity="0.4" d="M19.05 12.8401V17.7701C19.05 19.0401 18.06 20.4001 16.87 20.8001L13.68 21.8601C13.12 22.0501 12.21 22.0501 11.66 21.8601L8.47004 20.8001C7.27004 20.4001 6.29004 19.0401 6.29004 17.7701L6.30004 12.8401L10.72 15.7201C11.8 16.4301 13.58 16.4301 14.66 15.7201L19.05 12.8401Z" fill="#292D32"/>
<path d="M20.6499 6.46006L14.6599 2.53006C13.5799 1.82006 11.7999 1.82006 10.7199 2.53006L4.69994 6.46006C2.76994 7.71006 2.76994 10.5401 4.69994 11.8001L6.29994 12.8401L10.7199 15.7201C11.7999 16.4301 13.5799 16.4301 14.6599 15.7201L19.0499 12.8401L20.4199 11.9401V15.0001C20.4199 15.4101 20.7599 15.7501 21.1699 15.7501C21.5799 15.7501 21.9199 15.4101 21.9199 15.0001V10.0801C22.3199 8.79006 21.9099 7.29006 20.6499 6.46006Z" fill="#292D32"/>
</svg>
