<svg width="25" height="24" viewBox="0 0 25 24" fill="none" xmlns="http://www.w3.org/2000/svg">
<path opacity="0.4" d="M16.8619 2H8.48187C4.84187 2 2.67188 4.17 2.67188 7.81V16.18C2.67188 19.83 4.84187 22 8.48187 22H16.8519C20.4919 22 22.6619 19.83 22.6619 16.19V7.81C22.6719 4.17 20.5019 2 16.8619 2Z" fill="#292D32"/>
<path d="M18.0121 8.21002C14.6721 6.54002 10.6821 6.54002 7.34213 8.21002C6.96213 8.40002 6.81213 8.85002 7.00213 9.22002C7.13213 9.48002 7.40213 9.63002 7.67213 9.63002C7.78213 9.63002 7.90213 9.60002 8.01213 9.55002C9.24213 8.94002 10.5721 8.60002 11.9221 8.50002V16.29C11.9221 16.7 12.2621 17.04 12.6721 17.04C13.0821 17.04 13.4221 16.7 13.4221 16.29V8.50002C14.7721 8.60002 16.1021 8.94002 17.3321 9.55002C17.7021 9.73002 18.1521 9.59002 18.3421 9.21002C18.5321 8.85002 18.3821 8.40002 18.0121 8.21002Z" fill="#292D32"/>
</svg>
