<svg width="25" height="24" viewBox="0 0 25 24" fill="none" xmlns="http://www.w3.org/2000/svg">
<path opacity="0.4" d="M22.6719 7.81V16.19C22.6719 19.83 20.5019 22 16.8619 22H8.48187C8.28188 22 8.08187 21.99 7.89187 21.98C6.66187 21.9 5.62188 21.55 4.80188 20.95C4.38188 20.66 4.01187 20.29 3.72187 19.87C3.03187 18.92 2.67188 17.68 2.67188 16.19V7.81C2.67188 4.37 4.61187 2.24 7.89187 2.03C8.08187 2.01 8.28188 2 8.48187 2H16.8619C18.3519 2 19.5919 2.36 20.5419 3.05C20.9619 3.34 21.3319 3.71 21.6219 4.13C22.3119 5.08 22.6719 6.32 22.6719 7.81Z" fill="#292D32"/>
<path d="M15.7019 11.49C16.3019 10.83 16.6719 9.96 16.6719 9C16.6719 6.93 14.9919 5.25 12.9219 5.25H9.68188C8.57188 5.25 7.67188 6.15 7.67188 7.26V16.74C7.67188 17.85 8.57188 18.75 9.68188 18.75H14.4219C16.4919 18.75 18.1719 17.07 18.1719 15C18.1719 13.38 17.1419 12.02 15.7019 11.49ZM9.17188 7.26C9.17188 6.98 9.40188 6.75 9.68188 6.75H12.9219C14.1619 6.75 15.1719 7.76 15.1719 9C15.1719 10.24 14.1619 11.25 12.9219 11.25H9.17188V7.26ZM14.4219 17.25H9.68188C9.40188 17.25 9.17188 17.02 9.17188 16.74V12.75H14.4219C15.6619 12.75 16.6719 13.76 16.6719 15C16.6719 16.24 15.6619 17.25 14.4219 17.25Z" fill="#292D32"/>
</svg>
