<svg width="25" height="24" viewBox="0 0 25 24" fill="none" xmlns="http://www.w3.org/2000/svg">
<path opacity="0.4" d="M21.9699 10.84C22.3599 10.84 22.6699 10.53 22.6699 10.14V9.20999C22.6699 5.10999 21.4199 3.85999 17.3199 3.85999H8.01992C3.91992 3.85999 2.66992 5.10999 2.66992 9.20999V9.67999C2.66992 10.07 2.97992 10.38 3.36992 10.38C4.26992 10.38 4.99992 11.11 4.99992 12.01C4.99992 12.91 4.26992 13.63 3.36992 13.63C2.97992 13.63 2.66992 13.94 2.66992 14.33V14.8C2.66992 18.9 3.91992 20.15 8.01992 20.15H17.3199C21.4199 20.15 22.6699 18.9 22.6699 14.8C22.6699 14.41 22.3599 14.1 21.9699 14.1C21.0699 14.1 20.3399 13.37 20.3399 12.47C20.3399 11.57 21.0699 10.84 21.9699 10.84Z" fill="#292D32"/>
<path d="M15.6702 15.88C15.1102 15.88 14.6602 15.43 14.6602 14.88C14.6602 14.33 15.1102 13.88 15.6602 13.88C16.2102 13.88 16.6602 14.33 16.6602 14.88C16.6602 15.43 16.2302 15.88 15.6702 15.88Z" fill="#292D32"/>
<path d="M9.67016 10.88C9.11016 10.88 8.66016 10.43 8.66016 9.88C8.66016 9.33 9.11016 8.88 9.66016 8.88C10.2102 8.88 10.6602 9.33 10.6602 9.88C10.6602 10.43 10.2302 10.88 9.67016 10.88Z" fill="#292D32"/>
<path d="M9.30023 16.43C9.11023 16.43 8.92023 16.36 8.77023 16.21C8.48023 15.92 8.48023 15.44 8.77023 15.15L15.5002 8.42001C15.7902 8.13001 16.2702 8.13001 16.5602 8.42001C16.8502 8.71001 16.8502 9.19001 16.5602 9.48001L9.83023 16.21C9.69023 16.36 9.49023 16.43 9.30023 16.43Z" fill="#292D32"/>
</svg>
