<svg width="25" height="24" viewBox="0 0 25 24" fill="none" xmlns="http://www.w3.org/2000/svg">
<path opacity="0.4" d="M22.6699 9.20999V14.79C22.6699 18.89 21.4199 20.14 17.3199 20.14H10.5799V17.12C10.5799 16.74 10.2599 16.42 9.87988 16.42V7.57999C10.2599 7.57999 10.5799 7.25999 10.5799 6.87999V3.85999H17.3199C21.4199 3.85999 22.6699 5.10999 22.6699 9.20999Z" fill="#292D32"/>
<path d="M19.1401 11.9C19.3101 11.74 19.3701 11.49 19.3001 11.27C19.2301 11.04 19.0401 10.88 18.8001 10.85L17.5201 10.66C17.4701 10.65 17.4301 10.62 17.4101 10.58L16.8401 9.41996C16.7401 9.20996 16.5201 9.07996 16.2901 9.07996C16.0501 9.07996 15.8401 9.20996 15.7301 9.41996L15.1601 10.58C15.1401 10.63 15.0901 10.66 15.0401 10.66L13.7601 10.85C13.5301 10.88 13.3301 11.05 13.2601 11.27C13.1901 11.5 13.2501 11.74 13.4201 11.9L14.3501 12.8C14.3901 12.83 14.4001 12.89 14.3901 12.94L14.1701 14.21C14.1301 14.44 14.2201 14.68 14.4201 14.81C14.5301 14.89 14.6501 14.93 14.7801 14.93C14.8801 14.93 14.9801 14.91 15.0701 14.86L16.2201 14.26C16.2601 14.24 16.3201 14.24 16.3601 14.26L17.5101 14.86C17.7201 14.97 17.9701 14.95 18.1601 14.81C18.3501 14.67 18.4501 14.44 18.4101 14.2L18.1901 12.93C18.1801 12.88 18.2001 12.83 18.2301 12.79L19.1401 11.9Z" fill="#292D32"/>
<path d="M9.87955 7.57999V16.42C9.49955 16.42 9.17955 16.74 9.17955 17.12V20.14H8.01955C4.06955 20.14 2.76955 18.96 2.67955 15.28C2.66955 15.09 2.74955 14.91 2.87955 14.78C3.00955 14.64 3.19955 14.57 3.37955 14.57C4.77955 14.57 5.92955 13.42 5.92955 12.01C5.92955 10.6 4.77955 9.43999 3.37955 9.43999C3.17955 9.43999 3.00955 9.36999 2.87955 9.22999C2.74955 9.09999 2.66955 8.90999 2.67955 8.72999C2.76955 5.03999 4.06955 3.85999 8.01955 3.85999H9.17955V6.87999C9.17955 7.26999 9.49955 7.57999 9.87955 7.57999Z" fill="#292D32"/>
</svg>
