<svg width="25" height="24" viewBox="0 0 25 24" fill="none" xmlns="http://www.w3.org/2000/svg">
<path opacity="0.4" d="M20.5202 12.9401C20.5202 13.7401 21.1702 14.4001 21.9702 14.4001C22.3502 14.4001 22.6702 14.7101 22.6702 15.0901C22.6702 18.9301 21.5102 20.0901 17.6702 20.0901H12.4202V18.5001C12.4202 18.1101 12.1202 17.7901 11.7402 17.7601V14.9101C12.1202 14.8801 12.4202 14.5601 12.4202 14.1701V9.83005C12.4202 9.44005 12.1202 9.12005 11.7402 9.09005V4.93005H17.6702C21.5102 4.93005 22.6702 6.09005 22.6702 9.93005V10.7801C22.6702 11.1701 22.3502 11.4801 21.9702 11.4801C21.1702 11.4801 20.5202 12.1301 20.5202 12.9401Z" fill="#292D32"/>
<path d="M11.74 9.09006C11.33 9.09006 10.92 9.42006 10.92 9.83006V14.1701C10.92 14.5801 11.26 14.9201 11.67 14.9201C11.69 14.9201 11.72 14.9201 11.74 14.9101V17.7601C11.72 17.7501 11.69 17.7501 11.67 17.7501C11.26 17.7501 10.92 18.0901 10.92 18.5001V20.0901H9.16001C7.28001 20.0901 6.31001 18.6801 5.43001 16.5501L5.26001 16.1301C5.12001 15.7701 5.29001 15.3601 5.65001 15.2201C6.02001 15.0801 6.31001 14.7901 6.46001 14.4101C6.62001 14.0401 6.62001 13.6301 6.47001 13.2601C6.15001 12.4901 5.27001 12.1201 4.49001 12.4301C4.32001 12.5101 4.12001 12.5101 3.95001 12.4301C3.78001 12.3601 3.65001 12.2201 3.57001 12.0401L3.42001 11.6401C1.93001 8.02006 2.58001 6.47006 6.20001 4.97006L8.65001 3.96006C9.01001 3.81006 9.42001 3.98006 9.56001 4.34006L11.74 9.09006Z" fill="#292D32"/>
</svg>
