<svg width="25" height="24" viewBox="0 0 25 24" fill="none" xmlns="http://www.w3.org/2000/svg">
<path opacity="0.4" d="M12.67 21.9999C17.4583 21.9999 21.34 18.1182 21.34 13.3299C21.34 8.5416 17.4583 4.65991 12.67 4.65991C7.88169 4.65991 4 8.5416 4 13.3299C4 18.1182 7.88169 21.9999 12.67 21.9999Z" fill="#292D32"/>
<path d="M12.6699 13.75C12.2599 13.75 11.9199 13.41 11.9199 13V8C11.9199 7.59 12.2599 7.25 12.6699 7.25C13.0799 7.25 13.4199 7.59 13.4199 8V13C13.4199 13.41 13.0799 13.75 12.6699 13.75Z" fill="#292D32"/>
<path d="M15.5596 3.45H9.77957C9.37957 3.45 9.05957 3.13 9.05957 2.73C9.05957 2.33 9.37957 2 9.77957 2H15.5596C15.9596 2 16.2796 2.32 16.2796 2.72C16.2796 3.12 15.9596 3.45 15.5596 3.45Z" fill="#292D32"/>
</svg>
