<svg width="25" height="24" viewBox="0 0 25 24" fill="none" xmlns="http://www.w3.org/2000/svg">
<path d="M15.6699 15.5C15.6699 19.09 12.7599 22 9.16992 22C5.57992 22 2.66992 19.09 2.66992 15.5C2.66992 11.91 5.57992 9 9.16992 9C9.33992 9 9.51991 9.01 9.68991 9.02C12.8599 9.27 15.3999 11.81 15.6499 14.98C15.6599 15.15 15.6699 15.33 15.6699 15.5Z" fill="#292D32"/>
<path opacity="0.4" d="M22.6699 8.5C22.6699 12.09 19.7599 15 16.1699 15C15.9999 15 15.8199 14.99 15.6499 14.98C15.3999 11.81 12.8599 9.27 9.68991 9.02C9.67991 8.85 9.66992 8.67 9.66992 8.5C9.66992 4.91 12.5799 2 16.1699 2C19.7599 2 22.6699 4.91 22.6699 8.5Z" fill="#292D32"/>
<path d="M6.25992 2H3.66992C3.11992 2 2.66992 2.45 2.66992 3V5.59C2.66992 6.48 3.74991 6.93 4.37991 6.3L6.96991 3.71001C7.58991 3.08001 7.14992 2 6.25992 2Z" fill="#292D32"/>
<path d="M19.0799 22H21.6699C22.2199 22 22.6699 21.55 22.6699 21V18.41C22.6699 17.52 21.5899 17.07 20.9599 17.7L18.3699 20.29C17.7499 20.92 18.1899 22 19.0799 22Z" fill="#292D32"/>
</svg>
