<svg width="25" height="24" viewBox="0 0 25 24" fill="none" xmlns="http://www.w3.org/2000/svg">
<path opacity="0.4" d="M17.5917 22C14.7917 22 12.5117 19.73 12.5117 16.92C12.5117 14.12 14.7817 11.84 17.5917 11.84C20.3917 11.84 22.6717 14.11 22.6717 16.92C22.6717 19.73 20.4017 22 17.5917 22Z" fill="#292D32"/>
<path opacity="0.4" d="M5.69188 2H9.61188C11.6819 2 12.6819 2.99999 12.6319 5.01999V8.94C12.6819 11.01 11.6819 12.01 9.61188 11.96H5.69188C3.67188 12 2.67188 11 2.67188 8.92999V5.01001C2.67188 3.00001 3.67188 2 5.69188 2Z" fill="#292D32"/>
<path d="M9.68156 8.26004C9.37156 8.26004 9.08157 8.14003 8.81157 7.94003C9.06157 7.54003 9.24157 7.09004 9.33157 6.60004H9.67157C10.0816 6.60004 10.4216 6.26004 10.4216 5.85004C10.4216 5.44004 10.0816 5.10004 9.67157 5.10004H8.68156C8.67156 5.10004 8.66158 5.10004 8.66158 5.10004H8.64157H8.38158C8.34158 4.72004 8.03157 4.42004 7.64157 4.42004C7.25157 4.42004 6.94157 4.72004 6.90157 5.10004H5.61157C5.20157 5.10004 4.86157 5.44004 4.86157 5.85004C4.86157 6.26004 5.20157 6.60004 5.61157 6.60004H7.78157C7.48157 7.56004 6.62156 8.26004 5.60156 8.26004C5.19156 8.26004 4.85156 8.60004 4.85156 9.01004C4.85156 9.42004 5.19156 9.76004 5.60156 9.76004C6.41156 9.76004 7.16157 9.49004 7.78157 9.04004C8.33157 9.50004 8.99157 9.76004 9.67157 9.76004C10.0816 9.76004 10.4216 9.42004 10.4216 9.01004C10.4216 8.60004 10.0916 8.26004 9.68156 8.26004Z" fill="#292D32"/>
<path d="M9.67188 22.75C5.40188 22.75 1.92188 19.27 1.92188 15C1.92188 14.59 2.26188 14.25 2.67188 14.25C3.08187 14.25 3.42188 14.59 3.42188 15C3.42188 17.96 5.48188 20.44 8.25188 21.09L7.98187 20.64C7.77187 20.28 7.88188 19.82 8.24188 19.61C8.59188 19.4 9.06188 19.51 9.27188 19.87L10.3219 21.62C10.4619 21.85 10.4619 22.14 10.3319 22.37C10.1919 22.6 9.94188 22.75 9.67188 22.75Z" fill="#292D32"/>
<path d="M22.6723 9.75C22.2623 9.75 21.9223 9.41 21.9223 9C21.9223 6.04 19.8623 3.56 17.0923 2.91L17.3623 3.35999C17.5723 3.71999 17.4623 4.18001 17.1023 4.39001C16.7523 4.60001 16.2823 4.49001 16.0723 4.13L15.0223 2.38C14.8823 2.15 14.8823 1.86 15.0123 1.63C15.1423 1.39 15.3923 1.25 15.6623 1.25C19.9323 1.25 23.4123 4.73 23.4123 9C23.4223 9.41 23.0823 9.75 22.6723 9.75Z" fill="#292D32"/>
<path d="M20.4014 18.33L18.2614 14.06C18.1314 13.81 17.8714 13.64 17.5914 13.64C17.3114 13.64 17.0514 13.8 16.9214 14.05L14.7814 18.32C14.5914 18.69 14.7414 19.14 15.1214 19.33C15.2314 19.38 15.3414 19.41 15.4514 19.41C15.7214 19.41 15.9914 19.26 16.1214 19L16.2914 18.66H18.8814L19.0514 19C19.2414 19.37 19.6914 19.52 20.0614 19.34C20.4414 19.15 20.5914 18.7 20.4014 18.33ZM17.0514 17.16L17.6014 16.07L18.1514 17.16H17.0514Z" fill="#292D32"/>
</svg>
