<svg width="25" height="24" viewBox="0 0 25 24" fill="none" xmlns="http://www.w3.org/2000/svg">
<path opacity="0.4" d="M7.40796 19.7C8.22796 18.82 9.47797 18.89 10.198 19.85L11.208 21.2C12.018 22.27 13.328 22.27 14.138 21.2L15.148 19.85C15.868 18.89 17.118 18.82 17.938 19.7C19.718 21.6 21.168 20.97 21.168 18.31V7.04C21.168 3.01 20.228 2 16.448 2H8.88797C5.10797 2 4.16797 3.01 4.16797 7.04V18.3C4.17797 20.97 5.63796 21.59 7.40796 19.7Z" fill="#292D32"/>
<path d="M15.4277 10.75H9.92773C9.51773 10.75 9.17773 10.41 9.17773 10C9.17773 9.59 9.51773 9.25 9.92773 9.25H15.4277C15.8377 9.25 16.1777 9.59 16.1777 10C16.1777 10.41 15.8377 10.75 15.4277 10.75Z" fill="#292D32"/>
</svg>
