<svg width="25" height="24" viewBox="0 0 25 24" fill="none" xmlns="http://www.w3.org/2000/svg">
<path d="M21.7396 5.23C20.1296 5.07 18.5196 4.95 16.8996 4.86V4.85L16.6796 3.55C16.5296 2.63 16.3096 1.25 13.9696 1.25H11.3496C9.01959 1.25 8.79959 2.57 8.63959 3.54L8.42959 4.82C7.49959 4.88 6.56959 4.94 5.63959 5.03L3.59959 5.23C3.17959 5.27 2.87959 5.64 2.91959 6.05C2.95959 6.46 3.31959 6.76 3.73959 6.72L5.77959 6.52C11.0196 6 16.2996 6.2 21.5996 6.73C21.6296 6.73 21.6496 6.73 21.6796 6.73C22.0596 6.73 22.3896 6.44 22.4296 6.05C22.4596 5.64 22.1596 5.27 21.7396 5.23Z" fill="#292D32"/>
<path opacity="0.3991" d="M19.8997 8.14C19.6597 7.89 19.3297 7.75 18.9897 7.75H6.34967C6.00967 7.75 5.66967 7.89 5.43967 8.14C5.20967 8.39 5.07967 8.73 5.09967 9.08L5.71967 19.34C5.82967 20.86 5.96967 22.76 9.45967 22.76H15.8797C19.3697 22.76 19.5097 20.87 19.6197 19.34L20.2397 9.09C20.2597 8.73 20.1297 8.39 19.8997 8.14Z" fill="#292D32"/>
<path fill-rule="evenodd" clip-rule="evenodd" d="M10.25 17C10.25 16.5858 10.5858 16.25 11 16.25H14.33C14.7442 16.25 15.08 16.5858 15.08 17C15.08 17.4142 14.7442 17.75 14.33 17.75H11C10.5858 17.75 10.25 17.4142 10.25 17Z" fill="#292D32"/>
<path fill-rule="evenodd" clip-rule="evenodd" d="M9.41992 13C9.41992 12.5858 9.75571 12.25 10.1699 12.25H15.1699C15.5841 12.25 15.9199 12.5858 15.9199 13C15.9199 13.4142 15.5841 13.75 15.1699 13.75H10.1699C9.75571 13.75 9.41992 13.4142 9.41992 13Z" fill="#292D32"/>
</svg>
