<svg width="25" height="24" viewBox="0 0 25 24" fill="none" xmlns="http://www.w3.org/2000/svg">
<path opacity="0.58" d="M24.6699 0H0.669922V24H24.6699V0Z" fill="white"/>
<path opacity="0.4" d="M16.8597 2H8.48969C4.84968 2 2.67969 4.17 2.67969 7.81V16.18C2.67969 19.82 4.84968 21.99 8.48969 21.99H16.8597C20.4997 21.99 22.6697 19.82 22.6697 16.18V7.81C22.6697 4.17 20.4997 2 16.8597 2Z" fill="#292D32"/>
<path d="M10.2198 17.72H7.76978C7.09978 17.72 6.5498 17.17 6.5498 16.5V7.52004C6.5498 6.85004 7.09978 6.30005 7.76978 6.30005H10.2198C10.8898 6.30005 11.4398 6.85004 11.4398 7.52004V16.5C11.4398 17.17 10.8898 17.72 10.2198 17.72Z" fill="#292D32"/>
<path d="M17.8097 13.63H14.8697C14.3297 13.63 13.8896 13.19 13.8896 12.65V7.26003C13.8896 6.72003 14.3297 6.28003 14.8697 6.28003H17.8097C18.3497 6.28003 18.7897 6.72003 18.7897 7.26003V12.65C18.7897 13.19 18.3497 13.63 17.8097 13.63Z" fill="#292D32"/>
</svg>
