<svg width="25" height="24" viewBox="0 0 25 24" fill="none" xmlns="http://www.w3.org/2000/svg">
<path opacity="0.4" d="M16.8599 2H8.47992C4.83992 2 2.66992 4.17 2.66992 7.81V16.18C2.66992 19.83 4.83992 22 8.47992 22H16.8499C20.4899 22 22.6599 19.83 22.6599 16.19V7.81C22.6699 4.17 20.4999 2 16.8599 2Z" fill="#292D32"/>
<path d="M17.5496 12.47C17.5496 12.08 17.2396 11.77 16.8496 11.77C16.4596 11.77 16.1496 12.08 16.1496 12.47V12.65L13.4296 9.93004C13.2796 9.78004 13.0796 9.71004 12.8696 9.73004C12.6596 9.75004 12.4696 9.86004 12.3596 10.04L11.3396 11.56L8.97961 9.18004C8.70961 8.91004 8.26961 8.91004 7.98961 9.18004C7.71961 9.45004 7.71961 9.89004 7.98961 10.17L10.9696 13.15C11.1196 13.3 11.3196 13.37 11.5296 13.35C11.7396 13.33 11.9296 13.22 12.0396 13.04L13.0596 11.52L15.1696 13.63H14.9896C14.5996 13.63 14.2896 13.94 14.2896 14.33C14.2896 14.72 14.5996 15.03 14.9896 15.03H16.8496C16.9396 15.03 17.0296 15.01 17.1196 14.98C17.2896 14.91 17.4296 14.77 17.4996 14.6C17.5396 14.51 17.5496 14.42 17.5496 14.33V12.47Z" fill="#292D32"/>
</svg>
