<svg width="25" height="24" viewBox="0 0 25 24" fill="none" xmlns="http://www.w3.org/2000/svg">
<path opacity="0.4" d="M16.8597 2H8.4897C4.8497 2 2.67969 4.17 2.67969 7.81V16.18C2.67969 19.82 4.8497 21.99 8.4897 21.99H16.8597C20.4997 21.99 22.6697 19.82 22.6697 16.18V7.81C22.6697 4.17 20.4997 2 16.8597 2Z" fill="#292D32"/>
<path d="M17.5297 8.46C16.6897 8.38 15.9197 8.33 15.1697 8.28L15.0897 7.8C15.0197 7.32 14.8697 6.33 13.3597 6.33H11.9697C10.4797 6.33 10.3197 7.28 10.2397 7.79L10.1597 8.26C9.72972 8.29 9.30972 8.31 8.87972 8.35L7.78971 8.46C7.40971 8.5 7.13971 8.83 7.17971 9.21C7.21971 9.56 7.50972 9.83 7.85972 9.83C7.87972 9.83 7.90971 9.83 7.92971 9.83L9.00971 9.72C9.60971 9.67 10.2197 9.62 10.8197 9.59C12.0397 9.54 13.2597 9.56 14.4897 9.62C15.3997 9.66 16.3497 9.73 17.3897 9.83C17.4097 9.83 17.4297 9.83 17.4497 9.83C17.7997 9.83 18.0997 9.56 18.1297 9.21C18.1797 8.83 17.9097 8.49 17.5297 8.46Z" fill="#292D32"/>
<path d="M16.5004 11.1C16.3304 10.91 16.0804 10.81 15.8304 10.81H9.51041C9.26041 10.81 9.01041 10.92 8.84041 11.1C8.67041 11.29 8.58041 11.54 8.60041 11.79L8.91042 15.75C8.97042 16.6 9.04041 17.66 10.9604 17.66H14.3804C16.3004 17.66 16.3704 16.6 16.4304 15.75L16.7404 11.79C16.7604 11.54 16.6704 11.29 16.5004 11.1Z" fill="#292D32"/>
</svg>
