<svg width="25" height="24" viewBox="0 0 25 24" fill="none" xmlns="http://www.w3.org/2000/svg">
<path opacity="0.58" d="M24.6699 0H0.669922V24H24.6699V0Z" fill="white"/>
<path opacity="0.4" fill-rule="evenodd" clip-rule="evenodd" d="M5.70969 2H21.1697C21.7197 2 22.1697 2.45 22.1697 3V13.59C22.1697 13.86 22.0597 14.11 21.8797 14.3L17.4697 18.71C17.2797 18.9 17.0297 19 16.7597 19H12.7097C12.3797 19 12.0597 19.17 11.8797 19.45L10.4697 21.56C10.2797 21.84 9.96969 22.01 9.63969 22.01H8.17969C7.62969 22.01 7.17969 21.56 7.17969 21.01V20.01C7.17969 19.46 6.72969 19.01 6.17969 19.01H4.17969C3.62969 19.01 3.17969 18.56 3.17969 18.01V5.31C3.17969 5.11 3.23969 4.91999 3.34969 4.75999L4.88969 2.46001C5.05969 2.17001 5.36969 2 5.70969 2Z" fill="#292D32"/>
<path fill-rule="evenodd" clip-rule="evenodd" d="M9.16992 7.14006V12.8501C9.16992 13.1701 9.42993 13.4201 9.73993 13.4201H10.8799C11.1999 13.4201 11.4499 13.1601 11.4499 12.8501V7.14006C11.4499 6.82006 11.1899 6.57007 10.8799 6.57007H9.73993C9.42993 6.57007 9.16992 6.83006 9.16992 7.14006Z" fill="#292D32"/>
<path fill-rule="evenodd" clip-rule="evenodd" d="M14.8799 7.14006V12.8501C14.8799 13.1701 15.1399 13.4201 15.4499 13.4201H16.5899C16.9099 13.4201 17.1599 13.1601 17.1599 12.8501V7.14006C17.1599 6.82006 16.8999 6.57007 16.5899 6.57007H15.4499C15.1399 6.57007 14.8799 6.83006 14.8799 7.14006Z" fill="#292D32"/>
</svg>
