<svg width="25" height="24" viewBox="0 0 25 24" fill="none" xmlns="http://www.w3.org/2000/svg">
<path opacity="0.58" d="M24.6699 0H0.669922V24H24.6699V0Z" fill="white"/>
<path opacity="0.4" d="M19.6699 9.87003V16.73C19.6699 17.51 19.2199 18.21 18.5199 18.54L12.0199 21.6C11.4799 21.85 10.8599 21.85 10.3199 21.6L3.81992 18.54C3.11992 18.21 2.66992 17.51 2.66992 16.73V9.27002C2.66992 8.49002 3.11992 7.79002 3.81992 7.46002L10.3199 4.40002C10.8599 4.15002 11.4799 4.15002 12.0199 4.40002L14.6899 5.66003C14.6699 5.77003 14.6699 5.89002 14.6699 6.00002C14.6699 8.21002 16.4599 10 18.6699 10C19.0199 10 19.3499 9.96003 19.6699 9.87003Z" fill="#292D32"/>
<path d="M9.66992 16.25C8.14992 16.25 6.91992 15.02 6.91992 13.5V10.5C6.91992 10.09 7.25992 9.75 7.66992 9.75C8.07992 9.75 8.41992 10.09 8.41992 10.5V13.5C8.41992 14.19 8.97992 14.75 9.66992 14.75C10.3599 14.75 10.9199 14.19 10.9199 13.5V10.5C10.9199 10.09 11.2599 9.75 11.6699 9.75C12.0799 9.75 12.4199 10.09 12.4199 10.5V13.5C12.4199 15.02 11.1899 16.25 9.66992 16.25Z" fill="#292D32"/>
<path d="M14.6699 16.19C14.2599 16.19 13.9199 15.85 13.9199 15.44V10.5C13.9199 10.09 14.2599 9.75 14.6699 9.75C15.0799 9.75 15.4199 10.09 15.4199 10.5V15.44C15.4199 15.86 15.0799 16.19 14.6699 16.19Z" fill="#292D32"/>
<path d="M18.6698 6.34C18.5298 6.34 18.0898 6.37 18.0898 6.79C18.0898 7.08 18.3098 7.25 18.6698 7.25C19.0298 7.25 19.2498 7.08 19.2498 6.79C19.2498 6.46 18.9498 6.34 18.6698 6.34Z" fill="#292D32"/>
<path d="M18.67 5.51001C18.94 5.51001 19.11 5.36 19.11 5.13C19.11 4.85 18.88 4.76001 18.67 4.76001C18.46 4.76001 18.23 4.86 18.23 5.13C18.23 5.36 18.4 5.51001 18.67 5.51001Z" fill="#292D32"/>
<path d="M18.6699 2C16.5699 2 14.8599 3.61 14.6899 5.66C14.6699 5.77 14.6699 5.89 14.6699 6C14.6699 8.21 16.4599 10 18.6699 10C19.0199 10 19.3499 9.96 19.6699 9.87C21.3999 9.43 22.6699 7.86 22.6699 6C22.6699 3.79 20.8799 2 18.6699 2ZM18.6699 8.2C17.6799 8.2 17.0699 7.7 17.0699 6.89C17.0699 6.5 17.2499 6.15 17.5699 5.91C17.3299 5.7 17.1999 5.41 17.1999 5.08C17.1999 4.31 17.7899 3.8 18.6599 3.8C19.5299 3.8 20.1199 4.32 20.1199 5.08C20.1199 5.41 19.9999 5.7 19.7499 5.91C20.0799 6.14 20.2599 6.49 20.2599 6.89C20.2699 7.7 19.6599 8.2 18.6699 8.2Z" fill="#292D32"/>
</svg>
