<svg width="25" height="24" viewBox="0 0 25 24" fill="none" xmlns="http://www.w3.org/2000/svg">
<path opacity="0.4" d="M8.47992 2H16.8499C20.4999 2 22.6699 4.17 22.6699 7.81V16.18C22.6699 19.82 20.4999 21.99 16.8599 21.99H8.47992C4.83992 22 2.66992 19.83 2.66992 16.19V7.81C2.66992 4.17 4.83992 2 8.47992 2Z" fill="#292D32"/>
<path d="M14.5899 8.98006H9.43986L9.76986 8.65006C10.0599 8.36006 10.0599 7.88006 9.76986 7.59006C9.47986 7.30006 8.99986 7.30006 8.70986 7.59006L7.13986 9.16006C6.84986 9.45006 6.84986 9.93006 7.13986 10.2201L8.70986 11.7901C8.85986 11.9401 9.04986 12.0101 9.23986 12.0101C9.42986 12.0101 9.61986 11.9401 9.76986 11.7901C10.0599 11.5001 10.0599 11.0201 9.76986 10.7301L9.50986 10.4701H14.5899C15.8699 10.4701 16.9199 11.5101 16.9199 12.8001C16.9199 14.0901 15.8799 15.1301 14.5899 15.1301H9.66986C9.25986 15.1301 8.91986 15.4701 8.91986 15.8801C8.91986 16.2901 9.25986 16.6301 9.66986 16.6301H14.5899C16.6999 16.6301 18.4199 14.9101 18.4199 12.8001C18.4199 10.6901 16.6999 8.98006 14.5899 8.98006Z" fill="#292D32"/>
</svg>
