<svg width="25" height="24" viewBox="0 0 25 24" fill="none" xmlns="http://www.w3.org/2000/svg">
<path opacity="0.4" d="M18.1202 17.2999C16.4402 17.2999 14.8902 16.5099 13.8802 15.1199C13.6402 14.7899 13.7102 14.3199 14.0402 14.0699C14.3702 13.8199 14.8402 13.8999 15.0902 14.2299C15.8202 15.2199 16.9202 15.7899 18.1202 15.7899C20.2102 15.7899 21.9202 14.0899 21.9202 11.9899C21.9202 9.8899 20.2202 8.18991 18.1202 8.18991C16.7002 8.18991 15.3602 8.94991 14.6302 10.1599L11.9802 14.5699C10.9802 16.2399 9.15017 17.2699 7.21017 17.2699C4.29017 17.2699 1.91016 14.8899 1.91016 11.9699C1.91016 9.04991 4.29017 6.66992 7.21017 6.66992C8.89017 6.66992 10.4402 7.45991 11.4502 8.84991C11.6902 9.17991 11.6202 9.6499 11.2902 9.8999C10.9502 10.1499 10.4902 10.0699 10.2402 9.7399C9.51017 8.7499 8.41017 8.1799 7.21017 8.1799C5.12017 8.1799 3.41016 9.87992 3.41016 11.9799C3.41016 14.0799 5.11017 15.7799 7.21017 15.7799C8.63017 15.7799 9.97017 15.0199 10.7002 13.8099L13.3502 9.3999C14.3502 7.7299 16.1802 6.69992 18.1202 6.69992C21.0402 6.69992 23.4202 9.07991 23.4202 11.9999C23.4202 14.9199 21.0402 17.2999 18.1202 17.2999Z" fill="#292D32"/>
<path d="M7.16992 14C8.27449 14 9.16992 13.1046 9.16992 12C9.16992 10.8954 8.27449 10 7.16992 10C6.06535 10 5.16992 10.8954 5.16992 12C5.16992 13.1046 6.06535 14 7.16992 14Z" fill="#292D32"/>
<path d="M18.1699 14C19.2745 14 20.1699 13.1046 20.1699 12C20.1699 10.8954 19.2745 10 18.1699 10C17.0654 10 16.1699 10.8954 16.1699 12C16.1699 13.1046 17.0654 14 18.1699 14Z" fill="#292D32"/>
</svg>
