<svg width="25" height="24" viewBox="0 0 25 24" fill="none" xmlns="http://www.w3.org/2000/svg">
<path d="M24.6699 0H0.669922V24H24.6699V0Z" fill="white"/>
<path opacity="0.4" d="M12.6699 22C18.1928 22 22.6699 17.5228 22.6699 12C22.6699 6.47715 18.1928 2 12.6699 2C7.14707 2 2.66992 6.47715 2.66992 12C2.66992 17.5228 7.14707 22 12.6699 22Z" fill="#292D32"/>
<path d="M17.6201 17.7C17.4301 17.7 17.2401 17.63 17.0901 17.48C16.8001 17.19 16.8001 16.71 17.0901 16.42C18.2701 15.24 18.92 13.67 18.92 12C18.92 10.33 18.2701 8.75999 17.0901 7.57999C16.8001 7.28999 16.8001 6.80999 17.0901 6.51999C17.3801 6.22999 17.8601 6.22999 18.1501 6.51999C19.6101 7.97999 20.42 9.92999 20.42 12C20.42 14.07 19.6101 16.02 18.1501 17.48C18.0001 17.63 17.8101 17.7 17.6201 17.7Z" fill="#292D32"/>
<path d="M7.71991 17.7C7.52991 17.7 7.33991 17.63 7.18991 17.48C5.72991 16.02 4.91992 14.07 4.91992 12C4.91992 9.92999 5.72991 7.97999 7.18991 6.51999C7.47991 6.22999 7.95991 6.22999 8.24991 6.51999C8.53991 6.80999 8.53991 7.28999 8.24991 7.57999C7.06991 8.75999 6.41992 10.33 6.41992 12C6.41992 13.67 7.06991 15.24 8.24991 16.42C8.53991 16.71 8.53991 17.19 8.24991 17.48C8.09991 17.63 7.90991 17.7 7.71991 17.7Z" fill="#292D32"/>
<path d="M14.3198 11.78L13.4198 11.46V9.48005H13.4498C13.8898 9.48005 14.2598 9.88005 14.2598 10.36C14.2598 10.77 14.5998 11.11 15.0098 11.11C15.4198 11.11 15.7598 10.77 15.7598 10.36C15.7598 9.05005 14.7298 7.98005 13.4498 7.98005H13.4198V7.80005C13.4198 7.39005 13.0798 7.05005 12.6698 7.05005C12.2598 7.05005 11.9198 7.39005 11.9198 7.80005V7.98005H11.6898C10.5298 7.98005 9.57983 8.96005 9.57983 10.15C9.57983 11.2 10.0498 11.87 11.0098 12.21L11.9098 12.53V14.51H11.8798C11.4398 14.51 11.0698 14.11 11.0698 13.63C11.0698 13.22 10.7298 12.88 10.3198 12.88C9.90982 12.88 9.56982 13.22 9.56982 13.63C9.56982 14.94 10.5998 16.01 11.8798 16.01H11.9098V16.19C11.9098 16.6 12.2498 16.94 12.6598 16.94C13.0698 16.94 13.4098 16.6 13.4098 16.19V16.01H13.6398C14.7998 16.01 15.7498 15.03 15.7498 13.84C15.7498 12.79 15.2898 12.12 14.3198 11.78ZM11.5098 10.8C11.1898 10.69 11.0798 10.63 11.0798 10.16C11.0798 9.79005 11.3498 9.49005 11.6898 9.49005H11.9198V10.95L11.5098 10.8ZM13.6498 14.52H13.4198V13.06L13.8298 13.2C14.1498 13.31 14.2598 13.37 14.2598 13.84C14.2498 14.21 13.9798 14.52 13.6498 14.52Z" fill="#292D32"/>
</svg>
