<svg width="25" height="24" viewBox="0 0 25 24" fill="none" xmlns="http://www.w3.org/2000/svg">
<path opacity="0.4" d="M21.7601 21.5C21.7601 21.78 21.5401 22 21.2601 22H4.08008C3.80008 22 3.58008 21.78 3.58008 21.5C3.58008 17.36 7.66007 14 12.6701 14C13.7001 14 14.7001 14.14 15.6201 14.41C15.0301 15.11 14.6701 16.02 14.6701 17C14.6701 17.75 14.8801 18.46 15.2501 19.06C15.4501 19.4 15.7101 19.71 16.0101 19.97C16.7101 20.61 17.6401 21 18.6701 21C19.7901 21 20.8001 20.54 21.5201 19.8C21.6801 20.34 21.7601 20.91 21.7601 21.5Z" fill="#292D32"/>
<path d="M22.5502 16.04C22.4502 15.65 22.2901 15.26 22.0701 14.91C21.9201 14.65 21.7201 14.4 21.5001 14.17C20.7801 13.45 19.8401 13.06 18.8801 13.01C17.7901 12.94 16.6802 13.34 15.8402 14.17C15.0502 14.96 14.6501 16.01 14.6701 17.06C14.6801 18.06 15.0802 19.06 15.8402 19.83C16.3702 20.36 17.0202 20.71 17.7102 20.87C18.0902 20.97 18.4901 21.01 18.8901 20.98C19.8401 20.94 20.7701 20.56 21.5001 19.83C22.5301 18.8 22.8802 17.35 22.5502 16.04ZM20.2702 18.6C19.9802 18.89 19.5002 18.89 19.2102 18.6L18.6601 18.05L18.1301 18.58C17.8401 18.87 17.3601 18.87 17.0701 18.58C16.7801 18.28 16.7801 17.81 17.0701 17.52L17.6001 16.99L17.0902 16.49C16.8002 16.19 16.8002 15.72 17.0902 15.42C17.3902 15.13 17.8601 15.13 18.1601 15.42L18.6601 15.93L19.1901 15.4C19.4801 15.11 19.9501 15.11 20.2501 15.4C20.5401 15.69 20.5401 16.17 20.2501 16.46L19.7201 16.99L20.2702 17.54C20.5602 17.83 20.5602 18.31 20.2702 18.6Z" fill="#292D32"/>
<path d="M12.6699 12C15.4313 12 17.6699 9.76142 17.6699 7C17.6699 4.23858 15.4313 2 12.6699 2C9.9085 2 7.66992 4.23858 7.66992 7C7.66992 9.76142 9.9085 12 12.6699 12Z" fill="#292D32"/>
</svg>
