<svg width="25" height="24" viewBox="0 0 25 24" fill="none" xmlns="http://www.w3.org/2000/svg">
<path opacity="0.4" d="M22.6699 7.81V16.19C22.6699 19 21.3799 20.93 19.1099 21.66C18.4499 21.89 17.6899 22 16.8599 22H8.47992C7.64992 22 6.88992 21.89 6.22992 21.66C3.95992 20.93 2.66992 19 2.66992 16.19V7.81C2.66992 4.17 4.83992 2 8.47992 2H16.8599C20.4999 2 22.6699 4.17 22.6699 7.81Z" fill="#292D32"/>
<path d="M19.11 21.66C18.45 21.89 17.69 22 16.86 22H8.47998C7.64998 22 6.88998 21.89 6.22998 21.66C6.57998 19.02 9.33998 16.97 12.67 16.97C16 16.97 18.76 19.02 19.11 21.66Z" fill="#292D32"/>
<path d="M16.2498 11.58C16.2498 13.56 14.6498 15.17 12.6698 15.17C10.6898 15.17 9.08984 13.56 9.08984 11.58C9.08984 9.60002 10.6898 8 12.6698 8C14.6498 8 16.2498 9.60002 16.2498 11.58Z" fill="#292D32"/>
</svg>
