<svg width="25" height="24" viewBox="0 0 25 24" fill="none" xmlns="http://www.w3.org/2000/svg">
<path opacity="0.4" d="M21.7501 8.58003V15.42C21.7501 16.54 21.1501 17.58 20.1801 18.15L14.2401 21.58C13.2701 22.14 12.0701 22.14 11.0901 21.58L5.15008 18.15C4.18008 17.59 3.58008 16.55 3.58008 15.42V8.58003C3.58008 7.46003 4.18008 6.41999 5.15008 5.84999L11.0901 2.42C12.0601 1.86 13.2601 1.86 14.2401 2.42L20.1801 5.84999C21.1501 6.41999 21.7501 7.45003 21.7501 8.58003Z" fill="#292D32"/>
<path d="M12.6698 12.0001C13.9567 12.0001 14.9998 10.9569 14.9998 9.67004C14.9998 8.38322 13.9567 7.34009 12.6698 7.34009C11.383 7.34009 10.3398 8.38322 10.3398 9.67004C10.3398 10.9569 11.383 12.0001 12.6698 12.0001Z" fill="#292D32"/>
<path d="M15.3501 16.6601C16.1601 16.6601 16.6301 15.7601 16.1801 15.0901C15.5001 14.0801 14.1801 13.4001 12.6701 13.4001C11.1601 13.4001 9.84008 14.0801 9.16008 15.0901C8.71008 15.7601 9.18008 16.6601 9.99008 16.6601H15.3501Z" fill="#292D32"/>
</svg>
