<svg width="25" height="24" viewBox="0 0 25 24" fill="none" xmlns="http://www.w3.org/2000/svg">
<path opacity="0.4" d="M11.4198 2.45001C12.1098 1.86001 13.2398 1.86001 13.9398 2.45001L15.5198 3.81001C15.8198 4.07001 16.3798 4.28001 16.7798 4.28001H18.4798C19.5398 4.28001 20.4098 5.15001 20.4098 6.21001V7.91001C20.4098 8.30001 20.6198 8.87001 20.8798 9.17001L22.2398 10.75C22.8298 11.44 22.8298 12.57 22.2398 13.27L20.8798 14.85C20.6198 15.15 20.4098 15.71 20.4098 16.11V17.81C20.4098 18.87 19.5398 19.74 18.4798 19.74H16.7798C16.3898 19.74 15.8198 19.95 15.5198 20.21L13.9398 21.57C13.2498 22.16 12.1198 22.16 11.4198 21.57L9.8398 20.21C9.5398 19.95 8.9798 19.74 8.5798 19.74H6.8498C5.7898 19.74 4.9198 18.87 4.9198 17.81V16.1C4.9198 15.71 4.7098 15.15 4.4598 14.85L3.1098 13.26C2.5298 12.57 2.5298 11.45 3.1098 10.76L4.4598 9.17001C4.7098 8.87001 4.9198 8.31001 4.9198 7.92001V6.20001C4.9198 5.14001 5.7898 4.27001 6.8498 4.27001H8.5798C8.9698 4.27001 9.5398 4.06001 9.8398 3.80001L11.4198 2.45001Z" fill="#292D32"/>
<path d="M11.4595 15.17C11.2595 15.17 11.0695 15.09 10.9295 14.95L8.50949 12.53C8.21949 12.24 8.21949 11.76 8.50949 11.47C8.79949 11.18 9.27949 11.18 9.56949 11.47L11.4595 13.36L15.7595 9.06C16.0495 8.77 16.5295 8.77 16.8195 9.06C17.1095 9.35 17.1095 9.83 16.8195 10.12L11.9895 14.95C11.8495 15.09 11.6595 15.17 11.4595 15.17Z" fill="#292D32"/>
</svg>
