<svg width="25" height="24" viewBox="0 0 25 24" fill="none" xmlns="http://www.w3.org/2000/svg">
<path d="M22.6499 15.67C22.6099 15.61 22.5599 15.55 22.5099 15.5C21.6999 14.57 20.4999 14 19.1699 14C17.9099 14 16.7599 14.52 15.9399 15.36C15.1499 16.17 14.6699 17.28 14.6699 18.5C14.6699 19.34 14.9099 20.14 15.3199 20.82C15.5499 21.2 15.8399 21.55 16.1799 21.84C16.2299 21.89 16.2799 21.93 16.3399 21.98C16.3399 21.98 16.3399 21.98 16.3499 21.98C17.1099 22.62 18.0899 23 19.1699 23C20.8099 23 22.2399 22.12 23.0199 20.82C23.2499 20.43 23.4299 20 23.5399 19.55C23.6299 19.21 23.6699 18.86 23.6699 18.5C23.6699 17.43 23.2899 16.44 22.6499 15.67ZM20.8999 20.21C20.7499 20.36 20.5599 20.43 20.3699 20.43C20.1799 20.43 19.9899 20.36 19.8399 20.21L19.1799 19.55L18.4899 20.24C18.3399 20.39 18.1499 20.46 17.9599 20.46C17.7699 20.46 17.5799 20.39 17.4299 20.24C17.1399 19.95 17.1399 19.47 17.4299 19.18L18.1199 18.49L17.4599 17.83C17.1699 17.54 17.1699 17.06 17.4599 16.77C17.7499 16.48 18.2299 16.48 18.5199 16.77L19.1799 17.43L19.8099 16.8C20.0999 16.51 20.5799 16.51 20.8699 16.8C21.1599 17.09 21.1599 17.57 20.8699 17.86L20.2399 18.49L20.8999 19.15C21.1999 19.44 21.1999 19.91 20.8999 20.21Z" fill="#292D32"/>
<path opacity="0.4" d="M22.6699 7.81V15.7C22.6699 15.69 22.6599 15.68 22.6499 15.67C22.6099 15.61 22.5599 15.55 22.5099 15.5C22.4999 15.49 22.4899 15.47 22.4799 15.46C21.6699 14.56 20.4799 14 19.1699 14C17.9099 14 16.7599 14.52 15.9399 15.36C15.1499 16.17 14.6699 17.28 14.6699 18.5C14.6699 19.34 14.9099 20.14 15.3199 20.82C15.5399 21.19 15.8199 21.53 16.1399 21.81C16.1599 21.82 16.1699 21.83 16.1799 21.84C16.2299 21.89 16.2799 21.93 16.3399 21.98C16.3399 21.98 16.3399 21.98 16.3499 21.98C16.3599 21.99 16.3699 22 16.3799 22H8.47992C4.83992 22 2.66992 19.83 2.66992 16.19V7.81C2.66992 7.3 2.70993 6.80999 2.79993 6.35999C3.30993 3.60999 5.33993 2.01 8.43993 2H16.8999C19.9999 2.01 22.0299 3.60999 22.5399 6.35999C22.6299 6.80999 22.6699 7.3 22.6699 7.81Z" fill="#292D32"/>
<path d="M22.6699 7.81V7.85999H2.66992V7.81C2.66992 7.3 2.70993 6.80999 2.79993 6.35999H8.43993V2H9.93993V6.35999H15.3999V2H16.8999V6.35999H22.5399C22.6299 6.80999 22.6699 7.3 22.6699 7.81Z" fill="#292D32"/>
</svg>
