<svg width="25" height="24" viewBox="0 0 25 24" fill="none" xmlns="http://www.w3.org/2000/svg">
<path opacity="0.4" d="M8.47992 2H16.8599C16.9199 2 16.9799 2 17.0299 2.01C17.5699 2.01 18.0699 2.07 18.5299 2.18C20.6899 2.65 22.0899 4.09 22.5199 6.28C22.6199 6.75 22.6699 7.25 22.6699 7.78V16.28C22.6599 16.81 22.6099 17.31 22.5099 17.78C22.0699 19.93 20.6699 21.35 18.5299 21.82C18.0699 21.93 17.5699 21.99 17.0299 21.99C16.9799 22 16.9199 22 16.8599 22H8.47992C7.96992 22 7.47992 21.96 7.02992 21.87C4.76992 21.45 3.28992 20 2.82992 17.78C2.71992 17.31 2.66992 16.81 2.66992 16.28V7.77C2.66992 7.24 2.71992 6.74 2.81992 6.28C3.25992 4.02 4.74992 2.55 7.02992 2.13C7.47992 2.04 7.96992 2 8.47992 2Z" fill="#292D32"/>
<path d="M8.52992 11.25H17.0299V2.01C17.5699 2.01 18.0699 2.07 18.5299 2.18V6.28H22.5199C22.6199 6.75 22.6699 7.25 22.6699 7.78H18.5299V11.25H22.6699V12.75H18.5299V16.28H22.6699C22.6599 16.81 22.6099 17.31 22.5099 17.78H18.5299V21.82C18.0699 21.93 17.5699 21.99 17.0299 21.99V12.75H8.52992V22H8.47992C7.96992 22 7.47992 21.96 7.02992 21.87V17.76C6.98992 17.77 6.94992 17.78 6.90992 17.78H2.82992C2.71992 17.31 2.66992 16.81 2.66992 16.28H6.90992C6.94992 16.28 6.98992 16.3 7.02992 16.31V12.75H2.66992V11.25H7.02992V7.78H2.66992V7.77C2.66992 7.24 2.71992 6.74 2.81992 6.28H6.99992C7.00992 6.28 7.01992 6.29 7.02992 6.29V2.13C7.47992 2.04 7.96992 2 8.47992 2H8.52992V11.25Z" fill="#292D32"/>
</svg>
