<svg width="25" height="24" viewBox="0 0 25 24" fill="none" xmlns="http://www.w3.org/2000/svg">
<path opacity="0.4" d="M13.6699 3.25H7.66992C4.24992 3.25 2.91992 4.58 2.91992 8V16C2.91992 18.3 4.16992 20.75 7.66992 20.75H13.6699C17.0899 20.75 18.4199 19.42 18.4199 16V8C18.4199 4.58 17.0899 3.25 13.6699 3.25Z" fill="#292D32"/>
<path d="M12.17 11.38C13.2083 11.38 14.05 10.5383 14.05 9.5C14.05 8.46171 13.2083 7.62 12.17 7.62C11.1317 7.62 10.29 8.46171 10.29 9.5C10.29 10.5383 11.1317 11.38 12.17 11.38Z" fill="#292D32"/>
<path d="M22.3204 6.17C21.9104 5.96 21.0504 5.72 19.8804 6.54L18.4004 7.58C18.4104 7.72 18.4204 7.85 18.4204 8V16C18.4204 16.15 18.4004 16.28 18.4004 16.42L19.8804 17.46C20.5004 17.9 21.0404 18.04 21.4704 18.04C21.8404 18.04 22.1304 17.94 22.3204 17.84C22.7304 17.63 23.4204 17.06 23.4204 15.63V8.38C23.4204 6.95 22.7304 6.38 22.3204 6.17Z" fill="#292D32"/>
</svg>
