<svg width="25" height="24" viewBox="0 0 25 24" fill="none" xmlns="http://www.w3.org/2000/svg">
<path opacity="0.4" d="M22.6699 7.81V15.7C22.6699 15.69 22.6599 15.68 22.6499 15.67C22.6099 15.61 22.5599 15.55 22.5099 15.5C22.4999 15.49 22.4899 15.47 22.4799 15.46C21.6699 14.56 20.4799 14 19.1699 14C17.9099 14 16.7599 14.52 15.9399 15.36C15.1499 16.17 14.6699 17.28 14.6699 18.5C14.6699 19.34 14.9099 20.14 15.3199 20.82C15.5399 21.19 15.8199 21.53 16.1399 21.81C16.1599 21.82 16.1699 21.83 16.1799 21.84C16.2299 21.89 16.2799 21.93 16.3399 21.98C16.3399 21.98 16.3399 21.98 16.3499 21.98C16.3599 21.99 16.3699 22 16.3799 22H8.47992C4.83992 22 2.66992 19.83 2.66992 16.19V7.81C2.66992 7.3 2.70993 6.80999 2.79993 6.35999C3.30993 3.60999 5.33993 2.01 8.43993 2H16.8999C19.9999 2.01 22.0299 3.60999 22.5399 6.35999C22.6299 6.80999 22.6699 7.3 22.6699 7.81Z" fill="#292D32"/>
<path d="M22.6699 7.81V7.85999H2.66992V7.81C2.66992 7.3 2.70993 6.80999 2.79993 6.35999H8.43993V2H9.93993V6.35999H15.3999V2H16.8999V6.35999H22.5399C22.6299 6.80999 22.6699 7.3 22.6699 7.81Z" fill="#292D32"/>
<path d="M22.6699 15.7C22.6699 15.69 22.6599 15.68 22.6499 15.67C22.6099 15.61 22.5599 15.55 22.5099 15.5C22.4999 15.49 22.4899 15.47 22.4799 15.46C21.6699 14.56 20.4799 14 19.1699 14C17.9099 14 16.7599 14.52 15.9399 15.36C15.1499 16.17 14.6699 17.28 14.6699 18.5C14.6699 19.34 14.9099 20.14 15.3199 20.82C15.5399 21.19 15.8199 21.53 16.1399 21.81C16.1599 21.82 16.1699 21.83 16.1799 21.84C16.2299 21.89 16.2799 21.93 16.3399 21.98C16.3399 21.98 16.3399 21.98 16.3499 21.98C16.3599 21.99 16.3699 22 16.3799 22C17.1299 22.63 18.0999 23 19.1699 23C20.8099 23 22.2399 22.12 23.0199 20.82C23.2499 20.43 23.4299 20 23.5399 19.55C23.6299 19.21 23.6699 18.86 23.6699 18.5C23.6699 17.44 23.2999 16.46 22.6699 15.7ZM20.8499 19.23H19.9199V20.2C19.9199 20.61 19.5799 20.95 19.1699 20.95C18.7599 20.95 18.4199 20.61 18.4199 20.2V19.23H17.4899C17.0799 19.23 16.7399 18.89 16.7399 18.48C16.7399 18.07 17.0799 17.73 17.4899 17.73H18.4199V16.84C18.4199 16.43 18.7599 16.09 19.1699 16.09C19.5799 16.09 19.9199 16.43 19.9199 16.84V17.73H20.8499C21.2599 17.73 21.5999 18.07 21.5999 18.48C21.5999 18.89 21.2699 19.23 20.8499 19.23Z" fill="#292D32"/>
</svg>
