<svg width="25" height="24" viewBox="0 0 25 24" fill="none" xmlns="http://www.w3.org/2000/svg">
<path opacity="0.4" d="M22.6699 7.81V16.19C22.6699 19.83 20.4999 22 16.8599 22H8.47992C4.83992 22 2.66992 19.83 2.66992 16.19V7.81C2.66992 7.3 2.70992 6.81 2.79992 6.36C3.30992 3.61 5.33992 2.01 8.43992 2H16.8999C19.9999 2.01 22.0299 3.61 22.5399 6.36C22.6299 6.81 22.6699 7.3 22.6699 7.81Z" fill="#292D32"/>
<path d="M22.6699 7.81V7.86H2.66992V7.81C2.66992 7.3 2.70992 6.81 2.79992 6.36H8.43992V2H9.93992V6.36H15.3999V2H16.8999V6.36H22.5399C22.6299 6.81 22.6699 7.3 22.6699 7.81Z" fill="#292D32"/>
<path d="M15.11 12.72L13.03 11.52C12.26 11.08 11.52 11.02 10.94 11.35C10.36 11.68 10.04 12.36 10.04 13.24V15.64C10.04 16.52 10.36 17.2 10.94 17.53C11.19 17.67 11.47 17.74 11.76 17.74C12.16 17.74 12.59 17.61 13.03 17.36L15.11 16.16C15.88 15.72 16.3 15.1 16.3 14.43C16.3 13.76 15.87 13.17 15.11 12.72Z" fill="#292D32"/>
</svg>
