<svg width="25" height="24" viewBox="0 0 25 24" fill="none" xmlns="http://www.w3.org/2000/svg">
<path opacity="0.4" d="M21.7501 8.58003V15.42C21.7501 16.54 21.1501 17.58 20.1801 18.15L14.2401 21.58C13.2701 22.14 12.0701 22.14 11.0901 21.58L5.15009 18.15C4.18009 17.59 3.58008 16.55 3.58008 15.42V8.58003C3.58008 7.46003 4.18009 6.41999 5.15009 5.84999L11.0901 2.42C12.0601 1.86 13.2601 1.86 14.2401 2.42L20.1801 5.84999C21.1501 6.41999 21.7501 7.45003 21.7501 8.58003Z" fill="#292D32"/>
<path d="M10.4199 12V10.8C10.4199 9.26001 11.5099 8.63005 12.8399 9.40005L13.8799 10L14.9199 10.6C16.2499 11.37 16.2499 12.63 14.9199 13.4L13.8799 14L12.8399 14.6C11.5099 15.37 10.4199 14.74 10.4199 13.2V12Z" fill="#292D32"/>
</svg>
