<svg width="25" height="24" viewBox="0 0 25 24" fill="none" xmlns="http://www.w3.org/2000/svg">
<path d="M22.6699 11.25H21.4199V10C21.4199 9.59 21.0799 9.25 20.6699 9.25C20.2599 9.25 19.9199 9.59 19.9199 10V11.25H18.6699C18.2599 11.25 17.9199 11.59 17.9199 12C17.9199 12.41 18.2599 12.75 18.6699 12.75H19.9199V14C19.9199 14.41 20.2599 14.75 20.6699 14.75C21.0799 14.75 21.4199 14.41 21.4199 14V12.75H22.6699C23.0799 12.75 23.4199 12.41 23.4199 12C23.4199 11.59 23.0799 11.25 22.6699 11.25Z" fill="#292D32"/>
<path opacity="0.4" d="M16.4199 7.41V16.59C16.4199 18.31 15.7999 19.6 14.6899 20.22C14.2399 20.47 13.7399 20.59 13.2199 20.59C12.4199 20.59 11.5599 20.32 10.6799 19.77L7.75992 17.94C7.55992 17.82 7.32992 17.75 7.09992 17.75H6.16992V6.25H7.09992C7.32992 6.25 7.55992 6.18 7.75992 6.06L10.6799 4.23C12.1399 3.32 13.5699 3.16 14.6899 3.78C15.7999 4.4 16.4199 5.69 16.4199 7.41Z" fill="#292D32"/>
<path d="M6.16992 6.25V17.75H5.66992C3.24992 17.75 1.91992 16.42 1.91992 14V10C1.91992 7.58 3.24992 6.25 5.66992 6.25H6.16992Z" fill="#292D32"/>
</svg>
