<svg width="25" height="24" viewBox="0 0 25 24" fill="none" xmlns="http://www.w3.org/2000/svg">
<path opacity="0.4" d="M19.9199 7.41V16.59C19.9199 18.31 19.2999 19.6 18.1899 20.22C17.7399 20.47 17.2399 20.59 16.7199 20.59C15.9199 20.59 15.0599 20.32 14.1799 19.77L11.2599 17.94C11.0599 17.82 10.8299 17.75 10.5999 17.75H9.66992V6.25H10.5999C10.8299 6.25 11.0599 6.18 11.2599 6.06L14.1799 4.23C15.6399 3.32 17.0699 3.16 18.1899 3.78C19.2999 4.4 19.9199 5.69 19.9199 7.41Z" fill="#292D32"/>
<path d="M9.66992 6.25V17.75H9.16992C6.74992 17.75 5.41992 16.42 5.41992 14V10C5.41992 7.58 6.74992 6.25 9.16992 6.25H9.66992Z" fill="#292D32"/>
</svg>
