<svg width="25" height="24" viewBox="0 0 25 24" fill="none" xmlns="http://www.w3.org/2000/svg">
<path d="M18.4203 7.04997C18.1803 7.00997 17.9303 6.99998 17.6703 6.99998H7.67035C7.39035 6.99998 7.12035 7.01998 6.86035 7.05998C7.00035 6.77998 7.20035 6.52001 7.44035 6.28001L10.6903 3.02C12.0603 1.66 14.2804 1.66 15.6504 3.02L17.4004 4.78996C18.0404 5.41996 18.3803 6.21997 18.4203 7.04997Z" fill="#292D32"/>
<path opacity="0.4" d="M2.66992 16.36V12C2.66992 9.28 4.30992 7.38 6.85992 7.06C7.11992 7.02 7.38992 7 7.66992 7H17.6699C17.9299 7 18.1799 7.00999 18.4199 7.04999C20.9999 7.34999 22.6699 9.26 22.6699 12V17C22.6699 19.76 20.4299 22 17.6699 22H8.29992H7.66992C4.90992 22 2.66992 19.76 2.66992 17V16.36Z" fill="#292D32"/>
<path d="M22.6699 12.5H19.6699C18.5699 12.5 17.6699 13.4 17.6699 14.5C17.6699 15.6 18.5699 16.5 19.6699 16.5H22.6699" fill="#292D32"/>
<path d="M1.89949 21.68L2.65949 20.92C2.25949 20.32 2.02949 19.6 2.02949 18.83C2.02949 16.72 3.73949 15.01 5.84949 15.01C7.95949 15.01 9.66949 16.72 9.66949 18.83C9.66949 20.94 7.95949 22.65 5.84949 22.65C5.07949 22.65 4.35949 22.42 3.75949 22.02L2.99949 22.78C2.84949 22.93 2.64949 23.01 2.44949 23.01C2.24949 23.01 2.04949 22.93 1.89949 22.78C1.58949 22.47 1.58949 21.98 1.89949 21.68Z" fill="#292D32"/>
</svg>
