<svg width="25" height="24" viewBox="0 0 25 24" fill="none" xmlns="http://www.w3.org/2000/svg">
<path d="M22.6701 10.9699V13.03C22.6701 13.58 22.2301 14.0299 21.6701 14.0499H19.7101C18.6301 14.0499 17.6401 13.2599 17.5501 12.1799C17.4901 11.5499 17.7301 10.9599 18.1501 10.5499C18.5201 10.1699 19.0301 9.94995 19.5901 9.94995H21.6701C22.2301 9.96995 22.6701 10.4199 22.6701 10.9699Z" fill="#292D32"/>
<path opacity="0.4" d="M18.1499 10.55C17.7299 10.96 17.4899 11.55 17.5499 12.18C17.6399 13.26 18.6299 14.05 19.7099 14.05H21.6699V15.5C21.6699 18.5 19.6699 20.5 16.6699 20.5H7.66992C4.66992 20.5 2.66992 18.5 2.66992 15.5V8.5C2.66992 5.78 4.30992 3.88 6.85992 3.56C7.11992 3.52 7.38992 3.5 7.66992 3.5H16.6699C16.9299 3.5 17.1799 3.50999 17.4199 3.54999C19.9999 3.84999 21.6699 5.76 21.6699 8.5V9.95001H19.5899C19.0299 9.95001 18.5199 10.17 18.1499 10.55Z" fill="#292D32"/>
<path d="M13.6699 9.75H7.66992C7.25992 9.75 6.91992 9.41 6.91992 9C6.91992 8.59 7.25992 8.25 7.66992 8.25H13.6699C14.0799 8.25 14.4199 8.59 14.4199 9C14.4199 9.41 14.0799 9.75 13.6699 9.75Z" fill="#292D32"/>
</svg>
