<svg width="25" height="24" viewBox="0 0 25 24" fill="none" xmlns="http://www.w3.org/2000/svg">
<path d="M15.6699 6.15002H6.66992C4.45992 6.15002 2.66992 7.94002 2.66992 10.15V6.53998C2.66992 4.49998 4.31992 2.84998 6.35992 2.84998H11.9799C14.0199 2.84998 15.6699 4.11002 15.6699 6.15002Z" fill="#292D32"/>
<path opacity="0.4" d="M18.1499 12.2C17.6499 12.69 17.4099 13.43 17.6099 14.18C17.8599 15.11 18.7799 15.7 19.7399 15.7H20.6699V17.15C20.6699 19.36 18.8799 21.15 16.6699 21.15H6.66992C4.45992 21.15 2.66992 19.36 2.66992 17.15V10.15C2.66992 7.94002 4.45992 6.15002 6.66992 6.15002H16.6699C18.8699 6.15002 20.6699 7.95002 20.6699 10.15V11.6H19.5899C19.0299 11.6 18.5199 11.82 18.1499 12.2Z" fill="#292D32"/>
<path d="M22.6701 12.62V14.68C22.6701 15.24 22.2101 15.7 21.6401 15.7H19.7101C18.6301 15.7 17.6401 14.91 17.5501 13.83C17.4901 13.2 17.7301 12.61 18.1501 12.2C18.5201 11.82 19.0301 11.6 19.5901 11.6H21.6401C22.2101 11.6 22.6701 12.06 22.6701 12.62Z" fill="#292D32"/>
<path d="M13.6699 11.9H7.66992C7.25992 11.9 6.91992 11.56 6.91992 11.15C6.91992 10.74 7.25992 10.4 7.66992 10.4H13.6699C14.0799 10.4 14.4199 10.74 14.4199 11.15C14.4199 11.56 14.0799 11.9 13.6699 11.9Z" fill="#292D32"/>
</svg>
