<svg width="25" height="24" viewBox="0 0 25 24" fill="none" xmlns="http://www.w3.org/2000/svg">
<path opacity="0.8" d="M13.5701 2.51997L13.5401 2.58997L10.6401 9.31997H7.79012C7.11012 9.31997 6.47012 9.44997 5.87012 9.70997L7.62012 5.52997L7.66012 5.43997L7.72012 5.27997C7.75012 5.20997 7.77012 5.14997 7.80012 5.09997C9.11012 2.06997 10.5901 1.37997 13.5701 2.51997Z" fill="#292D32"/>
<path d="M18.9596 9.52002C18.5096 9.39002 18.0396 9.32002 17.5496 9.32002H10.6396L13.5396 2.59002L13.5696 2.52002C13.7096 2.57002 13.8596 2.64002 14.0096 2.69002L16.2196 3.62002C17.4496 4.13002 18.3096 4.66002 18.8396 5.30002C18.9296 5.42002 19.0096 5.53002 19.0896 5.66002C19.1796 5.80002 19.2496 5.94002 19.2896 6.09002C19.3296 6.18002 19.3596 6.26002 19.3796 6.35002C19.6396 7.20002 19.4796 8.23002 18.9596 9.52002Z" fill="#292D32"/>
<path opacity="0.4" d="M22.4302 14.1999V16.1499C22.4302 16.3499 22.4202 16.5499 22.4102 16.7399C22.2202 20.2399 20.2702 21.9999 16.5702 21.9999H8.77016C8.52016 21.9999 8.29016 21.9799 8.06016 21.9499C4.88016 21.7399 3.18016 20.0399 2.96016 16.8599C2.93016 16.6199 2.91016 16.3899 2.91016 16.1499V14.1999C2.91016 12.1899 4.13016 10.4599 5.87016 9.70995C6.47016 9.44995 7.11016 9.31995 7.79016 9.31995H17.5502C18.0402 9.31995 18.5102 9.38995 18.9602 9.51995C20.9602 10.1299 22.4302 11.9899 22.4302 14.1999Z" fill="#292D32"/>
<path opacity="0.6" d="M7.62016 5.53003L5.87016 9.71003C4.13016 10.46 2.91016 12.19 2.91016 14.2V11.27C2.91016 8.43003 4.93016 6.06003 7.62016 5.53003Z" fill="#292D32"/>
<path opacity="0.6" d="M22.43 11.27V14.2C22.43 11.99 20.96 10.13 18.96 9.51997C19.48 8.22997 19.64 7.19997 19.38 6.34997C19.36 6.25997 19.33 6.17997 19.29 6.08997C21.16 7.05997 22.43 9.02997 22.43 11.27Z" fill="#292D32"/>
</svg>
