<svg width="25" height="24" viewBox="0 0 25 24" fill="none" xmlns="http://www.w3.org/2000/svg">
<path opacity="0.4" d="M22.6699 12V17C22.6699 20 20.6699 22 17.6699 22H8.29993C8.60993 21.74 8.8799 21.42 9.0899 21.06C9.4599 20.46 9.66992 19.75 9.66992 19C9.66992 16.79 7.87992 15 5.66992 15C4.46992 15 3.39992 15.53 2.66992 16.36V12C2.66992 9.28 4.30992 7.38 6.85992 7.06C7.11992 7.02 7.38992 7 7.66992 7H17.6699C17.9299 7 18.1799 7.00999 18.4199 7.04999C20.9999 7.34999 22.6699 9.26 22.6699 12Z" fill="#292D32"/>
<path d="M18.4203 7.04997C18.1803 7.00997 17.9303 6.99998 17.6703 6.99998H7.67035C7.39035 6.99998 7.12035 7.01998 6.86035 7.05998C7.00035 6.77998 7.20037 6.52001 7.44037 6.28001L10.6904 3.02C12.0604 1.66 14.2803 1.66 15.6503 3.02L17.4003 4.78996C18.0403 5.41996 18.3803 6.21997 18.4203 7.04997Z" fill="#292D32"/>
<path d="M22.6699 12.5H19.6699C18.5699 12.5 17.6699 13.4 17.6699 14.5C17.6699 15.6 18.5699 16.5 19.6699 16.5H22.6699" fill="#292D32"/>
<path d="M5.66992 15C4.46992 15 3.39992 15.53 2.66992 16.36C2.04992 17.07 1.66992 17.99 1.66992 19C1.66992 19.75 1.87994 20.46 2.24994 21.06C2.93994 22.22 4.20992 23 5.66992 23C6.67992 23 7.59993 22.63 8.29993 22C8.60993 21.74 8.8799 21.42 9.0899 21.06C9.4599 20.46 9.66992 19.75 9.66992 19C9.66992 16.79 7.87992 15 5.66992 15ZM7.2699 20.58C7.1199 20.73 6.92993 20.8 6.73993 20.8C6.54993 20.8 6.3599 20.73 6.2099 20.58L5.67993 20.05L5.12994 20.6C4.97994 20.75 4.78991 20.82 4.59991 20.82C4.40991 20.82 4.21995 20.75 4.06995 20.6C3.77995 20.31 3.77995 19.83 4.06995 19.54L4.61993 18.99L4.0899 18.46C3.7999 18.17 3.7999 17.69 4.0899 17.4C4.3799 17.11 4.8599 17.11 5.1499 17.4L5.67993 17.93L6.17993 17.43C6.46993 17.14 6.94993 17.14 7.23993 17.43C7.52993 17.72 7.52993 18.2 7.23993 18.49L6.73993 18.99L7.2699 19.52C7.5599 19.81 7.5599 20.28 7.2699 20.58Z" fill="#292D32"/>
</svg>
