<svg width="25" height="24" viewBox="0 0 25 24" fill="none" xmlns="http://www.w3.org/2000/svg">
<path opacity="0.4" d="M21.7501 8.58003V15.42C21.7501 16.54 21.1501 17.58 20.1801 18.15L14.2401 21.58C13.2701 22.14 12.0701 22.14 11.0901 21.58L5.15009 18.15C4.18009 17.59 3.58008 16.55 3.58008 15.42V8.58003C3.58008 7.46003 4.18009 6.41999 5.15009 5.84999L11.0901 2.42C12.0601 1.86 13.2601 1.86 14.2401 2.42L20.1801 5.84999C21.1501 6.41999 21.7501 7.45003 21.7501 8.58003Z" fill="#292D32"/>
<path d="M12.6699 13.75C12.2599 13.75 11.9199 13.41 11.9199 13V7.75C11.9199 7.34 12.2599 7 12.6699 7C13.0799 7 13.4199 7.34 13.4199 7.75V13C13.4199 13.41 13.0799 13.75 12.6699 13.75Z" fill="#292D32"/>
<path d="M12.6699 17.25C12.5399 17.25 12.4099 17.22 12.2899 17.17C12.1599 17.12 12.0599 17.05 11.9599 16.96C11.8699 16.86 11.7999 16.75 11.7399 16.63C11.6899 16.51 11.6699 16.38 11.6699 16.25C11.6699 15.99 11.7699 15.73 11.9599 15.54C12.0599 15.45 12.1599 15.38 12.2899 15.33C12.6599 15.17 13.0999 15.26 13.3799 15.54C13.4699 15.64 13.5399 15.74 13.5899 15.87C13.6399 15.99 13.6699 16.12 13.6699 16.25C13.6699 16.38 13.6399 16.51 13.5899 16.63C13.5399 16.75 13.4699 16.86 13.3799 16.96C13.1899 17.15 12.9399 17.25 12.6699 17.25Z" fill="#292D32"/>
</svg>
