<svg width="25" height="24" viewBox="0 0 25 24" fill="none" xmlns="http://www.w3.org/2000/svg">
<path opacity="0.4" d="M8.66992 22H16.6699C19.6699 22 21.6699 20 21.6699 17V7C21.6699 4 19.6699 2 16.6699 2H8.66992C5.66992 2 3.66992 4 3.66992 7V17C3.66992 20 5.66992 22 8.66992 22Z" fill="#292D32"/>
<path d="M18.1699 7.99997C15.0399 5.20997 10.3099 5.20997 7.1699 7.99997C7.0299 8.12997 6.9999 8.32997 7.0999 8.47997L9.2799 11.98C9.3399 12.07 9.4399 12.14 9.5399 12.15C9.6499 12.17 9.7599 12.13 9.8399 12.06C11.4499 10.63 13.8699 10.63 15.4799 12.06C15.5499 12.12 15.6399 12.15 15.7299 12.15C15.7499 12.15 15.7699 12.15 15.7799 12.15C15.8899 12.13 15.9899 12.07 16.0399 11.98L18.2199 8.47997C18.3399 8.32997 18.3099 8.12997 18.1699 7.99997Z" fill="#292D32"/>
</svg>
