<svg width="25" height="24" viewBox="0 0 25 24" fill="none" xmlns="http://www.w3.org/2000/svg">
<path opacity="0.58" d="M24.6699 0H0.669922V24H24.6699V0Z" fill="white"/>
<path opacity="0.4" d="M7.61022 20.63C9.10022 21.5 10.8302 22 12.6702 22C18.3002 22 22.9802 17.03 22.6502 11.41C22.3102 5.60997 17.0402 1.13996 10.9702 2.13996C6.79021 2.82996 3.44021 6.21996 2.79021 10.4C2.41021 12.82 2.91024 15.11 4.00024 17L3.11022 20.31C2.91022 21.06 3.6002 21.74 4.3402 21.53L7.61022 20.63Z" fill="#292D32"/>
<path d="M17.6699 15.17C17.6699 15.35 17.6299 15.54 17.5399 15.72C17.4499 15.9 17.34 16.07 17.2 16.23C16.95 16.5 16.6799 16.7 16.3799 16.82C16.0799 16.95 15.7499 17.01 15.3999 17.01C14.8899 17.01 14.3399 16.89 13.7699 16.64C13.1899 16.39 12.6199 16.06 12.0499 15.65C11.4699 15.23 10.9299 14.76 10.4099 14.25C9.88991 13.73 9.42995 13.18 9.00995 12.61C8.59995 12.04 8.26991 11.47 8.02991 10.9C7.78991 10.33 7.66992 9.77998 7.66992 9.25998C7.66992 8.91998 7.72991 8.58998 7.84991 8.28998C7.96991 7.97998 8.15993 7.69997 8.42993 7.44997C8.74993 7.12997 9.09991 6.97998 9.46991 6.97998C9.60991 6.97998 9.74994 7.00998 9.87994 7.06998C10.0099 7.12998 10.1299 7.21998 10.2199 7.34998L11.3699 8.99998C11.4599 9.12998 11.5299 9.23998 11.5699 9.34998C11.6199 9.45998 11.6399 9.55998 11.6399 9.65998C11.6399 9.77998 11.5999 9.89997 11.5299 10.02C11.4599 10.14 11.3699 10.26 11.2499 10.38L10.8699 10.78C10.8099 10.84 10.7899 10.9 10.7899 10.98C10.7899 11.02 10.7999 11.06 10.8099 11.1C10.8299 11.14 10.8399 11.17 10.8499 11.2C10.9399 11.37 11.0999 11.58 11.3199 11.84C11.5499 12.1 11.7899 12.37 12.0499 12.63C12.3199 12.9 12.5799 13.14 12.8499 13.37C13.1099 13.59 13.3299 13.74 13.4999 13.83C13.5299 13.84 13.5599 13.86 13.5899 13.87C13.6299 13.89 13.6699 13.89 13.7199 13.89C13.8099 13.89 13.8699 13.86 13.9299 13.8L14.3099 13.42C14.4399 13.29 14.5599 13.2 14.6699 13.14C14.7899 13.07 14.8999 13.03 15.0299 13.03C15.1299 13.03 15.2299 13.05 15.3399 13.1C15.4499 13.15 15.5699 13.21 15.6899 13.3L17.3499 14.48C17.4799 14.57 17.5699 14.68 17.6299 14.8C17.6399 14.91 17.6699 15.03 17.6699 15.17Z" fill="#292D32"/>
</svg>
