<svg width="25" height="24" viewBox="0 0 25 24" fill="none" xmlns="http://www.w3.org/2000/svg">
<path opacity="0.4" d="M19.7599 12.59C19.5999 12.59 19.4399 12.54 19.2999 12.43C15.2699 9.31999 10.0599 9.31999 6.02986 12.43C5.69986 12.68 5.22985 12.62 4.97985 12.3C4.72985 11.97 4.78986 11.5 5.10986 11.25C9.69986 7.69999 15.6298 7.69999 20.2098 11.25C20.5398 11.5 20.5999 11.97 20.3399 12.3C20.2099 12.49 19.9899 12.59 19.7599 12.59Z" fill="#292D32"/>
<path d="M22.6695 9.11001C22.5095 9.11001 22.3495 9.06 22.2095 8.95C16.4095 4.47 8.91947 4.47 3.12947 8.95C2.79947 9.2 2.32947 9.14001 2.07947 8.82001C1.82947 8.49001 1.88946 8.02001 2.20946 7.77001C8.55946 2.86001 16.7695 2.86001 23.1295 7.77001C23.4595 8.02001 23.5195 8.49001 23.2595 8.82001C23.1195 9.01001 22.8895 9.11001 22.6695 9.11001Z" fill="#292D32"/>
<path d="M17.8795 16.24C17.7195 16.24 17.5595 16.19 17.4195 16.08C14.5395 13.85 10.8095 13.85 7.9195 16.08C7.5895 16.33 7.1195 16.27 6.8695 15.95C6.6195 15.62 6.67951 15.15 6.99951 14.9C10.4395 12.24 14.8895 12.24 18.3295 14.9C18.6595 15.15 18.7195 15.62 18.4595 15.95C18.3195 16.14 18.0995 16.24 17.8795 16.24Z" fill="#292D32"/>
<path opacity="0.4" d="M15.2701 19.9C15.1101 19.9 14.9501 19.85 14.8101 19.74C13.5101 18.73 11.8201 18.73 10.5201 19.74C10.1901 19.99 9.72009 19.93 9.47009 19.61C9.22009 19.28 9.28008 18.81 9.60008 18.56C11.4601 17.12 13.8601 17.12 15.7201 18.56C16.0501 18.81 16.1101 19.28 15.8501 19.61C15.7201 19.79 15.5001 19.9 15.2701 19.9Z" fill="#292D32"/>
</svg>
