<svg width="25" height="24" viewBox="0 0 25 24" fill="none" xmlns="http://www.w3.org/2000/svg">
<path opacity="0.58" d="M24.6699 0H0.669922V24H24.6699V0Z" fill="white"/>
<path opacity="0.4" d="M12.6699 22C18.1928 22 22.6699 17.5228 22.6699 12C22.6699 6.47715 18.1928 2 12.6699 2C7.14707 2 2.66992 6.47715 2.66992 12C2.66992 17.5228 7.14707 22 12.6699 22Z" fill="#292D32"/>
<path fill-rule="evenodd" clip-rule="evenodd" d="M6.91992 9.68001V12.48C6.91992 14.02 8.16993 15.26 9.70993 15.25L13.3899 15.22C13.8999 15.22 14.3099 14.8 14.3099 14.3V11.53C14.3099 10 13.0699 8.76001 11.5399 8.76001H7.84991C7.32991 8.76001 6.91992 9.17001 6.91992 9.68001Z" fill="#292D32"/>
<path fill-rule="evenodd" clip-rule="evenodd" d="M18.4199 10.02V14C18.4199 14.43 17.9399 14.69 17.5799 14.45L15.6599 13.17C15.5099 13.07 15.4199 12.9 15.4199 12.72V11.3C15.4199 11.12 15.5099 10.95 15.6599 10.85L17.5799 9.57C17.9399 9.33 18.4199 9.59 18.4199 10.02Z" fill="#292D32"/>
</svg>
