<svg width="24" height="24" viewBox="0 0 24 24" fill="none" xmlns="http://www.w3.org/2000/svg">
<path opacity="0.5" d="M20.4155 12.7653L11.235 3.58471C9.12233 1.47209 5.69709 1.47209 3.58447 3.58471C1.47184 5.69733 1.47184 9.12257 3.58447 11.2352L12.765 20.4158C14.8777 22.5284 18.3029 22.5284 20.4155 20.4158C22.5282 18.3032 22.5282 14.8779 20.4155 12.7653Z" fill="#1C274C"/>
<path d="M19.885 12.2348L20.4156 12.7653C20.5955 12.9452 20.76 13.1346 20.9092 13.3319L13.3316 20.9095C13.1344 20.7603 12.945 20.5957 12.7651 20.4158L12.2345 19.8853L19.885 12.2348C19.8851 12.2347 19.8849 12.2349 19.885 12.2348Z" fill="#1C274C"/>
<path d="M10.6679 3.0907C10.8654 3.24005 11.055 3.40474 11.235 3.58477L11.7651 4.11486C11.765 4.11494 11.7652 4.11478 11.7651 4.11486L4.11462 11.7653L3.58452 11.2353C3.40449 11.0552 3.2398 10.8657 3.09045 10.6682L10.6679 3.0907Z" fill="#1C274C"/>
<circle cx="9.17154" cy="12.0002" r="1" transform="rotate(-45 9.17154 12.0002)" fill="#1C274C"/>
<circle cx="12" cy="14.8286" r="1" transform="rotate(-45 12 14.8286)" fill="#1C274C"/>
<circle cx="12" cy="9.17188" r="1" transform="rotate(-45 12 9.17188)" fill="#1C274C"/>
<circle cx="14.8284" cy="12.0002" r="1" transform="rotate(-45 14.8284 12.0002)" fill="#1C274C"/>
</svg>
