<svg width="24" height="24" viewBox="0 0 24 24" fill="none" xmlns="http://www.w3.org/2000/svg">
<path opacity="0.5" d="M12 22.0005C16.9706 22.0005 21 17.9711 21 13.0005C21 8.02993 16.9706 4.00049 12 4.00049C7.02944 4.00049 3 8.02993 3 13.0005C3 17.9711 7.02944 22.0005 12 22.0005Z" fill="#1C274C"/>
<path d="M14.6514 10.3491C14.9443 10.642 14.9443 11.1168 14.6514 11.4097L13.0604 13.0007L14.6514 14.5917C14.9443 14.8846 14.9443 15.3595 14.6514 15.6524C14.3585 15.9453 13.8836 15.9453 13.5907 15.6524L11.9997 14.0614L10.4088 15.6524C10.1159 15.9453 9.641 15.9453 9.34811 15.6524C9.05521 15.3595 9.05521 14.8846 9.34811 14.5917L10.9391 13.0007L9.34809 11.4097C9.05519 11.1168 9.05519 10.642 9.34809 10.3491C9.64098 10.0562 10.1159 10.0562 10.4087 10.3491L11.9997 11.9401L13.5907 10.3491C13.8836 10.0562 14.3585 10.0562 14.6514 10.3491Z" fill="#1C274C"/>
<path fill-rule="evenodd" clip-rule="evenodd" d="M8.2405 2.34034C8.45409 2.6789 8.3502 3.12489 8.00844 3.33648L4.11657 5.74611C3.77481 5.9577 3.32461 5.85478 3.11102 5.51623C2.89742 5.17767 3.00131 4.73169 3.34307 4.52009L7.23494 2.11046C7.5767 1.89887 8.0269 2.00179 8.2405 2.34034Z" fill="#1C274C"/>
<path fill-rule="evenodd" clip-rule="evenodd" d="M15.7595 2.34034C15.9731 2.00179 16.4233 1.89887 16.7651 2.11047L20.6569 4.52009C20.9987 4.73169 21.1026 5.17767 20.889 5.51623C20.6754 5.85478 20.2252 5.9577 19.8834 5.74611L15.9916 3.33648C15.6498 3.12488 15.5459 2.6789 15.7595 2.34034Z" fill="#1C274C"/>
</svg>
