<svg width="24" height="24" viewBox="0 0 24 24" fill="none" xmlns="http://www.w3.org/2000/svg">
<path opacity="0.5" d="M6.87114 19.4991C7.80085 20.0005 8.91458 20.0005 11.142 20.0005H13.779C17.6544 20.0005 19.5921 20.0005 20.7961 18.8289C22 17.6573 22 15.7717 22 12.0005C22 8.22925 22 6.34363 20.7961 5.17206C19.5921 4.00049 17.6544 4.00049 13.779 4.00049H11.142C8.91458 4.00049 7.80085 4.00049 6.87114 4.50192C5.94144 5.00335 5.35117 5.9224 4.17061 7.7605L3.48981 8.8205C2.4966 10.3669 2 11.1401 2 12.0005C2 12.8609 2.4966 13.6341 3.48981 15.1805L4.17061 16.2405C5.35117 18.0786 5.94144 18.9976 6.87114 19.4991Z" fill="#1C274C"/>
<path d="M11.0303 8.97016C10.7374 8.67727 10.2626 8.67727 9.96967 8.97016C9.67678 9.26305 9.67678 9.73792 9.96967 10.0308L11.9394 12.0005L9.96969 13.9702C9.6768 14.2631 9.6768 14.7379 9.96969 15.0308C10.2626 15.3237 10.7375 15.3237 11.0304 15.0308L13 13.0612L14.9696 15.0308C15.2625 15.3237 15.7374 15.3237 16.0303 15.0308C16.3232 14.7379 16.3232 14.263 16.0303 13.9701L14.0607 12.0005L16.0303 10.0308C16.3232 9.73795 16.3232 9.26307 16.0303 8.97018C15.7374 8.67729 15.2626 8.67729 14.9697 8.97018L13 10.9398L11.0303 8.97016Z" fill="#1C274C"/>
</svg>
