<svg width="24" height="24" viewBox="0 0 24 24" fill="none" xmlns="http://www.w3.org/2000/svg">
<path d="M6 15.0002C6 13.3434 7.34315 12.0002 9 12.0002C10.6569 12.0002 12 13.3434 12 15.0002C12 16.6571 10.6569 18.0002 9 18.0002C7.34315 18.0002 6 16.6571 6 15.0002Z" fill="#1C274C"/>
<path d="M14.4648 7.17158C14.4648 7.17158 15.7077 7.0002 16.5862 7.87869C17.4647 8.75718 17.2933 10 17.2933 10" stroke="#1C274C" stroke-width="1.5" stroke-linecap="round"/>
<path d="M9.00001 9.29327C9.00001 9.29327 7.75718 9.46466 6.87869 8.58616C6.0002 7.70767 6.17158 6.46484 6.17158 6.46484" stroke="#1C274C" stroke-width="1.5" stroke-linecap="round"/>
<path d="M19 13.1365C19 13.1365 17.8379 13.6095 17.5164 14.8095C17.1948 16.0096 17.9647 17.0002 17.9647 17.0002" stroke="#1C274C" stroke-width="1.5" stroke-linecap="round"/>
<path d="M13.4209 17.7722L14.9995 19.0002" stroke="#1C274C" stroke-width="1.5" stroke-linecap="round"/>
<path opacity="0.5" fill-rule="evenodd" clip-rule="evenodd" d="M12 2.00024C6.47715 2.00024 2 6.4774 2 12.0002C2 17.5231 6.47715 22.0002 12 22.0002C17.5228 22.0002 22 17.5231 22 12.0002C22 6.4774 17.5228 2.00024 12 2.00024ZM5.60721 10.7871C5.76567 10.4044 5.58389 9.96571 5.20118 9.80725C4.81848 9.64879 4.37978 9.83057 4.22131 10.2133L3.80725 11.2133C3.64879 11.596 3.83057 12.0347 4.21327 12.1931C4.59598 12.3516 5.03468 12.1698 5.19314 11.7871L5.60721 10.7871ZM14.5 11.2502C14.9142 11.2502 15.25 11.586 15.25 12.0002V14.0002C15.25 14.4145 14.9142 14.7502 14.5 14.7502C14.0858 14.7502 13.75 14.4145 13.75 14.0002V12.0002C13.75 11.586 14.0858 11.2502 14.5 11.2502ZM12 4.25024H10C9.58579 4.25024 9.25 4.58603 9.25 5.00024C9.25 5.41446 9.58579 5.75024 10 5.75024H12C12.4142 5.75024 12.75 5.41446 12.75 5.00024C12.75 4.58603 12.4142 4.25024 12 4.25024Z" fill="#1C274C"/>
<path d="M12.5 9.50024L11.5 8.50024" stroke="#1C274C" stroke-width="1.5" stroke-linecap="round"/>
</svg>
