<svg width="24" height="24" viewBox="0 0 24 24" fill="none" xmlns="http://www.w3.org/2000/svg">
<path opacity="0.5" d="M4.03532 16.9272C4.4971 19.2361 4.72799 20.3905 5.55742 21.0705C6.38686 21.7505 7.56417 21.7505 9.9188 21.7505H14.0812C16.4358 21.7505 17.6131 21.7505 18.4425 21.0705C19.272 20.3905 19.5029 19.2361 19.9646 16.9272L20.5646 13.9272C21.2287 10.6068 21.5608 8.94655 20.6606 7.84852C19.7604 6.75049 18.0673 6.75049 14.6812 6.75049H9.3188C5.93263 6.75049 4.23954 6.75049 3.33936 7.84852C2.43919 8.94655 2.77123 10.6068 3.43532 13.9272L4.03532 16.9272Z" fill="#1C274C"/>
<circle cx="15" cy="9.75049" r="1" fill="#1C274C"/>
<circle cx="9" cy="9.75049" r="1" fill="#1C274C"/>
<path d="M9.75 5.75049C9.75 4.50785 10.7574 3.50049 12 3.50049C13.2426 3.50049 14.25 4.50785 14.25 5.75049V6.75049H14.6812C15.058 6.75049 15.4139 6.75049 15.75 6.752L15.75 5.75049C15.75 3.67942 14.0711 2.00049 12 2.00049C9.92893 2.00049 8.25 3.67942 8.25 5.75049L8.25 6.752C8.58613 6.75049 8.94198 6.75049 9.3188 6.75049H9.75V5.75049Z" fill="#1C274C"/>
</svg>
