<svg width="24" height="24" viewBox="0 0 24 24" fill="none" xmlns="http://www.w3.org/2000/svg">
<path opacity="0.5" d="M4.0828 10.8948C4.52171 8.55388 4.74117 7.38343 5.57434 6.69196C6.40752 6.00049 7.59835 6.00049 9.98003 6.00049H14.0209C16.4026 6.00049 17.5934 6.00049 18.4266 6.69196C19.2598 7.38343 19.4792 8.55387 19.9181 10.8948L20.6681 14.8948C21.2853 18.1865 21.5939 19.8323 20.6942 20.9164C19.7945 22.0005 18.12 22.0005 14.7709 22.0005H9.23003C5.88097 22.0005 4.20644 22.0005 3.30672 20.9164C2.40701 19.8323 2.7156 18.1865 3.3328 14.8948L4.0828 10.8948Z" fill="#1C274C"/>
<path d="M9.75 5.00049C9.75 3.75785 10.7574 2.75049 12 2.75049C13.2426 2.75049 14.25 3.75785 14.25 5.00049V6.00049C14.25 6.00048 14.25 6.0005 14.25 6.00049C14.816 6.00067 15.3119 6.00223 15.7499 6.01537C15.75 6.01042 15.75 6.00546 15.75 6.00049V5.00049C15.75 2.92942 14.0711 1.25049 12 1.25049C9.92893 1.25049 8.25 2.92942 8.25 5.00049V6.00049C8.25 6.00547 8.25005 6.01044 8.25015 6.0154C8.68814 6.00224 9.18397 6.00069 9.75 6.00051C9.75 6.0005 9.75 6.00052 9.75 6.00051V5.00049Z" fill="#1C274C"/>
<path fill-rule="evenodd" clip-rule="evenodd" d="M12.75 17.0005C12.75 18.5192 11.5188 19.7505 10 19.7505C8.48122 19.7505 7.25 18.5192 7.25 17.0005C7.25 15.4817 8.48122 14.2505 10 14.2505C10.4501 14.2505 10.875 14.3586 11.25 14.5503V11.8296C11.2498 11.6677 11.2495 11.4552 11.2812 11.2895C11.362 10.8672 11.5955 10.4894 11.9371 10.2283C12.0711 10.1258 12.2248 10.0492 12.3697 9.97703L13.7397 9.29209C13.9425 9.19067 14.1204 9.10173 14.269 9.03693C14.4199 8.97116 14.5988 8.90342 14.7972 8.88028C15.6037 8.78621 16.3689 9.25914 16.6454 10.0225C16.7134 10.2103 16.7328 10.4006 16.7415 10.565C16.75 10.7269 16.75 10.9258 16.75 11.1526L16.75 11.2121C16.7503 11.374 16.7505 11.5457 16.7188 11.7114C16.638 12.1337 16.4045 12.5115 16.0629 12.7726C15.9289 12.8751 15.7752 12.9517 15.6303 13.0239L14.2603 13.7088C14.0575 13.8102 13.8796 13.8992 13.731 13.964C13.5801 14.0297 13.4012 14.0975 13.2028 14.1206C13.0493 14.1385 12.8974 14.1359 12.75 14.1147V17.0005ZM14.8684 10.412C14.9383 10.3815 14.9705 10.3718 14.9785 10.3694C15.0885 10.3599 15.1917 10.4237 15.2324 10.5263C15.2339 10.5345 15.2396 10.5677 15.2436 10.6438C15.2498 10.7615 15.25 10.9203 15.25 11.1713C15.25 11.2784 15.2499 11.3395 15.2482 11.3857C15.2472 11.4147 15.2458 11.4269 15.2454 11.43C15.2338 11.4899 15.2007 11.5435 15.1523 11.5807C15.1498 11.5824 15.1394 11.5891 15.114 11.603C15.0734 11.6251 15.0188 11.6525 14.9229 11.7005L13.6062 12.3588C13.3817 12.4711 13.2396 12.5419 13.1316 12.5889C13.0617 12.6194 13.0295 12.6291 13.0215 12.6315C12.9115 12.641 12.8083 12.5772 12.7676 12.4746C12.7661 12.4664 12.7604 12.4332 12.7564 12.3571C12.7502 12.2394 12.75 12.0806 12.75 11.8296C12.75 11.7225 12.7501 11.6614 12.7518 11.6152C12.7528 11.5862 12.7542 11.574 12.7546 11.5709C12.7662 11.511 12.7993 11.4574 12.8477 11.4202C12.8502 11.4185 12.8606 11.4118 12.886 11.3979C12.9266 11.3758 12.9812 11.3484 13.0771 11.3005L14.3938 10.6421C14.6183 10.5298 14.7604 10.459 14.8684 10.412ZM10 15.7505C10.6904 15.7505 11.25 16.3101 11.25 17.0005C11.25 17.6908 10.6904 18.2505 10 18.2505C9.30964 18.2505 8.75 17.6908 8.75 17.0005C8.75 16.3101 9.30964 15.7505 10 15.7505Z" fill="#1C274C"/>
</svg>
