<svg width="24" height="24" viewBox="0 0 24 24" fill="none" xmlns="http://www.w3.org/2000/svg">
<path opacity="0.5" d="M4.0828 10.8948C4.52171 8.55388 4.74117 7.38343 5.57434 6.69196C6.40752 6.00049 7.59835 6.00049 9.98003 6.00049H14.0209C16.4026 6.00049 17.5934 6.00049 18.4266 6.69196C19.2598 7.38343 19.4792 8.55387 19.9181 10.8948L20.6681 14.8948C21.2853 18.1865 21.5939 19.8323 20.6942 20.9164C19.7945 22.0005 18.12 22.0005 14.7709 22.0005H9.23003C5.88097 22.0005 4.20644 22.0005 3.30672 20.9164C2.40701 19.8323 2.7156 18.1865 3.3328 14.8948L4.0828 10.8948Z" fill="#1C274C"/>
<path d="M9.75 5.00049C9.75 3.75785 10.7574 2.75049 12 2.75049C13.2426 2.75049 14.25 3.75785 14.25 5.00049V6.00049C14.25 6.00048 14.25 6.0005 14.25 6.00049C14.816 6.00067 15.3119 6.00223 15.7499 6.01537C15.75 6.01042 15.75 6.00546 15.75 6.00049V5.00049C15.75 2.92942 14.0711 1.25049 12 1.25049C9.92893 1.25049 8.25 2.92942 8.25 5.00049V6.00049C8.25 6.00547 8.25005 6.01044 8.25015 6.0154C8.68814 6.00224 9.18397 6.00069 9.75 6.00051C9.75 6.0005 9.75 6.00052 9.75 6.00051V5.00049Z" fill="#1C274C"/>
<path d="M9.53033 10.4702C9.23744 10.1773 8.76256 10.1773 8.46967 10.4702C8.17678 10.7631 8.17678 11.2379 8.46967 11.5308L10.9394 14.0005L8.4697 16.4702C8.1768 16.7631 8.1768 17.2379 8.4697 17.5308C8.76259 17.8237 9.23746 17.8237 9.53036 17.5308L12 15.0612L14.4696 17.5308C14.7625 17.8237 15.2374 17.8237 15.5303 17.5308C15.8232 17.2379 15.8232 16.763 15.5303 16.4701L13.0607 14.0005L15.5303 11.5308C15.8232 11.2379 15.8232 10.7631 15.5303 10.4702C15.2374 10.1773 14.7626 10.1773 14.4697 10.4702L12 12.9398L9.53033 10.4702Z" fill="#1C274C"/>
</svg>
