<svg width="24" height="24" viewBox="0 0 24 24" fill="none" xmlns="http://www.w3.org/2000/svg">
<path fill-rule="evenodd" clip-rule="evenodd" d="M5.45974 6.73356C5.20239 4.61592 6.65212 2.66895 8.75467 2.30851L9.12781 2.24454C11.0289 1.91865 12.9715 1.91865 14.8726 2.24454L15.2457 2.30851C17.3483 2.66895 18.798 4.61592 18.5406 6.73356L18.5237 6.87277C18.4627 7.37471 18.0367 7.75213 17.531 7.75213H15.7672H14.25H9.75031H8.2331H6.46936C5.96373 7.75213 5.53766 7.37471 5.47666 6.87278L5.45974 6.73356Z" fill="#1C274C"/>
<path opacity="0.5" d="M8.2331 7.75208L5.2668 21.5948C5.18001 21.9998 5.43799 22.3985 5.84301 22.4853C6.24803 22.5721 6.64672 22.3141 6.73351 21.9091L7.6779 17.5019H16.3224L17.2668 21.9091C17.3536 22.3141 17.7523 22.5721 18.1573 22.4853C18.5623 22.3985 18.8203 21.9998 18.7335 21.5948L15.7672 7.75208H14.25C14.2501 7.80385 14.2555 7.85641 14.2668 7.90907L16.001 16.0019H7.99932L9.73351 7.90907C9.74479 7.85641 9.75025 7.80385 9.75031 7.75208H8.2331Z" fill="#1C274C"/>
</svg>
