<svg width="24" height="24" viewBox="0 0 24 24" fill="none" xmlns="http://www.w3.org/2000/svg">
<path fill-rule="evenodd" clip-rule="evenodd" d="M3.17149 18.8286C2.32795 17.985 2.09176 16.7713 2.02563 14.7501L1.99976 14.0001H21.9742V14.7501C21.9081 16.7713 21.6719 17.985 20.8283 18.8286C20.5239 19.133 20.1713 19.3583 19.7499 19.5251V22.0001C19.7499 22.4143 19.4141 22.7501 18.9999 22.7501C18.5857 22.7501 18.2499 22.4143 18.2499 22.0001V19.8714C17.18 20.0001 15.8063 20.0001 13.9999 20.0001H9.99992C8.19356 20.0001 6.81981 20.0001 5.74992 19.8714V22.0001C5.74992 22.4143 5.41413 22.7501 4.99992 22.7501C4.5857 22.7501 4.24992 22.4143 4.24992 22.0001V19.5251C3.82853 19.3583 3.47591 19.133 3.17149 18.8286ZM12.9999 17.0001C12.9999 17.5524 12.5522 18.0001 11.9999 18.0001C11.4476 18.0001 10.9999 17.5524 10.9999 17.0001C10.9999 16.4478 11.4476 16.0001 11.9999 16.0001C12.5522 16.0001 12.9999 16.4478 12.9999 17.0001Z" fill="#1C274C"/>
<path d="M3.17149 3.17169C2.32795 4.01524 2.09177 5.22894 2.02563 7.25012L1.99976 8.00012H21.9998L21.9742 7.25012C21.9081 5.22894 21.6719 4.01524 20.8283 3.17169C19.6568 2.00012 17.7712 2.00012 13.9999 2.00012H9.99992C6.22868 2.00012 4.34306 2.00012 3.17149 3.17169Z" fill="#1C274C"/>
<path opacity="0.5" fill-rule="evenodd" clip-rule="evenodd" d="M2 10.0001C2 9.55819 2.00189 8.39215 2.00377 8.00012H22C22.0019 8.39215 22 9.55819 22 10.0001V12.0001C22 12.4421 22 13.6081 21.9981 14.0001H2.00189C2 13.6081 2 12.4421 2 12.0001V10.0001Z" fill="#1C274C"/>
</svg>
