<svg width="24" height="24" viewBox="0 0 24 24" fill="none" xmlns="http://www.w3.org/2000/svg">
<g opacity="0.6">
<path d="M2 9.75012C2 9.30819 2 8.39215 2.00189 8.00012H11.2386V19.7501L10 19.7501C8.19364 19.7501 6.81989 19.7501 5.75 19.6214V21.7501C5.75 22.1643 5.41421 22.5001 5 22.5001C4.58579 22.5001 4.25 22.1643 4.25 21.7501V19.2751C3.82861 19.1083 3.47599 18.883 3.17157 18.5786C2 17.407 2 15.5214 2 11.7501V9.75012Z" fill="#1C274C"/>
<path d="M22 8.00012C22.0019 8.39215 22 9.30819 22 9.75012V11.7501C22 15.5214 22 17.407 20.8284 18.5786C20.524 18.883 20.1714 19.1083 19.75 19.2751V21.7501C19.75 22.1643 19.4142 22.5001 19 22.5001C18.5858 22.5001 18.25 22.1643 18.25 21.7501V19.6214C17.1801 19.7501 15.545 19.7501 13.7387 19.7501H13.7386L12.7386 19.7501V8.00012H22Z" fill="#1C274C"/>
</g>
<path d="M15.75 11.7501C15.75 11.3359 15.4142 11.0001 15 11.0001C14.5858 11.0001 14.25 11.3359 14.25 11.7501V14.7501C14.25 15.1643 14.5858 15.5001 15 15.5001C15.4142 15.5001 15.75 15.1643 15.75 14.7501V11.7501Z" fill="#1C274C"/>
<path d="M9.75 11.7501C9.75 11.3359 9.41421 11.0001 9 11.0001C8.58579 11.0001 8.25 11.3359 8.25 11.7501V14.7501C8.25 15.1643 8.58579 15.5001 9 15.5001C9.41421 15.5001 9.75 15.1643 9.75 14.7501V11.7501Z" fill="#1C274C"/>
<path d="M3.17125 2.92169C2.32771 3.76524 2.09152 4.97894 2.02539 7.00012V8.00012H11.25V19.7492H12.75V8.00012H21.974V7.00012C21.9078 4.97894 21.6716 3.76524 20.8281 2.92169C19.6565 1.75012 17.7709 1.75012 13.9997 1.75012H9.99967C6.22844 1.75012 4.34282 1.75012 3.17125 2.92169Z" fill="#1C274C"/>
</svg>
