<svg width="24" height="24" viewBox="0 0 24 24" fill="none" xmlns="http://www.w3.org/2000/svg">
<path fill-rule="evenodd" clip-rule="evenodd" d="M12 4.00024C11.4585 4.00024 10.9655 4.29335 9.97927 4.87955L7.02073 6.63816C6.03454 7.22437 5.54145 7.51747 5.27073 8.00024C5 8.48302 5 9.06922 5 10.2416V13.7589C5 14.9313 5 15.5175 5.27073 16.0002C5.54145 16.483 6.03454 16.7761 7.02073 17.3623L9.97927 19.1209C10.9655 19.7071 11.4585 20.0002 12 20.0002C12.5415 20.0002 13.0345 19.7071 14.0207 19.1209L16.9793 17.3623C17.9655 16.7761 18.4585 16.483 18.7293 16.0002C19 15.5175 19 14.9313 19 13.7589V10.2416C19 9.06922 19 8.48302 18.7293 8.00024C18.4585 7.51747 17.9655 7.22437 16.9793 6.63816L14.0207 4.87955C13.0345 4.29335 12.5415 4.00024 12 4.00024ZM16.3841 15.1446C16.7399 14.9325 16.8564 14.4722 16.6444 14.1164C16.4323 13.7606 15.9719 13.644 15.6161 13.8561L11.6161 16.2402C11.2603 16.4522 11.1438 16.9126 11.3559 17.2684C11.5679 17.6242 12.0283 17.7407 12.3841 17.5287L16.3841 15.1446Z" fill="#1C274C"/>
<g opacity="0.5">
<path d="M18.9714 8.92084C18.9395 8.53806 18.872 8.25477 18.7293 8.00024C18.6331 7.82877 18.5089 7.68123 18.3445 7.53598L21.5841 5.37629C21.9287 5.14652 22.3944 5.23965 22.6241 5.5843C22.8539 5.92895 22.7608 6.3946 22.4161 6.62436L18.9714 8.92084Z" fill="#1C274C"/>
<path d="M5.02863 15.0799C5.06054 15.4626 5.12802 15.7458 5.27073 16.0002C5.36692 16.1718 5.49118 16.3194 5.65566 16.4647L2.4161 18.6244C2.07146 18.8541 1.60581 18.761 1.37604 18.4163C1.14628 18.0717 1.23941 17.606 1.58405 17.3763L5.02863 15.0799Z" fill="#1C274C"/>
<path d="M5.65555 7.53592C5.49113 7.68119 5.3669 7.82875 5.27073 8.00024C5.12801 8.25475 5.06052 8.53801 5.02862 8.92074L1.58405 6.62436C1.23941 6.3946 1.14628 5.92895 1.37604 5.5843C1.60581 5.23965 2.07146 5.14652 2.4161 5.37629L5.65555 7.53592Z" fill="#1C274C"/>
</g>
</svg>
