<svg width="24" height="24" viewBox="0 0 24 24" fill="none" xmlns="http://www.w3.org/2000/svg">
<path fill-rule="evenodd" clip-rule="evenodd" d="M1.25 3.00024C1.25 2.58603 1.58579 2.25024 2 2.25024H22C22.4142 2.25024 22.75 2.58603 22.75 3.00024C22.75 3.41446 22.4142 3.75024 22 3.75024H2C1.58579 3.75024 1.25 3.41446 1.25 3.00024Z" fill="#1C274C"/>
<path opacity="0.5" d="M4 3.75024V13.2776C4 14.6177 4 15.2878 4.2681 15.8786C4.5362 16.4694 5.04046 16.9106 6.04896 17.7931L8.04897 19.5431C9.93152 21.1903 10.8728 22.0139 12 22.0139C13.1272 22.0139 14.0685 21.1903 15.951 19.5431L17.951 17.7931C18.9595 16.9106 19.4638 16.4694 19.7319 15.8786C20 15.2878 20 14.6177 20 13.2776V3.75024H4Z" fill="#1C274C"/>
<path fill-rule="evenodd" clip-rule="evenodd" d="M7.75 14.0002C7.75 13.586 8.08579 13.2502 8.5 13.2502H15.5C15.9142 13.2502 16.25 13.586 16.25 14.0002C16.25 14.4145 15.9142 14.7502 15.5 14.7502H8.5C8.08579 14.7502 7.75 14.4145 7.75 14.0002Z" fill="#1C274C"/>
<path fill-rule="evenodd" clip-rule="evenodd" d="M7.75 9.00024C7.75 8.58603 8.08579 8.25024 8.5 8.25024L15.5 8.25024C15.9142 8.25024 16.25 8.58603 16.25 9.00024C16.25 9.41446 15.9142 9.75024 15.5 9.75024H8.5C8.08579 9.75024 7.75 9.41446 7.75 9.00024Z" fill="#1C274C"/>
</svg>
