<svg width="24" height="24" viewBox="0 0 24 24" fill="none" xmlns="http://www.w3.org/2000/svg">
<path opacity="0.5" d="M9.5 22.0005C13.6421 22.0005 17 18.6426 17 14.5005C17 10.3584 13.6421 7.00049 9.5 7.00049C5.35786 7.00049 2 10.3584 2 14.5005C2 18.6426 5.35786 22.0005 9.5 22.0005Z" fill="#1C274C"/>
<path d="M17.9811 2.35365C18.1668 1.88277 18.8332 1.88277 19.0189 2.35365L19.6733 4.0129C19.73 4.15667 19.8438 4.27047 19.9876 4.32717L21.6468 4.98157C22.1177 5.16728 22.1177 5.8337 21.6468 6.01941L19.9876 6.67381C19.8438 6.73051 19.73 6.84431 19.6733 6.98807L19.0189 8.64733C18.8332 9.11821 18.1668 9.11821 17.9811 8.64733L17.3267 6.98807C17.27 6.84431 17.1562 6.73051 17.0124 6.67381L15.3532 6.01941C14.8823 5.8337 14.8823 5.16728 15.3532 4.98157L17.0124 4.32717C17.1562 4.27047 17.27 4.15667 17.3267 4.0129L17.9811 2.35365Z" fill="#1C274C"/>
<path opacity="0.7" d="M16.4772 6.46265L14.2466 8.6933C14.6344 9.01068 14.9899 9.36615 15.3072 9.75398L17.5378 7.52333L17.3267 6.988C17.27 6.84424 17.1562 6.73044 17.0124 6.67374L16.4772 6.46265Z" fill="#1C274C"/>
</svg>
