<svg width="24" height="24" viewBox="0 0 24 24" fill="none" xmlns="http://www.w3.org/2000/svg">
<path d="M7.42598 18.0005H20C19.9965 18.9301 19.9784 19.6233 19.8866 20.171C19.7773 20.8233 19.5774 21.1687 19.2709 21.4147C18.9643 21.6607 18.5339 21.8211 17.7211 21.9088C16.8844 21.9991 15.7754 22.0005 14.1854 22.0005H9.75461C8.1646 22.0005 7.05566 21.9991 6.21896 21.9088C5.40616 21.8211 4.97573 21.6607 4.66916 21.4147C4.36259 21.1687 4.16271 20.8233 4.05343 20.171C4.04522 20.1221 4.03761 20.0719 4.03053 20.0205C3.99045 19.7293 3.97041 19.5836 4.09696 19.2402C4.22351 18.8968 4.27837 18.843 4.38811 18.7352C4.71351 18.4156 5.15982 18.179 5.67321 18.0686C5.96352 18.0062 6.34236 18.0005 7.42598 18.0005Z" fill="#1C274C"/>
<path opacity="0.5" d="M4.72718 2.73381C5.03258 2.42584 5.46135 2.22505 6.27103 2.11527C7.10452 2.00226 8.2092 2.00049 9.7931 2.00049H14.2069C15.7908 2.00049 16.8955 2.00226 17.729 2.11527C18.5387 2.22505 18.9674 2.42584 19.2728 2.73381C19.5782 3.04178 19.7773 3.47417 19.8862 4.29069C19.9982 5.13122 20 6.24522 20 7.8425L20 18.0005H7.42598C6.34236 18.0005 5.96352 18.0062 5.67321 18.0686C5.15982 18.179 4.71351 18.4156 4.38811 18.7352C4.27837 18.843 4.22351 18.8968 4.09696 19.2402C4.02435 19.4372 4 19.5691 4 19.7008V7.8425C4 6.24522 4.00176 5.13122 4.11382 4.29069C4.22268 3.47417 4.42179 3.04178 4.72718 2.73381Z" fill="#1C274C"/>
<path d="M7.25 7.00049C7.25 6.58627 7.58579 6.25049 8 6.25049H16C16.4142 6.25049 16.75 6.58627 16.75 7.00049C16.75 7.4147 16.4142 7.75049 16 7.75049H8C7.58579 7.75049 7.25 7.4147 7.25 7.00049Z" fill="#1C274C"/>
<path d="M8 9.75049C7.58579 9.75049 7.25 10.0863 7.25 10.5005C7.25 10.9147 7.58579 11.2505 8 11.2505H13C13.4142 11.2505 13.75 10.9147 13.75 10.5005C13.75 10.0863 13.4142 9.75049 13 9.75049H8Z" fill="#1C274C"/>
</svg>
