<svg width="24" height="24" viewBox="0 0 24 24" fill="none" xmlns="http://www.w3.org/2000/svg">
<path d="M7.31034 16.2308C7.32206 16.2308 7.33382 16.2308 7.34563 16.2308L20 16.2308V7.97722C20 6.3431 19.9982 5.20341 19.8862 4.3435C19.7773 3.50816 19.5782 3.0658 19.2728 2.75072C18.9674 2.43565 18.5387 2.23022 17.729 2.11791C16.8955 2.0023 15.7908 2.00049 14.2069 2.00049H9.7931C8.79138 2.00049 7.98133 2.00121 7.31034 2.03099V16.2308Z" fill="#1C274C"/>
<path d="M5.65517 2.24007C5.2225 2.35912 4.9438 2.52744 4.72718 2.75093C4.42179 3.066 4.22268 3.50836 4.11382 4.34371C4.00176 5.20362 4 6.34331 4 7.97742V17.0005C4.38867 16.7203 4.82674 16.507 5.29899 16.3765C5.41296 16.345 5.53103 16.3203 5.65517 16.3009V2.24007Z" fill="#1C274C"/>
<path opacity="0.5" d="M6.27103 2.11527C5.46135 2.22505 5.03258 2.42584 4.72718 2.73381C4.42179 3.04178 4.22268 3.47417 4.11382 4.29069C4.00176 5.13122 4 6.24522 4 7.8425V19.7008C4 19.5691 4.02435 19.4372 4.09696 19.2402C4.22351 18.8968 4.27837 18.843 4.38811 18.7352C4.71351 18.4156 5.15982 18.179 5.67321 18.0686C5.96352 18.0062 6.34236 18.0005 7.42598 18.0005H8V20.0288C8 20.3059 8 20.4445 8.09485 20.5005C8.18971 20.5565 8.31943 20.4945 8.57888 20.3706L9.82112 19.7771C9.9089 19.7352 9.95279 19.7142 10 19.7142C10.0472 19.7142 10.0911 19.7352 10.1789 19.7771L11.4211 20.3706C11.6806 20.4945 11.8103 20.5565 11.9051 20.5005C12 20.4445 12 20.3059 12 20.0288V18.0005H20L20 7.8425C20 6.24522 19.9982 5.13122 19.8862 4.29069C19.7773 3.47417 19.5782 3.04178 19.2728 2.73381C18.9674 2.42584 18.5387 2.22505 17.729 2.11527C16.8955 2.00226 15.7908 2.00049 14.2069 2.00049H9.7931C8.2092 2.00049 7.10452 2.00226 6.27103 2.11527Z" fill="#1C274C"/>
<path d="M8 18.0005H7.42598C6.34236 18.0005 5.96352 18.0062 5.67321 18.0686C5.15982 18.179 4.71351 18.4156 4.38811 18.7352C4.27837 18.843 4.22351 18.8968 4.09696 19.2402C3.97041 19.5836 3.99045 19.7293 4.03053 20.0205C4.03761 20.0719 4.04522 20.1221 4.05343 20.171C4.16271 20.8233 4.36259 21.1687 4.66916 21.4147C4.97573 21.6607 5.40616 21.8211 6.21896 21.9088C7.05566 21.9991 8.1646 22.0005 9.75461 22.0005H14.1854C15.7754 22.0005 16.8844 21.9991 17.7211 21.9088C18.5339 21.8211 18.9643 21.6607 19.2709 21.4147C19.5774 21.1687 19.7773 20.8233 19.8866 20.171C19.9784 19.6233 19.9965 18.9301 20 18.0005H12V20.0288C12 20.3059 12 20.4445 11.9051 20.5005C11.8103 20.5565 11.6806 20.4945 11.4211 20.3706L10.1789 19.7771C10.0911 19.7352 10.0472 19.7142 10 19.7142C9.95279 19.7142 9.9089 19.7352 9.82112 19.7771L8.57888 20.3706C8.31943 20.4945 8.18971 20.5565 8.09485 20.5005C8 20.4445 8 20.3059 8 20.0288V18.0005Z" fill="#1C274C"/>
</svg>
