<svg width="24" height="24" viewBox="0 0 24 24" fill="none" xmlns="http://www.w3.org/2000/svg">
<path d="M14.5 19.9819C16.0728 19.942 17.1771 19.8155 18 19.4156V21.0004C18 21.5527 17.5523 22.0004 17 22.0004H15.5C14.9477 22.0004 14.5 21.5527 14.5 21.0004V19.9819Z" fill="#1C274C"/>
<path d="M6 19.4155C6.82289 19.8155 7.9272 19.942 9.5 19.9819V21.0004C9.5 21.5527 9.05228 22.0004 8.5 22.0004H7C6.44772 22.0004 6 21.5527 6 21.0004V19.4155Z" fill="#1C274C"/>
<path opacity="0.5" fill-rule="evenodd" clip-rule="evenodd" d="M5.17157 3.17206C6.34315 2.00049 8.22876 2.00049 12 2.00049C15.7712 2.00049 17.6569 2.00049 18.8284 3.17206C19.8915 4.23515 19.99 5.88618 19.9991 9.00049L20 13.0005C19.9909 16.1148 19.8915 17.7658 18.8284 18.8289C18.5862 19.0711 18.3136 19.2632 18 19.4156C17.1771 19.8156 16.0728 19.942 14.5 19.9819C13.7729 20.0004 12.9458 20.0005 12 20.0005C11.0542 20.0005 10.2271 20.0005 9.5 19.982C7.9272 19.942 6.82289 19.8155 6 19.4155C5.68645 19.2631 5.41375 19.0711 5.17157 18.8289C4.10848 17.7658 4.00911 16.1148 4 13.0005L4.00093 9.00049C4.01004 5.88618 4.10848 4.23515 5.17157 3.17206Z" fill="#1C274C"/>
<path d="M17.75 16.0005C17.75 15.5863 17.4142 15.2505 17 15.2505H15.5C15.0858 15.2505 14.75 15.5863 14.75 16.0005C14.75 16.4147 15.0858 16.7505 15.5 16.7505H17C17.4142 16.7505 17.75 16.4147 17.75 16.0005Z" fill="#1C274C"/>
<path d="M6.25 16.0005C6.25 15.5863 6.58579 15.2505 7 15.2505H8.5C8.91421 15.2505 9.25 15.5863 9.25 16.0005C9.25 16.4147 8.91421 16.7505 8.5 16.7505H7C6.58579 16.7505 6.25 16.4147 6.25 16.0005Z" fill="#1C274C"/>
<path d="M5.5 9.50049C5.5 10.9147 5.5 11.6218 5.93934 12.0611C6.37868 12.5005 7.08579 12.5005 8.5 12.5005H15.5C16.9142 12.5005 17.6213 12.5005 18.0607 12.0611C18.5 11.6218 18.5 10.9147 18.5 9.50049V7.00047C18.5 5.58627 18.5 4.87917 18.0607 4.43983C17.6213 4.00049 16.9142 4.00049 15.5 4.00049H8.5C7.08579 4.00049 6.37868 4.00049 5.93934 4.43983C5.5 4.87917 5.5 5.58627 5.5 7.00049V9.50049Z" fill="#1C274C"/>
<path d="M2.4 11.8005L4 13.0005L4.00093 9.00049H3C2.44772 9.00049 2 9.4482 2 10.0005V11.0005C2 11.3152 2.14819 11.6116 2.4 11.8005Z" fill="#1C274C"/>
<path d="M21 9.00049H19.999L20 13.0005L21.6 11.8005C21.8518 11.6116 22 11.3152 22 11.0005V10.0005C22 9.4482 21.5522 9.00049 21 9.00049Z" fill="#1C274C"/>
</svg>
