<svg width="24" height="24" viewBox="0 0 24 24" fill="none" xmlns="http://www.w3.org/2000/svg">
<path d="M6.96006 2.00049C7.37758 2.00049 7.71605 2.31045 7.71605 2.6928V4.08932C8.38663 4.07741 9.13829 4.07741 9.98402 4.07741H14.016C14.8617 4.07741 15.6134 4.07741 16.284 4.08932V2.6928C16.284 2.31045 16.6224 2.00049 17.0399 2.00049C17.4575 2.00049 17.7959 2.31045 17.7959 2.6928V4.15057C19.2468 4.25696 20.1992 4.51806 20.899 5.15886C21.5987 5.79966 21.8838 6.67188 22 8.00049V9.00049H2V8.00049C2.11618 6.67188 2.4013 5.79966 3.10104 5.15886C3.80079 4.51806 4.75323 4.25696 6.20406 4.15057V2.6928C6.20406 2.31045 6.54253 2.00049 6.96006 2.00049Z" fill="#1C274C"/>
<path opacity="0.5" d="M22 14.0005V12.0005C22 11.1615 21.9873 9.66575 21.9744 9.00049H2.00586C1.99296 9.66575 2.00564 11.1615 2.00564 12.0005V14.0005C2.00564 17.7717 2.00564 19.6573 3.17688 20.8289C4.34813 22.0005 6.23321 22.0005 10.0034 22.0005H14.0023C17.7724 22.0005 19.6575 22.0005 20.8288 20.8289C22 19.6573 22 17.7717 22 14.0005Z" fill="#1C274C"/>
<path fill-rule="evenodd" clip-rule="evenodd" d="M18.75 16.5005C17.5074 16.5005 16.5 17.5078 16.5 18.7505C16.5 19.9931 17.5074 21.0005 18.75 21.0005C19.9926 21.0005 21 19.9931 21 18.7505C21 17.5078 19.9926 16.5005 18.75 16.5005ZM15 18.7505C15 16.6794 16.6789 15.0005 18.75 15.0005C20.8211 15.0005 22.5 16.6794 22.5 18.7505C22.5 19.5148 22.2713 20.2257 21.8787 20.8185L23.2803 22.2202C23.5732 22.5131 23.5732 22.9879 23.2803 23.2808C22.9874 23.5737 22.5126 23.5737 22.2197 23.2808L20.818 21.8792C20.2252 22.2718 19.5143 22.5005 18.75 22.5005C16.6789 22.5005 15 20.8216 15 18.7505Z" fill="#1C274C"/>
</svg>
