<svg width="24" height="24" viewBox="0 0 24 24" fill="none" xmlns="http://www.w3.org/2000/svg">
<path d="M6.96006 2.00049C7.37758 2.00049 7.71605 2.31045 7.71605 2.6928V4.08932C8.38663 4.07741 9.13829 4.07741 9.98402 4.07741H14.016C14.8617 4.07741 15.6134 4.07741 16.284 4.08932V2.6928C16.284 2.31045 16.6224 2.00049 17.0399 2.00049C17.4575 2.00049 17.7959 2.31045 17.7959 2.6928V4.15057C19.2468 4.25696 20.1992 4.51806 20.899 5.15886C21.5987 5.79966 21.8838 6.67188 22 8.00049V9.00049H2V8.00049C2.11618 6.67188 2.4013 5.79966 3.10104 5.15886C3.80079 4.51806 4.75323 4.25696 6.20406 4.15057V2.6928C6.20406 2.31045 6.54253 2.00049 6.96006 2.00049Z" fill="#1C274C"/>
<path opacity="0.5" d="M22 14.0005V12.0005C22 11.1615 21.9873 9.66575 21.9744 9.00049H2.00586C1.99296 9.66575 2.00564 11.1615 2.00564 12.0005V14.0005C2.00564 17.7717 2.00564 19.6573 3.17688 20.8289C4.34813 22.0005 6.23321 22.0005 10.0034 22.0005H14.0023C17.7724 22.0005 19.6575 22.0005 20.8288 20.8289C22 19.6573 22 17.7717 22 14.0005Z" fill="#1C274C"/>
<path fill-rule="evenodd" clip-rule="evenodd" d="M16 13.2505C16.4142 13.2505 16.75 13.5863 16.75 14.0005V15.2505L18 15.2505C18.4142 15.2505 18.75 15.5863 18.75 16.0005C18.75 16.4147 18.4142 16.7505 18 16.7505H16.75L16.75 18.0005C16.75 18.4147 16.4142 18.7505 16 18.7505C15.5858 18.7505 15.25 18.4147 15.25 18.0005L15.25 16.7505L14 16.7505C13.5858 16.7505 13.25 16.4147 13.25 16.0005C13.25 15.5863 13.5858 15.2505 14 15.2505H15.25L15.25 14.0005C15.25 13.5863 15.5858 13.2505 16 13.2505Z" fill="#1C274C"/>
</svg>
