<svg width="24" height="24" viewBox="0 0 24 24" fill="none" xmlns="http://www.w3.org/2000/svg">
<path d="M6.94028 2.00049C7.35614 2.00049 7.69326 2.3247 7.69326 2.72463V4.18536C8.36117 4.1729 9.10983 4.1729 9.95219 4.1729H13.9681C14.8104 4.1729 15.5591 4.1729 16.227 4.18536V2.72463C16.227 2.3247 16.5641 2.00049 16.98 2.00049C17.3958 2.00049 17.733 2.3247 17.733 2.72463V4.24943C19.178 4.36071 20.1267 4.63382 20.8236 5.30408C21.5206 5.97434 21.8046 6.88665 21.9203 8.27635L22 9.00049H2.92456H2V8.27635C2.11571 6.88665 2.3997 5.97434 3.09665 5.30408C3.79361 4.63382 4.74226 4.36071 6.1873 4.24943V2.72463C6.1873 2.3247 6.52442 2.00049 6.94028 2.00049Z" fill="#1C274C"/>
<path opacity="0.5" d="M22 14.0006V12.0006C22 11.1615 21.9968 9.66575 21.9839 9.00049H2.00966C1.99675 9.66575 2.00001 11.1615 2.00001 12.0006V14.0006C2.00001 17.7718 2.00001 19.6574 3.17159 20.829C4.34316 22.0006 6.22878 22.0006 10 22.0006H14C17.7713 22.0006 19.6569 22.0006 20.8284 20.829C22 19.6574 22 17.7718 22 14.0006Z" fill="#1C274C"/>
</svg>
