<svg width="24" height="24" viewBox="0 0 24 24" fill="none" xmlns="http://www.w3.org/2000/svg">
<path d="M6.94028 2.00049C7.35614 2.00049 7.69326 2.3247 7.69326 2.72463V4.18536C8.36117 4.1729 9.10983 4.1729 9.95219 4.1729H13.9681C14.8104 4.1729 15.5591 4.1729 16.227 4.18536V2.72463C16.227 2.3247 16.5641 2.00049 16.98 2.00049C17.3958 2.00049 17.733 2.3247 17.733 2.72463V4.24943C19.178 4.36071 20.1267 4.63382 20.8236 5.30408C21.5206 5.97434 21.8046 6.88665 21.9203 8.27635L22 9.00049H2.92456H2V8.27635C2.11571 6.88665 2.3997 5.97434 3.09665 5.30408C3.79361 4.63382 4.74226 4.36071 6.1873 4.24943V2.72463C6.1873 2.3247 6.52442 2.00049 6.94028 2.00049Z" fill="#1C274C"/>
<path opacity="0.5" d="M22 14.0006V12.0006C22 11.1615 21.9967 9.66575 21.9838 9.00049H2.00964C1.99674 9.66575 2 11.1615 2 12.0006V14.0006C2 17.7718 2 19.6574 3.17157 20.829C4.34314 22.0006 6.22876 22.0006 10 22.0006H14C17.7712 22.0006 19.6569 22.0006 20.8284 20.829C22 19.6574 22 17.7718 22 14.0006Z" fill="#1C274C"/>
<path d="M18 17.0005C18 17.5528 17.5523 18.0005 17 18.0005C16.4477 18.0005 16 17.5528 16 17.0005C16 16.4482 16.4477 16.0005 17 16.0005C17.5523 16.0005 18 16.4482 18 17.0005Z" fill="#1C274C"/>
<path d="M18 13.0005C18 13.5528 17.5523 14.0005 17 14.0005C16.4477 14.0005 16 13.5528 16 13.0005C16 12.4482 16.4477 12.0005 17 12.0005C17.5523 12.0005 18 12.4482 18 13.0005Z" fill="#1C274C"/>
<path d="M13 17.0005C13 17.5528 12.5523 18.0005 12 18.0005C11.4477 18.0005 11 17.5528 11 17.0005C11 16.4482 11.4477 16.0005 12 16.0005C12.5523 16.0005 13 16.4482 13 17.0005Z" fill="#1C274C"/>
<path d="M13 13.0005C13 13.5528 12.5523 14.0005 12 14.0005C11.4477 14.0005 11 13.5528 11 13.0005C11 12.4482 11.4477 12.0005 12 12.0005C12.5523 12.0005 13 12.4482 13 13.0005Z" fill="#1C274C"/>
<path d="M8 17.0005C8 17.5528 7.55228 18.0005 7 18.0005C6.44772 18.0005 6 17.5528 6 17.0005C6 16.4482 6.44772 16.0005 7 16.0005C7.55228 16.0005 8 16.4482 8 17.0005Z" fill="#1C274C"/>
<path d="M8 13.0005C8 13.5528 7.55228 14.0005 7 14.0005C6.44772 14.0005 6 13.5528 6 13.0005C6 12.4482 6.44772 12.0005 7 12.0005C7.55228 12.0005 8 12.4482 8 13.0005Z" fill="#1C274C"/>
</svg>
