<svg width="24" height="24" viewBox="0 0 24 24" fill="none" xmlns="http://www.w3.org/2000/svg">
<path opacity="0.5" d="M3.55514 14.2577C2.83668 10.9048 2.47745 9.22842 3.378 8.11446C4.27855 7.00049 5.99302 7.00049 9.42196 7.00049H14.5781C18.0071 7.00049 19.7215 7.00049 20.6221 8.11446C21.5226 9.22842 21.1634 10.9048 20.4449 14.2577L20.0164 16.2577C19.5294 18.5302 19.2859 19.6665 18.4608 20.3335C17.6357 21.0005 16.4737 21.0005 14.1495 21.0005H9.85053C7.52639 21.0005 6.36432 21.0005 5.53925 20.3335C4.71418 19.6665 4.47069 18.5302 3.98372 16.2577L3.55514 14.2577Z" fill="#1C274C"/>
<path d="M8 11.2505C7.58579 11.2505 7.25 11.5863 7.25 12.0005C7.25 12.4147 7.58579 12.7505 8 12.7505H16C16.4142 12.7505 16.75 12.4147 16.75 12.0005C16.75 11.5863 16.4142 11.2505 16 11.2505H8Z" fill="#1C274C"/>
<path d="M9.25 15.0005C9.25 14.5863 9.58579 14.2505 10 14.2505H14C14.4142 14.2505 14.75 14.5863 14.75 15.0005C14.75 15.4147 14.4142 15.7505 14 15.7505H10C9.58579 15.7505 9.25 15.4147 9.25 15.0005Z" fill="#1C274C"/>
<path fill-rule="evenodd" clip-rule="evenodd" d="M14.6645 2.32971C15.035 2.14447 15.4855 2.29464 15.6707 2.66512L18.6707 8.66512C18.856 9.0356 18.7058 9.48611 18.3353 9.67135C17.9648 9.85659 17.5143 9.70643 17.3291 9.33594L14.3291 3.33594C14.1439 2.96546 14.294 2.51495 14.6645 2.32971Z" fill="#1C274C"/>
<path fill-rule="evenodd" clip-rule="evenodd" d="M9.33549 2.32971C8.96501 2.14447 8.5145 2.29464 8.32926 2.66512L5.32926 8.66512C5.14402 9.0356 5.29419 9.48611 5.66467 9.67135C6.03515 9.85659 6.48566 9.70643 6.6709 9.33594L9.6709 3.33594C9.85614 2.96546 9.70597 2.51495 9.33549 2.32971Z" fill="#1C274C"/>
</svg>
