<svg width="24" height="24" viewBox="0 0 24 24" fill="none" xmlns="http://www.w3.org/2000/svg">
<path opacity="0.5" d="M10.0234 2.00049C9.05694 2.00049 8.27344 2.78399 8.27344 3.75049C8.27344 4.71699 9.05694 5.50049 10.0234 5.50049H14.0234C14.9899 5.50049 15.7734 4.71699 15.7734 3.75049C15.7734 2.78399 14.9899 2.00049 14.0234 2.00049H10.0234Z" fill="#1C274C"/>
<path opacity="0.5" d="M3.88671 16.2057C3.02876 12.7739 2.59979 11.058 3.50062 9.90425C4.40145 8.75049 6.17016 8.75049 9.70756 8.75049H14.3382C17.8757 8.75049 19.6444 8.75049 20.5452 9.90425C21.446 11.058 21.0171 12.7739 20.1591 16.2057C19.6134 18.3884 19.3406 19.4797 18.5268 20.1151C17.713 20.7505 16.5881 20.7505 14.3382 20.7505H9.70756C7.45771 20.7505 6.33278 20.7505 5.519 20.1151C4.70521 19.4797 4.43238 18.3884 3.88671 16.2057Z" fill="#1C274C"/>
<path fill-rule="evenodd" clip-rule="evenodd" d="M4.64766 9.1181L7.50404 13.2242L11.2321 8.75049H12.768L16.496 13.2242L19.3612 9.10541C19.8682 9.27626 20.2525 9.52934 20.5452 9.90425C20.5608 9.92421 20.576 9.94433 20.5908 9.96463L17.4919 14.4192L19.8842 17.2899C19.7012 17.9886 19.5369 18.5414 19.3443 18.9851L16.6036 15.6963L13.0876 20.7505H10.9125L7.39651 15.6963L4.68603 18.9488C4.49631 18.5024 4.33322 17.9475 4.15078 17.2481L6.50815 14.4192L3.43188 9.9971C3.45389 9.96574 3.47681 9.9348 3.50066 9.90425C3.78622 9.53851 4.15899 9.28871 4.64766 9.1181ZM12 19.6872L8.39241 14.5012L12 10.172L15.6077 14.5012L12 19.6872Z" fill="#1C274C"/>
<path d="M15.6039 4.50288C15.7126 4.27498 15.7734 4.01989 15.7734 3.75058C15.7734 3.48253 15.7132 3.22855 15.6055 3.00146C16.289 3.00643 16.8217 3.03781 17.2973 3.22367C17.8655 3.44574 18.3597 3.82324 18.7234 4.313C19.0903 4.80708 19.2626 5.44037 19.4996 6.31202L19.546 6.48239L20.0587 9.44537C19.6501 9.16344 19.1231 8.99591 18.4414 8.89636L18.0801 6.80834C17.7964 5.76863 17.6934 5.4419 17.5191 5.20732C17.3233 4.9436 17.0572 4.74033 16.7512 4.62076C16.5314 4.53485 16.2658 4.50957 15.6039 4.50288Z" fill="#1C274C"/>
<path d="M8.44142 3.00147C8.3337 3.22855 8.27344 3.48253 8.27344 3.75058C8.27344 4.01989 8.33427 4.27499 8.44294 4.50288C7.78109 4.50958 7.51551 4.53485 7.29571 4.62076C6.98976 4.74033 6.72365 4.9436 6.5278 5.20732C6.35359 5.4419 6.25059 5.76863 5.96681 6.80834L5.60551 8.89627C4.92397 8.99576 4.39697 9.16318 3.98828 9.44491L4.50092 6.48239L4.54731 6.31203C4.78439 5.44038 4.95663 4.80708 5.32356 4.313C5.68728 3.82324 6.18149 3.44574 6.74968 3.22367C7.22521 3.03782 7.75793 3.00644 8.44142 3.00147Z" fill="#1C274C"/>
</svg>
