<svg width="24" height="24" viewBox="0 0 24 24" fill="none" xmlns="http://www.w3.org/2000/svg">
<path d="M7.5 18.0005C8.32843 18.0005 9 18.6721 9 19.5005C9 20.3289 8.32843 21.0005 7.5 21.0005C6.67157 21.0005 6 20.3289 6 19.5005C6 18.6721 6.67157 18.0005 7.5 18.0005Z" fill="#1C274C"/>
<path d="M16.5 18.0006C17.3284 18.0006 18 18.6721 18 19.5006C18 20.329 17.3284 21.0006 16.5 21.0006C15.6716 21.0006 15 20.329 15 19.5006C15 18.6721 15.6716 18.0006 16.5 18.0006Z" fill="#1C274C"/>
<path opacity="0.5" d="M2.08368 2.75169C2.22106 2.36092 2.64921 2.15552 3.03998 2.2929L3.34138 2.39887C3.95791 2.6156 4.48154 2.79968 4.89363 3.00188C5.33426 3.21808 5.71211 3.48442 5.99629 3.90028C6.27827 4.31292 6.39468 4.76564 6.44841 5.26202C6.47247 5.48422 6.48515 5.73016 6.49184 6.00049H17.1301C18.815 6.00049 20.3318 6.00049 20.7757 6.57757C21.2197 7.15465 21.0461 8.02418 20.699 9.76324L20.1992 12.188C19.8841 13.7168 19.7266 14.4813 19.1748 14.9309C18.6231 15.3805 17.8426 15.3805 16.2816 15.3805H10.9787C8.18979 15.3805 6.79534 15.3805 5.92894 14.4667C5.06254 13.5528 4.9993 12.5821 4.9993 9.64049L4.9993 7.03881C4.9993 6.29886 4.99828 5.80364 4.95712 5.42344C4.91779 5.06009 4.84809 4.87867 4.75783 4.74658C4.66977 4.61772 4.5361 4.49729 4.23288 4.3485C3.91003 4.1901 3.47128 4.03455 2.80367 3.79983L2.54246 3.70799C2.1517 3.57061 1.94629 3.14246 2.08368 2.75169Z" fill="#1C274C"/>
<path d="M13.75 9.00049C13.75 8.58627 13.4142 8.25049 13 8.25049C12.5858 8.25049 12.25 8.58627 12.25 9.00049V10.2505H11C10.5858 10.2505 10.25 10.5863 10.25 11.0005C10.25 11.4147 10.5858 11.7505 11 11.7505H12.25V13.0005C12.25 13.4147 12.5858 13.7505 13 13.7505C13.4142 13.7505 13.75 13.4147 13.75 13.0005V11.7505H15C15.4142 11.7505 15.75 11.4147 15.75 11.0005C15.75 10.5863 15.4142 10.2505 15 10.2505H13.75V9.00049Z" fill="#1C274C"/>
</svg>
