<svg width="24" height="24" viewBox="0 0 24 24" fill="none" xmlns="http://www.w3.org/2000/svg">
<path opacity="0.5" d="M3.04517 11.7505C3.17099 12.4648 3.34817 13.2917 3.55517 14.2577L3.98374 16.2577C4.47072 18.5302 4.7142 19.6665 5.53928 20.3335C6.36435 21.0005 7.52642 21.0005 9.85056 21.0005H14.1496C16.4737 21.0005 17.6358 21.0005 18.4608 20.3335C19.2859 19.6665 19.5294 18.5302 20.0164 16.2577L20.445 14.2577C20.652 13.2917 20.8291 12.4648 20.955 11.7505H3.04517Z" fill="#1C274C"/>
<path fill-rule="evenodd" clip-rule="evenodd" d="M9.25 14.0005C9.25 13.5863 9.58579 13.2505 10 13.2505H14C14.4142 13.2505 14.75 13.5863 14.75 14.0005C14.75 14.4147 14.4142 14.7505 14 14.7505H10C9.58579 14.7505 9.25 14.4147 9.25 14.0005Z" fill="#1C274C"/>
<path d="M8.32934 2.66512C8.51459 2.29464 8.96509 2.14447 9.33557 2.32971C9.70606 2.51495 9.85623 2.96546 9.67098 3.33594L7.83606 7.00579C8.31924 7.00052 8.84645 7.00052 9.42196 7.00052H14.5781C15.1537 7.00052 15.681 7.00052 16.1643 7.00579L14.3293 3.33594C14.1441 2.96546 14.2943 2.51495 14.6648 2.32971C15.0352 2.14447 15.4857 2.29464 15.671 2.66512L17.8721 7.06744C19.2252 7.1714 20.0742 7.43681 20.6221 8.11449C21.0575 8.65306 21.1984 9.32311 21.1466 10.2505H21.0002C21.0501 10.2505 21.0989 10.2554 21.146 10.2647C21.1209 10.6993 21.0538 11.1903 20.9552 11.7505H3.04537C2.94669 11.1903 2.8796 10.6993 2.85449 10.2647C2.90163 10.2554 2.95036 10.2505 3.00023 10.2505H2.85346C2.80168 9.32311 2.94261 8.65306 3.378 8.11449C3.92588 7.43677 4.77501 7.17136 6.12819 7.06742L8.32934 2.66512Z" fill="#1C274C"/>
</svg>
