<svg width="24" height="24" viewBox="0 0 24 24" fill="none" xmlns="http://www.w3.org/2000/svg">
<path fill-rule="evenodd" clip-rule="evenodd" d="M10.5812 2.25049L10.5608 2.25049C10.4473 2.25047 10.359 2.25046 10.2754 2.25552C9.21495 2.31974 8.28636 2.98904 7.89009 3.97474C7.85868 4.05287 7.80699 4.20805 7.77012 4.31874L7.76624 4.33038C7.66314 4.6103 7.47697 4.85272 7.26145 5.02583C7.03397 5.03319 6.81671 5.04269 6.60903 5.05494C4.96507 5.15193 3.92181 5.42171 3.17145 6.17206C2.92679 6.41673 2.73322 6.69253 2.58008 7.01014C2.63765 7.02979 2.69375 7.05681 2.74709 7.09147C4.84738 8.45666 6.16697 9.31057 7.26344 9.85835C7.32989 9.51215 7.63439 9.25058 7.99997 9.25058C8.41418 9.25058 8.74997 9.58637 8.74997 10.0006V10.4585C10.8694 11.0981 13.1305 11.0981 15.25 10.4585V10.0006C15.25 9.58637 15.5858 9.25058 16 9.25058C16.3656 9.25058 16.6701 9.51219 16.7365 9.85842C17.833 9.31064 19.1526 8.45672 21.253 7.09147C21.3063 7.05686 21.3623 7.02988 21.4197 7.01024C21.2666 6.69259 21.073 6.41675 20.8283 6.17206C20.078 5.42171 19.0347 5.15193 17.3907 5.05494C17.1936 5.04331 16.9878 5.03416 16.7728 5.02697C16.7593 5.01594 16.7457 5.00455 16.7321 4.9928C16.4914 4.78484 16.3032 4.5106 16.2083 4.25337L16.2052 4.24393C16.1693 4.13625 16.1414 4.05243 16.1101 3.97474C15.7139 2.98904 14.7853 2.31974 13.7248 2.25552C13.6412 2.25046 13.5529 2.25047 13.4394 2.25049L10.5812 2.25049ZM14.8175 4.81618L14.813 4.80544L14.8081 4.79335L14.8035 4.7814L14.7999 4.77146L14.7981 4.76645L14.7939 4.75422L14.7901 4.74293L14.788 4.73666L14.7852 4.72832L14.783 4.72128L14.7812 4.71559C14.7418 4.59757 14.7297 4.56253 14.7184 4.53424C14.5383 4.08619 14.1162 3.78197 13.6342 3.75278C13.6019 3.75082 13.5623 3.75049 13.419 3.75049H10.5812C10.4379 3.75049 10.3983 3.75082 10.3661 3.75278C9.88412 3.78197 9.46209 4.0861 9.28192 4.53403L9.27928 4.54101L9.27132 4.56293C9.26468 4.58153 9.2566 4.60478 9.24728 4.63205C9.23076 4.68043 9.2122 4.73594 9.19339 4.79235L9.19157 4.79826L9.18933 4.80529L9.1866 4.81363L9.1845 4.8199L9.18067 4.8312L9.17643 4.84344L9.17465 4.84845L9.17102 4.8584L9.16644 4.87036L9.16156 4.88248L9.15739 4.89239L9.15674 4.89385C9.14281 4.9297 9.12806 4.96547 9.11251 5.00113C9.39614 5.00049 9.69171 5.00049 9.99988 5.00049H13.9999C14.3114 5.00049 14.61 5.00049 14.8964 5.00115C14.8679 4.94004 14.8416 4.87833 14.8175 4.81618Z" fill="#1C274C"/>
<path opacity="0.5" d="M2.16208 8.5C2 9.60377 2 11.0499 2 13.0003C2 16.7716 2 18.6572 3.17157 19.8287C4.34315 21.0003 6.22876 21.0003 10 21.0003H14C17.7712 21.0003 19.6569 21.0003 20.8284 19.8287C22 18.6572 22 16.7716 22 13.0003C22 11.05 22 9.60395 21.8379 8.5002C19.5613 9.98003 18.1021 10.9238 16.7501 11.505V12.0004C16.7501 12.4146 16.4143 12.7504 16.0001 12.7504C15.5914 12.7504 15.259 12.4234 15.2503 12.0168C13.12 12.5784 10.8802 12.5784 8.74991 12.0168C8.74121 12.4234 8.40883 12.7504 8.00009 12.7504C7.58587 12.7504 7.25009 12.4146 7.25009 12.0004V11.5049C5.89804 10.9237 4.43881 9.97988 2.16208 8.5Z" fill="#1C274C"/>
</svg>
