<svg width="24" height="24" viewBox="0 0 24 24" fill="none" xmlns="http://www.w3.org/2000/svg">
<path opacity="0.5" d="M9.60601 5.5625C10.3721 5.5625 10.5197 5.40636 12 5.40636C13.4804 5.40636 13.6279 5.5625 14.394 5.5625C15.0324 5.5625 16.9477 4.00011 17.9053 4.00011C18.8629 4.00011 19.9801 4.56261 19.9801 6.18761V8.0625C19.9781 8.55469 19.7993 10.0634 19.0993 9.66022C20.2113 10.9744 19.98 12.5815 19.9801 14C19.9801 17.9062 14.7132 19 12 19C9.28677 19 4.01994 17.9062 4.01994 14C4.01995 12.5815 3.78875 10.9744 4.90066 9.66022C4.20072 10.0634 4.02188 8.55469 4.01995 8.0625V6.1875C4.01995 4.5625 5.13715 4 6.09476 4C7.05236 4 8.9676 5.5625 9.60601 5.5625Z" fill="#1C274C"/>
<path d="M9.0161 11.0625C8.52726 11.0625 8.20136 11.38 8.03634 11.6464C7.8642 11.9243 7.78222 12.2612 7.78222 12.5938C7.78222 12.9263 7.8642 13.2632 8.03634 13.5411C8.20136 13.8075 8.52726 14.125 9.0161 14.125C9.50493 14.125 9.83083 13.8075 9.99586 13.5411C10.168 13.2632 10.25 12.9263 10.25 12.5938C10.25 12.2612 10.168 11.9243 9.99586 11.6464C9.83083 11.38 9.50493 11.0625 9.0161 11.0625Z" fill="#1C274C"/>
<path d="M14.0363 11.6464C14.2014 11.38 14.5273 11.0625 15.0161 11.0625C15.5049 11.0625 15.8308 11.38 15.9959 11.6464C16.168 11.9243 16.25 12.2612 16.25 12.5938C16.25 12.9263 16.168 13.2632 15.9959 13.5411C15.8308 13.8075 15.5049 14.125 15.0161 14.125C14.5273 14.125 14.2014 13.8075 14.0363 13.5411C13.8642 13.2632 13.7822 12.9263 13.7822 12.5938C13.7822 12.2612 13.8642 11.9243 14.0363 11.6464Z" fill="#1C274C"/>
<path fill-rule="evenodd" clip-rule="evenodd" d="M11.1781 14.0797C11.4304 13.9819 11.7281 13.9375 12.0193 13.9375C12.3106 13.9375 12.6082 13.9819 12.8605 14.0797C12.9843 14.1276 13.1357 14.2032 13.269 14.3254C13.4029 14.448 13.5758 14.675 13.5758 15C13.5758 15.325 13.4029 15.552 13.269 15.6746C13.1357 15.7968 12.9843 15.8724 12.8605 15.9203C12.6082 16.0181 12.3106 16.0625 12.0193 16.0625C11.7281 16.0625 11.4304 16.0181 11.1781 15.9203C11.0543 15.8724 10.9029 15.7968 10.7696 15.6746C10.6358 15.552 10.4629 15.325 10.4629 15C10.4629 14.675 10.6358 14.448 10.7696 14.3254C10.9029 14.2032 11.0543 14.1276 11.1781 14.0797Z" fill="#1C274C"/>
<path d="M17.8632 13.375C17.8632 12.9608 18.199 12.625 18.6132 12.625C18.909 12.625 19.2635 12.6924 19.5938 12.7737C19.9385 12.8585 20.3133 12.9729 20.6704 13.095C21.3543 13.3289 22.0796 13.6271 22.4072 13.8387C22.7552 14.0634 22.8551 14.5277 22.6304 14.8756C22.4056 15.2236 21.9414 15.3235 21.5934 15.0988C21.4372 14.9979 20.8722 14.7493 20.1851 14.5144C19.8568 14.4021 19.5259 14.3017 19.2355 14.2302C18.9308 14.1553 18.7207 14.125 18.6132 14.125C18.199 14.125 17.8632 13.7892 17.8632 13.375Z" fill="#1C274C"/>
<path d="M17.9677 15.125C17.5535 15.125 17.2177 15.4608 17.2177 15.875C17.2177 16.2892 17.5535 16.625 17.9677 16.625C18.1739 16.625 18.5173 16.7402 18.948 16.9678C19.29 17.1485 19.6037 17.3533 19.849 17.5134C19.8951 17.5435 19.9392 17.5723 19.9802 17.5988C20.3282 17.8235 20.7924 17.7236 21.0171 17.3756C21.2418 17.0277 21.1419 16.5634 20.794 16.3387C20.7609 16.3173 20.723 16.2926 20.6811 16.2652C20.4387 16.1067 20.0585 15.8581 19.6488 15.6416C19.1923 15.4004 18.568 15.125 17.9677 15.125Z" fill="#1C274C"/>
<path d="M3.81519 14.5144C3.12811 14.7493 2.56308 14.9979 2.40686 15.0988C2.05891 15.3235 1.59466 15.2236 1.36994 14.8756C1.14522 14.5277 1.24512 14.0634 1.59307 13.8387C1.92073 13.6271 2.64602 13.3289 3.32991 13.095C3.68706 12.9729 4.06178 12.8585 4.40648 12.7737C4.73684 12.6924 5.09131 12.625 5.38707 12.625C5.80129 12.625 6.13707 12.9608 6.13707 13.375C6.13707 13.7892 5.80129 14.125 5.38707 14.125C5.2796 14.125 5.06956 14.1553 4.76484 14.2302C4.47446 14.3017 4.14353 14.4021 3.81519 14.5144Z" fill="#1C274C"/>
<path d="M4.02014 17.5988C4.06127 17.5722 4.10509 17.5436 4.15135 17.5134C4.39668 17.3533 4.71036 17.1485 5.05236 16.9678C5.48301 16.7402 5.82642 16.625 6.03261 16.625C6.44682 16.625 6.78261 16.2892 6.78261 15.875C6.78261 15.4608 6.44682 15.125 6.03261 15.125C5.43235 15.125 4.80801 15.4004 4.35157 15.6416C3.94185 15.8581 3.56166 16.1067 3.31926 16.2652C3.27739 16.2925 3.23944 16.3174 3.20636 16.3387C2.8584 16.5634 2.7585 17.0277 2.98322 17.3756C3.20794 17.7236 3.67219 17.8235 4.02014 17.5988Z" fill="#1C274C"/>
</svg>
