<svg width="24" height="24" viewBox="0 0 24 24" fill="none" xmlns="http://www.w3.org/2000/svg">
<path opacity="0.5" fill-rule="evenodd" clip-rule="evenodd" d="M11.25 4.75012V16.5001C11.25 18.0189 10.0188 19.2501 8.5 19.2501C6.98122 19.2501 5.75 18.0189 5.75 16.5001V15.9056H4.25V16.5001C4.25 18.8473 6.15279 20.7501 8.5 20.7501C9.95165 20.7501 11.2333 20.0223 12 18.9117C12.7667 20.0223 14.0484 20.7501 15.5 20.7501C17.8472 20.7501 19.75 18.8473 19.75 16.5001V15.9056H18.25V16.5001C18.25 18.0189 17.0188 19.2501 15.5 19.2501C13.9812 19.2501 12.75 18.0189 12.75 16.5001V4.75012H11.25Z" fill="#1C274C"/>
<path d="M9 3.25012C8.58579 3.25012 8.25 3.58591 8.25 4.00012C8.25 4.41434 8.58579 4.75012 9 4.75012H11.25H12.75H15C15.4142 4.75012 15.75 4.41434 15.75 4.00012C15.75 3.58591 15.4142 3.25012 15 3.25012H9Z" fill="#1C274C"/>
<path d="M16 13.0001C16 14.398 16.9561 15.5726 18.25 15.9056H19.75C21.0439 15.5726 22 14.398 22 13.0001V11.2001C22 10.5374 21.4627 10.0001 20.8 10.0001H17.2C16.5373 10.0001 16 10.5374 16 11.2001V13.0001Z" fill="#1C274C"/>
<path d="M2 13.0001C2 14.398 2.95608 15.5726 4.25 15.9056H5.75C7.04392 15.5726 8 14.398 8 13.0001V10.8573C8 10.3839 7.61624 10.0001 7.14286 10.0001H2.85714C2.38376 10.0001 2 10.3839 2 10.8573V13.0001Z" fill="#1C274C"/>
</svg>
