<svg width="24" height="24" viewBox="0 0 24 24" fill="none" xmlns="http://www.w3.org/2000/svg">
<path opacity="0.5" d="M12 22.0002C17.5228 22.0002 22 17.5231 22 12.0002C22 6.4774 17.5228 2.00024 12 2.00024C6.47715 2.00024 2 6.4774 2 12.0002C2 13.5999 2.37562 15.1119 3.04346 16.4527C3.22094 16.809 3.28001 17.2163 3.17712 17.6009L2.58151 19.8269C2.32295 20.7932 3.20701 21.6773 4.17335 21.4187L6.39939 20.8231C6.78393 20.7202 7.19121 20.7793 7.54753 20.9568C8.88837 21.6246 10.4003 22.0002 12 22.0002Z" fill="#1C274C"/>
<path d="M12.75 8.00024C12.75 7.58603 12.4142 7.25024 12 7.25024C11.5858 7.25024 11.25 7.58603 11.25 8.00024V8.01048C10.1612 8.28478 9.25 9.14324 9.25 10.3336C9.25 11.7905 10.6151 12.7502 12 12.7502C12.8242 12.7502 13.25 13.2829 13.25 13.6669C13.25 14.0509 12.8242 14.5836 12 14.5836C11.1758 14.5836 10.75 14.0509 10.75 13.6669C10.75 13.2527 10.4142 12.9169 10 12.9169C9.58579 12.9169 9.25 13.2527 9.25 13.6669C9.25 14.8572 10.1612 15.7157 11.25 15.99V16.0002C11.25 16.4145 11.5858 16.7502 12 16.7502C12.4142 16.7502 12.75 16.4145 12.75 16.0002V15.99C13.8388 15.7157 14.75 14.8572 14.75 13.6669C14.75 12.21 13.3849 11.2502 12 11.2502C11.1758 11.2502 10.75 10.7176 10.75 10.3336C10.75 9.94955 11.1758 9.41691 12 9.41691C12.8242 9.41691 13.25 9.94955 13.25 10.3336C13.25 10.7478 13.5858 11.0836 14 11.0836C14.4142 11.0836 14.75 10.7478 14.75 10.3336C14.75 9.14324 13.8388 8.28478 12.75 8.01048V8.00024Z" fill="#1C274C"/>
</svg>
