<svg width="24" height="24" viewBox="0 0 24 24" fill="none" xmlns="http://www.w3.org/2000/svg">
<path opacity="0.5" d="M12 22.0002C17.5228 22.0002 22 17.5231 22 12.0002C22 6.4774 17.5228 2.00024 12 2.00024C6.47715 2.00024 2 6.4774 2 12.0002C2 13.5999 2.37562 15.1119 3.04346 16.4527C3.22094 16.809 3.28001 17.2163 3.17712 17.6009L2.58151 19.8269C2.32295 20.7932 3.20701 21.6773 4.17335 21.4187L6.39939 20.8231C6.78393 20.7202 7.19121 20.7793 7.54753 20.9568C8.88837 21.6246 10.4003 22.0002 12 22.0002Z" fill="#1C274C"/>
<path d="M7.5 11.1086C7.5 12.477 8.81884 13.9127 10.0286 14.9419C10.8524 15.6428 11.2644 15.9932 12 15.9932C12.7356 15.9932 13.1476 15.6428 13.9714 14.9419C15.1812 13.9128 16.5 12.477 16.5 11.1085C16.5 8.43139 14.0249 7.43187 12 9.49995C9.97507 7.43187 7.5 8.43139 7.5 11.1086Z" fill="#1C274C"/>
</svg>
