<svg width="24" height="24" viewBox="0 0 24 24" fill="none" xmlns="http://www.w3.org/2000/svg">
<path opacity="0.5" d="M12 23.0002C18.0751 23.0002 23 18.0754 23 12.0002C23 5.92511 18.0751 1.00024 12 1.00024C5.92487 1.00024 1 5.92511 1 12.0002C1 13.7599 1.41318 15.423 2.14781 16.898C2.34303 17.2899 2.40801 17.7379 2.29483 18.1609L1.63966 20.6096C1.35525 21.6725 2.32772 22.645 3.39068 22.3606L5.83932 21.7054C6.26233 21.5922 6.71033 21.6572 7.10228 21.8524C8.5772 22.5871 10.2404 23.0002 12 23.0002Z" fill="#1C274C"/>
<path d="M10.9 12.0006C10.9 12.6081 11.3925 13.1006 12 13.1006C12.6075 13.1006 13.1 12.6081 13.1 12.0006C13.1 11.3931 12.6075 10.9006 12 10.9006C11.3925 10.9006 10.9 11.3931 10.9 12.0006Z" fill="#1C274C"/>
<path d="M6.5 12.0006C6.5 12.6081 6.99249 13.1006 7.6 13.1006C8.20751 13.1006 8.7 12.6081 8.7 12.0006C8.7 11.3931 8.20751 10.9006 7.6 10.9006C6.99249 10.9006 6.5 11.3931 6.5 12.0006Z" fill="#1C274C"/>
<path d="M15.3 12.0006C15.3 12.6081 15.7925 13.1006 16.4 13.1006C17.0075 13.1006 17.5 12.6081 17.5 12.0006C17.5 11.3931 17.0075 10.9006 16.4 10.9006C15.7925 10.9006 15.3 11.3931 15.3 12.0006Z" fill="#1C274C"/>
</svg>
