<svg width="24" height="24" viewBox="0 0 24 24" fill="none" xmlns="http://www.w3.org/2000/svg">
<path opacity="0.5" d="M21 15.9986V9.99863C21 7.1702 21 5.75599 20.1213 4.87731C19.3529 4.10892 18.175 4.01247 16 4.00037H8C5.82497 4.01247 4.64706 4.10892 3.87868 4.87731C3 5.75599 3 7.1702 3 9.99863V15.9986C3 18.8271 3 20.2413 3.87868 21.1199C4.75736 21.9986 6.17157 21.9986 9 21.9986H15C17.8284 21.9986 19.2426 21.9986 20.1213 21.1199C21 20.2413 21 18.8271 21 15.9986Z" fill="#1C274C"/>
<path d="M8 3.50037C8 2.67194 8.67157 2.00037 9.5 2.00037H14.5C15.3284 2.00037 16 2.67194 16 3.50037V4.50037C16 5.32879 15.3284 6.00037 14.5 6.00037H9.5C8.67157 6.00037 8 5.32879 8 4.50037V3.50037Z" fill="#1C274C"/>
<path fill-rule="evenodd" clip-rule="evenodd" d="M12 9.25037C12.4142 9.25037 12.75 9.58615 12.75 10.0004V12.2504L15 12.2504C15.4142 12.2504 15.75 12.5862 15.75 13.0004C15.75 13.4146 15.4142 13.7504 15 13.7504L12.75 13.7504L12.75 16.0004C12.75 16.4146 12.4142 16.7504 12 16.7504C11.5858 16.7504 11.25 16.4146 11.25 16.0004L11.25 13.7504H9C8.58579 13.7504 8.25 13.4146 8.25 13.0004C8.25 12.5862 8.58579 12.2504 9 12.2504L11.25 12.2504L11.25 10.0004C11.25 9.58615 11.5858 9.25037 12 9.25037Z" fill="#1C274C"/>
</svg>
