<svg width="24" height="24" viewBox="0 0 24 24" fill="none" xmlns="http://www.w3.org/2000/svg">
<path fill-rule="evenodd" clip-rule="evenodd" d="M12 2.00012H10C6.22876 2.00012 4.34315 2.00012 3.17157 3.17169C2 4.34327 2 6.22889 2 10.0001V12.0001C2 15.7714 2 17.657 3.17157 18.8285C3.47599 19.133 3.82861 19.3583 4.25 19.5251V22.0001C4.25 22.4143 4.58579 22.7501 5 22.7501C5.41421 22.7501 5.75 22.4143 5.75 22.0001V19.8714C6.81989 20.0001 8.19364 20.0001 10 20.0001H12V2.00012ZM9 8.25012C9.41421 8.25012 9.75 8.58591 9.75 9.00012V13.0001C9.75 13.4143 9.41421 13.7501 9 13.7501C8.58579 13.7501 8.25 13.4143 8.25 13.0001V9.00012C8.25 8.58591 8.58579 8.25012 9 8.25012Z" fill="#1C274C"/>
<path opacity="0.5" d="M14 20.0001H12V2.00012H14C17.7712 2.00012 19.6569 2.00012 20.8284 3.17169C22 4.34327 22 6.22889 22 10.0001V12.0001C22 15.7714 22 17.657 20.8284 18.8285C20.524 19.133 20.1714 19.3583 19.75 19.5251V22.0001C19.75 22.4143 19.4142 22.7501 19 22.7501C18.5858 22.7501 18.25 22.4143 18.25 22.0001V19.8714C17.1801 20.0001 15.8064 20.0001 14 20.0001Z" fill="#1C274C"/>
<path d="M15.75 9.00012C15.75 8.58591 15.4142 8.25012 15 8.25012C14.5858 8.25012 14.25 8.58591 14.25 9.00012V13.0001C14.25 13.4143 14.5858 13.7501 15 13.7501C15.4142 13.7501 15.75 13.4143 15.75 13.0001V9.00012Z" fill="#1C274C"/>
</svg>
