<svg width="24" height="24" viewBox="0 0 24 24" fill="none" xmlns="http://www.w3.org/2000/svg">
<path opacity="0.5" fill-rule="evenodd" clip-rule="evenodd" d="M10 22.0002H14C17.7712 22.0002 19.6569 22.0002 20.8284 20.8287C22 19.6571 22 17.7715 22 14.0002V13.5631C22 12.6903 22 12.0346 21.9574 11.5004H18L17.9051 11.5004C16.808 11.5004 15.8385 11.5005 15.0569 11.3954C14.2098 11.2816 13.3628 11.02 12.6716 10.3288C11.9803 9.63751 11.7188 8.79052 11.6049 7.9434C11.4998 7.16189 11.4999 6.19232 11.5 5.09521L11.5092 2.26081C11.5095 2.17837 11.5166 2.09684 11.53 2.01691C11.1214 2.00024 10.6358 2.00024 10.0298 2.00024C6.23869 2.00024 4.34315 2.00024 3.17157 3.17182C2 4.34339 2 6.22901 2 10.0002V14.0002C2 17.7715 2 19.6571 3.17157 20.8287C4.34315 22.0002 6.22876 22.0002 10 22.0002Z" fill="#1C274C"/>
<path d="M10.7022 14.2638C10.8477 13.8759 10.6512 13.4436 10.2633 13.2982C9.8755 13.1528 9.44319 13.3493 9.29775 13.7371L7.79775 17.7371C7.65231 18.1249 7.84882 18.5573 8.23666 18.7027C8.6245 18.8481 9.05681 18.6516 9.20225 18.2638L10.7022 14.2638Z" fill="#1C274C"/>
<path d="M7.53033 14.5308C7.82322 14.2379 7.82322 13.763 7.53033 13.4701C7.23744 13.1772 6.76256 13.1772 6.46967 13.4701L5.46967 14.4701C5.17678 14.763 5.17678 15.2379 5.46967 15.5308L6.46967 16.5308C6.76256 16.8237 7.23744 16.8237 7.53033 16.5308C7.82322 16.2379 7.82322 15.763 7.53033 15.4701L7.06066 15.0004L7.53033 14.5308Z" fill="#1C274C"/>
<path d="M12.0303 15.4701C11.7374 15.1772 11.2626 15.1772 10.9697 15.4701C10.6768 15.763 10.6768 16.2379 10.9697 16.5308L11.4393 17.0004L10.9697 17.4701C10.6768 17.763 10.6768 18.2379 10.9697 18.5308C11.2626 18.8237 11.7374 18.8237 12.0303 18.5308L13.0303 17.5308C13.3232 17.2379 13.3232 16.763 13.0303 16.4701L12.0303 15.4701Z" fill="#1C274C"/>
<path d="M11.5092 2.26034L11.5 5.09474C11.4999 6.19184 11.4998 7.16142 11.6049 7.94293C11.7188 8.79005 11.9803 9.63704 12.6716 10.3283C13.3629 11.0196 14.2098 11.2811 15.057 11.395C15.8385 11.5 16.808 11.5 17.9051 11.4999L21.9574 11.4999C21.9698 11.6554 21.9786 11.8213 21.9848 11.9998H22C22 11.7323 22 11.5985 21.9901 11.4411C21.9335 10.5465 21.5617 9.52149 21.0315 8.79877C20.9382 8.67155 20.8743 8.59517 20.7467 8.44243C19.9542 7.49383 18.911 6.31217 18 5.49978C17.1892 4.7767 16.0787 3.98561 15.1101 3.33874C14.2781 2.78299 13.862 2.50511 13.2915 2.29858C13.1403 2.24383 12.9408 2.18335 12.7846 2.1449C12.4006 2.05038 12.0268 2.0175 11.5 2.0061L11.5092 2.26034Z" fill="#1C274C"/>
</svg>
