<svg width="24" height="24" viewBox="0 0 24 24" fill="none" xmlns="http://www.w3.org/2000/svg">
<path d="M22 12.0001C22 13.1875 21.0374 14.1501 19.85 14.1501C18.6626 14.1501 17.7 13.1875 17.7 12.0001C17.7 10.8127 18.6626 9.85012 19.85 9.85012C21.0374 9.85012 22 10.8127 22 12.0001Z" fill="#1C274C"/>
<path opacity="0.5" d="M21.3582 10.385L13.6148 2.64161C12.7595 1.78629 11.3728 1.78629 10.5175 2.64161C9.66215 3.49692 9.66215 4.88366 10.5175 5.73897L18.2609 13.4824C18.4323 13.6538 18.6251 13.7909 18.8307 13.8936C18.1575 13.5304 17.7 12.8187 17.7 12.0001C17.7 10.8127 18.6626 9.85012 19.85 9.85012C21.0232 9.85012 21.9769 10.7897 21.9996 11.9575C22.0057 11.3891 21.7919 10.8187 21.3582 10.385Z" fill="#1C274C"/>
<path d="M12.5349 10.4047L13.8591 9.08057L14.773 9.99448L14.9197 10.1412L13.5955 11.4654C13.4826 11.5784 13.4619 11.7542 13.5457 11.8903L14.1916 12.94C14.929 14.1383 13.499 15.489 12.3446 14.6845L9.72175 12.8564L7.72702 11.4661L8.98638 13.2731L12.6712 18.56C13.4816 19.7227 12.1075 21.157 10.9111 20.3973L4.79546 16.5136L5.4448 17.8844C5.77832 18.5885 5.63444 19.4265 5.0826 19.9783L2.53033 22.5306C2.23744 22.8235 1.76256 22.8235 1.46967 22.5306C1.17678 22.2377 1.17678 21.7628 1.46967 21.47L4.02194 18.9177C4.12458 18.815 4.15191 18.659 4.08919 18.5265L3.13994 16.5226C2.58305 15.3469 3.91 14.1744 5.00816 14.8718L5.55239 15.2174L5.55349 15.2181L10.8641 18.5905L7.67509 14.015L5.84814 11.3937C5.01991 10.2054 6.46624 8.75904 7.65457 9.58727L11.1683 12.0362L12.4044 12.8978L12.2682 12.6764C12.0575 12.3341 11.9704 11.9443 12.0001 11.5651C12.0337 11.1384 12.2151 10.7245 12.5349 10.4047Z" fill="#1C274C"/>
</svg>
