<svg width="24" height="24" viewBox="0 0 24 24" fill="none" xmlns="http://www.w3.org/2000/svg">
<path fill-rule="evenodd" clip-rule="evenodd" d="M10.4036 22.4809L10.6787 22.0162C11.1195 21.2715 11.3399 20.8991 11.691 20.6914C12.0422 20.4837 12.5001 20.469 13.4161 20.4397C14.275 20.4123 14.8523 20.3373 15.3458 20.1329C16.385 19.7025 17.2106 18.8768 17.641 17.8377C17.9639 17.0583 17.9639 16.0703 17.9639 14.0942V13.246C17.9639 10.4695 17.9639 9.08128 17.3389 8.06145C16.9892 7.4908 16.5094 7.01102 15.9388 6.66133C14.919 6.03638 13.5307 6.03638 10.7542 6.03638H8.20964C5.43314 6.03638 4.04489 6.03638 3.02507 6.66133C2.45442 7.01102 1.97464 7.4908 1.62495 8.06145C1 9.08128 1 10.4695 1 13.246V14.0942C1 16.0703 1 17.0583 1.32282 17.8377C1.75326 18.8768 2.57886 19.7025 3.61802 20.1329C4.11158 20.3373 4.68882 20.4123 5.5477 20.4397C6.46368 20.469 6.92167 20.4837 7.27278 20.6914C7.6239 20.8991 7.84431 21.2715 8.28514 22.0162L8.5602 22.4809C8.97002 23.1733 9.9938 23.1733 10.4036 22.4809ZM13.1928 14.5183C13.7783 14.5183 14.253 14.0436 14.253 13.4581C14.253 12.8725 13.7783 12.3978 13.1928 12.3978C12.6072 12.3978 12.1325 12.8725 12.1325 13.4581C12.1325 14.0436 12.6072 14.5183 13.1928 14.5183ZM10.5422 13.4581C10.5422 14.0436 10.0675 14.5183 9.48193 14.5183C8.89637 14.5183 8.42169 14.0436 8.42169 13.4581C8.42169 12.8725 8.89637 12.3978 9.48193 12.3978C10.0675 12.3978 10.5422 12.8725 10.5422 13.4581ZM5.77108 14.5183C6.35664 14.5183 6.83133 14.0436 6.83133 13.4581C6.83133 12.8725 6.35664 12.3978 5.77108 12.3978C5.18553 12.3978 4.71084 12.8725 4.71084 13.4581C4.71084 14.0436 5.18553 14.5183 5.77108 14.5183Z" fill="#1C274C"/>
<path opacity="0.5" d="M15.486 1.00024C16.7529 1.00024 17.7603 1.00023 18.5683 1.07705C19.3967 1.15582 20.0972 1.32094 20.7212 1.70331C21.3632 2.09672 21.9029 2.63648 22.2963 3.27845C22.6787 3.90244 22.8438 4.6029 22.9226 5.43136C22.9994 6.23931 22.9994 7.24682 22.9994 8.51367V9.37894C22.9994 10.2805 22.9994 10.9977 22.9597 11.5793C22.9191 12.1742 22.8344 12.6851 22.6362 13.1635C22.152 14.3325 21.2232 15.2613 20.0541 15.7456C20.0249 15.7577 19.9955 15.7694 19.966 15.7807C19.8249 15.8346 19.7039 15.8808 19.5978 15.9153H17.9477C17.9639 15.4162 17.9639 14.8219 17.9639 14.0933V13.2451C17.9639 10.4686 17.9639 9.0803 17.3389 8.06048C16.9892 7.48983 16.5094 7.01004 15.9388 6.66035C14.919 6.0354 13.5307 6.0354 10.7542 6.0354H8.20964C7.22423 6.0354 6.41369 6.0354 5.73242 6.06334V4.41294C5.76513 4.29959 5.80995 4.16966 5.86255 4.01714C5.95202 3.75775 6.06509 3.51243 6.20848 3.27845C6.60188 2.63648 7.14163 2.09672 7.78361 1.70331C8.40759 1.32094 9.10805 1.15582 9.93651 1.07705C10.7445 1.00023 11.7519 1.00024 13.0188 1.00024H15.486Z" fill="#1C274C"/>
</svg>
