<svg width="24" height="24" viewBox="0 0 24 24" fill="none" xmlns="http://www.w3.org/2000/svg">
<path opacity="0.5" d="M3 10.0005C3 6.22925 3 4.34363 4.17157 3.17206C5.34315 2.00049 7.22876 2.00049 11 2.00049H13C16.7712 2.00049 18.6569 2.00049 19.8284 3.17206C21 4.34363 21 6.22925 21 10.0005V14.0005C21 17.7717 21 19.6573 19.8284 20.8289C18.6569 22.0005 16.7712 22.0005 13 22.0005H11C7.22876 22.0005 5.34315 22.0005 4.17157 20.8289C3 19.6573 3 17.7717 3 14.0005V10.0005Z" fill="#1C274C"/>
<path fill-rule="evenodd" clip-rule="evenodd" d="M12 5.25049C12.4142 5.25049 12.75 5.58627 12.75 6.00049V7.25049H14C14.4142 7.25049 14.75 7.58628 14.75 8.00049C14.75 8.4147 14.4142 8.75049 14 8.75049L12.75 8.75049L12.75 10.0005C12.75 10.4147 12.4142 10.7505 12 10.7505C11.5858 10.7505 11.25 10.4147 11.25 10.0005L11.25 8.75049H9.99997C9.58575 8.75049 9.24997 8.4147 9.24997 8.00049C9.24997 7.58628 9.58575 7.25049 9.99997 7.25049H11.25L11.25 6.00049C11.25 5.58627 11.5858 5.25049 12 5.25049ZM7.25 14.0005C7.25 13.5863 7.58579 13.2505 8 13.2505H16C16.4142 13.2505 16.75 13.5863 16.75 14.0005C16.75 14.4147 16.4142 14.7505 16 14.7505H8C7.58579 14.7505 7.25 14.4147 7.25 14.0005ZM8.25 18.0005C8.25 17.5863 8.58579 17.2505 9 17.2505H15C15.4142 17.2505 15.75 17.5863 15.75 18.0005C15.75 18.4147 15.4142 18.7505 15 18.7505H9C8.58579 18.7505 8.25 18.4147 8.25 18.0005Z" fill="#1C274C"/>
</svg>
