<svg width="24" height="24" viewBox="0 0 24 24" fill="none" xmlns="http://www.w3.org/2000/svg">
<path fill-rule="evenodd" clip-rule="evenodd" d="M22 10.0005V14.0005C22 14.9324 22 15.3983 21.8478 15.7659C21.6448 16.2559 21.2554 16.6453 20.7654 16.8482C20.3978 17.0005 19.9319 17.0005 19 17.0005C18.0681 17.0005 17.6022 17.0005 17.2346 16.8482C16.7446 16.6453 16.3552 16.2559 16.1522 15.7659C16 15.3983 16 14.4324 16 13.5005V10.5005C16 9.5686 16 8.60266 16.1522 8.23512C16.3552 7.74507 16.7446 7.35572 17.2346 7.15273C17.6022 7.00049 18.0681 7.00049 19 7.00049C19.9319 7.00049 20.3978 7.00049 20.7654 7.15273C21.2554 7.35572 21.6448 7.74507 21.8478 8.23512C22 8.60266 22 9.0686 22 10.0005ZM8 10.5005V13.5005C8 14.4324 8 15.3983 7.84776 15.7659C7.64477 16.2559 7.25542 16.6453 6.76537 16.8482C6.39782 17.0005 5.93188 17.0005 5 17.0005C4.06812 17.0005 3.60218 17.0005 3.23463 16.8482C2.74458 16.6453 2.35523 16.2559 2.15224 15.7659C2 15.3983 2 14.9324 2 14.0005V10.0005C2 9.0686 2 8.60266 2.15224 8.23512C2.35523 7.74507 2.74458 7.35572 3.23463 7.15273C3.60218 7.00049 4.06812 7.00049 5 7.00049C5.93188 7.00049 6.39782 7.00049 6.76537 7.15273C7.25542 7.35572 7.64477 7.74507 7.84776 8.23512C8 8.60266 8 9.5686 8 10.5005Z" fill="#1C274C"/>
<path opacity="0.5" d="M16 10.5005H8V13.5005H16V10.5005Z" fill="#1C274C"/>
</svg>
