<svg width="24" height="24" viewBox="0 0 24 24" fill="none" xmlns="http://www.w3.org/2000/svg">
<path fill-rule="evenodd" clip-rule="evenodd" d="M2.91863 6.60538C2.70067 6.09857 2.11331 5.86397 1.60608 6.08136C1.09845 6.29891 0.863659 6.88763 1.08121 7.39526L1.08165 7.39626L1.08272 7.39875L1.08571 7.40563L1.09509 7.42692C1.10287 7.44439 1.11368 7.46838 1.12757 7.49845C1.15534 7.55857 1.19544 7.64308 1.24815 7.7485C1.35349 7.95919 1.50964 8.2543 1.71883 8.60574C2.12776 9.29274 2.74534 10.205 3.59033 11.1248L2.79289 11.9222C2.40237 12.3128 2.40237 12.9459 2.79289 13.3364C3.18342 13.727 3.81658 13.727 4.20711 13.3364L5.04751 12.496C5.6125 12.9523 6.2441 13.3821 6.94422 13.7527L6.16181 14.9551C5.86061 15.418 5.9917 16.0375 6.45461 16.3387C6.91753 16.6399 7.53698 16.5088 7.83818 16.0459L8.82339 14.5318C9.50019 14.7393 10.2254 14.8871 11 14.9563V16.5005C11 17.0528 11.4477 17.5005 12 17.5005V13.0005C9.25231 13.0005 7.18106 11.8019 5.69638 10.4117C5.68828 10.4038 5.68007 10.3961 5.67177 10.3886C5.47328 10.2016 5.28536 10.0113 5.10779 9.82005C4.35444 9.00874 3.80142 8.19429 3.43742 7.58277C3.25598 7.27796 3.12307 7.02619 3.037 6.85407C2.99401 6.76808 2.96283 6.7022 2.94323 6.65978C2.93344 6.63858 2.92655 6.62326 2.92254 6.61425L2.91863 6.60538ZM1.08121 7.39526L2 7.0005C1.08085 7.39442 1.08121 7.39526 1.08121 7.39526Z" fill="#1C274C"/>
<path opacity="0.5" d="M15.2209 12.3986C14.2784 12.7696 13.209 13.0004 12 13.0004V17.5004C12.5523 17.5004 13 17.0527 13 16.5004V14.9561C13.772 14.887 14.4974 14.7394 15.1764 14.5313L16.1618 16.0458C16.463 16.5087 17.0825 16.6398 17.5454 16.3386C18.0083 16.0374 18.1394 15.418 17.8382 14.9551L17.0558 13.7526C17.757 13.3818 18.3885 12.9519 18.9527 12.4962L19.7929 13.3364C20.1834 13.7269 20.8166 13.7269 21.2071 13.3364C21.5976 12.9459 21.5976 12.3127 21.2071 11.9222L20.4097 11.1247C21.1521 10.3166 21.7181 9.51527 22.1207 8.86911C22.384 8.44651 22.5799 8.08633 22.7116 7.82817C22.7775 7.69898 22.8274 7.59501 22.8619 7.52115C22.8791 7.48421 22.8924 7.45477 22.902 7.43344L22.9134 7.4076L22.917 7.39938L22.9191 7.39436C23.1367 6.88673 22.9015 6.29885 22.3939 6.08129C21.8864 5.86379 21.2985 6.09916 21.0809 6.60652L21.0759 6.61771C21.0706 6.6295 21.0617 6.64915 21.0492 6.67604C21.0241 6.72986 20.9844 6.81259 20.9299 6.91952C20.8207 7.13361 20.6526 7.44335 20.4233 7.81143C19.9628 8.55048 19.2652 9.50882 18.3156 10.4001C17.4746 11.1896 16.4469 11.9161 15.2209 12.3986Z" fill="#1C274C"/>
</svg>
