<svg width="24" height="24" viewBox="0 0 24 24" fill="none" xmlns="http://www.w3.org/2000/svg">
<path opacity="0.5" fill-rule="evenodd" clip-rule="evenodd" d="M14 22.0002H10C6.22876 22.0002 4.34315 22.0002 3.17157 20.8287C2 19.6571 2 17.7715 2 14.0002V10.0002C2 6.22901 2 4.34339 3.17157 3.17182C4.34315 2.00024 6.23869 2.00024 10.0298 2.00024C10.6358 2.00024 11.1214 2.00024 11.53 2.01691C11.5166 2.09684 11.5095 2.17837 11.5092 2.26081L11.5 5.09521C11.4999 6.19232 11.4998 7.16189 11.6049 7.9434C11.7188 8.79052 11.9803 9.63751 12.6716 10.3288C13.3628 11.02 14.2098 11.2816 15.0569 11.3954C15.8385 11.5005 16.808 11.5004 17.9051 11.5004L18 11.5004H21.9574C22 12.0346 22 12.6903 22 13.5631V14.0002C22 17.7715 22 19.6571 20.8284 20.8287C19.6569 22.0002 17.7712 22.0002 14 22.0002Z" fill="#1C274C"/>
<path d="M8 14.5002C8 15.3287 7.55228 16.0002 7 16.0002C6.44772 16.0002 6 15.3287 6 14.5002C6 13.6718 6.44772 13.0002 7 13.0002C7.55228 13.0002 8 13.6718 8 14.5002Z" fill="#1C274C"/>
<path d="M9.4161 16.8763C9.07146 16.6465 8.60581 16.7397 8.37604 17.0843C8.14628 17.4289 8.23941 17.8946 8.58405 18.1244C10.6526 19.5034 13.3475 19.5034 15.4161 18.1244C15.7608 17.8946 15.8539 17.4289 15.6241 17.0843C15.3944 16.7397 14.9287 16.6465 14.5841 16.8763C13.0193 17.9194 10.9808 17.9194 9.4161 16.8763Z" fill="#1C274C"/>
<path d="M18 14.5002C18 15.3287 17.5523 16.0002 17 16.0002C16.4477 16.0002 16 15.3287 16 14.5002C16 13.6718 16.4477 13.0002 17 13.0002C17.5523 13.0002 18 13.6718 18 14.5002Z" fill="#1C274C"/>
<path d="M11.5092 2.26034L11.5 5.09474C11.4999 6.19184 11.4998 7.16142 11.6049 7.94293C11.7188 8.79005 11.9803 9.63704 12.6716 10.3283C13.3629 11.0196 14.2098 11.2811 15.057 11.395C15.8385 11.5 16.808 11.5 17.9051 11.4999L21.9574 11.4999C21.9698 11.6554 21.9786 11.8213 21.9848 11.9998H22C22 11.7323 22 11.5985 21.9901 11.4411C21.9335 10.5465 21.5617 9.52149 21.0315 8.79877C20.9382 8.67155 20.8743 8.59517 20.7467 8.44243C19.9542 7.49383 18.911 6.31217 18 5.49978C17.1892 4.7767 16.0787 3.98561 15.1101 3.33874C14.2781 2.78299 13.862 2.50511 13.2915 2.29858C13.1403 2.24383 12.9408 2.18335 12.7846 2.1449C12.4006 2.05038 12.0268 2.0175 11.5 2.0061L11.5092 2.26034Z" fill="#1C274C"/>
</svg>
