<svg width="24" height="24" viewBox="0 0 24 24" fill="none" xmlns="http://www.w3.org/2000/svg">
<path d="M11.5092 2.26034L11.5 5.09474C11.4999 6.19184 11.4998 7.16142 11.6049 7.94293C11.7188 8.79005 11.9803 9.63704 12.6716 10.3283C13.3629 11.0196 14.2098 11.2811 15.057 11.395C15.8385 11.5 16.808 11.5 17.9051 11.4999L21.9574 11.4999C21.9698 11.6554 21.9786 11.8213 21.9848 11.9998H22C22 11.7323 22 11.5985 21.9901 11.4411C21.9335 10.5465 21.5617 9.52149 21.0315 8.79877C20.9382 8.67155 20.8743 8.59517 20.7467 8.44243C19.9542 7.49383 18.911 6.31217 18 5.49978C17.1892 4.7767 16.0787 3.98561 15.1101 3.33874C14.2781 2.78299 13.862 2.50511 13.2915 2.29858C13.1403 2.24383 12.9408 2.18335 12.7846 2.1449C12.4006 2.05038 12.0268 2.0175 11.5 2.0061L11.5092 2.26034Z" fill="#1C274C"/>
<path opacity="0.5" d="M2 13.6626V9.77518C2 6.11004 2 4.27747 3.17157 3.13886C4.34315 2.00024 6.23869 2.00024 10.0298 2.00024C10.6212 2.00024 11.0979 2.00024 11.5003 2.01529L11.5092 2.25952L11.5 5.00814C11.5 5.06859 11.5 5.12866 11.5 5.1883C11.5 6.247 11.5028 7.18371 11.6049 7.94293C11.7188 8.79005 11.9803 9.63704 12.6716 10.3283C13.3629 11.0196 14.2098 11.2811 15.057 11.395C15.8385 11.5 16.808 11.5 17.9051 11.4999L21.9574 11.4999C21.9698 11.6554 21.9786 11.8213 21.9848 11.9998H21.9926C22 12.3576 22 12.7649 22 13.2378V13.6626C22 13.8972 22 14.1243 21.9997 14.3442L21.9877 14.3505C21.8628 14.4159 21.7638 14.4677 21.7205 14.4958C20.682 15.1684 19.3292 15.1684 18.2908 14.4958C17.5119 13.9914 16.4973 13.9914 15.7185 14.4958C14.6801 15.1684 13.3272 15.1684 12.2888 14.4958C11.51 13.9914 10.4954 13.9914 9.71653 14.4958C8.67811 15.1684 7.32527 15.1684 6.28684 14.4958C5.50802 13.9914 4.49339 13.9914 3.71457 14.4958C3.57738 14.5847 3.50878 14.6291 3.4595 14.6539C3.07304 14.848 2.44233 14.6808 2.00034 14.3642C2 14.1381 2 13.9044 2 13.6626Z" fill="#1C274C"/>
<path d="M9.99992 22.0002H14.0001C17.7714 22.0002 19.6571 22.0002 20.8287 21.067C21.9253 20.1934 21.9955 18.8216 22 16.1861L21.988 16.1912C21.8631 16.2448 21.7641 16.2873 21.7208 16.3103C20.6823 16.8616 19.3294 16.8616 18.291 16.3103C17.5121 15.8969 16.4974 15.8969 15.7186 16.3103C14.6801 16.8616 13.3273 16.8616 12.2888 16.3103C11.51 15.8969 10.4953 15.8969 9.71645 16.3103C8.67798 16.8616 7.3251 16.8616 6.28664 16.3103C5.5078 15.8969 4.49314 15.8969 3.71429 16.3103C3.57709 16.3832 3.50849 16.4196 3.45921 16.4399C3.07274 16.599 2.44201 16.462 2 16.2025C2.00476 18.8273 2.07693 20.1952 3.17127 21.067C4.34289 22.0002 6.22856 22.0002 9.99992 22.0002Z" fill="#1C274C"/>
</svg>
