<svg width="24" height="24" viewBox="0 0 24 24" fill="none" xmlns="http://www.w3.org/2000/svg">
<path opacity="0.5" fill-rule="evenodd" clip-rule="evenodd" d="M10 22.0002H14C17.7712 22.0002 19.6569 22.0002 20.8284 20.8287C22 19.6571 22 17.7715 22 14.0002V13.5631C22 12.6903 22 12.0346 21.9574 11.5004H18L17.9051 11.5004C16.808 11.5004 15.8385 11.5005 15.0569 11.3954C14.2098 11.2816 13.3628 11.02 12.6716 10.3288C11.9803 9.63751 11.7188 8.79052 11.6049 7.9434C11.4998 7.16189 11.4999 6.19232 11.5 5.09521L11.5092 2.26081C11.5095 2.17837 11.5166 2.09684 11.53 2.01691C11.1214 2.00024 10.6358 2.00024 10.0298 2.00024C6.23869 2.00024 4.34315 2.00024 3.17157 3.17182C2 4.34339 2 6.22901 2 10.0002V14.0002C2 17.7715 2 19.6571 3.17157 20.8287C4.34315 22.0002 6.22876 22.0002 10 22.0002Z" fill="#1C274C"/>
<path d="M6.53033 14.4699C6.23744 14.177 5.76256 14.177 5.46967 14.4699C5.17678 14.7628 5.17678 15.2377 5.46967 15.5306L6.43934 16.5002L5.46967 17.4699C5.17678 17.7628 5.17678 18.2377 5.46967 18.5306C5.76256 18.8235 6.23744 18.8235 6.53033 18.5306L7.5 17.5609L8.46967 18.5306C8.76256 18.8235 9.23744 18.8235 9.53033 18.5306C9.82322 18.2377 9.82322 17.7628 9.53033 17.4699L8.56066 16.5002L9.53033 15.5306C9.82322 15.2377 9.82322 14.7628 9.53033 14.4699C9.23744 14.177 8.76256 14.177 8.46967 14.4699L7.5 15.4396L6.53033 14.4699Z" fill="#1C274C"/>
<path d="M11.5092 2.26034L11.5 5.09474C11.4999 6.19184 11.4998 7.16142 11.6049 7.94293C11.7188 8.79005 11.9803 9.63704 12.6716 10.3283C13.3629 11.0196 14.2098 11.2811 15.057 11.395C15.8385 11.5 16.808 11.5 17.9051 11.4999L21.9574 11.4999C21.9698 11.6554 21.9786 11.8213 21.9848 11.9998H22C22 11.7323 22 11.5985 21.9901 11.4411C21.9335 10.5465 21.5617 9.52149 21.0315 8.79877C20.9382 8.67155 20.8743 8.59517 20.7467 8.44243C19.9542 7.49383 18.911 6.31217 18 5.49978C17.1892 4.7767 16.0787 3.98561 15.1101 3.33874C14.2781 2.78299 13.862 2.50511 13.2915 2.29858C13.1403 2.24383 12.9408 2.18335 12.7846 2.1449C12.4006 2.05038 12.0268 2.0175 11.5 2.0061L11.5092 2.26034Z" fill="#1C274C"/>
</svg>
