<svg width="24" height="24" viewBox="0 0 24 24" fill="none" xmlns="http://www.w3.org/2000/svg">
<path opacity="0.5" fill-rule="evenodd" clip-rule="evenodd" d="M14 22.0002H10C6.22876 22.0002 4.34315 22.0002 3.17157 20.8287C2 19.6571 2 17.7715 2 14.0002V10.0002C2 6.22901 2 4.34339 3.17157 3.17182C4.34315 2.00024 6.23869 2.00024 10.0298 2.00024C10.6358 2.00024 11.1214 2.00024 11.53 2.01691C11.5166 2.09684 11.5095 2.17837 11.5092 2.26081L11.5 5.09521C11.4999 6.19232 11.4998 7.16189 11.6049 7.9434C11.7188 8.79052 11.9803 9.63751 12.6716 10.3288C13.3628 11.02 14.2098 11.2816 15.0569 11.3954C15.8385 11.5005 16.808 11.5004 17.9051 11.5004L18 11.5004H21.9574C22 12.0346 22 12.6903 22 13.5631V14.0002C22 17.7715 22 19.6571 20.8284 20.8287C19.6569 22.0002 17.7712 22.0002 14 22.0002Z" fill="#1C274C"/>
<path d="M10.5606 15.4985C10.8358 15.1889 10.8079 14.7149 10.4983 14.4397C10.1887 14.1645 9.71464 14.1924 9.43945 14.502L7.33334 16.8714L6.56056 16.002C6.28538 15.6924 5.81132 15.6645 5.50174 15.9397C5.19215 16.2149 5.16426 16.6889 5.43945 16.9985L6.77278 18.4985C6.91511 18.6586 7.11911 18.7503 7.33334 18.7503C7.54757 18.7503 7.75157 18.6586 7.8939 18.4985L10.5606 15.4985Z" fill="#1C274C"/>
<path d="M11.5092 2.26046L11.5 5.09487C11.4999 6.19197 11.4998 7.16154 11.6049 7.94306C11.7188 8.79017 11.9803 9.63716 12.6716 10.3284C13.3629 11.0197 14.2098 11.2812 15.057 11.3951C15.8385 11.5002 16.808 11.5001 17.9051 11.5L21.9574 11.5C21.9698 11.6556 21.9786 11.8214 21.9848 11.9999H22C22 11.7324 22 11.5987 21.9901 11.4412C21.9335 10.5466 21.5617 9.52161 21.0315 8.79889C20.9382 8.67167 20.8743 8.5953 20.7467 8.44255C19.9542 7.49396 18.911 6.31229 18 5.4999C17.1892 4.77682 16.0787 3.98573 15.1101 3.33886C14.2781 2.78311 13.862 2.50524 13.2915 2.29871C13.1403 2.24395 12.9408 2.18347 12.7846 2.14503C12.4006 2.0505 12.0268 2.01762 11.5 2.00623L11.5092 2.26046Z" fill="#1C274C"/>
</svg>
