<svg width="24" height="24" viewBox="0 0 24 24" fill="none" xmlns="http://www.w3.org/2000/svg">
<path d="M11.9998 7.00012C13.3128 7.00012 14.4288 6.15666 14.8354 4.98202C15.0161 4.46013 14.5521 4.00012 13.9998 4.00012H9.99981C9.44752 4.00012 8.98349 4.46013 9.16418 4.98202C9.57086 6.15666 10.6868 7.00012 11.9998 7.00012Z" fill="#1C274C"/>
<path opacity="0.5" d="M12 2.00012C13.1046 2.00012 14 2.89555 14 4.00012H10C10 2.89555 10.8954 2.00012 12 2.00012Z" fill="#1C274C"/>
<path d="M6.45475 10.98C6.4777 10.9506 6.50003 10.9209 6.52175 10.891C7.28695 9.83658 7.29596 8.44309 6.62892 7.39309C6.32414 6.91334 5.66094 6.99556 5.31133 7.44312L2.77924 10.6846C2.42963 11.1321 2.50535 11.802 3.03889 11.9889C4.23974 12.4096 5.62361 12.0439 6.45475 10.98Z" fill="#1C274C"/>
<path opacity="0.5" d="M2.43904 7.78642C3.13826 6.89132 4.42425 6.73761 5.31139 7.4431L2.7793 10.6846C1.89216 9.97906 1.73982 8.68152 2.43904 7.78642Z" fill="#1C274C"/>
<path d="M17.5452 10.98C17.5223 10.9506 17.5 10.9209 17.4783 10.891C16.713 9.83658 16.704 8.44309 17.3711 7.39309C17.6759 6.91334 18.3391 6.99556 18.6887 7.44312L21.2208 10.6846C21.5704 11.1321 21.4947 11.802 20.9611 11.9889C19.7603 12.4096 18.3764 12.0439 17.5452 10.98Z" fill="#1C274C"/>
<path opacity="0.5" d="M21.561 7.78642C20.8617 6.89132 19.5757 6.73761 18.6886 7.4431L21.2207 10.6846C22.1078 9.97906 22.2602 8.68152 21.561 7.78642Z" fill="#1C274C"/>
<path fill-rule="evenodd" clip-rule="evenodd" d="M8.25 22.0001C8.25 21.5859 8.58579 21.2501 9 21.2501H15C15.4142 21.2501 15.75 21.5859 15.75 22.0001C15.75 22.4143 15.4142 22.7501 15 22.7501H9C8.58579 22.7501 8.25 22.4143 8.25 22.0001Z" fill="#1C274C"/>
<g opacity="0.55">
<path d="M12 7.00013C12.2571 7.00013 12.5066 6.9678 12.7447 6.90698C12.7485 6.9375 12.7504 6.96859 12.7504 7.00013V13.4071C12.8727 13.2897 13.0016 13.1782 13.1369 13.0731L13.1486 13.0641L17.0893 10.1714C17.1847 10.4224 17.3141 10.6645 17.4785 10.891C17.5002 10.9209 17.5225 10.9506 17.5455 10.98C17.6676 11.1363 17.8017 11.2776 17.9454 11.4036L14.0455 14.2667C13.23 14.9052 12.7506 15.8904 12.7506 16.937V18.0001L12.7504 18.016V21.2501H11.2504V16.9034C11.2403 15.8695 10.7623 14.8984 9.95535 14.2667L6.05518 11.4034C6.19882 11.2775 6.33287 11.1363 6.45499 10.98C6.47793 10.9506 6.50026 10.9209 6.52198 10.891C6.68638 10.6645 6.81587 10.4223 6.91126 10.1712L10.8523 13.0641L10.864 13.0731C10.9993 13.1782 11.1282 13.2897 11.2504 13.4071V7.00013C11.2504 6.96865 11.2524 6.93763 11.2561 6.90718C11.494 6.96787 11.7433 7.00013 12 7.00013Z" fill="#1C274C"/>
<path d="M11.9977 22.7501L12.0004 22.7501L12.0031 22.7501H11.9977Z" fill="#1C274C"/>
</g>
</svg>
