<svg width="24" height="24" viewBox="0 0 24 24" fill="none" xmlns="http://www.w3.org/2000/svg">
<path fill-rule="evenodd" clip-rule="evenodd" d="M3.35791 12.7789C2.74772 13.7203 2.99956 15.0293 3.50323 17.6472C3.8658 19.5318 4.04709 20.4741 4.67523 21.0994C4.8382 21.2616 5.02054 21.4054 5.2186 21.5279C5.98195 22.0001 6.99539 22.0001 9.02227 22.0001H15.9777C18.0046 22.0001 19.0181 22.0001 19.7814 21.5279C19.9795 21.4054 20.1618 21.2616 20.3248 21.0994C20.9529 20.4741 21.1342 19.5318 21.4968 17.6472C22.0004 15.0293 22.2523 13.7203 21.6421 12.7789C21.4864 12.5387 21.2943 12.3212 21.0721 12.1335C20.2011 11.3977 18.7933 11.3977 15.9777 11.3977H9.02227C6.20667 11.3977 4.79888 11.3977 3.92792 12.1335C3.70566 12.3212 3.51363 12.5387 3.35791 12.7789ZM9.69518 17.1808C9.69518 16.7816 10.0376 16.4579 10.4601 16.4579H14.5398C14.9622 16.4579 15.3047 16.7816 15.3047 17.1808C15.3047 17.5801 14.9622 17.9037 14.5398 17.9037H10.4601C10.0376 17.9037 9.69518 17.5801 9.69518 17.1808Z" fill="#1C274C"/>
<path opacity="0.5" d="M3.5762 12.4847C3.68271 12.3587 3.80034 12.2411 3.92792 12.1333C4.79888 11.3976 6.20667 11.3976 9.02227 11.3976H15.9777C18.7933 11.3976 20.2011 11.3976 21.0721 12.1333C21.2 12.2414 21.3179 12.3593 21.4247 12.4858V9.75591C21.4247 8.84699 21.4247 8.09291 21.3394 7.49168C21.2494 6.85716 21.0531 6.2947 20.5839 5.83258C20.5074 5.75719 20.4266 5.68564 20.342 5.61819C19.8302 5.21036 19.2167 5.04357 18.5222 4.96621C17.8531 4.89167 17.0102 4.89169 15.9769 4.89171L15.6242 4.89171C14.6421 4.89171 14.29 4.88599 13.9711 4.80545C13.7837 4.75814 13.604 4.69207 13.4352 4.6089C13.151 4.46879 12.9033 4.25774 12.2077 3.64144L11.7336 3.2214C11.5345 3.04501 11.3987 2.92462 11.2531 2.81768C10.6284 2.35891 9.86779 2.08144 9.07145 2.01546C8.88602 2.0001 8.6968 2.00012 8.41356 2.00014L8.29714 2.00013C7.65647 2.00002 7.23365 1.99995 6.86652 2.06132C5.26167 2.32959 3.96392 3.45155 3.64782 4.93587C3.57591 5.27357 3.57602 5.66047 3.57619 6.21865L3.5762 12.4847Z" fill="#1C274C"/>
</svg>
