<svg width="24" height="24" viewBox="0 0 24 24" fill="none" xmlns="http://www.w3.org/2000/svg">
<path d="M18.5116 10.0772C18.5116 10.8158 17.8869 11.4146 17.1163 11.4146C16.3457 11.4146 15.7209 10.8158 15.7209 10.0772C15.7209 9.3385 16.3457 8.73969 17.1163 8.73969C17.8869 8.73969 18.5116 9.3385 18.5116 10.0772Z" fill="#1C274C"/>
<path fill-rule="evenodd" clip-rule="evenodd" d="M18.0363 5.53254C16.9766 5.39597 15.6225 5.39598 13.9129 5.396H10.0871C8.37751 5.39598 7.02343 5.39597 5.9637 5.53254C4.87308 5.67309 3.99033 5.96922 3.29418 6.6365C2.59803 7.30378 2.28908 8.14991 2.14245 9.1953C1.99997 10.2111 1.99999 11.509 2 13.1476V13.2483C1.99999 14.8869 1.99997 16.1848 2.14245 17.2006C2.28908 18.246 2.59803 19.0921 3.29418 19.7594C3.99033 20.4267 4.87307 20.7228 5.9637 20.8634C7.02344 20.9999 8.37751 20.9999 10.0871 20.9999H13.9129C15.6225 20.9999 16.9766 20.9999 18.0363 20.8634C19.1269 20.7228 20.0097 20.4267 20.7058 19.7594C21.402 19.0921 21.7109 18.246 21.8575 17.2006C22 16.1848 22 14.8869 22 13.2482V13.1476C22 11.509 22 10.2111 21.8575 9.1953C21.7109 8.14991 21.402 7.30378 20.7058 6.6365C20.0097 5.96922 19.1269 5.67309 18.0363 5.53254ZM6.14963 6.85809C5.21373 6.9787 4.67452 7.20488 4.28084 7.58224C3.88716 7.95959 3.65119 8.47644 3.52536 9.37352C3.42443 10.0931 3.40184 10.9924 3.3968 12.1687L3.86764 11.7738C4.99175 10.831 6.68596 10.8851 7.74215 11.8975L11.7326 15.7224C12.1321 16.1054 12.7611 16.1576 13.2234 15.8462L13.5008 15.6593C14.8313 14.7631 16.6314 14.8669 17.8402 15.9097L20.2479 17.9867C20.3463 17.7227 20.4206 17.4076 20.4746 17.0224C20.6032 16.1061 20.6047 14.8982 20.6047 13.1979C20.6047 11.4977 20.6032 10.2898 20.4746 9.37352C20.3488 8.47644 20.1128 7.95959 19.7192 7.58224C19.3255 7.20488 18.7863 6.9787 17.8504 6.85809C16.8944 6.73489 15.6343 6.73347 13.8605 6.73347H10.1395C8.36575 6.73347 7.10559 6.73489 6.14963 6.85809Z" fill="#1C274C"/>
<g opacity="0.5">
<path d="M17.0866 2.61039C16.2268 2.49997 15.1321 2.49998 13.7675 2.5H10.6778C9.31314 2.49998 8.21844 2.49997 7.35863 2.61039C6.46826 2.72473 5.72591 2.96835 5.13712 3.53075C4.79755 3.8551 4.56886 4.22833 4.41309 4.64928C4.91729 4.41928 5.48734 4.28374 6.12735 4.20084C7.21173 4.06037 8.5973 4.06038 10.3466 4.06039H14.2615C16.0108 4.06038 17.3963 4.06037 18.4807 4.20084C19.0397 4.27325 19.5453 4.38581 20.0003 4.56638C19.8457 4.17917 19.6253 3.83365 19.3081 3.53075C18.7193 2.96835 17.977 2.72473 17.0866 2.61039Z" fill="#1C274C"/>
</g>
</svg>
