<svg width="24" height="24" viewBox="0 0 24 24" fill="none" xmlns="http://www.w3.org/2000/svg">
<path fill-rule="evenodd" clip-rule="evenodd" d="M2.02783 11.2502C2.41136 6.07769 6.72957 2.00024 12.0001 2.00024C11.1693 2.00024 10.4295 2.36445 9.82093 2.92137C9.21541 3.4755 8.70371 4.24902 8.28983 5.1634C7.87352 6.08317 7.55013 7.15893 7.33126 8.32636C7.1558 9.26219 7.04903 10.2488 7.01344 11.2502H2.02783ZM2.02783 12.7502H7.01344C7.04903 13.7517 7.1558 14.7383 7.33126 15.6741C7.55013 16.8416 7.87351 17.9173 8.28983 18.8371C8.70371 19.7515 9.21541 20.525 9.82093 21.0791C10.4295 21.636 11.1693 22.0002 12.0001 22.0002C6.72957 22.0002 2.41136 17.9228 2.02783 12.7502Z" fill="#1C274C"/>
<path d="M12.0001 2.00024C12.831 2.00024 13.5708 2.36445 14.1793 2.92137C14.7849 3.4755 15.2966 4.24902 15.7104 5.1634C16.1267 6.08317 16.4501 7.15893 16.669 8.32636C16.8445 9.26219 16.9512 10.2488 16.9868 11.2502H21.9724C21.5889 6.07769 17.2707 2.00024 12.0001 2.00024Z" fill="#1C274C"/>
<path d="M16.669 15.6741C16.4501 16.8416 16.1267 17.9173 15.7104 18.8371C15.2966 19.7515 14.7849 20.525 14.1793 21.0791C13.5708 21.636 12.831 22.0002 12.0001 22.0002C17.2707 22.0002 21.5889 17.9228 21.9724 12.7502H16.9868C16.9512 13.7517 16.8445 14.7383 16.669 15.6741Z" fill="#1C274C"/>
<g opacity="0.5">
<path d="M12.0002 3.39575C11.7252 3.39575 11.3699 3.51277 10.9568 3.89082C10.5406 4.27166 10.124 4.86855 9.7559 5.68177C9.39025 6.48961 9.09334 7.46481 8.88902 8.5546C8.72811 9.41282 8.62829 10.3226 8.59326 11.2504H15.4071C15.3721 10.3226 15.2723 9.41282 15.1113 8.5546C14.907 7.46481 14.6101 6.48961 14.2445 5.68178C13.8764 4.86855 13.4597 4.27166 13.0436 3.89082C12.6305 3.51277 12.2752 3.39575 12.0002 3.39575Z" fill="#1C274C"/>
<path d="M8.88902 15.4462C9.09334 16.536 9.39025 17.5112 9.7559 18.319C10.124 19.1323 10.5406 19.7291 10.9568 20.11C11.3699 20.488 11.7252 20.6051 12.0002 20.6051C12.2752 20.6051 12.6305 20.488 13.0436 20.11C13.4597 19.7291 13.8764 19.1323 14.2445 18.319C14.6101 17.5112 14.907 16.536 15.1113 15.4462C15.2723 14.588 15.3721 13.6782 15.4071 12.7504H8.59326C8.62829 13.6782 8.72811 14.588 8.88902 15.4462Z" fill="#1C274C"/>
</g>
</svg>
