<svg width="24" height="24" viewBox="0 0 24 24" fill="none" xmlns="http://www.w3.org/2000/svg">
<circle opacity="0.5" cx="12" cy="10.0002" r="7" fill="#1C274C"/>
<path d="M9.60212 8.2134C9.47104 6.75445 8.34593 5.39498 7.79976 4.89761L7.49805 4.63957C8.71505 3.6165 10.2854 3.00024 11.9998 3.00024C13.5491 3.00024 14.9809 3.50362 16.1405 4.35574C16.3044 4.85311 15.9923 5.89235 15.6646 6.38972C15.5459 6.56987 15.2767 6.79353 14.9817 7.00554C14.3163 7.48358 13.4767 7.72002 13.0498 8.60024C12.9277 8.85186 12.9329 9.09782 12.9916 9.31162C13.0338 9.46533 13.0608 9.63241 13.0612 9.79582C13.0626 10.3243 12.5282 10.706 11.9998 10.7002C10.6248 10.6852 9.72465 9.57712 9.60212 8.2134Z" fill="#1C274C"/>
<path d="M13.0057 14.3938C13.6974 13.0903 16.003 13.0903 16.003 13.0903C18.4053 13.0653 18.7299 11.6066 18.9468 10.8694C18.5585 14.0063 16.0948 16.5 12.9722 16.9337C12.7463 16.4585 12.4788 15.3867 13.0057 14.3938Z" fill="#1C274C"/>
<path fill-rule="evenodd" clip-rule="evenodd" d="M18.0035 1.50007C18.2797 1.19142 18.7539 1.16516 19.0625 1.4414C21.3246 3.46604 22.75 6.41068 22.75 9.68725C22.75 15.4386 18.3612 20.1649 12.75 20.6998V21.2503H14C14.4142 21.2503 14.75 21.586 14.75 22.0003C14.75 22.4145 14.4142 22.7503 14 22.7503H10C9.58579 22.7503 9.25001 22.4145 9.25001 22.0003C9.25001 21.586 9.58579 21.2503 10 21.2503H11.25V20.7418C8.14923 20.6213 5.37537 19.2238 3.44116 17.0628C3.16491 16.7541 3.19118 16.28 3.49982 16.0037C3.80847 15.7275 4.28261 15.7538 4.55886 16.0624C6.31098 18.02 8.85483 19.2503 11.687 19.2503C16.9685 19.2503 21.25 14.9687 21.25 9.68725C21.25 6.85507 20.0198 4.31123 18.0622 2.5591C17.7535 2.28286 17.7272 1.80871 18.0035 1.50007Z" fill="#1C274C"/>
</svg>
