<svg width="24" height="24" viewBox="0 0 24 24" fill="none" xmlns="http://www.w3.org/2000/svg">
<ellipse opacity="0.5" cx="12" cy="18.5005" rx="10" ry="3.5" fill="#1C274C"/>
<path d="M11.9999 1.25049C12.4141 1.25049 12.7499 1.58627 12.7499 2.00049V3.03696L17.7577 5.5408L17.8117 5.5678C18.5461 5.93496 19.1721 6.24792 19.6078 6.55198C20.0495 6.86031 20.514 7.30798 20.514 8.00049C20.514 8.69299 20.0495 9.14067 19.6078 9.449C19.1721 9.75306 18.5461 10.066 17.8117 10.4332L12.7499 12.964V18.0005C12.7499 18.4147 12.4141 18.7505 11.9999 18.7505C11.5857 18.7505 11.2499 18.4147 11.2499 18.0005V12.5167C11.2497 12.5063 11.2497 12.4958 11.2499 12.4854V3.51558C11.2497 3.50515 11.2497 3.4947 11.2499 3.48424V2.00049C11.2499 1.58627 11.5857 1.25049 11.9999 1.25049Z" fill="#1C274C"/>
</svg>
