<svg width="24" height="24" viewBox="0 0 24 24" fill="none" xmlns="http://www.w3.org/2000/svg">
<path d="M17.8144 21.2363L17.5433 21.6943C17.3017 22.1024 16.6982 22.1024 16.4567 21.6943L16.1856 21.2363C15.9754 20.8811 15.8702 20.7035 15.7014 20.6053C15.5325 20.5071 15.32 20.5035 14.8948 20.4961C14.2671 20.4853 13.8734 20.4469 13.5433 20.3101C12.9307 20.0564 12.444 19.5697 12.1903 18.9571C12 18.4977 12 17.9152 12 16.7504V16.2504C12 14.6137 12 13.7953 12.3684 13.1941C12.5745 12.8577 12.8574 12.5749 13.1938 12.3688C13.7949 12.0004 14.6133 12.0004 16.25 12.0004H17.75C19.3867 12.0004 20.2051 12.0004 20.8062 12.3688C21.1426 12.5749 21.4255 12.8577 21.6316 13.1941C22 13.7953 22 14.6137 22 16.2504V16.7504C22 17.9152 22 18.4977 21.8097 18.9571C21.556 19.5697 21.0693 20.0564 20.4567 20.3101C20.1266 20.4469 19.7329 20.4853 19.1052 20.4961C18.68 20.5035 18.4674 20.5071 18.2986 20.6053C18.1297 20.7035 18.0246 20.8811 17.8144 21.2363Z" fill="#1C274C"/>
<g opacity="0.5">
<path d="M10.2007 2.2778C10.5998 2.38866 10.8335 2.80207 10.7226 3.20117L9.32006 8.25043H16.7633L18.2774 2.7997C18.3882 2.4006 18.8016 2.16693 19.2007 2.2778C19.5998 2.38866 19.8335 2.80207 19.7226 3.20117L18.3201 8.25043H22C22.4142 8.25043 22.75 8.58622 22.75 9.00043C22.75 9.41465 22.4142 9.75043 22 9.75043H17.9034L17.2784 12.0004H16.25C16.0635 12.0004 15.8876 12.0004 15.7215 12.001L16.3466 9.75043H8.9034L7.37562 15.2504H12.0044C12 15.5459 12 15.8769 12 16.2504V16.7504H6.95895L5.72264 21.2012C5.61178 21.6003 5.19837 21.8339 4.79927 21.7231C4.40016 21.6122 4.1665 21.1988 4.27736 20.7997L5.40216 16.7504H2C1.58579 16.7504 1.25 16.4146 1.25 16.0004C1.25 15.5862 1.58579 15.2504 2 15.2504H5.81882L7.3466 9.75043H4C3.58579 9.75043 3.25 9.41465 3.25 9.00043C3.25 8.58622 3.58579 8.25043 4 8.25043H7.76327L9.27736 2.7997C9.38822 2.4006 9.80163 2.16693 10.2007 2.2778Z" fill="#1C274C"/>
<path d="M13.4276 20.2588L13.2774 20.7997C13.1665 21.1988 13.4002 21.6122 13.7993 21.7231C14.1984 21.8339 14.6118 21.6003 14.7226 21.2012L14.9184 20.4966C14.9106 20.4965 14.9027 20.4963 14.8948 20.4962C14.2671 20.4854 13.8734 20.4469 13.5433 20.3102C13.5042 20.294 13.4656 20.2768 13.4276 20.2588Z" fill="#1C274C"/>
</g>
</svg>
