<svg width="24" height="24" viewBox="0 0 24 24" fill="none" xmlns="http://www.w3.org/2000/svg">
<path opacity="0.8" fill-rule="evenodd" clip-rule="evenodd" d="M12 1.25037C12.4142 1.25037 12.75 1.58615 12.75 2.00037V4.00037C12.75 4.41458 12.4142 4.75037 12 4.75037C11.5858 4.75037 11.25 4.41458 11.25 4.00037V2.00037C11.25 1.58615 11.5858 1.25037 12 1.25037ZM1.25 12.0004C1.25 11.5862 1.58579 11.2504 2 11.2504H4C4.41421 11.2504 4.75 11.5862 4.75 12.0004C4.75 12.4146 4.41421 12.7504 4 12.7504H2C1.58579 12.7504 1.25 12.4146 1.25 12.0004ZM19.25 12.0004C19.25 11.5862 19.5858 11.2504 20 11.2504H22C22.4142 11.2504 22.75 11.5862 22.75 12.0004C22.75 12.4146 22.4142 12.7504 22 12.7504H20C19.5858 12.7504 19.25 12.4146 19.25 12.0004ZM12 19.2504C12.4142 19.2504 12.75 19.5862 12.75 20.0004V22.0004C12.75 22.4146 12.4142 22.7504 12 22.7504C11.5858 22.7504 11.25 22.4146 11.25 22.0004V20.0004C11.25 19.5862 11.5858 19.2504 12 19.2504Z" fill="#1C274C"/>
<g opacity="0.5">
<path d="M5.46967 5.47004C5.76256 5.17714 6.23744 5.17714 6.53033 5.47004L6.87359 5.8133C7.16648 6.10619 7.16648 6.58106 6.87359 6.87396C6.5807 7.16685 6.10583 7.16685 5.81293 6.87396L5.46967 6.5307C5.17678 6.2378 5.17678 5.76293 5.46967 5.47004Z" fill="#1C274C"/>
<path d="M18.5303 5.47004C18.8232 5.76293 18.8232 6.2378 18.5303 6.5307L18.1871 6.87396C17.8942 7.16685 17.4193 7.16685 17.1264 6.87396C16.8335 6.58106 16.8335 6.10619 17.1264 5.8133L17.4697 5.47004C17.7626 5.17714 18.2374 5.17714 18.5303 5.47004Z" fill="#1C274C"/>
<path d="M6.87338 17.127C7.16627 17.4199 7.16627 17.8948 6.87338 18.1877L6.53033 18.5307C6.23744 18.8236 5.76256 18.8236 5.46967 18.5307C5.17678 18.2378 5.17678 17.7629 5.46967 17.47L5.81272 17.127C6.10561 16.8341 6.58048 16.8341 6.87338 17.127Z" fill="#1C274C"/>
<path d="M17.1266 17.127C17.4195 16.8341 17.8944 16.8341 18.1873 17.127L18.5303 17.47C18.8232 17.7629 18.8232 18.2378 18.5303 18.5307C18.2374 18.8236 17.7626 18.8236 17.4697 18.5307L17.1266 18.1877C16.8337 17.8948 16.8337 17.4199 17.1266 17.127Z" fill="#1C274C"/>
</g>
<path d="M7 11.0599C7 13.6022 9.00971 14.957 10.4809 16.1696C11 16.5975 11.5 17.0004 12 17.0004C12.5 17.0004 13 16.5975 13.5191 16.1696C14.9903 14.957 17 13.6022 17 11.0599C17 8.51754 14.2499 6.71457 12 9.15874C9.75008 6.71457 7 8.51754 7 11.0599Z" fill="#1C274C"/>
</svg>
