<svg width="24" height="24" viewBox="0 0 24 24" fill="none" xmlns="http://www.w3.org/2000/svg">
<path d="M22 5.00024C22 6.6571 20.6569 8.00024 19 8.00024C17.3431 8.00024 16 6.6571 16 5.00024C16 3.34339 17.3431 2.00024 19 2.00024C20.6569 2.00024 22 3.34339 22 5.00024Z" fill="#1C274C"/>
<path opacity="0.5" d="M15.612 2.0385C14.59 2.00024 13.3988 2.00024 12 2.00024C7.28595 2.00024 4.92893 2.00024 3.46447 3.46471C2 4.92918 2 7.2862 2 12.0002C2 16.7143 2 19.0713 3.46447 20.5358C4.92893 22.0002 7.28595 22.0002 12 22.0002C16.714 22.0002 19.0711 22.0002 20.5355 20.5358C22 19.0713 22 16.7143 22 12.0002C22 10.6015 22 9.41024 21.9617 8.38826C21.1703 9.08066 20.1342 9.50024 19 9.50024C16.5147 9.50024 14.5 7.48553 14.5 5.00024C14.5 3.86608 14.9196 2.82992 15.612 2.0385Z" fill="#1C274C"/>
<path d="M3.46451 20.5358C4.92902 22.0002 7.28611 22.0002 12.0003 22.0002C16.7145 22.0002 19.0716 22.0002 20.5361 20.5358C21.8931 19.1787 21.9927 17.0553 22 13.0002H18.8402C17.935 13.0002 17.4824 13.0002 17.0846 13.1832C16.6868 13.3662 16.3922 13.7098 15.8031 14.3971L15.1977 15.1034C14.6086 15.7907 14.314 16.1343 13.9162 16.3173C13.5183 16.5002 13.0658 16.5002 12.1606 16.5002H11.84C10.9348 16.5002 10.4822 16.5002 10.0844 16.3173C9.68655 16.1343 9.392 15.7907 8.80291 15.1034L8.19747 14.3971C7.60837 13.7098 7.31382 13.3662 6.91599 13.1832C6.51815 13.0002 6.06555 13.0002 5.16035 13.0002H2C2.0073 17.0553 2.10744 19.1787 3.46451 20.5358Z" fill="#1C274C"/>
</svg>
