<svg width="24" height="24" viewBox="0 0 24 24" fill="none" xmlns="http://www.w3.org/2000/svg">
<path d="M21 16.5005C21 18.4335 19.433 20.0005 17.5 20.0005C15.567 20.0005 14 18.4335 14 16.5005C14 14.5675 15.567 13.0005 17.5 13.0005C19.433 13.0005 21 14.5675 21 16.5005Z" fill="#1C274C"/>
<path fill-rule="evenodd" clip-rule="evenodd" d="M1.25 10.0005C1.25 9.58627 1.58579 9.25049 2 9.25049H22C22.4142 9.25049 22.75 9.58627 22.75 10.0005C22.75 10.4147 22.4142 10.7505 22 10.7505H2C1.58579 10.7505 1.25 10.4147 1.25 10.0005Z" fill="#1C274C"/>
<path opacity="0.5" d="M4.1875 9.25049L4.6138 7.54527C5.15947 5.36259 5.43231 4.27126 6.24609 3.63587C7.05988 3.00049 8.1848 3.00049 10.4347 3.00049H13.5653C15.8152 3.00049 16.9401 3.00049 17.7539 3.63587C18.5677 4.27126 18.8405 5.36259 19.3862 7.54527L19.8125 9.25049H4.1875Z" fill="#1C274C"/>
<path d="M10 16.5005C10 18.4335 8.433 20.0005 6.5 20.0005C4.567 20.0005 3 18.4335 3 16.5005C3 14.5675 4.567 13.0005 6.5 13.0005C8.433 13.0005 10 14.5675 10 16.5005Z" fill="#1C274C"/>
<path opacity="0.5" d="M9.88411 17.397C9.95972 17.1109 10 16.8104 10 16.5005C10 16.2276 9.96878 15.9621 9.90971 15.7072L10.3233 15.5004C11.379 14.9725 12.6217 14.9725 13.6774 15.5004L14.0904 15.7069C14.0312 15.9619 14 16.2275 14 16.5005C14 16.8102 14.0402 17.1106 14.1158 17.3966L13.0066 16.842C12.3732 16.5253 11.6276 16.5253 10.9941 16.842L9.88411 17.397Z" fill="#1C274C"/>
</svg>
