<svg width="24" height="24" viewBox="0 0 24 24" fill="none" xmlns="http://www.w3.org/2000/svg">
<path opacity="0.5" d="M2 12.0005C2 7.28644 2 4.92942 3.46447 3.46495C4.92893 2.00049 7.28595 2.00049 12 2.00049C16.714 2.00049 19.0711 2.00049 20.5355 3.46495C22 4.92942 22 7.28644 22 12.0005C22 16.7145 22 19.0716 20.5355 20.536C19.0711 22.0005 16.714 22.0005 12 22.0005C7.28595 22.0005 4.92893 22.0005 3.46447 20.536C2 19.0716 2 16.7145 2 12.0005Z" fill="#1C274C"/>
<path fill-rule="evenodd" clip-rule="evenodd" d="M21.9626 8.4128C21.8202 9.65988 21.2708 10.8693 20.3142 11.8258C18.8218 13.3183 16.7136 13.8197 14.8074 13.3302C14.5 13.2513 14.1677 13.3212 13.9433 13.5456L12.4136 15.0753L12.4107 15.0724L10.9532 13.6308C10.6587 13.3395 10.1838 13.3421 9.89254 13.6366C9.60127 13.9311 9.60388 14.406 9.89838 14.6973L11.3529 16.1359L10.8496 16.6392C10.5847 16.9042 10.2137 17.0343 9.84133 16.9929L8.10084 16.7995C7.91528 16.7789 7.74226 16.6958 7.61024 16.5637L7.43673 16.3902C7.30472 16.2582 7.22156 16.0852 7.20094 15.8996L7.00755 14.1591C6.96618 13.7868 7.09632 13.4158 7.36124 13.1509L10.4547 10.0574C10.6791 9.833 10.7492 9.50052 10.6703 9.19308C10.1808 7.28686 10.6822 5.17869 12.1747 3.68624C13.1312 2.72971 14.3407 2.18024 15.5878 2.03784C16.4945 2.07117 17.2684 2.13421 17.9361 2.25349C18.8063 2.52021 19.6258 2.99779 20.3142 3.68624C21.0027 4.37467 21.4802 5.19411 21.747 6.06431C21.8663 6.73202 21.9293 7.50602 21.9626 8.4128ZM14.9882 6.65538C15.639 6.00451 16.6943 6.00451 17.3452 6.65538C17.9961 7.30626 17.9961 8.36153 17.3452 9.01241C16.6943 9.66328 15.639 9.66328 14.9882 9.01241C14.3373 8.36153 14.3373 7.30626 14.9882 6.65538Z" fill="#1C274C"/>
</svg>
