<svg width="24" height="24" viewBox="0 0 24 24" fill="none" xmlns="http://www.w3.org/2000/svg">
<path opacity="0.5" d="M15.9997 17.0002C19.0537 17.0002 21.9997 15.8808 21.9997 14.5001C21.9997 13.1194 19.0537 12.0001 15.9997 12.0001C12.9458 12.0001 9.36816 13.1194 9.36816 14.5001C9.36816 15.8808 12.9458 17.0002 15.9997 17.0002Z" fill="#1C274C"/>
<path d="M6.43421 2.50012C4.81369 2.50012 3.5 3.81381 3.5 5.43433C3.5 5.84855 3.16421 6.18433 2.75 6.18433C2.33579 6.18433 2 5.84855 2 5.43433C2 2.98539 3.98526 1.00012 6.43421 1.00012C8.88316 1.00012 10.8684 2.98539 10.8684 5.43433V13.0025C9.97125 13.4149 9.38248 13.9259 9.36842 14.4798V5.43433C9.36842 3.81381 8.05473 2.50012 6.43421 2.50012Z" fill="#1C274C"/>
<path d="M9.36842 14.5204C9.37662 14.8433 9.58011 15.1516 9.92615 15.4343C11.0498 16.3523 13.6763 17.0002 15.9997 17.0002C19.0537 17.0002 21.9997 15.8808 21.9997 14.5001V15.6843C21.9997 19.1724 19.1721 22.0001 15.684 22.0001C12.1958 22.0001 9.36816 19.1724 9.36816 15.6843V14.5001C9.36816 14.5069 9.36825 14.5137 9.36842 14.5204Z" fill="#1C274C"/>
</svg>
