<svg width="24" height="24" viewBox="0 0 24 24" fill="none" xmlns="http://www.w3.org/2000/svg">
<path fill-rule="evenodd" clip-rule="evenodd" d="M4.96802 7.44463C5.57692 5.09922 5.88138 3.92652 6.66749 3.15156C6.89538 2.9269 7.14941 2.7304 7.42412 2.56628C8.37176 2.00012 9.58334 2.00012 12.0065 2.00012C14.4297 2.00012 15.6412 2.00012 16.5889 2.56628C16.8636 2.7304 17.1176 2.9269 17.3455 3.15156C18.1316 3.92652 18.4361 5.09923 19.045 7.44463L19.1292 7.7691C19.957 10.9577 20.3709 12.552 19.6191 13.6721C19.5441 13.7838 19.4617 13.8903 19.3724 13.991C19.0866 14.3132 18.7241 14.5325 18.2559 14.6818C17.6605 14.8271 17.0097 14.9114 16.7586 14.9353C15.9102 15.0001 14.8551 15.0001 13.5358 15.0001H12.7559H11.2559H10.4772C7.18295 15.0001 5.5358 15.0001 4.64058 13.991C4.55129 13.8903 4.46887 13.7838 4.39389 13.6721C3.64207 12.552 4.05598 10.9577 4.88378 7.7691L4.96802 7.44463Z" fill="#1C274C"/>
<path opacity="0.5" d="M16.7586 14.9353C16.7568 14.9566 16.7559 14.9782 16.7559 15.0001V17.0001C16.7559 17.4143 17.0916 17.7501 17.5059 17.7501C17.9201 17.7501 18.2559 17.4143 18.2559 17.0001V15.0001V14.6818C17.6605 14.8271 17.0097 14.9113 16.7586 14.9353Z" fill="#1C274C"/>
<path opacity="0.5" fill-rule="evenodd" clip-rule="evenodd" d="M11.2559 21.2501V15.0001H12.7559V21.2501H11.2559Z" fill="#1C274C"/>
<path d="M11.2559 21.2501H9.00586C8.59165 21.2501 8.25586 21.5859 8.25586 22.0001C8.25586 22.4143 8.59165 22.7501 9.00586 22.7501H15.0059C15.4201 22.7501 15.7559 22.4143 15.7559 22.0001C15.7559 21.5859 15.4201 21.2501 15.0059 21.2501H12.7559H11.2559Z" fill="#1C274C"/>
</svg>
