<svg width="24" height="24" viewBox="0 0 24 24" fill="none" xmlns="http://www.w3.org/2000/svg">
<path d="M24 5.00024C24 6.6571 22.6569 8.00024 21 8.00024C19.3431 8.00024 18 6.6571 18 5.00024C18 3.34339 19.3431 2.00024 21 2.00024C22.6569 2.00024 24 3.34339 24 5.00024Z" fill="#1C274C"/>
<path d="M17.2339 7.46418L15.6973 8.74469C14.671 9.5999 13.9585 10.1917 13.357 10.5786C12.7747 10.9531 12.3798 11.0788 12.0002 11.0788C11.6206 11.0788 11.2258 10.9531 10.6435 10.5786C10.0419 10.1917 9.32941 9.5999 8.30315 8.74469L5.92837 6.7657C5.57834 6.47401 5.05812 6.5213 4.76643 6.87133C4.47474 7.22136 4.52204 7.74158 4.87206 8.03327L7.28821 10.0467C8.2632 10.8592 9.05344 11.5178 9.75091 11.9664C10.4775 12.4337 11.185 12.7288 12.0002 12.7288C12.8154 12.7288 13.523 12.4337 14.2495 11.9664C14.947 11.5178 15.7372 10.8592 16.7122 10.0467L18.3785 8.65819C17.9274 8.33438 17.5388 7.92923 17.2339 7.46418Z" fill="#1C274C"/>
<path d="M18.4538 6.58744C18.7362 6.53677 19.0372 6.63512 19.234 6.87133C19.3965 7.06638 19.4538 7.31428 19.4121 7.54603C19.0244 7.30369 18.696 6.97523 18.4538 6.58744Z" fill="#1C274C"/>
<path opacity="0.5" d="M16.9576 3.02123C16.156 3.00024 15.2437 3.00024 14.2 3.00024H9.8C5.65164 3.00024 3.57746 3.00024 2.28873 4.31826C1 5.63628 1 7.7576 1 12.0002C1 16.2429 1 18.3642 2.28873 19.6822C3.57746 21.0002 5.65164 21.0002 9.8 21.0002H14.2C18.3484 21.0002 20.4225 21.0002 21.7113 19.6822C23 18.3642 23 16.2429 23 12.0002C23 10.9329 23 9.99977 22.9795 9.17995C22.3821 9.47968 21.7103 9.64797 21 9.64797C18.5147 9.64797 16.5 7.58746 16.5 5.0457C16.5 4.31928 16.6646 3.63217 16.9576 3.02123Z" fill="#1C274C"/>
</svg>
