<svg width="24" height="24" viewBox="0 0 24 24" fill="none" xmlns="http://www.w3.org/2000/svg">
<path fill-rule="evenodd" clip-rule="evenodd" d="M8 2.25049C4.27208 2.25049 1.25 5.27257 1.25 9.00049C1.25 10.7288 1.90054 12.307 2.96894 13.5007C3.24518 13.8093 3.71933 13.8356 4.02797 13.5593C4.33662 13.2831 4.36288 12.8089 4.08664 12.5003C3.25487 11.571 2.75 10.3456 2.75 9.00049C2.75 6.10099 5.10051 3.75049 8 3.75049H12C14.8995 3.75049 17.25 6.10099 17.25 9.00049C17.25 11.9 14.8995 14.2505 12 14.2505H10C9.58579 14.2505 9.25 14.5863 9.25 15.0005C9.25 15.4147 9.58579 15.7505 10 15.7505H12C15.7279 15.7505 18.75 12.7284 18.75 9.00049C18.75 5.27257 15.7279 2.25049 12 2.25049H8Z" fill="#1C274C"/>
<path opacity="0.5" d="M6.75 15.0005C6.75 12.101 9.10051 9.75049 12 9.75049H14C14.4142 9.75049 14.75 9.4147 14.75 9.00049C14.75 8.58627 14.4142 8.25049 14 8.25049H12C8.27208 8.25049 5.25 11.2726 5.25 15.0005C5.25 18.7284 8.27208 21.7505 12 21.7505H16C19.7279 21.7505 22.75 18.7284 22.75 15.0005C22.75 13.2722 22.0995 11.694 21.0311 10.5003C20.7548 10.1917 20.2807 10.1654 19.972 10.4416C19.6634 10.7179 19.6371 11.192 19.9134 11.5007C20.7451 12.43 21.25 13.6554 21.25 15.0005C21.25 17.9 18.8995 20.2505 16 20.2505H12C9.10051 20.2505 6.75 17.9 6.75 15.0005Z" fill="#1C274C"/>
</svg>
