<svg width="24" height="24" viewBox="0 0 24 24" fill="none" xmlns="http://www.w3.org/2000/svg">
<path opacity="0.5" d="M12 22.0005C7.28595 22.0005 4.92893 22.0005 3.46447 20.536C2 19.0716 2 16.7145 2 12.0005C2 7.28644 2 4.92942 3.46447 3.46495C4.92893 2.00049 7.28595 2.00049 12 2.00049C16.714 2.00049 19.0711 2.00049 20.5355 3.46495C22 4.92942 22 7.28644 22 12.0005C22 16.7145 22 19.0716 20.5355 20.536C19.0711 22.0005 16.714 22.0005 12 22.0005Z" fill="#1C274C"/>
<path d="M9.198 7.25049H9.30203H9.30206C10.2005 7.25046 10.9497 7.25044 11.5445 7.3304C12.1723 7.41481 12.7391 7.60048 13.1945 8.05595C13.65 8.51142 13.8357 9.07822 13.9201 9.70601C14.0001 10.3008 14 11.05 14 11.9485L14 12.0005C14 12.4147 13.6642 12.7505 13.25 12.7505C12.8358 12.7505 12.5 12.4147 12.5 12.0005C12.5 11.0365 12.4984 10.3889 12.4335 9.90588C12.3714 9.44442 12.2642 9.24692 12.1339 9.11661C12.0036 8.98629 11.8061 8.87907 11.3446 8.81703C10.8616 8.75208 10.214 8.75049 9.25 8.75049C8.28599 8.75049 7.63843 8.75208 7.1554 8.81703C6.69393 8.87907 6.49644 8.98629 6.36612 9.11661C6.2358 9.24692 6.12858 9.44442 6.06654 9.90588C6.0016 10.3889 6 11.0365 6 12.0005C6 12.9645 6.0016 13.6121 6.06654 14.0951C6.12858 14.5566 6.2358 14.7541 6.36612 14.8844C6.49644 15.0147 6.69393 15.1219 7.1554 15.184C7.63843 15.2489 8.28599 15.2505 9.25 15.2505C9.66422 15.2505 10 15.5863 10 16.0005C10 16.4147 9.66422 16.7505 9.25 16.7505L9.19798 16.7505C8.29951 16.7505 7.5503 16.7505 6.95552 16.6706C6.32773 16.5862 5.76093 16.4005 5.30546 15.945C4.84999 15.4896 4.66432 14.9228 4.57991 14.295C4.49995 13.7002 4.49997 12.951 4.5 12.0525V12.0525V11.9485V11.9484C4.49997 11.05 4.49995 10.3008 4.57991 9.70601C4.66432 9.07822 4.84999 8.51142 5.30546 8.05595C5.76093 7.60048 6.32773 7.41481 6.95552 7.3304C7.55029 7.25044 8.29953 7.25046 9.19798 7.25049H9.198Z" fill="#1C274C"/>
<path d="M16.8446 8.81703C16.3616 8.75208 15.714 8.75049 14.75 8.75049C14.3358 8.75049 14 8.41471 14 8.00049C14 7.58628 14.3358 7.25049 14.75 7.25049L14.802 7.25049H14.8021C15.7005 7.25046 16.4497 7.25044 17.0445 7.3304C17.6723 7.41481 18.2391 7.60048 18.6945 8.05595C19.15 8.51142 19.3357 9.07822 19.4201 9.70601C19.5001 10.3008 19.5 11.05 19.5 11.9484V11.9484V12.0525V12.0525C19.5 12.951 19.5001 13.7002 19.4201 14.295C19.3357 14.9228 19.15 15.4896 18.6945 15.945C18.2391 16.4005 17.6723 16.5862 17.0445 16.6706C16.4497 16.7505 15.7005 16.7505 14.802 16.7505H14.698C13.7995 16.7505 13.0503 16.7505 12.4555 16.6706C11.8277 16.5862 11.2609 16.4005 10.8055 15.945C10.35 15.4896 10.1643 14.9228 10.0799 14.295C9.99995 13.7002 9.99997 12.951 10 12.0525L10 12.0005C10 11.5863 10.3358 11.2505 10.75 11.2505C11.1642 11.2505 11.5 11.5863 11.5 12.0005C11.5 12.9645 11.5016 13.6121 11.5665 14.0951C11.6286 14.5566 11.7358 14.7541 11.8661 14.8844C11.9964 15.0147 12.1939 15.1219 12.6554 15.184C13.1384 15.2489 13.786 15.2505 14.75 15.2505C15.714 15.2505 16.3616 15.2489 16.8446 15.184C17.3061 15.1219 17.5036 15.0147 17.6339 14.8844C17.7642 14.7541 17.8714 14.5566 17.9335 14.0951C17.9984 13.6121 18 12.9645 18 12.0005C18 11.0365 17.9984 10.3889 17.9335 9.90588C17.8714 9.44442 17.7642 9.24692 17.6339 9.11661C17.5036 8.98629 17.3061 8.87907 16.8446 8.81703Z" fill="#1C274C"/>
</svg>
