<svg width="24" height="24" viewBox="0 0 24 24" fill="none" xmlns="http://www.w3.org/2000/svg">
<path opacity="0.5" fill-rule="evenodd" clip-rule="evenodd" d="M2.25 6.00024C2.25 5.58603 2.58579 5.25024 3 5.25024H21C21.4142 5.25024 21.75 5.58603 21.75 6.00024C21.75 6.41446 21.4142 6.75024 21 6.75024H3C2.58579 6.75024 2.25 6.41446 2.25 6.00024ZM2.25 10.0002C2.25 9.58603 2.58579 9.25024 3 9.25024H21C21.4142 9.25024 21.75 9.58603 21.75 10.0002C21.75 10.4145 21.4142 10.7502 21 10.7502H3C2.58579 10.7502 2.25 10.4145 2.25 10.0002ZM2.25 14.0002C2.25 13.586 2.58579 13.2502 3 13.2502H11C11.4142 13.2502 11.75 13.586 11.75 14.0002C11.75 14.4145 11.4142 14.7502 11 14.7502H3C2.58579 14.7502 2.25 14.4145 2.25 14.0002ZM2.25 18.0002C2.25 17.586 2.58579 17.2502 3 17.2502H11C11.4142 17.2502 11.75 17.586 11.75 18.0002C11.75 18.4145 11.4142 18.7502 11 18.7502H3C2.58579 18.7502 2.25 18.4145 2.25 18.0002Z" fill="#1C274C"/>
<path d="M17.0119 14.4308C17.2928 14.1901 17.7072 14.1901 17.9881 14.4308L21.4881 17.4308C21.8026 17.7004 21.839 18.1738 21.5695 18.4883C21.2999 18.8028 20.8264 18.8393 20.5119 18.5697L17.5 15.9881L14.4881 18.5697C14.1736 18.8393 13.7001 18.8028 13.4306 18.4883C13.161 18.1738 13.1974 17.7004 13.5119 17.4308L17.0119 14.4308Z" fill="#1C274C"/>
</svg>
