<svg width="24" height="24" viewBox="0 0 24 24" fill="none" xmlns="http://www.w3.org/2000/svg">
<g opacity="0.5">
<path fill-rule="evenodd" clip-rule="evenodd" d="M2.25 6.00024C2.25 5.58603 2.58579 5.25024 3 5.25024H21C21.4142 5.25024 21.75 5.58603 21.75 6.00024C21.75 6.41446 21.4142 6.75024 21 6.75024H3C2.58579 6.75024 2.25 6.41446 2.25 6.00024ZM2.25 10.0002C2.25 9.58603 2.58579 9.25024 3 9.25024H21C21.4142 9.25024 21.75 9.58603 21.75 10.0002C21.75 10.4145 21.4142 10.7502 21 10.7502H3C2.58579 10.7502 2.25 10.4145 2.25 10.0002ZM2.25 14.0002C2.25 13.586 2.58579 13.2502 3 13.2502H10C10.4142 13.2502 10.75 13.586 10.75 14.0002C10.75 14.4145 10.4142 14.7502 10 14.7502H3C2.58579 14.7502 2.25 14.4145 2.25 14.0002ZM2.25 18.0002C2.25 17.586 2.58579 17.2502 3 17.2502H10C10.4142 17.2502 10.75 17.586 10.75 18.0002C10.75 18.4145 10.4142 18.7502 10 18.7502H3C2.58579 18.7502 2.25 18.4145 2.25 18.0002Z" fill="#1C274C"/>
</g>
<path d="M14 15.0363C14 16.2711 15.4849 17.5791 16.5203 18.341C16.9546 18.6606 17.1717 18.8204 17.5 18.8204C17.8283 18.8204 18.0454 18.6606 18.4797 18.341C19.5151 17.5791 21 16.2712 21 15.0363C21 13.0284 19.0749 12.2788 17.5 13.8299C15.9251 12.2788 14 13.0284 14 15.0363Z" fill="#1C274C"/>
</svg>
