<svg width="24" height="24" viewBox="0 0 24 24" fill="none" xmlns="http://www.w3.org/2000/svg">
<path opacity="0.5" d="M2 11.2502C2 8.35075 4.01472 6.00024 6.5 6.00024C8.98528 6.00024 11 8.35075 11 11.2502V20.0002H4.23256C2.99955 20.0002 2 18.8341 2 17.3956V11.2502Z" fill="#1C274C"/>
<path opacity="0.8" d="M11 11.2502V20.0002H14H15H19.7931C21.0119 20.0002 22 18.8475 22 17.4255V11.2502C22 8.35075 19.9853 6.00024 17.5 6.00024H6.5C8.98528 6.00024 11 8.35075 11 11.2502Z" fill="#1C274C"/>
<path d="M9.5 20.0002V22.0002C9.5 22.4145 9.83579 22.7502 10.25 22.7502C10.6642 22.7502 11 22.4145 11 22.0002V20.0002H9.5Z" fill="#1C274C"/>
<path d="M15 20.0002H13.5V22.0002C13.5 22.4145 13.8358 22.7502 14.25 22.7502C14.6642 22.7502 15 22.4145 15 22.0002V20.0002Z" fill="#1C274C"/>
<path fill-rule="evenodd" clip-rule="evenodd" d="M4.25 16.0002C4.25 15.586 4.58579 15.2502 5 15.2502H8C8.41421 15.2502 8.75 15.586 8.75 16.0002C8.75 16.4145 8.41421 16.7502 8 16.7502H5C4.58579 16.7502 4.25 16.4145 4.25 16.0002Z" fill="#1C274C"/>
<path fill-rule="evenodd" clip-rule="evenodd" d="M17.3846 6.58495L17.6407 6.53369C18.0564 6.45046 18.4863 6.4902 18.8814 6.64838C19.5717 6.92477 20.3266 6.97641 21.0458 6.79643L21.1073 6.78104C21.6309 6.65 22 6.16324 22 5.6036V3.47308C22 2.73527 21.3358 2.19169 20.6454 2.36446C20.249 2.46367 19.8329 2.43521 19.4523 2.28285L19.3793 2.25359C18.7422 1.99853 18.0491 1.93445 17.3787 2.06866L16.93 2.15848C16.3901 2.26656 16 2.75746 16 3.3287V10.281C16 10.6782 16.31 11.0002 16.6923 11.0002C17.0747 11.0002 17.3846 10.6782 17.3846 10.281V6.58495Z" fill="#1C274C"/>
</svg>
