<svg width="24" height="24" viewBox="0 0 24 24" fill="none" xmlns="http://www.w3.org/2000/svg">
<path d="M14.1427 15.9624C14.2701 16.2171 14.1593 16.5266 13.8991 16.6426L4.49746 20.8353C3.00163 21.5023 1.45007 20.0211 2.19099 18.6334L5.34302 12.7296C5.58818 12.2705 5.58818 11.73 5.34302 11.2709L2.19099 5.36714C1.45006 3.97938 3.00163 2.49814 4.49746 3.1652L8.02178 4.73687C8.44465 4.92545 8.78899 5.25491 8.99606 5.66904L14.1427 15.9624Z" fill="#1C274C"/>
<path opacity="0.5" d="M15.5337 15.3908C15.6533 15.6301 15.9402 15.7328 16.1845 15.6238L21.0071 13.4732C22.3308 12.8829 22.3308 11.1185 21.0071 10.5281L12.1094 6.56019C11.6806 6.36901 11.2486 6.8206 11.4585 7.24045L15.5337 15.3908Z" fill="#1C274C"/>
</svg>
