<svg width="24" height="24" viewBox="0 0 24 24" fill="none" xmlns="http://www.w3.org/2000/svg">
<path d="M8.0374 9.85752C7.78266 9.73015 7.47314 9.84097 7.35714 10.1011L3.16447 19.5028C2.49741 20.9986 3.97865 22.5502 5.36641 21.8092L11.2701 18.6572C11.7293 18.4121 12.2697 18.4121 12.7289 18.6572L18.6326 21.8092C20.0204 22.5502 21.5016 20.9986 20.8346 19.5028L19.2629 15.9785C19.0743 15.5556 18.7448 15.2112 18.3307 15.0042L8.0374 9.85752Z" fill="#1C274C"/>
<path opacity="0.5" d="M8.6095 8.46703C8.37019 8.34737 8.26749 8.06053 8.37646 7.81617L10.5271 2.99361C11.1174 1.66986 12.8818 1.66986 13.4722 2.99361L17.4401 11.8913C17.6313 12.32 17.1797 12.7521 16.7598 12.5422L8.6095 8.46703Z" fill="#1C274C"/>
</svg>
