<svg width="24" height="24" viewBox="0 0 24 24" fill="none" xmlns="http://www.w3.org/2000/svg">
<path opacity="0.5" d="M12 2.00024C7.58172 2.00024 4 6.00283 4 10.5002C4 14.9624 6.55332 19.8127 10.5371 21.6747C11.4657 22.1088 12.5343 22.1088 13.4629 21.6747C17.4467 19.8127 20 14.9624 20 10.5002C20 6.00283 16.4183 2.00024 12 2.00024Z" fill="#1C274C"/>
<path d="M12 12.5002C13.3807 12.5002 14.5 11.381 14.5 10.0002C14.5 8.61953 13.3807 7.50024 12 7.50024C10.6193 7.50024 9.5 8.61953 9.5 10.0002C9.5 11.381 10.6193 12.5002 12 12.5002Z" fill="#1C274C"/>
</svg>
