<svg width="24" height="24" viewBox="0 0 24 24" fill="none" xmlns="http://www.w3.org/2000/svg">
<path opacity="0.5" fill-rule="evenodd" clip-rule="evenodd" d="M12 2.00024C7.58172 2.00024 4 5.64612 4 10.1435C4 14.6057 6.55332 19.8127 10.5371 21.6747C11.4657 22.1088 12.5343 22.1088 13.4629 21.6747C17.4467 19.8127 20 14.6057 20 10.1435C20 5.64612 16.4183 2.00024 12 2.00024ZM12 14.0002C14.2091 14.0002 16 12.2094 16 10.0002C16 7.79111 14.2091 6.00024 12 6.00024C9.79086 6.00024 8 7.79111 8 10.0002C8 12.2094 9.79086 14.0002 12 14.0002Z" fill="#1C274C"/>
<path fill-rule="evenodd" clip-rule="evenodd" d="M12 14.0002C14.2091 14.0002 16 12.2094 16 10.0002C16 7.79111 14.2091 6.00024 12 6.00024C9.79086 6.00024 8 7.79111 8 10.0002C8 12.2094 9.79086 14.0002 12 14.0002ZM12.75 8.50024C12.75 8.08603 12.4142 7.75024 12 7.75024C11.5858 7.75024 11.25 8.08603 11.25 8.50024V9.25024H10.5C10.0858 9.25024 9.75 9.58603 9.75 10.0002C9.75 10.4145 10.0858 10.7502 10.5 10.7502H11.25V11.5002C11.25 11.9145 11.5858 12.2502 12 12.2502C12.4142 12.2502 12.75 11.9145 12.75 11.5002V10.7502H13.5C13.9142 10.7502 14.25 10.4145 14.25 10.0002C14.25 9.58603 13.9142 9.25024 13.5 9.25024H12.75V8.50024Z" fill="#1C274C"/>
</svg>
