<svg width="24" height="24" viewBox="0 0 24 24" fill="none" xmlns="http://www.w3.org/2000/svg">
<path opacity="0.5" d="M19.7165 20.3627C21.143 19.5848 22 18.5876 22 17.5002C22 16.3477 21.0372 15.2964 19.4537 14.5002C17.6226 13.5796 14.9617 13.0002 12 13.0002C9.03833 13.0002 6.37738 13.5796 4.54631 14.5002C2.96285 15.2964 2 16.3477 2 17.5002C2 18.6528 2.96285 19.7041 4.54631 20.5002C6.37738 21.4209 9.03833 22.0002 12 22.0002C15.1066 22.0002 17.8823 21.3628 19.7165 20.3627Z" fill="#1C274C"/>
<path fill-rule="evenodd" clip-rule="evenodd" d="M5 8.51488C5 4.91695 8.13401 2.00024 12 2.00024C15.866 2.00024 19 4.91695 19 8.51488C19 12.0846 16.7658 16.2502 13.2801 17.7398C12.4675 18.0871 11.5325 18.0871 10.7199 17.7398C7.23416 16.2502 5 12.0846 5 8.51488ZM12 11.0002C13.1046 11.0002 14 10.1048 14 9.00024C14 7.89567 13.1046 7.00024 12 7.00024C10.8954 7.00024 10 7.89567 10 9.00024C10 10.1048 10.8954 11.0002 12 11.0002Z" fill="#1C274C"/>
</svg>
