<svg width="24" height="24" viewBox="0 0 24 24" fill="none" xmlns="http://www.w3.org/2000/svg">
<g opacity="0.5">
<path d="M3 8.70963V16.838C3 17.8816 3 18.4034 3.28314 18.7962C3.56627 19.189 4.06129 19.354 5.05132 19.684L6.21609 20.0723C7.58318 20.528 8.26674 20.7558 8.95493 20.6637C8.96999 20.6617 8.98501 20.6595 9 20.6572V6.6573C8.88712 6.67416 8.77331 6.68458 8.6591 6.68848C8.11989 6.70689 7.58626 6.52901 6.51901 6.17326C5.12109 5.70729 4.42213 5.4743 3.89029 5.7109C3.70147 5.79491 3.53204 5.91702 3.39264 6.06959C3 6.49931 3 7.23608 3 8.70963Z" fill="#1C274C"/>
<path d="M21 15.2909V7.16254C21 6.11896 21 5.59716 20.7169 5.20433C20.4337 4.8115 19.9387 4.6465 18.9487 4.31649L17.7839 3.92823C16.4168 3.47253 15.7333 3.24468 15.0451 3.33684C15.03 3.33886 15.015 3.34102 15 3.34334V17.3432C15.1129 17.3264 15.2267 17.3159 15.3409 17.312C15.8801 17.2936 16.4137 17.4715 17.481 17.8273C18.8789 18.2932 19.5779 18.5262 20.1097 18.2896C20.2985 18.2056 20.468 18.0835 20.6074 17.9309C21 17.5012 21 16.7644 21 15.2909Z" fill="#1C274C"/>
</g>
<path d="M9.24685 6.60975C9.16522 6.62905 9.08286 6.6449 9 6.65728V20.6572C9.66964 20.5538 10.2689 20.1543 11.4416 19.3725L12.824 18.4509C13.7601 17.8269 14.2281 17.5149 14.7532 17.3907C14.8348 17.3714 14.9171 17.3556 15 17.3432V3.34332C14.3304 3.44668 13.7311 3.84616 12.5583 4.62802L11.176 5.5496C10.2399 6.17362 9.77191 6.48564 9.24685 6.60975Z" fill="#1C274C"/>
<path d="M17.481 17.8273C17.5684 17.8564 17.653 17.8846 17.735 17.9118L17.481 17.8273Z" fill="#1C274C"/>
</svg>
