<svg width="24" height="24" viewBox="0 0 24 24" fill="none" xmlns="http://www.w3.org/2000/svg">
<path opacity="0.5" d="M13 2.00037H11C9.11438 2.00037 8.17157 2.00037 7.58579 2.58615C7 3.17194 7 4.11475 7 6.00037V8.00037V10.0004H17V8.00037V6.00037C17 4.11475 17 3.17194 16.4142 2.58615C15.8284 2.00037 14.8856 2.00037 13 2.00037Z" fill="#1C274C"/>
<path fill-rule="evenodd" clip-rule="evenodd" d="M12 22.0004C16.4183 22.0004 20 18.4186 20 14.0004C20 9.58209 16.4183 6.00037 12 6.00037C7.58172 6.00037 4 9.58209 4 14.0004C4 18.4186 7.58172 22.0004 12 22.0004ZM12 11.0004C11.7159 11.0004 11.5259 11.3412 11.1459 12.0229L11.0476 12.1992C10.9397 12.3929 10.8857 12.4898 10.8015 12.5537C10.7173 12.6176 10.6125 12.6413 10.4028 12.6888L10.2119 12.732C9.47396 12.8989 9.10501 12.9824 9.01723 13.2647C8.92945 13.547 9.18097 13.8411 9.68403 14.4293L9.81418 14.5815C9.95713 14.7487 10.0286 14.8323 10.0608 14.9357C10.0929 15.0391 10.0821 15.1506 10.0605 15.3736L10.0408 15.5767C9.96476 16.3615 9.92674 16.754 10.1565 16.9284C10.3864 17.1029 10.7318 16.9438 11.4227 16.6257L11.6014 16.5434C11.7978 16.453 11.8959 16.4078 12 16.4078C12.1041 16.4078 12.2022 16.453 12.3986 16.5434L12.5773 16.6257C13.2682 16.9438 13.6136 17.1029 13.8435 16.9284C14.0733 16.754 14.0352 16.3615 13.9592 15.5767L13.9395 15.3736C13.9179 15.1506 13.9071 15.0391 13.9392 14.9357C13.9714 14.8323 14.0429 14.7487 14.1858 14.5815L14.316 14.4293C14.819 13.8411 15.0706 13.547 14.9828 13.2647C14.895 12.9824 14.526 12.8989 13.7881 12.732L13.5972 12.6888C13.3875 12.6413 13.2827 12.6176 13.1985 12.5537C13.1143 12.4898 13.0603 12.3929 12.9524 12.1992L12.8541 12.0229C12.4741 11.3412 12.2841 11.0004 12 11.0004Z" fill="#1C274C"/>
</svg>
