<svg width="24" height="24" viewBox="0 0 24 24" fill="none" xmlns="http://www.w3.org/2000/svg">
<path opacity="0.5" d="M2 9.00049C2 5.22925 2 3.34363 3.17157 2.17206C4.34315 1.00049 6.22876 1.00049 10 1.00049H14C17.7712 1.00049 19.6569 1.00049 20.8284 2.17206C22 3.34363 22 5.22925 22 9.00049V13.0005C22 16.7717 22 18.6573 20.8284 19.8289C19.6569 21.0005 17.7712 21.0005 14 21.0005H10C6.22876 21.0005 4.34315 21.0005 3.17157 19.8289C2 18.6573 2 16.7717 2 13.0005V9.00049Z" fill="#1C274C"/>
<path d="M6 12.9113V7.49698C6 6.673 6.66539 6.00122 7.48717 6.0614C7.99967 6.09892 8.55592 6.16277 9 6.27128C9.8239 6.47258 10.851 6.97159 11.4646 7.29367C11.4763 7.29982 11.4881 7.30574 11.5 7.31143V15.7267C11.4975 15.7254 11.495 15.7241 11.4926 15.7228C10.8826 15.4014 9.83655 14.8901 9 14.6857C8.56248 14.5788 8.01608 14.5152 7.50991 14.4775C6.67934 14.4155 6 13.7442 6 12.9113Z" fill="#1C274C"/>
<path d="M12.5 15.7267C12.5025 15.7254 12.505 15.7241 12.5074 15.7228C13.1174 15.4014 14.1634 14.8901 15 14.6857C15.4375 14.5788 15.9839 14.5152 16.4901 14.4775C17.3207 14.4155 18 13.7442 18 12.9113V7.45203C18 6.64592 17.3619 5.98265 16.5568 6.02219C15.9405 6.05245 15.2404 6.12147 14.7 6.27128C13.9685 6.47404 13.0752 6.95076 12.5219 7.2709C12.5147 7.27511 12.5073 7.27923 12.5 7.28326V15.7267Z" fill="#1C274C"/>
</svg>
