<svg width="24" height="24" viewBox="0 0 24 24" fill="none" xmlns="http://www.w3.org/2000/svg">
<path fill-rule="evenodd" clip-rule="evenodd" d="M20.8293 10.7159L20.3116 12.6478C19.7074 14.9028 19.4052 16.0304 18.7203 16.7617C18.1795 17.3391 17.4796 17.7432 16.7092 17.9228C16.6129 17.9453 16.5152 17.9625 16.415 17.9749C15.4999 18.0878 14.3834 17.7886 12.3508 17.244C10.0957 16.6397 8.96815 16.3376 8.23687 15.6527C7.65945 15.1119 7.25537 14.412 7.07573 13.6415C6.84821 12.6657 7.15033 11.5382 7.75458 9.28311L8.27222 7.35126C8.3591 7.02703 8.43979 6.72589 8.51621 6.4461C8.97128 4.78006 9.27709 3.86347 9.86351 3.23736C10.4043 2.65994 11.1042 2.25586 11.8747 2.07622C12.8504 1.8487 13.978 2.15082 16.2331 2.75507C18.4881 3.35932 19.6157 3.66144 20.347 4.34636C20.9244 4.88717 21.3285 5.58706 21.5081 6.35751C21.7356 7.33329 21.4335 8.46083 20.8293 10.7159ZM11.0524 9.80637C11.1596 9.40627 11.5709 9.16884 11.971 9.27604L16.8006 10.5701C17.2007 10.6773 17.4381 11.0886 17.3309 11.4887C17.2237 11.8888 16.8125 12.1262 16.4124 12.019L11.5827 10.7249C11.1826 10.6177 10.9452 10.2065 11.0524 9.80637ZM10.2756 12.7038C10.3828 12.3037 10.794 12.0663 11.1941 12.1735L14.0919 12.95C14.492 13.0572 14.7294 13.4684 14.6222 13.8685C14.515 14.2686 14.1038 14.5061 13.7037 14.3989L10.8059 13.6224C10.4058 13.5152 10.1683 13.1039 10.2756 12.7038Z" fill="#1C274C"/>
<path opacity="0.5" d="M16.4149 17.9749C16.2064 18.6133 15.8398 19.1908 15.347 19.6524C14.6157 20.3373 13.4881 20.6394 11.2331 21.2437C8.97798 21.8479 7.85044 22.1501 6.87466 21.9225C6.10421 21.7429 5.40432 21.3388 4.86351 20.7614C4.17859 20.0301 3.87647 18.9026 3.27222 16.6475L2.75458 14.7156C2.15033 12.4606 1.84821 11.333 2.07573 10.3572C2.25537 9.58679 2.65945 8.8869 3.23687 8.34609C3.96815 7.66117 5.09569 7.35905 7.35077 6.7548C7.7774 6.64048 8.16369 6.53698 8.51621 6.44583C8.51618 6.44594 8.51624 6.44572 8.51621 6.44583C8.43979 6.72562 8.3591 7.02706 8.27222 7.35129L7.75458 9.28314C7.15033 11.5382 6.84821 12.6658 7.07573 13.6415C7.25537 14.412 7.65945 15.1119 8.23687 15.6527C8.96815 16.3376 10.0957 16.6397 12.3508 17.244C14.3833 17.7886 15.4999 18.0878 16.4149 17.9749Z" fill="#1C274C"/>
</svg>
