<svg width="24" height="24" viewBox="0 0 24 24" fill="none" xmlns="http://www.w3.org/2000/svg">
<path fill-rule="evenodd" clip-rule="evenodd" d="M8.88558 3.36286C11.8283 0.546039 16.5864 0.546039 19.5291 3.36286C19.8283 3.64928 19.8387 4.12404 19.5523 4.42327C19.2658 4.72249 18.7911 4.73287 18.4919 4.44645C16.1292 2.18484 12.2855 2.18484 9.9228 4.44645L3.51861 10.5766C3.21939 10.8631 2.74463 10.8527 2.45821 10.5535C2.17179 10.2542 2.18216 9.77948 2.48139 9.49306L8.88558 3.36286ZM15.2666 6.45114C15.553 6.15191 16.0278 6.14154 16.327 6.42796C17.5829 7.63014 17.5829 9.5934 16.327 10.7956L8.43612 18.3489C8.13689 18.6353 7.66213 18.6249 7.37571 18.3257C7.08929 18.0265 7.09967 17.5517 7.39889 17.2653L15.2898 9.71199C15.9286 9.10045 15.9286 8.12309 15.2898 7.51155C14.9905 7.22512 14.9802 6.75036 15.2666 6.45114Z" fill="#1C274C"/>
<path opacity="0.5" d="M18.4914 4.44634C20.8356 6.69023 20.8356 10.3142 18.4914 12.5581L10.5433 20.1661C9.0333 21.6115 6.57204 21.6115 5.06201 20.1661C3.57048 18.7383 3.57048 16.4377 5.06201 15.01L12.8957 7.51144C13.5531 6.88218 14.6319 6.88219 15.2893 7.51144C14.9904 7.22498 14.9803 6.75026 15.2666 6.45114C15.5479 6.15728 16.0108 6.142 16.3107 6.41286C15.0722 5.2434 13.0906 5.2484 11.8585 6.42785L4.02478 13.9264C1.91622 15.9447 1.91622 19.2313 4.02478 21.2497C6.11485 23.2503 9.4905 23.2503 11.5806 21.2497L19.5286 13.6416C22.4848 10.812 22.4898 6.21304 19.5438 3.37731C19.8286 3.66503 19.8339 4.12902 19.5523 4.42327C19.2658 4.72249 18.7906 4.73276 18.4914 4.44634Z" fill="#1C274C"/>
</svg>
