<svg width="24" height="24" viewBox="0 0 24 24" fill="none" xmlns="http://www.w3.org/2000/svg">
<path opacity="0.5" d="M3.03365 8.89004C2.55311 5.68645 2.31285 4.08466 3.21049 3.04233C4.10813 2 5.72784 2 8.96727 2H15.033C18.2724 2 19.8922 2 20.7898 3.04233C21.6874 4.08466 21.4472 5.68646 20.9666 8.89004L19.7666 16.89C19.401 19.3276 19.2182 20.5464 18.3743 21.2732C17.5303 22 16.2979 22 13.833 22H10.1673C7.7024 22 6.46997 22 5.62604 21.2732C4.78211 20.5464 4.59929 19.3276 4.23365 16.89L3.03365 8.89004Z" fill="#1C274C"/>
<path fill-rule="evenodd" clip-rule="evenodd" d="M3.51737 12.1152L3.22735 10.1817L5.07173 8.13244L3.68929 6.75H2.72964C2.66015 6.18322 2.61547 5.68747 2.60657 5.25H21.3936C21.3847 5.68747 21.34 6.18322 21.2705 6.75H20.3106L18.9282 8.13244L20.7728 10.182L20.4829 12.1148L18.8825 13.8219L20.0515 14.9909L19.7748 16.8355L17.856 14.9168L15.9793 16.9187L17.3106 18.25H19.5561C19.4583 18.8397 19.3612 19.3331 19.2422 19.75H4.75803C4.63896 19.3331 4.5419 18.8397 4.44405 18.25H6.68929L8.02063 16.9187L6.14385 14.9168L4.22538 16.8352L3.94868 14.9906L5.11741 13.8219L3.51737 12.1152ZM6.07656 7.01596L5.81061 6.75H6.31592L6.07656 7.01596ZM7.13869 8.07809L8.33397 6.75H9.68929L10.9393 8L8.99995 9.93934L7.13869 8.07809ZM11.9999 6.93934L11.8106 6.75H12.1893L11.9999 6.93934ZM13.0606 8L14.3106 6.75H15.6659L16.8612 8.07809L14.9999 9.93934L13.0606 8ZM17.9233 7.01596L17.684 6.75H18.1893L17.9233 7.01596ZM16.0606 11L17.866 9.19457L19.4816 10.9896L17.8213 12.7607L16.0606 11ZM14.9999 12.0607L16.7948 13.8555L14.918 15.8574L13.0606 14L14.9999 12.0607ZM11.9999 15.0607L13.8916 16.9523L12.675 18.25H11.3249L10.1083 16.9523L11.9999 15.0607ZM15.1893 18.25H14.7311L14.9528 18.0135L15.1893 18.25ZM9.04708 18.0135L9.26877 18.25H8.81061L9.04708 18.0135ZM10.9393 14L9.08185 15.8574L7.20506 13.8555L8.99995 12.0607L10.9393 14ZM7.93929 11L6.17862 12.7607L4.51829 10.9896L6.13386 9.19457L7.93929 11ZM11.9999 12.9393L10.0606 11L11.9999 9.06066L13.9393 11L11.9999 12.9393Z" fill="#1C274C"/>
</svg>
