<svg width="24" height="24" viewBox="0 0 24 24" fill="none" xmlns="http://www.w3.org/2000/svg">
<path d="M12 10.7505C10.7574 10.7505 9.75 11.7578 9.75 13.0005C9.75 14.2431 10.7574 15.2505 12 15.2505C13.2426 15.2505 14.25 14.2431 14.25 13.0005C14.25 11.7578 13.2426 10.7505 12 10.7505Z" fill="#1C274C"/>
<path fill-rule="evenodd" clip-rule="evenodd" d="M4 4.69482V18.6948C4 20.3517 5.34315 21.6948 7 21.6948H17C18.6569 21.6948 20 20.3517 20 18.6948V8.69482C20 7.03797 18.6569 5.69482 17 5.69482H5C4.44772 5.69482 4 5.24711 4 4.69482ZM12 9.25049C9.92893 9.25049 8.25 10.9294 8.25 13.0005C8.25 15.0716 9.92893 16.7505 12 16.7505C14.0711 16.7505 15.75 15.0716 15.75 13.0005C15.75 10.9294 14.0711 9.25049 12 9.25049Z" fill="#1C274C"/>
<path opacity="0.5" d="M18 4.00086V5.86553C17.6872 5.75498 17.3506 5.69482 17 5.69482H5C4.44772 5.69482 4 5.24711 4 4.69482V4.62378C4 4.09076 4.39193 3.63885 4.91959 3.56347L15.7172 2.02097C16.922 1.84884 18 2.78377 18 4.00086Z" fill="#1C274C"/>
</svg>
