<svg width="24" height="24" viewBox="0 0 24 24" fill="none" xmlns="http://www.w3.org/2000/svg">
<path opacity="0.6" d="M19.7165 20.3627C21.143 19.5848 22 18.5876 22 17.5002C22 16.3477 21.0372 15.2964 19.4537 14.5002C17.6226 13.5796 14.9617 13.0002 12 13.0002C9.03833 13.0002 6.37738 13.5796 4.54631 14.5002C2.96285 15.2964 2 16.3477 2 17.5002C2 18.6528 2.96285 19.7041 4.54631 20.5002C6.37738 21.4209 9.03833 22.0002 12 22.0002C15.1066 22.0002 17.8823 21.3628 19.7165 20.3627Z" fill="#1C274C"/>
<path fill-rule="evenodd" clip-rule="evenodd" d="M9.25 4.00024C9.25 2.48146 10.4812 1.25024 12 1.25024C13.5188 1.25024 14.75 2.48146 14.75 4.00024C14.75 5.51903 13.5188 6.75024 12 6.75024C10.4812 6.75024 9.25 5.51903 9.25 4.00024Z" fill="#1C274C"/>
<path d="M8.22309 11.5746L6.04779 10.8495C5.42206 10.6409 5 10.0553 5 9.39575C5 8.42018 5.89953 7.69298 6.85345 7.89739L8.75102 8.30402C8.85654 8.32663 8.9093 8.33793 8.96161 8.34875C10.966 8.76335 13.034 8.76335 15.0384 8.34875C15.0907 8.33793 15.1435 8.32663 15.249 8.30401L17.1465 7.89739C18.1005 7.69298 19 8.42018 19 9.39575C19 10.0553 18.5779 10.6409 17.9522 10.8495L15.7769 11.5746C15.514 11.6622 15.3826 11.706 15.2837 11.767C14.9471 11.9748 14.7646 12.3615 14.8182 12.7535C14.834 12.8685 14.8837 12.9979 14.9832 13.2565L16.23 16.4981C16.6011 17.4631 15.8888 18.5002 14.8549 18.5002C14.3263 18.5002 13.8381 18.2169 13.5758 17.7579L12 15.0002L10.4242 17.7579C10.1619 18.2169 9.67373 18.5002 9.14506 18.5002C8.11118 18.5002 7.39889 17.4631 7.77003 16.4981L9.01682 13.2565C9.11629 12.9979 9.16603 12.8685 9.18177 12.7535C9.23536 12.3615 9.05287 11.9748 8.71625 11.767C8.61741 11.706 8.48597 11.6622 8.22309 11.5746Z" fill="#1C274C"/>
</svg>
