<svg width="24" height="24" viewBox="0 0 24 24" fill="none" xmlns="http://www.w3.org/2000/svg">
<path fill-rule="evenodd" clip-rule="evenodd" d="M10.6866 6.47922L10.0376 5.31629C9.15317 3.73156 6.93076 3.5444 5.53781 4.93735C4.7008 5.77436 4.04952 6.79972 4.00655 7.93321C3.95086 9.40227 4.22428 11.6611 5.83644 14.1062L10.1147 9.82793C11.0372 8.90545 11.2723 7.52871 10.6866 6.47922ZM14.1722 13.8854L9.89393 18.1637C12.3391 19.7758 14.5979 20.0493 16.0669 19.9936C17.2004 19.9506 18.2258 19.2993 19.0628 18.4623C20.4557 17.0694 20.2686 14.8469 18.6838 13.9625L17.5209 13.3135C16.4714 12.7278 15.0947 12.9629 14.1722 13.8854Z" fill="#1C274C"/>
<path opacity="0.5" d="M11.0245 12.9757C8.99576 10.9469 10.1147 9.828 10.1147 9.828L5.83643 14.1063C6.31827 14.8371 6.91971 15.5845 7.66769 16.3325C8.41567 17.0805 9.16311 17.6819 9.89392 18.1638L14.1722 13.8855C14.1722 13.8855 13.0532 15.0044 11.0245 12.9757Z" fill="#1C274C"/>
</svg>
