<svg width="24" height="24" viewBox="0 0 24 24" fill="none" xmlns="http://www.w3.org/2000/svg">
<path opacity="0.5" d="M20 12C20 16.4183 16.4183 20 12 20C7.58172 20 4 16.4183 4 12C4 7.58172 7.58172 4 12 4C16.4183 4 20 7.58172 20 12Z" fill="#1C274C"/>
<path d="M19.0088 6.78376C19.4213 6.74579 19.7249 6.38064 19.6869 5.96817C19.649 5.5557 19.2838 5.25211 18.8714 5.29007C18.4476 5.32908 17.9973 5.39614 17.5263 5.48896C17.3267 5.5283 17.1613 5.64345 17.0542 5.7986L18.1715 6.89534C18.467 6.84504 18.7466 6.80789 19.0088 6.78376Z" fill="#1C274C"/>
<path fill-rule="evenodd" clip-rule="evenodd" d="M20.9368 5.379C20.5337 5.28353 20.1296 5.53289 20.0341 5.93595C19.9387 6.33901 20.188 6.74315 20.5911 6.83861C20.9851 6.93195 21.1369 7.071 21.1933 7.16118C21.2567 7.26244 21.3264 7.52708 21.0365 8.10913C20.8518 8.47989 21.0026 8.93017 21.3734 9.11486C21.7442 9.29954 22.1944 9.1487 22.3791 8.77794C22.7568 8.01979 22.9424 7.12862 22.465 6.36558C22.1208 5.81549 21.5417 5.52228 20.9368 5.379ZM20.712 10.9609C21.0038 10.667 21.0021 10.1921 20.7082 9.90025C20.4142 9.60841 19.9394 9.61012 19.6475 9.90406C18.9611 10.5955 18.0799 11.3334 17.0389 12.0751C16.7016 12.3154 16.6229 12.7837 16.8633 13.1211C17.1036 13.4584 17.572 13.5371 17.9093 13.2967C19.0037 12.517 19.9534 11.725 20.712 10.9609ZM3.58712 14.9473C3.78865 14.695 4.02445 14.4304 4.29331 14.1561L4.05542 12.8259C3.80012 12.7507 3.51269 12.8139 3.31153 13.0157C2.97667 13.3514 2.67612 13.6844 2.41516 14.0111C2.15663 14.3347 2.2094 14.8066 2.53303 15.0651C2.85666 15.3237 3.32859 15.2709 3.58712 14.9473ZM15.7506 14.7038C16.1061 14.4912 16.222 14.0307 16.0094 13.6752C15.7969 13.3197 15.3363 13.2038 14.9808 13.4163C14.4993 13.7043 13.9976 13.9879 13.4783 14.2646C12.9447 14.5488 12.4134 14.8147 11.8884 15.0613C11.5135 15.2374 11.3524 15.6841 11.5285 16.059C11.7046 16.4339 12.1513 16.595 12.5262 16.4189C13.074 16.1616 13.6279 15.8845 14.1836 15.5884C14.7244 15.3003 15.2476 15.0045 15.7506 14.7038ZM2.81497 16.2499C2.94073 15.8552 2.72275 15.4333 2.32809 15.3076C1.93343 15.1818 1.51154 15.3998 1.38578 15.7945C1.19408 16.396 1.1737 17.0571 1.53504 17.6346C1.98791 18.3585 2.8417 18.6411 3.68923 18.7222C4.10156 18.7617 4.46781 18.4594 4.50728 18.0471C4.54674 17.6347 4.24448 17.2685 3.83215 17.229C3.13779 17.1626 2.88371 16.9622 2.80667 16.839C2.75695 16.7596 2.70495 16.5951 2.81497 16.2499ZM10.0832 17.4527C10.4709 17.3071 10.6673 16.8747 10.5217 16.4869C10.3761 16.0991 9.94375 15.9028 9.55597 16.0484C8.33128 16.5081 7.19105 16.8403 6.19433 17.0374C5.78799 17.1178 5.52376 17.5124 5.60415 17.9187C5.68453 18.3251 6.0791 18.5893 6.48544 18.5089C7.57797 18.2928 8.79802 17.9351 10.0832 17.4527Z" fill="#1C274C"/>
</svg>
