<svg width="24" height="24" viewBox="0 0 24 24" fill="none" xmlns="http://www.w3.org/2000/svg">
<path opacity="0.5" fill-rule="evenodd" clip-rule="evenodd" d="M2.25 4.00024C2.25 3.58603 2.58579 3.25024 3 3.25024H20C20.4142 3.25024 20.75 3.58603 20.75 4.00024C20.75 4.41446 20.4142 4.75024 20 4.75024H3C2.58579 4.75024 2.25 4.41446 2.25 4.00024ZM2.25 9.00024C2.25 8.58603 2.58579 8.25024 3 8.25024H12C12.4142 8.25024 12.75 8.58603 12.75 9.00024C12.75 9.41446 12.4142 9.75024 12 9.75024H3C2.58579 9.75024 2.25 9.41446 2.25 9.00024ZM2.25 14.0002C2.25 13.586 2.58579 13.2502 3 13.2502H8C8.41421 13.2502 8.75 13.586 8.75 14.0002C8.75 14.4145 8.41421 14.7502 8 14.7502H3C2.58579 14.7502 2.25 14.4145 2.25 14.0002Z" fill="#1C274C"/>
<path d="M19.3446 6.99317C19.6232 6.8905 19.9559 6.80242 20.3149 6.8681C20.7572 6.949 21.1513 7.19703 21.4156 7.56074C21.6302 7.856 21.6948 8.19397 21.7228 8.48959C21.75 8.7773 21.75 9.13609 21.75 9.54491L21.75 9.57922L21.7501 9.65484C21.7509 9.95494 21.7518 10.2755 21.644 10.5707C21.559 10.8038 21.4254 11.0162 21.252 11.1937C21.0324 11.4186 20.7431 11.5565 20.4722 11.6857L20.404 11.7183L18.6185 12.5753C18.25 12.7523 17.9266 12.9075 17.6554 13.0074C17.3936 13.1039 17.0842 13.1875 16.75 13.1428V17.4289C16.75 19.2432 15.3147 20.7503 13.5 20.7503C11.6853 20.7503 10.25 19.2432 10.25 17.4289C10.25 15.6146 11.6853 14.1074 13.5 14.1074C14.1477 14.1074 14.747 14.2994 15.25 14.6288V11.0003H15.2529C15.25 10.8315 15.25 10.6492 15.25 10.4557L15.25 10.4214L15.2499 10.3458C15.2491 10.0457 15.2482 9.72516 15.356 9.42987C15.441 9.19677 15.5746 8.98441 15.748 8.80688C15.9676 8.58201 16.2569 8.44407 16.5278 8.31491L16.596 8.28231L18.3814 7.42528C18.75 7.24836 19.0734 7.09308 19.3446 6.99317Z" fill="#1C274C"/>
</svg>
