<svg width="24" height="24" viewBox="0 0 24 24" fill="none" xmlns="http://www.w3.org/2000/svg">
<path opacity="0.5" d="M3.46447 3.46471C2 4.92918 2 7.2862 2 12.0002C2 12.8187 2 13.5662 2.00767 14.2502H5L5.10773 14.2501C5.63376 14.2493 6.10075 14.2486 6.52918 14.4322C6.9576 14.6158 7.27913 14.9545 7.64131 15.3359L7.71552 15.414L8.85712 16.6127C8.9656 16.7266 9.14832 16.7144 9.24061 16.587L12.8944 11.5438C13.0432 11.3381 13.1985 11.1236 13.3518 10.9655C13.5272 10.7846 13.7992 10.5711 14.1937 10.5529C14.5882 10.5348 14.8787 10.7225 15.0699 10.8865C15.2371 11.0299 15.4114 11.2292 15.5785 11.4204L17.3823 13.4819C17.868 14.037 17.9718 14.1318 18.085 14.1832C18.1982 14.2346 18.3379 14.2502 19.0756 14.2502H21.9923C22 13.5662 22 12.8187 22 12.0002C22 7.2862 22 4.92918 20.5355 3.46471C19.0711 2.00024 16.714 2.00024 12 2.00024C7.28595 2.00024 4.92893 2.00024 3.46447 3.46471Z" fill="#1C274C"/>
<path d="M2.00769 14.2503C2.04417 17.5059 2.2543 19.3256 3.46449 20.5358C4.92896 22.0003 7.28598 22.0003 12 22.0003C16.7141 22.0003 19.0711 22.0003 20.5356 20.5358C21.7457 19.3256 21.9559 17.5059 21.9924 14.2503H19.0756C18.3379 14.2503 18.1983 14.2346 18.0851 14.1832C17.9718 14.1319 17.8681 14.0371 17.3823 13.4819L15.5785 11.4204C15.4114 11.2293 15.2371 11.0299 15.0699 10.8866C14.8787 10.7225 14.5883 10.5348 14.1938 10.553C13.7992 10.5711 13.5273 10.7847 13.3519 10.9655C13.1986 11.1236 13.0433 11.3381 12.8944 11.5438L9.24063 16.587C9.14835 16.7144 8.96562 16.7266 8.85714 16.6127L7.71554 15.4141L7.64133 15.336C7.27915 14.9545 6.95762 14.6158 6.5292 14.4322C6.10078 14.2486 5.63379 14.2493 5.10775 14.2502L5.00003 14.2503H2.00769Z" fill="#1C274C"/>
</svg>
