<svg width="24" height="24" viewBox="0 0 24 24" fill="none" xmlns="http://www.w3.org/2000/svg">
<g opacity="0.5">
<path d="M10.5531 13.4474C10.1294 13.0237 9.60212 12.851 9.01812 12.7725C8.46484 12.6981 7.76789 12.6981 6.93209 12.6982L5.82717 12.6982C5.24648 12.6981 4.76184 12.6981 4.36823 12.7356C3.95674 12.7747 3.57325 12.8596 3.22152 13.0751C2.87731 13.2861 2.5879 13.5755 2.37697 13.9197C2.16142 14.2714 2.07653 14.6549 2.0374 15.0664C1.99998 15.46 1.99999 15.9447 2 16.5254V16.5937C1.99999 17.4774 1.99999 18.1902 2.05454 18.764C2.1108 19.3557 2.22996 19.8712 2.51405 20.3348C2.80168 20.8042 3.19632 21.1988 3.6657 21.4864C4.12929 21.7705 4.64482 21.8897 5.23653 21.9459C5.8103 22.0005 6.52304 22.0005 7.40683 22.0005H7.47507C8.05577 22.0005 8.54048 22.0005 8.9341 21.9631C9.34559 21.924 9.72907 21.8391 10.0808 21.6235C10.425 21.4126 10.7144 21.1232 10.9254 20.779C11.1409 20.4272 11.2258 20.0438 11.2649 19.6323C11.3024 19.2386 11.3023 18.754 11.3023 18.1733L11.3023 17.0684C11.3024 16.2326 11.3024 15.5356 11.228 14.9824C11.1495 14.3984 10.9768 13.8711 10.5531 13.4474Z" fill="#1C274C"/>
<path d="M8.9341 2.03789C9.34559 2.07702 9.72907 2.16191 10.0808 2.37746C10.425 2.58839 10.7144 2.87779 10.9254 3.22201C11.1409 3.57374 11.2258 3.95722 11.2649 4.36872C11.3024 4.76232 11.3023 5.24707 11.3023 5.82775L11.3023 6.93261C11.3024 7.76839 11.3024 8.46533 11.228 9.01861C11.1495 9.6026 10.9768 10.1299 10.5531 10.5536C10.1294 10.9772 9.60212 11.15 9.01812 11.2285C8.46484 11.3029 7.76787 11.3028 6.93209 11.3028L5.82711 11.3028C5.24643 11.3028 4.76183 11.3028 4.36823 11.2654C3.95674 11.2263 3.57325 11.1414 3.22152 10.9258C2.87731 10.7149 2.5879 10.4255 2.37697 10.0813C2.16142 9.72956 2.07653 9.34608 2.0374 8.93458C1.99998 8.54096 1.99999 8.05628 2 7.47555V7.40728C1.99999 6.52351 1.99999 5.81078 2.05454 5.23702C2.1108 4.64531 2.22996 4.12978 2.51405 3.66619C2.80168 3.19681 3.19632 2.80217 3.6657 2.51454C4.12929 2.23045 4.64482 2.11129 5.23653 2.05503C5.81029 2.00047 6.52307 2.00048 7.40684 2.00049H7.4751C8.05583 2.00048 8.54047 2.00047 8.9341 2.03789Z" fill="#1C274C"/>
<path d="M16.5932 2.00049H16.5249C15.9442 2.00048 15.4595 2.00047 15.0659 2.03789C14.6544 2.07702 14.2709 2.16191 13.9192 2.37746C13.575 2.58839 13.2856 2.87779 13.0746 3.22201C12.8591 3.57374 12.7742 3.95722 12.7351 4.36872C12.6976 4.76234 12.6977 5.24703 12.6977 5.82774L12.6977 6.93258C12.6976 7.76838 12.6976 8.46532 12.772 9.01861C12.8505 9.6026 13.0232 10.1299 13.4469 10.5536C13.8706 10.9772 14.3979 11.15 14.9819 11.2285C15.5352 11.3029 16.2321 11.3028 17.0679 11.3028L18.1728 11.3028C18.7535 11.3028 19.2382 11.3028 19.6318 11.2654C20.0433 11.2263 20.4267 11.1414 20.7785 10.9258C21.1227 10.7149 21.4121 10.4255 21.623 10.0813C21.8386 9.72956 21.9235 9.34608 21.9626 8.93458C22 8.54097 22 8.05636 22 7.47566V7.40732C22 6.52353 22 5.81078 21.9455 5.23702C21.8892 4.64531 21.77 4.12978 21.486 3.66619C21.1983 3.19681 20.8037 2.80217 20.3343 2.51454C19.8707 2.23045 19.3552 2.11129 18.7635 2.05503C18.1897 2.00047 17.477 2.00048 16.5932 2.00049Z" fill="#1C274C"/>
</g>
<path opacity="0.4" d="M14.0926 21.3029C14.0926 21.6882 13.7803 22.0006 13.3949 22.0006C13.0096 22.0006 12.6973 21.6882 12.6973 21.3029V18.5122H14.0926V21.3029Z" fill="#1C274C"/>
<path opacity="0.5" d="M21.3022 12.6982C20.9169 12.6982 20.6045 13.0106 20.6045 13.3959V16.6517H21.9998V13.3959C21.9998 13.0106 21.6875 12.6982 21.3022 12.6982Z" fill="#1C274C"/>
<path d="M16.0761 16.6178C16 16.8016 16 17.0345 16 17.5005C16 17.9664 16 18.1994 16.0761 18.3832C16.1776 18.6282 16.3723 18.8229 16.6173 18.9244C16.8011 19.0005 17.0341 19.0005 17.5 19.0005C17.9659 19.0005 18.1989 19.0005 18.3827 18.9244C18.6277 18.8229 18.8224 18.6282 18.9239 18.3832C19 18.1994 19 17.9664 19 17.5005C19 17.0345 19 16.8016 18.9239 16.6178C18.8224 16.3728 18.6277 16.1781 18.3827 16.0766C18.1989 16.0005 17.9659 16.0005 17.5 16.0005C17.0341 16.0005 16.8011 16.0005 16.6173 16.0766C16.3723 16.1781 16.1776 16.3728 16.0761 16.6178Z" fill="#1C274C"/>
<path opacity="0.7" d="M21.9996 18.5357V18.5122H20.6042C20.6042 18.9552 20.6039 19.2525 20.5882 19.4827C20.5729 19.7066 20.5455 19.8157 20.5157 19.8874C20.3977 20.1723 20.1714 20.3987 19.8864 20.5167C19.8147 20.5464 19.7056 20.5739 19.4817 20.5891C19.2515 20.6049 18.9542 20.6052 18.5112 20.6052H16.6508V22.0006H18.5347C18.9482 22.0006 19.2933 22.0006 19.5767 21.9813C19.8717 21.9611 20.1503 21.9177 20.4204 21.8059C21.0472 21.5462 21.5452 21.0482 21.8049 20.4214C21.9168 20.1513 21.9601 19.8726 21.9803 19.5777C21.9996 19.2943 21.9996 18.9491 21.9996 18.5357Z" fill="#1C274C"/>
<path opacity="0.6" d="M12.6973 16.6161V16.6517H14.0926C14.0926 15.984 14.0935 15.5357 14.1282 15.1939C14.1618 14.8638 14.2212 14.7113 14.2886 14.6104C14.3734 14.4834 14.4824 14.3744 14.6094 14.2896C14.7103 14.2221 14.8628 14.1628 15.1929 14.1292C15.5347 14.0944 15.983 14.0936 16.6508 14.0936H18.5112V12.6982H16.6151C15.9922 12.6982 15.4725 12.6982 15.0517 12.741C14.6113 12.7858 14.2025 12.8832 13.8342 13.1294C13.5549 13.316 13.315 13.5558 13.1284 13.8352C12.8823 14.2035 12.7848 14.6122 12.74 15.0527C12.6972 15.4734 12.6973 15.9932 12.6973 16.6161Z" fill="#1C274C"/>
<path d="M5.50861 18.6908C5.72696 18.8457 6.03621 18.8457 6.65469 18.8457C7.27318 18.8457 7.58243 18.8457 7.80078 18.6908C7.87782 18.6361 7.9451 18.5688 7.99976 18.4918C8.15469 18.2734 8.15469 17.9642 8.15469 17.3457C8.15469 16.7272 8.15469 16.418 7.99976 16.1996C7.9451 16.1226 7.87782 16.0553 7.80078 16.0006C7.58243 15.8457 7.27316 15.8457 6.65468 15.8457C6.0362 15.8457 5.72696 15.8457 5.50861 16.0006C5.43156 16.0553 5.36429 16.1226 5.30962 16.1996C5.15469 16.418 5.15469 16.7272 5.15469 17.3457C5.15469 17.9642 5.15469 18.2734 5.30962 18.4918C5.36429 18.5688 5.43156 18.6361 5.50861 18.6908Z" fill="#1C274C"/>
<path d="M6.65454 8.15527C6.03605 8.15527 5.72681 8.15527 5.50846 8.00034C5.43141 7.94568 5.36414 7.8784 5.30947 7.80136C5.15454 7.58301 5.15454 7.27376 5.15454 6.65527C5.15454 6.03678 5.15454 5.72754 5.30947 5.50919C5.36414 5.43214 5.43141 5.36487 5.50846 5.3102C5.72681 5.15527 6.03605 5.15527 6.65454 5.15527C7.27303 5.15527 7.58227 5.15527 7.80063 5.3102C7.87767 5.36487 7.94494 5.43214 7.99961 5.50919C8.15454 5.72754 8.15454 6.03678 8.15454 6.65527C8.15454 7.27376 8.15454 7.58301 7.99961 7.80136C7.94494 7.8784 7.87767 7.94568 7.80063 8.00034C7.58227 8.15527 7.27303 8.15527 6.65454 8.15527Z" fill="#1C274C"/>
<path d="M16.1994 8.00073C16.4178 8.15566 16.727 8.15566 17.3455 8.15566C17.964 8.15566 18.2733 8.15566 18.4916 8.00073C18.5687 7.94606 18.6359 7.87879 18.6906 7.80175C18.8455 7.58339 18.8455 7.27415 18.8455 6.65566C18.8455 6.03717 18.8455 5.72793 18.6906 5.50958C18.6359 5.43253 18.5687 5.36526 18.4916 5.31059C18.2733 5.15566 17.964 5.15566 17.3455 5.15566C16.727 5.15566 16.4178 5.15566 16.1994 5.31059C16.1224 5.36526 16.0551 5.43253 16.0004 5.50958C15.8455 5.72793 15.8455 6.0372 15.8455 6.65568C15.8455 7.27415 15.8455 7.5834 16.0004 7.80175C16.0551 7.87879 16.1224 7.94606 16.1994 8.00073Z" fill="#1C274C"/>
</svg>
