<svg width="24" height="24" viewBox="0 0 24 24" fill="none" xmlns="http://www.w3.org/2000/svg">
<path d="M22 12.0001C22 14.2093 20.2091 16.0001 18 16.0001C15.7909 16.0001 14 14.2093 14 12.0001C14 9.79098 15.7909 8.00012 18 8.00012C20.2091 8.00012 22 9.79098 22 12.0001Z" fill="#1C274C"/>
<path d="M10 12.0001C10 14.2093 8.20914 16.0001 6 16.0001C3.79086 16.0001 2 14.2093 2 12.0001C2 9.79098 3.79086 8.00012 6 8.00012C8.20914 8.00012 10 9.79098 10 12.0001Z" fill="#1C274C"/>
<path opacity="0.5" d="M6 16.0001H18C16.9856 16.0001 16.0593 15.6225 15.3542 15.0001H8.64582C7.94069 15.6225 7.01445 16.0001 6 16.0001Z" fill="#1C274C"/>
</svg>
