<svg width="24" height="24" viewBox="0 0 24 24" fill="none" xmlns="http://www.w3.org/2000/svg">
<circle opacity="0.5" cx="5" cy="5.00024" r="3" fill="#1C274C"/>
<circle opacity="0.5" cx="19" cy="19.0002" r="3" fill="#1C274C"/>
<path fill-rule="evenodd" clip-rule="evenodd" d="M10.25 5.00024C10.25 4.58603 10.5858 4.25024 11 4.25024H16.1319C18.8831 4.25024 19.9294 7.84325 17.6083 9.32031L7.197 15.9457C6.14195 16.6171 6.61754 18.2502 7.86809 18.2502H11.1893L10.9696 18.0306C10.6768 17.7377 10.6768 17.2628 10.9696 16.9699C11.2625 16.677 11.7374 16.677 12.0303 16.9699L13.5303 18.4699C13.8232 18.7628 13.8232 19.2377 13.5303 19.5306L12.0303 21.0306C11.7374 21.3235 11.2625 21.3235 10.9696 21.0306C10.6768 20.7377 10.6768 20.2628 10.9696 19.9699L11.1893 19.7502H7.86809C5.11685 19.7502 4.07059 16.1572 6.39169 14.6802L16.803 8.05482C17.858 7.38343 17.3824 5.75024 16.1319 5.75024H11C10.5858 5.75024 10.25 5.41446 10.25 5.00024Z" fill="#1C274C"/>
</svg>
