<svg width="24" height="24" viewBox="0 0 24 24" fill="none" xmlns="http://www.w3.org/2000/svg">
<path d="M20.7501 4.50049C20.7501 5.8812 19.6308 7.00049 18.2501 7.00049C16.8694 7.00049 15.7501 5.8812 15.7501 4.50049C15.7501 3.11978 16.8694 2.00049 18.2501 2.00049C19.6308 2.00049 20.7501 3.11978 20.7501 4.50049Z" fill="#1C274C"/>
<path fill-rule="evenodd" clip-rule="evenodd" d="M9.80231 5.93112C10.0118 5.90219 10.2601 5.87585 10.5231 5.88751C10.6031 5.89106 10.694 5.89755 10.7964 5.90817C13.179 6.15549 14.9469 7.94372 16.1244 9.70982L16.1867 9.8033C16.7895 10.7074 17.8042 11.2505 18.8908 11.2505H20.7501C21.1643 11.2505 21.5001 11.5863 21.5001 12.0005C21.5001 12.4147 21.1643 12.7505 20.7501 12.7505H18.8908C17.3027 12.7505 15.8196 11.9568 14.9386 10.6354L14.8763 10.5419C14.6038 10.1332 14.3111 9.74517 13.999 9.38993L12.115 11.7446C11.6876 12.2788 11.4009 12.6384 11.2077 12.9339C11.0206 13.2201 10.9671 13.3796 10.9529 13.5008C10.9295 13.7008 10.9547 13.9035 11.0264 14.0916C11.0699 14.2056 11.1608 14.3472 11.4125 14.5788C11.6722 14.8178 12.0383 15.0962 12.5836 15.5093C12.6159 15.5337 12.6477 15.5578 12.679 15.5816C13.3999 16.1272 13.8991 16.505 14.2445 17.0099C14.4409 17.2969 14.5964 17.6098 14.7066 17.9396C14.9004 18.5198 14.9001 19.1459 14.8998 20.05C14.8998 20.0893 14.8997 20.1292 14.8997 20.1696V22.0003C14.8997 22.4145 14.564 22.7503 14.1497 22.7503C13.7355 22.7503 13.3997 22.4145 13.3997 22.0003V20.1696C13.3997 19.0991 13.3907 18.7346 13.2838 18.4148C13.2177 18.2169 13.1244 18.0292 13.0066 17.857C12.8162 17.5787 12.5312 17.3514 11.6778 16.7049L11.649 16.6831C11.1399 16.2974 10.7156 15.976 10.3966 15.6824C10.0636 15.3759 9.78563 15.0476 9.62488 14.6261C9.46704 14.2121 9.41153 13.7662 9.46309 13.3262C9.5156 12.8781 9.7046 12.4917 9.95234 12.1129C10.1896 11.7501 10.5222 11.3344 10.9212 10.8357L12.9048 8.35647C12.2176 7.83372 11.461 7.48522 10.6415 7.40016C10.5674 7.39246 10.506 7.38823 10.4567 7.38604C10.3288 7.38037 10.1856 7.39243 10.0075 7.41702C8.94217 7.56413 7.87464 8.15597 5.55632 9.4732L4.12064 10.2889C3.7605 10.4936 3.30266 10.3675 3.09804 10.0073C2.89341 9.6472 3.01948 9.18937 3.37962 8.98474L4.8153 8.16902C4.86652 8.13992 4.91728 8.11107 4.96759 8.08247C7.08666 6.87813 8.41613 6.12254 9.80231 5.93112Z" fill="#1C274C"/>
<g opacity="0.5">
<path d="M9.23014 16.4243C9.54835 16.6895 9.59134 17.1624 9.32617 17.4806L8.3254 18.6816L8.22895 18.7974C7.58688 19.5691 7.11555 20.1355 6.45757 20.4437C5.79959 20.7519 5.0627 20.7513 4.05888 20.7506H4.05888L3.90813 20.7505H2.75C2.33579 20.7505 2 20.4147 2 20.0005C2 19.5863 2.33579 19.2505 2.75 19.2505H3.90813C5.12975 19.2505 5.50396 19.2339 5.82133 19.0853C6.1387 18.9366 6.391 18.6598 7.17306 17.7213L8.17383 16.5204C8.43901 16.2022 8.91193 16.1592 9.23014 16.4243Z" fill="#1C274C"/>
</g>
</svg>
