<svg width="24" height="24" viewBox="0 0 24 24" fill="none" xmlns="http://www.w3.org/2000/svg">
<path opacity="0.5" fill-rule="evenodd" clip-rule="evenodd" d="M13.0861 5.04116L2.33245 10.3592C1.96115 10.5428 1.51131 10.3906 1.3277 10.0193C1.14408 9.64805 1.29623 9.1982 1.66752 9.01459L14.0954 2.86865L14.2404 3.8793C14.2409 3.88155 14.2416 3.88461 14.2425 3.88848C14.2473 3.90834 14.2582 3.9497 14.2794 4.01205C14.3218 4.13663 14.4056 4.34612 14.5644 4.63608C14.8822 5.21625 15.5012 6.12024 16.6905 7.30957C17.8799 8.49891 18.7838 9.11785 19.3638 9.43554C19.6538 9.59432 19.8632 9.67808 19.9877 9.72042C20.0501 9.74161 20.0914 9.75251 20.1112 9.75728C20.1151 9.75821 20.1181 9.7589 20.1204 9.7594L21.1312 9.9042L14.9855 22.3324C14.8019 22.7037 14.3521 22.8559 13.9808 22.6723C13.6095 22.4887 13.4573 22.0389 13.6409 21.6676L18.9586 10.9137C18.8607 10.8665 18.7555 10.8126 18.6433 10.7511C18.0246 10.4123 17.1928 9.84387 16.1695 8.8913L5.53031 19.5303C5.23742 19.8232 4.76254 19.8232 4.46965 19.5303C4.17676 19.2374 4.17676 18.7626 4.46966 18.4697L15.1088 7.83065C14.1562 6.80732 13.5877 5.97546 13.2488 5.35666C13.1873 5.24439 13.1334 5.13918 13.0861 5.04116Z" fill="#1C274C"/>
<path d="M20.8236 10.5271L21.1314 9.90469L20.1206 9.75989L20.1114 9.75777C20.0916 9.753 20.0502 9.7421 19.9879 9.72091C19.8634 9.67857 19.6539 9.5948 19.364 9.43602C18.784 9.11834 17.8801 8.4994 16.6907 7.31006C15.5014 6.12073 14.8823 5.21674 14.5646 4.63657C14.4058 4.34661 14.3219 4.13712 14.2796 4.01254C14.2584 3.95019 14.2475 3.90882 14.2427 3.88897L14.2406 3.87979L14.0956 2.86914L13.47 3.17854C15.522 1.49761 18.5545 1.61479 20.4698 3.53008C22.3842 5.4445 22.5022 8.47511 20.8236 10.5271Z" fill="#1C274C"/>
<path d="M18.3144 12.2174L18.9588 10.9142C18.8608 10.867 18.7557 10.8131 18.6435 10.7516C18.0248 10.4128 17.193 9.84435 16.1696 8.89179L13.6505 11.4109C15.01 12.4284 16.7525 12.6972 18.3144 12.2174Z" fill="#1C274C"/>
<path d="M12.5897 10.3504L15.109 7.83114C14.1564 6.80781 13.5879 5.97595 13.249 5.35715C13.1875 5.24488 13.1336 5.13967 13.0863 5.04165L11.782 5.68668C11.3026 7.24866 11.5718 8.99107 12.5897 10.3504Z" fill="#1C274C"/>
</svg>
