<svg width="24" height="24" viewBox="0 0 24 24" fill="none" xmlns="http://www.w3.org/2000/svg">
<path opacity="0.5" d="M14 4.00037H10C6.22876 4.00037 4.34315 4.00037 3.17157 5.17194C2 6.34351 2 8.22913 2 12.0004C2 15.7716 2 17.6572 3.17157 18.8288C4.34315 20.0004 6.22876 20.0004 10 20.0004H14C17.7712 20.0004 19.6569 20.0004 20.8284 18.8288C22 17.6572 22 15.7716 22 12.0004C22 8.22913 22 6.34351 20.8284 5.17194C19.6569 4.00037 17.7712 4.00037 14 4.00037Z" fill="#1C274C"/>
<path d="M2.75009 9.50037C2.33588 9.50037 2.00009 9.83615 2.00009 10.2504C2.00009 10.6646 2.33588 11.0004 2.75009 11.0004C7.30644 11.0004 11.0001 14.694 11.0001 19.2504C11.0001 19.6646 11.3359 20.0004 11.7501 20.0004C12.1643 20.0004 12.5001 19.6646 12.5001 19.2504C12.5001 13.8656 8.13487 9.50037 2.75009 9.50037Z" fill="#1C274C"/>
<path d="M2.75009 12.5004C2.33588 12.5004 2.00009 12.8362 2.00009 13.2504C2.00009 13.6646 2.33588 14.0004 2.75009 14.0004C5.64959 14.0004 8.00009 16.3509 8.00009 19.2504C8.00009 19.6646 8.33588 20.0004 8.75009 20.0004C9.16431 20.0004 9.50009 19.6646 9.50009 19.2504C9.50009 15.5224 6.47801 12.5004 2.75009 12.5004Z" fill="#1C274C"/>
<path d="M2.75009 15.5004C2.33588 15.5004 2.00009 15.8362 2.00009 16.2504C2.00009 16.6646 2.33588 17.0004 2.75009 17.0004C3.99273 17.0004 5.00009 18.0077 5.00009 19.2504C5.00009 19.6646 5.33588 20.0004 5.75009 20.0004C6.16431 20.0004 6.50009 19.6646 6.50009 19.2504C6.50009 17.1793 4.82116 15.5004 2.75009 15.5004Z" fill="#1C274C"/>
</svg>
