<svg width="24" height="24" viewBox="0 0 24 24" fill="none" xmlns="http://www.w3.org/2000/svg">
<path opacity="0.5" fill-rule="evenodd" clip-rule="evenodd" d="M12.75 10.5002H11.25V12.5002H12.75V10.5002ZM11.25 3.50024H12.75V2.00024C12.75 1.58603 12.4142 1.25024 12 1.25024C11.5858 1.25024 11.25 1.58603 11.25 2.00024V3.50024ZM11.25 21.2502V19.5002H12.75V21.2502H14C14.4142 21.2502 14.75 21.586 14.75 22.0002C14.75 22.4145 14.4142 22.7502 14 22.7502H10C9.58579 22.7502 9.25 22.4145 9.25 22.0002C9.25 21.586 9.58579 21.2502 10 21.2502H11.25Z" fill="#1C274C"/>
<path fill-rule="evenodd" clip-rule="evenodd" d="M15.5 10.5002C16.9045 10.5002 17.6067 10.5002 18.1111 10.1632C18.3295 10.0173 18.517 9.82977 18.6629 9.61138C19 9.10694 19 8.40471 19 7.00024C19 5.59578 19 4.89355 18.6629 4.3891C18.517 4.17072 18.3295 3.98322 18.1111 3.8373C17.6067 3.50024 16.9045 3.50024 15.5 3.50024H12.75H11.25H8.70399C8.04642 3.50024 7.71764 3.50024 7.41593 3.59844C7.28282 3.64177 7.15463 3.69895 7.03346 3.76904C6.75882 3.92792 6.53915 4.17255 6.09981 4.66181C5.24911 5.60918 4.82376 6.08287 4.72136 6.63644C4.67687 6.87694 4.67687 7.12355 4.72136 7.36405C4.82376 7.91762 5.24911 8.39131 6.09981 9.33868C6.53915 9.82794 6.75882 10.0726 7.03346 10.2314C7.15463 10.3015 7.28282 10.3587 7.41593 10.402C7.71764 10.5002 8.04642 10.5002 8.70399 10.5002H11.25H12.75H15.5ZM8.25 7.00024C8.25 6.58603 8.58579 6.25024 9 6.25024H15C15.4142 6.25024 15.75 6.58603 15.75 7.00024C15.75 7.41446 15.4142 7.75024 15 7.75024H9C8.58579 7.75024 8.25 7.41446 8.25 7.00024Z" fill="#1C274C"/>
<path fill-rule="evenodd" clip-rule="evenodd" d="M5.88885 19.1632C6.3933 19.5002 7.09553 19.5002 8.49999 19.5002H11.25H12.75H15.296C15.9536 19.5002 16.2823 19.5002 16.5841 19.402C16.7172 19.3587 16.8454 19.3015 16.9665 19.2314C17.2412 19.0726 17.4608 18.8279 17.9002 18.3387C18.7509 17.3913 19.1762 16.9176 19.2786 16.364C19.3231 16.1236 19.3231 15.8769 19.2786 15.6364C19.1762 15.0829 18.7509 14.6092 17.9002 13.6618C17.4608 13.1725 17.2412 12.9279 16.9665 12.769C16.8454 12.6989 16.7172 12.6418 16.5841 12.5984C16.2823 12.5002 15.9536 12.5002 15.296 12.5002H12.75H11.25H8.49999C7.09553 12.5002 6.3933 12.5002 5.88885 12.8373C5.67047 12.9832 5.48297 13.1707 5.33705 13.3891C4.99999 13.8936 4.99999 14.5958 4.99999 16.0002C4.99999 17.4047 4.99999 18.1069 5.33705 18.6114C5.48297 18.8298 5.67047 19.0173 5.88885 19.1632ZM8.25 16.0002C8.25 15.586 8.58579 15.2502 9 15.2502H15C15.4142 15.2502 15.75 15.586 15.75 16.0002C15.75 16.4145 15.4142 16.7502 15 16.7502H9C8.58579 16.7502 8.25 16.4145 8.25 16.0002Z" fill="#1C274C"/>
</svg>
