<svg width="24" height="24" viewBox="0 0 24 24" fill="none" xmlns="http://www.w3.org/2000/svg">
<path opacity="0.5" d="M7.4544 2.42132L7.23936 2.46152C5.15124 2.85188 3.56225 4.55379 3.32102 6.6583L3.30532 6.79528C2.89823 10.3468 2.89823 13.933 3.30532 17.4845C3.55266 19.6424 5.24868 21.3513 7.41019 21.6207L8.42569 21.7473L8.42598 21.7473C8.92061 21.8089 9.16797 21.8398 9.41505 21.8656C11.1335 22.045 12.866 22.045 14.5845 21.8656C14.8315 21.8398 15.0789 21.8089 15.5735 21.7473L15.5738 21.7473L16.48 21.6343C18.7041 21.3571 20.4473 19.5952 20.6948 17.374L20.712 17.22C21.1072 13.673 21.0957 10.0926 20.6774 6.54821C20.4367 4.50777 18.8934 2.86032 16.8681 2.48169L16.5451 2.42132C13.541 1.85972 10.4585 1.85972 7.4544 2.42132Z" fill="#1C274C"/>
<path d="M7.48156 5.42515C7.164 5.1592 6.69098 5.20104 6.42503 5.51859C6.15908 5.83615 6.20091 6.30918 6.51847 6.57513C7.38044 7.29702 9.34385 8.25014 12 8.25014C14.6562 8.25014 16.6196 7.29702 17.4816 6.57513C17.7991 6.30918 17.841 5.83615 17.575 5.51859C17.3091 5.20104 16.836 5.1592 16.5185 5.42515C15.9413 5.90851 14.3238 6.75014 12 6.75014C9.67619 6.75014 8.05873 5.90851 7.48156 5.42515Z" fill="#1C274C"/>
</svg>
