<svg width="24" height="24" viewBox="0 0 24 24" fill="none" xmlns="http://www.w3.org/2000/svg">
<g clip-path="url(#clip0_1_21969)">
<path fill-rule="evenodd" clip-rule="evenodd" d="M11.1401 4.23523C11.3537 4.23523 11.5575 4.32491 11.7015 4.48232L12.4414 5.2911C12.7243 5.60041 12.7024 6.08 12.3923 6.3623C12.237 6.50372 12.0389 6.5688 11.8443 6.55966C11.5105 8.80609 9.7165 10.6044 7.44062 10.6044C6.17342 10.6044 5.04151 10.0361 4.24071 9.148C3.95999 8.83667 3.98538 8.35725 4.29743 8.07718C4.60948 7.79711 5.09002 7.82245 5.37074 8.13378C5.91177 8.7338 6.64528 9.08797 7.44062 9.08797C8.78408 9.08797 9.99421 8.04584 10.3038 6.55444C10.1538 6.53544 10.008 6.47172 9.88787 6.3623C9.57785 6.08 9.55591 5.60041 9.83887 5.2911L10.5788 4.48232C10.7228 4.32491 10.9265 4.23523 11.1401 4.23523Z" fill="#1C274C"/>
<g opacity="0.5">
<path d="M7.1994 1.00012C4.92351 1.00012 3.12955 2.79849 2.79575 5.04491C2.6011 5.03577 2.40297 5.10085 2.24766 5.24227C1.93764 5.52457 1.9157 6.00416 2.19866 6.31347L2.93856 7.12225C3.08256 7.27966 3.2863 7.36934 3.4999 7.36934C3.71351 7.36934 3.91725 7.27966 4.06125 7.12225L4.80115 6.31347C5.0841 6.00416 5.06216 5.52457 4.75214 5.24227C4.63199 5.13285 4.48619 5.06913 4.33621 5.05013C4.6458 3.55873 5.85593 2.5166 7.1994 2.5166C8.05316 2.5166 8.83757 2.92536 9.38688 3.60894C9.64943 3.93567 10.1278 3.98818 10.4552 3.72624C10.7827 3.46429 10.8354 2.98708 10.5728 2.66036C9.76608 1.65647 8.56185 1.00012 7.1994 1.00012Z" fill="#1C274C"/>
</g>
<g opacity="0.4">
<path d="M21.0004 11.8687V15.9127C21.0004 19.7254 21.0004 21.6317 19.8132 22.8161C18.6261 24.0006 16.7153 24.0006 12.8938 24.0006C9.07226 24.0006 7.1615 24.0006 5.9743 22.8161C4.78711 21.6317 4.78711 19.7254 4.78711 15.9127V14.1805C4.78711 13.912 4.78711 13.7777 4.81252 13.6667C4.89913 13.2881 5.19547 12.9924 5.57495 12.906C5.68627 12.8807 5.82099 12.8807 6.09043 12.8807C7.70405 12.8807 8.51086 12.8807 9.17753 12.7291C11.4565 12.2112 13.2361 10.4357 13.7552 8.16204C13.9071 7.49691 13.9071 6.6929 13.9071 5.08489C13.9071 4.81814 13.9071 4.68476 13.9331 4.57254C14.0209 4.1931 14.3306 3.89033 14.7126 3.81045C14.8256 3.78682 14.955 3.78944 15.2139 3.79468C17.5452 3.84182 18.8954 4.0496 19.8132 4.96528C21.0004 6.14973 21.0004 8.05606 21.0004 11.8687Z" fill="#1C274C"/>
</g>
<path d="M9.09375 20.9673C9.09375 20.5486 9.43401 20.2091 9.85375 20.2091H15.9337C16.3535 20.2091 16.6937 20.5486 16.6937 20.9673C16.6937 21.3861 16.3535 21.7256 15.9337 21.7256H9.85375C9.43401 21.7256 9.09375 21.3861 9.09375 20.9673Z" fill="#1C274C"/>
</g>
<defs>
<clipPath id="clip0_1_21969">
<rect width="24" height="24" fill="white"/>
</clipPath>
</defs>
</svg>
