<svg width="24" height="24" viewBox="0 0 24 24" fill="none" xmlns="http://www.w3.org/2000/svg">
<path d="M13.8107 14.3809C14.9855 13.2077 14.9855 11.3055 13.8107 10.1323C12.6359 8.95914 10.7311 8.95914 9.55629 10.1323C9.1094 10.5786 8.7973 11.505 8.5821 12.4817C8.26029 13.9423 8.09939 14.6725 8.6818 15.2541C9.26422 15.8357 9.99551 15.6751 11.4581 15.3537C12.4361 15.1388 13.3638 14.8271 13.8107 14.3809Z" fill="#1C274C"/>
<path opacity="0.5" d="M22 12.0005C22 17.5233 17.5228 22.0005 12 22.0005C6.47715 22.0005 2 17.5233 2 12.0005C2 6.47764 6.47715 2.00049 12 2.00049C17.5228 2.00049 22 6.47764 22 12.0005Z" fill="#1C274C"/>
<path d="M4.42077 5.47679C4.74602 5.09926 5.09899 4.74629 5.47653 4.42106C5.49505 4.43633 5.51301 4.45262 5.53033 4.46994L7.03033 5.96994C7.32322 6.26284 7.32322 6.73771 7.03033 7.0306C6.73744 7.3235 6.26256 7.3235 5.96967 7.0306L4.46967 5.5306C4.45234 5.51328 4.43604 5.49532 4.42077 5.47679Z" fill="#1C274C"/>
<path d="M2.02769 12.7503C2.00934 12.5027 2 12.2527 2 12.0005C2 11.7481 2.00935 11.4979 2.02772 11.2503H4C4.41421 11.2503 4.75 11.5861 4.75 12.0003C4.75 12.4145 4.41421 12.7503 4 12.7503H2.02769Z" fill="#1C274C"/>
<path d="M5.47628 19.5797C5.09877 19.2545 4.74581 18.9015 4.42059 18.524C4.43591 18.5054 4.45228 18.4873 4.46967 18.4699L5.96967 16.9699C6.26256 16.6771 6.73744 16.6771 7.03033 16.9699C7.32322 17.2628 7.32322 17.7377 7.03033 18.0306L5.53033 19.5306C5.51293 19.548 5.49489 19.5644 5.47628 19.5797Z" fill="#1C274C"/>
<path d="M19.5794 18.524C19.2542 18.9015 18.9012 19.2545 18.5237 19.5797C18.5051 19.5644 18.4871 19.548 18.4697 19.5306L16.9697 18.0306C16.6768 17.7377 16.6768 17.2628 16.9697 16.9699C17.2626 16.6771 17.7374 16.6771 18.0303 16.9699L19.5303 18.4699C19.5477 18.4873 19.5641 18.5054 19.5794 18.524Z" fill="#1C274C"/>
<path d="M21.9723 11.2503C21.9907 11.4979 22 11.7481 22 12.0005C22 12.2527 21.9907 12.5027 21.9723 12.7503H19.9998C19.5856 12.7503 19.2498 12.4145 19.2498 12.0003C19.2498 11.5861 19.5856 11.2503 19.9998 11.2503H21.9723Z" fill="#1C274C"/>
<path d="M18.5235 4.42106C18.901 4.74629 19.254 5.09926 19.5792 5.47679C19.564 5.49532 19.5477 5.51328 19.5303 5.5306L18.0303 7.0306C17.7374 7.3235 17.2626 7.3235 16.9697 7.0306C16.6768 6.73771 16.6768 6.26284 16.9697 5.96994L18.4697 4.46994C18.487 4.45262 18.5049 4.43633 18.5235 4.42106Z" fill="#1C274C"/>
<path d="M12.75 2.02819V4.00049C12.75 4.4147 12.4142 4.75049 12 4.75049C11.5858 4.75049 11.25 4.4147 11.25 4.00049V2.02819C11.4976 2.00983 11.7477 2.00049 12 2.00049C12.2523 2.00049 12.5024 2.00983 12.75 2.02819Z" fill="#1C274C"/>
</svg>
