<svg width="24" height="24" viewBox="0 0 24 24" fill="none" xmlns="http://www.w3.org/2000/svg">
<path d="M14.2172 3.50014C12.7962 2.83394 11.2037 2.83394 9.78272 3.50014L3.0916 6.63708C2.0156 7.14153 1.73507 8.56401 2.25 9.54715L2.25 14.5005C2.25 14.9147 2.58579 15.2505 3 15.2505C3.41421 15.2505 3.75 14.9147 3.75 14.5005V10.6725L9.78281 13.5008C11.2038 14.167 12.7963 14.167 14.2173 13.5008L20.9084 10.3639C22.3639 9.68154 22.3639 7.31948 20.9084 6.63713L14.2172 3.50014Z" fill="#1C274C"/>
<path opacity="0.5" d="M5 11.2585L9.78281 13.5008C11.2038 14.167 12.7963 14.167 14.2173 13.5008L19 11.2586V16.6257C19 17.6338 18.4965 18.5775 17.6147 19.0659C16.1463 19.8791 13.796 21.0003 12 21.0003C10.204 21.0003 7.8537 19.8791 6.38533 19.0659C5.5035 18.5775 5 17.6338 5 16.6257V11.2585Z" fill="#1C274C"/>
</svg>
