<svg width="24" height="24" viewBox="0 0 24 24" fill="none" xmlns="http://www.w3.org/2000/svg">
<path d="M11.5802 4.77604C12.275 3.00516 12.6223 2.11971 13.3488 2.01056C14.0752 1.90141 14.6997 2.64083 15.9485 4.11967L16.2716 4.50226C16.6265 4.9225 16.8039 5.13263 17.0452 5.25261C17.2865 5.37259 17.5642 5.38884 18.1198 5.42135L18.6256 5.45095C20.5805 5.56537 21.558 5.62258 21.8972 6.26168C22.2365 6.90079 21.7128 7.69853 20.6653 9.29403L20.3944 9.7068C20.0967 10.1602 19.9479 10.3869 19.9077 10.6457C19.8675 10.9045 19.9404 11.1662 20.0864 11.6895L20.2192 12.166C20.7327 14.0076 20.9895 14.9284 20.4727 15.4325C19.9559 15.9367 19.0078 15.6903 17.1116 15.1975L16.621 15.07C16.0822 14.93 15.8127 14.86 15.5466 14.8999C15.2805 14.9399 15.0478 15.0854 14.5825 15.3763L14.1588 15.6412C12.5212 16.6649 11.7024 17.1768 11.0438 16.8493C10.3852 16.5217 10.3229 15.5717 10.1984 13.6717L10.1662 13.1801C10.1308 12.6402 10.1131 12.3702 9.98887 12.1361C9.86461 11.902 9.64784 11.7302 9.21431 11.3867L8.81962 11.0739C7.29401 9.86506 6.53121 9.26062 6.64097 8.55405C6.75072 7.84748 7.66035 7.50672 9.4796 6.8252L9.95027 6.64888C10.4672 6.45522 10.7257 6.35839 10.915 6.17371C11.1044 5.98903 11.2031 5.73742 11.4005 5.23419L11.5802 4.77604Z" fill="#1C274C"/>
<g opacity="0.5">
<path d="M5.31003 9.59229C2.87292 11.9208 1.27501 15.8053 2.33125 21.9997C3.27403 19.3961 5.85726 17.2402 8.91219 15.9523C8.80559 15.3596 8.7583 14.6359 8.70844 13.8728L8.66945 13.2777C8.66038 13.1393 8.65346 13.0342 8.64607 12.9439C8.643 12.9063 8.64012 12.8749 8.63743 12.8484C8.61421 12.8285 8.58591 12.8048 8.55117 12.7764C8.47874 12.7172 8.39377 12.6498 8.28278 12.5619L7.80759 12.1853C7.11448 11.6363 6.46884 11.1249 6.02493 10.6534C5.77182 10.3845 5.48876 10.0299 5.31003 9.59229Z" fill="#1C274C"/>
<path d="M10.3466 15.4226C10.3415 15.3852 10.3365 15.347 10.3316 15.3081L10.3877 15.4096C10.374 15.4139 10.3603 15.4182 10.3466 15.4226Z" fill="#1C274C"/>
</g>
</svg>
