<svg width="24" height="24" viewBox="0 0 24 24" fill="none" xmlns="http://www.w3.org/2000/svg">
<path opacity="0.5" d="M22 12C22 17.5228 17.5228 22 12 22C6.47715 22 2 17.5228 2 12C2 6.47715 6.47715 2 12 2C17.5228 2 22 6.47715 22 12Z" fill="#1C274C"/>
<path d="M10.4127 8.49787L10.5766 8.20394C11.2099 7.06783 11.5266 6.49976 12 6.49976C12.4734 6.49976 12.7901 7.06782 13.4234 8.20394L13.5873 8.49788C13.7672 8.82073 13.8572 8.98215 13.9975 9.08866C14.1378 9.19517 14.3126 9.23471 14.6621 9.31378L14.9802 9.38577C16.2101 9.66403 16.825 9.80316 16.9713 10.2736C17.1176 10.7441 16.6984 11.2343 15.86 12.2147L15.643 12.4684C15.4048 12.747 15.2857 12.8863 15.2321 13.0586C15.1785 13.231 15.1965 13.4168 15.2325 13.7885L15.2653 14.127C15.3921 15.4351 15.4554 16.0891 15.0724 16.3799C14.6894 16.6706 14.1137 16.4055 12.9622 15.8753L12.6643 15.7382C12.337 15.5875 12.1734 15.5122 12 15.5122C11.8266 15.5122 11.663 15.5875 11.3357 15.7382L11.0378 15.8753C9.88633 16.4055 9.31059 16.6706 8.92757 16.3799C8.54456 16.0891 8.60794 15.4351 8.7347 14.127L8.76749 13.7885C8.80351 13.4168 8.82152 13.231 8.76793 13.0586C8.71434 12.8863 8.59521 12.747 8.35696 12.4684L8.14005 12.2147C7.30162 11.2343 6.88241 10.7441 7.02871 10.2736C7.17501 9.80317 7.78994 9.66403 9.01977 9.38577L9.33794 9.31378C9.68743 9.23471 9.86217 9.19517 10.0025 9.08866C10.1428 8.98215 10.2328 8.82072 10.4127 8.49787Z" fill="#1C274C"/>
</svg>
