<svg width="24" height="24" viewBox="0 0 24 24" fill="none" xmlns="http://www.w3.org/2000/svg">
<path fill-rule="evenodd" clip-rule="evenodd" d="M10.8326 10.6245C10.3283 10.2613 10 9.6692 10 9.00037C10 7.8958 10.8954 7.00037 12 7.00037C13.1046 7.00037 14 7.8958 14 9.00037C14 9.6692 13.6717 10.2613 13.1674 10.6245L16.7147 21.773C16.8231 22.1137 16.6759 22.4836 16.363 22.6567C16.05 22.8297 15.6584 22.7578 15.4275 22.4848L12 18.4342L8.57254 22.4848C8.34155 22.7578 7.94997 22.8297 7.63704 22.6567C7.32411 22.4836 7.17688 22.1137 7.28531 21.773L10.8326 10.6245ZM12.9825 17.2731L14.1466 18.6488L13.5103 16.6493L12.9825 17.2731ZM12.9745 14.9652C12.9582 14.9812 12.9425 14.9981 12.9275 15.0159L12 16.112L11.0725 15.0159C11.0575 14.9981 11.0418 14.9812 11.0255 14.9652L12 11.9025L12.9745 14.9652ZM10.4897 16.6493L11.0175 17.2731L9.85345 18.6488L10.4897 16.6493Z" fill="#1C274C"/>
<g opacity="0.4">
<path d="M5.46583 2.53122C5.75902 2.23862 5.75949 1.76375 5.46689 1.47057C5.17429 1.17738 4.69941 1.17691 4.40623 1.46951C2.45721 3.41465 1.25 6.10632 1.25 9.07852C1.25 12.0856 2.48564 14.8054 4.47497 16.7555C4.77076 17.0455 5.24561 17.0408 5.53557 16.745C5.82554 16.4492 5.82082 15.9744 5.52503 15.6844C3.81163 14.0047 2.75 11.6663 2.75 9.07852C2.75 6.52067 3.78722 4.20649 5.46583 2.53122Z" fill="#1C274C"/>
<path d="M19.677 1.55349C19.387 1.2577 18.9122 1.25298 18.6164 1.54295C18.3206 1.83292 18.3159 2.30777 18.6059 2.60356C20.2422 4.27279 21.25 6.55722 21.25 9.07852C21.25 11.6297 20.2182 13.9385 18.5473 15.6127C18.2547 15.9059 18.2552 16.3808 18.5484 16.6734C18.8415 16.966 19.3164 16.9655 19.609 16.6723C21.5491 14.7283 22.75 12.043 22.75 9.07852C22.75 6.14892 21.5771 3.49176 19.677 1.55349Z" fill="#1C274C"/>
</g>
<g opacity="0.7">
<path d="M8.27408 5.62611C8.57652 5.34308 8.59226 4.86847 8.30923 4.56603C8.02621 4.26359 7.5516 4.24785 7.24916 4.53088C6.02148 5.67974 5.25 7.28145 5.25 9.06069C5.25 10.8609 6.03967 12.4791 7.29244 13.6307C7.59739 13.911 8.07185 13.891 8.35216 13.5861C8.63248 13.2811 8.61251 12.8066 8.30756 12.5263C7.33869 11.6357 6.75 10.4082 6.75 9.06069C6.75 7.7287 7.32517 6.5141 8.27408 5.62611Z" fill="#1C274C"/>
<path d="M16.8033 4.58048C16.5039 4.29417 16.0292 4.30472 15.7429 4.60405C15.4566 4.90339 15.4671 5.37814 15.7664 5.66445C16.6911 6.54892 17.25 7.74764 17.25 9.06069C17.25 10.3892 16.6778 11.6009 15.7333 12.4883C15.4315 12.7719 15.4167 13.2466 15.7003 13.5485C15.9839 13.8503 16.4586 13.8651 16.7604 13.5815C17.9825 12.4333 18.75 10.8353 18.75 9.06069C18.75 7.30704 18.0005 5.72561 16.8033 4.58048Z" fill="#1C274C"/>
</g>
</svg>
