<svg width="24" height="24" viewBox="0 0 24 24" fill="none" xmlns="http://www.w3.org/2000/svg">
<path fill-rule="evenodd" clip-rule="evenodd" d="M11.2844 9.77541C10.9613 9.54943 10.75 9.17457 10.75 8.75037C10.75 8.06001 11.3096 7.50037 12 7.50037C12.6903 7.50037 13.25 8.06001 13.25 8.75037C13.25 9.17457 13.0387 9.54943 12.7156 9.77541L15.206 17.2466C15.2099 17.2575 15.2136 17.2685 15.217 17.2796L16.7115 21.7632C16.8425 22.1562 16.6301 22.5809 16.2372 22.7119C15.8442 22.8429 15.4195 22.6305 15.2885 22.2375L13.9594 18.2504H10.0406L8.7115 22.2375C8.58052 22.6305 8.15578 22.8429 7.76282 22.7119C7.36986 22.5809 7.15749 22.1562 7.28848 21.7632L8.78301 17.2796C8.78643 17.2685 8.7901 17.2575 8.79401 17.2466L11.2844 9.77541ZM12 12.3721L13.4594 16.7504H10.5406L12 12.3721Z" fill="#1C274C"/>
<path opacity="0.4" d="M12 2.75037C8.55372 2.75037 5.75 5.56757 5.75 9.05509C5.75 10.7787 6.43459 12.3386 7.54467 13.4767C7.8339 13.7732 7.82798 14.248 7.53146 14.5373C7.23494 14.8265 6.76011 14.8206 6.47088 14.524C5.09743 13.1159 4.25 11.184 4.25 9.05509C4.25 4.75018 7.7143 1.25037 12 1.25037C16.2857 1.25037 19.75 4.75018 19.75 9.05509C19.75 11.166 18.9168 13.0834 17.5637 14.4883C17.2764 14.7867 16.8016 14.7956 16.5033 14.5083C16.2049 14.221 16.196 13.7462 16.4833 13.4478C17.5769 12.3123 18.25 10.7642 18.25 9.05509C18.25 5.56757 15.4463 2.75037 12 2.75037Z" fill="#1C274C"/>
<path opacity="0.7" d="M11.9998 5.57227C10.0999 5.57227 8.5498 7.12607 8.5498 9.0551C8.5498 10.001 8.92229 10.8567 9.52748 11.4843C9.815 11.7824 9.80638 12.2572 9.50821 12.5448C9.21005 12.8323 8.73525 12.8236 8.44773 12.5255C7.58267 11.6284 7.0498 10.4032 7.0498 9.0551C7.0498 6.30868 9.2605 4.07227 11.9998 4.07227C14.7391 4.07227 16.9498 6.30868 16.9498 9.0551C16.9498 10.3841 16.4319 11.5937 15.5884 12.4872C15.3041 12.7884 14.8294 12.802 14.5282 12.5177C14.227 12.2333 14.2133 11.7587 14.4977 11.4575C15.0878 10.8324 15.4498 9.98767 15.4498 9.0551C15.4498 7.12607 13.8997 5.57227 11.9998 5.57227Z" fill="#1C274C"/>
</svg>
