<svg width="24" height="24" viewBox="0 0 24 24" fill="none" xmlns="http://www.w3.org/2000/svg">
<path opacity="0.5" d="M3.33995 17.0002C6.10138 21.7831 12.2173 23.4219 17.0002 20.6605C18.9498 19.5349 20.377 17.8519 21.1967 15.929C22.388 13.1346 22.2963 9.83352 20.6605 7.00021C19.0246 4.16689 16.2117 2.43691 13.196 2.07137C11.1209 1.81984 8.94981 2.21434 7.00021 3.33995C2.21728 6.10137 0.578527 12.2173 3.33995 17.0002Z" fill="#1C274C"/>
<path d="M13.9402 2.19008C13.6937 2.14121 13.4453 2.10156 13.1954 2.07128C12.9447 2.04088 12.6925 2.01992 12.4395 2.00854C12.4299 2.05132 12.4186 2.10405 12.4062 2.16624C12.3714 2.3407 12.3282 2.58995 12.2908 2.90238C12.2416 3.31366 12.5351 3.68698 12.9463 3.73622C13.3576 3.78547 13.7309 3.49198 13.7802 3.0807C13.8126 2.81001 13.8494 2.59911 13.8773 2.4592C13.8912 2.38929 13.9029 2.33721 13.9106 2.30439C13.9144 2.28798 13.9173 2.2764 13.9189 2.26982L13.9202 2.26465L13.9205 2.26353L13.9402 2.19008Z" fill="#1C274C"/>
<path d="M2.53369 8.77544C2.61473 8.53722 2.70476 8.30194 2.80361 8.07014C2.90257 7.83808 3.01038 7.60952 3.12689 7.38501C3.16877 7.39808 3.22017 7.41467 3.2803 7.43506C3.44877 7.49221 3.68623 7.57941 3.97551 7.70323C4.3563 7.86622 4.53287 8.30705 4.36988 8.68784C4.20688 9.06864 3.76605 9.24521 3.38526 9.08221C3.13462 8.97494 2.93356 8.90139 2.79846 8.85557C2.73095 8.83267 2.68002 8.81673 2.64775 8.80699C2.63162 8.80212 2.62015 8.7988 2.61363 8.79695L2.60894 8.79561L2.53369 8.77544Z" fill="#1C274C"/>
<path d="M11.5601 21.9917C11.3072 21.9803 11.0552 21.9594 10.8045 21.929C10.5545 21.8988 10.306 21.8591 10.0594 21.8102L10.0791 21.7366L10.0794 21.7355L10.0807 21.7303C10.0824 21.7237 10.0852 21.7122 10.0891 21.6958C10.0968 21.6629 10.1084 21.6109 10.1224 21.5409C10.1502 21.401 10.1871 21.1901 10.2195 20.9194C10.2687 20.5082 10.6421 20.2147 11.0533 20.2639C11.4646 20.3132 11.7581 20.6865 11.7088 21.0978C11.6714 21.4102 11.6282 21.6594 11.5935 21.8339C11.5811 21.8961 11.5698 21.9489 11.5601 21.9917Z" fill="#1C274C"/>
<path d="M21.4656 15.2246C21.3847 15.4625 21.2948 15.6975 21.1962 15.929C21.0971 16.1613 20.9891 16.3902 20.8725 16.615C20.8307 16.602 20.7794 16.5854 20.7194 16.5651C20.5509 16.5079 20.3134 16.4207 20.0242 16.2969C19.6434 16.1339 19.4668 15.6931 19.6298 15.3123C19.7928 14.9315 20.2336 14.7549 20.6144 14.9179C20.865 15.0252 21.0661 15.0988 21.2012 15.1446C21.2687 15.1675 21.3196 15.1834 21.3519 15.1932C21.368 15.198 21.3795 15.2013 21.386 15.2032L21.3906 15.2045L21.4656 15.2246Z" fill="#1C274C"/>
<path d="M13.7535 5.41467C13.7159 5.00217 13.3511 4.69822 12.9386 4.73579C12.5261 4.77336 12.2221 5.13822 12.2597 5.55073C12.3148 6.15595 12.4171 6.81457 12.5891 7.50828C12.6887 7.91034 13.0954 8.15549 13.4974 8.05586C13.8995 7.95623 14.1446 7.54953 14.045 7.14748C13.893 6.53398 13.8024 5.95095 13.7535 5.41467Z" fill="#1C274C"/>
<path d="M6.2846 9.00045C5.94615 8.76166 5.4782 8.84245 5.23941 9.18091C5.00062 9.51936 5.08141 9.98731 5.41987 10.2261C5.85987 10.5365 6.31948 10.9065 6.77477 11.345C7.07314 11.6323 7.54793 11.6233 7.83524 11.3249C8.12255 11.0266 8.11358 10.5518 7.81521 10.2645C7.3004 9.76873 6.78118 9.3508 6.2846 9.00045Z" fill="#1C274C"/>
<path d="M14.8368 9.34757C14.6574 8.97422 14.2094 8.81697 13.836 8.99636C13.4626 9.17574 13.3054 9.62383 13.4848 9.99718C13.6246 10.2882 13.7787 10.5812 13.9484 10.8751C14.118 11.1689 14.2947 11.4489 14.4769 11.7155C14.7105 12.0575 15.1772 12.1454 15.5192 11.9118C15.8612 11.6781 15.9491 11.2114 15.7155 10.8694C15.5543 10.6335 15.3978 10.3856 15.2474 10.1251C15.097 9.86454 14.9605 9.60505 14.8368 9.34757Z" fill="#1C274C"/>
<path d="M9.5228 12.2846C9.28916 11.9426 8.82248 11.8547 8.48045 12.0884C8.13842 12.322 8.05056 12.7887 8.2842 13.1307C8.44533 13.3666 8.60181 13.6145 8.75224 13.8751C8.90266 14.1356 9.03913 14.3951 9.16284 14.6526C9.34222 15.0259 9.79031 15.1832 10.1637 15.0038C10.537 14.8244 10.6943 14.3763 10.5149 14.003C10.375 13.7119 10.2209 13.4189 10.0513 13.1251C9.88163 12.8312 9.70495 12.5513 9.5228 12.2846Z" fill="#1C274C"/>
<path d="M17.2249 12.6552C16.9265 12.3679 16.4517 12.3768 16.1644 12.6752C15.8771 12.9736 15.8861 13.4484 16.1844 13.7357C16.6993 14.2314 17.2185 14.6494 17.7151 14.9997C18.0535 15.2385 18.5215 15.1577 18.7603 14.8192C18.999 14.4808 18.9183 14.0128 18.5798 13.774C18.1398 13.4636 17.6802 13.0936 17.2249 12.6552Z" fill="#1C274C"/>
<path d="M11.4106 16.4919C11.311 16.0898 10.9043 15.8447 10.5022 15.9443C10.1002 16.0439 9.85501 16.4506 9.95465 16.8527C10.1067 17.4662 10.1973 18.0492 10.2462 18.5855C10.2837 18.998 10.6486 19.3019 11.0611 19.2644C11.4736 19.2268 11.7775 18.8619 11.74 18.4494C11.6848 17.8442 11.5825 17.1856 11.4106 16.4919Z" fill="#1C274C"/>
</svg>
