<svg width="24" height="24" viewBox="0 0 24 24" fill="none" xmlns="http://www.w3.org/2000/svg">
<path opacity="0.5" d="M2 12.0005C2 7.28644 2 4.92942 3.46447 3.46495C4.92893 2.00049 7.28595 2.00049 12 2.00049C16.714 2.00049 19.0711 2.00049 20.5355 3.46495C22 4.92942 22 7.28644 22 12.0005C22 16.7145 22 19.0716 20.5355 20.536C19.0711 22.0005 16.714 22.0005 12 22.0005C7.28595 22.0005 4.92893 22.0005 3.46447 20.536C2 19.0716 2 16.7145 2 12.0005Z" fill="#1C274C"/>
<path d="M9.95197 6.25049C9.52212 6.25043 9.12024 6.25036 8.79192 6.29941C8.42103 6.35481 8.04 6.4858 7.73543 6.82421C7.44103 7.15131 7.3371 7.5411 7.29205 7.91344C7.24993 8.26146 7.24997 8.69288 7.25 9.18004L7.25 9.7505C7.25 10.1647 7.58579 10.5005 8 10.5005C8.41422 10.5005 8.75 10.1647 8.75 9.7505V9.22272C8.75 8.67981 8.7513 8.34061 8.78118 8.09362C8.79521 7.97775 8.81273 7.91098 8.8269 7.87271C8.83886 7.84042 8.8474 7.83096 8.85023 7.82781L8.85104 7.82687C8.85241 7.82523 8.85341 7.82402 8.86242 7.8199C8.87905 7.8123 8.92169 7.79667 9.01354 7.78295C9.21765 7.75246 9.50512 7.7505 10 7.7505H11.25V16.2505H9.5C9.08579 16.2505 8.75 16.5863 8.75 17.0005C8.75 17.4147 9.08579 17.7505 9.5 17.7505H15C15.4142 17.7505 15.75 17.4147 15.75 17.0005C15.75 16.5863 15.4142 16.2505 15 16.2505H12.75V7.7505H14C14.4949 7.7505 14.7824 7.75246 14.9865 7.78295C15.0783 7.79667 15.121 7.8123 15.1376 7.8199C15.1466 7.82402 15.1476 7.82523 15.149 7.82687L15.1496 7.82766C15.1525 7.8308 15.1612 7.84043 15.1731 7.87271C15.1873 7.91098 15.2048 7.97775 15.2188 8.09362C15.2487 8.34061 15.25 8.67981 15.25 9.22272V9.7505C15.25 10.1647 15.5858 10.5005 16 10.5005C16.4142 10.5005 16.75 10.1647 16.75 9.7505L16.75 9.18003V9.18002C16.75 8.69287 16.7501 8.26145 16.708 7.91344C16.6629 7.5411 16.559 7.15131 16.2646 6.82421C15.96 6.4858 15.579 6.35481 15.2081 6.29941C14.8798 6.25036 14.4779 6.25043 14.048 6.25049H9.95197Z" fill="#1C274C"/>
</svg>
