<svg width="24" height="24" viewBox="0 0 24 24" fill="none" xmlns="http://www.w3.org/2000/svg">
<path opacity="0.5" d="M2 12.0005C2 6.47764 6.47715 2.00049 12 2.00049C17.5228 2.00049 22 6.47764 22 12.0005C22 17.5233 17.5228 22.0005 12 22.0005C6.47715 22.0005 2 17.5233 2 12.0005Z" fill="#1C274C"/>
<path d="M9.95197 6.25049C9.52212 6.25043 9.12024 6.25036 8.79192 6.29941C8.42103 6.35481 8.04 6.4858 7.73543 6.82421C7.44103 7.15131 7.3371 7.5411 7.29205 7.91344C7.24993 8.26146 7.24997 8.69288 7.25 9.18004L7.25 9.22272C7.25 9.63693 7.58579 9.97272 8 9.97272C8.41422 9.97272 8.75 9.63693 8.75 9.22272C8.75 8.67981 8.7513 8.34061 8.78118 8.09362C8.79521 7.97775 8.81273 7.91098 8.8269 7.87271C8.83886 7.84042 8.8474 7.83096 8.85023 7.82781L8.85104 7.82687C8.85241 7.82523 8.85341 7.82402 8.86242 7.8199C8.87905 7.8123 8.92169 7.79667 9.01354 7.78295C9.21765 7.75246 9.50512 7.7505 10 7.7505H11.25V9.5005C11.25 9.91471 11.5858 10.2505 12 10.2505C12.4142 10.2505 12.75 9.91471 12.75 9.5005V7.7505H14C14.4949 7.7505 14.7824 7.75246 14.9865 7.78295C15.0783 7.79667 15.121 7.8123 15.1376 7.8199C15.1466 7.82402 15.1476 7.82523 15.149 7.82687L15.1496 7.82766C15.1525 7.8308 15.1612 7.84043 15.1731 7.87271C15.1873 7.91098 15.2048 7.97775 15.2188 8.09362C15.2487 8.34061 15.25 8.67981 15.25 9.22272C15.25 9.63693 15.5858 9.97272 16 9.97272C16.4142 9.97272 16.75 9.63693 16.75 9.22272L16.75 9.18003V9.18002C16.75 8.69287 16.7501 8.26145 16.708 7.91344C16.6629 7.5411 16.559 7.15131 16.2646 6.82421C15.96 6.4858 15.579 6.35481 15.2081 6.29941C14.8798 6.25036 14.4779 6.25043 14.048 6.25049H9.95197Z" fill="#1C274C"/>
<path d="M8 11.2505C7.58579 11.2505 7.25 11.5863 7.25 12.0005C7.25 12.4147 7.58579 12.7505 8 12.7505H16C16.4142 12.7505 16.75 12.4147 16.75 12.0005C16.75 11.5863 16.4142 11.2505 16 11.2505H8Z" fill="#1C274C"/>
<path d="M12.75 14.5005C12.75 14.0863 12.4142 13.7505 12 13.7505C11.5858 13.7505 11.25 14.0863 11.25 14.5005V16.2505H9.5C9.08579 16.2505 8.75 16.5863 8.75 17.0005C8.75 17.4147 9.08579 17.7505 9.5 17.7505H14.5C14.9142 17.7505 15.25 17.4147 15.25 17.0005C15.25 16.5863 14.9142 16.2505 14.5 16.2505H12.75V14.5005Z" fill="#1C274C"/>
</svg>
