<svg width="24" height="24" viewBox="0 0 24 24" fill="none" xmlns="http://www.w3.org/2000/svg">
<path opacity="0.5" d="M14.0037 4.00049H9.9963C6.21809 4.00049 4.32899 4.00049 3.15525 5.17206C2.27661 6.04907 2.0557 7.32621 2.00016 9.49493C1.99304 9.77297 2.22121 9.99516 2.49076 10.0657C3.35074 10.2906 3.98521 11.0716 3.98521 12.0005C3.98521 12.9294 3.35074 13.7104 2.49076 13.9353C2.22121 14.0058 1.99304 14.228 2.00016 14.5061C2.0557 16.6748 2.27661 17.9519 3.15525 18.8289C4.32899 20.0005 6.21809 20.0005 9.9963 20.0005H14.0037C17.7819 20.0005 19.671 20.0005 20.8448 18.8289C21.7234 17.9519 21.9443 16.6748 21.9998 14.5061C22.007 14.228 21.7788 14.0058 21.5092 13.9353C20.6493 13.7104 20.0148 12.9294 20.0148 12.0005C20.0148 11.0716 20.6493 10.2906 21.5092 10.0657C21.7788 9.99516 22.007 9.77297 21.9998 9.49493C21.9443 7.32621 21.7234 6.04907 20.8448 5.17206C19.671 4.00049 17.7819 4.00049 14.0037 4.00049Z" fill="#1C274C"/>
<path d="M12.9543 10.1994L12.8558 10.023C12.4751 9.34133 12.2848 9.00049 12.0002 9.00049C11.7156 9.00049 11.5252 9.34133 11.1445 10.023L11.1445 10.023L11.0461 10.1994C10.9379 10.3931 10.8838 10.4899 10.7994 10.5538C10.7151 10.6177 10.6101 10.6415 10.4 10.6889L10.2087 10.7321C9.46946 10.8991 9.09983 10.9825 9.01189 11.2648C8.92395 11.5471 9.17594 11.8412 9.67992 12.4295L9.81031 12.5817C9.95353 12.7488 10.0251 12.8324 10.0573 12.9358C10.0896 13.0392 10.0787 13.1507 10.0571 13.3738L10.0374 13.5768C9.96118 14.3617 9.92308 14.7541 10.1533 14.9286C10.3835 15.103 10.7296 14.944 11.4218 14.6258L11.6009 14.5435C11.7976 14.4531 11.8959 14.4079 12.0002 14.4079C12.1044 14.4079 12.2028 14.4531 12.3995 14.5435L12.5785 14.6258L12.5785 14.6258C13.2707 14.944 13.6168 15.103 13.847 14.9286C14.0773 14.7541 14.0392 14.3617 13.963 13.5768V13.5768L13.9433 13.3738V13.3737C13.9216 13.1507 13.9108 13.0392 13.943 12.9358C13.9752 12.8324 14.0468 12.7488 14.19 12.5817L14.3204 12.4295C14.8244 11.8412 15.0764 11.5471 14.9885 11.2648C14.9005 10.9825 14.5309 10.8991 13.7916 10.7321L13.6004 10.6889C13.3903 10.6415 13.2852 10.6177 13.2009 10.5538C13.1166 10.4899 13.0625 10.3931 12.9543 10.1994Z" fill="#1C274C"/>
</svg>
