<svg width="24" height="24" viewBox="0 0 24 24" fill="none" xmlns="http://www.w3.org/2000/svg">
<path opacity="0.5" d="M14.005 4.00049H9.99502C6.21439 4.00049 4.32407 4.00049 3.14958 5.17206C2.34091 5.97872 2.08903 7.12388 2.01058 8.98996C1.99502 9.36003 1.98724 9.54506 2.05634 9.66851C2.12545 9.79196 2.40133 9.94602 2.95308 10.2541C3.56586 10.5963 3.98007 11.2502 3.98007 12.0005C3.98007 12.7508 3.56586 13.4046 2.95308 13.7468C2.40133 14.0549 2.12545 14.209 2.05634 14.3325C1.98724 14.4559 1.99502 14.6409 2.01058 15.011C2.08903 16.8771 2.34091 18.0223 3.14958 18.8289C4.32407 20.0005 6.21438 20.0005 9.99502 20.0005H14.005C17.7856 20.0005 19.6759 20.0005 20.8504 18.8289C21.6591 18.0223 21.911 16.8771 21.9894 15.011C22.005 14.6409 22.0128 14.4559 21.9437 14.3325C21.8745 14.209 21.5987 14.055 21.0469 13.7468C20.4341 13.4046 20.0199 12.7508 20.0199 12.0005C20.0199 11.2502 20.4341 10.5963 21.0469 10.2541C21.5987 9.94602 21.8745 9.79196 21.9437 9.66851C22.0128 9.54506 22.005 9.36003 21.9894 8.98996C21.911 7.12388 21.6591 5.97872 20.8504 5.17206C19.6759 4.00049 17.7856 4.00049 14.005 4.00049Z" fill="#1C274C"/>
<path d="M15.5475 8.47016C15.8411 8.76305 15.8411 9.23793 15.5475 9.53082L9.53254 15.5308C9.23892 15.8237 8.76286 15.8237 8.46924 15.5308C8.17562 15.2379 8.17562 14.7631 8.46924 14.4702L14.4842 8.47016C14.7778 8.17726 15.2539 8.17726 15.5475 8.47016Z" fill="#1C274C"/>
<path d="M14.5146 15.5005C15.0683 15.5005 15.5171 15.0528 15.5171 14.5005C15.5171 13.9482 15.0683 13.5005 14.5146 13.5005C13.9609 13.5005 13.5121 13.9482 13.5121 14.5005C13.5121 15.0528 13.9609 15.5005 14.5146 15.5005Z" fill="#1C274C"/>
<path d="M9.50214 10.5005C10.0558 10.5005 10.5046 10.0528 10.5046 9.50049C10.5046 8.9482 10.0558 8.50049 9.50214 8.50049C8.94848 8.50049 8.49965 8.9482 8.49965 9.50049C8.49965 10.0528 8.94848 10.5005 9.50214 10.5005Z" fill="#1C274C"/>
</svg>
