<svg width="24" height="24" viewBox="0 0 24 24" fill="none" xmlns="http://www.w3.org/2000/svg">
<path fill-rule="evenodd" clip-rule="evenodd" d="M6.37564 19.5727C5.89807 19.402 5.50578 19.1631 5.1716 18.8289C4.19727 17.8546 4.03323 16.3864 4.00562 13.7505H19.9944C19.9668 16.3864 19.8028 17.8546 18.8285 18.8289C18.4943 19.163 18.1021 19.4019 17.6247 19.5726L18.671 21.6652C18.8563 22.0357 18.7061 22.4862 18.3356 22.6715C17.9651 22.8567 17.5146 22.7065 17.3294 22.3361L16.1054 19.8882C15.0571 20.0005 13.726 20.0005 12 20.0005C10.2742 20.0005 8.94326 20.0005 7.89494 19.8882L6.67101 22.3361C6.48577 22.7065 6.03526 22.8567 5.66478 22.6715C5.29429 22.4862 5.14413 22.0357 5.32937 21.6652L6.37564 19.5727ZM14.75 16.0005C14.75 15.5863 15.0858 15.2505 15.5 15.2505H17C17.4142 15.2505 17.75 15.5863 17.75 16.0005C17.75 16.4147 17.4142 16.7505 17 16.7505H15.5C15.0858 16.7505 14.75 16.4147 14.75 16.0005ZM7.00002 15.2505C6.58581 15.2505 6.25002 15.5863 6.25002 16.0005C6.25002 16.4147 6.58581 16.7505 7.00002 16.7505H8.50002C8.91424 16.7505 9.25002 16.4147 9.25002 16.0005C9.25002 15.5863 8.91424 15.2505 8.50002 15.2505H7.00002Z" fill="#1C274C"/>
<path opacity="0.5" d="M5.17157 3.17202C4 4.34359 4 6.22921 4 10.0004V13.7505H20V10.0004C20 6.22921 20 4.34359 18.8284 3.17202C17.9495 2.29313 16.6688 2.07356 14.4917 2.01871C14.2216 2.0119 14 2.23026 14 2.50044C14 3.60501 13.1046 4.50044 12 4.50044C10.8954 4.50044 10 3.60501 10 2.50044C10 2.23026 9.77845 2.0119 9.50835 2.01871C7.33118 2.07356 6.05046 2.29313 5.17157 3.17202Z" fill="#1C274C"/>
</svg>
