<svg width="24" height="24" viewBox="0 0 24 24" fill="none" xmlns="http://www.w3.org/2000/svg">
<path d="M2 4.00049C2 2.89592 2.89543 2.00049 4 2.00049C5.10457 2.00049 6 2.89592 6 4.00049C6 4.83983 5.48296 5.55842 4.75 5.85511V11.2505H11.25V5.85511C10.517 5.55842 10 4.83983 10 4.00049C10 2.89592 10.8954 2.00049 12 2.00049C13.1046 2.00049 14 2.89592 14 4.00049C14 4.83983 13.483 5.55842 12.75 5.85511V11.2505H16C16.964 11.2505 17.6116 11.2489 18.0946 11.184C18.5561 11.1219 18.7536 11.0147 18.8839 10.8844C19.0142 10.7541 19.1214 10.5566 19.1835 10.0951C19.2484 9.61206 19.25 8.9645 19.25 8.00049V5.85511C18.517 5.55842 18 4.83983 18 4.00049C18 2.89592 18.8954 2.00049 20 2.00049C21.1046 2.00049 22 2.89592 22 4.00049C22 4.83983 21.483 5.55842 20.75 5.85511V8.05248C20.75 8.95096 20.7501 9.70019 20.6701 10.295C20.5857 10.9228 20.4 11.4896 19.9445 11.945C19.4891 12.4005 18.9223 12.5862 18.2945 12.6706C17.6997 12.7505 16.9505 12.7505 16.052 12.7505L12.75 12.7505L12.75 18.1459C13.483 18.4426 14 19.1611 14 20.0005C14 21.1051 13.1046 22.0005 12 22.0005C10.8954 22.0005 10 21.1051 10 20.0005C10 19.1611 10.517 18.4426 11.25 18.1459V12.7505H4.75V18.1459C5.48296 18.4426 6 19.1611 6 20.0005C6 21.1051 5.10457 22.0005 4 22.0005C2.89543 22.0005 2 21.1051 2 20.0005C2 19.1611 2.51704 18.4426 3.25 18.1459V5.85511C2.51704 5.55842 2 4.83983 2 4.00049Z" fill="#1C274C"/>
<path opacity="0.5" fill-rule="evenodd" clip-rule="evenodd" d="M17.25 15.0005C17.25 14.5863 17.5858 14.2505 18 14.2505H20.2857C21.6612 14.2505 22.75 15.3844 22.75 16.7505C22.75 17.829 22.0713 18.7629 21.1086 19.1082L22.6396 21.6089C22.8559 21.9621 22.7449 22.4238 22.3916 22.6401C22.0384 22.8564 21.5766 22.7454 21.3604 22.3921L19.4369 19.2505H18.75V22.0005C18.75 22.4147 18.4142 22.7505 18 22.7505C17.5858 22.7505 17.25 22.4147 17.25 22.0005V15.0005ZM18.75 17.7505H20.2857C20.8038 17.7505 21.25 17.3174 21.25 16.7505C21.25 16.1835 20.8038 15.7505 20.2857 15.7505H18.75V17.7505Z" fill="#1C274C"/>
</svg>
