<svg width="24" height="24" viewBox="0 0 24 24" fill="none" xmlns="http://www.w3.org/2000/svg">
<path d="M9.25 14.0005C10.9069 14.0005 12.25 15.3436 12.25 17.0005C12.25 18.6573 10.9069 20.0005 9.25 20.0005C7.59315 20.0005 6.25 18.6573 6.25 17.0005C6.25 15.3436 7.59315 14.0005 9.25 14.0005Z" fill="#1C274C"/>
<path d="M14.25 4.00049C12.5931 4.00049 11.25 5.34363 11.25 7.00049C11.25 8.65734 12.5931 10.0005 14.25 10.0005C15.9069 10.0005 17.25 8.65734 17.25 7.00049C17.25 5.34363 15.9069 4.00049 14.25 4.00049Z" fill="#1C274C"/>
<g opacity="0.5">
<path d="M17.1658 7.70898C17.2208 7.48181 17.25 7.24454 17.25 7.00046C17.25 6.72651 17.2133 6.46113 17.1445 6.20898H21.75C22.1642 6.20898 22.5 6.54477 22.5 6.95898C22.5 7.3732 22.1642 7.70898 21.75 7.70898L17.1658 7.70898Z" fill="#1C274C"/>
<path d="M11.3555 6.20898C11.2867 6.46113 11.25 6.72651 11.25 7.00046C11.25 7.24454 11.2791 7.48181 11.3342 7.70898L1.75 7.70898C1.33579 7.70898 1 7.3732 1 6.95898C1 6.54477 1.33579 6.20898 1.75 6.20898H11.3555Z" fill="#1C274C"/>
<path d="M6.35551 16.209H1.75C1.33579 16.209 1 16.5448 1 16.959C1 17.3732 1.33579 17.709 1.75 17.709H6.33416C6.27915 17.4818 6.25 17.2445 6.25 17.0005C6.25 16.7265 6.28672 16.4611 6.35551 16.209Z" fill="#1C274C"/>
<path d="M12.1658 17.709H21.75C22.1642 17.709 22.5 17.3732 22.5 16.959C22.5 16.5448 22.1642 16.209 21.75 16.209H12.1445C12.2133 16.4611 12.25 16.7265 12.25 17.0005C12.25 17.2445 12.2209 17.4818 12.1658 17.709Z" fill="#1C274C"/>
</g>
</svg>
