<svg width="24" height="24" viewBox="0 0 24 24" fill="none" xmlns="http://www.w3.org/2000/svg">
<circle cx="12" cy="6.00049" r="4" fill="#1C274C"/>
<path opacity="0.5" d="M18.0947 15.0316C17.6699 15.0005 17.1487 15.0005 16.5 15.0005C14.8501 15.0005 14.0251 15.0005 13.5126 15.5131C13 16.0256 13 16.8506 13 18.5005C13 19.6668 13 20.4209 13.1811 20.9438C12.7971 20.9811 12.4025 21.0005 12 21.0005C8.13401 21.0005 5 19.2096 5 17.0005C5 14.7913 8.13401 13.0005 12 13.0005C14.6134 13.0005 16.8924 13.8189 18.0947 15.0316Z" fill="#1C274C"/>
<path fill-rule="evenodd" clip-rule="evenodd" d="M13.5126 21.4879C14.0251 22.0005 14.8501 22.0005 16.5 22.0005C18.1499 22.0005 18.9749 22.0005 19.4874 21.4879C20 20.9754 20 20.1504 20 18.5005C20 16.8506 20 16.0256 19.4874 15.5131C18.9749 15.0005 18.1499 15.0005 16.5 15.0005C14.8501 15.0005 14.0251 15.0005 13.5126 15.5131C13 16.0256 13 16.8506 13 18.5005C13 20.1504 13 20.9754 13.5126 21.4879ZM15.5266 19.977C14.8245 19.4743 14 18.8838 14 17.8603C14 16.7303 15.375 15.929 16.5 17.0153C17.625 15.929 19 16.7303 19 17.8603C19 18.8838 18.1755 19.4743 17.4734 19.977C17.4005 20.0292 17.3288 20.0805 17.2596 20.1312C17 20.3214 16.75 20.5005 16.5 20.5005C16.25 20.5005 16 20.3214 15.7404 20.1312C15.6712 20.0805 15.5995 20.0292 15.5266 19.977Z" fill="#1C274C"/>
</svg>
