<svg width="24" height="24" viewBox="0 0 24 24" fill="none" xmlns="http://www.w3.org/2000/svg">
<path d="M15.5 7.50049C15.5 9.43349 13.933 11.0005 12 11.0005C10.067 11.0005 8.5 9.43349 8.5 7.50049C8.5 5.56749 10.067 4.00049 12 4.00049C13.933 4.00049 15.5 5.56749 15.5 7.50049Z" fill="#1C274C"/>
<path opacity="0.5" d="M19.5 7.50049C19.5 8.8812 18.3807 10.0005 17 10.0005C15.6193 10.0005 14.5 8.8812 14.5 7.50049C14.5 6.11978 15.6193 5.00049 17 5.00049C18.3807 5.00049 19.5 6.11978 19.5 7.50049Z" fill="#1C274C"/>
<path opacity="0.5" d="M4.5 7.50049C4.5 8.8812 5.61929 10.0005 7 10.0005C8.38071 10.0005 9.5 8.8812 9.5 7.50049C9.5 6.11978 8.38071 5.00049 7 5.00049C5.61929 5.00049 4.5 6.11978 4.5 7.50049Z" fill="#1C274C"/>
<path d="M18 16.5005C18 18.4335 15.3137 20.0005 12 20.0005C8.68629 20.0005 6 18.4335 6 16.5005C6 14.5675 8.68629 13.0005 12 13.0005C15.3137 13.0005 18 14.5675 18 16.5005Z" fill="#1C274C"/>
<path opacity="0.5" d="M22 16.5005C22 17.8812 20.2091 19.0005 18 19.0005C15.7909 19.0005 14 17.8812 14 16.5005C14 15.1198 15.7909 14.0005 18 14.0005C20.2091 14.0005 22 15.1198 22 16.5005Z" fill="#1C274C"/>
<path opacity="0.5" d="M2 16.5005C2 17.8812 3.79086 19.0005 6 19.0005C8.20914 19.0005 10 17.8812 10 16.5005C10 15.1198 8.20914 14.0005 6 14.0005C3.79086 14.0005 2 15.1198 2 16.5005Z" fill="#1C274C"/>
</svg>
