<svg width="24" height="24" viewBox="0 0 24 24" fill="none" xmlns="http://www.w3.org/2000/svg">
<path opacity="0.5" d="M22 12.0005C22 17.5233 17.5228 22.0005 12 22.0005C6.47715 22.0005 2 17.5233 2 12.0005C2 6.47764 6.47715 2.00049 12 2.00049C17.5228 2.00049 22 6.47764 22 12.0005Z" fill="#1C274C"/>
<path d="M16.807 19.0117C15.4398 19.9509 13.7841 20.5005 12 20.5005C10.2159 20.5005 8.56023 19.9508 7.193 19.0116C6.58915 18.5968 6.33109 17.8066 6.68219 17.1637C7.41001 15.8307 8.90973 15.0005 12 15.0005C15.0903 15.0005 16.59 15.8307 17.3178 17.1637C17.6689 17.8067 17.4108 18.5969 16.807 19.0117Z" fill="#1C274C"/>
<path d="M12 12.0005C13.6569 12.0005 15 10.6573 15 9.00049C15 7.34363 13.6569 6.00049 12 6.00049C10.3432 6.00049 9.00004 7.34363 9.00004 9.00049C9.00004 10.6573 10.3432 12.0005 12 12.0005Z" fill="#1C274C"/>
</svg>
