<svg width="24" height="24" viewBox="0 0 24 24" fill="none" xmlns="http://www.w3.org/2000/svg">
<path d="M16 6.00049C16 8.20963 14.2091 10.0005 12 10.0005C9.79086 10.0005 8 8.20963 8 6.00049C8 3.79135 9.79086 2.00049 12 2.00049C14.2091 2.00049 16 3.79135 16 6.00049Z" fill="#1C274C"/>
<path opacity="0.5" d="M14.4774 21.9213C13.7513 21.9733 12.9296 22.0005 12 22.0005C4 22.0005 4 19.9858 4 17.5005C4 15.0152 7.58172 13.0005 12 13.0005C14.8806 13.0005 17.4056 13.8569 18.8142 15.1417C18.298 15.0005 17.5737 15.0005 16.5 15.0005C14.8501 15.0005 14.0251 15.0005 13.5126 15.5131C13 16.0256 13 16.8506 13 18.5005C13 20.1504 13 20.9754 13.5126 21.4879C13.7501 21.7254 14.0547 21.8529 14.4774 21.9213Z" fill="#1C274C"/>
<path fill-rule="evenodd" clip-rule="evenodd" d="M16.5 22.0005C14.8501 22.0005 14.0251 22.0005 13.5126 21.4879C13 20.9754 13 20.1504 13 18.5005C13 16.8506 13 16.0256 13.5126 15.5131C14.0251 15.0005 14.8501 15.0005 16.5 15.0005C18.1499 15.0005 18.9749 15.0005 19.4874 15.5131C20 16.0256 20 16.8506 20 18.5005C20 20.1504 20 20.9754 19.4874 21.4879C18.9749 22.0005 18.1499 22.0005 16.5 22.0005ZM15.3569 16.5325C15.1291 16.3046 14.7598 16.3046 14.532 16.5325C14.3042 16.7603 14.3042 17.1296 14.532 17.3574L15.675 18.5005L14.532 19.6436C14.3042 19.8714 14.3042 20.2407 14.532 20.4685C14.7598 20.6963 15.1291 20.6963 15.3569 20.4685L16.5 19.3254L17.6431 20.4685C17.8709 20.6963 18.2402 20.6963 18.468 20.4685C18.6958 20.2407 18.6958 19.8714 18.468 19.6436L17.325 18.5005L18.468 17.3574C18.6958 17.1296 18.6958 16.7603 18.468 16.5325C18.2402 16.3046 17.8709 16.3046 17.6431 16.5325L16.5 17.6755L15.3569 16.5325Z" fill="#1C274C"/>
</svg>
