<svg width="24" height="24" viewBox="0 0 24 24" fill="none" xmlns="http://www.w3.org/2000/svg">
<path fill-rule="evenodd" clip-rule="evenodd" d="M10.9292 9.26768C11.129 9.25685 11.3217 9.25049 11.5 9.25049C12.0541 9.25049 12.6539 9.31206 13.1938 9.38961C14.7153 9.60815 15.8674 10.7309 16.3278 12.1122C16.4321 12.425 16.7484 12.6154 17.0736 12.5612L18.8767 12.2607C19.2853 12.1926 19.6717 12.4686 19.7398 12.8772C19.8079 13.2858 19.5319 13.6722 19.1233 13.7403L17.3202 14.0408C16.2669 14.2163 15.2424 13.5995 14.9048 12.5865C14.5975 11.6647 13.8619 11.001 12.9805 10.8744C12.7129 10.8359 12.4404 10.8034 12.1757 10.7813L11.9045 13.4928C11.8205 14.3325 11.8107 14.5542 11.8674 14.7523C11.9241 14.9503 12.0497 15.1332 12.5652 15.8014L16.9942 21.5424C17.2472 21.8703 17.1865 22.3413 16.8585 22.5943C16.5306 22.8473 16.0596 22.7866 15.8066 22.4586L11.3775 16.7177C11.3536 16.6867 11.33 16.6561 11.3066 16.6259C10.896 16.0946 10.5711 15.6743 10.4253 15.1649C10.2796 14.6556 10.3329 14.127 10.4003 13.4589C10.4042 13.4209 10.4081 13.3825 10.412 13.3436L10.666 10.8028C8.99272 11.0765 7.75 12.6496 7.75 14.5005C7.75 14.9147 7.41421 15.2505 7 15.2505C6.58579 15.2505 6.25 14.9147 6.25 14.5005C6.25 11.8598 8.1638 9.41755 10.9292 9.26768Z" fill="#1C274C"/>
<g opacity="0.5">
<path d="M15 4.50049C15 5.8812 13.8807 7.00049 12.5 7.00049C11.1193 7.00049 10 5.8812 10 4.50049C10 3.11978 11.1193 2.00049 12.5 2.00049C13.8807 2.00049 15 3.11978 15 4.50049Z" fill="#1C274C"/>
</g>
<g opacity="0.5">
<path d="M10.1471 16.7652C10.5533 16.8464 10.8167 17.2416 10.7355 17.6477C10.3779 19.4355 9.4014 21.04 7.97772 22.179L7.46855 22.5863C7.1451 22.845 6.67313 22.7926 6.41438 22.4692C6.15562 22.1457 6.20806 21.6737 6.53151 21.415L7.04067 21.0076C8.18877 20.0892 8.97625 18.7953 9.26459 17.3535C9.34583 16.9474 9.74094 16.684 10.1471 16.7652Z" fill="#1C274C"/>
</g>
</svg>
