<svg width="24" height="24" viewBox="0 0 24 24" fill="none" xmlns="http://www.w3.org/2000/svg">
<path d="M4.8916 9.6148C4.8916 9.21242 5.21525 8.88623 5.61449 8.88623H9.46991C9.86916 8.88623 10.1928 9.21242 10.1928 9.6148C10.1928 10.0172 9.86916 10.3434 9.46991 10.3434H5.61449C5.21525 10.3434 4.8916 10.0172 4.8916 9.6148Z" fill="#1C274C"/>
<path fill-rule="evenodd" clip-rule="evenodd" d="M21.1884 10.0043C21.1262 10.0004 21.0584 10.0005 20.9881 10.0005L20.9706 10.0005H18.2149C15.9435 10.0005 14 11.7366 14 14.0005C14 16.2644 15.9435 18.0005 18.2149 18.0005H20.9706L20.9881 18.0005C21.0584 18.0005 21.1262 18.0005 21.1884 17.9967C22.111 17.9402 22.927 17.2391 22.9956 16.2599C23.0001 16.1957 23 16.1265 23 16.0623L23 16.0449V11.956L23 11.9386C23 11.8745 23.0001 11.8053 22.9956 11.7411C22.927 10.7619 22.111 10.0608 21.1884 10.0043ZM17.9706 15.0671C18.5554 15.0671 19.0294 14.5896 19.0294 14.0005C19.0294 13.4114 18.5554 12.9338 17.9706 12.9338C17.3858 12.9338 16.9118 13.4114 16.9118 14.0005C16.9118 14.5896 17.3858 15.0671 17.9706 15.0671Z" fill="#1C274C"/>
<path opacity="0.5" d="M21.1394 10.002C21.1394 8.8214 21.0965 7.55496 20.3418 6.64707C20.2689 6.55943 20.1914 6.47433 20.1088 6.39173C19.3604 5.64337 18.4114 5.31125 17.239 5.15362C16.0998 5.00046 14.6442 5.00047 12.8064 5.00049H10.6936C8.85583 5.00047 7.40019 5.00046 6.26098 5.15362C5.08856 5.31125 4.13961 5.64337 3.39124 6.39173C2.64288 7.1401 2.31076 8.08905 2.15314 9.26147C1.99997 10.4007 1.99999 11.8563 2 13.6941V13.8069C1.99999 15.6447 1.99997 17.1003 2.15314 18.2395C2.31076 19.4119 2.64288 20.3609 3.39124 21.1092C4.13961 21.8576 5.08856 22.1897 6.26098 22.3474C7.40018 22.5005 8.8558 22.5005 10.6935 22.5005H12.8064C14.6442 22.5005 16.0998 22.5005 17.239 22.3474C18.4114 22.1897 19.3604 21.8576 20.1088 21.1092C20.3133 20.9047 20.487 20.6849 20.6346 20.4491C21.0851 19.7296 21.1394 18.8478 21.1394 17.999C21.0912 18.0005 21.0404 18.0005 20.9882 18.0005L18.2149 18.0005C15.9435 18.0005 14 16.2644 14 14.0005C14 11.7366 15.9435 10.0005 18.2149 10.0005L20.9881 10.0005C21.0403 10.0005 21.0912 10.0005 21.1394 10.002Z" fill="#1C274C"/>
<path d="M10.1013 2.5726L7.99988 3.99302L6.2666 5.15285C7.40496 5.00046 8.8588 5.00047 10.6935 5.00049H12.8063C14.6441 5.00047 16.0997 5.00046 17.2389 5.15362C17.4681 5.18443 17.6887 5.22191 17.9009 5.26785L15.9999 4.00049L13.8874 2.5726C12.7588 1.80978 11.2299 1.80978 10.1013 2.5726Z" fill="#1C274C"/>
</svg>
