<svg width="24" height="24" viewBox="0 0 24 24" fill="none" xmlns="http://www.w3.org/2000/svg">
<path opacity="0.5" d="M3 10.0001C3 6.22889 3 4.34327 4.17157 3.17169C5.34315 2.00012 7.22876 2.00012 11 2.00012H13C16.7712 2.00012 18.6569 2.00012 19.8284 3.17169C21 4.34327 21 6.22889 21 10.0001V14.0001C21 17.7714 21 19.657 19.8284 20.8285C18.6569 22.0001 16.7712 22.0001 13 22.0001H11C7.22876 22.0001 5.34315 22.0001 4.17157 20.8285C3 19.657 3 17.7714 3 14.0001V10.0001Z" fill="#1C274C"/>
<path d="M7.25 6.00012C7.25 5.58591 7.58579 5.25012 8 5.25012H16C16.4142 5.25012 16.75 5.58591 16.75 6.00012C16.75 6.41434 16.4142 6.75012 16 6.75012H8C7.58579 6.75012 7.25 6.41434 7.25 6.00012Z" fill="#1C274C"/>
<path fill-rule="evenodd" clip-rule="evenodd" d="M17.7138 14.6486C17.7377 14.4358 17.75 14.2194 17.75 14.0001C17.75 10.8245 15.1756 8.25012 12 8.25012C8.82436 8.25012 6.25 10.8245 6.25 14.0001C6.25 17.1758 8.82436 19.7501 12 19.7501C14.796 19.7501 17.1259 17.7545 17.643 15.1099L17.7338 14.6623L17.7138 14.6486ZM8.11547 13.792C8.00236 13.7192 7.88681 13.6453 7.77104 13.5746C7.98453 11.4272 9.79642 9.75012 12 9.75012C14.3472 9.75012 16.25 11.6529 16.25 14.0001L16.25 14.0056C16.1169 13.9818 15.9793 13.9604 15.8461 13.9398L15.8305 13.9374C15.6688 13.9124 15.5091 13.8877 15.3451 13.8581C14.6442 13.7318 14.0781 13.7829 13.5869 13.9641C13.1303 14.1326 12.786 14.3999 12.5321 14.597L12.5084 14.6154C12.233 14.829 12.0529 14.9624 11.83 15.0446C11.6273 15.1194 11.3371 15.1681 10.857 15.0815C10.1533 14.9547 9.52387 14.6553 8.9424 14.3121C8.69352 14.1653 8.46278 14.0163 8.23511 13.8692L8.11547 13.792Z" fill="#1C274C"/>
</svg>
