<svg width="24" height="24" viewBox="0 0 24 24" fill="none" xmlns="http://www.w3.org/2000/svg">
<path d="M12.7914 2.00049H11.2088C9.67052 2.00049 8.90139 2.00049 8.35298 2.4404C7.80457 2.88032 7.63773 3.63114 7.30403 5.13277L7.23928 5.42413C8.21844 5.00049 9.59401 5.00049 12 5.00049C14.4062 5.00049 15.7817 5.00049 16.7609 5.42422L16.6962 5.13277C16.3625 3.63114 16.1956 2.88032 15.6472 2.4404C15.0988 2.00049 14.3297 2.00049 12.7914 2.00049Z" fill="#1C274C"/>
<path d="M7.23918 18.5768C8.21835 19.0005 9.59392 19.0005 12 19.0005C14.4061 19.0005 15.7817 19.0005 16.7608 18.5768L16.6961 18.8682C16.3624 20.3698 16.1955 21.1206 15.6471 21.5606C15.0987 22.0005 14.3296 22.0005 12.7913 22.0005H11.2087C9.67043 22.0005 8.9013 22.0005 8.35289 21.5606C7.80448 21.1206 7.63763 20.3698 7.30394 18.8682L7.23918 18.5768Z" fill="#1C274C"/>
<path opacity="0.5" d="M6.77772 18.3264C7.78661 19.0005 9.19108 19.0005 12 19.0005C14.8089 19.0005 16.2134 19.0005 17.2223 18.3264C17.659 18.0345 18.034 17.6595 18.3259 17.2228C19 16.2139 19 14.8094 19 12.0005C19 9.19156 19 7.7871 18.3259 6.77821C18.034 6.34145 17.659 5.96644 17.2223 5.67461C16.2134 5.00049 14.8089 5.00049 12 5.00049C9.19108 5.00049 7.78661 5.00049 6.77772 5.67461C6.34096 5.96644 5.96596 6.34145 5.67412 6.77821C5 7.7871 5 9.19156 5 12.0005C5 14.8094 5 16.2139 5.67412 17.2228C5.96596 17.6595 6.34096 18.0345 6.77772 18.3264Z" fill="#1C274C"/>
<path fill-rule="evenodd" clip-rule="evenodd" d="M12 8.25049C12.4142 8.25049 12.75 8.58627 12.75 9.00049V11.7581L14.5198 13.4599C14.8184 13.747 14.8277 14.2217 14.5406 14.5203C14.2535 14.8189 13.7787 14.8282 13.4802 14.5411L11.4802 12.618C11.3331 12.4766 11.25 12.2814 11.25 12.0774V9.00049C11.25 8.58627 11.5858 8.25049 12 8.25049Z" fill="#1C274C"/>
</svg>
