<svg width="24" height="24" viewBox="0 0 24 24" fill="none" xmlns="http://www.w3.org/2000/svg">
<path opacity="0.5" d="M12 18.9774C15.866 18.9774 19 15.8538 19 12.0007C19 8.14752 15.866 5.02393 12 5.02393C8.13401 5.02393 5 8.14752 5 12.0007C5 15.8538 8.13401 18.9774 12 18.9774Z" fill="#1C274C"/>
<path d="M11.2087 2.00049H12.7913C14.3296 2.00049 15.0987 2.00049 15.6471 2.4404C16.1955 2.88032 16.3624 3.63114 16.6961 5.13277L17 6.50049L17.1563 7.28219C15.8769 5.894 14.0404 5.02393 12 5.02393C9.95962 5.02393 8.12313 5.894 6.84366 7.28219L7 6.50049L7.30394 5.13277C7.63763 3.63114 7.80448 2.88032 8.35289 2.4404C8.90129 2.00049 9.67042 2.00049 11.2087 2.00049Z" fill="#1C274C"/>
<path d="M17.1562 16.7192C15.8768 18.1074 14.0403 18.9774 12 18.9774C9.95967 18.9774 8.12322 18.1074 6.84375 16.7192L7 17.5005L7.30394 18.8682C7.63763 20.3698 7.80448 21.1207 8.35289 21.5606C8.90129 22.0005 9.67042 22.0005 11.2087 22.0005H12.7913C14.3296 22.0005 15.0987 22.0005 15.6471 21.5606C16.1955 21.1207 16.3624 20.3698 16.6961 18.8682L17 17.5005L17.1562 16.7192Z" fill="#1C274C"/>
<path d="M12.6998 9.13859C12.6998 8.75328 12.3864 8.44092 11.9998 8.44092C11.6132 8.44092 11.2998 8.75328 11.2998 9.13859V12.0008C11.2998 12.1906 11.3774 12.3722 11.5146 12.5038L13.3813 14.2927C13.66 14.5597 14.1031 14.5511 14.3711 14.2733C14.639 13.9956 14.6303 13.5539 14.3516 13.2868L12.6998 11.7038V9.13859Z" fill="#1C274C"/>
</svg>
