<svg width="24" height="24" viewBox="0 0 24 24" fill="none" xmlns="http://www.w3.org/2000/svg">
<path d="M2 17.5005C2 15.0152 4.01472 13.0005 6.5 13.0005H9.2C9.83006 13.0005 10.1451 13.0005 10.3857 13.1231C10.5974 13.231 10.7695 13.4031 10.8774 13.6147C11 13.8554 11 14.1704 11 14.8005V17.5005C11 19.9858 8.98528 22.0005 6.5 22.0005C4.01472 22.0005 2 19.9858 2 17.5005Z" fill="#1C274C"/>
<path d="M13 6.50049C13 4.01521 15.0147 2.00049 17.5 2.00049C19.9853 2.00049 22 4.01521 22 6.50049C22 8.98577 19.9853 11.0005 17.5 11.0005H14.2857C14.1365 11.0005 14.0618 11.0005 13.999 10.9934C13.4775 10.9346 13.0658 10.523 13.0071 10.0014C13 9.93867 13 9.86404 13 9.71477V6.50049Z" fill="#1C274C"/>
<g opacity="0.5">
<path d="M2 6.50049C2 4.01521 4.01472 2.00049 6.5 2.00049C8.98528 2.00049 11 4.01521 11 6.50049V9.50049C11 9.84923 11 10.0236 10.9617 10.1667C10.8576 10.5549 10.5544 10.8581 10.1662 10.9622C10.0231 11.0005 9.84874 11.0005 9.5 11.0005H6.5C4.01472 11.0005 2 8.98577 2 6.50049Z" fill="#1C274C"/>
<path d="M13 14.5005C13 14.1517 13 13.9774 13.0383 13.8343C13.1424 13.4461 13.4456 13.1428 13.8338 13.0388C13.9769 13.0005 14.1513 13.0005 14.5 13.0005H17.5C19.9853 13.0005 22 15.0152 22 17.5005C22 19.9858 19.9853 22.0005 17.5 22.0005C15.0147 22.0005 13 19.9858 13 17.5005V14.5005Z" fill="#1C274C"/>
</g>
</svg>
