<svg width="24" height="24" viewBox="0 0 24 24" fill="none" xmlns="http://www.w3.org/2000/svg">
<path fill-rule="evenodd" clip-rule="evenodd" d="M2 6.63463C2 4.07527 4.07478 2.00049 6.63415 2.00049C9.19351 2.00049 11.2683 4.07527 11.2683 6.63463C11.2683 9.194 9.19351 11.2688 6.63415 11.2688C4.07478 11.2688 2 9.194 2 6.63463Z" fill="#1C274C"/>
<path opacity="0.5" fill-rule="evenodd" clip-rule="evenodd" d="M12.7319 17.3663C12.7319 14.807 14.8067 12.7322 17.3661 12.7322C19.9254 12.7322 22.0002 14.807 22.0002 17.3663C22.0002 19.9257 19.9254 22.0005 17.3661 22.0005C14.8067 22.0005 12.7319 19.9257 12.7319 17.3663Z" fill="#1C274C"/>
<path d="M2 17.5005C2 15.3792 2 14.3185 2.65901 13.6595C3.31802 13.0005 4.37868 13.0005 6.5 13.0005C8.62132 13.0005 9.68198 13.0005 10.341 13.6595C11 14.3185 11 15.3792 11 17.5005C11 19.6218 11 20.6825 10.341 21.3415C9.68198 22.0005 8.62132 22.0005 6.5 22.0005C4.37868 22.0005 3.31802 22.0005 2.65901 21.3415C2 20.6825 2 19.6218 2 17.5005Z" fill="#1C274C"/>
<path opacity="0.5" d="M13 6.50049C13 4.37917 13 3.31851 13.659 2.6595C14.318 2.00049 15.3787 2.00049 17.5 2.00049C19.6213 2.00049 20.682 2.00049 21.341 2.6595C22 3.31851 22 4.37917 22 6.50049C22 8.62181 22 9.68247 21.341 10.3415C20.682 11.0005 19.6213 11.0005 17.5 11.0005C15.3787 11.0005 14.318 11.0005 13.659 10.3415C13 9.68247 13 8.62181 13 6.50049Z" fill="#1C274C"/>
</svg>
