<svg width="24" height="24" viewBox="0 0 24 24" fill="none" xmlns="http://www.w3.org/2000/svg">
<path opacity="0.5" d="M12 2.00037C16.714 2.00037 19.0711 2.00037 20.5355 3.46483C21.6158 4.54509 21.8992 6.111 21.9735 8.75037L22 9.50037H9.74998H8.99998H2.02643V8.75037C2.10078 6.111 2.38419 4.54509 3.46445 3.46483C4.92892 2.00037 7.28594 2.00037 12 2.00037Z" fill="#1C274C"/>
<path d="M13 6.00037C13 6.55265 12.5523 7.00037 12 7.00037C11.4477 7.00037 11 6.55265 11 6.00037C11 5.44808 11.4477 5.00037 12 5.00037C12.5523 5.00037 13 5.44808 13 6.00037Z" fill="#1C274C"/>
<path d="M10 6.00037C10 6.55265 9.55228 7.00037 9 7.00037C8.44772 7.00037 8 6.55265 8 6.00037C8 5.44808 8.44772 5.00037 9 5.00037C9.55228 5.00037 10 5.44808 10 6.00037Z" fill="#1C274C"/>
<path d="M7 6.00037C7 6.55265 6.55228 7.00037 6 7.00037C5.44772 7.00037 5 6.55265 5 6.00037C5 5.44808 5.44772 5.00037 6 5.00037C6.55228 5.00037 7 5.44808 7 6.00037Z" fill="#1C274C"/>
<path opacity="0.7" d="M2 12.0004C2 16.7144 2 19.0714 3.46447 20.5359C4.47468 21.5461 5.90962 21.8595 8.25 21.9567L9 22.0004V10.2504V9.50037H2.02645L2.00339 10.2504C2 10.7947 2 11.3769 2 12.0004Z" fill="#1C274C"/>
<path d="M22 12.0004C22 16.7144 22 19.0714 20.5355 20.5359C19.0711 22.0004 16.714 22.0004 12 22.0004C11.1815 22.0004 9.68405 22.0004 9 21.9927V21.0004L9 10.2504V9.50037L22 9.50037L21.9966 10.2504C22 10.7947 22 11.3769 22 12.0004Z" fill="#1C274C"/>
</svg>
