<svg width="24" height="24" viewBox="0 0 24 24" fill="none" xmlns="http://www.w3.org/2000/svg">
<path opacity="0.5" d="M19.2991 3.00012H4.70095C3.20008 3.00012 2.43759 4.79421 3.48381 5.86394L11.2851 13.8406C11.6773 14.2416 12.3227 14.2416 12.7149 13.8406L20.5162 5.86394C21.5624 4.79421 20.7999 3.00012 19.2991 3.00012Z" fill="#1C274C"/>
<path fill-rule="evenodd" clip-rule="evenodd" d="M7.00604 21.0001C7.00604 20.5859 7.34183 20.2501 7.75604 20.2501H16.2438C16.6581 20.2501 16.9938 20.5859 16.9938 21.0001C16.9938 21.4143 16.6581 21.7501 16.2438 21.7501H7.75604C7.34183 21.7501 7.00604 21.4143 7.00604 21.0001Z" fill="#1C274C"/>
<path d="M11.2851 13.8406C11.6773 14.2416 12.3227 14.2416 12.7149 13.8406L16.4709 10.0001H7.52905L11.2851 13.8406Z" fill="#1C274C"/>
<path opacity="0.5" d="M11.2853 13.8407C11.6776 14.2417 12.3229 14.2417 12.7152 13.8407L12.75 13.805V20.2501H11.25V13.8046L11.2853 13.8407Z" fill="#1C274C"/>
</svg>
