<svg width="24" height="24" viewBox="0 0 24 24" fill="none" xmlns="http://www.w3.org/2000/svg">
<circle opacity="0.5" cx="12" cy="9" r="7" fill="#1C274C"/>
<path d="M11.25 15.9602V17.7499H9.5C9.08579 17.7499 8.75 18.0857 8.75 18.4999C8.75 18.9141 9.08579 19.2499 9.5 19.2499H11.25V21.9999C11.25 22.4141 11.5858 22.7499 12 22.7499C12.4142 22.7499 12.75 22.4141 12.75 21.9999V19.2499H14.5C14.9142 19.2499 15.25 18.9141 15.25 18.4999C15.25 18.0857 14.9142 17.7499 14.5 17.7499L12.75 17.7499V15.9602C12.5036 15.9865 12.2534 15.9999 12 15.9999C11.7466 15.9999 11.4964 15.9865 11.25 15.9602Z" fill="#1C274C"/>
</svg>
