<svg width="24" height="24" viewBox="0 0 24 24" fill="none" xmlns="http://www.w3.org/2000/svg">
<path fill-rule="evenodd" clip-rule="evenodd" d="M12 22.0006C16.9706 22.0006 21 17.9712 21 13.0006C21 8.03003 16.9706 4.00059 12 4.00059C7.02945 4.00059 3.00001 8.03003 3.00001 13.0006C3.00001 17.9712 7.02945 22.0006 12 22.0006ZM15 12.2506C15.4142 12.2506 15.75 12.5864 15.75 13.0006C15.75 13.4148 15.4142 13.7506 15 13.7506L9.00001 13.7506C8.5858 13.7506 8.25001 13.4148 8.25001 13.0006C8.25001 12.5864 8.5858 12.2506 9.00001 12.2506L15 12.2506Z" fill="#1C274C"/>
<path fill-rule="evenodd" clip-rule="evenodd" d="M8.13603 1.60309C8.35556 1.95434 8.24878 2.41706 7.89753 2.63659L3.89751 5.13659C3.54625 5.35612 3.08354 5.24934 2.86401 4.89809C2.64448 4.54683 2.75126 4.08412 3.10251 3.86459L7.10253 1.36459C7.45379 1.14506 7.9165 1.25184 8.13603 1.60309ZM15.864 1.60309C16.0835 1.25184 16.5463 1.14506 16.8975 1.36459L20.8975 3.86459C21.2488 4.08412 21.3555 4.54684 21.136 4.89809C20.9165 5.24934 20.4538 5.35612 20.1025 5.13659L16.1025 2.63659C15.7513 2.41705 15.6445 1.95434 15.864 1.60309Z" fill="#1C274C"/>
</svg>
