<svg width="24" height="24" viewBox="0 0 24 24" fill="none" xmlns="http://www.w3.org/2000/svg">
<path fill-rule="evenodd" clip-rule="evenodd" d="M8.13602 1.60309C8.35555 1.95434 8.24877 2.41706 7.89751 2.63659L3.89749 5.13659C3.54624 5.35612 3.08353 5.24934 2.86399 4.89809C2.64446 4.54683 2.75124 4.08412 3.1025 3.86459L7.10252 1.36459C7.45377 1.14506 7.91649 1.25184 8.13602 1.60309ZM15.864 1.60309C16.0835 1.25184 16.5462 1.14506 16.8975 1.36459L20.8975 3.86459C21.2487 4.08412 21.3555 4.54684 21.136 4.89809C20.9165 5.24934 20.4537 5.35612 20.1025 5.13659L16.1025 2.63659C15.7512 2.41705 15.6445 1.95434 15.864 1.60309Z" fill="#1C274C"/>
<path fill-rule="evenodd" clip-rule="evenodd" d="M12 22.0006C16.9706 22.0006 21 17.9712 21 13.0006C21 8.03003 16.9706 4.00059 12 4.00059C7.02943 4.00059 2.99999 8.03003 2.99999 13.0006C2.99999 17.9712 7.02943 22.0006 12 22.0006ZM8.99999 10.7506C8.58578 10.7506 8.24999 10.4148 8.24999 10.0006C8.24999 9.58638 8.58578 9.25059 8.99999 9.25059H15C15.3033 9.25059 15.5768 9.43332 15.6929 9.71358C15.809 9.99383 15.7448 10.3164 15.5303 10.5309L10.8107 15.2506H15C15.4142 15.2506 15.75 15.5864 15.75 16.0006C15.75 16.4148 15.4142 16.7506 15 16.7506H8.99999C8.69665 16.7506 8.42317 16.5679 8.30708 16.2876C8.191 16.0073 8.25517 15.6848 8.46966 15.4703L13.1893 10.7506H8.99999Z" fill="#1C274C"/>
</svg>
