<svg width="24" height="24" viewBox="0 0 24 24" fill="none" xmlns="http://www.w3.org/2000/svg">
<path fill-rule="evenodd" clip-rule="evenodd" d="M8.13603 1.60309C8.35556 1.95434 8.24878 2.41706 7.89753 2.63659L3.89751 5.13659C3.54625 5.35612 3.08354 5.24934 2.86401 4.89809C2.64448 4.54683 2.75126 4.08412 3.10251 3.86459L7.10253 1.36459C7.45379 1.14506 7.9165 1.25184 8.13603 1.60309ZM15.864 1.60309C16.0835 1.25184 16.5463 1.14506 16.8975 1.36459L20.8975 3.86459C21.2488 4.08412 21.3555 4.54684 21.136 4.89809C20.9165 5.24934 20.4538 5.35612 20.1025 5.13659L16.1025 2.63659C15.7513 2.41705 15.6445 1.95434 15.864 1.60309Z" fill="#1C274C"/>
<path fill-rule="evenodd" clip-rule="evenodd" d="M21 13.0006C21 17.9712 16.9706 22.0006 12 22.0006C7.02945 22.0006 3.00001 17.9712 3.00001 13.0006C3.00001 8.03003 7.02945 4.00059 12 4.00059C16.9706 4.00059 21 8.03003 21 13.0006ZM16 15.5006C16 15.9665 16 16.1995 15.9239 16.3833C15.8224 16.6283 15.6277 16.823 15.3827 16.9245C15.1989 17.0006 14.966 17.0006 14.5 17.0006C14.0341 17.0006 13.8011 17.0006 13.6173 16.9245C13.3723 16.823 13.1776 16.6283 13.0761 16.3833C13 16.1995 13 15.9665 13 15.5006V10.5006C13 10.0346 13 9.80168 13.0761 9.61791C13.1776 9.37288 13.3723 9.1782 13.6173 9.07671C13.8011 9.00059 14.0341 9.00059 14.5 9.00059C14.966 9.00059 15.1989 9.00059 15.3827 9.07671C15.6277 9.1782 15.8224 9.37288 15.9239 9.61791C16 9.80168 16 10.0346 16 10.5006V15.5006ZM11 15.5006V10.5006C11 10.0346 11 9.80168 10.9239 9.61791C10.8224 9.37288 10.6277 9.1782 10.3827 9.07671C10.1989 9.00059 9.96595 9.00059 9.50001 9.00059C9.03407 9.00059 8.8011 9.00059 8.61733 9.07671C8.3723 9.1782 8.17762 9.37288 8.07613 9.61791C8.00001 9.80168 8.00001 10.0346 8.00001 10.5006V15.5006C8.00001 15.9665 8.00001 16.1995 8.07613 16.3833C8.17762 16.6283 8.3723 16.823 8.61733 16.9245C8.8011 17.0006 9.03407 17.0006 9.50001 17.0006C9.96595 17.0006 10.1989 17.0006 10.3827 16.9245C10.6277 16.823 10.8224 16.6283 10.9239 16.3833C11 16.1995 11 15.9665 11 15.5006Z" fill="#1C274C"/>
</svg>
