<svg width="24" height="24" viewBox="0 0 24 24" fill="none" xmlns="http://www.w3.org/2000/svg">
<path fill-rule="evenodd" clip-rule="evenodd" d="M2.54497 8.73041C2 9.79997 2 11.2001 2 14.0004C2 16.8006 2 18.2008 2.54497 19.2703C3.02433 20.2111 3.78924 20.976 4.73005 21.4554C5.79961 22.0004 7.19974 22.0004 10 22.0004H14C16.8003 22.0004 18.2004 22.0004 19.27 21.4554C20.2108 20.976 20.9757 20.2111 21.455 19.2703C22 18.2008 22 16.8006 22 14.0004C22 11.2001 22 9.79997 21.455 8.73041C20.9757 7.7896 20.2108 7.0247 19.27 6.54533C18.2004 6.00037 16.8003 6.00037 14 6.00037H10C7.19974 6.00037 5.79961 6.00037 4.73005 6.54533C3.78924 7.0247 3.02433 7.7896 2.54497 8.73041ZM15.0595 12.4999C15.3353 12.1909 15.3085 11.7168 14.9995 11.4409C14.6905 11.165 14.2164 11.1919 13.9406 11.5009L10.9286 14.8743L10.0595 13.9009C9.78359 13.5919 9.30947 13.565 9.0005 13.8409C8.69152 14.1168 8.66468 14.5909 8.94055 14.8999L10.3691 16.4999C10.5114 16.6593 10.7149 16.7504 10.9286 16.7504C11.1422 16.7504 11.3457 16.6593 11.488 16.4999L15.0595 12.4999Z" fill="#1C274C"/>
<path d="M20.5348 3.46483C19.0704 2.00037 16.7133 2.00037 11.9993 2.00037C7.28525 2.00037 4.92823 2.00037 3.46377 3.46483C2.70628 4.22232 2.3406 5.21861 2.16406 6.65635C2.69473 6.06569 3.33236 5.57365 4.04836 5.20882C4.82984 4.81064 5.66664 4.64917 6.59316 4.57347C7.48829 4.50033 8.58971 4.50035 9.93646 4.50037H14.0621C15.4089 4.50035 16.5103 4.50033 17.4054 4.57347C18.332 4.64917 19.1688 4.81064 19.9502 5.20882C20.6662 5.57365 21.3039 6.06569 21.8345 6.65635C21.658 5.21861 21.2923 4.22232 20.5348 3.46483Z" fill="#1C274C"/>
</svg>
