<svg width="24" height="24" viewBox="0 0 24 24" fill="none" xmlns="http://www.w3.org/2000/svg">
<path fill-rule="evenodd" clip-rule="evenodd" d="M7.2915 4.78602V4.72502C7.2915 4.3865 7.30305 3.9431 7.4565 3.50384C7.9652 2.04763 9.35853 1.00049 11 1.00049H13C14.6415 1.00049 16.0349 2.04763 16.5436 3.50385C16.697 3.9431 16.7085 4.3865 16.7085 4.72502V4.78604C19.212 5.52352 20.9631 7.79758 20.9994 10.4168C21 10.4578 21 10.5041 21 10.5965V12.9196C20.8982 12.9196 20.7947 12.9402 20.6956 12.984C15.1597 15.4278 8.84065 15.4278 3.30479 12.984C3.2056 12.9402 3.10197 12.9195 3 12.9196V10.5965C3 10.5041 3 10.4578 3.00057 10.4168C3.03694 7.79756 4.78799 5.52349 7.2915 4.78602ZM8.87362 3.99224C9.17937 3.11698 10.017 2.49038 11 2.49038H13C13.9831 2.49038 14.8207 3.11698 15.1264 3.99224C15.1719 4.12237 15.194 4.27254 15.2032 4.46232C13.0832 4.10217 10.9169 4.10217 8.79689 4.46231C8.80602 4.27254 8.82816 4.12237 8.87362 3.99224ZM9.25 12.6713C9.25 12.2598 9.58579 11.9263 10 11.9263H14C14.4142 11.9263 14.75 12.2598 14.75 12.6713C14.75 13.0827 14.4142 13.4162 14 13.4162H10C9.58579 13.4162 9.25 13.0827 9.25 12.6713Z" fill="#1C274C"/>
<path d="M21 14.4774C20.1 14.8593 19.1814 15.1814 18.2502 15.4437V16.6445C18.2502 17.0559 17.9144 17.3894 17.5002 17.3894C17.086 17.3894 16.7502 17.0559 16.7502 16.6445V15.8124C12.1726 16.7759 7.36827 16.3309 3 14.4772V16.0236C3 18.1272 4.47101 19.9487 6.53853 20.405C10.1356 21.199 13.8644 21.199 17.4615 20.405C19.529 19.9487 21 18.1272 21 16.0236V14.4774Z" fill="#1C274C"/>
</svg>
