<svg width="24" height="24" viewBox="0 0 24 24" fill="none" xmlns="http://www.w3.org/2000/svg">
<path fill-rule="evenodd" clip-rule="evenodd" d="M8.25014 6.01538C8.25005 6.01043 8.25 6.00546 8.25 6.00049V5.00049C8.25 2.92942 9.92893 1.25049 12 1.25049C14.0711 1.25049 15.75 2.92942 15.75 5.00049V6.00049C15.75 6.00547 15.75 6.01043 15.7499 6.01538C17.0371 6.05402 17.8248 6.19289 18.4261 6.69196C19.2593 7.38343 19.4787 8.55387 19.9177 10.8948L20.6677 14.8948C21.2849 18.1865 21.5934 19.8323 20.6937 20.9164C19.794 22.0005 18.1195 22.0005 14.7704 22.0005H9.22954C5.88048 22.0005 4.20595 22.0005 3.30624 20.9164C2.40652 19.8323 2.71512 18.1865 3.33231 14.8948L4.08231 10.8948C4.52122 8.55388 4.74068 7.38343 5.57386 6.69196C6.17521 6.19288 6.96288 6.05402 8.25014 6.01538ZM9.75 5.00049C9.75 3.75785 10.7574 2.75049 12 2.75049C13.2426 2.75049 14.25 3.75785 14.25 5.00049V6.00049C14.25 6.00048 14.25 6.0005 14.25 6.00049C14.1747 6.00046 14.0982 6.00049 14.0204 6.00049H9.97954C9.90177 6.00049 9.82526 6.00049 9.75 6.00051C9.75 6.0005 9.75 6.00052 9.75 6.00051V5.00049ZM8.46965 10.4702C8.76255 10.1773 9.23742 10.1773 9.53031 10.4702L12 12.9398L14.4697 10.4702C14.7625 10.1773 15.2374 10.1773 15.5303 10.4702C15.8232 10.7631 15.8232 11.2379 15.5303 11.5308L13.0607 14.0005L15.5303 16.4701C15.8232 16.763 15.8232 17.2379 15.5303 17.5308C15.2374 17.8237 14.7625 17.8237 14.4696 17.5308L12 15.0612L9.53034 17.5308C9.23745 17.8237 8.76257 17.8237 8.46968 17.5308C8.17679 17.2379 8.17679 16.7631 8.46968 16.4702L10.9393 14.0005L8.46965 11.5308C8.17676 11.2379 8.17676 10.7631 8.46965 10.4702Z" fill="#1C274C"/>
</svg>
