<svg width="24" height="24" viewBox="0 0 24 24" fill="none" xmlns="http://www.w3.org/2000/svg">
<path fill-rule="evenodd" clip-rule="evenodd" d="M5.57386 4.69196C4.74068 5.38343 4.52122 6.55388 4.08231 8.89476L3.33231 12.8948C2.71512 16.1865 2.40652 17.8323 3.30624 18.9164C4.20595 20.0005 5.88048 20.0005 9.22954 20.0005H14.7704C18.1195 20.0005 19.794 20.0005 20.6937 18.9164C21.5934 17.8323 21.2849 16.1865 20.6677 12.8948L19.9177 8.89476C19.4787 6.55387 19.2593 5.38343 18.4261 4.69196C17.5929 4.00049 16.4021 4.00049 14.0204 4.00049H9.97954C7.59787 4.00049 6.40703 4.00049 5.57386 4.69196ZM9.87822 7.75055C10.1875 8.62546 11.0219 9.25049 12.0004 9.25049C12.9789 9.25049 13.8133 8.62546 14.1225 7.75055C14.2606 7.36002 14.6891 7.15532 15.0796 7.29336C15.4701 7.43139 15.6748 7.85989 15.5368 8.25042C15.0224 9.7059 13.6343 10.7505 12.0004 10.7505C10.3664 10.7505 8.97839 9.7059 8.46396 8.25042C8.32592 7.85989 8.53061 7.43139 8.92115 7.29336C9.31169 7.15532 9.74018 7.36002 9.87822 7.75055Z" fill="#1C274C"/>
</svg>
