<svg width="24" height="24" viewBox="0 0 24 24" fill="none" xmlns="http://www.w3.org/2000/svg">
<path d="M14.8684 10.412C14.9382 10.3815 14.9705 10.3718 14.9785 10.3694C15.0884 10.3599 15.1917 10.4237 15.2324 10.5263C15.2339 10.5345 15.2395 10.5677 15.2435 10.6438C15.2497 10.7615 15.25 10.9203 15.25 11.1713C15.25 11.2784 15.2499 11.3395 15.2482 11.3857C15.2472 11.4147 15.2458 11.4269 15.2454 11.43C15.2338 11.4899 15.2007 11.5435 15.1523 11.5807C15.1497 11.5824 15.1394 11.5891 15.114 11.603C15.0733 11.6251 15.0188 11.6525 14.9229 11.7005L13.6062 12.3588C13.3817 12.4711 13.2396 12.5419 13.1316 12.5889C13.0617 12.6194 13.0295 12.6291 13.0214 12.6315C12.9115 12.641 12.8083 12.5772 12.7676 12.4746C12.7661 12.4664 12.7604 12.4332 12.7564 12.3571C12.7502 12.2394 12.75 12.0806 12.75 11.8296C12.75 11.7225 12.7501 11.6614 12.7517 11.6152C12.7528 11.5862 12.7541 11.574 12.7546 11.5709C12.7662 11.511 12.7993 11.4574 12.8477 11.4202C12.8502 11.4185 12.8606 11.4118 12.886 11.3979C12.9266 11.3758 12.9812 11.3484 13.077 11.3005L14.3938 10.6421C14.6183 10.5298 14.7604 10.459 14.8684 10.412Z" fill="#1C274C"/>
<path d="M9.99998 15.7505C10.6903 15.7505 11.25 16.3101 11.25 17.0005C11.25 17.6908 10.6903 18.2505 9.99998 18.2505C9.30963 18.2505 8.74998 17.6908 8.74998 17.0005C8.74998 16.3101 9.30963 15.7505 9.99998 15.7505Z" fill="#1C274C"/>
<path fill-rule="evenodd" clip-rule="evenodd" d="M8.25014 6.01538C8.25005 6.01043 8.25 6.00546 8.25 6.00049V5.00049C8.25 2.92942 9.92893 1.25049 12 1.25049C14.0711 1.25049 15.75 2.92942 15.75 5.00049V6.00049C15.75 6.00547 15.75 6.01043 15.7499 6.01538C17.0371 6.05402 17.8248 6.19289 18.4261 6.69196C19.2593 7.38343 19.4787 8.55387 19.9177 10.8948L20.6677 14.8948C21.2849 18.1865 21.5934 19.8323 20.6937 20.9164C19.794 22.0005 18.1195 22.0005 14.7704 22.0005H9.22954C5.88048 22.0005 4.20595 22.0005 3.30624 20.9164C2.40652 19.8323 2.71512 18.1865 3.33231 14.8948L4.08231 10.8948C4.52122 8.55388 4.74068 7.38343 5.57386 6.69196C6.17521 6.19288 6.96288 6.05402 8.25014 6.01538ZM9.75 5.00049C9.75 3.75785 10.7574 2.75049 12 2.75049C13.2426 2.75049 14.25 3.75785 14.25 5.00049V6.00049C14.25 6.00048 14.25 6.0005 14.25 6.00049C14.1747 6.00046 14.0982 6.00049 14.0204 6.00049H9.97954C9.90177 6.00049 9.82526 6.00049 9.75 6.00051C9.75 6.0005 9.75 6.00052 9.75 6.00051V5.00049ZM9.99998 19.7505C11.5188 19.7505 12.75 18.5192 12.75 17.0005V14.1147C12.8974 14.1359 13.0493 14.1385 13.2027 14.1206C13.4012 14.0975 13.5801 14.0297 13.731 13.964C13.8796 13.8992 14.0575 13.8102 14.2603 13.7088L15.6303 13.0239C15.7752 12.9517 15.9289 12.8751 16.0629 12.7726C16.4045 12.5115 16.6379 12.1337 16.7188 11.7114C16.7505 11.5457 16.7503 11.374 16.75 11.2121L16.75 11.1526C16.75 10.9258 16.75 10.7269 16.7415 10.565C16.7328 10.4006 16.7134 10.2103 16.6454 10.0225C16.3689 9.25914 15.6036 8.78621 14.7972 8.88028C14.5988 8.90342 14.4199 8.97116 14.269 9.03693C14.1204 9.10173 13.9425 9.19067 13.7397 9.29209L12.3697 9.97703C12.2248 10.0492 12.0711 10.1258 11.9371 10.2283C11.5955 10.4894 11.362 10.8672 11.2812 11.2895C11.2495 11.4552 11.2498 11.6677 11.25 11.8296V14.5503C10.875 14.3586 10.4501 14.2505 9.99998 14.2505C8.4812 14.2505 7.24998 15.4817 7.24998 17.0005C7.24998 18.5192 8.4812 19.7505 9.99998 19.7505Z" fill="#1C274C"/>
</svg>
