<svg width="24" height="24" viewBox="0 0 24 24" fill="none" xmlns="http://www.w3.org/2000/svg">
<path fill-rule="evenodd" clip-rule="evenodd" d="M8.75467 2.30851C6.65212 2.66895 5.20239 4.61592 5.45974 6.73356L5.47666 6.87278C5.53766 7.37471 5.96373 7.75213 6.46936 7.75213H8.2331L5.2668 21.5948C5.18001 21.9999 5.43799 22.3985 5.84301 22.4853C6.24803 22.5721 6.64672 22.3142 6.73351 21.9091L7.6779 17.502H16.3224L17.2668 21.9091C17.3536 22.3142 17.7523 22.5721 18.1573 22.4853C18.5623 22.3985 18.8203 21.9999 18.7335 21.5948L15.7672 7.75213H17.531C18.0367 7.75213 18.4627 7.37471 18.5237 6.87277L18.5406 6.73356C18.798 4.61592 17.3483 2.66895 15.2457 2.30851L14.8726 2.24454C12.9715 1.91865 11.0289 1.91865 9.12781 2.24454L8.75467 2.30851ZM14.25 7.75213H9.75031C9.75025 7.80391 9.74479 7.85647 9.73351 7.90913L7.99932 16.002H16.001L14.2668 7.90913C14.2555 7.85647 14.2501 7.80391 14.25 7.75213Z" fill="#1C274C"/>
</svg>
