<svg width="24" height="24" viewBox="0 0 24 24" fill="none" xmlns="http://www.w3.org/2000/svg">
<path fill-rule="evenodd" clip-rule="evenodd" d="M2 9.75012C2 9.30819 2 8.89215 2.00189 8.50012H11.25V19.7501L10 19.7501C8.19364 19.7501 6.81989 19.7501 5.75 19.6214V21.7501C5.75 22.1643 5.41421 22.5001 5 22.5001C4.58579 22.5001 4.25 22.1643 4.25 21.7501V19.2751C3.82861 19.1083 3.47599 18.883 3.17157 18.5786C2 17.407 2 15.5214 2 11.7501V9.75012ZM9 11.0001C9.41421 11.0001 9.75 11.3359 9.75 11.7501V14.7501C9.75 15.1643 9.41421 15.5001 9 15.5001C8.58579 15.5001 8.25 15.1643 8.25 14.7501V11.7501C8.25 11.3359 8.58579 11.0001 9 11.0001Z" fill="#1C274C"/>
<path d="M21.9743 7.00012H2.02572C2.09185 4.97894 2.32803 3.76524 3.17157 2.92169C4.34315 1.75012 6.22876 1.75012 10 1.75012H14C17.7712 1.75012 19.6569 1.75012 20.8284 2.92169C21.672 3.76524 21.9082 4.97894 21.9743 7.00012Z" fill="#1C274C"/>
<path fill-rule="evenodd" clip-rule="evenodd" d="M12.75 8.50012H21.9981C22 8.89215 22 9.30819 22 9.75012V11.7501C22 15.5214 22 17.407 20.8284 18.5786C20.524 18.883 20.1714 19.1083 19.75 19.2751V21.7501C19.75 22.1643 19.4142 22.5001 19 22.5001C18.5858 22.5001 18.25 22.1643 18.25 21.7501V19.6214C17.1801 19.7501 15.8064 19.7501 14 19.7501L12.75 19.7501V8.50012ZM15 11.0001C15.4142 11.0001 15.75 11.3359 15.75 11.7501V14.7501C15.75 15.1643 15.4142 15.5001 15 15.5001C14.5858 15.5001 14.25 15.1643 14.25 14.7501V11.7501C14.25 11.3359 14.5858 11.0001 15 11.0001Z" fill="#1C274C"/>
</svg>
