<svg width="24" height="24" viewBox="0 0 24 24" fill="none" xmlns="http://www.w3.org/2000/svg">
<path d="M8.35179 20.2422C9.19288 21.3114 10.5142 22.0004 12 22.0004C13.4858 22.0004 14.8071 21.3114 15.6482 20.2422C13.2264 20.5704 10.7736 20.5704 8.35179 20.2422Z" fill="#1C274C"/>
<path fill-rule="evenodd" clip-rule="evenodd" d="M18.7491 9.70447V9.00036C18.7491 5.13437 15.7274 2.00037 12 2.00037C8.27256 2.00037 5.25087 5.13437 5.25087 9.00036V9.70447C5.25087 10.5495 5.00972 11.3755 4.5578 12.0786L3.45036 13.8015C2.43882 15.3752 3.21105 17.5143 4.97036 18.0119C9.57274 19.3138 14.4273 19.3138 19.0296 18.0119C20.789 17.5143 21.5612 15.3752 20.5496 13.8015L19.4422 12.0786C18.9903 11.3755 18.7491 10.5495 18.7491 9.70447ZM12 5.25037C12.4142 5.25037 12.75 5.58615 12.75 6.00037V10.0004C12.75 10.4146 12.4142 10.7504 12 10.7504C11.5858 10.7504 11.25 10.4146 11.25 10.0004V6.00037C11.25 5.58615 11.5858 5.25037 12 5.25037Z" fill="#1C274C"/>
</svg>
