<svg width="24" height="24" viewBox="0 0 24 24" fill="none" xmlns="http://www.w3.org/2000/svg">
<path d="M8.35179 20.2422C9.19288 21.3114 10.5142 22.0004 12 22.0004C13.4858 22.0004 14.8071 21.3114 15.6482 20.2422C13.2264 20.5704 10.7736 20.5704 8.35179 20.2422Z" fill="#1C274C"/>
<path fill-rule="evenodd" clip-rule="evenodd" d="M18.7491 9.00036V9.70447C18.7491 10.5495 18.9903 11.3755 19.4422 12.0786L20.5496 13.8015C21.5612 15.3752 20.789 17.5143 19.0296 18.0119C14.4273 19.3138 9.57274 19.3138 4.97036 18.0119C3.21105 17.5143 2.43882 15.3752 3.45036 13.8015L4.5578 12.0786C5.00972 11.3755 5.25087 10.5495 5.25087 9.70447V9.00036C5.25087 5.13437 8.27256 2.00037 12 2.00037C15.7274 2.00037 18.7491 5.13437 18.7491 9.00036ZM10.0717 9.75036C9.67233 9.75036 9.34857 9.41458 9.34857 9.00036C9.34857 8.58615 9.67233 8.25036 10.0717 8.25036H13.9283C14.2208 8.25036 14.4845 8.4331 14.5964 8.71335C14.7083 8.99361 14.6465 9.3162 14.4397 9.53069L11.8175 12.2504H13.9283C14.3277 12.2504 14.6515 12.5861 14.6515 13.0004C14.6515 13.4146 14.3277 13.7504 13.9283 13.7504H10.0717C9.77922 13.7504 9.51554 13.5676 9.40362 13.2874C9.29169 13.0071 9.35356 12.6845 9.56037 12.47L12.1826 9.75036H10.0717Z" fill="#1C274C"/>
</svg>
