<svg width="24" height="24" viewBox="0 0 24 24" fill="none" xmlns="http://www.w3.org/2000/svg">
<path fill-rule="evenodd" clip-rule="evenodd" d="M9.97923 4.87955C10.9654 4.29335 11.4585 4.00024 12 4.00024C12.5414 4.00024 13.0345 4.29335 14.0207 4.87955L16.9792 6.63816C17.6847 7.05752 18.1379 7.32688 18.4378 7.62298L21.564 5.38994C21.9011 5.14919 22.3695 5.22726 22.6103 5.56432C22.851 5.90137 22.7729 6.36979 22.4359 6.61054L18.9822 9.07747C19 9.39128 19 9.76878 19 10.2416V13.7589C19 14.9313 19 15.5175 18.7292 16.0002C18.4585 16.483 17.9654 16.7761 16.9792 17.3623L14.0207 19.1209C13.0345 19.7071 12.5414 20.0002 12 20.0002C11.4585 20.0002 10.9654 19.7071 9.97923 19.1209L7.02068 17.3623C6.38484 16.9844 5.95397 16.7283 5.65553 16.4646L2.41598 18.6243C2.07134 18.854 1.60568 18.7609 1.37592 18.4163C1.14616 18.0716 1.23929 17.606 1.58393 17.3762L5.02858 15.0798C4.99996 14.7365 4.99996 14.3132 4.99996 13.7589V10.2416C4.99996 9.68728 4.99996 9.26398 5.02858 8.92071L1.58393 6.62428C1.23929 6.39452 1.14616 5.92887 1.37592 5.58422C1.60568 5.23957 2.07134 5.14644 2.41598 5.37621L5.65553 7.5359C5.95397 7.27224 6.38484 7.01612 7.02068 6.63816L9.97923 4.87955ZM16.6442 14.1163C16.8563 14.4721 16.7397 14.9324 16.3839 15.1445L12.3839 17.5286C12.0281 17.7406 11.5678 17.6241 11.3557 17.2683C11.1436 16.9125 11.2602 16.4521 11.616 16.2401L15.616 13.856C15.9718 13.6439 16.4321 13.7605 16.6442 14.1163Z" fill="#1C274C"/>
</svg>
