<svg width="24" height="24" viewBox="0 0 24 24" fill="none" xmlns="http://www.w3.org/2000/svg">
<path fill-rule="evenodd" clip-rule="evenodd" d="M7.24502 2.00049H16.755C17.9139 2.00049 18.4933 2.00049 18.9606 2.1631C19.8468 2.47144 20.5425 3.18768 20.842 4.09995C21 4.58104 21 5.17754 21 6.37055V20.3747C21 21.2329 20.015 21.6883 19.3919 21.1181C19.0258 20.7831 18.4742 20.7831 18.1081 21.1181L17.625 21.5602C16.9834 22.1473 16.0166 22.1473 15.375 21.5602C14.7334 20.9731 13.7666 20.9731 13.125 21.5602C12.4834 22.1473 11.5166 22.1473 10.875 21.5602C10.2334 20.9731 9.26659 20.9731 8.625 21.5602C7.98341 22.1473 7.01659 22.1473 6.375 21.5602L5.8919 21.1181C5.52583 20.7831 4.97417 20.7831 4.6081 21.1181C3.985 21.6883 3 21.2329 3 20.3747V6.37055C3 5.17754 3 4.58104 3.15795 4.09995C3.45748 3.18768 4.15322 2.47144 5.03939 2.1631C5.50671 2.00049 6.08614 2.00049 7.24502 2.00049ZM7 6.75049C6.58579 6.75049 6.25 7.08627 6.25 7.50049C6.25 7.9147 6.58579 8.25049 7 8.25049H7.5C7.91421 8.25049 8.25 7.9147 8.25 7.50049C8.25 7.08627 7.91421 6.75049 7.5 6.75049H7ZM10.5 6.75049C10.0858 6.75049 9.75 7.08627 9.75 7.50049C9.75 7.9147 10.0858 8.25049 10.5 8.25049H17C17.4142 8.25049 17.75 7.9147 17.75 7.50049C17.75 7.08627 17.4142 6.75049 17 6.75049H10.5ZM7 10.2505C6.58579 10.2505 6.25 10.5863 6.25 11.0005C6.25 11.4147 6.58579 11.7505 7 11.7505H7.5C7.91421 11.7505 8.25 11.4147 8.25 11.0005C8.25 10.5863 7.91421 10.2505 7.5 10.2505H7ZM10.5 10.2505C10.0858 10.2505 9.75 10.5863 9.75 11.0005C9.75 11.4147 10.0858 11.7505 10.5 11.7505H17C17.4142 11.7505 17.75 11.4147 17.75 11.0005C17.75 10.5863 17.4142 10.2505 17 10.2505H10.5ZM7 13.7505C6.58579 13.7505 6.25 14.0863 6.25 14.5005C6.25 14.9147 6.58579 15.2505 7 15.2505H7.5C7.91421 15.2505 8.25 14.9147 8.25 14.5005C8.25 14.0863 7.91421 13.7505 7.5 13.7505H7ZM10.5 13.7505C10.0858 13.7505 9.75 14.0863 9.75 14.5005C9.75 14.9147 10.0858 15.2505 10.5 15.2505H17C17.4142 15.2505 17.75 14.9147 17.75 14.5005C17.75 14.0863 17.4142 13.7505 17 13.7505H10.5Z" fill="#1C274C"/>
</svg>
