<svg width="24" height="24" viewBox="0 0 24 24" fill="none" xmlns="http://www.w3.org/2000/svg">
<path d="M17.9811 2.35365C18.1668 1.88277 18.8332 1.88277 19.0189 2.35365L19.6733 4.0129C19.73 4.15667 19.8438 4.27047 19.9876 4.32717L21.6468 4.98157C22.1177 5.16728 22.1177 5.8337 21.6468 6.01941L19.9876 6.67381C19.8438 6.73051 19.73 6.84431 19.6733 6.98807L19.0189 8.64733C18.8332 9.11821 18.1668 9.11821 17.9811 8.64733L17.3267 6.98807C17.27 6.84431 17.1562 6.73051 17.0124 6.67381L15.3532 6.01941C14.8823 5.8337 14.8823 5.16728 15.3532 4.98157L17.0124 4.32717C17.1562 4.27047 17.27 4.15667 17.3267 4.0129L17.9811 2.35365Z" fill="#1C274C"/>
<path fill-rule="evenodd" clip-rule="evenodd" d="M17 14.5005C17 18.6426 13.6421 22.0005 9.5 22.0005C5.35786 22.0005 2 18.6426 2 14.5005C2 10.3584 5.35786 7.00049 9.5 7.00049C13.6421 7.00049 17 10.3584 17 14.5005ZM12 16.7505C12.4142 16.7505 12.75 16.4147 12.75 16.0005C12.75 15.5863 12.4142 15.2505 12 15.2505H10C9.58579 15.2505 9.25 15.5863 9.25 16.0005C9.25 16.4147 9.58579 16.7505 10 16.7505H12ZM14 12.5005C14 13.3289 13.5523 14.0005 13 14.0005C12.4477 14.0005 12 13.3289 12 12.5005C12 11.6721 12.4477 11.0005 13 11.0005C13.5523 11.0005 14 11.6721 14 12.5005ZM9 14.0005C9.55228 14.0005 10 13.3289 10 12.5005C10 11.6721 9.55228 11.0005 9 11.0005C8.44772 11.0005 8 11.6721 8 12.5005C8 13.3289 8.44772 14.0005 9 14.0005Z" fill="#1C274C"/>
<path d="M16.7669 8.29435L16.0175 9.04377C15.6957 8.65989 15.3407 8.30485 14.9568 7.9831L15.7063 7.23364L16.4669 7.53361L16.7669 8.29435Z" fill="#1C274C"/>
</svg>
