<svg width="24" height="24" viewBox="0 0 24 24" fill="none" xmlns="http://www.w3.org/2000/svg">
<path fill-rule="evenodd" clip-rule="evenodd" d="M6.27103 2.112C5.46135 2.21865 5.03258 2.41373 4.72718 2.71293C4.42179 3.01213 4.22268 3.43221 4.11382 4.22548C4.00176 5.04208 4 6.12436 4 7.67616V16.2447C4.38867 15.9786 4.82674 15.7761 5.29899 15.6521C5.82716 15.5135 6.44305 15.5137 7.34563 15.514L20 15.514V7.67616C20 6.12436 19.9982 5.04208 19.8862 4.22548C19.7773 3.43221 19.5782 3.01213 19.2728 2.71293C18.9674 2.41373 18.5387 2.21865 17.729 2.112C16.8955 2.00221 15.7908 2.00049 14.2069 2.00049H9.7931C8.2092 2.00049 7.10452 2.00221 6.27103 2.112ZM6.75862 6.59508C6.75862 6.14728 7.12914 5.78427 7.58621 5.78427H16.4138C16.8709 5.78427 17.2414 6.14728 17.2414 6.59508C17.2414 7.04288 16.8709 7.40589 16.4138 7.40589H7.58621C7.12914 7.40589 6.75862 7.04288 6.75862 6.59508ZM7.58621 9.56806C7.12914 9.56806 6.75862 9.93107 6.75862 10.3789C6.75862 10.8267 7.12914 11.1897 7.58621 11.1897H13.1034C13.5605 11.1897 13.931 10.8267 13.931 10.3789C13.931 9.93107 13.5605 9.56806 13.1034 9.56806H7.58621Z" fill="#1C274C"/>
<path d="M7.47341 17.1356H8.68965H13.1034H19.9991C19.9956 18.2662 19.9776 19.1093 19.8862 19.7755C19.7773 20.5688 19.5782 20.9888 19.2728 21.288C18.9674 21.5872 18.5387 21.7823 17.729 21.889C16.8955 21.9988 15.7908 22.0005 14.2069 22.0005H9.7931C8.2092 22.0005 7.10452 21.9988 6.27103 21.889C5.46135 21.7823 5.03258 21.5872 4.72718 21.288C4.42179 20.9888 4.22268 20.5688 4.11382 19.7755C4.07259 19.4751 4.0463 19.1387 4.02952 18.7563C4.30088 18.0049 4.93365 17.4269 5.72738 17.2185C6.01657 17.1426 6.39395 17.1356 7.47341 17.1356Z" fill="#1C274C"/>
</svg>
