<svg width="24" height="24" viewBox="0 0 24 24" fill="none" xmlns="http://www.w3.org/2000/svg">
<path fill-rule="evenodd" clip-rule="evenodd" d="M21 11.098V16.0914C21 19.188 21 20.7363 20.2659 21.4128C19.9158 21.7354 19.4739 21.9382 19.0031 21.992C18.016 22.105 16.8633 21.0854 14.5578 19.0463C13.5388 18.145 13.0292 17.6943 12.4397 17.5756C12.1494 17.5171 11.8506 17.5171 11.5603 17.5756C10.9708 17.6943 10.4612 18.145 9.44216 19.0463C7.13673 21.0854 5.98402 22.105 4.99692 21.992C4.52615 21.9382 4.08421 21.7354 3.73411 21.4128C3 20.7363 3 19.188 3 16.0914V11.098C3 6.80939 3 4.66509 4.31802 3.33279C5.63604 2.00049 7.75736 2.00049 12 2.00049C16.2426 2.00049 18.364 2.00049 19.682 3.33279C21 4.66509 21 6.8094 21 11.098ZM8.25 6.00049C8.25 5.58627 8.58579 5.25049 9 5.25049H15C15.4142 5.25049 15.75 5.58627 15.75 6.00049C15.75 6.4147 15.4142 6.75049 15 6.75049H9C8.58579 6.75049 8.25 6.4147 8.25 6.00049Z" fill="#1C274C"/>
</svg>
