<svg width="24" height="24" viewBox="0 0 24 24" fill="none" xmlns="http://www.w3.org/2000/svg">
<path d="M5.65517 2.22781C5.2225 2.34086 4.9438 2.5007 4.72718 2.71293C4.42179 3.01213 4.22268 3.43221 4.11382 4.22548C4.00176 5.04208 4 6.12436 4 7.67616V16.2447C4.38867 15.9786 4.82674 15.7761 5.29899 15.6521C5.41296 15.6222 5.53103 15.5988 5.65517 15.5804V2.22781Z" fill="#1C274C"/>
<path d="M7.31034 15.514C7.32206 15.514 7.33382 15.514 7.34563 15.514L20 15.514V7.67616C20 6.12436 19.9982 5.04208 19.8862 4.22548C19.7773 3.43221 19.5782 3.01213 19.2728 2.71293C18.9674 2.41373 18.5387 2.21865 17.729 2.112C16.8955 2.00221 15.7908 2.00049 14.2069 2.00049H9.7931C8.79138 2.00049 7.98133 2.00118 7.31034 2.02946V15.514Z" fill="#1C274C"/>
<path d="M7.47341 17.1356C6.39395 17.1356 6.01657 17.1426 5.72738 17.2185C4.93365 17.4269 4.30088 18.0049 4.02952 18.7563C4.0463 19.1387 4.07259 19.4751 4.11382 19.7755C4.22268 20.5688 4.42179 20.9888 4.72718 21.288C5.03258 21.5872 5.46135 21.7823 6.27103 21.889C7.10452 21.9988 8.2092 22.0005 9.7931 22.0005H14.2069C15.7908 22.0005 16.8955 21.9988 17.729 21.889C18.5387 21.7823 18.9674 21.5872 19.2728 21.288C19.5782 20.9888 19.7773 20.5688 19.8862 19.7755C19.9776 19.1093 19.9956 18.2662 19.9991 17.1356H7.47341Z" fill="#1C274C"/>
</svg>
