<svg width="24" height="24" viewBox="0 0 24 24" fill="none" xmlns="http://www.w3.org/2000/svg">
<path d="M5.65517 2.22781C5.2225 2.34086 4.9438 2.5007 4.72718 2.71293C4.42179 3.01213 4.22268 3.43221 4.11382 4.22548C4.00176 5.04208 4 6.12436 4 7.67616V16.2447C4.38867 15.9786 4.82674 15.7761 5.29899 15.6521C5.41296 15.6222 5.53103 15.5988 5.65517 15.5804V2.22781Z" fill="#1C274C"/>
<path d="M7.31034 15.514C7.32206 15.514 7.33382 15.514 7.34563 15.514L20 15.514V7.67616C20 6.12436 19.9982 5.04208 19.8862 4.22548C19.7773 3.43221 19.5782 3.01213 19.2728 2.71293C18.9674 2.41373 18.5387 2.21865 17.729 2.112C16.8955 2.00221 15.7908 2.00049 14.2069 2.00049H9.7931C8.79138 2.00049 7.98133 2.00118 7.31034 2.02946V15.514Z" fill="#1C274C"/>
<path d="M8.68976 17.1356H7.47352C6.39406 17.1356 6.01668 17.1426 5.72748 17.2185C4.93375 17.4269 4.30099 18.0049 4.02963 18.7563C4.04641 19.1387 4.0727 19.4751 4.11393 19.7755C4.22279 20.5688 4.4219 20.9888 4.72729 21.288C5.03269 21.5872 5.46145 21.7823 6.27114 21.889C7.10463 21.9988 8.2093 22.0005 9.79321 22.0005H14.207C15.7909 22.0005 16.8956 21.9988 17.7291 21.889C18.5388 21.7823 18.9675 21.5872 19.2729 21.288C19.5783 20.9888 19.7774 20.5688 19.8863 19.7755C19.9777 19.1093 19.9957 18.2662 19.9993 17.1356H13.1036V20.1422C13.1036 20.4402 13.1036 20.5891 12.9989 20.6493C12.8942 20.7095 12.7511 20.6429 12.4648 20.5097L11.0941 19.8718C10.9972 19.8267 10.9488 19.8041 10.8967 19.8041C10.8446 19.8041 10.7961 19.8267 10.6993 19.8718L9.32853 20.5097C9.04224 20.6429 8.8991 20.7095 8.79443 20.6493C8.68976 20.5891 8.68976 20.4402 8.68976 20.1422V17.1356Z" fill="#1C274C"/>
</svg>
