<svg width="24" height="24" viewBox="0 0 24 24" fill="none" xmlns="http://www.w3.org/2000/svg">
<path fill-rule="evenodd" clip-rule="evenodd" d="M3.46447 3.46471C2 4.92918 2 7.2862 2 12.0002C2 16.7143 2 19.0713 3.46447 20.5358C4.92893 22.0002 7.28595 22.0002 12 22.0002C16.714 22.0002 19.0711 22.0002 20.5355 20.5358C22 19.0713 22 16.7143 22 12.0002C22 7.2862 22 4.92918 20.5355 3.46471C19.0711 2.00024 16.714 2.00024 12 2.00024C7.28595 2.00024 4.92893 2.00024 3.46447 3.46471ZM8.03033 5.96991C8.32322 6.26281 8.32322 6.73768 8.03033 7.03057L7.81066 7.25024H8C9.67947 7.25024 11.1554 8.12186 12 9.43742C12.8446 8.12186 14.3205 7.25024 16 7.25024H16.1893L15.9697 7.03057C15.6768 6.73768 15.6768 6.26281 15.9697 5.96991C16.2626 5.67702 16.7374 5.67702 17.0303 5.96991L18.5303 7.46991C18.8232 7.76281 18.8232 8.23768 18.5303 8.53057L17.0303 10.0306C16.7374 10.3235 16.2626 10.3235 15.9697 10.0306C15.6768 9.73768 15.6768 9.26281 15.9697 8.96991L16.1893 8.75024H16C14.2051 8.75024 12.75 10.2053 12.75 12.0002V18.0002C12.75 18.4145 12.4142 18.7502 12 18.7502C11.5858 18.7502 11.25 18.4145 11.25 18.0002V12.0002C11.25 10.2053 9.79493 8.75024 8 8.75024H7.81066L8.03033 8.96991C8.32322 9.26281 8.32322 9.73768 8.03033 10.0306C7.73744 10.3235 7.26256 10.3235 6.96967 10.0306L5.46967 8.53057C5.17678 8.23768 5.17678 7.76281 5.46967 7.46991L6.96967 5.96991C7.26256 5.67702 7.73744 5.67702 8.03033 5.96991Z" fill="#1C274C"/>
</svg>
