<svg width="24" height="24" viewBox="0 0 24 24" fill="none" xmlns="http://www.w3.org/2000/svg">
<path d="M7.75 2.50049C7.75 2.08627 7.41421 1.75049 7 1.75049C6.58579 1.75049 6.25 2.08627 6.25 2.50049V4.07975C4.81067 4.195 3.86577 4.47786 3.17157 5.17206C2.47737 5.86626 2.19451 6.81116 2.07926 8.25049H21.9207C21.8055 6.81116 21.5226 5.86626 20.8284 5.17206C20.1342 4.47786 19.1893 4.195 17.75 4.07975V2.50049C17.75 2.08627 17.4142 1.75049 17 1.75049C16.5858 1.75049 16.25 2.08627 16.25 2.50049V4.01339C15.5847 4.00049 14.839 4.00049 14 4.00049H10C9.16097 4.00049 8.41527 4.00049 7.75 4.01339V2.50049Z" fill="#1C274C"/>
<path fill-rule="evenodd" clip-rule="evenodd" d="M22 12.0005C22 11.1615 22 10.4158 21.9871 9.75049H2.0129C2 10.4158 2 11.1615 2 12.0005V14.0005C2 17.7717 2 19.6573 3.17157 20.8289C4.34315 22.0005 6.22876 22.0005 10 22.0005H14C17.7712 22.0005 19.6569 22.0005 20.8284 20.8289C22 19.6573 22 17.7717 22 14.0005V12.0005ZM14 12.2505C13.0335 12.2505 12.25 13.034 12.25 14.0005V16.0005C12.25 16.967 13.0335 17.7505 14 17.7505C14.9665 17.7505 15.75 16.967 15.75 16.0005V14.0005C15.75 13.034 14.9665 12.2505 14 12.2505ZM14 13.7505C13.8619 13.7505 13.75 13.8624 13.75 14.0005V16.0005C13.75 16.1386 13.8619 16.2505 14 16.2505C14.1381 16.2505 14.25 16.1386 14.25 16.0005V14.0005C14.25 13.8624 14.1381 13.7505 14 13.7505ZM10.787 12.3076C11.0673 12.4237 11.25 12.6971 11.25 13.0005V17.0005C11.25 17.4147 10.9142 17.7505 10.5 17.7505C10.0858 17.7505 9.75 17.4147 9.75 17.0005V14.8111L9.53033 15.0308C9.23744 15.3237 8.76256 15.3237 8.46967 15.0308C8.17678 14.7379 8.17678 14.2631 8.46967 13.9702L9.96967 12.4702C10.1842 12.2557 10.5068 12.1915 10.787 12.3076Z" fill="#1C274C"/>
</svg>
