<svg width="24" height="24" viewBox="0 0 24 24" fill="none" xmlns="http://www.w3.org/2000/svg">
<path fill-rule="evenodd" clip-rule="evenodd" d="M10 4.00049H14C17.7712 4.00049 19.6569 4.00049 20.8284 5.17206C21.672 6.0156 21.9082 7.22931 21.9743 9.25049H2.02572C2.09185 7.22931 2.32803 6.0156 3.17157 5.17206C4.34315 4.00049 6.22876 4.00049 10 4.00049ZM14 20.0005H10C6.22876 20.0005 4.34315 20.0005 3.17157 18.8289C2 17.6573 2 15.7717 2 12.0005C2 11.5586 2 11.1425 2.00189 10.7505H21.9981C22 11.1425 22 11.5586 22 12.0005C22 15.7717 22 17.6573 20.8284 18.8289C19.6569 20.0005 17.7712 20.0005 14 20.0005ZM5.25 16.0005C5.25 15.5863 5.58579 15.2505 6 15.2505H10C10.4142 15.2505 10.75 15.5863 10.75 16.0005C10.75 16.4147 10.4142 16.7505 10 16.7505H6C5.58579 16.7505 5.25 16.4147 5.25 16.0005ZM11.75 16.0005C11.75 15.5863 12.0858 15.2505 12.5 15.2505H14C14.4142 15.2505 14.75 15.5863 14.75 16.0005C14.75 16.4147 14.4142 16.7505 14 16.7505H12.5C12.0858 16.7505 11.75 16.4147 11.75 16.0005Z" fill="#1C274C"/>
</svg>
