<svg width="24" height="24" viewBox="0 0 24 24" fill="none" xmlns="http://www.w3.org/2000/svg">
<path fill-rule="evenodd" clip-rule="evenodd" d="M2 12.0005C2 7.28644 2 4.92942 3.46447 3.46495C4.92893 2.00049 7.28595 2.00049 12 2.00049C16.714 2.00049 19.0711 2.00049 20.5355 3.46495C22 4.92942 22 7.28644 22 12.0005C22 16.7145 22 19.0716 20.5355 20.536C19.0711 22.0005 16.714 22.0005 12 22.0005C7.28595 22.0005 4.92893 22.0005 3.46447 20.536C2 19.0716 2 16.7145 2 12.0005ZM8 15.2505C7.58579 15.2505 7.25 15.5863 7.25 16.0005C7.25 16.4147 7.58579 16.7505 8 16.7505H16C16.4142 16.7505 16.75 16.4147 16.75 16.0005C16.75 15.5863 16.4142 15.2505 16 15.2505H8ZM7.58579 6.58627C8.17157 6.00049 9.11438 6.00049 11 6.00049H13C14.8856 6.00049 15.8284 6.00049 16.4142 6.58627C17 7.17206 17 8.11487 17 10.0005V10.2505H19C19.4142 10.2505 19.75 10.5863 19.75 11.0005C19.75 11.4147 19.4142 11.7505 19 11.7505H5C4.58579 11.7505 4.25 11.4147 4.25 11.0005C4.25 10.5863 4.58579 10.2505 5 10.2505H7V10.0005C7 8.11487 7 7.17206 7.58579 6.58627Z" fill="#1C274C"/>
</svg>
