<svg width="24" height="24" viewBox="0 0 24 24" fill="none" xmlns="http://www.w3.org/2000/svg">
<path fill-rule="evenodd" clip-rule="evenodd" d="M3.04047 2.2929C2.6497 2.15552 2.22155 2.36092 2.08416 2.75169C1.94678 3.14246 2.15218 3.57061 2.54295 3.70799L2.80416 3.79983C3.47177 4.03455 3.91052 4.1901 4.23336 4.3485C4.53659 4.49729 4.67026 4.61772 4.75832 4.74658C4.84858 4.87867 4.91828 5.06009 4.95761 5.42344C4.99877 5.80364 4.99979 6.29886 4.99979 7.03881L4.99979 9.64049C4.99979 12.5821 5.06302 13.5528 5.92943 14.4667C6.79583 15.3805 8.19028 15.3805 10.9792 15.3805H16.2821C17.8431 15.3805 18.6236 15.3805 19.1753 14.9309C19.727 14.4813 19.8846 13.7168 20.1997 12.188L20.6995 9.76324C21.0466 8.02418 21.2202 7.15465 20.7762 6.57757C20.3323 6.00049 18.8155 6.00049 17.1305 6.00049H6.49233C6.48564 5.73016 6.47295 5.48422 6.4489 5.26202C6.39517 4.76564 6.27875 4.31292 5.99677 3.90028C5.71259 3.48442 5.33474 3.21808 4.89411 3.00188C4.48203 2.79968 3.95839 2.6156 3.34187 2.39887L3.04047 2.2929ZM13 8.25049C13.4142 8.25049 13.75 8.58627 13.75 9.00049V10.2505H15C15.4142 10.2505 15.75 10.5863 15.75 11.0005C15.75 11.4147 15.4142 11.7505 15 11.7505H13.75V13.0005C13.75 13.4147 13.4142 13.7505 13 13.7505C12.5858 13.7505 12.25 13.4147 12.25 13.0005V11.7505H11C10.5858 11.7505 10.25 11.4147 10.25 11.0005C10.25 10.5863 10.5858 10.2505 11 10.2505H12.25V9.00049C12.25 8.58627 12.5858 8.25049 13 8.25049Z" fill="#1C274C"/>
<path d="M7.5 18.0005C8.32843 18.0005 9 18.6721 9 19.5005C9 20.3289 8.32843 21.0005 7.5 21.0005C6.67157 21.0005 6 20.3289 6 19.5005C6 18.6721 6.67157 18.0005 7.5 18.0005Z" fill="#1C274C"/>
<path d="M16.5 18.0006C17.3284 18.0006 18 18.6721 18 19.5006C18 20.329 17.3284 21.0006 16.5 21.0006C15.6716 21.0006 15 20.329 15 19.5006C15 18.6721 15.6716 18.0006 16.5 18.0006Z" fill="#1C274C"/>
</svg>
