<svg width="24" height="24" viewBox="0 0 24 24" fill="none" xmlns="http://www.w3.org/2000/svg">
<path d="M14.6646 2.32971C15.0351 2.14447 15.4856 2.29464 15.6708 2.66512L17.872 7.06744C19.2251 7.17139 20.0742 7.4368 20.6221 8.1145C21.0575 8.65307 21.1984 9.32312 21.1466 10.2505H2.85346C2.80168 9.32312 2.94261 8.65307 3.378 8.1145C3.92585 7.43681 4.77494 7.1714 6.12802 7.06745L8.32918 2.66512C8.51442 2.29464 8.96493 2.14447 9.33541 2.32971C9.70589 2.51495 9.85606 2.96546 9.67082 3.33594L7.83589 7.0058C8.31911 7.00053 8.84638 7.00053 9.42196 7.00053H14.5781C15.1537 7.00053 15.6809 7.00053 16.1641 7.0058L14.3292 3.33594C14.1439 2.96546 14.2941 2.51495 14.6646 2.32971Z" fill="#1C274C"/>
<path fill-rule="evenodd" clip-rule="evenodd" d="M3.55514 14.2577C3.34814 13.2917 3.17096 12.4649 3.04514 11.7505H20.9549C20.8291 12.4648 20.6519 13.2917 20.4449 14.2576L20.0164 16.2577C19.5294 18.5303 19.2859 19.6665 18.4608 20.3335C17.6357 21.0005 16.4737 21.0005 14.1495 21.0005H9.85053C7.52639 21.0005 6.36432 21.0005 5.53925 20.3335C4.71418 19.6665 4.47069 18.5303 3.98372 16.2577L3.55514 14.2577ZM10 13.2505C9.58579 13.2505 9.25 13.5863 9.25 14.0005C9.25 14.4147 9.58579 14.7505 10 14.7505H14C14.4142 14.7505 14.75 14.4147 14.75 14.0005C14.75 13.5863 14.4142 13.2505 14 13.2505H10Z" fill="#1C274C"/>
</svg>
