<svg width="24" height="24" viewBox="0 0 24 24" fill="none" xmlns="http://www.w3.org/2000/svg">
<path fill-rule="evenodd" clip-rule="evenodd" d="M3.04047 2.2929C2.6497 2.15552 2.22155 2.36092 2.08416 2.75169C1.94678 3.14246 2.15218 3.57061 2.54295 3.70799L2.80416 3.79983C3.47177 4.03455 3.91052 4.1901 4.23336 4.3485C4.53659 4.49729 4.67026 4.61772 4.75832 4.74658C4.84858 4.87867 4.91828 5.06009 4.95761 5.42344C4.99877 5.80364 4.99979 6.29886 4.99979 7.03881L4.99979 9.64049C4.99979 12.5821 5.06302 13.5528 5.92943 14.4667C6.79583 15.3805 8.19028 15.3805 10.9792 15.3805H16.2821C17.8431 15.3805 18.6236 15.3805 19.1753 14.9309C19.727 14.4813 19.8846 13.7168 20.1997 12.188L20.6995 9.76324C21.0466 8.02418 21.2202 7.15465 20.7762 6.57757C20.3323 6.00049 18.8155 6.00049 17.1305 6.00049H6.49233C6.48564 5.73016 6.47295 5.48422 6.4489 5.26202C6.39517 4.76564 6.27875 4.31292 5.99677 3.90028C5.71259 3.48442 5.33474 3.21808 4.89411 3.00188C4.48203 2.79968 3.95839 2.6156 3.34187 2.39887L3.04047 2.2929ZM10.9697 8.97016C11.2626 8.67727 11.7374 8.67727 12.0303 8.97016L13 9.93983L13.9697 8.97016C14.2626 8.67727 14.7374 8.67727 15.0303 8.97016C15.3232 9.26305 15.3232 9.73793 15.0303 10.0308L14.0607 11.0005L15.0303 11.9702C15.3232 12.2631 15.3232 12.7379 15.0303 13.0308C14.7374 13.3237 14.2626 13.3237 13.9697 13.0308L13 12.0611L12.0303 13.0308C11.7374 13.3237 11.2626 13.3237 10.9697 13.0308C10.6768 12.7379 10.6768 12.2631 10.9697 11.9702L11.9393 11.0005L10.9697 10.0308C10.6768 9.73793 10.6768 9.26305 10.9697 8.97016Z" fill="#1C274C"/>
<path d="M7.5 18.0005C8.32843 18.0005 9 18.6721 9 19.5005C9 20.3289 8.32843 21.0005 7.5 21.0005C6.67157 21.0005 6 20.3289 6 19.5005C6 18.6721 6.67157 18.0005 7.5 18.0005Z" fill="#1C274C"/>
<path d="M16.5 18.0006C17.3284 18.0006 18 18.6721 18 19.5006C18 20.329 17.3284 21.0006 16.5 21.0006C15.6716 21.0006 15 20.329 15 19.5006C15 18.6721 15.6716 18.0006 16.5 18.0006Z" fill="#1C274C"/>
</svg>
