<svg width="24" height="24" viewBox="0 0 24 24" fill="none" xmlns="http://www.w3.org/2000/svg">
<path fill-rule="evenodd" clip-rule="evenodd" d="M10.2755 2.25552C10.359 2.25046 10.4474 2.25047 10.5609 2.25049H13.4395C13.553 2.25047 13.6413 2.25046 13.7249 2.25552C14.7853 2.31974 15.7139 2.98904 16.1102 3.97474C16.1414 4.05243 16.1694 4.13629 16.2052 4.24396L16.2083 4.25303C16.2916 4.47741 16.4829 4.73254 16.7506 4.93638C16.7804 4.95906 16.8104 4.98049 16.8403 5.00066C18.9942 5.00317 20.1185 5.04294 20.8934 5.67347C21.0524 5.80282 21.1977 5.94811 21.327 6.10708C22 6.93419 22 8.15926 22 10.6094C22 11.2311 22 11.542 21.8492 11.7845C21.8199 11.8317 21.7866 11.8764 21.7498 11.9181C21.5609 12.1322 21.2631 12.2216 20.6676 12.4002L16 13.8005V13.0005C16 11.8959 15.1046 11.0005 14 11.0005H10C8.89543 11.0005 8 11.8959 8 13.0005V13.8005L3.3324 12.4002C2.7369 12.2216 2.43915 12.1322 2.25021 11.9181C2.21341 11.8764 2.18015 11.8317 2.15078 11.7845C2 11.542 2 11.2311 2 10.6094C2 8.15926 2 6.93419 2.67298 6.10708C2.80233 5.94811 2.94763 5.80282 3.10659 5.67347C3.88153 5.04294 5.00582 5.00317 7.15973 5.00066C7.18968 4.98048 7.21961 4.95904 7.24943 4.93634C7.51728 4.73247 7.70854 4.47733 7.79189 4.25299C7.82984 4.13912 7.85823 4.05418 7.89017 3.97474C8.28643 2.98904 9.21502 2.31974 10.2755 2.25552ZM14.8187 4.8186C14.8429 4.88016 14.8695 4.94083 14.8984 5.00049H9.10172C9.13059 4.94093 9.1572 4.88036 9.18135 4.81891L9.1829 4.81541L9.18707 4.80551L9.19194 4.79338L9.19652 4.78142L9.20016 4.77147L9.20194 4.76646L9.20618 4.75422L9.21001 4.74292L9.2121 4.73666L9.21483 4.72832L9.21707 4.72128L9.21886 4.71551C9.25769 4.59921 9.27037 4.56295 9.28191 4.53424C9.46203 4.08619 9.88412 3.78197 10.3661 3.75278C10.3984 3.75082 10.4379 3.75049 10.5813 3.75049H13.419C13.5624 3.75049 13.602 3.75082 13.6342 3.75278C14.1162 3.78197 14.5383 4.08619 14.7185 4.53424C14.7298 4.56253 14.7419 4.59746 14.7813 4.71547L14.783 4.7212L14.7853 4.72827L14.788 4.73662L14.7901 4.74288L14.7939 4.75415L14.7982 4.76637L14.7999 4.77138L14.8036 4.7813L14.8081 4.7932L14.813 4.8052L14.8171 4.81498L14.8187 4.8186ZM14 12.5005H10C9.72386 12.5005 9.5 12.7243 9.5 13.0005V15.162C9.5 15.3664 9.62448 15.5503 9.8143 15.6262L10.5144 15.9063C11.4681 16.2877 12.5319 16.2877 13.4856 15.9063L14.1857 15.6262C14.3755 15.5503 14.5 15.3664 14.5 15.162V13.0005C14.5 12.7243 14.2761 12.5005 14 12.5005ZM8.01076 15.3696L3.00586 13.8682C3.03595 16.9827 3.21789 19.851 4.31792 20.8288C5.63593 22.0003 7.75726 22.0003 11.9999 22.0003C16.2425 22.0003 18.3639 22.0003 19.6819 20.8288C20.7819 19.851 20.9638 16.9827 20.9939 13.8682L15.9892 15.3696C15.913 16.1023 15.4372 16.7412 14.7428 17.0189L14.0426 17.299C12.7314 17.8235 11.2686 17.8235 9.95735 17.299L9.25722 17.0189C8.5628 16.7412 8.08702 16.1023 8.01076 15.3696Z" fill="#1C274C"/>
</svg>
