<svg width="24" height="24" viewBox="0 0 24 24" fill="none" xmlns="http://www.w3.org/2000/svg">
<path fill-rule="evenodd" clip-rule="evenodd" d="M12.0002 2.75049C11.0217 2.75049 10.1873 3.37552 9.87803 4.25042C9.73999 4.64096 9.3115 4.84565 8.92096 4.70762C8.53043 4.56958 8.32573 4.14109 8.46377 3.75055C8.97821 2.29507 10.3662 1.25049 12.0002 1.25049C13.6341 1.25049 15.0222 2.29507 15.5366 3.75055C15.6747 4.14109 15.47 4.56958 15.0794 4.70762C14.6889 4.84565 14.2604 4.64096 14.1224 4.25042C13.8131 3.37552 12.9787 2.75049 12.0002 2.75049Z" fill="#1C274C"/>
<path d="M14 12.5005H10C9.72386 12.5005 9.5 12.7243 9.5 13.0005V15.162C9.5 15.3664 9.62448 15.5503 9.8143 15.6262L10.5144 15.9063C11.4681 16.2877 12.5319 16.2877 13.4856 15.9063L14.1857 15.6262C14.3755 15.5503 14.5 15.3664 14.5 15.162V13.0005C14.5 12.7243 14.2761 12.5005 14 12.5005Z" fill="#1C274C"/>
<path d="M8.01076 15.3696L3.00586 13.8682C3.03595 16.9827 3.21789 19.851 4.31792 20.8288C5.63593 22.0003 7.75726 22.0003 11.9999 22.0003C16.2425 22.0003 18.3639 22.0003 19.6819 20.8288C20.7819 19.851 20.9638 16.9827 20.9939 13.8682L15.9892 15.3696C15.913 16.1023 15.4372 16.7412 14.7428 17.0189L14.0426 17.299C12.7314 17.8235 11.2686 17.8235 9.95735 17.299L9.25722 17.0189C8.5628 16.7412 8.08702 16.1023 8.01076 15.3696Z" fill="#1C274C"/>
<path d="M7.60893 5.00049H16.3911C18.8412 5.00049 20.0663 5.00049 20.8934 5.67347C21.0524 5.80282 21.1977 5.94811 21.327 6.10708C22 6.93419 22 8.15926 22 10.6094C22 11.2311 22 11.542 21.8492 11.7845C21.8199 11.8317 21.7866 11.8764 21.7498 11.9181C21.5609 12.1322 21.2631 12.2216 20.6676 12.4002L16 13.8005V13.0005C16 11.8959 15.1046 11.0005 14 11.0005H10C8.89543 11.0005 8 11.8959 8 13.0005V13.8005L3.3324 12.4002C2.7369 12.2216 2.43915 12.1322 2.25021 11.9181C2.21341 11.8764 2.18015 11.8317 2.15078 11.7845C2 11.542 2 11.2311 2 10.6094C2 8.15926 2 6.93419 2.67298 6.10708C2.80233 5.94811 2.94763 5.80282 3.10659 5.67347C3.9337 5.00049 5.15877 5.00049 7.60893 5.00049Z" fill="#1C274C"/>
</svg>
