<svg width="24" height="24" viewBox="0 0 24 24" fill="none" xmlns="http://www.w3.org/2000/svg">
<path d="M11.25 6.00049H9C7.11438 6.00049 6.17157 6.00049 5.58579 6.58627C5 7.17206 5 8.11487 5 10.0005L5.00005 16.2505H18.9999L19 10.0005C19 8.11487 19 7.17206 18.4142 6.58627C17.8284 6.00049 16.8856 6.00049 15 6.00049H12.75V10.973L13.4306 10.1791C13.7001 9.86457 14.1736 9.82815 14.4881 10.0977C14.8026 10.3673 14.839 10.8408 14.5695 11.1552L12.5695 13.4886C12.427 13.6548 12.219 13.7505 12 13.7505C11.7811 13.7505 11.5731 13.6548 11.4306 13.4886L9.43057 11.1552C9.161 10.8408 9.19743 10.3673 9.51192 10.0977C9.82641 9.82815 10.2999 9.86457 10.5695 10.1791L11.25 10.973V6.00049Z" fill="#1C274C"/>
<path d="M5.0306 17.7505H18.9694C18.9181 18.5411 18.781 19.0479 18.4142 19.4147C17.8284 20.0005 16.8856 20.0005 15 20.0005H9C7.11438 20.0005 6.17157 20.0005 5.58579 19.4147C5.21898 19.0479 5.08186 18.5411 5.0306 17.7505Z" fill="#1C274C"/>
<path d="M5.88889 3.00049H18.1111C20.2589 3.00049 22 4.80046 22 7.02085C22 8.3102 21.4129 9.4578 20.5 10.1935L20.5 9.91101C20.5001 9.04539 20.5002 8.25171 20.4134 7.60609C20.3178 6.89513 20.0929 6.14367 19.4748 5.52563C18.8568 4.90758 18.1054 4.68269 17.3944 4.5871C16.7488 4.5003 15.9551 4.50039 15.0895 4.5005H8.91048C8.04485 4.50039 7.25118 4.5003 6.60556 4.5871C5.8946 4.68269 5.14315 4.90758 4.5251 5.52563C3.90706 6.14368 3.68216 6.89513 3.58657 7.60609C3.49977 8.25171 3.49987 9.04537 3.49997 9.911L3.49998 10.1935C2.58709 9.45776 2 8.31018 2 7.02085C2 4.80046 3.74112 3.00049 5.88889 3.00049Z" fill="#1C274C"/>
</svg>
