<svg width="24" height="24" viewBox="0 0 24 24" fill="none" xmlns="http://www.w3.org/2000/svg">
<path d="M7.57198 3.06174C6.9903 3.74884 6.86962 4.75454 6.62825 6.76593L6.53734 7.52354C6.28684 9.61099 6.1616 10.6547 6.7584 11.3274C7.35521 12.0001 8.40642 12.0001 10.5088 12.0001H11.25V13.7501H7C6.67904 13.7501 6.37825 13.8365 6.11965 13.9874L5.84069 13.1505C5.77196 12.9442 5.72347 12.7987 5.63468 12.6072C5.5488 12.4219 5.50507 12.3486 5.43659 12.236C5.15168 11.7675 4.78052 11.3606 4.17911 11.0953C3.61274 10.8455 2.90513 10.7501 2 10.7501C1.58579 10.7501 1.25 11.0859 1.25 11.5001C1.25 11.9143 1.58579 12.2501 2 12.2501C2.82738 12.2501 3.28947 12.3423 3.57378 12.4677C3.82305 12.5777 3.98353 12.7335 4.15499 13.0154C4.18539 13.0654 4.19799 13.0864 4.21147 13.1112C4.22448 13.1351 4.24208 13.1697 4.2738 13.2381C4.32447 13.3474 4.34889 13.4185 4.42333 13.6418L5.28849 16.2373C5.32093 16.3346 5.37138 16.4209 5.43491 16.4935C5.83324 17.5214 6.83152 18.2501 8 18.2501H11.25V19.4161C10.0934 19.7412 9.16984 20.6189 8.78849 21.763C8.6575 22.1559 8.86987 22.5806 9.26283 22.7116C9.65579 22.8426 10.0805 22.6302 10.2115 22.2373C10.3885 21.7062 10.7646 21.273 11.25 21.0207V22.0001C11.25 22.4143 11.5858 22.7501 12 22.7501C12.4142 22.7501 12.75 22.4143 12.75 22.0001V21.0207C13.2354 21.273 13.6115 21.7062 13.7885 22.2373C13.9195 22.6303 14.3442 22.8426 14.7372 22.7116C15.1301 22.5806 15.3425 22.1559 15.2115 21.763C14.8302 20.6189 13.9066 19.7412 12.75 19.4161V18.2501H16C17.1685 18.2501 18.1668 17.5214 18.5651 16.4935C18.6286 16.4208 18.6791 16.3346 18.7115 16.2373L19.5767 13.6418C19.6511 13.4185 19.6755 13.3474 19.7262 13.2381C19.7579 13.1697 19.7755 13.1351 19.7885 13.1112C19.802 13.0864 19.8146 13.0654 19.845 13.0154C20.0165 12.7335 20.177 12.5777 20.4262 12.4677C20.7105 12.3423 21.1726 12.2501 22 12.2501C22.4142 12.2501 22.75 11.9143 22.75 11.5001C22.75 11.0859 22.4142 10.7501 22 10.7501C21.0949 10.7501 20.3873 10.8455 19.8209 11.0953C19.2195 11.3606 18.8483 11.7675 18.5634 12.236C18.4949 12.3486 18.4512 12.4219 18.3653 12.6072C18.2765 12.7987 18.228 12.9443 18.1593 13.1505L17.8804 13.9874C17.6217 13.8365 17.321 13.7501 17 13.7501H12.75V12.0001H13.4914C15.5939 12.0001 16.6451 12.0001 17.2419 11.3274C17.8387 10.6547 17.7134 9.61099 17.463 7.52354L17.372 6.76593C17.1307 4.75454 17.01 3.74884 16.4283 3.06174C16.2437 2.84368 16.0289 2.6531 15.7904 2.4958C15.0389 2.00012 14.026 2.00012 12.0001 2.00012C9.97432 2.00012 8.96141 2.00012 8.2099 2.4958C7.97139 2.6531 7.75659 2.84368 7.57198 3.06174Z" fill="#1C274C"/>
</svg>
