<svg width="24" height="24" viewBox="0 0 24 24" fill="none" xmlns="http://www.w3.org/2000/svg">
<path d="M11.9853 21.4492L12.4736 20.6249C12.8523 19.9855 13.0417 19.6658 13.3458 19.489C13.65 19.3123 14.0329 19.3057 14.7988 19.2925C15.9294 19.273 16.6386 19.2038 17.2333 18.9576C18.3367 18.5009 19.2134 17.6248 19.6705 16.5221C19.8323 16.1317 19.9177 15.6919 19.9628 15.1159C19.9905 14.7622 20.0044 14.5853 19.9097 14.442C19.8151 14.2987 19.634 14.2376 19.2718 14.1153C17.8637 13.64 14.7522 12.4816 13 11.0002C11.0199 9.32618 9.24591 5.94608 8.58192 4.58638C8.44025 4.29628 8.36941 4.15123 8.24608 4.0752C8.12274 3.99917 7.96642 4.00099 7.65377 4.00465C5.84588 4.02578 5.01704 4.13168 4.15034 4.66244C3.54439 5.03351 3.03493 5.54263 2.66361 6.14816C2 7.23034 2 8.70347 2 11.6497V12.5498C2 14.6466 2 15.6951 2.34279 16.5221C2.79985 17.6248 3.67653 18.5009 4.77997 18.9576C5.37469 19.2038 6.08381 19.273 7.21446 19.2925C7.98034 19.3057 8.36327 19.3123 8.66743 19.489C8.97158 19.6658 9.16093 19.9855 9.53964 20.6249L10.0279 21.4492C10.4631 22.1839 11.5502 22.1839 11.9853 21.4492Z" fill="#1C274C"/>
<path fill-rule="evenodd" clip-rule="evenodd" d="M13.7019 1.21772C14.0068 1.50517 14.0037 1.96834 13.695 2.25224L12.693 3.17357C13.5647 3.18177 14.4032 3.20155 15.1598 3.24923C15.8105 3.29023 16.4199 3.35288 16.9508 3.45123C17.4709 3.54757 17.972 3.68789 18.37 3.91216C19.1098 4.32903 19.7328 4.90152 20.1872 5.58349C20.6245 6.23959 20.8171 6.98119 20.9095 7.87548C21 8.75041 21 9.84381 21 11.2302V11.2687C21 11.6727 20.6482 12.0002 20.2143 12.0002C19.7803 12.0002 19.4286 11.6727 19.4286 11.2687C19.4286 9.83534 19.4277 8.81231 19.3454 8.01567C19.2641 7.23031 19.1094 6.74117 18.8519 6.35484C18.529 5.8702 18.0853 5.46185 17.5564 5.16382C17.3876 5.06869 17.0939 4.96947 16.6442 4.88616C16.2053 4.80487 15.6699 4.74777 15.0537 4.70894C14.3418 4.66409 13.5479 4.64498 12.7059 4.63685L13.695 5.54632C14.0037 5.83022 14.0068 6.29339 13.7019 6.58084C13.3969 6.86829 12.8995 6.87116 12.5907 6.58726L10.2336 4.41975C10.0841 4.28231 10 4.09487 10 3.89928C10 3.70369 10.0841 3.51625 10.2336 3.37881L12.5907 1.2113C12.8995 0.927402 13.3969 0.930277 13.7019 1.21772Z" fill="#1C274C"/>
</svg>
