<svg width="24" height="24" viewBox="0 0 24 24" fill="none" xmlns="http://www.w3.org/2000/svg">
<path fill-rule="evenodd" clip-rule="evenodd" d="M22 12.0002C22 17.5231 17.5228 22.0002 12 22.0002C10.4003 22.0002 8.88837 21.6246 7.54753 20.9568C7.19121 20.7793 6.78393 20.7202 6.39939 20.8231L4.17335 21.4187C3.20701 21.6773 2.32295 20.7932 2.58151 19.8269L3.17712 17.6009C3.28001 17.2163 3.22094 16.809 3.04346 16.4527C2.37562 15.1119 2 13.5999 2 12.0002C2 6.4774 6.47715 2.00024 12 2.00024C17.5228 2.00024 22 6.4774 22 12.0002ZM7.5 11.1087C7.5 12.4771 8.81884 13.9128 10.0286 14.942C10.8524 15.6429 11.2644 15.9933 12 15.9933C12.7356 15.9933 13.1476 15.6429 13.9714 14.942C15.1812 13.9128 16.5 12.4771 16.5 11.1086C16.5 8.43149 14.0249 7.43196 12 9.50005C9.97507 7.43196 7.5 8.43148 7.5 11.1087Z" fill="#1C274C"/>
</svg>
