<svg width="24" height="24" viewBox="0 0 24 24" fill="none" xmlns="http://www.w3.org/2000/svg">
<path d="M12 22.0002C17.5228 22.0002 22 17.5231 22 12.0002C22 11.0943 21.8795 10.2164 21.6537 9.38185C21.5684 9.06658 21.1987 8.94108 20.9028 9.07934C20.3248 9.3494 19.68 9.50024 19 9.50024C16.5147 9.50024 14.5 7.48553 14.5 5.00024C14.5 4.32021 14.6508 3.6754 14.9209 3.09746C15.0592 2.80156 14.9337 2.43185 14.6184 2.34654C13.7838 2.12073 12.906 2.00024 12 2.00024C6.47715 2.00024 2 6.4774 2 12.0002C2 13.5999 2.37562 15.1119 3.04346 16.4527C3.22094 16.809 3.28001 17.2163 3.17712 17.6009L2.58151 19.8269C2.32295 20.7932 3.20701 21.6773 4.17335 21.4187L6.39939 20.8231C6.78393 20.7202 7.19121 20.7793 7.54753 20.9568C8.88837 21.6246 10.4003 22.0002 12 22.0002Z" fill="#1C274C"/>
<circle cx="19" cy="5.00024" r="3" fill="#1C274C"/>
</svg>
