<svg width="24" height="24" viewBox="0 0 24 24" fill="none" xmlns="http://www.w3.org/2000/svg">
<path fill-rule="evenodd" clip-rule="evenodd" d="M13.0867 21.3879L13.6288 20.4721C14.0492 19.7617 14.2595 19.4065 14.5972 19.2101C14.9349 19.0137 15.36 19.0063 16.2104 18.9917C17.4658 18.9701 18.2531 18.8932 18.9134 18.6196C20.1386 18.1122 21.1119 17.1388 21.6194 15.9137C22 14.9948 22 13.83 22 11.5002V10.5002C22 7.22681 22 5.5901 21.2632 4.38775C20.8509 3.71497 20.2853 3.14932 19.6125 2.73704C18.4101 2.00024 16.7734 2.00024 13.5 2.00024H10.5C7.22657 2.00024 5.58985 2.00024 4.38751 2.73704C3.71473 3.14932 3.14908 3.71497 2.7368 4.38775C2 5.5901 2 7.22681 2 10.5002V11.5002C2 13.83 2 14.9948 2.3806 15.9137C2.88807 17.1388 3.86144 18.1122 5.08658 18.6196C5.74689 18.8931 6.53422 18.9701 7.78958 18.9917C8.63992 19.0063 9.06509 19.0137 9.40279 19.2101C9.74049 19.4065 9.95073 19.7617 10.3712 20.4721L10.9133 21.3879C11.3965 22.2042 12.6035 22.2042 13.0867 21.3879ZM15.5303 8.46991C15.8232 8.76281 15.8232 9.23768 15.5303 9.53057L11.5303 13.5306C11.2417 13.8193 10.7751 13.824 10.4806 13.5413L8.4806 11.6213C8.18179 11.3344 8.1721 10.8597 8.45896 10.5608C8.74582 10.262 9.22059 10.2523 9.5194 10.5392L10.9893 11.9503L14.4697 8.46991C14.7626 8.17702 15.2374 8.17702 15.5303 8.46991Z" fill="#1C274C"/>
</svg>
