<svg width="24" height="24" viewBox="0 0 24 24" fill="none" xmlns="http://www.w3.org/2000/svg">
<path fill-rule="evenodd" clip-rule="evenodd" d="M22 12.0002C22 17.5231 17.5228 22.0002 12 22.0002C10.4003 22.0002 8.88837 21.6246 7.54753 20.9568C7.19121 20.7793 6.78393 20.7202 6.39939 20.8231L4.17335 21.4187C3.20701 21.6773 2.32295 20.7932 2.58151 19.8269L3.17712 17.6009C3.28001 17.2163 3.22094 16.809 3.04346 16.4527C2.37562 15.1119 2 13.5999 2 12.0002C2 6.4774 6.47715 2.00024 12 2.00024C17.5228 2.00024 22 6.4774 22 12.0002ZM12 7.25024C12.4142 7.25024 12.75 7.58603 12.75 8.00024V8.01048C13.8388 8.28478 14.75 9.14324 14.75 10.3336C14.75 10.7478 14.4142 11.0836 14 11.0836C13.5858 11.0836 13.25 10.7478 13.25 10.3336C13.25 9.94955 12.8242 9.41691 12 9.41691C11.1758 9.41691 10.75 9.94955 10.75 10.3336C10.75 10.7176 11.1758 11.2502 12 11.2502C13.3849 11.2502 14.75 12.21 14.75 13.6669C14.75 14.8572 13.8388 15.7157 12.75 15.99V16.0002C12.75 16.4145 12.4142 16.7502 12 16.7502C11.5858 16.7502 11.25 16.4145 11.25 16.0002V15.99C10.1612 15.7157 9.25 14.8572 9.25 13.6669C9.25 13.2527 9.58579 12.9169 10 12.9169C10.4142 12.9169 10.75 13.2527 10.75 13.6669C10.75 14.0509 11.1758 14.5836 12 14.5836C12.8242 14.5836 13.25 14.0509 13.25 13.6669C13.25 13.2829 12.8242 12.7502 12 12.7502C10.6151 12.7502 9.25 11.7905 9.25 10.3336C9.25 9.14324 10.1612 8.28478 11.25 8.01048V8.00024C11.25 7.58603 11.5858 7.25024 12 7.25024Z" fill="#1C274C"/>
</svg>
