<svg width="24" height="24" viewBox="0 0 24 24" fill="none" xmlns="http://www.w3.org/2000/svg">
<path fill-rule="evenodd" clip-rule="evenodd" d="M13.0867 21.3879L13.6288 20.4721C14.0492 19.7617 14.2595 19.4065 14.5972 19.2101C14.9349 19.0137 15.36 19.0063 16.2104 18.9917C17.4658 18.9701 18.2531 18.8932 18.9134 18.6196C20.1386 18.1122 21.1119 17.1388 21.6194 15.9137C22 14.9948 22 13.83 22 11.5002V10.5002C22 7.22681 22 5.5901 21.2632 4.38775C20.8509 3.71497 20.2853 3.14932 19.6125 2.73704C18.4101 2.00024 16.7734 2.00024 13.5 2.00024H10.5C7.22657 2.00024 5.58985 2.00024 4.38751 2.73704C3.71473 3.14932 3.14908 3.71497 2.7368 4.38775C2 5.5901 2 7.22681 2 10.5002V11.5002C2 13.83 2 14.9948 2.3806 15.9137C2.88807 17.1388 3.86144 18.1122 5.08658 18.6196C5.74689 18.8931 6.53422 18.9701 7.78958 18.9917C8.63992 19.0063 9.06509 19.0137 9.40279 19.2101C9.74049 19.4065 9.95073 19.7617 10.3712 20.4721L10.9133 21.3879C11.3965 22.2042 12.6035 22.2042 13.0867 21.3879ZM14.9697 7.2995C15.2626 7.00661 15.7374 7.00661 16.0303 7.2995L16.2387 7.50783C16.874 8.14314 17.4038 8.6729 17.7678 9.15002C18.1521 9.65363 18.4216 10.1857 18.4216 10.8298C18.4216 11.474 18.1521 12.006 17.7678 12.5096C17.4038 12.9868 16.874 13.5165 16.2387 14.1518L16.0303 14.3602C15.7374 14.6531 15.2626 14.6531 14.9697 14.3602C14.6768 14.0673 14.6768 13.5924 14.9697 13.2995L15.1412 13.1279C15.8229 12.4463 16.2797 11.9873 16.5753 11.5998C16.8577 11.2296 16.9216 11.0141 16.9216 10.8298C16.9216 10.6455 16.8577 10.4301 16.5753 10.0599C16.2797 9.67242 15.8229 9.2134 15.1412 8.53174L14.9697 8.36016C14.6768 8.06727 14.6768 7.5924 14.9697 7.2995ZM14.0184 6.19436C14.1256 5.79426 13.8882 5.38301 13.4881 5.2758C13.088 5.16859 12.6767 5.40603 12.5695 5.80613L9.98131 15.4654C9.8741 15.8655 10.1115 16.2767 10.5116 16.3839C10.9117 16.4912 11.323 16.2537 11.4302 15.8536L14.0184 6.19436ZM9.03033 7.2995C9.32322 7.5924 9.32322 8.06727 9.03033 8.36016L8.85876 8.53174C8.1771 9.2134 7.72033 9.67242 7.42469 10.0599C7.14226 10.4301 7.07843 10.6455 7.07843 10.8298C7.07843 11.0141 7.14226 11.2296 7.42469 11.5998C7.72033 11.9873 8.1771 12.4463 8.85876 13.1279L9.03033 13.2995C9.32322 13.5924 9.32322 14.0673 9.03033 14.3602C8.73744 14.6531 8.26256 14.6531 7.96967 14.3602L7.7981 14.1886L7.76133 14.1518C7.12599 13.5165 6.59619 12.9868 6.23216 12.5096C5.84793 12.006 5.57843 11.474 5.57843 10.8298C5.57843 10.1857 5.84793 9.65363 6.23216 9.15002C6.59619 8.67291 7.12599 8.14315 7.76133 7.50785L7.7981 7.47108L7.96967 7.2995C8.26256 7.00661 8.73744 7.00661 9.03033 7.2995Z" fill="#1C274C"/>
</svg>
