<svg width="24" height="24" viewBox="0 0 24 24" fill="none" xmlns="http://www.w3.org/2000/svg">
<path fill-rule="evenodd" clip-rule="evenodd" d="M2 10.0001C2 7.2387 4.23858 5.00012 7 5.00012C7.25052 5.00012 7.49673 5.01855 7.73736 5.05411C8.33961 3.27818 10.0206 2.00012 12 2.00012C13.9794 2.00012 15.6604 3.27818 16.2626 5.05411C16.5033 5.01855 16.7495 5.00012 17 5.00012C19.7614 5.00012 22 7.2387 22 10.0001C22 12.0504 20.7659 13.8125 19 14.5841L19 17.2501H5V14.5841C3.2341 13.8125 2 12.0504 2 10.0001ZM11.0429 13.6694C10.1649 13.0252 9 11.985 9 11.0006C9 9.32733 10.65 8.70263 12 9.99518C13.35 8.70263 15 9.32733 15 11.0006C15 11.985 13.8352 13.0252 12.9571 13.6694C12.5374 13.9774 12.3275 14.1314 12 14.1314C11.6725 14.1314 11.4626 13.9774 11.0429 13.6694Z" fill="#1C274C"/>
<path d="M5.58579 21.4143C5.08343 20.912 5.01188 20.1471 5.00169 18.7501H18.9983C18.9881 20.1471 18.9166 20.912 18.4142 21.4143C17.8284 22.0001 16.8856 22.0001 15 22.0001H9C7.11438 22.0001 6.17157 22.0001 5.58579 21.4143Z" fill="#1C274C"/>
</svg>
