<svg width="24" height="24" viewBox="0 0 24 24" fill="none" xmlns="http://www.w3.org/2000/svg">
<path d="M11.25 2.00012H10C6.22876 2.00012 4.34315 2.00012 3.17157 3.17169C2.32803 4.01524 2.09185 5.22895 2.02572 7.25012H11.25V2.00012Z" fill="#1C274C"/>
<path d="M2.00189 8.75012C2 9.14215 2 9.55819 2 10.0001V13.0001C2 13.4421 2 13.8581 2.00189 14.2501H11.25V8.75012H2.00189Z" fill="#1C274C"/>
<path fill-rule="evenodd" clip-rule="evenodd" d="M3.17157 19.8285C2.32803 18.985 2.09185 17.7713 2.02572 15.7501H11.25V21.0001H10C8.19364 21.0001 6.81989 21.0001 5.75 20.8714V22.0001C5.75 22.4143 5.41421 22.7501 5 22.7501C4.58579 22.7501 4.25 22.4143 4.25 22.0001V20.5251C3.82861 20.3583 3.47599 20.133 3.17157 19.8285ZM6.25 18.0001C6.25 17.5859 6.58579 17.2501 7 17.2501H9C9.41421 17.2501 9.75 17.5859 9.75 18.0001C9.75 18.4143 9.41421 18.7501 9 18.7501H7C6.58579 18.7501 6.25 18.4143 6.25 18.0001Z" fill="#1C274C"/>
<path fill-rule="evenodd" clip-rule="evenodd" d="M12.75 21.0001H14C15.8064 21.0001 17.1801 21.0001 18.25 20.8714V22.0001C18.25 22.4143 18.5858 22.7501 19 22.7501C19.4142 22.7501 19.75 22.4143 19.75 22.0001V20.5251C20.1714 20.3583 20.524 20.133 20.8284 19.8285C21.672 18.985 21.9082 17.7713 21.9743 15.7501H12.75V21.0001ZM15 17.2501C14.5858 17.2501 14.25 17.5859 14.25 18.0001C14.25 18.4143 14.5858 18.7501 15 18.7501H17C17.4142 18.7501 17.75 18.4143 17.75 18.0001C17.75 17.5859 17.4142 17.2501 17 17.2501H15Z" fill="#1C274C"/>
<path fill-rule="evenodd" clip-rule="evenodd" d="M22 13.0001C22 13.4421 22 13.8581 21.9981 14.2501H12.75V2.00012H14C17.7712 2.00012 19.6569 2.00012 20.8284 3.17169C22 4.34327 22 6.22889 22 10.0001V13.0001ZM15 7.25012C15.4142 7.25012 15.75 7.58591 15.75 8.00012V10.0001C15.75 10.4143 15.4142 10.7501 15 10.7501C14.5858 10.7501 14.25 10.4143 14.25 10.0001V8.00012C14.25 7.58591 14.5858 7.25012 15 7.25012Z" fill="#1C274C"/>
</svg>
