<svg width="24" height="24" viewBox="0 0 24 24" fill="none" xmlns="http://www.w3.org/2000/svg">
<path d="M14 2.75049C15.9068 2.75049 17.2615 2.75208 18.2892 2.89025C19.2952 3.02551 19.8749 3.27918 20.2981 3.70239C20.7213 4.1256 20.975 4.70525 21.1102 5.71134C21.2484 6.739 21.25 8.09367 21.25 10.0005C21.25 10.4147 21.5858 10.7505 22 10.7505C22.4142 10.7505 22.75 10.4147 22.75 10.0005V9.94408C22.75 8.10632 22.75 6.65068 22.5969 5.51147C22.4392 4.33904 22.1071 3.3901 21.3588 2.64173C20.6104 1.89337 19.6614 1.56125 18.489 1.40362C17.3498 1.25046 15.8942 1.25047 14.0564 1.25049H14C13.5858 1.25049 13.25 1.58628 13.25 2.00049C13.25 2.4147 13.5858 2.75049 14 2.75049Z" fill="#1C274C"/>
<path d="M9.94358 1.25049H10C10.4142 1.25049 10.75 1.58628 10.75 2.00049C10.75 2.4147 10.4142 2.75049 10 2.75049C8.09318 2.75049 6.73851 2.75208 5.71085 2.89025C4.70476 3.02551 4.12511 3.27918 3.7019 3.70239C3.27869 4.1256 3.02503 4.70525 2.88976 5.71134C2.75159 6.739 2.75 8.09367 2.75 10.0005C2.75 10.4147 2.41421 10.7505 2 10.7505C1.58579 10.7505 1.25 10.4147 1.25 10.0005V9.94407C1.24998 8.10632 1.24997 6.65068 1.40314 5.51147C1.56076 4.33904 1.89288 3.3901 2.64124 2.64173C3.38961 1.89337 4.33856 1.56125 5.51098 1.40362C6.65019 1.25046 8.10583 1.25047 9.94358 1.25049Z" fill="#1C274C"/>
<path d="M5.52721 5.5277C5 6.0549 5 6.90343 5 8.60049C5 9.73186 5 10.2975 5.35147 10.649C5.70294 11.0005 6.26863 11.0005 7.4 11.0005H8.6C9.73137 11.0005 10.2971 11.0005 10.6485 10.649C11 10.2975 11 9.73186 11 8.60049V7.40049C11 6.26912 11 5.70343 10.6485 5.35196C10.2971 5.00049 9.73137 5.00049 8.6 5.00049C6.90295 5.00049 6.05442 5.00049 5.52721 5.5277Z" fill="#1C274C"/>
<path d="M5.52721 18.4733C5 17.9461 5 17.0975 5 15.4005C5 14.2691 5 13.7034 5.35147 13.352C5.70295 13.0005 6.26863 13.0005 7.4 13.0005H8.6C9.73137 13.0005 10.2971 13.0005 10.6485 13.352C11 13.7034 11 14.2691 11 15.4005V16.6005C11 17.7319 11 18.2975 10.6485 18.649C10.2971 19.0005 9.73138 19.0005 8.60002 19.0005C6.90298 19.0005 6.05441 19.0005 5.52721 18.4733Z" fill="#1C274C"/>
<path d="M13 7.40049C13 6.26912 13 5.70343 13.3515 5.35196C13.7029 5.00049 14.2686 5.00049 15.4 5.00049C17.0971 5.00049 17.9456 5.00049 18.4728 5.5277C19 6.0549 19 6.90343 19 8.60049C19 9.73186 19 10.2975 18.6485 10.649C18.2971 11.0005 17.7314 11.0005 16.6 11.0005H15.4C14.2686 11.0005 13.7029 11.0005 13.3515 10.649C13 10.2975 13 9.73186 13 8.60049V7.40049Z" fill="#1C274C"/>
<path d="M13.3515 18.649C13 18.2975 13 17.7319 13 16.6005V15.4005C13 14.2691 13 13.7034 13.3515 13.352C13.7029 13.0005 14.2686 13.0005 15.4 13.0005H16.6C17.7314 13.0005 18.2971 13.0005 18.6485 13.352C19 13.7034 19 14.2691 19 15.4005C19 17.0975 19 17.9461 18.4728 18.4733C17.9456 19.0005 17.0971 19.0005 15.4 19.0005C14.2687 19.0005 13.7029 19.0005 13.3515 18.649Z" fill="#1C274C"/>
<path d="M22 13.2505C22.4142 13.2505 22.75 13.5863 22.75 14.0005V14.0569C22.75 15.8947 22.75 17.3503 22.5969 18.4895C22.4392 19.6619 22.1071 20.6109 21.3588 21.3592C20.6104 22.1076 19.6614 22.4397 18.489 22.5974C17.3498 22.7505 15.8942 22.7505 14.0564 22.7505H14C13.5858 22.7505 13.25 22.4147 13.25 22.0005C13.25 21.5863 13.5858 21.2505 14 21.2505C15.9068 21.2505 17.2615 21.2489 18.2892 21.1107C19.2952 20.9755 19.8749 20.7218 20.2981 20.2986C20.7213 19.8754 20.975 19.2957 21.1102 18.2896C21.2484 17.262 21.25 15.9073 21.25 14.0005C21.25 13.5863 21.5858 13.2505 22 13.2505Z" fill="#1C274C"/>
<path d="M2.75 14.0005C2.75 13.5863 2.41421 13.2505 2 13.2505C1.58579 13.2505 1.25 13.5863 1.25 14.0005V14.0569C1.24998 15.8947 1.24997 17.3503 1.40314 18.4895C1.56076 19.6619 1.89288 20.6109 2.64124 21.3592C3.38961 22.1076 4.33856 22.4397 5.51098 22.5974C6.65019 22.7505 8.10583 22.7505 9.94359 22.7505H10C10.4142 22.7505 10.75 22.4147 10.75 22.0005C10.75 21.5863 10.4142 21.2505 10 21.2505C8.09318 21.2505 6.73851 21.2489 5.71085 21.1107C4.70476 20.9755 4.12511 20.7218 3.7019 20.2986C3.27869 19.8754 3.02503 19.2957 2.88976 18.2896C2.75159 17.262 2.75 15.9073 2.75 14.0005Z" fill="#1C274C"/>
</svg>
