<svg width="24" height="24" viewBox="0 0 24 24" fill="none" xmlns="http://www.w3.org/2000/svg">
<path d="M16 8.00038L19 8.00085C20.6569 8.00112 22.0002 6.65818 22.0005 5.00133C22.0007 3.34447 20.6578 2.00112 19.0009 2.00085C17.3441 2.00059 16.0007 3.34353 16.0005 5.00038L16 8.00038L8.00047 8.00037L8 5.00038C7.99974 3.34353 6.65638 2.00059 4.99953 2.00085C3.34267 2.00112 1.99974 3.34447 2 5.00133C2.00026 6.65818 3.34362 8.00112 5.00047 8.00085L8.00047 8.00037L8 16.0004H16V8.00038Z" fill="#1C274C"/>
<path d="M16 16.0004L19 16.0009C20.6569 16.0006 22.0002 17.3435 22.0005 19.0004C22.0007 20.6572 20.6578 22.0006 19.0009 22.0009C17.3441 22.0011 16.0007 20.6582 16.0005 19.0013L16 16.0004Z" fill="#1C274C"/>
<path d="M5.00047 16.0009L8.00047 16.0013L8 19.0013C7.99974 20.6582 6.65638 22.0011 4.99953 22.0009C3.34267 22.0006 1.99974 20.6572 2 19.0004C2.00026 17.3435 3.34362 16.0006 5.00047 16.0009Z" fill="#1C274C"/>
</svg>
