<svg width="24" height="24" viewBox="0 0 24 24" fill="none" xmlns="http://www.w3.org/2000/svg">
<path fill-rule="evenodd" clip-rule="evenodd" d="M12 22.0002C17.5228 22.0002 22 17.5231 22 12.0002C22 6.4774 17.5228 2.00024 12 2.00024C6.47715 2.00024 2 6.4774 2 12.0002C2 17.5231 6.47715 22.0002 12 22.0002ZM13.9563 14.0952C13.763 14.2646 13.5167 14.3632 13.024 14.5602C10.7142 15.4841 9.55936 15.9461 8.89971 15.4978C8.7433 15.3916 8.6084 15.2567 8.50212 15.1003C8.05386 14.4406 8.51582 13.2857 9.43973 10.9759C9.6368 10.4833 9.73533 10.2369 9.9048 10.0437C9.94799 9.99443 9.99435 9.94807 10.0436 9.90488C10.2368 9.73541 10.4832 9.63688 10.9759 9.43981C13.2856 8.5159 14.4405 8.05394 15.1002 8.5022C15.2566 8.60848 15.3915 8.74338 15.4978 8.89979C15.946 9.55944 15.4841 10.7143 14.5602 13.0241C14.3631 13.5168 14.2646 13.7631 14.0951 13.9564C14.0519 14.0056 14.0055 14.052 13.9563 14.0952Z" fill="#1C274C"/>
</svg>
