<svg width="24" height="24" viewBox="0 0 24 24" fill="none" xmlns="http://www.w3.org/2000/svg">
<path d="M19.357 8.38326C17.7511 8.60018 16.4767 9.8614 16.2398 11.4608L14.9198 10.1408L13.5955 11.465C13.4826 11.578 13.4619 11.7538 13.5457 11.8899L14.1916 12.9396C14.929 14.1379 13.499 15.4887 12.3446 14.6841L7.72702 11.4658L12.6712 18.5596C13.4816 19.7223 12.1075 21.1566 10.9111 20.3969L4.79546 16.5132L5.4448 17.8841C5.77832 18.5881 5.63445 19.4261 5.0826 19.978L2.53033 22.5303C2.23744 22.8231 1.76256 22.8231 1.46967 22.5303C1.17678 22.2374 1.17678 21.7625 1.46967 21.4696L4.02194 18.9173C4.12458 18.8147 4.15191 18.6586 4.08919 18.5262L3.13994 16.5222C2.58305 15.3465 3.91 14.174 5.00816 14.8714L10.8641 18.5901L5.84814 11.3933C5.01991 10.205 6.46624 8.75868 7.65457 9.58691L12.4044 12.8974L12.2682 12.676C11.8204 11.9484 11.9307 11.0085 12.5349 10.4044L13.8591 9.08014L10.518 5.73897C9.66264 4.88366 9.66264 3.49692 10.518 2.64161C11.3733 1.78629 12.76 1.78629 13.6153 2.64161L19.357 8.38326Z" fill="#1C274C"/>
<path d="M21.3587 13.4824C21.7779 13.0632 21.9916 12.5165 21.9999 11.9672C21.9823 10.795 21.0266 9.85022 19.8502 9.85022C18.6628 9.85022 17.7002 10.8128 17.7002 12.0002C17.7002 12.8163 18.1549 13.5262 18.8247 13.8904C19.6459 14.304 20.6731 14.168 21.3587 13.4824Z" fill="#1C274C"/>
</svg>
