<svg width="24" height="24" viewBox="0 0 24 24" fill="none" xmlns="http://www.w3.org/2000/svg">
<path fill-rule="evenodd" clip-rule="evenodd" d="M15.0303 1.46991C15.3232 1.76281 15.3232 2.23768 15.0303 2.53057C14.6145 2.94638 14.2408 3.38855 13.9105 3.85004L15.1172 5.05683C15.4101 5.34972 15.4101 5.82459 15.1172 6.11749C14.8244 6.41038 14.3495 6.41038 14.0566 6.11749L13.1088 5.16967C12.8987 5.58365 12.7203 6.00677 12.5743 6.43483L17.4526 11.313C17.4894 11.3499 17.5216 11.3896 17.5491 11.4314C17.957 11.2932 18.3604 11.1255 18.7558 10.929L15.748 7.9212C15.4551 7.62831 15.4551 7.15343 15.748 6.86054C16.0409 6.56765 16.5158 6.56765 16.8087 6.86054L20.0845 10.1364C20.5698 9.79475 21.0342 9.40541 21.4697 8.96991C21.7626 8.67702 22.2374 8.67702 22.5303 8.96991C22.8232 9.26281 22.8232 9.73768 22.5303 10.0306C19.9077 12.6532 16.2665 13.8842 12.9736 13.2437C13.7235 16.4183 12.5739 19.987 10.0303 22.5306C9.73744 22.8235 9.26256 22.8235 8.96967 22.5306C8.67678 22.2377 8.67678 21.7628 8.96967 21.4699C9.40642 21.0332 9.79308 20.5652 10.1279 20.0756L8.77436 18.722C8.48146 18.4291 8.48146 17.9542 8.77436 17.6613C9.06725 17.3684 9.54212 17.3684 9.83502 17.6613L10.8975 18.7238C11.084 18.3211 11.2387 17.9106 11.3608 17.4964C11.3443 17.4825 11.3283 17.4678 11.3128 17.4523L6.50083 12.6403C6.06113 12.7701 5.62552 12.9367 5.19921 13.139L8.03033 15.9702C8.32322 16.2631 8.32322 16.7379 8.03033 17.0308C7.73744 17.3237 7.26256 17.3237 6.96967 17.0308L3.85751 13.9187C3.3922 14.2427 2.94707 14.6138 2.53033 15.0306C2.23744 15.3235 1.76256 15.3235 1.46967 15.0306C1.17678 14.7377 1.17678 14.2628 1.46967 13.9699C4.01326 11.4263 7.58195 10.2767 10.7566 11.0267C10.1161 7.73376 11.347 4.09259 13.9697 1.46991C14.2626 1.17702 14.7374 1.17702 15.0303 1.46991ZM15.8509 11.8327L12.1675 8.14934C12.0094 9.31869 12.0947 10.4835 12.439 11.5612C13.5168 11.9055 14.6815 11.9909 15.8509 11.8327ZM11.3303 12.9542C11.629 13.8217 11.7433 14.7544 11.6826 15.7008L8.29943 12.3176C9.24581 12.2569 10.1785 12.3713 11.046 12.67L11.2575 12.7427L11.3303 12.9542Z" fill="#1C274C"/>
</svg>
