<svg width="24" height="24" viewBox="0 0 24 24" fill="none" xmlns="http://www.w3.org/2000/svg">
<path fill-rule="evenodd" clip-rule="evenodd" d="M4.17157 3.17206C3 4.34363 3 6.22925 3 10.0005V14.0005C3 17.7717 3 19.6573 4.17157 20.8289C5.34315 22.0005 7.22876 22.0005 11 22.0005H13C16.7712 22.0005 18.6569 22.0005 19.8284 20.8289C21 19.6573 21 17.7717 21 14.0005V10.0005C21 6.22925 21 4.34363 19.8284 3.17206C18.6569 2.00049 16.7712 2.00049 13 2.00049H11C7.22876 2.00049 5.34315 2.00049 4.17157 3.17206ZM12.75 6.00049C12.75 5.58627 12.4142 5.25049 12 5.25049C11.5858 5.25049 11.25 5.58627 11.25 6.00049V7.25049H9.99997C9.58575 7.25049 9.24997 7.58628 9.24997 8.00049C9.24997 8.4147 9.58575 8.75049 9.99997 8.75049H11.25L11.25 10.0005C11.25 10.4147 11.5858 10.7505 12 10.7505C12.4142 10.7505 12.75 10.4147 12.75 10.0005L12.75 8.75049L14 8.75049C14.4142 8.75049 14.75 8.4147 14.75 8.00049C14.75 7.58628 14.4142 7.25049 14 7.25049H12.75V6.00049ZM8 13.2505C7.58579 13.2505 7.25 13.5863 7.25 14.0005C7.25 14.4147 7.58579 14.7505 8 14.7505H16C16.4142 14.7505 16.75 14.4147 16.75 14.0005C16.75 13.5863 16.4142 13.2505 16 13.2505H8ZM9 17.2505C8.58579 17.2505 8.25 17.5863 8.25 18.0005C8.25 18.4147 8.58579 18.7505 9 18.7505H15C15.4142 18.7505 15.75 18.4147 15.75 18.0005C15.75 17.5863 15.4142 17.2505 15 17.2505H9Z" fill="#1C274C"/>
</svg>
