<svg width="24" height="24" viewBox="0 0 24 24" fill="none" xmlns="http://www.w3.org/2000/svg">
<path d="M12.2803 21.5539C12.0886 20.909 12.303 20.1021 12.9444 19.6277C13.4368 19.2636 14.0224 19.1453 14.5152 19.2624C14.58 19.2778 14.6491 19.2616 14.6961 19.2146C14.7586 19.1521 14.766 19.0533 14.7134 18.9822L14.6196 18.8553C14.0081 18.0284 14.3131 16.7642 15.2994 16.0207C15.1559 15.923 14.9975 15.818 14.8289 15.7076L14.6506 15.5912C14.4368 15.4519 14.2126 15.3057 14.0103 15.1666C13.4294 15.5361 12.7399 15.7501 12.0005 15.7501C10.9074 15.7501 9.92351 15.2824 9.23808 14.5362C8.83106 14.7573 8.35478 14.9797 7.86375 15.1711C7.06293 15.4832 6.12858 15.7501 5.33228 15.7501C4.30133 15.7501 3.23794 15.3037 2.41274 14.851C3.64009 18.9849 7.46817 22.0001 12.0005 22.0001C12.2138 22.0001 12.3411 21.7584 12.2803 21.5539Z" fill="#1C274C"/>
<path d="M9.75049 12.0001C9.75049 10.7575 10.7578 9.75012 12.0005 9.75012C13.2431 9.75012 14.2505 10.7575 14.2505 12.0001C14.2505 12.6272 13.994 13.1944 13.5801 13.6024C13.5287 13.6372 13.4808 13.6791 13.4378 13.7279L13.4275 13.7398C13.0392 14.0587 12.5422 14.2501 12.0005 14.2501C10.7578 14.2501 9.75049 13.2428 9.75049 12.0001Z" fill="#1C274C"/>
<path fill-rule="evenodd" clip-rule="evenodd" d="M19.4792 14.7951C20.1866 14.2719 21.0865 14.2562 21.627 14.7169C21.8703 13.853 22.0005 12.9418 22.0005 12.0001C22.0005 10.022 21.4261 8.17798 20.4351 6.62582L19.5304 7.53045C19.2375 7.82335 18.7626 7.82335 18.4698 7.53045C18.1769 7.23756 18.1769 6.76269 18.4698 6.46979L19.4698 5.46979C19.4885 5.45102 19.508 5.43346 19.5282 5.4171C17.6952 3.32278 15.0023 2.00012 12.0005 2.00012C10.0223 2.00012 8.17835 2.57449 6.62618 3.56556L7.53041 4.46979C7.82331 4.76269 7.82331 5.23756 7.53041 5.53045C7.23752 5.82335 6.76265 5.82335 6.46975 5.53045L5.46975 4.53045C5.45112 4.51182 5.43368 4.49245 5.41742 4.47244C3.32312 6.30543 2.00049 8.99832 2.00049 12.0001C2.00049 12.2845 2.01236 12.5661 2.03563 12.8444C2.25198 12.9979 2.51964 13.1771 2.81955 13.3558C3.63825 13.8434 4.57246 14.2501 5.33228 14.2501C5.8485 14.2501 6.57537 14.0633 7.3191 13.7735C7.73954 13.6096 8.13487 13.425 8.46368 13.2496C8.32561 12.8588 8.25049 12.4382 8.25049 12.0001C8.25049 9.92905 9.92942 8.25012 12.0005 8.25012C14.0716 8.25012 15.7505 9.92905 15.7505 12.0001C15.7505 12.7773 15.5141 13.4992 15.1093 14.0979C15.2235 14.1735 15.3483 14.2551 15.4814 14.3421L15.6505 14.4527C16.1277 14.7651 16.7133 15.1522 17.0308 15.4698C17.0439 15.4829 17.0564 15.4963 17.0683 15.5101C17.5434 15.5688 17.9691 15.7907 18.25 16.1705L18.5254 16.5429C18.5565 16.5849 18.6177 16.5895 18.6547 16.5525C18.6743 16.5329 18.683 16.5052 18.6793 16.4777C18.6005 15.8922 18.8922 15.2291 19.4792 14.7951ZM16.4501 4.40012C16.7815 4.64865 16.8486 5.11875 16.6001 5.45012L15.1001 7.45012C14.8516 7.78149 14.3815 7.84865 14.0501 7.60012C13.7187 7.35159 13.6516 6.88149 13.9001 6.55012L15.4001 4.55012C15.6486 4.21875 16.1187 4.15159 16.4501 4.40012ZM10.4698 3.46979C10.1769 3.76269 10.1769 4.23756 10.4698 4.53045L11.4698 5.53045C11.7626 5.82335 12.2375 5.82335 12.5304 5.53045C12.8233 5.23756 12.8233 4.76269 12.5304 4.46979L11.5304 3.46979C11.2375 3.1769 10.7626 3.1769 10.4698 3.46979ZM8.40961 7.56026C8.51682 7.96036 8.92807 8.1978 9.32817 8.09059L10.6942 7.72457C11.0943 7.61736 11.3317 7.20611 11.2245 6.80601C11.1173 6.40591 10.7061 6.16847 10.306 6.27568L8.93994 6.6417C8.53984 6.74891 8.30241 7.16016 8.40961 7.56026ZM5.89694 7.17376C5.51986 7.34517 5.35313 7.78981 5.52453 8.16689L6.10976 9.45434C6.28117 9.83142 6.72581 9.99815 7.10289 9.82675C7.47998 9.65534 7.64671 9.2107 7.4753 8.83361L6.89007 7.54617C6.71867 7.16909 6.27403 7.00235 5.89694 7.17376ZM16.7514 11.1386C17.1652 11.1191 17.4848 10.7679 17.4654 10.3542L17.399 8.94152C17.3795 8.52776 17.0284 8.20811 16.6146 8.22755C16.2008 8.247 15.8812 8.59818 15.9006 9.01194L15.967 10.4246C15.9865 10.8383 16.3377 11.158 16.7514 11.1386ZM18.4369 12.0587C18.7106 12.3695 19.1846 12.3996 19.4954 12.1258L21.1735 10.648C21.4843 10.3742 21.5144 9.9003 21.2406 9.58945C20.9669 9.2786 20.493 9.24854 20.1821 9.5223L18.504 11.0001C18.1932 11.2739 18.1631 11.7478 18.4369 12.0587ZM6.94303 10.8949C7.27729 11.1395 7.34994 11.6088 7.10531 11.9431L6.27007 13.0843C6.02544 13.4185 5.55616 13.4912 5.2219 13.2466C4.88765 13.0019 4.81499 12.5326 5.05963 12.1984L5.89486 11.0572C6.13949 10.7229 6.60878 10.6503 6.94303 10.8949ZM3.56263 8.18909C3.14906 8.21213 2.83247 8.56608 2.85551 8.97965L2.93417 10.3917C2.95721 10.8052 3.31116 11.1218 3.72473 11.0988C4.1383 11.0758 4.45489 10.7218 4.43185 10.3082L4.35319 8.89622C4.33015 8.48264 3.97621 8.16605 3.56263 8.18909Z" fill="#1C274C"/>
</svg>
