<svg width="24" height="24" viewBox="0 0 24 24" fill="none" xmlns="http://www.w3.org/2000/svg">
<path fill-rule="evenodd" clip-rule="evenodd" d="M19 8.00024V15.8833C19 16.6441 18.6809 17.37 18.1203 17.8843C16.5867 19.2915 14.6891 20.0754 12.75 20.2358V21.2502C12.75 21.6645 12.4142 22.0002 12 22.0002C11.5858 22.0002 11.25 21.6645 11.25 21.2502V20.2358C9.31089 20.0754 7.41327 19.2915 5.87966 17.8843C5.31911 17.37 5 16.6441 5 15.8833V8.00024C5 6.11462 5 5.17182 5.58579 4.58603C6.17157 4.00024 7.11438 4.00024 9 4.00024H15C16.8856 4.00024 17.8284 4.00024 18.4142 4.58603C19 5.17182 19 6.11463 19 8.00024ZM12 13.0002C13.1046 13.0002 14 12.0674 14 10.9168C14 10.1969 13.217 9.23607 12.6309 8.61761C12.2839 8.25149 11.7161 8.25149 11.3691 8.61761C10.783 9.23607 10 10.1969 10 10.9168C10 12.0674 10.8954 13.0002 12 13.0002ZM9.25 16.0002C9.25 15.586 9.58579 15.2502 10 15.2502H14C14.4142 15.2502 14.75 15.586 14.75 16.0002C14.75 16.4145 14.4142 16.7502 14 16.7502H10C9.58579 16.7502 9.25 16.4145 9.25 16.0002Z" fill="#1C274C"/>
<path d="M13.7325 3.00025C13.3866 2.40244 12.7403 2.00024 12 2.00024C11.2597 2.00024 10.6134 2.40244 10.2676 3.00025L13.7325 3.00025Z" fill="#1C274C"/>
</svg>
