<svg width="24" height="24" viewBox="0 0 24 24" fill="none" xmlns="http://www.w3.org/2000/svg">
<path d="M2 12.0005C2 11.0685 2.63744 10.2855 3.50011 10.0635L3.50011 13.9375C2.63744 13.7155 2 12.9324 2 12.0005Z" fill="#1C274C"/>
<path d="M22 12.0005C22 12.9324 21.3626 13.7155 20.4999 13.9375V10.0635C21.3626 10.2855 22 11.0685 22 12.0005Z" fill="#1C274C"/>
<path d="M19 9.00049V15.0005C19 15.4655 19 15.698 18.9489 15.8887C18.8102 16.4064 18.4059 16.8107 17.8882 16.9494C17.6975 17.0005 17.465 17.0005 17 17.0005C16.535 17.0005 16.3025 17.0005 16.1118 16.9494C15.5941 16.8107 15.1898 16.4064 15.0511 15.8887C15 15.698 15 15.4655 15 15.0005V12.7505H9V15.0005C9 15.4655 9 15.698 8.94889 15.8887C8.81019 16.4064 8.40587 16.8107 7.88823 16.9494C7.69748 17.0005 7.46499 17.0005 7 17.0005C6.53501 17.0005 6.30252 17.0005 6.11177 16.9494C5.59413 16.8107 5.18981 16.4064 5.05111 15.8887C5 15.698 5 15.4655 5 15.0005L5 9.00049C5 8.5355 5 8.30301 5.05111 8.11226C5.18981 7.59462 5.59413 7.1903 6.11177 7.0516C6.30252 7.00049 6.53501 7.00049 7 7.00049C7.46499 7.00049 7.69748 7.00049 7.88823 7.0516C8.40587 7.1903 8.81019 7.59462 8.94889 8.11226C9 8.30301 9 8.5355 9 9.00049V11.2505H15V9.00049C15 8.5355 15 8.30301 15.0511 8.11226C15.1898 7.59462 15.5941 7.1903 16.1118 7.0516C16.3025 7.00049 16.535 7.00049 17 7.00049C17.465 7.00049 17.6975 7.00049 17.8882 7.0516C18.4059 7.1903 18.8102 7.59462 18.9489 8.11226C19 8.30301 19 8.5355 19 9.00049Z" fill="#1C274C"/>
</svg>
