<svg width="24" height="24" viewBox="0 0 24 24" fill="none" xmlns="http://www.w3.org/2000/svg">
<path d="M8.3807 20.5689L3.43157 15.6198C2.52737 14.7156 2.07528 14.2635 2.0108 13.7114C1.9964 13.5882 1.9964 13.4637 2.0108 13.3404C2.07528 12.7883 2.52737 12.3362 3.43156 11.4321C4.33575 10.5279 4.78785 10.0758 5.33994 10.0113C5.46318 9.99689 5.58768 9.99689 5.71092 10.0113C6.26301 10.0758 6.71511 10.5279 7.6193 11.4321L8.35253 12.1653L12.1648 8.35302L11.4316 7.61979C10.5274 6.7156 10.0753 6.2635 10.0108 5.71141C9.9964 5.58817 9.9964 5.46367 10.0108 5.34043C10.0753 4.78834 10.5274 4.33624 11.4316 3.43205C12.3358 2.52786 12.7879 2.07577 13.3399 2.01128C13.4632 1.99689 13.5877 1.99689 13.7109 2.01128C14.263 2.07577 14.7151 2.52786 15.6193 3.43205L20.5684 8.38119C21.4726 9.28538 21.9247 9.73748 21.9892 10.2896C22.0036 10.4128 22.0036 10.5373 21.9892 10.6605C21.9247 11.2126 21.4726 11.6647 20.5684 12.5689C19.6642 13.4731 19.2122 13.9252 18.6601 13.9897C18.5368 14.0041 18.4123 14.0041 18.2891 13.9897C17.737 13.9252 17.2849 13.4731 16.3807 12.5689L15.2688 11.457L11.4565 15.2693L12.5684 16.3812C13.4726 17.2854 13.9247 17.7375 13.9892 18.2896C14.0036 18.4128 14.0036 18.5373 13.9892 18.6605C13.9247 19.2126 13.4726 19.6647 12.5684 20.5689C11.6642 21.4731 11.2121 21.9252 10.6601 21.9897C10.5368 22.0041 10.4123 22.0041 10.2891 21.9897C9.73699 21.9252 9.28489 21.4731 8.3807 20.5689Z" fill="#1C274C"/>
<path fill-rule="evenodd" clip-rule="evenodd" d="M17.4885 1.96845C17.7814 1.67556 18.2562 1.67556 18.5491 1.96845L21.6531 5.07246C21.946 5.36535 21.946 5.84023 21.6531 6.13312C21.3602 6.42601 20.8854 6.42601 20.5925 6.13312L17.4885 3.02911C17.1956 2.73622 17.1956 2.26134 17.4885 1.96845ZM1.96723 17.4883C2.26012 17.1955 2.735 17.1955 3.02789 17.4883L6.1319 20.5924C6.42479 20.8853 6.42479 21.3601 6.1319 21.653C5.83901 21.9459 5.36413 21.9459 5.07124 21.653L1.96723 18.549C1.67434 18.2561 1.67434 17.7812 1.96723 17.4883Z" fill="#1C274C"/>
</svg>
