<svg width="24" height="24" viewBox="0 0 24 24" fill="none" xmlns="http://www.w3.org/2000/svg">
<path d="M11.4096 5.50555C13.0796 3.83551 13.9146 3.00049 14.9522 3.00049C15.9899 3.00049 16.8249 3.83551 18.4949 5.50555C20.165 7.17559 21 8.01061 21 9.04824C21 10.0859 20.165 10.9209 18.4949 12.5909L14.3017 16.7842L7.21634 9.69877L11.4096 5.50555Z" fill="#1C274C"/>
<path d="M6.1557 10.7595L13.2411 17.8448L12.5904 18.4954C12.2127 18.8732 11.8777 19.2082 11.5734 19.5005H21C21.4142 19.5005 21.75 19.8363 21.75 20.2505C21.75 20.6647 21.4142 21.0005 21 21.0005H9C7.98423 20.9752 7.1494 20.1398 5.50506 18.4954C3.83502 16.8254 3 15.9904 3 14.9527C3 13.9151 3.83502 13.0801 5.50506 11.41L6.1557 10.7595Z" fill="#1C274C"/>
</svg>
