<svg width="24" height="24" viewBox="0 0 24 24" fill="none" xmlns="http://www.w3.org/2000/svg">
<path fill-rule="evenodd" clip-rule="evenodd" d="M3.46447 3.46495C2 4.92942 2 7.28644 2 12.0005C2 16.7145 2 19.0716 3.46447 20.536C4.92893 22.0005 7.28595 22.0005 12 22.0005C16.714 22.0005 19.0711 22.0005 20.5355 20.536C22 19.0716 22 16.7145 22 12.0005C22 7.28644 22 4.92942 20.5355 3.46495C19.0711 2.00049 16.714 2.00049 12 2.00049C7.28595 2.00049 4.92893 2.00049 3.46447 3.46495ZM8.98781 10.2891L13.7114 15.0127L16.33 12.3941C17.4433 11.2808 18 10.7241 18 10.0323C18 9.34057 17.4433 8.78389 16.33 7.67053C15.2166 6.55717 14.6599 6.00049 13.9682 6.00049C13.2764 6.00049 12.7197 6.55717 11.6064 7.67053L8.98781 10.2891ZM12.3936 16.3304L12.6507 16.0733L7.92715 11.3497L7.67004 11.6069C6.55668 12.7202 6 13.2769 6 13.9687C6 14.6604 6.55668 15.2171 7.67004 16.3304C8.7834 17.4438 9.34008 18.0005 10.0318 18.0005C10.7236 18.0005 11.2803 17.4438 12.3936 16.3304Z" fill="#1C274C"/>
</svg>
