<svg width="24" height="24" viewBox="0 0 24 24" fill="none" xmlns="http://www.w3.org/2000/svg">
<path fill-rule="evenodd" clip-rule="evenodd" d="M12 2.00049C6.47715 2.00049 2 6.47764 2 12.0005C2 17.5233 6.47715 22.0005 12 22.0005C17.5228 22.0005 22 17.5233 22 12.0005C22 6.47764 17.5228 2.00049 12 2.00049ZM11.6064 7.67053C12.7197 6.55717 13.2764 6.00049 13.9682 6.00049C14.6599 6.00049 15.2166 6.55717 16.33 7.67053C17.4433 8.78389 18 9.34057 18 10.0323C18 10.7241 17.4433 11.2808 16.33 12.3941L13.7114 15.0127L8.98781 10.2891L11.6064 7.67053ZM7.92715 11.3497L12.6507 16.0733L12.3936 16.3304C11.2803 17.4438 10.7236 18.0005 10.0318 18.0005C9.34008 18.0005 8.7834 17.4438 7.67004 16.3304C6.55668 15.2171 6 14.6604 6 13.9687C6 13.2769 6.55668 12.7202 7.67004 11.6069L7.92715 11.3497Z" fill="#1C274C"/>
</svg>
