<svg width="24" height="24" viewBox="0 0 24 24" fill="none" xmlns="http://www.w3.org/2000/svg">
<path d="M19.3517 7.6169L15.3929 4.054C14.2651 3.03892 13.7012 2.53139 13.0092 2.26587L13 5.00035C13 7.35737 13 8.53588 13.7322 9.26812C14.4645 10.0004 15.643 10.0004 18 10.0004H21.5801C21.2175 9.29613 20.5684 8.71189 19.3517 7.6169Z" fill="#1C274C"/>
<path fill-rule="evenodd" clip-rule="evenodd" d="M14 22.0002H10C6.22876 22.0002 4.34315 22.0002 3.17157 20.8287C2 19.6571 2 17.7715 2 14.0002V10.0002C2 6.22901 2 4.34339 3.17157 3.17182C4.34315 2.00024 6.23869 2.00024 10.0298 2.00024C10.6358 2.00024 11.1214 2.00024 11.53 2.01691C11.5166 2.09684 11.5095 2.17837 11.5092 2.26081L11.5 5.09521C11.4999 6.19232 11.4998 7.16189 11.6049 7.9434C11.7188 8.79052 11.9803 9.63751 12.6716 10.3288C13.3628 11.02 14.2098 11.2816 15.0569 11.3954C15.8385 11.5005 16.808 11.5004 17.9051 11.5004L18 11.5004H21.9574C22 12.0346 22 12.6903 22 13.5631V14.0002C22 17.7715 22 19.6571 20.8284 20.8287C19.6569 22.0002 17.7712 22.0002 14 22.0002ZM4.25 11.5002C4.25 10.2576 5.25736 9.25024 6.5 9.25024H9.5C10.7426 9.25024 11.75 10.2576 11.75 11.5002C11.75 12.0765 11.5334 12.6022 11.1771 13.0002C11.5334 13.3983 11.75 13.924 11.75 14.5002C11.75 15.7429 10.7426 16.7502 9.5 16.7502C9.23702 16.7502 8.98458 16.7051 8.75 16.6222V17.5002C8.75 18.7429 7.74264 19.7502 6.5 19.7502C5.25736 19.7502 4.25 18.7429 4.25 17.5002C4.25 16.924 4.46664 16.3983 4.82292 16.0002C4.46664 15.6022 4.25 15.0765 4.25 14.5002C4.25 13.924 4.46664 13.3983 4.82292 13.0002C4.46664 12.6022 4.25 12.0765 4.25 11.5002ZM5.75 14.5002C5.75 14.086 6.08579 13.7502 6.5 13.7502H7.25V15.2502H6.5C6.08579 15.2502 5.75 14.9145 5.75 14.5002ZM7.25 12.2502H6.5C6.08579 12.2502 5.75 11.9145 5.75 11.5002C5.75 11.086 6.08579 10.7502 6.5 10.7502H7.25V12.2502ZM10.25 11.5002C10.25 11.9145 9.91421 12.2502 9.5 12.2502H8.75V10.7502H9.5C9.91421 10.7502 10.25 11.086 10.25 11.5002ZM8.75 14.5002C8.75 14.086 9.08579 13.7502 9.5 13.7502C9.91421 13.7502 10.25 14.086 10.25 14.5002C10.25 14.9145 9.91421 15.2502 9.5 15.2502C9.08579 15.2502 8.75 14.9145 8.75 14.5002ZM6.5 16.7502H7.25V17.5002C7.25 17.9145 6.91421 18.2502 6.5 18.2502C6.08579 18.2502 5.75 17.9145 5.75 17.5002C5.75 17.086 6.08579 16.7502 6.5 16.7502Z" fill="#1C274C"/>
</svg>
