<svg width="24" height="24" viewBox="0 0 24 24" fill="none" xmlns="http://www.w3.org/2000/svg">
<path d="M19.3517 7.6169L15.3929 4.054C14.2651 3.03892 13.7012 2.53139 13.0092 2.26587L13 5.00035C13 7.35737 13 8.53588 13.7322 9.26812C14.4645 10.0004 15.643 10.0004 18 10.0004H21.5801C21.2175 9.29613 20.5684 8.71189 19.3517 7.6169Z" fill="#1C274C"/>
<path d="M14 22.0002H10C6.22876 22.0002 4.34315 22.0002 3.17157 20.8287C2.72548 20.3826 2.44924 19.833 2.27818 19.1151C2.15904 18.6152 2.09948 18.3652 2.21429 18.073C2.32911 17.7808 2.58217 17.6121 3.08829 17.2747L3.71429 16.8574C4.49285 16.3383 5.50715 16.3383 6.28571 16.8574C7.3238 17.5494 8.6762 17.5494 9.71429 16.8574C10.4929 16.3383 11.5071 16.3383 12.2857 16.8574C13.3238 17.5494 14.6762 17.5494 15.7143 16.8574C16.4929 16.3383 17.5071 16.3383 18.2857 16.8574C19.3238 17.5494 20.6762 17.5494 21.7143 16.8574C21.8241 16.7842 21.9705 16.8683 21.965 17.0002C21.8873 18.8725 21.6366 20.0205 20.8284 20.8287C19.6569 22.0002 17.7712 22.0002 14 22.0002Z" fill="#1C274C"/>
<path d="M2 10.0002C2 6.22901 2 4.34339 3.17157 3.17182C4.34315 2.00024 6.23869 2.00024 10.0298 2.00024C10.6358 2.00024 11.1214 2.00024 11.53 2.01691C11.5166 2.09684 11.5095 2.17837 11.5092 2.26081L11.5 5.09521C11.4999 6.19232 11.4998 7.16189 11.6049 7.9434C11.7188 8.79052 11.9803 9.63751 12.6716 10.3288C13.3628 11.02 14.2098 11.2816 15.0569 11.3954C15.8385 11.5005 16.808 11.5004 17.9051 11.5004L18 11.5004H21.9934V12.3275C21.9973 12.5401 21.8912 12.7395 21.7143 12.8574C20.6762 13.5494 19.3238 13.5494 18.2857 12.8574C17.5071 12.3383 16.4929 12.3383 15.7143 12.8574C14.6762 13.5494 13.3238 13.5494 12.2857 12.8574C11.5071 12.3383 10.4929 12.3383 9.71429 12.8574C8.6762 13.5494 7.3238 13.5494 6.28571 12.8574C5.50715 12.3383 4.49285 12.3383 3.71429 12.8574L3.5547 12.9638C2.87033 13.42 2.52814 13.6481 2.26407 13.5068C2 13.3655 2 12.9542 2 12.1317V10.0002Z" fill="#1C274C"/>
</svg>
