<svg width="24" height="24" viewBox="0 0 24 24" fill="none" xmlns="http://www.w3.org/2000/svg">
<path fill-rule="evenodd" clip-rule="evenodd" d="M3.46447 3.46483C2 4.9293 2 7.28632 2 12.0004C2 16.7144 2 19.0714 3.46447 20.5359C4.92893 22.0004 7.28595 22.0004 12 22.0004C16.714 22.0004 19.0711 22.0004 20.5355 20.5359C22 19.0714 22 16.7144 22 12.0004C22 7.28632 22 4.9293 20.5355 3.46483C19.0711 2.00037 16.714 2.00037 12 2.00037C7.28595 2.00037 4.92893 2.00037 3.46447 3.46483ZM17 12.667C17 16.9337 13.4444 18.0004 11.6667 18.0004C10.1111 18.0004 7 16.9337 7 12.667C7 10.8113 8.06292 9.63311 8.95593 9.04011C9.36421 8.76899 9.87201 8.94228 9.89841 9.43166C9.95616 10.5025 10.7814 11.3626 11.4205 10.5015C12.0054 9.71334 12.2941 8.64308 12.2941 8.00037C12.2941 7.05359 13.2525 6.45195 14.0008 7.03202C15.4593 8.16266 17 10.0562 17 12.667Z" fill="#1C274C"/>
</svg>
