<svg width="24" height="24" viewBox="0 0 24 24" fill="none" xmlns="http://www.w3.org/2000/svg">
<path d="M20 15.0006C20 19.2551 17.3819 21.122 15.3588 21.7516C14.9274 21.8858 14.6438 21.3829 14.9019 21.012C15.7823 19.7468 16.8 17.8164 16.8 16.0006C16.8 14.05 15.1559 11.7471 13.8721 10.3267C13.5786 10.0019 13.0667 10.2168 13.0507 10.6542C12.9976 12.1034 12.7689 14.0423 11.7828 15.5619C11.6241 15.8065 11.2872 15.8268 11.1063 15.5981C10.7982 15.2084 10.4901 14.727 10.182 14.3468C10.016 14.1419 9.71604 14.1391 9.52461 14.3204C8.77825 15.0271 7.73333 16.1291 7.73333 17.5006C7.73333 18.4304 8.0936 19.4053 8.50007 20.1897C8.72368 20.6212 8.32607 21.1406 7.89573 20.9148C6.11307 19.9792 4 18.0842 4 15.0006C4 11.8541 8.31029 7.49539 9.95605 3.37748C10.2157 2.72769 11.0161 2.42236 11.5727 2.8464C14.9439 5.41446 20 10.3787 20 15.0006Z" fill="#1C274C"/>
</svg>
