<svg width="24" height="24" viewBox="0 0 24 24" fill="none" xmlns="http://www.w3.org/2000/svg">
<path fill-rule="evenodd" clip-rule="evenodd" d="M12 11.7501C11.3096 11.7501 10.75 12.3098 10.75 13.0001C10.75 13.6905 11.3096 14.2501 12 14.2501C12.6904 14.2501 13.25 13.6905 13.25 13.0001C13.25 12.3098 12.6904 11.7501 12 11.7501Z" fill="#1C274C"/>
<path fill-rule="evenodd" clip-rule="evenodd" d="M22 11.798V14.0001C22 17.7714 22 19.657 20.8284 20.8285C19.6569 22.0001 17.7712 22.0001 14 22.0001H10C6.22876 22.0001 4.34315 22.0001 3.17157 20.8285C2 19.657 2 17.7714 2 14.0001V6.94987C2 6.06734 2 5.62607 2.06935 5.25851C2.37464 3.64043 3.64031 2.37476 5.25839 2.06947C5.62595 2.00012 6.06722 2.00012 6.94975 2.00012C7.33642 2.00012 7.52976 2.00012 7.71557 2.0175C8.51665 2.09241 9.27652 2.40716 9.89594 2.92064C10.0396 3.03974 10.1763 3.17645 10.4497 3.44987L11 4.00012C11.8158 4.8159 12.2237 5.22379 12.7121 5.49555C12.9804 5.64483 13.2651 5.76273 13.5604 5.8469C14.0979 6.00012 14.6747 6.00012 15.8284 6.00012H16.2021C18.8345 6.00012 20.1506 6.00012 21.0062 6.76959C21.0849 6.84037 21.1598 6.91526 21.2305 6.99395C22 7.84947 22 9.16566 22 11.798ZM12 10.2501C10.4812 10.2501 9.25 11.4813 9.25 13.0001C9.25 14.2589 10.0957 15.3201 11.25 15.6466V17.5001C11.25 17.9143 11.5858 18.2501 12 18.2501C12.4142 18.2501 12.75 17.9143 12.75 17.5001V15.6466C13.9043 15.3201 14.75 14.2589 14.75 13.0001C14.75 11.4813 13.5188 10.2501 12 10.2501Z" fill="#1C274C"/>
</svg>
