<svg width="24" height="24" viewBox="0 0 24 24" fill="none" xmlns="http://www.w3.org/2000/svg">
<path d="M16.0694 9.95195C17.3989 9.95189 18.5317 9.95185 19.436 10.0542C19.5895 10.0715 19.7425 10.0924 19.8943 10.1179C20.4264 10.2072 20.9447 10.3535 21.4242 10.6065V9.75591C21.4242 8.84699 21.4243 8.09291 21.3389 7.49168C21.2489 6.85716 21.0526 6.2947 20.5834 5.83258C20.5069 5.75719 20.4261 5.68564 20.3415 5.61819C19.8297 5.21036 19.2162 5.04357 18.5217 4.96621C17.8526 4.89167 17.0097 4.89169 15.9765 4.89171L15.6237 4.89171C14.6416 4.89171 14.2895 4.88599 13.9706 4.80545C13.7833 4.75814 13.6035 4.69207 13.4348 4.6089C13.1505 4.46879 12.9028 4.25774 12.2072 3.64144L11.7331 3.2214C11.5341 3.04501 11.3982 2.92462 11.2526 2.81768C10.6279 2.35891 9.86732 2.08144 9.07098 2.01546C8.88555 2.0001 8.69632 2.00012 8.41308 2.00014L8.29666 2.00013C7.65599 2.00002 7.23317 1.99995 6.86604 2.06132C5.26119 2.32959 3.96344 3.45155 3.64735 4.93587C3.57543 5.27357 3.57554 5.66047 3.57571 6.21865L3.57573 10.6065C4.05523 10.3535 4.57357 10.2072 5.1056 10.1179C5.25746 10.0924 5.41043 10.0715 5.56394 10.0542C6.46822 9.95185 7.60107 9.95189 8.93055 9.95195H16.0694Z" fill="#1C274C"/>
<path fill-rule="evenodd" clip-rule="evenodd" d="M3.35791 12.7789C2.74772 13.7203 2.99956 15.0293 3.50323 17.6472C3.8658 19.5318 4.04709 20.4741 4.67523 21.0994C4.8382 21.2616 5.02054 21.4054 5.2186 21.5279C5.98195 22.0001 6.99539 22.0001 9.02227 22.0001H15.9777C18.0046 22.0001 19.0181 22.0001 19.7814 21.5279C19.9795 21.4054 20.1618 21.2616 20.3248 21.0994C20.9529 20.4741 21.1342 19.5318 21.4968 17.6472C22.0004 15.0293 22.2523 13.7203 21.6421 12.7789C21.4864 12.5387 21.2943 12.3212 21.0721 12.1335C20.2011 11.3977 18.7933 11.3977 15.9777 11.3977H9.02227C6.20667 11.3977 4.79888 11.3977 3.92792 12.1335C3.70566 12.3212 3.51363 12.5387 3.35791 12.7789ZM9.69518 17.1808C9.69518 16.7816 10.0376 16.458 10.4601 16.458H14.5398C14.9622 16.458 15.3047 16.7816 15.3047 17.1808C15.3047 17.5801 14.9622 17.9037 14.5398 17.9037H10.4601C10.0376 17.9037 9.69518 17.5801 9.69518 17.1808Z" fill="#1C274C"/>
</svg>
