<svg width="24" height="24" viewBox="0 0 24 24" fill="none" xmlns="http://www.w3.org/2000/svg">
<path fill-rule="evenodd" clip-rule="evenodd" d="M2 6.94987C2 6.06734 2 5.62607 2.06935 5.25851C2.37464 3.64043 3.64031 2.37476 5.25839 2.06947C5.62595 2.00012 6.06722 2.00012 6.94975 2.00012C7.33642 2.00012 7.52976 2.00012 7.71557 2.0175C8.51665 2.09241 9.27652 2.40716 9.89594 2.92064C10.0396 3.03974 10.1763 3.17645 10.4497 3.44987L11 4.00012C11.8158 4.8159 12.2237 5.22379 12.7121 5.49555C12.9804 5.64483 13.2651 5.76273 13.5604 5.8469C14.0979 6.00012 14.6747 6.00012 15.8284 6.00012H16.2021C18.8345 6.00012 20.1506 6.00012 21.0062 6.76959C21.0849 6.84037 21.1598 6.91526 21.2305 6.99395C22 7.84947 22 9.16566 22 11.798V14.0001C22 17.7714 22 19.657 20.8284 20.8285C19.6569 22.0001 17.7712 22.0001 14 22.0001H10C6.22876 22.0001 4.34315 22.0001 3.17157 20.8285C2 19.657 2 17.7714 2 14.0001V6.94987ZM13 9.25012C12.5858 9.25012 12.25 9.58591 12.25 10.0001C12.25 10.4143 12.5858 10.7501 13 10.7501H18C18.4142 10.7501 18.75 10.4143 18.75 10.0001C18.75 9.58591 18.4142 9.25012 18 9.25012H13Z" fill="#1C274C"/>
<path d="M16.2835 3.00012C16.6492 3.00012 16.8321 3.00012 16.9856 3.02106C18.0043 3.15997 18.8144 3.96325 19 5.00012C18.8521 4.96594 18.6984 4.93951 18.5389 4.91874C17.8995 4.83548 17.0914 4.83549 16.089 4.8355L15.7546 4.8355C14.8128 4.8355 14.4559 4.83005 14.1304 4.73395C13.9415 4.67816 13.7594 4.60002 13.5877 4.50108C13.2919 4.33064 13.0359 4.07311 12.3699 3.38324L12 3.00012H16.2835Z" fill="#1C274C"/>
</svg>
