<svg width="24" height="24" viewBox="0 0 24 24" fill="none" xmlns="http://www.w3.org/2000/svg">
<path fill-rule="evenodd" clip-rule="evenodd" d="M2.06935 5.25851C2 5.62607 2 6.06734 2 6.94987V9.25012H21.9531C21.8809 8.2013 21.6973 7.51288 21.2305 6.99395C21.1598 6.91526 21.0849 6.84037 21.0062 6.76959C20.1506 6.00012 18.8345 6.00012 16.2021 6.00012H15.8284C14.6747 6.00012 14.0979 6.00012 13.5604 5.8469C13.2651 5.76273 12.9804 5.64483 12.7121 5.49555C12.2237 5.22379 11.8158 4.8159 11 4.00012L10.4497 3.44987C10.1763 3.17645 10.0396 3.03974 9.89594 2.92064C9.27652 2.40716 8.51665 2.09241 7.71557 2.0175C7.52976 2.00012 7.33642 2.00012 6.94975 2.00012C6.06722 2.00012 5.62595 2.00012 5.25839 2.06947C3.64031 2.37476 2.37464 3.64043 2.06935 5.25851ZM21.9978 10.7501H2V14.0001C2 17.7714 2 19.657 3.17157 20.8285C4.34315 22.0001 6.22876 22.0001 10 22.0001H14C17.7712 22.0001 19.6569 22.0001 20.8284 20.8285C22 19.657 22 17.7714 22 14.0001V11.798C22 11.4228 21.9978 10.7501 21.9978 10.7501Z" fill="#1C274C"/>
</svg>
