<svg width="24" height="24" viewBox="0 0 24 24" fill="none" xmlns="http://www.w3.org/2000/svg">
<path d="M8.38729 5.0794C8.2258 4.81195 8.05626 4.56222 7.8878 4.33484C9.04232 3.49539 10.4633 3.00024 12 3.00024C13.32 3.00024 14.5547 3.36561 15.6084 4.00072C15.5932 4.08983 15.5717 4.19078 15.5419 4.30316C15.4363 4.70228 15.2701 5.08319 15.1288 5.30555C15.0801 5.38222 14.8798 5.57804 14.5164 5.84878C14.3544 5.96948 14.1745 6.08032 13.9603 6.20835L13.886 6.25268C13.6985 6.3644 13.4839 6.49223 13.2771 6.63397C12.7891 6.96831 12.2809 7.42023 11.9391 8.15099C11.6919 8.67951 11.7089 9.19427 11.8182 9.60711C11.8539 9.74188 11.8735 9.87756 11.8738 9.99676C11.8739 10.0338 11.8594 10.093 11.7766 10.1622C11.6876 10.2366 11.5622 10.2815 11.4495 10.2802C10.3725 10.268 9.52299 9.376 9.3997 7.95295C9.306 6.87144 8.8641 5.86907 8.38729 5.0794Z" fill="#1C274C"/>
<path d="M16.6517 14.5092C16.9162 14.5064 17.1643 14.4891 17.3969 14.4585C16.5193 15.5197 15.3346 16.3178 13.9791 16.7166C13.9326 16.3352 13.9631 15.8769 14.1879 15.4533C14.3798 15.0917 14.8657 14.8199 15.5216 14.6587C15.8229 14.5847 16.1094 14.5467 16.3222 14.5276C16.4277 14.5181 16.5125 14.5135 16.569 14.5113C16.5972 14.5102 16.6181 14.5096 16.6308 14.5094L16.6429 14.5093L16.6517 14.5092Z" fill="#1C274C"/>
<path d="M5 10.0002C5 8.28087 5.6199 6.70628 6.64838 5.48778C6.74956 5.6313 6.85097 5.78521 6.94913 5.94778C7.35056 6.61262 7.66238 7.36391 7.72597 8.09796C7.89674 10.069 9.20746 11.9349 11.4305 11.9601C12.3923 11.971 13.5569 11.2481 13.5538 9.99258C13.5531 9.70508 13.5079 9.42493 13.4423 9.17713C13.4107 9.05785 13.4152 8.96044 13.4609 8.86272C13.6314 8.49811 13.8831 8.25522 14.2266 8.01988C14.3866 7.91027 14.5529 7.81111 14.7452 7.69638L14.8222 7.65039C15.0375 7.5217 15.283 7.37268 15.5202 7.19594C15.865 6.93902 16.3107 6.57818 16.5468 6.20647C16.7338 5.91224 16.907 5.53495 17.0412 5.14365C18.2541 6.40237 19 8.1142 19 10.0002C19 10.5326 18.9406 11.051 18.828 11.5493C18.7606 11.7489 18.6766 11.9355 18.5253 12.1318C18.2881 12.4395 17.8131 12.817 16.6342 12.8293L16.6282 12.8293L16.5995 12.8297C16.5758 12.8301 16.5432 12.831 16.5027 12.8326C16.4218 12.8358 16.3087 12.842 16.1721 12.8543C15.9008 12.8786 15.5264 12.9275 15.1206 13.0273C14.3624 13.2137 13.2498 13.6371 12.7039 14.6658C12.2731 15.4775 12.2246 16.3109 12.3216 16.993C12.215 16.9978 12.1078 17.0002 12 17.0002C8.13401 17.0002 5 13.8662 5 10.0002Z" fill="#1C274C"/>
<path fill-rule="evenodd" clip-rule="evenodd" d="M18.0035 1.50007C18.2797 1.19142 18.7539 1.16516 19.0625 1.4414C21.3246 3.46604 22.75 6.41068 22.75 9.68725C22.75 15.4386 18.3612 20.1649 12.75 20.6998V21.2503H14C14.4142 21.2503 14.75 21.586 14.75 22.0003C14.75 22.4145 14.4142 22.7503 14 22.7503H10C9.58579 22.7503 9.25001 22.4145 9.25001 22.0003C9.25001 21.586 9.58579 21.2503 10 21.2503H11.25V20.7418C8.14923 20.6213 5.37537 19.2238 3.44116 17.0628C3.16491 16.7541 3.19118 16.28 3.49982 16.0037C3.80847 15.7275 4.28261 15.7538 4.55886 16.0624C6.31098 18.02 8.85483 19.2503 11.687 19.2503C16.9685 19.2503 21.25 14.9687 21.25 9.68725C21.25 6.85507 20.0198 4.31123 18.0622 2.5591C17.7535 2.28286 17.7272 1.80871 18.0035 1.50007Z" fill="#1C274C"/>
</svg>
