<svg width="24" height="24" viewBox="0 0 24 24" fill="none" xmlns="http://www.w3.org/2000/svg">
<path d="M12.0002 1.25049C12.4144 1.25049 12.7502 1.58627 12.7502 2.00049V3.03696L17.7579 5.5408L17.8119 5.5678C18.5464 5.93496 19.1724 6.24792 19.608 6.55198C20.0498 6.86031 20.5142 7.30798 20.5142 8.00049C20.5142 8.69299 20.0498 9.14067 19.608 9.449C19.1724 9.75306 18.5464 10.066 17.8119 10.4332L12.7502 12.964V18.0005C12.7502 18.4147 12.4144 18.7505 12.0002 18.7505C11.586 18.7505 11.2502 18.4147 11.2502 18.0005V12.5167C11.2499 12.5063 11.2499 12.4958 11.2502 12.4854V3.51558C11.2499 3.50515 11.2499 3.4947 11.2502 3.48424V2.00049C11.2502 1.58627 11.586 1.25049 12.0002 1.25049Z" fill="#1C274C"/>
<path d="M12 22.0005C17.5228 22.0005 22 20.4335 22 18.5005C22 16.8383 18.6894 15.4467 14.2502 15.0895V18.0005C14.2502 19.2431 13.2428 20.2505 12.0002 20.2505C10.7575 20.2505 9.75016 19.2431 9.75016 18.0005V15.0894C5.31073 15.4467 2 16.8383 2 18.5005C2 20.4335 6.47715 22.0005 12 22.0005Z" fill="#1C274C"/>
<path d="M12.0002 1.25049C11.586 1.25049 11.2502 1.58627 11.2502 2.00049V3.48424C11.2499 3.4947 11.2499 3.50515 11.2502 3.51558V12.4854C11.2499 12.4958 11.2499 12.5063 11.2502 12.5167V15.0102V18.0005C11.2502 18.4147 11.586 18.7505 12.0002 18.7505C12.4144 18.7505 12.7502 18.4147 12.7502 18.0005V15.0102V12.964L17.8119 10.4332C18.5464 10.066 19.1724 9.75306 19.608 9.449C20.0498 9.14067 20.5142 8.69299 20.5142 8.00049C20.5142 7.30798 20.0498 6.86031 19.608 6.55198C19.1724 6.24792 18.5464 5.93496 17.8119 5.5678L12.7502 3.03696V2.00049C12.7502 1.58627 12.4144 1.25049 12.0002 1.25049Z" fill="#1C274C"/>
</svg>
