<svg width="24" height="24" viewBox="0 0 24 24" fill="none" xmlns="http://www.w3.org/2000/svg">
<path fill-rule="evenodd" clip-rule="evenodd" d="M2 12.0002C2 12.3856 2.31236 12.6979 2.69767 12.6979H4.59041C4.92078 16.2511 7.74914 19.0795 11.3023 19.4098V21.3026C11.3023 21.6879 11.6147 22.0002 12 22.0002C12.3853 22.0002 12.6977 21.6879 12.6977 21.3026V19.4098C16.2509 19.0795 19.0792 16.2511 19.4096 12.6979H21.3023C21.6876 12.6979 22 12.3856 22 12.0002C22 11.6149 21.6876 11.3026 21.3023 11.3026H19.4096C19.0792 7.74938 16.2509 4.92102 12.6977 4.59066V2.69792C12.6977 2.3126 12.3853 2.00024 12 2.00024C11.6147 2.00024 11.3023 2.3126 11.3023 2.69792V4.59066C7.74914 4.92102 4.92078 7.74938 4.59041 11.3026H2.69767C2.31236 11.3026 2 11.6149 2 12.0002ZM8.51163 12.0002C8.51163 10.0737 10.0734 8.51187 12 8.51187C13.9266 8.51187 15.4884 10.0737 15.4884 12.0002C15.4884 13.9268 13.9266 15.4886 12 15.4886C10.0734 15.4886 8.51163 13.9268 8.51163 12.0002Z" fill="#1C274C"/>
<path d="M9.90698 12.0002C9.90698 10.8443 10.8441 9.90722 12 9.90722C13.1559 9.90722 14.093 10.8443 14.093 12.0002C14.093 13.1562 13.1559 14.0933 12 14.0933C10.8441 14.0933 9.90698 13.1562 9.90698 12.0002Z" fill="#1C274C"/>
</svg>
