<svg width="24" height="24" viewBox="0 0 24 24" fill="none" xmlns="http://www.w3.org/2000/svg">
<path fill-rule="evenodd" clip-rule="evenodd" d="M4.41389 17.8592C4.77171 17.6505 5.23093 17.7714 5.43959 18.1293C6.26646 19.5472 7.53055 20.6195 9.08943 21.3152C9.46768 21.4841 9.63745 21.9276 9.46864 22.3058C9.29982 22.6841 8.85633 22.8538 8.47808 22.685C6.66657 21.8765 5.14677 20.6048 4.14382 18.8849C3.93516 18.5271 4.05607 18.0678 4.41389 17.8592Z" fill="#1C274C"/>
<path fill-rule="evenodd" clip-rule="evenodd" d="M18.9059 3.92209C17.892 2.88662 16.446 2.50467 15.0305 2.90745C14.6321 3.02081 14.2172 2.78974 14.1038 2.39134C13.9905 1.99294 14.2216 1.57808 14.62 1.46472C16.5581 0.913225 18.5746 1.43975 19.9776 2.87265C20.2674 3.16861 20.2624 3.64346 19.9665 3.93325C19.6705 4.22305 19.1957 4.21805 18.9059 3.92209Z" fill="#1C274C"/>
<path fill-rule="evenodd" clip-rule="evenodd" d="M11.1902 3.30854C10.9762 2.94146 10.3524 2.71885 9.7187 3.081C9.08735 3.44183 8.9763 4.07787 9.18664 4.43856L11.7123 8.76968C11.921 9.12749 11.8 9.58671 11.4422 9.79537C11.0844 10.004 10.6252 9.88312 10.4165 9.5253L7.04897 3.75047C6.83492 3.3834 6.21111 3.16078 5.57743 3.52293C4.94608 3.88376 4.83503 4.5198 5.04537 4.88049L8.83385 11.3772C9.04251 11.735 8.92159 12.1942 8.56377 12.4029C8.20596 12.6115 7.74673 12.4906 7.53807 12.1328L5.8543 9.24537C5.64025 8.8783 5.01644 8.65568 4.38276 9.01783C3.75141 9.37866 3.64036 10.0147 3.8507 10.3754L7.63918 16.8721C9.24812 19.6312 13.2185 20.5265 16.5855 18.6023C19.9501 16.6793 21.1462 12.8378 19.5409 10.0851L17.0153 5.75402C16.8012 5.38695 16.1774 5.16433 15.5437 5.52648C14.9124 5.88731 14.8013 6.52335 15.0117 6.88404L16.6954 9.77145C16.7962 9.94426 16.8238 10.1502 16.772 10.3434C16.7202 10.5366 16.5934 10.7012 16.4197 10.8004C14.8772 11.6819 14.4045 13.3865 15.0798 14.5445C15.2885 14.9023 15.1676 15.3615 14.8098 15.5702C14.4519 15.7789 13.9927 15.6579 13.7841 15.3001C12.8713 13.7349 13.2401 11.8503 14.419 10.5182C14.7486 10.1458 14.8615 9.60411 14.6109 9.17453L11.1902 3.30854Z" fill="#1C274C"/>
</svg>
