<svg width="24" height="24" viewBox="0 0 24 24" fill="none" xmlns="http://www.w3.org/2000/svg">
<path d="M6.25993 21.3885H6C5.05719 21.3885 4.58579 21.3885 4.29289 21.0956C4 20.8027 4 20.3313 4 19.3885V18.2766C4 17.7581 4 17.4988 4.13318 17.2673C4.26636 17.0358 4.46727 16.9189 4.8691 16.6852C7.51457 15.1466 11.2715 14.2804 13.7791 15.776C13.9475 15.8765 14.0991 15.9978 14.2285 16.1432C14.7866 16.7701 14.746 17.7162 14.1028 18.2776C13.9669 18.3962 13.8222 18.4861 13.6764 18.5173C13.7962 18.5034 13.911 18.4875 14.0206 18.47C14.932 18.3247 15.697 17.8376 16.3974 17.3086L18.2046 15.9434C18.8417 15.4621 19.7873 15.462 20.4245 15.9432C20.9982 16.3763 21.1736 17.0895 20.8109 17.6709C20.388 18.3488 19.7921 19.2161 19.2199 19.746C18.6469 20.2767 17.7939 20.7505 17.0975 21.0867C16.326 21.459 15.4738 21.6736 14.6069 21.8139C12.8488 22.0985 11.0166 22.055 9.27633 21.6965C8.29253 21.4938 7.27079 21.3885 6.25993 21.3885Z" fill="#1C274C"/>
<path d="M11.3592 9.20389C12.4209 10.2655 14.1421 10.2655 15.2038 9.20389C16.2654 8.14226 16.2654 6.421 15.2038 5.35937L14.4805 4.63608C14.1796 5.24141 13.6774 6.02978 12.8535 6.85365C12.0296 7.67759 11.2412 8.17979 10.6359 8.48057L11.3592 9.20389Z" fill="#1C274C"/>
<path d="M12.6408 2.79635C11.5791 1.73471 9.85786 1.73471 8.79623 2.79635C7.73459 3.85799 7.73459 5.57924 8.79623 6.64088L9.88237 7.72702C9.95791 7.69509 10.0398 7.65835 10.1273 7.61618C10.65 7.36427 11.3749 6.91804 12.1464 6.14654C12.9179 5.37505 13.3642 4.65008 13.6162 4.12727C13.6583 4.03986 13.695 3.95804 13.727 3.88255L12.6408 2.79635Z" fill="#1C274C"/>
</svg>
