<svg width="24" height="24" viewBox="0 0 24 24" fill="none" xmlns="http://www.w3.org/2000/svg">
<path fill-rule="evenodd" clip-rule="evenodd" d="M10.7226 3.20105C10.8335 2.80194 10.5998 2.38854 10.2007 2.27767C9.80163 2.16681 9.38822 2.40048 9.27736 2.79958L7.76327 8.25031H4C3.58579 8.25031 3.25 8.5861 3.25 9.00031C3.25 9.41453 3.58579 9.75031 4 9.75031H7.3466L5.81882 15.2503H2C1.58579 15.2503 1.25 15.5861 1.25 16.0003C1.25 16.4145 1.58579 16.7503 2 16.7503H5.40216L4.27736 20.7996C4.1665 21.1987 4.40016 21.6121 4.79927 21.723C5.19837 21.8338 5.61178 21.6001 5.72264 21.201L6.95895 16.7503H14.4022L13.2774 20.7996C13.1665 21.1987 13.4002 21.6121 13.7993 21.723C14.1984 21.8338 14.6118 21.6001 14.7226 21.201L15.959 16.7503H20C20.4142 16.7503 20.75 16.4145 20.75 16.0003C20.75 15.5861 20.4142 15.2503 20 15.2503H16.3756L17.9034 9.75031H22C22.4142 9.75031 22.75 9.41453 22.75 9.00031C22.75 8.5861 22.4142 8.25031 22 8.25031H18.3201L19.7226 3.20105C19.8335 2.80194 19.5998 2.38854 19.2007 2.27767C18.8016 2.16681 18.3882 2.40048 18.2774 2.79958L16.7633 8.25031H9.32006L10.7226 3.20105ZM14.8188 15.2503L16.3466 9.75031H8.9034L7.37562 15.2503H14.8188Z" fill="#1C274C"/>
</svg>
