<svg width="24" height="24" viewBox="0 0 24 24" fill="none" xmlns="http://www.w3.org/2000/svg">
<path d="M17.8144 21.2363L17.5433 21.6942C17.3017 22.1024 16.6982 22.1024 16.4567 21.6942L16.1856 21.2363C15.9754 20.8811 15.8702 20.7035 15.7014 20.6053C15.5325 20.5071 15.32 20.5034 14.8948 20.4961C14.2671 20.4853 13.8734 20.4468 13.5433 20.31C12.9307 20.0563 12.444 19.5696 12.1903 18.9571C12 18.4976 12 17.9152 12 16.7503V16.2503C12 14.6136 12 13.7952 12.3684 13.1941C12.5745 12.8577 12.8574 12.5749 13.1938 12.3687C13.7949 12.0003 14.6133 12.0003 16.25 12.0003H17.75C19.3867 12.0003 20.2051 12.0003 20.8062 12.3687C21.1426 12.5749 21.4255 12.8577 21.6316 13.1941C22 13.7952 22 14.6136 22 16.2503V16.7503C22 17.9152 22 18.4976 21.8097 18.9571C21.556 19.5696 21.0693 20.0563 20.4567 20.31C20.1266 20.4468 19.7329 20.4853 19.1052 20.4961C18.68 20.5034 18.4674 20.5071 18.2986 20.6053C18.1297 20.7035 18.0246 20.8811 17.8144 21.2363Z" fill="#1C274C"/>
<path fill-rule="evenodd" clip-rule="evenodd" d="M10.2007 2.27767C10.5998 2.38854 10.8335 2.80194 10.7226 3.20105L9.32006 8.25031H16.7633L18.2774 2.79958C18.3882 2.40048 18.8016 2.16681 19.2007 2.27767C19.5998 2.38854 19.8335 2.80194 19.7226 3.20105L18.3201 8.25031H22C22.4142 8.25031 22.75 8.5861 22.75 9.00031C22.75 9.41453 22.4142 9.75031 22 9.75031H17.9016C17.7716 10.1191 17.3761 10.3292 16.9937 10.223C16.7488 10.1549 16.5662 9.97297 16.4873 9.75031H8.9034L7.37562 15.2503H9C9.41421 15.2503 9.75 15.5861 9.75 16.0003C9.75 16.4145 9.41421 16.7503 9 16.7503H6.95895L5.72264 21.201C5.61178 21.6001 5.19837 21.8338 4.79927 21.723C4.40016 21.6121 4.1665 21.1987 4.27736 20.7996L5.40216 16.7503H2C1.58579 16.7503 1.25 16.4145 1.25 16.0003C1.25 15.5861 1.58579 15.2503 2 15.2503H5.81882L7.3466 9.75031H4C3.58579 9.75031 3.25 9.41453 3.25 9.00031C3.25 8.5861 3.58579 8.25031 4 8.25031H7.76327L9.27736 2.79958C9.38822 2.40048 9.80163 2.16681 10.2007 2.27767Z" fill="#1C274C"/>
</svg>
