<svg width="24" height="24" viewBox="0 0 24 24" fill="none" xmlns="http://www.w3.org/2000/svg">
<path d="M8.10627 18.2472C5.29819 16.0837 2 13.5425 2 9.13746C2 4.27453 7.50016 0.82583 12 5.501L14 7.49964C14.2929 7.79248 14.7678 7.7924 15.0607 7.49945C15.3535 7.20651 15.3534 6.73163 15.0605 6.43879L13.1285 4.50749C17.3685 1.40345 22 4.67501 22 9.13746C22 13.5425 18.7018 16.0837 15.8937 18.2472C15.6019 18.4721 15.3153 18.6929 15.0383 18.9112C14 19.7297 13 20.5004 12 20.5004C11 20.5004 10 19.7297 8.96173 18.9112C8.68471 18.6929 8.39814 18.4721 8.10627 18.2472Z" fill="#1C274C"/>
</svg>
