<svg width="24" height="24" viewBox="0 0 24 24" fill="none" xmlns="http://www.w3.org/2000/svg">
<path d="M2.34594 11.2503C2.12458 10.5869 2 9.92044 2 9.26068C2 3.34974 7.50016 0.662881 12 5.49901C16.4998 0.662881 22 3.34956 22 9.26064C22 9.92042 21.8754 10.5869 21.6541 11.2503H18.6361L18.5241 11.2502C17.9784 11.2493 17.4937 11.2485 17.0527 11.445C16.6116 11.6414 16.2879 12.0023 15.9233 12.4087L15.8485 12.492L14.8192 13.6356C14.7426 13.7208 14.68 13.7903 14.6247 13.8496C14.5723 13.7881 14.5128 13.7161 14.4401 13.628L10.8889 9.32343C10.7493 9.15416 10.6 8.97306 10.454 8.83865C10.2839 8.68212 10.0325 8.50606 9.68096 8.48494C9.32945 8.46383 9.05875 8.60854 8.87115 8.74358C8.71006 8.85954 8.54016 9.02147 8.38136 9.17282L6.85172 10.6296C6.37995 11.0789 6.28151 11.1555 6.17854 11.1967C6.07557 11.2379 5.9515 11.2503 5.3 11.2503H2.34594Z" fill="#1C274C"/>
<path d="M3.00441 12.7503C4.38539 15.3122 6.93029 17.7144 8.96173 19.371C10.2937 20.4571 10.9597 21.0002 12 21.0002C13.0403 21.0002 13.7063 20.4572 15.0383 19.371C17.0697 17.7144 19.6146 15.3123 20.9956 12.7503H18.6361C17.9119 12.7503 17.7746 12.7655 17.6629 12.8152C17.5513 12.8649 17.4481 12.9569 16.9634 13.4954L15.9086 14.6675C15.7507 14.8431 15.5839 15.0286 15.4235 15.163C15.2384 15.3182 14.9627 15.4923 14.5896 15.4843C14.2166 15.4763 13.9488 15.2907 13.7704 15.1276C13.616 14.9865 13.4574 14.7941 13.3074 14.612L9.75487 10.306C9.68734 10.2241 9.63239 10.1576 9.5839 10.1008C9.52897 10.1514 9.46645 10.2109 9.38961 10.284L7.81346 11.7853C7.4575 12.1253 7.14165 12.427 6.73563 12.5894C6.32961 12.7518 5.89282 12.7512 5.40054 12.7504L3.00441 12.7503Z" fill="#1C274C"/>
</svg>
