<svg width="24" height="24" viewBox="0 0 24 24" fill="none" xmlns="http://www.w3.org/2000/svg">
<path fill-rule="evenodd" clip-rule="evenodd" d="M7.75 7.00037C7.75 5.49004 8.1881 4.45338 8.8607 3.79283C9.5362 3.12944 10.545 2.75037 11.8718 2.75037C13.5394 2.75037 14.7129 3.34459 15.3621 4.39473C15.5798 4.74706 16.042 4.85612 16.3944 4.63832C16.7467 4.42052 16.8557 3.95834 16.6379 3.60601C15.6448 1.99934 13.9089 1.25037 11.8718 1.25037C10.2634 1.25037 8.83628 1.71443 7.80968 2.72262C6.78019 3.73365 6.25 5.19699 6.25 7.00037V7.28957C4.36604 7.98782 3 9.87366 3 12.0995C3 15.9378 5.96837 18.152 8.49565 20.0371C8.75832 20.2331 9.01624 20.4254 9.26556 20.6157C10.2 21.3289 11.1 22.0004 12 22.0004C12.9 22.0004 13.8 21.3289 14.7344 20.6157C14.9838 20.4254 15.2417 20.2331 15.5044 20.0371C18.0316 18.152 21 15.9378 21 12.0995C21 7.86233 16.0499 4.85738 12 8.93099C10.6105 7.53339 9.11513 6.96899 7.75 7.00171V7.00037ZM12 11.2504C12.4142 11.2504 12.75 11.5862 12.75 12.0004V14.5004C12.75 14.9146 12.4142 15.2504 12 15.2504C11.5858 15.2504 11.25 14.9146 11.25 14.5004V12.0004C11.25 11.5862 11.5858 11.2504 12 11.2504Z" fill="#1C274C"/>
</svg>
