<svg width="24" height="24" viewBox="0 0 24 24" fill="none" xmlns="http://www.w3.org/2000/svg">
<path fill-rule="evenodd" clip-rule="evenodd" d="M9.09958 2.39803C9.24874 2.78445 9.05641 3.21863 8.66999 3.3678C8.52855 3.42239 8.38879 3.48037 8.2508 3.54163C7.87221 3.7097 7.42906 3.53905 7.261 3.16046C7.09293 2.78188 7.26358 2.33873 7.64217 2.17066C7.80267 2.0994 7.96526 2.03196 8.12981 1.96844C8.51623 1.81927 8.95041 2.01161 9.09958 2.39803ZM5.6477 4.24075C5.93337 4.5407 5.92178 5.01544 5.62183 5.3011C5.51216 5.40554 5.40505 5.51265 5.30061 5.62232C5.01495 5.92227 4.54021 5.93385 4.24026 5.64819C3.94031 5.36253 3.92873 4.8878 4.21439 4.58785C4.33566 4.46051 4.46002 4.33615 4.58736 4.21488C4.88731 3.92922 5.36204 3.9408 5.6477 4.24075ZM3.15997 7.26149C3.53856 7.42955 3.70921 7.8727 3.54114 8.25129C3.47988 8.38928 3.42191 8.52904 3.36731 8.67048C3.21814 9.0569 2.78396 9.24923 2.39754 9.10006C2.01112 8.9509 1.81878 8.51672 1.96795 8.13029C2.03147 7.96575 2.09892 7.80316 2.17017 7.64266C2.33824 7.26407 2.78139 7.09342 3.15997 7.26149ZM2.02109 11.0045C2.43518 11.0145 2.76276 11.3583 2.75275 11.7724C2.75092 11.8482 2.75 11.9242 2.75 12.0005C2.75 12.0767 2.75092 12.1528 2.75275 12.2285C2.76276 12.6426 2.43518 12.9864 2.02109 12.9964C1.60699 13.0064 1.26319 12.6789 1.25319 12.2648C1.25107 12.1769 1.25 12.0888 1.25 12.0005C1.25 11.9122 1.25107 11.8241 1.25319 11.7362C1.26319 11.3221 1.60699 10.9945 2.02109 11.0045ZM21.6025 14.9009C21.9889 15.0501 22.1812 15.4843 22.032 15.8707C21.9685 16.0352 21.9011 16.1978 21.8298 16.3583C21.6618 16.7369 21.2186 16.9076 20.84 16.7395C20.4614 16.5714 20.2908 16.1283 20.4589 15.7497C20.5201 15.6117 20.5781 15.4719 20.6327 15.3305C20.7819 14.9441 21.216 14.7517 21.6025 14.9009ZM2.39754 14.9009C2.78396 14.7517 3.21814 14.9441 3.36731 15.3305C3.42191 15.4719 3.47988 15.6117 3.54114 15.7497C3.70921 16.1283 3.53856 16.5714 3.15997 16.7395C2.78139 16.9076 2.33824 16.7369 2.17017 16.3583C2.09892 16.1978 2.03147 16.0352 1.96795 15.8707C1.81878 15.4843 2.01112 15.0501 2.39754 14.9009ZM19.7597 18.3528C20.0597 18.6384 20.0713 19.1132 19.7856 19.4131C19.6643 19.5405 19.54 19.6648 19.4126 19.7861C19.1127 20.0718 18.638 20.0602 18.3523 19.7602C18.0666 19.4603 18.0782 18.9855 18.3782 18.6999C18.4878 18.5954 18.5949 18.4883 18.6994 18.3787C18.9851 18.0787 19.4598 18.0671 19.7597 18.3528ZM4.24026 18.3528C4.54021 18.0671 5.01495 18.0787 5.30061 18.3787C5.40506 18.4883 5.51216 18.5954 5.62183 18.6999C5.92178 18.9855 5.93337 19.4603 5.6477 19.7602C5.36204 20.0602 4.88731 20.0718 4.58736 19.7861C4.46003 19.6648 4.33566 19.5405 4.21439 19.4131C3.92873 19.1132 3.94031 18.6384 4.24026 18.3528ZM7.261 20.8405C7.42907 20.4619 7.87221 20.2913 8.2508 20.4593C8.38879 20.5206 8.52855 20.5786 8.66999 20.6332C9.05641 20.7823 9.24874 21.2165 9.09958 21.6029C8.95041 21.9894 8.51623 22.1817 8.12981 22.0325C7.96526 21.969 7.80267 21.9016 7.64217 21.8303C7.26358 21.6622 7.09293 21.2191 7.261 20.8405ZM16.739 20.8405C16.9071 21.2191 16.7364 21.6622 16.3578 21.8303C16.1973 21.9016 16.0347 21.969 15.8702 22.0325C15.4838 22.1817 15.0496 21.9894 14.9004 21.6029C14.7513 21.2165 14.9436 20.7823 15.33 20.6332C15.4714 20.5786 15.6112 20.5206 15.7492 20.4593C16.1278 20.2913 16.5709 20.4619 16.739 20.8405ZM11.004 21.9794C11.0141 21.5653 11.3579 21.2377 11.7719 21.2477C11.8477 21.2496 11.9237 21.2505 12 21.2505C12.0763 21.2505 12.1523 21.2496 12.2281 21.2477C12.6421 21.2377 12.9859 21.5653 12.996 21.9794C13.006 22.3935 12.6784 22.7373 12.2643 22.7473C12.1764 22.7494 12.0883 22.7505 12 22.7505C11.9117 22.7505 11.8236 22.7494 11.7357 22.7473C11.3216 22.7373 10.994 22.3935 11.004 21.9794Z" fill="#1C274C"/>
<path fill-rule="evenodd" clip-rule="evenodd" d="M12 2.75049C17.1086 2.75049 21.25 6.89185 21.25 12.0005C21.25 12.4147 21.5858 12.7505 22 12.7505C22.4142 12.7505 22.75 12.4147 22.75 12.0005C22.75 6.06343 17.9371 1.25049 12 1.25049C11.5858 1.25049 11.25 1.58627 11.25 2.00049C11.25 2.4147 11.5858 2.75049 12 2.75049Z" fill="#1C274C"/>
<path fill-rule="evenodd" clip-rule="evenodd" d="M12 8.25049C12.4142 8.25049 12.75 8.58627 12.75 9.00049V12.2505H16C16.4142 12.2505 16.75 12.5863 16.75 13.0005C16.75 13.4147 16.4142 13.7505 16 13.7505H12C11.5858 13.7505 11.25 13.4147 11.25 13.0005V9.00049C11.25 8.58627 11.5858 8.25049 12 8.25049Z" fill="#1C274C"/>
</svg>
