<svg width="24" height="24" viewBox="0 0 24 24" fill="none" xmlns="http://www.w3.org/2000/svg">
<path d="M5.19825 3.29967C5.80046 2.00049 7.86697 2.00049 12 2.00049C16.133 2.00049 18.1995 2.00049 18.8017 3.29967C18.8535 3.41134 18.8972 3.52734 18.9323 3.64658C19.3414 5.03378 17.8802 6.6416 14.9577 9.85723L13 12.0005L14.9577 14.1437C17.8802 17.3594 19.3414 18.9672 18.9323 20.3544C18.8972 20.4736 18.8535 20.5896 18.8017 20.7013C18.1995 22.0005 16.133 22.0005 12 22.0005C7.86697 22.0005 5.80046 22.0005 5.19825 20.7013C5.14649 20.5896 5.10282 20.4736 5.06765 20.3544C4.65857 18.9672 6.11981 17.3594 9.0423 14.1437L11 12.0005L9.0423 9.85723C6.11981 6.6416 4.65857 5.03378 5.06765 3.64658C5.10282 3.52734 5.14649 3.41134 5.19825 3.29967Z" fill="#1C274C"/>
</svg>
