<svg width="24" height="24" viewBox="0 0 24 24" fill="none" xmlns="http://www.w3.org/2000/svg">
<path fill-rule="evenodd" clip-rule="evenodd" d="M2 12.0002C2 7.2862 2 4.92918 3.46447 3.46471C4.92893 2.00024 7.28595 2.00024 12 2.00024C16.714 2.00024 19.0711 2.00024 20.5355 3.46471C22 4.92918 22 7.2862 22 12.0002C22 16.7143 22 19.0713 20.5355 20.5358C19.0711 22.0002 16.714 22.0002 12 22.0002C7.28595 22.0002 4.92893 22.0002 3.46447 20.5358C2 19.0713 2 16.7143 2 12.0002ZM5 8.50006V7.50024C5 6.67182 5.67157 6.00024 6.5 6.00024H17.5C18.3284 6.00024 19 6.67182 19 7.50024V8.50006C18.5822 8.18622 18.0628 8.00024 17.5 8.00024H6.5C5.9372 8.00024 5.41783 8.18622 5 8.50006ZM5 10.5002V11.5001C5.41783 11.1862 5.9372 11.0002 6.5 11.0002H17.5C18.0628 11.0002 18.5822 11.1862 19 11.5001V10.5002C19 9.67182 18.3284 9.00024 17.5 9.00024H6.5C5.67157 9.00024 5 9.67182 5 10.5002ZM20 14.2504C20.4142 14.2504 20.75 14.5862 20.75 15.0004C20.75 15.4146 20.4142 15.7504 20 15.7504H17.6569C16.7782 15.7504 16.5477 15.7637 16.3501 15.8455C16.1524 15.9274 15.9801 16.081 15.3588 16.7023L15.0543 17.0069C14.6223 17.4396 14.2811 17.7814 13.8467 17.9867C13.7658 18.0249 13.683 18.0592 13.5987 18.0894C13.1464 18.2514 12.6634 18.251 12.052 18.2505L11.9462 18.2504L11.834 18.2505C11.1877 18.251 10.6771 18.2515 10.2035 18.0721C10.1153 18.0387 10.0289 18.0008 9.94463 17.9585C9.49191 17.7314 9.14654 17.3553 8.70937 16.8793L8.59805 16.7582C8.00971 16.1187 7.84554 15.9593 7.65508 15.8696C7.63492 15.8601 7.6145 15.8511 7.59386 15.8427C7.39887 15.7633 7.17044 15.7504 6.30147 15.7504H4C3.58579 15.7504 3.25 15.4146 3.25 15.0004C3.25 14.5862 3.58579 14.2504 4 14.2504L5.02051 14.2504V13.2506C5.13939 12.541 5.75646 12.0002 6.49983 12.0002H17.4998C18.2432 12.0002 18.8603 12.541 18.9791 13.2506V14.2504L20 14.2504Z" fill="#1C274C"/>
</svg>
