<svg width="24" height="24" viewBox="0 0 24 24" fill="none" xmlns="http://www.w3.org/2000/svg">
<path d="M3.46447 20.5358C4.92893 22.0002 7.28595 22.0002 12 22.0002C16.714 22.0002 19.0711 22.0002 20.5355 20.5358C21.8063 19.265 21.9744 17.3221 21.9966 13.7502H18.8397C17.8659 13.7502 17.6113 13.7663 17.3975 13.8646C17.1838 13.9629 17.0059 14.1458 16.3722 14.8852L15.7667 15.5915L15.6794 15.6935C15.1773 16.2806 14.7796 16.7455 14.2292 16.9987C13.6789 17.2518 13.067 17.2512 12.2945 17.2503L12.1603 17.2502H11.8397L11.7055 17.2503C10.933 17.2512 10.3211 17.2518 9.77076 16.9987C9.22038 16.7455 8.82271 16.2806 8.32058 15.6935L8.23327 15.5915L7.62784 14.8852C6.9941 14.1458 6.81622 13.9629 6.60245 13.8646C6.38869 13.7663 6.13407 13.7502 5.16026 13.7502H2.00339C2.02561 17.3221 2.19367 19.265 3.46447 20.5358Z" fill="#1C274C"/>
<path d="M20.5355 3.46471C19.0711 2.00024 16.714 2.00024 12 2.00024C7.28595 2.00024 4.92893 2.00024 3.46447 3.46471C2 4.92918 2 7.2862 2 12.0002L2.00001 12.2502H5.16026L5.29454 12.2502H5.29455C6.06705 12.2493 6.67886 12.2487 7.22924 12.5018C7.77961 12.755 8.17729 13.2199 8.67941 13.807L8.76673 13.909L9.37216 14.6153C10.0059 15.3547 10.1838 15.5376 10.3975 15.6359C10.6113 15.7342 10.8659 15.7502 11.8397 15.7502H12.1603C13.1341 15.7502 13.3887 15.7342 13.6025 15.6359C13.8162 15.5376 13.9941 15.3547 14.6278 14.6153L15.2333 13.909L15.3206 13.807C15.8227 13.2199 16.2204 12.755 16.7708 12.5018C17.3211 12.2487 17.933 12.2493 18.7055 12.2502L18.8397 12.2502H22L22 12.0002C22 7.2862 22 4.92918 20.5355 3.46471Z" fill="#1C274C"/>
</svg>
