<svg width="24" height="24" viewBox="0 0 24 24" fill="none" xmlns="http://www.w3.org/2000/svg">
<path d="M5.68421 2.75012C4.06369 2.75012 2.75 4.06381 2.75 5.68433C2.75 6.09855 2.41421 6.43433 2 6.43433C1.58579 6.43433 1.25 6.09855 1.25 5.68433C1.25 3.23539 3.23526 1.25012 5.68421 1.25012C8.13316 1.25012 10.1184 3.23539 10.1184 5.68433V11.7411C9.76603 11.9203 9.43462 12.1254 9.1444 12.3595C8.97145 12.499 8.7873 12.6707 8.61842 12.8747V5.68433C8.61842 4.06381 7.30473 2.75012 5.68421 2.75012Z" fill="#1C274C"/>
<path d="M8.63308 16.1431C8.86947 19.8316 11.936 22.7501 15.6842 22.7501C19.356 22.7501 22.3736 19.9494 22.7174 16.3678C22.6491 16.4416 22.5794 16.5107 22.5096 16.5753C22.007 17.0393 21.3655 17.3923 20.7078 17.6584C19.3839 18.1941 17.6884 18.5002 16 18.5002C14.3146 18.5002 12.5143 18.1951 11.0918 17.6775C10.3865 17.4208 9.69209 17.0825 9.14439 16.6407C8.97643 16.5052 8.79792 16.3394 8.63308 16.1431Z" fill="#1C274C"/>
<path d="M22 14.5001C22 15.8808 19.0539 17.0002 16 17.0002C12.9461 17.0002 9.5 15.8808 9.5 14.5001C9.5 13.1194 12.9461 12.0001 16 12.0001C19.0539 12.0001 22 13.1194 22 14.5001Z" fill="#1C274C"/>
</svg>
