<svg width="24" height="24" viewBox="0 0 24 24" fill="none" xmlns="http://www.w3.org/2000/svg">
<path d="M11.25 2.08295C11.0066 2.1372 10.7675 2.21819 10.5371 2.32591C6.55332 4.18794 4 9.39489 4 13.8571C4 18.097 7.18341 21.5802 11.25 21.965V2.08295Z" fill="#1C274C"/>
<path d="M12.75 21.965C16.8166 21.5802 20 18.097 20 13.8571C20 13.451 19.9789 13.0389 19.9374 12.6236L12.75 19.811V21.965Z" fill="#1C274C"/>
<path d="M18.2597 7.18C17.8707 6.45518 17.4222 5.76851 16.92 5.14105L12.75 9.31101V12.6897L18.2597 7.18Z" fill="#1C274C"/>
<path d="M15.9084 4.03125C15.1732 3.32601 14.3538 2.74232 13.4629 2.32591C13.2325 2.21819 12.9934 2.1372 12.75 2.08295V7.18969L15.9084 4.03125Z" fill="#1C274C"/>
<path d="M18.9364 8.62458L12.75 14.811V17.6897L19.5 10.9397L19.6319 10.8078C19.458 10.0701 19.2246 9.33669 18.9364 8.62458Z" fill="#1C274C"/>
</svg>
