<svg width="24" height="24" viewBox="0 0 24 24" fill="none" xmlns="http://www.w3.org/2000/svg">
<path d="M20.2696 16.2653L20.9751 12.1856C21.1514 11.1666 20.3677 10.2346 19.3348 10.2346H14.1537C13.6402 10.2346 13.2491 9.77365 13.3323 9.26635L13.9949 5.22179C14.1026 4.56471 14.0719 3.89237 13.9047 3.24789C13.7662 2.71401 13.3543 2.28532 12.8126 2.11129L12.6676 2.06472C12.3402 1.95955 11.9829 1.98402 11.6742 2.13276C11.3344 2.29648 11.0859 2.5951 10.9938 2.95025L10.518 4.78411C10.3667 5.3676 10.1462 5.93082 9.86194 6.46298C9.44659 7.24054 8.8044 7.86283 8.13687 8.43806L6.69813 9.67785C6.29247 10.0274 6.07944 10.5509 6.1256 11.0848L6.93776 20.4774C7.01226 21.339 7.73256 22.0004 8.59634 22.0004H13.245C16.7263 22.0004 19.6973 19.5748 20.2696 16.2653Z" fill="#1C274C"/>
<path fill-rule="evenodd" clip-rule="evenodd" d="M2.96767 9.48543C3.36893 9.46812 3.71261 9.76998 3.74721 10.1701L4.71881 21.4066C4.78122 22.1284 4.21268 22.7505 3.48671 22.7505C2.80289 22.7505 2.25 22.1958 2.25 21.5133V10.2347C2.25 9.8331 2.5664 9.50275 2.96767 9.48543Z" fill="#1C274C"/>
</svg>
