<svg width="24" height="24" viewBox="0 0 24 24" fill="none" xmlns="http://www.w3.org/2000/svg">
<path fill-rule="evenodd" clip-rule="evenodd" d="M2.25 6.00024C2.25 5.58603 2.58579 5.25024 3 5.25024H20C20.4142 5.25024 20.75 5.58603 20.75 6.00024C20.75 6.41446 20.4142 6.75024 20 6.75024H3C2.58579 6.75024 2.25 6.41446 2.25 6.00024ZM2.25 11.0002C2.25 10.586 2.58579 10.2502 3 10.2502H9C9.41421 10.2502 9.75 10.586 9.75 11.0002C9.75 11.4145 9.41421 11.7502 9 11.7502H3C2.58579 11.7502 2.25 11.4145 2.25 11.0002ZM2.25 16.0002C2.25 15.586 2.58579 15.2502 3 15.2502H10C10.4142 15.2502 10.75 15.586 10.75 16.0002C10.75 16.4145 10.4142 16.7502 10 16.7502H3C2.58579 16.7502 2.25 16.4145 2.25 16.0002Z" fill="#1C274C"/>
<path d="M13 11.715C13 13.4676 15.1633 15.3307 16.4901 16.3085C16.9442 16.6432 17.1713 16.8106 17.5 16.8106C17.8287 16.8106 18.0558 16.6432 18.5099 16.3085C19.8367 15.3307 22 13.4676 22 11.715C22 9.03783 19.5249 8.0383 17.5 10.1064C15.4751 8.0383 13 9.03783 13 11.715Z" fill="#1C274C"/>
</svg>
