<svg width="24" height="24" viewBox="0 0 24 24" fill="none" xmlns="http://www.w3.org/2000/svg">
<path fill-rule="evenodd" clip-rule="evenodd" d="M17.8194 19.7011C17.7302 18.6069 18.6357 17.6934 19.7205 17.7835C19.9086 17.7991 20.1337 17.8675 20.363 17.9372C20.3851 17.944 20.4073 17.9507 20.4294 17.9574C20.4494 17.9634 20.4694 17.9694 20.4894 17.9754C20.7001 18.0388 20.9097 18.1018 21.0692 18.1879C21.9844 18.6823 22.2799 19.8636 21.7067 20.7368C21.6068 20.8888 21.4519 21.0446 21.2962 21.2012C21.2814 21.2161 21.2666 21.231 21.2519 21.2458C21.2371 21.2607 21.2224 21.2756 21.2076 21.2906C21.0524 21.4476 20.898 21.6039 20.7472 21.7046C19.8816 22.2828 18.7105 21.9848 18.2204 21.0615C18.135 20.9007 18.0726 20.6893 18.0097 20.4767C18.0038 20.4566 17.9978 20.4364 17.9918 20.4162C17.9852 20.3939 17.9785 20.3715 17.9719 20.3493C17.9028 20.118 17.8349 19.8908 17.8194 19.7011Z" fill="#1C274C"/>
<path fill-rule="evenodd" clip-rule="evenodd" d="M20.1278 11.1434C20.1278 16.1929 16.0697 20.2863 11.0639 20.2863C6.05804 20.2863 2 16.1929 2 11.1434C2 6.0939 6.05804 2.00049 11.0639 2.00049C16.0697 2.00049 20.1278 6.0939 20.1278 11.1434ZM8.18952 7.86085C8.84337 7.03256 9.85925 6.50049 11.0001 6.50049C12.1409 6.50049 13.1568 7.03256 13.8106 7.86085L14.4902 7.52287C14.843 7.34738 15.272 7.48964 15.4485 7.84063C15.6249 8.19161 15.4819 8.6184 15.129 8.7939L14.4502 9.13155C14.5293 9.42545 14.5715 9.73438 14.5715 10.0531V10.29H15.2857C15.6802 10.29 16 10.6081 16 11.0005C16 11.3929 15.6802 11.711 15.2857 11.711H14.5715V11.9479C14.5715 12.2666 14.5293 12.5755 14.4502 12.8694L15.129 13.2071C15.4819 13.3826 15.6249 13.8094 15.4485 14.1604C15.272 14.5113 14.843 14.6536 14.4902 14.4781L13.8106 14.1401C13.1568 14.9684 12.1409 15.5005 11.0001 15.5005C9.85925 15.5005 8.84337 14.9684 8.18952 14.1401L7.50998 14.4781C7.15714 14.6536 6.72809 14.5113 6.55167 14.1604C6.37525 13.8094 6.51826 13.3826 6.87111 13.2071L7.54998 12.8694C7.47084 12.5755 7.42864 12.2666 7.42864 11.9479V11.711H6.71429C6.3198 11.711 6 11.3929 6 11.0005C6 10.6081 6.3198 10.29 6.71429 10.29H7.42864V10.0531C7.42864 9.73438 7.47084 9.42545 7.54998 9.13155L6.87111 8.7939C6.51826 8.6184 6.37525 8.19161 6.55167 7.84063C6.72809 7.48964 7.15714 7.34738 7.50998 7.52287L8.18952 7.86085Z" fill="#1C274C"/>
<path d="M11.7144 13.9581V10.7636H13.1429V11.9479C13.1429 12.876 12.5466 13.6655 11.7144 13.9581Z" fill="#1C274C"/>
<path d="M8.85721 11.9479V10.7636H10.2858V13.9581C9.4535 13.6655 8.85721 12.876 8.85721 11.9479Z" fill="#1C274C"/>
<path d="M8.97914 9.34259C9.27331 8.51469 10.0671 7.92154 11.0001 7.92154C11.9331 7.92154 12.7268 8.51469 13.021 9.34259H8.97914Z" fill="#1C274C"/>
</svg>
