<svg width="24" height="24" viewBox="0 0 24 24" fill="none" xmlns="http://www.w3.org/2000/svg">
<path fill-rule="evenodd" clip-rule="evenodd" d="M12 2.00024C7.58172 2.00024 4 5.64612 4 10.1435C4 14.6057 6.55332 19.8127 10.5371 21.6747C11.4657 22.1088 12.5343 22.1088 13.4629 21.6747C17.4467 19.8127 20 14.6057 20 10.1435C20 5.64612 16.4183 2.00024 12 2.00024ZM9 8.75758C9 9.77717 10.1649 10.8545 11.0429 11.5218C11.4626 11.8407 11.6725 12.0002 12 12.0002C12.3275 12.0002 12.5374 11.8408 12.9571 11.5218C13.8351 10.8545 15 9.77719 15 8.75757C15 7.02458 13.35 6.37756 12 7.71629C10.65 6.37756 9 7.02458 9 8.75758Z" fill="#1C274C"/>
</svg>
