<svg width="24" height="24" viewBox="0 0 24 24" fill="none" xmlns="http://www.w3.org/2000/svg">
<path d="M12 22.0006C17.5228 22.0006 22 19.9858 22 17.5006C22 16.2339 20.837 15.0895 18.9654 14.2717C17.8233 16.3676 16.0817 18.1741 13.8695 19.1194C12.6804 19.6276 11.3196 19.6276 10.1305 19.1194C7.91828 18.1741 6.17666 16.3676 5.03458 14.2717C3.16295 15.0895 2 16.2339 2 17.5006C2 19.9858 6.47715 22.0006 12 22.0006Z" fill="#1C274C"/>
<path fill-rule="evenodd" clip-rule="evenodd" d="M5 8.51488C5 4.91695 8.13401 2.00024 12 2.00024C15.866 2.00024 19 4.91695 19 8.51488C19 12.0846 16.7658 16.2502 13.2801 17.7398C12.4675 18.0871 11.5325 18.0871 10.7199 17.7398C7.23416 16.2502 5 12.0846 5 8.51488ZM12 11.0002C13.1046 11.0002 14 10.1048 14 9.00024C14 7.89567 13.1046 7.00024 12 7.00024C10.8954 7.00024 10 7.89567 10 9.00024C10 10.1048 10.8954 11.0002 12 11.0002Z" fill="#1C274C"/>
</svg>
