<svg width="24" height="24" viewBox="0 0 24 24" fill="none" xmlns="http://www.w3.org/2000/svg">
<path fill-rule="evenodd" clip-rule="evenodd" d="M13.4629 21.6747C12.5343 22.1088 11.4657 22.1088 10.5371 21.6747C6.55332 19.8127 4 14.6057 4 10.1435C4 5.64612 7.58172 2.00024 12 2.00024C16.4183 2.00024 20 5.64612 20 10.1435C20 14.6057 17.4467 19.8127 13.4629 21.6747ZM10.9666 5.93205C11.6301 5.68964 12.3698 5.68964 13.0334 5.93205L15.3753 6.78759C15.9163 6.98524 16.25 7.46768 16.25 8.00025C16.25 8.53282 15.9163 9.01526 15.3753 9.21291L15.25 9.25868V11.7004C15.25 12.3735 14.856 13.029 14.1693 13.2824C13.6442 13.4762 12.779 13.7502 12 13.7502C11.221 13.7502 10.3558 13.4762 9.83069 13.2824C9.14396 13.029 8.75 12.3735 8.75 11.7004V9.25867L8.62471 9.2129C8.08368 9.01525 7.75 8.53281 7.75 8.00024C7.75 7.46767 8.08368 6.98522 8.62471 6.78758L10.9666 5.93205Z" fill="#1C274C"/>
<path fill-rule="evenodd" clip-rule="evenodd" d="M11.4813 7.34098C11.8125 7.22 12.1875 7.22 12.5187 7.34098L14.3233 8.00025L12.5187 8.65951C12.1875 8.78049 11.8125 8.78049 11.4813 8.65951L9.67667 8.00024L11.4813 7.34098Z" fill="#1C274C"/>
<path d="M10.25 11.7004V9.80664L10.9666 10.0684C11.6302 10.3108 12.3699 10.3108 13.0334 10.0684L13.75 9.80666V11.7004C13.75 11.8053 13.6931 11.8592 13.65 11.8751C13.1488 12.0601 12.4959 12.2502 12 12.2502C11.5041 12.2502 10.8512 12.0601 10.35 11.8751C10.3069 11.8592 10.25 11.8053 10.25 11.7004Z" fill="#1C274C"/>
</svg>
