<svg width="24" height="24" viewBox="0 0 24 24" fill="none" xmlns="http://www.w3.org/2000/svg">
<path fill-rule="evenodd" clip-rule="evenodd" d="M13.436 5.78347C12.5407 5.29532 11.4588 5.29532 10.5636 5.78347L5.76937 8.39765C4.80539 8.92329 4.20557 9.93355 4.20557 11.0315V15.9692C4.20557 17.0672 4.80539 18.0774 5.76937 18.6031L10.5636 21.2172C11.4588 21.7054 12.5407 21.7054 13.436 21.2172L18.2302 18.6031C19.1942 18.0774 19.794 17.0672 19.794 15.9692V11.0315C19.794 9.93355 19.1942 8.92328 18.2302 8.39765L13.436 5.78347ZM12 10.5004C11.7159 10.5004 11.5259 10.8412 11.1459 11.5229L11.0476 11.6992C10.9397 11.8929 10.8857 11.9898 10.8015 12.0537C10.7173 12.1176 10.6125 12.1413 10.4028 12.1888L10.2119 12.232C9.47396 12.3989 9.10501 12.4824 9.01723 12.7647C8.92945 13.047 9.18097 13.3411 9.68403 13.9293L9.81418 14.0815C9.95713 14.2487 10.0286 14.3323 10.0608 14.4357C10.0929 14.5391 10.0821 14.6506 10.0605 14.8736L10.0408 15.0767C9.96476 15.8615 9.92674 16.254 10.1565 16.4284C10.3864 16.6029 10.7318 16.4438 11.4227 16.1257L11.6014 16.0434C11.7978 15.953 11.8959 15.9078 12 15.9078C12.1041 15.9078 12.2022 15.953 12.3986 16.0434L12.5773 16.1257C13.2682 16.4438 13.6136 16.6029 13.8435 16.4284C14.0733 16.254 14.0352 15.8615 13.9592 15.0767L13.9395 14.8736C13.9179 14.6506 13.9071 14.5391 13.9392 14.4357C13.9714 14.3323 14.0429 14.2487 14.1858 14.0815L14.316 13.9293C14.819 13.3411 15.0706 13.047 14.9828 12.7647C14.895 12.4824 14.526 12.3989 13.7881 12.232L13.5972 12.1888C13.3875 12.1413 13.2827 12.1176 13.1985 12.0537C13.1143 11.9898 13.0603 11.8929 12.9524 11.6992L12.8541 11.5229C12.4741 10.8412 12.2841 10.5004 12 10.5004Z" fill="#1C274C"/>
<path d="M11 2.00037H13C14.8856 2.00037 15.8284 2.00037 16.4142 2.58615C17 3.17194 17 4.11475 17 6.00037V6.01834L14.1541 4.46653C12.8112 3.7343 11.1884 3.7343 9.84551 4.46653L7 6.01811V6.00037C7 4.11475 7 3.17194 7.58579 2.58615C8.17157 2.00037 9.11438 2.00037 11 2.00037Z" fill="#1C274C"/>
</svg>
