<svg width="24" height="24" viewBox="0 0 24 24" fill="none" xmlns="http://www.w3.org/2000/svg">
<path d="M14.4999 4.50049C14.4999 5.8812 13.3806 7.00049 11.9999 7.00049C10.6192 7.00049 9.49992 5.8812 9.49992 4.50049C9.49992 3.11978 10.6192 2.00049 11.9999 2.00049C13.3806 2.00049 14.4999 3.11978 14.4999 4.50049Z" fill="#1C274C"/>
<path fill-rule="evenodd" clip-rule="evenodd" d="M12.8687 9.82257C12.298 9.72646 11.7018 9.72646 11.1312 9.82257C8.62348 10.245 6.74992 12.4466 6.74992 15.0201C6.74992 15.5846 6.43424 16.1054 5.92703 16.3617L3.33816 17.6699C2.96847 17.8567 2.51733 17.7084 2.33052 17.3387C2.14371 16.969 2.29198 16.5179 2.66167 16.3311L5.24917 15.0236L5.24992 15.0201C5.24992 11.7148 7.65175 8.88749 10.882 8.34341C11.6176 8.21951 12.3823 8.21951 13.1178 8.34341C16.3481 8.88749 18.7499 11.7148 18.7499 15.0201L18.7503 15.0229L21.3382 16.3311C21.7079 16.5179 21.8561 16.969 21.6693 17.3387C21.4825 17.7084 21.0314 17.8567 20.6617 17.6699L18.0728 16.3617C17.5656 16.1054 17.2499 15.5846 17.2499 15.0201C17.2499 12.4466 15.3764 10.245 12.8687 9.82257ZM9.94992 15.4005C10.2813 15.649 10.3484 16.1191 10.0999 16.4505L9.05335 17.8459C9.02619 17.8821 9.00477 17.9107 8.98266 17.9386C8.62095 18.3958 8.1233 18.7263 7.56155 18.8822C7.52718 18.8918 7.49247 18.9004 7.44846 18.9114L7.44084 18.9133L5.95605 19.2845C5.2472 19.4618 4.74992 20.0987 4.74992 20.8293C4.74992 21.0619 4.93848 21.2505 5.17108 21.2505H6.72719C7.34361 21.2505 7.59222 21.2493 7.82937 21.2214C8.40755 21.1535 8.9656 20.9675 9.46892 20.6749C9.67536 20.5549 9.87499 20.4067 10.3681 20.0368L12.5499 18.4005C12.8813 18.152 13.3514 18.2191 13.5999 18.5505C13.8484 18.8819 13.7813 19.352 13.4499 19.6005L12.5453 20.279L13.8029 20.7506C14.4296 20.9856 14.6825 21.0789 14.9394 21.139C15.0779 21.1713 15.218 21.1967 15.3591 21.2151C15.6207 21.2491 15.8902 21.2505 16.5596 21.2505H18.8288C19.0614 21.2505 19.2499 21.0619 19.2499 20.8293C19.2499 20.0987 18.7526 19.4618 18.0438 19.2845L16.5511 18.9114C16.5072 18.9004 16.4726 18.8917 16.4383 18.8822C15.8765 18.7263 15.3789 18.3958 15.0172 17.9386C14.995 17.9107 14.9735 17.8819 14.9463 17.8457L13.8999 16.4505C13.6514 16.1191 13.7185 15.649 14.0499 15.4005C14.3813 15.152 14.8514 15.2191 15.0999 15.5505L16.1416 16.9395C16.1756 16.9848 16.185 16.9971 16.1936 17.008C16.358 17.2158 16.5842 17.366 16.8395 17.4369C16.8529 17.4406 16.8677 17.4444 16.9228 17.4581L18.4076 17.8293C19.7842 18.1735 20.7499 19.4104 20.7499 20.8293C20.7499 21.8904 19.8898 22.7505 18.8288 22.7505L16.5078 22.7505C15.906 22.7505 15.5351 22.7506 15.1658 22.7026C14.975 22.6778 14.7855 22.6434 14.5981 22.5996C14.2354 22.5149 13.8882 22.3846 13.3247 22.1733L11.1212 21.347C10.7408 21.632 10.4897 21.8166 10.2227 21.9718C9.54173 22.3676 8.78671 22.6192 8.00447 22.7112C7.66956 22.7505 7.32885 22.7505 6.77536 22.7505L5.17108 22.7505C4.11005 22.7505 3.24992 21.8904 3.24992 20.8293C3.24992 19.4104 4.21564 18.1735 5.59225 17.8293L7.07703 17.4581C7.13207 17.4444 7.14695 17.4406 7.16031 17.4369C7.41565 17.366 7.64187 17.2158 7.80628 17.008C7.81489 16.9971 7.82411 16.9849 7.85819 16.9395L8.89992 15.5505C9.14845 15.2191 9.61855 15.152 9.94992 15.4005Z" fill="#1C274C"/>
</svg>
