<svg width="24" height="24" viewBox="0 0 24 24" fill="none" xmlns="http://www.w3.org/2000/svg">
<path d="M12.4751 5.1838L7.49731 9.60854C6.56674 10.4357 6.10145 10.8493 5.92997 11.3377C5.77939 11.7666 5.77939 12.2339 5.92997 12.6628C6.10145 13.1512 6.56674 13.5648 7.49731 14.392L12.4751 18.8167C12.8974 19.1921 13.1086 19.3798 13.2879 19.3865C13.4437 19.3923 13.5934 19.3251 13.6925 19.2048C13.8066 19.0663 13.8066 18.7838 13.8066 18.2188V15.4288C16.2347 15.4288 18.7993 16.2087 20.6719 17.593C21.6468 18.3137 22.1343 18.6741 22.3199 18.6599C22.5009 18.646 22.6158 18.5753 22.7097 18.42C22.806 18.2607 22.7209 17.7628 22.5507 16.767C21.4458 10.3008 16.9958 8.57168 13.8066 8.57168V5.78172C13.8066 5.21671 13.8066 4.9342 13.6925 4.7957C13.5934 4.67537 13.4437 4.60819 13.2879 4.61402C13.1086 4.62073 12.8974 4.80842 12.4751 5.1838Z" fill="#1C274C"/>
<path fill-rule="evenodd" clip-rule="evenodd" d="M9.81777 3.98991C9.53592 3.68638 9.06137 3.6688 8.75784 3.95065L3.54163 8.79427C2.5947 9.67357 2.05664 10.9074 2.05664 12.1997C2.05664 13.5619 2.65432 14.8555 3.69163 15.7384L8.78205 20.0714C9.09747 20.3398 9.57081 20.3018 9.8393 19.9864C10.1078 19.671 10.0697 19.1976 9.75431 18.9291L4.66389 14.5962C3.9614 13.9983 3.55664 13.1222 3.55664 12.1997C3.55664 11.3246 3.92102 10.4889 4.56231 9.89346L9.77852 5.04984C10.082 4.76799 10.0996 4.29344 9.81777 3.98991Z" fill="#1C274C"/>
</svg>
