<svg width="24" height="24" viewBox="0 0 24 24" fill="none" xmlns="http://www.w3.org/2000/svg">
<path d="M20.0616 12.6478L20.5793 10.7159C21.1835 8.46083 21.4856 7.33329 21.2581 6.35751C21.0785 5.58706 20.6744 4.88717 20.097 4.34636C19.3657 3.66144 18.2381 3.35932 15.9831 2.75507C13.728 2.15082 12.6004 1.8487 11.6247 2.07622C10.8542 2.25586 10.1543 2.65994 9.61351 3.23736C9.02709 3.86347 8.72128 4.78006 8.26621 6.4461C8.18979 6.72589 8.10915 7.02682 8.02227 7.35105L8.02222 7.35126L7.50458 9.28311C6.90033 11.5382 6.59821 12.6657 6.82573 13.6415C7.00537 14.412 7.40945 15.1119 7.98687 15.6527C8.71815 16.3376 9.84569 16.6397 12.1008 17.244L12.1008 17.244C14.1334 17.7886 15.2499 18.0878 16.165 17.9749C16.2652 17.9625 16.3629 17.9453 16.4592 17.9228C17.2296 17.7432 17.9295 17.3391 18.4703 16.7617C19.1552 16.0304 19.4574 14.9028 20.0616 12.6478Z" fill="#1C274C"/>
<path d="M2.50458 14.7155L3.02222 16.6474C3.62647 18.9024 3.92859 20.03 4.61351 20.7613C5.15432 21.3387 5.85421 21.7428 6.62466 21.9224C7.60044 22.1499 8.72798 21.8478 10.9831 21.2436C13.2381 20.6393 14.3657 20.3372 15.097 19.6523C15.1577 19.5954 15.2164 19.5368 15.2733 19.4765C14.9391 19.4485 14.602 19.3947 14.2594 19.3266C13.5633 19.1882 12.7362 18.9666 11.758 18.7044L11.6512 18.6758L11.6264 18.6692C10.5621 18.384 9.67281 18.1453 8.96277 17.8888C8.21607 17.619 7.5376 17.2865 6.96148 16.7469C6.16753 16.0033 5.61193 15.0409 5.36491 13.9815C5.18567 13.2128 5.23691 12.459 5.37666 11.6774C5.51058 10.9285 5.75109 10.031 6.03926 8.95564L6.03926 8.95562L6.57365 6.96125L6.59245 6.89111C4.6719 7.40847 3.66101 7.71456 2.98687 8.34597C2.40945 8.88678 2.00537 9.58666 1.82573 10.3571C1.59821 11.3329 1.90033 12.4604 2.50458 14.7155Z" fill="#1C274C"/>
</svg>
