<svg width="24" height="24" viewBox="0 0 24 24" fill="none" xmlns="http://www.w3.org/2000/svg">
<path fill-rule="evenodd" clip-rule="evenodd" d="M14.2502 4.48003L14.2502 7.53769C14.25 7.64891 14.2498 7.80747 14.271 7.94359C14.297 8.11 14.3826 8.43128 14.7153 8.6266C15.0357 8.81471 15.349 8.74485 15.498 8.69855C15.6278 8.65819 15.7702 8.59036 15.8764 8.53979L17.0002 8.00594L18.124 8.53979C18.2302 8.59036 18.3725 8.65819 18.5024 8.69855C18.6513 8.74485 18.9647 8.81471 19.2851 8.6266C19.6177 8.43128 19.7033 8.11001 19.7293 7.94359C19.7506 7.80748 19.7504 7.64894 19.7502 7.53771L19.7502 3.03179C19.863 3.02649 19.9737 3.02201 20.082 3.01824C21.1538 2.9809 22 3.86123 22 4.93368V16.1441C22 17.2551 21.094 18.154 19.9851 18.2233C19.0157 18.2839 17.8767 18.4025 17 18.6338C15.9185 18.9192 14.6271 19.537 13.6276 20.0697C13.3485 20.2185 13.0531 20.3262 12.7502 20.393V5.17436C13.0709 5.09579 13.3824 4.9719 13.6738 4.80324C13.8581 4.69659 14.0514 4.5878 14.2502 4.48003ZM19.7278 12.8186C19.8282 13.2204 19.5839 13.6276 19.1821 13.7281L15.1821 14.7281C14.7802 14.8286 14.373 14.5842 14.2726 14.1824C14.1721 13.7805 14.4164 13.3733 14.8183 13.2729L18.8183 12.2729C19.2201 12.1724 19.6273 12.4167 19.7278 12.8186Z" fill="#1C274C"/>
<path fill-rule="evenodd" clip-rule="evenodd" d="M11.2502 5.21446C10.9159 5.15097 10.5894 5.03834 10.2823 4.87595C9.29611 4.3545 8.04921 3.7648 7 3.48793C6.11349 3.254 4.95877 3.13538 3.9824 3.07538C2.8863 3.00801 2 3.90012 2 4.99829V16.1441C2 17.2551 2.90605 18.154 4.01486 18.2233C4.98428 18.2839 6.12329 18.4025 7 18.6338C8.08145 18.9192 9.37293 19.537 10.3724 20.0697C10.6516 20.2185 10.9472 20.3263 11.2502 20.3931V5.21446ZM4.27257 8.81859C4.37303 8.41674 4.78023 8.17242 5.18208 8.27288L9.18208 9.27288C9.58393 9.37334 9.82825 9.78054 9.72778 10.1824C9.62732 10.5842 9.22012 10.8286 8.81828 10.7281L4.81828 9.7281C4.41643 9.62763 4.17211 9.22043 4.27257 8.81859ZM5.18208 12.2729C4.78023 12.1724 4.37303 12.4167 4.27257 12.8186C4.17211 13.2204 4.41643 13.6276 4.81828 13.7281L8.81828 14.7281C9.22012 14.8286 9.62732 14.5842 9.72778 14.1824C9.82825 13.7805 9.58393 13.3733 9.18208 13.2729L5.18208 12.2729Z" fill="#1C274C"/>
<path d="M18.2502 3.1515C17.6301 3.2248 17.0206 3.33208 16.5 3.48793C16.2585 3.56024 16.0064 3.6519 15.7502 3.75689V3.95051V6.93908L16.4995 6.58314L16.5083 6.57871C16.5573 6.55365 16.7638 6.44805 17.0002 6.44805C17.0477 6.44805 17.094 6.45233 17.1381 6.45936C17.3132 6.48727 17.4529 6.55869 17.4921 6.57871L17.5009 6.58314L18.2502 6.93908V3.64714V3.1515Z" fill="#1C274C"/>
</svg>
