<svg width="24" height="24" viewBox="0 0 24 24" fill="none" xmlns="http://www.w3.org/2000/svg">
<path d="M2.75458 14.7165L3.27222 16.6483C3.87647 18.9034 4.17859 20.031 4.86351 20.7623C5.40432 21.3397 6.10421 21.7437 6.87466 21.9234C7.85044 22.1509 8.97798 21.8488 11.2331 21.2445C13.4881 20.6403 14.6157 20.3382 15.347 19.6532C15.4077 19.5964 15.4664 19.5378 15.5233 19.4775C15.1891 19.4495 14.852 19.3957 14.5094 19.3276C13.8133 19.1892 12.9862 18.9675 12.008 18.7054L11.9012 18.6768L11.8764 18.6702C10.8121 18.385 9.92281 18.1462 9.21277 17.8897C8.46607 17.62 7.7876 17.2875 7.21148 16.7479C6.41753 16.0042 5.86193 15.0419 5.61491 13.9825C5.43567 13.2138 5.48691 12.4599 5.62666 11.6784C5.76058 10.9295 6.00109 10.032 6.28926 8.95662L6.28926 8.9566L6.82365 6.96223L6.84245 6.89209C4.9219 7.40945 3.91101 7.71554 3.23687 8.34694C2.65945 8.88775 2.25537 9.58764 2.07573 10.3581C1.84821 11.3339 2.15033 12.4614 2.75458 14.7165Z" fill="#1C274C"/>
<path fill-rule="evenodd" clip-rule="evenodd" d="M20.8293 10.7159L20.3116 12.6478C19.7074 14.9028 19.4052 16.0304 18.7203 16.7617C18.1795 17.3391 17.4796 17.7432 16.7092 17.9228C16.6129 17.9453 16.5152 17.9625 16.415 17.9749C15.4999 18.0878 14.3834 17.7886 12.3508 17.244C10.0957 16.6397 8.96815 16.3376 8.23687 15.6527C7.65945 15.1119 7.25537 14.412 7.07573 13.6415C6.84821 12.6657 7.15033 11.5382 7.75458 9.28311L8.27222 7.35126C8.3591 7.02703 8.43979 6.72589 8.51621 6.4461C8.97128 4.78006 9.27709 3.86347 9.86351 3.23736C10.4043 2.65994 11.1042 2.25586 11.8747 2.07622C12.8504 1.8487 13.978 2.15082 16.2331 2.75507C18.4881 3.35932 19.6157 3.66144 20.347 4.34636C20.9244 4.88717 21.3285 5.58706 21.5081 6.35751C21.7356 7.33329 21.4335 8.46083 20.8293 10.7159ZM11.0524 9.80637C11.1596 9.40627 11.5709 9.16884 11.971 9.27604L16.8006 10.5701C17.2007 10.6773 17.4381 11.0886 17.3309 11.4887C17.2237 11.8888 16.8125 12.1262 16.4124 12.019L11.5827 10.7249C11.1826 10.6177 10.9452 10.2065 11.0524 9.80637ZM10.2756 12.7038C10.3828 12.3037 10.794 12.0663 11.1941 12.1735L14.0919 12.95C14.492 13.0572 14.7294 13.4684 14.6222 13.8685C14.515 14.2686 14.1038 14.5061 13.7037 14.3989L10.8059 13.6224C10.4058 13.5152 10.1683 13.1039 10.2756 12.7038Z" fill="#1C274C"/>
</svg>
