<svg width="24" height="24" viewBox="0 0 24 24" fill="none" xmlns="http://www.w3.org/2000/svg">
<path d="M4.0188 16.537L7.58758 20.0263C8.93345 21.3422 9.60638 22.0001 10.4426 22.0001C10.9565 22.0001 11.4087 21.7517 11.9933 21.2547C12.3511 20.9506 12.53 20.7985 12.5379 20.5782C12.5458 20.3579 12.3693 20.1847 12.0164 19.8382L4.10649 12.0732C3.86619 11.8373 3.74603 11.7194 3.61375 11.6865C3.52387 11.6641 3.43638 11.6663 3.34776 11.6932C3.21732 11.7328 3.10127 11.859 2.86916 12.1114C2.28972 12.7413 2 13.2091 2 13.7455C2 14.5631 2.67293 15.2211 4.0188 16.537Z" fill="#1C274C"/>
<path d="M20.0783 13.3966C22.6406 10.8914 22.6406 6.82963 20.0783 4.32441C17.516 1.8192 13.3618 1.8192 10.7995 4.32442L10.3341 4.77942C9.91482 3.15171 8.66759 1.97856 7.21305 2.00042C5.44093 2.02706 4.03217 3.81744 4.06648 5.99935L4.03319 9.45664C4.03098 9.67495 4.02988 9.78411 4.06886 9.87834C4.10784 9.97257 4.1843 10.0476 4.3372 10.1977L13.1253 18.8248C13.4555 19.1489 13.6205 19.311 13.8247 19.3112C14.0288 19.3114 14.1942 19.1497 14.525 18.8263L20.0783 13.3966Z" fill="#1C274C"/>
</svg>
