<svg width="24" height="24" viewBox="0 0 24 24" fill="none" xmlns="http://www.w3.org/2000/svg">
<path fill-rule="evenodd" clip-rule="evenodd" d="M7.58758 20.0263L4.0188 16.537C2.67293 15.2211 2 14.5631 2 13.7455C2 13.2091 2.28972 12.7413 2.86916 12.1114C3.46036 11.4686 3.75595 11.1473 3.88968 10.8111C4.02341 10.4749 4.02705 10.0968 4.03433 9.34069L4.06648 5.99935C4.03217 3.81744 5.44093 2.02706 7.21305 2.00042C8.66759 1.97856 9.91482 3.15171 10.3341 4.77942L10.7995 4.32442C13.3618 1.8192 17.516 1.8192 20.0783 4.32441C22.6406 6.82963 22.6406 10.8914 20.0783 13.3966L13.2976 20.0263C11.9518 21.3422 11.2788 22.0001 10.4426 22.0001C9.60638 22.0001 8.93345 21.3422 7.58758 20.0263ZM5.98033 12.8723C6.26991 12.5761 6.74475 12.5708 7.04093 12.8603L11.3235 17.0475C11.6196 17.3371 11.625 17.8119 11.3354 18.1081C11.0458 18.4043 10.571 18.4096 10.2748 18.12L5.99228 13.9329C5.6961 13.6433 5.69076 13.1685 5.98033 12.8723Z" fill="#1C274C"/>
</svg>
