<svg width="24" height="24" viewBox="0 0 24 24" fill="none" xmlns="http://www.w3.org/2000/svg">
<path fill-rule="evenodd" clip-rule="evenodd" d="M3.17157 5.17206C2 6.34363 2 8.22925 2 12.0005C2 15.7717 2 17.6573 3.17157 18.8289C4.34315 20.0005 6.22876 20.0005 10 20.0005H14C17.7712 20.0005 19.6569 20.0005 20.8284 18.8289C22 17.6573 22 15.7717 22 12.0005C22 8.22925 22 6.34363 20.8284 5.17206C19.6569 4.00049 17.7712 4.00049 14 4.00049H10C6.22876 4.00049 4.34315 4.00049 3.17157 5.17206ZM12.7502 10.0005C12.7502 9.58627 12.4144 9.25049 12.0002 9.25049C11.586 9.25049 11.2502 9.58627 11.2502 10.0005V10.7017L10.6428 10.351C10.2841 10.1439 9.8254 10.2668 9.61829 10.6255C9.41119 10.9842 9.53409 11.4429 9.89281 11.65L10.4997 12.0004L9.89258 12.351C9.53386 12.5581 9.41095 13.0168 9.61806 13.3755C9.82517 13.7342 10.2839 13.8571 10.6426 13.65L11.2502 13.2992V14.0005C11.2502 14.4147 11.586 14.7505 12.0002 14.7505C12.4144 14.7505 12.7502 14.4147 12.7502 14.0005V13.2997L13.3569 13.65C13.7156 13.8571 14.1743 13.7342 14.3814 13.3755C14.5885 13.0168 14.4656 12.5581 14.1069 12.351L13.4997 12.0004L14.1067 11.65C14.4654 11.4429 14.5883 10.9842 14.3812 10.6255C14.1741 10.2668 13.7154 10.1439 13.3567 10.351L12.7502 10.7011V10.0005ZM6.73266 9.25049C7.14687 9.25049 7.48266 9.58627 7.48266 10.0005V10.7011L8.0891 10.351C8.44782 10.1439 8.90651 10.2668 9.11362 10.6255C9.32073 10.9842 9.19782 11.4429 8.8391 11.65L8.23217 12.0004L8.83934 12.351C9.19806 12.5581 9.32096 13.0168 9.11386 13.3755C8.90675 13.7342 8.44806 13.8571 8.08934 13.65L7.48266 13.2997V14.0005C7.48266 14.4147 7.14687 14.7505 6.73266 14.7505C6.31844 14.7505 5.98266 14.4147 5.98266 14.0005V13.2992L5.375 13.65C5.01628 13.8571 4.55759 13.7342 4.35048 13.3755C4.14337 13.0168 4.26628 12.5581 4.625 12.351L5.23217 12.0004L4.62523 11.65C4.26652 11.4429 4.14361 10.9842 4.35072 10.6255C4.55782 10.2668 5.01652 10.1439 5.37523 10.351L5.98266 10.7017V10.0005C5.98266 9.58627 6.31844 9.25049 6.73266 9.25049ZM18.0181 10.0005C18.0181 9.58627 17.6823 9.25049 17.2681 9.25049C16.8539 9.25049 16.5181 9.58627 16.5181 10.0005V10.7017L15.9106 10.351C15.5519 10.1439 15.0932 10.2668 14.8861 10.6255C14.679 10.9842 14.8019 11.4429 15.1606 11.65L15.7676 12.0004L15.1604 12.351C14.8017 12.5581 14.6788 13.0168 14.8859 13.3755C15.093 13.7342 15.5517 13.8571 15.9104 13.65L16.5181 13.2992V14.0005C16.5181 14.4147 16.8539 14.7505 17.2681 14.7505C17.6823 14.7505 18.0181 14.4147 18.0181 14.0005V13.2997L18.6247 13.65C18.9835 13.8571 19.4422 13.7342 19.6493 13.3755C19.8564 13.0168 19.7335 12.5581 19.3747 12.351L18.7676 12.0004L19.3745 11.65C19.7332 11.4429 19.8561 10.9842 19.649 10.6255C19.4419 10.2668 18.9832 10.1439 18.6245 10.351L18.0181 10.7011V10.0005Z" fill="#1C274C"/>
</svg>
