<svg width="24" height="24" viewBox="0 0 24 24" fill="none" xmlns="http://www.w3.org/2000/svg">
<path fill-rule="evenodd" clip-rule="evenodd" d="M3.25 22.0002C3.25 21.586 3.58579 21.2502 4 21.2502H20C20.4142 21.2502 20.75 21.586 20.75 22.0002C20.75 22.4145 20.4142 22.7502 20 22.7502H4C3.58579 22.7502 3.25 22.4145 3.25 22.0002Z" fill="#1C274C"/>
<path d="M11.5201 14.9292L11.5201 14.9292L17.4368 9.0125C16.6315 8.67734 15.6777 8.12681 14.7757 7.22479C13.8736 6.32263 13.323 5.36871 12.9879 4.56336L7.07106 10.4802L7.07101 10.4802C6.60932 10.9419 6.37846 11.1728 6.17992 11.4273C5.94571 11.7276 5.74491 12.0525 5.58107 12.3963C5.44219 12.6877 5.33894 12.9974 5.13245 13.6169L4.04356 16.8836C3.94194 17.1884 4.02128 17.5245 4.2485 17.7517C4.47573 17.979 4.81182 18.0583 5.11667 17.9567L8.38334 16.8678C9.00281 16.6613 9.31256 16.5581 9.60398 16.4192C9.94775 16.2553 10.2727 16.0545 10.5729 15.8203C10.8275 15.6218 11.0584 15.3909 11.5201 14.9292Z" fill="#1C274C"/>
<path d="M19.0786 7.37069C20.3071 6.14213 20.3071 4.15023 19.0786 2.92167C17.85 1.6931 15.8581 1.6931 14.6296 2.92167L13.9199 3.6313C13.9296 3.66064 13.9397 3.69039 13.9502 3.72053C14.2103 4.47024 14.701 5.45305 15.6243 6.37626C16.5475 7.29947 17.5303 7.79023 18.28 8.05034C18.31 8.06075 18.3396 8.07078 18.3688 8.08045L19.0786 7.37069Z" fill="#1C274C"/>
</svg>
