<svg width="24" height="24" viewBox="0 0 24 24" fill="none" xmlns="http://www.w3.org/2000/svg">
<path d="M11.4001 18.1614L11.4001 18.1614L18.796 10.7656C17.7894 10.3466 16.5972 9.65845 15.4697 8.53092C14.342 7.40322 13.6537 6.21082 13.2348 5.20414L5.83882 12.6001L5.83879 12.6002C5.26166 13.1773 4.97307 13.4659 4.7249 13.7841C4.43213 14.1594 4.18114 14.5656 3.97634 14.9953C3.80273 15.3595 3.67368 15.7467 3.41556 16.5211L2.05445 20.6044C1.92743 20.9855 2.0266 21.4056 2.31063 21.6896C2.59466 21.9736 3.01478 22.0728 3.39584 21.9458L7.47918 20.5847C8.25351 20.3266 8.6407 20.1975 9.00498 20.0239C9.43469 19.8191 9.84082 19.5681 10.2162 19.2753C10.5343 19.0272 10.823 18.7386 11.4001 18.1614Z" fill="#1C274C"/>
<path d="M20.8482 8.7133C22.3839 7.1776 22.3839 4.68773 20.8482 3.15202C19.3125 1.61632 16.8226 1.61632 15.2869 3.15202L14.3999 4.03906C14.4121 4.07574 14.4246 4.11293 14.4377 4.1506C14.7628 5.08774 15.3763 6.31625 16.5303 7.47026C17.6843 8.62428 18.9128 9.23773 19.85 9.56286C19.8875 9.57587 19.9245 9.58841 19.961 9.60051L20.8482 8.7133Z" fill="#1C274C"/>
</svg>
