<svg width="24" height="24" viewBox="0 0 24 24" fill="none" xmlns="http://www.w3.org/2000/svg">
<path d="M3.99057 3.99081C1.33648 6.64491 1.33648 10.948 3.99057 13.6021L6.55391 16.1655L7.0495 16.07C7.04919 16.0701 7.04956 16.07 7.05049 16.0698L7.06435 16.0668C7.07872 16.0636 7.10332 16.058 7.13754 16.0493C7.20599 16.0321 7.31287 16.003 7.45346 15.9581C7.73465 15.8683 8.1504 15.7155 8.66292 15.4685C9.68709 14.975 11.1005 14.1039 12.6019 12.6026C14.1032 11.1012 14.9744 9.68768 15.468 8.66337C15.7151 8.15078 15.8679 7.73496 15.9578 7.45371C16.0027 7.3131 16.0318 7.20619 16.0491 7.13772C16.0577 7.1035 16.0634 7.07889 16.0666 7.06451L16.0696 7.05067C16.0698 7.04976 16.0699 7.04934 16.0698 7.04965L16.1653 6.55421L13.6019 3.99081C10.9478 1.33672 6.64466 1.33672 3.99057 3.99081Z" fill="#1C274C"/>
<path d="M17.4187 7.80758C17.4087 7.84022 17.398 7.87442 17.3866 7.91011C17.2772 8.25282 17.099 8.73421 16.8193 9.31462C16.2594 10.4763 15.2939 12.0319 13.6625 13.6632C12.0312 15.2946 10.4757 16.26 9.31411 16.8198C8.73375 17.0995 8.2524 17.2776 7.90973 17.387C7.8741 17.3984 7.83996 17.409 7.80737 17.4189L10.3981 20.0097C13.0522 22.6638 17.3553 22.6638 20.0094 20.0097C22.6635 17.3556 22.6635 13.0525 20.0094 10.3984L17.4187 7.80758Z" fill="#1C274C"/>
</svg>
