<svg width="24" height="24" viewBox="0 0 24 24" fill="none" xmlns="http://www.w3.org/2000/svg">
<path fill-rule="evenodd" clip-rule="evenodd" d="M2.25 4.00024C2.25 3.58603 2.58579 3.25024 3 3.25024H20C20.4142 3.25024 20.75 3.58603 20.75 4.00024C20.75 4.41446 20.4142 4.75024 20 4.75024H3C2.58579 4.75024 2.25 4.41446 2.25 4.00024ZM2.25 9.00024C2.25 8.58603 2.58579 8.25024 3 8.25024H12C12.4142 8.25024 12.75 8.58603 12.75 9.00024C12.75 9.41446 12.4142 9.75024 12 9.75024H3C2.58579 9.75024 2.25 9.41446 2.25 9.00024ZM2.25 14.0002C2.25 13.586 2.58579 13.2502 3 13.2502H8C8.41421 13.2502 8.75 13.586 8.75 14.0002C8.75 14.4145 8.41421 14.7502 8 14.7502H3C2.58579 14.7502 2.25 14.4145 2.25 14.0002Z" fill="#1C274C"/>
<path d="M19.3446 6.99311C19.6232 6.89044 19.9559 6.80237 20.3149 6.86804C20.7572 6.94894 21.1513 7.19697 21.4156 7.56068C21.6302 7.85594 21.6948 8.19391 21.7228 8.48953C21.75 8.77724 21.75 9.13603 21.75 9.54485L21.75 9.57916L21.7501 9.65478C21.7509 9.95488 21.7518 10.2754 21.644 10.5707C21.559 10.8038 21.4254 11.0161 21.252 11.1937C21.0324 11.4185 20.7431 11.5565 20.4722 11.6856L20.404 11.7182L18.6185 12.5753C18.25 12.7522 17.9266 12.9075 17.6554 13.0074C17.3936 13.1038 17.0842 13.1874 16.75 13.1427V17.4288C16.75 19.2431 15.3147 20.7502 13.5 20.7502C11.6853 20.7502 10.25 19.2431 10.25 17.4288C10.25 15.6145 11.6853 14.1074 13.5 14.1074C14.1477 14.1074 14.747 14.2994 15.25 14.6287V11.0002H15.2529C15.25 10.8314 15.25 10.6491 15.25 10.4557L15.25 10.4213L15.2499 10.3457C15.2491 10.0456 15.2482 9.7251 15.356 9.42981C15.441 9.19671 15.5746 8.98435 15.748 8.80683C15.9676 8.58195 16.2569 8.44401 16.5278 8.31485L16.596 8.28225L18.3814 7.42523C18.75 7.2483 19.0734 7.09302 19.3446 6.99311Z" fill="#1C274C"/>
</svg>
