<svg width="24" height="24" viewBox="0 0 24 24" fill="none" xmlns="http://www.w3.org/2000/svg">
<path fill-rule="evenodd" clip-rule="evenodd" d="M2.25 6.00024C2.25 5.58603 2.58579 5.25024 3 5.25024H20C20.4142 5.25024 20.75 5.58603 20.75 6.00024C20.75 6.41446 20.4142 6.75024 20 6.75024H3C2.58579 6.75024 2.25 6.41446 2.25 6.00024ZM2.25 11.0002C2.25 10.586 2.58579 10.2502 3 10.2502H10C10.4142 10.2502 10.75 10.586 10.75 11.0002C10.75 11.4145 10.4142 11.7502 10 11.7502H3C2.58579 11.7502 2.25 11.4145 2.25 11.0002ZM2.25 16.0002C2.25 15.586 2.58579 15.2502 3 15.2502H10C10.4142 15.2502 10.75 15.586 10.75 16.0002C10.75 16.4145 10.4142 16.7502 10 16.7502H3C2.58579 16.7502 2.25 16.4145 2.25 16.0002Z" fill="#1C274C"/>
<path d="M19.125 10.6857C20.767 11.6337 21.588 12.1076 21.8478 12.7349C22.0507 13.2249 22.0507 13.7756 21.8478 14.2656C21.588 14.8928 20.767 15.3668 19.125 16.3148C17.483 17.2628 16.662 17.7368 15.9889 17.6482C15.4631 17.579 14.9862 17.3037 14.6633 16.8828C14.25 16.3442 14.25 15.3962 14.25 13.5002C14.25 11.6043 14.25 10.6563 14.6633 10.1177C14.9862 9.69684 15.4631 9.42153 15.9889 9.35229C16.662 9.26368 17.483 9.73767 19.125 10.6857Z" fill="#1C274C"/>
</svg>
