<svg width="24" height="24" viewBox="0 0 24 24" fill="none" xmlns="http://www.w3.org/2000/svg">
<path d="M21 16.8292V11.1625C21 10.119 21 9.59716 20.7169 9.20433C20.4881 8.887 20.1212 8.71834 19.4667 8.49127C19.3328 10.0975 18.8009 11.7378 17.9655 13.1734C16.9928 14.845 15.5484 16.3396 13.697 17.1472C12.618 17.6179 11.382 17.6179 10.303 17.1472C8.45164 16.3396 7.00718 14.845 6.03449 13.1734C5.40086 12.0845 4.9418 10.8778 4.69862 9.65758C4.31607 9.60123 4.0225 9.63014 3.76917 9.77148C3.66809 9.82788 3.57388 9.89578 3.48841 9.97384C3 10.4199 3 11.2494 3 12.9083V17.838C3 18.8816 3 19.4034 3.28314 19.7962C3.56627 20.189 4.06129 20.354 5.05132 20.684L5.43488 20.8119L5.43489 20.8119C7.01186 21.3375 7.80035 21.6004 8.60688 21.6019C8.8498 21.6024 9.09242 21.5851 9.33284 21.5503C10.131 21.4347 10.8809 21.0598 12.3806 20.3099C13.5299 19.7353 14.1046 19.448 14.715 19.3147C14.9292 19.2679 15.1463 19.2352 15.3648 19.2169C15.9875 19.1648 16.6157 19.2695 17.8721 19.4789C19.1455 19.6912 19.7821 19.7973 20.247 19.5303C20.4048 19.4397 20.5449 19.321 20.6603 19.1802C21 18.7656 21 18.1201 21 16.8292Z" fill="#1C274C"/>
<path fill-rule="evenodd" clip-rule="evenodd" d="M12 2.00024C8.68629 2.00024 6 4.55236 6 7.70055C6 10.8241 7.91499 14.4689 10.9028 15.7724C11.5993 16.0762 12.4007 16.0762 13.0972 15.7724C16.085 14.4689 18 10.8241 18 7.70055C18 4.55236 15.3137 2.00024 12 2.00024ZM12 10.0002C13.1046 10.0002 14 9.10481 14 8.00024C14 6.89567 13.1046 6.00024 12 6.00024C10.8954 6.00024 10 6.89567 10 8.00024C10 9.10481 10.8954 10.0002 12 10.0002Z" fill="#1C274C"/>
</svg>
