<svg width="24" height="24" viewBox="0 0 24 24" fill="none" xmlns="http://www.w3.org/2000/svg">
<path d="M3.46447 3.46471C2 4.92918 2 7.2862 2 12.0002C2 12.8187 2 13.5662 2.00767 14.2502H5L5.10773 14.2501C5.63376 14.2493 6.10075 14.2486 6.52918 14.4322C6.9576 14.6158 7.27913 14.9545 7.64131 15.3359L7.71552 15.414L8.85712 16.6127C8.93865 16.6983 9.00536 16.7683 9.06418 16.828C9.11449 16.761 9.17125 16.6827 9.24061 16.587L12.8944 11.5438C13.0432 11.3381 13.1985 11.1236 13.3518 10.9655C13.5272 10.7846 13.7992 10.5711 14.1937 10.5529C14.5882 10.5348 14.8787 10.7225 15.0699 10.8865C15.2371 11.0299 15.4114 11.2292 15.5785 11.4204L17.3823 13.4819C17.868 14.037 17.9718 14.1318 18.085 14.1832C18.1982 14.2346 18.3379 14.2502 19.0756 14.2502H21.9923C22 13.5662 22 12.8187 22 12.0002C22 7.2862 22 4.92918 20.5355 3.46471C19.0711 2.00024 16.714 2.00024 12 2.00024C7.28595 2.00024 4.92893 2.00024 3.46447 3.46471Z" fill="#1C274C"/>
<path d="M21.9563 15.7502H19.0756L18.9615 15.7504C18.4059 15.7513 17.9125 15.7521 17.4652 15.5492C17.0179 15.3462 16.6936 14.9743 16.3285 14.5556L16.2534 14.4696L14.4761 12.4384C14.395 12.3457 14.3284 12.2697 14.2697 12.2049C14.2171 12.2748 14.1578 12.3566 14.0855 12.4563L10.4324 17.4987C10.2894 17.6962 10.1391 17.9037 9.99032 18.0577C9.8191 18.2347 9.55618 18.4418 9.17422 18.4675C8.79226 18.4931 8.50402 18.323 8.31067 18.1704C8.1426 18.0378 7.96597 17.8522 7.79786 17.6755L6.62931 16.4485C6.14838 15.9435 6.04684 15.8574 5.9383 15.8109C5.82976 15.7644 5.69734 15.7502 5 15.7502H2.0437C2.1409 18.0906 2.45425 19.5256 3.46447 20.5358C4.92893 22.0002 7.28595 22.0002 12 22.0002C16.714 22.0002 19.0711 22.0002 20.5355 20.5358C21.5458 19.5256 21.8591 18.0906 21.9563 15.7502Z" fill="#1C274C"/>
</svg>
