<svg width="24" height="24" viewBox="0 0 24 24" fill="none" xmlns="http://www.w3.org/2000/svg">
<path fill-rule="evenodd" clip-rule="evenodd" d="M12 22.0002C17.5228 22.0002 22 17.5231 22 12.0002C22 6.4774 17.5228 2.00024 12 2.00024C6.47715 2.00024 2 6.4774 2 12.0002C2 17.5231 6.47715 22.0002 12 22.0002ZM13.3584 6.93057C12.604 6.72842 11.8458 6.7014 11.1255 6.82363C10.7171 6.89292 10.3299 6.61803 10.2606 6.20965C10.1913 5.80128 10.4662 5.41405 10.8745 5.34476C11.8033 5.18718 12.7796 5.22257 13.7466 5.48168C17.3467 6.44633 19.4832 10.1468 18.5186 13.7469C17.5539 17.347 13.8535 19.4835 10.2534 18.5188C6.65325 17.5542 4.51679 13.8537 5.48144 10.2536C5.67232 9.54123 5.97096 8.88485 6.35561 8.29819C6.80849 7.60748 7.71251 7.56516 8.27405 8.01966L12.4718 11.4173C12.7938 11.6779 12.8436 12.1501 12.583 12.4721C12.3224 12.7941 11.8501 12.8438 11.5282 12.5832L9.39091 10.8534C9.2365 11.2041 9.15089 11.5918 9.15089 12.0002C9.15089 13.5738 10.4265 14.8494 12 14.8494C13.5735 14.8494 14.8491 13.5738 14.8491 12.0002C14.8491 10.4267 13.5735 9.15114 12 9.15114C11.5858 9.15114 11.25 8.81535 11.25 8.40114C11.25 7.98692 11.5858 7.65114 12 7.65114C14.4019 7.65114 16.3491 9.5983 16.3491 12.0002C16.3491 14.4022 14.4019 16.3494 12 16.3494C9.59805 16.3494 7.65089 14.4022 7.65089 12.0002C7.65089 11.2341 7.8495 10.5133 8.19774 9.88765L7.48915 9.31413C7.2486 9.71865 7.0586 10.1631 6.93033 10.6418C6.1801 13.4417 7.84168 16.3197 10.6416 17.0699C13.4415 17.8201 16.3194 16.1586 17.0697 13.3587C17.8199 10.5588 16.1583 7.6808 13.3584 6.93057Z" fill="#1C274C"/>
</svg>
