<svg width="24" height="24" viewBox="0 0 24 24" fill="none" xmlns="http://www.w3.org/2000/svg">
<path d="M9.75 15.5001C9.75 14.2575 10.7574 13.2501 12 13.2501C13.2426 13.2501 14.25 14.2575 14.25 15.5001C14.25 16.7428 13.2426 17.7501 12 17.7501C10.7574 17.7501 9.75 16.7428 9.75 15.5001Z" fill="#1C274C"/>
<path fill-rule="evenodd" clip-rule="evenodd" d="M5.67412 3.77784C5 4.78674 5 6.1912 5 9.00012V15.0001C5 17.809 5 19.2135 5.67412 20.2224C5.96596 20.6592 6.34096 21.0342 6.77772 21.326C7.78661 22.0001 9.19108 22.0001 12 22.0001C14.8089 22.0001 16.2134 22.0001 17.2223 21.326C17.659 21.0342 18.034 20.6592 18.3259 20.2224C19 19.2135 19 17.809 19 15.0001V9.00012C19 6.1912 19 4.78674 18.3259 3.77784C18.034 3.34108 17.659 2.96608 17.2223 2.67424C16.2134 2.00012 14.8089 2.00012 12 2.00012C9.19108 2.00012 7.78661 2.00012 6.77772 2.67424C6.34096 2.96608 5.96596 3.34108 5.67412 3.77784ZM12 11.7501C9.92893 11.7501 8.25 13.4291 8.25 15.5001C8.25 17.5712 9.92893 19.2501 12 19.2501C14.0711 19.2501 15.75 17.5712 15.75 15.5001C15.75 13.4291 14.0711 11.7501 12 11.7501ZM8.25 5.50012C8.25 5.08591 8.58579 4.75012 9 4.75012H15C15.4142 4.75012 15.75 5.08591 15.75 5.50012C15.75 5.91434 15.4142 6.25012 15 6.25012H9C8.58579 6.25012 8.25 5.91434 8.25 5.50012ZM9 10.0001C9.55228 10.0001 10 9.55241 10 9.00012C10 8.44784 9.55228 8.00012 9 8.00012C8.44772 8.00012 8 8.44784 8 9.00012C8 9.55241 8.44772 10.0001 9 10.0001ZM13 9.00012C13 9.55241 12.5523 10.0001 12 10.0001C11.4477 10.0001 11 9.55241 11 9.00012C11 8.44784 11.4477 8.00012 12 8.00012C12.5523 8.00012 13 8.44784 13 9.00012ZM15 10.0001C15.5523 10.0001 16 9.55241 16 9.00012C16 8.44784 15.5523 8.00012 15 8.00012C14.4477 8.00012 14 8.44784 14 9.00012C14 9.55241 14.4477 10.0001 15 10.0001Z" fill="#1C274C"/>
</svg>
