<svg width="24" height="24" viewBox="0 0 24 24" fill="none" xmlns="http://www.w3.org/2000/svg">
<path d="M9.75 11.0001C9.75 9.75748 10.7574 8.75012 12 8.75012C13.2426 8.75012 14.25 9.75748 14.25 11.0001C14.25 12.2428 13.2426 13.2501 12 13.2501C10.7574 13.2501 9.75 12.2428 9.75 11.0001Z" fill="#1C274C"/>
<path fill-rule="evenodd" clip-rule="evenodd" d="M5.67412 3.77784C5 4.78674 5 6.1912 5 9.00012V15.0001C5 17.809 5 19.2135 5.67412 20.2224C5.96596 20.6592 6.34096 21.0342 6.77772 21.326C7.78661 22.0001 9.19108 22.0001 12 22.0001C14.8089 22.0001 16.2134 22.0001 17.2223 21.326C17.659 21.0342 18.034 20.6592 18.3259 20.2224C19 19.2135 19 17.809 19 15.0001V9.00012C19 6.1912 19 4.78674 18.3259 3.77784C18.034 3.34108 17.659 2.96608 17.2223 2.67424C16.2134 2.00012 14.8089 2.00012 12 2.00012C9.19108 2.00012 7.78661 2.00012 6.77772 2.67424C6.34096 2.96608 5.96596 3.34108 5.67412 3.77784ZM12 7.25012C9.92893 7.25012 8.25 8.92905 8.25 11.0001C8.25 13.0712 9.92893 14.7501 12 14.7501C14.0711 14.7501 15.75 13.0712 15.75 11.0001C15.75 8.92905 14.0711 7.25012 12 7.25012ZM13 5.00012C13 5.55241 12.5523 6.00012 12 6.00012C11.4477 6.00012 11 5.55241 11 5.00012C11 4.44784 11.4477 4.00012 12 4.00012C12.5523 4.00012 13 4.44784 13 5.00012ZM12 18.0001C12.5523 18.0001 13 17.5524 13 17.0001C13 16.4478 12.5523 16.0001 12 16.0001C11.4477 16.0001 11 16.4478 11 17.0001C11 17.5524 11.4477 18.0001 12 18.0001Z" fill="#1C274C"/>
</svg>
