<svg width="24" height="24" viewBox="0 0 24 24" fill="none" xmlns="http://www.w3.org/2000/svg">
<path d="M13.5 11.2505H10.75V8.20049C10.75 8.10352 10.7501 8.0458 10.7513 8.00229C10.752 7.97468 10.7531 7.96268 10.7533 7.95979C10.7708 7.85411 10.8536 7.77126 10.9593 7.75382C10.9622 7.75354 10.9742 7.7525 11.0018 7.75175C11.0453 7.75055 11.103 7.75049 11.2 7.75049H13.5C14.4665 7.75049 15.25 8.53399 15.25 9.50049C15.25 10.467 14.4665 11.2505 13.5 11.2505Z" fill="#1C274C"/>
<path fill-rule="evenodd" clip-rule="evenodd" d="M22 12.0005C22 17.5233 17.5228 22.0005 12 22.0005C6.47715 22.0005 2 17.5233 2 12.0005C2 6.47764 6.47715 2.00049 12 2.00049C17.5228 2.00049 22 6.47764 22 12.0005ZM8.25 14.0005C8.25 13.5863 8.58579 13.2505 9 13.2505H9.25V12.7505H9C8.58579 12.7505 8.25 12.4147 8.25 12.0005C8.25 11.5863 8.58579 11.2505 9 11.2505H9.25L9.24997 8.162C9.24979 8.01647 9.24961 7.8652 9.27155 7.72673C9.39015 6.97792 9.97743 6.39063 10.7262 6.27203C10.8647 6.2501 11.016 6.25028 11.1615 6.25046L13.5 6.25049C15.2949 6.25049 16.75 7.70556 16.75 9.50049C16.75 11.2954 15.2949 12.7505 13.5 12.7505H10.75V13.2505H12C12.4142 13.2505 12.75 13.5863 12.75 14.0005C12.75 14.4147 12.4142 14.7505 12 14.7505H10.75V17.0005C10.75 17.4147 10.4142 17.7505 10 17.7505C9.58579 17.7505 9.25 17.4147 9.25 17.0005V14.7505H9C8.58579 14.7505 8.25 14.4147 8.25 14.0005Z" fill="#1C274C"/>
</svg>
