<svg width="24" height="24" viewBox="0 0 24 24" fill="none" xmlns="http://www.w3.org/2000/svg">
<path d="M21.9127 5.93193C21.7537 3.85217 20.1483 2.24676 18.0686 2.08774C17.0016 2.00616 15.7566 1.96662 14.4449 2.03672L21.9638 9.55564C22.0339 8.24394 21.9943 6.99886 21.9127 5.93193Z" fill="#1C274C"/>
<path d="M2.08725 18.069C2.24627 20.1488 3.85169 21.7542 5.93144 21.9132C6.99862 21.9948 8.24403 22.0344 9.55607 21.9642L2.03628 14.4444C1.96611 15.7565 2.00566 17.0019 2.08725 18.069Z" fill="#1C274C"/>
<path fill-rule="evenodd" clip-rule="evenodd" d="M2.22237 12.5092C2.59084 9.91691 3.48404 7.27773 5.38064 5.38113C7.27745 3.48432 9.917 2.59113 12.5095 2.22274L21.7777 11.4909C21.4094 14.0835 20.5162 16.723 18.6194 18.6198C16.7228 20.5164 14.0836 21.4097 11.4913 21.7781L2.22237 12.5092ZM11.9426 8.16059C12.2355 7.86769 12.7104 7.86769 13.0032 8.16059L13.8914 9.04869L14.7795 8.16059C15.0723 7.86769 15.5472 7.86769 15.8401 8.16059C16.133 8.45348 16.133 8.92835 15.8401 9.22125L14.952 10.1094L15.8401 10.9975C16.133 11.2903 16.133 11.7652 15.8401 12.0581C15.5472 12.351 15.0723 12.351 14.7795 12.0581L13.8914 11.17L13.0608 12.0006L13.9489 12.8887C14.2418 13.1816 14.2418 13.6565 13.9489 13.9494C13.656 14.2423 13.1811 14.2423 12.8882 13.9494L12.0001 13.0613L11.1695 13.8918L12.0576 14.7799C12.3505 15.0728 12.3505 15.5477 12.0576 15.8406C11.7647 16.1335 11.2899 16.1335 10.997 15.8406L10.1089 14.9525L9.22076 15.8406C8.92787 16.1335 8.45299 16.1335 8.1601 15.8406C7.86721 15.5477 7.86721 15.0728 8.1601 14.7799L9.0482 13.8918L8.1601 13.0037C7.86721 12.7108 7.86721 12.236 8.1601 11.9431C8.45299 11.6502 8.92787 11.6502 9.22076 11.9431L10.1089 12.8312L10.9394 12.0006L10.0513 11.1125C9.75845 10.8196 9.75845 10.3447 10.0513 10.0518C10.3442 9.75894 10.8191 9.75894 11.112 10.0518L12.0001 10.9399L12.8307 10.1094L11.9426 9.22125C11.6497 8.92836 11.6497 8.45348 11.9426 8.16059Z" fill="#1C274C"/>
</svg>
