<svg width="24" height="24" viewBox="0 0 24 24" fill="none" xmlns="http://www.w3.org/2000/svg">
<path d="M13.8643 5.78385C13.5506 5.75141 13.1447 5.75049 12.5279 5.75049H12C11.5858 5.75049 11.25 5.4147 11.25 5.00049C11.25 4.58628 11.5858 4.25049 12 4.25049H12.5648H12.5648C13.1348 4.25047 13.6187 4.25045 14.0186 4.2918C14.4444 4.33583 14.8379 4.43143 15.2097 4.6612C15.5815 4.89097 15.843 5.20019 16.0728 5.56136C16.2754 5.87982 16.4785 6.28079 16.7135 6.75049L17.8682 6.75049C18.1521 6.75047 18.4127 6.75045 18.6298 6.76995C18.8645 6.79104 19.1203 6.83946 19.3679 6.98088C19.6395 7.13598 19.8645 7.36101 20.0196 7.63258C20.161 7.88017 20.2095 8.13598 20.2306 8.37066C20.2501 8.58782 20.25 8.84844 20.25 9.13227V9.16121L20.2501 9.22575C20.2507 9.48552 20.2514 9.76364 20.167 10.0276C20.1106 10.2044 20.0263 10.3711 19.9175 10.5214C19.755 10.7459 19.5307 10.9103 19.3212 11.0639L19.2691 11.1021L18.9916 11.3066L19.4787 12.2808C21.3237 12.5158 22.75 14.0916 22.75 16.0005C22.75 18.0716 21.0711 19.7505 19 19.7505C17.1858 19.7505 15.6725 18.4622 15.325 16.7505H10.175C9.82755 18.4622 8.31423 19.7505 6.50002 19.7505C4.68264 19.7505 3.16722 18.4577 2.82323 16.7415C1.98372 16.6565 1.32191 15.9827 1.25541 15.1378C1.24992 15.068 1.24996 14.9925 1.25001 14.9197L1.25002 14.9005L1.25001 14.8624C1.24999 14.5273 1.24998 14.3143 1.26466 14.1278C1.44798 11.7985 3.29805 9.94845 5.62733 9.76513C5.81381 9.75046 6.02685 9.75047 6.36188 9.75049H6.36191L6.40002 9.75049L7.05201 9.75049C7.95049 9.75046 8.69971 9.75043 9.29449 9.8304C9.92229 9.91481 10.4891 10.1005 10.9446 10.5559C11.4 11.0114 11.5857 11.5782 11.6701 12.206C11.7501 12.8008 11.75 13.55 11.75 14.4485V14.4485L11.75 15.2505H15.325C15.5973 13.9094 16.5851 12.8282 17.8727 12.4229L15.4348 7.54705C15.1589 6.99536 14.9766 6.63269 14.8073 6.36661C14.6473 6.11519 14.5326 6.00611 14.4211 5.93718C14.3096 5.86825 14.1608 5.8145 13.8643 5.78385Z" fill="#1C274C"/>
</svg>
