<svg width="24" height="24" viewBox="0 0 24 24" fill="none" xmlns="http://www.w3.org/2000/svg">
<path fill-rule="evenodd" clip-rule="evenodd" d="M3.17157 4.17169C2 5.34327 2 7.22889 2 11.0001V11.2501H22V11.0001C22 7.22889 22 5.34327 20.8284 4.17169C19.6569 3.00012 17.7712 3.00012 14 3.00012H10C6.22876 3.00012 4.34315 3.00012 3.17157 4.17169ZM22 12.7501H2V13.0001C2 16.7714 2 18.657 3.17157 19.8285C4.34315 21.0001 6.22876 21.0001 10 21.0001H14C17.7712 21.0001 19.6569 21.0001 20.8284 19.8285C22 18.657 22 16.7714 22 13.0001V12.7501ZM5.25 17.5001C5.25 17.9143 5.58579 18.2501 6 18.2501C6.41421 18.2501 6.75 17.9143 6.75 17.5001V15.5001C6.75 15.0859 6.41421 14.7501 6 14.7501C5.58579 14.7501 5.25 15.0859 5.25 15.5001L5.25 17.5001ZM9 18.2501C8.58579 18.2501 8.25 17.9143 8.25 17.5001V15.5001C8.25 15.0859 8.58579 14.7501 9 14.7501C9.41421 14.7501 9.75 15.0859 9.75 15.5001V17.5001C9.75 17.9143 9.41421 18.2501 9 18.2501ZM13.5 15.7501C13.0858 15.7501 12.75 16.0859 12.75 16.5001C12.75 16.9143 13.0858 17.2501 13.5 17.2501H18C18.4142 17.2501 18.75 16.9143 18.75 16.5001C18.75 16.0859 18.4142 15.7501 18 15.7501H13.5ZM9 9.25012C8.58579 9.25012 8.25 8.91434 8.25 8.50012V6.50012C8.25 6.08591 8.58579 5.75012 9 5.75012C9.41421 5.75012 9.75 6.08591 9.75 6.50012V8.50012C9.75 8.91434 9.41421 9.25012 9 9.25012ZM5.25 8.50012C5.25 8.91434 5.58579 9.25012 6 9.25012C6.41421 9.25012 6.75 8.91434 6.75 8.50012V6.50012C6.75 6.08591 6.41421 5.75012 6 5.75012C5.58579 5.75012 5.25 6.08591 5.25 6.50012L5.25 8.50012ZM12.75 7.50012C12.75 7.08591 13.0858 6.75012 13.5 6.75012H18C18.4142 6.75012 18.75 7.08591 18.75 7.50012C18.75 7.91434 18.4142 8.25012 18 8.25012H13.5C13.0858 8.25012 12.75 7.91434 12.75 7.50012Z" fill="#1C274C"/>
</svg>
