<svg width="24" height="24" viewBox="0 0 24 24" fill="none" xmlns="http://www.w3.org/2000/svg">
<path fill-rule="evenodd" clip-rule="evenodd" d="M3.37752 5.0829C3 5.62077 3 7.21956 3 10.4171V11.9918C3 17.6299 7.23896 20.366 9.89856 21.5278C10.62 21.8429 10.9807 22.0005 12 22.0005C13.0193 22.0005 13.38 21.8429 14.1014 21.5278C16.761 20.366 21 17.6299 21 11.9918V10.4171C21 7.21956 21 5.62077 20.6225 5.0829C20.245 4.54503 18.7417 4.03045 15.7351 3.00128L15.1623 2.80521C13.595 2.26873 12.8114 2.00049 12 2.00049C11.1886 2.00049 10.405 2.26873 8.83772 2.8052L8.26491 3.00128C5.25832 4.03045 3.75503 4.54503 3.37752 5.0829ZM16.45 10.9505L13.05 8.40049C12.4278 7.93382 11.5722 7.93382 10.95 8.40049L7.55 10.9505C7.21863 11.199 7.15147 11.6691 7.4 12.0005C7.64853 12.3319 8.11863 12.399 8.45 12.1505L11.85 9.60049C11.9389 9.53382 12.0611 9.53382 12.15 9.60049L15.55 12.1505C15.8814 12.399 16.3515 12.3319 16.6 12.0005C16.8485 11.6691 16.7814 11.199 16.45 10.9505ZM14.45 13.4505L12.45 11.9505C12.1833 11.7505 11.8167 11.7505 11.55 11.9505L9.55 13.4505C9.21863 13.699 9.15147 14.1691 9.4 14.5005C9.64853 14.8319 10.1186 14.899 10.45 14.6505L12 13.488L13.55 14.6505C13.8814 14.899 14.3515 14.8319 14.6 14.5005C14.8485 14.1691 14.7814 13.699 14.45 13.4505Z" fill="#1C274C"/>
</svg>
