<svg width="24" height="24" viewBox="0 0 24 24" fill="none" xmlns="http://www.w3.org/2000/svg">
<path d="M16.5279 2.00049H7.47225C6.26943 2.00049 5.66803 2.00049 5.18472 2.29919C4.70142 2.59788 4.43246 3.1358 3.89454 4.21163L2.49093 7.75978C2.16664 8.57954 1.8829 9.54574 2.42878 10.238C2.795 10.7024 3.36269 11.0005 4.00003 11.0005C5.1046 11.0005 6.00003 10.1051 6.00003 9.00049C6.00003 10.1051 6.89546 11.0005 8.00003 11.0005C9.1046 11.0005 10 10.1051 10 9.00049C10 10.1051 10.8955 11.0005 12 11.0005C13.1046 11.0005 14 10.1051 14 9.00049C14 10.1051 14.8955 11.0005 16 11.0005C17.1046 11.0005 18 10.1051 18 9.00049C18 10.1051 18.8955 11.0005 20 11.0005C20.6374 11.0005 21.2051 10.7024 21.5713 10.238C22.1172 9.54574 21.8335 8.57954 21.5092 7.75978L20.1056 4.21163C19.5677 3.1358 19.2987 2.59789 18.8154 2.29919C18.3321 2.00049 17.7307 2.00049 16.5279 2.00049Z" fill="#1C274C"/>
<path fill-rule="evenodd" clip-rule="evenodd" d="M20 21.2505H22C22.4142 21.2505 22.75 21.5863 22.75 22.0005C22.75 22.4147 22.4142 22.7505 22 22.7505H2C1.58579 22.7505 1.25 22.4147 1.25 22.0005C1.25 21.5863 1.58579 21.2505 2 21.2505H4L4 12.5005C4.74363 12.5005 5.43309 12.2686 6 11.8732C6.56692 12.2686 7.25638 12.5005 8 12.5005C8.74363 12.5005 9.43309 12.2686 10 11.8732C10.5669 12.2686 11.2564 12.5005 12 12.5005C12.7436 12.5005 13.4331 12.2686 14 11.8732C14.5669 12.2686 15.2564 12.5005 16 12.5005C16.7436 12.5005 17.4331 12.2686 18 11.8732C18.5669 12.2686 19.2564 12.5005 20 12.5005L20 21.2505ZM9.5 21.2505H14.5V18.5005C14.5 17.5659 14.5 17.0986 14.299 16.7505C14.1674 16.5225 13.978 16.3331 13.75 16.2015C13.4019 16.0005 12.9346 16.0005 12 16.0005C11.0654 16.0005 10.5981 16.0005 10.25 16.2015C10.022 16.3331 9.83261 16.5225 9.70096 16.7505C9.5 17.0986 9.5 17.5659 9.5 18.5005V21.2505Z" fill="#1C274C"/>
</svg>
