<svg width="24" height="24" viewBox="0 0 24 24" fill="none" xmlns="http://www.w3.org/2000/svg">
<path d="M3.77791 3.65533C3.59687 4.01622 3.50783 4.46142 3.32975 5.35181L2.73183 8.34142C2.35324 10.2344 3.8011 12.0005 5.73155 12.0005C7.30318 12.0005 8.61911 10.8096 8.77549 9.24576L8.8445 8.55564C8.68141 10.4043 10.1385 12.0005 11.9998 12.0005C13.8737 12.0005 15.338 10.3825 15.1515 8.51786L15.2245 9.24576C15.3809 10.8096 16.6968 12.0005 18.2685 12.0005C20.1989 12.0005 21.6468 10.2344 21.2682 8.34142L20.6703 5.35181C20.4922 4.46144 20.4031 4.01622 20.2221 3.65533C19.8406 2.89488 19.1542 2.33216 18.3337 2.10724C17.9443 2.00049 17.4903 2.00049 16.5823 2.00049H14.4998H7.41771C6.50969 2.00049 6.05567 2.00049 5.66628 2.10724C4.84579 2.33216 4.15938 2.89488 3.77791 3.65533Z" fill="#1C274C"/>
<path d="M18.2685 13.5004C19.0856 13.5004 19.8448 13.2881 20.5 12.9194V14.0005C20.5 17.7717 20.5 19.6573 19.3284 20.8289C18.3853 21.772 16.9796 21.9559 14.5 21.9918V18.5005C14.5 17.5659 14.5 17.0986 14.299 16.7505C14.1674 16.5225 13.978 16.3331 13.75 16.2015C13.4019 16.0005 12.9346 16.0005 12 16.0005C11.0654 16.0005 10.5981 16.0005 10.25 16.2015C10.022 16.3331 9.83261 16.5225 9.70096 16.7505C9.5 17.0986 9.5 17.5659 9.5 18.5005V21.9918C7.02043 21.9559 5.61466 21.772 4.67157 20.8289C3.5 19.6573 3.5 17.7717 3.5 14.0005V12.9194C4.15524 13.2881 4.91439 13.5004 5.73157 13.5004C6.92864 13.5004 8.02617 13.0369 8.84435 12.2724C9.67168 13.0326 10.7765 13.5004 11.9998 13.5004C13.2232 13.5004 14.3281 13.0325 15.1555 12.2722C15.9737 13.0368 17.0713 13.5004 18.2685 13.5004Z" fill="#1C274C"/>
</svg>
