<svg width="24" height="24" viewBox="0 0 24 24" fill="none" xmlns="http://www.w3.org/2000/svg">
<path fill-rule="evenodd" clip-rule="evenodd" d="M3.17157 4.17194C2 5.34351 2 7.22913 2 11.0004V13.0004C2 16.7716 2 18.6572 3.17157 19.8288C4.34315 21.0004 6.22876 21.0004 10 21.0004H14C14.0843 21.0004 14.1676 21.0004 14.25 21.0004L14.25 3.00037C14.1676 3.00035 14.0843 3.00037 14 3.00037H10C6.22876 3.00037 4.34315 3.00037 3.17157 4.17194ZM15.75 3.00596L15.75 20.9948C18.3859 20.9672 19.8541 20.8031 20.8284 19.8288C22 18.6572 22 16.7716 22 13.0004V11.0004C22 7.22913 22 5.34351 20.8284 4.17194C19.8541 3.19761 18.3859 3.03357 15.75 3.00596Z" fill="#1C274C"/>
</svg>
