<svg width="24" height="24" viewBox="0 0 24 24" fill="none" xmlns="http://www.w3.org/2000/svg">
<path fill-rule="evenodd" clip-rule="evenodd" d="M2 11.0004C2 7.22914 2 5.34352 3.17157 4.17194C4.34315 3.00037 6.22876 3.00037 10 3.00037H14H14.25L14.25 21.0004H14H10C6.22876 21.0004 4.34315 21.0004 3.17157 19.8288C2 18.6572 2 16.7716 2 13.0004V11.0004ZM15.75 20.9948L15.75 3.00596C18.3859 3.03358 19.8541 3.19762 20.8284 4.17194C22 5.34352 22 7.22914 22 11.0004V13.0004C22 16.7716 22 18.6572 20.8284 19.8288C19.8541 20.8031 18.3859 20.9672 15.75 20.9948ZM9.96967 15.47C10.2626 15.1771 10.7374 15.1771 11.0303 15.47L12.0303 16.47C12.3232 16.7629 12.3232 17.2378 12.0303 17.5307L11.0303 18.5307C10.7374 18.8236 10.2626 18.8236 9.96967 18.5307C9.67678 18.2378 9.67678 17.7629 9.96967 17.47L10.4393 17.0004L9.96967 16.5307C9.67678 16.2378 9.67678 15.7629 9.96967 15.47ZM9.70225 14.2637C9.84769 13.8759 9.65118 13.4436 9.26334 13.2981C8.8755 13.1527 8.44319 13.3492 8.29775 13.737L6.79775 17.737C6.65231 18.1249 6.84882 18.5572 7.23666 18.7026C7.6245 18.8481 8.05681 18.6516 8.20225 18.2637L9.70225 14.2637ZM6.53033 13.47C6.82322 13.7629 6.82322 14.2378 6.53033 14.5307L6.06066 15.0004L6.53033 15.47C6.82322 15.7629 6.82322 16.2378 6.53033 16.5307C6.23744 16.8236 5.76256 16.8236 5.46967 16.5307L4.46967 15.5307C4.17678 15.2378 4.17678 14.7629 4.46967 14.47L5.46967 13.47C5.76256 13.1771 6.23744 13.1771 6.53033 13.47Z" fill="#1C274C"/>
</svg>
