<svg width="24" height="24" viewBox="0 0 24 24" fill="none" xmlns="http://www.w3.org/2000/svg">
<path fill-rule="evenodd" clip-rule="evenodd" d="M2 9.62618C2 10.8182 2.95927 11.7775 4.8778 13.696L10.3042 19.1224C12.2228 21.041 13.182 22.0002 14.3741 22.0002C15.5661 22.0002 16.5254 21.041 18.4439 19.1224L19.1222 18.4441C21.0407 16.5256 22 15.5663 22 14.3743C22 13.1823 21.0407 12.223 19.1222 10.3045L13.6958 4.87804C11.7772 2.95951 10.818 2.00024 9.62593 2.00024C8.43391 2.00024 7.47464 2.95951 5.55611 4.87804L4.8778 5.55635C2.95927 7.47488 2 8.43415 2 9.62618ZM9.47801 6.08721C9.7709 5.79432 9.7709 5.31945 9.47801 5.02655C9.18511 4.73366 8.71024 4.73366 8.41735 5.02655L5.02582 8.41808C4.73293 8.71097 4.73293 9.18584 5.02582 9.47874C5.31872 9.77163 5.79359 9.77163 6.08648 9.47874L9.47801 6.08721ZM16.7481 16.7491C17.31 16.1872 17.31 15.2761 16.7481 14.7142C16.1862 14.1522 15.2751 14.1522 14.7132 14.7142C14.1513 15.2761 14.1513 16.1872 14.7132 16.7491C15.2751 17.311 16.1862 17.311 16.7481 16.7491Z" fill="#1C274C"/>
<path fill-rule="evenodd" clip-rule="evenodd" d="M16.2606 1.87446C16.3301 1.46611 16.7174 1.1914 17.1258 1.26086C20.3254 1.80519 22.75 4.62133 22.75 8.00024C22.75 8.27771 22.5968 8.5325 22.3518 8.66263C22.1067 8.79277 21.8098 8.77698 21.58 8.62159L20.08 7.60757C19.7368 7.37559 19.6467 6.90934 19.8787 6.56618C20.1106 6.22303 20.5769 6.1329 20.92 6.36488L21.0196 6.4322C20.4426 4.52283 18.8399 3.07403 16.8742 2.73962C16.4659 2.67015 16.1912 2.28281 16.2606 1.87446Z" fill="#1C274C"/>
<path fill-rule="evenodd" clip-rule="evenodd" d="M7.73938 22.126C7.66991 22.5344 7.28256 22.8091 6.87422 22.7396C3.67459 22.1953 1.25 19.3792 1.25 16.0002C1.25 15.7228 1.40319 15.468 1.64824 15.3378C1.89329 15.2077 2.19017 15.2235 2.42004 15.3789L3.92004 16.3929C4.2632 16.6249 4.35332 17.0911 4.12134 17.4343C3.88936 17.7775 3.42312 17.8676 3.07996 17.6356L2.98038 17.5683C3.55736 19.4777 5.16008 20.9265 7.12578 21.2609C7.53413 21.3303 7.80885 21.7177 7.73938 22.126Z" fill="#1C274C"/>
</svg>
