<svg width="24" height="24" viewBox="0 0 24 24" fill="none" xmlns="http://www.w3.org/2000/svg">
<path d="M9.75 9.00012C9.75 7.75748 10.7574 6.75012 12 6.75012C13.2426 6.75012 14.25 7.75748 14.25 9.00012C14.25 10.2428 13.2426 11.2501 12 11.2501C10.7574 11.2501 9.75 10.2428 9.75 9.00012Z" fill="#1C274C"/>
<path fill-rule="evenodd" clip-rule="evenodd" d="M21.2093 15.9041C21.7184 14.7047 22 13.3853 22 12.0001C22 6.47727 17.5228 2.00012 12 2.00012C6.47715 2.00012 2 6.47727 2 12.0001C2 13.3851 2.28157 14.7044 2.79059 15.9038L2.70455 15.9999C2.1112 16.6628 1.74951 17.5401 1.74951 18.5001C1.74951 20.5711 3.42844 22.2501 5.49951 22.2501C6.45947 22.2501 7.33675 21.8884 7.9997 21.295L8.09559 21.2092C9.29517 21.7184 10.6147 22.0001 12 22.0001C13.3852 22.0001 14.7046 21.7185 15.9041 21.2093L15.9998 21.295C16.6628 21.8884 17.54 22.2501 18.5 22.2501C20.5711 22.2501 22.25 20.5711 22.25 18.5001C22.25 17.5401 21.8883 16.6628 21.295 15.9999L21.2093 15.9041ZM20.442 17.3628C19.6539 18.6009 18.6008 19.6539 17.3627 20.4421C17.6964 20.638 18.0846 20.7501 18.5 20.7501C19.7426 20.7501 20.75 19.7427 20.75 18.5001C20.75 18.0847 20.638 17.6964 20.442 17.3628ZM6.63705 20.4419C5.39891 19.6537 4.34587 18.6006 3.55776 17.3624C3.36165 17.6961 3.24951 18.0845 3.24951 18.5001C3.24951 19.7427 4.25687 20.7501 5.49951 20.7501C5.91499 20.7501 6.30335 20.638 6.63705 20.4419ZM12 5.25012C9.92893 5.25012 8.25 6.92905 8.25 9.00012C8.25 11.0712 9.92893 12.7501 12 12.7501C14.0711 12.7501 15.75 11.0712 15.75 9.00012C15.75 6.92905 14.0711 5.25012 12 5.25012ZM12 15.2501C12.4142 15.2501 12.75 15.5859 12.75 16.0001V18.0001C12.75 18.4143 12.4142 18.7501 12 18.7501C11.5858 18.7501 11.25 18.4143 11.25 18.0001V16.0001C11.25 15.5859 11.5858 15.2501 12 15.2501Z" fill="#1C274C"/>
</svg>
