<svg width="24" height="24" viewBox="0 0 24 24" fill="none" xmlns="http://www.w3.org/2000/svg">
<path fill-rule="evenodd" clip-rule="evenodd" d="M2.84692 3.57004C2 4.41696 2 5.78005 2 8.50622V16.217C2 18.9432 2 20.3063 2.84692 21.1532C3.69384 22.0001 5.05694 22.0001 7.78313 22.0001H8.74699C11.4732 22.0001 12.8363 22.0001 13.6832 21.1532C14.5301 20.3063 14.5301 18.9432 14.5301 16.217V8.50622C14.5301 5.78005 14.5301 4.41696 13.6832 3.57004C12.8363 2.72313 11.4732 2.72313 8.74699 2.72313H7.78313C5.05694 2.72313 3.69384 2.72313 2.84692 3.57004ZM5.85542 4.89179C5.45618 4.89179 5.13253 5.21544 5.13253 5.61467C5.13253 6.01391 5.45618 6.33756 5.85542 6.33756H10.6747C11.0739 6.33756 11.3976 6.01391 11.3976 5.61467C11.3976 5.21544 11.0739 4.89179 10.6747 4.89179H5.85542ZM8.26506 19.1086C9.06354 19.1086 9.71084 18.4613 9.71084 17.6628C9.71084 16.8643 9.06354 16.217 8.26506 16.217C7.46658 16.217 6.81928 16.8643 6.81928 17.6628C6.81928 18.4613 7.46658 19.1086 8.26506 19.1086Z" fill="#1C274C"/>
<path fill-rule="evenodd" clip-rule="evenodd" d="M21.2771 16.2166C21.2771 18.9428 21.2771 20.3059 20.4302 21.1528C19.979 21.604 18.7482 21.8175 17.4478 21.9179C16.5573 21.9866 16.1121 22.0209 15.803 21.7348C15.494 21.4487 15.494 20.9804 15.494 20.0439V12.4018C15.494 11.4653 15.494 10.9971 15.802 10.7111C16.1101 10.425 16.5561 10.4582 17.448 10.5245C18.7484 10.6212 19.9791 10.8293 20.4302 11.2804C21.2771 12.1274 21.2771 13.4905 21.2771 16.2166ZM19.1084 14.2893C19.1084 13.8901 18.7848 13.5664 18.3855 13.5664C17.9863 13.5664 17.6627 13.8901 17.6627 14.2893V18.1447C17.6627 18.544 17.9863 18.8676 18.3855 18.8676C18.7848 18.8676 19.1084 18.544 19.1084 18.1447V14.2893Z" fill="#1C274C"/>
<path fill-rule="evenodd" clip-rule="evenodd" d="M15.7452 2.60189C15.8121 2.2083 16.1855 1.94352 16.5791 2.01048C19.663 2.53512 22 5.24946 22 8.50622C22 8.77366 21.8524 9.01924 21.6162 9.14467C21.38 9.2701 21.0938 9.25488 20.8723 9.10511L19.4265 8.12774C19.0957 7.90415 19.0088 7.45476 19.2324 7.12401C19.456 6.79325 19.9054 6.70638 20.2362 6.92998L20.3322 6.99486C19.776 5.15452 18.2312 3.75809 16.3366 3.43577C15.943 3.36882 15.6782 2.99547 15.7452 2.60189Z" fill="#1C274C"/>
</svg>
