<svg width="24" height="24" viewBox="0 0 24 24" fill="none" xmlns="http://www.w3.org/2000/svg">
<path d="M19.7497 12.7501C20.7166 8.8659 21.1456 6.84749 20.134 5.42834C20.0665 5.33358 19.9948 5.24181 19.9193 5.1533C18.7216 3.75012 16.4811 3.75012 11.9999 3.75012C7.5188 3.75012 5.27824 3.75012 4.08059 5.1533C4.00504 5.24181 3.93339 5.33358 3.86584 5.42834C2.85424 6.84749 3.28329 8.8659 4.25017 12.7501H19.7497Z" fill="#1C274C"/>
<path d="M4.75 17.7501V19.7502C4.75 20.1644 4.41421 20.5002 4 20.5002C3.58579 20.5002 3.25 20.1644 3.25 19.7502V17.6047C2.51704 17.308 2 16.5895 2 15.7501C2 14.6456 2.89543 13.7501 4 13.7501H20C21.1046 13.7501 22 14.6456 22 15.7501C22 16.5895 21.483 17.308 20.75 17.6047V19.7502C20.75 20.1644 20.4142 20.5002 20 20.5002C19.5858 20.5002 19.25 20.1644 19.25 19.7502V17.7501H4.75Z" fill="#1C274C"/>
</svg>
