<svg width="24" height="24" viewBox="0 0 24 24" fill="none" xmlns="http://www.w3.org/2000/svg">
<path fill-rule="evenodd" clip-rule="evenodd" d="M16.7628 3.28873C17.0691 3.18665 17.4063 3.29199 17.6 3.55025L20.6 7.55025C20.8485 7.88162 20.7814 8.35172 20.45 8.60025C20.1186 8.84877 19.6485 8.78162 19.4 8.45025L17.75 6.25025V20.0002C17.75 20.4145 17.4142 20.7502 17 20.7502C16.5858 20.7502 16.25 20.4145 16.25 20.0002V4.00025C16.25 3.67742 16.4566 3.39082 16.7628 3.28873ZM3.25 8.00025C3.25 7.58603 3.58579 7.25025 4 7.25025H13C13.4142 7.25025 13.75 7.58603 13.75 8.00025C13.75 8.41446 13.4142 8.75025 13 8.75025H4C3.58579 8.75025 3.25 8.41446 3.25 8.00025ZM5.25 13.0002C5.25 12.586 5.58579 12.2502 6 12.2502H13C13.4142 12.2502 13.75 12.586 13.75 13.0002C13.75 13.4145 13.4142 13.7502 13 13.7502H6C5.58579 13.7502 5.25 13.4145 5.25 13.0002ZM7.25 18.0002C7.25 17.586 7.58579 17.2502 8 17.2502H13C13.4142 17.2502 13.75 17.586 13.75 18.0002C13.75 18.4145 13.4142 18.7502 13 18.7502H8C7.58579 18.7502 7.25 18.4145 7.25 18.0002Z" fill="#1C274C"/>
</svg>
