<svg width="24" height="24" viewBox="0 0 24 24" fill="none" xmlns="http://www.w3.org/2000/svg">
<path fill-rule="evenodd" clip-rule="evenodd" d="M12.7521 3.97574C12.7521 4.39052 12.4154 4.72678 12 4.72678C11.5846 4.72678 11.2479 4.39052 11.2479 3.97574V2.00049C9.04427 2.16365 7.03884 3.03799 5.46094 4.3945L7.01653 5.94792C7.31023 6.24122 7.31023 6.71676 7.01653 7.01006C6.72282 7.30335 6.24663 7.30335 5.95292 7.01006L4.39733 5.45663C3.03895 7.03234 2.16339 9.03499 2 11.2356H3.97778C4.39314 11.2356 4.72986 11.5718 4.72986 11.9866C4.72986 12.4014 4.39314 12.7377 3.97778 12.7377H2C2.16339 14.9382 3.03895 16.9409 4.39733 18.5166L5.95292 16.9632C6.24663 16.6699 6.72282 16.6699 7.01653 16.9632C7.31023 17.2565 7.31023 17.732 7.01653 18.0253L5.46094 19.5787C7.21662 21.0881 9.50161 22.0005 12 22.0005C14.4984 22.0005 16.7834 21.0881 18.5391 19.5787L16.9835 18.0253C16.6898 17.732 16.6898 17.2565 16.9835 16.9632C17.2772 16.6699 17.7534 16.6699 18.0471 16.9632L19.6027 18.5166C20.9611 16.9409 21.8366 14.9382 22 12.7377H20.022C19.6066 12.7377 19.2699 12.4014 19.2699 11.9866C19.2699 11.5718 19.6066 11.2356 20.022 11.2356H22C21.8366 9.03499 20.9611 7.03234 19.6027 5.45663L18.0471 7.01006C17.7534 7.30335 17.2772 7.30335 16.9835 7.01006C16.6898 6.71676 16.6898 6.24122 16.9835 5.94792L18.5391 4.3945C16.9612 3.03799 14.9557 2.16365 12.7521 2.00049V3.97574ZM13.8109 10.1325C14.9857 11.3057 14.9857 13.2078 13.8109 14.381C13.364 14.8273 12.4363 15.1389 11.4583 15.3538C9.99567 15.6752 9.26438 15.8359 8.68196 15.2543C8.09954 14.6727 8.26045 13.9424 8.58226 12.4818C8.79746 11.5051 9.10956 10.5787 9.55645 10.1325C10.7313 8.95927 12.636 8.95927 13.8109 10.1325Z" fill="#1C274C"/>
</svg>
