<svg width="24" height="24" viewBox="0 0 24 24" fill="none" xmlns="http://www.w3.org/2000/svg">
<path d="M7.40544 6.07272C7.97793 5.434 8.36992 4.99864 8.68622 4.73536C9.00653 4.46874 9.11114 4.49617 9.14357 4.50557C9.18742 4.51829 9.30137 4.56862 9.45902 4.98179C9.6131 5.38557 9.7524 5.97927 9.95277 6.84049L10.0727 7.35637C10.1659 7.7593 10.2434 8.09406 10.4366 8.3638C10.6358 8.6418 10.925 8.80592 11.2547 8.99306L11.3187 9.02938L11.6763 9.23309C12.3829 9.63554 12.8591 9.90851 13.1694 10.1571C13.4665 10.3952 13.5176 10.5373 13.522 10.6583C13.5267 10.7856 13.4802 10.9454 13.1947 11.2318C12.9008 11.5265 12.4433 11.8681 11.7712 12.3675L11.3722 12.6639C11.0547 12.8992 10.7877 13.097 10.6156 13.3922C10.4472 13.6808 10.3955 14.0187 10.3315 14.4371L10.2505 14.9635C10.1143 15.8478 10.019 16.4601 9.89459 16.8858C9.8246 17.1254 9.75802 17.2591 9.70182 17.3354C9.59346 17.2951 9.44912 17.2363 9.27876 17.1547C8.87359 16.9607 8.32465 16.6391 7.76243 16.1334L7.44992 15.8523L7.4362 15.84C7.27632 15.6961 7.13417 15.5683 7.00548 15.4707C6.8663 15.3652 6.71616 15.2738 6.53242 15.2205C6.20757 15.1263 5.87311 15.189 5.51247 15.2567L5.43459 15.2713L5.03412 15.3456C4.24141 15.4926 3.71007 15.5895 3.32891 15.5966C2.96287 15.6034 2.88592 15.5245 2.84476 15.4671C2.78725 15.3868 2.73361 15.2313 2.82293 14.7933C2.91185 14.3572 3.11195 13.7757 3.40239 12.9362L3.57453 12.4389C3.71328 12.0391 3.82424 11.7194 3.81186 11.3819C3.79939 11.0421 3.66384 10.7358 3.49652 10.3576L3.28887 9.88721C2.93819 9.09255 2.69762 8.54458 2.57788 8.12555C2.45936 7.71083 2.49622 7.5428 2.55583 7.44061C2.60529 7.35582 2.69488 7.26553 3.05575 7.22096C3.43549 7.17406 3.97068 7.19516 4.76996 7.22917L5.17378 7.24635L5.25 7.24969C5.61684 7.26601 5.95271 7.28095 6.26451 7.14318C6.56783 7.00915 6.79718 6.75244 7.06032 6.4579L7.11513 6.39662L7.40544 6.07272Z" fill="#1C274C"/>
<path d="M10.9176 6.57447C10.7621 5.90607 10.6304 5.33993 10.4875 4.89543L17.1212 6.81971C17.1651 6.83243 17.279 6.88275 17.4367 7.29592C17.5907 7.69971 17.73 8.29341 17.9304 9.15463L18.0504 9.6705C18.0769 9.78525 18.1022 9.8947 18.1293 9.99847L12.1172 8.33336L11.8136 8.16044C11.3841 7.91582 11.3051 7.85895 11.2495 7.78141C11.1877 7.69505 11.1503 7.57493 11.0286 7.05154L10.9176 6.57447Z" fill="#1C274C"/>
<path d="M14.3426 9.98737L19.3503 11.3743L19.6539 11.5472C20.3606 11.9497 20.8368 12.2227 21.147 12.4713C21.4441 12.7093 21.4952 12.8514 21.4996 12.9724C21.5043 13.0997 21.4579 13.2596 21.1723 13.5459C20.8784 13.8406 20.4209 14.1822 19.7488 14.6816L19.3498 14.978C19.1612 15.1178 18.9905 15.2444 18.8468 15.3859L12.0421 13.412L12.4008 13.1455C13.0314 12.677 13.5501 12.2916 13.9028 11.9379C14.27 11.5696 14.5409 11.1545 14.5213 10.6216C14.5126 10.3825 14.4474 10.1737 14.3426 9.98737Z" fill="#1C274C"/>
<path d="M11.3743 14.2595L18.3867 16.2937C18.3575 16.435 18.3343 16.5869 18.3092 16.7512L18.2281 17.2777C18.151 17.7785 18.0372 18.2246 17.9163 18.6025C17.7033 19.2682 17.6487 19.3607 17.4887 19.4526C17.4199 19.4921 17.3551 19.5094 17.2195 19.4941C17.0535 19.4755 16.8408 19.4155 16.4777 19.3102L10.6832 17.6293C10.7527 17.4828 10.8078 17.3259 10.8545 17.1663C10.9996 16.6693 11.1041 15.9909 11.233 15.1541L11.3081 14.6659C11.3349 14.4923 11.356 14.3611 11.3743 14.2595Z" fill="#1C274C"/>
</svg>
