<svg width="24" height="24" viewBox="0 0 24 24" fill="none" xmlns="http://www.w3.org/2000/svg">
<path fill-rule="evenodd" clip-rule="evenodd" d="M12 22.0005C16.9706 22.0005 21 17.9711 21 13.0005C21 8.02993 16.9706 4.00049 12 4.00049C7.02944 4.00049 3 8.02993 3 13.0005C3 17.9711 7.02944 22.0005 12 22.0005ZM12 8.25049C12.4142 8.25049 12.75 8.58627 12.75 9.00049V13.0005C12.75 13.4147 12.4142 13.7505 12 13.7505C11.5858 13.7505 11.25 13.4147 11.25 13.0005V9.00049C11.25 8.58627 11.5858 8.25049 12 8.25049Z" fill="#1C274C"/>
<path fill-rule="evenodd" clip-rule="evenodd" d="M9.25 2.00049C9.25 1.58627 9.58579 1.25049 10 1.25049H14C14.4142 1.25049 14.75 1.58627 14.75 2.00049C14.75 2.4147 14.4142 2.75049 14 2.75049H10C9.58579 2.75049 9.25 2.4147 9.25 2.00049Z" fill="#1C274C"/>
</svg>
