<svg width="24" height="24" viewBox="0 0 24 24" fill="none" xmlns="http://www.w3.org/2000/svg">
<path d="M17 4.50049C17 5.8812 15.8807 7.00049 14.5 7.00049C13.1193 7.00049 12 5.8812 12 4.50049C12 3.11978 13.1193 2.00049 14.5 2.00049C15.8807 2.00049 17 3.11978 17 4.50049Z" fill="#1C274C"/>
<path fill-rule="evenodd" clip-rule="evenodd" d="M13.3633 10.3464C13.8381 11.0941 14.0951 12.1109 14.0951 13.4347C14.0951 18.5176 10.1339 22.7505 5 22.7505C4.58579 22.7505 4.25 22.4147 4.25 22.0005C4.25 21.5863 4.58579 21.2505 5 21.2505C9.2549 21.2505 12.5951 17.7407 12.5951 13.4347C12.5951 12.2914 12.3715 11.5828 12.097 11.1503C11.8323 10.7335 11.4884 10.5214 11.116 10.4222C10.726 10.3182 10.2869 10.3354 9.87888 10.4249C9.46283 10.5161 9.15214 10.666 9.02681 10.7548C8.70695 10.9815 8.38076 11.4089 8.24551 11.8571C8.11753 12.2811 8.18065 12.6168 8.44446 12.8718C8.44446 12.8718 8.44447 12.8718 8.44446 12.8718L8.46924 12.8957C8.7671 13.1835 8.77522 13.6583 8.48738 13.9562C8.19954 14.2541 7.72473 14.2622 7.42687 13.9743L7.40209 13.9504C6.62406 13.1985 6.56874 12.2214 6.80948 11.4237C7.04295 10.6501 7.57265 9.94683 8.15959 9.53094C8.48766 9.29848 8.99767 9.08247 9.55761 8.95968C10.1256 8.83514 10.8178 8.79027 11.5024 8.97279C12.2047 9.16001 12.8787 9.583 13.3633 10.3464ZM15.5072 14.4644C17.7239 14.1074 19.75 15.8036 19.75 18.0491V21.9962C19.75 22.4104 19.4142 22.7462 19 22.7462C18.5858 22.7462 18.25 22.4104 18.25 21.9962V18.0491C18.25 16.7428 17.0661 15.7327 15.7458 15.9454C15.3368 16.0112 14.9519 15.7331 14.886 15.3242C14.8202 14.9152 15.0983 14.5303 15.5072 14.4644Z" fill="#1C274C"/>
</svg>
