<svg width="24" height="24" viewBox="0 0 24 24" fill="none" xmlns="http://www.w3.org/2000/svg">
<path d="M21.8891 7.1719C22 8.4334 22 10.0059 22 12.0002C22 16.1339 22 18.4552 21.0126 19.9515L15.0611 14.0001L21.8891 7.1719Z" fill="#1C274C"/>
<path d="M19.952 21.0123L14.0004 15.0607L7.17167 21.8894C8.43317 22.0002 10.0056 22.0002 12 22.0002C16.1343 22.0002 18.4557 22.0002 19.952 21.0123Z" fill="#1C274C"/>
<path fill-rule="evenodd" clip-rule="evenodd" d="M12 2.00024C16.714 2.00024 19.0711 2.00024 20.5355 3.46471C21.0394 3.96858 21.3699 4.57811 21.5867 5.35294L5.3527 21.5869C4.57786 21.3702 3.96833 21.0396 3.46447 20.5358C2 19.0713 2 16.7143 2 12.0002C2 7.2862 2 4.92918 3.46447 3.46471C4.92893 2.00024 7.28595 2.00024 12 2.00024ZM5.5 8.75756C5.5 10.5424 6.61708 12.6252 8.35997 13.37C8.76626 13.5437 9.23374 13.5437 9.64003 13.37C11.3829 12.6252 12.5 10.5424 12.5 8.75756C12.5 6.9586 10.933 5.50024 9 5.50024C7.067 5.50024 5.5 6.9586 5.5 8.75756Z" fill="#1C274C"/>
<path d="M10.5 9.00024C10.5 9.82867 9.82843 10.5002 9 10.5002C8.17157 10.5002 7.5 9.82867 7.5 9.00024C7.5 8.17182 8.17157 7.50024 9 7.50024C9.82843 7.50024 10.5 8.17182 10.5 9.00024Z" fill="#1C274C"/>
</svg>
