<svg width="24" height="24" viewBox="0 0 24 24" fill="none" xmlns="http://www.w3.org/2000/svg">
<path d="M17 4.50049C17 5.8812 15.8807 7.00049 14.5 7.00049C13.1192 7.00049 12 5.8812 12 4.50049C12 3.11978 13.1192 2.00049 14.5 2.00049C15.8807 2.00049 17 3.11978 17 4.50049Z" fill="#1C274C"/>
<path fill-rule="evenodd" clip-rule="evenodd" d="M10.5025 9.20722C11.9872 8.57092 13.6388 9.65998 13.6388 11.2753V13.8957C13.6388 14.3658 13.5183 14.8281 13.2888 15.2384L10.5765 20.0866C10.2517 20.6673 9.72723 21.1105 9.10049 21.3341L5.25194 22.7069C4.8618 22.8461 4.43272 22.6426 4.29356 22.2525C4.15439 21.8623 4.35784 21.4332 4.74798 21.2941L8.59654 19.9213C8.88142 19.8197 9.11979 19.6182 9.26746 19.3542L11.9797 14.506C12.0841 14.3195 12.1388 14.1094 12.1388 13.8957V11.2753C12.1388 10.7369 11.5883 10.3738 11.0934 10.5859L8.63761 11.6384C8.14618 11.849 8.02666 12.4915 8.40948 12.8648L9.02354 13.4635C9.32011 13.7527 9.32612 14.2275 9.03696 14.5241C8.7478 14.8206 8.27296 14.8267 7.97639 14.5375L7.36233 13.9388C6.21388 12.819 6.57244 10.8915 8.04673 10.2597L10.5025 9.20722ZM16.5589 14.054C18.2317 13.7822 19.75 15.0736 19.75 16.7684V22.0005C19.75 22.4147 19.4142 22.7505 19 22.7505C18.5857 22.7505 18.25 22.4147 18.25 22.0005V16.7684C18.25 15.998 17.5599 15.411 16.7995 15.5346L15.7869 15.6991C15.3781 15.7655 14.9928 15.488 14.9263 15.0791C14.8599 14.6703 15.1375 14.285 15.5463 14.2185L16.5589 14.054Z" fill="#1C274C"/>
</svg>
