<svg width="24" height="24" viewBox="0 0 24 24" fill="none" xmlns="http://www.w3.org/2000/svg">
<path d="M14.5 2.00024H9.5C6.88382 2.00024 5.30862 2.00024 4.21682 2.45783L13.9057 9.50427L20.2716 2.71397C19.168 2.00024 17.534 2.00024 14.5 2.00024Z" fill="#1C274C"/>
<path d="M21.3225 3.78615L15.1069 10.4161L21.2865 15.2715C22 14.1679 22 12.534 22 9.50024C22 6.51847 22 4.88895 21.3225 3.78615Z" fill="#1C274C"/>
<path d="M2 9.50024C2 12.7877 2 14.4315 2.90796 15.5378C3.07418 15.7404 3.25989 15.9261 3.46243 16.0923C4.07821 16.5977 4.86048 16.8217 6 16.9211C6.60779 16.9741 7.31724 16.9916 8.15726 16.9974L8.72635 15.859L8.7724 15.7668C9.15377 15.0036 9.51175 14.2872 9.86973 13.7742C10.2357 13.2497 10.8992 12.5002 12 12.5002C13.1008 12.5002 13.7643 13.2497 14.1303 13.7742C14.4883 14.2872 14.8462 15.0036 15.2276 15.7669L15.2737 15.859L15.8427 16.9974C16.6828 16.9916 17.3922 16.9741 18 16.9211C18.9436 16.8388 19.6422 16.671 20.2042 16.3288L13.5476 11.0986L2.96107 3.3993C2.94315 3.42024 2.92545 3.44136 2.90796 3.46267C2 4.56902 2 6.21276 2 9.50024Z" fill="#1C274C"/>
<path d="M15.2673 19.2009L13.932 16.5297C13.089 14.8434 12.6675 14.0002 12 14.0002C11.3325 14.0002 10.911 14.8434 10.068 16.5297L8.73273 19.2009C8.22086 20.2248 7.96493 20.7368 8.00387 21.0591C8.06013 21.5247 8.41041 21.9009 8.87082 21.99C9.18949 22.0517 9.71822 21.8326 10.7757 21.3945C11.1669 21.2324 11.3625 21.1514 11.5629 21.11C11.8513 21.0504 12.1487 21.0504 12.4371 21.11C12.6375 21.1514 12.8331 21.2324 13.2243 21.3945C14.2818 21.8326 14.8105 22.0517 15.1292 21.99C15.5896 21.9009 15.9399 21.5247 15.9961 21.0591C16.0351 20.7368 15.7791 20.2248 15.2673 19.2009Z" fill="#1C274C"/>
</svg>
