<svg width="24" height="24" viewBox="0 0 24 24" fill="none" xmlns="http://www.w3.org/2000/svg">
<path d="M3.46447 3.46471C2 4.92918 2 7.2862 2 12.0002C2 16.1342 2 18.4556 2.98767 19.9519L19.9517 2.98791C18.4553 2.00024 16.134 2.00024 12 2.00024C7.28595 2.00024 4.92893 2.00024 3.46447 3.46471Z" fill="#1C274C"/>
<path d="M21.0123 4.04857L13.0607 12.0002L21.0123 19.9519C22 18.4556 22 16.1342 22 12.0002C22 7.86625 22 5.54491 21.0123 4.04857Z" fill="#1C274C"/>
<path d="M12 13.0609L4.04833 21.0126C5.54466 22.0002 7.866 22.0002 12 22.0002C16.134 22.0002 18.4553 22.0002 19.9517 21.0126L12 13.0609Z" fill="#1C274C"/>
</svg>
