<svg width="24" height="24" viewBox="0 0 24 24" fill="none" xmlns="http://www.w3.org/2000/svg">
<path fill-rule="evenodd" clip-rule="evenodd" d="M7.90695 4.25608C7.57591 2.95926 6.39994 2.00037 5 2.00037C3.34315 2.00037 2 3.34351 2 5.00037C2 6.4003 2.9589 7.57628 4.25572 7.90732C4.25194 7.93781 4.25 7.96886 4.25 8.00037V16.0004C4.25 16.0319 4.25195 16.0629 4.25572 16.0934C2.9589 16.4245 2 17.6004 2 19.0004C2 20.6572 3.34315 22.0004 5 22.0004C6.39994 22.0004 7.57591 21.0415 7.90695 19.7446C7.93744 19.7484 7.96849 19.7504 8 19.7504H16C16.0315 19.7504 16.0626 19.7484 16.093 19.7446C16.4241 21.0415 17.6001 22.0004 19 22.0004C20.6569 22.0004 22 20.6572 22 19.0004C22 17.6004 21.0411 16.4245 19.7443 16.0934C19.7481 16.0629 19.75 16.0319 19.75 16.0004V8.00037C19.75 7.96886 19.7481 7.93781 19.7443 7.90732C21.0411 7.57628 22 6.40031 22 5.00037C22 3.34351 20.6569 2.00037 19 2.00037C17.6001 2.00037 16.4241 2.95926 16.093 4.25609C16.0626 4.25231 16.0315 4.25037 16 4.25037H8C7.96849 4.25037 7.93744 4.25231 7.90695 4.25608ZM5.74428 7.90732C5.74806 7.93781 5.75 7.96886 5.75 8.00037L5.75 16.0004C5.75 16.0319 5.74805 16.0629 5.74428 16.0934C6.80311 16.3637 7.63667 17.1973 7.90695 18.2561C7.93744 18.2523 7.96849 18.2504 8 18.2504H16C16.0315 18.2504 16.0626 18.2523 16.093 18.2561C16.3633 17.1973 17.1969 16.3637 18.2557 16.0934C18.2519 16.0629 18.25 16.0319 18.25 16.0004V8.00037C18.25 7.96886 18.2519 7.93781 18.2557 7.90732C17.1969 7.63703 16.3633 6.80348 16.093 5.74465C16.0626 5.74842 16.0315 5.75037 16 5.75037H8C7.96849 5.75037 7.93744 5.74842 7.90695 5.74465C7.63666 6.80348 6.80311 7.63703 5.74428 7.90732Z" fill="#1C274C"/>
</svg>
