<svg width="24" height="24" viewBox="0 0 24 24" fill="none" xmlns="http://www.w3.org/2000/svg">
<path fill-rule="evenodd" clip-rule="evenodd" d="M12.052 1.25037H11.948C11.0495 1.25034 10.3003 1.25032 9.70552 1.33028C9.07773 1.41469 8.51093 1.60036 8.05546 2.05583C7.59999 2.5113 7.41432 3.0781 7.32991 3.70589C7.24995 4.30067 7.24997 5.04988 7.25 5.94835V6.02608C5.22882 6.09221 4.01511 6.3284 3.17157 7.17194C2 8.34351 2 10.2291 2 14.0004C2 17.7716 2 19.6572 3.17157 20.8288C4.34315 22.0004 6.22876 22.0004 10 22.0004H14C17.7712 22.0004 19.6569 22.0004 20.8284 20.8288C22 19.6572 22 17.7716 22 14.0004C22 10.2291 22 8.34351 20.8284 7.17194C19.9849 6.3284 18.7712 6.09221 16.75 6.02608V5.94838C16.75 5.04991 16.7501 4.30067 16.6701 3.70589C16.5857 3.0781 16.4 2.5113 15.9445 2.05583C15.4891 1.60036 14.9223 1.41469 14.2945 1.33028C13.6997 1.25032 12.9505 1.25034 12.052 1.25037ZM15.25 6.00225V6.00037C15.25 5.03636 15.2484 4.3888 15.1835 3.90576C15.1214 3.4443 15.0142 3.2468 14.8839 3.11649C14.7536 2.98617 14.5561 2.87895 14.0946 2.81691C13.6116 2.75196 12.964 2.75037 12 2.75037C11.036 2.75037 10.3884 2.75196 9.90539 2.81691C9.44393 2.87895 9.24644 2.98617 9.11612 3.11649C8.9858 3.2468 8.87858 3.4443 8.81654 3.90576C8.7516 4.3888 8.75 5.03636 8.75 6.00037V6.00225C9.14203 6.00037 9.55807 6.00037 10 6.00037H14C14.4419 6.00037 14.858 6.00037 15.25 6.00225ZM17 9.00037C17 9.55265 16.5523 10.0004 16 10.0004C15.4477 10.0004 15 9.55265 15 9.00037C15 8.44808 15.4477 8.00037 16 8.00037C16.5523 8.00037 17 8.44808 17 9.00037ZM8 10.0004C8.55228 10.0004 9 9.55265 9 9.00037C9 8.44808 8.55228 8.00037 8 8.00037C7.44772 8.00037 7 8.44808 7 9.00037C7 9.55265 7.44772 10.0004 8 10.0004Z" fill="#1C274C"/>
</svg>
