<svg width="24" height="24" viewBox="0 0 24 24" fill="none" xmlns="http://www.w3.org/2000/svg">
<path fill-rule="evenodd" clip-rule="evenodd" d="M16.1369 4.72897L17.9665 6.55861C20.6555 9.24759 22 10.5921 22 12.2628C22 13.9335 20.6555 15.278 17.9665 17.967C15.2775 20.656 13.933 22.0005 12.2623 22.0005C10.5916 22.0005 9.24711 20.656 6.55812 17.967L4.72848 16.1374C3.18295 14.5918 2.41018 13.8191 2.12264 12.8165C1.83509 11.8139 2.08083 10.749 2.57231 8.61924L2.85574 7.39106C3.26922 5.59929 3.47597 4.70341 4.08944 4.08993C4.70292 3.47645 5.5988 3.26971 7.39057 2.85623L8.61875 2.5728C10.7485 2.08132 11.8134 1.83558 12.816 2.12313C13.8186 2.41067 14.5914 3.18344 16.1369 4.72897ZM11.1467 14.3289C10.4737 13.656 10.4794 12.6904 10.8819 11.9251C10.6807 11.633 10.7101 11.23 10.9699 10.9702C11.2288 10.7113 11.6298 10.6812 11.9217 10.8799C12.2615 10.6993 12.635 10.6038 13.0071 10.6073C13.4213 10.6112 13.7539 10.9502 13.75 11.3644C13.7461 11.7786 13.4071 12.1112 12.9929 12.1073C12.816 12.1056 12.5835 12.185 12.3841 12.3844C11.9966 12.7719 12.0985 13.1594 12.2073 13.2683C12.3162 13.3771 12.7037 13.479 13.0912 13.0915C13.8753 12.3075 15.2289 12.0472 16.0964 12.9147C16.7694 13.5877 16.7637 14.5533 16.3612 15.3185C16.5624 15.6107 16.533 16.0137 16.2732 16.2735C16.0143 16.5324 15.6131 16.5624 15.3212 16.3636C14.8643 16.6064 14.3446 16.6974 13.849 16.5955C13.4433 16.5122 13.182 16.1156 13.2654 15.7099C13.3487 15.3042 13.7452 15.0429 14.151 15.1262C14.3281 15.1626 14.6137 15.1045 14.859 14.8593C15.2465 14.4717 15.1446 14.0842 15.0358 13.9754C14.9269 13.8665 14.5394 13.7646 14.1519 14.1521C13.3678 14.9362 12.0142 15.1964 11.1467 14.3289ZM10.021 10.2936C10.802 9.51256 10.802 8.24623 10.021 7.46518C9.23991 6.68413 7.97358 6.68413 7.19253 7.46518C6.41148 8.24623 6.41148 9.51256 7.19253 10.2936C7.97358 11.0747 9.23991 11.0747 10.021 10.2936Z" fill="#1C274C"/>
</svg>
