<svg width="24" height="24" viewBox="0 0 24 24" fill="none" xmlns="http://www.w3.org/2000/svg">
<path fill-rule="evenodd" clip-rule="evenodd" d="M12.858 20.0005H10.221C6.3456 20.0005 4.40789 20.0005 3.20394 18.8289C2 17.6573 2 15.7717 2 12.0005C2 8.22925 2 6.34363 3.20394 5.17206C4.40789 4.00049 6.34561 4.00049 10.221 4.00049H12.858C15.0854 4.00049 16.1992 4.00049 17.1289 4.50192C18.0586 5.00335 18.6488 5.9224 19.8294 7.7605L20.5102 8.82049C21.5034 10.3669 22 11.1401 22 12.0005C22 12.8609 21.5034 13.6341 20.5102 15.1805L19.8294 16.2405C18.6488 18.0786 18.0586 18.9976 17.1289 19.4991C16.1992 20.0005 15.0854 20.0005 12.858 20.0005ZM7 7.05472C7.41421 7.05472 7.75 7.37075 7.75 7.7606V16.2358C7.75 16.6256 7.41421 16.9417 7 16.9417C6.58579 16.9417 6.25 16.6256 6.25 16.2358V7.7606C6.25 7.37075 6.58579 7.05472 7 7.05472Z" fill="#1C274C"/>
</svg>
