<svg width="24" height="24" viewBox="0 0 24 24" fill="none" xmlns="http://www.w3.org/2000/svg">
<path fill-rule="evenodd" clip-rule="evenodd" d="M2.12264 12.8165C2.41018 13.8191 3.18295 14.5918 4.72848 16.1374L6.55812 17.967C9.24711 20.656 10.5916 22.0005 12.2623 22.0005C13.933 22.0005 15.2775 20.656 17.9665 17.967C20.6555 15.278 22 13.9335 22 12.2628C22 10.5921 20.6555 9.24759 17.9665 6.55861L16.1369 4.72897C14.5914 3.18344 13.8186 2.41067 12.816 2.12313C11.8134 1.83558 10.7485 2.08132 8.61875 2.5728L7.39057 2.85623C5.5988 3.26971 4.70292 3.47645 4.08944 4.08993C3.47597 4.70341 3.26922 5.59929 2.85574 7.39106L2.57231 8.61924C2.08083 10.749 1.83509 11.8139 2.12264 12.8165ZM10.1234 7.27146C10.911 8.05905 10.911 9.33598 10.1234 10.1236C9.33581 10.9111 8.05888 10.9111 7.27129 10.1236C6.48371 9.33598 6.48371 8.05905 7.27129 7.27146C8.05888 6.48388 9.33581 6.48388 10.1234 7.27146ZM19.0511 12.0516L12.0721 19.0308C11.7792 19.3237 11.3043 19.3237 11.0114 19.0308C10.7185 18.7379 10.7185 18.2631 11.0114 17.9702L17.9904 10.9909C18.2833 10.698 18.7582 10.698 19.0511 10.9909C19.344 11.2838 19.344 11.7587 19.0511 12.0516Z" fill="#1C274C"/>
</svg>
