<svg width="24" height="24" viewBox="0 0 24 24" fill="none" xmlns="http://www.w3.org/2000/svg">
<path fill-rule="evenodd" clip-rule="evenodd" d="M2.2509 11.881C2.2404 12.0571 2.26536 12.2707 2.3153 12.6979L2.71598 16.126C2.89681 17.6731 3.72352 19.0715 4.99182 19.9758C5.9263 20.642 7.04537 21.0001 8.19303 21.0001H11.8069C12.9546 21.0001 14.0736 20.642 15.0081 19.9758C15.8116 19.403 16.4378 18.6318 16.8349 17.7501H19C21.0711 17.7501 22.75 16.0712 22.75 14.0001C22.75 11.9291 21.0711 10.2501 19 10.2501H16.7212C16.5325 10.1456 16.3244 10.0704 16.1027 10.031C15.929 10.0001 15.7139 10.0001 15.2838 10.0001H4.71612C4.286 10.0001 4.07094 10.0001 3.89725 10.031C2.98677 10.1929 2.30599 10.9579 2.2509 11.881ZM17.7369 11.7501C17.7424 11.7934 17.7464 11.837 17.749 11.881C17.7595 12.0571 17.7346 12.2707 17.6847 12.6978L17.284 16.126C17.2791 16.1675 17.2738 16.2088 17.268 16.2501H19C20.2426 16.2501 21.25 15.2428 21.25 14.0001C21.25 12.7575 20.2426 11.7501 19 11.7501H17.7369Z" fill="#1C274C"/>
<path fill-rule="evenodd" clip-rule="evenodd" d="M10.5305 1.46979C10.8234 1.76269 10.8234 2.23756 10.5305 2.53045C10.2711 2.78984 10.2711 3.2104 10.5305 3.46979C11.3757 4.31497 11.3757 5.68527 10.5305 6.53045C10.2376 6.82335 9.76271 6.82335 9.46982 6.53045C9.17693 6.23756 9.17693 5.76268 9.46982 5.46979C9.72921 5.2104 9.72921 4.78984 9.46982 4.53045C8.62464 3.68527 8.62464 2.31497 9.46982 1.46979C9.76271 1.1769 10.2376 1.1769 10.5305 1.46979Z" fill="#1C274C"/>
<path fill-rule="evenodd" clip-rule="evenodd" d="M6.03033 2.96979C6.32322 3.26269 6.32322 3.73756 6.03033 4.03045L5.91421 4.14657C5.67096 4.38982 5.6436 4.77492 5.85 5.05012C6.50429 5.92251 6.41753 7.14325 5.64645 7.91434L5.53033 8.03045C5.23744 8.32335 4.76256 8.32335 4.46967 8.03045C4.17678 7.73756 4.17678 7.26269 4.46967 6.96979L4.58579 6.85368C4.82904 6.61043 4.8564 6.22533 4.65 5.95012C3.99571 5.07774 4.08247 3.857 4.85355 3.08591L4.96967 2.96979C5.26256 2.6769 5.73744 2.6769 6.03033 2.96979Z" fill="#1C274C"/>
<path fill-rule="evenodd" clip-rule="evenodd" d="M15.5303 2.96979C15.8232 3.26269 15.8232 3.73756 15.5303 4.03045L15.4142 4.14657C15.171 4.38982 15.1436 4.77492 15.35 5.05012C16.0043 5.92251 15.9175 7.14325 15.1464 7.91434L15.0303 8.03045C14.7374 8.32335 14.2626 8.32335 13.9697 8.03045C13.6768 7.73756 13.6768 7.26269 13.9697 6.96979L14.0858 6.85368C14.329 6.61043 14.3564 6.22533 14.15 5.95012C13.4957 5.07774 13.5825 3.857 14.3536 3.08591L14.4697 2.96979C14.7626 2.6769 15.2374 2.6769 15.5303 2.96979Z" fill="#1C274C"/>
</svg>
