<svg width="24" height="24" viewBox="0 0 24 24" fill="none" xmlns="http://www.w3.org/2000/svg">
<path d="M17.976 2.60226C18.4394 2.34267 18.742 2.17441 18.9825 2.07849C19.209 1.98817 19.3082 1.99277 19.3758 2.01032C19.4425 2.02767 19.5291 2.0707 19.6774 2.25715C19.8356 2.45605 20.0105 2.74765 20.2782 3.19759L21.3821 5.05262C21.6499 5.50269 21.8227 5.79522 21.921 6.02727C22.0133 6.24527 22.0063 6.33526 21.9904 6.39314C21.9741 6.45188 21.9326 6.53485 21.7385 6.68015C21.5329 6.83409 21.2316 7.00412 20.7681 7.26379L16.8361 9.4663C16.3975 9.71197 16.1138 9.86965 15.889 9.95911C15.6784 10.0429 15.5925 10.0359 15.5381 10.0215C15.4837 10.0072 15.4058 9.97084 15.2658 9.79432C15.1165 9.60594 14.9506 9.32937 14.6952 8.90019L13.5162 6.91893C13.2539 6.47809 13.0851 6.19224 12.989 5.96563C12.8987 5.75293 12.9059 5.66651 12.9206 5.61214C12.9354 5.55778 12.9729 5.4794 13.1589 5.33973C13.3569 5.19093 13.6479 5.02666 14.0984 4.77431L17.976 2.60226Z" fill="#1C274C"/>
<path d="M8.63784 8.45092L12.0871 6.51881C12.2139 6.78189 12.3907 7.07904 12.5908 7.41527L13.805 9.45557C13.9882 9.76346 14.1517 10.0382 14.3093 10.2629L12.7624 11.1293L16.9384 20.9183C17.1076 21.315 16.919 21.7719 16.5172 21.9389C16.1153 22.1059 15.6524 21.9197 15.4832 21.5231L12.0003 13.3587L8.51732 21.5231C8.34812 21.9197 7.88519 22.1059 7.48335 21.9389C7.0815 21.7719 6.8929 21.315 7.0621 20.9183L10.7594 12.2513C10.357 12.4765 10.0901 12.6232 9.87652 12.7082C9.66592 12.792 9.57999 12.785 9.52562 12.7706C9.47124 12.7563 9.39327 12.7199 9.25334 12.5434C9.104 12.355 8.93814 12.0785 8.68275 11.6493L8.05569 10.5955C7.79336 10.1547 7.62457 9.86885 7.5284 9.64224C7.43814 9.42954 7.4453 9.34312 7.46005 9.28875C7.47481 9.23439 7.51238 9.15601 7.6983 9.01634C7.89638 8.86754 8.18734 8.70327 8.63784 8.45092Z" fill="#1C274C"/>
<path d="M6.62684 10.1961L3.23194 12.0978C2.76839 12.3574 2.46708 12.5275 2.26148 12.6814C2.06741 12.8267 2.02586 12.9097 2.00964 12.9684C1.99365 13.0263 1.98667 13.1163 2.07902 13.3343C2.17732 13.5663 2.35007 13.8589 2.6179 14.3089C2.88564 14.7589 3.06048 15.0505 3.21868 15.2494C3.36698 15.4358 3.45364 15.4788 3.52035 15.4962C3.58788 15.5137 3.68707 15.5183 3.91358 15.428C4.15411 15.3321 4.45672 15.1638 4.92014 14.9043L8.29723 13.0126C8.13943 12.7878 7.97589 12.5129 7.79249 12.2047L7.1303 11.0919C6.93035 10.756 6.75363 10.459 6.62684 10.1961Z" fill="#1C274C"/>
</svg>
