<svg width="24" height="24" viewBox="0 0 24 24" fill="none" xmlns="http://www.w3.org/2000/svg">
<path fill-rule="evenodd" clip-rule="evenodd" d="M13.78 3.08261C13.8125 2.81196 13.8493 2.60109 13.8771 2.46121L13.9316 2.19037C16.6634 2.72942 19.1572 4.40042 20.6588 7.00132C22.1603 9.60197 22.3607 12.5968 21.4619 15.2319L21.3505 15.193C21.3183 15.1833 21.2673 15.1674 21.1998 15.1445C21.0648 15.0986 20.8637 15.0251 20.6131 14.9179C20.2324 14.7549 19.7916 14.9314 19.6287 15.3122C19.4657 15.6929 19.6423 16.1337 20.023 16.2966C20.3122 16.4204 20.5496 16.5076 20.7181 16.5647C20.7781 16.5851 20.8295 16.6017 20.8713 16.6147C20.0228 18.2498 18.7128 19.6699 16.9992 20.6593C15.2855 21.6487 13.4007 22.0731 11.5604 21.9904C11.57 21.9476 11.5813 21.8949 11.5937 21.8327C11.6285 21.6582 11.6717 21.409 11.7091 21.0967C11.7583 20.6855 11.4649 20.3122 11.0537 20.263C10.6424 20.2137 10.2692 20.5072 10.22 20.9184C10.1875 21.189 10.1507 21.3999 10.1229 21.5398L10.0533 21.8076C7.3274 21.2654 4.84006 19.5958 3.34119 16.9997C1.83991 14.3994 1.6394 11.405 2.53776 8.77009C2.57003 8.77983 2.73267 8.83361 2.80017 8.85651C2.93524 8.90232 3.13627 8.97585 3.38686 9.08311C3.7676 9.24608 4.20835 9.06954 4.37132 8.68881C4.53428 8.30808 4.35775 7.86732 3.97701 7.70436C3.68779 7.58056 3.45036 7.49337 3.28193 7.43624C3.22187 7.41587 3.17053 7.3993 3.12868 7.38624C3.97719 5.75114 5.28717 4.33107 7.00083 3.34168C8.7145 2.35229 10.5993 1.92786 12.4396 2.01058C12.43 2.05335 12.4187 2.1061 12.4063 2.16829C12.3715 2.34273 12.3283 2.59194 12.2909 2.90431C12.2417 3.31552 12.5351 3.68878 12.9463 3.73802C13.3576 3.78725 13.7308 3.49381 13.78 3.08261ZM12.9386 4.73742C13.351 4.69985 13.7158 5.00375 13.7534 5.41618C13.8022 5.95237 13.8928 6.5353 14.0448 7.1487C14.1445 7.55069 13.8993 7.95731 13.4974 8.05693C13.0954 8.15655 12.6887 7.91143 12.5891 7.50945C12.4172 6.81585 12.3149 6.15734 12.2598 5.55222C12.2223 5.13978 12.5261 4.77498 12.9386 4.73742ZM5.2407 9.18179C5.47945 8.84339 5.94733 8.76261 6.28573 9.00136C6.78222 9.35166 7.30135 9.76951 7.81608 10.2652C8.1144 10.5524 8.12337 11.0271 7.8361 11.3255C7.54884 11.6238 7.07413 11.6327 6.77581 11.3455C6.32059 10.9071 5.86107 10.5372 5.42113 10.2268C5.08273 9.98806 5.00195 9.52019 5.2407 9.18179ZM13.8359 8.99727C14.2092 8.81792 14.6572 8.97514 14.8365 9.34843C14.9602 9.60587 15.0967 9.8653 15.2471 10.1258C15.3975 10.3863 15.5539 10.6342 15.715 10.87C15.9486 11.212 15.8608 11.6786 15.5188 11.9122C15.1768 12.1458 14.7102 12.0579 14.4766 11.716C14.2945 11.4494 14.1178 11.1695 13.9482 10.8757C13.7786 10.5819 13.6245 10.2889 13.4847 9.99793C13.3054 9.62464 13.4626 9.17663 13.8359 8.99727ZM8.48121 12.0888C8.82318 11.8552 9.28978 11.943 9.52338 12.285C9.7055 12.5516 9.88215 12.8315 10.0518 13.1253C10.2214 13.4191 10.3755 13.712 10.5153 14.003C10.6946 14.3763 10.5374 14.8243 10.1641 15.0037C9.79085 15.1831 9.34284 15.0258 9.16348 14.6525C9.03979 14.3951 8.90334 14.1357 8.75295 13.8752C8.60255 13.6147 8.44609 13.3668 8.28499 13.131C8.05139 12.789 8.13924 12.3224 8.48121 12.0888ZM16.1639 12.6755C16.4512 12.3772 16.9259 12.3682 17.2242 12.6555C17.6794 13.0938 18.1389 13.4638 18.5789 13.7742C18.9173 14.0129 18.998 14.4808 18.7593 14.8192C18.5205 15.1576 18.0527 15.2384 17.7143 14.9996C17.2178 14.6493 16.6986 14.2315 16.1839 13.7358C15.8856 13.4485 15.8766 12.9738 16.1639 12.6755ZM10.5026 15.944C10.9046 15.8444 11.3113 16.0895 11.4109 16.4915C11.5828 17.1851 11.6851 17.8436 11.7402 18.4488C11.7777 18.8612 11.4739 19.226 11.0614 19.2636C10.649 19.3011 10.2842 18.9972 10.2466 18.5848C10.1978 18.0486 10.1072 17.4657 9.95516 16.8523C9.85554 16.4503 10.1007 16.0437 10.5026 15.944Z" fill="#1C274C"/>
</svg>
