<svg width="24" height="24" viewBox="0 0 24 24" fill="none" xmlns="http://www.w3.org/2000/svg">
<path fill-rule="evenodd" clip-rule="evenodd" d="M7.6087 1.00049C5.61567 1.00049 4 2.61616 4 4.60918V19.9417C4 21.631 5.36948 23.0005 7.05882 23.0005H14C17.3137 23.0005 20 20.3142 20 17.0005C20 14.4264 18.3791 12.2309 16.1022 11.3791C17.2702 10.2844 18 8.72764 18 7.00049C18 3.68678 15.3137 1.00049 12 1.00049H7.6087ZM12 11.0005C14.2091 11.0005 16 9.20963 16 7.00049C16 4.79135 14.2091 3.00049 12 3.00049H7.6087C6.72024 3.00049 6 3.72073 6 4.60918V11.0005H12ZM6 13.0005V19.9417C6 20.5264 6.47405 21.0005 7.05882 21.0005H14C16.2091 21.0005 18 19.2096 18 17.0005C18 14.7913 16.2091 13.0005 14 13.0005H6Z" fill="#1C274C"/>
</svg>
