<svg width="24" height="24" viewBox="0 0 24 24" fill="none" xmlns="http://www.w3.org/2000/svg">
<path fill-rule="evenodd" clip-rule="evenodd" d="M7.93417 2.00049C7.95604 2.00049 7.97799 2.00049 8 2.00049L16.0658 2.00049C16.9523 2.00044 17.7161 2.0004 18.3278 2.08263C18.9833 2.17077 19.6117 2.36951 20.1213 2.87917C20.631 3.38884 20.8297 4.01719 20.9179 4.6727C21.0001 5.28437 21.0001 6.04819 21 6.93469L21 7.95049C21 8.50278 20.5523 8.95049 20 8.95049C19.4477 8.95049 19 8.50278 19 7.95049V7.00049C19 6.02942 18.9979 5.4017 18.9357 4.9392C18.8774 4.50546 18.7832 4.36951 18.7071 4.29339C18.631 4.21726 18.495 4.12311 18.0613 4.0648C17.5988 4.00262 16.9711 4.00049 16 4.00049H13V21.0005C13 21.5528 12.5523 22.0005 12 22.0005C11.4477 22.0005 11 21.5528 11 21.0005V4.00049H8C7.02893 4.00049 6.40122 4.00262 5.93871 4.0648C5.50497 4.12311 5.36902 4.21726 5.2929 4.29339C5.21677 4.36951 5.12263 4.50546 5.06431 4.9392C5.00213 5.4017 5 6.02942 5 7.00049V7.95049C5 8.50278 4.55229 8.95049 4 8.95049C3.44772 8.95049 3 8.50278 3 7.95049V7.00049C3 6.97848 3 6.95653 3 6.93466C2.99995 6.04818 2.99991 5.28436 3.08215 4.6727C3.17028 4.01719 3.36902 3.38884 3.87868 2.87917C4.38835 2.36951 5.0167 2.17077 5.67221 2.08263C6.28387 2.0004 7.04769 2.00044 7.93417 2.00049Z" fill="#1C274C"/>
<path d="M7 21.0005H17" stroke="#1C274C" stroke-width="2" stroke-linecap="round" stroke-linejoin="round"/>
</svg>
