<svg width="24" height="24" viewBox="0 0 24 24" fill="none" xmlns="http://www.w3.org/2000/svg">
<path fill-rule="evenodd" clip-rule="evenodd" d="M8.25 9.00049C8.25 8.58627 8.58579 8.25049 9 8.25049H15C15.4142 8.25049 15.75 8.58627 15.75 9.00049C15.75 9.4147 15.4142 9.75049 15 9.75049H12.75V15.0005C12.75 15.4147 12.4142 15.7505 12 15.7505C11.5858 15.7505 11.25 15.4147 11.25 15.0005V9.75049H9C8.58579 9.75049 8.25 9.4147 8.25 9.00049Z" fill="#1C274C"/>
<path fill-rule="evenodd" clip-rule="evenodd" d="M5.85986 3.26356C5.56645 2.52369 4.84432 2.00049 4 2.00049C2.89543 2.00049 2 2.89592 2 4.00049C2 4.84481 2.5232 5.56694 3.26307 5.86035C3.25449 5.90575 3.25 5.95259 3.25 6.00049L3.25 18.0005C3.25 18.0484 3.25449 18.0952 3.26307 18.1406C2.5232 18.434 2 19.1562 2 20.0005C2 21.1051 2.89543 22.0005 4 22.0005C4.84433 22.0005 5.56645 21.4773 5.85986 20.7374C5.90526 20.746 5.9521 20.7505 6 20.7505H18C18.0479 20.7505 18.0947 20.746 18.1401 20.7374C18.4335 21.4773 19.1557 22.0005 20 22.0005C21.1046 22.0005 22 21.1051 22 20.0005C22 19.1562 21.4768 18.434 20.7369 18.1406C20.7455 18.0952 20.75 18.0484 20.75 18.0005L20.75 6.00049C20.75 5.95259 20.7455 5.90575 20.7369 5.86035C21.4768 5.56694 22 4.84482 22 4.00049C22 2.89592 21.1046 2.00049 20 2.00049C19.1557 2.00049 18.4335 2.52369 18.1401 3.26356C18.0947 3.25498 18.0479 3.25049 18 3.25049H6C5.9521 3.25049 5.90526 3.25498 5.85986 3.26356ZM4.73693 5.86035C4.74551 5.90575 4.75 5.95259 4.75 6.00049L4.75 18.0005C4.75 18.0484 4.74551 18.0952 4.73693 18.1406C5.24875 18.3436 5.65689 18.7517 5.85986 19.2636C5.90526 19.255 5.9521 19.2505 6 19.2505H18C18.0479 19.2505 18.0947 19.255 18.1401 19.2636C18.3431 18.7517 18.7512 18.3436 19.2631 18.1406C19.2545 18.0952 19.25 18.0484 19.25 18.0005V6.00049C19.25 5.95259 19.2545 5.90575 19.2631 5.86035C18.7512 5.65738 18.3431 5.24924 18.1401 4.73741C18.0947 4.746 18.0479 4.75049 18 4.75049H6C5.9521 4.75049 5.90526 4.746 5.85986 4.73742C5.65689 5.24924 5.24875 5.65738 4.73693 5.86035Z" fill="#1C274C"/>
</svg>
