<svg width="24" height="24" viewBox="0 0 24 24" fill="none" xmlns="http://www.w3.org/2000/svg">
<path fill-rule="evenodd" clip-rule="evenodd" d="M3.46447 3.46495C2 4.92942 2 7.28644 2 12.0005C2 16.7145 2 19.0716 3.46447 20.536C4.92893 22.0005 7.28595 22.0005 12 22.0005C16.714 22.0005 19.0711 22.0005 20.5355 20.536C22 19.0716 22 16.7145 22 12.0005C22 7.28644 22 4.92942 20.5355 3.46495C19.0711 2.00049 16.714 2.00049 12 2.00049C7.28595 2.00049 4.92893 2.00049 3.46447 3.46495ZM9.95197 6.25048C9.52211 6.25042 9.12024 6.25035 8.79192 6.2994C8.42102 6.3548 8.04 6.48579 7.73542 6.8242C7.44103 7.1513 7.3371 7.54109 7.29204 7.91343C7.24993 8.26145 7.24996 8.69287 7.25 9.18003L7.25 9.22271C7.25 9.63692 7.58579 9.97271 8 9.97271C8.41421 9.97271 8.75 9.63692 8.75 9.22271C8.75 8.6798 8.75129 8.3406 8.78118 8.09361C8.7952 7.97774 8.81273 7.91097 8.8269 7.8727C8.83885 7.84042 8.84739 7.83095 8.85023 7.8278L8.85104 7.82686C8.8524 7.82522 8.8534 7.82401 8.86242 7.81989C8.87904 7.81229 8.92168 7.79666 9.01354 7.78294C9.21765 7.75245 9.50511 7.75049 10 7.75049H11.25V9.50049C11.25 9.9147 11.5858 10.2505 12 10.2505C12.4142 10.2505 12.75 9.9147 12.75 9.50049V7.75049H14C14.4949 7.75049 14.7824 7.75245 14.9865 7.78294C15.0783 7.79666 15.121 7.81229 15.1376 7.81989C15.1466 7.82401 15.1476 7.82522 15.149 7.82686L15.1496 7.82765C15.1525 7.83079 15.1611 7.84042 15.1731 7.8727C15.1873 7.91097 15.2048 7.97774 15.2188 8.09361C15.2487 8.3406 15.25 8.6798 15.25 9.22271C15.25 9.63692 15.5858 9.97271 16 9.97271C16.4142 9.97271 16.75 9.63692 16.75 9.22271L16.75 9.18002C16.75 8.69287 16.7501 8.26145 16.708 7.91343C16.6629 7.54109 16.559 7.1513 16.2646 6.8242C15.96 6.48579 15.579 6.3548 15.2081 6.2994C14.8798 6.25035 14.4779 6.25042 14.048 6.25048H9.95197ZM8 11.2505C7.58579 11.2505 7.25 11.5863 7.25 12.0005C7.25 12.4147 7.58579 12.7505 8 12.7505H16C16.4142 12.7505 16.75 12.4147 16.75 12.0005C16.75 11.5863 16.4142 11.2505 16 11.2505H8ZM12.75 14.5005C12.75 14.0863 12.4142 13.7505 12 13.7505C11.5858 13.7505 11.25 14.0863 11.25 14.5005V16.2505H9.5C9.08579 16.2505 8.75 16.5863 8.75 17.0005C8.75 17.4147 9.08579 17.7505 9.5 17.7505H14.5C14.9142 17.7505 15.25 17.4147 15.25 17.0005C15.25 16.5863 14.9142 16.2505 14.5 16.2505H12.75V14.5005Z" fill="#1C274C"/>
</svg>
