<svg width="24" height="24" viewBox="0 0 24 24" fill="none" xmlns="http://www.w3.org/2000/svg">
<path d="M15.75 2.00049C15.75 1.58627 15.4142 1.25049 15 1.25049C14.5858 1.25049 14.25 1.58627 14.25 2.00049V22.0005C14.25 22.4147 14.5858 22.7505 15 22.7505C15.4142 22.7505 15.75 22.4147 15.75 22.0005V19.9949C18.3859 19.9673 19.8541 19.8032 20.8284 18.8289C22 17.6573 22 15.7717 22 12.0005C22 8.22925 22 6.34363 20.8284 5.17206C19.8541 4.19773 18.3859 4.0337 15.75 4.00608V2.00049Z" fill="#1C274C"/>
<path fill-rule="evenodd" clip-rule="evenodd" d="M10 20.0005C6.22876 20.0005 4.34315 20.0005 3.17157 18.8289C2 17.6573 2 15.7717 2 12.0005C2 8.22925 2 6.34363 3.17157 5.17206C4.34315 4.00049 6.22876 4.00049 10 4.00049H13V20.0005H10ZM6.81782 7.78782C7.11779 7.75041 7.48429 7.75045 7.88383 7.75049H10.1162C10.5157 7.75045 10.8822 7.75041 11.1822 7.78782C11.5109 7.82882 11.8612 7.92469 12.1624 8.19235C12.2138 8.23802 12.2625 8.28667 12.3081 8.33805C12.5758 8.63927 12.6717 8.98964 12.7127 9.31831C12.7501 9.61828 12.7501 9.98476 12.75 10.3843L12.75 10.4255C12.75 10.8397 12.4142 11.1755 12 11.1755C11.5858 11.1755 11.25 10.8397 11.25 10.4255C11.25 9.97096 11.2486 9.6998 11.2242 9.50397C11.1998 9.30814 10.9965 9.27629 10.9965 9.27629C10.8007 9.25186 10.5295 9.25049 10.075 9.25049H9.75001V14.7505H11C11.4142 14.7505 11.75 15.0863 11.75 15.5005C11.75 15.9147 11.4142 16.2505 11 16.2505H7.00001C6.58579 16.2505 6.25001 15.9147 6.25001 15.5005C6.25001 15.0863 6.58579 14.7505 7.00001 14.7505H8.25001V9.25049H7.925C7.47047 9.25049 7.19931 9.25186 7.00348 9.27629C7.00348 9.27629 6.80023 9.30814 6.7758 9.50397C6.75137 9.6998 6.75001 9.97096 6.75001 10.4255C6.75001 10.8397 6.41422 11.1755 6.00001 11.1755C5.58579 11.1755 5.25001 10.8397 5.25001 10.4255L5.25 10.3843C5.24996 9.98477 5.24992 9.61828 5.28733 9.31831C5.32833 8.98964 5.4242 8.63927 5.69187 8.33805C5.73753 8.28667 5.78618 8.23802 5.83756 8.19235C6.13878 7.92469 6.48915 7.82882 6.81782 7.78782Z" fill="#1C274C"/>
</svg>
