<svg width="24" height="24" viewBox="0 0 24 24" fill="none" xmlns="http://www.w3.org/2000/svg">
<path fill-rule="evenodd" clip-rule="evenodd" d="M12 2.00049C6.47715 2.00049 2 6.47764 2 12.0005C2 17.5233 6.47715 22.0005 12 22.0005C17.5228 22.0005 22 17.5233 22 12.0005C22 6.47764 17.5228 2.00049 12 2.00049ZM9.95197 6.25048C9.52211 6.25042 9.12024 6.25035 8.79192 6.2994C8.42102 6.3548 8.04 6.48579 7.73542 6.8242C7.44103 7.1513 7.3371 7.54109 7.29204 7.91343C7.24993 8.26145 7.24996 8.69287 7.25 9.18003L7.25 9.75049C7.25 10.1647 7.58579 10.5005 8 10.5005C8.41421 10.5005 8.75 10.1647 8.75 9.75049V9.22271C8.75 8.6798 8.75129 8.3406 8.78118 8.09361C8.7952 7.97774 8.81273 7.91097 8.8269 7.8727C8.83885 7.84042 8.84739 7.83095 8.85023 7.8278L8.85104 7.82686C8.8524 7.82522 8.8534 7.82401 8.86242 7.81989C8.87904 7.81229 8.92168 7.79666 9.01354 7.78294C9.21765 7.75245 9.50511 7.75049 10 7.75049H11.25V16.2505H9.5C9.08579 16.2505 8.75 16.5863 8.75 17.0005C8.75 17.4147 9.08579 17.7505 9.5 17.7505H15C15.4142 17.7505 15.75 17.4147 15.75 17.0005C15.75 16.5863 15.4142 16.2505 15 16.2505H12.75V7.75049H14C14.4949 7.75049 14.7824 7.75245 14.9865 7.78294C15.0783 7.79666 15.121 7.81229 15.1376 7.81989C15.1466 7.82401 15.1476 7.82522 15.149 7.82686L15.1496 7.82765C15.1525 7.83079 15.1611 7.84042 15.1731 7.8727C15.1873 7.91097 15.2048 7.97774 15.2188 8.09361C15.2487 8.3406 15.25 8.6798 15.25 9.22271V9.75049C15.25 10.1647 15.5858 10.5005 16 10.5005C16.4142 10.5005 16.75 10.1647 16.75 9.75049L16.75 9.18002C16.75 8.69287 16.7501 8.26145 16.708 7.91343C16.6629 7.54109 16.559 7.1513 16.2646 6.8242C15.96 6.48579 15.579 6.3548 15.2081 6.2994C14.8798 6.25035 14.4779 6.25042 14.048 6.25048H9.95197Z" fill="#1C274C"/>
</svg>
