<svg width="24" height="24" viewBox="0 0 24 24" fill="none" xmlns="http://www.w3.org/2000/svg">
<path fill-rule="evenodd" clip-rule="evenodd" d="M2 12.0005C2 7.28644 2 4.92942 3.46447 3.46495C4.92893 2.00049 7.28595 2.00049 12 2.00049C16.714 2.00049 19.0711 2.00049 20.5355 3.46495C22 4.92942 22 7.28644 22 12.0005C22 16.7145 22 19.0716 20.5355 20.536C19.0711 22.0005 16.714 22.0005 12 22.0005C7.28595 22.0005 4.92893 22.0005 3.46447 20.536C2 19.0716 2 16.7145 2 12.0005ZM7.25 17.0005C7.25 16.5863 7.58579 16.2505 8 16.2505H16C16.4142 16.2505 16.75 16.5863 16.75 17.0005C16.75 17.4147 16.4142 17.7505 16 17.7505H8C7.58579 17.7505 7.25 17.4147 7.25 17.0005ZM8.75 7.00049C8.75 6.58627 8.41421 6.25049 8 6.25049C7.58579 6.25049 7.25 6.58627 7.25 7.00049V10.0005C7.25 12.6238 9.37665 14.7505 12 14.7505C14.6234 14.7505 16.75 12.6238 16.75 10.0005V7.00049C16.75 6.58627 16.4142 6.25049 16 6.25049C15.5858 6.25049 15.25 6.58627 15.25 7.00049V10.0005C15.25 11.7954 13.7949 13.2505 12 13.2505C10.2051 13.2505 8.75 11.7954 8.75 10.0005V7.00049Z" fill="#1C274C"/>
</svg>
