<svg width="24" height="24" viewBox="0 0 24 24" fill="none" xmlns="http://www.w3.org/2000/svg">
<path d="M8.75 11.2505H12C13.2426 11.2505 14.25 10.2431 14.25 9.00049C14.25 7.75785 13.2426 6.75049 12 6.75049H9.52174C9.09552 6.75049 8.75 7.09601 8.75 7.52223V11.2505Z" fill="#1C274C"/>
<path d="M8.75 12.7505V16.824C8.75 17.0596 8.94094 17.2505 9.17647 17.2505H13C14.2426 17.2505 15.25 16.2431 15.25 15.0005C15.25 13.7578 14.2426 12.7505 13 12.7505H8.75Z" fill="#1C274C"/>
<path fill-rule="evenodd" clip-rule="evenodd" d="M2 12.0005C2 6.47764 6.47715 2.00049 12 2.00049C17.5228 2.00049 22 6.47764 22 12.0005C22 17.5233 17.5228 22.0005 12 22.0005C6.47715 22.0005 2 17.5233 2 12.0005ZM7.25 7.52223C7.25 6.26758 8.26709 5.25049 9.52174 5.25049H12C14.0711 5.25049 15.75 6.92942 15.75 9.00049C15.75 10.0295 15.3356 10.9616 14.6645 11.6392C15.9004 12.2524 16.75 13.5272 16.75 15.0005C16.75 17.0716 15.0711 18.7505 13 18.7505H9.17647C8.11251 18.7505 7.25 17.888 7.25 16.824V7.52223Z" fill="#1C274C"/>
</svg>
