<svg width="24" height="24" viewBox="0 0 24 24" fill="none" xmlns="http://www.w3.org/2000/svg">
<path fill-rule="evenodd" clip-rule="evenodd" d="M12 2.00049C6.47715 2.00049 2 6.47764 2 12.0005C2 17.5233 6.47715 22.0005 12 22.0005C17.5228 22.0005 22 17.5233 22 12.0005C22 6.47764 17.5228 2.00049 12 2.00049ZM10.6667 6.25049H13.3162C13.3273 6.25024 13.3384 6.25024 13.3495 6.25049H16C16.4142 6.25049 16.75 6.58627 16.75 7.00049C16.75 7.4147 16.4142 7.75049 16 7.75049H13.9095L11.6429 16.2505H13.3333C13.7475 16.2505 14.0833 16.5863 14.0833 17.0005C14.0833 17.4147 13.7475 17.7505 13.3333 17.7505H10.6838C10.6727 17.7507 10.6616 17.7507 10.6505 17.7505H8C7.58579 17.7505 7.25 17.4147 7.25 17.0005C7.25 16.5863 7.58579 16.2505 8 16.2505H10.0905L12.3571 7.75049H10.6667C10.2525 7.75049 9.91667 7.4147 9.91667 7.00049C9.91667 6.58627 10.2525 6.25049 10.6667 6.25049Z" fill="#1C274C"/>
</svg>
