<svg width="24" height="24" viewBox="0 0 24 24" fill="none" xmlns="http://www.w3.org/2000/svg">
<path fill-rule="evenodd" clip-rule="evenodd" d="M5.96229 20.1742L5.57866 20.5578C4.98875 21.1477 4.03233 21.1477 3.44243 20.5578C2.85252 19.9679 2.85252 19.0115 3.44243 18.4216L3.82606 18.038C4.25869 17.6053 4.47121 16.9995 4.40364 16.3914L4.31485 15.5923C4.2135 14.6801 4.53228 13.7714 5.18123 13.1224L14.1236 4.18005C15.6967 2.60698 18.2471 2.60697 19.8202 4.18005C21.3933 5.75313 21.3933 8.30359 19.8202 9.87667L18.9265 10.7704L17.626 9.46991C17.3331 9.17702 16.8583 9.17702 16.5654 9.46991C16.2725 9.76281 16.2725 10.2377 16.5654 10.5306L17.8658 11.831L15.7271 13.9698L14.4266 12.6693C14.1337 12.3764 13.6588 12.3764 13.3659 12.6693C13.0731 12.9622 13.0731 13.4371 13.3659 13.73L14.6664 15.0305L12.5178 17.1791L11.2173 15.8786C10.9244 15.5857 10.4496 15.5857 10.1567 15.8786C9.86379 16.1715 9.86379 16.6464 10.1567 16.9393L11.4571 18.2397L10.8778 18.819C10.2289 19.468 9.32013 19.7867 8.40799 19.6854L7.60886 19.5966C7.00076 19.529 6.39492 19.7415 5.96229 20.1742ZM16.0303 9.03057C16.3232 8.73768 16.3232 8.26281 16.0303 7.96991C15.7374 7.67702 15.2626 7.67702 14.9697 7.96991L8.46967 14.4699C8.17678 14.7628 8.17678 15.2377 8.46967 15.5306C8.76256 15.8235 9.23744 15.8235 9.53033 15.5306L16.0303 9.03057Z" fill="#1C274C"/>
</svg>
