<svg width="24" height="24" viewBox="0 0 24 24" fill="none" xmlns="http://www.w3.org/2000/svg">
<path fill-rule="evenodd" clip-rule="evenodd" d="M14.0079 19.0034L14.0137 17.0005C14.0137 16.4482 14.4625 16.0005 15.0162 16.0005C15.5698 16.0005 16.0187 16.4482 16.0187 17.0005V18.9769C16.0187 19.4585 16.0187 19.6993 16.1731 19.8469C16.3275 19.9945 16.5637 19.9845 17.0362 19.9645C18.8991 19.8856 20.0437 19.6337 20.8504 18.8289C21.6591 18.0223 21.911 16.8771 21.9894 15.011C22.005 14.6409 22.0128 14.4559 21.9437 14.3325C21.8745 14.209 21.5987 14.055 21.0469 13.7468C20.4341 13.4046 20.0199 12.7508 20.0199 12.0005C20.0199 11.2502 20.4341 10.5963 21.0469 10.2541C21.5987 9.94602 21.8745 9.79196 21.9437 9.66851C22.0128 9.54506 22.005 9.36003 21.9894 8.98996C21.911 7.12388 21.6591 5.97872 20.8504 5.17206C19.9727 4.29653 18.6952 4.07529 16.5278 4.01939C16.2482 4.01218 16.0187 4.23767 16.0187 4.51667V7.00049C16.0187 7.55277 15.5698 8.00049 15.0162 8.00049C14.4625 8.00049 14.0137 7.55277 14.0137 7.00049L14.0064 4.49904C14.0056 4.22346 13.7814 4.00049 13.5052 4.00049H9.99502C6.21439 4.00049 4.32407 4.00049 3.14958 5.17206C2.34091 5.97872 2.08903 7.12388 2.01058 8.98996C1.99502 9.36003 1.98724 9.54506 2.05634 9.66851C2.12545 9.79196 2.40133 9.94602 2.95308 10.2541C3.56586 10.5963 3.98007 11.2502 3.98007 12.0005C3.98007 12.7508 3.56586 13.4046 2.95308 13.7468C2.40133 14.0549 2.12545 14.209 2.05634 14.3325C1.98724 14.4559 1.99502 14.6409 2.01058 15.011C2.08903 16.8771 2.34091 18.0223 3.14958 18.8289C4.32407 20.0005 6.21438 20.0005 9.99502 20.0005H13.0054C13.4767 20.0005 13.7124 20.0005 13.8591 19.8546C14.0058 19.7086 14.0065 19.4735 14.0079 19.0034ZM16.0187 13.0005V11.0005C16.0187 10.4482 15.5698 10.0005 15.0162 10.0005C14.4625 10.0005 14.0137 10.4482 14.0137 11.0005V13.0005C14.0137 13.5528 14.4625 14.0005 15.0162 14.0005C15.5698 14.0005 16.0187 13.5528 16.0187 13.0005Z" fill="#1C274C"/>
</svg>
