<svg width="24" height="24" viewBox="0 0 24 24" fill="none" xmlns="http://www.w3.org/2000/svg">
<path fill-rule="evenodd" clip-rule="evenodd" d="M9.9963 4.00049H14.0037C17.7819 4.00049 19.671 4.00049 20.8448 5.17206C21.7234 6.04907 21.9443 7.32621 21.9998 9.49493C22.007 9.77297 21.7788 9.99516 21.5092 10.0657C20.6493 10.2906 20.0148 11.0716 20.0148 12.0005C20.0148 12.9294 20.6493 13.7104 21.5092 13.9353C21.7788 14.0058 22.007 14.228 21.9998 14.5061C21.9443 16.6748 21.7234 17.9519 20.8448 18.8289C19.671 20.0005 17.7819 20.0005 14.0037 20.0005H9.9963C6.21809 20.0005 4.32899 20.0005 3.15525 18.8289C2.27661 17.9519 2.0557 16.6748 2.00016 14.5061C1.99304 14.228 2.22121 14.0058 2.49076 13.9353C3.35074 13.7104 3.98521 12.9294 3.98521 12.0005C3.98521 11.0716 3.35074 10.2906 2.49076 10.0657C2.22121 9.99516 1.99304 9.77297 2.00016 9.49493C2.0557 7.32621 2.27661 6.04907 3.15525 5.17206C4.32899 4.00049 6.21809 4.00049 9.9963 4.00049ZM12.9541 10.1994L12.8556 10.023C12.4749 9.34133 12.2846 9.00049 12 9.00049C11.7154 9.00049 11.5251 9.34133 11.1444 10.023L11.0459 10.1994C10.9377 10.3931 10.8836 10.4899 10.7993 10.5538C10.7149 10.6177 10.6099 10.6415 10.3998 10.6889L10.2086 10.7321C9.46929 10.8991 9.09965 10.9825 9.01171 11.2648C8.92377 11.5471 9.17576 11.8412 9.67975 12.4295L9.81013 12.5817C9.95335 12.7488 10.025 12.8324 10.0572 12.9358C10.0894 13.0392 10.0786 13.1507 10.0569 13.3738L10.0372 13.5768C9.961 14.3617 9.9229 14.7541 10.1531 14.9286C10.3834 15.103 10.7295 14.944 11.4216 14.6258L11.6007 14.5435C11.7974 14.4531 11.8958 14.4079 12 14.4079C12.1042 14.4079 12.2026 14.4531 12.3993 14.5435L12.5784 14.6258C13.2705 14.944 13.6166 15.103 13.8469 14.9286C14.0771 14.7541 14.039 14.3617 13.9628 13.5768L13.9431 13.3738C13.9214 13.1507 13.9106 13.0392 13.9428 12.9358C13.975 12.8324 14.0466 12.7488 14.1899 12.5817L14.3203 12.4295C14.8242 11.8412 15.0762 11.5471 14.9883 11.2648C14.9003 10.9825 14.5307 10.8991 13.7914 10.7321L13.6002 10.6889C13.3901 10.6415 13.2851 10.6177 13.2007 10.5538C13.1164 10.4899 13.0623 10.3931 12.9541 10.1994Z" fill="#1C274C"/>
</svg>
