<svg width="24" height="24" viewBox="0 0 24 24" fill="none" xmlns="http://www.w3.org/2000/svg">
<path d="M17 4.00049C17 5.10506 16.1046 6.00049 15 6.00049C13.8954 6.00049 13 5.10506 13 4.00049C13 2.89592 13.8954 2.00049 15 2.00049C16.1046 2.00049 17 2.89592 17 4.00049Z" fill="#1C274C"/>
<path fill-rule="evenodd" clip-rule="evenodd" d="M7.25831 5.39211C7.99545 4.9314 8.91147 4.86086 9.71046 5.20328C11.4363 5.94293 11.8694 8.19176 10.5417 9.51947L10.2124 9.84871C10.0802 9.98098 10.0428 10.0191 10.018 10.0477C9.5827 10.5503 9.61696 11.3056 10.0959 11.7666C10.1232 11.7929 10.1639 11.8275 10.3076 11.9472L10.3183 11.9561C10.3991 12.0234 10.4549 12.07 10.5077 12.1175C11.2618 12.7957 11.709 13.7505 11.7473 14.764C11.75 14.835 11.75 14.9077 11.75 15.0129V16.0005C11.75 16.4147 11.4142 16.7505 11 16.7505C10.5858 16.7505 10.25 16.4147 10.25 16.0005V15.0267C10.25 14.9025 10.2499 14.8598 10.2484 14.8207C10.2254 14.2126 9.9571 13.6397 9.50464 13.2327C9.47553 13.2065 9.44278 13.1791 9.34736 13.0996C9.34017 13.0936 9.33308 13.0877 9.32609 13.0818C9.21351 12.9881 9.12714 12.9161 9.05566 12.8473C8.00192 11.833 7.92655 10.1713 8.88412 9.06567C8.94908 8.99067 9.02858 8.9112 9.13221 8.80761C9.13864 8.80118 9.14517 8.79466 9.15178 8.78805L9.48102 8.45881C10.0583 7.88148 9.87003 6.90362 9.11958 6.582C8.77215 6.4331 8.37384 6.46377 8.05331 6.66411L4.8975 8.63649C4.54625 8.85602 4.08353 8.74924 3.864 8.39799C3.64447 8.04673 3.75125 7.58402 4.1025 7.36449L7.25831 5.39211ZM11.7885 9.76332C11.9195 9.37036 12.3442 9.15799 12.7372 9.28898C13.5569 9.56221 14.4431 9.56221 15.2628 9.28898C15.6558 9.15799 16.0805 9.37036 16.2115 9.76332C16.3425 10.1563 16.1301 10.581 15.7372 10.712C14.6096 11.0879 13.3904 11.0879 12.2628 10.712C11.8699 10.581 11.6575 10.1563 11.7885 9.76332ZM7.53033 13.4702C7.82322 13.7631 7.82322 14.2379 7.53033 14.5308C6.42924 15.6319 4.93585 16.2505 3.37868 16.2505H3C2.58579 16.2505 2.25 15.9147 2.25 15.5005C2.25 15.0863 2.58579 14.7505 3 14.7505H3.37868C4.53803 14.7505 5.64989 14.2899 6.46967 13.4702C6.76256 13.1773 7.23744 13.1773 7.53033 13.4702Z" fill="#1C274C"/>
<path d="M22.1471 7.73592C22.5533 7.65469 22.8167 7.25957 22.7354 6.8534C22.6542 6.44723 22.2591 6.18382 21.8529 6.26505C20.0428 6.62707 18.6539 8.08501 18.3801 9.91053L17.2674 17.3283L2.89949 19.8427C2.37943 19.9337 2 20.3853 2 20.9133C2 21.5135 2.48659 22.0001 3.08684 22.0001H19.4888C20.8757 22.0001 22 20.8758 22 19.4889C22 17.9289 20.5926 16.7464 19.0559 17.0153L18.8251 17.0557L19.8635 10.133C20.0436 8.93266 20.9568 7.97397 22.1471 7.73592Z" fill="#1C274C"/>
</svg>
