<svg width="24" height="24" viewBox="0 0 24 24" fill="none" xmlns="http://www.w3.org/2000/svg">
<path d="M12 8.75049C11.5858 8.75049 11.25 8.4147 11.25 8.00049V5.00049C11.25 4.58627 11.5858 4.25049 12 4.25049C12.4142 4.25049 12.75 4.58627 12.75 5.00049V8.00049C12.75 8.4147 12.4142 8.75049 12 8.75049Z" fill="#1C274C"/>
<path d="M4 12.0005C2.89543 12.0005 2 11.1051 2 10.0005C2 8.89592 2.89543 8.00049 4 8.00049C5.10457 8.00049 6 8.89592 6 10.0005C6 11.1051 5.10457 12.0005 4 12.0005Z" fill="#1C274C"/>
<path d="M10 12.0005C10 10.8959 10.8954 10.0005 12 10.0005C13.1046 10.0005 14 10.8959 14 12.0005C14 13.1051 13.1046 14.0005 12 14.0005C10.8954 14.0005 10 13.1051 10 12.0005Z" fill="#1C274C"/>
<path d="M18 14.0005C18 12.8959 18.8954 12.0005 20 12.0005C21.1046 12.0005 22 12.8959 22 14.0005C22 15.1051 21.1046 16.0005 20 16.0005C18.8954 16.0005 18 15.1051 18 14.0005Z" fill="#1C274C"/>
<path d="M19.25 10.0005C19.25 10.4147 19.5858 10.7505 20 10.7505C20.4142 10.7505 20.75 10.4147 20.75 10.0005V5.00049C20.75 4.58627 20.4142 4.25049 20 4.25049C19.5858 4.25049 19.25 4.58627 19.25 5.00049V10.0005Z" fill="#1C274C"/>
<path d="M4 13.2505C3.58579 13.2505 3.25 13.5863 3.25 14.0005L3.25 19.0005C3.25 19.4147 3.58579 19.7505 4 19.7505C4.41421 19.7505 4.75 19.4147 4.75 19.0005L4.75 14.0005C4.75 13.5863 4.41421 13.2505 4 13.2505Z" fill="#1C274C"/>
<path d="M11.25 19.0005C11.25 19.4147 11.5858 19.7505 12 19.7505C12.4142 19.7505 12.75 19.4147 12.75 19.0005V16.0005C12.75 15.5863 12.4142 15.2505 12 15.2505C11.5858 15.2505 11.25 15.5863 11.25 16.0005V19.0005Z" fill="#1C274C"/>
<path d="M20 19.7505C19.5858 19.7505 19.25 19.4147 19.25 19.0005V18.0005C19.25 17.5863 19.5858 17.2505 20 17.2505C20.4142 17.2505 20.75 17.5863 20.75 18.0005V19.0005C20.75 19.4147 20.4142 19.7505 20 19.7505Z" fill="#1C274C"/>
<path d="M3.25 5.00049C3.25 4.58627 3.58579 4.25049 4 4.25049C4.41421 4.25049 4.75 4.58627 4.75 5.00049V6.00049C4.75 6.4147 4.41421 6.75049 4 6.75049C3.58579 6.75049 3.25 6.4147 3.25 6.00049L3.25 5.00049Z" fill="#1C274C"/>
</svg>
