<svg width="24" height="24" viewBox="0 0 24 24" fill="none" xmlns="http://www.w3.org/2000/svg">
<path fill-rule="evenodd" clip-rule="evenodd" d="M22 12.0002C22 16.7143 22 19.0713 20.5355 20.5358C19.0711 22.0002 16.714 22.0002 12 22.0002C7.28595 22.0002 4.92893 22.0002 3.46447 20.5358C2 19.0713 2 16.7143 2 12.0002C2 7.2862 2 4.92918 3.46447 3.46471C4.92893 2.00024 7.28595 2.00024 12 2.00024C16.714 2.00024 19.0711 2.00024 20.5355 3.46471C22 4.92918 22 7.2862 22 12.0002ZM17.4545 6.90367C17.784 7.1547 17.8476 7.6253 17.5966 7.95478L10.7394 16.9548C10.6029 17.134 10.393 17.2423 10.1678 17.2498C9.94266 17.2573 9.72604 17.1632 9.57787 16.9935L6.43501 13.3935C6.1626 13.0815 6.19472 12.6077 6.50676 12.3353C6.81879 12.0628 7.29258 12.095 7.56499 12.407L10.1033 15.3146L16.4034 7.04571C16.6545 6.71623 17.1251 6.65264 17.4545 6.90367Z" fill="#1C274C"/>
</svg>
