<svg width="24" height="24" viewBox="0 0 24 24" fill="none" xmlns="http://www.w3.org/2000/svg">
<path fill-rule="evenodd" clip-rule="evenodd" d="M5.25467 9.53984L6.02181 8.77271C8.19159 6.60293 9.27648 5.51803 10.6246 5.51803C10.8261 5.51803 11.0217 5.54226 11.2159 5.59072C12.321 5.86649 13.3815 6.92698 15.2266 8.77201L15.2274 8.77283L15.2281 8.77358C16.8083 10.3537 17.813 11.3584 18.2421 12.3085C18.4021 12.6628 18.4821 13.0094 18.4821 13.3755C18.4821 14.7236 17.3972 15.8085 15.2274 17.9783L14.4603 18.7454C12.2905 20.9152 11.2056 22.0001 9.85748 22.0001C8.50935 22.0001 7.42446 20.9152 5.25467 18.7454C3.08489 16.5757 2 15.4908 2 14.1426C2 12.7945 3.08489 11.7096 5.25467 9.53984ZM4.72452 13.6123C5.01741 13.3194 5.49229 13.3194 5.78518 13.6123L10.388 18.2151C10.6809 18.508 10.6809 18.9829 10.388 19.2758C10.0951 19.5687 9.62022 19.5687 9.32732 19.2758L4.72452 14.673C4.43163 14.3801 4.43163 13.9052 4.72452 13.6123Z" fill="#1C274C"/>
<path fill-rule="evenodd" clip-rule="evenodd" d="M19.8302 4.1699C21.2767 5.61643 22 6.33969 22 7.23844C22 8.13719 21.2767 8.86045 19.8302 10.307L19.1945 10.9427C19.0901 10.7828 18.9783 10.6263 18.8609 10.4725C18.257 9.68093 17.3833 8.80734 16.359 7.78314L16.2171 7.6412C15.1929 6.6169 14.3193 5.74323 13.5277 5.13929C13.3739 5.02191 13.2174 4.91008 13.0574 4.80567L13.6931 4.1699C15.1397 2.72339 15.8629 2.00012 16.7617 2.00012C17.6604 2.00012 18.3837 2.72338 19.8302 4.1699ZM19.6213 6.50012C19.9141 6.79302 19.9141 7.26789 19.6213 7.56078L18.9141 8.26789C18.6213 8.56078 18.1464 8.56078 17.8535 8.26789C17.5606 7.975 17.5606 7.50012 17.8535 7.20723L18.5606 6.50012C18.8535 6.20723 19.3284 6.20723 19.6213 6.50012ZM17.4999 4.3788C17.7928 4.6717 17.7928 5.14657 17.4999 5.43946L16.7928 6.14657C16.4999 6.43946 16.0251 6.43946 15.7322 6.14657C15.4393 5.85368 15.4393 5.3788 15.7322 5.08591L16.4393 4.3788C16.7322 4.08591 17.207 4.08591 17.4999 4.3788Z" fill="#1C274C"/>
</svg>
