<svg width="24" height="24" viewBox="0 0 24 24" fill="none" xmlns="http://www.w3.org/2000/svg">
<path d="M14 6.00049C14 8.20963 12.2091 10.0005 10 10.0005C7.79086 10.0005 6 8.20963 6 6.00049C6 3.79135 7.79086 2.00049 10 2.00049C12.2091 2.00049 14 3.79135 14 6.00049Z" fill="#1C274C"/>
<path d="M10 13.0005C14.4183 13.0005 18 15.0152 18 17.5005C18 19.9858 18 22.0005 10 22.0005C2 22.0005 2 19.9858 2 17.5005C2 15.0152 5.58172 13.0005 10 13.0005Z" fill="#1C274C"/>
<path d="M17 9.25049C16.5858 9.25049 16.25 9.58627 16.25 10.0005C16.25 10.4147 16.5858 10.7505 17 10.7505H21C21.4142 10.7505 21.75 10.4147 21.75 10.0005C21.75 9.58627 21.4142 9.25049 21 9.25049H17Z" fill="#1C274C"/>
</svg>
