<svg width="24" height="24" viewBox="0 0 24 24" fill="none" xmlns="http://www.w3.org/2000/svg">
<circle cx="9.00098" cy="6.00049" r="4" fill="#1C274C"/>
<ellipse cx="9.00098" cy="17.0015" rx="7" ry="4" fill="#1C274C"/>
<path d="M20.9996 17.0009C20.9996 18.6578 18.9641 20.0009 16.4788 20.0009C17.211 19.2006 17.7145 18.196 17.7145 17.0023C17.7145 15.8073 17.2098 14.8018 16.4762 14.001C18.9615 14.001 20.9996 15.3441 20.9996 17.0009Z" fill="#1C274C"/>
<path d="M17.9996 6.00122C17.9996 7.65807 16.6565 9.00122 14.9996 9.00122C14.6383 9.00122 14.292 8.93736 13.9712 8.8203C14.4443 7.98821 14.7145 7.02571 14.7145 6.0001C14.7145 4.97526 14.4447 4.01342 13.9722 3.18175C14.2927 3.06494 14.6387 3.00122 14.9996 3.00122C16.6565 3.00122 17.9996 4.34437 17.9996 6.00122Z" fill="#1C274C"/>
</svg>
