<svg width="24" height="24" viewBox="0 0 24 24" fill="none" xmlns="http://www.w3.org/2000/svg">
<path d="M12 10.0005C14.2091 10.0005 16 8.20963 16 6.00049C16 3.79135 14.2091 2.00049 12 2.00049C9.79086 2.00049 8 3.79135 8 6.00049C8 8.20963 9.79086 10.0005 12 10.0005Z" fill="#1C274C"/>
<path d="M2.72778 5.81852C2.62732 5.41667 2.22012 5.17235 1.81828 5.27281C1.41643 5.37328 1.17211 5.78048 1.27257 6.18232L1.65454 7.71019C2.3593 10.5292 4.49604 12.75 7.25018 13.5791L7.25018 18.0524C7.25015 18.9509 7.25012 19.7001 7.33009 20.2949C7.41449 20.9227 7.60016 21.4895 8.05563 21.945C8.5111 22.4004 9.0779 22.5861 9.7057 22.6705C10.3005 22.7505 11.0497 22.7505 11.9482 22.7504H12.0522C12.9507 22.7505 13.6999 22.7505 14.2947 22.6705C14.9225 22.5861 15.4892 22.4004 15.9447 21.945C16.4002 21.4895 16.5859 20.9227 16.6703 20.2949C16.7502 19.7001 16.7502 18.9509 16.7502 18.0524L16.7502 13.8594C17.7313 14.1519 18.4808 15.0043 18.6058 16.0675L19.2553 21.5881C19.3037 21.9994 19.6764 22.2937 20.0878 22.2453C20.4992 22.1969 20.7934 21.8242 20.745 21.4128L20.0956 15.8922C19.8512 13.8155 18.0912 12.2504 16.0002 12.2504H8.0847C5.64125 11.6769 3.71957 9.78565 3.10975 7.34639L2.72778 5.81852Z" fill="#1C274C"/>
</svg>
