<svg width="24" height="24" viewBox="0 0 24 24" fill="none" xmlns="http://www.w3.org/2000/svg">
<path fill-rule="evenodd" clip-rule="evenodd" d="M20 5.50024C20 6.32867 19.3284 7.00024 18.5 7.00024C18.3656 7.00024 18.2354 6.98258 18.1115 6.94944L17.4803 7.58061C17.4574 7.60348 17.4334 7.62457 17.4085 7.64387C18.0785 8.46888 18.5683 9.44522 18.8165 10.5114C18.8766 10.504 18.9379 10.5002 19 10.5002C19.8284 10.5002 20.5 11.1718 20.5 12.0002C20.5 12.8287 19.8284 13.5002 19 13.5002H18.8622C18.5921 14.8366 17.9434 16.0242 17.0246 16.9544L18.1613 18.1009C18.2852 18.0677 18.4154 18.05 18.5498 18.05C19.3782 18.05 20.0498 18.7216 20.0498 19.55C20.0498 20.3785 19.3782 21.05 18.5498 21.05C17.7214 21.05 17.0498 20.3785 17.0498 19.55C17.0498 19.4157 17.0675 19.2854 17.1006 19.1615L15.9697 18.0306C15.9291 17.99 15.8941 17.9459 15.8647 17.8992C15.3931 18.2045 14.8813 18.4535 14.3385 18.637L14.1218 19.2501C13.8133 20.123 12.9809 20.7502 12 20.7502C11.0191 20.7502 10.1867 20.123 9.87819 19.2501L9.63079 18.55C9.1359 18.3641 8.66673 18.1243 8.23048 17.838L6.854 19.2487C6.94815 19.4807 7 19.7344 7 20.0002C7 21.1048 6.10457 22.0002 5 22.0002C3.89543 22.0002 3 21.1048 3 20.0002C3 18.8957 3.89543 18.0002 5 18.0002C5.28826 18.0002 5.56227 18.0612 5.80984 18.171L7.06509 16.8845C6.2668 16.0782 5.65852 15.0836 5.31531 13.9755C5.2126 13.9918 5.10729 14.0002 5 14.0002C3.89543 14.0002 3 13.1048 3 12.0002C3 10.8957 3.89543 10.0002 5 10.0002C5.08605 10.0002 5.17084 10.0057 5.25403 10.0162C5.5065 9.11052 5.93829 8.28173 6.50921 7.57001L5.78115 6.84195C5.54117 6.94386 5.27717 7.00024 5 7.00024C3.89543 7.00024 3 6.10481 3 5.00024C3 3.89567 3.89543 3.00024 5 3.00024C6.10457 3.00024 7 3.89567 7 5.00024C7 5.27735 6.94364 5.54129 6.84177 5.78124L7.56989 6.50936C8.59406 5.68782 9.86066 5.15442 11.25 5.02883V4.79957C10.8016 4.54021 10.5 4.05546 10.5 3.50024C10.5 2.67182 11.1716 2.00024 12 2.00024C12.8284 2.00024 13.5 2.67182 13.5 3.50024C13.5 4.05546 13.1984 4.54021 12.75 4.79957V5.0529C14.1042 5.21895 15.3442 5.76977 16.3564 6.59173C16.3757 6.56681 16.3968 6.54282 16.4196 6.51995L17.0508 5.88878C17.0177 5.76486 17 5.63461 17 5.50024C17 4.67182 17.6716 4.00024 18.5 4.00024C19.3284 4.00024 20 4.67182 20 5.50024ZM11.75 13.0002C11.75 11.4815 12.9812 10.2502 14.5 10.2502C16.0188 10.2502 17.25 11.4815 17.25 13.0002C17.25 14.519 16.0188 15.7502 14.5 15.7502C12.9812 15.7502 11.75 14.519 11.75 13.0002ZM10.5 10.0002C11.3284 10.0002 12 9.32867 12 8.50024C12 8.44223 11.9967 8.38498 11.9903 8.32868C11.9354 7.84618 11.6515 7.43317 11.25 7.20092C11.0294 7.07329 10.7732 7.00024 10.5 7.00024C9.67157 7.00024 9 7.67182 9 8.50024C9 9.32867 9.67157 10.0002 10.5 10.0002ZM9 14.0002C9.55228 14.0002 10 13.5525 10 13.0002C10 12.448 9.55228 12.0002 9 12.0002C8.44772 12.0002 8 12.448 8 13.0002C8 13.5525 8.44772 14.0002 9 14.0002Z" fill="#1C274C"/>
<path d="M13.25 13.0002C13.25 12.3099 13.8096 11.7502 14.5 11.7502C15.1904 11.7502 15.75 12.3099 15.75 13.0002C15.75 13.6906 15.1904 14.2502 14.5 14.2502C13.8096 14.2502 13.25 13.6906 13.25 13.0002Z" fill="#1C274C"/>
</svg>
