<svg width="24" height="24" viewBox="0 0 24 24" fill="none" xmlns="http://www.w3.org/2000/svg">
<path d="M11.756 13.3262L12.0171 12.9939C15.365 13.0733 18.4787 14.6945 20.4402 17.3658C18.6653 20.1521 15.5485 22.0004 12 22.0004C10.7177 22.0004 9.49181 21.759 8.36522 21.3193C10.9132 20.7506 13.3607 19.6441 15.4931 18.1498C15.8324 17.9121 15.9146 17.4444 15.6769 17.1052C15.4392 16.766 14.9715 16.6837 14.6323 16.9214C12.1358 18.6709 9.19271 19.8341 6.21503 20.1582C5.33562 19.5335 4.56158 18.7701 3.92479 17.8999C7.00231 17.4197 9.81188 15.7997 11.756 13.3262Z" fill="#1C274C"/>
<path d="M10.7467 12.1829L10.5766 12.3993C8.73919 14.7371 6.0175 16.2098 3.06576 16.4973C2.38398 15.1455 2 13.6178 2 12.0004C2 9.27197 3.09268 6.79877 4.86432 4.99452L4.86305 5.00018C4.3182 7.43465 4.2879 9.94289 4.77311 12.3869C4.85376 12.7932 5.24851 13.0572 5.65479 12.9765C6.06108 12.8959 6.32505 12.5011 6.24439 12.0948C5.67155 9.20938 5.8825 6.22512 6.87932 3.40914C7.93127 2.78079 9.1083 2.34017 10.3642 2.13352L10.1849 2.55936C8.86607 5.69148 9.08193 9.24003 10.7467 12.1829Z" fill="#1C274C"/>
<path d="M12.0812 11.4951C10.6179 8.94495 10.4221 5.86133 11.5673 3.14144L12.0477 2.00049C16.6319 2.02191 20.4872 5.12788 21.6449 9.34959C19.4613 7.51653 16.8587 6.25953 14.0806 5.6775C13.6752 5.59256 13.2777 5.85236 13.1928 6.25777C13.1078 6.66318 13.3676 7.06069 13.773 7.14562C16.7254 7.76417 19.4587 9.21663 21.6241 11.3586L21.6261 11.3606L21.9965 11.7332C21.9988 11.822 22 11.911 22 12.0004C22 13.3881 21.7173 14.7097 21.2065 15.911C18.9642 13.2089 15.6375 11.5876 12.0812 11.4951Z" fill="#1C274C"/>
</svg>
