<svg width="24" height="24" viewBox="0 0 24 24" fill="none" xmlns="http://www.w3.org/2000/svg">
<path d="M8.25 5.00103C5.93257 5.00635 4.69253 5.06335 3.77772 5.67461C3.34096 5.96644 2.96596 6.34145 2.67412 6.77821C2 7.7871 2 9.19156 2 12.0005C2 14.8094 2 16.2139 2.67412 17.2228C2.96596 17.6595 3.34096 18.0345 3.77772 18.3264C4.69253 18.9376 5.93258 18.9946 8.25 18.9999V14.906C6.95608 14.5729 6 13.3984 6 12.0005C6 10.6026 6.95608 9.42803 8.25 9.095V5.00103Z" fill="#1C274C"/>
<path d="M9.75 19.0005L14.25 19.0005V5.00049H9.75V19.0005Z" fill="#1C274C"/>
<path d="M15.75 5.00103V9.095C17.0439 9.42803 18 10.6026 18 12.0005C18 13.3984 17.0439 14.5729 15.75 14.906V18.9999C18.0674 18.9946 19.3075 18.9376 20.2223 18.3264C20.659 18.0345 21.034 17.6595 21.3259 17.2228C22 16.2139 22 14.8094 22 12.0005C22 9.19156 22 7.7871 21.3259 6.77821C21.034 6.34145 20.659 5.96644 20.2223 5.67461C19.3075 5.06335 18.0674 5.00635 15.75 5.00103Z" fill="#1C274C"/>
</svg>
