<svg width="24" height="24" viewBox="0 0 24 24" fill="none" xmlns="http://www.w3.org/2000/svg">
<path fill-rule="evenodd" clip-rule="evenodd" d="M20.4105 9.86106C20.3559 9.85759 20.2964 9.85761 20.2348 9.85764L20.2194 9.85764H17.8015C15.8086 9.85764 14.1033 11.4387 14.1033 13.5005C14.1033 15.5623 15.8086 17.1434 17.8015 17.1434H20.2194L20.2348 17.1434C20.2964 17.1434 20.3559 17.1434 20.4105 17.1399C21.22 17.0884 21.9359 16.45 21.9961 15.5582C22.0001 15.4997 22 15.4367 22 15.3783L22 15.3624V11.6386L22 11.6227C22 11.5643 22.0001 11.5013 21.9961 11.4428C21.9359 10.551 21.22 9.91258 20.4105 9.86106ZM17.5872 14.4719C18.1002 14.4719 18.5162 14.037 18.5162 13.5005C18.5162 12.964 18.1002 12.5291 17.5872 12.5291C17.0741 12.5291 16.6581 12.964 16.6581 13.5005C16.6581 14.037 17.0741 14.4719 17.5872 14.4719Z" fill="#1C274C"/>
<path fill-rule="evenodd" clip-rule="evenodd" d="M20.2341 18.6005C20.3778 18.5967 20.4866 18.7309 20.4476 18.8703C20.2541 19.5624 19.947 20.1523 19.4542 20.649C18.7329 21.376 17.8183 21.6986 16.6882 21.8517C15.5902 22.0005 14.1872 22.0005 12.4158 22.0005H10.3794C8.60803 22.0005 7.20501 22.0005 6.10697 21.8517C4.97692 21.6986 4.06227 21.376 3.34096 20.649C2.61964 19.922 2.29953 19.0002 2.1476 17.8613C1.99997 16.7546 1.99999 15.3405 2 13.5553V13.4457C1.99998 11.6604 1.99997 10.2464 2.1476 9.13972C2.29953 8.0008 2.61964 7.07896 3.34096 6.35198C4.06227 5.625 4.97692 5.30237 6.10697 5.14925C7.205 5.00046 8.60802 5.00047 10.3794 5.00049L12.4158 5.00049C14.1872 5.00047 15.5902 5.00046 16.6882 5.14925C17.8183 5.30237 18.7329 5.625 19.4542 6.35198C19.947 6.84865 20.2541 7.43853 20.4476 8.13061C20.4866 8.27008 20.3778 8.40425 20.2341 8.40049L17.8015 8.4005C15.0673 8.4005 12.6575 10.5774 12.6575 13.5005C12.6575 16.4236 15.0673 18.6005 17.8015 18.6005L20.2341 18.6005ZM5.61446 8.8862C5.21522 8.8862 4.89157 9.2124 4.89157 9.61477C4.89157 10.0172 5.21522 10.3433 5.61446 10.3433H9.46988C9.86912 10.3433 10.1928 10.0172 10.1928 9.61477C10.1928 9.2124 9.86912 8.8862 9.46988 8.8862H5.61446Z" fill="#1C274C"/>
<path d="M7.77668 4.02487L9.73549 2.58175C10.7874 1.80673 12.2126 1.80674 13.2645 2.58175L15.2336 4.03246C14.4103 4.00044 13.4909 4.00047 12.4829 4.00049H10.3123C9.39123 4.00047 8.5441 4.00045 7.77668 4.02487Z" fill="#1C274C"/>
</svg>
