<svg width="24" height="24" viewBox="0 0 24 24" fill="none" xmlns="http://www.w3.org/2000/svg">
<path fill-rule="evenodd" clip-rule="evenodd" d="M20.9944 8.25012H3.00559C3.03321 5.61421 3.19724 4.14602 4.17157 3.17169C5.34315 2.00012 7.22876 2.00012 11 2.00012H13C16.7712 2.00012 18.6569 2.00012 19.8284 3.17169C20.8028 4.14602 20.9668 5.61421 20.9944 8.25012ZM5.75 5.50012C5.75 5.08591 6.08579 4.75012 6.5 4.75012H9.5C9.91421 4.75012 10.25 5.08591 10.25 5.50012C10.25 5.91434 9.91421 6.25012 9.5 6.25012H6.5C6.08579 6.25012 5.75 5.91434 5.75 5.50012ZM14.5 6.50012C15.0523 6.50012 15.5 6.05241 15.5 5.50012C15.5 4.94784 15.0523 4.50012 14.5 4.50012C13.9477 4.50012 13.5 4.94784 13.5 5.50012C13.5 6.05241 13.9477 6.50012 14.5 6.50012ZM18.5 5.50012C18.5 6.05241 18.0523 6.50012 17.5 6.50012C16.9477 6.50012 16.5 6.05241 16.5 5.50012C16.5 4.94784 16.9477 4.50012 17.5 4.50012C18.0523 4.50012 18.5 4.94784 18.5 5.50012Z" fill="#1C274C"/>
<path d="M9.75 15.0001C9.75 13.7575 10.7574 12.7501 12 12.7501C13.2426 12.7501 14.25 13.7575 14.25 15.0001C14.25 16.2428 13.2426 17.2501 12 17.2501C10.7574 17.2501 9.75 16.2428 9.75 15.0001Z" fill="#1C274C"/>
<path fill-rule="evenodd" clip-rule="evenodd" d="M3.00001 9.75012H21V13.0001C21 16.7714 21 18.657 19.8284 19.8285C19.524 20.133 19.1714 20.3583 18.75 20.5251V22.0001C18.75 22.4143 18.4142 22.7501 18 22.7501C17.5858 22.7501 17.25 22.4143 17.25 22.0001V20.8714C16.1801 21.0001 14.8064 21.0001 13 21.0001H11C9.19364 21.0001 7.81989 21.0001 6.75 20.8714V22.0001C6.75 22.4143 6.41421 22.7501 6 22.7501C5.58579 22.7501 5.25 22.4143 5.25 22.0001V20.5251C4.82861 20.3583 4.47599 20.133 4.17157 19.8285C3 18.657 3 16.7714 3 13.0001L3.00001 9.75012ZM12 11.2501C9.92893 11.2501 8.25 12.9291 8.25 15.0001C8.25 17.0712 9.92893 18.7501 12 18.7501C14.0711 18.7501 15.75 17.0712 15.75 15.0001C15.75 12.9291 14.0711 11.2501 12 11.2501Z" fill="#1C274C"/>
</svg>
