<svg width="24" height="24" viewBox="0 0 24 24" fill="none" xmlns="http://www.w3.org/2000/svg">
<path fill-rule="evenodd" clip-rule="evenodd" d="M3 10.0001C3 6.22889 3 4.34327 4.17157 3.17169C5.34315 2.00012 7.22876 2.00012 11 2.00012H13C16.7712 2.00012 18.6569 2.00012 19.8284 3.17169C21 4.34327 21 6.22889 21 10.0001V14.0001C21 17.7714 21 19.657 19.8284 20.8285C18.6569 22.0001 16.7712 22.0001 13 22.0001H11C7.22876 22.0001 5.34315 22.0001 4.17157 20.8285C3 19.657 3 17.7714 3 14.0001V10.0001ZM7.25 18.0001C7.25 17.5859 7.58579 17.2501 8 17.2501H16C16.4142 17.2501 16.75 17.5859 16.75 18.0001C16.75 18.4143 16.4142 18.7501 16 18.7501H8C7.58579 18.7501 7.25 18.4143 7.25 18.0001ZM15.3553 6.30996C13.1338 5.89684 10.8663 5.89684 8.64474 6.30996L8.16897 6.39843C7.2887 6.56213 6.76942 7.5917 7.10085 8.51619L7.84525 10.5926C7.95314 10.8935 8.2437 11.0593 8.52553 10.9807C8.70281 10.9312 8.88073 10.8856 9.05918 10.8439L8.41984 8.85413C8.26351 8.3676 8.49027 7.8318 8.92632 7.65738C9.36237 7.48295 9.84259 7.73596 9.99892 8.22248L10.7514 10.5643C12.3304 10.4101 13.9267 10.5489 15.4746 10.9807C15.7564 11.0593 16.047 10.8935 16.1548 10.5926L16.8992 8.51619C17.2307 7.5917 16.7114 6.56213 15.8311 6.39843L15.3553 6.30996Z" fill="#1C274C"/>
</svg>
