<svg width="24" height="24" viewBox="0 0 24 24" fill="none" xmlns="http://www.w3.org/2000/svg">
<path fill-rule="evenodd" clip-rule="evenodd" d="M12 22.0005C17.5228 22.0005 22 17.5233 22 12.0005C22 6.47764 17.5228 2.00049 12 2.00049C6.47715 2.00049 2 6.47764 2 12.0005C2 17.5233 6.47715 22.0005 12 22.0005ZM17.9536 12.7504H14.9055C14.7675 13.2866 14.485 13.7649 14.1019 14.1411L15.6262 16.7812C16.8809 15.828 17.7489 14.3922 17.9536 12.7504ZM14.3277 17.5322L12.8032 14.8917C12.5476 14.9626 12.2782 15.0005 12 15.0005C11.7218 15.0005 11.4524 14.9626 11.1967 14.8917L9.6722 17.5322C10.388 17.8338 11.1745 18.0005 12 18.0005C12.8255 18.0005 13.612 17.8338 14.3277 17.5322ZM8.37379 16.7811L9.89806 14.141C9.515 13.7648 9.23247 13.2866 9.09448 12.7504H6.0464C6.2511 14.3922 7.11911 15.828 8.37379 16.7811ZM17.9536 11.2504H14.9055C14.7674 10.7142 14.4849 10.236 14.1018 9.85986L15.6261 7.21977C16.8808 8.17289 17.7488 9.60863 17.9536 11.2504ZM14.3277 6.46871C13.6119 6.16717 12.8254 6.00049 12 6.00049C11.1746 6.00049 10.388 6.16718 9.67227 6.46873L11.1968 9.10923C11.4524 9.03836 11.7218 9.00049 12 9.00049C12.2782 9.00049 12.5475 9.03835 12.8032 9.10921L14.3277 6.46871ZM9.89812 9.85991L8.37385 7.2198C7.1192 8.17293 6.25119 9.60865 6.04644 11.2504H9.09455C9.23257 10.7142 9.51509 10.2361 9.89812 9.85991Z" fill="#1C274C"/>
</svg>
