<svg width="24" height="24" viewBox="0 0 24 24" fill="none" xmlns="http://www.w3.org/2000/svg">
<path d="M21 12.0005C21 17.5233 18.9277 22.0005 16.3714 22.0005H8.65714C9.5236 21.439 10.3126 20.4511 10.8562 19.2767C11.73 17.3889 12.2571 14.8159 12.2571 12.0005C12.2571 9.18511 11.73 6.61211 10.8562 4.72424C10.3126 3.54988 9.5236 2.56196 8.65714 2.00049H16.3714C18.9277 2.00049 21 6.47764 21 12.0005Z" fill="#1C274C"/>
<path fill-rule="evenodd" clip-rule="evenodd" d="M4.31038 5.1346C3.50898 6.86601 3 9.29302 3 12.0005C3 14.708 3.50898 17.135 4.31038 18.8664C5.1335 20.6447 6.16457 21.5005 7.11429 21.5005C8.064 21.5005 9.09507 20.6447 9.91819 18.8664C10.7196 17.135 11.2286 14.708 11.2286 12.0005C11.2286 9.29302 10.7196 6.86601 9.91819 5.1346C9.09507 3.35626 8.064 2.50049 7.11429 2.50049C6.16457 2.50049 5.1335 3.35626 4.31038 5.1346ZM5.57143 12.0005C5.57143 15.3142 6.26219 18.0005 7.11429 18.0005C7.90107 18.0005 8.5503 15.7102 8.64521 12.7505H7.62857C7.20252 12.7505 6.85714 12.4147 6.85714 12.0005C6.85714 11.5863 7.20252 11.2505 7.62857 11.2505H8.64521C8.5503 8.29075 7.90107 6.00049 7.11429 6.00049C6.26219 6.00049 5.57143 8.68678 5.57143 12.0005Z" fill="#1C274C"/>
</svg>
