<svg width="24" height="24" viewBox="0 0 24 24" fill="none" xmlns="http://www.w3.org/2000/svg">
<path fill-rule="evenodd" clip-rule="evenodd" d="M11.2334 3.65392C13.9918 0.89568 18.4782 0.320807 21.0789 2.92139C23.6796 5.52199 23.1046 10.0083 20.3463 12.7665C18.4985 14.6142 15.5113 15.8788 12.9616 15.7877C12.7379 15.7797 12.5153 15.7612 12.2954 15.731L6.85993 21.1663C5.74815 22.2781 3.94561 22.2781 2.83383 21.1663C1.72206 20.0546 1.72206 18.2521 2.83383 17.1404L8.26895 11.7054C8.23881 11.4857 8.22021 11.2633 8.21219 11.0398C8.12062 8.48986 9.38534 5.50194 11.2334 3.65392ZM12.2941 4.71459C13.9349 3.07381 16.1404 2.46764 17.952 2.87408C17.6843 3.00039 17.4171 3.14526 17.1559 3.30038C15.8484 4.07656 14.4911 5.22812 13.5767 6.14244C12.6636 7.05551 11.3192 8.60527 10.3482 10.0979C10.1197 10.4492 9.90527 10.8072 9.72026 11.1609C9.71635 11.1032 9.71334 11.0449 9.71122 10.9859C9.6359 8.88852 10.7139 6.29475 12.2941 4.71459ZM19.432 3.93111C19.8406 3.84735 19.9729 3.9368 20.0182 3.98206C20.0635 4.02734 20.153 4.15969 20.0692 4.56843C19.9866 4.97177 19.7599 5.48986 19.4103 6.07894C18.7166 7.24763 17.6538 8.5071 16.7976 9.36321C15.9402 10.2206 14.4706 11.4932 13.0845 12.3946C12.3863 12.8487 11.7531 13.1794 11.2548 13.3315C11.0065 13.4073 10.8321 13.4259 10.7217 13.4178C10.6699 13.4139 10.6413 13.4048 10.6284 13.3995C10.6174 13.395 10.6137 13.3916 10.611 13.3889C10.6083 13.3862 10.605 13.3825 10.6004 13.3715C10.5951 13.3586 10.586 13.33 10.5822 13.2783C10.574 13.168 10.5926 12.9936 10.6685 12.7453C10.8206 12.2471 11.1514 11.614 11.6056 10.9159C12.5071 9.52994 13.78 8.06051 14.6374 7.20311C15.4936 6.34696 16.753 5.28396 17.9216 4.59022C18.5106 4.24053 19.0286 4.01377 19.432 3.93111ZM13.9023 13.6521C13.5511 13.8805 13.1932 14.0947 12.8397 14.2796C12.8975 14.2836 12.956 14.2866 13.0152 14.2887C15.1125 14.3636 17.7057 13.2857 19.2856 11.7058C20.9263 10.0652 21.5326 7.86 21.1263 6.04856C21 6.31622 20.8552 6.58328 20.7002 6.84452C19.9241 8.15211 18.7727 9.50952 17.8583 10.4239C16.9451 11.337 15.3951 12.6813 13.9023 13.6521Z" fill="#1C274C"/>
</svg>
