<svg width="24" height="24" viewBox="0 0 24 24" fill="none" xmlns="http://www.w3.org/2000/svg">
<path d="M2 6.50049C2 4.37917 2 3.31851 2.65901 2.6595C3.31802 2.00049 4.37868 2.00049 6.5 2.00049C8.62132 2.00049 9.68198 2.00049 10.341 2.6595C11 3.31851 11 4.37917 11 6.50049C11 8.62181 11 9.68247 10.341 10.3415C9.68198 11.0005 8.62132 11.0005 6.5 11.0005C4.37868 11.0005 3.31802 11.0005 2.65901 10.3415C2 9.68247 2 8.62181 2 6.50049Z" fill="#1C274C"/>
<path d="M13 17.5005C13 15.3792 13 14.3185 13.659 13.6595C14.318 13.0005 15.3787 13.0005 17.5 13.0005C19.6213 13.0005 20.682 13.0005 21.341 13.6595C22 14.3185 22 15.3792 22 17.5005C22 19.6218 22 20.6825 21.341 21.3415C20.682 22.0005 19.6213 22.0005 17.5 22.0005C15.3787 22.0005 14.318 22.0005 13.659 21.3415C13 20.6825 13 19.6218 13 17.5005Z" fill="#1C274C"/>
<path d="M2 17.5005C2 15.3792 2 14.3185 2.65901 13.6595C3.31802 13.0005 4.37868 13.0005 6.5 13.0005C8.62132 13.0005 9.68198 13.0005 10.341 13.6595C11 14.3185 11 15.3792 11 17.5005C11 19.6218 11 20.6825 10.341 21.3415C9.68198 22.0005 8.62132 22.0005 6.5 22.0005C4.37868 22.0005 3.31802 22.0005 2.65901 21.3415C2 20.6825 2 19.6218 2 17.5005Z" fill="#1C274C"/>
<path d="M13 6.50049C13 4.37917 13 3.31851 13.659 2.6595C14.318 2.00049 15.3787 2.00049 17.5 2.00049C19.6213 2.00049 20.682 2.00049 21.341 2.6595C22 3.31851 22 4.37917 22 6.50049C22 8.62181 22 9.68247 21.341 10.3415C20.682 11.0005 19.6213 11.0005 17.5 11.0005C15.3787 11.0005 14.318 11.0005 13.659 10.3415C13 9.68247 13 8.62181 13 6.50049Z" fill="#1C274C"/>
</svg>
