<svg width="24" height="24" viewBox="0 0 24 24" fill="none" xmlns="http://www.w3.org/2000/svg">
<path fill-rule="evenodd" clip-rule="evenodd" d="M3.46447 3.46483C2.38421 4.54509 2.1008 6.111 2.02645 8.75037H21.9736C21.8992 6.111 21.6158 4.54509 20.5355 3.46483C19.0711 2.00037 16.714 2.00037 12 2.00037C7.28595 2.00037 4.92893 2.00037 3.46447 3.46483ZM2 12.0004C2 11.3769 2 10.7947 2.00339 10.2504H8.25L8.25 21.0004V21.9567C5.90962 21.8595 4.47468 21.5461 3.46447 20.5359C2 19.0714 2 16.7144 2 12.0004ZM6 7.00037C6.55228 7.00037 7 6.55265 7 6.00037C7 5.44808 6.55228 5.00037 6 5.00037C5.44772 5.00037 5 5.44808 5 6.00037C5 6.55265 5.44772 7.00037 6 7.00037ZM10 6.00037C10 6.55265 9.55228 7.00037 9 7.00037C8.44772 7.00037 8 6.55265 8 6.00037C8 5.44808 8.44772 5.00037 9 5.00037C9.55228 5.00037 10 5.44808 10 6.00037ZM12 7.00037C12.5523 7.00037 13 6.55265 13 6.00037C13 5.44808 12.5523 5.00037 12 5.00037C11.4477 5.00037 11 5.44808 11 6.00037C11 6.55265 11.4477 7.00037 12 7.00037Z" fill="#1C274C"/>
<path d="M22 12.0004C22 16.7144 22 19.0714 20.5355 20.5359C19.0711 22.0004 16.714 22.0004 12 22.0004C11.1815 22.0004 10.4341 22.0004 9.75 21.9927V21.0004L9.75 10.2504H21.9966C22 10.7947 22 11.3769 22 12.0004Z" fill="#1C274C"/>
</svg>
