<svg width="24" height="24" viewBox="0 0 24 24" fill="none" xmlns="http://www.w3.org/2000/svg">
<path fill-rule="evenodd" clip-rule="evenodd" d="M12.0646 17.9999C16.4827 18.0355 20.0354 14.4828 19.9997 10.0647C19.9641 5.64655 16.3536 2.03604 11.9354 2.00039C7.51731 1.96474 3.96461 5.51744 4.00027 9.93557C4.03592 14.3537 7.64642 17.9642 12.0646 17.9999ZM13.3739 6.45702C13.6739 6.74268 13.6854 7.21742 13.3998 7.51736L11.7495 9.25012H13.9995C14.2996 9.25012 14.5707 9.42892 14.6889 9.70468C14.8071 9.98045 14.7495 10.3001 14.5426 10.5174L11.6855 13.5174C11.3998 13.8173 10.9251 13.8289 10.6251 13.5432C10.3252 13.2576 10.3136 12.7828 10.5993 12.4829L12.2495 10.7501H9.99953C9.69951 10.7501 9.42836 10.5713 9.31017 10.2956C9.19199 10.0198 9.24952 9.70014 9.45643 9.48288L12.3136 6.48288C12.5992 6.18293 13.074 6.17136 13.3739 6.45702Z" fill="#1C274C"/>
<path d="M11.1173 20.9243C11.1584 20.9414 11.2019 20.9546 11.25 20.9648V22.0001C11.25 22.4143 11.5858 22.7501 12 22.7501C12.4142 22.7501 12.75 22.4143 12.75 22.0001V20.9648C12.7981 20.9546 12.8416 20.9414 12.8827 20.9243C13.1277 20.8228 13.3224 20.6282 13.4239 20.3831C13.5 20.1994 13.5 19.9664 13.5 19.5005V18.8966C13.0303 18.9686 12.5481 19.0041 12.0565 19.0002C11.526 18.9959 11.0059 18.9458 10.5 18.8536V19.5005C10.5 19.9664 10.5 20.1994 10.5761 20.3831C10.6776 20.6282 10.8723 20.8228 11.1173 20.9243Z" fill="#1C274C"/>
</svg>
