<svg width="25" height="24" viewBox="0 0 25 24" fill="none" xmlns="http://www.w3.org/2000/svg">
<path d="M18.6699 2H6.66992C5.00992 2 3.66992 3.33 3.66992 4.97V15.88C3.66992 17.52 5.00992 18.85 6.66992 18.85H7.42992C8.22992 18.85 8.98992 19.16 9.54992 19.72L11.2599 21.41C12.0399 22.18 13.3099 22.18 14.0899 21.41L15.7999 19.72C16.3599 19.16 17.1299 18.85 17.9199 18.85H18.6699C20.3299 18.85 21.6699 17.52 21.6699 15.88V4.97C21.6699 3.33 20.3299 2 18.6699 2ZM11.0499 13.01C11.4599 13.01 11.7999 13.35 11.7999 13.76C11.7999 14.17 11.4599 14.51 11.0499 14.51H8.36992C7.92992 14.51 7.51992 14.3 7.25992 13.94C7.00992 13.6 6.94992 13.18 7.06992 12.78C7.41992 11.71 8.27992 11.13 9.03992 10.61C9.83992 10.07 10.2899 9.73 10.2899 9.15C10.2899 8.63 9.86992 8.21 9.34992 8.21C8.82992 8.21 8.41992 8.64 8.41992 9.16C8.41992 9.57 8.07992 9.91 7.66992 9.91C7.25992 9.91 6.91992 9.57 6.91992 9.16C6.91992 7.82 8.00992 6.72 9.35992 6.72C10.7099 6.72 11.7999 7.81 11.7999 9.16C11.7999 10.57 10.7399 11.29 9.88992 11.87C9.35992 12.23 8.85992 12.57 8.60992 13.02H11.0499V13.01ZM17.6699 13.08H17.4599V13.77C17.4599 14.18 17.1199 14.52 16.7099 14.52C16.2999 14.52 15.9599 14.18 15.9599 13.77V13.08H13.9999C13.9999 13.08 13.9999 13.08 13.9899 13.08C13.4999 13.08 13.0499 12.82 12.7999 12.4C12.5499 11.97 12.5499 11.44 12.7999 11.02C13.4799 9.85 14.2699 8.52 14.9899 7.36C15.3099 6.85 15.9199 6.62 16.4899 6.78C17.0599 6.95 17.4599 7.47 17.4499 8.07V11.59H17.6699C18.0799 11.59 18.4199 11.93 18.4199 12.34C18.4199 12.75 18.0799 13.08 17.6699 13.08Z" fill="#292D32"/>
<path d="M15.96 11.5801V8.64014C15.37 9.60014 14.76 10.6301 14.21 11.5701H15.96V11.5801Z" fill="#292D32"/>
</svg>
