<svg width="25" height="24" viewBox="0 0 25 24" fill="none" xmlns="http://www.w3.org/2000/svg">
<path d="M22.6709 9.75C22.2609 9.75 21.9209 9.41 21.9209 9V7C21.9209 4.42 20.2509 2.75 17.6709 2.75H7.6709C5.0909 2.75 3.4209 4.42 3.4209 7V9C3.4209 9.41 3.0809 9.75 2.6709 9.75C2.2609 9.75 1.9209 9.41 1.9209 9V7C1.9209 3.56 4.2309 1.25 7.6709 1.25H17.6709C21.1109 1.25 23.4209 3.56 23.4209 7V9C23.4209 9.41 23.0809 9.75 22.6709 9.75Z" fill="#292D32"/>
<path d="M17.6709 22.75H7.6709C4.2309 22.75 1.9209 20.44 1.9209 17V15C1.9209 14.59 2.2609 14.25 2.6709 14.25C3.0809 14.25 3.4209 14.59 3.4209 15V17C3.4209 19.58 5.0909 21.25 7.6709 21.25H17.6709C20.2509 21.25 21.9209 19.58 21.9209 17V15C21.9209 14.59 22.2609 14.25 22.6709 14.25C23.0809 14.25 23.4209 14.59 23.4209 15V17C23.4209 20.44 21.1109 22.75 17.6709 22.75Z" fill="#292D32"/>
<path d="M17.0711 8.20996L13.3111 6.17996C12.9111 5.96996 12.4411 5.96996 12.0411 6.17996L8.27105 8.20996C8.00105 8.35996 7.83105 8.64996 7.83105 8.96996C7.83105 9.29996 8.00105 9.58996 8.27105 9.73996L12.0311 11.77C12.2311 11.88 12.4511 11.93 12.6711 11.93C12.8911 11.93 13.1111 11.88 13.3111 11.77L17.0711 9.73996C17.3411 9.58996 17.5111 9.29996 17.5111 8.96996C17.5111 8.64996 17.3411 8.35996 17.0711 8.20996Z" fill="#292D32"/>
<path d="M11.4109 12.4699L7.9109 10.7199C7.6409 10.5899 7.3309 10.5999 7.0709 10.7599C6.8209 10.9199 6.6709 11.1899 6.6709 11.4899V14.7999C6.6709 15.3699 6.9909 15.8899 7.5009 16.1399L11.0009 17.8899C11.1209 17.9499 11.2509 17.9799 11.3909 17.9799C11.5509 17.9799 11.7009 17.9399 11.8409 17.8499C12.1009 17.6899 12.2509 17.4199 12.2509 17.1199V13.8099C12.2409 13.2399 11.9309 12.7299 11.4109 12.4699Z" fill="#292D32"/>
<path d="M18.2608 10.7599C18.0008 10.5999 17.6908 10.5899 17.4208 10.7199L13.9208 12.4699C13.4108 12.7299 13.0908 13.2399 13.0908 13.8099V17.1199C13.0908 17.4199 13.2408 17.6899 13.5008 17.8499C13.6408 17.9399 13.7908 17.9799 13.9508 17.9799C14.0808 17.9799 14.2108 17.9499 14.3408 17.8899L17.8408 16.1399C18.3508 15.8799 18.6708 15.3699 18.6708 14.7999V11.4899C18.6708 11.1899 18.5208 10.9199 18.2608 10.7599Z" fill="#292D32"/>
</svg>
