<svg width="25" height="24" viewBox="0 0 25 24" fill="none" xmlns="http://www.w3.org/2000/svg">
<path d="M16.8609 2.33008H8.4809C4.8409 2.33008 2.6709 4.51008 2.6709 8.15008V16.5201C2.6709 20.1601 4.8409 22.3301 8.4809 22.3301H16.8509C20.4909 22.3301 22.6609 20.1601 22.6609 16.5201V8.15008C22.6709 4.51008 20.5009 2.33008 16.8609 2.33008ZM12.2409 17.1201C12.2409 17.4201 12.0909 17.6901 11.8309 17.8501C11.6909 17.9401 11.5409 17.9801 11.3809 17.9801C11.2509 17.9801 11.1209 17.9501 10.9909 17.8901L7.4909 16.1401C6.9909 15.8801 6.6709 15.3701 6.6709 14.8001V11.4901C6.6709 11.1901 6.8209 10.9201 7.0809 10.7601C7.3409 10.6001 7.6509 10.5901 7.9209 10.7201L11.4209 12.4701C11.9309 12.7301 12.2509 13.2401 12.2509 13.8101V17.1201H12.2409ZM12.0309 11.7701L8.2709 9.74008C8.0009 9.59008 7.8309 9.30008 7.8309 8.97008C7.8309 8.65008 8.0009 8.35008 8.2709 8.20008L12.0309 6.17008C12.4309 5.96008 12.9009 5.96008 13.3009 6.17008L17.0609 8.20008C17.3309 8.35008 17.5009 8.64008 17.5009 8.97008C17.5009 9.30008 17.3309 9.59008 17.0609 9.74008L13.3009 11.7701C13.1009 11.8801 12.8809 11.9301 12.6609 11.9301C12.4409 11.9301 12.2309 11.8801 12.0309 11.7701ZM18.6709 14.8001C18.6709 15.3701 18.3509 15.8901 17.8409 16.1401L14.3409 17.8901C14.2209 17.9501 14.0909 17.9801 13.9509 17.9801C13.7909 17.9801 13.6409 17.9401 13.5009 17.8501C13.2409 17.6901 13.0909 17.4201 13.0909 17.1201V13.8101C13.0909 13.2401 13.4109 12.7201 13.9209 12.4701L17.4209 10.7201C17.6909 10.5901 18.0009 10.6001 18.2609 10.7601C18.5209 10.9201 18.6709 11.1901 18.6709 11.4901V14.8001Z" fill="#292D32"/>
</svg>
