<svg width="25" height="24" viewBox="0 0 25 24" fill="none" xmlns="http://www.w3.org/2000/svg">
<path d="M12.6699 18.5V19.38C12.6699 21.25 11.9199 22 10.0399 22H5.28992C3.83992 22 2.66992 20.83 2.66992 19.38V14.63C2.66992 12.75 3.41992 12 5.28992 12H6.16992V15.5C6.16992 17.16 7.50992 18.5 9.16992 18.5H12.6699Z" fill="#292D32"/>
<path d="M17.6699 13.5V14.37C17.6699 15.82 16.4899 17 15.0399 17H10.2899C8.41992 17 7.66992 16.25 7.66992 14.37V9.62C7.66992 8.17 8.83992 7 10.2899 7H11.1699V10.5C11.1699 12.16 12.5099 13.5 14.1699 13.5H17.6699Z" fill="#292D32"/>
<path d="M22.6699 4.62V9.37C22.6699 11.25 21.9199 12 20.0399 12H15.2899C13.4199 12 12.6699 11.25 12.6699 9.37V4.62C12.6699 2.75 13.4199 2 15.2899 2H20.0399C21.9199 2 22.6699 2.75 22.6699 4.62Z" fill="#292D32"/>
</svg>
