<svg width="25" height="24" viewBox="0 0 25 24" fill="none" xmlns="http://www.w3.org/2000/svg">
<path d="M12.6699 2C7.14992 2 2.66992 6.48 2.66992 12C2.66992 17.52 7.14992 22 12.6699 22C18.1899 22 22.6699 17.52 22.6699 12C22.6699 6.48 18.1899 2 12.6699 2ZM16.9699 16.69C16.8699 16.73 16.7699 16.75 16.6699 16.75C16.3799 16.75 16.1099 16.58 15.9799 16.3L12.6699 8.85L11.5999 11.25H12.6699C13.0799 11.25 13.4199 11.59 13.4199 12C13.4199 12.41 13.0799 12.75 12.6699 12.75H10.9399L9.35992 16.3C9.18992 16.68 8.73993 16.85 8.36993 16.68C7.98993 16.51 7.81993 16.07 7.98993 15.69L9.29993 12.74H8.66992C8.25992 12.74 7.91992 12.4 7.91992 11.99C7.91992 11.58 8.25992 11.24 8.66992 11.24H9.9599L11.9799 6.69C12.2199 6.15 13.1099 6.15 13.3499 6.69L17.3499 15.69C17.5199 16.07 17.3499 16.52 16.9699 16.69Z" fill="black"/>
</svg>
