<svg width="25" height="24" viewBox="0 0 25 24" fill="none" xmlns="http://www.w3.org/2000/svg">
<path d="M16.8599 2H8.47992C4.83992 2 2.66992 4.17 2.66992 7.81V16.18C2.66992 19.83 4.83992 22 8.47992 22H16.8499C20.4899 22 22.6599 19.83 22.6599 16.19V7.81C22.6699 4.17 20.4999 2 16.8599 2ZM18.6699 12.75H13.4199V18C13.4199 18.41 13.0799 18.75 12.6699 18.75C12.2599 18.75 11.9199 18.41 11.9199 18V12.75H6.66992C6.25992 12.75 5.91992 12.41 5.91992 12C5.91992 11.59 6.25992 11.25 6.66992 11.25H11.9199V6C11.9199 5.59 12.2599 5.25 12.6699 5.25C13.0799 5.25 13.4199 5.59 13.4199 6V11.25H18.6699C19.0799 11.25 19.4199 11.59 19.4199 12C19.4199 12.41 19.0799 12.75 18.6699 12.75Z" fill="#292D32"/>
</svg>
