<svg width="25" height="24" viewBox="0 0 25 24" fill="none" xmlns="http://www.w3.org/2000/svg">
<path d="M8.33992 2H6.44992C5.40992 2 4.46992 2.42 3.77992 3.11C3.08992 3.8 2.66992 4.74 2.66992 5.78C2.66992 7.86 4.36992 9.56 6.44992 9.56H7.38992V17.11C7.38992 17.84 7.80992 18.47 8.41992 18.78C8.66992 18.92 8.96992 19 9.27992 19C9.49992 19 9.71992 18.96 9.91992 18.88C10.6499 18.62 11.1699 17.93 11.1699 17.11V4.83C11.1699 3.28 9.88992 2 8.33992 2ZM6.44992 5.97C6.85992 5.97 7.19992 6.31 7.19992 6.72C7.19992 7.13 6.85992 7.47 6.44992 7.47C5.51992 7.47 4.75992 6.71 4.75992 5.77C4.75992 4.83 5.51992 4.08 6.44992 4.08C6.85992 4.08 7.19992 4.42 7.19992 4.83C7.19992 5.24 6.85992 5.58 6.44992 5.58C6.33992 5.58 6.25992 5.67 6.25992 5.77C6.25992 5.87 6.33992 5.97 6.44992 5.97Z" fill="#292D32"/>
<path d="M21.5599 3.11C20.8699 2.42 19.9299 2 18.8899 2H16.9999C15.4399 2 14.1699 3.28 14.1699 4.83V17.11C14.1699 17.93 14.6899 18.62 15.4199 18.88C15.6199 18.96 15.8399 19 16.0599 19C16.3699 19 16.6699 18.92 16.9199 18.78C17.5299 18.47 17.9499 17.84 17.9499 17.11V9.56H18.8899C20.9699 9.56 22.6699 7.86 22.6699 5.78C22.6699 4.74 22.2499 3.8 21.5599 3.11ZM18.8899 7.47C18.4799 7.47 18.1399 7.13 18.1399 6.72C18.1399 6.31 18.4799 5.97 18.8899 5.97C18.9999 5.97 19.0799 5.88 19.0799 5.77C19.0799 5.66 18.9899 5.58 18.8899 5.58C18.4799 5.58 18.1399 5.24 18.1399 4.83C18.1399 4.42 18.4799 4.08 18.8899 4.08C19.8199 4.08 20.5799 4.84 20.5799 5.77C20.5799 6.7 19.8299 7.47 18.8899 7.47Z" fill="#292D32"/>
<path d="M9.91992 18.88V22C9.91992 22.41 9.57992 22.75 9.16992 22.75C8.75992 22.75 8.41992 22.41 8.41992 22V18.78C8.66992 18.92 8.96992 19 9.27992 19C9.49992 19 9.71992 18.96 9.91992 18.88Z" fill="#292D32"/>
<path d="M16.9199 18.78V22C16.9199 22.41 16.5799 22.75 16.1699 22.75C15.7599 22.75 15.4199 22.41 15.4199 22V18.88C15.6199 18.96 15.8399 19 16.0599 19C16.3699 19 16.6699 18.92 16.9199 18.78Z" fill="#292D32"/>
</svg>
