<svg width="25" height="24" viewBox="0 0 25 24" fill="none" xmlns="http://www.w3.org/2000/svg">
<path d="M20.7195 10.6301L16.0495 8.62006L15.0095 8.18006C14.8495 8.10006 14.7095 7.89006 14.7095 7.71006V4.65006C14.7095 3.69006 13.9995 2.55006 13.1395 2.11006C12.8395 1.96006 12.4795 1.96006 12.1795 2.11006C11.3295 2.55006 10.6195 3.70006 10.6195 4.66006V7.72006C10.6195 7.90006 10.4795 8.11006 10.3195 8.19006L4.61949 10.6401C3.98949 10.9001 3.47949 11.6901 3.47949 12.3701V13.6901C3.47949 14.5401 4.11949 14.9601 4.90949 14.6201L9.91949 12.4601C10.3095 12.2901 10.6295 12.5001 10.6295 12.9301V14.0401V15.8401C10.6295 16.0701 10.4995 16.4001 10.3395 16.5601L8.01949 18.8901C7.77949 19.1301 7.66949 19.6001 7.77949 19.9401L8.22949 21.3001C8.40949 21.8901 9.07949 22.1701 9.62949 21.8901L12.0095 19.8901C12.3695 19.5801 12.9595 19.5801 13.3195 19.8901L15.6995 21.8901C16.2495 22.1601 16.9195 21.8901 17.1195 21.3001L17.5695 19.9401C17.6795 19.6101 17.5695 19.1301 17.3295 18.8901L15.0095 16.5601C14.8395 16.4001 14.7095 16.0701 14.7095 15.8401V12.9301C14.7095 12.5001 15.0195 12.3001 15.4195 12.4601L20.4295 14.6201C21.2195 14.9601 21.8595 14.5401 21.8595 13.6901V12.3701C21.8595 11.6901 21.3495 10.9001 20.7195 10.6301Z" fill="#292D32"/>
</svg>
