<svg width="25" height="24" viewBox="0 0 25 24" fill="none" xmlns="http://www.w3.org/2000/svg">
<path d="M16.8599 2H8.47992C4.83992 2 2.66992 4.17 2.66992 7.81V16.18C2.66992 19.83 4.83992 22 8.47992 22H16.8499C20.4899 22 22.6599 19.83 22.6599 16.19V7.81C22.6699 4.17 20.4999 2 16.8599 2ZM19.1799 13.19C19.1799 13.79 18.7199 14.09 18.1699 13.85L14.8199 12.41C14.4299 12.25 14.1199 12.45 14.1199 12.87V14.72C14.1199 14.88 14.2099 15.11 14.3299 15.23L15.9699 16.88C16.1399 17.05 16.2199 17.39 16.1399 17.62L15.8199 18.58C15.6799 19 15.1999 19.2 14.8099 19L13.1399 17.58C12.8799 17.37 12.4599 17.37 12.2099 17.58L10.5299 19C10.1299 19.2 9.65992 19 9.51992 18.57L9.19992 17.61C9.11992 17.38 9.19992 17.04 9.36992 16.87L11.0399 15.23C11.1499 15.12 11.2499 14.89 11.2499 14.72V12.87C11.2499 12.45 10.9299 12.24 10.5499 12.41L7.19992 13.85C6.63992 14.09 6.18992 13.79 6.18992 13.19V12.26C6.18992 11.78 6.55992 11.22 6.99992 11.03L10.9399 9.33C11.0999 9.26 11.2399 9.05 11.2399 8.87V6.8C11.2399 6.12 11.7299 5.31 12.3399 5.01C12.5599 4.9 12.8099 4.9 13.0299 5.01C13.6299 5.32 14.1299 6.12 14.1299 6.8V8.87C14.1299 9.05 14.2599 9.26 14.4299 9.33L18.3699 11.03C18.8199 11.22 19.1799 11.78 19.1799 12.26V13.19Z" fill="#292D32"/>
</svg>
