<svg width="25" height="24" viewBox="0 0 25 24" fill="none" xmlns="http://www.w3.org/2000/svg">
<path d="M15.7499 11.3399H9.58992C8.94992 11.3399 8.31992 11.0799 7.86992 10.6199C7.72992 10.4799 7.60992 10.3299 7.50992 10.1599C7.32992 9.85992 7.00992 9.66992 6.65992 9.66992H4.16992C3.61992 9.66992 3.16992 10.1199 3.16992 10.6699V17.4999C3.16992 19.9899 5.17992 21.9999 7.66992 21.9999H17.6699C20.1599 21.9999 22.1699 19.9899 22.1699 17.4999V10.6699C22.1699 10.1199 21.7199 9.66992 21.1699 9.66992H18.6699C18.3099 9.66992 17.9899 9.86992 17.8099 10.1799C17.3899 10.8699 16.6199 11.3399 15.7499 11.3399Z" fill="#292D32"/>
<path d="M17.6699 2H7.66992C5.17992 2 3.16992 4.01 3.16992 6.5V7.17C3.16992 7.72 3.61992 8.17 4.16992 8.17H6.66992C7.02992 8.17 7.34992 7.97 7.52992 7.66C7.94992 6.97 8.71992 6.5 9.58992 6.5H15.5799C16.1899 6.5 17.0699 6.82 17.4899 7.25C17.6199 7.38 17.7199 7.52 17.8199 7.67C17.9999 7.97 18.3199 8.17 18.6799 8.17H21.1799C21.7299 8.17 22.1799 7.72 22.1799 7.17V6.5C22.1699 4.01 20.1599 2 17.6699 2Z" fill="#292D32"/>
</svg>
