<svg width="25" height="24" viewBox="0 0 25 24" fill="none" xmlns="http://www.w3.org/2000/svg">
<path d="M8.68992 4.62012H7.64992C6.05992 4.62012 5.41992 5.22012 5.41992 6.74012V18.6201H10.9199V6.74012C10.9099 5.22012 10.2699 4.62012 8.68992 4.62012Z" fill="#292D32"/>
<path d="M17.1899 9.62012H16.1499C14.5599 9.62012 13.9199 10.2301 13.9199 11.7401V18.6201H19.4199V11.7401C19.4199 10.2301 18.7699 9.62012 17.1899 9.62012Z" fill="#292D32"/>
<path d="M3.41992 17.8799H21.9199C22.3299 17.8799 22.6699 18.2199 22.6699 18.6299C22.6699 19.0399 22.3299 19.3799 21.9199 19.3799H3.41992C3.00992 19.3799 2.66992 19.0399 2.66992 18.6199C2.66992 18.1999 3.00992 17.8799 3.41992 17.8799Z" fill="#292D32"/>
</svg>
