<svg width="25" height="24" viewBox="0 0 25 24" fill="none" xmlns="http://www.w3.org/2000/svg">
<path d="M21.5598 10.53C21.1498 10.53 20.8098 10.19 20.8098 9.77999V6.91L12.6698 2.83999L4.52979 6.91V9.77999C4.52979 10.19 4.18979 10.53 3.77979 10.53C3.36979 10.53 3.02979 10.19 3.02979 9.77999V6.44999C3.02979 6.16999 3.18983 5.90999 3.44983 5.77999L12.3398 1.33999C12.5498 1.22999 12.7998 1.22999 13.0098 1.33999L21.8998 5.77999C22.1498 5.90999 22.3198 6.16999 22.3198 6.44999V9.77999C22.3098 10.19 21.9698 10.53 21.5598 10.53Z" fill="black"/>
<path d="M12.6698 22.75C12.5498 22.75 12.4398 22.72 12.3398 22.67L3.44983 18.23C3.19983 18.1 3.02979 17.84 3.02979 17.56V14.23C3.02979 13.82 3.36979 13.48 3.77979 13.48C4.18979 13.48 4.52979 13.82 4.52979 14.23V17.1L12.6698 21.17L20.8098 17.1V14.23C20.8098 13.82 21.1498 13.48 21.5598 13.48C21.9698 13.48 22.3098 13.82 22.3098 14.23V17.56C22.3098 17.84 22.1498 18.1 21.8898 18.23L12.9998 22.67C12.8998 22.72 12.7898 22.75 12.6698 22.75Z" fill="black"/>
<path d="M17.11 12C17.11 9.55 15.12 7.56 12.67 7.56C10.22 7.56 8.22998 9.55 8.22998 12C8.22998 14.2 9.84 16.02 11.94 16.37C11.94 16.4 11.93 16.42 11.93 16.44V22C11.93 22.41 12.27 22.75 12.68 22.75C13.09 22.75 13.43 22.41 13.43 22V16.44C13.43 16.41 13.42 16.39 13.42 16.37C15.51 16.02 17.11 14.2 17.11 12Z" fill="black"/>
</svg>
