<svg width="25" height="24" viewBox="0 0 25 24" fill="none" xmlns="http://www.w3.org/2000/svg">
<path d="M17.4902 1.91016H7.85023C5.73023 1.91016 3.99023 3.65016 3.99023 5.77016V19.8602C3.99023 21.6602 5.28023 22.4202 6.86023 21.5502L11.7402 18.8402C12.2602 18.5502 13.1002 18.5502 13.6102 18.8402L18.4902 21.5502C20.0702 22.4302 21.3602 21.6702 21.3602 19.8602V5.77016C21.3502 3.65016 19.6202 1.91016 17.4902 1.91016ZM16.2902 9.03016L12.2902 13.0302C12.1402 13.1802 11.9502 13.2502 11.7602 13.2502C11.5702 13.2502 11.3802 13.1802 11.2302 13.0302L9.73024 11.5302C9.44024 11.2402 9.44024 10.7602 9.73024 10.4702C10.0202 10.1802 10.5002 10.1802 10.7902 10.4702L11.7602 11.4402L15.2302 7.97016C15.5202 7.68016 16.0002 7.68016 16.2902 7.97016C16.5802 8.26016 16.5802 8.74016 16.2902 9.03016Z" fill="#292D32"/>
</svg>
