<svg width="25" height="24" viewBox="0 0 25 24" fill="none" xmlns="http://www.w3.org/2000/svg">
<path d="M17.4902 2H7.85023C5.72023 2 3.99023 3.74 3.99023 5.86V19.95C3.99023 21.75 5.28023 22.51 6.86023 21.64L11.7402 18.93C12.2602 18.64 13.1002 18.64 13.6102 18.93L18.4902 21.64C20.0702 22.52 21.3602 21.76 21.3602 19.95V5.86C21.3502 3.74 19.6202 2 17.4902 2ZM15.1702 11.4H13.4202V13.21C13.4202 13.62 13.0802 13.96 12.6702 13.96C12.2602 13.96 11.9202 13.62 11.9202 13.21V11.4H10.1702C9.76023 11.4 9.42023 11.06 9.42023 10.65C9.42023 10.24 9.76023 9.9 10.1702 9.9H11.9202V8.21C11.9202 7.8 12.2602 7.46 12.6702 7.46C13.0802 7.46 13.4202 7.8 13.4202 8.21V9.9H15.1702C15.5802 9.9 15.9202 10.24 15.9202 10.65C15.9202 11.06 15.5802 11.4 15.1702 11.4Z" fill="#292D32"/>
</svg>
