<svg width="25" height="24" viewBox="0 0 25 24" fill="none" xmlns="http://www.w3.org/2000/svg">
<path d="M12.6699 2C7.15992 2 2.66992 6.49 2.66992 12C2.66992 17.51 7.15992 22 12.6699 22C18.1799 22 22.6699 17.51 22.6699 12C22.6699 6.49 18.1799 2 12.6699 2ZM16.7299 13.79C16.5799 13.94 16.3899 14.01 16.1999 14.01C16.0099 14.01 15.8199 13.94 15.6699 13.79L12.6699 10.79L9.66992 13.79C9.37992 14.08 8.89992 14.08 8.60992 13.79C8.31992 13.5 8.31992 13.02 8.60992 12.73L12.1399 9.2C12.4299 8.91 12.9099 8.91 13.1999 9.2L16.7299 12.73C17.0199 13.03 17.0199 13.5 16.7299 13.79Z" fill="#292D32"/>
</svg>
