<svg width="25" height="24" viewBox="0 0 25 24" fill="none" xmlns="http://www.w3.org/2000/svg">
<path d="M12.6699 2C7.15992 2 2.66992 6.49 2.66992 12C2.66992 17.51 7.15992 22 12.6699 22C18.1799 22 22.6699 17.51 22.6699 12C22.6699 6.49 18.1799 2 12.6699 2ZM16.7299 11.27L13.1999 14.8C13.0499 14.95 12.8599 15.02 12.6699 15.02C12.4799 15.02 12.2899 14.95 12.1399 14.8L8.60992 11.27C8.31992 10.98 8.31992 10.5 8.60992 10.21C8.89992 9.92 9.37992 9.92 9.66992 10.21L12.6699 13.21L15.6699 10.21C15.9599 9.92 16.4399 9.92 16.7299 10.21C17.0199 10.5 17.0199 10.97 16.7299 11.27Z" fill="#292D32"/>
</svg>
