<svg width="25" height="24" viewBox="0 0 25 24" fill="none" xmlns="http://www.w3.org/2000/svg">
<path d="M11.6499 6.19L7.93986 2.48C7.86986 2.41 7.77986 2.35 7.67986 2.31C7.66986 2.31 7.65986 2.31 7.64986 2.3C7.56986 2.27 7.48986 2.25 7.39986 2.25C7.19986 2.25 7.00986 2.33 6.86986 2.47L3.13986 6.19C2.84986 6.48 2.84986 6.96 3.13986 7.25C3.42986 7.54 3.90986 7.54 4.19986 7.25L6.64986 4.8V21C6.64986 21.41 6.98986 21.75 7.39986 21.75C7.80986 21.75 8.14986 21.41 8.14986 21V4.81L10.5899 7.25C10.7399 7.4 10.9299 7.47 11.1199 7.47C11.3099 7.47 11.4999 7.4 11.6499 7.25C11.9399 6.96 11.9399 6.49 11.6499 6.19Z" fill="#292D32"/>
<path d="M22.2002 16.75C21.9102 16.46 21.4302 16.46 21.1402 16.75L18.6902 19.2V3C18.6902 2.59 18.3502 2.25 17.9402 2.25C17.5302 2.25 17.1902 2.59 17.1902 3V19.19L14.7502 16.75C14.4602 16.46 13.9802 16.46 13.6902 16.75C13.4002 17.04 13.4002 17.52 13.6902 17.81L17.4002 21.52C17.4702 21.59 17.5602 21.65 17.6602 21.69C17.6702 21.69 17.6802 21.69 17.6902 21.7C17.7702 21.73 17.8602 21.75 17.9502 21.75C18.1502 21.75 18.3402 21.67 18.4802 21.53L22.2002 17.81C22.4902 17.51 22.4902 17.04 22.2002 16.75Z" fill="#292D32"/>
</svg>
