<svg width="25" height="24" viewBox="0 0 25 24" fill="none" xmlns="http://www.w3.org/2000/svg">
<path d="M16.8599 2H8.47992C4.83992 2 2.66992 4.17 2.66992 7.81V16.18C2.66992 19.83 4.83992 22 8.47992 22H16.8499C20.4899 22 22.6599 19.83 22.6599 16.19V7.81C22.6699 4.17 20.4999 2 16.8599 2ZM16.7299 14C16.5799 14.15 16.3899 14.22 16.1999 14.22C16.0099 14.22 15.8199 14.14 15.6699 14L12.6699 11L9.66992 14C9.37992 14.29 8.89992 14.29 8.60992 14C8.31992 13.71 8.31992 13.23 8.60992 12.94L12.1399 9.41C12.4299 9.12 12.9099 9.12 13.1999 9.41L16.7299 12.94C17.0199 13.23 17.0199 13.7 16.7299 14Z" fill="#292D32"/>
</svg>
