<svg width="25" height="24" viewBox="0 0 25 24" fill="none" xmlns="http://www.w3.org/2000/svg">
<path d="M12.6699 2C7.15992 2 2.66992 6.49 2.66992 12C2.66992 17.51 7.15992 22 12.6699 22C18.1799 22 22.6699 17.51 22.6699 12C22.6699 6.49 18.1799 2 12.6699 2ZM14.4599 15C14.7499 15.29 14.7499 15.77 14.4599 16.06C14.3099 16.21 14.1199 16.28 13.9299 16.28C13.7399 16.28 13.5499 16.21 13.3999 16.06L9.86992 12.53C9.57992 12.24 9.57992 11.76 9.86992 11.47L13.3999 7.94C13.6899 7.65 14.1699 7.65 14.4599 7.94C14.7499 8.23 14.7499 8.71 14.4599 9L11.4599 12L14.4599 15Z" fill="#292D32"/>
</svg>
