<svg width="25" height="24" viewBox="0 0 25 24" fill="none" xmlns="http://www.w3.org/2000/svg">
<path d="M10.3398 13.92C9.59977 13.92 9.00977 14.52 9.00977 15.26C9.00977 16 9.60977 16.59 10.3398 16.59C11.0798 16.59 11.6798 15.99 11.6798 15.26C11.6798 14.52 11.0798 13.92 10.3398 13.92Z" fill="#292D32"/>
<path d="M16.8599 2H8.47992C4.83992 2 2.66992 4.17 2.66992 7.81V16.18C2.66992 19.83 4.83992 22 8.47992 22H16.8499C20.4899 22 22.6599 19.83 22.6599 16.19V7.81C22.6699 4.17 20.4999 2 16.8599 2ZM17.7899 9.8C17.7899 10.41 17.5299 10.95 17.0899 11.27C16.8099 11.47 16.4699 11.58 16.1099 11.58C15.8999 11.58 15.6899 11.54 15.4699 11.47L13.1799 10.71C13.1699 10.71 13.1499 10.7 13.1399 10.69V15.25C13.1399 16.79 11.8799 18.05 10.3399 18.05C8.79992 18.05 7.53992 16.79 7.53992 15.25C7.53992 13.71 8.79992 12.45 10.3399 12.45C10.8299 12.45 11.2799 12.59 11.6799 12.8V8.63V8.02C11.6799 7.41 11.9399 6.87 12.3799 6.55C12.8299 6.23 13.4199 6.15 13.9999 6.35L16.2899 7.11C17.1499 7.4 17.7999 8.3 17.7999 9.2V9.8H17.7899Z" fill="#292D32"/>
</svg>
