<svg width="25" height="24" viewBox="0 0 25 24" fill="none" xmlns="http://www.w3.org/2000/svg">
<path d="M12.6699 2C7.14992 2 2.66992 6.48 2.66992 12C2.66992 17.52 7.14992 22 12.6699 22C18.1899 22 22.6699 17.52 22.6699 12C22.6699 6.48 18.1899 2 12.6699 2ZM11.3699 16.14H7.10992C6.91992 16.14 6.7999 15.93 6.8999 15.76L9.02991 12.21C9.12991 12.05 9.3599 12.05 9.4599 12.21L11.5899 15.76C11.6899 15.93 11.5699 16.14 11.3699 16.14ZM10.5399 10.14C10.3499 10.14 10.2299 9.92999 10.3299 9.75999L12.4599 6.21001C12.5599 6.05001 12.7899 6.05001 12.8899 6.21001L15.0199 9.75999C15.1199 9.92999 14.9999 10.14 14.8099 10.14H10.5399ZM18.2299 16.14H13.9699C13.7799 16.14 13.6599 15.93 13.7599 15.76L15.8899 12.21C15.9899 12.05 16.2199 12.05 16.3199 12.21L18.45 15.76C18.54 15.93 18.4199 16.14 18.2299 16.14Z" fill="black"/>
</svg>
