<svg width="25" height="24" viewBox="0 0 25 24" fill="none" xmlns="http://www.w3.org/2000/svg">
<path d="M13.0496 16.92H10.7596C10.3496 16.92 10.0096 16.58 10.0096 16.17C10.0096 15.76 10.3496 15.42 10.7596 15.42H13.0496C13.4796 15.42 13.8296 15.07 13.8296 14.64C13.8296 14.21 13.4796 13.86 13.0496 13.86H10.7596C10.5196 13.86 10.2896 13.74 10.1496 13.55C10.0096 13.36 9.96956 13.1 10.0496 12.87L10.8096 10.58C10.9096 10.27 11.1996 10.07 11.5196 10.07H14.5796C14.9896 10.07 15.3296 10.41 15.3296 10.82C15.3296 11.23 14.9896 11.57 14.5796 11.57H12.0596L11.7996 12.36H13.0496C14.3096 12.36 15.3296 13.38 15.3296 14.64C15.3296 15.9 14.3096 16.92 13.0496 16.92Z" fill="#292D32"/>
<path d="M12.6695 3.48C12.5895 3.48 12.5095 3.49 12.4295 3.49L13.2495 2.47C13.5095 2.15 13.4595 1.67 13.1295 1.42C12.7995 1.17 12.3395 1.21 12.0795 1.54L10.1095 4C10.0995 4.01 10.0995 4.02 10.0895 4.04C10.0595 4.08 10.0395 4.13 10.0195 4.17C9.99953 4.22 9.97953 4.26 9.96953 4.3C9.95953 4.35 9.95953 4.39 9.95953 4.44C9.95953 4.49 9.95953 4.54 9.95953 4.59C9.95953 4.61 9.95953 4.62 9.95953 4.64C9.96953 4.67 9.98953 4.69 9.99953 4.72C10.0195 4.77 10.0395 4.81 10.0595 4.86C10.0895 4.9 10.1195 4.94 10.1595 4.97C10.1795 5 10.1895 5.03 10.2195 5.05C10.2395 5.06 10.2495 5.07 10.2695 5.08C10.2995 5.1 10.3195 5.11 10.3495 5.12C10.3995 5.15 10.4595 5.17 10.5195 5.18C10.5495 5.2 10.5795 5.2 10.6095 5.2C10.6395 5.2 10.6595 5.21 10.6895 5.21C10.7195 5.21 10.7395 5.2 10.7595 5.19C10.7895 5.19 10.8195 5.2 10.8495 5.19C11.4895 5.04 12.0895 4.97 12.6595 4.97C17.1495 4.97 20.7995 8.62 20.7995 13.11C20.7995 17.6 17.1495 21.25 12.6595 21.25C8.16953 21.25 4.51953 17.6 4.51953 13.11C4.51953 11.37 5.08953 9.69 6.16953 8.25C6.41953 7.92 6.34953 7.45 6.01953 7.2C5.68953 6.95 5.21953 7.02 4.96953 7.35C3.68953 9.05 3.01953 11.04 3.01953 13.11C3.01953 18.42 7.33953 22.75 12.6595 22.75C17.9795 22.75 22.2995 18.43 22.2995 13.11C22.2995 7.79 17.9795 3.48 12.6695 3.48Z" fill="#292D32"/>
</svg>
