<svg width="25" height="24" viewBox="0 0 25 24" fill="none" xmlns="http://www.w3.org/2000/svg">
<path d="M16.8599 2H8.47992C4.83992 2 2.66992 4.17 2.66992 7.81V16.18C2.66992 19.83 4.83992 22 8.47992 22H16.8499C20.4899 22 22.6599 19.83 22.6599 16.19V7.81C22.6699 4.17 20.4999 2 16.8599 2ZM14.5899 16.13H9.66992C9.25992 16.13 8.91992 15.79 8.91992 15.38C8.91992 14.97 9.25992 14.63 9.66992 14.63H14.5899C15.8699 14.63 16.9199 13.59 16.9199 12.3C16.9199 11.01 15.8799 9.97 14.5899 9.97H9.51992L9.77992 10.23C10.0699 10.53 10.0699 11 9.76992 11.3C9.61992 11.45 9.42992 11.52 9.23992 11.52C9.04992 11.52 8.85992 11.45 8.70992 11.3L7.13992 9.72C6.84992 9.43 6.84992 8.95 7.13992 8.66L8.70992 7.09C8.99992 6.8 9.47992 6.8 9.76992 7.09C10.0599 7.38 10.0599 7.86 9.76992 8.15L9.43992 8.48H14.5899C16.6999 8.48 18.4199 10.2 18.4199 12.31C18.4199 14.42 16.6999 16.13 14.5899 16.13Z" fill="#292D32"/>
</svg>
