<svg width="25" height="24" viewBox="0 0 25 24" fill="none" xmlns="http://www.w3.org/2000/svg">
<path d="M21.9199 5.15V7.85C21.9199 9.69 21.3599 10.25 19.5199 10.25H16.8199C14.9799 10.25 14.4199 9.69 14.4199 7.85V5.15C14.4199 3.31 14.9799 2.75 16.8199 2.75H19.5199C21.3599 2.75 21.9199 3.31 21.9199 5.15Z" fill="#292D32"/>
<path d="M10.9199 16.15V18.85C10.9199 20.69 10.3599 21.25 8.51992 21.25H5.81992C3.97992 21.25 3.41992 20.69 3.41992 18.85V16.15C3.41992 14.31 3.97992 13.75 5.81992 13.75H8.51992C10.3599 13.75 10.9199 14.31 10.9199 16.15Z" fill="#292D32"/>
<path d="M16.82 11.7501C17.0851 11.7501 17.3 11.965 17.3 12.2301V13.6201C17.3 15.9001 16.57 16.6301 14.29 16.6301H12.9C12.6349 16.6301 12.42 16.4152 12.42 16.1501C12.42 13.4901 11.18 12.2501 8.52004 12.2501C8.25494 12.2501 8.04004 12.0352 8.04004 11.7701V10.3801C8.04004 8.10012 8.77004 7.37012 11.05 7.37012H12.44C12.7051 7.37012 12.92 7.58502 12.92 7.85012C12.92 10.5101 14.16 11.7501 16.82 11.7501Z" fill="#292D32"/>
</svg>
