<svg width="25" height="24" viewBox="0 0 25 24" fill="none" xmlns="http://www.w3.org/2000/svg">
<path d="M19.9099 5.58006H19.5099L16.1299 2.20006C15.8599 1.93006 15.4199 1.93006 15.1399 2.20006C14.8699 2.47006 14.8699 2.91006 15.1399 3.19006L17.5299 5.58006H7.80992L10.1999 3.19006C10.4699 2.92006 10.4699 2.48006 10.1999 2.20006C9.92992 1.93006 9.48992 1.93006 9.20992 2.20006L5.83992 5.58006H5.43992C4.53992 5.58006 2.66992 5.58006 2.66992 8.14006C2.66992 9.11006 2.86992 9.75006 3.28992 10.1701C3.52992 10.4201 3.81992 10.5501 4.12992 10.6201C4.41992 10.6901 4.72992 10.7001 5.02992 10.7001H20.3099C20.6199 10.7001 20.9099 10.6801 21.1899 10.6201C22.0299 10.4201 22.6699 9.82006 22.6699 8.14006C22.6699 5.58006 20.7999 5.58006 19.9099 5.58006Z" fill="#292D32"/>
<path d="M19.7196 12H5.53959C4.91959 12 4.44959 12.55 4.54959 13.16L5.38959 18.3C5.66959 20.02 6.41959 22 9.74959 22H15.3596C18.7296 22 19.3296 20.31 19.6896 18.42L20.6996 13.19C20.8196 12.57 20.3496 12 19.7196 12ZM12.6696 19.5C10.3296 19.5 8.41959 17.59 8.41959 15.25C8.41959 14.84 8.75959 14.5 9.16959 14.5C9.57959 14.5 9.91959 14.84 9.91959 15.25C9.91959 16.77 11.1496 18 12.6696 18C14.1896 18 15.4196 16.77 15.4196 15.25C15.4196 14.84 15.7596 14.5 16.1696 14.5C16.5796 14.5 16.9196 14.84 16.9196 15.25C16.9196 17.59 15.0096 19.5 12.6696 19.5Z" fill="#292D32"/>
</svg>
