<svg width="25" height="24" viewBox="0 0 25 24" fill="none" xmlns="http://www.w3.org/2000/svg">
<path d="M19.9099 5.58006H19.5099L16.1299 2.20006C15.8599 1.93006 15.4199 1.93006 15.1399 2.20006C14.8699 2.47006 14.8699 2.91006 15.1399 3.19006L17.5299 5.58006H7.80992L10.1999 3.19006C10.4699 2.92006 10.4699 2.48006 10.1999 2.20006C9.92992 1.93006 9.48992 1.93006 9.20992 2.20006L5.83992 5.58006H5.43992C4.53992 5.58006 2.66992 5.58006 2.66992 8.14006C2.66992 9.11006 2.86992 9.75006 3.28992 10.1701C3.52992 10.4201 3.81992 10.5501 4.12992 10.6201C4.41992 10.6901 4.72992 10.7001 5.02992 10.7001H20.3099C20.6199 10.7001 20.9099 10.6801 21.1899 10.6201C22.0299 10.4201 22.6699 9.82006 22.6699 8.14006C22.6699 5.58006 20.7999 5.58006 19.9099 5.58006Z" fill="#292D32"/>
<path d="M19.7196 12H5.53959C4.91959 12 4.44959 12.55 4.54959 13.16L5.38959 18.3C5.66959 20.02 6.41959 22 9.74959 22H15.3596C18.7296 22 19.3296 20.31 19.6896 18.42L20.6996 13.19C20.8196 12.57 20.3496 12 19.7196 12ZM11.2796 18.45C11.2796 18.84 10.9696 19.15 10.5896 19.15C10.1996 19.15 9.88959 18.84 9.88959 18.45V15.15C9.88959 14.77 10.1996 14.45 10.5896 14.45C10.9696 14.45 11.2796 14.77 11.2796 15.15V18.45ZM15.5596 18.45C15.5596 18.84 15.2496 19.15 14.8596 19.15C14.4796 19.15 14.1596 18.84 14.1596 18.45V15.15C14.1596 14.77 14.4796 14.45 14.8596 14.45C15.2496 14.45 15.5596 14.77 15.5596 15.15V18.45Z" fill="#292D32"/>
</svg>
