<svg width="25" height="24" viewBox="0 0 25 24" fill="none" xmlns="http://www.w3.org/2000/svg">
<path d="M21.0901 9C20.9501 8.99 20.7701 8.98 20.5701 8.98C20.1801 8.98 19.8701 9.29 19.8701 9.68V14.33C19.8701 14.72 20.1801 15.03 20.5701 15.03C20.7701 15.03 20.9401 15.02 21.1101 15.01C22.6701 14.83 22.6701 13.73 22.6701 12.93V11.07C22.6701 10.27 22.6701 9.17 21.0901 9Z" fill="#292D32"/>
<path d="M13.5999 4.78999H8.01992C3.91992 4.78999 2.66992 6.03999 2.66992 10.14V13.86C2.66992 17.96 3.91992 19.21 8.01992 19.21H13.5999C17.6999 19.21 18.9499 17.96 18.9499 13.86V10.14C18.9499 6.03999 17.6999 4.78999 13.5999 4.78999ZM13.1999 13.68C13.1799 13.72 13.1499 13.76 13.1199 13.79L11.2499 15.98C11.0999 16.15 10.8899 16.24 10.6799 16.24C10.5099 16.24 10.3299 16.18 10.1899 16.06C9.87992 15.79 9.83992 15.32 10.1099 15L11.9099 12.89C11.9199 12.86 11.9099 12.83 11.8899 12.8C11.8699 12.76 11.8299 12.74 11.7799 12.74H9.78992C9.19992 12.74 8.67992 12.44 8.37992 11.93C8.08992 11.42 8.08992 10.82 8.37992 10.31L10.0899 8.04999C10.3399 7.71999 10.8099 7.64999 11.1399 7.89999C11.4699 8.14999 11.5399 8.61999 11.2899 8.94999L9.63992 11.14C9.66992 11.1 9.66992 11.14 9.68992 11.19C9.70992 11.23 9.74992 11.25 9.79992 11.25H11.8099C12.3999 11.25 12.9199 11.55 13.2199 12.06C13.4899 12.57 13.4899 13.17 13.1999 13.68Z" fill="#292D32"/>
</svg>
