<svg width="25" height="24" viewBox="0 0 25 24" fill="none" xmlns="http://www.w3.org/2000/svg">
<path d="M19.8099 7.72C20.0999 8.47 20.8199 9 21.6699 9C22.7699 9 23.6699 8.1 23.6699 7C23.6699 5.9 22.7699 5 21.6699 5C20.8199 5 20.0999 5.53 19.8099 6.28C19.7599 6.27 19.7199 6.25 19.6699 6.25H15.6699V5.5C15.6699 4.68 14.9899 4 14.1699 4H11.1699C10.3499 4 9.66992 4.68 9.66992 5.5V6.25H5.66992C5.61992 6.25 5.57992 6.27 5.52992 6.28C5.23992 5.53 4.51992 5 3.66992 5C2.56992 5 1.66992 5.9 1.66992 7C1.66992 8.1 2.56992 9 3.66992 9C4.51992 9 5.23992 8.47 5.52992 7.72C5.57992 7.73 5.61992 7.75 5.66992 7.75H8.23992C6.18992 9.27 4.91992 11.79 4.91992 14.5C4.91992 14.67 4.92992 14.83 4.94992 15H4.66992C3.83992 15 3.16992 15.67 3.16992 16.5V18.5C3.16992 19.33 3.83992 20 4.66992 20H6.66992C6.88992 20 7.08992 19.95 7.27992 19.86C7.79992 19.64 8.16992 19.11 8.16992 18.5V16.5C8.16992 15.67 7.49992 15 6.66992 15H6.43992C6.43992 14.97 6.44992 14.94 6.44992 14.91C6.42992 14.77 6.42992 14.64 6.42992 14.5C6.42992 12.03 7.69992 9.77 9.68992 8.6C9.72992 9.37 10.3799 10 11.1699 10H14.1699C14.9599 10 15.6099 9.37 15.6599 8.6C17.6499 9.77 18.9199 12.04 18.9199 14.5C18.9199 14.64 18.9099 14.77 18.8999 14.91C18.8999 14.94 18.9099 14.97 18.9099 15H18.6699C17.8399 15 17.1699 15.67 17.1699 16.5V18.5C17.1699 19.11 17.5399 19.64 18.0599 19.86C18.2499 19.95 18.4499 20 18.6699 20H20.6699C21.4999 20 22.1699 19.33 22.1699 18.5V16.5C22.1699 15.67 21.4999 15 20.6699 15H20.3899C20.4099 14.83 20.4199 14.67 20.4199 14.5C20.4199 11.79 19.1499 9.27 17.0999 7.75H19.6699C19.7199 7.75 19.7599 7.73 19.8099 7.72Z" fill="#292D32"/>
</svg>
