<svg width="25" height="24" viewBox="0 0 25 24" fill="none" xmlns="http://www.w3.org/2000/svg">
<path d="M18.0499 10.75C18.0499 10.53 17.8099 10.25 17.5499 10.25H15.6099H15.1699V11.25H17.5499C17.8199 11.25 18.0499 11.03 18.0499 10.75Z" fill="#292D32"/>
<path d="M17.9899 12.75H17.5399H15.1699V13.75H15.6099H17.9899C18.3599 13.75 18.6699 13.52 18.6699 13.25C18.6699 12.98 18.3599 12.75 17.9899 12.75Z" fill="#292D32"/>
<path d="M18.5199 3.3999H6.81992C4.52992 3.3999 2.66992 5.2499 2.66992 7.5399V16.4599C2.66992 18.7499 4.52992 20.5999 6.81992 20.5999H18.5199C20.8099 20.5999 22.6699 18.7499 22.6699 16.4599V7.5399C22.6699 5.2499 20.8099 3.3999 18.5199 3.3999ZM9.91992 12.7499H5.91992C5.50992 12.7499 5.16992 12.4099 5.16992 11.9999C5.16992 11.5899 5.50992 11.2499 5.91992 11.2499H9.91992C10.3299 11.2499 10.6699 11.5899 10.6699 11.9999C10.6699 12.4099 10.3299 12.7499 9.91992 12.7499ZM17.9899 15.2499H16.9299V15.7499C16.9299 16.1599 16.5899 16.4999 16.1799 16.4999C15.7699 16.4999 15.4299 16.1599 15.4299 15.7499V15.2499H14.4199H13.4199C13.0099 15.2499 12.6699 14.9099 12.6699 14.4999C12.6699 14.0899 13.0099 13.7499 13.4199 13.7499H13.6699V11.9999V10.2499H13.4199C13.0099 10.2499 12.6699 9.9099 12.6699 9.4999C12.6699 9.0899 13.0099 8.7499 13.4199 8.7499H14.4199H15.4299V8.2499C15.4299 7.8399 15.7699 7.4999 16.1799 7.4999C16.5899 7.4999 16.9299 7.8399 16.9299 8.2499V8.7499H17.5399C18.6099 8.7499 19.5399 9.6799 19.5399 10.7499C19.5399 11.0799 19.4499 11.3899 19.3099 11.6699C19.8299 12.0399 20.1699 12.6099 20.1699 13.2499C20.1699 14.3499 19.1899 15.2499 17.9899 15.2499Z" fill="#292D32"/>
</svg>
