<svg width="25" height="24" viewBox="0 0 25 24" fill="none" xmlns="http://www.w3.org/2000/svg">
<path d="M15.6397 12.75H14.8697H10.1997V15.58H11.5097H15.6397C16.5897 15.58 17.3697 14.94 17.3697 14.16C17.3697 13.38 16.5897 12.75 15.6397 12.75Z" fill="black"/>
<path d="M12.6699 2C7.14992 2 2.66992 6.48 2.66992 12C2.66992 17.52 7.14992 22 12.6699 22C18.1899 22 22.6699 17.52 22.6699 12C22.6699 6.48 18.1899 2 12.6699 2ZM15.6399 17.08H13.9899V18.5C13.9899 18.91 13.6499 19.25 13.2399 19.25C12.8299 19.25 12.4899 18.91 12.4899 18.5V17.08H11.5099H11.2799V18.5C11.2799 18.91 10.9399 19.25 10.5299 19.25C10.1199 19.25 9.77992 18.91 9.77992 18.5V17.08H9.44992H7.71992C7.30992 17.08 6.96992 16.74 6.96992 16.33C6.96992 15.92 7.30992 15.58 7.71992 15.58H8.69992V12V8.42H7.71992C7.30992 8.42 6.96992 8.08 6.96992 7.67C6.96992 7.26 7.30992 6.92 7.71992 6.92H9.44992H9.77992V5.5C9.77992 5.09 10.1199 4.75 10.5299 4.75C10.9399 4.75 11.2799 5.09 11.2799 5.5V6.92H11.5099H12.4899V5.5C12.4899 5.09 12.8299 4.75 13.2399 4.75C13.6499 4.75 13.9899 5.09 13.9899 5.5V6.92H14.8699C16.4199 6.92 17.7899 8.28 17.7899 9.84C17.7899 10.51 17.5499 11.12 17.1699 11.62C18.1799 12.11 18.8699 13.07 18.8699 14.18C18.8699 15.77 17.4199 17.08 15.6399 17.08Z" fill="black"/>
<path d="M16.2897 9.83C16.2897 9.17 15.6697 8.41 14.8697 8.41H11.5097H10.1997V11.24H14.8697C15.6497 11.25 16.2897 10.61 16.2897 9.83Z" fill="black"/>
</svg>
