<svg width="25" height="24" viewBox="0 0 25 24" fill="none" xmlns="http://www.w3.org/2000/svg">
<path d="M13.5698 16.3299L15.2398 14.9399L13.5698 13.4099V16.3299Z" fill="#292D32"/>
<path d="M13.5698 10.5899L15.2398 9.05992L13.5698 7.66992V10.5899Z" fill="#292D32"/>
<path d="M15.6699 2H9.66992C6.66992 2 4.66992 4 4.66992 7V17C4.66992 20 6.66992 22 9.66992 22H15.6699C18.6699 22 20.6699 20 20.6699 17V7C20.6699 4 18.6699 2 15.6699 2ZM16.3899 13.95C16.6799 14.22 16.8399 14.59 16.8299 14.97C16.8199 15.35 16.6399 15.72 16.3399 15.97L14.2699 17.7C13.8899 18.02 13.5399 18.11 13.2699 18.11C13.0499 18.11 12.8799 18.05 12.7799 18.01C12.5599 17.91 12.0599 17.58 12.0599 16.67V14L9.75992 16.11C9.45992 16.39 8.97992 16.37 8.69992 16.06C8.41992 15.75 8.43992 15.28 8.74992 15L12.0299 12L8.74992 8.99C8.44992 8.71 8.42992 8.24 8.70992 7.93C8.98992 7.63 9.46992 7.6 9.76992 7.88L12.0699 10V7.33C12.0699 6.43 12.5699 6.1 12.7899 5.99C12.9999 5.89 13.5799 5.71 14.2799 6.29L16.3399 8.01C16.6399 8.26 16.8199 8.63 16.8299 9.01C16.8399 9.39 16.6799 9.77 16.3899 10.03L14.2499 12L16.3899 13.95Z" fill="#292D32"/>
</svg>
