<svg width="25" height="24" viewBox="0 0 25 24" fill="none" xmlns="http://www.w3.org/2000/svg">
<path d="M14.1399 7.41012L16.5999 6.20012C16.8999 6.05012 16.9799 5.66012 16.7499 5.42012C15.8599 4.44012 14.9599 3.62012 14.2399 3.00012C13.9099 2.72012 13.4199 2.95012 13.4199 3.38012V6.96012C13.4199 7.33012 13.8099 7.57012 14.1399 7.41012Z" fill="#292D32"/>
<path d="M13.4199 19.7401V21.3901C13.4199 21.6901 13.6899 21.9401 13.9899 21.8901C16.7199 21.4401 18.9999 19.6101 20.0799 17.1501C20.2699 16.7301 19.8099 16.3101 19.3899 16.5101L13.6999 19.3001C13.5299 19.3801 13.4199 19.5501 13.4199 19.7401Z" fill="#292D32"/>
<path d="M11.9204 3.36012C11.9204 2.93012 11.4304 2.70012 11.1004 2.97012C8.74038 4.95012 4.55038 9.12012 4.57038 13.9001C4.57038 17.9201 7.51038 21.2501 11.3504 21.8901C11.6504 21.9401 11.9204 21.6901 11.9204 21.3901V3.36012Z" fill="#292D32"/>
<path d="M14.1102 12.4699L19.4002 10.2499C19.6702 10.1299 19.8002 9.81995 19.6702 9.55995C19.3002 8.82995 18.8702 8.11995 18.4002 7.45995C18.2602 7.25995 18.0002 7.19995 17.7802 7.29995L13.6902 9.28995C13.5202 9.36995 13.4102 9.54994 13.4102 9.73994V12.0099C13.4202 12.3599 13.7802 12.6099 14.1102 12.4699Z" fill="#292D32"/>
<path d="M20.4999 14.31C20.6599 14.23 20.7599 14.08 20.7599 13.91C20.7599 13.27 20.6799 12.64 20.5399 12.02C20.4699 11.72 20.1399 11.56 19.8599 11.68L13.7199 14.3C13.5399 14.38 13.4199 14.56 13.4199 14.76V16.96C13.4199 17.33 13.8099 17.57 14.1399 17.41L20.0399 14.54L20.4999 14.31Z" fill="#292D32"/>
</svg>
