<svg width="25" height="24" viewBox="0 0 25 24" fill="none" xmlns="http://www.w3.org/2000/svg">
<path d="M22.6699 7.81007V16.1901C22.6699 19.4001 20.0699 22.0001 16.8599 22.0001H8.47992C5.26992 22.0001 2.66992 19.4001 2.66992 16.1901V7.81007C2.66992 5.32007 3.68992 3.51007 5.49992 2.63007C6.15992 2.31007 6.91992 2.81007 6.91992 3.54007V12.4201C6.91992 13.6101 7.37992 14.5601 8.20992 15.0401C9.04992 15.5101 10.1099 15.4101 11.1899 14.7601L12.4899 13.9801C12.5699 13.9401 12.7699 13.9401 12.8299 13.9701L14.1499 14.7601C14.8699 15.1901 15.4899 15.3301 15.9899 15.3301C16.5099 15.3301 16.9099 15.1701 17.1499 15.0301C17.9599 14.5601 18.4199 13.6101 18.4199 12.4201V3.54007C18.4199 2.81007 19.1899 2.31007 19.8399 2.63007C21.6499 3.51007 22.6699 5.32007 22.6699 7.81007Z" fill="#292D32"/>
<path d="M15.9199 2C16.4699 2 16.9199 2.45 16.9199 3V12.42C16.9199 13.06 16.7299 13.54 16.3999 13.73C16.0599 13.93 15.5199 13.83 14.9199 13.47L13.5999 12.68C13.0899 12.37 12.2499 12.37 11.7399 12.68L10.4199 13.47C9.81992 13.83 9.27992 13.92 8.93992 13.73C8.60992 13.54 8.41992 13.06 8.41992 12.42V3C8.41992 2.45 8.86992 2 9.41992 2H15.9199Z" fill="#292D32"/>
</svg>
