<svg width="25" height="24" viewBox="0 0 25 24" fill="none" xmlns="http://www.w3.org/2000/svg">
<path d="M11.9199 6.00008V19.9101C11.9199 20.6201 11.1999 21.1101 10.5499 20.8401C8.68992 20.0601 6.37992 19.3801 4.73992 19.1601L4.42992 19.1201C3.45992 19.0001 2.66992 18.1101 2.66992 17.1401V5.25008C2.66992 4.05008 3.63992 3.08008 4.83992 3.08008H4.90992C6.78992 3.24008 9.55992 4.12008 11.3899 5.11008C11.7199 5.29008 11.9199 5.62008 11.9199 6.00008Z" fill="#292D32"/>
<path d="M20.4999 3.08008H20.4399C20.1999 3.10008 19.9399 3.13008 19.6699 3.18008C18.4399 3.38008 16.9799 3.80008 15.6699 4.32008C15.0499 4.57008 14.4699 4.84008 13.9599 5.11008C13.6299 5.29008 13.4199 5.63008 13.4199 6.00008V19.9101C13.4199 20.6201 14.1399 21.1101 14.7899 20.8401C16.6499 20.0601 18.9599 19.3801 20.5999 19.1601L20.9099 19.1201C21.8799 19.0001 22.6699 18.1101 22.6699 17.1401V5.25008C22.6699 4.05008 21.6999 3.08008 20.4999 3.08008ZM19.9399 13.7301C19.9399 14.1201 19.6599 14.2901 19.3199 14.1001L18.2599 13.5101C18.1499 13.4501 17.9699 13.4501 17.8499 13.5101L16.7899 14.1001C16.4499 14.2901 16.1699 14.1201 16.1699 13.7301V10.6601C16.1699 10.2001 16.5499 9.82008 17.0099 9.82008H19.1099C19.5699 9.82008 19.9499 10.2001 19.9499 10.6601V13.7301H19.9399Z" fill="#292D32"/>
</svg>
