<svg width="25" height="24" viewBox="0 0 25 24" fill="none" xmlns="http://www.w3.org/2000/svg">
<path d="M18.2709 5.30979L12.6209 2.26979C12.0209 1.94979 11.3109 1.94979 10.7109 2.26979L5.07088 5.30979C4.66088 5.53979 4.40088 5.97978 4.40088 6.45978C4.40088 6.94979 4.65088 7.38979 5.07088 7.60979L10.7209 10.6498C11.0209 10.8098 11.3509 10.8898 11.6709 10.8898C11.9909 10.8898 12.3309 10.8098 12.6209 10.6498L18.2709 7.60979C18.6809 7.38979 18.9409 6.94979 18.9409 6.45978C18.9409 5.97978 18.6809 5.53979 18.2709 5.30979Z" fill="#292D32"/>
<path d="M9.7909 11.7096L4.5409 9.0896C4.1309 8.8796 3.6709 8.9096 3.2809 9.1396C2.9009 9.3796 2.6709 9.7896 2.6709 10.2396V15.1996C2.6709 16.0596 3.1509 16.8296 3.9209 17.2196L9.1709 19.8396C9.3509 19.9296 9.5509 19.9796 9.7509 19.9796C9.9809 19.9796 10.2209 19.9096 10.4309 19.7896C10.8109 19.5496 11.0409 19.1396 11.0409 18.6896V13.7296C11.0309 12.8696 10.5509 12.0996 9.7909 11.7096Z" fill="#292D32"/>
<path d="M20.671 10.2396V12.6996C20.191 12.5596 19.681 12.4996 19.171 12.4996C17.811 12.4996 16.481 12.9696 15.431 13.8096C13.991 14.9396 13.171 16.6496 13.171 18.4996C13.171 18.9896 13.231 19.4796 13.361 19.9496C13.211 19.9296 13.061 19.8696 12.921 19.7796C12.541 19.5496 12.311 19.1396 12.311 18.6896V13.7296C12.311 12.8696 12.791 12.0996 13.551 11.7096L18.801 9.0896C19.211 8.8796 19.671 8.9096 20.061 9.1396C20.441 9.3796 20.671 9.7896 20.671 10.2396Z" fill="#292D32"/>
<path d="M22.6509 15.67C21.8309 14.66 20.5809 14.02 19.1709 14.02C18.1109 14.02 17.1309 14.39 16.3609 15.01C15.3209 15.83 14.6709 17.1 14.6709 18.52C14.6709 19.36 14.9109 20.16 15.3209 20.84C15.5909 21.29 15.9309 21.68 16.3309 22H16.3409C17.1109 22.64 18.1009 23.02 19.1709 23.02C20.3109 23.02 21.3409 22.6 22.1309 21.9C22.4809 21.6 22.7809 21.24 23.0209 20.84C23.4309 20.16 23.6709 19.36 23.6709 18.52C23.6709 17.44 23.2909 16.44 22.6509 15.67ZM21.4309 17.96L19.0309 20.18C18.8909 20.31 18.7009 20.38 18.5209 20.38C18.3309 20.38 18.1409 20.31 17.9909 20.16L16.8809 19.05C16.5909 18.76 16.5909 18.28 16.8809 17.99C17.1709 17.7 17.6509 17.7 17.9409 17.99L18.5409 18.59L20.4109 16.86C20.7109 16.58 21.1909 16.6 21.4709 16.9C21.7609 17.21 21.7409 17.68 21.4309 17.96Z" fill="#292D32"/>
</svg>
