<svg width="25" height="24" viewBox="0 0 25 24" fill="none" xmlns="http://www.w3.org/2000/svg">
<path d="M18.2709 5.30979L12.6209 2.26979C12.0209 1.94979 11.3109 1.94979 10.7109 2.26979L5.07088 5.30979C4.66088 5.53979 4.40088 5.97978 4.40088 6.45978C4.40088 6.94979 4.65088 7.38979 5.07088 7.60979L10.7209 10.6498C11.0209 10.8098 11.3509 10.8898 11.6709 10.8898C11.9909 10.8898 12.3309 10.8098 12.6209 10.6498L18.2709 7.60979C18.6809 7.38979 18.9409 6.94979 18.9409 6.45978C18.9409 5.97978 18.6809 5.53979 18.2709 5.30979Z" fill="#292D32"/>
<path d="M9.7909 11.7096L4.5409 9.0896C4.1309 8.8796 3.6709 8.9096 3.2809 9.1396C2.9009 9.3796 2.6709 9.7896 2.6709 10.2396V15.1996C2.6709 16.0596 3.1509 16.8296 3.9209 17.2196L9.1709 19.8396C9.3509 19.9296 9.5509 19.9796 9.7509 19.9796C9.9809 19.9796 10.2209 19.9096 10.4309 19.7896C10.8109 19.5496 11.0409 19.1396 11.0409 18.6896V13.7296C11.0309 12.8696 10.5509 12.0996 9.7909 11.7096Z" fill="#292D32"/>
<path d="M20.671 10.2396V12.6996C20.191 12.5596 19.681 12.4996 19.171 12.4996C17.811 12.4996 16.481 12.9696 15.431 13.8096C13.991 14.9396 13.171 16.6496 13.171 18.4996C13.171 18.9896 13.231 19.4796 13.361 19.9496C13.211 19.9296 13.061 19.8696 12.921 19.7796C12.541 19.5496 12.311 19.1396 12.311 18.6896V13.7296C12.311 12.8696 12.791 12.0996 13.551 11.7096L18.801 9.0896C19.211 8.8796 19.671 8.9096 20.061 9.1396C20.441 9.3796 20.671 9.7896 20.671 10.2396Z" fill="#292D32"/>
<path d="M22.6709 15.7C22.6709 15.69 22.6609 15.68 22.6509 15.67C22.6109 15.61 22.5609 15.55 22.5109 15.5C22.5009 15.49 22.4909 15.47 22.4809 15.46C21.6709 14.56 20.4809 14 19.1709 14C17.9109 14 16.7609 14.52 15.9409 15.36C15.1509 16.17 14.6709 17.28 14.6709 18.5C14.6709 19.34 14.9109 20.14 15.3209 20.82C15.5409 21.19 15.8209 21.53 16.1409 21.81C16.1609 21.82 16.1709 21.83 16.1809 21.84C16.2309 21.89 16.2809 21.93 16.3409 21.98C16.3409 21.98 16.3409 21.98 16.3509 21.98C16.3609 21.99 16.3709 22 16.3809 22C17.1309 22.63 18.1009 23 19.1709 23C20.8109 23 22.2409 22.12 23.0209 20.82C23.2509 20.43 23.4309 20 23.5409 19.55C23.6309 19.21 23.6709 18.86 23.6709 18.5C23.6709 17.44 23.3009 16.46 22.6709 15.7ZM20.8509 19.23H19.9209V20.2C19.9209 20.61 19.5809 20.95 19.1709 20.95C18.7609 20.95 18.4209 20.61 18.4209 20.2V19.23H17.4909C17.0809 19.23 16.7409 18.89 16.7409 18.48C16.7409 18.07 17.0809 17.73 17.4909 17.73H18.4209V16.84C18.4209 16.43 18.7609 16.09 19.1709 16.09C19.5809 16.09 19.9209 16.43 19.9209 16.84V17.73H20.8509C21.2609 17.73 21.6009 18.07 21.6009 18.48C21.6009 18.89 21.2709 19.23 20.8509 19.23Z" fill="#292D32"/>
</svg>
