<svg width="25" height="24" viewBox="0 0 25 24" fill="none" xmlns="http://www.w3.org/2000/svg">
<path d="M21.76 6.98002C20.91 6.04002 19.5 5.57002 17.43 5.57002H17.19V5.53002C17.19 3.85002 17.19 1.77002 13.43 1.77002H11.91C8.14996 1.77002 8.14996 3.85002 8.14996 5.53002V5.57002H7.90996C5.83996 5.57002 4.41996 6.04002 3.57996 6.98002C2.58996 8.09002 2.61996 9.56002 2.71996 10.57L2.72996 10.64L2.79904 11.446C2.81224 11.5999 2.89578 11.7392 3.0255 11.8232C3.30919 12.0068 3.61102 12.1995 3.89996 12.36C4.03996 12.45 4.18996 12.53 4.33996 12.61C5.46996 13.23 6.67996 13.72 7.91996 14.06C7.94996 16.65 10.07 18.75 12.67 18.75C15.29 18.75 17.42 16.62 17.42 14V13.96C18.68 13.58 19.89 13.05 21.02 12.39C21.08 12.36 21.12 12.33 21.17 12.3C21.5646 12.0855 21.9739 11.8048 22.3475 11.54C22.4638 11.4575 22.5387 11.329 22.5541 11.1873L22.62 10.58C22.63 10.52 22.63 10.47 22.64 10.4C22.72 9.40002 22.7 8.02002 21.76 6.98002ZM9.57996 5.53002C9.57996 3.83002 9.57996 3.19002 11.91 3.19002H13.43C15.76 3.19002 15.76 3.83002 15.76 5.53002V5.57002H9.57996V5.53002ZM12.67 17.25C11.02 17.25 9.64996 16.01 9.44996 14.41C9.42996 14.28 9.41996 14.14 9.41996 14C9.41996 12.21 10.88 10.75 12.67 10.75C14.46 10.75 15.92 12.21 15.92 14C15.92 14.12 15.91 14.23 15.9 14.34V14.35C15.72 15.98 14.34 17.25 12.67 17.25Z" fill="#292D32"/>
<path d="M12.0998 16.0301C11.9098 16.0301 11.7198 15.9601 11.5698 15.8101L10.5798 14.8301C10.2898 14.5401 10.2898 14.0601 10.5798 13.7701C10.8698 13.4801 11.3498 13.4801 11.6398 13.7701L12.1198 14.2501L13.7298 12.7701C14.0298 12.4901 14.5098 12.5101 14.7898 12.8101C15.0698 13.1101 15.0498 13.5901 14.7498 13.8701L12.6198 15.8401C12.4598 15.9601 12.2798 16.0301 12.0998 16.0301Z" fill="#292D32"/>
<path d="M21.7115 13.7311C21.9602 13.5929 22.2829 13.7931 22.2569 14.0765L21.9015 17.9611C21.6915 19.9611 20.8715 22.0011 16.4715 22.0011H8.85148C4.45148 22.0011 3.63148 19.9611 3.43148 17.9711L3.08562 14.2678C3.05876 13.9802 3.36627 13.786 3.62148 13.9211C4.40148 14.3511 5.21148 14.7311 6.04148 15.0311C6.35148 15.1411 6.57148 15.4011 6.66148 15.7211C7.41148 18.3211 9.83148 20.2511 12.6715 20.2511C15.5615 20.2511 18.0015 18.2811 18.7115 15.5811C18.7915 15.2611 19.0115 15.0011 19.3215 14.8811C20.1615 14.5511 20.9615 14.1611 21.7115 13.7311Z" fill="#292D32"/>
</svg>
