<svg width="25" height="24" viewBox="0 0 25 24" fill="none" xmlns="http://www.w3.org/2000/svg">
<path d="M16.8599 2H8.47992C4.83992 2 2.66992 4.17 2.66992 7.81V16.18C2.66992 19.83 4.83992 22 8.47992 22H16.8499C20.4899 22 22.6599 19.83 22.6599 16.19V7.81C22.6699 4.17 20.4999 2 16.8599 2ZM11.1599 16.72C10.8199 17.06 10.3699 17.29 9.81992 17.36L8.46992 17.51C7.72992 17.59 7.09992 16.96 7.17992 16.21L7.32992 14.85C7.45992 13.64 8.46992 12.87 9.53992 12.85C9.63992 12.84 9.75992 12.85 9.86992 12.86C10.3399 12.92 10.7899 13.14 11.1699 13.51C11.5399 13.88 11.7499 14.32 11.8099 14.77C11.8199 14.88 11.8299 14.99 11.8299 15.09C11.8299 15.71 11.5999 16.28 11.1599 16.72ZM18.1099 7.55C17.3899 9.35 15.7399 11.71 14.1699 13.25C13.9399 11.83 12.8099 10.71 11.3699 10.51C12.9099 8.93 15.2899 7.26 17.0999 6.53C17.4199 6.41 17.7399 6.5 17.9399 6.7C18.1399 6.92 18.2399 7.23 18.1099 7.55Z" fill="#292D32"/>
</svg>
