<svg width="25" height="24" viewBox="0 0 25 24" fill="none" xmlns="http://www.w3.org/2000/svg">
<path d="M16.2599 1.75C13.2899 1.75 10.8799 4.16 10.8799 7.13C10.8799 10.1 13.2899 12.51 16.2599 12.51C19.2299 12.51 21.6399 10.1 21.6399 7.13C21.6399 4.16 19.2299 1.75 16.2599 1.75Z" fill="#292D32"/>
<path d="M7.0302 13.03C5.2002 13.03 3.7002 14.52 3.7002 16.36C3.7002 18.2 5.1902 19.69 7.0302 19.69C8.8602 19.69 10.3602 18.2 10.3602 16.36C10.3602 14.52 8.8602 13.03 7.0302 13.03Z" fill="#292D32"/>
<path d="M17.2895 16.62C15.7395 16.62 14.4795 17.88 14.4795 19.43C14.4795 20.98 15.7395 22.24 17.2895 22.24C18.8395 22.24 20.0995 20.98 20.0995 19.43C20.0995 17.88 18.8395 16.62 17.2895 16.62Z" fill="#292D32"/>
</svg>
