<svg width="25" height="24" viewBox="0 0 25 24" fill="none" xmlns="http://www.w3.org/2000/svg">
<path d="M11.99 3H5.76002C3.77002 3 2.77002 4.01 2.77002 6.02V22H8.17002V18.25C8.17002 17.84 8.51002 17.5 8.92002 17.5C9.33002 17.5 9.67002 17.83 9.67002 18.25V22H14.97V6.02C14.97 4.01 13.98 3 11.99 3ZM11.42 12.75H6.47002C6.06002 12.75 5.72002 12.41 5.72002 12C5.72002 11.59 6.06002 11.25 6.47002 11.25H11.42C11.83 11.25 12.17 11.59 12.17 12C12.17 12.41 11.83 12.75 11.42 12.75ZM11.42 9H6.47002C6.06002 9 5.72002 8.66 5.72002 8.25C5.72002 7.84 6.06002 7.5 6.47002 7.5H11.42C11.83 7.5 12.17 7.84 12.17 8.25C12.17 8.66 11.83 9 11.42 9Z" fill="#292D32"/>
<path d="M23.6699 21.2501H21.3999V18.2501C22.3499 17.9401 23.0399 17.0501 23.0399 16.0001V14.0001C23.0399 12.6901 21.9699 11.6201 20.6599 11.6201C19.3499 11.6201 18.2799 12.6901 18.2799 14.0001V16.0001C18.2799 17.0401 18.9599 17.9201 19.8899 18.2401V21.2501H1.66992C1.25992 21.2501 0.919922 21.5901 0.919922 22.0001C0.919922 22.4101 1.25992 22.7501 1.66992 22.7501H20.5999C20.6199 22.7501 20.6299 22.7601 20.6499 22.7601C20.6699 22.7601 20.6799 22.7501 20.6999 22.7501H23.6699C24.0799 22.7501 24.4199 22.4101 24.4199 22.0001C24.4199 21.5901 24.0799 21.2501 23.6699 21.2501Z" fill="#292D32"/>
</svg>
