<svg width="25" height="24" viewBox="0 0 25 24" fill="none" xmlns="http://www.w3.org/2000/svg">
<path d="M15.6699 7.06984C15.6699 6.39984 15.3399 5.77984 14.7799 5.40984L10.7799 2.73984C10.1099 2.28984 9.22992 2.28984 8.55992 2.73984L4.55992 5.40984C4.00992 5.77984 3.66992 6.39984 3.66992 7.06984V12.7498C3.66992 13.0298 3.88992 13.2498 4.16992 13.2498H15.1699C15.4499 13.2498 15.6699 13.0298 15.6699 12.7498V7.06984ZM9.66992 10.7498C8.70992 10.7498 7.91992 9.95984 7.91992 8.99984C7.91992 8.03984 8.70992 7.24984 9.66992 7.24984C10.6299 7.24984 11.4199 8.03984 11.4199 8.99984C11.4199 9.95984 10.6299 10.7498 9.66992 10.7498Z" fill="#292D32"/>
<path d="M22.6699 21.2501H21.3999V18.2501C22.3499 17.9401 23.0399 17.0501 23.0399 16.0001V14.0001C23.0399 12.6901 21.9699 11.6201 20.6599 11.6201C19.3499 11.6201 18.2799 12.6901 18.2799 14.0001V16.0001C18.2799 17.0401 18.9599 17.9201 19.8899 18.2401V21.2501H15.6699V15.2501C15.6699 14.9701 15.4499 14.7501 15.1699 14.7501H4.16992C3.88992 14.7501 3.66992 14.9701 3.66992 15.2501V21.2501H2.66992C2.25992 21.2501 1.91992 21.5901 1.91992 22.0001C1.91992 22.4101 2.25992 22.7501 2.66992 22.7501H20.5999C20.6199 22.7501 20.6299 22.7601 20.6499 22.7601C20.6699 22.7601 20.6799 22.7501 20.6999 22.7501H22.6699C23.0799 22.7501 23.4199 22.4101 23.4199 22.0001C23.4199 21.5901 23.0799 21.2501 22.6699 21.2501ZM8.91992 18.2501C8.91992 17.8401 9.25992 17.5001 9.66992 17.5001C10.0799 17.5001 10.4199 17.8401 10.4199 18.2501V21.2501H8.91992V18.2501Z" fill="#292D32"/>
</svg>
