<svg width="25" height="24" viewBox="0 0 25 24" fill="none" xmlns="http://www.w3.org/2000/svg">
<path d="M5.66992 8C4.00992 8 2.66992 9.34 2.66992 11V19C2.66992 20.66 4.00992 22 5.66992 22H7.16992C8.26992 22 9.16992 21.1 9.16992 20V10C9.16992 8.9 8.26992 8 7.16992 8H5.66992ZM6.66992 17C6.66992 17.41 6.32992 17.75 5.91992 17.75C5.50992 17.75 5.16992 17.41 5.16992 17V13C5.16992 12.59 5.50992 12.25 5.91992 12.25C6.32992 12.25 6.66992 12.59 6.66992 13V17Z" fill="#292D32"/>
<path d="M19.6699 2H13.6699C12.0099 2 10.6699 3.34 10.6699 5V19C10.6699 20.66 12.0099 22 13.6699 22H14.1699C14.4499 22 14.6699 21.78 14.6699 21.5V18C14.6699 17.45 15.1199 17 15.6699 17H17.6699C18.2199 17 18.6699 17.45 18.6699 18V21.5C18.6699 21.78 18.8899 22 19.1699 22H19.6699C21.3299 22 22.6699 20.66 22.6699 19V5C22.6699 3.34 21.3299 2 19.6699 2ZM15.4199 13C15.4199 13.41 15.0799 13.75 14.6699 13.75C14.2599 13.75 13.9199 13.41 13.9199 13V8C13.9199 7.59 14.2599 7.25 14.6699 7.25C15.0799 7.25 15.4199 7.59 15.4199 8V13ZM19.4199 13C19.4199 13.41 19.0799 13.75 18.6699 13.75C18.2599 13.75 17.9199 13.41 17.9199 13V8C17.9199 7.59 18.2599 7.25 18.6699 7.25C19.0799 7.25 19.4199 7.59 19.4199 8V13Z" fill="#292D32"/>
</svg>
