<svg width="25" height="24" viewBox="0 0 25 24" fill="none" xmlns="http://www.w3.org/2000/svg">
<path d="M16.6699 2H8.66992C5.90992 2 3.66992 4.24 3.66992 7V17C3.66992 19.76 5.90992 22 8.66992 22H16.6699C19.4299 22 21.6699 19.76 21.6699 17V7C21.6699 4.24 19.4299 2 16.6699 2ZM9.52992 18.63C9.33992 18.82 9.08992 18.92 8.82992 18.92C8.55992 18.92 8.30992 18.82 8.11992 18.63C7.92992 18.44 7.81992 18.19 7.81992 17.92C7.81992 17.66 7.92992 17.4 8.11992 17.21C8.20992 17.12 8.31992 17.05 8.43992 17C8.68992 16.9 8.95992 16.9 9.20992 17C9.26992 17.02 9.32992 17.05 9.37992 17.09C9.43992 17.12 9.48992 17.17 9.52992 17.21C9.71992 17.4 9.82992 17.66 9.82992 17.92C9.82992 18.19 9.71992 18.44 9.52992 18.63ZM7.81992 13.92C7.81992 13.79 7.84992 13.66 7.89992 13.54C7.94992 13.41 8.01992 13.31 8.11992 13.21C8.34992 12.98 8.69992 12.87 9.01992 12.94C9.07992 12.95 9.14992 12.97 9.20992 13C9.26992 13.02 9.32992 13.05 9.37992 13.09C9.43992 13.12 9.48992 13.17 9.52992 13.21C9.61992 13.31 9.69992 13.41 9.74992 13.54C9.79992 13.66 9.81992 13.79 9.81992 13.92C9.81992 14.19 9.71992 14.44 9.52992 14.63C9.33992 14.82 9.08992 14.92 8.82992 14.92C8.68992 14.92 8.55992 14.89 8.43992 14.84C8.31992 14.79 8.20992 14.72 8.11992 14.63C7.92992 14.44 7.81992 14.19 7.81992 13.92ZM13.5299 18.63C13.4399 18.72 13.3299 18.79 13.2099 18.84C13.0899 18.89 12.9599 18.92 12.8199 18.92C12.5599 18.92 12.3099 18.82 12.1199 18.63C11.9299 18.44 11.8199 18.19 11.8199 17.92C11.8199 17.85 11.8299 17.79 11.8399 17.72C11.8599 17.66 11.8799 17.6 11.8999 17.54C11.9299 17.48 11.9599 17.42 11.9899 17.36C12.0299 17.31 12.0699 17.26 12.1199 17.21C12.2099 17.12 12.3199 17.05 12.4399 17C12.8099 16.85 13.2499 16.93 13.5299 17.21C13.7199 17.4 13.8199 17.66 13.8199 17.92C13.8199 18.19 13.7199 18.44 13.5299 18.63ZM13.5299 14.63C13.3399 14.82 13.0899 14.92 12.8199 14.92C12.5599 14.92 12.3099 14.82 12.1199 14.63C11.9299 14.44 11.8199 14.19 11.8199 13.92C11.8199 13.66 11.9299 13.4 12.1199 13.21C12.4899 12.84 13.1599 12.84 13.5299 13.21C13.6199 13.31 13.6999 13.41 13.7499 13.54C13.7999 13.66 13.8199 13.79 13.8199 13.92C13.8199 14.19 13.7199 14.44 13.5299 14.63ZM9.66992 10.46C8.63992 10.46 7.78992 9.62 7.78992 8.58V7.58C7.78992 6.55 8.62992 5.7 9.66992 5.7H15.6699C16.6999 5.7 17.5499 6.54 17.5499 7.58V8.58C17.5499 9.61 16.7099 10.46 15.6699 10.46H9.66992ZM17.5299 18.63C17.3399 18.82 17.0899 18.92 16.8199 18.92C16.6899 18.92 16.5599 18.89 16.4399 18.84C16.3199 18.79 16.2099 18.72 16.1199 18.63C15.9299 18.44 15.8299 18.19 15.8299 17.92C15.8299 17.66 15.9299 17.4 16.1199 17.21C16.3899 16.93 16.8399 16.85 17.2099 17C17.3299 17.05 17.4399 17.12 17.5299 17.21C17.7199 17.4 17.8199 17.66 17.8199 17.92C17.8199 18.19 17.7199 18.44 17.5299 18.63ZM17.7499 14.3C17.6999 14.42 17.6299 14.53 17.5299 14.63C17.3399 14.82 17.0899 14.92 16.8199 14.92C16.5599 14.92 16.3099 14.82 16.1199 14.63C15.9299 14.44 15.8199 14.19 15.8199 13.92C15.8199 13.66 15.9299 13.4 16.1199 13.21C16.4899 12.84 17.1599 12.84 17.5299 13.21C17.7199 13.4 17.8299 13.66 17.8299 13.92C17.8299 14.05 17.7999 14.18 17.7499 14.3Z" fill="#292D32"/>
</svg>
