<svg width="25" height="24" viewBox="0 0 25 24" fill="none" xmlns="http://www.w3.org/2000/svg">
<path d="M17.4202 3.56V2C17.4202 1.59 17.0802 1.25 16.6702 1.25C16.2602 1.25 15.9202 1.59 15.9202 2V3.5H9.42015V2C9.42015 1.59 9.08015 1.25 8.67015 1.25C8.26015 1.25 7.92015 1.59 7.92015 2V3.56C5.22015 3.81 3.91015 5.42 3.71015 7.81C3.69015 8.1 3.93015 8.34 4.21015 8.34H21.1301C21.4202 8.34 21.6602 8.09 21.6301 7.81C21.4301 5.42 20.1202 3.81 17.4202 3.56Z" fill="#292D32"/>
<path d="M20.6699 9.84009H4.66992C4.11992 9.84009 3.66992 10.2901 3.66992 10.8401V17.0001C3.66992 20.0001 5.16992 22.0001 8.66992 22.0001H16.6699C20.1699 22.0001 21.6699 20.0001 21.6699 17.0001V10.8401C21.6699 10.2901 21.2199 9.84009 20.6699 9.84009ZM15.5099 14.9901L15.0099 15.5001H14.9999L11.9699 18.5301C11.8399 18.6601 11.5699 18.8001 11.3799 18.8201L10.0299 19.0201C9.53992 19.0901 9.19992 18.7401 9.26992 18.2601L9.45992 16.9001C9.48992 16.7101 9.61992 16.4501 9.74992 16.3101L12.7899 13.2801L13.2899 12.7701C13.6199 12.4401 13.9899 12.2001 14.3899 12.2001C14.7299 12.2001 15.0999 12.3601 15.5099 12.7701C16.4099 13.6701 16.1199 14.3801 15.5099 14.9901Z" fill="#292D32"/>
</svg>
