<svg width="25" height="24" viewBox="0 0 25 24" fill="none" xmlns="http://www.w3.org/2000/svg">
<path d="M8.91992 5.75C8.50992 5.75 8.16992 5.41 8.16992 5V2C8.16992 1.59 8.50992 1.25 8.91992 1.25C9.32992 1.25 9.66992 1.59 9.66992 2V5C9.66992 5.41 9.32992 5.75 8.91992 5.75Z" fill="#292D32"/>
<path d="M16.4199 5.75C16.0099 5.75 15.6699 5.41 15.6699 5V2C15.6699 1.59 16.0099 1.25 16.4199 1.25C16.8299 1.25 17.1699 1.59 17.1699 2V5C17.1699 5.41 16.8299 5.75 16.4199 5.75Z" fill="#292D32"/>
<path d="M12.67 14.09C13.19 14.09 13.57 13.78 13.57 13.29C13.57 12.79 13.19 12.5 12.67 12.5C12.15 12.5 11.77 12.79 11.77 13.29C11.77 13.78 12.15 14.09 12.67 14.09Z" fill="#292D32"/>
<path d="M12.6698 16.9999C13.2994 16.9999 13.8098 16.5835 13.8098 16.0699C13.8098 15.5563 13.2994 15.1399 12.6698 15.1399C12.0402 15.1399 11.5298 15.5563 11.5298 16.0699C11.5298 16.5835 12.0402 16.9999 12.6698 16.9999Z" fill="#292D32"/>
<path d="M20.2399 4.5C19.5799 4.01 18.6299 4.48 18.6299 5.31V5.41C18.6299 6.58 17.7899 7.66 16.6199 7.78C15.2699 7.92 14.1299 6.86 14.1299 5.54V4.5C14.1299 3.95 13.6799 3.5 13.1299 3.5H12.2099C11.6599 3.5 11.2099 3.95 11.2099 4.5V5.54C11.2099 6.33 10.7999 7.03 10.1799 7.42C10.0899 7.48 9.98992 7.53 9.88992 7.58C9.79992 7.63 9.69992 7.67 9.58992 7.7C9.46992 7.74 9.33992 7.77 9.19992 7.78C9.03992 7.8 8.87992 7.8 8.71992 7.78C8.57992 7.77 8.44992 7.74 8.32992 7.7C8.22992 7.67 8.12992 7.63 8.02992 7.58C7.92992 7.53 7.82992 7.48 7.73992 7.42C7.10992 6.98 6.70992 6.22 6.70992 5.41V5.31C6.70992 4.54 5.88992 4.08 5.23992 4.41C5.22992 4.42 5.21992 4.42 5.20992 4.43C5.16992 4.45 5.13992 4.47 5.09992 4.5C5.06992 4.53 5.02992 4.55 4.99992 4.58C4.71992 4.8 4.46992 5.05 4.25992 5.32C4.14992 5.44 4.05992 5.57 3.97992 5.7C3.96992 5.71 3.95992 5.72 3.94992 5.74C3.85992 5.87 3.77992 6.02 3.70992 6.16C3.68992 6.18 3.67992 6.19 3.67992 6.21C3.61992 6.33 3.55992 6.45 3.51992 6.58C3.48992 6.63 3.47992 6.67 3.45992 6.72C3.39992 6.87 3.35992 7.02 3.31992 7.17C3.27992 7.31 3.24992 7.46 3.22992 7.61C3.20992 7.72 3.19992 7.83 3.18992 7.95C3.17992 8.09 3.16992 8.23 3.16992 8.37V17.13C3.16992 19.82 5.34992 22 8.03992 22H17.2999C19.9899 22 22.1699 19.82 22.1699 17.13V8.37C22.1699 6.78 21.4099 5.39 20.2399 4.5ZM12.6699 18.25C11.1199 18.25 10.1699 17.48 10.1699 16.24C10.1699 15.56 10.5199 14.97 11.1299 14.62C10.6899 14.31 10.3999 13.85 10.3999 13.22C10.3999 11.92 11.4399 11.25 12.6699 11.25C13.8999 11.25 14.9299 11.92 14.9299 13.22C14.9299 13.85 14.6499 14.31 14.1999 14.62C14.8199 14.97 15.1699 15.56 15.1699 16.24C15.1699 17.48 14.2099 18.25 12.6699 18.25Z" fill="#292D32"/>
</svg>
