<svg width="25" height="24" viewBox="0 0 25 24" fill="none" xmlns="http://www.w3.org/2000/svg">
<path d="M17.4202 3.56V2C17.4202 1.59 17.0802 1.25 16.6702 1.25C16.2602 1.25 15.9202 1.59 15.9202 2V3.5H9.42015V2C9.42015 1.59 9.08015 1.25 8.67015 1.25C8.26015 1.25 7.92015 1.59 7.92015 2V3.56C5.22015 3.81 3.91015 5.42 3.71015 7.81C3.69015 8.1 3.93015 8.34 4.21015 8.34H21.1301C21.4202 8.34 21.6602 8.09 21.6301 7.81C21.4301 5.42 20.1202 3.81 17.4202 3.56Z" fill="#292D32"/>
<path d="M20.6699 9.84009H4.66992C4.11992 9.84009 3.66992 10.2901 3.66992 10.8401V17.0001C3.66992 20.0001 5.16992 22.0001 8.66992 22.0001H16.6699C20.1699 22.0001 21.6699 20.0001 21.6699 17.0001V10.8401C21.6699 10.2901 21.2199 9.84009 20.6699 9.84009ZM16.3299 19.5301C16.1799 19.6801 15.9899 19.7501 15.7999 19.7501C15.6099 19.7501 15.4199 19.6801 15.2699 19.5301L14.5299 18.7901C13.9499 19.1701 13.2499 19.4001 12.4999 19.4001C10.4599 19.4001 8.79992 17.7401 8.79992 15.7001C8.79992 13.6601 10.4599 12.0001 12.4999 12.0001C14.5399 12.0001 16.1999 13.6601 16.1999 15.7001C16.1999 16.4501 15.9699 17.1501 15.5899 17.7301L16.3299 18.4701C16.6199 18.7601 16.6199 19.2401 16.3299 19.5301Z" fill="#292D32"/>
</svg>
