<svg width="25" height="24" viewBox="0 0 25 24" fill="none" xmlns="http://www.w3.org/2000/svg">
<path d="M22.4199 8.00008C22.4199 8.41008 22.0799 8.75008 21.6699 8.75008H3.66992C3.25992 8.75008 2.91992 8.41008 2.91992 8.00008C2.91992 7.59008 3.25992 7.25008 3.66992 7.25008H4.68992L5.06992 5.44008C5.42992 3.69008 6.17992 2.08008 9.15992 2.08008H16.1799C19.1599 2.08008 19.9099 3.69008 20.2699 5.44008L20.6499 7.25008H21.6699C22.0799 7.25008 22.4199 7.59008 22.4199 8.00008Z" fill="#292D32"/>
<path d="M22.8495 13.66C22.6995 12.01 22.2595 10.25 19.0495 10.25H6.28952C3.07952 10.25 2.64952 12.01 2.48952 13.66L1.92952 19.75C1.85952 20.51 2.10952 21.27 2.62952 21.84C3.15952 22.42 3.90952 22.75 4.70952 22.75H6.58952C8.20952 22.75 8.51952 21.82 8.71952 21.21L8.91952 20.61C9.14952 19.92 9.20952 19.75 10.1095 19.75H15.2295C16.1295 19.75 16.1595 19.85 16.4195 20.61L16.6195 21.21C16.8195 21.82 17.1295 22.75 18.7495 22.75H20.6295C21.4195 22.75 22.1795 22.42 22.7095 21.84C23.2295 21.27 23.4795 20.51 23.4095 19.75L22.8495 13.66ZM9.66952 15.75H6.66952C6.25952 15.75 5.91952 15.41 5.91952 15C5.91952 14.59 6.25952 14.25 6.66952 14.25H9.66952C10.0795 14.25 10.4195 14.59 10.4195 15C10.4195 15.41 10.0795 15.75 9.66952 15.75ZM18.6695 15.75H15.6695C15.2595 15.75 14.9195 15.41 14.9195 15C14.9195 14.59 15.2595 14.25 15.6695 14.25H18.6695C19.0795 14.25 19.4195 14.59 19.4195 15C19.4195 15.41 19.0795 15.75 18.6695 15.75Z" fill="#292D32"/>
</svg>
