<svg width="25" height="24" viewBox="0 0 25 24" fill="none" xmlns="http://www.w3.org/2000/svg">
<path d="M22.6719 21.25C22.6719 21.66 22.3319 22 21.9219 22H3.42188C3.01188 22 2.67188 21.66 2.67188 21.25C2.67188 20.84 3.01188 20.5 3.42188 20.5H21.9219C22.3319 20.5 22.6719 20.84 22.6719 21.25Z" fill="#292D32"/>
<path d="M16.0623 4.52001L5.3223 15.26C4.9123 15.67 4.2523 15.67 3.8523 15.26H3.8423C2.4523 13.86 2.4523 11.6 3.8423 10.21L10.9923 3.06001C12.3923 1.66001 14.6523 1.66001 16.0523 3.06001C16.4623 3.45001 16.4623 4.12001 16.0623 4.52001Z" fill="#292D32"/>
<path d="M21.4923 8.48995L18.4423 5.43995C18.0323 5.02995 17.3723 5.02995 16.9723 5.43995L6.2323 16.1799C5.8223 16.5799 5.8223 17.2399 6.2323 17.6499L9.2823 20.7099C10.6823 22.0999 12.9423 22.0999 14.3423 20.7099L21.4823 13.5599C22.9023 12.1599 22.9023 9.88995 21.4923 8.48995ZM13.4323 17.5199L12.2223 18.7399C11.9723 18.9899 11.5623 18.9899 11.3023 18.7399C11.0523 18.4899 11.0523 18.0799 11.3023 17.8199L12.5223 16.5999C12.7623 16.3599 13.1823 16.3599 13.4323 16.5999C13.6823 16.8499 13.6823 17.2799 13.4323 17.5199ZM17.4023 13.5499L14.9623 15.9999C14.7123 16.2399 14.3023 16.2399 14.0423 15.9999C13.7923 15.7499 13.7923 15.3399 14.0423 15.0799L16.4923 12.6299C16.7323 12.3899 17.1523 12.3899 17.4023 12.6299C17.6523 12.8899 17.6523 13.2999 17.4023 13.5499Z" fill="#292D32"/>
</svg>
