<svg width="25" height="24" viewBox="0 0 25 24" fill="none" xmlns="http://www.w3.org/2000/svg">
<path d="M19.3399 2H17.4399C15.2599 2 14.1099 3.15 14.1099 5.33V7.23C14.1099 9.41 15.2599 10.56 17.4399 10.56H19.3399C21.5199 10.56 22.6699 9.41 22.6699 7.23V5.33C22.6699 3.15 21.5199 2 19.3399 2Z" fill="#292D32"/>
<path d="M7.90992 13.4302H6.00992C3.81992 13.4302 2.66992 14.5802 2.66992 16.7602V18.6602C2.66992 20.8502 3.81992 22.0002 5.99992 22.0002H7.89992C10.0799 22.0002 11.2299 20.8502 11.2299 18.6702V16.7702C11.2399 14.5802 10.0899 13.4302 7.90992 13.4302Z" fill="#292D32"/>
<path d="M6.95992 10.58C9.32922 10.58 11.2499 8.6593 11.2499 6.29C11.2499 3.9207 9.32922 2 6.95992 2C4.59062 2 2.66992 3.9207 2.66992 6.29C2.66992 8.6593 4.59062 10.58 6.95992 10.58Z" fill="#292D32"/>
<path d="M18.3798 21.9999C20.7491 21.9999 22.6698 20.0792 22.6698 17.7099C22.6698 15.3406 20.7491 13.4199 18.3798 13.4199C16.0105 13.4199 14.0898 15.3406 14.0898 17.7099C14.0898 20.0792 16.0105 21.9999 18.3798 21.9999Z" fill="#292D32"/>
</svg>
