<svg width="25" height="24" viewBox="0 0 25 24" fill="none" xmlns="http://www.w3.org/2000/svg">
<path d="M14.5599 2.8799L9.86991 2.1399C5.95991 1.5299 4.14991 2.8499 3.52991 6.7599L2.78991 11.4499C2.38991 14.0099 2.80991 15.6699 4.25991 16.6799C5.01991 17.2199 6.05991 17.5799 7.40991 17.7899L12.0999 18.5299C16.0099 19.1399 17.8199 17.8199 18.4399 13.9099L19.1699 9.2199C19.2899 8.4499 19.3399 7.7599 19.2999 7.1499C19.1699 4.6499 17.6999 3.3699 14.5599 2.8799ZM8.90991 9.3499C7.73991 9.3499 6.78991 8.3999 6.78991 7.2399C6.78991 6.0699 7.73991 5.1199 8.90991 5.1199C10.0699 5.1199 11.0199 6.0699 11.0199 7.2399C11.0199 8.3999 10.0699 9.3499 8.90991 9.3499Z" fill="#292D32"/>
<path d="M21.1698 13.4701L19.6698 17.9801C18.4198 21.7401 16.4198 22.7401 12.6598 21.4901L8.14981 19.9901C6.73981 19.5201 5.71981 18.9401 5.05981 18.2101C5.68981 18.4601 6.41981 18.6501 7.24981 18.7801L11.9498 19.5201C12.5898 19.6201 13.1898 19.6701 13.7498 19.6701C17.0498 19.6701 18.8198 17.8901 19.4298 14.0601L20.1598 9.37006C20.2598 8.79006 20.2998 8.28006 20.2998 7.81006C21.8198 9.06006 22.0398 10.8401 21.1698 13.4701Z" fill="#292D32"/>
</svg>
