<svg width="25" height="24" viewBox="0 0 25 24" fill="none" xmlns="http://www.w3.org/2000/svg">
<path d="M15.0199 2H10.3199C9.27993 2 8.42993 2.84 8.42993 3.88V4.82C8.42993 5.86 9.26993 6.7 10.3099 6.7H15.0199C16.0599 6.7 16.8999 5.86 16.8999 4.82V3.88C16.9099 2.84 16.0599 2 15.0199 2Z" fill="#292D32"/>
<path d="M17.91 4.81998C17.91 6.40998 16.61 7.70998 15.02 7.70998H10.32C8.72996 7.70998 7.42996 6.40998 7.42996 4.81998C7.42996 4.25998 6.82996 3.90998 6.32996 4.16998C4.91996 4.91998 3.95996 6.40998 3.95996 8.11998V17.53C3.95996 19.99 5.96996 22 8.42996 22H16.91C19.37 22 21.38 19.99 21.38 17.53V8.11998C21.38 6.40998 20.42 4.91998 19.01 4.16998C18.51 3.90998 17.91 4.25998 17.91 4.81998ZM13.05 16.95H8.66996C8.25996 16.95 7.91996 16.61 7.91996 16.2C7.91996 15.79 8.25996 15.45 8.66996 15.45H13.05C13.46 15.45 13.8 15.79 13.8 16.2C13.8 16.61 13.46 16.95 13.05 16.95ZM15.67 12.95H8.66996C8.25996 12.95 7.91996 12.61 7.91996 12.2C7.91996 11.79 8.25996 11.45 8.66996 11.45H15.67C16.08 11.45 16.42 11.79 16.42 12.2C16.42 12.61 16.08 12.95 15.67 12.95Z" fill="#292D32"/>
</svg>
