<svg width="25" height="24" viewBox="0 0 25 24" fill="none" xmlns="http://www.w3.org/2000/svg">
<path d="M15.0199 2H10.3199C9.27993 2 8.42993 2.84 8.42993 3.88V4.82C8.42993 5.86 9.26993 6.7 10.3099 6.7H15.0199C16.0599 6.7 16.8999 5.86 16.8999 4.82V3.88C16.9099 2.84 16.0599 2 15.0199 2Z" fill="#292D32"/>
<path d="M17.91 4.81998C17.91 6.40998 16.61 7.70998 15.02 7.70998H10.32C8.72996 7.70998 7.42996 6.40998 7.42996 4.81998C7.42996 4.25998 6.82996 3.90998 6.32996 4.16998C4.91996 4.91998 3.95996 6.40998 3.95996 8.11998V17.53C3.95996 19.99 5.96996 22 8.42996 22H16.91C19.37 22 21.38 19.99 21.38 17.53V8.11998C21.38 6.40998 20.42 4.91998 19.01 4.16998C18.51 3.90998 17.91 4.25998 17.91 4.81998ZM16.2 17.53C16.05 17.68 15.86 17.75 15.67 17.75C15.48 17.75 15.29 17.68 15.14 17.53L10.42 12.81V14C10.42 14.41 10.08 14.75 9.66996 14.75C9.25996 14.75 8.91996 14.41 8.91996 14V11C8.91996 10.59 9.25996 10.25 9.66996 10.25H12.67C13.08 10.25 13.42 10.59 13.42 11C13.42 11.41 13.08 11.75 12.67 11.75H11.48L16.2 16.47C16.49 16.76 16.49 17.24 16.2 17.53Z" fill="#292D32"/>
</svg>
