<svg width="25" height="24" viewBox="0 0 25 24" fill="none" xmlns="http://www.w3.org/2000/svg">
<path d="M15.0199 2H10.3199C9.27993 2 8.42993 2.84 8.42993 3.88V4.82C8.42993 5.86 9.26993 6.7 10.3099 6.7H15.0199C16.0599 6.7 16.8999 5.86 16.8999 4.82V3.88C16.9099 2.84 16.0599 2 15.0199 2Z" fill="#292D32"/>
<path d="M17.91 4.81998C17.91 6.40998 16.61 7.70998 15.02 7.70998H10.32C8.72996 7.70998 7.42996 6.40998 7.42996 4.81998C7.42996 4.25998 6.82996 3.90998 6.32996 4.16998C4.91996 4.91998 3.95996 6.40998 3.95996 8.11998V17.53C3.95996 19.99 5.96996 22 8.42996 22H16.91C19.37 22 21.38 19.99 21.38 17.53V8.11998C21.38 6.40998 20.42 4.91998 19.01 4.16998C18.51 3.90998 17.91 4.25998 17.91 4.81998ZM16.42 17C16.42 17.41 16.08 17.75 15.67 17.75H12.67C12.26 17.75 11.92 17.41 11.92 17C11.92 16.59 12.26 16.25 12.67 16.25H13.86L9.13996 11.53C8.84996 11.24 8.84996 10.76 9.13996 10.47C9.42996 10.18 9.90996 10.18 10.2 10.47L14.92 15.19V14C14.92 13.59 15.26 13.25 15.67 13.25C16.08 13.25 16.42 13.59 16.42 14V17Z" fill="#292D32"/>
</svg>
