<svg width="25" height="24" viewBox="0 0 25 24" fill="none" xmlns="http://www.w3.org/2000/svg">
<path d="M15.0199 2H10.3199C9.27993 2 8.42993 2.84 8.42993 3.88V4.82C8.42993 5.86 9.26993 6.7 10.3099 6.7H15.0199C16.0599 6.7 16.8999 5.86 16.8999 4.82V3.88C16.9099 2.84 16.0599 2 15.0199 2Z" fill="#292D32"/>
<path d="M17.91 4.81998C17.91 6.40998 16.61 7.70998 15.02 7.70998H10.32C8.72996 7.70998 7.42996 6.40998 7.42996 4.81998C7.42996 4.25998 6.82996 3.90998 6.32996 4.16998C4.91996 4.91998 3.95996 6.40998 3.95996 8.11998V17.53C3.95996 19.99 5.96996 22 8.42996 22H16.91C19.37 22 21.38 19.99 21.38 17.53V8.11998C21.38 6.40998 20.42 4.91998 19.01 4.16998C18.51 3.90998 17.91 4.25998 17.91 4.81998ZM15.2 16.69C15.05 16.84 14.86 16.91 14.67 16.91C14.48 16.91 14.29 16.84 14.14 16.69L12.69 15.24L11.2 16.73C11.05 16.88 10.86 16.95 10.67 16.95C10.48 16.95 10.29 16.88 10.14 16.73C9.84996 16.44 9.84996 15.96 10.14 15.67L11.63 14.18L10.18 12.73C9.88996 12.44 9.88996 11.96 10.18 11.67C10.47 11.38 10.95 11.38 11.24 11.67L12.69 13.12L14.09 11.72C14.38 11.43 14.86 11.43 15.15 11.72C15.44 12.01 15.44 12.49 15.15 12.78L13.75 14.18L15.2 15.63C15.49 15.92 15.49 16.39 15.2 16.69Z" fill="#292D32"/>
</svg>
