<svg width="25" height="24" viewBox="0 0 25 24" fill="none" xmlns="http://www.w3.org/2000/svg">
<path d="M12.6699 2C7.15992 2 2.66992 6.49 2.66992 12C2.66992 17.51 7.15992 22 12.6699 22C18.1799 22 22.6699 17.51 22.6699 12C22.6699 6.49 18.1799 2 12.6699 2ZM17.0199 15.57C16.8799 15.81 16.6299 15.94 16.3699 15.94C16.2399 15.94 16.1099 15.91 15.9899 15.83L12.8899 13.98C12.1199 13.52 11.5499 12.51 11.5499 11.62V7.52C11.5499 7.11 11.8899 6.77 12.2999 6.77C12.7099 6.77 13.0499 7.11 13.0499 7.52V11.62C13.0499 11.98 13.3499 12.51 13.6599 12.69L16.7599 14.54C17.1199 14.75 17.2399 15.21 17.0199 15.57Z" fill="#292D32"/>
</svg>
