<svg width="25" height="24" viewBox="0 0 25 24" fill="none" xmlns="http://www.w3.org/2000/svg">
<path d="M21.9397 8.76001C21.9397 9.78001 21.4697 10.7 20.7097 11.3C20.1597 11.75 19.4497 12.02 18.6797 12.02C16.8897 12.02 15.4297 10.56 15.4297 8.77001C15.4297 7.88001 15.7897 7.07001 16.3897 6.48001V6.47001C16.9797 5.88001 17.7897 5.51001 18.6797 5.51001C20.4797 5.51001 21.9397 6.97001 21.9397 8.76001Z" fill="#292D32"/>
<path d="M20.8497 18.7301C19.7997 19.6901 18.4497 20.2201 17.0197 20.2201H6.63969C3.89969 20.0201 2.67969 17.9101 2.67969 16.0301C2.67969 14.3501 3.64969 12.4901 5.77969 11.9701C4.84969 8.39009 6.62969 5.89009 8.70969 4.70009C10.7697 3.53009 13.6697 3.34009 15.8497 4.95009C15.6597 5.09009 15.4897 5.24009 15.3197 5.41009L14.8897 5.86009V5.92009C14.2697 6.73009 13.9297 7.72009 13.9297 8.76009C13.9297 11.3801 16.0697 13.5101 18.6897 13.5101C19.7697 13.5101 20.8197 13.1401 21.6397 12.4701C21.7897 12.3501 21.9397 12.2201 22.0697 12.0801C23.0597 14.1601 22.9197 16.9201 20.8497 18.7301Z" fill="#292D32"/>
</svg>
