<svg width="25" height="24" viewBox="0 0 25 24" fill="none" xmlns="http://www.w3.org/2000/svg">
<path d="M20.8399 17.5699C20.3099 18.0599 19.6999 18.4299 19.0399 18.6799C18.3799 18.9299 17.6699 18.4499 17.6699 17.7399V16.4199C17.6699 14.4699 16.0899 12.8899 14.1399 12.8899H11.1999C9.24992 12.8899 7.66992 14.4699 7.66992 16.4199V17.9999C7.66992 18.5499 7.21992 18.9999 6.66992 18.9999H6.21992C3.76992 18.6299 2.66992 16.6399 2.66992 14.8599C2.66992 13.1799 3.64992 11.3199 5.77992 10.7999C5.18992 8.46994 5.68992 6.27994 7.20992 4.68994C8.93992 2.87994 11.6999 2.15994 14.0799 2.89994C16.2699 3.56994 17.8099 5.36994 18.3599 7.86994C20.2699 8.29994 21.7999 9.73994 22.4099 11.7399C23.0699 13.9099 22.4699 16.1399 20.8399 17.5699Z" fill="#292D32"/>
<path d="M14.1399 14.3899H11.1999C9.92992 14.3899 9.16992 15.1499 9.16992 16.4199V19.3599C9.16992 20.6299 9.92992 21.3899 11.1999 21.3899H14.1399C15.4099 21.3899 16.1699 20.6299 16.1699 19.3599V16.4199C16.1699 15.1499 15.4099 14.3899 14.1399 14.3899ZM14.3399 18.0499L12.6699 19.9499L12.4699 20.1799C12.1999 20.4899 11.9699 20.4099 11.9699 19.9899V18.2099H11.2099C10.8599 18.2099 10.7699 17.9999 10.9999 17.7399L12.6699 15.8399L12.8699 15.6099C13.1399 15.2999 13.3699 15.3799 13.3699 15.7999V17.5799H14.1299C14.4799 17.5699 14.5699 17.7899 14.3399 18.0499Z" fill="#292D32"/>
</svg>
