<svg width="25" height="24" viewBox="0 0 25 24" fill="none" xmlns="http://www.w3.org/2000/svg">
<path d="M22.4099 12.9101C22.1499 12.0501 21.7199 11.3001 21.1499 10.6901C20.4199 9.8601 19.4499 9.2901 18.3599 9.0401C17.8099 6.5401 16.2699 4.7401 14.0799 4.0701C11.6999 3.3301 8.93992 4.0501 7.20992 5.8601C5.68992 7.4501 5.18992 9.6401 5.77992 11.9701C3.77992 12.4601 2.78992 14.1301 2.67992 15.7201C2.66992 15.8301 2.66992 15.9301 2.66992 16.0301C2.66992 17.9101 3.89992 20.0201 6.63992 20.2201H17.0199C18.4399 20.2201 19.7999 19.6901 20.8399 18.7401C22.4699 17.3101 23.0699 15.0801 22.4099 12.9101Z" fill="#292D32"/>
</svg>
