<svg width="25" height="24" viewBox="0 0 25 24" fill="none" xmlns="http://www.w3.org/2000/svg">
<path d="M22.5917 16.75C22.2617 19.41 20.0817 21.59 17.4217 21.92C15.8117 22.12 14.3117 21.68 13.1417 20.82C12.4717 20.33 12.6317 19.29 13.4317 19.05C16.4417 18.14 18.8117 15.76 19.7317 12.75C19.9717 11.96 21.0117 11.8 21.5017 12.46C22.3517 13.64 22.7917 15.14 22.5917 16.75Z" fill="#292D32"/>
<path d="M10.6619 2C6.25187 2 2.67188 5.58 2.67188 9.99C2.67188 14.4 6.25187 17.98 10.6619 17.98C15.0719 17.98 18.6519 14.4 18.6519 9.99C18.6419 5.58 15.0719 2 10.6619 2ZM9.72188 8.87L12.1319 9.71C13.0019 10.02 13.4219 10.63 13.4219 11.57C13.4219 12.65 12.5619 13.54 11.5119 13.54H11.4219V13.59C11.4219 14 11.0819 14.34 10.6719 14.34C10.2619 14.34 9.92188 14 9.92188 13.59V13.53C8.81187 13.48 7.92188 12.55 7.92188 11.39C7.92188 10.98 8.26188 10.64 8.67188 10.64C9.08187 10.64 9.42188 10.98 9.42188 11.39C9.42188 11.75 9.68187 12.04 10.0019 12.04H11.5019C11.7319 12.04 11.9119 11.83 11.9119 11.57C11.9119 11.22 11.8519 11.2 11.6219 11.12L9.21187 10.28C8.35187 9.98 7.92188 9.37 7.92188 8.42C7.92188 7.34 8.78187 6.45 9.83187 6.45H9.92188V6.41C9.92188 6 10.2619 5.66 10.6719 5.66C11.0819 5.66 11.4219 6 11.4219 6.41V6.47C12.5319 6.52 13.4219 7.45 13.4219 8.61C13.4219 9.02 13.0819 9.36 12.6719 9.36C12.2619 9.36 11.9219 9.02 11.9219 8.61C11.9219 8.25 11.6619 7.96 11.3419 7.96H9.84188C9.61188 7.96 9.43188 8.17 9.43188 8.43C9.42188 8.77 9.48188 8.79 9.72188 8.87Z" fill="#292D32"/>
</svg>
