<svg width="25" height="24" viewBox="0 0 25 24" fill="none" xmlns="http://www.w3.org/2000/svg">
<path d="M14.6699 16C14.6699 17.77 13.8999 19.37 12.6699 20.46C11.6099 21.42 10.2099 22 8.66992 22C5.35992 22 2.66992 19.31 2.66992 16C2.66992 13.9753 3.68389 12.1814 5.22532 11.0974C5.4735 10.9228 5.80923 11.0422 5.94316 11.3145C6.88707 13.2332 8.62412 14.67 10.6899 15.23C11.3199 15.41 11.9799 15.5 12.6699 15.5C13.1572 15.5 13.6239 15.4538 14.0774 15.3688C14.3657 15.3147 14.6527 15.4995 14.6654 15.7926C14.6684 15.8621 14.6699 15.9314 14.6699 16Z" fill="#292D32"/>
<path d="M18.6699 8C18.6699 8.78 18.5199 9.53 18.2499 10.21C17.5599 11.95 16.0799 13.29 14.2499 13.79C13.7499 13.93 13.2199 14 12.6699 14C12.1199 14 11.5899 13.93 11.0899 13.79C9.25992 13.29 7.77992 11.95 7.08992 10.21C6.81992 9.53 6.66992 8.78 6.66992 8C6.66992 4.69 9.35992 2 12.6699 2C15.9799 2 18.6699 4.69 18.6699 8Z" fill="#292D32"/>
<path d="M22.6699 16C22.6699 19.31 19.9799 22 16.6699 22C15.9254 22 15.2092 21.8643 14.551 21.6141C14.2323 21.493 14.1729 21.0851 14.3948 20.8263C15.5367 19.4938 16.1699 17.786 16.1699 16C16.1699 15.66 16.1399 15.32 16.0899 15C16.0602 14.8156 16.1543 14.6342 16.3178 14.5438C17.6419 13.8107 18.7231 12.6876 19.3969 11.3153C19.5308 11.0428 19.8667 10.9231 20.1151 11.0978C21.6562 12.1819 22.6699 13.9756 22.6699 16Z" fill="#292D32"/>
</svg>
