<svg width="25" height="24" viewBox="0 0 25 24" fill="none" xmlns="http://www.w3.org/2000/svg">
<path d="M16.8599 2H8.47992C4.83992 2 2.66992 4.17 2.66992 7.81V16.18C2.66992 19.83 4.83992 22 8.47992 22H16.8499C20.4899 22 22.6599 19.83 22.6599 16.19V7.81C22.6699 4.17 20.4999 2 16.8599 2ZM10.2699 16.2C10.2699 17.19 9.45992 18 8.46992 18C7.47992 18 6.66992 17.19 6.66992 16.2C6.66992 15.21 7.47992 14.4 8.46992 14.4H9.26992C9.81992 14.4 10.2699 14.85 10.2699 15.4V16.2ZM10.2699 8.6C10.2699 9.15 9.81992 9.6 9.26992 9.6H8.46992C7.47992 9.6 6.66992 8.79 6.66992 7.8C6.66992 6.81 7.47992 6 8.46992 6C9.45992 6 10.2699 6.81 10.2699 7.8V8.6ZM14.8199 13.25C14.8199 13.74 14.4199 14.15 13.9199 14.15H11.4099C10.9199 14.15 10.5099 13.75 10.5099 13.25V10.74C10.5099 10.25 10.9099 9.84 11.4099 9.84H13.9199C14.4099 9.84 14.8199 10.24 14.8199 10.74V13.25ZM16.8699 18C15.8799 18 15.0699 17.19 15.0699 16.2V15.4C15.0699 14.85 15.5199 14.4 16.0699 14.4H16.8699C17.8599 14.4 18.6699 15.21 18.6699 16.2C18.6699 17.19 17.8599 18 16.8699 18ZM16.8699 9.6H16.0699C15.5199 9.6 15.0699 9.15 15.0699 8.6V7.8C15.0699 6.81 15.8799 6 16.8699 6C17.8599 6 18.6699 6.81 18.6699 7.8C18.6699 8.79 17.8599 9.6 16.8699 9.6Z" fill="#292D32"/>
</svg>
