<svg width="25" height="24" viewBox="0 0 25 24" fill="none" xmlns="http://www.w3.org/2000/svg">
<path d="M21.6198 4.13L4.7998 20.95C5.7498 21.64 6.9898 22 8.4798 22H16.8598C20.4998 22 22.6698 19.83 22.6698 16.19V7.81C22.6698 6.32 22.3098 5.08 21.6198 4.13ZM19.1698 16.25H17.4798V18C17.4798 18.41 17.1398 18.75 16.7298 18.75C16.3198 18.75 15.9798 18.41 15.9798 18V16.25H14.1698C13.7598 16.25 13.4198 15.91 13.4198 15.5C13.4198 15.09 13.7598 14.75 14.1698 14.75H15.9798V13C15.9798 12.59 16.3198 12.25 16.7298 12.25C17.1398 12.25 17.4798 12.59 17.4798 13V14.75H19.1698C19.5798 14.75 19.9198 15.09 19.9198 15.5C19.9198 15.91 19.5798 16.25 19.1698 16.25Z" fill="#292D32"/>
<path d="M16.8599 2H8.47992C4.83992 2 2.66992 4.17 2.66992 7.81V16.19C2.66992 17.68 3.02992 18.92 3.71992 19.87L20.5399 3.05C19.5899 2.36 18.3499 2 16.8599 2ZM11.1699 8.25H6.16992C5.75992 8.25 5.41992 7.91 5.41992 7.5C5.41992 7.09 5.75992 6.75 6.16992 6.75H11.1699C11.5799 6.75 11.9199 7.09 11.9199 7.5C11.9199 7.91 11.5799 8.25 11.1699 8.25Z" fill="#292D32"/>
</svg>
