<svg width="25" height="24" viewBox="0 0 25 24" fill="none" xmlns="http://www.w3.org/2000/svg">
<path d="M22.6719 15C22.6719 18.87 19.5419 22 15.6719 22L16.7219 20.25" stroke="#292D32" stroke-width="1.5" stroke-linecap="round" stroke-linejoin="round"/>
<path d="M2.67188 9C2.67188 5.13 5.80188 2 9.67188 2L8.62187 3.75" stroke="#292D32" stroke-width="1.5" stroke-linecap="round" stroke-linejoin="round"/>
<path d="M22.6719 4.2V4.31C22.6719 4.59 22.4519 4.81 22.1719 4.81H13.1719C12.8919 4.81 12.6719 4.59 12.6719 4.31V4.2C12.6719 2.44 13.1119 2 14.8919 2H20.4519C22.2319 2 22.6719 2.44 22.6719 4.2Z" fill="#292D32"/>
<path d="M13.1719 5.81006C12.8919 5.81006 12.6719 6.03006 12.6719 6.31006V7.31006V8.30006C12.6719 10.0601 13.1119 10.5001 14.8919 10.5001H20.4519C22.2319 10.5001 22.6719 10.0601 22.6719 8.30006V7.31006V6.31006C22.6719 6.03006 22.4519 5.81006 22.1719 5.81006H13.1719Z" fill="#292D32"/>
<path d="M12.6719 15.7V15.81C12.6719 16.09 12.4519 16.31 12.1719 16.31H3.17188C2.89187 16.31 2.67188 16.09 2.67188 15.81V15.7C2.67188 13.94 3.11187 13.5 4.89187 13.5H10.4519C12.2319 13.5 12.6719 13.94 12.6719 15.7Z" fill="#292D32"/>
<path d="M3.17188 17.3101C2.89187 17.3101 2.67188 17.5301 2.67188 17.8101V18.8101V19.8001C2.67188 21.5601 3.11187 22.0001 4.89187 22.0001H10.4519C12.2319 22.0001 12.6719 21.5601 12.6719 19.8001V18.8101V17.8101C12.6719 17.5301 12.4519 17.3101 12.1719 17.3101H3.17188Z" fill="#292D32"/>
</svg>
