<svg width="25" height="24" viewBox="0 0 25 24" fill="none" xmlns="http://www.w3.org/2000/svg">
<path d="M12.7012 2.03125C10.7512 2.03125 8.93117 2.59125 7.40117 3.55125L14.2612 10.4213L14.2712 7.68125C14.2712 7.27125 14.6112 6.93125 15.0212 6.93125C15.4412 6.93125 15.7712 7.27125 15.7712 7.68125L15.7612 12.2312C15.7612 12.5413 15.5712 12.8113 15.2912 12.9213C15.2012 12.9613 15.1012 12.9812 15.0112 12.9812C14.8112 12.9812 14.6212 12.9013 14.4812 12.7613L6.29117 4.56125C6.25117 4.52125 6.22117 4.48125 6.19117 4.44125C4.05117 6.28125 2.70117 9.00125 2.70117 12.0312C2.70117 17.5513 7.18117 22.0312 12.7012 22.0312C14.6512 22.0312 16.4712 21.4712 18.0012 20.5112L11.1412 13.6413L11.1312 16.3812C11.1312 16.7912 10.7912 17.1312 10.3812 17.1312C9.96117 17.1312 9.63117 16.7912 9.63117 16.3812L9.64117 11.8313C9.64117 11.5212 9.83117 11.2513 10.1112 11.1413C10.3812 11.0213 10.7112 11.0813 10.9212 11.3013L19.1112 19.5012C19.1512 19.5413 19.1812 19.5812 19.2112 19.6213C21.3512 17.7812 22.7012 15.0612 22.7012 12.0312C22.7012 6.51125 18.2212 2.03125 12.7012 2.03125Z" fill="#292D32"/>
</svg>
