<svg width="25" height="24" viewBox="0 0 25 24" fill="none" xmlns="http://www.w3.org/2000/svg">
<path d="M4.75992 8.08C4.70992 8.38 4.66992 8.68 4.66992 9C4.66992 8.69 4.70992 8.38 4.75992 8.08ZM4.66992 15C4.66992 15.32 4.70992 15.62 4.75992 15.92C4.70992 15.62 4.66992 15.31 4.66992 15ZM8.75992 19.91C9.04992 19.96 9.35992 20 9.66992 20C9.35992 20 9.05992 19.96 8.75992 19.91ZM8.75992 4.09C9.05992 4.04 9.35992 4 9.66992 4C9.35992 4 9.04992 4.04 8.75992 4.09ZM16.5899 4.09C16.2899 4.04 15.9899 4 15.6699 4C15.9799 4 16.2899 4.04 16.5899 4.09ZM20.5799 8.08C20.6299 8.38 20.6699 8.69 20.6699 9C20.6699 8.68 20.6299 8.38 20.5799 8.08Z" fill="#292D32"/>
<path d="M22.6699 8.3C22.6699 8.72 22.3399 9.05 21.9199 9.05H20.6699V10.8871C20.6699 11.2207 20.3079 11.4284 20.0199 11.26C19.5899 11.01 19.0899 10.93 18.6099 11.06C18.302 11.1339 17.9299 10.9349 17.9299 10.6183V9.74C17.9299 8.09 16.5799 6.74 14.9299 6.74H10.4099C8.75992 6.74 7.40992 8.09 7.40992 9.74V14.26C7.40992 15.91 8.75992 17.26 10.4099 17.26H10.8599C10.9759 17.26 11.0699 17.354 11.0699 17.47C11.0699 18.4335 11.7682 19.2436 12.6874 19.4298C12.8603 19.4648 12.9773 19.6716 12.9199 19.8383C12.8871 19.9337 12.8001 20 12.6993 20H9.72992V21.25C9.72992 21.66 9.38992 22 8.97992 22C8.55992 22 8.22992 21.66 8.22992 21.25V19.78C6.62992 19.29 5.37992 18.04 4.89992 16.45H3.41992C3.00992 16.45 2.66992 16.11 2.66992 15.7C2.66992 15.28 3.00992 14.95 3.41992 14.95H4.66992V12.75H3.41992C3.00992 12.75 2.66992 12.41 2.66992 12C2.66992 11.58 3.00992 11.25 3.41992 11.25H4.66992V9.05H3.41992C3.00992 9.05 2.66992 8.72 2.66992 8.3C2.66992 7.89 3.00992 7.55 3.41992 7.55H4.89992C5.37992 5.96 6.62992 4.71 8.22992 4.22V2.75C8.22992 2.34 8.55992 2 8.97992 2C9.38992 2 9.72992 2.34 9.72992 2.75V4H11.9199V2.75C11.9199 2.34 12.2599 2 12.6699 2C13.0799 2 13.4199 2.34 13.4199 2.75V4H15.6199V2.75C15.6199 2.34 15.9599 2 16.3699 2C16.7799 2 17.1199 2.34 17.1199 2.75V4.23C18.7099 4.71 19.9599 5.96 20.4399 7.55H21.9199C22.3399 7.55 22.6699 7.89 22.6699 8.3Z" fill="#292D32"/>
<path d="M21.6603 15.53C20.9803 15.53 20.5903 15.19 20.5903 14.69C20.5903 14.49 20.6503 14.26 20.7903 14.02C21.0703 13.54 20.9003 12.92 20.4203 12.65L19.5103 12.12C19.0903 11.87 18.5503 12.02 18.3003 12.44L18.2403 12.54C17.7603 13.37 16.9803 13.37 16.5003 12.54L16.4403 12.44C16.2003 12.02 15.6503 11.87 15.2403 12.12L14.3203 12.65C14.0003 12.83 13.8103 13.17 13.8103 13.52C13.8103 13.69 13.8603 13.86 13.9503 14.02C14.0903 14.26 14.1603 14.49 14.1603 14.69C14.1603 15.19 13.7603 15.53 13.0803 15.53C12.5303 15.53 12.0703 15.98 12.0703 16.53V17.47C12.0703 18.02 12.5303 18.47 13.0803 18.47C13.7603 18.47 14.1603 18.81 14.1603 19.31C14.1603 19.51 14.0903 19.74 13.9503 19.98C13.6703 20.46 13.8403 21.08 14.3203 21.35L15.2403 21.88C15.6503 22.13 16.2003 21.98 16.4403 21.56L16.5003 21.46C16.9803 20.63 17.7603 20.63 18.2403 21.46L18.3003 21.56C18.5503 21.98 19.0903 22.13 19.5103 21.88L20.4203 21.35C20.7403 21.17 20.9303 20.83 20.9303 20.48C20.9303 20.31 20.8803 20.14 20.7903 19.98C20.6503 19.74 20.5903 19.51 20.5903 19.31C20.5903 18.81 20.9803 18.47 21.6603 18.47C22.2203 18.47 22.6703 18.02 22.6703 17.47V16.53C22.6703 15.98 22.2203 15.53 21.6603 15.53ZM17.3703 18.72C16.4203 18.72 15.6503 17.95 15.6503 17C15.6503 16.05 16.4203 15.28 17.3703 15.28C18.3203 15.28 19.0903 16.05 19.0903 17C19.0903 17.95 18.3203 18.72 17.3703 18.72Z" fill="#292D32"/>
<path d="M16.9199 10.02V10.5925C16.9199 10.9266 16.4747 11.1384 16.1499 11.06C15.6499 10.93 15.1499 11 14.7399 11.25L13.8299 11.78C13.1999 12.13 12.8099 12.8 12.8099 13.52C12.8099 13.5796 12.8124 13.6396 12.8175 13.6996C12.8502 14.0858 12.5802 14.5545 12.2292 14.7191C11.7466 14.9454 11.3678 15.3577 11.1865 15.8624C11.1088 16.0785 10.9195 16.25 10.6899 16.25C9.42992 16.25 8.41992 15.24 8.41992 13.98V10.02C8.41992 8.76 9.42992 7.75 10.6899 7.75H14.6499C15.9099 7.75 16.9199 8.76 16.9199 10.02Z" fill="#292D32"/>
</svg>
