<svg width="25" height="24" viewBox="0 0 25 24" fill="none" xmlns="http://www.w3.org/2000/svg">
<path d="M12.6699 2C7.14992 2 2.66992 6.48 2.66992 12C2.66992 17.52 7.14992 22 12.6699 22C18.1899 22 22.6699 17.52 22.6699 12C22.6699 6.48 18.1899 2 12.6699 2ZM9.65992 14.12C10.1699 14.12 10.6699 13.93 11.0599 13.59C11.3699 13.32 11.8499 13.35 12.1199 13.66C12.3899 13.97 12.3599 14.45 12.0499 14.72C11.3899 15.3 10.5399 15.62 9.65992 15.62C7.65992 15.62 6.03992 14 6.03992 12C6.03992 10 7.65992 8.38 9.65992 8.38C10.5399 8.38 11.3799 8.7 12.0499 9.28C12.3599 9.55 12.3899 10.03 12.1199 10.34C11.8499 10.65 11.3699 10.68 11.0599 10.41C10.6699 10.07 10.1699 9.88 9.65992 9.88C8.48992 9.88 7.53992 10.83 7.53992 12C7.53992 13.17 8.48992 14.12 9.65992 14.12ZM16.6599 14.12C17.1699 14.12 17.6699 13.93 18.0599 13.59C18.3699 13.32 18.8499 13.35 19.1199 13.66C19.3899 13.97 19.3599 14.45 19.0499 14.72C18.3899 15.3 17.5399 15.62 16.6599 15.62C14.6599 15.62 13.0399 14 13.0399 12C13.0399 10 14.6599 8.38 16.6599 8.38C17.5399 8.38 18.3799 8.7 19.0499 9.28C19.3599 9.55 19.3899 10.03 19.1199 10.34C18.8499 10.65 18.3699 10.68 18.0599 10.41C17.6699 10.07 17.1799 9.88 16.6599 9.88C15.4899 9.88 14.5399 10.83 14.5399 12C14.5399 13.17 15.4899 14.12 16.6599 14.12Z" fill="#292D32"/>
</svg>
