<svg width="25" height="24" viewBox="0 0 25 24" fill="none" xmlns="http://www.w3.org/2000/svg">
<path d="M17.6699 22H7.66992C7.25992 22 6.91992 21.66 6.91992 21.25C6.91992 20.84 7.25992 20.5 7.66992 20.5H17.6699C18.0799 20.5 18.4199 20.84 18.4199 21.25C18.4199 21.66 18.0799 22 17.6699 22Z" fill="#292D32"/>
<path d="M21.0201 5.52001L17.0201 8.38001C16.4901 8.76001 15.7301 8.53001 15.5001 7.92001L13.6101 2.88001C13.2901 2.01001 12.0601 2.01001 11.7401 2.88001L9.84014 7.91001C9.61014 8.53001 8.86014 8.76001 8.33014 8.37001L4.33014 5.51001C3.53014 4.95001 2.47014 5.74001 2.80014 6.67001L6.96014 18.32C7.10014 18.72 7.48014 18.98 7.90014 18.98H17.4301C17.8501 18.98 18.2301 18.71 18.3701 18.32L22.5301 6.67001C22.8701 5.74001 21.8101 4.95001 21.0201 5.52001ZM15.1701 14.75H10.1701C9.76014 14.75 9.42014 14.41 9.42014 14C9.42014 13.59 9.76014 13.25 10.1701 13.25H15.1701C15.5801 13.25 15.9201 13.59 15.9201 14C15.9201 14.41 15.5801 14.75 15.1701 14.75Z" fill="#292D32"/>
</svg>
