<svg width="25" height="24" viewBox="0 0 25 24" fill="none" xmlns="http://www.w3.org/2000/svg">
<path d="M22.4304 15.92L16.0304 4.4C15.1704 2.85 13.9804 2 12.6704 2C11.3604 2 10.1704 2.85 9.31039 4.4L2.91039 15.92C2.10039 17.39 2.01039 18.8 2.66039 19.91C3.31039 21.02 4.59039 21.63 6.27039 21.63H19.0704C20.7504 21.63 22.0304 21.02 22.6804 19.91C23.3304 18.8 23.2404 17.38 22.4304 15.92ZM11.9204 9C11.9204 8.59 12.2604 8.25 12.6704 8.25C13.0804 8.25 13.4204 8.59 13.4204 9V14C13.4204 14.41 13.0804 14.75 12.6704 14.75C12.2604 14.75 11.9204 14.41 11.9204 14V9ZM13.3804 17.71C13.3304 17.75 13.2804 17.79 13.2304 17.83C13.1704 17.87 13.1104 17.9 13.0504 17.92C12.9904 17.95 12.9304 17.97 12.8604 17.98C12.8004 17.99 12.7304 18 12.6704 18C12.6104 18 12.5404 17.99 12.4704 17.98C12.4104 17.97 12.3504 17.95 12.2904 17.92C12.2304 17.9 12.1704 17.87 12.1104 17.83C12.0604 17.79 12.0104 17.75 11.9604 17.71C11.7804 17.52 11.6704 17.26 11.6704 17C11.6704 16.74 11.7804 16.48 11.9604 16.29C12.0104 16.25 12.0604 16.21 12.1104 16.17C12.1704 16.13 12.2304 16.1 12.2904 16.08C12.3504 16.05 12.4104 16.03 12.4704 16.02C12.6004 15.99 12.7404 15.99 12.8604 16.02C12.9304 16.03 12.9904 16.05 13.0504 16.08C13.1104 16.1 13.1704 16.13 13.2304 16.17C13.2804 16.21 13.3304 16.25 13.3804 16.29C13.5604 16.48 13.6704 16.74 13.6704 17C13.6704 17.26 13.5604 17.52 13.3804 17.71Z" fill="#292D32"/>
</svg>
