<svg width="25" height="24" viewBox="0 0 25 24" fill="none" xmlns="http://www.w3.org/2000/svg">
<path d="M6.31967 7.64999L3.51968 4.85001C3.20968 4.54001 3.42969 4 3.86969 4H7.45969C7.58969 4 7.71969 4.04999 7.80969 4.14999L12.8097 9.14999C13.1197 9.45999 12.8997 10 12.4597 10H9.16968C7.23968 10 5.66968 11.57 5.66968 13.5C5.66968 15.43 7.23968 17 9.16968 17H10.6697L12.8197 19.15C13.1297 19.46 12.9097 20 12.4697 20H9.17969C5.58969 20 2.67969 17.09 2.67969 13.5C2.67969 11.01 4.07969 8.84 6.14969 7.75L6.31967 7.64999Z" fill="black"/>
<path d="M19.02 16.35L21.8199 19.15C22.1299 19.46 21.9099 20 21.4699 20H17.8799C17.7499 20 17.6199 19.95 17.5299 19.85L12.5299 14.85C12.2199 14.54 12.4399 14 12.8799 14H16.1699C18.0999 14 19.6699 12.43 19.6699 10.5C19.6699 8.57 18.0999 7 16.1699 7H14.6699L12.52 4.85001C12.21 4.54001 12.43 4 12.87 4H16.1599C19.7499 4 22.6599 6.91 22.6599 10.5C22.6599 12.99 21.2599 15.16 19.1899 16.25L19.02 16.35Z" fill="black"/>
</svg>
