<svg width="25" height="24" viewBox="0 0 25 24" fill="none" xmlns="http://www.w3.org/2000/svg">
<path d="M12.6699 2C7.14992 2 2.66992 6.48 2.66992 12C2.66992 17.52 7.14992 22 12.6699 22C18.1899 22 22.6699 17.52 22.6699 12C22.6699 6.48 18.1899 2 12.6699 2ZM16.0499 12.43L17.5099 13.27C18.1399 13.63 18.3499 14.44 17.9899 15.07C17.6299 15.7 16.8199 15.91 16.1899 15.55L14.7299 14.71C14.3999 14.52 13.9799 14.76 13.9799 15.14V16.82C13.9799 17.54 13.3899 18.14 12.6599 18.14C11.9299 18.14 11.3399 17.55 11.3399 16.82V15.14C11.3399 14.76 10.9199 14.51 10.5899 14.71L9.12992 15.55C8.49992 15.91 7.68993 15.7 7.32993 15.07C6.96993 14.44 7.17992 13.63 7.80992 13.27L9.26992 12.43C9.59992 12.24 9.59992 11.76 9.26992 11.56L7.80992 10.72C7.17992 10.36 6.96993 9.55 7.32993 8.92C7.68993 8.29 8.49992 8.08 9.12992 8.44L10.5899 9.28C10.9199 9.47 11.3399 9.23001 11.3399 8.85001V7.17C11.3399 6.45 11.9299 5.85001 12.6599 5.85001C13.3899 5.85001 13.9799 6.44 13.9799 7.17V8.85001C13.9799 9.23001 14.3999 9.48 14.7299 9.28L16.1899 8.44C16.8199 8.08 17.6299 8.29 17.9899 8.92C18.3499 9.55 18.1399 10.36 17.5099 10.72L16.0499 11.56C15.7199 11.76 15.7199 12.24 16.0499 12.43Z" fill="black"/>
</svg>
