<svg width="25" height="24" viewBox="0 0 25 24" fill="none" xmlns="http://www.w3.org/2000/svg">
<path d="M21.71 13.2799L20.79 12.3799L13.04 20.1199L13.97 21.0499C14.75 21.8299 15.56 22.2199 16.36 22.2199C17.16 22.2199 17.97 21.8299 18.75 21.0499L21.71 18.0899C23.3 16.4899 23.3 14.8799 21.71 13.2799Z" fill="#292D32"/>
<path d="M11.3597 2.92994C9.78969 1.35994 8.13969 1.35994 6.56969 2.92994L3.59969 5.88994C2.03969 7.45994 2.03969 9.10994 3.59969 10.6799L4.51969 11.5999L12.2697 3.84994L11.3597 2.92994Z" fill="#292D32"/>
<path d="M22.4798 3.94009C21.1698 7.21009 18.1798 11.4801 15.3298 14.2701C14.9198 11.6901 12.8598 9.67009 10.2598 9.31009C13.0598 6.45009 17.3598 3.42009 20.6398 2.10009C21.2198 1.88009 21.7998 2.05009 22.1598 2.41009C22.5398 2.79009 22.7198 3.36009 22.4798 3.94009Z" fill="#292D32"/>
<path d="M14.45 15.09C14.25 15.26 14.05 15.43 13.85 15.59L12.06 17.02C12.06 16.99 12.05 16.95 12.05 16.91C11.91 15.84 11.41 14.85 10.6 14.04C9.78004 13.22 8.76004 12.72 7.64004 12.58C7.61004 12.58 7.57004 12.57 7.54004 12.57L8.99004 10.74C9.13004 10.56 9.28004 10.39 9.44004 10.21L10.12 10.3C12.27 10.6 14 12.29 14.34 14.43L14.45 15.09Z" fill="#292D32"/>
<path d="M11.0997 17.6201C11.0997 18.7201 10.6797 19.7701 9.87969 20.5601C9.26969 21.1801 8.44969 21.6001 7.44969 21.7201L4.99969 21.9901C3.65969 22.1401 2.50969 20.9901 2.65969 19.6401L2.92969 17.1801C3.16969 14.9901 4.99969 13.5901 6.93969 13.5501C7.12969 13.5401 7.33969 13.5501 7.53969 13.5701C8.38969 13.6801 9.20969 14.0701 9.89969 14.7501C10.5697 15.4201 10.9497 16.2101 11.0597 17.0401C11.0797 17.2401 11.0997 17.4301 11.0997 17.6201Z" fill="#292D32"/>
</svg>
