<svg width="25" height="24" viewBox="0 0 25 24" fill="none" xmlns="http://www.w3.org/2000/svg">
<path d="M20.6699 6V6.24H15.5399C12.5699 6.24 11.1899 7.62 11.1899 10.59V15.7H10.4199V19.25H11.1899V20.75H5.61992C5.20992 20.75 4.86992 20.41 4.86992 20C4.86992 19.59 5.20992 19.25 5.61992 19.25H8.91992V15.7H6.66992C3.53992 15.7 2.69992 14.93 2.66992 11.9V6C2.66992 2.8 3.46992 2 6.66992 2H16.6699C19.8699 2 20.6699 2.8 20.6699 6Z" fill="#292D32"/>
<path d="M20.6699 7.78999C20.4199 7.75999 20.1299 7.73999 19.8199 7.73999H15.5399C13.3999 7.73999 12.6899 8.44999 12.6899 10.59V19.25C12.6999 19.87 12.7699 20.36 12.9199 20.75C13.2699 21.66 14.0599 22 15.5399 22H19.8199C21.9599 22 22.6699 21.29 22.6699 19.15V10.59C22.6699 8.75999 22.1499 7.97999 20.6699 7.78999ZM17.6799 10.09C18.5499 10.09 19.2499 10.79 19.2499 11.66C19.2499 12.53 18.5499 13.23 17.6799 13.23C16.8099 13.23 16.1099 12.53 16.1099 11.66C16.1099 10.79 16.8099 10.09 17.6799 10.09ZM17.6799 19.15C16.4999 19.15 15.5399 18.19 15.5399 17.01C15.5399 16.52 15.7099 16.06 15.9899 15.7C16.3799 15.2 16.9899 14.87 17.6799 14.87C18.2199 14.87 18.7099 15.07 19.0799 15.39C19.5299 15.79 19.8199 16.37 19.8199 17.01C19.8199 18.19 18.8599 19.15 17.6799 19.15Z" fill="#292D32"/>
<path d="M20.6699 7.78999C20.4199 7.75999 20.1299 7.73999 19.8199 7.73999H15.5399C13.3999 7.73999 12.6899 8.44999 12.6899 10.59V19.25C12.6999 19.87 12.7699 20.36 12.9199 20.75C13.2699 21.66 14.0599 22 15.5399 22H19.8199C21.9599 22 22.6699 21.29 22.6699 19.15V10.59C22.6699 8.75999 22.1499 7.97999 20.6699 7.78999ZM17.6799 10.09C18.5499 10.09 19.2499 10.79 19.2499 11.66C19.2499 12.53 18.5499 13.23 17.6799 13.23C16.8099 13.23 16.1099 12.53 16.1099 11.66C16.1099 10.79 16.8099 10.09 17.6799 10.09ZM17.6799 19.15C16.4999 19.15 15.5399 18.19 15.5399 17.01C15.5399 16.52 15.7099 16.06 15.9899 15.7C16.3799 15.2 16.9899 14.87 17.6799 14.87C18.2199 14.87 18.7099 15.07 19.0799 15.39C19.5299 15.79 19.8199 16.37 19.8199 17.01C19.8199 18.19 18.8599 19.15 17.6799 19.15Z" fill="#292D32"/>
</svg>
