<svg width="25" height="24" viewBox="0 0 25 24" fill="none" xmlns="http://www.w3.org/2000/svg">
<g clip-path="url(#clip0_12_64940)">
<path d="M3.38 17.0202L5.12 13.5402C5.6 12.5702 5.6 11.4402 5.12 10.4702L3.38 6.98022C1.89 4.00022 5.1 0.850218 8.05 2.41022L9.59 3.23022C9.81 3.34022 9.98 3.52022 10.07 3.74022L15.76 16.3902C15.99 16.9102 15.78 17.5202 15.28 17.7802L8.04 21.5902C5.1 23.1502 1.89 20.0002 3.38 17.0202Z" fill="#292D32"/>
<path d="M16.9801 15.6L13.2502 7.31996C12.8302 6.38996 13.8302 5.44996 14.7302 5.92996L20.5002 8.96996C22.9502 10.26 22.9502 13.76 20.5002 15.05L18.4602 16.12C17.9102 16.4 17.2401 16.17 16.9801 15.6Z" fill="#292D32"/>
</g>
<defs>
<clipPath id="clip0_12_64940">
<rect width="24" height="24" fill="white" transform="translate(0.669922)"/>
</clipPath>
</defs>
</svg>
