<svg width="25" height="24" viewBox="0 0 25 24" fill="none" xmlns="http://www.w3.org/2000/svg">
<path d="M21.9699 12.23H18.4899C17.5099 12.23 16.6399 12.77 16.1999 13.65L15.3599 15.31C15.1599 15.71 14.7599 15.96 14.3199 15.96H11.0399C10.7299 15.96 10.2899 15.89 9.99992 15.31L9.15992 13.66C8.71992 12.79 7.83992 12.24 6.86992 12.24H3.36992C2.97992 12.24 2.66992 12.55 2.66992 12.94V16.2C2.66992 19.83 4.84992 22 8.48992 22H16.8699C20.2999 22 22.4099 20.12 22.6699 16.78V12.93C22.6699 12.55 22.3599 12.23 21.9699 12.23Z" fill="#292D32"/>
<path d="M16.8599 2H8.47992C4.83992 2 2.66992 4.17 2.66992 7.81V10.85C2.88992 10.77 3.12992 10.73 3.36992 10.73H6.86992C8.41992 10.73 9.80992 11.59 10.4999 12.98L11.2499 14.45H14.1099L14.8599 12.97C15.5499 11.59 16.9399 10.73 18.4899 10.73H21.9699C22.2099 10.73 22.4499 10.77 22.6699 10.85V7.81C22.6699 4.17 20.4999 2 16.8599 2ZM11.1199 5.41H14.2199C14.5999 5.41 14.9199 5.72 14.9199 6.1C14.9199 6.49 14.5999 6.8 14.2199 6.8H11.1199C10.7399 6.8 10.4199 6.49 10.4199 6.1C10.4199 5.72 10.7399 5.41 11.1199 5.41ZM14.9999 9.59H10.3399C9.95992 9.59 9.64992 9.28 9.64992 8.9C9.64992 8.51 9.95992 8.2 10.3399 8.2H14.9999C15.3799 8.2 15.6899 8.51 15.6899 8.9C15.6899 9.28 15.3799 9.59 14.9999 9.59Z" fill="#292D32"/>
</svg>
