<svg width="25" height="24" viewBox="0 0 25 24" fill="none" xmlns="http://www.w3.org/2000/svg">
<path d="M21.9699 12.23H18.4899C17.5099 12.23 16.6399 12.77 16.1999 13.65L15.3599 15.31C15.1599 15.71 14.7599 15.96 14.3199 15.96H11.0399C10.7299 15.96 10.2899 15.89 9.99992 15.31L9.15992 13.66C8.71992 12.79 7.83992 12.24 6.86992 12.24H3.36992C2.97992 12.24 2.66992 12.55 2.66992 12.94V16.2C2.66992 19.83 4.84992 22 8.48992 22H16.8699C20.2999 22 22.4099 20.12 22.6699 16.78V12.93C22.6699 12.55 22.3599 12.23 21.9699 12.23Z" fill="#292D32"/>
<path d="M13.4199 2C13.4199 1.59 13.0799 1.25 12.6699 1.25C12.2599 1.25 11.9199 1.59 11.9199 2V4H13.4199V2Z" fill="#292D32"/>
<path d="M22.6699 9.81V10.85C22.4499 10.77 22.2099 10.73 21.9699 10.73H18.4899C16.9399 10.73 15.5499 11.59 14.8599 12.97L14.1099 14.45H11.2499L10.4999 12.98C9.80992 11.59 8.41992 10.73 6.86992 10.73H3.36992C3.12992 10.73 2.88992 10.77 2.66992 10.85V9.81C2.66992 6.17 4.83992 4 8.47992 4H11.9199V7.19L11.1999 6.47C10.9099 6.18 10.4299 6.18 10.1399 6.47C9.84992 6.76 9.84992 7.24 10.1399 7.53L12.1399 9.53C12.1499 9.54 12.1599 9.54 12.1599 9.55C12.2299 9.61 12.2999 9.66 12.3799 9.69C12.4799 9.73 12.5699 9.75 12.6699 9.75C12.7699 9.75 12.8599 9.73 12.9499 9.69C13.0399 9.66 13.1299 9.6 13.1999 9.53L15.1999 7.53C15.4899 7.24 15.4899 6.76 15.1999 6.47C14.9099 6.18 14.4299 6.18 14.1399 6.47L13.4199 7.19V4H16.8599C20.4999 4 22.6699 6.17 22.6699 9.81Z" fill="#292D32"/>
</svg>
