<svg width="25" height="24" viewBox="0 0 25 24" fill="none" xmlns="http://www.w3.org/2000/svg">
<g clip-path="url(#clip0_12_64934)">
<path d="M21.9596 17.0198L20.2196 13.5398C19.7396 12.5698 19.7396 11.4398 20.2196 10.4698L21.9596 6.98983C23.4496 3.99983 20.2396 0.859829 17.2896 2.41983L15.7496 3.23983C15.5396 3.34983 15.3696 3.52983 15.2696 3.74983L9.56961 16.3898C9.33961 16.9098 9.54961 17.5198 10.0496 17.7798L17.2896 21.5898C20.2396 23.1498 23.4496 19.9998 21.9596 17.0198Z" fill="#292D32"/>
<path d="M8.35945 15.6L12.0895 7.31996C12.5095 6.38996 11.5095 5.44996 10.6095 5.92996L4.83945 8.95996C2.38945 10.25 2.38945 13.75 4.83945 15.04L6.87945 16.11C7.42945 16.4 8.09945 16.17 8.35945 15.6Z" fill="#292D32"/>
</g>
<defs>
<clipPath id="clip0_12_64934">
<rect width="24" height="24" fill="white" transform="translate(0.669922)"/>
</clipPath>
</defs>
</svg>
