<svg width="25" height="24" viewBox="0 0 25 24" fill="none" xmlns="http://www.w3.org/2000/svg">
<path d="M22.2018 10.87L20.6818 9.35001C20.4218 9.09 20.2118 8.58001 20.2118 8.22001V6.06C20.2118 5.18 19.4918 4.46 18.6118 4.46H16.4618C16.1018 4.46 15.5918 4.25 15.3318 3.99L13.8118 2.47C13.1918 1.85 12.1718 1.85 11.5518 2.47L10.0118 3.99C9.76176 4.25 9.25176 4.46 8.88176 4.46H6.73176C5.85176 4.46 5.13176 5.18 5.13176 6.06V8.21C5.13176 8.57 4.92176 9.08 4.66176 9.34L3.14176 10.86C2.52176 11.48 2.52176 12.5 3.14176 13.12L4.66176 14.64C4.92176 14.9 5.13176 15.41 5.13176 15.77V17.92C5.13176 18.8 5.85176 19.52 6.73176 19.52H8.88176C9.24176 19.52 9.75176 19.73 10.0118 19.99L11.5318 21.51C12.1518 22.13 13.1718 22.13 13.7918 21.51L15.3118 19.99C15.5718 19.73 16.0818 19.52 16.4418 19.52H18.5918C19.4718 19.52 20.1918 18.8 20.1918 17.92V15.77C20.1918 15.41 20.4018 14.9 20.6618 14.64L22.1818 13.12C22.8318 12.51 22.8318 11.49 22.2018 10.87ZM8.67176 9C8.67176 8.45 9.12176 8 9.67176 8C10.2218 8 10.6718 8.45 10.6718 9C10.6718 9.55 10.2318 10 9.67176 10C9.12176 10 8.67176 9.55 8.67176 9ZM10.2018 15.53C10.0518 15.68 9.86176 15.75 9.67176 15.75C9.48176 15.75 9.29176 15.68 9.14176 15.53C8.85176 15.24 8.85176 14.76 9.14176 14.47L15.1418 8.47001C15.4318 8.18001 15.9118 8.18001 16.2018 8.47001C16.4918 8.76 16.4918 9.24 16.2018 9.53L10.2018 15.53ZM15.6718 16C15.1118 16 14.6618 15.55 14.6618 15C14.6618 14.45 15.1118 14 15.6618 14C16.2118 14 16.6618 14.45 16.6618 15C16.6618 15.55 16.2218 16 15.6718 16Z" fill="#292D32"/>
</svg>
