<svg width="25" height="24" viewBox="0 0 25 24" fill="none" xmlns="http://www.w3.org/2000/svg">
<path d="M16.2799 5.50002V15.66C16.2799 16.06 16.1599 16.45 15.9399 16.78L13.2099 20.84C12.7799 21.49 11.7099 21.95 10.7999 21.61C9.81994 21.28 9.16994 20.18 9.37994 19.2L9.89994 15.93C9.93994 15.63 9.85994 15.36 9.68994 15.15C9.51994 14.96 9.26994 14.84 8.99994 14.84H4.88994C4.09994 14.84 3.41994 14.52 3.01994 13.96C2.63994 13.42 2.56994 12.72 2.81994 12.01L5.27994 4.52002C5.58994 3.28002 6.93994 2.27002 8.27994 2.27002H12.1799C12.8499 2.27002 13.7899 2.50002 14.2199 2.93002L15.4999 3.92002C15.9899 4.30002 16.2799 4.88002 16.2799 5.50002Z" fill="#292D32"/>
<path d="M19.4603 17.6099H20.4903C22.0403 17.6099 22.6703 17.0099 22.6703 15.5299V5.4799C22.6703 3.9999 22.0403 3.3999 20.4903 3.3999H19.4603C17.9103 3.3999 17.2803 3.9999 17.2803 5.4799V15.5399C17.2803 17.0099 17.9103 17.6099 19.4603 17.6099Z" fill="#292D32"/>
</svg>
