<svg width="25" height="24" viewBox="0 0 25 24" fill="none" xmlns="http://www.w3.org/2000/svg">
<path d="M21.38 8.11998V17.53C21.38 19.99 19.37 22 16.91 22H8.42996C5.96996 22 3.95996 19.99 3.95996 17.53V8.11998C3.95996 6.40998 4.91996 4.91998 6.32996 4.16998C6.81996 3.90998 7.42996 4.25998 7.42996 4.81998C7.42996 6.40998 8.72996 7.70998 10.32 7.70998H15.02C16.61 7.70998 17.91 6.40998 17.91 4.81998C17.91 4.25998 18.51 3.90998 19.01 4.16998C20.42 4.91998 21.38 6.40998 21.38 8.11998Z" fill="#292D32"/>
<path d="M15.0199 2H10.3199C9.27993 2 8.42993 2.84 8.42993 3.88V4.82C8.42993 5.86 9.26993 6.7 10.3099 6.7H15.0199C16.0599 6.7 16.8999 5.86 16.8999 4.82V3.88C16.9099 2.84 16.0599 2 15.0199 2Z" fill="#292D32"/>
</svg>
