<svg width="25" height="24" viewBox="0 0 25 24" fill="none" xmlns="http://www.w3.org/2000/svg">
<path d="M16.4699 2.20999C16.0599 1.79999 15.3499 2.07999 15.3499 2.64999V6.13999C15.3499 7.59999 16.5899 8.80999 18.0999 8.80999C19.0499 8.81999 20.3699 8.81999 21.4999 8.81999C22.0699 8.81999 22.3699 8.14999 21.9699 7.74999C20.5299 6.29999 17.9499 3.68999 16.4699 2.20999Z" fill="#292D32"/>
<path d="M15.43 19.2599C13.08 19.4299 13.08 22.8299 15.43 22.9999H20.99C21.66 22.9999 22.32 22.7499 22.81 22.2999C24.46 20.8599 23.58 17.9799 21.41 17.7099C20.63 13.0199 13.85 14.7999 15.45 19.2699" fill="#292D32"/>
<path d="M22.1699 11.19V14.44C22.1699 14.74 21.7299 14.88 21.5099 14.67C21.0299 14.2 20.4399 13.84 19.7599 13.63C18.0799 13.11 16.1299 13.62 14.9199 14.9C14.1099 15.74 13.6999 16.81 13.7099 17.97C13.7099 18.16 13.6199 18.33 13.4699 18.44C12.6699 19.05 12.1699 20.01 12.1699 21.12C12.1699 21.2 12.1699 21.28 12.1799 21.36C12.1999 21.68 11.9699 21.99 11.6399 21.99H8.73992C5.65992 21.99 3.16992 19.99 3.16992 16.42V7.57C3.16992 4 5.65992 2 8.73992 2H12.9799C13.5299 2 13.9799 2.45 13.9799 3V5.89C13.9799 8.27 15.8999 10.19 18.2799 10.19H21.1699C21.7199 10.19 22.1699 10.64 22.1699 11.19Z" fill="#292D32"/>
</svg>
