<svg width="25" height="24" viewBox="0 0 25 24" fill="none" xmlns="http://www.w3.org/2000/svg">
<path d="M16.6699 2H8.66992C5.16992 2 3.66992 4 3.66992 7V17C3.66992 20 5.16992 22 8.66992 22H16.6699C20.1699 22 21.6699 20 21.6699 17V7C21.6699 4 20.1699 2 16.6699 2ZM11.1999 16.47C11.4899 16.76 11.4899 17.24 11.1999 17.53C11.0499 17.68 10.8599 17.75 10.6699 17.75C10.4799 17.75 10.2899 17.68 10.1399 17.53L8.13992 15.53C7.84992 15.24 7.84992 14.76 8.13992 14.47L10.1399 12.47C10.4299 12.18 10.9099 12.18 11.1999 12.47C11.4899 12.76 11.4899 13.24 11.1999 13.53L9.72992 15L11.1999 16.47ZM17.1999 15.53L15.1999 17.53C15.0499 17.68 14.8599 17.75 14.6699 17.75C14.4799 17.75 14.2899 17.68 14.1399 17.53C13.8499 17.24 13.8499 16.76 14.1399 16.47L15.6099 15L14.1399 13.53C13.8499 13.24 13.8499 12.76 14.1399 12.47C14.4299 12.18 14.9099 12.18 15.1999 12.47L17.1999 14.47C17.4899 14.76 17.4899 15.24 17.1999 15.53ZM19.1699 9.25H17.1699C15.6499 9.25 14.4199 8.02 14.4199 6.5V4.5C14.4199 4.09 14.7599 3.75 15.1699 3.75C15.5799 3.75 15.9199 4.09 15.9199 4.5V6.5C15.9199 7.19 16.4799 7.75 17.1699 7.75H19.1699C19.5799 7.75 19.9199 8.09 19.9199 8.5C19.9199 8.91 19.5799 9.25 19.1699 9.25Z" fill="#292D32"/>
</svg>
