<svg width="25" height="24" viewBox="0 0 25 24" fill="none" xmlns="http://www.w3.org/2000/svg">
<path d="M16.4701 2.20999C16.0601 1.79999 15.3501 2.07999 15.3501 2.64999V6.13999C15.3501 7.59999 16.5901 8.80999 18.1001 8.80999C19.0501 8.81999 20.3701 8.81999 21.5001 8.81999C22.0701 8.81999 22.3701 8.14999 21.9701 7.74999C20.5301 6.29999 17.9501 3.68999 16.4701 2.20999Z" fill="#292D32"/>
<path d="M21.1699 10.19H18.2799C15.9099 10.19 13.9799 8.26 13.9799 5.89V3C13.9799 2.45 13.5299 2 12.9799 2H8.73992C5.65992 2 3.16992 4 3.16992 7.57V16.43C3.16992 20 5.65992 22 8.73992 22H16.5999C19.6799 22 22.1699 20 22.1699 16.43V11.19C22.1699 10.64 21.7199 10.19 21.1699 10.19ZM13.6699 15.75H9.47992L10.1999 16.47C10.4899 16.76 10.4899 17.24 10.1999 17.53C10.0499 17.68 9.85992 17.75 9.66992 17.75C9.47992 17.75 9.28992 17.68 9.13992 17.53L7.13992 15.53C7.06992 15.46 7.02992 15.39 6.98992 15.31C6.97992 15.29 6.96992 15.26 6.95992 15.24C6.93992 15.18 6.92992 15.12 6.91992 15.06C6.91992 15.03 6.91992 15.01 6.91992 14.98C6.91992 14.9 6.93992 14.82 6.96992 14.74C6.96992 14.73 6.96992 14.73 6.97992 14.72C7.00992 14.64 7.06992 14.56 7.12992 14.5C7.13992 14.49 7.13992 14.48 7.14992 14.48L9.14992 12.48C9.43992 12.19 9.91992 12.19 10.2099 12.48C10.4999 12.77 10.4999 13.25 10.2099 13.54L9.48992 14.26H13.6699C14.0799 14.26 14.4199 14.6 14.4199 15.01C14.4199 15.42 14.0799 15.75 13.6699 15.75Z" fill="#292D32"/>
</svg>
