<svg width="25" height="24" viewBox="0 0 25 24" fill="none" xmlns="http://www.w3.org/2000/svg">
<path d="M11.9218 8.07996V10.94L10.9118 10.59C10.4018 10.41 10.0918 10.24 10.0918 9.36996C10.0918 8.65996 10.6218 8.07996 11.2718 8.07996H11.9218Z" fill="#292D32"/>
<path d="M15.2519 14.6301C15.2519 15.3401 14.7219 15.9201 14.0719 15.9201H13.4219V13.0601L14.4319 13.4101C14.9419 13.5901 15.2519 13.7601 15.2519 14.6301Z" fill="#292D32"/>
<path d="M16.8619 2H8.48187C4.84187 2 2.67188 4.17 2.67188 7.81V16.19C2.67188 19.83 4.84187 22 8.48187 22H16.8619C20.5019 22 22.6719 19.83 22.6719 16.19V7.81C22.6719 4.17 20.5019 2 16.8619 2ZM14.9319 12C15.7119 12.27 16.7519 12.84 16.7519 14.63C16.7519 16.17 15.5519 17.42 14.0719 17.42H13.4219V18C13.4219 18.41 13.0819 18.75 12.6719 18.75C12.2619 18.75 11.9219 18.41 11.9219 18V17.42H11.5619C9.92188 17.42 8.59188 16.03 8.59188 14.33C8.59188 13.92 8.92188 13.58 9.34188 13.58C9.75187 13.58 10.0919 13.92 10.0919 14.33C10.0919 15.21 10.7519 15.92 11.5619 15.92H11.9219V12.53L10.4119 12C9.63188 11.73 8.59188 11.16 8.59188 9.37C8.59188 7.83 9.79188 6.58 11.2719 6.58H11.9219V6C11.9219 5.59 12.2619 5.25 12.6719 5.25C13.0819 5.25 13.4219 5.59 13.4219 6V6.58H13.7819C15.4219 6.58 16.7519 7.97 16.7519 9.67C16.7519 10.08 16.4219 10.42 16.0019 10.42C15.5919 10.42 15.2519 10.08 15.2519 9.67C15.2519 8.79 14.5919 8.08 13.7819 8.08H13.4219V11.47L14.9319 12Z" fill="#292D32"/>
</svg>
