<svg width="25" height="24" viewBox="0 0 25 24" fill="none" xmlns="http://www.w3.org/2000/svg">
<path fill-rule="evenodd" clip-rule="evenodd" d="M16.5499 20.92C16.5799 21.08 16.4899 21.25 16.3399 21.31C15.2099 21.76 13.9699 22 12.6899 22C10.4799 22 8.43989 21.29 6.78989 20.07C6.64989 19.97 6.60992 19.77 6.69992 19.62C7.24992 18.64 9.39987 15.49 14.1499 13.73C14.3299 13.66 14.5299 13.75 14.5899 13.93C15.7799 17.12 16.3399 19.82 16.5499 20.92Z" fill="black"/>
<path fill-rule="evenodd" clip-rule="evenodd" d="M22.4901 13.89C22.0301 16.35 20.6501 18.49 18.7201 19.95C18.5101 20.11 18.2101 19.99 18.1601 19.74C17.9501 18.66 17.44 16.33 16.46 13.56C16.39 13.35 16.5301 13.12 16.7501 13.09C19.2401 12.79 21.4201 13.27 22.2401 13.49C22.4101 13.55 22.5201 13.72 22.4901 13.89Z" fill="black"/>
<path fill-rule="evenodd" clip-rule="evenodd" d="M22.2602 11.82C21.2402 11.64 18.6401 11.26 15.9801 11.55C15.8201 11.57 15.6801 11.48 15.6101 11.33C15.5701 11.24 15.5402 11.15 15.5002 11.06C15.3402 10.69 15.1702 10.31 15.0002 9.93999C14.9102 9.75999 15.0001 9.53998 15.1801 9.45998C17.9801 8.24998 19.5401 6.68998 20.1501 5.98998C20.3001 5.81998 20.5602 5.83 20.7002 6.01C21.8502 7.54 22.5601 9.40998 22.6701 11.43C22.6801 11.68 22.4802 11.86 22.2602 11.82Z" fill="black"/>
<path fill-rule="evenodd" clip-rule="evenodd" d="M19.1099 4.79001C18.5899 5.42001 17.1299 6.91999 14.3599 8.01999C14.1999 8.08999 14.0099 8.01999 13.9199 7.85999C12.6399 5.53999 11.2799 3.58999 10.6499 2.70999C10.4999 2.49999 10.6199 2.2 10.8699 2.16C11.4499 2.06 12.0599 2.01001 12.6799 2.01001C15.0999 2.01001 17.3299 2.87 19.0599 4.31C19.2099 4.42 19.2299 4.64001 19.1099 4.79001Z" fill="black"/>
<path fill-rule="evenodd" clip-rule="evenodd" d="M11.6897 8.84C7.8997 9.79 4.54965 9.92001 3.32965 9.94001C3.09965 9.94001 2.92969 9.72001 2.98969 9.50001C3.70969 6.70001 5.62967 4.36001 8.15967 3.07001C8.30967 2.99001 8.49967 3.04 8.59967 3.18C9.11967 3.9 10.5297 5.93001 11.9097 8.32001C12.0197 8.52001 11.9197 8.78 11.6897 8.84Z" fill="black"/>
<path fill-rule="evenodd" clip-rule="evenodd" d="M13.5897 11.6C13.6797 11.79 13.5697 12.02 13.3697 12.09C8.93969 13.52 6.28969 17.07 5.48969 18.29C5.35968 18.49 5.07969 18.5 4.92969 18.32C3.52969 16.6 2.67969 14.63 2.67969 12.24V12.06C2.67969 11.86 2.83967 11.7 3.03967 11.71C4.29967 11.76 8.40969 11.59 12.6797 10.36C12.8397 10.31 13.0197 10.39 13.0897 10.54C13.2597 10.89 13.4297 11.24 13.5897 11.6Z" fill="black"/>
</svg>
