<svg width="25" height="24" viewBox="0 0 25 24" fill="none" xmlns="http://www.w3.org/2000/svg">
<path d="M12.6698 5.99999L7.10977 9.99999L3.85977 7.79998C3.27977 7.40998 3.26979 6.57 3.83979 6.16L7.66977 3.39999C8.00977 3.15999 8.46979 3.15 8.80979 3.38L12.6698 5.99999Z" fill="black"/>
<path d="M21.4799 7.8L18.2299 10L12.6699 6.00001L16.5299 3.39002C16.8799 3.16002 17.3299 3.16001 17.6699 3.41001L21.4999 6.17002C22.0699 6.57002 22.0599 7.41 21.4799 7.8Z" fill="black"/>
<path d="M12.6698 14L8.22984 17L5.66984 15.16L3.82985 13.84C3.26985 13.43 3.27983 12.59 3.84983 12.2L7.09983 10L12.6698 14Z" fill="black"/>
<path d="M21.4802 12.2C22.0602 12.59 22.0702 13.43 21.5002 13.84L19.6602 15.16L17.1002 17L12.6602 14L18.2202 10L21.4802 12.2Z" fill="black"/>
<path d="M19.3499 17.34C19.4799 17.24 19.6699 17.34 19.6699 17.5V18.23C19.6699 18.62 19.4399 18.97 19.0899 19.14L13.0899 21.91C12.8199 22.03 12.5199 22.03 12.2499 21.91L6.24991 19.14C5.89991 18.97 5.66992 18.62 5.66992 18.23V17.5C5.66992 17.34 5.84993 17.24 5.98993 17.34L7.91992 18.73C8.08992 18.85 8.31993 18.86 8.48993 18.74L12.3899 16.1C12.5599 15.99 12.7799 15.99 12.9499 16.1L16.8499 18.74C17.0199 18.86 17.2499 18.85 17.4199 18.73L19.3499 17.34Z" fill="black"/>
</svg>
