<svg width="25" height="24" viewBox="0 0 25 24" fill="none" xmlns="http://www.w3.org/2000/svg">
<path d="M16.8599 2H8.47992C4.83992 2 2.66992 4.17 2.66992 7.81V16.18C2.66992 19.83 4.83992 22 8.47992 22H16.8499C20.4899 22 22.6599 19.83 22.6599 16.19V7.81C22.6699 4.17 20.4999 2 16.8599 2ZM11.6199 17.51C11.3299 17.8 10.7799 18.08 10.3799 18.14L7.91992 18.49C7.82992 18.5 7.73992 18.51 7.64992 18.51C7.23992 18.51 6.85992 18.37 6.58992 18.1C6.25992 17.77 6.11992 17.29 6.19992 16.76L6.54992 14.3C6.60992 13.89 6.87992 13.35 7.17992 13.06L11.6399 8.6C11.7199 8.81 11.7999 9.02 11.9099 9.26C12.0099 9.47 12.1199 9.69 12.2399 9.89C12.3399 10.06 12.4499 10.22 12.5399 10.34C12.6499 10.51 12.7799 10.67 12.8599 10.76C12.9099 10.83 12.9499 10.88 12.9699 10.9C13.2199 11.2 13.5099 11.48 13.7599 11.69C13.8299 11.76 13.8699 11.8 13.8899 11.81C14.0399 11.93 14.1899 12.05 14.3199 12.14C14.4799 12.26 14.6399 12.37 14.8099 12.46C15.0099 12.58 15.2299 12.69 15.4499 12.8C15.6799 12.9 15.8899 12.99 16.0999 13.06L11.6199 17.51ZM18.0399 11.09L17.1199 12.02C17.0599 12.08 16.9799 12.11 16.8999 12.11C16.8699 12.11 16.8299 12.11 16.8099 12.1C14.7799 11.52 13.1599 9.9 12.5799 7.87C12.5499 7.76 12.5799 7.64 12.6599 7.57L13.5899 6.64C15.1099 5.12 16.5599 5.15 18.0499 6.64C18.8099 7.4 19.1799 8.13 19.1799 8.89C19.1699 9.61 18.7999 10.33 18.0399 11.09Z" fill="#292D32"/>
</svg>
