<svg width="25" height="24" viewBox="0 0 25 24" fill="none" xmlns="http://www.w3.org/2000/svg">
<path d="M8.59998 5.48L11.73 8.61C12.25 9.13 13.1 9.13 13.62 8.61L16.75 5.48C17.59 4.64 17 3.19 15.8 3.19H9.53998C8.34998 3.19 7.74998 4.64 8.59998 5.48Z" fill="black"/>
<path d="M8.59998 18.52L11.73 15.39C12.25 14.87 13.1 14.87 13.62 15.39L16.75 18.52C17.59 19.36 17 20.81 15.8 20.81H9.53998C8.34998 20.81 7.74998 19.36 8.59998 18.52Z" fill="black"/>
<path d="M2.82986 11.43L5.1199 7.83001C5.4799 7.26001 6.27992 7.17 6.75992 7.65L10.3599 11.25C10.7699 11.66 10.7699 12.33 10.3599 12.74L6.75992 16.34C6.27992 16.82 5.4899 16.73 5.1199 16.16L2.82986 12.56C2.61986 12.22 2.61986 11.78 2.82986 11.43Z" fill="black"/>
<path d="M22.5099 11.43L20.2199 7.83001C19.8599 7.26001 19.0598 7.17 18.5798 7.65L14.9799 11.25C14.5699 11.66 14.5699 12.33 14.9799 12.74L18.5798 16.34C19.0598 16.82 19.8499 16.73 20.2199 16.16L22.5099 12.56C22.7199 12.22 22.7199 11.78 22.5099 11.43Z" fill="black"/>
</svg>
