<svg width="25" height="24" viewBox="0 0 25 24" fill="none" xmlns="http://www.w3.org/2000/svg">
<path d="M16.2599 5H15.9199V2C15.9199 1.59 15.5799 1.25 15.1699 1.25C14.7599 1.25 14.4199 1.59 14.4199 2V5H10.9199V2C10.9199 1.59 10.5799 1.25 10.1699 1.25C9.75992 1.25 9.41992 1.59 9.41992 2V5H9.07992C8.02992 5 7.16992 5.86 7.16992 6.91V12C7.16992 14.2 8.66992 16 11.1699 16H11.9199V22C11.9199 22.41 12.2599 22.75 12.6699 22.75C13.0799 22.75 13.4199 22.41 13.4199 22V16H14.1699C16.6699 16 18.1699 14.2 18.1699 12V6.91C18.1699 5.86 17.3099 5 16.2599 5Z" fill="#292D32"/>
</svg>
