<svg width="25" height="24" viewBox="0 0 25 24" fill="none" xmlns="http://www.w3.org/2000/svg">
<path d="M16.8599 2H8.47992C4.83992 2 2.66992 4.17 2.66992 7.81V16.18C2.66992 19.83 4.83992 22 8.47992 22H16.8499C20.4899 22 22.6599 19.83 22.6599 16.19V7.81C22.6699 4.17 20.4999 2 16.8599 2ZM7.13992 9.28C6.84992 8.99 6.84992 8.51 7.13992 8.22C8.42992 6.93 10.5399 6.93 11.8399 8.22C12.1299 8.51 12.1299 8.99 11.8399 9.28C11.6899 9.43 11.4999 9.5 11.3099 9.5C11.1199 9.5 10.9299 9.43 10.7799 9.28C10.0699 8.57 8.90992 8.57 8.19992 9.28C7.90992 9.58 7.42992 9.58 7.13992 9.28ZM16.2699 18.08H9.06992C8.36992 18.08 7.79992 17.51 7.79992 16.8C7.79992 14.11 9.98992 11.92 12.6799 11.92C15.3699 11.92 17.5599 14.11 17.5599 16.8C17.5499 17.5 16.9699 18.08 16.2699 18.08ZM18.1999 9.28C17.9099 9.57 17.4299 9.57 17.1399 9.28C16.4299 8.57 15.2699 8.57 14.5599 9.28C14.4099 9.43 14.2199 9.5 14.0299 9.5C13.8399 9.5 13.6499 9.43 13.4999 9.28C13.2099 8.99 13.2099 8.51 13.4999 8.22C14.7899 6.93 16.8999 6.93 18.1999 8.22C18.4899 8.52 18.4899 8.99 18.1999 9.28Z" fill="#292D32"/>
</svg>
