<svg width="25" height="24" viewBox="0 0 25 24" fill="none" xmlns="http://www.w3.org/2000/svg">
<path d="M15.5199 3.95005V7.75005H14.0199V3.95005C14.0199 3.68005 13.7799 3.55005 13.6199 3.55005C13.5699 3.55005 13.5199 3.56005 13.4699 3.58005L5.53992 6.57005C5.00992 6.77005 4.66992 7.27005 4.66992 7.84005V8.51005C3.75992 9.19005 3.16992 10.28 3.16992 11.51V7.84005C3.16992 6.65005 3.89992 5.59005 5.00992 5.17005L12.9499 2.17005C13.1699 2.09005 13.3999 2.05005 13.6199 2.05005C14.6199 2.05005 15.5199 2.86005 15.5199 3.95005Z" fill="#292D32"/>
<path d="M22.1696 14.5V15.5C22.1696 15.77 21.9596 15.99 21.6796 16H20.2196C19.6896 16 19.2096 15.61 19.1696 15.09C19.1396 14.78 19.2596 14.49 19.4596 14.29C19.6396 14.1 19.8896 14 20.1596 14H21.6696C21.9596 14.01 22.1696 14.23 22.1696 14.5Z" fill="#292D32"/>
<path d="M5.66992 15C4.72992 15 3.85992 15.33 3.16992 15.88C2.24992 16.61 1.66992 17.74 1.66992 19C1.66992 19.75 1.87992 20.46 2.24992 21.06C2.93992 22.22 4.20992 23 5.66992 23C6.67992 23 7.59992 22.63 8.29992 22C8.60992 21.74 8.87992 21.42 9.08992 21.06C9.45992 20.46 9.66992 19.75 9.66992 19C9.66992 16.79 7.87992 15 5.66992 15ZM4.08992 18.46C3.79992 18.17 3.79992 17.69 4.08992 17.4C4.38992 17.11 4.85992 17.11 5.15992 17.4L5.67992 17.93L6.17992 17.42C6.47992 17.13 6.94992 17.13 7.24992 17.42C7.53992 17.72 7.53992 18.19 7.24992 18.49L6.73992 18.99L7.26992 19.51C7.55992 19.81 7.55992 20.28 7.26992 20.58C7.11992 20.72 6.92992 20.79 6.73992 20.79C6.54992 20.79 6.35992 20.72 6.20992 20.58L5.67992 20.05L5.12992 20.6C4.97992 20.75 4.78992 20.82 4.59992 20.82C4.40992 20.82 4.21992 20.75 4.06992 20.6C3.77992 20.31 3.77992 19.83 4.06992 19.54L4.61992 18.99L4.08992 18.46Z" fill="#292D32"/>
<path d="M20.1499 12.95H21.1699C21.7199 12.95 22.1699 12.5 22.1699 11.95V11.51C22.1699 9.44 20.4799 7.75 18.4099 7.75H6.92992C6.07992 7.75 5.29992 8.03 4.66992 8.51C3.75992 9.19 3.16992 10.28 3.16992 11.51V13.29C3.16992 13.67 3.56992 13.91 3.92992 13.79C4.48992 13.6 5.07992 13.5 5.66992 13.5C8.69992 13.5 11.1699 15.97 11.1699 19C11.1699 19.72 10.9799 20.51 10.6799 21.21C10.5199 21.57 10.7699 22 11.1599 22H18.4099C20.4799 22 22.1699 20.31 22.1699 18.24V18.05C22.1699 17.5 21.7199 17.05 21.1699 17.05H20.2999C19.3399 17.05 18.4199 16.46 18.1699 15.53C17.9699 14.77 18.2099 14.03 18.7099 13.55C19.0799 13.17 19.5899 12.95 20.1499 12.95ZM14.6699 12.75H9.66992C9.25992 12.75 8.91992 12.41 8.91992 12C8.91992 11.59 9.25992 11.25 9.66992 11.25H14.6699C15.0799 11.25 15.4199 11.59 15.4199 12C15.4199 12.41 15.0799 12.75 14.6699 12.75Z" fill="#292D32"/>
</svg>
