<svg width="25" height="24" viewBox="0 0 25 24" fill="none" xmlns="http://www.w3.org/2000/svg">
<path d="M5.67871 15C4.73871 15 3.86871 15.33 3.17871 15.88C2.25871 16.61 1.67871 17.74 1.67871 19C1.67871 21.21 3.46871 23 5.67871 23C6.68871 23 7.60871 22.62 8.31871 22C9.14871 21.27 9.67871 20.2 9.67871 19C9.67871 16.79 7.88871 15 5.67871 15ZM6.67871 19.25C6.67871 19.51 6.53871 19.76 6.31871 19.89L5.06871 20.64C4.94871 20.72 4.80871 20.75 4.67871 20.75C4.42871 20.75 4.17871 20.62 4.03871 20.39C3.82871 20.03 3.93871 19.57 4.29871 19.36L5.18871 18.83V17.75C5.17871 17.34 5.51871 17 5.92871 17C6.33871 17 6.67871 17.34 6.67871 17.75V19.25Z" fill="#292D32"/>
<path d="M15.5287 3.95005V7.75005H14.0287V3.95005C14.0287 3.68005 13.7887 3.55005 13.6287 3.55005C13.5787 3.55005 13.5287 3.56005 13.4787 3.58005L5.54871 6.57005C5.01871 6.77005 4.67871 7.27005 4.67871 7.84005V8.51005C3.76871 9.19005 3.17871 10.28 3.17871 11.51V7.84005C3.17871 6.65005 3.90871 5.59005 5.01871 5.17005L12.9587 2.17005C13.1787 2.09005 13.4087 2.05005 13.6287 2.05005C14.6287 2.05005 15.5287 2.86005 15.5287 3.95005Z" fill="#292D32"/>
<path d="M22.1784 14.5V15.5C22.1784 15.77 21.9684 15.99 21.6884 16H20.2284C19.6984 16 19.2184 15.61 19.1784 15.09C19.1484 14.78 19.2684 14.49 19.4684 14.29C19.6484 14.1 19.8984 14 20.1684 14H21.6784C21.9684 14.01 22.1784 14.23 22.1784 14.5Z" fill="#292D32"/>
<path d="M20.1587 12.95H21.1787C21.7287 12.95 22.1787 12.5 22.1787 11.95V11.51C22.1787 9.44 20.4887 7.75 18.4187 7.75H6.93871C6.08871 7.75 5.30871 8.03 4.67871 8.51C3.76871 9.19 3.17871 10.28 3.17871 11.51V13.29C3.17871 13.67 3.57871 13.91 3.93871 13.79C4.49871 13.6 5.08871 13.5 5.67871 13.5C8.70871 13.5 11.1787 15.97 11.1787 19C11.1787 19.72 10.9887 20.51 10.6887 21.21C10.5287 21.57 10.7787 22 11.1687 22H18.4187C20.4887 22 22.1787 20.31 22.1787 18.24V18.05C22.1787 17.5 21.7287 17.05 21.1787 17.05H20.3087C19.3487 17.05 18.4287 16.46 18.1787 15.53C17.9787 14.77 18.2187 14.03 18.7187 13.55C19.0887 13.17 19.5987 12.95 20.1587 12.95ZM14.6787 12.75H9.67871C9.26871 12.75 8.92871 12.41 8.92871 12C8.92871 11.59 9.26871 11.25 9.67871 11.25H14.6787C15.0887 11.25 15.4287 11.59 15.4287 12C15.4287 12.41 15.0887 12.75 14.6787 12.75Z" fill="#292D32"/>
</svg>
