<svg width="25" height="24" viewBox="0 0 25 24" fill="none" xmlns="http://www.w3.org/2000/svg">
<path d="M16.8619 2H8.48187C4.84187 2 2.67188 4.17 2.67188 7.81V16.18C2.67188 19.83 4.84187 22 8.48187 22H16.8519C20.4919 22 22.6619 19.83 22.6619 16.19V7.81C22.6719 4.17 20.5019 2 16.8619 2ZM13.1919 15.75L11.9319 17.01C11.2919 17.66 10.2419 17.66 9.59188 17.01L7.66187 15.08C7.01187 14.43 7.02187 13.39 7.66187 12.74L8.93188 11.48C9.13188 11.29 9.44188 11.29 9.64188 11.48L13.2019 15.04C13.3919 15.24 13.3919 15.56 13.1919 15.75ZM17.6819 11.26L14.6019 14.34C14.4019 14.54 14.0919 14.54 13.8919 14.34L10.3319 10.78C10.1319 10.58 10.1319 10.27 10.3319 10.07L13.4119 6.99C14.0519 6.34 15.1019 6.34 15.7519 6.99L17.6819 8.92C18.3319 9.57 18.3319 10.62 17.6819 11.26Z" fill="#292D32"/>
</svg>
