<svg width="25" height="24" viewBox="0 0 25 24" fill="none" xmlns="http://www.w3.org/2000/svg">
<path d="M21.3896 18.24L20.4496 17.3C20.9396 16.56 21.2296 15.67 21.2296 14.71C21.2296 12.11 19.1196 10 16.5196 10C13.9196 10 11.8096 12.11 11.8096 14.71C11.8096 17.31 13.9196 19.42 16.5196 19.42C17.4796 19.42 18.3596 19.13 19.1096 18.64L20.0496 19.58C20.2396 19.77 20.4796 19.86 20.7296 19.86C20.9796 19.86 21.2196 19.77 21.4096 19.58C21.7596 19.22 21.7596 18.62 21.3896 18.24Z" fill="#292D32"/>
<path d="M20.2498 4.02V6.24C20.2498 7.05 19.7498 8.06 19.2498 8.57L19.0698 8.73C18.9298 8.86 18.7198 8.89 18.5398 8.83C18.3398 8.76 18.1398 8.71 17.9398 8.66C17.4998 8.55 17.0298 8.5 16.5498 8.5C13.0998 8.5 10.2998 11.3 10.2998 14.75C10.2998 15.89 10.6098 17.01 11.1998 17.97C11.6998 18.81 12.3998 19.51 13.1598 19.98C13.3898 20.13 13.4798 20.45 13.2798 20.63C13.2098 20.69 13.1398 20.74 13.0698 20.79L11.6698 21.7C10.3698 22.51 8.57984 21.6 8.57984 19.98V14.63C8.57984 13.92 8.17984 13.01 7.77984 12.51L3.98984 8.47C3.48984 7.96 3.08984 7.05 3.08984 6.45V4.12C3.08984 2.91 3.98984 2 5.07984 2H18.2598C19.3498 2 20.2498 2.91 20.2498 4.02Z" fill="#292D32"/>
</svg>
