<svg width="25" height="24" viewBox="0 0 25 24" fill="none" xmlns="http://www.w3.org/2000/svg">
<path d="M17.5498 10C14.9298 10 12.7998 12.13 12.7998 14.75C12.7998 15.64 13.0498 16.48 13.4898 17.2C14.3098 18.58 15.8198 19.5 17.5498 19.5C19.2798 19.5 20.7898 18.57 21.6098 17.2C22.0498 16.49 22.2998 15.64 22.2998 14.75C22.2998 12.13 20.1798 10 17.5498 10ZM19.3298 15.48H18.2998V16.55C18.2998 16.96 17.9598 17.3 17.5498 17.3C17.1398 17.3 16.7998 16.96 16.7998 16.55V15.48H15.7798C15.3698 15.48 15.0298 15.14 15.0298 14.73C15.0298 14.32 15.3698 13.98 15.7798 13.98H16.7998V13C16.7998 12.59 17.1398 12.25 17.5498 12.25C17.9598 12.25 18.2998 12.59 18.2998 13V13.98H19.3298C19.7398 13.98 20.0798 14.32 20.0798 14.73C20.0798 15.14 19.7398 15.48 19.3298 15.48Z" fill="#292D32"/>
<path d="M21.2498 4.02V6.24C21.2498 7.05 20.7498 8.06 20.2498 8.57L20.0698 8.73C19.9298 8.86 19.7198 8.89 19.5398 8.83C19.3398 8.76 19.1398 8.71 18.9398 8.66C18.4998 8.55 18.0298 8.5 17.5498 8.5C14.0998 8.5 11.2998 11.3 11.2998 14.75C11.2998 15.89 11.6098 17.01 12.1998 17.97C12.6998 18.81 13.3998 19.51 14.1598 19.98C14.3898 20.13 14.4798 20.45 14.2798 20.63C14.2098 20.69 14.1398 20.74 14.0698 20.79L12.6698 21.7C11.3698 22.51 9.57984 21.6 9.57984 19.98V14.63C9.57984 13.92 9.17984 13.01 8.77984 12.51L4.98984 8.47C4.48984 7.96 4.08984 7.05 4.08984 6.45V4.12C4.08984 2.91 4.98984 2 6.07984 2H19.2598C20.3498 2 21.2498 2.91 21.2498 4.02Z" fill="#292D32"/>
</svg>
