<svg width="25" height="24" viewBox="0 0 25 24" fill="none" xmlns="http://www.w3.org/2000/svg">
<path d="M21.2698 4.1V6.3C21.2698 7.1 20.7698 8.1 20.2698 8.6L15.9698 12.4C15.3698 12.9 14.9698 13.9 14.9698 14.7V19C14.9698 19.6 14.5698 20.4 14.0698 20.7L12.6698 21.6C11.3698 22.4 9.56981 21.5 9.56981 19.9V14.6C9.56981 13.9 9.16981 13 8.76981 12.5L8.29981 12.01C7.98981 11.68 7.92981 11.18 8.17981 10.79L13.2998 2.57C13.4798 2.28 13.7998 2.1 14.1498 2.1H19.2698C20.3698 2.1 21.2698 3 21.2698 4.1Z" fill="#292D32"/>
<path d="M11.0203 3.63L7.47031 9.32C7.13031 9.87 6.35031 9.95 5.90031 9.48L4.97031 8.5C4.47031 8 4.07031 7.1 4.07031 6.5V4.2C4.07031 3 4.97031 2.1 6.07031 2.1H10.1703C10.9503 2.1 11.4303 2.96 11.0203 3.63Z" fill="#292D32"/>
</svg>
