<svg width="25" height="24" viewBox="0 0 25 24" fill="none" xmlns="http://www.w3.org/2000/svg">
<path d="M12.6699 7.9502C10.8799 7.9502 9.41992 9.4102 9.41992 11.2002V12.8002C9.41992 14.5902 10.8799 16.0502 12.6699 16.0502C14.4599 16.0502 15.9199 14.5902 15.9199 12.8002V11.2002C15.9199 9.4102 14.4599 7.9502 12.6699 7.9502ZM13.5699 13.2402C13.5699 13.7402 13.1699 14.1402 12.6699 14.1402C12.1699 14.1402 11.7699 13.7402 11.7699 13.2402V10.7702C11.7699 10.2802 12.1699 9.8702 12.6699 9.8702C13.1699 9.8702 13.5699 10.2702 13.5699 10.7702V13.2402Z" fill="#292D32"/>
<path d="M12.6699 2C7.14992 2 2.66992 6.48 2.66992 12C2.66992 17.52 7.14992 22 12.6699 22C18.1899 22 22.6699 17.52 22.6699 12C22.6699 6.48 18.1899 2 12.6699 2ZM17.4199 12.8C17.4199 15.42 15.2899 17.55 12.6699 17.55C10.0499 17.55 7.91992 15.42 7.91992 12.8V11.2C7.91992 8.58 10.0499 6.45 12.6699 6.45C15.2899 6.45 17.4199 8.58 17.4199 11.2V12.8Z" fill="#292D32"/>
</svg>
