<svg width="25" height="24" viewBox="0 0 25 24" fill="none" xmlns="http://www.w3.org/2000/svg">
<path d="M18.6903 12.33L17.4703 11.11C17.1803 10.86 17.0103 10.49 17.0003 10.08C16.9803 9.63 17.1603 9.18 17.4903 8.85L18.6903 7.65C19.7303 6.61 20.1203 5.61 19.7903 4.82C19.4703 4.04 18.4803 3.61 17.0203 3.61H6.57031V2.75C6.57031 2.34 6.23031 2 5.82031 2C5.41031 2 5.07031 2.34 5.07031 2.75V21.25C5.07031 21.66 5.41031 22 5.82031 22C6.23031 22 6.57031 21.66 6.57031 21.25V16.37H17.0203C18.4603 16.37 19.4303 15.93 19.7603 15.14C20.0903 14.35 19.7103 13.36 18.6903 12.33Z" fill="#292D32"/>
</svg>
