<svg width="25" height="24" viewBox="0 0 25 24" fill="none" xmlns="http://www.w3.org/2000/svg">
<path d="M21.6868 7.99175C22.0847 8.55833 21.6104 9.25 20.9181 9.25H3.66992C3.11764 9.25 2.66992 8.80228 2.66992 8.25V6.42C2.66992 3.98 4.64992 2 7.08992 2H9.40992C11.0399 2 11.5499 2.53 12.1999 3.4L13.5999 5.26C13.9099 5.67 13.9499 5.72 14.5299 5.72H17.3199C19.1245 5.72 20.7216 6.61709 21.6868 7.99175Z" fill="#292D32"/>
<path d="M21.6533 10.7498C22.2043 10.7498 22.6514 11.1954 22.6533 11.7464L22.6699 16.65C22.6699 19.6 20.2699 22 17.3199 22H8.01992C5.06992 22 2.66992 19.6 2.66992 16.65V11.75C2.66992 11.1977 3.11763 10.75 3.66991 10.75L21.6533 10.7498Z" fill="#292D32"/>
</svg>
