<svg width="25" height="24" viewBox="0 0 25 24" fill="none" xmlns="http://www.w3.org/2000/svg">
<path d="M21.6868 7.99175C22.0847 8.55833 21.6104 9.25 20.9181 9.25H3.66992C3.11764 9.25 2.66992 8.80228 2.66992 8.25V6.42C2.66992 3.98 4.64992 2 7.08992 2H9.40992C11.0399 2 11.5499 2.53 12.1999 3.4L13.5999 5.26C13.9099 5.67 13.9499 5.72 14.5299 5.72H17.3199C19.1245 5.72 20.7216 6.61709 21.6868 7.99175Z" fill="#292D32"/>
<path d="M22.6533 11.7459C22.6514 11.1949 22.2042 10.7493 21.6533 10.7493L3.66989 10.75C3.11762 10.75 2.66992 11.1977 2.66992 11.75V16.65C2.66992 19.6 5.06992 22 8.01992 22H17.3199C20.2699 22 22.6699 19.6 22.6699 16.65L22.6533 11.7459ZM15.0999 16.75H10.0999C9.67992 16.75 9.34992 16.42 9.34992 16C9.34992 15.59 9.67992 15.25 10.0999 15.25H15.0999C15.5099 15.25 15.8499 15.59 15.8499 16C15.8499 16.42 15.5099 16.75 15.0999 16.75Z" fill="#292D32"/>
</svg>
