<svg width="25" height="24" viewBox="0 0 25 24" fill="none" xmlns="http://www.w3.org/2000/svg">
<path d="M21.6868 7.99175C22.0847 8.55833 21.6104 9.25 20.9181 9.25H3.66992C3.11764 9.25 2.66992 8.80228 2.66992 8.25V6.42C2.66992 3.98 4.64992 2 7.08992 2H9.40992C11.0399 2 11.5499 2.53 12.1999 3.4L13.5999 5.26C13.9099 5.67 13.9499 5.72 14.5299 5.72H17.3199C19.1245 5.72 20.7216 6.61709 21.6868 7.99175Z" fill="#292D32"/>
<path d="M22.6533 11.7464C22.6514 11.1954 22.2043 10.7498 21.6533 10.7498L3.66991 10.7501C3.11763 10.7501 2.66992 11.1978 2.66992 11.7501V16.6501C2.66992 19.6001 5.06992 22.0001 8.01992 22.0001H17.3199C20.2699 22.0001 22.6699 19.6001 22.6699 16.6501L22.6533 11.7464ZM15.1699 16.7501H13.4799V18.5001C13.4799 18.9101 13.1399 19.2501 12.7299 19.2501C12.3099 19.2501 11.9799 18.9101 11.9799 18.5001V16.7501H10.1699C9.75992 16.7501 9.41992 16.4101 9.41992 16.0001C9.41992 15.5901 9.75992 15.2501 10.1699 15.2501H11.9799V13.5001C11.9799 13.0901 12.3099 12.7501 12.7299 12.7501C13.1399 12.7501 13.4799 13.0901 13.4799 13.5001V15.2501H15.1699C15.5799 15.2501 15.9199 15.5901 15.9199 16.0001C15.9199 16.4101 15.5799 16.7501 15.1699 16.7501Z" fill="#292D32"/>
</svg>
