<svg width="25" height="24" viewBox="0 0 25 24" fill="none" xmlns="http://www.w3.org/2000/svg">
<path d="M21.7301 11.8201L21.5701 11.6001C21.2901 11.2601 20.9601 10.9901 20.5801 10.7901C20.0701 10.5001 19.4901 10.3501 18.8901 10.3501H6.44012C5.84012 10.3501 5.27012 10.5001 4.75012 10.7901C4.36012 11.0001 4.01012 11.2901 3.72012 11.6501C3.15012 12.3801 2.88012 13.2801 2.97012 14.1801L3.34012 18.8501C3.47012 20.2601 3.64012 22.0001 6.81012 22.0001H18.5301C21.7001 22.0001 21.8601 20.2601 22.0001 18.8401L22.3701 14.1901C22.4601 13.3501 22.2401 12.5101 21.7301 11.8201ZM15.0601 17.3401H10.2701C9.88012 17.3401 9.57012 17.0201 9.57012 16.6401C9.57012 16.2601 9.88012 15.9401 10.2701 15.9401H15.0601C15.4501 15.9401 15.7601 16.2601 15.7601 16.6401C15.7601 17.0301 15.4501 17.3401 15.0601 17.3401Z" fill="#292D32"/>
<path d="M21.2309 8.59643C21.2685 8.97928 20.8532 9.23561 20.4884 9.11348C19.9836 8.94449 19.4523 8.86 18.8998 8.86H6.4398C5.88296 8.86 5.33471 8.95012 4.82315 9.12194C4.46275 9.24298 4.0498 8.99507 4.0498 8.61489V6.66C4.0498 3.09 5.1398 2 8.7098 2H9.8898C11.3198 2 11.7698 2.46 12.3498 3.21L13.5498 4.81C13.7998 5.15 13.8098 5.17 14.2498 5.17H16.6298C19.7555 5.17 20.9768 6.00724 21.2309 8.59643Z" fill="#292D32"/>
</svg>
