<svg width="25" height="24" viewBox="0 0 25 24" fill="none" xmlns="http://www.w3.org/2000/svg">
<path d="M21.7899 6.98L17.6899 2.88C17.2099 2.4 16.2499 2 15.5699 2H9.76992C9.08992 2 8.12992 2.4 7.64992 2.88L3.54992 6.98C3.06992 7.46 2.66992 8.42 2.66992 9.1V14.9C2.66992 15.58 3.06992 16.54 3.54992 17.02L7.64992 21.12C8.12992 21.6 9.08992 22 9.76992 22H15.5699C16.2499 22 17.2099 21.6 17.6899 21.12L21.7899 17.02C22.2699 16.54 22.6699 15.58 22.6699 14.9V9.1C22.6699 8.42 22.2699 7.46 21.7899 6.98ZM16.6999 14.97C16.9899 15.26 16.9899 15.74 16.6999 16.03C16.5499 16.18 16.3599 16.25 16.1699 16.25C15.9799 16.25 15.7899 16.18 15.6399 16.03L12.6699 13.06L9.69992 16.03C9.54992 16.18 9.35992 16.25 9.16992 16.25C8.97992 16.25 8.78992 16.18 8.63992 16.03C8.34992 15.74 8.34992 15.26 8.63992 14.97L11.6099 12L8.63992 9.03C8.34992 8.74 8.34992 8.26 8.63992 7.97C8.92992 7.68 9.40992 7.68 9.69992 7.97L12.6699 10.94L15.6399 7.97C15.9299 7.68 16.4099 7.68 16.6999 7.97C16.9899 8.26 16.9899 8.74 16.6999 9.03L13.7299 12L16.6999 14.97Z" fill="#292D32"/>
</svg>
