<svg width="25" height="24" viewBox="0 0 25 24" fill="none" xmlns="http://www.w3.org/2000/svg">
<path d="M20.15 7.09C19.89 6.77 19.42 6.72 19.1 6.98C18.78 7.24 18.73 7.71 18.99 8.03C20.12 9.43 20.75 11.09 20.81 12.83C20.97 17.31 17.45 21.09 12.96 21.24C8.46995 21.4 4.69995 17.88 4.53995 13.4C4.37995 8.92 7.89995 5.14 12.39 4.99C12.96 4.97 13.56 5.02 14.21 5.15C14.25 5.16 14.29 5.15 14.33 5.15C14.43 5.2 14.55 5.23 14.66 5.23C14.83 5.23 14.99 5.18 15.13 5.06C15.45 4.8 15.5 4.33 15.25 4.01L13.27 1.54C13.01 1.22 12.54 1.16 12.22 1.42C11.9 1.68 11.85 2.15 12.1 2.47L12.93 3.5C12.74 3.49 12.54 3.48 12.35 3.49C7.03995 3.67 2.86995 8.15 3.05995 13.46C3.24995 18.77 7.71995 22.94 13.03 22.75C18.34 22.56 22.51 18.09 22.32 12.78C22.23 10.71 21.49 8.74 20.15 7.09Z" fill="#292D32"/>
<path d="M13.0496 16.92H10.7596C10.3496 16.92 10.0096 16.58 10.0096 16.17C10.0096 15.76 10.3496 15.42 10.7596 15.42H13.0496C13.4796 15.42 13.8296 15.07 13.8296 14.64C13.8296 14.21 13.4796 13.86 13.0496 13.86H10.7596C10.5196 13.86 10.2896 13.74 10.1496 13.55C10.0096 13.36 9.96956 13.1 10.0496 12.87L10.8096 10.58C10.9096 10.27 11.1996 10.07 11.5196 10.07H14.5796C14.9896 10.07 15.3296 10.41 15.3296 10.82C15.3296 11.23 14.9896 11.57 14.5796 11.57H12.0596L11.7996 12.36H13.0496C14.3096 12.36 15.3296 13.38 15.3296 14.64C15.3296 15.9 14.3096 16.92 13.0496 16.92Z" fill="#292D32"/>
</svg>
