<svg width="25" height="24" viewBox="0 0 25 24" fill="none" xmlns="http://www.w3.org/2000/svg">
<path d="M21.9204 5.77V9C21.9204 11.1146 21.2127 11.899 19.3011 12.0068C19.0254 12.0223 18.8004 11.7961 18.8004 11.52V10.38C18.8004 7.26 17.4104 5.87 14.2904 5.87H13.1504C12.8742 5.87 12.6481 5.64494 12.6636 5.36924C12.7714 3.45773 13.5558 2.75 15.6704 2.75H18.9004C21.1904 2.75 21.9204 3.48 21.9204 5.77Z" fill="#292D32"/>
<path d="M17.3 10.3801V13.6201C17.3 15.9001 16.57 16.6301 14.29 16.6301H11.05C8.77004 16.6301 8.04004 15.9001 8.04004 13.6201V10.3801C8.04004 8.10012 8.77004 7.37012 11.05 7.37012H14.29C16.57 7.37012 17.3 8.10012 17.3 10.3801Z" fill="#292D32"/>
<path d="M12.1899 18.13C12.4661 18.13 12.6922 18.355 12.6767 18.6307C12.569 20.5422 11.7845 21.25 9.66992 21.25H6.43992C4.14992 21.25 3.41992 20.52 3.41992 18.23V15C3.41992 12.8854 4.12765 12.101 6.03916 11.9932C6.31487 11.9777 6.53992 12.2038 6.53992 12.48V13.62C6.53992 16.74 7.92992 18.13 11.0499 18.13H12.1899Z" fill="#292D32"/>
</svg>
