<svg width="25" height="24" viewBox="0 0 25 24" fill="none" xmlns="http://www.w3.org/2000/svg">
<path d="M21.6399 1H18.6999C17.8299 1 17.1899 1.36 16.8999 2C16.7399 2.29 16.6699 2.63 16.6699 3.03V5.97C16.6699 7.24 17.4299 8 18.6999 8H21.6399C22.0399 8 22.3799 7.93 22.6699 7.77C23.3099 7.48 23.6699 6.84 23.6699 5.97V3.03C23.6699 1.76 22.9099 1 21.6399 1ZM22.5799 4.93C22.4799 5.03 22.3299 5.1 22.1699 5.11H20.7599V5.62L20.7699 6.5C20.7599 6.67 20.6999 6.81 20.5799 6.93C20.4799 7.03 20.3299 7.1 20.1699 7.1C19.8399 7.1 19.5699 6.83 19.5699 6.5V5.1L18.1699 5.11C17.8399 5.11 17.5699 4.83 17.5699 4.5C17.5699 4.17 17.8399 3.9 18.1699 3.9L19.0499 3.91H19.5699V2.51C19.5699 2.18 19.8399 1.9 20.1699 1.9C20.4999 1.9 20.7699 2.18 20.7699 2.51L20.7599 3.22V3.9H22.1699C22.4999 3.9 22.7699 4.17 22.7699 4.5C22.7599 4.67 22.6899 4.81 22.5799 4.93Z" fill="#292D32"/>
<path d="M9.67004 10.38C10.9845 10.38 12.05 9.31443 12.05 8C12.05 6.68556 10.9845 5.62 9.67004 5.62C8.3556 5.62 7.29004 6.68556 7.29004 8C7.29004 9.31443 8.3556 10.38 9.67004 10.38Z" fill="#292D32"/>
<path d="M21.6399 8H21.1699V12.61L21.0399 12.5C20.2599 11.83 18.9999 11.83 18.2199 12.5L14.0599 16.07C13.2799 16.74 12.0199 16.74 11.2399 16.07L10.8999 15.79C10.1899 15.17 9.05992 15.11 8.25992 15.65L4.51992 18.16C4.29992 17.6 4.16992 16.95 4.16992 16.19V7.81C4.16992 4.99 5.65992 3.5 8.47992 3.5H16.6699V3.03C16.6699 2.63 16.7399 2.29 16.8999 2H8.47992C4.83992 2 2.66992 4.17 2.66992 7.81V16.19C2.66992 17.28 2.85992 18.23 3.22992 19.03C4.08992 20.93 5.92992 22 8.47992 22H16.8599C20.4999 22 22.6699 19.83 22.6699 16.19V7.77C22.3799 7.93 22.0399 8 21.6399 8Z" fill="#292D32"/>
</svg>
