<svg width="25" height="24" viewBox="0 0 25 24" fill="none" xmlns="http://www.w3.org/2000/svg">
<path d="M16.5095 22H8.82953C4.63953 22 3.80953 19.47 5.16953 16.39L6.60953 13.12C6.60953 13.12 9.66953 13 12.6695 14C15.6695 15 18.4995 13.11 18.4995 13.11L18.6895 12.99L20.1795 16.4C21.5195 19.48 20.6395 22 16.5095 22Z" fill="#292D32"/>
<path d="M16.1102 6.74H15.9502L18.0802 11.6L17.6702 11.86C17.6502 11.87 15.3902 13.32 13.1402 12.58C10.7902 11.79 8.43023 11.65 7.27023 11.63L9.41023 6.74H9.11023C8.46023 6.74 7.86023 6.48 7.43023 6.05C7.00023 5.62 6.74023 5.02 6.74023 4.37C6.74023 3.07 7.80023 2 9.11023 2H16.2202C16.8802 2 17.4702 2.27 17.9002 2.7C18.4602 3.26 18.7502 4.08 18.5302 4.95C18.2702 6.03 17.2302 6.74 16.1102 6.74Z" fill="#292D32"/>
</svg>
