<svg width="25" height="24" viewBox="0 0 25 24" fill="none" xmlns="http://www.w3.org/2000/svg">
<g clip-path="url(#clip0_12_64896)">
<path d="M23.3197 18.1302C23.2197 17.7302 22.8197 17.4802 22.4197 17.5802C22.0197 17.6802 21.7697 18.0802 21.8597 18.4802C21.8997 18.6502 21.9197 18.8202 21.9197 19.0002C21.9197 20.2402 20.9097 21.2502 19.6697 21.2502C18.4297 21.2502 17.4197 20.2402 17.4197 19.0002C17.4197 17.9002 18.2097 16.9902 19.2597 16.7902C19.1597 17.0202 19.1697 17.3002 19.3297 17.5202C19.4797 17.7202 19.7097 17.8302 19.9397 17.8302C20.0897 17.8302 20.2497 17.7802 20.3797 17.6902L21.5497 16.8402C21.5597 16.8302 21.5597 16.8202 21.5697 16.8202C21.5797 16.8102 21.5897 16.8102 21.5997 16.8002C21.6297 16.7702 21.6497 16.7402 21.6697 16.7002C21.6997 16.6602 21.7397 16.6302 21.7597 16.5802C21.7797 16.5402 21.7897 16.4902 21.8097 16.4502C21.8197 16.4002 21.8397 16.3602 21.8497 16.3102C21.8597 16.2602 21.8497 16.2202 21.8397 16.1702C21.8397 16.1202 21.8397 16.0702 21.8197 16.0202C21.8097 15.9702 21.7797 15.9302 21.7597 15.8902C21.7397 15.8502 21.7297 15.8102 21.7097 15.7802C21.6997 15.7702 21.6897 15.7702 21.6797 15.7602C21.6697 15.7602 21.6697 15.7502 21.6697 15.7402L20.6697 14.5902C20.3997 14.2802 19.9197 14.2402 19.6097 14.5202C19.3897 14.7202 19.3097 15.0102 19.3897 15.2802C17.4597 15.4302 15.9297 17.0302 15.9297 19.0002C15.9297 21.0702 17.6097 22.7502 19.6797 22.7502C21.7497 22.7502 23.4297 21.0702 23.4297 19.0002C23.4197 18.7102 23.3897 18.4102 23.3197 18.1302Z" fill="#292D32"/>
<path d="M2.69969 14.6299C2.69969 14.6599 2.67969 14.6999 2.67969 14.7299C3.59969 16.5699 5.09969 18.0799 6.93969 18.9899C6.96969 18.9899 7.00969 18.9699 7.03969 18.9699C6.69969 17.8099 6.43969 16.6199 6.24969 15.4299C5.04969 15.2299 3.85969 14.9699 2.69969 14.6299Z" fill="#292D32"/>
<path d="M19.74 6.42994C18.8 4.45994 17.21 2.86994 15.25 1.93994C15.61 3.12994 15.91 4.34994 16.11 5.56994C17.33 5.76994 18.55 6.05994 19.74 6.42994Z" fill="#292D32"/>
<path d="M2.59961 6.43002C3.79961 6.07002 5.01961 5.77002 6.23961 5.57002C6.43961 4.38002 6.68961 3.20002 7.02961 2.04002C6.99961 2.04002 6.95961 2.02002 6.92961 2.02002C5.04961 2.95002 3.51961 4.52002 2.59961 6.43002Z" fill="#292D32"/>
<path d="M14.4896 5.36C14.2496 4.06 13.9496 2.76 13.5196 1.5C13.4996 1.43 13.4996 1.37 13.4896 1.29C12.7496 1.11 11.9696 1 11.1696 1C10.3596 1 9.58961 1.11 8.83961 1.3C8.82961 1.37 8.83961 1.43 8.81961 1.51C8.39961 2.77 8.08961 4.06 7.84961 5.36C10.0596 5.12 12.2796 5.12 14.4896 5.36Z" fill="#292D32"/>
<path d="M6.02992 7.18018C4.71992 7.42018 3.43992 7.73018 2.16992 8.15018C2.09992 8.17018 2.03992 8.17018 1.96992 8.18018C1.77992 8.92018 1.66992 9.70018 1.66992 10.5002C1.66992 11.3102 1.77992 12.0802 1.96992 12.8302C2.03992 12.8402 2.09992 12.8302 2.17992 12.8502C3.43992 13.2702 4.72992 13.5802 6.03992 13.8202C5.78992 11.6102 5.78992 9.39018 6.02992 7.18018Z" fill="#292D32"/>
<path d="M20.3698 8.18018C20.2998 8.18018 20.2398 8.17018 20.1598 8.15018C18.8998 7.73018 17.5998 7.42018 16.2998 7.18018C16.5498 9.39018 16.5498 11.6102 16.2998 13.8102C17.5998 13.5702 18.8998 13.2702 20.1598 12.8402C20.2298 12.8202 20.2898 12.8302 20.3698 12.8202C20.5498 12.0702 20.6698 11.3002 20.6698 10.4902C20.6698 9.70018 20.5598 8.93018 20.3698 8.18018Z" fill="#292D32"/>
<path d="M7.84961 15.6399C8.08961 16.9499 8.38961 18.2399 8.81961 19.4999C8.83961 19.5699 8.82961 19.6299 8.83961 19.7099C9.58961 19.8899 10.3596 19.9999 11.1696 19.9999C11.9696 19.9999 12.7496 19.8899 13.4896 19.6999C13.4996 19.6299 13.4996 19.5699 13.5196 19.4899C13.9396 18.2299 14.2496 16.9399 14.4896 15.6299C13.3896 15.7499 12.2796 15.8399 11.1696 15.8399C10.0596 15.8399 8.94961 15.7599 7.84961 15.6399Z" fill="#292D32"/>
<path d="M7.61953 6.9501C7.31953 9.3101 7.31953 11.6901 7.61953 14.0601C9.97953 14.3601 12.3595 14.3601 14.7295 14.0601C15.0295 11.7001 15.0295 9.3201 14.7295 6.9501C12.3595 6.6501 9.97953 6.6501 7.61953 6.9501Z" fill="#292D32"/>
</g>
<defs>
<clipPath id="clip0_12_64896">
<rect width="24" height="24" fill="white" transform="translate(0.669922)"/>
</clipPath>
</defs>
</svg>
