<svg width="25" height="24" viewBox="0 0 25 24" fill="none" xmlns="http://www.w3.org/2000/svg">
<g clip-path="url(#clip0_12_64959)">
<path d="M23.4199 12.0002C23.4199 12.4102 23.0799 12.7502 22.6699 12.7502H20.6299C20.2799 16.5602 17.2299 19.6102 13.4199 19.9602V22.0002C13.4199 22.4102 13.0799 22.7502 12.6699 22.7502C12.2599 22.7502 11.9199 22.4102 11.9199 22.0002V19.9602C11.3099 19.9102 10.7099 19.7802 10.1399 19.5902C9.42986 19.3502 9.20986 18.4502 9.73986 17.9202L12.5499 15.1102C12.5899 15.1202 12.6199 15.1202 12.6599 15.1202C14.3899 15.1202 15.7799 13.7302 15.7799 12.0002C15.7799 11.9602 15.7799 11.9302 15.7699 11.8902L18.5799 9.08019C19.1099 8.55019 20.0099 8.77019 20.2499 9.48019C20.4399 10.0502 20.5699 10.6402 20.6199 11.2602H22.6699C23.0799 11.2502 23.4199 11.5902 23.4199 12.0002Z" fill="#292D32"/>
<path d="M22.4399 2.23C22.1399 1.93 21.6499 1.93 21.3499 2.23L17.7399 5.84C16.5399 4.85 15.0399 4.2 13.4099 4.05V2C13.4099 1.59 13.0699 1.25 12.6599 1.25C12.2499 1.25 11.9099 1.59 11.9099 2V4.04C8.09992 4.4 5.04992 7.44 4.69992 11.25H2.66992C2.25992 11.25 1.91992 11.59 1.91992 12C1.91992 12.41 2.25992 12.75 2.66992 12.75H4.70992C4.85992 14.38 5.50992 15.88 6.49992 17.08L2.88992 20.69C2.58992 20.99 2.58992 21.48 2.88992 21.78C3.04992 21.92 3.23992 22 3.43992 22C3.63992 22 3.82992 21.92 3.97992 21.77L22.4399 3.31C22.7499 3.01 22.7499 2.53 22.4399 2.23ZM9.54992 12C9.54992 10.28 10.9499 8.88 12.6699 8.88C13.2499 8.88 13.7899 9.05 14.2499 9.33L9.99992 13.58C9.71992 13.12 9.54992 12.58 9.54992 12Z" fill="#292D32"/>
</g>
<defs>
<clipPath id="clip0_12_64959">
<rect width="24" height="24" fill="white" transform="translate(0.669922)"/>
</clipPath>
</defs>
</svg>
