<svg width="25" height="24" viewBox="0 0 25 24" fill="none" xmlns="http://www.w3.org/2000/svg">
<path d="M19.4697 20.7L17.5697 22.61C17.0497 23.13 16.1897 23.13 15.6497 22.61L14.0697 21.02C13.5497 20.49 13.5497 19.64 14.0697 19.1L15.9797 17.21L19.4697 20.7Z" fill="#292D32"/>
<path d="M23.28 16.9L20.47 19.7L16.98 16.21L19.78 13.39C20.31 12.87 21.17 12.87 21.7 13.39L23.28 14.98C23.8 15.51 23.8 16.38 23.28 16.9Z" fill="#292D32"/>
<path d="M7.41675 2.06549C7.96661 1.99425 8.41992 2.45112 8.41992 3.00557V6.8C8.41992 7.35229 7.97221 7.8 7.41992 7.8H3.66992C3.11764 7.8 2.66173 7.35027 2.72859 6.80204C3.05625 4.11548 4.74179 2.41205 7.41675 2.06549Z" fill="#292D32"/>
<path d="M21.5999 7.8H17.9199C17.3676 7.8 16.9199 7.35228 16.9199 6.8V3.00625C16.9199 2.45153 17.3741 1.99459 17.9241 2.06633C20.5578 2.40978 22.2344 4.0681 22.5999 6.68C22.6799 7.27 22.1999 7.8 21.5999 7.8Z" fill="#292D32"/>
<path d="M7.41992 16.3C7.97221 16.3 8.41992 16.7478 8.41992 17.3V20.92C8.41992 21.52 7.88992 22 7.28992 21.92C4.7208 21.5378 3.1 19.8911 2.74365 17.3102C2.66744 16.7582 3.12543 16.3 3.68266 16.3H7.41992Z" fill="#292D32"/>
<path d="M8.41992 10.3C8.41992 9.74776 7.97221 9.30005 7.41992 9.30005H3.66992C3.11764 9.30005 2.66992 9.74776 2.66992 10.3V13.8C2.66992 14.3523 3.11764 14.8 3.66992 14.8H7.41992C7.97221 14.8 8.41992 14.3523 8.41992 13.8V10.3Z" fill="#292D32"/>
<path d="M15.4199 10.3C15.4199 9.74776 14.9722 9.30005 14.4199 9.30005H10.9199C10.3676 9.30005 9.91992 9.74776 9.91992 10.3V13.8C9.91992 14.3523 10.3676 14.8 10.9199 14.8H14.4199C14.9699 14.8 15.4199 14.35 15.4199 13.8V10.3Z" fill="#292D32"/>
<path d="M15.4199 3C15.4199 2.44771 14.9722 2 14.4199 2H10.9199C10.3676 2 9.91992 2.44772 9.91992 3V6.8C9.91992 7.35229 10.3676 7.8 10.9199 7.8H14.4199C14.9722 7.8 15.4199 7.35228 15.4199 6.8V3Z" fill="#292D32"/>
</svg>
