<svg width="25" height="24" viewBox="0 0 25 24" fill="none" xmlns="http://www.w3.org/2000/svg">
<path d="M16.6719 9.75H8.67188C7.98188 9.75 7.42188 10.31 7.42188 11V12.05C7.45187 12.04 7.47187 12.03 7.50187 12.02C7.62187 11.96 7.75188 11.92 7.88188 11.88C7.94188 11.86 8.00188 11.84 8.07188 11.82C8.27188 11.78 8.47188 11.75 8.68188 11.75H16.6819C16.8919 11.75 17.0919 11.78 17.2919 11.82C17.3519 11.83 17.4119 11.86 17.4819 11.88C17.6119 11.92 17.7419 11.96 17.8619 12.02C17.8919 12.03 17.9219 12.04 17.9419 12.05V11C17.9219 10.31 17.3619 9.75 16.6719 9.75Z" fill="#292D32"/>
<path d="M16.6719 13.25H8.67188C7.98188 13.25 7.42188 13.81 7.42188 14.5V15H10.1719C10.5819 15 10.9219 15.34 10.9219 15.75C10.9219 16.71 11.7119 17.5 12.6719 17.5C13.6319 17.5 14.4219 16.71 14.4219 15.75C14.4219 15.34 14.7619 15 15.1719 15H17.9219V14.5C17.9219 13.81 17.3619 13.25 16.6719 13.25Z" fill="#292D32"/>
<path d="M16.6719 6.5H8.67188C7.98188 6.5 7.42188 7.06 7.42188 7.75V8.56C7.80187 8.37 8.22188 8.25 8.67188 8.25H16.6719C17.1219 8.25 17.5419 8.37 17.9219 8.56V7.75C17.9219 7.06 17.3619 6.5 16.6719 6.5Z" fill="#292D32"/>
<path d="M16.8619 2H8.48187C4.84187 2 2.67188 4.17 2.67188 7.81V16.18C2.67188 19.83 4.84187 22 8.48187 22H16.8519C20.4919 22 22.6619 19.83 22.6619 16.19V7.81C22.6719 4.17 20.5019 2 16.8619 2ZM19.6719 16.5H18.6719H15.8319C15.4919 17.93 14.2019 19 12.6719 19C11.1419 19 9.85188 17.93 9.51188 16.5H6.67188H5.67188C5.26187 16.5 4.92188 16.16 4.92188 15.75C4.92188 15.34 5.26187 15 5.67188 15H5.92188V14.5V14V11V7.75C5.92188 6.23 7.15188 5 8.67188 5H16.6719C18.1919 5 19.4219 6.23 19.4219 7.75V11V14V14.5V15H19.6719C20.0819 15 20.4219 15.34 20.4219 15.75C20.4219 16.16 20.0819 16.5 19.6719 16.5Z" fill="#292D32"/>
</svg>
