<svg width="25" height="24" viewBox="0 0 25 24" fill="none" xmlns="http://www.w3.org/2000/svg">
<path d="M9.16992 12.75C8.75992 12.75 8.41992 12.41 8.41992 12V6C8.41992 5.59 8.75992 5.25 9.16992 5.25C9.57992 5.25 9.91992 5.59 9.91992 6V12C9.91992 12.41 9.57992 12.75 9.16992 12.75Z" fill="#292D32"/>
<path d="M9.16992 22.75C8.75992 22.75 8.41992 22.41 8.41992 22V18C8.41992 17.59 8.75992 17.25 9.16992 17.25C9.57992 17.25 9.91992 17.59 9.91992 18V22C9.91992 22.41 9.57992 22.75 9.16992 22.75Z" fill="#292D32"/>
<path d="M16.1699 22.75C15.7599 22.75 15.4199 22.41 15.4199 22V6C15.4199 5.59 15.7599 5.25 16.1699 5.25C16.5799 5.25 16.9199 5.59 16.9199 6V22C16.9199 22.41 16.5799 22.75 16.1699 22.75Z" fill="#292D32"/>
<path d="M10.7697 5.3C10.7697 5.79 10.5697 6.24 10.2397 6.57C9.90973 6.9 9.45973 7.1 8.96973 7.1H6.71973C6.99973 6.73 7.16973 6.25 7.16973 5.75V4.85C7.16973 4.35 6.99973 3.87 6.71973 3.5H8.96973C9.95973 3.5 10.7697 4.31 10.7697 5.3Z" fill="#292D32"/>
<path d="M7.16992 4.85005V5.75005C7.16992 6.25005 6.99992 6.73005 6.71992 7.10005C5.95992 8.11005 4.39992 8.45005 2.94992 7.16005C2.78992 7.02005 2.66992 6.72005 2.66992 6.51005V4.17005C2.66992 3.97005 2.76992 3.70005 2.89992 3.56005C4.15992 2.24005 5.67992 2.43005 6.50992 3.26005C6.57992 3.33005 6.65992 3.41005 6.71992 3.50005C6.99992 3.87005 7.16992 4.35005 7.16992 4.85005Z" fill="#292D32"/>
<path d="M14.5698 5.3C14.5698 5.79 14.7698 6.24 15.0998 6.57C15.4298 6.9 15.8798 7.1 16.3698 7.1H18.6198C18.3398 6.73 18.1698 6.25 18.1698 5.75V4.85C18.1698 4.35 18.3398 3.87 18.6198 3.5H16.3698C15.3798 3.5 14.5698 4.31 14.5698 5.3Z" fill="#292D32"/>
<path d="M18.1699 4.85005V5.75005C18.1699 6.25005 18.3399 6.73005 18.6199 7.10005C19.3799 8.11005 20.9399 8.45005 22.3899 7.16005C22.5499 7.02005 22.6699 6.72005 22.6699 6.51005V4.17005C22.6699 3.98005 22.5699 3.70005 22.4399 3.56005C21.1799 2.24005 19.6599 2.43005 18.8299 3.26005C18.7599 3.33005 18.6899 3.41005 18.6199 3.50005C18.3399 3.87005 18.1699 4.35005 18.1699 4.85005Z" fill="#292D32"/>
<path d="M10.6699 13.5V17.5C10.6699 18.33 9.99992 19 9.16992 19C8.33992 19 7.66992 18.33 7.66992 17.5V13.5C7.66992 12.67 8.33992 12 9.16992 12C9.99992 12 10.6699 12.67 10.6699 13.5Z" fill="#292D32"/>
</svg>
