<svg width="25" height="24" viewBox="0 0 25 24" fill="none" xmlns="http://www.w3.org/2000/svg">
<path d="M15.6699 10.88H9.66992V13.13H15.6699V10.88Z" fill="black"/>
<path d="M12.6699 2C7.14992 2 2.66992 6.48 2.66992 12C2.66992 17.52 7.14992 22 12.6699 22C18.1899 22 22.6699 17.52 22.6699 12C22.6699 6.48 18.1899 2 12.6699 2ZM17.1699 16.5C17.1699 16.91 16.8299 17.25 16.4199 17.25C16.0099 17.25 15.6699 16.91 15.6699 16.5V14.62H9.66992V16.5C9.66992 16.91 9.32992 17.25 8.91992 17.25C8.50992 17.25 8.16992 16.91 8.16992 16.5V7.5C8.16992 7.09 8.50992 6.75 8.91992 6.75C9.32992 6.75 9.66992 7.09 9.66992 7.5V9.38H15.6699V7.5C15.6699 7.09 16.0099 6.75 16.4199 6.75C16.8299 6.75 17.1699 7.09 17.1699 7.5V16.5Z" fill="black"/>
</svg>
