<svg width="25" height="24" viewBox="0 0 25 24" fill="none" xmlns="http://www.w3.org/2000/svg">
<path d="M16.8599 2H8.47992C4.83992 2 2.66992 4.17 2.66992 7.81V16.18C2.66992 19.83 4.83992 22 8.47992 22H16.8499C20.4899 22 22.6599 19.83 22.6599 16.19V7.81C22.6699 4.17 20.4999 2 16.8599 2ZM10.5199 16.45C10.5199 17.58 9.59992 18.5 8.46992 18.5C7.33992 18.5 6.41992 17.58 6.41992 16.45C6.41992 15.58 6.95992 14.85 7.71992 14.55V10.26C6.87992 9.95 6.26992 9.15 6.26992 8.2C6.26992 6.99 7.25992 6 8.46992 6C9.67992 6 10.6699 6.99 10.6699 8.2C10.6699 9.15 10.0599 9.95 9.21992 10.26V14.55C9.97992 14.85 10.5199 15.59 10.5199 16.45ZM17.4199 18.5C16.2899 18.5 15.3699 17.58 15.3699 16.45C15.3699 15.58 15.9099 14.85 16.6699 14.55V8.75C16.6699 8.61 16.5599 8.5 16.4199 8.5H15.2899L15.4999 8.67C15.8199 8.94 15.8599 9.41 15.5999 9.73C15.4499 9.91 15.2299 10 15.0199 10C14.8499 10 14.6799 9.94 14.5399 9.83L12.7399 8.33C12.5699 8.18 12.4699 7.97 12.4699 7.75C12.4699 7.53 12.5699 7.32 12.7399 7.17L14.5399 5.67C14.8599 5.41 15.3299 5.45 15.5999 5.77C15.8699 6.09 15.8199 6.56 15.4999 6.83L15.2899 7H16.4199C17.3799 7 18.1699 7.79 18.1699 8.75V14.55C18.9299 14.85 19.4699 15.59 19.4699 16.45C19.4699 17.58 18.5499 18.5 17.4199 18.5Z" fill="#292D32"/>
</svg>
