<svg width="25" height="24" viewBox="0 0 25 24" fill="none" xmlns="http://www.w3.org/2000/svg">
<path d="M16.8599 2H8.47992C4.83992 2 2.66992 4.17 2.66992 7.81V16.18C2.66992 19.83 4.83992 22 8.47992 22H16.8499C20.4899 22 22.6599 19.83 22.6599 16.19V7.81C22.6699 4.17 20.4999 2 16.8599 2ZM16.8699 18.25C15.7399 18.25 14.8199 17.33 14.8199 16.2C14.8199 15.54 15.1399 14.96 15.6299 14.58C15.2099 13.48 14.1599 12.72 12.9799 12.76L10.9199 12.77H10.9099C10.2999 12.77 9.71992 12.59 9.22992 12.28V14.3C9.98992 14.6 10.5299 15.34 10.5299 16.2C10.5299 17.33 9.60992 18.25 8.47992 18.25C7.34992 18.25 6.42992 17.33 6.42992 16.2C6.42992 15.33 6.96992 14.6 7.72992 14.3V9.95C6.96992 9.6 6.42992 8.84 6.42992 7.95C6.42992 6.74 7.41992 5.75 8.62992 5.75C9.83992 5.75 10.8299 6.74 10.8299 7.95C10.8299 8.93 10.1799 9.75 9.28992 10.04C9.48992 10.77 10.1499 11.28 10.9099 11.28C10.9099 11.28 10.9099 11.28 10.9199 11.28L12.9799 11.27C12.9899 11.27 12.9899 11.27 12.9999 11.27C14.8399 11.27 16.4899 12.44 17.0899 14.18C18.1199 14.29 18.9299 15.15 18.9299 16.21C18.9199 17.33 17.9999 18.25 16.8699 18.25Z" fill="#292D32"/>
</svg>
