<svg width="25" height="24" viewBox="0 0 25 24" fill="none" xmlns="http://www.w3.org/2000/svg">
<path d="M19.4199 22C21.2148 22 22.6699 20.5449 22.6699 18.75C22.6699 16.9551 21.2148 15.5 19.4199 15.5C17.625 15.5 16.1699 16.9551 16.1699 18.75C16.1699 20.5449 17.625 22 19.4199 22Z" fill="#292D32"/>
<path d="M19.6699 8C21.3268 8 22.6699 6.65685 22.6699 5C22.6699 3.34315 21.3268 2 19.6699 2C18.0131 2 16.6699 3.34315 16.6699 5C16.6699 6.65685 18.0131 8 19.6699 8Z" fill="#292D32"/>
<path d="M5.66992 8C7.32678 8 8.66992 6.65685 8.66992 5C8.66992 3.34315 7.32678 2 5.66992 2C4.01307 2 2.66992 3.34315 2.66992 5C2.66992 6.65685 4.01307 8 5.66992 8Z" fill="#292D32"/>
<path d="M5.49992 8.02C6.46992 10.8 9.08992 12.67 12.0399 12.67C12.0499 12.67 12.0599 12.67 12.0699 12.67L15.5999 12.66C17.1199 12.64 18.4799 13.67 18.8899 15.15V17C18.8899 17.42 19.2299 17.76 19.6599 17.76C20.0799 17.76 20.4199 17.42 20.4199 17V5.76C20.4199 5.34 20.0799 5 19.6599 5C19.2399 5 18.8899 5.34 18.8899 5.76V12.38C18.0099 11.6 16.8599 11.12 15.6099 11.12C15.5999 11.12 15.5999 11.12 15.5899 11.12L12.0599 11.13C12.0499 11.13 12.0499 11.13 12.0399 11.13C9.74992 11.13 7.69992 9.68 6.94992 7.51C6.82992 7.2 6.53992 7 6.21992 7C6.13992 7 6.04992 7.02 5.96992 7.04C5.56992 7.18 5.35992 7.62 5.49992 8.02Z" fill="#292D32"/>
</svg>
