<svg width="25" height="24" viewBox="0 0 25 24" fill="none" xmlns="http://www.w3.org/2000/svg">
<path d="M20.7102 6.82018L14.9502 2.79018C13.3802 1.69018 10.9702 1.75018 9.46016 2.92018L4.45016 6.83018C3.45016 7.61018 2.66016 9.21018 2.66016 10.4702V17.3702C2.66016 19.9202 4.73016 22.0002 7.28016 22.0002H18.0602C20.6102 22.0002 22.6802 19.9302 22.6802 17.3802V10.6002C22.6802 9.25018 21.8102 7.59018 20.7102 6.82018ZM17.5502 13.4002C17.5502 13.7902 17.2402 14.1002 16.8502 14.1002C16.4602 14.1002 16.1502 13.7902 16.1502 13.4002V13.2202L13.4302 15.9402C13.2802 16.0902 13.0802 16.1602 12.8702 16.1402C12.6702 16.1202 12.4802 16.0002 12.3702 15.8302L11.3502 14.3102L8.97016 16.6902C8.83016 16.8302 8.66016 16.8902 8.48016 16.8902C8.30016 16.8902 8.12016 16.8202 7.99016 16.6902C7.72016 16.4202 7.72016 15.9802 7.99016 15.7002L10.9702 12.7202C11.1202 12.5702 11.3202 12.5002 11.5302 12.5202C11.7402 12.5402 11.9302 12.6502 12.0402 12.8302L13.0602 14.3502L15.1702 12.2402H14.9902C14.6002 12.2402 14.2902 11.9302 14.2902 11.5402C14.2902 11.1502 14.6002 10.8402 14.9902 10.8402H16.8502C16.9402 10.8402 17.0302 10.8602 17.1202 10.8902C17.2902 10.9602 17.4302 11.1002 17.5002 11.2702C17.5402 11.3602 17.5502 11.4502 17.5502 11.5402V13.4002Z" fill="#292D32"/>
</svg>
