<svg width="25" height="24" viewBox="0 0 25 24" fill="none" xmlns="http://www.w3.org/2000/svg">
<path d="M13.3701 16.8798H14.0701C15.2201 16.8798 16.1601 15.9398 16.1601 14.7898V14.0898H13.3701V16.8798Z" fill="#292D32"/>
<path d="M9.17969 14.7898C9.17969 15.9398 10.1197 16.8798 11.2697 16.8798H11.9697V14.0898H9.17969V14.7898Z" fill="#292D32"/>
<path d="M9.17969 12.0002V12.7002H11.9697V9.91016H11.2697C10.1197 9.91016 9.17969 10.8502 9.17969 12.0002Z" fill="#292D32"/>
<path d="M20.6999 6.82018L14.9499 2.79018C13.3799 1.69018 10.9799 1.75018 9.46992 2.92018L4.45992 6.83018C3.44992 7.61018 2.66992 9.21018 2.66992 10.4702V17.3702C2.66992 19.9202 4.73992 22.0002 7.27992 22.0002H18.0499C20.5899 22.0002 22.6599 19.9302 22.6599 17.3802V10.6002C22.6699 9.25018 21.7999 7.59018 20.6999 6.82018ZM17.5499 14.7902C17.5499 16.7102 15.9799 18.2802 14.0599 18.2802H11.2699C9.34992 18.2802 7.77992 16.7202 7.77992 14.7902V12.0002C7.77992 10.0802 9.34992 8.51018 11.2699 8.51018H14.0599C15.9799 8.51018 17.5499 10.0702 17.5499 12.0002V14.7902Z" fill="#292D32"/>
<path d="M14.0701 9.91016H13.3701V12.7002H16.1601V12.0002C16.1601 10.8502 15.2201 9.91016 14.0701 9.91016Z" fill="#292D32"/>
</svg>
