<svg width="25" height="24" viewBox="0 0 25 24" fill="none" xmlns="http://www.w3.org/2000/svg">
<path d="M22.6699 21.2502H21.6699V9.98021C21.6699 9.36021 21.3899 8.78021 20.8999 8.40021L19.6699 7.44021L19.6499 4.99021C19.6499 4.44021 19.1999 4.00021 18.6499 4.00021H15.2399L13.8999 2.96021C13.1799 2.39021 12.1599 2.39021 11.4399 2.96021L4.43992 8.40021C3.94992 8.78021 3.66992 9.36021 3.66992 9.97021L3.61992 21.2502H2.66992C2.25992 21.2502 1.91992 21.5902 1.91992 22.0002C1.91992 22.4102 2.25992 22.7502 2.66992 22.7502H22.6699C23.0799 22.7502 23.4199 22.4102 23.4199 22.0002C23.4199 21.5902 23.0799 21.2502 22.6699 21.2502ZM7.16992 12.7502V11.2502C7.16992 10.7002 7.61992 10.2502 8.16992 10.2502H10.1699C10.7199 10.2502 11.1699 10.7002 11.1699 11.2502V12.7502C11.1699 13.3002 10.7199 13.7502 10.1699 13.7502H8.16992C7.61992 13.7502 7.16992 13.3002 7.16992 12.7502ZM15.1699 21.2502H10.1699V18.5002C10.1699 17.6702 10.8399 17.0002 11.6699 17.0002H13.6699C14.4999 17.0002 15.1699 17.6702 15.1699 18.5002V21.2502ZM18.1699 12.7502C18.1699 13.3002 17.7199 13.7502 17.1699 13.7502H15.1699C14.6199 13.7502 14.1699 13.3002 14.1699 12.7502V11.2502C14.1699 10.7002 14.6199 10.2502 15.1699 10.2502H17.1699C17.7199 10.2502 18.1699 10.7002 18.1699 11.2502V12.7502Z" fill="#292D32"/>
</svg>
