<svg width="25" height="24" viewBox="0 0 25 24" fill="none" xmlns="http://www.w3.org/2000/svg">
<path d="M10.6699 15.5C10.2599 15.5 9.91992 15.84 9.91992 16.25V17.75C9.91992 18.16 10.2599 18.5 10.6699 18.5C11.0799 18.5 11.4199 18.16 11.4199 17.75V16.25C11.4199 15.84 11.0799 15.5 10.6699 15.5Z" fill="#292D32"/>
<path d="M22.6699 21.2502H21.6699V9.98021C21.6699 9.36021 21.3899 8.78021 20.8999 8.40021L13.8999 2.96021C13.1799 2.39021 12.1599 2.39021 11.4399 2.96021L4.43992 8.40021C3.94992 8.78021 3.66992 9.36021 3.66992 9.97021L3.61992 21.2502H2.66992C2.25992 21.2502 1.91992 21.5802 1.91992 22.0002C1.91992 22.4102 2.25992 22.7502 2.66992 22.7502H22.6699C23.0799 22.7502 23.4199 22.4102 23.4199 22.0002C23.4199 21.5802 23.0799 21.2502 22.6699 21.2502ZM11.1699 6.75021H14.1699C14.5799 6.75021 14.9199 7.09021 14.9199 7.50021C14.9199 7.91021 14.5799 8.25021 14.1699 8.25021H11.1699C10.7599 8.25021 10.4199 7.91021 10.4199 7.50021C10.4199 7.09021 10.7599 6.75021 11.1699 6.75021ZM17.6699 21.2502H7.66992V12.5002C7.66992 11.6702 8.33992 11.0002 9.16992 11.0002H16.1699C16.9999 11.0002 17.6699 11.6702 17.6699 12.5002V21.2502Z" fill="#292D32"/>
</svg>
