<svg width="25" height="24" viewBox="0 0 25 24" fill="none" xmlns="http://www.w3.org/2000/svg">
<path d="M20.55 2H4.79002C4.19002 2 3.73002 2.51999 3.80002 3.10999L5.60002 19.33C5.64002 19.73 5.93002 20.07 6.32002 20.18L12.4 21.92C12.58 21.97 12.77 21.97 12.95 21.92L19.03 20.18C19.42 20.07 19.7 19.73 19.75 19.33L21.55 3.10999C21.61 2.51999 21.15 2 20.55 2ZM16.92 16.08C16.89 16.38 16.67 16.63 16.38 16.72L12.88 17.72C12.81 17.74 12.74 17.75 12.67 17.75C12.6 17.75 12.53 17.74 12.46 17.72L8.96002 16.72C8.70002 16.65 8.50002 16.44 8.44002 16.18L7.94002 14.18C7.84002 13.78 8.08002 13.37 8.49002 13.27C8.89002 13.17 9.30002 13.41 9.40002 13.82L9.80002 15.4L12.68 16.22L15.49 15.42L15.9 11.75H8.67002C8.26002 11.75 7.92002 11.41 7.92002 11C7.92002 10.59 8.26002 10.25 8.67002 10.25H16.05L16.33 7.75L8.17002 7.73001C7.76002 7.73001 7.42002 7.39001 7.42002 6.98001C7.42002 6.57001 7.76002 6.23001 8.17002 6.23001L17.17 6.25C17.38 6.25 17.59 6.34 17.73 6.5C17.87 6.66 17.94 6.86999 17.92 7.07999L16.92 16.08Z" fill="black"/>
</svg>
