<svg width="25" height="24" viewBox="0 0 25 24" fill="none" xmlns="http://www.w3.org/2000/svg">
<path d="M22.6896 16.82L19.5596 9.50001C18.9896 8.16001 18.1396 7.40001 17.1696 7.35001C16.2096 7.30001 15.2796 7.97001 14.5696 9.25001L12.6696 12.66C12.2696 13.38 11.6996 13.81 11.0796 13.86C10.4496 13.92 9.81957 13.59 9.30957 12.94L9.08957 12.66C8.37957 11.77 7.49957 11.34 6.59957 11.43C5.69957 11.52 4.92957 12.14 4.41957 13.15L2.68957 16.6C2.06957 17.85 2.12957 19.3 2.85957 20.48C3.58957 21.66 4.85957 22.37 6.24957 22.37H19.0096C20.3496 22.37 21.5996 21.7 22.3396 20.58C23.0996 19.46 23.2196 18.05 22.6896 16.82Z" fill="#292D32"/>
<path d="M7.63977 8.38C9.50649 8.38 11.0198 6.86672 11.0198 5C11.0198 3.13327 9.50649 1.62 7.63977 1.62C5.77304 1.62 4.25977 3.13327 4.25977 5C4.25977 6.86672 5.77304 8.38 7.63977 8.38Z" fill="#292D32"/>
</svg>
