<svg width="25" height="24" viewBox="0 0 25 24" fill="none" xmlns="http://www.w3.org/2000/svg">
<path d="M21.8099 9.90002H13.3499V13.57L14.9199 12C15.2099 11.71 15.6899 11.71 15.9799 12C16.2699 12.29 16.2699 12.77 15.9799 13.06L13.1299 15.9C12.8399 16.19 12.3599 16.19 12.0699 15.9L9.21992 13.06C9.06992 12.91 8.99992 12.72 8.99992 12.53C8.99992 12.34 9.07992 12.15 9.22992 12C9.51992 11.71 9.99992 11.71 10.2899 12L11.8499 13.56V9.90002H3.52992C3.04992 9.90002 2.66992 10.28 2.66992 10.76C2.66992 16.65 6.77992 20.76 12.6699 20.76C18.5599 20.76 22.6699 16.65 22.6699 10.76C22.6699 10.28 22.2899 9.90002 21.8099 9.90002Z" fill="#292D32"/>
<path d="M13.3501 3.98999C13.3501 3.57999 13.0101 3.23999 12.6001 3.23999C12.1901 3.23999 11.8501 3.57999 11.8501 3.98999V9.88999H13.3501V3.98999Z" fill="#292D32"/>
</svg>
