<svg width="25" height="24" viewBox="0 0 25 24" fill="none" xmlns="http://www.w3.org/2000/svg">
<path d="M20.5498 2H4.77976C4.17976 2 3.71977 2.52 3.78977 3.11L5.58975 19.33C5.62975 19.73 5.91979 20.07 6.30979 20.18L12.3897 21.92C12.5697 21.97 12.7598 21.97 12.9398 21.92L19.0197 20.18C19.4097 20.07 19.6898 19.73 19.7398 19.33L21.5398 3.11C21.6098 2.52 21.1498 2 20.5498 2ZM12.0398 15.99C12.0398 16.23 11.9298 16.45 11.7398 16.59C11.6098 16.69 11.4498 16.74 11.2898 16.74C11.2198 16.74 11.1497 16.73 11.0797 16.71L7.95975 15.81C7.55975 15.69 7.3298 15.28 7.4498 14.88C7.5598 14.48 7.97979 14.26 8.37979 14.37L10.5398 14.99V7.00999C10.5398 6.59999 10.8798 6.25999 11.2898 6.25999C11.6998 6.25999 12.0398 6.59999 12.0398 7.00999V15.99ZM17.9198 15.1C17.9198 15.44 17.6898 15.74 17.3498 15.83L13.7498 16.73C13.6898 16.75 13.6298 16.75 13.5698 16.75C13.2298 16.75 12.9298 16.52 12.8398 16.18C12.7398 15.78 12.9797 15.37 13.3897 15.27L16.4198 14.51V12.81L14.1298 13.14C13.9098 13.17 13.6998 13.11 13.5298 12.96C13.3698 12.82 13.2697 12.61 13.2697 12.39V7.44C13.2697 7.07 13.5398 6.75 13.9098 6.7L17.0598 6.25C17.4698 6.19 17.8498 6.48 17.9098 6.89C17.9698 7.3 17.6797 7.68001 17.2697 7.74001L14.7598 8.10001V11.53L17.0498 11.2C17.2698 11.17 17.4798 11.23 17.6498 11.38C17.8098 11.52 17.9098 11.73 17.9098 11.95V15.1H17.9198Z" fill="black"/>
</svg>
