<svg width="25" height="24" viewBox="0 0 25 24" fill="none" xmlns="http://www.w3.org/2000/svg">
<path d="M21.2102 19.04C21.0602 19.19 20.8702 19.26 20.6802 19.26C20.4902 19.26 20.3002 19.19 20.1502 19.04L15.2002 14.09L15.7302 13.56L16.2602 13.03L21.2102 17.98C21.5002 18.27 21.5002 18.75 21.2102 19.04Z" fill="#292D32"/>
<path d="M7.14027 9.28L12.9403 15.08C13.3303 15.47 13.3303 16.1 12.9403 16.49L12.0403 17.4C11.2303 18.2 9.95027 18.2 9.15027 17.4L4.81027 13.06C4.02027 12.27 4.02027 10.98 4.81027 10.18L5.72027 9.27C6.11027 8.89 6.75027 8.89 7.14027 9.28Z" fill="#292D32"/>
<path d="M19.2597 10.19L15.4497 13.99C15.0497 14.39 14.4097 14.39 14.0097 13.99L8.22969 8.20999C7.82969 7.80999 7.82969 7.16999 8.22969 6.76999L12.0397 2.95999C12.8297 2.16999 14.1197 2.16999 14.9197 2.95999L19.2597 7.29999C20.0497 8.09999 20.0497 9.37999 19.2597 10.19Z" fill="#292D32"/>
<path d="M8.66992 21.75H2.66992C2.25992 21.75 1.91992 21.41 1.91992 21C1.91992 20.59 2.25992 20.25 2.66992 20.25H8.66992C9.07992 20.25 9.41992 20.59 9.41992 21C9.41992 21.41 9.07992 21.75 8.66992 21.75Z" fill="#292D32"/>
</svg>
