<svg width="25" height="24" viewBox="0 0 25 24" fill="none" xmlns="http://www.w3.org/2000/svg">
<path d="M13.9199 12C14.6103 12 15.1699 11.4404 15.1699 10.75C15.1699 10.0596 14.6103 9.5 13.9199 9.5C13.2296 9.5 12.6699 10.0596 12.6699 10.75C12.6699 11.4404 13.2296 12 13.9199 12Z" fill="#292D32"/>
<path d="M16.8599 2H8.47992C4.83992 2 2.66992 4.17 2.66992 7.81V16.18C2.66992 19.83 4.83992 22 8.47992 22H16.8499C20.4899 22 22.6599 19.83 22.6599 16.19V7.81C22.6699 4.17 20.4999 2 16.8599 2ZM16.5599 13.47C15.5299 14.49 14.0599 14.81 12.7599 14.4L11.6999 15.45C11.6099 15.54 11.4499 15.54 11.3499 15.45L10.3799 14.48C10.2399 14.34 9.99992 14.34 9.84992 14.48C9.69992 14.62 9.70992 14.86 9.84992 15.01L10.8199 15.98C10.9199 16.08 10.9199 16.24 10.8199 16.33L10.4099 16.74C10.2399 16.92 9.90992 17.03 9.66992 17L8.57992 16.85C8.21992 16.8 7.88992 16.46 7.82992 16.1L7.67992 15.01C7.63992 14.77 7.75992 14.44 7.91992 14.27L10.2699 11.92C9.86992 10.62 10.1799 9.15 11.2099 8.12C12.6799 6.65 15.0799 6.65 16.5599 8.12C18.0399 9.59 18.0399 11.99 16.5599 13.47Z" fill="#292D32"/>
</svg>
