<svg width="25" height="24" viewBox="0 0 25 24" fill="none" xmlns="http://www.w3.org/2000/svg">
<path d="M20.4601 4.21982C17.5001 1.26982 12.7001 1.26982 9.76007 4.21982C7.69007 6.26982 7.07007 9.21982 7.87007 11.8198L3.17007 16.5198C2.84007 16.8598 2.61007 17.5298 2.68007 18.0098L2.98007 20.1898C3.09007 20.9098 3.76007 21.5898 4.48007 21.6898L6.66007 21.9898C7.14007 22.0598 7.81007 21.8398 8.15007 21.4898L8.97007 20.6698C9.17007 20.4798 9.17007 20.1598 8.97007 19.9598L7.03007 18.0198C6.74007 17.7298 6.74007 17.2498 7.03007 16.9598C7.32007 16.6698 7.80007 16.6698 8.09007 16.9598L10.0401 18.9098C10.2301 19.0998 10.5501 19.0998 10.7401 18.9098L12.8601 16.7998C15.4501 17.6098 18.4001 16.9798 20.4601 14.9298C23.4101 11.9798 23.4101 7.16982 20.4601 4.21982ZM15.1701 11.9998C13.7901 11.9998 12.6701 10.8798 12.6701 9.49982C12.6701 8.11982 13.7901 6.99982 15.1701 6.99982C16.5501 6.99982 17.6701 8.11982 17.6701 9.49982C17.6701 10.8798 16.5501 11.9998 15.1701 11.9998Z" fill="#292D32"/>
</svg>
