<svg width="25" height="24" viewBox="0 0 25 24" fill="none" xmlns="http://www.w3.org/2000/svg">
<path d="M18.49 8.7C19.2 8.31 20.07 8.82001 20.06 9.63001L20.02 15.05C20.01 15.87 19.12 16.37 18.42 15.95L13.74 13.15C13.04 12.73 13.06 11.71 13.77 11.32L18.49 8.7Z" fill="black"/>
<path d="M19.92 6.28C20.07 6.66 19.8399 7.05 19.4799 7.25L13.8499 10.36C13.0499 10.8 12.11 10.09 12.31 9.21L13.5299 3.67999C13.6799 2.97999 14.4699 2.64 15.0899 2.99L19.01 5.22999C19.44 5.47999 19.75 5.85 19.92 6.28Z" fill="black"/>
<path d="M12.6801 2.66999L10.61 11.97C10.58 12.11 10.58 12.26 10.61 12.41L12.34 21.09C12.46 21.69 11.9501 22.26 11.4501 21.89L6.16003 18.12C5.60003 17.72 5.27002 17.08 5.27002 16.4V7.08999C5.27002 6.32999 5.67003 5.62999 6.34003 5.24999L11.6301 2.24C11.7801 2.15 11.94 2.08999 12.1 2.03999C12.48 1.90999 12.7601 2.28999 12.6801 2.66999Z" fill="black"/>
<path d="M18.2998 16.81C18.9498 17.2 18.9898 18.13 18.3798 18.57L14.9098 21.09C14.2898 21.54 13.3998 21.2 13.2498 20.44L12.2298 15.24C12.0498 14.34 13.0198 13.66 13.8098 14.13L18.2998 16.81Z" fill="black"/>
</svg>
