<svg width="25" height="24" viewBox="0 0 25 24" fill="none" xmlns="http://www.w3.org/2000/svg">
<path d="M16.3701 4.35007L7.07014 13.6501C6.60014 14.1201 5.78014 14.0201 5.48014 13.4201C4.94014 12.3501 4.64014 11.1801 4.64014 10.0501C4.64014 7.60007 5.73014 5.31007 7.64014 3.77007C9.55014 2.23007 12.0501 1.66007 14.5001 2.20007C15.0401 2.32007 15.5701 2.49007 16.0701 2.72007C16.7101 3.01007 16.8701 3.85007 16.3701 4.35007Z" fill="#292D32"/>
<path d="M16.1198 20.6299C13.8598 19.9899 11.4798 19.9899 9.21982 20.6299C8.84982 20.7399 8.62982 21.1199 8.73982 21.4899C8.84982 21.8599 9.22982 22.0699 9.59982 21.9699C11.6098 21.3999 13.7198 21.3999 15.7298 21.9699C15.7898 21.9899 15.8598 21.9999 15.9198 21.9999C16.2198 21.9999 16.4998 21.7999 16.5898 21.4899C16.6998 21.1199 16.4898 20.7399 16.1198 20.6299Z" fill="#292D32"/>
<path d="M21.23 1.94992C20.94 1.65992 20.46 1.65992 20.17 1.94992L4.32004 17.7999C4.03004 18.0899 4.03004 18.5699 4.32004 18.8599C4.47004 19.0099 4.66004 19.0799 4.85004 19.0799C5.04004 19.0799 5.23004 19.0099 5.38004 18.8599L7.84004 16.3999C8.06004 16.5799 8.29004 16.7599 8.53004 16.9199V17.7499C8.52004 18.0299 8.51004 18.4599 8.84004 18.8099C9.19004 19.1599 9.71004 19.2099 10.12 19.2099H15.25C15.79 19.2099 16.2 19.0599 16.48 18.7799C16.87 18.3799 16.85 17.8799 16.84 17.6199V16.9199C19.95 14.8299 21.9 10.4199 19.88 6.35992C19.66 5.92992 19.39 5.51992 19.09 5.13992L21.22 3.00992C21.52 2.71992 21.52 2.23992 21.23 1.94992Z" fill="#292D32"/>
</svg>
