<svg width="25" height="24" viewBox="0 0 25 24" fill="none" xmlns="http://www.w3.org/2000/svg">
<path d="M21.0995 11.78L18.8995 3.7C18.6495 2.77 17.6395 2 16.6795 2H8.65955C7.69955 2 6.68955 2.77 6.43955 3.7L4.23955 11.78C3.79955 13.38 4.79955 14.69 6.45955 14.69H11.9195V20.5H8.66955C8.25955 20.5 7.91955 20.84 7.91955 21.25C7.91955 21.66 8.25955 22 8.66955 22H16.6695C17.0795 22 17.4195 21.66 17.4195 21.25C17.4195 20.84 17.0795 20.5 16.6695 20.5H13.4195V14.69H18.8795C20.5395 14.69 21.5395 13.38 21.0995 11.78Z" fill="#292D32"/>
</svg>
