<svg width="25" height="24" viewBox="0 0 25 24" fill="none" xmlns="http://www.w3.org/2000/svg">
<path d="M22.2298 10.7401L20.8698 9.16006C20.6098 8.86006 20.3998 8.30006 20.3998 7.90006V6.20006C20.3998 5.14006 19.5298 4.27006 18.4698 4.27006H16.7698C16.3798 4.27006 15.8098 4.06006 15.5098 3.80006L13.9298 2.44006C13.2398 1.85006 12.1098 1.85006 11.4098 2.44006L9.8398 3.81006C9.5398 4.06006 8.9698 4.27006 8.5798 4.27006H6.8498C5.7898 4.27006 4.9198 5.14006 4.9198 6.20006V7.91006C4.9198 8.30006 4.7098 8.86006 4.4598 9.16006L3.1098 10.7501C2.5298 11.4401 2.5298 12.5601 3.1098 13.2501L4.4598 14.8401C4.7098 15.1401 4.9198 15.7001 4.9198 16.0901V17.8001C4.9198 18.8601 5.7898 19.7301 6.8498 19.7301H8.5798C8.9698 19.7301 9.5398 19.9401 9.8398 20.2001L11.4198 21.5601C12.1098 22.1501 13.2398 22.1501 13.9398 21.5601L15.5198 20.2001C15.8198 19.9401 16.3798 19.7301 16.7798 19.7301H18.4798C19.5398 19.7301 20.4098 18.8601 20.4098 17.8001V16.1001C20.4098 15.7101 20.6198 15.1401 20.8798 14.8401L22.2398 13.2601C22.8198 12.5701 22.8198 11.4301 22.2298 10.7401ZM17.3498 12.0001L16.1798 15.5601C16.0298 16.1501 15.3998 16.6301 14.7598 16.6301H12.9098C12.5898 16.6301 12.1398 16.5201 11.9398 16.3201L10.4698 15.1701C10.4398 15.8101 10.1498 16.0801 9.43981 16.0801H8.9598C8.2198 16.0801 7.9198 15.7901 7.9198 15.0901V10.3101C7.9198 9.61006 8.2198 9.32006 8.9598 9.32006H9.4498C10.1898 9.32006 10.4898 9.61006 10.4898 10.3101V10.6701L12.4298 7.79006C12.6298 7.48006 13.1398 7.26006 13.5698 7.43006C14.0398 7.59006 14.3398 8.11006 14.2398 8.57006L13.9998 10.1301C13.9798 10.2701 14.0098 10.4001 14.0998 10.5001C14.1798 10.5901 14.2998 10.6501 14.4298 10.6501H16.3798C16.7598 10.6501 17.0798 10.8001 17.2698 11.0701C17.4398 11.3301 17.4698 11.6601 17.3498 12.0001Z" fill="#292D32"/>
</svg>
