<svg width="25" height="24" viewBox="0 0 25 24" fill="none" xmlns="http://www.w3.org/2000/svg">
<path d="M13.8199 15.3699C13.5999 15.0499 13.2099 14.8699 12.7599 14.8699H10.4299C10.2799 14.8699 10.1299 14.8099 10.0399 14.6899C9.93992 14.5699 9.89992 14.4199 9.91992 14.2499L10.2099 12.3899C10.3299 11.8399 9.95992 11.2099 9.40992 11.0199C8.88992 10.8299 8.28992 11.0899 8.03992 11.4599L5.72992 14.8999V14.4699C5.72992 13.6299 5.36992 13.2899 4.48992 13.2899H3.90992C3.02992 13.2999 2.66992 13.6399 2.66992 14.4799V20.1899C2.66992 21.0299 3.02992 21.3699 3.90992 21.3699H4.48992C5.32992 21.3699 5.67992 21.0399 5.70992 20.2799L7.45992 21.6299C7.70992 21.8699 8.23992 21.9999 8.61992 21.9999H10.8299C11.5899 21.9999 12.3499 21.4299 12.5299 20.7299L13.9299 16.4799C14.0799 16.0699 14.0399 15.6799 13.8199 15.3699Z" fill="#292D32"/>
<path d="M21.7797 2.60998H21.1997C20.3597 2.60998 20.0097 2.93998 19.9697 3.69998L18.2197 2.34998C17.9797 2.10998 17.4397 1.97998 17.0597 1.97998H14.8497C14.0897 1.97998 13.3297 2.54998 13.1497 3.24998L11.7497 7.49998C11.5997 7.90998 11.6497 8.29998 11.8597 8.60998C12.0797 8.92998 12.4697 9.10998 12.9197 9.10998H15.2497C15.3997 9.10998 15.5497 9.16998 15.6397 9.28998C15.7397 9.40998 15.7797 9.55998 15.7597 9.72998L15.4697 11.59C15.3497 12.14 15.7197 12.77 16.2697 12.96C16.7897 13.15 17.3897 12.89 17.6397 12.52L19.9497 9.07998V9.50998C19.9497 10.35 20.3097 10.69 21.1897 10.69H21.7697C22.6497 10.69 23.0097 10.35 23.0097 9.50998V3.77998C23.0197 2.94998 22.6597 2.60998 21.7797 2.60998Z" fill="#292D32"/>
</svg>
