<svg width="25" height="24" viewBox="0 0 25 24" fill="none" xmlns="http://www.w3.org/2000/svg">
<path d="M16.8619 2H8.48187C4.84187 2 2.67188 4.17 2.67188 7.81V16.18C2.67188 19.83 4.84187 22 8.48187 22H16.8519C20.4919 22 22.6619 19.83 22.6619 16.19V7.81C22.6719 4.17 20.5019 2 16.8619 2ZM8.85188 16.77C8.83188 16.77 8.80187 16.77 8.78187 16.77C7.81187 16.68 6.90188 16.23 6.22188 15.51C4.62188 13.83 4.62188 11.1 6.22188 9.42L8.41187 7.12C9.19187 6.3 10.2419 5.84 11.3619 5.84C12.4819 5.84 13.5319 6.29 14.3119 7.12C15.9119 8.8 15.9119 11.53 14.3119 13.21L13.2219 14.36C12.9319 14.66 12.4619 14.67 12.1619 14.39C11.8619 14.1 11.8519 13.63 12.1319 13.33L13.2219 12.18C14.2819 11.07 14.2819 9.26 13.2219 8.16C12.2319 7.12 10.4919 7.12 9.49187 8.16L7.30188 10.46C6.24188 11.57 6.24188 13.38 7.30188 14.48C7.73187 14.94 8.31187 15.22 8.92188 15.28C9.33187 15.32 9.63188 15.69 9.59188 16.1C9.56187 16.48 9.23188 16.77 8.85188 16.77ZM19.1219 14.59L16.9319 16.89C16.1519 17.71 15.1019 18.17 13.9819 18.17C12.8619 18.17 11.8119 17.72 11.0319 16.89C9.43187 15.21 9.43187 12.48 11.0319 10.8L12.1219 9.65C12.4119 9.35 12.8819 9.34 13.1819 9.62C13.4819 9.91 13.4919 10.38 13.2119 10.68L12.1219 11.83C11.0619 12.94 11.0619 14.75 12.1219 15.85C13.1119 16.89 14.8519 16.9 15.8519 15.85L18.0419 13.55C19.1019 12.44 19.1019 10.63 18.0419 9.53C17.6119 9.07 17.0319 8.79 16.4219 8.73C16.0119 8.69 15.7119 8.32 15.7519 7.91C15.7919 7.5 16.1519 7.19 16.5719 7.24C17.5419 7.34 18.4519 7.78 19.1319 8.5C20.7219 10.17 20.7219 12.91 19.1219 14.59Z" fill="#292D32"/>
</svg>
