<svg width="25" height="24" viewBox="0 0 25 24" fill="none" xmlns="http://www.w3.org/2000/svg">
<path d="M12.6719 2C7.15188 2 2.67188 6.48 2.67188 12C2.67188 17.52 7.15188 22 12.6719 22C18.1919 22 22.6719 17.52 22.6719 12C22.6719 6.48 18.1919 2 12.6719 2ZM9.32187 14.77C9.21187 15.07 8.92188 15.26 8.62187 15.26C8.53187 15.26 8.45188 15.25 8.36188 15.21C7.55188 14.91 6.87187 14.32 6.44187 13.55C5.44187 11.75 6.06187 9.4 7.81187 8.31L10.1519 6.86C11.0119 6.33 12.0219 6.17 12.9819 6.42C13.9419 6.67 14.7519 7.3 15.2419 8.18C16.2419 9.98 15.6219 12.33 13.8719 13.42L13.6119 13.61C13.2719 13.85 12.8019 13.77 12.5619 13.44C12.3219 13.1 12.4019 12.63 12.7319 12.39L13.0419 12.17C14.1619 11.47 14.5419 10.02 13.9319 8.91C13.6419 8.39 13.1719 8.02 12.6119 7.87C12.0519 7.72 11.4619 7.81 10.9519 8.13L8.59188 9.59C7.51188 10.26 7.13188 11.71 7.74188 12.83C7.99188 13.28 8.39187 13.63 8.87187 13.81C9.26187 13.95 9.46187 14.38 9.32187 14.77ZM17.5919 15.65L15.2519 17.1C14.6619 17.47 14.0019 17.65 13.3319 17.65C13.0319 17.65 12.7219 17.61 12.4219 17.53C11.4619 17.28 10.6519 16.65 10.1719 15.77C9.17188 13.97 9.79187 11.62 11.5419 10.53L11.8019 10.34C12.1419 10.1 12.6119 10.18 12.8519 10.51C13.0919 10.85 13.0119 11.32 12.6819 11.56L12.3719 11.78C11.2519 12.48 10.8719 13.93 11.4819 15.04C11.7719 15.56 12.2419 15.93 12.8019 16.08C13.3619 16.23 13.9519 16.14 14.4619 15.82L16.8019 14.37C17.8819 13.7 18.2619 12.25 17.6519 11.13C17.4019 10.68 17.0019 10.33 16.5219 10.15C16.1319 10.01 15.9319 9.58 16.0819 9.19C16.2219 8.8 16.6619 8.6 17.0419 8.75C17.8519 9.05 18.5319 9.64 18.9619 10.41C19.9519 12.21 19.3419 14.56 17.5919 15.65Z" fill="#292D32"/>
</svg>
