<svg width="25" height="24" viewBox="0 0 25 24" fill="none" xmlns="http://www.w3.org/2000/svg">
<path d="M13.1719 14.75H10.6719C10.2619 14.75 9.92188 14.41 9.92188 14C9.92188 13.59 10.2619 13.25 10.6719 13.25H13.1719C15.7919 13.25 17.9219 11.12 17.9219 8.5C17.9219 5.88 15.7919 3.75 13.1719 3.75H8.17188C5.55188 3.75 3.42188 5.88 3.42188 8.5C3.42188 9.6 3.81187 10.67 4.51187 11.52C4.77187 11.84 4.73187 12.31 4.41188 12.58C4.09188 12.84 3.62188 12.8 3.35188 12.48C2.43188 11.36 1.92188 9.95 1.92188 8.5C1.92188 5.05 4.72187 2.25 8.17188 2.25H13.1719C16.6219 2.25 19.4219 5.05 19.4219 8.5C19.4219 11.95 16.6219 14.75 13.1719 14.75Z" fill="#292D32"/>
<path d="M17.1719 21.75H12.1719C8.72187 21.75 5.92188 18.95 5.92188 15.5C5.92188 12.05 8.72187 9.25 12.1719 9.25H14.6719C15.0819 9.25 15.4219 9.59 15.4219 10C15.4219 10.41 15.0819 10.75 14.6719 10.75H12.1719C9.55188 10.75 7.42188 12.88 7.42188 15.5C7.42188 18.12 9.55188 20.25 12.1719 20.25H17.1719C19.7919 20.25 21.9219 18.12 21.9219 15.5C21.9219 14.4 21.5319 13.33 20.8319 12.48C20.5719 12.16 20.6119 11.69 20.9319 11.42C21.2519 11.15 21.7219 11.2 21.9919 11.52C22.9219 12.64 23.4319 14.05 23.4319 15.5C23.4219 18.95 20.6219 21.75 17.1719 21.75Z" fill="#292D32"/>
</svg>
