<svg width="25" height="24" viewBox="0 0 25 24" fill="none" xmlns="http://www.w3.org/2000/svg">
<g clip-path="url(#clip0_12_64827)">
<path d="M21.2897 8.7C20.2497 4.07 16.2097 2 12.6697 2C12.6697 2 12.6697 2 12.6597 2C9.12967 2 5.09967 4.07 4.04967 8.69C2.86967 13.85 6.02967 18.22 8.88967 20.98C9.94967 22 11.3097 22.51 12.6697 22.51C14.0297 22.51 15.3897 22 16.4397 20.98C19.2997 18.22 22.4597 13.86 21.2897 8.7ZM15.1997 13.49C15.0497 13.64 14.8597 13.71 14.6697 13.71C14.4797 13.71 14.2897 13.64 14.1397 13.49L12.6897 12.04L11.1997 13.53C11.0497 13.68 10.8597 13.75 10.6697 13.75C10.4797 13.75 10.2897 13.68 10.1397 13.53C9.84967 13.24 9.84967 12.76 10.1397 12.47L11.6297 10.98L10.1797 9.53C9.88967 9.24 9.88967 8.76 10.1797 8.47C10.4697 8.18 10.9497 8.18 11.2397 8.47L12.6897 9.92L14.0897 8.52C14.3797 8.23 14.8597 8.23 15.1497 8.52C15.4397 8.81 15.4397 9.29 15.1497 9.58L13.7497 10.98L15.1997 12.43C15.4897 12.72 15.4897 13.19 15.1997 13.49Z" fill="#292D32"/>
</g>
<defs>
<clipPath id="clip0_12_64827">
<rect width="24" height="24" fill="white" transform="translate(0.669922)"/>
</clipPath>
</defs>
</svg>
