<svg width="25" height="24" viewBox="0 0 25 24" fill="none" xmlns="http://www.w3.org/2000/svg">
<g clip-path="url(#clip0_12_64832)">
<path d="M21.2897 8.7C20.2497 4.07 16.2097 2 12.6697 2C12.6697 2 12.6697 2 12.6597 2C9.12967 2 5.09967 4.07 4.04967 8.69C2.86967 13.85 6.02967 18.22 8.88967 20.98C9.94967 22 11.3097 22.51 12.6697 22.51C14.0297 22.51 15.3897 22 16.4397 20.98C19.2997 18.22 22.4597 13.86 21.2897 8.7ZM15.9497 9.53L11.9497 13.53C11.7997 13.68 11.6097 13.75 11.4197 13.75C11.2297 13.75 11.0397 13.68 10.8897 13.53L9.38967 12.03C9.09967 11.74 9.09967 11.26 9.38967 10.97C9.67967 10.68 10.1597 10.68 10.4497 10.97L11.4197 11.94L14.8897 8.47C15.1797 8.18 15.6597 8.18 15.9497 8.47C16.2397 8.76 16.2397 9.24 15.9497 9.53Z" fill="#292D32"/>
</g>
<defs>
<clipPath id="clip0_12_64832">
<rect width="24" height="24" fill="white" transform="translate(0.669922)"/>
</clipPath>
</defs>
</svg>
