<svg width="25" height="24" viewBox="0 0 25 24" fill="none" xmlns="http://www.w3.org/2000/svg">
<path d="M12.6699 7.75C10.7799 7.75 10.4199 8.54 10.4199 10V10.62H14.9199V10C14.9199 8.54 14.5599 7.75 12.6699 7.75Z" fill="#292D32"/>
<path d="M12.6698 15.0999C13.2773 15.0999 13.7698 14.6074 13.7698 13.9999C13.7698 13.3924 13.2773 12.8999 12.6698 12.8999C12.0623 12.8999 11.5698 13.3924 11.5698 13.9999C11.5698 14.6074 12.0623 15.0999 12.6698 15.0999Z" fill="#292D32"/>
<path d="M12.6699 2C7.14992 2 2.66992 6.48 2.66992 12C2.66992 17.52 7.14992 22 12.6699 22C18.1899 22 22.6699 17.52 22.6699 12C22.6699 6.48 18.1899 2 12.6699 2ZM18.0499 14.5C18.0499 16.7 17.3699 17.38 15.1699 17.38H10.1699C7.96992 17.38 7.28992 16.7 7.28992 14.5V13.5C7.28992 11.79 7.69992 11 8.91992 10.73V10C8.91992 9.07 8.91992 6.25 12.6699 6.25C16.4199 6.25 16.4199 9.07 16.4199 10V10.73C17.6399 11 18.0499 11.79 18.0499 13.5V14.5Z" fill="#292D32"/>
</svg>
