<svg width="25" height="24" viewBox="0 0 25 24" fill="none" xmlns="http://www.w3.org/2000/svg">
<path d="M12.67 17.3498C13.5703 17.3498 14.3 16.6201 14.3 15.7198C14.3 14.8196 13.5703 14.0898 12.67 14.0898C11.7698 14.0898 11.04 14.8196 11.04 15.7198C11.04 16.6201 11.7698 17.3498 12.67 17.3498Z" fill="#292D32"/>
<path d="M18.9499 9.53V8.28C18.9499 5.58 18.2999 2 12.6699 2C7.03992 2 6.38992 5.58 6.38992 8.28V9.53C3.58992 9.88 2.66992 11.3 2.66992 14.79V16.65C2.66992 20.75 3.91992 22 8.01992 22H17.3199C21.4199 22 22.6699 20.75 22.6699 16.65V14.79C22.6699 11.3 21.7499 9.88 18.9499 9.53ZM12.6699 18.74C10.9999 18.74 9.64992 17.38 9.64992 15.72C9.64992 14.05 11.0099 12.7 12.6699 12.7C14.3299 12.7 15.6899 14.06 15.6899 15.72C15.6899 17.39 14.3399 18.74 12.6699 18.74ZM8.01992 9.44C7.93992 9.44 7.86992 9.44 7.78992 9.44V8.28C7.78992 5.35 8.61992 3.4 12.6699 3.4C16.7199 3.4 17.5499 5.35 17.5499 8.28V9.45C17.4699 9.45 17.3999 9.45 17.3199 9.45H8.01992V9.44Z" fill="#292D32"/>
</svg>
