<svg width="25" height="24" viewBox="0 0 25 24" fill="none" xmlns="http://www.w3.org/2000/svg">
<path d="M8.55016 12.07C8.55016 11.66 8.89016 11.32 9.30016 11.32H14.7802V2.86C14.7702 2.38 14.3902 2 13.9102 2C8.02016 2 3.91016 6.11 3.91016 12C3.91016 17.89 8.02016 22 13.9102 22C14.3802 22 14.7702 21.62 14.7702 21.14V12.81H9.30016C8.88016 12.82 8.55016 12.48 8.55016 12.07Z" fill="#292D32"/>
<path d="M21.21 11.54L18.37 8.69003C18.08 8.40003 17.6 8.40003 17.31 8.69003C17.02 8.98003 17.02 9.46003 17.31 9.75003L18.87 11.31H14.77V12.81H18.86L17.3 14.37C17.01 14.66 17.01 15.14 17.3 15.43C17.45 15.58 17.64 15.65 17.83 15.65C18.02 15.65 18.21 15.58 18.36 15.43L21.2 12.58C21.5 12.3 21.5 11.83 21.21 11.54Z" fill="#292D32"/>
</svg>
