<svg width="25" height="24" viewBox="0 0 25 24" fill="none" xmlns="http://www.w3.org/2000/svg">
<path d="M17.9602 4.14004L17.8902 7.93004C17.8802 8.45004 18.2102 9.14004 18.6302 9.45004L21.1102 11.33C22.7002 12.53 22.4402 14 20.5402 14.6L17.3102 15.61C16.7702 15.78 16.2002 16.37 16.0602 16.92L15.2902 19.86C14.6802 22.18 13.1602 22.41 11.9002 20.37L10.1402 17.52C9.82019 17 9.06019 16.61 8.46019 16.64L5.12019 16.81C2.73019 16.93 2.05019 15.55 3.61019 13.73L5.59019 11.43C5.96019 11 6.13019 10.2 5.96019 9.66004L4.94019 6.42004C4.35019 4.52004 5.41019 3.47004 7.30019 4.09004L10.2502 5.06004C10.7502 5.22004 11.5002 5.11004 11.9202 4.80004L15.0002 2.58004C16.6702 1.39004 18.0002 2.09004 17.9602 4.14004Z" fill="#292D32"/>
<path d="M22.1102 20.4702L19.0802 17.4402C18.7902 17.1502 18.3102 17.1502 18.0202 17.4402C17.7302 17.7302 17.7302 18.2102 18.0202 18.5002L21.0502 21.5302C21.2002 21.6802 21.3902 21.7502 21.5802 21.7502C21.7702 21.7502 21.9602 21.6802 22.1102 21.5302C22.4002 21.2402 22.4002 20.7602 22.1102 20.4702Z" fill="#292D32"/>
</svg>
