<svg width="25" height="24" viewBox="0 0 25 24" fill="none" xmlns="http://www.w3.org/2000/svg">
<path d="M12.6699 2C7.14992 2 2.66992 6.48 2.66992 12C2.66992 17.52 7.14992 22 12.6699 22C18.1899 22 22.6699 17.52 22.6699 12C22.6699 6.48 18.1899 2 12.6699 2ZM12.1699 14.5C12.1699 14.91 11.8299 15.25 11.4199 15.25C11.0099 15.25 10.6699 14.91 10.6699 14.5V12.42L7.99994 10.82V14.5C7.99994 14.91 7.65994 15.25 7.24994 15.25C6.83994 15.25 6.49994 14.91 6.49994 14.5V9.5C6.49994 9.23 6.64994 8.98 6.87994 8.85C7.10994 8.72 7.39994 8.72 7.62994 8.86L11.7999 11.36C12.0299 11.5 12.1599 11.74 12.1599 12V14.5H12.1699ZM18.8399 14.5C18.8399 14.91 18.4999 15.25 18.0899 15.25C17.6799 15.25 17.3399 14.91 17.3399 14.5V10.82L14.6699 12.42V14.5C14.6699 14.91 14.3299 15.25 13.9199 15.25C13.5099 15.25 13.1699 14.91 13.1699 14.5V12C13.1699 11.74 13.3099 11.49 13.5299 11.36L17.7 8.86C17.93 8.72 18.22 8.72 18.45 8.85C18.69 8.98 18.8299 9.23 18.8299 9.5V14.5H18.8399Z" fill="black"/>
</svg>
