<svg width="25" height="24" viewBox="0 0 25 24" fill="none" xmlns="http://www.w3.org/2000/svg">
<path d="M16.8619 2H8.48187C4.84187 2 2.67188 4.17 2.67188 7.81V16.18C2.67188 19.83 4.84187 22 8.48187 22H16.8519C20.4919 22 22.6619 19.83 22.6619 16.19V7.81C22.6719 4.17 20.5019 2 16.8619 2ZM11.7019 17.66C11.9919 17.95 11.9919 18.43 11.7019 18.72C11.5519 18.87 11.3619 18.94 11.1719 18.94C10.9819 18.94 10.7919 18.87 10.6419 18.72L8.92188 17L7.20188 18.72C7.05188 18.86 6.86188 18.94 6.67188 18.94C6.48187 18.94 6.29187 18.87 6.14187 18.72C5.85187 18.43 5.85187 17.95 6.14187 17.66L7.86188 15.94L6.14187 14.22C5.85187 13.93 5.85187 13.45 6.14187 13.16C6.43187 12.87 6.91188 12.87 7.20188 13.16L8.92188 14.88L10.6419 13.16C10.9319 12.87 11.4119 12.87 11.7019 13.16C11.9919 13.45 11.9919 13.93 11.7019 14.22L9.98188 15.94L11.7019 17.66ZM11.1719 8.81H6.67188C6.26187 8.81 5.92188 8.47 5.92188 8.06C5.92188 7.65 6.26187 7.31 6.67188 7.31H11.1719C11.5819 7.31 11.9219 7.65 11.9219 8.06C11.9219 8.47 11.5819 8.81 11.1719 8.81ZM18.6719 18.56H14.1719C13.7619 18.56 13.4219 18.22 13.4219 17.81C13.4219 17.4 13.7619 17.06 14.1719 17.06H18.6719C19.0819 17.06 19.4219 17.4 19.4219 17.81C19.4219 18.22 19.0819 18.56 18.6719 18.56ZM18.6719 14.81H14.1719C13.7619 14.81 13.4219 14.47 13.4219 14.06C13.4219 13.65 13.7619 13.31 14.1719 13.31H18.6719C19.0819 13.31 19.4219 13.65 19.4219 14.06C19.4219 14.47 19.0819 14.81 18.6719 14.81ZM18.6719 8.81H17.1919V10.31C17.1919 10.72 16.8519 11.06 16.4419 11.06C16.0319 11.06 15.6919 10.72 15.6919 10.31V8.81H14.1719C13.7619 8.81 13.4219 8.47 13.4219 8.06C13.4219 7.65 13.7619 7.31 14.1719 7.31H15.6919V5.81C15.6919 5.4 16.0319 5.06 16.4419 5.06C16.8519 5.06 17.1919 5.4 17.1919 5.81V7.31H18.6719C19.0819 7.31 19.4219 7.65 19.4219 8.06C19.4219 8.47 19.0819 8.81 18.6719 8.81Z" fill="#292D32"/>
</svg>
