<svg width="25" height="24" viewBox="0 0 25 24" fill="none" xmlns="http://www.w3.org/2000/svg">
<path d="M22.3604 2.71C22.2804 2.53 22.1404 2.38 21.9504 2.3C21.8604 2.27 21.7704 2.25 21.6704 2.25H17.6704C17.2604 2.25 16.9204 2.59 16.9204 3C16.9204 3.41 17.2604 3.75 17.6704 3.75H19.8604L15.1404 8.47C14.8504 8.76 14.8504 9.24 15.1404 9.53C15.2904 9.68 15.4804 9.75 15.6704 9.75C15.8604 9.75 16.0504 9.68 16.2004 9.53L20.9204 4.81V7C20.9204 7.41 21.2604 7.75 21.6704 7.75C22.0804 7.75 22.4204 7.41 22.4204 7V3C22.4204 2.9 22.4004 2.81 22.3604 2.71Z" fill="#292D32"/>
<path d="M9.13992 14.47L4.41992 19.19V17C4.41992 16.59 4.07992 16.25 3.66992 16.25C3.25992 16.25 2.91992 16.59 2.91992 17V21C2.91992 21.1 2.93992 21.19 2.97992 21.29C3.05992 21.47 3.19992 21.62 3.38992 21.7C3.46992 21.73 3.56992 21.75 3.66992 21.75H7.66992C8.07992 21.75 8.41992 21.41 8.41992 21C8.41992 20.59 8.07992 20.25 7.66992 20.25H5.47992L10.1999 15.53C10.4899 15.24 10.4899 14.76 10.1999 14.47C9.90992 14.18 9.42992 14.18 9.13992 14.47Z" fill="#292D32"/>
<path d="M2.86992 14.75C2.51992 14.75 2.20992 14.5 2.13992 14.15C1.99992 13.45 1.91992 12.72 1.91992 12C1.91992 6.07 6.73992 1.25 12.6699 1.25C13.3999 1.25 14.1299 1.32 14.8399 1.47C15.2499 1.55 15.5099 1.95 15.4299 2.35C15.3499 2.76 14.9399 3.01 14.5499 2.94C13.9199 2.81 13.2999 2.75 12.6699 2.75C7.56992 2.75 3.41992 6.9 3.41992 12C3.41992 12.62 3.47992 13.25 3.60992 13.85C3.68992 14.26 3.42992 14.65 3.01992 14.73C2.96992 14.75 2.91992 14.75 2.86992 14.75Z" fill="#292D32"/>
<path d="M12.67 22.75C11.94 22.75 11.21 22.68 10.5 22.53C10.09 22.45 9.82995 22.05 9.90995 21.65C9.98995 21.24 10.4 20.99 10.79 21.06C11.4 21.18 12.03 21.25 12.66 21.25C17.76 21.25 21.91 17.1 21.91 12C21.91 11.38 21.85 10.76 21.73 10.15C21.65 9.74 21.91 9.35 22.32 9.27C22.73 9.19 23.12 9.45 23.2 9.86C23.34 10.56 23.41 11.28 23.41 12C23.42 17.93 18.6 22.75 12.67 22.75Z" fill="#292D32"/>
</svg>
