<svg width="25" height="24" viewBox="0 0 25 24" fill="none" xmlns="http://www.w3.org/2000/svg">
<path d="M16.8599 2H8.47992C4.83992 2 2.66992 4.17 2.66992 7.81V16.18C2.66992 19.83 4.83992 22 8.47992 22H16.8499C20.4899 22 22.6599 19.83 22.6599 16.19V7.81C22.6699 4.17 20.4999 2 16.8599 2ZM19.4199 10C19.4199 10.41 19.0799 10.75 18.6699 10.75C18.2599 10.75 17.9199 10.41 17.9199 10V7.81L8.47992 17.25H10.6699C11.0799 17.25 11.4199 17.59 11.4199 18C11.4199 18.41 11.0799 18.75 10.6699 18.75H6.66992C6.56992 18.75 6.46992 18.73 6.37992 18.69C6.19992 18.61 6.04992 18.47 5.96992 18.28C5.93992 18.19 5.91992 18.1 5.91992 18V14C5.91992 13.59 6.25992 13.25 6.66992 13.25C7.07992 13.25 7.41992 13.59 7.41992 14V16.19L16.8599 6.75H14.6699C14.2599 6.75 13.9199 6.41 13.9199 6C13.9199 5.59 14.2599 5.25 14.6699 5.25H18.6699C18.7699 5.25 18.8599 5.27 18.9599 5.31C19.1399 5.39 19.2899 5.53 19.3699 5.72C19.3999 5.81 19.4199 5.9 19.4199 6V10Z" fill="#292D32"/>
</svg>
