<svg width="25" height="24" viewBox="0 0 25 24" fill="none" xmlns="http://www.w3.org/2000/svg">
<path d="M11.6699 16.15V18.85C11.6699 21.1 10.7699 22 8.51992 22H5.81992C3.56992 22 2.66992 21.1 2.66992 18.85V16.15C2.66992 13.9 3.56992 13 5.81992 13H8.51992C10.7699 13 11.6699 13.9 11.6699 16.15Z" fill="#292D32"/>
<path d="M17.1499 2H9.18992C6.13992 2 3.66992 4.47 3.66992 7.52V10.5C3.66992 11.05 4.11992 11.5 4.66992 11.5H9.16992C11.3799 11.5 13.1699 13.29 13.1699 15.5V20C13.1699 20.55 13.6199 21 14.1699 21H17.1499C20.5999 21 22.6699 18.94 22.6699 15.48V7.52C22.6699 4.47 20.1999 2 17.1499 2ZM19.4299 9.99C19.4299 10.4 19.0899 10.74 18.6799 10.74C18.2699 10.74 17.9299 10.4 17.9299 9.99V7.79L14.1999 11.53C14.0499 11.68 13.8599 11.75 13.6699 11.75C13.4799 11.75 13.2899 11.68 13.1399 11.53C12.8499 11.24 12.8499 10.76 13.1399 10.47L16.8699 6.72H14.6699C14.2499 6.72 13.9199 6.39 13.9199 5.97C13.9199 5.56 14.2499 5.22 14.6699 5.22H18.6799C18.7699 5.22 18.8599 5.25 18.9399 5.28C18.9699 5.29 18.9899 5.3 19.0099 5.31C19.0699 5.34 19.1199 5.37 19.1699 5.42C19.1899 5.43 19.2099 5.45 19.2299 5.47C19.2799 5.53 19.3199 5.59 19.3599 5.66C19.3599 5.67 19.3699 5.68 19.3699 5.69C19.4099 5.77 19.4199 5.86 19.4199 5.95C19.4299 5.96 19.4299 5.96 19.4299 5.97V9.99Z" fill="#292D32"/>
</svg>
