<svg width="25" height="24" viewBox="0 0 25 24" fill="none" xmlns="http://www.w3.org/2000/svg">
<path d="M16.8599 2H8.47992C4.83992 2 2.66992 4.17 2.66992 7.81V16.18C2.66992 19.83 4.83992 22 8.47992 22H16.8499C20.4899 22 22.6599 19.83 22.6599 16.19V7.81C22.6699 4.17 20.4999 2 16.8599 2ZM10.8899 21H8.57992C5.86992 21 3.66992 18.8 3.66992 16.09V13.78C3.66992 13.37 4.00992 13.03 4.41992 13.03C4.82992 13.03 5.16992 13.37 5.16992 13.78V16.09C5.16992 17.97 6.69992 19.5 8.57992 19.5H10.8899C11.2999 19.5 11.6399 19.84 11.6399 20.25C11.6399 20.66 11.3099 21 10.8899 21ZM10.8899 4.5H8.57992C6.69992 4.5 5.16992 6.03 5.16992 7.91V10.22C5.16992 10.63 4.82992 10.97 4.41992 10.97C4.00992 10.97 3.66992 10.64 3.66992 10.22V7.91C3.66992 5.2 5.86992 3 8.57992 3H10.8899C11.2999 3 11.6399 3.34 11.6399 3.75C11.6399 4.16 11.3099 4.5 10.8899 4.5ZM21.6699 16.09C21.6699 18.8 19.4699 21 16.7599 21H15.3699C14.9599 21 14.6199 20.66 14.6199 20.25C14.6199 19.84 14.9599 19.5 15.3699 19.5H16.7599C18.6399 19.5 20.1699 17.97 20.1699 16.09V14.7C20.1699 14.29 20.5099 13.95 20.9199 13.95C21.3299 13.95 21.6699 14.29 21.6699 14.7V16.09ZM21.6699 10.22C21.6699 10.63 21.3299 10.97 20.9199 10.97C20.5099 10.97 20.1699 10.63 20.1699 10.22V7.91C20.1699 6.03 18.6399 4.5 16.7599 4.5H14.4499C14.0399 4.5 13.6999 4.16 13.6999 3.75C13.6999 3.34 14.0299 3 14.4499 3H16.7599C19.4699 3 21.6699 5.2 21.6699 7.91V10.22Z" fill="#292D32"/>
</svg>
