<svg width="25" height="24" viewBox="0 0 25 24" fill="none" xmlns="http://www.w3.org/2000/svg">
<path d="M5.66992 13.5C3.45992 13.5 1.66992 15.29 1.66992 17.5C1.66992 18.25 1.87992 18.96 2.24992 19.56C2.93992 20.72 4.20992 21.5 5.66992 21.5C7.12992 21.5 8.39992 20.72 9.08992 19.56C9.45992 18.96 9.66992 18.25 9.66992 17.5C9.66992 15.29 7.87992 13.5 5.66992 13.5ZM7.63992 17.17L5.50992 19.14C5.36992 19.27 5.17992 19.34 4.99992 19.34C4.80992 19.34 4.61992 19.27 4.46992 19.12L3.47992 18.13C3.18992 17.84 3.18992 17.36 3.47992 17.07C3.76992 16.78 4.24992 16.78 4.53992 17.07L5.01992 17.55L6.61992 16.07C6.91992 15.79 7.39992 15.81 7.67992 16.11C7.95992 16.41 7.93992 16.89 7.63992 17.17Z" fill="#292D32"/>
<path d="M17.9199 2.42993H8.41992C5.56992 2.42993 3.66992 4.32993 3.66992 7.17993V11.6399C3.66992 11.9899 4.02992 12.2399 4.36992 12.1499C4.78992 12.0499 5.21992 11.9999 5.66992 11.9999C8.52992 11.9999 10.8899 14.3199 11.1499 17.1299C11.1699 17.4099 11.3999 17.6299 11.6699 17.6299H12.2199L16.4499 20.4499C17.0699 20.8699 17.9199 20.4099 17.9199 19.6499V17.6299C19.3399 17.6299 20.5299 17.1499 21.3599 16.3299C22.1899 15.4899 22.6699 14.2999 22.6699 12.8799V7.17993C22.6699 4.32993 20.7699 2.42993 17.9199 2.42993ZM16.4999 10.8099H9.83992C9.44992 10.8099 9.12992 10.4899 9.12992 10.0999C9.12992 9.69993 9.44992 9.37993 9.83992 9.37993H16.4999C16.8899 9.37993 17.2099 9.69993 17.2099 10.0999C17.2099 10.4899 16.8899 10.8099 16.4999 10.8099Z" fill="#292D32"/>
</svg>
