<svg width="25" height="24" viewBox="0 0 25 24" fill="none" xmlns="http://www.w3.org/2000/svg">
<path d="M12.6699 2C7.14992 2 2.66992 6.15001 2.66992 11.26C2.66992 14.16 4.10991 16.74 6.34991 18.44V20.29C6.34991 21.06 7.1699 21.54 7.8399 21.16L9.69995 20.11C10.64 20.38 11.6299 20.52 12.6599 20.52C18.1799 20.52 22.6599 16.37 22.6599 11.26C22.6699 6.15001 18.1899 2 12.6699 2ZM16.1799 10.44L13.6799 13.43C13.5199 13.62 13.2599 13.66 13.0499 13.54L12.0399 12.95C11.9299 12.89 11.7999 12.87 11.6699 12.9L9.65991 13.39C9.18991 13.5 8.84991 12.95 9.15991 12.58L11.7 9.56C11.85 9.38 12.1099 9.33 12.3199 9.44L13.4999 10.06C13.6099 10.12 13.7399 10.13 13.8599 10.1L15.6799 9.63C16.1399 9.51 16.4899 10.07 16.1799 10.44Z" fill="black"/>
</svg>
