<svg width="25" height="24" viewBox="0 0 25 24" fill="none" xmlns="http://www.w3.org/2000/svg">
<path d="M17.6699 2.43018H7.66992C4.66992 2.43018 2.66992 4.43018 2.66992 7.43018V13.4302C2.66992 16.4302 4.66992 18.4302 7.66992 18.4302V20.5602C7.66992 21.3602 8.55992 21.8402 9.21992 21.3902L13.6699 18.4302H17.6699C20.6699 18.4302 22.6699 16.4302 22.6699 13.4302V7.43018C22.6699 4.43018 20.6699 2.43018 17.6699 2.43018ZM12.6699 14.6002C12.2499 14.6002 11.9199 14.2602 11.9199 13.8502C11.9199 13.4402 12.2499 13.1002 12.6699 13.1002C13.0899 13.1002 13.4199 13.4402 13.4199 13.8502C13.4199 14.2602 13.0899 14.6002 12.6699 14.6002ZM13.9299 10.4502C13.5399 10.7102 13.4199 10.8802 13.4199 11.1602V11.3702C13.4199 11.7802 13.0799 12.1202 12.6699 12.1202C12.2599 12.1202 11.9199 11.7802 11.9199 11.3702V11.1602C11.9199 10.0002 12.7699 9.43018 13.0899 9.21018C13.4599 8.96018 13.5799 8.79018 13.5799 8.53018C13.5799 8.03018 13.1699 7.62018 12.6699 7.62018C12.1699 7.62018 11.7599 8.03018 11.7599 8.53018C11.7599 8.94018 11.4199 9.28018 11.0099 9.28018C10.5999 9.28018 10.2599 8.94018 10.2599 8.53018C10.2599 7.20018 11.3399 6.12018 12.6699 6.12018C13.9999 6.12018 15.0799 7.20018 15.0799 8.53018C15.0799 9.67018 14.2399 10.2402 13.9299 10.4502Z" fill="#292D32"/>
</svg>
