<svg width="25" height="24" viewBox="0 0 25 24" fill="none" xmlns="http://www.w3.org/2000/svg">
<path d="M21.6399 1H18.6999C17.4299 1 16.6699 1.76 16.6699 3.03V5.97C16.6699 7.24 17.4299 8 18.6999 8H21.6399C22.9099 8 23.6699 7.24 23.6699 5.97V3.03C23.6699 1.76 22.9099 1 21.6399 1ZM22.2799 4.68C21.9099 5.86 20.6199 6.5 20.1699 6.5C19.7199 6.5 18.4399 5.88 18.0599 4.68C17.9999 4.5 17.9699 4.3 17.9699 4.11C17.9699 3.46 18.2999 2.79 18.9899 2.57C19.3999 2.44 19.8399 2.51 20.1499 2.77C20.4699 2.52 20.9099 2.44 21.3299 2.57C22.2499 2.86 22.5399 3.89 22.2799 4.68Z" fill="#292D32"/>
<path d="M18.6999 9.5C16.7499 9.5 15.1699 7.92 15.1699 5.97V3C15.1699 2.45 14.7199 2 14.1699 2H7.66992C4.90992 2 2.66992 4.23 2.66992 6.98V13.95C2.66992 16.71 4.90992 18.95 7.66992 18.95H9.16992C9.44992 18.95 9.80992 19.13 9.96992 19.35L11.4699 21.34C12.1299 22.22 13.2099 22.22 13.8699 21.34L15.3699 19.35C15.5599 19.1 15.8599 18.95 16.1699 18.95H17.6799C20.4399 18.95 22.6699 16.72 22.6699 13.96V10.5C22.6699 9.95 22.2199 9.5 21.6699 9.5H18.6999ZM8.66992 12C8.10992 12 7.66992 11.55 7.66992 11C7.66992 10.45 8.10992 10 8.66992 10C9.21992 10 9.66992 10.45 9.66992 11C9.66992 11.55 9.22992 12 8.66992 12ZM12.6699 12C12.1099 12 11.6699 11.55 11.6699 11C11.6699 10.45 12.1099 10 12.6699 10C13.2199 10 13.6699 10.45 13.6699 11C13.6699 11.55 13.2299 12 12.6699 12Z" fill="#292D32"/>
</svg>
