<svg width="25" height="24" viewBox="0 0 25 24" fill="none" xmlns="http://www.w3.org/2000/svg">
<path d="M5.66992 13.5C4.72992 13.5 3.85992 13.83 3.16992 14.38C2.24992 15.11 1.66992 16.24 1.66992 17.5C1.66992 19.71 3.45992 21.5 5.66992 21.5C6.67992 21.5 7.59992 21.12 8.30992 20.5C9.13992 19.77 9.66992 18.7 9.66992 17.5C9.66992 15.29 7.87992 13.5 5.66992 13.5ZM6.66992 17.75C6.66992 18.01 6.52992 18.26 6.30992 18.39L5.05992 19.14C4.93992 19.22 4.79992 19.25 4.66992 19.25C4.41992 19.25 4.16992 19.12 4.02992 18.89C3.81992 18.53 3.92992 18.07 4.28992 17.86L5.17992 17.33V16.25C5.17992 15.84 5.51992 15.5 5.92992 15.5C6.33992 15.5 6.66992 15.84 6.66992 16.25V17.75Z" fill="#292D32"/>
<path d="M17.9199 2.42993H8.41992C5.56992 2.42993 3.66992 4.32993 3.66992 7.17993V11.6399C3.66992 11.9899 4.02992 12.2399 4.36992 12.1499C4.78992 12.0499 5.21992 11.9999 5.66992 11.9999C8.52992 11.9999 10.8899 14.3199 11.1499 17.1299C11.1699 17.4099 11.3999 17.6299 11.6699 17.6299H12.2199L16.4499 20.4499C17.0699 20.8699 17.9199 20.4099 17.9199 19.6499V17.6299C19.3399 17.6299 20.5299 17.1499 21.3599 16.3299C22.1899 15.4899 22.6699 14.2999 22.6699 12.8799V7.17993C22.6699 4.32993 20.7699 2.42993 17.9199 2.42993ZM16.4999 10.8099H9.83992C9.44992 10.8099 9.12992 10.4899 9.12992 10.0999C9.12992 9.69993 9.44992 9.37993 9.83992 9.37993H16.4999C16.8899 9.37993 17.2099 9.69993 17.2099 10.0999C17.2099 10.4899 16.8899 10.8099 16.4999 10.8099Z" fill="#292D32"/>
</svg>
