<svg width="25" height="24" viewBox="0 0 25 24" fill="none" xmlns="http://www.w3.org/2000/svg">
<path d="M17.6748 3.5H7.6748C4.6748 3.5 2.6748 5 2.6748 8.5V15.5C2.6748 19 4.6748 20.5 7.6748 20.5H17.6748C20.6748 20.5 22.6748 19 22.6748 15.5V8.5C22.6748 5 20.6748 3.5 17.6748 3.5ZM4.4248 8.5C4.4248 6.71 5.8848 5.25 7.6748 5.25H9.1748C9.5848 5.25 9.9248 5.59 9.9248 6C9.9248 6.41 9.5848 6.75 9.1748 6.75H7.6748C6.7148 6.75 5.9248 7.54 5.9248 8.5V10C5.9248 10.41 5.5848 10.75 5.1748 10.75C4.7648 10.75 4.4248 10.41 4.4248 10V8.5ZM9.1748 18.75H7.6748C5.8848 18.75 4.4248 17.29 4.4248 15.5V14C4.4248 13.59 4.7648 13.25 5.1748 13.25C5.5848 13.25 5.9248 13.59 5.9248 14V15.5C5.9248 16.46 6.7148 17.25 7.6748 17.25H9.1748C9.5848 17.25 9.9248 17.59 9.9248 18C9.9248 18.41 9.5848 18.75 9.1748 18.75ZM12.6748 15C11.0148 15 9.6748 13.66 9.6748 12C9.6748 10.34 11.0148 9 12.6748 9C14.3348 9 15.6748 10.34 15.6748 12C15.6748 13.66 14.3348 15 12.6748 15ZM20.9248 15.5C20.9248 17.29 19.4648 18.75 17.6748 18.75H16.1748C15.7648 18.75 15.4248 18.41 15.4248 18C15.4248 17.59 15.7648 17.25 16.1748 17.25H17.6748C18.6348 17.25 19.4248 16.46 19.4248 15.5V14C19.4248 13.59 19.7648 13.25 20.1748 13.25C20.5848 13.25 20.9248 13.59 20.9248 14V15.5ZM20.9248 10C20.9248 10.41 20.5848 10.75 20.1748 10.75C19.7648 10.75 19.4248 10.41 19.4248 10V8.5C19.4248 7.54 18.6348 6.75 17.6748 6.75H16.1748C15.7648 6.75 15.4248 6.41 15.4248 6C15.4248 5.59 15.7648 5.25 16.1748 5.25H17.6748C19.4648 5.25 20.9248 6.71 20.9248 8.5V10Z" fill="#292D32"/>
</svg>
