<svg width="25" height="24" viewBox="0 0 25 24" fill="none" xmlns="http://www.w3.org/2000/svg">
<path d="M17.6719 4H7.67188C4.67188 4 2.67188 5.5 2.67188 9V12.56C2.67188 12.93 3.05188 13.16 3.38188 13.01C4.36188 12.56 5.49188 12.39 6.68188 12.6C9.31188 13.07 11.2419 15.51 11.1719 18.18C11.1619 18.6 11.1019 19.01 10.9919 19.41C10.9119 19.72 11.1619 20.01 11.4819 20.01H17.6719C20.6719 20.01 22.6719 18.51 22.6719 15.01V9C22.6719 5.5 20.6719 4 17.6719 4ZM12.6719 14.5C11.2919 14.5 10.1719 13.38 10.1719 12C10.1719 10.62 11.2919 9.5 12.6719 9.5C14.0519 9.5 15.1719 10.62 15.1719 12C15.1719 13.38 14.0519 14.5 12.6719 14.5ZM19.9219 14C19.9219 14.41 19.5819 14.75 19.1719 14.75C18.7619 14.75 18.4219 14.41 18.4219 14V10C18.4219 9.59 18.7619 9.25 19.1719 9.25C19.5819 9.25 19.9219 9.59 19.9219 10V14Z" fill="#292D32"/>
<path d="M5.67188 14C3.46187 14 1.67188 15.79 1.67188 18C1.67188 18.75 1.88188 19.46 2.25188 20.06C2.94187 21.22 4.21187 22 5.67188 22C7.13188 22 8.40188 21.22 9.09188 20.06C9.46187 19.46 9.67188 18.75 9.67188 18C9.67188 15.79 7.88188 14 5.67188 14ZM7.64187 17.67L5.51188 19.64C5.37188 19.77 5.18187 19.84 5.00187 19.84C4.81187 19.84 4.62188 19.77 4.47187 19.62L3.48187 18.63C3.19187 18.34 3.19187 17.86 3.48187 17.57C3.77187 17.28 4.25187 17.28 4.54187 17.57L5.02187 18.05L6.62187 16.57C6.92188 16.29 7.40188 16.31 7.68188 16.61C7.96188 16.91 7.94187 17.39 7.64187 17.67Z" fill="#292D32"/>
</svg>
