<svg width="25" height="24" viewBox="0 0 25 24" fill="none" xmlns="http://www.w3.org/2000/svg">
<path d="M10.9219 10.03C10.9219 10.57 11.0719 10.65 11.4119 10.77L11.9219 10.95V9.25H11.6219C11.2419 9.25 10.9219 9.6 10.9219 10.03Z" fill="#292D32"/>
<path d="M13.4219 14.75H13.7219C14.1119 14.75 14.4219 14.4 14.4219 13.97C14.4219 13.43 14.2719 13.35 13.9319 13.23L13.4219 13.05V14.75Z" fill="#292D32"/>
<path d="M20.2519 5.48L18.2019 7.53C18.0519 7.68 17.8619 7.75 17.6719 7.75C17.4819 7.75 17.2919 7.68 17.1419 7.53C16.8519 7.24 16.8519 6.76 17.1419 6.47L19.1919 4.42C17.4319 2.92 15.1619 2 12.6719 2C7.15188 2 2.67188 6.48 2.67188 12C2.67188 17.52 7.15188 22 12.6719 22C18.1919 22 22.6719 17.52 22.6719 12C22.6719 9.51 21.7519 7.24 20.2519 5.48ZM14.4219 11.82C15.0619 12.05 15.9219 12.51 15.9219 13.98C15.9219 15.23 14.9319 16.26 13.7219 16.26H13.4219V16.51C13.4219 16.92 13.0819 17.26 12.6719 17.26C12.2619 17.26 11.9219 16.92 11.9219 16.51V16.26H11.8419C10.5119 16.26 9.42188 15.14 9.42188 13.76C9.42188 13.34 9.76188 13 10.1719 13C10.5819 13 10.9219 13.34 10.9219 13.75C10.9219 14.3 11.3319 14.75 11.8419 14.75H11.9219V12.53L10.9219 12.18C10.2819 11.95 9.42188 11.49 9.42188 10.02C9.42188 8.77 10.4119 7.74 11.6219 7.74H11.9219V7.5C11.9219 7.09 12.2619 6.75 12.6719 6.75C13.0819 6.75 13.4219 7.09 13.4219 7.5V7.75H13.5019C14.8319 7.75 15.9219 8.87 15.9219 10.25C15.9219 10.66 15.5819 11 15.1719 11C14.7619 11 14.4219 10.66 14.4219 10.25C14.4219 9.7 14.0119 9.25 13.5019 9.25H13.4219V11.47L14.4219 11.82Z" fill="#292D32"/>
<path d="M23.3619 1.71C23.2819 1.53 23.1419 1.38 22.9519 1.3C22.8619 1.27 22.7719 1.25 22.6719 1.25H18.6719C18.2619 1.25 17.9219 1.59 17.9219 2C17.9219 2.41 18.2619 2.75 18.6719 2.75H20.8619L19.1919 4.42C19.5719 4.75 19.9219 5.1 20.2519 5.48L21.9219 3.81V6C21.9219 6.41 22.2619 6.75 22.6719 6.75C23.0819 6.75 23.4219 6.41 23.4219 6V2C23.4219 1.9 23.4019 1.81 23.3619 1.71Z" fill="#292D32"/>
</svg>
