<svg width="25" height="24" viewBox="0 0 25 24" fill="none" xmlns="http://www.w3.org/2000/svg">
<path d="M17.6719 4H7.67188C4.67188 4 2.67188 5.5 2.67188 9V12.56C2.67188 12.93 3.05188 13.16 3.38188 13.01C4.36188 12.56 5.49188 12.39 6.68188 12.6C9.31188 13.07 11.2419 15.51 11.1719 18.18C11.1619 18.6 11.1019 19.01 10.9919 19.41C10.9119 19.72 11.1619 20.01 11.4819 20.01H17.6719C20.6719 20.01 22.6719 18.51 22.6719 15.01V9C22.6719 5.5 20.6719 4 17.6719 4ZM12.6719 14.5C11.2919 14.5 10.1719 13.38 10.1719 12C10.1719 10.62 11.2919 9.5 12.6719 9.5C14.0519 9.5 15.1719 10.62 15.1719 12C15.1719 13.38 14.0519 14.5 12.6719 14.5ZM19.9219 14C19.9219 14.41 19.5819 14.75 19.1719 14.75C18.7619 14.75 18.4219 14.41 18.4219 14V10C18.4219 9.59 18.7619 9.25 19.1719 9.25C19.5819 9.25 19.9219 9.59 19.9219 10V14Z" fill="#292D32"/>
<path d="M5.67188 14C4.42188 14 3.29188 14.59 2.56187 15.49C2.00187 16.18 1.67188 17.05 1.67188 18C1.67188 20.21 3.47187 22 5.67188 22C7.41187 22 8.90188 20.89 9.44188 19.33C9.59188 18.92 9.67188 18.47 9.67188 18C9.67188 15.8 7.88188 14 5.67188 14ZM8.03188 19.74C8.01188 19.8 7.97188 19.86 7.93188 19.9L7.21187 20.61C7.12187 20.71 7.00187 20.75 6.87187 20.75C6.74187 20.75 6.61188 20.71 6.52187 20.61C6.36188 20.46 6.34188 20.22 6.44187 20.04H4.43187C3.79187 20.04 3.27187 19.52 3.27187 18.87V18.77C3.27187 18.49 3.49187 18.28 3.76187 18.28C4.03187 18.28 4.25187 18.49 4.25187 18.77V18.87C4.25187 18.98 4.33188 19.07 4.44187 19.07H6.45188C6.35188 18.88 6.37188 18.65 6.53188 18.49C6.72188 18.3 7.03188 18.3 7.21187 18.49L7.93188 19.21C7.97188 19.25 8.01187 19.31 8.04187 19.37C8.08187 19.48 8.08188 19.62 8.03188 19.74ZM8.07188 17.23C8.07188 17.51 7.85187 17.72 7.58187 17.72C7.31187 17.72 7.09188 17.51 7.09188 17.23V17.13C7.09188 17.02 7.01188 16.93 6.90188 16.93H4.90188C5.00187 17.12 4.98188 17.35 4.82188 17.51C4.73188 17.6 4.61188 17.65 4.47187 17.65C4.35188 17.65 4.22187 17.6 4.13188 17.51L3.41188 16.79C3.37188 16.75 3.33188 16.69 3.30188 16.63C3.26188 16.51 3.26188 16.38 3.30188 16.26C3.33188 16.21 3.36188 16.14 3.41188 16.1L4.13188 15.39C4.32188 15.19 4.63187 15.19 4.81187 15.39C4.97187 15.54 4.99187 15.78 4.89187 15.96H6.90188C7.54187 15.96 8.06187 16.48 8.06187 17.13V17.23H8.07188Z" fill="#292D32"/>
</svg>
