<svg width="25" height="24" viewBox="0 0 25 24" fill="none" xmlns="http://www.w3.org/2000/svg">
<path d="M17.6719 4H7.67188C4.67188 4 2.67188 5.5 2.67188 9V12.56C2.67188 12.93 3.05188 13.16 3.38188 13.01C4.36188 12.56 5.49188 12.39 6.68188 12.6C9.31188 13.07 11.2419 15.51 11.1719 18.18C11.1619 18.6 11.1019 19.01 10.9919 19.41C10.9119 19.72 11.1619 20.01 11.4819 20.01H17.6719C20.6719 20.01 22.6719 18.51 22.6719 15.01V9C22.6719 5.5 20.6719 4 17.6719 4ZM12.6719 14.5C11.2919 14.5 10.1719 13.38 10.1719 12C10.1719 10.62 11.2919 9.5 12.6719 9.5C14.0519 9.5 15.1719 10.62 15.1719 12C15.1719 13.38 14.0519 14.5 12.6719 14.5ZM19.9219 14C19.9219 14.41 19.5819 14.75 19.1719 14.75C18.7619 14.75 18.4219 14.41 18.4219 14V10C18.4219 9.59 18.7619 9.25 19.1719 9.25C19.5819 9.25 19.9219 9.59 19.9219 10V14Z" fill="#292D32"/>
<path d="M5.67188 14C4.47187 14 3.40188 14.53 2.67188 15.36C2.05187 16.07 1.67188 16.99 1.67188 18C1.67188 18.75 1.88188 19.46 2.25188 20.06C2.94187 21.22 4.21187 22 5.67188 22C6.68188 22 7.60188 21.63 8.30188 21C8.61188 20.74 8.88188 20.42 9.09188 20.06C9.46187 19.46 9.67188 18.75 9.67188 18C9.67188 15.79 7.88188 14 5.67188 14ZM7.27187 19.58C7.12187 19.73 6.93188 19.8 6.74188 19.8C6.55188 19.8 6.36188 19.73 6.21187 19.58L5.68188 19.05L5.13188 19.6C4.98187 19.75 4.79188 19.82 4.60188 19.82C4.41188 19.82 4.22188 19.75 4.07188 19.6C3.78188 19.31 3.78188 18.83 4.07188 18.54L4.62188 17.99L4.09188 17.46C3.80188 17.17 3.80188 16.69 4.09188 16.4C4.38188 16.11 4.86188 16.11 5.15188 16.4L5.68188 16.93L6.18188 16.43C6.47188 16.14 6.95188 16.14 7.24188 16.43C7.53188 16.72 7.53188 17.2 7.24188 17.49L6.74188 17.99L7.27187 18.52C7.56187 18.81 7.56187 19.28 7.27187 19.58Z" fill="#292D32"/>
</svg>
