<svg width="25" height="24" viewBox="0 0 25 24" fill="none" xmlns="http://www.w3.org/2000/svg">
<path d="M17.6719 4H7.67188C4.67188 4 2.67188 5.5 2.67188 9V12.56C2.67188 12.93 3.05188 13.16 3.38188 13.01C4.36188 12.56 5.49188 12.39 6.68188 12.6C9.31188 13.07 11.2419 15.51 11.1719 18.18C11.1619 18.6 11.1019 19.01 10.9919 19.41C10.9119 19.72 11.1619 20.01 11.4819 20.01H17.6719C20.6719 20.01 22.6719 18.51 22.6719 15.01V9C22.6719 5.5 20.6719 4 17.6719 4ZM12.6719 14.5C11.2919 14.5 10.1719 13.38 10.1719 12C10.1719 10.62 11.2919 9.5 12.6719 9.5C14.0519 9.5 15.1719 10.62 15.1719 12C15.1719 13.38 14.0519 14.5 12.6719 14.5ZM19.9219 14C19.9219 14.41 19.5819 14.75 19.1719 14.75C18.7619 14.75 18.4219 14.41 18.4219 14V10C18.4219 9.59 18.7619 9.25 19.1719 9.25C19.5819 9.25 19.9219 9.59 19.9219 10V14Z" fill="#292D32"/>
<path d="M5.67188 14C3.46187 14 1.67188 15.79 1.67188 18C1.67188 18.75 1.88188 19.46 2.25188 20.06C2.94187 21.22 4.21187 22 5.67188 22C7.13188 22 8.40188 21.22 9.09188 20.06C9.46187 19.46 9.67188 18.75 9.67188 18C9.67188 15.79 7.88188 14 5.67188 14ZM7.16187 18.73H6.42188V19.51C6.42188 19.92 6.08187 20.26 5.67188 20.26C5.26187 20.26 4.92188 19.92 4.92188 19.51V18.73H4.18187C3.77187 18.73 3.43187 18.39 3.43187 17.98C3.43187 17.57 3.77187 17.23 4.18187 17.23H4.92188V16.52C4.92188 16.11 5.26187 15.77 5.67188 15.77C6.08187 15.77 6.42188 16.11 6.42188 16.52V17.23H7.16187C7.57187 17.23 7.91187 17.57 7.91187 17.98C7.91187 18.39 7.58187 18.73 7.16187 18.73Z" fill="#292D32"/>
</svg>
