<svg width="25" height="24" viewBox="0 0 25 24" fill="none" xmlns="http://www.w3.org/2000/svg">
<path d="M18.2299 2H7.07992C4.64992 2 2.66992 3.98 2.66992 6.41V12.91V13.11C2.66992 15.55 4.64992 17.52 7.07992 17.52H10.9199C11.4699 17.52 11.9199 17.97 11.9199 18.52V19.49C11.9199 20.04 11.4699 20.49 10.9199 20.49H8.49992C8.08992 20.49 7.74992 20.83 7.74992 21.24C7.74992 21.65 8.07992 22 8.49992 22H16.8499C17.2599 22 17.5999 21.66 17.5999 21.25C17.5999 20.84 17.2599 20.5 16.8499 20.5H14.4299C13.8799 20.5 13.4299 20.05 13.4299 19.5V18.53C13.4299 17.98 13.8799 17.53 14.4299 17.53H18.2399C20.6799 17.53 22.6499 15.55 22.6499 13.12V12.92V6.42C22.6399 3.98 20.6599 2 18.2299 2Z" fill="#292D32"/>
</svg>
