<svg width="25" height="24" viewBox="0 0 25 24" fill="none" xmlns="http://www.w3.org/2000/svg">
<path d="M22.1996 15.9301C22.0396 15.6601 21.5896 15.2401 20.4696 15.4401C19.8496 15.5501 19.2196 15.6001 18.5896 15.5701C16.2596 15.4701 14.1496 14.4001 12.6796 12.7501C11.3796 11.3001 10.5796 9.41012 10.5696 7.37012C10.5696 6.23012 10.7896 5.13012 11.2396 4.09012C11.6796 3.08012 11.3696 2.55012 11.1496 2.33012C10.9196 2.10012 10.3796 1.78012 9.31963 2.22012C5.22963 3.94012 2.69963 8.04012 2.99963 12.4301C3.29963 16.5601 6.19963 20.0901 10.0396 21.4201C10.9596 21.7401 11.9296 21.9301 12.9296 21.9701C13.0896 21.9801 13.2496 21.9901 13.4096 21.9901C16.7596 21.9901 19.8996 20.4101 21.8796 17.7201C22.5496 16.7901 22.3696 16.2001 22.1996 15.9301Z" fill="#292D32"/>
</svg>
