<svg width="25" height="24" viewBox="0 0 25 24" fill="none" xmlns="http://www.w3.org/2000/svg">
<path opacity="0.97" d="M16.8599 2H8.47992C4.83992 2 2.66992 4.17 2.66992 7.81V16.18C2.66992 19.83 4.83992 22 8.47992 22H16.8499C20.4899 22 22.6599 19.83 22.6599 16.19V7.81C22.6699 4.17 20.4999 2 16.8599 2ZM8.97992 16.31C8.25992 16.31 7.66992 15.72 7.66992 15C7.66992 14.28 8.25992 13.69 8.97992 13.69C9.69992 13.69 10.2899 14.28 10.2899 15C10.2899 15.72 9.69992 16.31 8.97992 16.31ZM12.6699 10.31C11.9499 10.31 11.3599 9.72 11.3599 9C11.3599 8.28 11.9499 7.69 12.6699 7.69C13.3899 7.69 13.9799 8.28 13.9799 9C13.9799 9.72 13.3899 10.31 12.6699 10.31ZM16.3599 16.31C15.6399 16.31 15.0499 15.72 15.0499 15C15.0499 14.28 15.6399 13.69 16.3599 13.69C17.0799 13.69 17.6699 14.28 17.6699 15C17.6699 15.72 17.0799 16.31 16.3599 16.31Z" fill="#292D32"/>
</svg>
