<svg width="25" height="24" viewBox="0 0 25 24" fill="none" xmlns="http://www.w3.org/2000/svg">
<path d="M7.66992 3.25V20.75C7.66992 21.39 7.05992 21.9 6.43992 21.73C4.03992 21.05 2.66992 19.09 2.66992 16.19V7.81C2.66992 4.91 4.03992 2.95 6.43992 2.27C7.05992 2.1 7.66992 2.6 7.66992 3.25Z" fill="#292D32"/>
<path d="M13.14 14.37C12.76 14.37 12.46 14.68 12.46 15.05C12.46 15.42 12.77 15.73 13.14 15.73C13.52 15.73 13.83 15.42 13.83 15.05C13.83 14.68 13.52 14.37 13.14 14.37Z" fill="#292D32"/>
<path d="M18.19 13.45C17.81 13.45 17.5 13.76 17.5 14.14C17.5 14.52 17.81 14.82 18.19 14.82C18.57 14.82 18.88 14.51 18.88 14.14C18.88 13.77 18.57 13.45 18.19 13.45Z" fill="#292D32"/>
<path d="M16.8599 2H10.1699C9.61992 2 9.16992 2.45 9.16992 3V21C9.16992 21.55 9.61992 22 10.1699 22H16.8599C20.0699 22 22.6699 19.4 22.6699 16.19V7.81C22.6699 4.6 20.0699 2 16.8599 2ZM20.2699 9.74V14.14C20.2699 14.15 20.2599 14.16 20.2599 14.17C20.2399 15.3 19.3199 16.21 18.1899 16.21C17.0499 16.21 16.1199 15.28 16.1199 14.14C16.1199 13 17.0499 12.07 18.1899 12.07C18.4299 12.07 18.6599 12.12 18.8799 12.2V10.65L15.2099 11.65V15.07C15.2099 15.08 15.1999 15.09 15.1999 15.1C15.1799 16.23 14.2599 17.14 13.1299 17.14C11.9899 17.14 11.0599 16.21 11.0599 15.07C11.0599 13.93 11.9899 13 13.1299 13C13.3699 13 13.5999 13.05 13.8199 13.13V11.13V9.5C13.8199 8.64 14.3499 7.94 15.1799 7.73L17.9299 6.97C18.7899 6.74 19.3199 6.97 19.6199 7.2C20.0499 7.53 20.2599 8.05 20.2599 8.75V9.74H20.2699Z" fill="#292D32"/>
</svg>
