<svg width="25" height="24" viewBox="0 0 25 24" fill="none" xmlns="http://www.w3.org/2000/svg">
<path d="M15.2096 13.67C14.8496 13.67 14.5596 13.96 14.5596 14.32C14.5596 14.68 14.8496 14.97 15.2096 14.97C15.5696 14.97 15.8596 14.68 15.8596 14.32C15.8496 13.96 15.5596 13.67 15.2096 13.67Z" fill="#292D32"/>
<path d="M9.73008 14.66C9.37008 14.66 9.08008 14.95 9.08008 15.31C9.08008 15.67 9.37008 15.96 9.73008 15.96C10.0901 15.96 10.3801 15.67 10.3801 15.31C10.3801 14.95 10.0901 14.66 9.73008 14.66Z" fill="#292D32"/>
<path d="M16.8599 2H8.47992C4.83992 2 2.66992 4.17 2.66992 7.81V16.18C2.66992 19.83 4.83992 22 8.47992 22H16.8499C20.4899 22 22.6599 19.83 22.6599 16.19V7.81C22.6699 4.17 20.4999 2 16.8599 2ZM17.5499 9.55V14.31C17.5499 15.6 16.4999 16.65 15.2099 16.65C13.9199 16.65 12.8699 15.6 12.8699 14.31C12.8699 13.02 13.9199 11.97 15.2099 11.97C15.4399 11.97 15.6499 12.01 15.8599 12.07V10.65L12.0799 11.68V15.3C12.0799 15.31 12.0699 15.32 12.0699 15.33C12.0599 16.61 11.0099 17.64 9.72992 17.64C8.43992 17.64 7.38992 16.59 7.38992 15.3C7.38992 14.01 8.43992 12.96 9.72992 12.96C9.95992 12.96 10.1699 13 10.3799 13.06V11.03V9.29C10.3799 8.32 10.9799 7.53 11.9199 7.28L14.9099 6.46C15.8699 6.2 16.4699 6.45 16.8099 6.71C17.1399 6.97 17.5499 7.48 17.5499 8.48V9.55Z" fill="#292D32"/>
</svg>
