<svg width="25" height="24" viewBox="0 0 25 24" fill="none" xmlns="http://www.w3.org/2000/svg">
<path d="M22.3896 6.28001V7.45001C22.3896 8.43001 21.9996 9.27001 21.3096 9.76001C20.8796 10.08 20.3496 10.23 19.7996 10.23C19.4596 10.23 19.1196 10.18 18.7696 10.06L13.3896 8.27001V18C13.3896 20.62 11.2596 22.75 8.63965 22.75C6.01965 22.75 3.88965 20.62 3.88965 18C3.88965 15.38 6.01965 13.25 8.63965 13.25C9.89965 13.25 11.0396 13.75 11.8896 14.55V4.00001C11.8896 3.03001 12.2896 2.19001 12.9796 1.69001C13.6696 1.20001 14.5896 1.09001 15.5096 1.39001L19.9296 2.87001C21.2896 3.32001 22.3896 4.85001 22.3896 6.28001Z" fill="#292D32"/>
</svg>
