<svg width="25" height="24" viewBox="0 0 25 24" fill="none" xmlns="http://www.w3.org/2000/svg">
<path d="M21.5603 5.18001V16.48C21.5603 18.46 19.9503 20.07 17.9703 20.07C16.0003 20.07 14.3803 18.46 14.3803 16.48C14.3803 14.51 16.0003 12.9 17.9703 12.9C18.8103 12.9 19.5603 13.19 20.1703 13.67V7.72001L10.9603 10.34V18.41C10.9603 20.39 9.34027 22 7.37027 22C5.39027 22 3.78027 20.39 3.78027 18.41C3.78027 16.44 5.39027 14.83 7.37027 14.83C8.20027 14.83 8.95027 15.12 9.56027 15.59V6.75001C9.56027 5.28001 10.4503 4.14001 11.8603 3.76001L17.6403 2.18001C18.8103 1.86001 19.8003 1.97001 20.5003 2.51001C21.2103 3.04001 21.5603 3.94001 21.5603 5.18001Z" fill="#292D32"/>
</svg>
