<svg width="25" height="24" viewBox="0 0 25 24" fill="none" xmlns="http://www.w3.org/2000/svg">
<path d="M12.6699 2C7.14992 2 2.66992 6.48 2.66992 12C2.66992 17.52 7.14992 22 12.6699 22C18.1899 22 22.6699 17.52 22.6699 12C22.6699 6.48 18.1899 2 12.6699 2ZM14.1699 14.75L13.8599 14.65L13.6699 15.25L12.6699 18.25L10.1699 13.57L10.0699 13.38L6.66992 12.25L8.84991 11.16L10.6699 10.25L11.1399 10.04L12.6699 5.25L14.2199 8.64999L15.1699 10.75L14.7599 10.96L18.6699 12.25L14.1699 14.75Z" fill="black"/>
</svg>
