<svg width="25" height="24" viewBox="0 0 25 24" fill="none" xmlns="http://www.w3.org/2000/svg">
<path d="M14.22 20.1599C13.96 20.2699 13.68 20.3699 13.38 20.4699L11.8 20.9899C7.83002 22.2699 5.74002 21.1999 4.45002 17.2299L3.17002 13.2799C1.89002 9.30992 2.95002 7.20992 6.92002 5.92992L8.46002 5.41992C8.27002 5.89992 8.11002 6.44992 7.96002 7.06992L6.98002 11.2599C5.88002 15.9699 7.49002 18.5699 12.2 19.6899L13.88 20.0899C13.99 20.1199 14.11 20.1399 14.22 20.1599Z" fill="#292D32"/>
<path d="M17.8399 3.21001L16.1699 2.82001C12.8299 2.03001 10.8399 2.68001 9.66986 5.10001C9.36986 5.71001 9.12986 6.45001 8.92986 7.30001L7.94986 11.49C6.96986 15.67 8.25986 17.73 12.4299 18.72L14.1099 19.12C14.6899 19.26 15.2299 19.35 15.7299 19.39C18.8499 19.69 20.5099 18.23 21.3499 14.62L22.3299 10.44C23.3099 6.26001 22.0299 4.19001 17.8399 3.21001Z" fill="#292D32"/>
</svg>
