<svg width="25" height="24" viewBox="0 0 25 24" fill="none" xmlns="http://www.w3.org/2000/svg">
<path d="M13.3477 19.957C13.6224 20.0209 13.6476 20.3807 13.38 20.4699L11.8 20.9899C7.83002 22.2699 5.74002 21.1999 4.45002 17.2299L3.17002 13.2799C1.89002 9.30992 2.95002 7.20992 6.92002 5.92992L7.44402 5.75639C7.84688 5.62297 8.23895 6.02703 8.12455 6.43571C8.06785 6.63828 8.0133 6.84968 7.96002 7.06992L6.98002 11.2599C5.88002 15.9699 7.49002 18.5699 12.2 19.6899L13.3477 19.957Z" fill="#292D32"/>
<path d="M17.8399 3.21001L16.1699 2.82001C12.8299 2.03001 10.8399 2.68001 9.66986 5.10001C9.36986 5.71001 9.12986 6.45001 8.92986 7.30001L7.94986 11.49C6.96986 15.67 8.25986 17.73 12.4299 18.72L14.1099 19.12C14.6899 19.26 15.2299 19.35 15.7299 19.39C18.8499 19.69 20.5099 18.23 21.3499 14.62L22.3299 10.44C23.3099 6.26001 22.0299 4.19001 17.8399 3.21001ZM15.9599 13.33C15.8699 13.67 15.5699 13.89 15.2299 13.89C15.1699 13.89 15.1099 13.88 15.0399 13.87L12.1299 13.13C11.7299 13.03 11.4899 12.62 11.5899 12.22C11.6899 11.82 12.0999 11.58 12.4999 11.68L15.4099 12.42C15.8199 12.52 16.0599 12.93 15.9599 13.33ZM18.8899 9.95001C18.7999 10.29 18.4999 10.51 18.1599 10.51C18.0999 10.51 18.0399 10.5 17.9699 10.49L13.1199 9.26001C12.7199 9.16001 12.4799 8.75001 12.5799 8.35001C12.6799 7.95001 13.0899 7.71001 13.4899 7.81001L18.3399 9.04001C18.7499 9.13001 18.9899 9.54001 18.8899 9.95001Z" fill="#292D32"/>
</svg>
