<svg width="25" height="24" viewBox="0 0 25 24" fill="none" xmlns="http://www.w3.org/2000/svg">
<path d="M20.8601 14.0598L19.7301 12.1798C19.4801 11.7698 19.2601 10.9798 19.2601 10.4998V8.6298C19.2601 4.9998 16.3101 2.0498 12.6901 2.0498C9.06013 2.0598 6.11012 4.9998 6.11012 8.6298V10.4898C6.11012 10.9698 5.89012 11.7598 5.65012 12.1698L4.52012 14.0498C4.09012 14.7798 3.99012 15.6098 4.26012 16.3298C4.53012 17.0598 5.14012 17.6398 5.94012 17.8998C7.02012 18.2598 8.11012 18.5198 9.22012 18.7098C9.33012 18.7298 9.44012 18.7398 9.55012 18.7598C9.69012 18.7798 9.84012 18.7998 9.99012 18.8198C10.2501 18.8598 10.5101 18.8898 10.7801 18.9098C11.4101 18.9698 12.0501 18.9998 12.6901 18.9998C13.3201 18.9998 13.9501 18.9698 14.5701 18.9098C14.8001 18.8898 15.0301 18.8698 15.2501 18.8398C15.4301 18.8198 15.6101 18.7998 15.7901 18.7698C15.9001 18.7598 16.0101 18.7398 16.1201 18.7198C17.2401 18.5398 18.3501 18.2598 19.4301 17.8998C20.2001 17.6398 20.7901 17.0598 21.0701 16.3198C21.3501 15.5698 21.2701 14.7498 20.8601 14.0598ZM13.4201 9.9998C13.4201 10.4198 13.0801 10.7598 12.6601 10.7598C12.2401 10.7598 11.9001 10.4198 11.9001 9.9998V6.89981C11.9001 6.4798 12.2401 6.1398 12.6601 6.1398C13.0801 6.1398 13.4201 6.4798 13.4201 6.89981V9.9998Z" fill="#292D32"/>
<path d="M15.5001 20.01C15.0801 21.17 13.9701 22 12.6701 22C11.8801 22 11.1001 21.68 10.5501 21.11C10.2301 20.81 9.9901 20.41 9.8501 20C9.9801 20.02 10.1101 20.03 10.2501 20.05C10.4801 20.08 10.7201 20.11 10.9601 20.13C11.5301 20.18 12.1101 20.21 12.6901 20.21C13.2601 20.21 13.8301 20.18 14.3901 20.13C14.6001 20.11 14.8101 20.1 15.0101 20.07C15.1701 20.05 15.3301 20.03 15.5001 20.01Z" fill="#292D32"/>
</svg>
