<svg width="25" height="24" viewBox="0 0 25 24" fill="none" xmlns="http://www.w3.org/2000/svg">
<path d="M12.6699 2C7.14992 2 2.66992 6.48 2.66992 12C2.66992 17.52 7.14992 22 12.6699 22C18.1899 22 22.6699 17.52 22.6699 12C22.6699 6.48 18.1899 2 12.6699 2ZM12.6699 7.12C13.9799 7.12 15.0499 8.19 15.0499 9.5C15.0499 10.81 13.9799 11.88 12.6699 11.88C11.3599 11.88 10.2899 10.81 10.2899 9.5C10.2899 8.19 11.3599 7.12 12.6699 7.12ZM15.1399 17.09C14.9999 17.2 14.8399 17.25 14.6799 17.25C14.4599 17.25 14.2399 17.15 14.0899 16.97L12.6799 15.19L11.2699 16.97C11.0199 17.29 10.5399 17.35 10.2199 17.09C9.89991 16.83 9.83991 16.36 10.0999 16.04L11.2899 14.53C10.9699 14.44 10.6499 14.33 10.3499 14.18C9.97991 13.99 9.8299 13.54 10.0199 13.17C10.1999 12.8 10.6499 12.65 11.0299 12.84C12.0699 13.36 13.3099 13.36 14.3499 12.84C14.7099 12.66 15.1699 12.8 15.3499 13.16C15.5399 13.52 15.4099 13.97 15.0499 14.16C14.7399 14.32 14.4099 14.43 14.0799 14.52L15.2799 16.03C15.5099 16.36 15.4599 16.83 15.1399 17.09Z" fill="black"/>
</svg>
