<svg width="25" height="24" viewBox="0 0 25 24" fill="none" xmlns="http://www.w3.org/2000/svg">
<path d="M16.8619 2H8.48187C4.84187 2 2.67188 4.17 2.67188 7.81V16.18C2.67188 19.83 4.84187 22 8.48187 22H16.8519C20.4919 22 22.6619 19.83 22.6619 16.19V7.81C22.6719 4.17 20.5019 2 16.8619 2ZM17.0419 14.63L14.8219 16.85C14.2819 17.39 13.5819 17.65 12.8819 17.65C12.1819 17.65 11.4719 17.38 10.9419 16.85C9.87188 15.78 9.87188 14.03 10.9419 12.96L12.3519 11.55C12.6419 11.26 13.1219 11.26 13.4119 11.55C13.7019 11.84 13.7019 12.32 13.4119 12.61L12.0019 14.02C11.5119 14.51 11.5119 15.3 12.0019 15.79C12.4919 16.28 13.2819 16.28 13.7719 15.79L15.9919 13.57C16.6019 12.96 16.9419 12.14 16.9419 11.27C16.9419 10.4 16.6019 9.59 15.9919 8.97C14.7619 7.74 12.6219 7.74 11.3919 8.97L8.96187 11.4C7.92188 12.44 7.92188 14.14 8.96187 15.19C9.25187 15.48 9.25187 15.96 8.96187 16.25C8.67188 16.54 8.19187 16.54 7.90188 16.25C6.27187 14.62 6.27187 11.97 7.90188 10.34L10.3219 7.92C11.2219 7.02 12.4119 6.53 13.6819 6.53C14.9519 6.53 16.1419 7.02 17.0419 7.92C17.9419 8.82 18.4319 10.01 18.4319 11.28C18.4319 12.55 17.9419 13.74 17.0419 14.63Z" fill="#292D32"/>
</svg>
