<svg width="25" height="24" viewBox="0 0 25 24" fill="none" xmlns="http://www.w3.org/2000/svg">
<path d="M18.6699 4H16.4199V2.75C16.4199 2.34 16.0799 2 15.6699 2C15.2599 2 14.9199 2.34 14.9199 2.75V21.25C14.9199 21.66 15.2599 22 15.6699 22C16.0799 22 16.4199 21.66 16.4199 21.25V20H18.6699C20.8799 20 22.6699 18.21 22.6699 16V8C22.6699 5.79 20.8799 4 18.6699 4Z" fill="#292D32"/>
<path d="M7.16992 4C4.95992 4 3.16992 5.79 3.16992 8V16C3.16992 18.21 4.95992 20 7.16992 20H12.1699C12.7199 20 13.1699 19.55 13.1699 19V5C13.1699 4.45 12.7199 4 12.1699 4H7.16992ZM7.33992 12.38C7.28992 12.5 7.21992 12.61 7.12992 12.71C7.02992 12.8 6.91992 12.87 6.79992 12.92C6.67992 12.97 6.54992 13 6.41992 13C6.28992 13 6.15992 12.97 6.03992 12.92C5.91992 12.87 5.80992 12.8 5.70992 12.71C5.61992 12.61 5.54992 12.5 5.48992 12.38C5.43992 12.26 5.41992 12.13 5.41992 12C5.41992 11.74 5.52992 11.48 5.70992 11.29C5.75992 11.25 5.80992 11.21 5.85992 11.17C5.91992 11.13 5.97992 11.1 6.03992 11.08C6.09992 11.05 6.15992 11.03 6.21992 11.02C6.55992 10.95 6.89992 11.06 7.12992 11.29C7.30992 11.48 7.41992 11.74 7.41992 12C7.41992 12.13 7.38992 12.26 7.33992 12.38ZM10.8399 12.38C10.7899 12.5 10.7199 12.61 10.6299 12.71C10.5299 12.8 10.4199 12.87 10.2999 12.92C10.1799 12.97 10.0499 13 9.91992 13C9.78992 13 9.65992 12.97 9.53992 12.92C9.41992 12.87 9.30992 12.8 9.20992 12.71C9.01992 12.52 8.91992 12.27 8.91992 12C8.91992 11.87 8.94992 11.74 8.99992 11.62C9.04992 11.49 9.11992 11.39 9.20992 11.29C9.57992 10.92 10.2499 10.92 10.6299 11.29C10.8099 11.48 10.9199 11.74 10.9199 12C10.9199 12.13 10.8899 12.26 10.8399 12.38Z" fill="#292D32"/>
</svg>
