<svg width="25" height="24" viewBox="0 0 25 24" fill="none" xmlns="http://www.w3.org/2000/svg">
<path d="M20.6898 10.6999L18.5698 12.0399C18.1698 12.2899 17.6598 12.2299 17.3298 11.8999L12.7998 7.36992C12.4698 7.03992 12.4098 6.52992 12.6598 6.12992L13.9998 4.00992C14.8198 2.71992 16.4598 2.65992 17.6698 3.85992L20.8498 7.03992C21.9698 8.16992 21.8998 9.92992 20.6898 10.6999Z" fill="#292D32"/>
<path d="M15.3796 19.95L6.65958 20.97C6.58191 20.9804 6.50524 20.9877 6.42964 20.9921C5.7445 21.0325 5.57463 20.2249 6.05993 19.7396L8.64958 17.15C8.96958 16.84 8.96958 16.35 8.64958 16.04C8.34958 15.73 7.85958 15.73 7.53958 16.04L4.94993 18.6296C4.46463 19.1149 3.6645 18.9444 3.70092 18.259C3.70474 18.1871 3.71094 18.1141 3.71958 18.04L4.74958 9.32C5.00958 7.14 5.80958 6.42 8.10958 6.56L9.60958 6.65C10.0996 6.68 10.5596 6.89 10.9096 7.24L17.4596 13.79C17.8096 14.14 18.0196 14.6 18.0396 15.09L18.1296 16.59C18.3596 18.9 17.5696 19.7 15.3796 19.95Z" fill="#292D32"/>
</svg>
