<svg width="25" height="24" viewBox="0 0 25 24" fill="none" xmlns="http://www.w3.org/2000/svg">
<path d="M16.8599 2H8.47992C4.83992 2 2.66992 4.17 2.66992 7.81V16.18C2.66992 19.83 4.83992 22 8.47992 22H16.8499C20.4899 22 22.6599 19.83 22.6599 16.19V7.81C22.6699 4.17 20.4999 2 16.8599 2ZM17.3299 11.25L15.7099 12.27L15.8499 14.67C15.9799 16.01 15.5199 16.47 14.2499 16.62L9.17992 17.22C8.90168 17.2579 8.80724 16.9427 9.00581 16.7441L10.5499 15.2C10.8399 14.91 10.8399 14.43 10.5499 14.14C10.2499 13.85 9.77992 13.85 9.47992 14.14L7.9447 15.683C7.74691 15.8818 7.43203 15.7879 7.46992 15.51L8.05992 10.44C8.21992 9.17 8.67992 8.76 10.0199 8.84L12.4099 8.98L13.4399 7.35C13.9099 6.61 14.8699 6.57 15.5699 7.27L17.4199 9.12C18.0799 9.77 18.0399 10.8 17.3299 11.25Z" fill="#292D32"/>
</svg>
