<svg width="25" height="24" viewBox="0 0 25 24" fill="none" xmlns="http://www.w3.org/2000/svg">
<path d="M12.6396 2C7.11965 2 2.63965 6.48 2.63965 12C2.63965 17.52 7.11965 22 12.6396 22C18.1596 22 22.6396 17.52 22.6396 12C22.6396 6.48 18.1696 2 12.6396 2ZM11.3896 15.03C11.3896 15.51 11.1896 15.7 10.6796 15.7H9.37965C8.86965 15.7 8.66965 15.51 8.66965 15.03V8.97C8.66965 8.49 8.86965 8.3 9.37965 8.3H10.6696C11.1796 8.3 11.3796 8.49 11.3796 8.97V15.03H11.3896ZM16.6696 15.03C16.6696 15.51 16.4696 15.7 15.9596 15.7H14.6696C14.1596 15.7 13.9596 15.51 13.9596 15.03V8.97C13.9596 8.49 14.1596 8.3 14.6696 8.3H15.9596C16.4696 8.3 16.6696 8.49 16.6696 8.97V15.03Z" fill="#292D32"/>
</svg>
