<svg width="25" height="24" viewBox="0 0 25 24" fill="none" xmlns="http://www.w3.org/2000/svg">
<path d="M19.6701 7C19.6701 7.18 19.6601 7.34999 19.6401 7.51999C19.5201 8.96999 18.8801 10.28 17.9101 11.24C16.8301 12.33 15.3301 13 13.6701 13H10.5401C10.0401 13 9.62014 13.37 9.55014 13.86L8.79013 19.14C8.73013 19.53 8.45014 19.85 8.08014 19.95C7.99014 19.99 7.90014 20 7.80014 20H5.85013C5.23013 20 4.76014 19.45 4.86014 18.84L7.25012 4.51001C7.49012 3.06001 8.74014 2 10.2101 2H14.6701C17.4301 2 19.6701 4.24 19.6701 7Z" fill="black"/>
<path d="M21.6701 11C21.6701 12.38 21.1102 13.63 20.2102 14.54C19.3002 15.44 18.0501 16 16.6701 16H14.5202C14.0302 16 13.6101 16.35 13.5301 16.84L12.8102 21.16C12.7302 21.65 12.3101 22 11.8201 22H8.89015C8.71015 22 8.55014 21.96 8.41014 21.88C8.19014 21.76 8.33014 21.47 8.57014 21.37C9.47014 21.08 10.1302 20.31 10.2702 19.35L10.9101 14.93C10.9501 14.68 11.1602 14.5 11.4002 14.5H13.6701C15.6801 14.5 17.5701 13.72 18.9701 12.31C19.8001 11.49 20.4201 10.48 20.7801 9.39001C20.8601 9.14001 21.1902 9.09 21.3002 9.32C21.5402 9.84 21.6701 10.4 21.6701 11Z" fill="black"/>
</svg>
