<svg width="25" height="24" viewBox="0 0 25 24" fill="none" xmlns="http://www.w3.org/2000/svg">
<path d="M16.6703 21.2899L7.31026 22.3899C6.66026 22.4699 6.08026 22.3699 5.59026 22.1299C5.07026 21.8699 4.66026 21.4699 4.40026 20.9399C4.16026 20.4499 4.07026 19.8799 4.14026 19.2399L4.99026 12.0899C5.07026 12.1199 5.15026 12.1499 5.23026 12.1699C5.84026 12.3899 6.49026 12.4999 7.17026 12.4999C8.63026 12.4999 10.0403 11.9699 11.1103 11.0199C11.5703 10.6199 11.9803 10.1399 12.3103 9.58991C12.5903 9.11991 12.8003 8.61991 12.9403 8.12991C13.0103 7.86991 13.0703 7.58991 13.1103 7.30991C13.1203 7.25991 13.1203 7.20991 13.1203 7.15991L13.2903 7.16991L19.3703 13.2599L19.6303 17.6799C19.8803 20.1599 19.0203 21.0199 16.6703 21.2899Z" fill="#292D32"/>
<path d="M7.16992 2C6.10992 2 5.12992 2.37 4.35992 2.99C3.31992 3.81 2.66992 5.08 2.66992 6.5C2.66992 7.34 2.90992 8.14 3.31992 8.82C3.75992 9.55 4.39992 10.15 5.17992 10.53C5.34992 10.62 5.53992 10.7 5.72992 10.76C6.17992 10.92 6.65992 11 7.16992 11C8.30992 11 9.33992 10.58 10.1299 9.88C10.4799 9.58 10.7799 9.22 11.0199 8.82C11.2299 8.47 11.3899 8.1 11.4999 7.7C11.5599 7.5 11.5999 7.29 11.6299 7.07C11.6599 6.88 11.6699 6.69 11.6699 6.5C11.6699 4.01 9.65992 2 7.16992 2ZM8.89992 8.21C8.75992 8.35 8.55992 8.43 8.36992 8.43C8.17992 8.43 7.98992 8.35 7.83992 8.21L7.17992 7.55L6.49992 8.23C6.34992 8.38 6.15992 8.45 5.96992 8.45C5.77992 8.45 5.57992 8.38 5.43992 8.23C5.14992 7.94 5.14992 7.46 5.43992 7.17L6.12992 6.48L5.45992 5.83C5.16992 5.54 5.16992 5.06 5.45992 4.77C5.74992 4.48 6.22992 4.48 6.51992 4.77L7.17992 5.43L7.80992 4.8C8.09992 4.51 8.57992 4.51 8.86992 4.8C9.15992 5.09 9.15992 5.57 8.86992 5.86L8.23992 6.49L8.89992 7.15C9.19992 7.44 9.19992 7.91 8.89992 8.21Z" fill="#292D32"/>
<path d="M22.6695 10.2799L20.5995 11.5899C20.2095 11.8299 19.7095 11.7799 19.3895 11.4499L14.9595 7.0199C14.6395 6.6999 14.5795 6.1999 14.8195 5.8099L16.1295 3.7399C16.9295 2.4799 18.5295 2.4199 19.7195 3.5899L22.8295 6.6999C23.9195 7.8099 23.8495 9.5299 22.6695 10.2799Z" fill="#292D32"/>
</svg>
