<svg width="25" height="24" viewBox="0 0 25 24" fill="none" xmlns="http://www.w3.org/2000/svg">
<path d="M21.6495 10.7C21.4295 6.8 18.5395 3.55 14.6795 2.89C14.6195 2.12 13.9795 1.5 13.1895 1.5H12.1895C11.3995 1.5 10.7695 2.11 10.6995 2.88C6.81945 3.52 3.90945 6.78 3.68945 10.7C2.97945 10.82 2.43945 11.43 2.43945 12.17V13.17C2.43945 14 3.10945 14.67 3.93945 14.67H4.93945C5.76945 14.67 6.43945 14 6.43945 13.17V12.17C6.43945 11.43 5.89945 10.82 5.18945 10.7C5.39945 7.58 7.68945 4.99 10.7495 4.39C10.9195 5.03 11.4995 5.5 12.1895 5.5H13.1895C13.8795 5.5 14.4495 5.03 14.6295 4.4C17.6695 5.01 19.9395 7.6 20.1495 10.7C19.4395 10.82 18.8995 11.43 18.8995 12.17V13.17C18.8995 14 19.5695 14.67 20.3995 14.67H21.3995C22.2295 14.67 22.8995 14 22.8995 13.17V12.17C22.8995 11.43 22.3595 10.81 21.6495 10.7Z" fill="#292D32"/>
<path d="M16.4402 16.55L14.8002 18H10.5502L8.91024 16.55C7.96024 15.77 7.96024 15.17 8.68024 14.25L11.5702 10.59C11.7702 10.34 12.0002 10.17 12.2602 10.08C12.5302 9.98995 12.8202 9.98995 13.1002 10.08C13.3502 10.17 13.5802 10.34 13.7902 10.59L16.6702 14.24C17.4002 15.16 17.3602 15.73 16.4402 16.55Z" fill="#292D32"/>
<path d="M13.9901 21.9998H11.4001C10.4801 21.9998 9.79009 21.2498 9.97009 20.4498L10.2801 19.0598C10.3401 18.7798 10.5901 18.5898 10.8701 18.5898H14.5201C14.8001 18.5898 15.0401 18.7798 15.1101 19.0598L15.4201 20.4498C15.6101 21.2998 14.9701 21.9998 13.9901 21.9998Z" fill="#292D32"/>
</svg>
