<svg width="25" height="24" viewBox="0 0 25 24" fill="none" xmlns="http://www.w3.org/2000/svg">
<path d="M18.6699 3H6.66992C4.45992 3 2.66992 4.78 2.66992 6.97V17.03C2.66992 19.22 4.45992 21 6.66992 21H18.6699C20.8799 21 22.6699 19.22 22.6699 17.03V6.97C22.6699 4.78 20.8799 3 18.6699 3ZM9.16992 7.17C10.4399 7.17 11.4799 8.21 11.4799 9.48C11.4799 10.75 10.4399 11.79 9.16992 11.79C7.89992 11.79 6.85992 10.75 6.85992 9.48C6.85992 8.21 7.89992 7.17 9.16992 7.17ZM13.0399 16.66C12.9499 16.76 12.8099 16.82 12.6699 16.82H5.66992C5.52992 16.82 5.38992 16.76 5.29992 16.66C5.20992 16.56 5.15992 16.42 5.16992 16.28C5.33992 14.6 6.67992 13.27 8.35992 13.11C8.88992 13.06 9.43992 13.06 9.96992 13.11C11.6499 13.27 12.9999 14.6 13.1599 16.28C13.1799 16.42 13.1299 16.56 13.0399 16.66ZM19.6699 16.75H17.6699C17.2599 16.75 16.9199 16.41 16.9199 16C16.9199 15.59 17.2599 15.25 17.6699 15.25H19.6699C20.0799 15.25 20.4199 15.59 20.4199 16C20.4199 16.41 20.0799 16.75 19.6699 16.75ZM19.6699 12.75H15.6699C15.2599 12.75 14.9199 12.41 14.9199 12C14.9199 11.59 15.2599 11.25 15.6699 11.25H19.6699C20.0799 11.25 20.4199 11.59 20.4199 12C20.4199 12.41 20.0799 12.75 19.6699 12.75ZM19.6699 8.75H14.6699C14.2599 8.75 13.9199 8.41 13.9199 8C13.9199 7.59 14.2599 7.25 14.6699 7.25H19.6699C20.0799 7.25 20.4199 7.59 20.4199 8C20.4199 8.41 20.0799 8.75 19.6699 8.75Z" fill="#292D32"/>
</svg>
