<svg width="25" height="24" viewBox="0 0 25 24" fill="none" xmlns="http://www.w3.org/2000/svg">
<g clip-path="url(#clip0_12_65001)">
<path d="M11.1799 11.22L8.97992 2.39C8.92992 2.16 8.71992 2 8.47992 2C5.26992 2 2.66992 4.6 2.66992 7.81V13.51C2.66992 13.85 2.99992 14.1 3.32992 14L10.8299 11.83C11.0899 11.76 11.2499 11.49 11.1799 11.22Z" fill="#292D32"/>
<path d="M11.7899 13.6799C11.7199 13.3999 11.4299 13.2299 11.1499 13.3099L3.03992 15.6699C2.81992 15.7399 2.66992 15.9399 2.66992 16.1699V16.1899C2.66992 19.3999 5.26992 21.9999 8.47992 21.9999H13.1999C13.5299 21.9999 13.7799 21.6899 13.6999 21.3599L11.7899 13.6799Z" fill="#292D32"/>
<path d="M16.8598 2H11.1098C10.7798 2 10.5298 2.31 10.6098 2.64L15.3498 21.61C15.4098 21.84 15.6098 22 15.8498 22H16.8498C20.0698 22 22.6698 19.4 22.6698 16.19V7.81C22.6698 4.6 20.0698 2 16.8598 2Z" fill="#292D32"/>
</g>
<defs>
<clipPath id="clip0_12_65001">
<rect width="24" height="24" fill="white" transform="translate(0.669922)"/>
</clipPath>
</defs>
</svg>
