<svg width="25" height="24" viewBox="0 0 25 24" fill="none" xmlns="http://www.w3.org/2000/svg">
<path d="M18.1599 9.60001L6.26992 16.77C5.56992 17.19 4.66992 16.69 4.66992 15.87V7.87001C4.66992 4.38001 8.43992 2.20001 11.4699 3.94001L16.0599 6.58001L18.1499 7.78001C18.8399 8.19001 18.8499 9.19001 18.1599 9.60001Z" fill="#292D32"/>
<path d="M18.7597 15.46L14.7097 17.8L10.6697 20.13C9.21973 20.96 7.57973 20.79 6.38973 19.95C5.80973 19.55 5.87973 18.66 6.48973 18.3L19.1997 10.68C19.7997 10.32 20.5897 10.66 20.6997 11.35C20.9497 12.9 20.3097 14.57 18.7597 15.46Z" fill="#292D32"/>
</svg>
