<svg width="25" height="24" viewBox="0 0 25 24" fill="none" xmlns="http://www.w3.org/2000/svg">
<path d="M22.5196 10.25C21.7396 5.8 17.9096 2.35 13.3996 2.03C7.29964 1.59 2.25964 6.64 2.69964 12.73C3.01964 17.24 6.46964 21.06 10.9196 21.84C12.0696 22.04 13.1896 22.04 14.2596 21.86C14.5696 21.81 14.7496 21.47 14.6296 21.19C14.3296 20.51 14.1696 19.76 14.1696 18.99C14.1696 17.3 14.9196 15.74 16.2396 14.7C17.2096 13.92 18.4296 13.49 19.6696 13.49C20.4496 13.49 21.1896 13.65 21.8596 13.95C22.1496 14.08 22.4796 13.89 22.5396 13.58C22.7196 12.52 22.7196 11.4 22.5196 10.25ZM15.1696 13.57L13.9696 14.26L12.7696 14.95C11.2796 15.81 10.0596 15.11 10.0596 13.38V12V10.61C10.0596 8.89 11.2796 8.18 12.7696 9.04L13.9696 9.73L15.1696 10.42C16.6596 11.3 16.6596 12.7 15.1696 13.57Z" fill="#292D32"/>
<path d="M19.6699 15C18.7299 15 17.8599 15.33 17.1699 15.88C16.2499 16.61 15.6699 17.74 15.6699 19C15.6699 19.75 15.8799 20.46 16.2499 21.06C16.9399 22.22 18.2099 23 19.6699 23C20.6799 23 21.5999 22.63 22.2999 22C22.6099 21.74 22.8799 21.42 23.0899 21.06C23.4599 20.46 23.6699 19.75 23.6699 19C23.6699 16.79 21.8799 15 19.6699 15ZM21.1699 19.73H20.4199V20.51C20.4199 20.92 20.0799 21.26 19.6699 21.26C19.2599 21.26 18.9199 20.92 18.9199 20.51V19.73H18.1699C17.7599 19.73 17.4199 19.39 17.4199 18.98C17.4199 18.57 17.7599 18.23 18.1699 18.23H18.9199V17.52C18.9199 17.11 19.2599 16.77 19.6699 16.77C20.0799 16.77 20.4199 17.11 20.4199 17.52V18.23H21.1699C21.5799 18.23 21.9199 18.57 21.9199 18.98C21.9199 19.39 21.5799 19.73 21.1699 19.73Z" fill="#292D32"/>
</svg>
