<svg width="25" height="24" viewBox="0 0 25 24" fill="none" xmlns="http://www.w3.org/2000/svg">
<path d="M19.7397 19.82C19.5497 19.82 19.3597 19.75 19.2097 19.6C18.9197 19.31 18.9197 18.83 19.2097 18.54C22.8197 14.93 22.8197 9.06 19.2097 5.46C18.9197 5.17 18.9197 4.69 19.2097 4.4C19.4997 4.11 19.9797 4.11 20.2697 4.4C24.4597 8.59 24.4597 15.41 20.2697 19.6C20.1197 19.75 19.9297 19.82 19.7397 19.82Z" fill="#292D32"/>
<path d="M5.60023 19.82C5.41023 19.82 5.22023 19.75 5.07023 19.6C0.880234 15.41 0.880234 8.59 5.07023 4.4C5.36023 4.11 5.84023 4.11 6.13023 4.4C6.42023 4.69 6.42023 5.17 6.13023 5.46C2.52023 9.07 2.52023 14.94 6.13023 18.54C6.42023 18.83 6.42023 19.31 6.13023 19.6C5.98023 19.75 5.79023 19.82 5.60023 19.82Z" fill="#292D32"/>
<path d="M12.6697 22.71C11.4197 22.7 10.2297 22.5 9.11968 22.11C8.72968 21.97 8.51968 21.54 8.65968 21.15C8.79968 20.76 9.21968 20.55 9.61968 20.69C10.5797 21.02 11.5997 21.2 12.6797 21.2C13.7497 21.2 14.7797 21.02 15.7297 20.69C16.1197 20.56 16.5497 20.76 16.6897 21.15C16.8297 21.54 16.6197 21.97 16.2297 22.11C15.1097 22.5 13.9197 22.71 12.6697 22.71Z" fill="#292D32"/>
<path d="M15.9697 3.34C15.8897 3.34 15.7997 3.33 15.7197 3.3C14.7697 2.96 13.7397 2.79 12.6697 2.79C11.5997 2.79 10.5797 2.97 9.61968 3.3C9.21968 3.43 8.79968 3.23 8.65968 2.84C8.51968 2.45 8.72968 2.02 9.11968 1.88C10.2397 1.49 11.4297 1.29 12.6697 1.29C13.9097 1.29 15.1097 1.49 16.2197 1.88C16.6097 2.02 16.8197 2.45 16.6797 2.84C16.5697 3.15 16.2797 3.34 15.9697 3.34Z" fill="#292D32"/>
<path d="M9.41016 12V10.33C9.41016 8.25 10.8802 7.4 12.6802 8.44L14.1302 9.28L15.5802 10.12C17.3802 11.16 17.3802 12.86 15.5802 13.9L14.1302 14.74L12.6802 15.58C10.8802 16.62 9.41016 15.77 9.41016 13.69V12Z" fill="#292D32"/>
</svg>
