<svg width="25" height="24" viewBox="0 0 25 24" fill="none" xmlns="http://www.w3.org/2000/svg">
<path d="M8.66969 21.75C8.64969 21.75 8.62968 21.75 8.61968 21.75C8.22968 21.72 7.91969 21.4 7.91969 21C7.91969 20.43 7.98969 19.9 8.13969 19.41L9.92969 6.89C9.98969 6.48 10.3697 6.2 10.7797 6.25C11.1897 6.31 11.4797 6.69 11.4197 7.1L9.99969 17.01C11.2397 16.26 12.5897 16.25 12.6697 16.25C16.3897 16.25 19.4197 13.22 19.4197 9.5C19.4197 5.78 16.3897 2.75 12.6697 2.75C8.94969 2.75 5.91969 5.78 5.91969 9.5C5.91969 10.6 6.18968 11.69 6.69968 12.65C6.88968 13.02 6.74969 13.47 6.38969 13.66C6.01969 13.85 5.56968 13.71 5.37968 13.35C4.75968 12.17 4.42969 10.84 4.42969 9.5C4.42969 4.95 8.12969 1.25 12.6797 1.25C17.2297 1.25 20.9297 4.95 20.9297 9.5C20.9297 14.05 17.2297 17.75 12.6797 17.75C12.5897 17.75 10.4697 17.79 9.70969 19.5C9.67969 19.58 9.63968 19.66 9.61968 19.74L9.42969 21.1C9.35969 21.48 9.03969 21.75 8.66969 21.75Z" fill="black"/>
<path d="M14.6699 22C14.4099 22 14.1499 21.89 13.9599 21.71C13.7799 21.52 13.6699 21.26 13.6699 21C13.6699 20.87 13.6999 20.74 13.7499 20.62C13.7999 20.49 13.8699 20.39 13.9599 20.29C14.2399 20.01 14.6799 19.92 15.0499 20.08C15.1799 20.13 15.2799 20.2 15.3799 20.29C15.4699 20.39 15.5399 20.49 15.5899 20.62C15.6399 20.74 15.6699 20.87 15.6699 21C15.6699 21.26 15.5599 21.52 15.3799 21.71C15.2799 21.8 15.1799 21.87 15.0499 21.92C14.9299 21.97 14.7999 22 14.6699 22Z" fill="black"/>
</svg>
