<svg width="25" height="24" viewBox="0 0 25 24" fill="none" xmlns="http://www.w3.org/2000/svg">
<path d="M22.6699 2.75H2.66992C2.25992 2.75 1.91992 2.41 1.91992 2C1.91992 1.59 2.25992 1.25 2.66992 1.25H22.6699C23.0799 1.25 23.4199 1.59 23.4199 2C23.4199 2.41 23.0799 2.75 22.6699 2.75Z" fill="#292D32"/>
<path d="M17.3402 22.34C17.2102 22.6 16.9402 22.75 16.6702 22.75C16.5602 22.75 16.4402 22.72 16.3402 22.67L12.6702 20.84L9.00018 22.67C8.90018 22.72 8.78018 22.75 8.67018 22.75C8.40018 22.75 8.13018 22.6 8.00018 22.34C7.81018 21.96 7.96018 21.51 8.34018 21.33L11.9202 19.54V17H13.4202V19.54L17.0002 21.33C17.3802 21.51 17.5302 21.96 17.3402 22.34Z" fill="#292D32"/>
<path d="M3.66992 2V14.1C3.66992 16 4.66992 17 6.56992 17H18.7699C20.6699 17 21.6699 16 21.6699 14.1V2H3.66992ZM17.6499 8.58L14.4999 11.21C14.2099 11.45 13.8399 11.55 13.4899 11.49C13.1299 11.43 12.8199 11.21 12.6299 10.89L11.5799 9.14L8.64992 11.58C8.50992 11.7 8.33992 11.75 8.16992 11.75C7.95992 11.75 7.73992 11.66 7.58992 11.48C7.31992 11.16 7.36992 10.69 7.68992 10.42L10.8399 7.79C11.1299 7.55 11.4999 7.45 11.8499 7.51C12.2099 7.57 12.5199 7.79 12.7099 8.11L13.7599 9.86L16.6899 7.42C17.0099 7.15 17.4799 7.2 17.7499 7.52C18.0099 7.84 17.9699 8.31 17.6499 8.58Z" fill="#292D32"/>
</svg>
