<svg width="25" height="24" viewBox="0 0 25 24" fill="none" xmlns="http://www.w3.org/2000/svg">
<path d="M6.66992 7C4.66992 7 3.66992 8 3.66992 10V15C3.66992 17 4.66992 18 6.66992 18L8.66992 16V15H9.66992L17.6699 7H6.66992ZM7.66992 11.75C7.25992 11.75 6.91992 11.41 6.91992 11C6.91992 10.59 7.25992 10.25 7.66992 10.25H9.66992C10.0799 10.25 10.4199 10.59 10.4199 11C10.4199 11.41 10.0799 11.75 9.66992 11.75H7.66992Z" fill="#292D32"/>
<path d="M9.66992 15L8.66992 16V15H9.66992Z" fill="#292D32"/>
<path d="M17.6699 5V7H7.66992V5C7.66992 3.34 9.00992 2 10.6699 2H14.6699C16.3299 2 17.6699 3.34 17.6699 5Z" fill="#292D32"/>
<path d="M23.2004 1.46994C22.9104 1.17994 22.4304 1.17994 22.1404 1.46994L2.14035 21.4699C1.85035 21.7599 1.85035 22.2399 2.14035 22.5299C2.29035 22.6799 2.48035 22.7499 2.67035 22.7499C2.86035 22.7499 3.05035 22.6799 3.20035 22.5299L23.2004 2.52994C23.4904 2.23994 23.4904 1.75994 23.2004 1.46994Z" fill="#292D32"/>
<path d="M17.67 14.25H13.6271C13.4945 14.25 13.3674 14.3027 13.2736 14.3964L12.67 15L11.92 15.75L9.47003 18.2C8.83003 18.84 8.70003 20 9.22003 20.74C9.76003 21.5 10.66 22 11.67 22H13.67C15.33 22 16.67 20.66 16.67 19V15.75H17.67C18.08 15.75 18.42 15.41 18.42 15C18.42 14.59 18.08 14.25 17.67 14.25Z" fill="#292D32"/>
<path d="M19.6899 7.98012L16.1299 11.5401C15.4999 12.1701 15.9499 13.2501 16.8399 13.2501H17.5799C18.4499 13.2501 19.2599 13.8401 19.3999 14.7001C19.5511 15.6155 18.983 16.4391 18.1633 16.6796C17.8984 16.7573 17.6699 16.974 17.6699 17.2501V17.5001C17.6699 17.7763 17.8938 18.0001 18.1699 18.0001H18.6699C20.3299 18.0001 21.6699 16.6601 21.6699 15.0001V10.0001C21.6699 9.21012 21.5099 8.57012 21.1999 8.09012C20.8599 7.58012 20.1199 7.55012 19.6899 7.98012Z" fill="#292D32"/>
</svg>
