<svg width="25" height="24" viewBox="0 0 25 24" fill="none" xmlns="http://www.w3.org/2000/svg">
<path d="M15.69 2.23C13.69 1.92 11.65 1.92 9.64998 2.23C8.82998 2.36 8.22997 3.05999 8.22997 3.87999V7.55998H4.54997C3.72997 7.55998 3.02998 8.16 2.89998 8.98C2.58998 10.98 2.58998 13.02 2.89998 15.02C3.02998 15.84 3.72997 16.44 4.54997 16.44H6.22997C6.50997 16.44 6.72997 16.22 6.72997 15.94V14.22C6.72997 12.17 8.39997 10.5 10.45 10.5H14.89C15.29 10.5 15.61 10.18 15.61 9.77999V6.55998C15.61 6.27998 15.83 6.05998 16.11 6.05998H16.61C16.89 6.05998 17.11 5.83998 17.11 5.55998V3.87999C17.11 3.05999 16.51 2.36 15.69 2.23ZM11 5.57997C10.59 5.57997 10.2 5.18999 10.2 4.77999C10.2 4.35999 10.59 3.96999 11 3.96999C11.2 3.96999 11.42 4.06 11.56 4.2C11.71 4.34 11.81 4.56999 11.81 4.77999C11.81 5.18999 11.42 5.57997 11 5.57997Z" fill="black"/>
<path d="M22.44 8.98001C22.31 8.16001 21.61 7.56 20.79 7.56H17.61C17.33 7.56 17.11 7.78 17.11 8.06V9.78C17.11 11 16.12 12 14.89 12H10.45C9.21998 12 8.22998 12.99 8.22998 14.22V20.12C8.22998 20.94 8.82999 21.64 9.64999 21.77C11.65 22.08 13.69 22.08 15.69 21.77C16.51 21.64 17.11 20.94 17.11 20.12V16.44H20.79C21.61 16.44 22.31 15.84 22.44 15.02C22.75 13.02 22.75 10.98 22.44 8.98001ZM14.34 20.03C13.93 20.03 13.53 19.64 13.53 19.22C13.53 18.8 13.92 18.41 14.34 18.41C14.53 18.41 14.76 18.5 14.9 18.63C15.05 18.77 15.15 19.01 15.15 19.21C15.14 19.64 14.75 20.03 14.34 20.03Z" fill="black"/>
</svg>
