<svg width="25" height="24" viewBox="0 0 25 24" fill="none" xmlns="http://www.w3.org/2000/svg">
<path d="M8.76188 11.63H4.07188C4.15188 6.95997 5.07188 6.18997 7.94187 4.48997C8.27187 4.28997 8.38188 3.86997 8.18188 3.52997C7.99188 3.19997 7.56187 3.08997 7.23187 3.28997C3.85187 5.28997 2.67188 6.50997 2.67188 12.32V17.71C2.67188 19.42 4.06188 20.8 5.76188 20.8H8.76188C10.5219 20.8 11.8519 19.47 11.8519 17.71V14.71C11.8519 12.96 10.5219 11.63 8.76188 11.63Z" fill="#292D32"/>
<path d="M19.5814 11.63H14.8914C14.9714 6.95997 15.8914 6.18997 18.7614 4.48997C19.0914 4.28997 19.2014 3.86997 19.0014 3.52997C18.8014 3.19997 18.3814 3.08997 18.0414 3.28997C14.6614 5.28997 13.4814 6.50997 13.4814 12.33V17.72C13.4814 19.43 14.8714 20.81 16.5714 20.81H19.5714C21.3314 20.81 22.6614 19.48 22.6614 17.72V14.72C22.6714 12.96 21.3414 11.63 19.5814 11.63Z" fill="#292D32"/>
</svg>
