<svg width="25" height="24" viewBox="0 0 25 24" fill="none" xmlns="http://www.w3.org/2000/svg">
<path d="M12.67 14.3801C13.9845 14.3801 15.05 13.3146 15.05 12.0001C15.05 10.6857 13.9845 9.62012 12.67 9.62012C11.3556 9.62012 10.29 10.6857 10.29 12.0001C10.29 13.3146 11.3556 14.3801 12.67 14.3801Z" fill="#292D32"/>
<path d="M20.67 18.7498C20.51 18.7498 20.36 18.6998 20.22 18.5998C19.89 18.3498 19.82 17.8798 20.07 17.5498C21.28 15.9398 21.92 14.0198 21.92 11.9998C21.92 9.97978 21.28 8.05978 20.07 6.44978C19.82 6.11978 19.89 5.64978 20.22 5.39978C20.55 5.14978 21.02 5.21978 21.27 5.54978C22.68 7.41978 23.42 9.64978 23.42 11.9998C23.42 14.3498 22.68 16.5798 21.27 18.4498C21.12 18.6498 20.9 18.7498 20.67 18.7498Z" fill="#292D32"/>
<path d="M4.66992 18.7498C4.43992 18.7498 4.21992 18.6498 4.06992 18.4498C2.65992 16.5798 1.91992 14.3498 1.91992 11.9998C1.91992 9.64978 2.65992 7.41978 4.06992 5.54978C4.31992 5.21978 4.78992 5.14978 5.11992 5.39978C5.44992 5.64978 5.51992 6.11978 5.26992 6.44978C4.05992 8.05978 3.41992 9.97978 3.41992 11.9998C3.41992 14.0198 4.05992 15.9398 5.26992 17.5498C5.51992 17.8798 5.44992 18.3498 5.11992 18.5998C4.98992 18.6998 4.82992 18.7498 4.66992 18.7498Z" fill="#292D32"/>
<path d="M17.47 16.3502C17.31 16.3502 17.16 16.3002 17.02 16.2002C16.69 15.9502 16.62 15.4802 16.87 15.1502C17.56 14.2402 17.92 13.1502 17.92 12.0002C17.92 10.8502 17.56 9.76018 16.87 8.85018C16.62 8.52018 16.69 8.05018 17.02 7.80018C17.35 7.55018 17.82 7.62017 18.07 7.95017C18.95 9.13017 19.42 10.5302 19.42 12.0002C19.42 13.4702 18.95 14.8802 18.07 16.0502C17.92 16.2502 17.7 16.3502 17.47 16.3502Z" fill="#292D32"/>
<path d="M7.86992 16.3502C7.63992 16.3502 7.41992 16.2502 7.26992 16.0502C6.38992 14.8802 5.91992 13.4702 5.91992 12.0002C5.91992 10.5302 6.38992 9.12017 7.26992 7.95017C7.51992 7.62017 7.98992 7.55018 8.31992 7.80018C8.64992 8.05018 8.71992 8.52018 8.46992 8.85018C7.77992 9.76018 7.41992 10.8502 7.41992 12.0002C7.41992 13.1502 7.77992 14.2402 8.46992 15.1502C8.71992 15.4802 8.64992 15.9502 8.31992 16.2002C8.18992 16.3002 8.02992 16.3502 7.86992 16.3502Z" fill="#292D32"/>
</svg>
