<svg width="25" height="24" viewBox="0 0 25 24" fill="none" xmlns="http://www.w3.org/2000/svg">
<g clip-path="url(#clip0_12_64864)">
<path d="M12.6699 2C7.14992 2 2.66992 6.48 2.66992 12C2.66992 17.52 7.14992 22 12.6699 22C18.1899 22 22.6699 17.52 22.6699 12C22.6699 6.48 18.1899 2 12.6699 2ZM12.6699 19.75C8.39992 19.75 4.91992 16.27 4.91992 12C4.91992 10.64 5.27992 9.31 5.94992 8.14C6.14992 7.78 6.60992 7.66 6.96992 7.86L13.0399 11.35C13.3999 11.56 13.5199 12.01 13.3199 12.37C13.1099 12.73 12.6599 12.85 12.2999 12.65L9.38992 10.98C9.28992 11.31 9.21992 11.65 9.21992 12C9.21992 13.9 10.7699 15.45 12.6699 15.45C14.5699 15.45 16.1199 13.9 16.1199 12C16.1199 10.1 14.5699 8.55 12.6699 8.55C12.1599 8.55 11.6599 8.66 11.1999 8.88C10.8199 9.06 10.3799 8.9 10.1999 8.52C10.0199 8.15 10.1799 7.7 10.5599 7.52C11.2199 7.21 11.9299 7.05 12.6699 7.05C15.3999 7.05 17.6199 9.27 17.6199 12C17.6199 14.73 15.3999 16.95 12.6699 16.95C9.93992 16.95 7.71992 14.73 7.71992 12C7.71992 11.39 7.83992 10.78 8.05992 10.21L6.90992 9.56C6.58992 10.33 6.41992 11.16 6.41992 12C6.41992 15.45 9.21992 18.25 12.6699 18.25C16.1199 18.25 18.9199 15.45 18.9199 12C18.9199 8.55 16.1199 5.75 12.6699 5.75C11.3099 5.75 10.0099 6.18 8.91992 7C8.58992 7.25 8.11992 7.18 7.86992 6.85C7.61992 6.52 7.68992 6.05 8.01992 5.8C9.36992 4.79 10.9799 4.25 12.6699 4.25C16.9399 4.25 20.4199 7.73 20.4199 12C20.4199 16.27 16.9399 19.75 12.6699 19.75Z" fill="#292D32"/>
</g>
<defs>
<clipPath id="clip0_12_64864">
<rect width="24" height="24" fill="white" transform="translate(0.669922)"/>
</clipPath>
</defs>
</svg>
