<svg width="25" height="24" viewBox="0 0 25 24" fill="none" xmlns="http://www.w3.org/2000/svg">
<path d="M16.6803 20.97C16.6858 21.5261 16.2365 21.98 15.6803 21.98H9.66366C9.11398 21.98 8.66736 21.5364 8.66368 20.9867L8.65039 19C8.65039 17.9 9.54039 17 10.6504 17H14.6604C15.7604 17 16.6504 17.89 16.6604 18.99L16.6803 20.97Z" fill="#292D32"/>
<path d="M19.1699 10.0001V12.1701C19.1699 12.7001 19.3799 13.2101 19.7599 13.5901L20.5799 14.4101C20.9599 14.7901 21.1699 15.3001 21.1699 15.8301V17.0001C21.1699 19.3013 20.261 20.9937 18.2757 21.6663C17.9744 21.7683 17.6789 21.5305 17.6778 21.2124L17.6699 18.9801C17.6499 17.3401 16.2999 16.0001 14.6699 16.0001H10.6599C8.99992 16.0001 7.65992 17.3501 7.65992 19.0001V21.2243C7.65992 21.5417 7.36621 21.7805 7.06483 21.6808C5.05592 21.016 4.16992 19.3132 4.16992 17.0001V7.00011C4.16992 4.59407 5.12171 2.83389 7.31515 2.23662C7.61571 2.15478 7.89582 2.39633 7.89135 2.70779L7.85992 4.90011C7.84992 5.37011 8.01992 5.82011 8.33992 6.16011C8.66992 6.50011 9.09992 6.69011 9.60992 6.70011C10.1241 6.70011 10.582 6.48736 10.8944 6.14105C11.0066 6.01668 11.2215 6.01166 11.3399 6.13011C11.6599 6.47011 12.0999 6.67011 12.6099 6.68011C13.1243 6.68011 13.5934 6.45405 13.9135 6.09018C14.0187 5.97061 14.2341 5.96108 14.3399 6.08011C14.6599 6.42011 15.0999 6.62011 15.6099 6.63011C16.5699 6.63011 17.3399 5.88011 17.3599 4.91011L17.3996 2.68676C17.4051 2.38245 17.6805 2.15148 17.9747 2.22966C20.1786 2.81543 21.1699 4.58729 21.1699 7.00011V8.00011C21.1699 8.55011 20.7199 9.00011 20.1699 9.00011C19.6199 9.00011 19.1699 9.45011 19.1699 10.0001Z" fill="#292D32"/>
<path d="M9.8978 2.0033C10.1785 2.00149 10.4057 2.23107 10.401 2.51174L10.3596 4.96C10.3496 5.37 10.0196 5.7 9.6096 5.7H9.5996C9.1796 5.69 8.8496 5.35 8.8596 4.93V2.50678C8.8596 2.2319 9.08149 2.00857 9.35637 2.00679L9.8978 2.0033Z" fill="#292D32"/>
<path d="M12.901 2C13.1805 2 13.4057 2.22906 13.401 2.50847L13.3596 4.95C13.3496 5.35 13.0196 5.68 12.6096 5.68H12.5996C12.1796 5.67 11.8496 5.33 11.8596 4.92L11.8596 2.5C11.8596 2.22386 12.0835 2 12.3596 2H12.901Z" fill="#292D32"/>
<path d="M15.904 2.00682C16.1823 2.00858 16.4057 2.23723 16.4008 2.51549L16.3596 4.89001C16.3496 5.30001 16.0196 5.63001 15.6096 5.63001H15.5996C15.1796 5.62001 14.8496 5.28001 14.8596 4.87001V2.5034C14.8596 2.22603 15.0854 2.00167 15.3627 2.00341L15.904 2.00682Z" fill="#292D32"/>
</svg>
