<svg width="25" height="24" viewBox="0 0 25 24" fill="none" xmlns="http://www.w3.org/2000/svg">
<path d="M16.4519 2H8.89188C5.11188 2 4.17188 3.01 4.17188 7.04V18.3C4.17188 20.96 5.63188 21.59 7.40188 19.69L7.41187 19.68C8.23187 18.81 9.48188 18.88 10.1919 19.83L11.2019 21.18C12.0119 22.25 13.3219 22.25 14.1319 21.18L15.1419 19.83C15.8619 18.87 17.1119 18.8 17.9319 19.68C19.7119 21.58 21.1619 20.95 21.1619 18.29V7.04C21.1719 3.01 20.2319 2 16.4519 2ZM15.5119 9.99L15.0119 10.5H15.0019L11.9719 13.53C11.8419 13.66 11.5719 13.8 11.3819 13.82L10.0319 14.02C9.54187 14.09 9.20188 13.74 9.27188 13.26L9.46187 11.9C9.49188 11.71 9.62187 11.45 9.75187 11.31L12.7919 8.28L13.2919 7.77C13.6219 7.44 13.9919 7.2 14.3919 7.2C14.7319 7.2 15.1019 7.36 15.5119 7.77C16.4119 8.67 16.1219 9.38 15.5119 9.99Z" fill="#292D32"/>
</svg>
