<svg width="25" height="24" viewBox="0 0 25 24" fill="none" xmlns="http://www.w3.org/2000/svg">
<path d="M16.4519 2H8.89188C5.11188 2 4.17188 3.01 4.17188 7.04V18.3C4.17188 20.96 5.63188 21.59 7.40188 19.69L7.41187 19.68C8.23187 18.81 9.48188 18.88 10.1919 19.83L11.2019 21.18C12.0119 22.25 13.3219 22.25 14.1319 21.18L15.1419 19.83C15.8619 18.87 17.1119 18.8 17.9319 19.68C19.7119 21.58 21.1619 20.95 21.1619 18.29V7.04C21.1719 3.01 20.2319 2 16.4519 2ZM15.6719 11.75H9.67188C9.26188 11.75 8.92188 11.41 8.92188 11C8.92188 10.59 9.26188 10.25 9.67188 10.25H15.6719C16.0819 10.25 16.4219 10.59 16.4219 11C16.4219 11.41 16.0819 11.75 15.6719 11.75ZM16.6719 7.75H8.67188C8.26188 7.75 7.92188 7.41 7.92188 7C7.92188 6.59 8.26188 6.25 8.67188 6.25H16.6719C17.0819 6.25 17.4219 6.59 17.4219 7C17.4219 7.41 17.0819 7.75 16.6719 7.75Z" fill="#292D32"/>
</svg>
