<svg width="25" height="24" viewBox="0 0 25 24" fill="none" xmlns="http://www.w3.org/2000/svg">
<path d="M7.66992 2H6.66992C3.66992 2 2.66992 3.79 2.66992 6V7V21C2.66992 21.83 3.60992 22.3 4.26992 21.8L5.97992 20.52C6.37992 20.22 6.93992 20.26 7.29992 20.62L8.95992 22.29C9.34992 22.68 9.98992 22.68 10.3799 22.29L12.0599 20.61C12.4099 20.26 12.9699 20.22 13.3599 20.52L15.0699 21.8C15.7299 22.29 16.6699 21.82 16.6699 21V4C16.6699 2.9 17.5699 2 18.6699 2H7.66992ZM6.63992 14.01C6.08992 14.01 5.63992 13.56 5.63992 13.01C5.63992 12.46 6.08992 12.01 6.63992 12.01C7.18992 12.01 7.63992 12.46 7.63992 13.01C7.63992 13.56 7.18992 14.01 6.63992 14.01ZM6.63992 10.01C6.08992 10.01 5.63992 9.56 5.63992 9.01C5.63992 8.46 6.08992 8.01 6.63992 8.01C7.18992 8.01 7.63992 8.46 7.63992 9.01C7.63992 9.56 7.18992 10.01 6.63992 10.01ZM12.6699 13.76H9.66992C9.25992 13.76 8.91992 13.42 8.91992 13.01C8.91992 12.6 9.25992 12.26 9.66992 12.26H12.6699C13.0799 12.26 13.4199 12.6 13.4199 13.01C13.4199 13.42 13.0799 13.76 12.6699 13.76ZM12.6699 9.76H9.66992C9.25992 9.76 8.91992 9.42 8.91992 9.01C8.91992 8.6 9.25992 8.26 9.66992 8.26H12.6699C13.0799 8.26 13.4199 8.6 13.4199 9.01C13.4199 9.42 13.0799 9.76 12.6699 9.76Z" fill="#292D32"/>
<path d="M18.6799 2V3.5C19.3399 3.5 19.9699 3.77 20.4299 4.22C20.9099 4.71 21.1699 5.34 21.1699 6V8.42C21.1699 9.16 20.8399 9.5 20.0899 9.5H18.1699V4.01C18.1699 3.73 18.3999 3.5 18.6799 3.5V2ZM18.6799 2C17.5699 2 16.6699 2.9 16.6699 4.01V11H20.0899C21.6699 11 22.6699 10 22.6699 8.42V6C22.6699 4.9 22.2199 3.9 21.4999 3.17C20.7699 2.45 19.7799 2.01 18.6799 2C18.6899 2 18.6799 2 18.6799 2Z" fill="#292D32"/>
</svg>
