<svg width="25" height="24" viewBox="0 0 25 24" fill="none" xmlns="http://www.w3.org/2000/svg">
<path d="M18.6819 2V3.5C19.3419 3.5 19.9719 3.77 20.4319 4.22C20.9119 4.71 21.1719 5.34 21.1719 6V8.42C21.1719 9.16 20.8419 9.5 20.0919 9.5H18.1719V4.01C18.1719 3.73 18.4019 3.5 18.6819 3.5V2ZM18.6819 2C17.5719 2 16.6719 2.9 16.6719 4.01V11H20.0919C21.6719 11 22.6719 10 22.6719 8.42V6C22.6719 4.9 22.2219 3.9 21.5019 3.17C20.7719 2.45 19.7819 2.01 18.6819 2C18.6919 2 18.6819 2 18.6819 2Z" fill="#292D32"/>
<path d="M7.67188 2H6.67188C3.67188 2 2.67188 3.79 2.67188 6V7V21C2.67188 21.83 3.61187 22.3 4.27187 21.8L5.98187 20.52C6.38188 20.22 6.94187 20.26 7.30188 20.62L8.96187 22.29C9.35187 22.68 9.99188 22.68 10.3819 22.29L12.0619 20.61C12.4119 20.26 12.9719 20.22 13.3619 20.52L15.0719 21.8C15.7319 22.29 16.6719 21.82 16.6719 21V4C16.6719 2.9 17.5719 2 18.6719 2H7.67188ZM12.4219 10.75H10.4219V12.75C10.4219 13.16 10.0819 13.5 9.67188 13.5C9.26188 13.5 8.92188 13.16 8.92188 12.75V10.75H6.92188C6.51187 10.75 6.17188 10.41 6.17188 10C6.17188 9.59 6.51187 9.25 6.92188 9.25H8.92188V7.25C8.92188 6.84 9.26188 6.5 9.67188 6.5C10.0819 6.5 10.4219 6.84 10.4219 7.25V9.25H12.4219C12.8319 9.25 13.1719 9.59 13.1719 10C13.1719 10.41 12.8319 10.75 12.4219 10.75Z" fill="#292D32"/>
</svg>
