<svg width="25" height="24" viewBox="0 0 25 24" fill="none" xmlns="http://www.w3.org/2000/svg">
<path d="M16.8599 2H8.47992C4.83992 2 2.66992 4.17 2.66992 7.81V16.18C2.66992 19.83 4.83992 22 8.47992 22H16.8499C20.4899 22 22.6599 19.83 22.6599 16.19V7.81C22.6699 4.17 20.4999 2 16.8599 2ZM9.13992 10.98C9.42992 10.69 9.90992 10.69 10.1999 10.98L11.9199 12.7V6.51C11.9199 6.1 12.2599 5.76 12.6699 5.76C13.0799 5.76 13.4199 6.1 13.4199 6.51V12.7L15.1399 10.98C15.4299 10.69 15.9099 10.69 16.1999 10.98C16.4899 11.27 16.4899 11.75 16.1999 12.04L13.1999 15.04C13.1299 15.11 13.0499 15.16 12.9599 15.2C12.8699 15.24 12.7699 15.26 12.6699 15.26C12.5699 15.26 12.4799 15.24 12.3799 15.2C12.2899 15.16 12.2099 15.11 12.1399 15.04L9.13992 12.04C8.84992 11.75 8.84992 11.28 9.13992 10.98ZM18.9099 17.22C16.8999 17.89 14.7899 18.23 12.6699 18.23C10.5499 18.23 8.43992 17.89 6.42992 17.22C6.03992 17.09 5.82992 16.66 5.95992 16.27C6.08992 15.88 6.50992 15.66 6.90992 15.8C10.6299 17.04 14.7199 17.04 18.4399 15.8C18.8299 15.67 19.2599 15.88 19.3899 16.27C19.5099 16.67 19.2999 17.09 18.9099 17.22Z" fill="#292D32"/>
</svg>
