<svg width="25" height="24" viewBox="0 0 25 24" fill="none" xmlns="http://www.w3.org/2000/svg">
<path d="M16.4519 2H8.89188C5.11188 2 4.17188 3.01 4.17188 7.04V18.3C4.17188 20.96 5.63188 21.59 7.40188 19.69L7.41187 19.68C8.23187 18.81 9.48188 18.88 10.1919 19.83L11.2019 21.18C12.0119 22.25 13.3219 22.25 14.1319 21.18L15.1419 19.83C15.8619 18.87 17.1119 18.8 17.9319 19.68C19.7119 21.58 21.1619 20.95 21.1619 18.29V7.04C21.1719 3.01 20.2319 2 16.4519 2ZM8.45188 12C7.90188 12 7.45188 11.55 7.45188 11C7.45188 10.45 7.90188 10 8.45188 10C9.00188 10 9.45187 10.45 9.45187 11C9.45187 11.55 9.00188 12 8.45188 12ZM8.45188 8C7.90188 8 7.45188 7.55 7.45188 7C7.45188 6.45 7.90188 6 8.45188 6C9.00188 6 9.45187 6.45 9.45187 7C9.45187 7.55 9.00188 8 8.45188 8ZM16.9019 11.75H11.4019C10.9919 11.75 10.6519 11.41 10.6519 11C10.6519 10.59 10.9919 10.25 11.4019 10.25H16.9019C17.3119 10.25 17.6519 10.59 17.6519 11C17.6519 11.41 17.3119 11.75 16.9019 11.75ZM16.9019 7.75H11.4019C10.9919 7.75 10.6519 7.41 10.6519 7C10.6519 6.59 10.9919 6.25 11.4019 6.25H16.9019C17.3119 6.25 17.6519 6.59 17.6519 7C17.6519 7.41 17.3119 7.75 16.9019 7.75Z" fill="#292D32"/>
</svg>
