<svg width="25" height="24" viewBox="0 0 25 24" fill="none" xmlns="http://www.w3.org/2000/svg">
<path d="M16.8599 2H8.47992C4.83992 2 2.66992 4.17 2.66992 7.81V16.18C2.66992 19.83 4.83992 22 8.47992 22H16.8499C20.4899 22 22.6599 19.83 22.6599 16.19V7.81C22.6699 4.17 20.4999 2 16.8599 2ZM17.6699 15.71C17.6699 17.28 16.8099 17.65 15.7699 16.53C15.2899 16.02 14.5499 16.06 14.1299 16.62L13.5399 17.41C13.0699 18.04 12.2899 18.04 11.8199 17.41L11.2199 16.61C10.7999 16.05 10.0599 16.01 9.57992 16.52C8.52992 17.64 7.66992 17.27 7.66992 15.71V9.08C7.66992 6.71 8.22992 6.12 10.4499 6.12H14.8899C17.1099 6.12 17.6699 6.71 17.6699 9.08V15.71Z" fill="#292D32"/>
</svg>
