<svg width="25" height="24" viewBox="0 0 25 24" fill="none" xmlns="http://www.w3.org/2000/svg">
<path d="M16.8599 2H8.47992C4.83992 2 2.66992 4.17 2.66992 7.81V16.18C2.66992 19.83 4.83992 22 8.47992 22H16.8499C20.4899 22 22.6599 19.83 22.6599 16.19V7.81C22.6699 4.17 20.4999 2 16.8599 2ZM18.1999 10.22L16.6299 11.79C16.4799 11.94 16.2899 12.01 16.0999 12.01C15.9099 12.01 15.7199 11.94 15.5699 11.79C15.2799 11.5 15.2799 11.02 15.5699 10.73L15.8299 10.47H10.7499C9.46992 10.47 8.41992 11.51 8.41992 12.8C8.41992 14.09 9.45992 15.13 10.7499 15.13H15.6699C16.0799 15.13 16.4199 15.47 16.4199 15.88C16.4199 16.29 16.0799 16.63 15.6699 16.63H10.7499C8.63992 16.63 6.91992 14.91 6.91992 12.8C6.91992 10.69 8.63992 8.97 10.7499 8.97H15.8999L15.5699 8.65C15.2799 8.36 15.2799 7.88 15.5699 7.59C15.8599 7.3 16.3399 7.3 16.6299 7.59L18.1999 9.16C18.4899 9.46 18.4899 9.93 18.1999 10.22Z" fill="#292D32"/>
</svg>
