<svg width="25" height="24" viewBox="0 0 25 24" fill="none" xmlns="http://www.w3.org/2000/svg">
<path d="M16.8599 2H8.47992C4.83992 2 2.66992 4.17 2.66992 7.81V16.18C2.66992 19.83 4.83992 22 8.47992 22H16.8499C20.4899 22 22.6599 19.83 22.6599 16.19V7.81C22.6699 4.17 20.4999 2 16.8599 2ZM12.6699 18.01C9.49992 18.01 6.91992 15.43 6.91992 12.26C6.91992 11.12 7.24992 10.01 7.88992 9.07C8.11992 8.72 8.58992 8.63 8.92992 8.86C9.26992 9.09 9.36992 9.56 9.12992 9.9C8.66992 10.6 8.41992 11.42 8.41992 12.26C8.41992 14.6 10.3299 16.51 12.6699 16.51C15.0099 16.51 16.9199 14.6 16.9199 12.26C16.9199 9.92 15.0099 8.01 12.6699 8.01C12.4799 8.01 12.2999 8.03 12.1099 8.05L12.6699 8.46C12.9999 8.7 13.0799 9.17 12.8299 9.51C12.6799 9.71 12.4499 9.82 12.2199 9.82C12.0699 9.82 11.9099 9.77 11.7799 9.68L9.83992 8.25C9.83992 8.25 9.82992 8.24 9.81992 8.23C9.80992 8.22 9.79992 8.22 9.78992 8.21C9.75992 8.19 9.74992 8.15 9.71992 8.12C9.68992 8.08 9.65992 8.05 9.62992 8C9.60992 7.96 9.59992 7.91 9.57992 7.87C9.56992 7.82 9.54992 7.78 9.54992 7.73C9.54992 7.68 9.54992 7.64 9.55992 7.59C9.55992 7.54 9.55992 7.5 9.57992 7.45C9.57992 7.4 9.60992 7.36 9.62992 7.31C9.64992 7.28 9.64992 7.24 9.67992 7.2C9.68992 7.2 9.69992 7.19 9.70992 7.18C9.71992 7.17 9.71992 7.16 9.72992 7.15L11.3999 5.24C11.6699 4.93 12.1499 4.89 12.4599 5.17C12.7699 5.44 12.7999 5.92 12.5299 6.23L12.2499 6.55C12.3899 6.54 12.5299 6.52 12.6799 6.52C15.8499 6.52 18.4299 9.1 18.4299 12.27C18.4299 15.44 15.8399 18.01 12.6699 18.01Z" fill="#292D32"/>
</svg>
