<svg width="25" height="24" viewBox="0 0 25 24" fill="none" xmlns="http://www.w3.org/2000/svg">
<path d="M12.6699 2C7.14992 2 2.66992 6.48 2.66992 12C2.66992 17.52 7.14992 22 12.6699 22C18.1899 22 22.6699 17.52 22.6699 12C22.6699 6.48 18.1899 2 12.6699 2ZM7.26992 11.23C7.43992 10.04 7.96992 8.97 8.79992 8.13C10.7999 6.14 13.9499 6.03 16.0899 7.77V6.82C16.0899 6.41 16.4299 6.07 16.8399 6.07C17.2499 6.07 17.5899 6.41 17.5899 6.82V9.49C17.5899 9.9 17.2499 10.24 16.8399 10.24H14.1699C13.7599 10.24 13.4199 9.9 13.4199 9.49C13.4199 9.08 13.7599 8.74 14.1699 8.74H14.9199C13.3699 7.66 11.2299 7.81 9.84992 9.19C9.24992 9.79 8.86992 10.57 8.73992 11.44C8.68992 11.81 8.36992 12.08 7.99992 12.08C7.95992 12.08 7.92992 12.08 7.88992 12.07C7.49992 12.02 7.20992 11.64 7.26992 11.23ZM16.5399 15.87C15.4699 16.94 14.0699 17.47 12.6699 17.47C11.4499 17.47 10.2399 17.04 9.23992 16.23V17.17C9.23992 17.58 8.89992 17.92 8.48992 17.92C8.07992 17.92 7.73992 17.58 7.73992 17.17V14.5C7.73992 14.09 8.07992 13.75 8.48992 13.75H11.1599C11.5699 13.75 11.9099 14.09 11.9099 14.5C11.9099 14.91 11.5699 15.25 11.1599 15.25H10.4099C11.9599 16.33 14.0999 16.18 15.4799 14.8C16.0799 14.2 16.4599 13.42 16.5899 12.55C16.6499 12.14 17.0199 11.85 17.4399 11.91C17.8499 11.97 18.1299 12.35 18.0799 12.76C17.8999 13.97 17.3699 15.04 16.5399 15.87Z" fill="#292D32"/>
</svg>
