<svg width="25" height="24" viewBox="0 0 25 24" fill="none" xmlns="http://www.w3.org/2000/svg">
<path d="M12.6699 2C7.14992 2 2.66992 6.48 2.66992 12C2.66992 17.52 7.14992 22 12.6699 22C18.1899 22 22.6699 17.52 22.6699 12C22.6699 6.48 18.1899 2 12.6699 2ZM17.8599 15.94C17.8199 16.03 17.7699 16.11 17.6999 16.18L16.0099 17.87C15.8599 18.02 15.6699 18.09 15.4799 18.09C15.2899 18.09 15.0999 18.02 14.9499 17.87C14.6599 17.58 14.6599 17.1 14.9499 16.81L15.3599 16.4H9.76992C8.46992 16.4 7.41992 15.34 7.41992 14.05V12.28C7.41992 11.87 7.75992 11.53 8.16992 11.53C8.57992 11.53 8.91992 11.87 8.91992 12.28V14.05C8.91992 14.52 9.29992 14.9 9.76992 14.9H15.3599L14.9499 14.49C14.6599 14.2 14.6599 13.72 14.9499 13.43C15.2399 13.14 15.7199 13.14 16.0099 13.43L17.6999 15.12C17.7699 15.19 17.8199 15.27 17.8599 15.36C17.9399 15.55 17.9399 15.76 17.8599 15.94ZM17.9199 11.72C17.9199 12.13 17.5799 12.47 17.1699 12.47C16.7599 12.47 16.4199 12.13 16.4199 11.72V9.95C16.4199 9.48 16.0399 9.1 15.5699 9.1H9.97992L10.3899 9.5C10.6799 9.79 10.6799 10.27 10.3899 10.56C10.2399 10.71 10.0499 10.78 9.85992 10.78C9.66992 10.78 9.47992 10.71 9.32992 10.56L7.63992 8.87C7.56992 8.8 7.51992 8.72 7.47992 8.63C7.39992 8.45 7.39992 8.24 7.47992 8.06C7.51992 7.97 7.56992 7.88 7.63992 7.81L9.32992 6.12C9.61992 5.83 10.0999 5.83 10.3899 6.12C10.6799 6.41 10.6799 6.89 10.3899 7.18L9.97992 7.59H15.5699C16.8699 7.59 17.9199 8.65 17.9199 9.94V11.72Z" fill="#292D32"/>
</svg>
