<svg width="25" height="24" viewBox="0 0 25 24" fill="none" xmlns="http://www.w3.org/2000/svg">
<path d="M16.8599 2H8.47992C4.83992 2 2.66992 4.17 2.66992 7.81V16.18C2.66992 19.83 4.83992 22 8.47992 22H16.8499C20.4899 22 22.6599 19.83 22.6599 16.19V7.81C22.6699 4.17 20.4999 2 16.8599 2ZM12.6699 18.58C9.49992 18.58 6.91992 16 6.91992 12.83C6.91992 11.69 7.24992 10.58 7.88992 9.64C8.11992 9.3 8.58992 9.2 8.92992 9.43C9.26992 9.66 9.36992 10.13 9.13992 10.47C8.66992 11.17 8.42992 11.99 8.42992 12.83C8.42992 15.17 10.3399 17.08 12.6799 17.08C15.0199 17.08 16.9299 15.17 16.9299 12.83C16.9299 10.59 15.1899 8.75 12.9899 8.59L13.3999 8.89C13.7299 9.13 13.8099 9.6 13.5599 9.94C13.3199 10.27 12.8499 10.35 12.5099 10.1L10.5699 8.69C10.4999 8.64 10.4399 8.58 10.3899 8.51C10.3799 8.5 10.3699 8.49 10.3599 8.47C10.3199 8.4 10.2899 8.32 10.2699 8.24C10.2499 8.14 10.2499 8.05 10.2599 7.95C10.2699 7.91 10.2799 7.87 10.2899 7.83C10.3099 7.76 10.3499 7.7 10.3899 7.63C10.4099 7.62 10.4299 7.6 10.4499 7.58L12.1099 5.68C12.3799 5.37 12.8599 5.34 13.1699 5.61C13.4799 5.88 13.5099 6.36 13.2399 6.67L12.8699 7.1C15.9499 7.2 18.4299 9.74 18.4299 12.85C18.4199 16 15.8399 18.58 12.6699 18.58Z" fill="#292D32"/>
</svg>
