<svg width="25" height="24" viewBox="0 0 25 24" fill="none" xmlns="http://www.w3.org/2000/svg">
<g clip-path="url(#clip0_12_65008)">
<path d="M16.8599 2H8.47992C4.83992 2 2.66992 4.17 2.66992 7.81V16.18C2.66992 19.83 4.83992 22 8.47992 22H16.8499C20.4899 22 22.6599 19.83 22.6599 16.19V7.81C22.6699 4.17 20.4999 2 16.8599 2ZM18.0199 9.05L15.6799 16.59C15.1199 18.38 12.6099 18.41 12.0199 16.63L11.3199 14.56C11.1299 13.99 10.6799 13.53 10.1099 13.35L8.02992 12.65C6.26992 12.06 6.28992 9.53 8.07992 8.99L15.6199 6.64C17.0999 6.19 18.4899 7.58 18.0199 9.05Z" fill="#292D32"/>
</g>
<defs>
<clipPath id="clip0_12_65008">
<rect width="24" height="24" fill="white" transform="translate(0.669922)"/>
</clipPath>
</defs>
</svg>
