<svg width="25" height="24" viewBox="0 0 25 24" fill="none" xmlns="http://www.w3.org/2000/svg">
<path d="M22.3599 2.71C22.2799 2.53 22.1399 2.38 21.9499 2.3C21.8599 2.27 21.7699 2.25 21.6699 2.25H12.6699C12.2599 2.25 11.9199 2.59 11.9199 3C11.9199 3.41 12.2599 3.75 12.6699 3.75H19.8599L3.13986 20.47C2.84986 20.76 2.84986 21.24 3.13986 21.53C3.28986 21.68 3.47986 21.75 3.66986 21.75C3.85986 21.75 4.04986 21.68 4.19986 21.53L20.9199 4.81V12C20.9199 12.41 21.2599 12.75 21.6699 12.75C22.0799 12.75 22.4199 12.41 22.4199 12V3C22.4199 2.9 22.3999 2.81 22.3599 2.71Z" fill="#292D32"/>
<path d="M18.07 18.15C17.88 18.15 17.69 18.08 17.54 17.93L6.73996 7.13004C6.44996 6.84004 6.44996 6.36004 6.73996 6.07004C7.02996 5.78004 7.50996 5.78004 7.79996 6.07004L18.6 16.87C18.89 17.16 18.89 17.64 18.6 17.93C18.45 18.08 18.26 18.15 18.07 18.15Z" fill="#292D32"/>
</svg>
