<svg width="25" height="24" viewBox="0 0 25 24" fill="none" xmlns="http://www.w3.org/2000/svg">
<path d="M22.6698 5.11V16.47C22.6698 17.92 21.6298 18.53 20.3598 17.83L18.4298 16.75C18.2698 16.66 18.1698 16.49 18.1698 16.31V8.99C18.1698 6.45 16.0998 4.38 13.5598 4.38H9.48976C9.11976 4.38 8.85976 3.99 9.02976 3.67C9.54976 2.68 10.5898 2 11.7798 2H19.5598C21.2698 2 22.6698 3.4 22.6698 5.11Z" fill="#292D32"/>
<path d="M13.5599 5.87988H5.77992C4.06992 5.87988 2.66992 7.27988 2.66992 8.98988V20.3499C2.66992 21.7999 3.70992 22.4099 4.97992 21.7099L8.90992 19.5199C9.32992 19.2899 10.0099 19.2899 10.4299 19.5199L14.3599 21.7099C15.6299 22.4099 16.6699 21.7999 16.6699 20.3499V8.98988C16.6699 7.27988 15.2699 5.87988 13.5599 5.87988ZM11.6099 12.8799C11.8999 13.1699 11.8999 13.6499 11.6099 13.9399C11.4599 14.0899 11.2699 14.1599 11.0799 14.1599C10.8899 14.1599 10.6999 14.0899 10.5499 13.9399L9.66992 13.0599L8.78992 13.9399C8.63992 14.0899 8.44992 14.1599 8.25992 14.1599C8.06992 14.1599 7.87992 14.0899 7.72992 13.9399C7.43992 13.6499 7.43992 13.1699 7.72992 12.8799L8.60992 11.9999L7.72992 11.1199C7.43992 10.8299 7.43992 10.3499 7.72992 10.0599C8.01992 9.76988 8.49992 9.76988 8.78992 10.0599L9.66992 10.9399L10.5499 10.0599C10.8399 9.76988 11.3199 9.76988 11.6099 10.0599C11.8999 10.3499 11.8999 10.8299 11.6099 11.1199L10.7299 11.9999L11.6099 12.8799Z" fill="#292D32"/>
</svg>
