<svg width="25" height="24" viewBox="0 0 25 24" fill="none" xmlns="http://www.w3.org/2000/svg">
<path d="M16.8599 2H8.47992C4.83992 2 2.66992 4.17 2.66992 7.81V16.18C2.66992 19.83 4.83992 22 8.47992 22H16.8499C20.4899 22 22.6599 19.83 22.6599 16.19V7.81C22.6699 4.17 20.4999 2 16.8599 2ZM10.7999 14.5C11.0899 14.79 11.0899 15.27 10.7999 15.56C10.6499 15.71 10.4599 15.78 10.2699 15.78C10.0799 15.78 9.88992 15.71 9.73992 15.56L7.24992 13.07C6.65992 12.48 6.65992 11.53 7.24992 10.94L9.73992 8.45C10.0299 8.16 10.5099 8.16 10.7999 8.45C11.0899 8.74 11.0899 9.22 10.7999 9.51L8.30992 12L10.7999 14.5ZM18.0899 13.06L15.5999 15.55C15.4499 15.7 15.2599 15.77 15.0699 15.77C14.8799 15.77 14.6899 15.7 14.5399 15.55C14.2499 15.26 14.2499 14.78 14.5399 14.49L17.0299 12L14.5399 9.5C14.2499 9.21 14.2499 8.73 14.5399 8.44C14.8299 8.15 15.3099 8.15 15.5999 8.44L18.0899 10.93C18.6799 11.52 18.6799 12.48 18.0899 13.06Z" fill="#292D32"/>
</svg>
