<svg width="25" height="24" viewBox="0 0 25 24" fill="none" xmlns="http://www.w3.org/2000/svg">
<path d="M21.58 11.1198V6.72982C21.58 5.90982 20.96 4.97982 20.19 4.66982L14.62 2.38982C13.37 1.87982 11.96 1.87982 10.71 2.38982L5.14001 4.66982C4.38001 4.97982 3.76001 5.90982 3.76001 6.72982V11.1198C3.76001 16.0098 7.31001 20.5898 12.16 21.9298C12.49 22.0198 12.85 22.0198 13.18 21.9298C18.03 20.5898 21.58 16.0098 21.58 11.1198ZM13.42 12.8698V15.4998C13.42 15.9098 13.08 16.2498 12.67 16.2498C12.26 16.2498 11.92 15.9098 11.92 15.4998V12.8698C10.91 12.5498 10.17 11.6098 10.17 10.4998C10.17 9.11982 11.29 7.99982 12.67 7.99982C14.05 7.99982 15.17 9.11982 15.17 10.4998C15.17 11.6198 14.43 12.5498 13.42 12.8698Z" fill="#292D32"/>
</svg>
