<svg width="25" height="24" viewBox="0 0 25 24" fill="none" xmlns="http://www.w3.org/2000/svg">
<path d="M12.6699 8.25C10.8799 8.25 9.41992 9.71 9.41992 11.5C9.41992 13.29 10.8799 14.75 12.6699 14.75C14.4599 14.75 15.9199 13.29 15.9199 11.5C15.9199 9.71 14.4599 8.25 12.6699 8.25ZM13.6699 11.18C13.6699 11.79 13.3399 12.37 12.8199 12.68L12.0499 13.14C11.9299 13.21 11.7999 13.25 11.6599 13.25C11.4099 13.25 11.1599 13.12 11.0199 12.89C10.8099 12.53 10.9199 12.07 11.2799 11.86L12.0399 11.4C12.1199 11.35 12.1599 11.27 12.1599 11.19V10.26C12.1599 9.85 12.4999 9.51 12.9099 9.51C13.3199 9.51 13.6699 9.84 13.6699 10.25V11.18Z" fill="#292D32"/>
<path d="M19.2097 4.16989L13.7097 2.10989C13.1397 1.89989 12.2097 1.89989 11.6397 2.10989L6.13973 4.16989C5.07973 4.56989 4.21973 5.80989 4.21973 6.93989V15.0399C4.21973 15.8499 4.74973 16.9199 5.39973 17.3999L10.8997 21.5099C11.8697 22.2399 13.4597 22.2399 14.4297 21.5099L19.9297 17.3999C20.5797 16.9099 21.1097 15.8499 21.1097 15.0399V6.93989C21.1197 5.80989 20.2597 4.56989 19.2097 4.16989ZM12.6697 16.2499C10.0497 16.2499 7.91973 14.1199 7.91973 11.4999C7.91973 8.87989 10.0497 6.74989 12.6697 6.74989C15.2897 6.74989 17.4197 8.87989 17.4197 11.4999C17.4197 14.1199 15.2897 16.2499 12.6697 16.2499Z" fill="#292D32"/>
</svg>
