<svg width="25" height="24" viewBox="0 0 25 24" fill="none" xmlns="http://www.w3.org/2000/svg">
<path d="M14.1618 13.38H11.6718C11.3718 13.38 11.1318 13.62 11.1318 13.92C11.1318 14.22 11.3718 14.46 11.6718 14.46H14.1618C14.4618 14.46 14.7018 14.22 14.7018 13.92C14.7018 13.62 14.4618 13.38 14.1618 13.38Z" fill="#292D32"/>
<path d="M10.1123 13.38H8.86227C8.56227 13.38 8.32227 13.62 8.32227 13.92C8.32227 14.22 8.56227 14.46 8.86227 14.46H10.1123C10.4123 14.46 10.6523 14.22 10.6523 13.92C10.6523 13.62 10.4123 13.38 10.1123 13.38Z" fill="#292D32"/>
<path d="M19.2117 4.21994L13.7117 2.15994C13.1417 1.94994 12.2117 1.94994 11.6417 2.15994L6.14168 4.21994C5.08168 4.61994 4.22168 5.85994 4.22168 6.98994V15.0899C4.22168 15.8999 4.75168 16.9699 5.40168 17.4499L10.9017 21.5599C11.8717 22.2899 13.4617 22.2899 14.4317 21.5599L19.9317 17.4499C20.5817 16.9599 21.1117 15.8999 21.1117 15.0899V6.98994C21.1217 5.85994 20.2617 4.61994 19.2117 4.21994ZM18.8417 13.6499C18.8217 15.7199 18.2517 16.2399 16.1017 16.2399H9.25168C7.06168 16.2399 6.51168 15.6999 6.51168 13.5299V11.1999C6.51168 10.9199 6.73168 10.6999 7.01168 10.6999H18.3417C18.6217 10.6999 18.8417 10.9199 18.8417 11.1999V13.6499ZM18.8417 9.10994C18.8417 9.38994 18.6217 9.60994 18.3417 9.60994H7.01168C6.73168 9.60994 6.51168 9.38994 6.51168 9.10994V8.46994C6.51168 6.50994 6.97168 5.87994 8.68168 5.76994C8.86168 5.76994 9.05168 5.75994 9.25168 5.75994H16.1017C18.2917 5.75994 18.8417 6.29994 18.8417 8.46994V9.10994Z" fill="#292D32"/>
</svg>
