<svg width="25" height="24" viewBox="0 0 25 24" fill="none" xmlns="http://www.w3.org/2000/svg">
<path d="M16.8599 2H8.47992C4.83992 2 2.66992 4.17 2.66992 7.81V16.18C2.66992 19.83 4.83992 22 8.47992 22H16.8499C20.4899 22 22.6599 19.83 22.6599 16.19V7.81C22.6699 4.17 20.4999 2 16.8599 2ZM9.30992 12.81L13.6899 8.43H11.2599C10.8499 8.43 10.5099 8.09 10.5099 7.68C10.5099 7.27 10.8499 6.93 11.2599 6.93H15.4999C15.5999 6.93 15.6899 6.95 15.7899 6.99C15.9699 7.07 16.1199 7.21 16.1999 7.4C16.2399 7.49 16.2599 7.59 16.2599 7.69V11.93C16.2599 12.34 15.9199 12.68 15.5099 12.68C15.0999 12.68 14.7599 12.34 14.7599 11.93V9.5L10.3699 13.87C10.2199 14.02 10.0299 14.09 9.83992 14.09C9.64992 14.09 9.45992 14.02 9.30992 13.87C9.01992 13.58 9.01992 13.1 9.30992 12.81ZM18.9099 17.22C16.8999 17.89 14.7899 18.23 12.6699 18.23C10.5499 18.23 8.43992 17.89 6.42992 17.22C6.03992 17.09 5.82992 16.66 5.95992 16.27C6.08992 15.88 6.50992 15.66 6.90992 15.8C10.6299 17.04 14.7199 17.04 18.4399 15.8C18.8299 15.67 19.2599 15.88 19.3899 16.27C19.5099 16.67 19.2999 17.09 18.9099 17.22Z" fill="#292D32"/>
</svg>
