<svg width="25" height="24" viewBox="0 0 25 24" fill="none" xmlns="http://www.w3.org/2000/svg">
<path d="M21.9699 7.58018H16.3899C15.9999 7.58018 15.6899 7.27018 15.6899 6.88018C15.6899 6.49018 15.9999 6.18018 16.3899 6.18018H21.9699C22.3599 6.18018 22.6699 6.49018 22.6699 6.88018C22.6699 7.27018 22.3599 7.58018 21.9699 7.58018Z" fill="#292D32"/>
<path d="M7.08992 7.58018H3.36992C2.97992 7.58018 2.66992 7.27018 2.66992 6.88018C2.66992 6.49018 2.97992 6.18018 3.36992 6.18018H7.08992C7.47992 6.18018 7.78992 6.49018 7.78992 6.88018C7.78992 7.27018 7.46992 7.58018 7.08992 7.58018Z" fill="#292D32"/>
<path d="M10.8099 10.8302C12.9914 10.8302 14.7599 9.0617 14.7599 6.88018C14.7599 4.69865 12.9914 2.93018 10.8099 2.93018C8.62834 2.93018 6.85986 4.69865 6.85986 6.88018C6.85986 9.0617 8.62834 10.8302 10.8099 10.8302Z" fill="#292D32"/>
<path d="M21.9698 17.8102H18.2498C17.8598 17.8102 17.5498 17.5002 17.5498 17.1102C17.5498 16.7202 17.8598 16.4102 18.2498 16.4102H21.9698C22.3598 16.4102 22.6698 16.7202 22.6698 17.1102C22.6698 17.5002 22.3598 17.8102 21.9698 17.8102Z" fill="#292D32"/>
<path d="M8.94992 17.8102H3.36992C2.97992 17.8102 2.66992 17.5002 2.66992 17.1102C2.66992 16.7202 2.97992 16.4102 3.36992 16.4102H8.94992C9.33992 16.4102 9.64992 16.7202 9.64992 17.1102C9.64992 17.5002 9.32992 17.8102 8.94992 17.8102Z" fill="#292D32"/>
<path d="M14.5301 21.0699C16.7116 21.0699 18.4801 19.3014 18.4801 17.1199C18.4801 14.9384 16.7116 13.1699 14.5301 13.1699C12.3486 13.1699 10.5801 14.9384 10.5801 17.1199C10.5801 19.3014 12.3486 21.0699 14.5301 21.0699Z" fill="#292D32"/>
</svg>
