<svg width="25" height="24" viewBox="0 0 25 24" fill="none" xmlns="http://www.w3.org/2000/svg">
<path d="M19.61 5.41994L14.44 2.42994C13.45 1.85994 11.9 1.85994 10.91 2.42994L5.69 5.43994C3.62 6.83994 3.5 7.04994 3.5 9.27994V14.7099C3.5 16.9399 3.62 17.1599 5.73 18.5799L10.9 21.5699C11.4 21.8599 12.04 21.9999 12.67 21.9999C13.3 21.9999 13.94 21.8599 14.43 21.5699L19.65 18.5599C21.72 17.1599 21.84 16.9499 21.84 14.7199V9.27994C21.84 7.04994 21.72 6.83994 19.61 5.41994ZM12.67 15.2499C10.88 15.2499 9.42 13.7899 9.42 11.9999C9.42 10.2099 10.88 8.74994 12.67 8.74994C14.46 8.74994 15.92 10.2099 15.92 11.9999C15.92 13.7899 14.46 15.2499 12.67 15.2499Z" fill="#292D32"/>
</svg>
