<svg width="25" height="24" viewBox="0 0 25 24" fill="none" xmlns="http://www.w3.org/2000/svg">
<path d="M19.2097 4.11984L13.7097 2.05984C13.1397 1.84984 12.2097 1.84984 11.6397 2.05984L6.13973 4.11984C5.07973 4.51984 4.21973 5.75984 4.21973 6.88984V14.9898C4.21973 15.7998 4.74973 16.8698 5.39973 17.3498L10.8997 21.4598C11.8697 22.1898 13.4597 22.1898 14.4297 21.4598L19.9297 17.3498C20.5797 16.8598 21.1097 15.7998 21.1097 14.9898V6.88984C21.1197 5.75984 20.2597 4.51984 19.2097 4.11984ZM15.3497 13.9698C15.1997 14.1198 15.0097 14.1898 14.8197 14.1898C14.6297 14.1898 14.4397 14.1198 14.2897 13.9698L12.6997 12.3798L11.0597 14.0198C10.9097 14.1698 10.7197 14.2398 10.5297 14.2398C10.3397 14.2398 10.1497 14.1698 9.99973 14.0198C9.70973 13.7298 9.70973 13.2498 9.99973 12.9598L11.6397 11.3198L10.0397 9.71984C9.74973 9.42984 9.74973 8.94984 10.0397 8.65984C10.3297 8.36984 10.8097 8.36984 11.0997 8.65984L12.6897 10.2498L14.2397 8.69984C14.5297 8.40984 15.0097 8.40984 15.2997 8.69984C15.5897 8.98984 15.5897 9.46984 15.2997 9.75984L13.7497 11.3098L15.3397 12.8998C15.6397 13.1998 15.6397 13.6698 15.3497 13.9698Z" fill="#292D32"/>
</svg>
