<svg width="25" height="24" viewBox="0 0 25 24" fill="none" xmlns="http://www.w3.org/2000/svg">
<path d="M21.0798 6.95994V8.78994C21.0798 9.42994 20.7798 10.0299 20.2598 10.3999L9.25977 18.4599C8.54977 18.9799 7.57977 18.9799 6.87977 18.4499L5.43977 17.3699C4.78977 16.8799 4.25977 15.8199 4.25977 15.0099V6.95994C4.25977 5.83994 5.11977 4.59994 6.16977 4.20994L11.6398 2.15994C12.2098 1.94994 13.1298 1.94994 13.6998 2.15994L19.1698 4.20994C20.2198 4.59994 21.0798 5.83994 21.0798 6.95994Z" fill="#292D32"/>
<path d="M19.49 12.3399C20.15 11.8599 21.08 12.3299 21.08 13.1499V15.0299C21.08 15.8399 20.55 16.8899 19.9 17.3799L14.43 21.4699C13.95 21.8199 13.31 21.9999 12.67 21.9999C12.03 21.9999 11.39 21.8199 10.91 21.4599L10.08 20.8399C9.54003 20.4399 9.54003 19.6299 10.09 19.2299L19.49 12.3399Z" fill="#292D32"/>
</svg>
