<svg width="25" height="24" viewBox="0 0 25 24" fill="none" xmlns="http://www.w3.org/2000/svg">
<path d="M23.0296 8.27L22.7396 5.5C22.3196 2.48 20.9496 1.25 18.0196 1.25H15.6596H14.1796H11.1396H9.65957H7.25957C4.31957 1.25 2.95957 2.48 2.52957 5.53L2.25957 8.28C2.15957 9.35 2.44957 10.39 3.07957 11.2C3.83957 12.19 5.00957 12.75 6.30957 12.75C7.56957 12.75 8.77957 12.12 9.53957 11.11C10.2196 12.12 11.3796 12.75 12.6696 12.75C13.9596 12.75 15.0896 12.15 15.7796 11.15C16.5496 12.14 17.7396 12.75 18.9796 12.75C20.3096 12.75 21.5096 12.16 22.2596 11.12C22.8596 10.32 23.1296 9.31 23.0296 8.27Z" fill="#292D32"/>
<path d="M12.02 16.6602C10.75 16.7902 9.79004 17.8702 9.79004 19.1502V21.8902C9.79004 22.1602 10.01 22.3802 10.28 22.3802H15.05C15.32 22.3802 15.54 22.1602 15.54 21.8902V19.5002C15.55 17.4102 14.32 16.4202 12.02 16.6602Z" fill="#292D32"/>
<path d="M22.0398 14.4001V17.3801C22.0398 20.1401 19.7998 22.3801 17.0398 22.3801C16.7698 22.3801 16.5498 22.1601 16.5498 21.8901V19.5001C16.5498 18.2201 16.1598 17.2201 15.3998 16.5401C14.7298 15.9301 13.8198 15.6301 12.6898 15.6301C12.4398 15.6301 12.1898 15.6401 11.9198 15.6701C10.1398 15.8501 8.7898 17.3501 8.7898 19.1501V21.8901C8.7898 22.1601 8.5698 22.3801 8.2998 22.3801C5.5398 22.3801 3.2998 20.1401 3.2998 17.3801V14.4201C3.2998 13.7201 3.9898 13.2501 4.6398 13.4801C4.9098 13.5701 5.1798 13.6401 5.4598 13.6801C5.5798 13.7001 5.7098 13.7201 5.8298 13.7201C5.9898 13.7401 6.1498 13.7501 6.3098 13.7501C7.4698 13.7501 8.6098 13.3201 9.5098 12.5801C10.3698 13.3201 11.4898 13.7501 12.6698 13.7501C13.8598 13.7501 14.9598 13.3401 15.8198 12.6001C16.7198 13.3301 17.8398 13.7501 18.9798 13.7501C19.1598 13.7501 19.3398 13.7401 19.5098 13.7201C19.6298 13.7101 19.7398 13.7001 19.8498 13.6801C20.1598 13.6401 20.4398 13.5501 20.7198 13.4601C21.3698 13.2401 22.0398 13.7201 22.0398 14.4001Z" fill="#292D32"/>
</svg>
