<svg width="25" height="24" viewBox="0 0 25 24" fill="none" xmlns="http://www.w3.org/2000/svg">
<path d="M16.6699 8.75C16.2599 8.75 15.9199 8.41 15.9199 8V4.5C15.9199 3.42 15.2499 2.75 14.1699 2.75H11.1699C10.0899 2.75 9.41992 3.42 9.41992 4.5V8C9.41992 8.41 9.07992 8.75 8.66992 8.75C8.25992 8.75 7.91992 8.41 7.91992 8V4.5C7.91992 2.59 9.25992 1.25 11.1699 1.25H14.1699C16.0799 1.25 17.4199 2.59 17.4199 4.5V8C17.4199 8.41 17.0799 8.75 16.6699 8.75Z" fill="#292D32"/>
<path d="M8.66977 17.78C8.25977 17.78 7.91977 17.44 7.91977 17.03C7.91977 16.61 8.25977 16.28 8.66977 16.28H20.4298C20.7298 16.28 20.9598 16.02 20.9298 15.72L20.2498 10.03C20.0098 8.09 19.6698 6.5 16.2698 6.5H9.06977C5.66977 6.5 5.32977 8.09 5.09977 10.03L4.19977 17.53C3.90977 19.99 4.66977 22 8.17977 22H17.1598C20.3198 22 21.2498 20.37 21.1998 18.25C21.1898 17.98 20.9698 17.78 20.6998 17.78H8.66977Z" fill="#292D32"/>
</svg>
