<svg width="25" height="24" viewBox="0 0 25 24" fill="none" xmlns="http://www.w3.org/2000/svg">
<path d="M22.4197 17.98C22.4197 17.96 22.4097 17.94 22.4097 17.92C22.3997 17.84 22.3897 17.76 22.3597 17.69C22.3197 17.6 22.2697 17.53 22.2097 17.46C22.2097 17.46 22.2097 17.45 22.1997 17.45C22.1297 17.38 22.0497 17.33 21.9597 17.29C21.8697 17.25 21.7697 17.23 21.6697 17.23L16.9997 17.25C16.9997 17.25 16.9997 17.25 16.9897 17.25C16.3897 17.25 15.8097 16.97 15.4497 16.49L14.2297 14.92C13.9797 14.59 13.5097 14.53 13.1797 14.79C12.8497 15.05 12.7897 15.51 13.0497 15.84L14.2697 17.41C14.9197 18.25 15.9397 18.75 16.9997 18.75H17.0097L19.8597 18.74L19.1497 19.45C18.8597 19.74 18.8597 20.22 19.1497 20.51C19.2997 20.66 19.4897 20.73 19.6797 20.73C19.8697 20.73 20.0597 20.66 20.2097 20.51L22.2097 18.51C22.2797 18.44 22.3297 18.36 22.3697 18.27C22.3997 18.17 22.4197 18.07 22.4197 17.98Z" fill="#292D32"/>
<path d="M9.08992 6.69001C8.43992 5.79001 7.39992 5.26001 6.28992 5.26001C6.27992 5.26001 6.27992 5.26001 6.26992 5.26001L3.66992 5.27001C3.25992 5.27001 2.91992 5.61001 2.91992 6.02001C2.91992 6.43001 3.25992 6.77001 3.66992 6.77001L6.27992 6.76001H6.28992C6.91992 6.76001 7.50992 7.06001 7.86992 7.57001L8.94992 9.07001C9.09992 9.27001 9.32992 9.38001 9.55992 9.38001C9.70992 9.38001 9.86992 9.33001 9.99992 9.24001C10.3399 8.99001 10.4099 8.52001 10.1699 8.19001L9.08992 6.69001Z" fill="#292D32"/>
<path d="M22.4099 6.08C22.4099 6.06 22.4199 6.04 22.4199 6.03C22.4199 5.93 22.3999 5.83 22.3599 5.74C22.3199 5.65 22.2699 5.57 22.1999 5.5L20.1999 3.5C19.9099 3.21 19.4299 3.21 19.1399 3.5C18.8499 3.79 18.8499 4.27 19.1399 4.56L19.8499 5.27L17.1199 5.26C17.1099 5.26 17.1099 5.26 17.0999 5.26C15.9499 5.26 14.8699 5.83 14.2299 6.8L7.83992 16.38C7.47992 16.92 6.86992 17.25 6.21992 17.25H6.20992L3.66992 17.23C3.25992 17.23 2.91992 17.56 2.91992 17.98C2.91992 18.39 3.24992 18.73 3.66992 18.73L6.21992 18.74C6.22992 18.74 6.22992 18.74 6.23992 18.74C7.39992 18.74 8.46992 18.17 9.10992 17.2L15.4999 7.62C15.8599 7.08 16.4699 6.75 17.1199 6.75H17.1299L21.6699 6.77C21.7699 6.77 21.8599 6.75 21.9599 6.71C22.0499 6.67 22.1299 6.62 22.1999 6.55C22.1999 6.55 22.1999 6.54 22.2099 6.54C22.2699 6.47 22.3299 6.4 22.3599 6.31C22.3899 6.24 22.3999 6.16 22.4099 6.08Z" fill="#292D32"/>
</svg>
