<svg width="25" height="24" viewBox="0 0 25 24" fill="none" xmlns="http://www.w3.org/2000/svg">
<path d="M8.47992 2C6.98992 2 5.74992 2.36 4.79992 3.05C4.37992 3.34 4.00992 3.71 3.71992 4.13C3.02992 5.08 2.66992 6.32 2.66992 7.81V16.19C2.66992 19.83 4.83992 22 8.47992 22H15.9499V2H8.47992ZM12.7899 12.53L10.2299 15.09C10.0799 15.24 9.88992 15.31 9.69992 15.31C9.50992 15.31 9.31992 15.24 9.16992 15.09C8.87992 14.8 8.87992 14.32 9.16992 14.03L11.1899 12L9.16992 9.97C8.86992 9.68 8.86992 9.2 9.16992 8.91C9.46992 8.62 9.93992 8.62 10.2299 8.91L12.7899 11.47C13.0799 11.76 13.0799 12.24 12.7899 12.53Z" fill="#292D32"/>
<path d="M17.45 2.03003V21.98C18.68 21.9 19.72 21.55 20.54 20.95C20.96 20.66 21.33 20.29 21.62 19.87C22.31 18.92 22.67 17.68 22.67 16.19V7.81003C22.67 4.37003 20.73 2.24003 17.45 2.03003Z" fill="#292D32"/>
</svg>
