<svg width="25" height="24" viewBox="0 0 25 24" fill="none" xmlns="http://www.w3.org/2000/svg">
<path d="M2.66992 7.81003V16.19C2.66992 17.68 3.02992 18.92 3.71992 19.87C4.00992 20.29 4.37992 20.66 4.79992 20.95C5.61992 21.55 6.65992 21.9 7.88992 21.98V2.03003C4.60992 2.24003 2.66992 4.37003 2.66992 7.81003Z" fill="#292D32"/>
<path d="M21.6199 4.13C21.3299 3.71 20.9599 3.34 20.5399 3.05C19.5899 2.36 18.3499 2 16.8599 2H9.38989V22H16.8599C20.4999 22 22.6699 19.83 22.6699 16.19V7.81C22.6699 6.32 22.3099 5.08 21.6199 4.13ZM16.1699 14.03C16.4599 14.32 16.4599 14.8 16.1699 15.09C16.0199 15.24 15.8299 15.31 15.6399 15.31C15.4499 15.31 15.2599 15.24 15.1099 15.09L12.5499 12.53C12.2599 12.24 12.2599 11.76 12.5499 11.47L15.1099 8.91C15.3999 8.62 15.8799 8.62 16.1699 8.91C16.4599 9.2 16.4599 9.68 16.1699 9.97L14.1499 12L16.1699 14.03Z" fill="#292D32"/>
</svg>
