<svg width="25" height="24" viewBox="0 0 25 24" fill="none" xmlns="http://www.w3.org/2000/svg">
<path d="M20.2099 6.54L17.1399 3.47C16.1999 2.53 14.9299 2 13.5999 2H8.66992C5.66992 2 3.66992 4 3.66992 7V17C3.66992 20 5.66992 22 8.66992 22H16.6699C19.6699 22 21.6699 20 21.6699 17V10.07C21.6699 8.74 21.1399 7.47 20.2099 6.54ZM10.6999 17.47C10.9899 17.76 10.9899 18.24 10.6999 18.53C10.5499 18.68 10.3599 18.75 10.1699 18.75C9.97992 18.75 9.78992 18.68 9.63992 18.53L7.63992 16.53C7.34992 16.24 7.34992 15.76 7.63992 15.47L9.63992 13.47C9.92992 13.18 10.4099 13.18 10.6999 13.47C10.9899 13.76 10.9899 14.24 10.6999 14.53L9.22992 16L10.6999 17.47ZM17.6999 16.53L15.6999 18.53C15.5499 18.68 15.3599 18.75 15.1699 18.75C14.9799 18.75 14.7899 18.68 14.6399 18.53C14.3499 18.24 14.3499 17.76 14.6399 17.47L16.1099 16L14.6399 14.53C14.3499 14.24 14.3499 13.76 14.6399 13.47C14.9299 13.18 15.4099 13.18 15.6999 13.47L17.6999 15.47C17.9899 15.76 17.9899 16.24 17.6999 16.53Z" fill="#292D32"/>
</svg>
