<svg width="25" height="24" viewBox="0 0 25 24" fill="none" xmlns="http://www.w3.org/2000/svg">
<path d="M15.21 1.88C13.98 1.88 12.98 2.87999 12.98 4.10999V8.75C12.98 9.98 13.98 10.98 15.21 10.98C16.44 10.98 17.44 9.98 17.44 8.75V4.10999C17.44 2.88999 16.44 1.88 15.21 1.88Z" fill="black"/>
<path d="M20.8501 7.10999C19.7801 7.10999 18.9102 7.97999 18.9102 9.04999V10.62C18.9102 10.83 19.0801 11 19.2901 11H20.8602C21.9302 11 22.8002 10.13 22.8002 9.06C22.8002 7.99 21.9201 7.10999 20.8501 7.10999Z" fill="black"/>
<path d="M9.1698 6.98999H4.5298C3.2998 6.98999 2.2998 7.99 2.2998 9.22C2.2998 10.45 3.2998 11.45 4.5298 11.45H9.1698C10.3998 11.45 11.3998 10.45 11.3998 9.22C11.3998 7.99 10.3998 6.98999 9.1698 6.98999Z" fill="black"/>
<path d="M9.46001 1.62C8.39001 1.62 7.52002 2.49 7.52002 3.56C7.52002 4.63 8.39001 5.5 9.46001 5.5H11.03C11.24 5.5 11.41 5.33 11.41 5.12V3.54999C11.4 2.49999 10.53 1.62 9.46001 1.62Z" fill="black"/>
<path d="M10.1001 13.03C8.87011 13.03 7.87012 14.03 7.87012 15.26V19.9C7.87012 21.13 8.87011 22.13 10.1001 22.13C11.3301 22.13 12.3301 21.13 12.3301 19.9V15.26C12.3301 14.03 11.3301 13.03 10.1001 13.03Z" fill="black"/>
<path d="M6.03001 13.03H4.46001C3.39001 13.03 2.52002 13.9 2.52002 14.97C2.52002 16.04 3.39001 16.91 4.46001 16.91C5.53001 16.91 6.40001 16.04 6.40001 14.97V13.4C6.40001 13.2 6.23001 13.03 6.03001 13.03Z" fill="black"/>
<path d="M20.7802 12.57H16.1402C14.9102 12.57 13.9102 13.57 13.9102 14.8C13.9102 16.03 14.9102 17.03 16.1402 17.03H20.7802C22.0102 17.03 23.0101 16.03 23.0101 14.8C23.0101 13.57 22.0102 12.57 20.7802 12.57Z" fill="black"/>
<path d="M15.8499 18.47H14.2799C14.0699 18.47 13.8999 18.64 13.8999 18.85V20.42C13.8999 21.49 14.7699 22.36 15.8399 22.36C16.9099 22.36 17.7799 21.49 17.7799 20.42C17.7899 19.34 16.9199 18.47 15.8499 18.47Z" fill="black"/>
</svg>
