<svg width="25" height="24" viewBox="0 0 25 24" fill="none" xmlns="http://www.w3.org/2000/svg">
<path d="M19.61 3.5H5.72998C5.31998 3.5 4.97998 3.16 4.97998 2.75C4.97998 2.34 5.31998 2 5.72998 2H19.61C20.02 2 20.36 2.34 20.36 2.75C20.36 3.16 20.02 3.5 19.61 3.5Z" fill="#292D32"/>
<path d="M19.61 22H5.72998C5.31998 22 4.97998 21.66 4.97998 21.25C4.97998 20.84 5.31998 20.5 5.72998 20.5H19.61C20.02 20.5 20.36 20.84 20.36 21.25C20.36 21.66 20.02 22 19.61 22Z" fill="#292D32"/>
<path d="M3.41992 8V16C3.41992 17.66 4.75992 19 6.41992 19H18.9199C20.5799 19 21.9199 17.66 21.9199 16V8C21.9199 6.34 20.5799 5 18.9199 5H6.41992C4.75992 5 3.41992 6.34 3.41992 8Z" fill="#292D32"/>
</svg>
