<svg width="25" height="24" viewBox="0 0 25 24" fill="none" xmlns="http://www.w3.org/2000/svg">
<path d="M19.3798 9.49C19.2798 9.49 19.1798 9.47001 19.0798 9.43001C18.6998 9.26 18.5298 8.82 18.6898 8.44C18.8798 8.01 18.7698 7.38 18.4198 6.86C18.0698 6.33 17.5398 5.97 17.0598 6C16.6198 6 16.3098 5.67 16.2998 5.26C16.2998 4.84 16.6298 4.51 17.0398 4.5C18.0698 4.48 19.0398 5.07 19.6698 6.02C20.3098 6.98 20.4598 8.13 20.0698 9.03C19.9498 9.32 19.6698 9.49 19.3798 9.49Z" fill="#292D32"/>
<path d="M22.4901 10.4801C22.4201 10.4801 22.3601 10.4701 22.2901 10.4501C21.8901 10.3401 21.6601 9.9301 21.7701 9.5301C22.1501 8.1701 21.8301 6.5501 20.9201 5.1901C20.0101 3.8301 18.6301 2.9201 17.2201 2.7501C16.8101 2.7001 16.5201 2.3301 16.5701 1.9201C16.6201 1.5101 17.0001 1.2101 17.4001 1.2701C19.2301 1.4901 21.0101 2.6501 22.1601 4.3701C23.3101 6.0901 23.7001 8.1701 23.2101 9.9501C23.1201 10.2601 22.8201 10.4801 22.4901 10.4801Z" fill="#292D32"/>
<path d="M17.7898 11.78C17.7898 12.08 17.5398 12.33 17.2398 12.33H4.0998C3.7998 12.33 3.5498 12.08 3.5498 11.78C3.5498 11.48 3.7998 11.23 4.0998 11.23H4.8398L5.1198 9.90996C5.3798 8.62996 5.9298 7.45996 8.1098 7.45996H13.2398C15.4198 7.45996 15.9598 8.63996 16.2298 9.90996L16.5098 11.23H17.2498C17.5398 11.23 17.7898 11.48 17.7898 11.78Z" fill="#292D32"/>
<path d="M18.0995 15.9099C17.9895 14.7099 17.6695 13.4199 15.3295 13.4199H6.00948C3.66948 13.4199 3.34948 14.7099 3.23948 15.9099L2.82948 20.3599C2.77948 20.9099 2.95948 21.4699 3.33948 21.8899C3.72948 22.3099 4.26948 22.5499 4.85948 22.5499H6.22948C7.40948 22.5499 7.63948 21.8699 7.78948 21.4299L7.93948 20.9899C8.10948 20.4899 8.14948 20.3599 8.80948 20.3599H12.5495C13.2095 20.3599 13.2295 20.4299 13.4195 20.9899L13.5695 21.4299C13.7195 21.8799 13.9395 22.5499 15.1295 22.5499H16.4995C17.0795 22.5499 17.6295 22.3099 18.0195 21.8899C18.3995 21.4699 18.5795 20.9199 18.5295 20.3599L18.0995 15.9099ZM8.47948 17.4299H6.28948C5.98948 17.4299 5.73948 17.1799 5.73948 16.8799C5.73948 16.5799 5.98948 16.3299 6.28948 16.3299H8.47948C8.77948 16.3299 9.02948 16.5799 9.02948 16.8799C9.02948 17.1799 8.77948 17.4299 8.47948 17.4299ZM15.0495 17.4299H12.8595C12.5595 17.4299 12.3095 17.1799 12.3095 16.8799C12.3095 16.5799 12.5595 16.3299 12.8595 16.3299H15.0495C15.3495 16.3299 15.5995 16.5799 15.5995 16.8799C15.5995 17.1799 15.3495 17.4299 15.0495 17.4299Z" fill="#292D32"/>
</svg>
