<svg width="25" height="24" viewBox="0 0 25 24" fill="none" xmlns="http://www.w3.org/2000/svg">
<path d="M20.1699 8C21.5506 8 22.6699 6.88071 22.6699 5.5C22.6699 4.11929 21.5506 3 20.1699 3C18.7892 3 17.6699 4.11929 17.6699 5.5C17.6699 6.88071 18.7892 8 20.1699 8Z" fill="#292D32"/>
<path d="M20.1699 8C21.5506 8 22.6699 6.88071 22.6699 5.5C22.6699 4.11929 21.5506 3 20.1699 3C18.7892 3 17.6699 4.11929 17.6699 5.5C17.6699 6.88071 18.7892 8 20.1699 8Z" fill="#292D32"/>
<path d="M21.3899 9.31C20.6899 9.53 19.9199 9.57 19.1199 9.37C17.7799 9.02 16.6899 7.95 16.3199 6.61C16.1399 5.96 16.1299 5.32 16.2399 4.74C16.3699 4.1 15.9199 3.5 15.2799 3.5H7.66992C4.66992 3.5 2.66992 5 2.66992 8.5V15.5C2.66992 19 4.66992 20.5 7.66992 20.5H17.6699C20.6699 20.5 22.6699 19 22.6699 15.5V10.26C22.6699 9.6 22.0299 9.1 21.3899 9.31ZM16.1899 11.15L15.0099 12.09C14.3499 12.62 13.5099 12.88 12.6699 12.88C11.8299 12.88 10.9799 12.62 10.3299 12.09L7.19992 9.59C6.87992 9.33 6.82992 8.85 7.07992 8.53C7.33992 8.21 7.80992 8.15 8.12992 8.41L11.2599 10.91C12.0199 11.52 13.3099 11.52 14.0699 10.91L15.2499 9.97C15.5699 9.71 16.0499 9.76 16.2999 10.09C16.5599 10.41 16.5099 10.89 16.1899 11.15Z" fill="#292D32"/>
</svg>
