<svg width="25" height="24" viewBox="0 0 25 24" fill="none" xmlns="http://www.w3.org/2000/svg">
<path d="M20.1501 2.81998L20.4301 3.38998C20.5701 3.66998 20.9201 3.92998 21.2301 3.98998L21.6101 4.04998C22.7501 4.23998 23.0201 5.07998 22.2001 5.90998L21.8501 6.25998C21.6201 6.49998 21.4901 6.95998 21.5601 7.27998L21.6101 7.48997C21.9201 8.86998 21.1901 9.39998 19.9901 8.67998L19.7301 8.52997C19.4201 8.34998 18.9201 8.34998 18.6101 8.52997L18.3501 8.67998C17.1401 9.40998 16.4101 8.86998 16.7301 7.48997L16.7801 7.27998C16.8501 6.95998 16.7201 6.49998 16.4901 6.25998L16.1401 5.89998C15.3201 5.06998 15.5901 4.22998 16.7301 4.03998L17.1101 3.97998C17.4101 3.92998 17.7701 3.65998 17.9101 3.37998L18.1901 2.80998C18.7301 1.72997 19.6101 1.72997 20.1501 2.81998Z" fill="#292D32"/>
<path d="M22.2399 10.09C21.8799 10.35 20.8699 10.83 19.4299 10.09C19.2699 10.01 19.0699 10 18.9099 10.09C18.3399 10.38 17.8199 10.5 17.4099 10.5C16.7699 10.5 16.3199 10.25 16.0999 10.09C15.7299 9.82 14.9499 9.05 15.2199 7.42C15.2499 7.25 15.1999 7.08 15.0899 6.95C14.3999 6.16 14.0199 5.1 14.2899 4.27C14.3899 3.94 14.1799 3.5 13.8399 3.5H7.66992C4.66992 3.5 2.66992 5 2.66992 8.5V15.5C2.66992 19 4.66992 20.5 7.66992 20.5H17.6699C20.6699 20.5 22.6699 19 22.6699 15.5V10.27C22.6699 10.08 22.3999 9.98 22.2399 10.09ZM15.0099 12.09C14.3499 12.62 13.5099 12.88 12.6699 12.88C11.8299 12.88 10.9799 12.62 10.3299 12.09L7.19992 9.59C6.87992 9.33 6.82992 8.85 7.07992 8.53C7.33992 8.21 7.80992 8.15 8.12992 8.41L11.2599 10.91C12.0199 11.52 13.3099 11.52 14.0699 10.91C14.3899 10.65 14.8599 10.7 15.1199 11.03C15.3899 11.35 15.3399 11.83 15.0099 12.09Z" fill="#292D32"/>
</svg>
