<svg width="25" height="24" viewBox="0 0 25 24" fill="none" xmlns="http://www.w3.org/2000/svg">
<path d="M17.6699 3H7.66992C4.66992 3 2.66992 4.5 2.66992 8V15C2.66992 18.5 4.66992 20 7.66992 20H11.2399C11.8299 20 12.3099 19.48 12.2299 18.89C12.1299 18.18 12.1499 17.44 12.2999 16.68C12.8299 14.08 14.9699 12.01 17.5899 11.58C18.8999 11.37 20.1499 11.55 21.2499 12.03C21.9199 12.32 22.6699 11.86 22.6699 11.13V8C22.6699 4.5 20.6699 3 17.6699 3ZM18.1399 8.59L15.0099 11.09C14.3499 11.62 13.5099 11.88 12.6699 11.88C11.8299 11.88 10.9799 11.62 10.3299 11.09L7.19992 8.59C6.87992 8.33 6.82992 7.86 7.07992 7.53C7.33992 7.21 7.80992 7.15 8.12992 7.41L11.2599 9.91C12.0199 10.52 13.3099 10.52 14.0699 9.91L17.1999 7.41C17.5199 7.15 17.9999 7.2 18.2499 7.53C18.5099 7.86 18.4599 8.33 18.1399 8.59Z" fill="#292D32"/>
<path d="M18.6699 13C15.9099 13 13.6699 15.23 13.6699 18C13.6699 20.76 15.9099 23 18.6699 23C21.4399 23 23.6699 20.76 23.6699 18C23.6699 15.23 21.4399 13 18.6699 13ZM20.7199 17.55L20.3499 17.91L18.1699 20.1C18.0699 20.19 17.8799 20.29 17.7399 20.31L16.7599 20.45C16.4099 20.5 16.1599 20.25 16.2099 19.9L16.3499 18.92C16.3699 18.78 16.4599 18.59 16.5599 18.49L18.7399 16.32L19.0999 15.95C19.3399 15.71 19.6099 15.55 19.8899 15.55C20.1299 15.55 20.3999 15.66 20.6999 15.95C21.3699 16.6 21.1599 17.11 20.7199 17.55Z" fill="#292D32"/>
</svg>
