<svg width="25" height="24" viewBox="0 0 25 24" fill="none" xmlns="http://www.w3.org/2000/svg">
<path fill-rule="evenodd" clip-rule="evenodd" d="M12.6699 2C7.14992 2 2.66992 6.48 2.66992 12C2.66992 17.52 7.14992 22 12.6699 22C18.1899 22 22.6699 17.52 22.6699 12C22.6699 6.48 18.1899 2 12.6699 2ZM17.9799 15.31C17.6899 15.47 17.4499 15.54 17.2499 15.59C17.0799 15.63 16.9399 15.67 16.8199 15.75C16.6899 15.83 16.6799 15.96 16.6599 16.08C16.6399 16.19 16.6299 16.28 16.5499 16.34C16.4599 16.4 16.2899 16.41 16.0599 16.42C15.7599 16.44 15.3799 16.45 14.9199 16.59C14.6999 16.67 14.4999 16.79 14.2999 16.91C13.8999 17.16 13.4499 17.43 12.6599 17.43C11.8799 17.43 11.4299 17.16 11.0299 16.91C10.8299 16.78 10.6299 16.66 10.3999 16.58C9.94993 16.44 9.55992 16.42 9.25992 16.41C9.02992 16.4 8.86993 16.39 8.76993 16.33C8.68993 16.28 8.67991 16.18 8.65991 16.07C8.63991 15.95 8.62991 15.82 8.49991 15.74C8.37991 15.66 8.22992 15.62 8.06992 15.57C7.86992 15.52 7.62994 15.46 7.33994 15.3C6.99994 15.11 7.19994 15 7.30994 14.94C9.23994 14.01 9.53993 12.57 9.54993 12.46C9.54993 12.45 9.54993 12.45 9.54993 12.44C9.56993 12.32 9.57991 12.22 9.43991 12.09C9.34991 12 9.03992 11.8 8.78992 11.64C8.67992 11.56 8.57993 11.5 8.51993 11.47C8.23993 11.27 8.11993 11.08 8.20993 10.83C8.26993 10.66 8.42994 10.6 8.58994 10.6C8.63994 10.6 8.69993 10.61 8.73993 10.62C8.91993 10.66 9.09992 10.73 9.25992 10.79C9.36992 10.84 9.45991 10.87 9.52991 10.89C9.54991 10.9 9.57994 10.9 9.58994 10.9C9.68994 10.9 9.71993 10.85 9.70993 10.75C9.70993 10.72 9.70992 10.69 9.69992 10.66C9.67992 10.31 9.64991 9.70001 9.68991 9.14001C9.76991 8.30001 10.0399 7.87001 10.3599 7.51001C10.5199 7.33001 11.2499 6.56 12.6399 6.56C14.0399 6.56 14.7599 7.33 14.9199 7.5C15.2399 7.87 15.5099 8.29001 15.5899 9.14001C15.6399 9.73001 15.5999 10.36 15.5699 10.71V10.74C15.5599 10.85 15.5899 10.89 15.6899 10.89C15.7099 10.89 15.7299 10.89 15.7499 10.88C15.8199 10.86 15.9099 10.83 16.0199 10.79C16.1699 10.73 16.3499 10.66 16.5399 10.62C16.5899 10.6 16.6399 10.6 16.6899 10.6C16.8599 10.6 17.0099 10.67 17.0699 10.84C17.1599 11.08 17.0399 11.27 16.7599 11.47C16.7099 11.51 16.6099 11.58 16.4899 11.64C16.2499 11.8 15.9299 12 15.8399 12.09C15.6999 12.22 15.7099 12.32 15.7299 12.44C15.7299 12.45 15.7299 12.46 15.7299 12.46C15.7499 12.57 16.0499 14.01 17.9699 14.94C18.1199 15 18.3199 15.12 17.9799 15.31Z" fill="black"/>
</svg>
