<svg width="25" height="24" viewBox="0 0 25 24" fill="none" xmlns="http://www.w3.org/2000/svg">
<path d="M12.6699 2C7.14992 2 2.66992 6.48 2.66992 12C2.66992 17.52 7.14992 22 12.6699 22C18.1899 22 22.6699 17.52 22.6699 12C22.6699 6.48 18.1899 2 12.6699 2ZM16.0899 16.58C15.9399 16.79 15.7099 16.89 15.4799 16.89C15.3299 16.89 15.1799 16.84 15.0399 16.75C13.4999 15.65 11.5299 15.41 9.76993 16.1C9.38993 16.25 8.94993 16.06 8.79993 15.68C8.64993 15.29 8.83992 14.86 9.21992 14.71C11.4599 13.82 13.9599 14.13 15.9099 15.53C16.2599 15.78 16.3299 16.25 16.0899 16.58ZM17.1899 13.79C17.0399 14 16.8099 14.1 16.5799 14.1C16.4299 14.1 16.2799 14.05 16.1399 13.96C14.0199 12.44 11.3099 12.11 8.87993 13.07C8.49993 13.22 8.05993 13.03 7.90993 12.65C7.75993 12.26 7.94993 11.83 8.32993 11.68C11.2299 10.53 14.4799 10.93 17.0099 12.75C17.3499 12.99 17.4299 13.46 17.1899 13.79ZM18.7599 11.11C18.6099 11.32 18.3799 11.42 18.1499 11.42C17.9999 11.42 17.8499 11.37 17.7099 11.28C14.7299 9.14 10.9099 8.67 7.50992 10.03C7.11992 10.18 6.68992 9.98999 6.53992 9.60999C6.38992 9.22999 6.57992 8.79001 6.95992 8.64001C10.8399 7.10001 15.1899 7.63001 18.5899 10.07C18.9299 10.3 19.0099 10.77 18.7599 11.11Z" fill="black"/>
</svg>
