<svg width="25" height="24" viewBox="0 0 25 24" fill="none" xmlns="http://www.w3.org/2000/svg">
<path d="M12.6699 2C7.14992 2 2.66992 6.48 2.66992 12C2.66992 17.52 7.14992 22 12.6699 22C18.1899 22 22.6699 17.52 22.6699 12C22.6699 6.48 18.1899 2 12.6699 2ZM17.1699 14.25H14.1199L16.1099 17.07C16.3499 17.41 16.2699 17.88 15.9299 18.11C15.7999 18.2 15.6499 18.25 15.4999 18.25C15.2599 18.25 15.0299 18.14 14.8899 17.93L12.5899 14.67L10.2899 17.93C10.1399 18.14 9.90993 18.25 9.67993 18.25C9.52993 18.25 9.37991 18.21 9.24991 18.11C8.90991 17.87 8.82992 17.4 9.06992 17.07L11.0599 14.25H8.18991C7.77991 14.25 7.43991 13.91 7.43991 13.5C7.43991 13.09 7.77991 12.75 8.18991 12.75H17.1899C17.5999 12.75 17.9399 13.09 17.9399 13.5C17.9399 13.91 17.5799 14.25 17.1699 14.25ZM17.1699 11.25H8.16992C7.75992 11.25 7.41992 10.91 7.41992 10.5C7.41992 10.09 7.75992 9.75 8.16992 9.75H11.0399L9.04993 6.92999C8.80993 6.58999 8.88992 6.12 9.22992 5.89C9.56992 5.65 10.0399 5.73001 10.2699 6.07001L12.5699 9.33L14.8699 6.07001C15.1099 5.73001 15.5799 5.65 15.9099 5.89C16.2499 6.13 16.3299 6.59999 16.0899 6.92999L14.0999 9.75H17.1499C17.5599 9.75 17.8999 10.09 17.8999 10.5C17.8999 10.91 17.5799 11.25 17.1699 11.25Z" fill="black"/>
</svg>
