<svg width="25" height="24" viewBox="0 0 25 24" fill="none" xmlns="http://www.w3.org/2000/svg">
<path d="M16.8599 2H8.47992C4.83992 2 2.66992 4.17 2.66992 7.81V16.18C2.66992 19.83 4.83992 22 8.47992 22H16.8499C20.4899 22 22.6599 19.83 22.6599 16.19V7.81C22.6699 4.17 20.4999 2 16.8599 2ZM8.29992 18.15C8.29992 18.56 7.95992 18.9 7.54992 18.9C7.13992 18.9 6.79992 18.56 6.79992 18.15V16.08C6.79992 15.67 7.13992 15.33 7.54992 15.33C7.95992 15.33 8.29992 15.67 8.29992 16.08V18.15ZM13.4199 18.15C13.4199 18.56 13.0799 18.9 12.6699 18.9C12.2599 18.9 11.9199 18.56 11.9199 18.15V14C11.9199 13.59 12.2599 13.25 12.6699 13.25C13.0799 13.25 13.4199 13.59 13.4199 14V18.15ZM18.5399 18.15C18.5399 18.56 18.1999 18.9 17.7899 18.9C17.3799 18.9 17.0399 18.56 17.0399 18.15V11.93C17.0399 11.52 17.3799 11.18 17.7899 11.18C18.1999 11.18 18.5399 11.52 18.5399 11.93V18.15ZM18.5399 8.77C18.5399 9.18 18.1999 9.52 17.7899 9.52C17.3799 9.52 17.0399 9.18 17.0399 8.77V7.8C14.4899 10.42 11.2999 12.27 7.72992 13.16C7.66992 13.18 7.60992 13.18 7.54992 13.18C7.20992 13.18 6.90992 12.95 6.81992 12.61C6.71992 12.21 6.95992 11.8 7.36992 11.7C10.7399 10.86 13.7399 9.09 16.1199 6.59H14.8699C14.4599 6.59 14.1199 6.25 14.1199 5.84C14.1199 5.43 14.4599 5.09 14.8699 5.09H17.7999C17.8399 5.09 17.8699 5.11 17.9099 5.11C17.9599 5.12 18.0099 5.12 18.0599 5.14C18.1099 5.16 18.1499 5.19 18.1999 5.22C18.2299 5.24 18.2599 5.25 18.2899 5.27C18.2999 5.28 18.2999 5.29 18.3099 5.29C18.3499 5.33 18.3799 5.37 18.4099 5.41C18.4399 5.45 18.4699 5.48 18.4799 5.52C18.4999 5.56 18.4999 5.6 18.5099 5.65C18.5199 5.7 18.5399 5.75 18.5399 5.81C18.5399 5.82 18.5499 5.83 18.5499 5.84V8.77H18.5399Z" fill="#292D32"/>
</svg>
