<svg width="25" height="24" viewBox="0 0 25 24" fill="none" xmlns="http://www.w3.org/2000/svg">
<path d="M22.6304 11.66C21.4404 10.91 20.0604 10.5 18.6404 10.5C14.5004 10.5 11.1404 13.86 11.1404 18C11.1404 19.42 11.5404 20.79 12.2904 21.98C11.8304 21.97 11.3604 21.92 10.8804 21.85C6.7704 21.15 3.4604 17.82 2.7804 13.7C1.6504 6.85 7.4904 1.01 14.3404 2.14C18.4604 2.82 21.7904 6.13 22.4904 10.24C22.5704 10.72 22.6204 11.2 22.6304 11.66Z" fill="#292D32"/>
<path d="M14.0496 21.86C13.1696 20.82 12.6396 19.47 12.6396 18C12.6396 14.69 15.3296 12 18.6396 12C20.1096 12 21.4596 12.53 22.4996 13.41" fill="#292D32"/>
</svg>
