<svg width="25" height="24" viewBox="0 0 25 24" fill="none" xmlns="http://www.w3.org/2000/svg">
<path d="M17.0899 7.95C19.5299 10.39 19.5299 14.35 17.0899 16.79C14.6499 19.23 10.6899 19.23 8.24992 16.79C5.80992 14.35 5.80992 10.39 8.24992 7.95C10.6899 5.51 14.6499 5.51 17.0899 7.95Z" fill="#292D32"/>
<path d="M8.91995 22.39C8.82995 22.39 8.72995 22.37 8.63995 22.34C6.38995 21.44 4.56995 19.85 3.34995 17.75C2.16995 15.7 1.69995 13.38 2.00995 11.02C2.05995 10.61 2.44995 10.32 2.84995 10.37C3.25995 10.42 3.54995 10.8 3.49995 11.21C3.23995 13.24 3.63995 15.24 4.64995 17C5.68995 18.8 7.25995 20.17 9.18995 20.94C9.56995 21.1 9.75995 21.53 9.60995 21.92C9.49995 22.21 9.20995 22.39 8.91995 22.39Z" fill="#292D32"/>
<path d="M6.51954 5.23C6.29954 5.23 6.07954 5.13 5.92954 4.94C5.66954 4.62 5.72954 4.15 6.05954 3.89C7.95954 2.4 10.2495 1.61 12.6695 1.61C15.0295 1.61 17.2795 2.37 19.1695 3.81C19.4995 4.06 19.5595 4.53 19.3095 4.86C19.0595 5.19 18.5895 5.25 18.2595 5C16.6295 3.76 14.6995 3.11 12.6695 3.11C10.5895 3.11 8.61954 3.79 6.97954 5.07C6.83954 5.18 6.67954 5.23 6.51954 5.23Z" fill="#292D32"/>
<path d="M16.4196 22.39C16.1196 22.39 15.8396 22.21 15.7196 21.92C15.5696 21.54 15.7496 21.1 16.1396 20.94C18.0696 20.16 19.6396 18.8 20.6796 17C21.6996 15.24 22.0996 13.24 21.8296 11.22C21.7796 10.81 22.0696 10.43 22.4796 10.38C22.8796 10.33 23.2696 10.62 23.3196 11.03C23.6196 13.38 23.1596 15.71 21.9796 17.76C20.7696 19.86 18.9396 21.44 16.6896 22.35C16.6096 22.37 16.5196 22.39 16.4196 22.39Z" fill="#292D32"/>
</svg>
