<svg width="25" height="24" viewBox="0 0 25 24" fill="none" xmlns="http://www.w3.org/2000/svg">
<path d="M16.8599 2H8.47992C4.83992 2 2.66992 4.17 2.66992 7.81V16.18C2.66992 19.83 4.83992 22 8.47992 22H16.8499C20.4899 22 22.6599 19.83 22.6599 16.19V7.81C22.6699 4.17 20.4999 2 16.8599 2ZM7.16992 12.57H9.93992C10.3499 12.57 10.6899 12.91 10.6899 13.32C10.6899 13.73 10.3499 14.07 9.93992 14.07H7.16992C6.75992 14.07 6.41992 13.73 6.41992 13.32C6.41992 12.91 6.75992 12.57 7.16992 12.57ZM13.6399 17.83H7.16992C6.75992 17.83 6.41992 17.49 6.41992 17.08C6.41992 16.67 6.75992 16.33 7.16992 16.33H13.6399C14.0499 16.33 14.3899 16.67 14.3899 17.08C14.3899 17.49 14.0599 17.83 13.6399 17.83ZM18.1699 17.83H16.3199C15.9099 17.83 15.5699 17.49 15.5699 17.08C15.5699 16.67 15.9099 16.33 16.3199 16.33H18.1699C18.5799 16.33 18.9199 16.67 18.9199 17.08C18.9199 17.49 18.5799 17.83 18.1699 17.83ZM18.1699 14.07H12.6399C12.2299 14.07 11.8899 13.73 11.8899 13.32C11.8899 12.91 12.2299 12.57 12.6399 12.57H18.1699C18.5799 12.57 18.9199 12.91 18.9199 13.32C18.9199 13.73 18.5799 14.07 18.1699 14.07Z" fill="#292D32"/>
</svg>
