<svg width="25" height="24" viewBox="0 0 25 24" fill="none" xmlns="http://www.w3.org/2000/svg">
<path d="M18.5495 6.12001L4.58952 20.08C4.15952 20.51 3.43952 20.47 3.08952 19.98C2.58952 19.29 2.48952 18.33 3.00952 17.5L5.76952 13.07C6.13952 12.48 6.13952 11.52 5.76952 10.93L3.00952 6.50001C2.07952 5.02001 3.14952 3.10001 4.88952 3.10001H16.3395C17.0195 3.10001 17.8595 3.57001 18.2195 4.14001L18.6895 4.88001C18.9295 5.28001 18.8795 5.79001 18.5495 6.12001Z" fill="#292D32"/>
<path d="M22.2998 13.11L17.1198 20.01C16.7598 20.5 15.9598 20.9 15.3398 20.9H8.17979C7.28979 20.9 6.83979 19.82 7.46979 19.19L18.9898 7.67999C19.4398 7.22999 20.2098 7.30999 20.5498 7.85999L22.3998 10.83C22.7998 11.47 22.7598 12.5 22.2998 13.11Z" fill="#292D32"/>
</svg>
