<svg width="25" height="24" viewBox="0 0 25 24" fill="none" xmlns="http://www.w3.org/2000/svg">
<path d="M20.5023 8.70005L15.9723 4.17005C15.0223 3.22005 13.7123 2.71005 12.3723 2.78005L7.37234 3.02005C5.37234 3.11005 3.78234 4.70005 3.68234 6.69005L3.44234 11.69C3.38234 13.03 3.88234 14.34 4.83234 15.29L9.36234 19.82C11.2223 21.68 14.2423 21.68 16.1123 19.82L20.5023 15.43C22.3723 13.58 22.3723 10.56 20.5023 8.70005ZM10.1723 12.38C8.59234 12.38 7.29234 11.09 7.29234 9.50005C7.29234 7.91005 8.59234 6.62005 10.1723 6.62005C11.7523 6.62005 13.0523 7.91005 13.0523 9.50005C13.0523 11.09 11.7523 12.38 10.1723 12.38ZM18.2023 13.53L14.2023 17.53C14.0523 17.68 13.8623 17.75 13.6723 17.75C13.4823 17.75 13.2923 17.68 13.1423 17.53C12.8523 17.24 12.8523 16.76 13.1423 16.47L17.1423 12.47C17.4323 12.18 17.9123 12.18 18.2023 12.47C18.4923 12.76 18.4923 13.24 18.2023 13.53Z" fill="#292D32"/>
</svg>
