<svg width="25" height="24" viewBox="0 0 25 24" fill="none" xmlns="http://www.w3.org/2000/svg">
<path d="M16.8599 2H8.47992C4.83992 2 2.66992 4.17 2.66992 7.81V16.19C2.66992 19.83 4.83992 22 8.47992 22H16.8599C20.4999 22 22.6699 19.83 22.6699 16.19V7.81C22.6699 4.17 20.4999 2 16.8599 2ZM10.6399 14.9L8.38992 17.15C8.23992 17.3 8.04992 17.37 7.85992 17.37C7.66992 17.37 7.46992 17.3 7.32992 17.15L6.57992 16.4C6.27992 16.11 6.27992 15.63 6.57992 15.34C6.86992 15.05 7.33992 15.05 7.63992 15.34L7.85992 15.56L9.57992 13.84C9.86992 13.55 10.3399 13.55 10.6399 13.84C10.9299 14.13 10.9299 14.61 10.6399 14.9ZM10.6399 7.9L8.38992 10.15C8.23992 10.3 8.04992 10.37 7.85992 10.37C7.66992 10.37 7.46992 10.3 7.32992 10.15L6.57992 9.4C6.27992 9.11 6.27992 8.63 6.57992 8.34C6.86992 8.05 7.33992 8.05 7.63992 8.34L7.85992 8.56L9.57992 6.84C9.86992 6.55 10.3399 6.55 10.6399 6.84C10.9299 7.13 10.9299 7.61 10.6399 7.9ZM18.2299 16.62H12.9799C12.5699 16.62 12.2299 16.28 12.2299 15.87C12.2299 15.46 12.5699 15.12 12.9799 15.12H18.2299C18.6499 15.12 18.9799 15.46 18.9799 15.87C18.9799 16.28 18.6499 16.62 18.2299 16.62ZM18.2299 9.62H12.9799C12.5699 9.62 12.2299 9.28 12.2299 8.87C12.2299 8.46 12.5699 8.12 12.9799 8.12H18.2299C18.6499 8.12 18.9799 8.46 18.9799 8.87C18.9799 9.28 18.6499 9.62 18.2299 9.62Z" fill="#292D32"/>
</svg>
