<svg width="25" height="24" viewBox="0 0 25 24" fill="none" xmlns="http://www.w3.org/2000/svg">
<path d="M12.6699 2C7.14992 2 2.66992 6.48 2.66992 12C2.66992 17.52 7.14992 22 12.6699 22C18.1899 22 22.6699 17.52 22.6699 12C22.6699 6.48 18.1899 2 12.6699 2ZM18.4599 12.71L16.6199 14.55C16.2299 14.94 15.5999 14.94 15.2099 14.55L12.6699 12L10.1299 14.54C9.73991 14.93 9.10991 14.93 8.71991 14.54L6.87991 12.7C6.48991 12.31 6.48991 11.68 6.87991 11.29L8.71991 9.45C9.10991 9.06 9.73991 9.06 10.1299 9.45L12.6699 12L15.2099 9.46001C15.5999 9.07001 16.2299 9.07001 16.6199 9.46001L18.4599 11.3C18.8499 11.68 18.8499 12.32 18.4599 12.71Z" fill="black"/>
</svg>
