<svg width="25" height="24" viewBox="0 0 25 24" fill="none" xmlns="http://www.w3.org/2000/svg">
<path d="M21.6219 4.13C21.3319 3.71 20.9619 3.34 20.5419 3.05C19.5919 2.36 18.3519 2 16.8619 2H8.48187C8.28188 2 8.08187 2.01 7.89187 2.03C4.61187 2.24 2.67188 4.37 2.67188 7.81V16.19C2.67188 17.68 3.03187 18.92 3.72187 19.87C4.01187 20.29 4.38188 20.66 4.80188 20.95C5.62188 21.55 6.66187 21.9 7.89187 21.98C8.08187 21.99 8.28188 22 8.48187 22H16.8619C20.5019 22 22.6719 19.83 22.6719 16.19V7.81C22.6719 6.32 22.3119 5.08 21.6219 4.13ZM19.4219 8.9C19.4219 9.31 19.0819 9.65 18.6719 9.65C18.2619 9.65 17.9219 9.31 17.9219 8.9V7.72C17.9219 7.4 17.6619 7.14 17.3419 7.14H13.4219V16.86H15.2019C15.6119 16.86 15.9519 17.2 15.9519 17.61C15.9519 18.02 15.6119 18.36 15.2019 18.36H10.1419C9.73188 18.36 9.39188 18.02 9.39188 17.61C9.39188 17.2 9.73188 16.86 10.1419 16.86H11.9219V7.14H8.00187C7.68187 7.14 7.42188 7.4 7.42188 7.72V8.9C7.42188 9.31 7.08187 9.65 6.67188 9.65C6.26187 9.65 5.92188 9.31 5.92188 8.9V7.72C5.92188 6.57 6.85187 5.64 8.00187 5.64H17.3319C18.4819 5.64 19.4119 6.57 19.4119 7.72V8.9H19.4219Z" fill="#292D32"/>
</svg>
