<svg width="25" height="24" viewBox="0 0 25 24" fill="none" xmlns="http://www.w3.org/2000/svg">
<path d="M21.9719 10.84C22.3619 10.84 22.6719 10.53 22.6719 10.14V9.20999C22.6719 5.10999 21.4219 3.85999 17.3219 3.85999H8.02187C3.92188 3.85999 2.67188 5.10999 2.67188 9.20999V9.67999C2.67188 10.07 2.98188 10.38 3.37188 10.38C4.27188 10.38 5.00187 11.11 5.00187 12.01C5.00187 12.91 4.27188 13.63 3.37188 13.63C2.98188 13.63 2.67188 13.94 2.67188 14.33V14.8C2.67188 18.9 3.92188 20.15 8.02187 20.15H17.3219C21.4219 20.15 22.6719 18.9 22.6719 14.8C22.6719 14.41 22.3619 14.1 21.9719 14.1C21.0719 14.1 20.3419 13.37 20.3419 12.47C20.3419 11.57 21.0719 10.84 21.9719 10.84ZM9.67188 8.87999C10.2219 8.87999 10.6719 9.32999 10.6719 9.87999C10.6719 10.43 10.2319 10.88 9.67188 10.88C9.12187 10.88 8.67188 10.43 8.67188 9.87999C8.67188 9.32999 9.11188 8.87999 9.67188 8.87999ZM15.6719 15.88C15.1119 15.88 14.6619 15.43 14.6619 14.88C14.6619 14.33 15.1119 13.88 15.6619 13.88C16.2119 13.88 16.6619 14.33 16.6619 14.88C16.6619 15.43 16.2319 15.88 15.6719 15.88ZM16.5719 9.47999L9.84188 16.21C9.69187 16.36 9.50188 16.43 9.31188 16.43C9.12188 16.43 8.93187 16.36 8.78187 16.21C8.49187 15.92 8.49187 15.44 8.78187 15.15L15.5119 8.41999C15.8019 8.12999 16.2819 8.12999 16.5719 8.41999C16.8619 8.70999 16.8619 9.18999 16.5719 9.47999Z" fill="#292D32"/>
</svg>
