<svg width="25" height="24" viewBox="0 0 25 24" fill="none" xmlns="http://www.w3.org/2000/svg">
<path d="M20.522 12.9401C20.522 13.7401 21.172 14.4001 21.972 14.4001C22.352 14.4001 22.672 14.7101 22.672 15.0901C22.672 18.9301 21.512 20.0901 17.672 20.0901H12.422V18.5001C12.422 18.1101 12.122 17.7901 11.742 17.7601C11.722 17.7501 11.692 17.7501 11.672 17.7501C11.262 17.7501 10.922 18.0901 10.922 18.5001V20.0901H9.16197C7.28197 20.0901 6.31197 18.6801 5.43197 16.5501L5.26197 16.1301C5.12197 15.7701 5.29197 15.3601 5.65197 15.2201C6.02197 15.0801 6.31197 14.7901 6.46197 14.4101C6.62197 14.0401 6.62197 13.6301 6.47197 13.2601C6.15197 12.4901 5.27197 12.1201 4.49197 12.4301C4.32197 12.5101 4.12197 12.5101 3.95197 12.4301C3.78197 12.3601 3.65197 12.2201 3.57197 12.0401L3.42197 11.6401C1.93197 8.02006 2.58197 6.47006 6.20197 4.97006L8.65197 3.96006C9.01197 3.81006 9.42197 3.98006 9.56197 4.34006L11.742 9.09006C11.332 9.09006 10.922 9.42006 10.922 9.83006V14.1701C10.922 14.5801 11.262 14.9201 11.672 14.9201C11.692 14.9201 11.722 14.9201 11.742 14.9101C12.122 14.8801 12.422 14.5601 12.422 14.1701V9.83006C12.422 9.44006 12.122 9.12006 11.742 9.09006V4.93006H17.672C21.512 4.93006 22.672 6.09006 22.672 9.93006V10.7801C22.672 11.1701 22.352 11.4801 21.972 11.4801C21.172 11.4801 20.522 12.1301 20.522 12.9401Z" fill="#292D32"/>
</svg>
