<svg width="25" height="24" viewBox="0 0 25 24" fill="none" xmlns="http://www.w3.org/2000/svg">
<path d="M17.3215 3.85999H10.5815V6.87999C10.5815 7.26999 10.2615 7.57999 9.8815 7.57999C9.5015 7.57999 9.1815 7.26999 9.1815 6.87999V3.85999H8.0215C4.0715 3.85999 2.7715 5.03999 2.6815 8.72999C2.6715 8.90999 2.7515 9.09999 2.8815 9.22999C3.0115 9.36999 3.1815 9.43999 3.3815 9.43999C4.7815 9.43999 5.9315 10.6 5.9315 12C5.9315 13.4 4.7815 14.56 3.3815 14.56C3.1915 14.56 3.0115 14.63 2.8815 14.77C2.7515 14.9 2.6715 15.09 2.6815 15.27C2.7715 18.96 4.0715 20.14 8.0215 20.14H9.1815V17.12C9.1815 16.73 9.5015 16.42 9.8815 16.42C10.2615 16.42 10.5815 16.73 10.5815 17.12V20.14H17.3215C21.4215 20.14 22.6715 18.89 22.6715 14.79V9.20999C22.6715 5.10999 21.4215 3.85999 17.3215 3.85999ZM19.1415 11.9L18.2115 12.8C18.1715 12.83 18.1615 12.89 18.1715 12.94L18.3915 14.21C18.4315 14.44 18.3415 14.68 18.1415 14.82C17.9515 14.96 17.7015 14.98 17.4915 14.87L16.3415 14.27C16.3015 14.25 16.2415 14.25 16.2015 14.27L15.0515 14.87C14.9615 14.92 14.8615 14.94 14.7615 14.94C14.6315 14.94 14.5115 14.9 14.4015 14.82C14.2115 14.68 14.1115 14.45 14.1515 14.21L14.3715 12.94C14.3815 12.89 14.3615 12.84 14.3315 12.8L13.4015 11.9C13.2315 11.74 13.1715 11.49 13.2415 11.27C13.3115 11.04 13.5015 10.88 13.7415 10.85L15.0215 10.66C15.0715 10.65 15.1115 10.62 15.1415 10.58L15.7115 9.41999C15.8215 9.20999 16.0315 9.07999 16.2715 9.07999C16.5115 9.07999 16.7215 9.20999 16.8215 9.41999L17.3915 10.58C17.4115 10.63 17.4515 10.66 17.5015 10.66L18.7815 10.85C19.0215 10.88 19.2115 11.05 19.2815 11.27C19.3715 11.49 19.3115 11.73 19.1415 11.9Z" fill="#292D32"/>
</svg>
