<svg width="25" height="24" viewBox="0 0 25 24" fill="none" xmlns="http://www.w3.org/2000/svg">
<path d="M16.8599 2H8.47992C4.83992 2 2.66992 4.17 2.66992 7.81V16.18C2.66992 19.83 4.83992 22 8.47992 22H16.8499C20.4899 22 22.6599 19.83 22.6599 16.19V7.81C22.6699 4.17 20.4999 2 16.8599 2ZM17.4499 9.7L11.7799 15.37C11.6399 15.51 11.4499 15.59 11.2499 15.59C11.0499 15.59 10.8599 15.51 10.7199 15.37L7.88992 12.54C7.59992 12.25 7.59992 11.77 7.88992 11.48C8.17992 11.19 8.65992 11.19 8.94992 11.48L11.2499 13.78L16.3899 8.64C16.6799 8.35 17.1599 8.35 17.4499 8.64C17.7399 8.93 17.7399 9.4 17.4499 9.7Z" fill="#292D32"/>
</svg>
