<svg width="25" height="24" viewBox="0 0 25 24" fill="none" xmlns="http://www.w3.org/2000/svg">
<path d="M17.8616 4.96C17.8616 4.97 17.8616 4.97 17.8616 4.98C17.6116 4.97 17.3616 4.96 17.0916 4.96H9.3916L10.4616 3.9C11.4416 2.91 12.5216 2 13.7716 2C15.0316 2 16.1116 2.91 17.0916 3.9L17.6516 4.46C17.7916 4.59 17.8616 4.77 17.8616 4.96Z" fill="#292D32"/>
<path d="M21.5118 13.17C21.9018 13.17 22.2118 12.85 22.2118 12.45V11.57C22.2118 7.63995 21.0118 6.44995 17.0918 6.44995H10.7918H8.25184C4.33184 6.44995 3.13184 7.64995 3.13184 11.57V12C3.13184 12.4 3.44184 12.71 3.83184 12.71C4.67184 12.71 5.34184 13.39 5.34184 14.22C5.34184 15.05 4.67184 15.74 3.83184 15.74C3.44184 15.74 3.13184 16.05 3.13184 16.45V16.88C3.13184 20.81 4.33184 22 8.25184 22H10.7818H17.0818C21.0018 22 22.2018 20.8 22.2018 16.88C22.2018 16.49 21.8918 16.17 21.5018 16.17C20.6618 16.17 19.9918 15.5 19.9918 14.67C20.0018 13.84 20.6718 13.17 21.5118 13.17ZM11.4918 18.86C11.4918 19.25 11.1718 19.57 10.7818 19.57C10.3918 19.57 10.0718 19.25 10.0718 18.86V16.18C10.0718 15.79 10.3918 15.47 10.7818 15.47C11.1718 15.47 11.4918 15.79 11.4918 16.18V18.86ZM11.4918 12.27C11.4918 12.66 11.1718 12.98 10.7818 12.98C10.3918 12.98 10.0718 12.66 10.0718 12.27V9.58995C10.0718 9.19995 10.3918 8.87995 10.7818 8.87995C11.1718 8.87995 11.4918 9.19995 11.4918 9.58995V12.27Z" fill="#292D32"/>
</svg>
