<svg width="25" height="24" viewBox="0 0 25 24" fill="none" xmlns="http://www.w3.org/2000/svg">
<path d="M12.67 4.6499C7.89 4.6499 4 8.5399 4 13.3199C4 18.0999 7.89 21.9999 12.67 21.9999C17.45 21.9999 21.34 18.1099 21.34 13.3299C21.34 8.5499 17.45 4.6499 12.67 4.6499ZM13.42 12.9999C13.42 13.4099 13.08 13.7499 12.67 13.7499C12.26 13.7499 11.92 13.4099 11.92 12.9999V7.9999C11.92 7.5899 12.26 7.2499 12.67 7.2499C13.08 7.2499 13.42 7.5899 13.42 7.9999V12.9999Z" fill="#292D32"/>
<path d="M15.5596 3.45H9.77957C9.37957 3.45 9.05957 3.13 9.05957 2.73C9.05957 2.33 9.37957 2 9.77957 2H15.5596C15.9596 2 16.2796 2.32 16.2796 2.72C16.2796 3.12 15.9596 3.45 15.5596 3.45Z" fill="#292D32"/>
</svg>
