<svg width="25" height="24" viewBox="0 0 25 24" fill="none" xmlns="http://www.w3.org/2000/svg">
<path d="M17.3199 3.85986H8.01992C3.91992 3.85986 2.66992 5.10986 2.66992 9.20986V14.7899C2.66992 18.8899 3.91992 20.1399 8.01992 20.1399H17.3199C21.4199 20.1399 22.6699 18.8899 22.6699 14.7899V9.20986C22.6699 5.10986 21.4199 3.85986 17.3199 3.85986ZM14.7599 13.1199C14.7599 15.3699 13.7099 16.4199 11.4599 16.4199H9.22992C6.97992 16.4199 5.92992 15.3699 5.92992 13.1199V10.8899C5.92992 8.63986 6.97992 7.58986 9.22992 7.58986H11.4599C13.7099 7.58986 14.7599 8.63986 14.7599 10.8899V13.1199Z" fill="#292D32"/>
</svg>
