<svg width="25" height="24" viewBox="0 0 25 24" fill="none" xmlns="http://www.w3.org/2000/svg">
<path d="M16.8597 2H8.48969C4.84968 2 2.67969 4.17 2.67969 7.81V16.18C2.67969 19.82 4.84968 21.99 8.48969 21.99H16.8597C20.4997 21.99 22.6697 19.82 22.6697 16.18V7.81C22.6697 4.17 20.4997 2 16.8597 2ZM11.4397 16.49C11.4397 17.16 10.8897 17.71 10.2197 17.71H7.76965C7.09965 17.71 6.54968 17.16 6.54968 16.49V7.51001C6.54968 6.84001 7.09965 6.29001 7.76965 6.29001H10.2197C10.8897 6.29001 11.4397 6.84001 11.4397 7.51001V16.49ZM18.7897 12.65C18.7897 13.19 18.3497 13.63 17.8097 13.63H14.8697C14.3297 13.63 13.8896 13.19 13.8896 12.65V7.26001C13.8896 6.72001 14.3297 6.28 14.8697 6.28H17.8097C18.3497 6.28 18.7897 6.72001 18.7897 7.26001V12.65Z" fill="black"/>
</svg>
