<svg width="25" height="24" viewBox="0 0 25 24" fill="none" xmlns="http://www.w3.org/2000/svg">
<path d="M22.1709 15.5C22.4509 15.5 22.6709 15.72 22.6709 16V17C22.6709 18.66 21.3309 20 19.6709 20C19.6709 18.35 18.3209 17 16.6709 17C15.0209 17 13.6709 18.35 13.6709 20H11.6709C11.6709 18.35 10.3209 17 8.6709 17C7.0209 17 5.6709 18.35 5.6709 20C4.0109 20 2.6709 18.66 2.6709 17V15C2.6709 14.45 3.1209 14 3.6709 14H13.1709C14.5509 14 15.6709 12.88 15.6709 11.5V6C15.6709 5.45 16.1209 5 16.6709 5H17.5109C18.2309 5 18.8909 5.39 19.2509 6.01L19.8909 7.13C19.9809 7.29 19.8609 7.5 19.6709 7.5C18.2909 7.5 17.1709 8.62 17.1709 10V13C17.1709 14.38 18.2909 15.5 19.6709 15.5H22.1709Z" fill="#292D32"/>
<path d="M8.6709 22C9.77547 22 10.6709 21.1046 10.6709 20C10.6709 18.8954 9.77547 18 8.6709 18C7.56633 18 6.6709 18.8954 6.6709 20C6.6709 21.1046 7.56633 22 8.6709 22Z" fill="#292D32"/>
<path d="M16.6709 22C17.7755 22 18.6709 21.1046 18.6709 20C18.6709 18.8954 17.7755 18 16.6709 18C15.5663 18 14.6709 18.8954 14.6709 20C14.6709 21.1046 15.5663 22 16.6709 22Z" fill="#292D32"/>
<path d="M22.6709 12.53V14H19.6709C19.1209 14 18.6709 13.55 18.6709 13V10C18.6709 9.45 19.1209 9 19.6709 9H20.9609L22.4109 11.54C22.5809 11.84 22.6709 12.18 22.6709 12.53Z" fill="#292D32"/>
<path d="M13.7509 1.97998H6.3609C4.3209 1.97998 2.6709 3.62998 2.6709 5.66998V12.06C2.6709 12.61 3.1209 13.06 3.6709 13.06H12.8209C13.8409 13.06 14.6709 12.23 14.6709 11.21V2.89998C14.6709 2.38998 14.2609 1.97998 13.7509 1.97998ZM10.2709 9.09998C10.1209 9.23998 9.9309 9.30998 9.7409 9.30998C9.5509 9.30998 9.3609 9.23998 9.2109 9.09998L8.6809 8.56998L8.1309 9.11998C7.9809 9.26998 7.7909 9.33998 7.6009 9.33998C7.4109 9.33998 7.2209 9.26998 7.0709 9.11998C6.7809 8.82998 6.7809 8.34998 7.0709 8.05998L7.6209 7.50998L7.0909 6.97998C6.8009 6.68998 6.8009 6.20998 7.0909 5.91998C7.3909 5.62998 7.8609 5.62998 8.1609 5.91998L8.6809 6.44998L9.1809 5.93998C9.4809 5.64998 9.9509 5.64998 10.2509 5.93998C10.5409 6.23998 10.5409 6.70998 10.2509 7.00998L9.7409 7.50998L10.2709 8.02998C10.5609 8.32998 10.5609 8.79998 10.2709 9.09998Z" fill="#292D32"/>
</svg>
