<svg width="25" height="24" viewBox="0 0 25 24" fill="none" xmlns="http://www.w3.org/2000/svg">
<path d="M18.1202 17.2999C16.4402 17.2999 14.8902 16.5099 13.8802 15.1199C13.6402 14.7899 13.7102 14.3199 14.0402 14.0699C14.3702 13.8199 14.8402 13.8999 15.0902 14.2299C15.8202 15.2199 16.9202 15.7899 18.1202 15.7899C20.2102 15.7899 21.9202 14.0899 21.9202 11.9899C21.9202 9.88992 20.2202 8.18992 18.1202 8.18992C16.7002 8.18992 15.3602 8.94992 14.6302 10.1599L11.9802 14.5699C10.9802 16.2399 9.15016 17.2699 7.21016 17.2699C4.29016 17.2699 1.91016 14.8899 1.91016 11.9699C1.91016 9.04992 4.29016 6.66992 7.21016 6.66992C8.89016 6.66992 10.4402 7.45992 11.4502 8.84992C11.6902 9.17992 11.6202 9.64992 11.2902 9.89992C10.9502 10.1499 10.4902 10.0699 10.2402 9.73992C9.52016 8.76992 8.42016 8.19992 7.22016 8.19992C5.13016 8.19992 3.42016 9.89992 3.42016 11.9999C3.42016 14.0999 5.12016 15.7999 7.22016 15.7999C8.64016 15.7999 9.98016 15.0399 10.7102 13.8299L13.3602 9.41992C14.3602 7.74992 16.1902 6.71992 18.1302 6.71992C21.0502 6.71992 23.4302 9.09992 23.4302 12.0199C23.4302 14.9399 21.0402 17.2999 18.1202 17.2999Z" fill="#292D32"/>
<path d="M7.16992 14C8.27449 14 9.16992 13.1046 9.16992 12C9.16992 10.8954 8.27449 10 7.16992 10C6.06535 10 5.16992 10.8954 5.16992 12C5.16992 13.1046 6.06535 14 7.16992 14Z" fill="#292D32"/>
<path d="M18.1699 14C19.2745 14 20.1699 13.1046 20.1699 12C20.1699 10.8954 19.2745 10 18.1699 10C17.0654 10 16.1699 10.8954 16.1699 12C16.1699 13.1046 17.0654 14 18.1699 14Z" fill="#292D32"/>
</svg>
