<svg width="25" height="24" viewBox="0 0 25 24" fill="none" xmlns="http://www.w3.org/2000/svg">
<path d="M18.6699 2H6.66992C5.00992 2 3.66992 3.33 3.66992 4.97V15.88C3.66992 17.52 5.00992 18.85 6.66992 18.85H7.42992C8.22992 18.85 8.98992 19.16 9.54992 19.72L11.2599 21.41C12.0399 22.18 13.3099 22.18 14.0899 21.41L15.7999 19.72C16.3599 19.16 17.1299 18.85 17.9199 18.85H18.6699C20.3299 18.85 21.6699 17.52 21.6699 15.88V4.97C21.6699 3.33 20.3299 2 18.6699 2ZM12.6699 5.75C13.9599 5.75 14.9999 6.79 14.9999 8.08C14.9999 9.37 13.9599 10.41 12.6699 10.41C11.3799 10.41 10.3399 9.36 10.3399 8.08C10.3399 6.79 11.3799 5.75 12.6699 5.75ZM15.3499 15.06H9.98992C9.17992 15.06 8.70992 14.16 9.15992 13.49C9.83992 12.48 11.1599 11.8 12.6699 11.8C14.1799 11.8 15.4999 12.48 16.1799 13.49C16.6299 14.16 16.1499 15.06 15.3499 15.06Z" fill="#292D32"/>
</svg>
