<svg width="25" height="24" viewBox="0 0 25 24" fill="none" xmlns="http://www.w3.org/2000/svg">
<path d="M12.6701 14C7.66008 14 3.58008 17.36 3.58008 21.5C3.58008 21.78 3.80008 22 4.08008 22H21.2601C21.5401 22 21.7601 21.78 21.7601 21.5C21.7601 17.36 17.6801 14 12.6701 14Z" fill="#292D32"/>
<path d="M16.3799 3.66C15.4799 2.64 14.1399 2 12.6699 2C11.2699 2 9.98992 2.57 9.07992 3.51C8.20992 4.41 7.66992 5.65 7.66992 7C7.66992 7.94 7.92992 8.82 8.39992 9.57C8.64992 10 8.96992 10.39 9.34992 10.71C10.2199 11.51 11.3799 12 12.6699 12C14.4999 12 16.0799 11.02 16.9499 9.57C17.2099 9.14 17.4099 8.66 17.5199 8.16C17.6199 7.79 17.6699 7.4 17.6699 7C17.6699 5.72 17.1799 4.55 16.3799 3.66ZM14.5399 7.92H10.7999C10.2799 7.92 9.85992 7.5 9.85992 6.98C9.85992 6.46 10.2799 6.04 10.7999 6.04H14.5399C15.0599 6.04 15.4799 6.46 15.4799 6.98C15.4799 7.5 15.0599 7.92 14.5399 7.92Z" fill="#292D32"/>
</svg>
