<svg width="25" height="24" viewBox="0 0 25 24" fill="none" xmlns="http://www.w3.org/2000/svg">
<path d="M22.6499 15.65C21.8299 14.64 20.5799 14 19.1699 14C18.1099 14 17.1299 14.37 16.3599 14.99C15.3199 15.81 14.6699 17.08 14.6699 18.5C14.6699 19.91 15.3099 21.16 16.3199 21.98C17.0899 22.62 18.0899 23 19.1699 23C20.3099 23 21.3399 22.57 22.1399 21.88C23.0699 21.05 23.6699 19.85 23.6699 18.5C23.6699 17.42 23.2899 16.42 22.6499 15.65ZM20.1999 18.78C20.1999 19.04 20.0599 19.29 19.8399 19.42L18.4299 20.26C18.3099 20.33 18.1799 20.37 18.0399 20.37C17.7899 20.37 17.5399 20.24 17.3999 20.01C17.1899 19.65 17.2999 19.19 17.6599 18.98L18.6999 18.36V17.1C18.6999 16.69 19.0399 16.35 19.4499 16.35C19.8599 16.35 20.1999 16.69 20.1999 17.1V18.78Z" fill="#292D32"/>
<path d="M15.3995 5.86V2.5C15.3995 2.22 15.1795 2 14.8995 2H10.4395C10.1595 2 9.93945 2.22 9.93945 2.5V5.86C9.93945 6.14 10.1595 6.36 10.4395 6.36H14.8995C15.1795 6.36 15.3995 6.14 15.3995 5.86Z" fill="#292D32"/>
<path d="M7.92039 2.02C5.36039 2.18 3.61039 3.5 2.96039 5.7C2.86039 6.03 3.10039 6.36 3.44039 6.36H7.94039C8.22039 6.36 8.44039 6.14 8.44039 5.86V2.52C8.44039 2.24 8.20039 2 7.92039 2.02Z" fill="#292D32"/>
<path d="M17.4204 2.00999C19.9804 2.16999 21.7304 3.48999 22.3804 5.68999C22.4804 6.01999 22.2404 6.34999 21.9004 6.34999H17.4004C17.1204 6.34999 16.9004 6.12999 16.9004 5.84999V2.50999C16.9004 2.22999 17.1404 1.98999 17.4204 2.00999Z" fill="#292D32"/>
<path d="M22.6699 8.35998V12.74C22.6699 13.11 22.2799 13.35 21.9499 13.18C21.1099 12.74 20.1499 12.5 19.1699 12.5C17.5599 12.5 15.9899 13.16 14.8699 14.31C13.7699 15.43 13.1699 16.92 13.1699 18.5C13.1699 19.31 13.4899 20.35 13.8899 21.22C14.0499 21.57 13.8099 22 13.4199 22H8.47992C5.26992 22 2.66992 19.4 2.66992 16.19V8.35998C2.66992 8.07998 2.88992 7.85999 3.16992 7.85999H22.1699C22.4499 7.85999 22.6699 8.07998 22.6699 8.35998Z" fill="#292D32"/>
</svg>
