<svg width="25" height="24" viewBox="0 0 25 24" fill="none" xmlns="http://www.w3.org/2000/svg">
<path d="M16.8599 2H8.47992C4.83992 2 2.66992 4.17 2.66992 7.81V16.18C2.66992 19.83 4.83992 22 8.47992 22H16.8499C20.4899 22 22.6599 19.83 22.6599 16.19V7.81C22.6699 4.17 20.4999 2 16.8599 2ZM15.3299 13.73L14.0499 14.47L12.7699 15.21C11.1199 16.16 9.76992 15.38 9.76992 13.48V12V10.52C9.76992 8.61 11.1199 7.84 12.7699 8.79L14.0499 9.53L15.3299 10.27C16.9799 11.22 16.9799 12.78 15.3299 13.73Z" fill="#292D32"/>
</svg>
