<svg width="25" height="24" viewBox="0 0 25 24" fill="none" xmlns="http://www.w3.org/2000/svg">
<path d="M21.8199 6.17C21.4099 5.95 20.5499 5.72 19.3799 6.54L17.9099 7.58C17.7999 4.47 16.4499 3.25 13.1699 3.25H7.16992C3.74992 3.25 2.41992 4.58 2.41992 8V16C2.41992 18.3 3.66992 20.75 7.16992 20.75H13.1699C16.4499 20.75 17.7999 19.53 17.9099 16.42L19.3799 17.46C19.9999 17.9 20.5399 18.04 20.9699 18.04C21.3399 18.04 21.6299 17.93 21.8199 17.83C22.2299 17.62 22.9199 17.05 22.9199 15.62V8.38C22.9199 6.95 22.2299 6.38 21.8199 6.17ZM11.6699 11.38C10.6399 11.38 9.78992 10.54 9.78992 9.5C9.78992 8.46 10.6399 7.62 11.6699 7.62C12.6999 7.62 13.5499 8.46 13.5499 9.5C13.5499 10.54 12.6999 11.38 11.6699 11.38Z" fill="#292D32"/>
</svg>
