<svg width="25" height="24" viewBox="0 0 25 24" fill="none" xmlns="http://www.w3.org/2000/svg">
<path d="M7.02992 7.78H2.66992V11.25H7.02992V7.78Z" fill="#292D32"/>
<path d="M7.03031 6.29V2.13C4.75031 2.55 3.26031 4.02 2.82031 6.28H7.00031C7.01031 6.28 7.02031 6.29 7.03031 6.29Z" fill="#292D32"/>
<path d="M7.02992 16.31V12.75H2.66992V16.28H6.90992C6.94992 16.28 6.98992 16.3 7.02992 16.31Z" fill="#292D32"/>
<path d="M22.5203 6.27999C22.0903 4.08999 20.6903 2.64999 18.5303 2.17999V6.27999H22.5203Z" fill="#292D32"/>
<path d="M17.0303 11.25V2.01C16.9803 2 16.9203 2 16.8603 2H8.53027V11.25H17.0303Z" fill="#292D32"/>
<path d="M22.6703 12.75H18.5303V16.28H22.6703V12.75Z" fill="#292D32"/>
<path d="M18.5303 21.82C20.6703 21.35 22.0703 19.93 22.5103 17.78H18.5303V21.82Z" fill="#292D32"/>
<path d="M6.91008 17.78H2.83008C3.29008 20 4.77008 21.45 7.03008 21.87V17.76C6.99008 17.77 6.95008 17.78 6.91008 17.78Z" fill="#292D32"/>
<path d="M22.6703 7.78H18.5303V11.25H22.6703V7.78Z" fill="#292D32"/>
<path d="M8.53027 12.75V22H16.8603C16.9203 22 16.9803 22 17.0303 21.99V12.75H8.53027Z" fill="#292D32"/>
</svg>
