<svg width="25" height="24" viewBox="0 0 25 24" fill="none" xmlns="http://www.w3.org/2000/svg">
<path d="M15.3995 2H9.93945V6.36H15.3995V2Z" fill="#292D32"/>
<path d="M16.9004 2V6.36H22.5404C22.0304 3.61 20.0004 2.01 16.9004 2Z" fill="#292D32"/>
<path d="M2.66992 7.85999V16.19C2.66992 19.83 4.83992 22 8.47992 22H16.8599C20.4999 22 22.6699 19.83 22.6699 16.19V7.85999H2.66992ZM15.1099 16.18L13.0299 17.38C12.5899 17.63 12.1599 17.76 11.7599 17.76C11.4599 17.76 11.1899 17.69 10.9399 17.55C10.3599 17.22 10.0399 16.54 10.0399 15.66V13.26C10.0399 12.38 10.3599 11.7 10.9399 11.37C11.5199 11.03 12.2599 11.09 13.0299 11.54L15.1099 12.74C15.8799 13.18 16.2999 13.8 16.2999 14.47C16.2999 15.14 15.8699 15.73 15.1099 16.18Z" fill="#292D32"/>
<path d="M8.4398 2C5.3398 2.01 3.3098 3.61 2.7998 6.36H8.4398V2Z" fill="#292D32"/>
</svg>
