<svg width="25" height="24" viewBox="0 0 25 24" fill="none" xmlns="http://www.w3.org/2000/svg">
<path d="M20.1798 5.85L14.2398 2.42C13.2698 1.86 12.0698 1.86 11.0898 2.42L5.15984 5.85C4.18984 6.41 3.58984 7.45 3.58984 8.58V15.42C3.58984 16.54 4.18984 17.58 5.15984 18.15L11.0998 21.58C12.0698 22.14 13.2698 22.14 14.2498 21.58L20.1898 18.15C21.1598 17.59 21.7598 16.55 21.7598 15.42V8.58C21.7498 7.45 21.1498 6.42 20.1798 5.85ZM14.9198 13.4L13.8798 14L12.8398 14.6C11.5098 15.37 10.4198 14.74 10.4198 13.2V12V10.8C10.4198 9.26 11.5098 8.63 12.8398 9.4L13.8798 10L14.9198 10.6C16.2498 11.37 16.2498 12.63 14.9198 13.4Z" fill="#292D32"/>
</svg>
