<svg width="25" height="24" viewBox="0 0 25 24" fill="none" xmlns="http://www.w3.org/2000/svg">
<path d="M20.0003 16.75C19.8403 16.75 19.6903 16.7 19.5503 16.6C19.2203 16.35 19.1503 15.88 19.4003 15.55C20.9703 13.46 20.9703 10.54 19.4003 8.45C19.1503 8.12 19.2203 7.65 19.5503 7.4C19.8803 7.15 20.3503 7.22 20.6003 7.55C22.5703 10.17 22.5703 13.83 20.6003 16.45C20.4603 16.65 20.2303 16.75 20.0003 16.75Z" fill="#292D32"/>
<path d="M16.02 3.78C14.9 3.16 13.47 3.32 12.01 4.23L9.09 6.06C8.89 6.18 8.66 6.25 8.43 6.25H7.5H7C4.58 6.25 3.25 7.58 3.25 10V14C3.25 16.42 4.58 17.75 7 17.75H7.5H8.43C8.66 17.75 8.89 17.82 9.09 17.94L12.01 19.77C12.89 20.32 13.75 20.59 14.55 20.59C15.07 20.59 15.57 20.47 16.02 20.22C17.13 19.6 17.75 18.31 17.75 16.59V7.41C17.75 5.69 17.13 4.4 16.02 3.78Z" fill="#292D32"/>
</svg>
