<svg width="25" height="24" viewBox="0 0 25 24" fill="none" xmlns="http://www.w3.org/2000/svg">
<path d="M23.2004 13.42L21.7504 11.97L23.1504 10.57C23.4404 10.28 23.4404 9.79999 23.1504 9.50999C22.8604 9.21999 22.3804 9.21999 22.0904 9.50999L20.6904 10.91L19.2404 9.45999C18.9504 9.16999 18.4704 9.16999 18.1804 9.45999C17.8904 9.74999 17.8904 10.23 18.1804 10.52L19.6304 11.97L18.1404 13.46C17.8504 13.75 17.8504 14.23 18.1404 14.52C18.2904 14.67 18.4804 14.74 18.6704 14.74C18.8604 14.74 19.0504 14.67 19.2004 14.52L20.6904 13.03L22.1404 14.48C22.2904 14.63 22.4804 14.7 22.6704 14.7C22.8604 14.7 23.0504 14.63 23.2004 14.48C23.4904 14.19 23.4904 13.72 23.2004 13.42Z" fill="#292D32"/>
<path d="M14.6899 3.78C13.5699 3.16 12.1399 3.32 10.6799 4.23L7.75992 6.06C7.55992 6.18 7.32992 6.25 7.09992 6.25H6.16992H5.66992C3.24992 6.25 1.91992 7.58 1.91992 10V14C1.91992 16.42 3.24992 17.75 5.66992 17.75H6.16992H7.09992C7.32992 17.75 7.55992 17.82 7.75992 17.94L10.6799 19.77C11.5599 20.32 12.4199 20.59 13.2199 20.59C13.7399 20.59 14.2399 20.47 14.6899 20.22C15.7999 19.6 16.4199 18.31 16.4199 16.59V7.41C16.4199 5.69 15.7999 4.4 14.6899 3.78Z" fill="#292D32"/>
</svg>
