<svg width="25" height="24" viewBox="0 0 25 24" fill="none" xmlns="http://www.w3.org/2000/svg">
<path d="M18.1899 3.78C17.0699 3.16 15.6399 3.32 14.1799 4.23L11.2599 6.06C11.0599 6.18 10.8299 6.25 10.5999 6.25H9.66992H9.16992C6.74992 6.25 5.41992 7.58 5.41992 10V14C5.41992 16.42 6.74992 17.75 9.16992 17.75H9.66992H10.5999C10.8299 17.75 11.0599 17.82 11.2599 17.94L14.1799 19.77C15.0599 20.32 15.9199 20.59 16.7199 20.59C17.2399 20.59 17.7399 20.47 18.1899 20.22C19.2999 19.6 19.9199 18.31 19.9199 16.59V7.41C19.9199 5.69 19.2999 4.4 18.1899 3.78Z" fill="#292D32"/>
</svg>
