<svg width="25" height="24" viewBox="0 0 25 24" fill="none" xmlns="http://www.w3.org/2000/svg">
<path d="M22.1719 12.5H19.6719C18.5719 12.5 17.6719 13.4 17.6719 14.5C17.6719 15.6 18.5719 16.5 19.6719 16.5H22.1719C22.4519 16.5 22.6719 16.28 22.6719 16V13C22.6719 12.72 22.4519 12.5 22.1719 12.5Z" fill="#292D32"/>
<path d="M5.67188 15C4.47187 15 3.40188 15.53 2.67188 16.36C2.05187 17.07 1.67188 17.99 1.67188 19C1.67188 19.75 1.88188 20.46 2.25188 21.06C2.94187 22.22 4.21187 23 5.67188 23C6.68188 23 7.60188 22.63 8.30188 22C8.61188 21.74 8.88188 21.42 9.09188 21.06C9.46187 20.46 9.67188 19.75 9.67188 19C9.67188 16.79 7.88188 15 5.67188 15ZM7.27187 20.58C7.12187 20.73 6.93188 20.8 6.74188 20.8C6.55188 20.8 6.36188 20.73 6.21187 20.58L5.68188 20.05L5.13188 20.6C4.98187 20.75 4.79188 20.82 4.60188 20.82C4.41188 20.82 4.22188 20.75 4.07188 20.6C3.78188 20.31 3.78188 19.83 4.07188 19.54L4.62188 18.99L4.09188 18.46C3.80188 18.17 3.80188 17.69 4.09188 17.4C4.38188 17.11 4.86188 17.11 5.15188 17.4L5.68188 17.93L6.18188 17.43C6.47188 17.14 6.95188 17.14 7.24188 17.43C7.53188 17.72 7.53188 18.2 7.24188 18.49L6.74188 18.99L7.27187 19.52C7.56187 19.81 7.56187 20.28 7.27187 20.58Z" fill="#292D32"/>
<path d="M17.2021 5.40003C17.5021 5.69003 17.2521 6.14003 16.8321 6.14003L8.55208 6.13003C8.07208 6.13003 7.83208 5.55003 8.17208 5.21003L9.92208 3.45003C11.4021 1.98003 13.7921 1.98003 15.2721 3.45003L17.1621 5.36003C17.1721 5.37003 17.1921 5.39003 17.2021 5.40003Z" fill="#292D32"/>
<path d="M22.5422 18.66C21.9322 20.72 20.1722 22 17.7722 22H11.2722C10.8822 22 10.6322 21.57 10.7922 21.21C11.0922 20.51 11.2822 19.72 11.2822 19C11.2822 15.97 8.81223 13.5 5.78223 13.5C5.02223 13.5 4.28223 13.66 3.60223 13.96C3.23223 14.12 2.78223 13.87 2.78223 13.47V12C2.78223 9.28 4.42223 7.38 6.97223 7.06C7.22223 7.02 7.49223 7 7.77223 7H17.7722C18.0322 7 18.2822 7.01 18.5222 7.05C20.5422 7.28 22.0022 8.51 22.5422 10.34C22.6422 10.67 22.4022 11 22.0622 11H19.7722C17.6022 11 15.8822 12.98 16.3522 15.23C16.6822 16.87 18.2022 18 19.8722 18H22.0622C22.4122 18 22.6422 18.34 22.5422 18.66Z" fill="#292D32"/>
</svg>
