<svg width="25" height="24" viewBox="0 0 25 24" fill="none" xmlns="http://www.w3.org/2000/svg">
<path d="M1.90173 21.6817L2.66173 20.9217C2.26173 20.3217 2.03173 19.6017 2.03173 18.8317C2.03173 16.7217 3.74173 15.0117 5.85173 15.0117C7.96173 15.0117 9.67173 16.7117 9.67173 18.8217C9.67173 20.9317 7.96173 22.6417 5.85173 22.6417C5.08173 22.6417 4.36173 22.4117 3.76173 22.0117L3.00173 22.7717C2.84173 22.9217 2.64173 23.0017 2.44173 23.0017C2.24173 23.0017 2.04173 22.9217 1.89173 22.7717C1.59173 22.4717 1.59173 21.9817 1.90173 21.6817Z" fill="#292D32"/>
<path d="M22.1719 12.5H19.6719C18.5719 12.5 17.6719 13.4 17.6719 14.5C17.6719 15.6 18.5719 16.5 19.6719 16.5H22.1719C22.4519 16.5 22.6719 16.28 22.6719 16V13C22.6719 12.72 22.4519 12.5 22.1719 12.5Z" fill="#292D32"/>
<path d="M17.2021 5.40003C17.5021 5.69003 17.2521 6.14003 16.8321 6.14003L8.55208 6.13003C8.07208 6.13003 7.83208 5.55003 8.17208 5.21003L9.92208 3.45003C11.4021 1.98003 13.7921 1.98003 15.2721 3.45003L17.1621 5.36003C17.1721 5.37003 17.1921 5.39003 17.2021 5.40003Z" fill="#292D32"/>
<path d="M22.5422 18.66C21.9322 20.72 20.1722 22 17.7722 22H11.2722C10.8822 22 10.6322 21.57 10.7922 21.21C11.0922 20.51 11.2822 19.72 11.2822 19C11.2822 15.97 8.81223 13.5 5.78223 13.5C5.02223 13.5 4.28223 13.66 3.60223 13.96C3.23223 14.12 2.78223 13.87 2.78223 13.47V12C2.78223 9.28 4.42223 7.38 6.97223 7.06C7.22223 7.02 7.49223 7 7.77223 7H17.7722C18.0322 7 18.2822 7.01 18.5222 7.05C20.5422 7.28 22.0022 8.51 22.5422 10.34C22.6422 10.67 22.4022 11 22.0622 11H19.7722C17.6022 11 15.8822 12.98 16.3522 15.23C16.6822 16.87 18.2022 18 19.8722 18H22.0622C22.4122 18 22.6422 18.34 22.5422 18.66Z" fill="#292D32"/>
</svg>
