<svg width="25" height="24" viewBox="0 0 25 24" fill="none" xmlns="http://www.w3.org/2000/svg">
<path d="M20.1798 5.85L14.2398 2.42C13.2698 1.86 12.0698 1.86 11.0898 2.42L5.15984 5.85C4.18984 6.41 3.58984 7.45 3.58984 8.58V15.42C3.58984 16.54 4.18984 17.58 5.15984 18.15L11.0998 21.58C12.0698 22.14 13.2698 22.14 14.2498 21.58L20.1898 18.15C21.1598 17.59 21.7598 16.55 21.7598 15.42V8.58C21.7498 7.45 21.1498 6.42 20.1798 5.85ZM11.9198 7.75C11.9198 7.34 12.2598 7 12.6698 7C13.0798 7 13.4198 7.34 13.4198 7.75V13C13.4198 13.41 13.0798 13.75 12.6698 13.75C12.2598 13.75 11.9198 13.41 11.9198 13V7.75ZM13.5898 16.63C13.5398 16.75 13.4698 16.86 13.3798 16.96C13.1898 17.15 12.9398 17.25 12.6698 17.25C12.5398 17.25 12.4098 17.22 12.2898 17.17C12.1598 17.12 12.0598 17.05 11.9598 16.96C11.8698 16.86 11.7998 16.75 11.7398 16.63C11.6898 16.51 11.6698 16.38 11.6698 16.25C11.6698 15.99 11.7698 15.73 11.9598 15.54C12.0598 15.45 12.1598 15.38 12.2898 15.33C12.6598 15.17 13.0998 15.26 13.3798 15.54C13.4698 15.64 13.5398 15.74 13.5898 15.87C13.6398 15.99 13.6698 16.12 13.6698 16.25C13.6698 16.38 13.6398 16.51 13.5898 16.63Z" fill="#292D32"/>
</svg>
