<svg width="25" height="24" viewBox="0 0 25 24" fill="none" xmlns="http://www.w3.org/2000/svg">
<path d="M16.6699 2H8.66992C5.66992 2 3.66992 4 3.66992 7V17C3.66992 20 5.66992 22 8.66992 22H16.6699C19.6699 22 21.6699 20 21.6699 17V7C21.6699 4 19.6699 2 16.6699 2ZM18.2399 8.48L16.0599 11.98C15.9999 12.07 15.8999 12.14 15.7999 12.15C15.7799 12.15 15.7599 12.15 15.7499 12.15C15.6599 12.15 15.5699 12.12 15.4999 12.06C13.8899 10.63 11.4699 10.63 9.85992 12.06C9.77992 12.13 9.66992 12.17 9.55992 12.15C9.44992 12.13 9.34992 12.07 9.29992 11.98L7.11992 8.48C6.99992 8.33 7.02992 8.13 7.16992 8C10.2999 5.21 15.0299 5.21 18.1699 8C18.3099 8.13 18.3399 8.33 18.2399 8.48Z" fill="#292D32"/>
</svg>
