<svg width="25" height="24" viewBox="0 0 25 24" fill="none" xmlns="http://www.w3.org/2000/svg">
<path d="M16.8599 2H8.47992C4.83992 2 2.66992 4.17 2.66992 7.81V16.18C2.66992 19.83 4.83992 22 8.47992 22H16.8499C20.4899 22 22.6599 19.83 22.6599 16.19V7.81C22.6699 4.17 20.4999 2 16.8599 2ZM15.4599 16.6C15.3099 16.79 15.0899 16.89 14.8699 16.89C14.7099 16.89 14.5499 16.84 14.4099 16.73C13.3499 15.91 11.9799 15.91 10.9199 16.73C10.5899 16.98 10.1199 16.92 9.86992 16.6C9.61992 16.27 9.67992 15.8 9.99992 15.55C11.5899 14.32 13.7299 14.32 15.3199 15.55C15.6599 15.8 15.7199 16.27 15.4599 16.6ZM17.6699 13.51C17.5199 13.7 17.2999 13.8 17.0799 13.8C16.9199 13.8 16.7599 13.75 16.6199 13.64C14.2199 11.79 11.1299 11.79 8.72992 13.64C8.39992 13.9 7.92992 13.84 7.66992 13.51C7.40992 13.18 7.47992 12.71 7.79992 12.46C10.7499 10.18 14.5699 10.18 17.5199 12.46C17.8599 12.71 17.9199 13.18 17.6699 13.51ZM19.2599 10.42C19.1099 10.61 18.8899 10.71 18.6699 10.71C18.5099 10.71 18.3499 10.66 18.2099 10.55C14.8399 7.95 10.4899 7.95 7.12992 10.55C6.79992 10.8 6.32992 10.74 6.07992 10.42C5.82992 10.09 5.88992 9.62 6.20992 9.37C10.1299 6.34 15.1999 6.34 19.1299 9.37C19.4599 9.62 19.5199 10.09 19.2599 10.42Z" fill="#292D32"/>
</svg>
