<svg width="25" height="24" viewBox="0 0 25 24" fill="none" xmlns="http://www.w3.org/2000/svg">
<path fill-rule="evenodd" clip-rule="evenodd" d="M21.4699 2.23998L13.4699 3.83998C12.9999 3.92998 12.6699 4.33999 12.6699 4.81999V9.99999C12.6699 10.55 13.1199 11 13.6699 11H21.6699C22.2199 11 22.6699 10.55 22.6699 9.99999V3.21999C22.6699 2.58999 22.0899 2.11998 21.4699 2.23998Z" fill="black"/>
<path fill-rule="evenodd" clip-rule="evenodd" d="M21.4699 21.76L13.4699 20.16C12.9999 20.07 12.6699 19.66 12.6699 19.18V14C12.6699 13.45 13.1199 13 13.6699 13H21.6699C22.2199 13 22.6699 13.45 22.6699 14V20.78C22.6699 21.41 22.0899 21.88 21.4699 21.76Z" fill="black"/>
<path fill-rule="evenodd" clip-rule="evenodd" d="M9.4599 4.55999L3.4599 5.82998C2.9999 5.92998 2.66992 6.33999 2.66992 6.80999V9.99999C2.66992 10.55 3.11992 11 3.66992 11H9.66992C10.2199 11 10.6699 10.55 10.6699 9.99999V5.52999C10.6699 4.89999 10.0799 4.41999 9.4599 4.55999Z" fill="black"/>
<path fill-rule="evenodd" clip-rule="evenodd" d="M9.4599 19.44L3.4599 18.17C2.9999 18.07 2.66992 17.66 2.66992 17.19V14C2.66992 13.45 3.11992 13 3.66992 13H9.66992C10.2199 13 10.6699 13.45 10.6699 14V18.47C10.6699 19.1 10.0799 19.58 9.4599 19.44Z" fill="black"/>
</svg>
