<svg width="25" height="24" viewBox="0 0 25 24" fill="none" xmlns="http://www.w3.org/2000/svg">
<path d="M19.6699 9C19.6699 5.13 16.5399 2 12.6699 2C8.79992 2 5.66992 5.13 5.66992 9C5.66992 12.62 8.40992 15.59 11.9199 15.96V18.25H9.66992C9.25992 18.25 8.91992 18.59 8.91992 19C8.91992 19.41 9.25992 19.75 9.66992 19.75H11.9199V22C11.9199 22.41 12.2599 22.75 12.6699 22.75C13.0799 22.75 13.4199 22.41 13.4199 22V19.75H15.6699C16.0799 19.75 16.4199 19.41 16.4199 19C16.4199 18.59 16.0799 18.25 15.6699 18.25H13.4199V15.96C16.9299 15.59 19.6699 12.62 19.6699 9Z" fill="#292D32"/>
</svg>
