<svg width="25" height="24" viewBox="0 0 25 24" fill="none" xmlns="http://www.w3.org/2000/svg">
<path d="M12.6699 2C7.14992 2 2.66992 6.48 2.66992 12C2.66992 17.52 7.14992 22 12.6699 22C18.1899 22 22.6699 17.52 22.6699 12C22.6699 6.48 18.1899 2 12.6699 2ZM14.2999 14.29C14.2999 14.8 13.8899 15.21 13.3799 15.21L9.69992 15.24C8.15992 15.25 6.90991 14.01 6.90991 12.47V9.67001C6.90991 9.16001 7.31993 8.75 7.82993 8.75H11.5199C13.0499 8.75 14.2899 9.98999 14.2899 11.52V14.29H14.2999ZM18.4199 14C18.4199 14.43 17.9399 14.69 17.5799 14.45L15.6599 13.17C15.5099 13.07 15.4199 12.9 15.4199 12.72V11.3C15.4199 11.12 15.5099 10.95 15.6599 10.85L17.5799 9.57001C17.9399 9.33001 18.4199 9.58999 18.4199 10.02V14Z" fill="black"/>
</svg>
