<svg width="24" height="24" viewBox="0 0 24 24" fill="none" xmlns="http://www.w3.org/2000/svg">
<path opacity="0.5" d="M12 22.0005C16.9706 22.0005 21 17.9711 21 13.0005C21 8.02993 16.9706 4.00049 12 4.00049C7.02944 4.00049 3 8.02993 3 13.0005C3 17.9711 7.02944 22.0005 12 22.0005Z" fill="#1C274C"/>
<path d="M12 9.25049C12.4142 9.25049 12.75 9.58627 12.75 10.0005V12.2505H15C15.4142 12.2505 15.75 12.5863 15.75 13.0005C15.75 13.4147 15.4142 13.7505 15 13.7505H12.75V16.0005C12.75 16.4147 12.4142 16.7505 12 16.7505C11.5858 16.7505 11.25 16.4147 11.25 16.0005V13.7505H9C8.58579 13.7505 8.25 13.4147 8.25 13.0005C8.25 12.5863 8.58579 12.2505 9 12.2505H11.25V10.0005C11.25 9.58627 11.5858 9.25049 12 9.25049Z" fill="#1C274C"/>
<path fill-rule="evenodd" clip-rule="evenodd" d="M8.2405 2.34034C8.45409 2.6789 8.3502 3.12489 8.00844 3.33648L4.11657 5.74611C3.77481 5.9577 3.32461 5.85478 3.11102 5.51623C2.89742 5.17767 3.00131 4.73169 3.34307 4.52009L7.23494 2.11046C7.5767 1.89887 8.0269 2.00179 8.2405 2.34034Z" fill="#1C274C"/>
<path fill-rule="evenodd" clip-rule="evenodd" d="M15.7595 2.34034C15.9731 2.00179 16.4233 1.89887 16.7651 2.11047L20.6569 4.52009C20.9987 4.73169 21.1026 5.17767 20.889 5.51623C20.6754 5.85478 20.2252 5.9577 19.8834 5.74611L15.9916 3.33648C15.6498 3.12488 15.5459 2.6789 15.7595 2.34034Z" fill="#1C274C"/>
</svg>
