<svg width="24" height="24" viewBox="0 0 24 24" fill="none" xmlns="http://www.w3.org/2000/svg">
<g opacity="0.5">
<path d="M12 22.0005C16.9706 22.0005 21 17.9711 21 13.0005C21 8.02993 16.9706 4.00049 12 4.00049C7.02944 4.00049 3 8.02993 3 13.0005C3 17.9711 7.02944 22.0005 12 22.0005Z" fill="#1C274C"/>
</g>
<path d="M13.0261 10.2754C12.7888 10.1088 12.5201 9.93646 12.2419 9.76728L12.2419 9.76728C11.1695 9.11514 10.6333 8.78908 10.1524 9.15009C9.6715 9.5111 9.62779 10.2668 9.54038 11.7783C9.51566 12.2058 9.5 12.6248 9.5 13.0005C9.5 13.3761 9.51566 13.7952 9.54038 14.2226C9.62779 15.7341 9.6715 16.4899 10.1524 16.8509C10.6333 17.2119 11.1695 16.8858 12.2419 16.2337C12.5201 16.0645 12.7888 15.8922 13.0261 15.7256C13.2966 15.5357 13.5909 15.3078 13.8876 15.0657C14.9625 14.1888 15.5 13.7504 15.5 13.0005C15.5 12.2506 14.9625 11.8122 13.8876 10.9353C13.5909 10.6932 13.2966 10.4653 13.0261 10.2754Z" fill="#1C274C"/>
<path fill-rule="evenodd" clip-rule="evenodd" d="M8.2405 2.34034C8.45409 2.6789 8.3502 3.12489 8.00844 3.33648L4.11657 5.74611C3.77481 5.9577 3.32461 5.85478 3.11102 5.51623C2.89742 5.17767 3.00131 4.73169 3.34307 4.52009L7.23494 2.11046C7.5767 1.89887 8.0269 2.00179 8.2405 2.34034Z" fill="#1C274C"/>
<path fill-rule="evenodd" clip-rule="evenodd" d="M15.7595 2.34034C15.9731 2.00179 16.4233 1.89887 16.7651 2.11047L20.6569 4.52009C20.9987 4.73169 21.1026 5.17767 20.889 5.51623C20.6754 5.85478 20.2252 5.9577 19.8834 5.74611L15.9916 3.33648C15.6498 3.12488 15.5459 2.6789 15.7595 2.34034Z" fill="#1C274C"/>
</svg>
