<svg width="24" height="24" viewBox="0 0 24 24" fill="none" xmlns="http://www.w3.org/2000/svg">
<path opacity="0.5" d="M12 22.0005C16.9706 22.0005 21 17.9711 21 13.0005C21 8.02993 16.9706 4.00049 12 4.00049C7.02944 4.00049 3 8.02993 3 13.0005C3 17.9711 7.02944 22.0005 12 22.0005Z" fill="#1C274C"/>
<path d="M11 15.5005V10.5005V10.5005C11 10.0345 11 9.80157 10.9239 9.61781C10.8224 9.37278 10.6277 9.1781 10.3827 9.07661C10.1989 9.00049 9.96594 9.00049 9.5 9.00049C9.03406 9.00049 8.80109 9.00049 8.61732 9.07661C8.37229 9.1781 8.17761 9.37278 8.07612 9.61781C8 9.80158 8 10.0345 8 10.5005V15.5005C8 15.9664 8 16.1994 8.07612 16.3832C8.17761 16.6282 8.37229 16.8229 8.61732 16.9244C8.80109 17.0005 9.03406 17.0005 9.5 17.0005C9.96594 17.0005 10.1989 17.0005 10.3827 16.9244C10.6277 16.8229 10.8224 16.6282 10.9239 16.3832C11 16.1994 11 15.9664 11 15.5005V15.5005Z" fill="#1C274C"/>
<path d="M16 15.5005V10.5005C16 10.0345 16 9.80158 15.9239 9.61781C15.8224 9.37278 15.6277 9.1781 15.3827 9.07661C15.1989 9.00049 14.9659 9.00049 14.5 9.00049C14.0341 9.00049 13.8011 9.00049 13.6173 9.07661C13.3723 9.1781 13.1776 9.37278 13.0761 9.61781C13 9.80158 13 10.0345 13 10.5005V15.5005C13 15.9664 13 16.1994 13.0761 16.3832C13.1776 16.6282 13.3723 16.8229 13.6173 16.9244C13.8011 17.0005 14.0341 17.0005 14.5 17.0005C14.9659 17.0005 15.1989 17.0005 15.3827 16.9244C15.6277 16.8229 15.8224 16.6282 15.9239 16.3832C16 16.1994 16 15.9664 16 15.5005Z" fill="#1C274C"/>
<path fill-rule="evenodd" clip-rule="evenodd" d="M8.2405 2.34034C8.45409 2.6789 8.3502 3.12489 8.00844 3.33648L4.11657 5.74611C3.77481 5.9577 3.32461 5.85478 3.11102 5.51623C2.89742 5.17767 3.00131 4.73169 3.34307 4.52009L7.23494 2.11046C7.5767 1.89887 8.0269 2.00179 8.2405 2.34034Z" fill="#1C274C"/>
<path fill-rule="evenodd" clip-rule="evenodd" d="M15.7595 2.34034C15.9731 2.00179 16.4233 1.89887 16.7651 2.11047L20.6569 4.52009C20.9987 4.73169 21.1026 5.17767 20.889 5.51623C20.6754 5.85478 20.2252 5.9577 19.8834 5.74611L15.9916 3.33648C15.6498 3.12488 15.5459 2.6789 15.7595 2.34034Z" fill="#1C274C"/>
</svg>
