<svg width="24" height="24" viewBox="0 0 24 24" fill="none" xmlns="http://www.w3.org/2000/svg">
<path d="M16.5332 18.0001H6.88633C6.82438 18.0001 6.7934 18.0001 6.76531 17.9997C6.76021 17.9997 6.7551 17.9996 6.75 17.9995V18.9997V20.0002C6.75 20.4144 6.41421 20.7502 6 20.7502C5.58579 20.7502 5.25 20.4144 5.25 20.0002V17.6757C4.42121 17.3139 3.76073 16.6713 3.44197 15.8595C3.43268 15.8359 3.42288 15.8096 3.4033 15.7571L2.10028 12.2645C1.68469 11.1505 2.61268 10.0001 3.92689 10.0001C4.7372 10.0001 5.46079 10.4534 5.73699 11.1341L6.83511 13.8401C6.93505 14.0864 6.98502 14.2095 7.05744 14.3102C7.22656 14.5453 7.49217 14.7117 7.79716 14.7736C7.92777 14.8001 8.07437 14.8001 8.36757 14.8001H15.3467C15.9158 14.8001 16.2004 14.8001 16.4383 14.702C16.5683 14.6485 16.6864 14.5745 16.787 14.4836C16.9713 14.3172 17.0683 14.0781 17.2623 13.6001L18.263 11.1341C18.5392 10.4534 19.2628 10.0001 20.0731 10.0001C21.3873 10.0001 22.3153 11.1505 21.8997 12.2645L20.7803 15.265C20.5852 15.788 20.4876 16.0495 20.3588 16.2718C20.0008 16.8893 19.4328 17.3777 18.75 17.6757V20.0002C18.75 20.4144 18.4142 20.7502 18 20.7502C17.5858 20.7502 17.25 20.4144 17.25 20.0002V17.9956C17.0633 18.0001 16.8352 18.0001 16.5332 18.0001Z" fill="#1C274C"/>
<path opacity="0.5" d="M13.2357 3.50012H10.7643C9.66323 3.50011 8.78836 3.50011 8.10305 3.58786C7.39835 3.67809 6.81875 3.86883 6.35812 4.30752C5.89405 4.74949 5.68912 5.31114 5.59278 5.99361C5.49998 6.65099 5.49999 7.48821 5.5 8.53282V10.7283C5.59733 10.8515 5.67753 10.9875 5.73699 11.1341L6.83511 13.8401C6.93505 14.0864 6.98502 14.2095 7.05744 14.3102C7.22656 14.5453 7.49217 14.7117 7.79716 14.7736C7.92777 14.8001 8.07437 14.8001 8.36757 14.8001H15.3467C15.9158 14.8001 16.2004 14.8001 16.4383 14.702C16.5683 14.6485 16.6864 14.5745 16.787 14.4836C16.9713 14.3172 17.0683 14.0781 17.2623 13.6001L18.263 11.1341C18.3225 10.9875 18.4027 10.8515 18.5 10.7283V8.53287C18.5 7.48823 18.5 6.651 18.4072 5.99361C18.3109 5.31114 18.1059 4.74949 17.6419 4.30752C17.1813 3.86883 16.6017 3.67809 15.897 3.58786C15.2116 3.50011 14.3368 3.50011 13.2357 3.50012Z" fill="#1C274C"/>
</svg>
