<svg width="24" height="24" viewBox="0 0 24 24" fill="none" xmlns="http://www.w3.org/2000/svg">
<path opacity="0.5" d="M4.0828 11.8948C4.52171 9.55388 4.74117 8.38343 5.57434 7.69196C6.40752 7.00049 7.59835 7.00049 9.98003 7.00049H14.0209C16.4026 7.00049 17.5934 7.00049 18.4266 7.69196C19.2598 8.38343 19.4792 9.55387 19.9181 11.8948L20.6681 15.8948C21.2853 19.1865 21.5939 20.8323 20.6942 21.9164C19.7945 23.0005 18.12 23.0005 14.7709 23.0005H9.23003C5.88097 23.0005 4.20644 23.0005 3.30672 21.9164C2.40701 20.8323 2.7156 19.1865 3.3328 15.8948L4.0828 11.8948Z" fill="#1C274C"/>
<path d="M9.75 5.98558C9.75 4.74294 10.7574 3.73558 12 3.73558C13.2426 3.73558 14.25 4.74294 14.25 5.98558V6.98558C14.816 6.98576 15.3119 6.98732 15.7499 7.00046C15.75 6.99551 15.75 6.99055 15.75 6.98558V5.98558C15.75 3.91451 14.0711 2.23558 12 2.23558C9.92893 2.23558 8.25 3.91451 8.25 5.98558V6.98558C8.25 6.99056 8.25005 6.99553 8.25015 7.00049C8.68814 6.98733 9.18397 6.98579 9.75 6.9856V5.98558Z" fill="#1C274C"/>
<path d="M9.87823 15.7505C10.1875 16.6254 11.0219 17.2504 12.0004 17.2504C12.9789 17.2504 13.8133 16.6254 14.1226 15.7505C14.2606 15.36 14.6891 15.1553 15.0796 15.2933C15.4702 15.4314 15.6749 15.8598 15.5368 16.2504C15.0224 17.7059 13.6343 18.7504 12.0004 18.7504C10.3665 18.7504 8.97841 17.7059 8.46397 16.2504C8.32594 15.8598 8.53063 15.4314 8.92117 15.2933C9.31171 15.1553 9.7402 15.36 9.87823 15.7505Z" fill="#1C274C"/>
</svg>
