<svg width="24" height="24" viewBox="0 0 24 24" fill="none" xmlns="http://www.w3.org/2000/svg">
<path opacity="0.5" d="M3.77772 18.3264C4.78661 19.0005 6.19108 19.0005 9 19.0005L15 19.0005C17.8089 19.0005 19.2134 19.0005 20.2223 18.3264C20.659 18.0345 21.034 17.6595 21.3259 17.2228C22 16.2139 22 14.8094 22 12.0005C22 9.19156 22 7.7871 21.3259 6.77821C21.034 6.34145 20.659 5.96644 20.2223 5.67461C19.2134 5.00049 17.8089 5.00049 15 5.00049H9C6.19108 5.00049 4.78661 5.00049 3.77772 5.67461C3.34096 5.96644 2.96596 6.34145 2.67412 6.77821C2 7.7871 2 9.19156 2 12.0005C2 14.8094 2 16.2139 2.67412 17.2228C2.96596 17.6595 3.34096 18.0345 3.77772 18.3264Z" fill="#1C274C"/>
<path d="M5.5 15.7505C5.08579 15.7505 4.75 15.4147 4.75 15.0005L4.75 9.00049C4.75 8.58627 5.08579 8.25049 5.5 8.25049C5.91421 8.25049 6.25 8.58627 6.25 9.00049L6.25 15.0005C6.25 15.4147 5.91421 15.7505 5.5 15.7505Z" fill="#1C274C"/>
<path d="M17.75 15.0005C17.75 15.4147 18.0858 15.7505 18.5 15.7505C18.9142 15.7505 19.25 15.4147 19.25 15.0005V9.00049C19.25 8.58627 18.9142 8.25049 18.5 8.25049C18.0858 8.25049 17.75 8.58627 17.75 9.00049V15.0005Z" fill="#1C274C"/>
<path fill-rule="evenodd" clip-rule="evenodd" d="M8.25 12.0005C8.25 14.0716 9.92893 15.7505 12 15.7505C14.0711 15.7505 15.75 14.0716 15.75 12.0005C15.75 9.92942 14.0711 8.25049 12 8.25049C9.92893 8.25049 8.25 9.92942 8.25 12.0005ZM9.75 12.0005C9.75 13.2431 10.7574 14.2505 12 14.2505C13.2426 14.2505 14.25 13.2431 14.25 12.0005C14.25 10.7578 13.2426 9.75049 12 9.75049C10.7574 9.75049 9.75 10.7578 9.75 12.0005Z" fill="#1C274C"/>
</svg>
