<svg width="24" height="24" viewBox="0 0 24 24" fill="none" xmlns="http://www.w3.org/2000/svg">
<path fill-rule="evenodd" clip-rule="evenodd" d="M2 11.0001H1.75C1.33579 11.0001 1 11.3359 1 11.7501C1 12.1643 1.33579 12.5001 1.75 12.5001H2V12.7501L2.00008 12.7615L2.00001 12.8169L2.00001 12.8547C2 13.23 2 13.45 2.01557 13.6953C2.15751 15.9317 3.36604 17.9969 5.11758 19.3473C5.27527 19.4728 6.0307 19.9349 6.3887 20.1503C7.19042 20.556 8.0623 20.8231 8.96911 20.915C9.21355 20.9397 9.36275 20.9453 9.61687 20.9549L9.62369 20.9551C10.3639 20.9829 11.0885 21.0001 11.75 21.0001C12.4115 21.0001 13.1361 20.9829 13.8763 20.9551L13.883 20.9549C14.1372 20.9453 14.2865 20.9397 14.5309 20.915C15.4378 20.8231 16.3098 20.556 17.1116 20.1501C17.45 19.951 18.178 19.5115 18.3827 19.3471C20.1341 17.9968 21.3425 15.9316 21.4845 13.6953C21.5 13.45 21.5 13.23 21.5 12.8548L21.5 12.8169C21.5 12.7568 21.5001 12.6943 21.4963 12.6366C21.4933 12.5906 21.4886 12.5451 21.4821 12.5001H21.75C22.1642 12.5001 22.5 12.1643 22.5 11.7501C22.5 11.3359 22.1642 11.0001 21.75 11.0001H3.5H2Z" fill="#1C274C"/>
<path opacity="0.5" d="M5.11758 19.3473C5.10383 19.3689 5.09106 19.3915 5.07934 19.4149L4.07934 21.4149C3.8941 21.7854 4.04427 22.2359 4.41475 22.4211C4.78524 22.6064 5.23574 22.4562 5.42098 22.0857L6.3887 20.1503C6.0307 19.9349 5.27527 19.4728 5.11758 19.3473Z" fill="#1C274C"/>
<path opacity="0.5" d="M17.1113 20.1501L18.0791 22.0856C18.2643 22.4561 18.7149 22.6063 19.0853 22.421C19.4558 22.2358 19.606 21.7853 19.4207 21.4148L18.4207 19.4148C18.409 19.3913 18.3962 19.3687 18.3824 19.347C18.1778 19.5115 17.4498 19.9509 17.1113 20.1501Z" fill="#1C274C"/>
<path opacity="0.5" d="M3.5 4.13529C3.5 3.23221 4.23209 2.50012 5.13516 2.50012C5.80379 2.50012 6.40505 2.9072 6.65338 3.528L6.79665 3.88619L8.15623 3.24626L8.04609 2.97092C7.56997 1.78062 6.41715 1.00012 5.13516 1.00012C3.40366 1.00012 2 2.40378 2 4.13529V11.0001H3.5V4.13529Z" fill="#1C274C"/>
<path d="M6.7965 3.88615C6.20198 4.31936 5.71627 4.92343 5.41707 5.66021C4.99676 6.69522 5.01943 7.80672 5.39765 8.76659C5.47205 8.95542 5.61982 9.10604 5.80719 9.18404C5.99457 9.26204 6.20556 9.26077 6.39199 9.18052L12.3527 6.61444C12.7248 6.45425 12.9025 6.02752 12.754 5.65061C12.3756 4.69037 11.6368 3.87197 10.6215 3.43821C9.81017 3.0916 8.94936 3.04497 8.15607 3.24621L6.7965 3.88615Z" fill="#1C274C"/>
</svg>
