<svg width="24" height="24" viewBox="0 0 24 24" fill="none" xmlns="http://www.w3.org/2000/svg">
<g opacity="0.5">
<path d="M12.735 14.6536C12.4655 14.6313 12.2173 14.4637 12.105 14.1973C11.9441 13.8156 12.1231 13.3758 12.5047 13.2148C12.7291 13.1202 12.9461 12.9775 13.1501 12.7735C13.4222 12.5014 13.8515 12.4821 14.1459 12.7157C14.2079 12.7171 14.2707 12.7263 14.3331 12.7439C14.7317 12.8565 14.9636 13.2709 14.851 13.6695C14.6401 14.4163 14.2513 15.1473 13.7462 15.817C13.4968 16.1477 13.0265 16.2136 12.6958 15.9642C12.3651 15.7148 12.2992 15.2445 12.5486 14.9138C12.6138 14.8274 12.676 14.7406 12.735 14.6536Z" fill="#1C274C"/>
<path d="M10.4866 14.6947C10.8853 14.8073 11.2997 14.5754 11.4122 14.1768C11.43 14.1139 11.4392 14.0507 11.4405 13.9883C11.673 13.694 11.6534 13.2655 11.3817 12.9938C11.1777 12.7898 11.035 12.5728 10.9404 12.3484C10.7794 11.9667 10.3396 11.7878 9.95789 11.9487C9.69171 12.0609 9.52412 12.3088 9.50166 12.5781C9.41499 12.5192 9.3285 12.4573 9.24234 12.3923C8.91164 12.1429 8.44136 12.2088 8.19195 12.5395C7.94254 12.8702 8.00844 13.3405 8.33915 13.5899C9.00887 14.095 9.73987 14.4838 10.4866 14.6947Z" fill="#1C274C"/>
<path d="M6.67602 11.9462C6.93159 12.2722 7.40302 12.3292 7.729 12.0737C8.05497 11.8181 8.11204 11.3467 7.85647 11.0207C7.4559 10.5098 7.1106 9.9424 6.84701 9.34363C6.68012 8.96452 6.2375 8.79249 5.8584 8.95938C5.47929 9.12627 5.30726 9.56889 5.47415 9.94799C5.79083 10.6673 6.20226 11.3419 6.67602 11.9462Z" fill="#1C274C"/>
<path d="M4.83993 7.67163C4.88895 8.08293 5.26212 8.37662 5.67342 8.3276C6.08472 8.27858 6.37841 7.90542 6.32939 7.49412C6.25493 6.86934 6.28452 6.24245 6.43821 5.63213C6.53936 5.23046 6.29574 4.82284 5.89406 4.72169C5.49239 4.62054 5.08477 4.86417 4.98362 5.26584C4.78109 6.07014 4.74589 6.88252 4.83993 7.67163Z" fill="#1C274C"/>
<path d="M6.00797 3.07927C5.7662 3.4156 5.84287 3.88425 6.1792 4.12602C6.51553 4.36779 6.98418 4.29112 7.22595 3.95479C7.40293 3.70858 7.60887 3.46552 7.8468 3.2276C8.13969 2.9347 8.13969 2.45983 7.8468 2.16694C7.5539 1.87404 7.07903 1.87404 6.78614 2.16694C6.49287 2.4602 6.23394 2.76492 6.00797 3.07927Z" fill="#1C274C"/>
<path d="M11.7629 9.08603C11.6977 9.17249 11.6355 9.25929 11.5765 9.34627C11.846 9.36852 12.0942 9.53617 12.2065 9.80256C12.3674 10.1842 12.1884 10.6241 11.8068 10.785C11.5824 10.8796 11.3654 11.0224 11.1614 11.2263C10.8893 11.4985 10.46 11.5177 10.1656 11.2841C10.1036 11.2827 10.0408 11.2735 9.97842 11.2559C9.5798 11.1433 9.34791 10.7289 9.46048 10.3303C9.67136 9.58356 10.0602 8.85256 10.5653 8.18284C10.8147 7.85213 11.285 7.78623 11.6157 8.03564C11.9464 8.28505 12.0123 8.75533 11.7629 9.08603Z" fill="#1C274C"/>
<path d="M13.8249 9.30514C13.4262 9.19257 13.0118 9.42447 12.8993 9.82309C12.8815 9.88592 12.8723 9.94914 12.871 10.0115C12.6385 10.3059 12.6581 10.7343 12.9298 11.0061C13.1338 11.21 13.2765 11.427 13.3712 11.6514C13.5321 12.0331 13.9719 12.2121 14.3536 12.0512C14.6198 11.9389 14.7874 11.691 14.8098 11.4218C14.8965 11.4807 14.983 11.5426 15.0692 11.6076C15.3999 11.857 15.8701 11.7911 16.1196 11.4604C16.369 11.1297 16.3031 10.6594 15.9724 10.41C15.3026 9.90489 14.5716 9.51602 13.8249 9.30514Z" fill="#1C274C"/>
<path d="M17.6355 12.0537C17.3799 11.7277 16.9085 11.6706 16.5825 11.9262C16.2565 12.1818 16.1995 12.6532 16.455 12.9792C16.8556 13.4901 17.2009 14.0575 17.4645 14.6562C17.6314 15.0353 18.074 15.2074 18.4531 15.0405C18.8322 14.8736 19.0042 14.431 18.8374 14.0519C18.5207 13.3325 18.1092 12.6579 17.6355 12.0537Z" fill="#1C274C"/>
<path d="M19.4716 16.3282C19.4225 15.9169 19.0494 15.6232 18.6381 15.6723C18.2268 15.7213 17.9331 16.0944 17.9821 16.5057C18.0566 17.1305 18.027 17.7574 17.8733 18.3677C17.7721 18.7694 18.0158 19.177 18.4174 19.2782C18.8191 19.3793 19.2267 19.1357 19.3279 18.734C19.5304 17.9297 19.5656 17.1173 19.4716 16.3282Z" fill="#1C274C"/>
<path d="M18.3035 20.9206C18.5453 20.5843 18.4686 20.1156 18.1323 19.8738C17.796 19.6321 17.3273 19.7087 17.0856 20.0451C16.9086 20.2913 16.7026 20.5343 16.4647 20.7723C16.1718 21.0652 16.1718 21.54 16.4647 21.8329C16.7576 22.1258 17.2325 22.1258 17.5254 21.8329C17.8186 21.5397 18.0776 21.2349 18.3035 20.9206Z" fill="#1C274C"/>
<path d="M12.0815 7.57269C11.8259 7.24671 11.883 6.77528 12.209 6.51971C12.8133 6.04595 13.4878 5.63452 14.2072 5.31784C14.5863 5.15095 15.0289 5.32298 15.1958 5.70209C15.3627 6.08119 15.1907 6.52381 14.8116 6.6907C14.2128 6.95429 13.6454 7.29959 13.1345 7.70016C12.8085 7.95573 12.3371 7.89866 12.0815 7.57269Z" fill="#1C274C"/>
<path d="M15.8276 5.51711C15.7786 5.10581 16.0723 4.73264 16.4836 4.68362C17.2727 4.58958 18.085 4.62478 18.8893 4.82731C19.291 4.92846 19.5346 5.33608 19.4335 5.73775C19.3324 6.13942 18.9247 6.38305 18.5231 6.2819C17.9127 6.12821 17.2859 6.09862 16.6611 6.17308C16.2498 6.2221 15.8766 5.92841 15.8276 5.51711Z" fill="#1C274C"/>
<path d="M20.0292 6.02289C20.2709 5.68655 20.7396 5.60989 21.0759 5.85166C21.3903 6.07763 21.695 6.33656 21.9883 6.62983C22.2811 6.92272 22.2811 7.39759 21.9883 7.69049C21.6954 7.98338 21.2205 7.98338 20.9276 7.69049C20.6897 7.45256 20.4466 7.24662 20.2004 7.06964C19.8641 6.82787 19.7874 6.35922 20.0292 6.02289Z" fill="#1C274C"/>
<path d="M12.1025 17.4801C12.4285 17.2246 12.4856 16.7531 12.23 16.4272C11.9744 16.1012 11.503 16.0441 11.177 16.2997C10.6661 16.7003 10.0987 17.0456 9.49994 17.3092C9.12083 17.476 8.9488 17.9187 9.11569 18.2978C9.28258 18.6769 9.7252 18.8489 10.1043 18.682C10.8237 18.3653 11.4982 17.9539 12.1025 17.4801Z" fill="#1C274C"/>
<path d="M7.82794 19.3162C8.23924 19.2672 8.53293 18.8941 8.48391 18.4827C8.4349 18.0714 8.06173 17.7778 7.65043 17.8268C7.02565 17.9012 6.39876 17.8716 5.78844 17.718C5.38677 17.6168 4.97915 17.8604 4.878 18.2621C4.77686 18.6638 5.02048 19.0714 5.42215 19.1725C6.22645 19.3751 7.03883 19.4103 7.82794 19.3162Z" fill="#1C274C"/>
<path d="M3.23558 18.1482C3.57192 18.39 4.04056 18.3133 4.28233 17.977C4.5241 17.6406 4.44744 17.172 4.1111 16.9302C3.86489 16.7532 3.62183 16.5473 3.38391 16.3094C3.09101 16.0165 2.61614 16.0165 2.32325 16.3094C2.03035 16.6023 2.03035 17.0771 2.32325 17.37C2.61651 17.6633 2.92123 17.9222 3.23558 18.1482Z" fill="#1C274C"/>
</g>
<path d="M8.92762 12.4529C9.3338 13.2885 9.9443 13.9944 10.7532 14.395C9.96022 14.5776 9.04298 14.6153 8.1052 14.4824C5.31415 14.087 2.75 12.2842 2.75 9C2.75 8.58579 2.41421 8.25 2 8.25C1.58579 8.25 1.25 8.58579 1.25 9C1.25 13.3158 4.68585 15.513 7.8948 15.9676C9.50716 16.196 11.1645 16.0102 12.4529 15.3839C13.3211 14.9619 14.0493 14.3192 14.4405 13.4626C14.583 14.2041 14.6034 15.041 14.4824 15.8948C14.087 18.6858 12.2842 21.25 9 21.25C8.58579 21.25 8.25 21.5858 8.25 22C8.25 22.4142 8.58579 22.75 9 22.75C13.3158 22.75 15.513 19.3142 15.9676 16.1052C16.196 14.4928 16.0102 12.8355 15.3839 11.5471C15.0377 10.835 14.5432 10.2171 13.9039 9.80205C14.5291 9.72593 15.2064 9.73159 15.8948 9.82911C18.6858 10.2245 21.25 12.0274 21.25 15.3115C21.25 15.7257 21.5858 16.0615 22 16.0615C22.4142 16.0615 22.75 15.7257 22.75 15.3115C22.75 10.9957 19.3141 8.79854 16.1052 8.34394C14.4928 8.11552 12.8355 8.30132 11.5471 8.92762C10.8555 9.26381 10.2527 9.73999 9.83837 10.3528C9.72613 9.6583 9.71808 8.88892 9.82911 8.1052C10.2245 5.31415 12.0274 2.75 15.3115 2.75C15.7257 2.75 16.0615 2.41421 16.0615 2C16.0615 1.58579 15.7257 1.25 15.3115 1.25C10.9957 1.25 8.79854 4.68585 8.34394 7.8948C8.11552 9.50716 8.30132 11.1645 8.92762 12.4529Z" fill="#1C274C"/>
</svg>
