<svg width="24" height="24" viewBox="0 0 24 24" fill="none" xmlns="http://www.w3.org/2000/svg">
<path d="M21.8363 17.4623C21.393 16.4158 20.8141 15.4634 20.3001 14.618C20.1159 14.3149 19.94 14.0255 19.7817 13.7505H4.21829C4.05999 14.0255 3.8841 14.3149 3.69986 14.618C3.18593 15.4634 2.60702 16.4158 2.16368 17.4623C1.63049 18.7209 1.25 20.1849 1.25 22.0005C1.25 22.4147 1.58579 22.7505 2 22.7505C2.41421 22.7505 2.75 22.4147 2.75 22.0005C2.75 20.5099 3.03996 19.3048 3.45871 18.2567C8.85291 18.4035 10.9185 21.1276 11.2885 22.2377C11.3906 22.5439 11.6772 22.7505 12 22.7505C12.3228 22.7505 12.6094 22.5439 12.7115 22.2377C13.0815 21.1276 15.1471 18.4035 20.5413 18.2567C20.96 19.3048 21.25 20.5099 21.25 22.0005C21.25 22.4147 21.5858 22.7505 22 22.7505C22.4142 22.7505 22.75 22.4147 22.75 22.0005C22.75 20.1849 22.3695 18.7209 21.8363 17.4623Z" fill="#1C274C"/>
<path opacity="0.5" d="M4.68998 1.7064C4.52745 1.3254 4.08684 1.1483 3.70584 1.31083C3.3249 1.47333 3.14787 1.91405 3.31029 2.29501L3.31103 2.29675L3.31461 2.30524L3.3299 2.34183C3.34358 2.37478 3.36406 2.42459 3.39037 2.48992C3.443 2.6206 3.51891 2.81324 3.61034 3.05716C3.79335 3.54539 4.03777 4.23696 4.28208 5.04686C4.77471 6.67989 5.25012 8.74001 5.25012 10.5721C5.25012 11.1653 5.1377 11.7113 4.9425 12.2507H19.0577C18.8626 11.7113 18.7501 11.1653 18.7501 10.5721C18.7501 8.74001 19.2255 6.67989 19.7182 5.04686C19.9625 4.23696 20.2069 3.54539 20.3899 3.05716C20.4813 2.81324 20.5572 2.6206 20.6099 2.48992C20.6362 2.42459 20.6567 2.37478 20.6703 2.34183L20.6856 2.30524L20.6892 2.29675L20.69 2.29482C20.8525 1.91385 20.6754 1.47333 20.2944 1.31083C19.9134 1.1483 19.4725 1.32602 19.31 1.70702C19.31 1.70702 19.3103 1.7064 20.0001 2.00068L19.31 1.70702L19.3096 1.70807L19.3081 1.71144L19.3031 1.72326L19.285 1.76673C19.2694 1.80436 19.2469 1.85907 19.2185 1.92952C19.1618 2.0704 19.0814 2.27438 18.9853 2.53067C18.7934 3.04285 18.5378 3.76607 18.2821 4.61365C17.8011 6.20807 17.3047 8.29106 17.2543 10.2507H6.74594C6.69559 8.29106 6.19914 6.20807 5.71816 4.61365C5.46248 3.76607 5.2069 3.04285 5.01491 2.53067C4.91884 2.27438 4.83849 2.0704 4.78175 1.92952C4.75338 1.85907 4.73089 1.80436 4.71527 1.76673L4.69711 1.72326L4.69212 1.71144L4.69069 1.70806L4.68998 1.7064Z" fill="#1C274C"/>
</svg>
