<svg width="24" height="24" viewBox="0 0 24 24" fill="none" xmlns="http://www.w3.org/2000/svg">
<path opacity="0.5" d="M2 12.0002C2 7.2862 2 4.92918 3.46447 3.46471C4.92893 2.00024 7.28595 2.00024 12 2.00024C16.714 2.00024 19.0711 2.00024 20.5355 3.46471C22 4.92918 22 7.2862 22 12.0002C22 16.7143 22 19.0713 20.5355 20.5358C19.0711 22.0002 16.714 22.0002 12 22.0002C7.28595 22.0002 4.92893 22.0002 3.46447 20.5358C2 19.0713 2 16.7143 2 12.0002Z" fill="#1C274C"/>
<path d="M9.4809 10.6103C10.8721 10.6103 11.9999 9.48252 11.9999 8.09132C11.9999 9.48252 13.1277 10.6103 14.5189 10.6103C15.9101 10.6103 17.0379 9.48252 17.0379 8.09132C17.0379 7.04025 16.3941 5.85195 15.4794 5.33375C14.9952 5.05945 14.5189 4.61742 14.5189 4.06094V2.01147L9.4809 2.01148V4.06094C9.4809 4.61742 9.00457 5.05945 8.52039 5.33375C7.60566 5.85195 6.96191 7.04025 6.96191 8.09132C6.96191 9.48252 8.0897 10.6103 9.4809 10.6103Z" fill="#1C274C"/>
<path d="M14.557 21.9886L14.557 19.9851C14.557 19.4287 15.0333 18.9866 15.5175 18.7123C16.4322 18.1941 17.076 17.0058 17.076 15.9548C17.076 14.5636 15.9482 13.4358 14.557 13.4358C13.1658 13.4358 12.038 14.5636 12.038 15.9548C12.038 14.5636 10.9102 13.4358 9.51899 13.4358C8.12779 13.4358 7 14.5636 7 15.9548C7 17.0058 7.64375 18.1941 8.55848 18.7123C9.04266 18.9866 9.51899 19.4287 9.51899 19.9851V21.9897L14.557 21.9886Z" fill="#1C274C"/>
</svg>
