<svg width="24" height="24" viewBox="0 0 24 24" fill="none" xmlns="http://www.w3.org/2000/svg">
<path opacity="0.6" fill-rule="evenodd" clip-rule="evenodd" d="M3.46447 20.5361C4.92893 22.0006 7.28595 22.0006 12 22.0006C16.714 22.0006 19.0711 22.0006 20.5355 20.5361C22 19.0717 22 16.7146 22 12.0006C22 11.3323 22 10.7113 21.9958 10.1336C21.9938 9.85461 21.9928 9.71512 21.9394 9.49244C21.8861 9.26976 21.8562 9.20991 21.7964 9.09022C21.7932 9.08383 21.79 9.07747 21.7868 9.07114C21.3793 8.27145 20.7291 7.62128 19.9295 7.21382C19.518 7.00418 19.0103 6.88056 18.2229 6.81623C18.0734 6.80401 17.9161 6.79406 17.75 6.78597L16.25 6.75293V10.8082C16.25 11.3049 16.2497 11.6448 16.2351 11.8982C16.22 12.1606 16.1923 12.2414 16.1854 12.2569C16.0383 12.5882 15.6753 12.7668 15.323 12.6813C15.3066 12.6773 15.2257 12.6499 15.0085 12.5018C14.7989 12.3588 14.5294 12.1516 14.1358 11.8486L14.0688 11.797C13.6986 11.5115 13.4101 11.2891 13.0958 11.1526C12.3968 10.8489 11.6032 10.8489 10.9042 11.1526C10.5899 11.2891 10.3014 11.5115 9.9312 11.797L9.86419 11.8486C9.47062 12.1516 9.20112 12.3588 8.99148 12.5018C8.77428 12.6499 8.69342 12.6773 8.67695 12.6813C8.32471 12.7668 7.96171 12.5882 7.81457 12.2569C7.80769 12.2414 7.78003 12.1607 7.7649 11.8982C7.7503 11.6448 7.75 11.3049 7.75 10.8082V6.75293L6.25 6.78597C6.08387 6.79406 5.92663 6.80401 5.77708 6.81623C4.9897 6.88056 4.48197 7.00418 4.07054 7.21382C3.27085 7.62128 2.62068 8.27145 2.21322 9.07114C2.20999 9.07747 2.20679 9.08383 2.2036 9.09021C2.14382 9.20991 2.11393 9.26976 2.06056 9.49243C2.0072 9.71511 2.00619 9.8546 2.00417 10.1336C2 10.7113 2 11.3323 2 12.0006C2 16.7146 2 19.0717 3.46447 20.5361Z" fill="#1C274C"/>
<path d="M7.75 6.75293V10.8082C7.75 11.3049 7.7503 11.6448 7.7649 11.8982C7.78003 12.1607 7.80769 12.2414 7.81457 12.2569C7.96171 12.5882 8.32471 12.7668 8.67695 12.6813C8.69342 12.6773 8.77428 12.6499 8.99148 12.5018C9.20112 12.3588 9.47062 12.1516 9.86419 11.8486L9.9312 11.797C10.3014 11.5115 10.5899 11.2891 10.9042 11.1526C11.6032 10.8489 12.3968 10.8489 13.0958 11.1526C13.4101 11.2891 13.6986 11.5115 14.0688 11.797L14.1358 11.8486C14.5294 12.1516 14.7989 12.3588 15.0085 12.5018C15.2257 12.6499 15.3066 12.6773 15.323 12.6813C15.6753 12.7668 16.0383 12.5882 16.1854 12.2569C16.1923 12.2414 16.22 12.1606 16.2351 11.8982C16.2497 11.6448 16.25 11.3049 16.25 10.8082V6.75293H7.75Z" fill="#1C274C"/>
<g opacity="0.4">
<path d="M20.5351 3.46495C19.0706 2.00049 16.7136 2.00049 11.9996 2.00049C7.28551 2.00049 4.92849 2.00049 3.46402 3.46495C2.6948 4.23418 2.32962 5.24967 2.15625 6.72363L2.03715 9.60243C2.04355 9.56751 2.05126 9.53123 2.06056 9.49243C2.11393 9.26976 2.14382 9.20991 2.2036 9.09021L2.21322 9.07114C2.62068 8.27145 3.27085 7.62128 4.07054 7.21382C4.48197 7.00418 4.9897 6.88056 5.77708 6.81623C5.92663 6.80401 6.08387 6.79406 6.25 6.78597L7.75 6.75293V10.5005H16.25V6.75293L17.75 6.78597C17.9161 6.79406 18.0734 6.80401 18.2229 6.81623C19.0103 6.88056 19.518 7.00418 19.9295 7.21382C20.7291 7.62128 21.3793 8.27145 21.7868 9.07114L21.7964 9.09022C21.814 9.12552 21.8291 9.15562 21.8429 9.18622V6.72363C21.6695 5.24966 21.3043 4.23418 20.5351 3.46495Z" fill="#1C274C"/>
<path d="M2.00207 10.5005C2.00215 10.4817 2.00224 10.4629 2.00233 10.4442L2 10.5005H2.00207Z" fill="#1C274C"/>
</g>
</svg>
