<svg width="24" height="24" viewBox="0 0 24 24" fill="none" xmlns="http://www.w3.org/2000/svg">
<path opacity="0.5" d="M16.1557 3.3175L18.3344 4.62999L18.617 8.15798C18.6247 8.25421 18.6286 8.30232 18.6315 8.34797C18.737 10.007 18.0957 11.6203 16.8963 12.7131C16.8633 12.7431 16.8279 12.7742 16.7572 12.8364C16.6885 12.897 16.6541 12.9272 16.6208 12.9572C15.4234 14.0357 14.576 15.474 14.1945 17.0756C14.1839 17.1201 14.1735 17.1658 14.1528 17.2571L13.9018 18.3651C13.5684 19.8368 13.4016 20.5726 13.0506 21.036C12.5153 21.7424 11.6734 22.1193 10.8113 22.0383C10.2458 21.9852 9.6161 21.6059 8.35666 20.8472L7.68411 20.442C6.42467 19.6833 5.79495 19.304 5.46815 18.8196C4.96988 18.081 4.86171 17.1319 5.18044 16.295C5.38948 15.7461 5.91688 15.2275 6.97166 14.1904L7.7658 13.4095C7.83127 13.3452 7.86401 13.313 7.89565 13.2811C9.03421 12.1356 9.80432 10.6508 10.1008 9.02954C10.109 8.98449 10.117 8.93828 10.1328 8.84586C10.1491 8.75089 10.1572 8.7034 10.1657 8.65854C10.473 7.02836 11.4914 5.64223 12.9212 4.90805C12.9605 4.88785 13.0024 4.86727 13.0861 4.82613L16.1557 3.3175Z" fill="#1C274C"/>
<path fill-rule="evenodd" clip-rule="evenodd" d="M16.8963 12.7127C17.9626 11.7411 18.5878 10.3582 18.6393 8.89745L17.0427 9.42963C16.1617 9.7233 15.1919 9.55033 14.4667 8.97019C13.6329 8.3031 12.4872 8.18173 11.5321 8.6593L10.0618 9.39445L10.0207 9.41496C9.67894 10.8855 8.94327 12.2267 7.89565 13.2808C7.86401 13.3126 7.83127 13.3448 7.7658 13.4092L6.97166 14.19C5.91688 15.2272 5.38948 15.7457 5.18044 16.2946C4.86171 17.1315 4.96988 18.0806 5.46815 18.8192C5.79495 19.3036 6.42467 19.683 7.68411 20.4417L8.35666 20.8468C9.6161 21.6055 10.2458 21.9848 10.8113 22.0379C11.6734 22.1189 12.5153 21.7421 13.0506 21.0356C13.4016 20.5723 13.5684 19.8364 13.9018 18.3648L14.1528 17.2568C14.1735 17.1654 14.1839 17.1197 14.1945 17.0752C14.576 15.4736 15.4234 14.0354 16.6208 12.9568C16.6541 12.9269 16.6885 12.8966 16.7572 12.8361C16.8279 12.7739 16.8633 12.7428 16.8963 12.7127Z" fill="#1C274C"/>
<path d="M16.1553 3.31727L18.334 4.62976L18.7947 3.79726C18.9274 3.55734 18.9938 3.43737 18.9992 3.31892C19.0039 3.21468 18.9763 3.11152 18.9201 3.02358C18.8563 2.92365 18.7388 2.85291 18.504 2.71141L17.7136 2.23531C17.4626 2.08409 17.3371 2.00848 17.2128 2.00103C17.1036 1.99448 16.9952 2.02351 16.9038 2.08377C16.7999 2.15231 16.7289 2.28052 16.5871 2.53693L16.1553 3.31727Z" fill="#1C274C"/>
</svg>
