<svg width="24" height="24" viewBox="0 0 24 24" fill="none" xmlns="http://www.w3.org/2000/svg">
<path opacity="0.5" fill-rule="evenodd" clip-rule="evenodd" d="M19 11.9379V15.0004C19 18.613 16.2633 21.5864 12.75 21.9607V15.0004C12.75 14.5862 12.4142 14.2504 12 14.2504C11.5858 14.2504 11.25 14.5862 11.25 15.0004V21.9607C7.73668 21.5864 5 18.613 5 15.0004V11.9379C5 10.2705 6.03633 8.84525 7.5 8.27101C7.94533 8.0963 8.43021 8.00037 8.9375 8.00037H15.0625C15.5698 8.00037 16.0547 8.0963 16.5 8.27101C17.9637 8.84525 19 10.2705 19 11.9379Z" fill="#1C274C"/>
<path d="M19 14.7504V13.2504H22C22.4142 13.2504 22.75 13.5861 22.75 14.0004C22.75 14.4146 22.4142 14.7504 22 14.7504H19Z" fill="#1C274C"/>
<path d="M17.4955 19.3367C17.8063 18.9433 18.0758 18.5157 18.2974 18.0606L20.8354 19.3298C21.2059 19.515 21.3561 19.9655 21.1708 20.336C20.9855 20.7065 20.535 20.8566 20.1646 20.6714L17.4955 19.3367Z" fill="#1C274C"/>
<path d="M5.70259 18.0606C5.92418 18.5157 6.19367 18.9433 6.50449 19.3367L3.83545 20.6714C3.46497 20.8566 3.01446 20.7065 2.8292 20.336C2.64394 19.9655 2.79408 19.515 3.16455 19.3298L5.70259 18.0606Z" fill="#1C274C"/>
<path d="M5 13.2504H2C1.58579 13.2504 1.25 13.5861 1.25 14.0004C1.25 14.4146 1.58579 14.7504 2 14.7504H5V13.2504Z" fill="#1C274C"/>
<path d="M17.3535 8.73509L20.1646 7.32936C20.535 7.1441 20.9855 7.29424 21.1708 7.66472C21.3561 8.03519 21.2059 8.48571 20.8354 8.67097L18.4195 9.87908C18.1437 9.43031 17.7805 9.04106 17.3535 8.73509Z" fill="#1C274C"/>
<path d="M6.64654 8.73509C6.21954 9.04106 5.85627 9.43031 5.58046 9.87908L3.16455 8.67097C2.79408 8.48571 2.64394 8.03519 2.8292 7.66472C3.01446 7.29424 3.46497 7.1441 3.83545 7.32936L6.64654 8.73509Z" fill="#1C274C"/>
<path d="M16.5 8.27101V7.50037C16.5 5.01508 14.4853 3.00037 12 3.00037C9.51472 3.00037 7.5 5.01508 7.5 7.50037V8.27101C7.94533 8.0963 8.43021 8.00037 8.9375 8.00037H15.0625C15.5698 8.00037 16.0547 8.0963 16.5 8.27101Z" fill="#1C274C"/>
<g opacity="0.5">
<path d="M6.37604 1.5843C6.14628 1.92895 6.23941 2.3946 6.58405 2.62436L8.94366 4.19743C9.34521 3.82567 9.81469 3.52623 10.3314 3.31981L7.4161 1.37629C7.07146 1.14652 6.60581 1.23965 6.37604 1.5843Z" fill="#1C274C"/>
<path d="M15.0564 4.19749C14.6549 3.82573 14.1854 3.52628 13.6687 3.31985L16.5841 1.37629C16.9287 1.14652 17.3944 1.23965 17.6241 1.5843C17.8539 1.92895 17.7608 2.3946 17.4161 2.62436L15.0564 4.19749Z" fill="#1C274C"/>
</g>
<path fill-rule="evenodd" clip-rule="evenodd" d="M12 14.2504C12.4142 14.2504 12.75 14.5862 12.75 15.0004V22.0004H11.25V15.0004C11.25 14.5862 11.5858 14.2504 12 14.2504Z" fill="#1C274C"/>
</svg>
