<svg width="24" height="24" viewBox="0 0 24 24" fill="none" xmlns="http://www.w3.org/2000/svg">
<path opacity="0.5" d="M10 20.0005H14C17.7712 20.0005 19.6569 20.0005 20.8284 18.8289C22 17.6573 22 15.7717 22 12.0005C22 11.5586 21.9984 10.3925 21.9965 10.0005H2.00024C1.99836 10.3925 2 11.5586 2 12.0005C2 15.7717 2 17.6573 3.17158 18.8289C4.34315 20.0005 6.22877 20.0005 10 20.0005Z" fill="#1C274C"/>
<path d="M5.25 13.5005C5.25 13.0863 5.58579 12.7505 6 12.7505H8C8.41421 12.7505 8.75 13.0863 8.75 13.5005C8.75 13.9147 8.41421 14.2505 8 14.2505H6C5.58579 14.2505 5.25 13.9147 5.25 13.5005Z" fill="#1C274C"/>
<path d="M5.25 16.5005C5.25 16.0863 5.58579 15.7505 6 15.7505H10C10.4142 15.7505 10.75 16.0863 10.75 16.5005C10.75 16.9147 10.4142 17.2505 10 17.2505H6C5.58579 17.2505 5.25 16.9147 5.25 16.5005Z" fill="#1C274C"/>
<path fill-rule="evenodd" clip-rule="evenodd" d="M17.1972 12.2938C16.8744 12.2504 16.4776 12.2504 16.0447 12.2505H15.9553C15.5224 12.2504 15.1256 12.2504 14.8028 12.2938C14.4473 12.3416 14.0716 12.454 13.7626 12.7631C13.4535 13.0721 13.3411 13.4478 13.2933 13.8033C13.2499 14.1261 13.2499 14.5229 13.25 14.9558L13.25 15.0005L13.25 15.0452C13.2499 15.4781 13.2499 15.8749 13.2933 16.1977C13.3411 16.5532 13.4535 16.9289 13.7626 17.2379C14.0716 17.547 14.4473 17.6594 14.8028 17.7072C15.1256 17.7506 15.5224 17.7505 15.9553 17.7505L16 17.7505L16.0447 17.7505C16.4776 17.7505 16.8744 17.7506 17.1972 17.7072C17.5527 17.6594 17.9284 17.547 18.2374 17.2379C18.5465 16.9289 18.6589 16.5532 18.7067 16.1977C18.7501 15.8749 18.7501 15.4781 18.75 15.0452V14.9558C18.7501 14.5229 18.7501 14.1261 18.7067 13.8033C18.6589 13.4478 18.5465 13.0721 18.2374 12.7631C17.9284 12.454 17.5527 12.3416 17.1972 12.2938ZM14.8257 13.8224L14.8233 13.8237L14.8219 13.8262C14.8209 13.8281 14.8192 13.8314 14.8172 13.8365C14.8082 13.8582 14.7929 13.9066 14.7799 14.0032C14.7516 14.2139 14.75 14.5079 14.75 15.0005C14.75 15.4931 14.7516 15.7871 14.7799 15.9978C14.7929 16.0944 14.8082 16.1428 14.8172 16.1645C14.8184 16.1676 14.8195 16.17 14.8204 16.1719C14.821 16.1731 14.8215 16.1741 14.8219 16.1748L14.8232 16.1773L14.8257 16.1786C14.8276 16.1796 14.8309 16.1813 14.836 16.1833C14.8577 16.1923 14.9061 16.2076 15.0027 16.2206C15.2134 16.2489 15.5074 16.2505 16 16.2505C16.4926 16.2505 16.7866 16.2489 16.9973 16.2206C17.0939 16.2076 17.1423 16.1923 17.164 16.1833C17.1691 16.1813 17.1724 16.1796 17.1743 16.1786L17.1768 16.1773L17.1781 16.1748C17.1791 16.1729 17.1808 16.1696 17.1828 16.1645C17.1918 16.1428 17.2071 16.0944 17.2201 15.9978C17.2484 15.7871 17.25 15.4931 17.25 15.0005C17.25 14.5079 17.2484 14.2139 17.2201 14.0032C17.2071 13.9066 17.1918 13.8582 17.1828 13.8365C17.1808 13.8314 17.1791 13.8281 17.1781 13.8262L17.1768 13.8237L17.1743 13.8224C17.1724 13.8213 17.1691 13.8197 17.164 13.8177C17.1423 13.8087 17.0939 13.7934 16.9973 13.7804C16.7866 13.7521 16.4926 13.7505 16 13.7505C15.5074 13.7505 15.2134 13.7521 15.0027 13.7804C14.9061 13.7934 14.8577 13.8087 14.836 13.8177C14.8309 13.8197 14.8276 13.8213 14.8257 13.8224Z" fill="#1C274C"/>
<path d="M9.99484 4.00049H14.0052C17.7861 4.00049 19.6766 4.00049 20.8512 5.11627C21.6969 5.91964 21.9337 7.07556 22 9.00049V10.0005H2V9.00049C2.0663 7.07556 2.3031 5.91964 3.14881 5.11627C4.3234 4.00049 6.21388 4.00049 9.99484 4.00049Z" fill="#1C274C"/>
</svg>
