<svg width="24" height="24" viewBox="0 0 24 24" fill="none" xmlns="http://www.w3.org/2000/svg">
<path d="M7.5 18.0005C8.32843 18.0005 9 18.6721 9 19.5005C9 20.3289 8.32843 21.0005 7.5 21.0005C6.67157 21.0005 6 20.3289 6 19.5005C6 18.6721 6.67157 18.0005 7.5 18.0005Z" fill="#1C274C"/>
<path d="M16.5 18.0006C17.3284 18.0006 18 18.6721 18 19.5006C18 20.329 17.3284 21.0006 16.5 21.0006C15.6716 21.0006 15 20.329 15 19.5006C15 18.6721 15.6716 18.0006 16.5 18.0006Z" fill="#1C274C"/>
<path opacity="0.6" d="M3.04047 2.2929C2.6497 2.15552 2.22155 2.36092 2.08416 2.75169C1.94678 3.14246 2.15218 3.57061 2.54295 3.70799L2.80416 3.79983C3.47177 4.03455 3.91052 4.1901 4.23336 4.3485C4.53659 4.49729 4.67026 4.61772 4.75832 4.74658C4.84858 4.87867 4.91828 5.06009 4.95761 5.42344C4.99877 5.80364 4.99979 6.29886 4.99979 7.03881L4.99979 9.64049C4.99979 12.5821 5.06302 13.5528 5.92943 14.4667C6.6646 15.2421 7.77998 15.3595 9.80491 15.3773L11.3286 15.3805H14.1714H15.6945H16.2821C17.8431 15.3805 18.6236 15.3805 19.1753 14.9309C19.727 14.4813 19.8846 13.7168 20.1997 12.188L20.6995 9.76324C21.0466 8.02418 21.2202 7.15465 20.7762 6.57757C20.3516 6.02564 18.9457 6.00158 17.3498 6.00054L15.8266 6.00049H9.67335H8.15018H6.49233C6.48564 5.73016 6.47295 5.48422 6.4489 5.26202C6.39517 4.76564 6.27875 4.31292 5.99677 3.90028C5.71259 3.48442 5.33474 3.21808 4.89411 3.00188C4.48203 2.79968 3.95839 2.6156 3.34187 2.39887L3.04047 2.2929Z" fill="#1C274C"/>
<path d="M8.14941 6.00049L9.80442 15.3773L11.3282 15.3805L9.67286 6.00049H8.14941Z" fill="#1C274C"/>
<path d="M15.8259 6.00049L14.1706 15.3805H15.6945L17.3498 6.00054L15.8259 6.00049Z" fill="#1C274C"/>
</svg>
