<svg width="24" height="24" viewBox="0 0 24 24" fill="none" xmlns="http://www.w3.org/2000/svg">
<path opacity="0.5" d="M10 2.00049C9.0335 2.00049 8.25 2.78399 8.25 3.75049C8.25 4.71699 9.0335 5.50049 10 5.50049H14C14.9665 5.50049 15.75 4.71699 15.75 3.75049C15.75 2.78399 14.9665 2.00049 14 2.00049H10Z" fill="#1C274C"/>
<path opacity="0.5" d="M3.86327 16.2057C3.00532 12.7739 2.57635 11.058 3.47718 9.90425C4.37801 8.75049 6.14672 8.75049 9.68413 8.75049H14.3148C17.8522 8.75049 19.6209 8.75049 20.5218 9.90425C21.4226 11.058 20.9936 12.7739 20.1357 16.2057C19.59 18.3884 19.3172 19.4797 18.5034 20.1151C17.6896 20.7505 16.5647 20.7505 14.3148 20.7505H9.68413C7.43427 20.7505 6.30935 20.7505 5.49556 20.1151C4.68178 19.4797 4.40894 18.3884 3.86327 16.2057Z" fill="#1C274C"/>
<path d="M15.5805 4.50276C15.6892 4.27486 15.75 4.01976 15.75 3.75046C15.75 3.48241 15.6897 3.22843 15.582 3.00134C16.2655 3.00631 16.7983 3.03769 17.2738 3.22355C17.842 3.44562 18.3362 3.82312 18.6999 4.31288C19.0669 4.80696 19.2391 5.44025 19.4762 6.3119L19.5226 6.48226L20.0353 9.44525C19.6266 9.16332 19.0996 8.99579 18.418 8.89624L18.0567 6.80822C17.7729 5.76851 17.6699 5.44178 17.4957 5.2072C17.2999 4.94348 17.0337 4.74021 16.7278 4.62064C16.508 4.53473 16.2424 4.50945 15.5805 4.50276Z" fill="#1C274C"/>
<path d="M8.41799 3.00134C8.31027 3.22843 8.25 3.48241 8.25 3.75046C8.25 4.01976 8.31083 4.27486 8.41951 4.50276C7.75766 4.50945 7.49208 4.53473 7.27227 4.62064C6.96633 4.74021 6.70021 4.94348 6.50436 5.2072C6.33015 5.44178 6.22715 5.76851 5.94337 6.80822L5.58207 8.89615C4.90053 8.99564 4.37353 9.16305 3.96484 9.44479L4.47748 6.48226L4.52387 6.31191C4.76095 5.44025 4.9332 4.80696 5.30013 4.31288C5.66384 3.82312 6.15806 3.44562 6.72624 3.22355C7.20177 3.0377 7.73449 3.00631 8.41799 3.00134Z" fill="#1C274C"/>
<path d="M8.75 12.7505C8.75 12.3363 8.41421 12.0005 8 12.0005C7.58579 12.0005 7.25 12.3363 7.25 12.7505V16.7505C7.25 17.1647 7.58579 17.5005 8 17.5005C8.41421 17.5005 8.75 17.1647 8.75 16.7505V12.7505Z" fill="#1C274C"/>
<path d="M16 12.0005C16.4142 12.0005 16.75 12.3363 16.75 12.7505V16.7505C16.75 17.1647 16.4142 17.5005 16 17.5005C15.5858 17.5005 15.25 17.1647 15.25 16.7505V12.7505C15.25 12.3363 15.5858 12.0005 16 12.0005Z" fill="#1C274C"/>
<path d="M12.75 12.7505C12.75 12.3363 12.4142 12.0005 12 12.0005C11.5858 12.0005 11.25 12.3363 11.25 12.7505V16.7505C11.25 17.1647 11.5858 17.5005 12 17.5005C12.4142 17.5005 12.75 17.1647 12.75 16.7505V12.7505Z" fill="#1C274C"/>
</svg>
