<svg width="24" height="24" viewBox="0 0 24 24" fill="none" xmlns="http://www.w3.org/2000/svg">
<path fill-rule="evenodd" clip-rule="evenodd" d="M9.87763 4.25042C10.1869 3.37552 11.0213 2.75049 11.9998 2.75049C12.9783 2.75049 13.8127 3.37552 14.122 4.25042C14.26 4.64096 14.6885 4.84565 15.079 4.70762C15.4696 4.56958 15.6742 4.14109 15.5362 3.75055C15.0218 2.29507 13.6337 1.25049 11.9998 1.25049C10.3658 1.25049 8.9778 2.29507 8.46337 3.75055C8.32533 4.14109 8.53002 4.56958 8.92056 4.70762C9.3111 4.84565 9.73959 4.64096 9.87763 4.25042ZM2.74709 8.09147C2.69375 8.0568 2.63765 8.02978 2.58008 8.01014C2.73322 7.69252 2.92679 7.41672 3.17145 7.17206C4.34303 6.00049 6.22864 6.00049 9.99988 6.00049H13.9999C17.7711 6.00049 19.6567 6.00049 20.8283 7.17206C21.073 7.41675 21.2666 7.69258 21.4197 8.01024C21.3623 8.02987 21.3063 8.05686 21.253 8.09147C19.1526 9.45675 17.833 10.3107 16.7364 10.8585C16.6701 10.5122 16.3655 10.2505 15.9999 10.2505C15.5857 10.2505 15.2499 10.5863 15.2499 11.0005V11.4586C13.1304 12.0981 10.8693 12.098 8.74988 11.4585V11.0005C8.74988 10.5863 8.41409 10.2505 7.99988 10.2505C7.63428 10.2505 7.32978 10.5121 7.26334 10.8583C6.1669 10.3105 4.84732 9.45662 2.74709 8.09147Z" fill="#1C274C"/>
<path opacity="0.5" d="M2 14.0003C2 12.0499 2 10.6038 2.16208 9.5C4.43876 10.9799 5.89798 11.9236 7.25 12.5049V13.0003C7.25 13.4145 7.58579 13.7503 8 13.7503C8.40872 13.7503 8.74109 13.4234 8.74982 13.0167C10.8801 13.5784 13.1199 13.5784 15.2502 13.0168C15.259 13.4234 15.5913 13.7503 16 13.7503C16.4142 13.7503 16.75 13.4145 16.75 13.0003V12.505C18.1021 11.9238 19.5613 10.9801 21.8379 9.5002C22 10.6039 22 12.05 22 14.0003C22 17.7716 22 19.6572 20.8284 20.8287C19.6569 22.0003 17.7712 22.0003 14 22.0003H10C6.22876 22.0003 4.34315 22.0003 3.17157 20.8287C2 19.6572 2 17.7716 2 14.0003Z" fill="#1C274C"/>
</svg>
