<svg width="24" height="24" viewBox="0 0 24 24" fill="none" xmlns="http://www.w3.org/2000/svg">
<path opacity="0.5" d="M10.5608 2.25049C10.4473 2.25047 10.359 2.25046 10.2754 2.25552C9.21496 2.31974 8.28637 2.98904 7.89011 3.97474C7.85817 4.05418 7.82978 4.13912 7.79183 4.25299C7.70848 4.47733 7.51722 4.73247 7.24937 4.93634C7.21955 4.95904 7.18962 4.98048 7.15967 5.00066L9.10166 5.00049C9.13053 4.94093 9.15714 4.88036 9.18129 4.81891L9.18284 4.81541L9.18701 4.80551L9.19188 4.79338L9.19646 4.78142L9.2001 4.77147L9.20188 4.76646L9.20612 4.75422L9.20995 4.74292L9.21204 4.73666L9.21477 4.72832L9.21701 4.72128L9.2188 4.71551C9.25763 4.59921 9.27031 4.56295 9.28185 4.53424C9.46197 4.08619 9.88406 3.78197 10.3661 3.75278C10.3983 3.75082 10.4379 3.75049 10.5813 3.75049H13.419C13.5624 3.75049 13.6019 3.75082 13.6342 3.75278C14.1162 3.78197 14.5383 4.08619 14.7184 4.53424C14.7298 4.56253 14.7418 4.59746 14.7812 4.71547L14.783 4.7212L14.7852 4.72827L14.788 4.73662L14.7901 4.74288L14.7939 4.75415L14.7981 4.76637L14.7999 4.77138L14.8035 4.7813L14.8081 4.7932L14.8129 4.8052L14.817 4.81498L14.8186 4.8186C14.8428 4.88016 14.8694 4.94083 14.8984 5.00049L16.8402 5.00066C16.8103 4.98049 16.7804 4.95906 16.7506 4.93638C16.4828 4.73254 16.2916 4.47741 16.2082 4.25303L16.2052 4.24396C16.1693 4.13629 16.1414 4.05243 16.1101 3.97474C15.7139 2.98904 14.7853 2.31974 13.7248 2.25552C13.6413 2.25046 13.5529 2.25047 13.4394 2.25049H10.5608Z" fill="#1C274C"/>
<path fill-rule="evenodd" clip-rule="evenodd" d="M17.1923 5.00049H6.80765C5.12027 5.00049 4.27658 5.00049 3.63268 5.3302C3.07242 5.61708 2.61659 6.07291 2.32971 6.63316C2 7.27707 2 8.12076 2 9.80814C2 10.2371 2 10.4516 2.07336 10.6324C2.13743 10.7903 2.24079 10.9292 2.37363 11.036C2.52574 11.1582 2.73118 11.2198 3.14206 11.3431L8.5 12.9505V14.1632C8.5 14.9288 8.95939 15.6346 9.68682 15.9301L10.2469 16.1577C11.3719 16.6148 12.6281 16.6148 13.7531 16.1577L14.3132 15.9301C15.0406 15.6346 15.5 14.9288 15.5 14.1632V12.9505L20.8579 11.3431C21.2688 11.2198 21.4743 11.1582 21.6264 11.036C21.7592 10.9292 21.8626 10.7903 21.9266 10.6324C22 10.4516 22 10.2371 22 9.80814C22 8.12076 22 7.27707 21.6703 6.63316C21.3834 6.07291 20.9276 5.61708 20.3673 5.3302C19.7234 5.00049 18.8797 5.00049 17.1923 5.00049ZM13.6 12.0005H10.4C10.1791 12.0005 10 12.1824 10 12.4068V14.1632C10 14.3293 10.0996 14.4787 10.2514 14.5404L10.8116 14.768C11.5745 15.078 12.4255 15.078 13.1885 14.768L13.7486 14.5404C13.9004 14.4787 14 14.3293 14 14.1632V12.4068C14 12.1824 13.8209 12.0005 13.6 12.0005Z" fill="#1C274C"/>
<path opacity="0.5" d="M3 11.3003C3.04446 11.3138 3.09172 11.3279 3.14206 11.3431L8.5 12.9504V14.1631C8.5 14.9287 8.95939 15.6345 9.68682 15.9301L10.2469 16.1576C11.3719 16.6147 12.6281 16.6147 13.7531 16.1576L14.3132 15.9301C15.0406 15.6345 15.5 14.9287 15.5 14.1631V12.9504L20.8579 11.3431C20.9083 11.328 20.9555 11.3138 21 11.3003V12.3004C20.9991 15.9757 20.9651 19.6884 19.682 20.8289C18.3639 22.0005 16.2426 22.0005 12 22.0005C7.75733 22.0005 5.63601 22.0005 4.318 20.8289C3.03489 19.6884 3.0009 15.9757 3 12.3004V11.3003Z" fill="#1C274C"/>
</svg>
