<svg width="24" height="24" viewBox="0 0 24 24" fill="none" xmlns="http://www.w3.org/2000/svg">
<path opacity="0.5" d="M12 22.0002C17.5228 22.0002 22 17.5231 22 12.0002C22 6.4774 17.5228 2.00024 12 2.00024C6.47715 2.00024 2 6.4774 2 12.0002C2 13.5999 2.37562 15.1119 3.04346 16.4527C3.22094 16.809 3.28001 17.2163 3.17712 17.6009L2.58151 19.8269C2.32295 20.7932 3.20701 21.6773 4.17335 21.4187L6.39939 20.8231C6.78393 20.7202 7.19121 20.7793 7.54753 20.9568C8.88836 21.6246 10.4003 22.0002 12 22.0002Z" fill="#1C274C"/>
<path d="M7.825 12.8502C7.36937 12.8502 7 13.2196 7 13.6752C7 14.1309 7.36937 14.5002 7.825 14.5002H13.875C14.3306 14.5002 14.7 14.1309 14.7 13.6752C14.7 13.2196 14.3306 12.8502 13.875 12.8502H7.825Z" fill="#1C274C"/>
<path d="M7.825 9.00024C7.36937 9.00024 7 9.36961 7 9.82524C7 10.2809 7.36937 10.6502 7.825 10.6502H16.625C17.0806 10.6502 17.45 10.2809 17.45 9.82524C17.45 9.36961 17.0806 9.00024 16.625 9.00024H7.825Z" fill="#1C274C"/>
</svg>
