<svg width="24" height="24" viewBox="0 0 24 24" fill="none" xmlns="http://www.w3.org/2000/svg">
<path opacity="0.5" d="M13.6288 20.4721L13.0867 21.3879C12.6035 22.2042 11.3965 22.2042 10.9133 21.3879L10.3712 20.4721C9.95073 19.7617 9.74049 19.4065 9.40279 19.2101C9.06509 19.0137 8.63992 19.0063 7.78958 18.9917C6.53422 18.9701 5.74689 18.8931 5.08658 18.6196C3.86144 18.1122 2.88807 17.1388 2.3806 15.9137C2 14.9948 2 13.83 2 11.5002V10.5002C2 7.22681 2 5.5901 2.7368 4.38775C3.14908 3.71497 3.71473 3.14932 4.38751 2.73704C5.58985 2.00024 7.22657 2.00024 10.5 2.00024H13.5C16.7734 2.00024 18.4101 2.00024 19.6125 2.73704C20.2853 3.14932 20.8509 3.71497 21.2632 4.38775C22 5.5901 22 7.22681 22 10.5002V11.5002C22 13.83 22 14.9948 21.6194 15.9137C21.1119 17.1388 20.1386 18.1122 18.9134 18.6196C18.2531 18.8932 17.4658 18.9701 16.2104 18.9917C15.36 19.0063 14.9349 19.0137 14.5972 19.2101C14.2595 19.4065 14.0492 19.7617 13.6288 20.4721Z" fill="#1C274C"/>
<path d="M17 11.0002C17 11.5525 16.5523 12.0002 16 12.0002C15.4477 12.0002 15 11.5525 15 11.0002C15 10.448 15.4477 10.0002 16 10.0002C16.5523 10.0002 17 10.448 17 11.0002Z" fill="#1C274C"/>
<path d="M13 11.0002C13 11.5525 12.5523 12.0002 12 12.0002C11.4477 12.0002 11 11.5525 11 11.0002C11 10.448 11.4477 10.0002 12 10.0002C12.5523 10.0002 13 10.448 13 11.0002Z" fill="#1C274C"/>
<path d="M9 11.0002C9 11.5525 8.55228 12.0002 8 12.0002C7.44772 12.0002 7 11.5525 7 11.0002C7 10.448 7.44772 10.0002 8 10.0002C8.55228 10.0002 9 10.448 9 11.0002Z" fill="#1C274C"/>
</svg>
