<svg width="24" height="24" viewBox="0 0 24 24" fill="none" xmlns="http://www.w3.org/2000/svg">
<path opacity="0.5" d="M12 22.0002C17.5228 22.0002 22 17.5231 22 12.0002C22 6.4774 17.5228 2.00024 12 2.00024C6.47715 2.00024 2 6.4774 2 12.0002C2 13.5999 2.37562 15.1119 3.04346 16.4527C3.22094 16.809 3.28001 17.2163 3.17712 17.6009L2.58151 19.8269C2.32295 20.7932 3.20701 21.6773 4.17335 21.4187L6.39938 20.8231C6.78393 20.7202 7.19121 20.7793 7.54753 20.9568C8.88837 21.6246 10.4003 22.0002 12 22.0002Z" fill="#1C274C"/>
<path fill-rule="evenodd" clip-rule="evenodd" d="M11.9999 6.77563C11.5443 6.77563 11.1749 7.145 11.1749 7.60063V16.4006C11.1749 16.8563 11.5443 17.2256 11.9999 17.2256C12.4555 17.2256 12.8249 16.8563 12.8249 16.4006V7.60063C12.8249 7.145 12.4555 6.77563 11.9999 6.77563Z" fill="#1C274C"/>
<path fill-rule="evenodd" clip-rule="evenodd" d="M7.5999 8.97563C7.14427 8.97563 6.7749 9.345 6.7749 9.80063V14.2006C6.7749 14.6563 7.14427 15.0256 7.5999 15.0256C8.05554 15.0256 8.4249 14.6563 8.4249 14.2006V9.80063C8.4249 9.345 8.05554 8.97563 7.5999 8.97563Z" fill="#1C274C"/>
<path d="M15.5749 9.80063C15.5749 9.345 15.9443 8.97563 16.3999 8.97563C16.8555 8.97563 17.2249 9.345 17.2249 9.80063V14.2006C17.2249 14.6563 16.8555 15.0256 16.3999 15.0256C15.9443 15.0256 15.5749 14.6563 15.5749 14.2006V9.80063Z" fill="#1C274C"/>
</svg>
