<svg width="24" height="24" viewBox="0 0 24 24" fill="none" xmlns="http://www.w3.org/2000/svg">
<path opacity="0.5" d="M13.7916 21.3193L13.1953 22.3267C12.6638 23.2246 11.3361 23.2246 10.8046 22.3267L10.2083 21.3193C9.7458 20.5378 9.51454 20.1471 9.14307 19.9311C8.7716 19.715 8.30391 19.707 7.36854 19.6908C5.98764 19.667 5.12158 19.5824 4.39524 19.2816C3.04759 18.7234 1.97688 17.6527 1.41866 16.305C1 15.2943 1 14.0129 1 11.4502V10.3502C1 6.74947 1 4.94908 1.81048 3.6265C2.26399 2.88645 2.8862 2.26423 3.62626 1.81072C4.94884 1.00024 6.74923 1.00024 10.35 1.00024H13.65C17.2508 1.00024 19.0512 1.00024 20.3737 1.81072C21.1138 2.26423 21.736 2.88645 22.1895 3.6265C23 4.94908 23 6.74947 23 10.3502V11.4502C23 14.0129 23 15.2943 22.5813 16.305C22.0231 17.6527 20.9524 18.7234 19.6048 19.2816C18.8784 19.5824 18.0123 19.667 16.6314 19.6908C15.696 19.707 15.2284 19.715 14.8569 19.9311C14.4854 20.1471 14.2542 20.5378 13.7916 21.3193Z" fill="#1C274C"/>
<path fill-rule="evenodd" clip-rule="evenodd" d="M15.2665 6.82977C15.5887 6.50759 16.1111 6.50759 16.4333 6.82977L16.622 7.0185C16.6355 7.03203 16.649 7.04551 16.6624 7.05894C17.3613 7.75778 17.9441 8.34051 18.3445 8.86534C18.7672 9.4193 19.0636 10.0046 19.0636 10.7131C19.0636 11.4217 18.7672 12.007 18.3445 12.5609C17.9441 13.0858 17.3613 13.6685 16.6624 14.3673L16.4333 14.5965C16.1111 14.9187 15.5887 14.9187 15.2665 14.5965C14.9444 14.2743 14.9444 13.752 15.2665 13.4298L15.4553 13.241C16.2051 12.4912 16.7075 11.9863 17.0327 11.5601C17.3434 11.1529 17.4136 10.9159 17.4136 10.7131C17.4136 10.5104 17.3434 10.2734 17.0327 9.8662C16.7075 9.43997 16.2051 8.93505 15.4553 8.18523L15.2665 7.9965C14.9444 7.67432 14.9444 7.15195 15.2665 6.82977Z" fill="#1C274C"/>
<path fill-rule="evenodd" clip-rule="evenodd" d="M13.637 4.60342C14.0771 4.72135 14.3383 5.17372 14.2203 5.61383L11.3733 16.239C11.2554 16.6791 10.803 16.9403 10.3629 16.8224C9.92281 16.7045 9.66163 16.2521 9.77955 15.812L12.6266 5.18678C12.7445 4.74667 13.1969 4.48549 13.637 4.60342Z" fill="#1C274C"/>
<path fill-rule="evenodd" clip-rule="evenodd" d="M8.73346 6.82977C8.41128 6.50759 7.88892 6.50759 7.56673 6.82977L7.37801 7.0185C7.36448 7.03203 7.351 7.04551 7.33756 7.05894C6.63868 7.75778 6.05591 8.34051 5.65547 8.86534C5.23282 9.4193 4.93637 10.0046 4.93637 10.7131C4.93637 11.4217 5.23282 12.007 5.65547 12.5609C6.05591 13.0858 6.63869 13.6685 7.33757 14.3673L7.56673 14.5965C7.88892 14.9187 8.41128 14.9187 8.73346 14.5965C9.05564 14.2743 9.05564 13.752 8.73346 13.4298L8.54473 13.241C7.79491 12.4912 7.29246 11.9863 6.96726 11.5601C6.65658 11.1529 6.58637 10.9159 6.58637 10.7131C6.58637 10.5104 6.65658 10.2734 6.96726 9.8662C7.29246 9.43997 7.79491 8.93505 8.54473 8.18523L8.73346 7.9965C9.05564 7.67432 9.05564 7.15195 8.73346 6.82977Z" fill="#1C274C"/>
</svg>
