<svg width="24" height="24" viewBox="0 0 24 24" fill="none" xmlns="http://www.w3.org/2000/svg">
<path opacity="0.5" d="M2 10.0001C2 7.2387 4.23858 5.00012 7 5.00012C7.25052 5.00012 7.49673 5.01855 7.73736 5.05411C8.33961 3.27818 10.0206 2.00012 12 2.00012C13.9794 2.00012 15.6604 3.27818 16.2626 5.05411C16.5033 5.01855 16.7495 5.00012 17 5.00012C19.7614 5.00012 22 7.2387 22 10.0001C22 12.0504 20.7659 13.8125 19 14.5841L19 18.0001C19 19.8857 19 20.8285 18.4142 21.4143C17.8284 22.0001 16.8856 22.0001 15 22.0001H9C7.11438 22.0001 6.17157 22.0001 5.58579 21.4143C5 20.8285 5 19.8857 5 18.0001V14.5841C3.2341 13.8125 2 12.0504 2 10.0001Z" fill="#1C274C"/>
<path d="M9 17.2501C8.58579 17.2501 8.25 17.5859 8.25 18.0001C8.25 18.4143 8.58579 18.7501 9 18.7501H15C15.4142 18.7501 15.75 18.4143 15.75 18.0001C15.75 17.5859 15.4142 17.2501 15 17.2501H9Z" fill="#1C274C"/>
</svg>
