<svg width="24" height="24" viewBox="0 0 24 24" fill="none" xmlns="http://www.w3.org/2000/svg">
<path fill-rule="evenodd" clip-rule="evenodd" d="M2.87868 5.8788C2 6.75748 2 8.17169 2 11.0001C2 14.7714 2 16.657 3.17157 17.8286C3.69042 18.3474 4.34931 18.6365 5.25001 18.7975C5.25022 17.9656 5.25446 17.2669 5.32991 16.7056C5.41432 16.0779 5.59999 15.5111 6.05546 15.0556C6.51093 14.6001 7.07773 14.4144 7.70552 14.33C8.3003 14.2501 9.04952 14.2501 9.948 14.2501H14.052C14.9505 14.2501 15.6997 14.2501 16.2945 14.33C16.9223 14.4144 17.4891 14.6001 17.9445 15.0556C18.4 15.5111 18.5857 16.0779 18.6701 16.7056C18.7455 17.2669 18.7498 17.9656 18.75 18.7975C19.6507 18.6365 20.3096 18.3474 20.8284 17.8286C22 16.657 22 14.7714 22 11.0001C22 8.17169 22 6.75748 21.1213 5.8788C20.2426 5.00012 18.8284 5.00012 16 5.00012H8C5.17157 5.00012 3.75736 5.00012 2.87868 5.8788ZM5.25 11.5001C5.25 11.0859 5.58579 10.7501 6 10.7501H18C18.4142 10.7501 18.75 11.0859 18.75 11.5001C18.75 11.9143 18.4142 12.2501 18 12.2501H6C5.58579 12.2501 5.25 11.9143 5.25 11.5001ZM6 8.25012C5.58579 8.25012 5.25 8.58591 5.25 9.00012C5.25 9.41434 5.58579 9.75012 6 9.75012H18C18.4142 9.75012 18.75 9.41434 18.75 9.00012C18.75 8.58591 18.4142 8.25012 18 8.25012H6Z" fill="#1C274C"/>
<path opacity="0.5" d="M5.25 18.7975C5.25021 17.9656 5.25445 17.2669 5.3299 16.7056C5.41431 16.0779 5.59998 15.5111 6.05545 15.0556C6.51092 14.6001 7.07772 14.4144 7.70551 14.33C8.30029 14.2501 9.04949 14.2501 9.94796 14.2501H14.052C14.9505 14.2501 15.6997 14.2501 16.2945 14.33C16.9223 14.4144 17.4891 14.6001 17.9445 15.0556C18.4 15.5111 18.5857 16.0779 18.6701 16.7056C18.7455 17.2669 18.7498 17.9656 18.75 18.7975H5.25Z" fill="#1C274C"/>
</svg>
