<svg width="24" height="24" viewBox="0 0 24 24" fill="none" xmlns="http://www.w3.org/2000/svg">
<path opacity="0.5" d="M2 8.00049V12.0005C2 14.8289 2 16.2431 2.87868 17.1218C3.35503 17.5982 3.98877 17.8163 4.9199 17.9161C4.9939 17.8162 5.06395 17.7375 5.11392 17.6826C5.23008 17.5548 5.37739 17.4096 5.5202 17.2688L7.01311 15.7967L7.56446 15.2381C7.9268 13.1156 9.77461 11.5005 12.0001 11.5005C14.2255 11.5005 16.0733 13.1156 16.4357 15.2381L16.987 15.7967L18.48 17.2689C18.6228 17.4097 18.7701 17.5549 18.8862 17.6826C18.9362 17.7375 19.0062 17.8162 19.0802 17.9161C20.0113 17.8163 20.645 17.5981 21.1213 17.1218C22 16.2431 22 14.8289 22 12.0005V8.00049C22 5.17206 22 3.75785 21.1213 2.87917C20.2426 2.00049 18.8284 2.00049 16 2.00049H8C5.17157 2.00049 3.75736 2.00049 2.87868 2.87917C2 3.75785 2 5.17206 2 8.00049Z" fill="#1C274C"/>
<path d="M7 8.75049C6.58579 8.75049 6.25 9.08627 6.25 9.50049C6.25 9.9147 6.58579 10.2505 7 10.2505H17C17.4142 10.2505 17.75 9.9147 17.75 9.50049C17.75 9.08627 17.4142 8.75049 17 8.75049H7Z" fill="#1C274C"/>
<path d="M8.25 6.00049C8.25 5.58627 8.58579 5.25049 9 5.25049H15C15.4142 5.25049 15.75 5.58627 15.75 6.00049C15.75 6.4147 15.4142 6.75049 15 6.75049H9C8.58579 6.75049 8.25 6.4147 8.25 6.00049Z" fill="#1C274C"/>
<path d="M9.00111 15.9179C9.00037 15.9453 9 15.9729 9 16.0005C9 17.6573 10.3431 19.0005 12 19.0005C13.6569 19.0005 15 17.6573 15 16.0005C15 15.9729 14.9996 15.9453 14.9989 15.9179C14.9551 14.2992 13.6292 13.0005 12 13.0005C10.4467 13.0005 9.16912 14.181 9.01549 15.6938C9.00798 15.7677 9.00315 15.8425 9.00111 15.9179Z" fill="#1C274C"/>
<path d="M7.6757 17.2498L6.59523 18.3153C6.27116 18.6349 6.10913 18.7946 6.05306 18.93C5.92529 19.2383 6.03463 19.5803 6.31283 19.7425C6.43491 19.8137 6.65512 19.8359 7.09553 19.8803C7.3442 19.9053 7.46853 19.9178 7.57266 19.9559C7.80579 20.041 7.98715 20.2198 8.07345 20.4497C8.112 20.5524 8.1247 20.675 8.1501 20.9202C8.19509 21.3545 8.21758 21.5716 8.28977 21.692C8.45425 21.9663 8.80111 22.0742 9.1138 21.9482C9.25102 21.8929 9.41306 21.7331 9.73713 21.4135L10.8175 20.3435C9.30505 19.9327 8.10917 18.7529 7.6757 17.2498Z" fill="#1C274C"/>
<path d="M13.1825 20.3435L14.2629 21.4135C14.5869 21.7331 14.749 21.8929 14.8862 21.9482C15.1989 22.0742 15.5457 21.9663 15.7102 21.692C15.7824 21.5716 15.8049 21.3545 15.8499 20.9202C15.8753 20.675 15.888 20.5524 15.9265 20.4497C16.0129 20.2198 16.1942 20.041 16.4273 19.9559C16.5315 19.9178 16.6558 19.9053 16.9045 19.8803C17.3449 19.8359 17.5651 19.8137 17.6872 19.7425C17.9654 19.5803 18.0747 19.2383 17.9469 18.93C17.8909 18.7946 17.7288 18.6349 17.4048 18.3153L16.3243 17.2498C15.8908 18.7529 14.6949 19.9327 13.1825 20.3435Z" fill="#1C274C"/>
</svg>
