<svg width="24" height="24" viewBox="0 0 24 24" fill="none" xmlns="http://www.w3.org/2000/svg">
<path fill-rule="evenodd" clip-rule="evenodd" d="M5.87868 2.87917C5 3.75785 5 5.17206 5 8.00049V16.0005C5 18.8289 5 20.2431 5.87868 21.1218C6.75736 22.0005 8.17157 22.0005 11 22.0005H13C15.8284 22.0005 17.2426 22.0005 18.1213 21.1218C19 20.2431 19 18.8289 19 16.0005V8.00049C19 5.17206 19 3.75785 18.1213 2.87917C17.2426 2.00049 15.8284 2.00049 13 2.00049H11C8.17157 2.00049 6.75736 2.00049 5.87868 2.87917ZM8.25 17.0005C8.25 16.5863 8.58579 16.2505 9 16.2505H12C12.4142 16.2505 12.75 16.5863 12.75 17.0005C12.75 17.4147 12.4142 17.7505 12 17.7505H9C8.58579 17.7505 8.25 17.4147 8.25 17.0005ZM9 12.2505C8.58579 12.2505 8.25 12.5863 8.25 13.0005C8.25 13.4147 8.58579 13.7505 9 13.7505H15C15.4142 13.7505 15.75 13.4147 15.75 13.0005C15.75 12.5863 15.4142 12.2505 15 12.2505H9ZM8.25 9.00049C8.25 8.58627 8.58579 8.25049 9 8.25049H15C15.4142 8.25049 15.75 8.58627 15.75 9.00049C15.75 9.4147 15.4142 9.75049 15 9.75049H9C8.58579 9.75049 8.25 9.4147 8.25 9.00049Z" fill="#1C274C"/>
<path opacity="0.5" d="M5.23525 4.05884C5 4.94212 5 6.17762 5 8.00059V16.0006C5 17.8236 5 19.0591 5.23527 19.9424L5 19.9245C4.02491 19.8286 3.36857 19.6118 2.87868 19.122C2 18.2433 2 16.8291 2 14.0006V10.0006C2 7.17221 2 5.758 2.87868 4.87932C3.36857 4.38943 4.02491 4.17267 5 4.07676L5.23525 4.05884Z" fill="#1C274C"/>
<path opacity="0.5" d="M18.7648 19.9424C19 19.0591 19 17.8236 19 16.0006V8.00059C19 6.17762 19 4.94212 18.7648 4.05884L19 4.07676C19.9751 4.17267 20.6315 4.38943 21.1214 4.87932C22 5.758 22 7.17221 22 10.0006V14.0006C22 16.8291 22 18.2433 21.1214 19.122C20.6315 19.6118 19.9751 19.8286 19 19.9245L18.7648 19.9424Z" fill="#1C274C"/>
</svg>
