<svg width="24" height="24" viewBox="0 0 24 24" fill="none" xmlns="http://www.w3.org/2000/svg">
<path opacity="0.5" d="M19 15.8833V8.00024C19 6.11463 19 5.17182 18.4142 4.58603C17.8284 4.00024 16.8856 4.00024 15 4.00024H9C7.11438 4.00024 6.17157 4.00024 5.58579 4.58603C5 5.17182 5 6.11462 5 8.00024V15.8833C5 16.6441 5.31911 17.37 5.87966 17.8843C9.3416 21.0609 14.6584 21.0609 18.1203 17.8843C18.6809 17.37 19 16.6441 19 15.8833Z" fill="#1C274C"/>
<path d="M14 11.917C14 13.0676 13.1046 14.0003 12 14.0003C10.8954 14.0003 10 13.0676 10 11.917C10 11.1971 10.783 10.2362 11.3691 9.61773C11.7161 9.25161 12.2839 9.25161 12.6309 9.61773C13.217 10.2362 14 11.1971 14 11.917Z" fill="#1C274C"/>
<path d="M18.9983 7.25024H17C16.5858 7.25024 16.25 7.58603 16.25 8.00024C16.25 8.41446 16.5858 8.75024 17 8.75024H19V8.00024C19 7.73168 19 7.48225 18.9983 7.25024Z" fill="#1C274C"/>
<path d="M19 10.2502H17C16.5858 10.2502 16.25 10.586 16.25 11.0002C16.25 11.4145 16.5858 11.7502 17 11.7502H19V10.2502Z" fill="#1C274C"/>
<path d="M19 13.2502H17C16.5858 13.2502 16.25 13.586 16.25 14.0002C16.25 14.4145 16.5858 14.7502 17 14.7502H19V13.2502Z" fill="#1C274C"/>
<path d="M14 4.00024C14 2.89567 13.1046 2.00024 12 2.00024C10.8954 2.00024 10 2.89567 10 4.00024H14Z" fill="#1C274C"/>
<path d="M11.25 20.2358C11.7491 20.2771 12.2509 20.2771 12.75 20.2358V21.2503C12.75 21.6645 12.4142 22.0003 12 22.0003C11.5858 22.0003 11.25 21.6645 11.25 21.2503V20.2358Z" fill="#1C274C"/>
</svg>
