<svg width="24" height="24" viewBox="0 0 24 24" fill="none" xmlns="http://www.w3.org/2000/svg">
<path opacity="0.5" d="M8.98501 7.44326L6.04444 7.08946C5.35938 7.00703 5.01683 6.96582 4.7321 7.03696C4.35245 7.13182 4.02904 7.36247 3.83301 7.67818C3.68599 7.91496 3.64149 8.2322 3.55249 8.86668C3.46349 9.50116 3.41899 9.8184 3.49581 10.0821C3.59824 10.4337 3.84728 10.7333 4.18815 10.9148C4.44381 11.051 5.15392 11.1364 5.83899 11.2188L4.95558 17.5168C4.27051 17.4344 3.5604 17.3489 3.27567 17.4201C2.89602 17.5149 2.57261 17.7456 2.37658 18.0613C2.22956 18.2981 2.18506 18.6153 2.09606 19.2498C2.00706 19.8843 1.96256 20.2015 2.03938 20.4652C2.1418 20.8168 2.39085 21.1164 2.73172 21.2979C2.98738 21.4341 3.32992 21.4753 4.01498 21.5577L6.95556 21.9115C7.64063 21.9939 7.98317 22.0352 8.2679 21.964C8.64755 21.8692 8.97096 21.6385 9.16699 21.3228C9.31401 21.086 9.35851 20.7688 9.44751 20.1343C9.53651 19.4998 9.58101 19.1826 9.50419 18.9189C9.40176 18.5673 9.15272 18.2677 8.81185 18.0862C8.55619 17.95 7.84608 17.8646 7.16101 17.7821L8.04442 11.4842C8.72949 11.5666 9.4396 11.6521 9.72433 11.5809C10.104 11.4861 10.4274 11.2554 10.6234 10.9397C10.7704 10.7029 10.8149 10.3857 10.9039 9.75119C10.9929 9.11672 11.0374 8.79947 10.9606 8.53576C10.8582 8.18415 10.6092 7.88462 10.2683 7.70306C10.0126 7.5669 9.67007 7.52569 8.98501 7.44326Z" fill="#1C274C"/>
<path d="M20.2855 16.0838L17.5741 16.7831C16.9424 16.9461 16.6266 17.0275 16.3498 16.9924C15.9807 16.9457 15.6461 16.7597 15.4195 16.4754C15.2496 16.2622 15.1649 15.9582 14.9957 15.3501C14.8264 14.742 14.7418 14.438 14.7782 14.1716C14.8268 13.8163 15.02 13.4942 15.3153 13.276C15.5368 13.1124 16.1916 12.9436 16.8233 12.7806L15.1432 6.74487C14.5115 6.9078 13.8567 7.07669 13.5799 7.04161C13.2109 6.99484 12.8762 6.80886 12.6496 6.52458C12.4797 6.31137 12.3951 6.00734 12.2258 5.39927C12.0565 4.79121 11.9719 4.48717 12.0084 4.22073C12.0569 3.86547 12.2501 3.54334 12.5455 3.32521C12.767 3.16161 13.0828 3.08014 13.7145 2.91721L16.4259 2.21785C17.0576 2.05492 17.3734 1.97345 17.6502 2.00853C18.0193 2.0553 18.3539 2.24128 18.5805 2.52556C18.7504 2.73877 18.8351 3.04281 19.0043 3.65087C19.1736 4.25893 19.2582 4.56297 19.2218 4.82941C19.1732 5.18467 18.98 5.5068 18.6847 5.72493C18.4632 5.88853 17.8084 6.05742 17.1767 6.22035L18.8568 12.2561C19.4885 12.0932 20.1433 11.9243 20.4201 11.9594C20.7891 12.0061 21.1238 12.1921 21.3504 12.4764C21.5203 12.6896 21.6049 12.9936 21.7742 13.6017C21.9435 14.2098 22.0281 14.5138 21.9916 14.7802C21.9431 15.1355 21.7499 15.4576 21.4545 15.6758C21.233 15.8394 20.9172 15.9208 20.2855 16.0838Z" fill="#1C274C"/>
</svg>
