<svg width="24" height="24" viewBox="0 0 24 24" fill="none" xmlns="http://www.w3.org/2000/svg">
<path fill-rule="evenodd" clip-rule="evenodd" d="M8.25 22.0001C8.25 21.5859 8.58579 21.2501 9 21.2501H15C15.4142 21.2501 15.75 21.5859 15.75 22.0001C15.75 22.4143 15.4142 22.7501 15 22.7501H9C8.58579 22.7501 8.25 22.4143 8.25 22.0001Z" fill="#1C274C"/>
<path d="M12.0001 8.00012C14.3369 8.00012 16.2992 6.7177 16.8475 4.98461C17.0141 4.45805 16.5524 4.00012 16.0001 4.00012H8.00009C7.4478 4.00012 6.98608 4.45805 7.15266 4.98461C7.70094 6.7177 9.66331 8.00012 12.0001 8.00012Z" fill="#1C274C"/>
<path opacity="0.5" d="M12 2.00012C13.6569 2.00012 15 2.89555 15 4.00012H9C9 2.89555 10.3431 2.00012 12 2.00012Z" fill="#1C274C"/>
<path d="M6.45475 11.98C6.4777 11.9506 6.50003 11.9209 6.52175 11.891C7.28695 10.8366 7.29596 9.44309 6.62892 8.39309C6.32414 7.91334 5.66094 7.99556 5.31133 8.44312L2.77924 11.6846C2.42963 12.1321 2.50535 12.802 3.03889 12.9889C4.23974 13.4096 5.62361 13.0439 6.45475 11.98Z" fill="#1C274C"/>
<path opacity="0.5" d="M12.0001 8.00017C12.2549 8.00017 12.5053 7.98491 12.7499 7.95549V17.8967L12.7501 17.937V19.0002L12.7499 19.016V21.2502H11.2499V17.9034C11.2398 16.8695 10.7617 15.8985 9.95481 15.2668L6.05469 12.4036C6.19843 12.2777 6.33256 12.1364 6.45475 11.98C6.47769 11.9506 6.50002 11.9209 6.52174 11.891C6.68607 11.6646 6.81552 11.4225 6.9109 11.1715L10.8517 14.0641L10.8634 14.0732C10.9987 14.1782 11.1277 14.2897 11.2499 14.4071V7.95544C11.4946 7.9849 11.7451 8.00017 12.0001 8.00017Z" fill="#1C274C"/>
<path opacity="0.5" d="M2.43904 8.78642C3.13826 7.89132 4.42425 7.73761 5.31139 8.4431L2.7793 11.6846C1.89216 10.9791 1.73982 9.68152 2.43904 8.78642Z" fill="#1C274C"/>
</svg>
