<svg width="24" height="24" viewBox="0 0 24 24" fill="none" xmlns="http://www.w3.org/2000/svg">
<path fill-rule="evenodd" clip-rule="evenodd" d="M4 11.5001V13.0001C4 16.7714 4 18.657 5.17157 19.8285C5.47599 20.133 5.82861 20.3583 6.25 20.5251V22.0001C6.25 22.4143 6.58579 22.7501 7 22.7501H8C8.41421 22.7501 8.75 22.4143 8.75 22.0001V20.9535C9.64461 21.0001 10.7124 21.0001 12 21.0001C13.2876 21.0001 14.3554 21.0001 15.25 20.9535V22.0001C15.25 22.4143 15.5858 22.7501 16 22.7501H17C17.4142 22.7501 17.75 22.4143 17.75 22.0001V20.5251C18.1714 20.3583 18.524 20.133 18.8284 19.8285C20 18.657 20 16.7714 20 13.0001V11.5001H4ZM17 13.2501C17.4142 13.2501 17.75 13.5859 17.75 14.0001V16.0001C17.75 16.4143 17.4142 16.7501 17 16.7501C16.5858 16.7501 16.25 16.4143 16.25 16.0001V14.0001C16.25 13.5859 16.5858 13.2501 17 13.2501Z" fill="#1C274C"/>
<path opacity="0.5" d="M4 10.0001C4 6.22889 4 4.34327 5.17157 3.17169C6.34315 2.00012 8.22876 2.00012 12 2.00012C15.7712 2.00012 17.6569 2.00012 18.8284 3.17169C20 4.34327 20 6.22889 20 10.0001V11.5001H4V10.0001Z" fill="#1C274C"/>
<path d="M17.75 7.00012C17.75 6.58591 17.4142 6.25012 17 6.25012C16.5858 6.25012 16.25 6.58591 16.25 7.00012V9.00012C16.25 9.41434 16.5858 9.75012 17 9.75012C17.4142 9.75012 17.75 9.41434 17.75 9.00012V7.00012Z" fill="#1C274C"/>
</svg>
