<svg width="24" height="24" viewBox="0 0 24 24" fill="none" xmlns="http://www.w3.org/2000/svg">
<path opacity="0.5" fill-rule="evenodd" clip-rule="evenodd" d="M9.75 2.00049H8.75C5.92157 2.00049 4.50736 2.00049 3.62868 2.87917C2.75 3.75785 2.75 5.17206 2.75 8.00049V21.2505H15.75V17.7505V16.2505V8.00049C15.75 5.17206 15.75 3.75785 14.8713 2.87917C13.9926 2.00049 12.5784 2.00049 9.75 2.00049Z" fill="#1C274C"/>
<path d="M2.75 21.2505H1.75C1.33579 21.2505 1 21.5863 1 22.0005C1 22.4147 1.33579 22.7505 1.75 22.7505H16.8734C17.2876 22.7505 17.6234 22.4147 17.6234 22.0005C17.6234 21.5863 17.2876 21.2505 16.8734 21.2505H15.75H2.75Z" fill="#1C274C"/>
<path d="M8 6.00049H11C11.9428 6.00049 12.4142 6.00049 12.7071 6.29338C13 6.58627 13 7.05768 13 8.00049C13 8.9433 13 9.4147 12.7071 9.70759C12.4142 10.0005 11.9428 10.0005 11 10.0005H8C7.05719 10.0005 6.58579 10.0005 6.29289 9.70759C6 9.4147 6 8.9433 6 8.00049C6 7.05768 6 6.58627 6.29289 6.29338C6.58579 6.00049 7.05719 6.00049 8 6.00049Z" fill="#1C274C"/>
<path d="M7 16.2505C6.58579 16.2505 6.25 16.5863 6.25 17.0005C6.25 17.4147 6.58579 17.7505 7 17.7505H12C12.4142 17.7505 12.75 17.4147 12.75 17.0005C12.75 16.5863 12.4142 16.2505 12 16.2505H7Z" fill="#1C274C"/>
<path d="M15.75 17.7505H17.3214C17.6962 17.7505 18 18.0543 18 18.4291V18.5005C18 19.7432 19.0074 20.7505 20.25 20.7505C21.4926 20.7505 22.5 19.7432 22.5 18.5005V7.60226C22.5 7.4456 22.5 7.33751 22.4941 7.2321C22.4384 6.24112 21.9922 5.31263 21.2531 4.65011C21.1745 4.57964 21.0901 4.51212 20.9678 4.41427L19.7185 3.41486C19.3951 3.15611 18.9231 3.20855 18.6643 3.53199C18.4056 3.85544 18.458 4.32741 18.7815 4.58617L20.0146 5.57263C20.1591 5.68823 20.2085 5.72817 20.2519 5.76702C20.6953 6.16453 20.9631 6.72163 20.9965 7.31622C20.9997 7.37432 21 7.43792 21 7.62296V8.00049H20.25C19.4216 8.00049 18.75 8.67206 18.75 9.50049V11.9193C18.75 12.565 19.1631 13.1382 19.7757 13.3424L21 13.7505V18.5005C21 18.9147 20.6642 19.2505 20.25 19.2505C19.8358 19.2505 19.5 18.9147 19.5 18.5005V18.4291C19.5 17.2259 18.5246 16.2505 17.3214 16.2505H15.75V17.7505Z" fill="#1C274C"/>
</svg>
