<svg width="24" height="24" viewBox="0 0 24 24" fill="none" xmlns="http://www.w3.org/2000/svg">
<path opacity="0.5" d="M20 12.0002C20 16.4185 16.4183 20.0002 12 20.0002C7.58172 20.0002 4 16.4185 4 12.0002C4 7.58197 7.58172 4.00024 12 4.00024C16.4183 4.00024 20 7.58197 20 12.0002Z" fill="#1C274C"/>
<path d="M12.0001 8.51196C10.0735 8.51196 8.51172 10.0738 8.51172 12.0003C8.51172 13.9269 10.0735 15.4887 12.0001 15.4887C13.9267 15.4887 15.4885 13.9269 15.4885 12.0003C15.4885 10.0738 13.9267 8.51196 12.0001 8.51196Z" fill="#1C274C"/>
<path d="M12.75 2.00024C12.75 1.58603 12.4142 1.25024 12 1.25024C11.5858 1.25024 11.25 1.58603 11.25 2.00024V4.03494C11.4969 4.01198 11.7471 4.00024 12 4.00024C12.2529 4.00024 12.5031 4.01198 12.75 4.03494V2.00024Z" fill="#1C274C"/>
<path d="M19.9653 12.7502C19.9883 12.5033 20 12.2532 20 12.0002C20 11.7473 19.9883 11.4972 19.9653 11.2502H22C22.4142 11.2502 22.75 11.586 22.75 12.0002C22.75 12.4145 22.4142 12.7502 22 12.7502H19.9653Z" fill="#1C274C"/>
<path d="M11.25 19.9656C11.4969 19.9885 11.7471 20.0002 12 20.0002C12.2529 20.0002 12.5031 19.9885 12.75 19.9656V22.0002C12.75 22.4145 12.4142 22.7502 12 22.7502C11.5858 22.7502 11.25 22.4145 11.25 22.0002V19.9656Z" fill="#1C274C"/>
<path d="M4.03469 11.2502C4.01174 11.4972 4 11.7473 4 12.0002C4 12.2532 4.01174 12.5033 4.03469 12.7502H2C1.58579 12.7502 1.25 12.4145 1.25 12.0002C1.25 11.586 1.58579 11.2502 2 11.2502H4.03469Z" fill="#1C274C"/>
</svg>
