<svg width="24" height="24" viewBox="0 0 24 24" fill="none" xmlns="http://www.w3.org/2000/svg">
<path fill-rule="evenodd" clip-rule="evenodd" d="M10.2007 2.27767C10.5998 2.38854 10.8335 2.80194 10.7226 3.20105L5.72264 21.201C5.61178 21.6001 5.19837 21.8338 4.79927 21.723C4.40016 21.6121 4.1665 21.1987 4.27736 20.7996L9.27736 2.79958C9.38822 2.40048 9.80163 2.16681 10.2007 2.27767Z" fill="#1C274C"/>
<path fill-rule="evenodd" clip-rule="evenodd" d="M19.2007 2.27767C19.5998 2.38854 19.8335 2.80194 19.7226 3.20105L14.7226 21.201C14.6118 21.6001 14.1984 21.8338 13.7993 21.723C13.4002 21.6121 13.1665 21.1987 13.2774 20.7996L18.2774 2.79958C18.3882 2.40048 18.8016 2.16681 19.2007 2.27767Z" fill="#1C274C"/>
<path opacity="0.5" fill-rule="evenodd" clip-rule="evenodd" d="M3.25 9.00037C3.25 8.58615 3.58579 8.25037 4 8.25037H22C22.4142 8.25037 22.75 8.58615 22.75 9.00037C22.75 9.41458 22.4142 9.75037 22 9.75037H4C3.58579 9.75037 3.25 9.41458 3.25 9.00037Z" fill="#1C274C"/>
<path opacity="0.5" fill-rule="evenodd" clip-rule="evenodd" d="M1.25 16.0004C1.25 15.5862 1.58579 15.2504 2 15.2504H20C20.4142 15.2504 20.75 15.5862 20.75 16.0004C20.75 16.4146 20.4142 16.7504 20 16.7504H2C1.58579 16.7504 1.25 16.4146 1.25 16.0004Z" fill="#1C274C"/>
</svg>
