<svg width="24" height="24" viewBox="0 0 24 24" fill="none" xmlns="http://www.w3.org/2000/svg">
<path opacity="0.5" d="M2 9.31775C2 13.047 6.01943 16.9912 8.96173 19.3789C10.2937 20.4598 10.9597 21.0002 12 21.0002C13.0403 21.0002 13.7063 20.4598 15.0383 19.3789C17.9806 16.9913 22 13.0471 22 9.31771C22 3.08773 16.4998 0.761742 12 5.57437C7.50016 0.761742 2 3.08773 2 9.31775Z" fill="#1C274C"/>
<path fill-rule="evenodd" clip-rule="evenodd" d="M16.5 6.25024C16.9142 6.25024 17.25 6.58603 17.25 7.00024L17.25 8.25026H18.5C18.9142 8.25026 19.25 8.58605 19.25 9.00026C19.25 9.41447 18.9142 9.75026 18.5 9.75026H17.25V11.0002C17.25 11.4145 16.9142 11.7502 16.5 11.7502C16.0858 11.7502 15.75 11.4145 15.75 11.0002L15.75 9.75026L14.5 9.75026C14.0858 9.75026 13.75 9.41447 13.75 9.00026C13.75 8.58605 14.0858 8.25026 14.5 8.25026H15.75L15.75 7.00024C15.75 6.58603 16.0858 6.25024 16.5 6.25024Z" fill="#1C274C"/>
</svg>
