<svg width="24" height="24" viewBox="0 0 24 24" fill="none" xmlns="http://www.w3.org/2000/svg">
<path opacity="0.5" d="M2.34594 11.2503C2.12458 10.5869 2 9.92044 2 9.26068C2 3.34974 7.50016 0.662881 12 5.49901C16.4998 0.662881 22 3.34956 22 9.26064C22 9.92042 21.8754 10.5869 21.6541 11.2503H18.6361L18.5241 11.2502C17.9784 11.2493 17.4937 11.2485 17.0527 11.445C16.6116 11.6414 16.2879 12.0023 15.9233 12.4087L15.8485 12.492L14.8192 13.6356C14.7164 13.7499 14.5379 13.7465 14.4401 13.628L10.8889 9.32343C10.7493 9.15416 10.6 8.97306 10.454 8.83865C10.2839 8.68212 10.0325 8.50606 9.68096 8.48494C9.32945 8.46383 9.05875 8.60854 8.87115 8.74358C8.71006 8.85954 8.54016 9.02147 8.38136 9.17282L6.85172 10.6296C6.37995 11.0789 6.28151 11.1555 6.17854 11.1967C6.07557 11.2379 5.9515 11.2503 5.3 11.2503H2.34594Z" fill="#1C274C"/>
<path d="M21.6541 11.2504H18.6361L18.5241 11.2502C17.9784 11.2493 17.4937 11.2485 17.0527 11.445C16.6116 11.6414 16.2879 12.0023 15.9233 12.4087L15.8485 12.492L14.8192 13.6356C14.7164 13.7499 14.5379 13.7466 14.4401 13.628L10.8889 9.32346C10.7493 9.15419 10.6 8.97309 10.454 8.83868C10.2839 8.68215 10.0325 8.50609 9.68097 8.48497C9.32946 8.46386 9.05876 8.60857 8.87117 8.74361C8.71007 8.85957 8.54017 9.0215 8.38138 9.17285L6.85173 10.6297C6.37996 11.079 6.28152 11.1555 6.17855 11.1967C6.07558 11.2379 5.95151 11.2504 5.30001 11.2504H2.34595C3.3819 14.3553 6.53744 17.3941 8.96174 19.371C10.2937 20.4572 10.9597 21.0003 12 21.0003C13.0403 21.0003 13.7063 20.4572 15.0383 19.371C17.4626 17.3941 20.6181 14.3553 21.6541 11.2504Z" fill="#1C274C"/>
</svg>
