<svg width="24" height="24" viewBox="0 0 24 24" fill="none" xmlns="http://www.w3.org/2000/svg">
<path d="M14 4.50049C14 5.8812 12.8807 7.00049 11.5 7.00049C10.1193 7.00049 9 5.8812 9 4.50049C9 3.11978 10.1193 2.00049 11.5 2.00049C12.8807 2.00049 14 3.11978 14 4.50049Z" fill="#1C274C"/>
<path fill-rule="evenodd" clip-rule="evenodd" d="M19 7.25049C19.4142 7.25049 19.75 7.58627 19.75 8.00049V10.4948C19.75 10.4983 19.75 10.5019 19.75 10.5054V22.0005C19.75 22.4147 19.4142 22.7505 19 22.7505C18.5858 22.7505 18.25 22.4147 18.25 22.0005V11.9946C16.5564 12.9804 14.456 13.067 12.6646 12.1713C12.6474 12.1627 12.6306 12.1535 12.6141 12.1436C11.9234 11.7292 11.0363 12.1746 10.9562 12.9761L10.8876 13.6622C10.8294 14.2435 11.1062 14.8074 11.6016 15.1171L11.9349 15.3254C13.6852 16.4193 14.8215 18.2706 15.0044 20.3266L15.1474 21.934C15.1842 22.3466 14.8794 22.7108 14.4669 22.7475C14.0543 22.7842 13.6901 22.4795 13.6533 22.067L13.5103 20.4596C13.3691 18.8718 12.4916 17.4422 11.1399 16.5974L10.8066 16.3891C9.82726 15.777 9.2801 14.6621 9.39501 13.513L9.46362 12.8269C9.65217 10.9414 11.7282 9.88884 13.3582 10.8409C14.9095 11.6055 16.7667 11.3853 18.0966 10.2771L18.25 10.1492V8.00049C18.25 7.58627 18.5858 7.25049 19 7.25049Z" fill="#1C274C"/>
<g opacity="0.5">
<path d="M9.74866 9.95546C9.77355 10.3689 9.45854 10.7243 9.04507 10.7492L6.65647 10.8929C6.24345 10.9177 5.89088 11.205 5.78305 11.6085C5.68811 11.9637 5.80172 12.3417 6.07521 12.5848L8.162 14.44C8.47157 14.7152 8.49942 15.1893 8.22421 15.4988C7.949 15.8084 7.47494 15.8362 7.16538 15.561L5.07859 13.7058C4.38057 13.0853 4.09278 12.1234 4.33391 11.2212C4.60798 10.1957 5.50649 9.45938 6.56637 9.3956L8.95497 9.25187C9.36843 9.22699 9.72378 9.542 9.74866 9.95546Z" fill="#1C274C"/>
<path d="M9.19067 16.7751C9.59128 16.8804 9.83068 17.2906 9.72538 17.6912L9.72477 17.6935L9.72354 17.6981L9.71921 17.7143L9.70332 17.7723C9.68957 17.8218 9.66957 17.8925 9.64386 17.9796C9.59254 18.1535 9.51789 18.3947 9.42418 18.6655C9.24254 19.1903 8.96838 19.8886 8.62823 20.4102C8.27084 20.9582 7.70977 21.5118 7.27708 21.9035C7.05383 22.1056 6.8509 22.2769 6.70353 22.3978C6.62969 22.4584 6.56941 22.5067 6.52702 22.5403L6.47728 22.5795L6.46342 22.5903L6.45817 22.5943C6.12991 22.8469 5.65827 22.7862 5.40565 22.4579C5.15308 22.1297 5.21432 21.659 5.5424 21.4063L5.54467 21.4045L5.55442 21.397L5.5954 21.3647C5.63174 21.3359 5.68528 21.293 5.7518 21.2384C5.88516 21.1289 6.06908 20.9737 6.27041 20.7914C6.68688 20.4144 7.1258 19.968 7.37181 19.5908C7.60607 19.2316 7.8319 18.6799 8.00667 18.1749C8.09116 17.9308 8.15881 17.7122 8.20523 17.5549C8.22839 17.4765 8.24613 17.4138 8.2579 17.3713L8.27098 17.3236L8.27402 17.3122L8.27464 17.3099C8.38003 16.9094 8.79014 16.6699 9.19067 16.7751Z" fill="#1C274C"/>
</g>
</svg>
