<svg width="24" height="24" viewBox="0 0 24 24" fill="none" xmlns="http://www.w3.org/2000/svg">
<path fill-rule="evenodd" clip-rule="evenodd" d="M12 2.00049C7.86697 2.00049 5.80046 2.00049 5.19825 3.29967C5.14649 3.41134 5.10282 3.52734 5.06765 3.64658C4.65857 5.03378 6.11981 6.6416 9.0423 9.85723L11 12.0005H13L14.9577 9.85723C17.8802 6.6416 19.3414 5.03378 18.9323 3.64658C18.8972 3.52734 18.8535 3.41134 18.8017 3.29967C18.1995 2.00049 16.133 2.00049 12 2.00049Z" fill="#1C274C"/>
<path opacity="0.5" d="M5.19825 20.7013C5.80046 22.0005 7.86697 22.0005 12 22.0005C16.133 22.0005 18.1995 22.0005 18.8017 20.7013C18.8535 20.5896 18.8972 20.4736 18.9323 20.3544C19.3414 18.9672 17.8802 17.3594 14.9577 14.1437L13 12.0005H11L9.0423 14.1437C6.11981 17.3594 4.65857 18.9672 5.06765 20.3544C5.10282 20.4736 5.14649 20.5896 5.19825 20.7013Z" fill="#1C274C"/>
</svg>
