<svg width="24" height="24" viewBox="0 0 24 24" fill="none" xmlns="http://www.w3.org/2000/svg">
<path opacity="0.5" d="M2 12.0002C2 7.2862 2 4.92918 3.46447 3.46471C4.92893 2.00024 7.28595 2.00024 12 2.00024C16.714 2.00024 19.0711 2.00024 20.5355 3.46471C22 4.92918 22 7.2862 22 12.0002C22 16.7143 22 19.0713 20.5355 20.5358C19.0711 22.0002 16.714 22.0002 12 22.0002C7.28595 22.0002 4.92893 22.0002 3.46447 20.5358C2 19.0713 2 16.7143 2 12.0002Z" fill="#1C274C"/>
<path d="M3.46451 20.5358C4.92902 22.0002 7.28611 22.0002 12.0003 22.0002C16.7145 22.0002 19.0716 22.0002 20.5361 20.5358C21.8931 19.1787 21.9927 17.0553 22 13.0002H18.8402C17.935 13.0002 17.4824 13.0002 17.0846 13.1832C16.6868 13.3662 16.3922 13.7098 15.8031 14.3971L15.1977 15.1034C14.6086 15.7907 14.314 16.1343 13.9162 16.3173C13.5183 16.5002 13.0658 16.5002 12.1606 16.5002H11.84C10.9348 16.5002 10.4822 16.5002 10.0844 16.3173C9.68655 16.1343 9.392 15.7907 8.80291 15.1034L8.19747 14.3971C7.60837 13.7098 7.31382 13.3662 6.91599 13.1832C6.51815 13.0002 6.06555 13.0002 5.16035 13.0002H2C2.0073 17.0553 2.10744 19.1787 3.46451 20.5358Z" fill="#1C274C"/>
<path d="M12.5305 5.96991C12.3899 5.82926 12.1991 5.75024 12.0002 5.75024C11.8013 5.75024 11.6105 5.82926 11.4699 5.96991L8.16987 9.26991C7.87697 9.56281 7.87697 10.0377 8.16987 10.3306C8.46276 10.6235 8.93763 10.6235 9.23053 10.3306L11.2502 8.3109L11.2502 16.4976C10.7163 16.4893 10.3847 16.4554 10.0844 16.3173C9.68655 16.1343 9.392 15.7907 8.80291 15.1034L8.19747 14.3971C7.60837 13.7098 7.31382 13.3662 6.91599 13.1832C6.51815 13.0002 6.06555 13.0002 5.16035 13.0002H2C2.0073 17.0553 2.10744 19.1787 3.46451 20.5358C4.92902 22.0002 7.28611 22.0002 12.0003 22.0002C16.7145 22.0002 19.0716 22.0002 20.5361 20.5358C21.8931 19.1787 21.9927 17.0553 22 13.0002H18.8402C17.935 13.0002 17.4824 13.0002 17.0846 13.1832C16.6868 13.3662 16.3922 13.7098 15.8031 14.3971L15.1977 15.1034C14.6086 15.7907 14.314 16.1343 13.9162 16.3173C13.6158 16.4554 13.2842 16.4893 12.7502 16.4976V8.3109L14.7699 10.3306C15.0628 10.6235 15.5376 10.6235 15.8305 10.3306C16.1234 10.0377 16.1234 9.56281 15.8305 9.26991L12.5305 5.96991Z" fill="#1C274C"/>
</svg>
