<svg width="24" height="24" viewBox="0 0 24 24" fill="none" xmlns="http://www.w3.org/2000/svg">
<path opacity="0.5" d="M3.46447 3.46495C2 4.92942 2 7.28644 2 12.0005C2 16.7145 2 19.0716 3.46447 20.536C4.92893 22.0005 7.28595 22.0005 12 22.0005C16.714 22.0005 19.0711 22.0005 20.5355 20.536C22 19.0716 22 16.7145 22 12.0005C22 7.28644 22 4.92942 20.5355 3.46495C19.0711 2.00049 16.714 2.00049 12 2.00049C7.28595 2.00049 4.92893 2.00049 3.46447 3.46495Z" fill="#1C274C"/>
<path fill-rule="evenodd" clip-rule="evenodd" d="M16.6514 13.8608C18.4495 12.0626 18.4495 9.14724 16.6514 7.3491C14.8532 5.55095 11.9379 5.55095 10.1397 7.3491C8.94578 8.54306 8.5446 10.2296 8.93621 11.7546C8.99937 12.0005 8.94328 12.2665 8.76372 12.4461L6.28899 14.9208C6.07705 15.1327 5.97294 15.4295 6.00604 15.7274L6.16075 17.1198C6.17725 17.2683 6.24377 17.4067 6.34939 17.5123L6.4882 17.6511C6.59381 17.7567 6.73223 17.8232 6.88068 17.8397L8.27307 17.9944C8.57097 18.0275 8.86776 17.9234 9.0797 17.7115L9.3764 17.4148L8.21332 16.2644C7.91882 15.9732 7.91621 15.4983 8.20748 15.2038C8.49876 14.9093 8.97363 14.9067 9.26813 15.198L10.4342 16.3512L10.4371 16.3541L11.5546 15.2366C11.7342 15.057 12 15.0011 12.2459 15.0643C13.7709 15.4559 15.4574 15.0547 16.6514 13.8608ZM12.3905 9.72426C12.9112 9.20357 13.7554 9.20357 14.2761 9.72426C14.7968 10.245 14.7968 11.0892 14.2761 11.6099C13.7554 12.1306 12.9112 12.1306 12.3905 11.6099C11.8698 11.0892 11.8698 10.245 12.3905 9.72426Z" fill="#1C274C"/>
</svg>
