<svg width="24" height="24" viewBox="0 0 24 24" fill="none" xmlns="http://www.w3.org/2000/svg">
<path opacity="0.5" d="M18.9771 14.7909C21.6743 12.0937 21.6743 7.72062 18.9771 5.0234C16.2799 2.32618 11.9068 2.32618 9.20961 5.0234C7.41866 6.81434 6.8169 9.34414 7.40432 11.6316C7.49906 12.0005 7.41492 12.3995 7.14558 12.6688L3.43349 16.3809C3.11558 16.6988 2.95941 17.144 3.00906 17.5909L3.24113 19.6795C3.26587 19.9021 3.36566 20.1098 3.52408 20.2682L3.73229 20.4764C3.89072 20.6348 4.09834 20.7346 4.32101 20.7594L6.4096 20.9914C6.85645 21.0411 7.30164 20.8849 7.61956 20.567L8.32958 19.857L9.39026 18.7963L11.3319 16.8546C11.6013 16.5853 12 16.5014 12.3689 16.5962C14.6563 17.1836 17.1861 16.5818 18.9771 14.7909Z" fill="#1C274C"/>
<path d="M15.4142 8.58627C14.6332 7.80523 13.3668 7.80523 12.5858 8.58627C11.8047 9.36732 11.8047 10.6337 12.5858 11.4147C13.3668 12.1958 14.6332 12.1958 15.4142 11.4147C16.1953 10.6337 16.1953 9.36732 15.4142 8.58627Z" fill="#1C274C"/>
<path d="M6.58295 18.1299L8.3291 19.857L9.38977 18.7963L7.63776 17.0634C7.34326 16.7722 6.86839 16.7748 6.57711 17.0693C6.28584 17.3638 6.28845 17.8386 6.58295 18.1299Z" fill="#1C274C"/>
</svg>
