<svg width="24" height="24" viewBox="0 0 24 24" fill="none" xmlns="http://www.w3.org/2000/svg">
<path opacity="0.5" d="M2 12.0005C2 7.28644 2 4.92942 3.46447 3.46495C4.92893 2.00049 7.28595 2.00049 12 2.00049C16.714 2.00049 19.0711 2.00049 20.5355 3.46495C22 4.92942 22 7.28644 22 12.0005C22 16.7145 22 19.0716 20.5355 20.536C19.0711 22.0005 16.714 22.0005 12 22.0005C7.28595 22.0005 4.92893 22.0005 3.46447 20.536C2 19.0716 2 16.7145 2 12.0005Z" fill="#1C274C"/>
<path fill-rule="evenodd" clip-rule="evenodd" d="M22 6.72056C22 9.32739 19.8781 11.4406 17.2606 11.4406C16.7829 11.4406 15.6954 11.3309 15.1664 10.8918L14.505 11.5504C14.1162 11.9377 14.2212 12.0517 14.3942 12.2395C14.4664 12.3179 14.5504 12.4091 14.6153 12.5383C14.6153 12.5383 15.1664 13.3067 14.6153 14.0751C14.2846 14.5142 13.3588 15.1289 12.3007 14.0751L12.0802 14.2946C12.0802 14.2946 12.7415 15.063 12.1904 15.8314C11.8598 16.2705 10.978 16.7096 10.2065 15.9412L9.43495 16.7096C8.90589 17.2365 8.25929 16.9291 8.00212 16.7096L7.3408 16.0509C6.72357 15.4362 7.08363 14.7703 7.3408 14.5142L13.0722 8.80618C13.0722 8.80618 12.5211 7.92803 12.5211 6.72056C12.5211 4.11374 14.643 2.00049 17.2606 2.00049C19.8781 2.00049 22 4.11374 22 6.72056ZM18.914 6.72051C18.914 7.62987 18.1738 8.36705 17.2607 8.36705C16.3476 8.36705 15.6074 7.62987 15.6074 6.72051C15.6074 5.81116 16.3476 5.07397 17.2607 5.07397C18.1738 5.07397 18.914 5.81116 18.914 6.72051Z" fill="#1C274C"/>
</svg>
