<svg width="24" height="24" viewBox="0 0 24 24" fill="none" xmlns="http://www.w3.org/2000/svg">
<path fill-rule="evenodd" clip-rule="evenodd" d="M6.71972 10.5999L8.15898 11.7993C9.99562 13.3299 10.9139 14.0951 12.0001 14.0951C13.0862 14.0951 14.0046 13.3299 15.8412 11.7993L17.2805 10.5999C17.6343 10.305 17.8113 10.1576 17.9057 9.95602C18.0001 9.75445 18.0001 9.52413 18.0001 9.06349V7.00024C18.0001 6.67961 18.0001 6.38079 17.9982 6.10193C17.9865 4.33085 17.9005 3.3651 17.2679 2.73248C16.5356 2.00024 15.3571 2.00024 13.0001 2.00024H11.0001C8.64306 2.00024 7.46455 2.00024 6.73232 2.73248C6.09969 3.3651 6.01179 4.33085 6.00009 6.10193C5.99824 6.38079 6.00009 6.67961 6.00009 7.00024V9.06349C6.00009 9.52413 6.00009 9.75445 6.0945 9.95602C6.18891 10.1576 6.36584 10.305 6.71972 10.5999ZM9.25 6.00024C9.25 5.58603 9.58579 5.25024 10 5.25024H14C14.4142 5.25024 14.75 5.58603 14.75 6.00024C14.75 6.41446 14.4142 6.75024 14 6.75024H10C9.58579 6.75024 9.25 6.41446 9.25 6.00024ZM10.25 9.00024C10.25 8.58603 10.5858 8.25024 11 8.25024H13C13.4142 8.25024 13.75 8.58603 13.75 9.00024C13.75 9.41446 13.4142 9.75024 13 9.75024H11C10.5858 9.75024 10.25 9.41446 10.25 9.00024Z" fill="#1C274C"/>
<path opacity="0.5" d="M8.15874 11.7993L6.71947 10.5999C6.3656 10.3051 6.18866 10.1576 6.09425 9.95603C5.99984 9.75446 5.99984 9.52414 5.99984 9.0635V7.00025C5.99984 6.89094 5.99963 6.78416 5.99942 6.67984C5.99901 6.47818 5.99863 6.28572 5.99984 6.10194C4.69982 6.22983 3.82473 6.51867 3.17157 7.17182C2 8.34339 2 10.2298 2 14.0011C2 17.7723 2 19.6579 3.17157 20.8295C4.34314 22.0011 6.22876 22.0011 9.99998 22.0011H14C17.7712 22.0011 19.6569 22.0011 20.8284 20.8295C22 19.6579 22 17.7723 22 14.0011C22 10.2298 22 8.34339 20.8284 7.17182C20.1749 6.5183 19.2992 6.22933 17.998 6.10155C17.9998 6.38041 17.9998 6.67962 17.9998 7.00025V9.0635C17.9998 9.52414 17.9998 9.75446 17.9054 9.95603C17.811 10.1576 17.6341 10.305 17.2802 10.5999L15.8409 11.7993C14.0043 13.3299 13.086 14.0951 11.9998 14.0951C10.9137 14.0951 9.99537 13.3299 8.15874 11.7993Z" fill="#1C274C"/>
</svg>
