<svg width="24" height="24" viewBox="0 0 24 24" fill="none" xmlns="http://www.w3.org/2000/svg">
<path opacity="0.5" d="M14.2 3.00024H9.8C5.65164 3.00024 3.57746 3.00024 2.28873 4.31826C1 5.63628 1 7.7576 1 12.0002C1 16.2429 1 18.3642 2.28873 19.6822C3.57746 21.0002 5.65164 21.0002 9.8 21.0002H14.2C18.3484 21.0002 20.4225 21.0002 21.7113 19.6822C23 18.3642 23 16.2429 23 12.0002C23 7.7576 23 5.63628 21.7113 4.31826C20.4225 3.00024 18.3484 3.00024 14.2 3.00024Z" fill="#1C274C"/>
<path d="M19.1284 8.03424C19.4784 7.74255 19.5257 7.22234 19.234 6.87231C18.9423 6.52228 18.4221 6.47499 18.0721 6.76668L15.6973 8.74566C14.671 9.60088 13.9585 10.1927 13.357 10.5796C12.7747 10.9541 12.3798 11.0798 12.0002 11.0798C11.6206 11.0798 11.2258 10.9541 10.6435 10.5796C10.0419 10.1927 9.32941 9.60088 8.30315 8.74567L5.92837 6.76668C5.57834 6.47499 5.05812 6.52228 4.76643 6.87231C4.47474 7.22234 4.52204 7.74255 4.87206 8.03424L7.28821 10.0477C8.2632 10.8602 9.05344 11.5188 9.75091 11.9674C10.4775 12.4346 11.185 12.7298 12.0002 12.7298C12.8154 12.7298 13.523 12.4346 14.2495 11.9674C14.947 11.5188 15.7372 10.8602 16.7122 10.0477L19.1284 8.03424Z" fill="#1C274C"/>
</svg>
