<svg width="24" height="24" viewBox="0 0 24 24" fill="none" xmlns="http://www.w3.org/2000/svg">
<path d="M15.7284 3.88445C17.1627 2.44456 19.2608 2.41432 20.4223 3.58029C21.5859 4.74847 21.5546 6.85971 20.1193 8.30058L17.6955 10.7338C17.4031 11.0273 17.4041 11.5022 17.6975 11.7945C17.991 12.0868 18.4658 12.0859 18.7582 11.7924L21.182 9.35918C23.0933 7.44047 23.3333 4.37714 21.485 2.52169C19.6345 0.664039 16.578 0.906152 14.6657 2.82585L9.81805 7.69231C7.90675 9.61102 7.6668 12.6744 9.51506 14.5298C9.80739 14.8233 10.2823 14.8242 10.5757 14.5319C10.8692 14.2396 10.8701 13.7647 10.5778 13.4712C9.41412 12.3031 9.44546 10.1918 10.8808 8.75091L15.7284 3.88445Z" fill="#1C274C"/>
<path opacity="0.5" d="M14.4846 9.47119C14.1923 9.17773 13.7174 9.17681 13.4239 9.46913C13.1305 9.76146 13.1296 10.2363 13.4219 10.5298C14.5856 11.698 14.5542 13.8092 13.1189 15.2501L8.27129 20.1166C6.83696 21.5565 4.73889 21.5867 3.57742 20.4207C2.41376 19.2525 2.4451 17.1413 3.8804 15.7004L6.30424 13.2671C6.59657 12.9737 6.59565 12.4988 6.30219 12.2065C6.00873 11.9142 5.53386 11.9151 5.24153 12.2085L2.81769 14.6418C0.906387 16.5605 0.666428 19.6239 2.5147 21.4793C4.36518 23.337 7.42173 23.0949 9.334 21.1752L14.1816 16.3087C16.0929 14.3899 16.3329 11.3266 14.4846 9.47119Z" fill="#1C274C"/>
</svg>
