<svg width="24" height="24" viewBox="0 0 24 24" fill="none" xmlns="http://www.w3.org/2000/svg">
<g opacity="0.5">
<path d="M11.1566 20.3137C16.2137 20.3137 20.3133 16.2142 20.3133 11.1571C20.3133 6.10005 16.2137 2.00049 11.1566 2.00049C6.09956 2.00049 2 6.10005 2 11.1571C2 16.2142 6.09956 20.3137 11.1566 20.3137Z" fill="#1C274C"/>
</g>
<path fill-rule="evenodd" clip-rule="evenodd" d="M11.1565 8.0249C11.5557 8.0249 11.8793 8.34855 11.8793 8.74779V10.4345H13.5661C13.9653 10.4345 14.289 10.7582 14.289 11.1574C14.289 11.5567 13.9653 11.8803 13.5661 11.8803H11.8793V13.5671C11.8793 13.9663 11.5557 14.29 11.1565 14.29C10.7572 14.29 10.4336 13.9663 10.4336 13.5671V11.8803H8.74682C8.34758 11.8803 8.02393 11.5567 8.02393 11.1574C8.02393 10.7582 8.34758 10.4345 8.74682 10.4345H10.4336V8.74779C10.4336 8.34855 10.7572 8.0249 11.1565 8.0249Z" fill="#1C274C"/>
<path d="M17.1001 18.1229L20.7664 21.7892C21.0487 22.0715 21.5064 22.0715 21.7887 21.7892C22.071 21.5069 22.071 21.0492 21.7887 20.7669L18.1224 17.1006C17.809 17.4676 17.4671 17.8095 17.1001 18.1229Z" fill="#1C274C"/>
</svg>
