<svg width="24" height="24" viewBox="0 0 24 24" fill="none" xmlns="http://www.w3.org/2000/svg">
<path fill-rule="evenodd" clip-rule="evenodd" d="M17.8196 19.7006C17.7303 18.6064 18.6359 17.6929 19.7206 17.783C19.9087 17.7986 20.1339 17.867 20.3632 17.9367C20.3853 17.9435 20.4074 17.9502 20.4295 17.9569C20.4495 17.9629 20.4695 17.9689 20.4895 17.975C20.7003 18.0383 20.9099 18.1013 21.0693 18.1874C21.9846 18.6818 22.28 19.8631 21.7068 20.7363C21.6069 20.8884 21.452 21.0441 21.2963 21.2007C21.2815 21.2156 21.2668 21.2305 21.252 21.2454C21.2373 21.2602 21.2225 21.2752 21.2078 21.2901C21.0525 21.4471 20.8981 21.6034 20.7473 21.7041C19.8817 22.2823 18.7106 21.9843 18.2205 21.0611C18.1351 20.9002 18.0727 20.6888 18.0099 20.4762C18.0039 20.4561 17.9979 20.4359 17.9919 20.4157C17.9853 20.3934 17.9786 20.3711 17.972 20.3488C17.9029 20.1175 17.835 19.8903 17.8196 19.7006Z" fill="#1C274C"/>
<g opacity="0.5">
<path d="M11.1566 20.3137C16.2137 20.3137 20.3133 16.2142 20.3133 11.1571C20.3133 6.10005 16.2137 2.00049 11.1566 2.00049C6.09956 2.00049 2 6.10005 2 11.1571C2 16.2142 6.09956 20.3137 11.1566 20.3137Z" fill="#1C274C"/>
</g>
<path fill-rule="evenodd" clip-rule="evenodd" d="M11.156 8.0249C11.5552 8.0249 11.8789 8.34855 11.8789 8.74779V10.4345H13.5656C13.9648 10.4345 14.2885 10.7582 14.2885 11.1574C14.2885 11.5567 13.9648 11.8803 13.5656 11.8803H11.8789V13.5671C11.8789 13.9663 11.5552 14.29 11.156 14.29C10.7567 14.29 10.4331 13.9663 10.4331 13.5671V11.8803H8.74633C8.34709 11.8803 8.02344 11.5567 8.02344 11.1574C8.02344 10.7582 8.34709 10.4345 8.74633 10.4345H10.4331V8.74779C10.4331 8.34855 10.7567 8.0249 11.156 8.0249Z" fill="#1C274C"/>
</svg>
