<svg width="24" height="24" viewBox="0 0 24 24" fill="none" xmlns="http://www.w3.org/2000/svg">
<path d="M9.85631 15.9624C9.72894 16.2171 9.83977 16.5266 10.0999 16.6426L19.5016 20.8353C20.9974 21.5023 22.549 20.0211 21.808 18.6334L18.656 12.7296C18.4109 12.2705 18.4109 11.73 18.656 11.2709L21.808 5.36714C22.549 3.97938 20.9974 2.49814 19.5016 3.1652L15.9773 4.73687C15.5544 4.92545 15.21 5.25491 15.003 5.66904L9.85631 15.9624Z" fill="#1C274C"/>
<path opacity="0.5" d="M8.46581 15.3907C8.34615 15.63 8.05931 15.7327 7.81495 15.6237L2.99238 13.4731C1.66864 12.8828 1.66864 11.1183 2.99238 10.528L11.8901 6.56007C12.3188 6.36889 12.7509 6.82047 12.541 7.24033L8.46581 15.3907Z" fill="#1C274C"/>
</svg>
