<svg width="24" height="24" viewBox="0 0 24 24" fill="none" xmlns="http://www.w3.org/2000/svg">
<path opacity="0.5" d="M10.5371 21.6747C11.4657 22.1088 12.5343 22.1088 13.4629 21.6747C17.4467 19.8127 20 14.6057 20 10.1435C20 5.64612 16.4183 2.00024 12 2.00024C7.58172 2.00024 4 5.64612 4 10.1435C4 14.6057 6.55332 19.8127 10.5371 21.6747Z" fill="#1C274C"/>
<path fill-rule="evenodd" clip-rule="evenodd" d="M13.0334 5.93205C12.3698 5.68964 11.6301 5.68964 10.9666 5.93205L8.62471 6.78758C8.08368 6.98522 7.75 7.46767 7.75 8.00024C7.75 8.53281 8.08368 9.01525 8.62471 9.2129L8.75 9.25867V11.7004C8.75 12.3735 9.14396 13.029 9.83069 13.2824C10.3558 13.4762 11.221 13.7502 12 13.7502C12.779 13.7502 13.6442 13.4762 14.1693 13.2824C14.856 13.029 15.25 12.3735 15.25 11.7004V9.25868L15.3753 9.21291C15.9163 9.01526 16.25 8.53282 16.25 8.00025C16.25 7.46768 15.9163 6.98524 15.3753 6.78759L13.0334 5.93205ZM10.25 9.80664V11.7004C10.25 11.8053 10.3069 11.8592 10.35 11.8751C10.8512 12.0601 11.5041 12.2502 12 12.2502C12.4959 12.2502 13.1488 12.0601 13.65 11.8751C13.6931 11.8592 13.75 11.8053 13.75 11.7004V9.80666L13.0334 10.0684C12.3699 10.3108 11.6302 10.3108 10.9666 10.0684L10.25 9.80664ZM12.5187 7.34098C12.1875 7.22 11.8125 7.22 11.4813 7.34098L9.67667 8.00024L11.4813 8.65951C11.8125 8.78049 12.1875 8.78049 12.5187 8.65951L14.3233 8.00025L12.5187 7.34098Z" fill="#1C274C"/>
</svg>
