<svg width="24" height="24" viewBox="0 0 24 24" fill="none" xmlns="http://www.w3.org/2000/svg">
<path opacity="0.5" d="M10.5371 21.6747C11.4657 22.1088 12.5343 22.1088 13.4629 21.6747C17.4467 19.8127 20 14.6057 20 10.1435C20 5.64612 16.4183 2.00024 12 2.00024C7.58172 2.00024 4 5.64612 4 10.1435C4 14.6057 6.55332 19.8127 10.5371 21.6747Z" fill="#1C274C"/>
<path d="M10.7238 13.3304C9.55314 12.3962 8 10.8879 8 9.46052C8 7.03431 10.2001 6.12849 12 8.0027C13.7999 6.12849 16 7.03431 16 9.4605C16 10.888 14.4469 12.3963 13.2762 13.3304C12.7165 13.777 12.4367 14.0002 12 14.0002C11.5633 14.0002 11.2835 13.777 10.7238 13.3304Z" fill="#1C274C"/>
</svg>
