<svg width="24" height="24" viewBox="0 0 24 24" fill="none" xmlns="http://www.w3.org/2000/svg">
<path d="M14.5 4.50049C14.5 5.8812 13.3807 7.00049 12 7.00049C10.6193 7.00049 9.5 5.8812 9.5 4.50049C9.5 3.11978 10.6193 2.00049 12 2.00049C13.3807 2.00049 14.5 3.11978 14.5 4.50049Z" fill="#1C274C"/>
<path fill-rule="evenodd" clip-rule="evenodd" d="M9.95 15.4005C10.2814 15.649 10.3485 16.1191 10.1 16.4505L9.05343 17.8459C9.02627 17.8821 9.00485 17.9107 8.98274 17.9386C8.62103 18.3958 8.12338 18.7263 7.56163 18.8822C7.52726 18.8918 7.49255 18.9004 7.44855 18.9114L7.44092 18.9133L5.95613 19.2845C5.24728 19.4618 4.75 20.0987 4.75 20.8293C4.75 21.0619 4.93856 21.2505 5.17116 21.2505H6.72727C7.34369 21.2505 7.5923 21.2493 7.82945 21.2214C8.40763 21.1535 8.96569 20.9675 9.46901 20.6749C9.67544 20.5549 9.87507 20.4067 10.3682 20.0368L12.55 18.4005C12.8814 18.152 13.3515 18.2191 13.6 18.5505C13.8485 18.8819 13.7814 19.352 13.45 19.6005L12.5453 20.279L13.803 20.7506C14.4297 20.9856 14.6826 21.0789 14.9395 21.139C15.078 21.1713 15.2181 21.1967 15.3591 21.2151C15.6208 21.2491 15.8903 21.2505 16.5596 21.2505H18.8288C19.0614 21.2505 19.25 21.0619 19.25 20.8293C19.25 20.0987 18.7527 19.4618 18.0439 19.2845L16.5512 18.9114C16.5073 18.9004 16.4727 18.8917 16.4384 18.8822C15.8766 18.7263 15.379 18.3958 15.0173 17.9386C14.9951 17.9107 14.9736 17.8819 14.9464 17.8457L13.9 16.4505C13.6515 16.1191 13.7186 15.649 14.05 15.4005C14.3814 15.152 14.8515 15.2191 15.1 15.5505L16.1417 16.9395C16.1757 16.9848 16.185 16.9971 16.1936 17.008C16.358 17.2158 16.5843 17.366 16.8396 17.4369C16.853 17.4406 16.8678 17.4444 16.9229 17.4581L18.4077 17.8293C19.7843 18.1735 20.75 19.4104 20.75 20.8293C20.75 21.8904 19.8899 22.7505 18.8288 22.7505L16.5079 22.7505C15.9061 22.7505 15.5352 22.7506 15.1659 22.7026C14.975 22.6778 14.7856 22.6434 14.5982 22.5996C14.2355 22.5149 13.8882 22.3846 13.3248 22.1733L11.1213 21.347C10.7409 21.632 10.4898 21.8166 10.2228 21.9718C9.54181 22.3676 8.7868 22.6192 8.00455 22.7112C7.66964 22.7505 7.32894 22.7505 6.77545 22.7505L5.17116 22.7505C4.11013 22.7505 3.25 21.8904 3.25 20.8293C3.25 19.4104 4.21573 18.1735 5.59233 17.8293L7.07711 17.4581C7.13215 17.4444 7.14703 17.4406 7.16039 17.4369C7.41573 17.366 7.64195 17.2158 7.80637 17.008C7.81498 16.9971 7.82419 16.9849 7.85827 16.9395L8.9 15.5505C9.14853 15.2191 9.61863 15.152 9.95 15.4005Z" fill="#1C274C"/>
<g opacity="0.5">
<path d="M12.8689 9.82257C12.2983 9.72646 11.702 9.72646 11.1314 9.82257C8.62372 10.245 6.75016 12.4466 6.75016 15.0201C6.75016 15.5846 6.43448 16.1054 5.92728 16.3617L3.33841 17.6699C2.96871 17.8567 2.51757 17.7084 2.33077 17.3387C2.14396 16.969 2.29222 16.5179 2.66192 16.3311L5.24941 15.0236L5.25016 15.0201C5.25016 11.7148 7.65199 8.88749 10.8823 8.34341C11.6178 8.21952 12.3825 8.21952 13.1181 8.34341C16.3483 8.88749 18.7502 11.7148 18.7502 15.0201L18.7506 15.0229L21.3384 16.3311C21.7081 16.5179 21.8564 16.969 21.6696 17.3387C21.4827 17.7084 21.0316 17.8567 20.6619 17.6699L18.073 16.3617C17.5658 16.1054 17.2502 15.5846 17.2502 15.0201C17.2502 12.4466 15.3766 10.245 12.8689 9.82257Z" fill="#1C274C"/>
</g>
</svg>
