<svg width="24" height="24" viewBox="0 0 24 24" fill="none" xmlns="http://www.w3.org/2000/svg">
<path opacity="0.5" d="M3.17157 7.17206C4.01536 6.32827 5.22954 6.0922 7.25179 6.02615L8.75208 6.00236C9.1435 6.00049 9.55885 6.00049 10 6.00049H14C14.4412 6.00049 14.8565 6.00049 15.2479 6.00236L16.7482 6.02615C18.7705 6.0922 19.9846 6.32827 20.8284 7.17206C22 8.34363 22 10.2293 22 14.0005C22 17.7717 22 19.6573 20.8284 20.8289C19.6569 22.0005 17.7712 22.0005 14 22.0005H9.99998C6.22876 22.0005 4.34314 22.0005 3.17157 20.8289C2 19.6573 2 17.7717 2 14.0005C2 10.2293 2 8.34363 3.17157 7.17206Z" fill="#1C274C"/>
<path d="M12.75 10.0005C12.75 9.58628 12.4142 9.25049 12 9.25049C11.5858 9.25049 11.25 9.58628 11.25 10.0005V10.0107C10.1612 10.285 9.25 11.1435 9.25 12.3338C9.25 13.7907 10.6151 14.7505 12 14.7505C12.8242 14.7505 13.25 15.2831 13.25 15.6672C13.25 16.0512 12.8242 16.5838 12 16.5838C11.1758 16.5838 10.75 16.0512 10.75 15.6672C10.75 15.2529 10.4142 14.9172 10 14.9172C9.58579 14.9172 9.25 15.2529 9.25 15.6672C9.25 16.8575 10.1612 17.716 11.25 17.9903V18.0005C11.25 18.4147 11.5858 18.7505 12 18.7505C12.4142 18.7505 12.75 18.4147 12.75 18.0005V17.9903C13.8388 17.716 14.75 16.8575 14.75 15.6672C14.75 14.2102 13.3849 13.2505 12 13.2505C11.1758 13.2505 10.75 12.7179 10.75 12.3338C10.75 11.9498 11.1758 11.4172 12 11.4172C12.8242 11.4172 13.25 11.9498 13.25 12.3338C13.25 12.748 13.5858 13.0838 14 13.0838C14.4142 13.0838 14.75 12.748 14.75 12.3338C14.75 11.1435 13.8388 10.285 12.75 10.0107V10.0005Z" fill="#1C274C"/>
<path d="M12.0522 1.25049H11.9482C11.0497 1.25046 10.3005 1.25044 9.70568 1.3304C9.07789 1.41481 8.51109 1.60048 8.05562 2.05595C7.60015 2.51142 7.41448 3.07822 7.33007 3.70601C7.27275 4.13238 7.25653 5.15196 7.25195 6.02615L8.75224 6.00237C8.75677 5.15572 8.77116 4.24456 8.8167 3.90588C8.87874 3.44442 8.98596 3.24692 9.11628 3.11661C9.24659 2.98629 9.44409 2.87907 9.90555 2.81703C10.3886 2.75208 11.0362 2.75049 12.0002 2.75049C12.9642 2.75049 13.6117 2.75208 14.0948 2.81703C14.5562 2.87907 14.7537 2.98629 14.884 3.11661C15.0144 3.24692 15.1216 3.44442 15.1836 3.90588C15.2292 4.24456 15.2436 5.15572 15.2481 6.00237L16.7484 6.02615C16.7438 5.15196 16.7276 4.13238 16.6702 3.70601C16.5858 3.07822 16.4002 2.51142 15.9447 2.05595C15.4892 1.60048 14.9224 1.41481 14.2946 1.3304C13.6999 1.25044 12.9506 1.25046 12.0522 1.25049Z" fill="#1C274C"/>
</svg>
