<svg width="24" height="24" viewBox="0 0 24 24" fill="none" xmlns="http://www.w3.org/2000/svg">
<path d="M14.8684 8.41172C14.9382 8.38128 14.9705 8.37152 14.9785 8.36917C15.0884 8.35966 15.1917 8.42348 15.2324 8.52605C15.2338 8.5343 15.2395 8.5675 15.2435 8.64357C15.2497 8.76123 15.25 8.92003 15.25 9.17103C15.25 9.27816 15.2499 9.33925 15.2482 9.3855C15.2472 9.41444 15.2458 9.42668 15.2454 9.42975C15.2338 9.48965 15.2007 9.54324 15.1523 9.58042C15.1497 9.58215 15.1394 9.58885 15.114 9.60273C15.0733 9.62489 15.0187 9.6523 14.9229 9.70021L13.6062 10.3586C13.3817 10.4708 13.2396 10.5416 13.1316 10.5887C13.0617 10.6191 13.0295 10.6289 13.0214 10.6313C12.9115 10.6408 12.8082 10.5769 12.7676 10.4744C12.7661 10.4661 12.7604 10.4329 12.7564 10.3569C12.7502 10.2392 12.75 10.0804 12.75 9.82939C12.75 9.72226 12.7501 9.66118 12.7517 9.61492C12.7528 9.58596 12.7541 9.57373 12.7545 9.57067C12.7662 9.51077 12.7993 9.45718 12.8477 9.42001C12.8502 9.41827 12.8605 9.41157 12.886 9.39769C12.9266 9.37554 12.9812 9.34812 13.077 9.30021L14.3937 8.64185C14.6182 8.5296 14.7604 8.4588 14.8684 8.41172Z" fill="#1C274C"/>
<path d="M9.99997 13.75C10.6903 13.75 11.25 14.3097 11.25 15C11.25 15.6904 10.6903 16.25 9.99997 16.25C9.30962 16.25 8.74997 15.6904 8.74997 15C8.74997 14.3097 9.30962 13.75 9.99997 13.75Z" fill="#1C274C"/>
<path fill-rule="evenodd" clip-rule="evenodd" d="M7.23596 2.87868C6.41858 3.75736 6.41858 5.17157 6.41858 8V16C6.41858 18.8284 6.41858 20.2426 7.23596 21.1213C8.05333 22 9.36888 22 12 22C14.6311 22 15.9466 22 16.764 21.1213C17.5814 20.2426 17.5814 18.8284 17.5814 16V8C17.5814 5.17158 17.5814 3.75736 16.764 2.87868C15.9466 2 14.6311 2 12 2C9.36888 2 8.05333 2 7.23596 2.87868ZM16.6454 8.02225C16.3689 7.25889 15.6036 6.78596 14.7972 6.88003C14.5988 6.90318 14.4199 6.97092 14.269 7.03669C14.1203 7.10149 13.9425 7.19042 13.7397 7.29184L12.3697 7.97679C12.2248 8.04899 12.0711 8.12557 11.937 8.22804C11.5955 8.48919 11.362 8.86695 11.2812 9.28925C11.2495 9.45495 11.2497 9.62668 11.2499 9.78859L11.25 9.8481C11.25 9.86538 11.25 9.88251 11.2499 9.89946C11.2499 9.93367 11.2499 9.96721 11.25 10V12.5499C10.8749 12.3582 10.4501 12.25 9.99997 12.25C8.48119 12.25 7.24997 13.4813 7.24997 15C7.24997 16.5188 8.48119 17.75 9.99997 17.75C11.5188 17.75 12.75 16.5188 12.75 15V12.1144C12.8973 12.1357 13.0493 12.1383 13.2027 12.1204C13.4012 12.0972 13.5801 12.0295 13.7309 11.9637C13.8796 11.8989 14.0575 11.81 14.2603 11.7086L15.6303 11.0236C15.7752 10.9514 15.9289 10.8749 16.0629 10.7724C16.4045 10.5112 16.6379 10.1335 16.7188 9.71117C16.7505 9.54547 16.7502 9.37374 16.75 9.21184L16.75 9.15231C16.75 8.92555 16.75 8.72669 16.7415 8.56475C16.7328 8.4004 16.7134 8.21007 16.6454 8.02225Z" fill="#1C274C"/>
<g opacity="0.5">
<path d="M6.72413 3.76172H5.26784C5.11295 3.76713 4.96866 3.77512 4.83435 3.78692C4.40341 3.82477 4.01421 3.9055 3.65073 4.10459C3.08186 4.41618 2.61937 4.91337 2.32952 5.5249C2.14431 5.91564 2.06921 6.33404 2.034 6.7973C1.99999 7.24486 1.99999 7.79557 2 8.46895V15.5318C1.99999 16.2052 1.99999 16.7559 2.034 17.2034C2.06921 17.6667 2.14431 18.0851 2.32952 18.4758C2.61937 19.0874 3.08186 19.5845 3.65073 19.8961C4.01421 20.0952 4.40341 20.176 4.83435 20.2138C4.96866 20.2256 5.11295 20.2336 5.26784 20.239H6.72438C6.41895 19.3408 6.41895 18.0372 6.41895 16V8C6.41895 5.96331 6.41895 4.6599 6.72413 3.76172Z" fill="#1C274C"/>
<path d="M17.2763 20.239C17.5817 19.3408 17.5817 18.0372 17.5817 16V8C17.5817 5.96331 17.5817 4.65991 17.2766 3.76172H18.7322C18.887 3.76713 19.0313 3.77512 19.1656 3.78692C19.5966 3.82477 19.9858 3.9055 20.3493 4.10459C20.9181 4.41618 21.3806 4.91337 21.6705 5.5249C21.8557 5.91564 21.9308 6.33404 21.966 6.7973C22 7.24484 22 7.79553 22 8.46887V15.5318C22 16.2051 22 16.7559 21.966 17.2034C21.9308 17.6667 21.8557 18.0851 21.6705 18.4758C21.3806 19.0874 20.9181 19.5845 20.3493 19.8961C19.9858 20.0952 19.5966 20.176 19.1656 20.2138C19.0313 20.2256 18.887 20.2336 18.7322 20.239H17.2763Z" fill="#1C274C"/>
</g>
</svg>
