<svg width="24" height="24" viewBox="0 0 24 24" fill="none" xmlns="http://www.w3.org/2000/svg">
<path opacity="0.5" d="M22 12.0004C22 16.7144 22 19.0714 20.5355 20.5359C19.0711 22.0004 16.714 22.0004 12 22.0004C7.28595 22.0004 4.92893 22.0004 3.46447 20.5359C2 19.0714 2 16.7144 2 12.0004C2 7.28632 2 4.9293 3.46447 3.46483C4.92893 2.00037 7.28595 2.00037 12 2.00037C16.714 2.00037 19.0711 2.00037 20.5355 3.46483C22 4.9293 22 7.28632 22 12.0004Z" fill="#1C274C"/>
<path d="M7 16.7504C6.58579 16.7504 6.25 17.0862 6.25 17.5004C6.25 17.9146 6.58579 18.2504 7 18.2504H13C13.4142 18.2504 13.75 17.9146 13.75 17.5004C13.75 17.0862 13.4142 16.7504 13 16.7504H7Z" fill="#1C274C"/>
<path d="M7 13.2504C6.58579 13.2504 6.25 13.5862 6.25 14.0004C6.25 14.4146 6.58579 14.7504 7 14.7504H16C16.4142 14.7504 16.75 14.4146 16.75 14.0004C16.75 13.5862 16.4142 13.2504 16 13.2504H7Z" fill="#1C274C"/>
<path d="M22 5.00037C22 6.65722 20.6569 8.00037 19 8.00037C17.3431 8.00037 16 6.65722 16 5.00037C16 3.34351 17.3431 2.00037 19 2.00037C20.6569 2.00037 22 3.34351 22 5.00037Z" fill="#1C274C"/>
</svg>
