<svg width="24" height="24" viewBox="0 0 24 24" fill="none" xmlns="http://www.w3.org/2000/svg">
<path fill-rule="evenodd" clip-rule="evenodd" d="M9.94358 1.25049L10 1.25049C10.4142 1.25049 10.75 1.58628 10.75 2.00049C10.75 2.4147 10.4142 2.75049 10 2.75049C8.09318 2.75049 6.73851 2.75208 5.71085 2.89025C4.70476 3.02551 4.12511 3.27918 3.7019 3.70239C3.27869 4.1256 3.02502 4.70525 2.88976 5.71134C2.75159 6.739 2.75 8.09367 2.75 10.0005C2.75 10.4147 2.41421 10.7505 2 10.7505C1.58579 10.7505 1.25 10.4147 1.25 10.0005L1.25 9.94407C1.24998 8.10631 1.24997 6.65068 1.40314 5.51147C1.56076 4.33904 1.89288 3.39009 2.64124 2.64173C3.38961 1.89337 4.33856 1.56125 5.51098 1.40362C6.65019 1.25046 8.10582 1.25047 9.94358 1.25049ZM18.2892 2.89025C17.2615 2.75208 15.9068 2.75049 14 2.75049C13.5858 2.75049 13.25 2.4147 13.25 2.00049C13.25 1.58628 13.5858 1.25049 14 1.25049L14.0564 1.25049C15.8942 1.25047 17.3498 1.25046 18.489 1.40362C19.6614 1.56125 20.6104 1.89337 21.3588 2.64173C22.1071 3.39009 22.4392 4.33904 22.5969 5.51147C22.75 6.65068 22.75 8.10632 22.75 9.94408V10.0005C22.75 10.4147 22.4142 10.7505 22 10.7505C21.5858 10.7505 21.25 10.4147 21.25 10.0005C21.25 8.09367 21.2484 6.739 21.1102 5.71134C20.975 4.70525 20.7213 4.1256 20.2981 3.70239C19.8749 3.27918 19.2952 3.02551 18.2892 2.89025ZM2 13.2505C2.41421 13.2505 2.75 13.5863 2.75 14.0005C2.75 15.9073 2.75159 17.262 2.88976 18.2896C3.02502 19.2957 3.27869 19.8754 3.7019 20.2986C4.12511 20.7218 4.70476 20.9755 5.71085 21.1107C6.73851 21.2489 8.09318 21.2505 10 21.2505C10.4142 21.2505 10.75 21.5863 10.75 22.0005C10.75 22.4147 10.4142 22.7505 10 22.7505H9.94359C8.10583 22.7505 6.65019 22.7505 5.51098 22.5974C4.33856 22.4397 3.38961 22.1076 2.64124 21.3592C1.89288 20.6109 1.56076 19.6619 1.40314 18.4895C1.24997 17.3503 1.24998 15.8947 1.25 14.0569L1.25 14.0005C1.25 13.5863 1.58579 13.2505 2 13.2505ZM22 13.2505C22.4142 13.2505 22.75 13.5863 22.75 14.0005V14.0569C22.75 15.8947 22.75 17.3503 22.5969 18.4895C22.4392 19.6619 22.1071 20.6109 21.3588 21.3592C20.6104 22.1076 19.6614 22.4397 18.489 22.5974C17.3498 22.7505 15.8942 22.7505 14.0564 22.7505H14C13.5858 22.7505 13.25 22.4147 13.25 22.0005C13.25 21.5863 13.5858 21.2505 14 21.2505C15.9068 21.2505 17.2615 21.2489 18.2892 21.1107C19.2952 20.9755 19.8749 20.7218 20.2981 20.2986C20.7213 19.8754 20.975 19.2957 21.1102 18.2896C21.2484 17.262 21.25 15.9073 21.25 14.0005C21.25 13.5863 21.5858 13.2505 22 13.2505Z" fill="#1C274C"/>
<path opacity="0.5" d="M10 5.50049H14C15.8856 5.50049 16.8284 5.50049 17.4142 6.08627C17.9642 6.63624 17.9978 7.50088 17.9999 9.16497L18 12.0172V14.5005C18 16.3861 18 17.3289 17.4142 17.9147C16.8284 18.5005 15.8856 18.5005 14 18.5005H10C8.11438 18.5005 7.17157 18.5005 6.58579 17.9147C6 17.3289 6 16.3861 6 14.5005V12.0172L6.00013 9.16498C6.00219 7.50089 6.03582 6.63624 6.58579 6.08627C7.17157 5.50049 8.11438 5.50049 10 5.50049Z" fill="#1C274C"/>
<path d="M18.3693 9.30042C18.2513 9.25504 18.1281 9.20977 17.9999 9.16494C16.1667 8.38644 11.2002 7.29654 6.00013 9.16495C5.87187 9.20978 5.74878 9.25504 5.63078 9.30042C4.9385 9.56669 4.42459 9.83605 4.07665 10.0448C3.90273 10.1492 3.77043 10.2383 3.67815 10.3042C3.63202 10.3372 3.59589 10.3643 3.56958 10.3846C3.55642 10.3948 3.54572 10.4033 3.53745 10.4099L3.52685 10.4185L3.52291 10.4218L3.52128 10.4231L3.51988 10.4243C3.20167 10.6894 3.15868 11.1624 3.42385 11.4806C3.68807 11.7976 4.15855 11.8415 4.47672 11.5794L4.4871 11.5713C4.49868 11.5623 4.51958 11.5465 4.55001 11.5248C4.61086 11.4813 4.7098 11.4142 4.84839 11.3311C5.12545 11.1648 5.56153 10.9342 6.16925 10.7004C7.38288 10.2337 9.29159 9.75043 12 9.75043C14.7085 9.75043 16.6172 10.2337 17.8308 10.7004C18.4385 10.9342 18.8746 11.1648 19.1516 11.3311C19.2902 11.4142 19.3892 11.4813 19.45 11.5248C19.4805 11.5465 19.5014 11.5623 19.5129 11.5713L19.5233 11.5795C19.8415 11.8415 20.312 11.7976 20.5762 11.4806C20.8414 11.1624 20.7984 10.6894 20.4802 10.4243L20 11.0004C20.4802 10.4243 20.4788 10.4231 20.4788 10.4231L20.4771 10.4218L20.4732 10.4185L20.4626 10.4099C20.4543 10.4033 20.4436 10.3948 20.4305 10.3846C20.4041 10.3643 20.368 10.3371 20.3219 10.3042C20.2296 10.2383 20.0973 10.1492 19.9234 10.0448C19.5755 9.83605 19.0615 9.56669 18.3693 9.30042Z" fill="#1C274C"/>
</svg>
