<svg width="24" height="24" viewBox="0 0 24 24" fill="none" xmlns="http://www.w3.org/2000/svg">
<path opacity="0.5" d="M2 12.0005C2 8.22925 2 6.34363 3.17157 5.17206C4.34315 4.00049 6.22876 4.00049 10 4.00049H14C17.7712 4.00049 19.6569 4.00049 20.8284 5.17206C22 6.34363 22 8.22925 22 12.0005C22 15.7717 22 17.6573 20.8284 18.8289C19.6569 20.0005 17.7712 20.0005 14 20.0005H10C6.22876 20.0005 4.34315 20.0005 3.17157 18.8289C2 17.6573 2 15.7717 2 12.0005Z" fill="#1C274C"/>
<path d="M12.7504 10.0005C12.7504 9.58627 12.4146 9.25049 12.0004 9.25049C11.5861 9.25049 11.2504 9.58627 11.2504 10.0005V10.7017L10.6429 10.351C10.2842 10.1439 9.82553 10.2668 9.61842 10.6255C9.41131 10.9842 9.53422 11.4429 9.89294 11.65L10.4999 12.0004L9.8927 12.351C9.53398 12.5581 9.41108 13.0168 9.61818 13.3755C9.82529 13.7342 10.284 13.8571 10.6427 13.65L11.2504 13.2992V14.0005C11.2504 14.4147 11.5861 14.7505 12.0004 14.7505C12.4146 14.7505 12.7504 14.4147 12.7504 14.0005V13.2997L13.357 13.65C13.7158 13.8571 14.1745 13.7342 14.3816 13.3755C14.5887 13.0168 14.4658 12.5581 14.107 12.351L13.4999 12.0004L14.1068 11.65C14.4655 11.4429 14.5884 10.9842 14.3813 10.6255C14.1742 10.2668 13.7155 10.1439 13.3568 10.351L12.7504 10.7011V10.0005Z" fill="#1C274C"/>
<path d="M6.73278 9.25049C7.147 9.25049 7.48278 9.58627 7.48278 10.0005V10.7011L8.08923 10.351C8.44795 10.1439 8.90664 10.2668 9.11375 10.6255C9.32085 10.9842 9.19795 11.4429 8.83923 11.65L8.23229 12.0004L8.83946 12.351C9.19818 12.5581 9.32109 13.0168 9.11398 13.3755C8.90687 13.7342 8.44818 13.8571 8.08946 13.65L7.48278 13.2997V14.0005C7.48278 14.4147 7.147 14.7505 6.73278 14.7505C6.31857 14.7505 5.98278 14.4147 5.98278 14.0005V13.2992L5.37513 13.65C5.01641 13.8571 4.55771 13.7342 4.35061 13.3755C4.1435 13.0168 4.26641 12.5581 4.62513 12.351L5.23229 12.0004L4.62536 11.65C4.26664 11.4429 4.14373 10.9842 4.35084 10.6255C4.55795 10.2668 5.01664 10.1439 5.37536 10.351L5.98278 10.7017V10.0005C5.98278 9.58627 6.31857 9.25049 6.73278 9.25049Z" fill="#1C274C"/>
<path d="M18.0182 10.0005C18.0182 9.58627 17.6824 9.25049 17.2682 9.25049C16.854 9.25049 16.5182 9.58627 16.5182 10.0005V10.7017L15.9108 10.351C15.552 10.1439 15.0934 10.2668 14.8863 10.6255C14.6791 10.9842 14.802 11.4429 15.1608 11.65L15.7677 12.0004L15.1605 12.351C14.8018 12.5581 14.6789 13.0168 14.886 13.3755C15.0931 13.7342 15.5518 13.8571 15.9105 13.65L16.5182 13.2992V14.0005C16.5182 14.4147 16.854 14.7505 17.2682 14.7505C17.6824 14.7505 18.0182 14.4147 18.0182 14.0005V13.2997L18.6249 13.65C18.9836 13.8571 19.4423 13.7342 19.6494 13.3755C19.8565 13.0168 19.7336 12.5581 19.3749 12.351L18.7677 12.0004L19.3746 11.65C19.7334 11.4429 19.8563 10.9842 19.6492 10.6255C19.442 10.2668 18.9834 10.1439 18.6246 10.351L18.0182 10.7011V10.0005Z" fill="#1C274C"/>
</svg>
