<svg width="24" height="24" viewBox="0 0 24 24" fill="none" xmlns="http://www.w3.org/2000/svg">
<path d="M9.75 13.0005C9.75 11.7578 10.7574 10.7505 12 10.7505C13.2426 10.7505 14.25 11.7578 14.25 13.0005C14.25 14.2431 13.2426 15.2505 12 15.2505C10.7574 15.2505 9.75 14.2431 9.75 13.0005Z" fill="#1C274C"/>
<path fill-rule="evenodd" clip-rule="evenodd" d="M4 18.6948V4.69482C4 5.24711 4.44772 5.69482 5 5.69482H17C18.6569 5.69482 20 7.03797 20 8.69482V18.6948C20 20.3517 18.6569 21.6948 17 21.6948H7C5.34315 21.6948 4 20.3517 4 18.6948ZM8.25 13.0005C8.25 10.9294 9.92893 9.25049 12 9.25049C14.0711 9.25049 15.75 10.9294 15.75 13.0005C15.75 15.0716 14.0711 16.7505 12 16.7505C9.92893 16.7505 8.25 15.0716 8.25 13.0005ZM9.25 19.0005C9.25 18.5863 9.58579 18.2505 10 18.2505H14C14.4142 18.2505 14.75 18.5863 14.75 19.0005C14.75 19.4147 14.4142 19.7505 14 19.7505H10C9.58579 19.7505 9.25 19.4147 9.25 19.0005Z" fill="#1C274C"/>
<path opacity="0.5" d="M18 4.00086V5.86553C17.6872 5.75498 17.3506 5.69482 17 5.69482H5C4.44772 5.69482 4 5.24711 4 4.69482V4.62378C4 4.09076 4.39193 3.63885 4.91959 3.56347L15.7172 2.02097C16.922 1.84884 18 2.78377 18 4.00086Z" fill="#1C274C"/>
</svg>
