<svg width="24" height="24" viewBox="0 0 24 24" fill="none" xmlns="http://www.w3.org/2000/svg">
<path opacity="0.5" d="M3.99057 13.6021C1.33648 10.948 1.33648 6.64491 3.99057 3.99081C6.64466 1.33672 10.9478 1.33672 13.6019 3.99081L20.0094 10.3984C22.6635 13.0525 22.6635 17.3556 20.0094 20.0097C17.3553 22.6638 13.0522 22.6638 10.3981 20.0097L3.99057 13.6021Z" fill="#1C274C"/>
<path d="M7.80729 17.4188L6.55383 16.1654L7.04936 16.07C7.04904 16.07 7.04942 16.0699 7.05034 16.0698L7.0642 16.0668C7.07858 16.0636 7.10318 16.0579 7.1374 16.0493C7.20584 16.032 7.31273 16.0029 7.45332 15.958C7.73451 15.8682 8.15025 15.7154 8.66277 15.4684C9.68695 14.9749 11.1004 14.1038 12.6017 12.6025C14.103 11.1012 14.9742 9.68761 15.4679 8.6633C15.715 8.15071 15.8678 7.7349 15.9576 7.45365C16.0025 7.31303 16.0317 7.20612 16.049 7.13766C16.0576 7.10343 16.0633 7.07882 16.0665 7.06444L16.0694 7.05061C16.0696 7.04969 16.0697 7.04927 16.0697 7.04958L16.1652 6.55408L17.4185 7.80745C17.4086 7.84012 17.3979 7.87433 17.3865 7.91004C17.277 8.25275 17.0989 8.73414 16.8192 9.31455C16.2593 10.4762 15.2937 12.0318 13.6624 13.6632C12.031 15.2945 10.4755 16.2599 9.31396 16.8197C8.7336 17.0994 8.25226 17.2775 7.90959 17.3869C7.87398 17.3983 7.83986 17.4089 7.80729 17.4188Z" fill="#1C274C"/>
</svg>
