<svg width="24" height="24" viewBox="0 0 24 24" fill="none" xmlns="http://www.w3.org/2000/svg">
<path fill-rule="evenodd" clip-rule="evenodd" d="M5.79624 18.204L21.5122 2.48806C20.5237 1.49964 18.6511 2.1238 14.906 3.37213L5.57477 6.48243C3.49295 7.17634 2.45203 7.5233 2.13608 8.28661C2.06182 8.46602 2.01692 8.6562 2.00311 8.84987C1.94433 9.6739 2.72018 10.4497 4.27188 12.0014L4.55451 12.284C4.80921 12.5387 4.93655 12.666 5.03282 12.8078C5.22269 13.0873 5.33046 13.4145 5.34393 13.7522C5.35076 13.9234 5.32403 14.1015 5.27057 14.4577C5.07488 15.7615 4.97703 16.4133 5.0923 16.915C5.20622 17.4107 5.45393 17.8537 5.79624 18.204Z" fill="#1C274C"/>
<path opacity="0.5" d="M17.4976 18.4858L20.6282 9.09444C21.8766 5.34945 22.5008 3.47695 21.5123 2.48853L5.79639 18.2044C6.14444 18.5606 6.59028 18.8211 7.09271 18.944C7.59269 19.0663 8.24591 18.9777 9.55235 18.8004L9.62378 18.7907C9.99205 18.7407 10.1762 18.7157 10.353 18.7264C10.674 18.7457 10.984 18.8503 11.2511 19.0292C11.3983 19.1278 11.5297 19.2592 11.7925 19.522L12.0437 19.7732C13.554 21.2835 14.3092 22.0386 15.1102 21.9992C15.3311 21.9884 15.548 21.9372 15.7504 21.8481C16.4845 21.5251 16.8222 20.512 17.4976 18.4858Z" fill="#1C274C"/>
</svg>
