<svg width="24" height="24" viewBox="0 0 24 24" fill="none" xmlns="http://www.w3.org/2000/svg">
<path fill-rule="evenodd" clip-rule="evenodd" d="M16.245 7.76039L21.4166 2.5888L21.414 2.5862C20.2268 1.39893 17.9776 2.14866 13.4792 3.64812L8.32987 5.36457C4.69923 6.57478 2.88392 7.17988 2.36806 8.06723C1.87731 8.91137 1.87731 9.95393 2.36806 10.7981C2.88392 11.6854 4.69923 12.2905 8.32987 13.5007C8.77981 13.6507 9.28601 13.5436 9.62294 13.2098L15.1286 7.7552C15.4383 7.44833 15.9382 7.45065 16.245 7.76039Z" fill="#1C274C"/>
<path opacity="0.5" d="M18.6356 15.6697L20.3521 10.5204C21.8505 6.02528 22.6002 3.77609 21.4166 2.58813L16.245 7.75973C16.5519 8.06947 16.5495 8.56933 16.2398 8.8762L10.8231 14.2428C10.4517 14.6107 10.3342 15.1738 10.4995 15.6697C11.7097 19.3003 12.3148 21.1157 13.2021 21.6315C14.0463 22.1223 15.0888 22.1223 15.933 21.6315C16.8203 21.1157 17.4254 19.3003 18.6356 15.6697Z" fill="#1C274C"/>
</svg>
