<svg width="24" height="24" viewBox="0 0 24 24" fill="none" xmlns="http://www.w3.org/2000/svg">
<path opacity="0.5" fill-rule="evenodd" clip-rule="evenodd" d="M2.25 5.00024C2.25 4.58603 2.58579 4.25024 3 4.25024H15C15.4142 4.25024 15.75 4.58603 15.75 5.00024C15.75 5.41446 15.4142 5.75024 15 5.75024H3C2.58579 5.75024 2.25 5.41446 2.25 5.00024ZM2.25 9.00024C2.25 8.58603 2.58579 8.25024 3 8.25024H13C13.4142 8.25024 13.75 8.58603 13.75 9.00024C13.75 9.41446 13.4142 9.75024 13 9.75024H3C2.58579 9.75024 2.25 9.41446 2.25 9.00024ZM2.25 13.0002C2.25 12.586 2.58579 12.2502 3 12.2502H9C9.41421 12.2502 9.75 12.586 9.75 13.0002C9.75 13.4145 9.41421 13.7502 9 13.7502H3C2.58579 13.7502 2.25 13.4145 2.25 13.0002ZM2.25 17.0002C2.25 16.586 2.58579 16.2502 3 16.2502H8C8.41421 16.2502 8.75 16.586 8.75 17.0002C8.75 17.4145 8.41421 17.7502 8 17.7502H3C2.58579 17.7502 2.25 17.4145 2.25 17.0002Z" fill="#1C274C"/>
<path d="M19.3446 5.99317C19.6232 5.8905 19.9559 5.80242 20.3149 5.8681C20.7572 5.949 21.1513 6.19703 21.4156 6.56074C21.6302 6.856 21.6948 7.19397 21.7228 7.48959C21.75 7.7773 21.75 8.13609 21.75 8.54491L21.75 8.57922L21.7501 8.65484C21.7509 8.95494 21.7518 9.27546 21.644 9.57074C21.559 9.80384 21.4254 10.0162 21.252 10.1937C21.0324 10.4186 20.7431 10.5565 20.4722 10.6857L20.404 10.7183L18.6185 11.5753C18.25 11.7523 17.9266 11.9075 17.6554 12.0074C17.3936 12.1039 17.0842 12.1875 16.75 12.1428V16.4289C16.75 18.2432 15.3147 19.7503 13.5 19.7503C11.6853 19.7503 10.25 18.2432 10.25 16.4289C10.25 14.6146 11.6853 13.1074 13.5 13.1074C14.1477 13.1074 14.747 13.2994 15.25 13.6288V10.0003H15.2529C15.25 9.83147 15.25 9.64919 15.25 9.45572L15.25 9.42139L15.2499 9.34577C15.2491 9.04567 15.2482 8.72516 15.356 8.42987C15.441 8.19677 15.5746 7.98441 15.748 7.80688C15.9676 7.58201 16.2569 7.44407 16.5278 7.31491L16.596 7.28231L18.3814 6.42528C18.75 6.24836 19.0734 6.09308 19.3446 5.99317Z" fill="#1C274C"/>
</svg>
