<svg width="24" height="24" viewBox="0 0 24 24" fill="none" xmlns="http://www.w3.org/2000/svg">
<path opacity="0.5" fill-rule="evenodd" clip-rule="evenodd" d="M2 12.0005C2 16.7145 2 19.0716 3.46447 20.536L20.5355 3.46495C19.0711 2.00049 16.714 2.00049 12 2.00049C7.28595 2.00049 4.92893 2.00049 3.46447 3.46495C2 4.92942 2 7.28644 2 12.0005Z" fill="#1C274C"/>
<path d="M8 4.75049C8.41421 4.75049 8.75 5.08627 8.75 5.50049L8.75 7.25051H10.5C10.9142 7.25051 11.25 7.5863 11.25 8.00051C11.25 8.41472 10.9142 8.75051 10.5 8.75051H8.75L8.75 10.5005C8.75 10.9147 8.41421 11.2505 8 11.2505C7.58579 11.2505 7.25 10.9147 7.25 10.5005L7.25 8.75051H5.5C5.08579 8.75051 4.75 8.41472 4.75 8.00051C4.75 7.5863 5.08579 7.25051 5.5 7.25051H7.25V5.50049C7.25 5.08627 7.58579 4.75049 8 4.75049Z" fill="#1C274C"/>
<path fill-rule="evenodd" clip-rule="evenodd" d="M11.9999 22.0004C7.28584 22.0004 4.92882 22.0004 3.46436 20.5359L20.5354 3.46484C21.9999 4.92931 21.9999 7.28633 21.9999 12.0004C21.9999 16.7144 21.9999 19.0714 20.5354 20.5359C19.071 22.0004 16.7139 22.0004 11.9999 22.0004ZM18 17.7505C18.4142 17.7505 18.75 17.4147 18.75 17.0005C18.75 16.5863 18.4142 16.2505 18 16.2505H13C12.5858 16.2505 12.25 16.5863 12.25 17.0005C12.25 17.4147 12.5858 17.7505 13 17.7505H18Z" fill="#1C274C"/>
</svg>
