<svg width="24" height="24" viewBox="0 0 24 24" fill="none" xmlns="http://www.w3.org/2000/svg">
<path opacity="0.5" d="M22 16.0002C22 13.1718 22 11.7576 21.1213 10.8789C20.6314 10.389 19.9751 10.1723 19 10.0764C18.1667 10.051 16.2001 10.0002 15 10.0002H8C5.95512 10.0002 4.64944 10.0002 3.75091 10.3323L21.6868 20.197C22 19.3003 22 18.0058 22 16.0002Z" fill="#1C274C"/>
<path d="M10.7576 15.8981L2.51112 11.3625C2 12.2638 2 13.6394 2 16.0005C2 18.6662 2 20.0757 2.73557 20.9646L10.7576 15.8981Z" fill="#1C274C"/>
<path d="M8.00004 22.0004H16C18.4823 22.0004 19.8753 22.0004 20.773 21.4065L12.2591 16.7239L4.21582 21.8038C5.08709 22.0004 6.28296 22.0004 8.00004 22.0004Z" fill="#1C274C"/>
<path d="M17 2.00024C15.3431 2.00024 14 3.34339 14 5.00024C14 6.39812 14.9561 7.5727 16.25 7.90573L16.25 13.0002C16.25 13.4145 16.5858 13.7502 17 13.7502C17.4142 13.7502 17.75 13.4145 17.75 13.0002V7.90573C19.0439 7.5727 20 6.39812 20 5.00024C20 3.34339 18.6569 2.00024 17 2.00024Z" fill="#1C274C"/>
</svg>
