<svg width="24" height="24" viewBox="0 0 24 24" fill="none" xmlns="http://www.w3.org/2000/svg">
<path opacity="0.5" d="M12 22.0001C17.5228 22.0001 22 17.523 22 12.0001C22 6.47727 17.5228 2.00012 12 2.00012C6.47715 2.00012 2 6.47727 2 12.0001C2 17.523 6.47715 22.0001 12 22.0001Z" fill="#1C274C"/>
<path fill-rule="evenodd" clip-rule="evenodd" d="M12.75 12.0001C12.75 12.6444 12.9375 13.245 13.2609 13.7501H10.7391C11.0625 13.245 11.25 12.6444 11.25 12.0001C11.25 10.2052 9.79493 8.75012 8 8.75012C6.20507 8.75012 4.75 10.2052 4.75 12.0001C4.75 13.795 6.20507 15.2501 8 15.2501H16C17.7949 15.2501 19.25 13.795 19.25 12.0001C19.25 10.2052 17.7949 8.75012 16 8.75012C14.2051 8.75012 12.75 10.2052 12.75 12.0001ZM14.25 12.0001C14.25 11.0336 15.0335 10.2501 16 10.2501C16.9665 10.2501 17.75 11.0336 17.75 12.0001C17.75 12.9666 16.9665 13.7501 16 13.7501C15.0335 13.7501 14.25 12.9666 14.25 12.0001ZM9.75 12.0001C9.75 12.9666 8.9665 13.7501 8 13.7501C7.0335 13.7501 6.25 12.9666 6.25 12.0001C6.25 11.0336 7.0335 10.2501 8 10.2501C8.9665 10.2501 9.75 11.0336 9.75 12.0001Z" fill="#1C274C"/>
</svg>
