<svg width="24" height="24" viewBox="0 0 24 24" fill="none" xmlns="http://www.w3.org/2000/svg">
<path opacity="0.5" fill-rule="evenodd" clip-rule="evenodd" d="M15.2462 6.27659L15.3036 6.25028C16.3807 5.75727 17.2699 5.3503 18.0165 5.14843C18.8133 4.933 19.5592 4.91934 20.2829 5.32826C21.0056 5.73654 21.3619 6.36916 21.5615 7.14473C21.7483 7.86995 21.8208 8.81408 21.9085 9.95591L21.9132 10.0178C21.9659 10.7035 22 11.3838 22 12C22 12.6162 21.9659 13.2965 21.9132 13.9822L21.9085 14.0441C21.8208 15.1859 21.7483 16.13 21.5615 16.8553C21.3619 17.6308 21.0056 18.2635 20.2829 18.6717C19.5592 19.0807 18.8133 19.067 18.0165 18.8516C17.2699 18.6497 16.3808 18.2427 15.3036 17.7497L15.2462 17.7234C14.6543 17.4525 14.0771 17.1741 13.5631 16.9025C13.1775 16.6986 12.7718 16.4693 12.3595 16.2257L12.3595 7.77426C12.7718 7.53075 13.1775 7.30136 13.5631 7.09754C14.0771 6.82593 14.6543 6.54747 15.2462 6.27659Z" fill="#1C274C"/>
<path d="M11.379 6.2219C11.945 6.59325 12.2112 7.14489 12.3594 7.77425L12.3594 16.2257C12.2112 16.8551 11.945 17.4067 11.379 17.7781C10.7698 18.1777 10.1327 18.1573 9.49786 17.958C8.9257 17.7783 8.25365 17.4211 7.4735 17.0065L7.41387 16.9748C6.97447 16.7413 6.54438 16.5004 6.16031 16.2647C5.72273 15.9962 5.25237 15.6776 4.78449 15.3441L4.73425 15.3083C3.94389 14.7449 3.27715 14.2697 2.81773 13.8021C2.31788 13.2934 1.99988 12.7319 1.99988 12C1.99988 11.2681 2.31788 10.7065 2.81773 10.1979C3.27715 9.73031 3.94389 9.25505 4.73425 8.69169L4.78449 8.65587C5.25237 8.32234 5.72273 8.00375 6.16031 7.73523C6.54438 7.49955 6.97447 7.25869 7.41387 7.02519L7.4735 6.9935C8.25365 6.57883 8.9257 6.22163 9.49786 6.04201C10.1327 5.84273 10.7698 5.8223 11.379 6.2219Z" fill="#1C274C"/>
</svg>
