<svg width="24" height="24" viewBox="0 0 24 24" fill="none" xmlns="http://www.w3.org/2000/svg">
<path opacity="0.5" fill-rule="evenodd" clip-rule="evenodd" d="M12 2.00024C10.2843 2.00024 8.90356 3.38096 6.14214 6.14238C3.38071 8.9038 2 10.2845 2 12.0002C2 13.716 3.38071 15.0967 6.14214 17.8581C8.90356 20.6195 10.2843 22.0002 12 22.0002C13.7157 22.0002 15.0964 20.6195 17.8579 17.8581C20.6193 15.0967 22 13.716 22 12.0002C22 10.2845 20.6193 8.9038 17.8579 6.14238C15.0964 3.38096 13.7157 2.00024 12 2.00024Z" fill="#1C274C"/>
<path fill-rule="evenodd" clip-rule="evenodd" d="M12.7862 8.48729C13.0695 8.18511 13.5441 8.1698 13.8463 8.45309L16.513 10.9531C16.6642 11.0949 16.75 11.2929 16.75 11.5002C16.75 11.7076 16.6642 11.9056 16.513 12.0474L13.8463 14.5474C13.5441 14.8307 13.0695 14.8154 12.7862 14.5132C12.5029 14.211 12.5182 13.7364 12.8204 13.4531L14.1034 12.2502H10.6667C10.3329 12.2502 9.8225 12.3499 9.4196 12.6219C9.05681 12.8668 8.75 13.2657 8.75 14.0002C8.75 14.4145 8.41421 14.7502 8 14.7502C7.58579 14.7502 7.25 14.4145 7.25 14.0002C7.25 12.7348 7.83208 11.8837 8.5804 11.3786C9.28861 10.9006 10.1116 10.7502 10.6667 10.7502L14.1034 10.7502L12.8204 9.5474C12.5182 9.2641 12.5029 8.78947 12.7862 8.48729Z" fill="#1C274C"/>
</svg>
