<svg width="24" height="24" viewBox="0 0 24 24" fill="none" xmlns="http://www.w3.org/2000/svg">
<path opacity="0.5" d="M13.4573 2.11035C10.5739 2.38776 7.50954 3.25244 5.38075 5.38123C3.25195 7.51003 2.38727 10.5744 2.10986 13.4578L10.5429 21.8908C13.4263 21.6134 16.4907 20.7487 18.6195 18.6199C20.7483 16.4912 21.6129 13.4268 21.8903 10.5434L13.4573 2.11035Z" fill="#1C274C"/>
<path d="M18.0686 2.08774C16.7367 1.98591 15.1273 1.94958 13.4572 2.11025L21.8902 10.5433C22.0509 8.87318 22.0146 7.26376 21.9127 5.93193C21.7537 3.85217 20.1483 2.24676 18.0686 2.08774Z" fill="#1C274C"/>
<path d="M5.93144 21.9132C7.26327 22.0151 8.87269 22.0514 10.5428 21.8907L2.10976 13.4577C1.94909 15.1278 1.98542 16.7372 2.08725 18.069C2.24627 20.1488 3.85169 21.7542 5.93144 21.9132Z" fill="#1C274C"/>
<path fill-rule="evenodd" clip-rule="evenodd" d="M11.9426 8.16059C12.2355 7.86769 12.7104 7.86769 13.0032 8.16059L13.8914 9.04869L14.7795 8.16059C15.0724 7.86769 15.5472 7.86769 15.8401 8.16059C16.133 8.45348 16.133 8.92835 15.8401 9.22125L14.952 10.1094L15.8401 10.9975C16.133 11.2903 16.133 11.7652 15.8401 12.0581C15.5472 12.351 15.0724 12.351 14.7795 12.0581L13.8914 11.17L13.0608 12.0006L13.9489 12.8887C14.2418 13.1816 14.2418 13.6565 13.9489 13.9494C13.656 14.2423 13.1811 14.2423 12.8882 13.9494L12.0001 13.0613L11.1695 13.8918L12.0576 14.7799C12.3505 15.0728 12.3505 15.5477 12.0576 15.8406C11.7647 16.1335 11.2899 16.1335 10.997 15.8406L10.1089 14.9525L9.22076 15.8406C8.92787 16.1335 8.45299 16.1335 8.1601 15.8406C7.86721 15.5477 7.86721 15.0728 8.1601 14.7799L9.0482 13.8918L8.1601 13.0037C7.86721 12.7108 7.86721 12.236 8.1601 11.9431C8.45299 11.6502 8.92787 11.6502 9.22076 11.9431L10.1089 12.8312L10.9394 12.0006L10.0513 11.1125C9.75845 10.8196 9.75845 10.3447 10.0513 10.0518C10.3442 9.75894 10.8191 9.75894 11.112 10.0518L12.0001 10.9399L12.8307 10.1094L11.9426 9.22125C11.6497 8.92835 11.6497 8.45348 11.9426 8.16059Z" fill="#1C274C"/>
</svg>
