<svg width="24" height="24" viewBox="0 0 24 24" fill="none" xmlns="http://www.w3.org/2000/svg">
<path d="M21.0001 4.50049C21.0001 5.8812 19.8808 7.00049 18.5001 7.00049C17.1193 7.00049 16.0001 5.8812 16.0001 4.50049C16.0001 3.11978 17.1193 2.00049 18.5001 2.00049C19.8808 2.00049 21.0001 3.11978 21.0001 4.50049Z" fill="#1C274C"/>
<path fill-rule="evenodd" clip-rule="evenodd" d="M8.97237 5.81061C9.87492 5.41242 10.8988 5.38991 11.818 5.74803C14.3857 6.74842 15.0063 10.0993 12.9673 11.9529L11.9273 12.8984C11.8874 12.9347 11.8757 12.9454 11.868 12.9526C11.3146 13.4764 11.3546 14.3692 11.9526 14.8415C11.9609 14.848 11.9736 14.8577 12.0164 14.8902L12.0199 14.8927C12.0785 14.9371 12.1125 14.9629 12.145 14.9881C14.0178 16.4383 15.1246 18.6653 15.1496 21.0339C15.1501 21.0749 15.1501 21.1175 15.1501 21.1907V22.0005C15.1501 22.4147 14.8143 22.7505 14.4001 22.7505C13.9858 22.7505 13.6501 22.4147 13.6501 22.0005V21.1954C13.6501 21.116 13.6501 21.0818 13.6497 21.0497C13.6295 19.1396 12.7369 17.3436 11.2266 16.1741C11.2012 16.1544 11.1739 16.1337 11.1106 16.0858L11.1042 16.0809C11.0708 16.0556 11.0448 16.0359 11.0229 16.0187C9.70738 14.9797 9.61944 13.0156 10.8369 11.8632C10.8572 11.8441 10.8812 11.8222 10.9125 11.7938L11.9583 10.843C13.1733 9.73848 12.8035 7.7418 11.2735 7.14569C10.7258 6.9323 10.1156 6.94572 9.57783 7.18298L9.05613 7.41314C8.51089 7.65369 8.25908 7.76497 8.01426 7.8865C7.60146 8.09139 7.20056 8.31942 6.81346 8.5695C6.58387 8.71781 6.35952 8.87737 5.87408 9.22306L4.43511 10.2478C4.09771 10.4881 3.62941 10.4093 3.38913 10.0719C3.14886 9.7345 3.2276 9.2662 3.56501 9.02593L5.02098 7.98909C5.48519 7.65852 5.73812 7.47841 5.9995 7.30954C6.43401 7.02885 6.884 6.7729 7.34735 6.54291C7.62609 6.40455 7.91018 6.27922 8.43157 6.04919L8.97237 5.81061Z" fill="#1C274C"/>
<g opacity="0.5">
<path d="M15.2724 11.8188C15.3729 11.4169 15.7801 11.1726 16.1819 11.2731C17.3756 11.5715 18.6244 11.5715 19.8181 11.2731C20.2199 11.1726 20.6271 11.4169 20.7276 11.8188C20.8281 12.2206 20.5837 12.6278 20.1819 12.7283C18.7493 13.0864 17.2507 13.0864 15.8181 12.7283C15.4163 12.6278 15.1719 12.2206 15.2724 11.8188Z" fill="#1C274C"/>
<path d="M9.48014 16.4245C9.79835 16.6897 9.84134 17.1626 9.57617 17.4808L9.31681 17.792C7.75456 19.6667 5.44032 20.7507 3 20.7507C2.58579 20.7507 2.25 20.4149 2.25 20.0007C2.25 19.5865 2.58579 19.2507 3 19.2507C4.99515 19.2507 6.88722 18.3645 8.16448 16.8318L8.42383 16.5205C8.68901 16.2023 9.16193 16.1593 9.48014 16.4245Z" fill="#1C274C"/>
</g>
</svg>
