<svg width="24" height="24" viewBox="0 0 24 24" fill="none" xmlns="http://www.w3.org/2000/svg">
<path d="M12.75 8.83745V9.87852C13.6239 10.1874 14.25 11.0208 14.25 12.0005C14.25 12.0496 14.2484 12.0984 14.2453 12.1468L15.2025 12.557C15.2337 12.3762 15.25 12.1902 15.25 12.0005C15.25 10.4637 14.1833 9.17604 12.75 8.83745Z" fill="#1C274C"/>
<path d="M11.25 8.83745C9.81665 9.17604 8.75 10.4637 8.75 12.0005C8.75 12.1902 8.76626 12.3762 8.79747 12.557L9.75468 12.1468C9.75158 12.0984 9.75 12.0496 9.75 12.0005C9.75 11.0208 10.3761 10.1874 11.25 9.87852V8.83745Z" fill="#1C274C"/>
<path d="M14.6113 13.9356L13.6544 13.5255C13.2432 13.9713 12.6542 14.2505 12 14.2505C11.3458 14.2505 10.7568 13.9713 10.3456 13.5255L9.38865 13.9356C9.98087 14.7335 10.9301 15.2505 12 15.2505C13.0699 15.2505 14.0191 14.7335 14.6113 13.9356Z" fill="#1C274C"/>
<path fill-rule="evenodd" clip-rule="evenodd" d="M13.0549 4.25049H10.9451C9.57755 4.25047 8.47521 4.25045 7.60825 4.36701C6.70814 4.48803 5.95027 4.74692 5.34835 5.34884C5.07033 5.62686 4.8655 5.93814 4.71362 6.28135C4.64592 6.26127 4.57422 6.25049 4.5 6.25049C4.08579 6.25049 3.75 6.58628 3.75 7.00049V10.0005C3.75 10.3271 3.95871 10.6049 4.25002 10.7078V13.2932C3.95871 13.3961 3.75 13.6739 3.75 14.0005V17.0005C3.75 17.4147 4.08579 17.7505 4.5 17.7505C4.57422 17.7505 4.64592 17.7397 4.71362 17.7196C4.8655 18.0628 5.07033 18.3741 5.34835 18.6521C5.95027 19.2541 6.70814 19.513 7.60825 19.634C8.47522 19.7505 9.57754 19.7505 10.9451 19.7505H13.0549C14.4225 19.7505 15.5248 19.7505 16.3918 19.634C17.2919 19.513 18.0497 19.2541 18.6516 18.6521C19.2536 18.0502 19.5125 17.2923 19.6335 16.3922C19.75 15.5253 19.75 14.423 19.75 13.0554V10.9456C19.75 9.57803 19.75 8.47571 19.6335 7.60874C19.5125 6.70863 19.2536 5.95076 18.6516 5.34884C18.0497 4.74692 17.2919 4.48803 16.3918 4.36701C15.5248 4.25045 14.4225 4.25047 13.0549 4.25049ZM7.25 12.0005C7.25 9.37714 9.37665 7.25049 12 7.25049C14.6234 7.25049 16.75 9.37714 16.75 12.0005C16.75 14.6238 14.6234 16.7505 12 16.7505C9.37665 16.7505 7.25 14.6238 7.25 12.0005Z" fill="#1C274C"/>
<path opacity="0.5" fill-rule="evenodd" clip-rule="evenodd" d="M3.46447 3.46495C2 4.92942 2 7.28644 2 12.0005C2 16.7145 2 19.0716 3.46447 20.536C4.92893 22.0005 7.28595 22.0005 12 22.0005C16.714 22.0005 19.0711 22.0005 20.5355 20.536C22 19.0716 22 16.7145 22 12.0005C22 7.28644 22 4.92942 20.5355 3.46495C19.0711 2.00049 16.714 2.00049 12 2.00049C7.28595 2.00049 4.92893 2.00049 3.46447 3.46495ZM10.9451 4.25049H13.0549C14.4225 4.25047 15.5248 4.25045 16.3918 4.36701C17.2919 4.48803 18.0497 4.74692 18.6516 5.34884C19.2536 5.95076 19.5125 6.70863 19.6335 7.60874C19.75 8.47571 19.75 9.57803 19.75 10.9456V13.0554C19.75 14.423 19.75 15.5253 19.6335 16.3922C19.5125 17.2923 19.2536 18.0502 18.6516 18.6521C18.0497 19.2541 17.2919 19.513 16.3918 19.634C15.5248 19.7505 14.4225 19.7505 13.0549 19.7505H10.9451C9.57754 19.7505 8.47522 19.7505 7.60825 19.634C6.70814 19.513 5.95027 19.2541 5.34835 18.6521C5.07033 18.3741 4.8655 18.0628 4.71362 17.7196C4.64592 17.7397 4.57422 17.7505 4.5 17.7505C4.08579 17.7505 3.75 17.4147 3.75 17.0005V14.0005C3.75 13.6739 3.95871 13.3961 4.25002 13.2932V10.7078C3.95871 10.6049 3.75 10.3271 3.75 10.0005V7.00049C3.75 6.58628 4.08579 6.25049 4.5 6.25049C4.57422 6.25049 4.64592 6.26127 4.71362 6.28135C4.8655 5.93814 5.07033 5.62686 5.34835 5.34884C5.95027 4.74692 6.70814 4.48803 7.60825 4.36701C8.47521 4.25045 9.57755 4.25047 10.9451 4.25049Z" fill="#1C274C"/>
</svg>
