<svg width="24" height="24" viewBox="0 0 24 24" fill="none" xmlns="http://www.w3.org/2000/svg">
<path opacity="0.5" fill-rule="evenodd" clip-rule="evenodd" d="M3.17157 4.17185C2 5.34342 2 7.22904 2 11.0003V13.0003C2 16.7715 2 18.6571 3.17157 19.8287C4.34315 21.0003 6.22876 21.0003 10 21.0003H14C14.0843 21.0003 14.9176 21.0003 15 21.0003L15 3.00031C14.9176 3.00029 14.0843 3.00028 14 3.00028H10C6.22876 3.00028 4.34315 3.00028 3.17157 4.17185Z" fill="#1C274C"/>
<path d="M5.5 9.25037C5.08579 9.25037 4.75 9.58615 4.75 10.0004C4.75 10.4146 5.08579 10.7504 5.5 10.7504H11.5C11.9142 10.7504 12.25 10.4146 12.25 10.0004C12.25 9.58615 11.9142 9.25037 11.5 9.25037H5.5Z" fill="#1C274C"/>
<path d="M6.5 13.2504C6.08579 13.2504 5.75 13.5862 5.75 14.0004C5.75 14.4146 6.08579 14.7504 6.5 14.7504H10.5C10.9142 14.7504 11.25 14.4146 11.25 14.0004C11.25 13.5862 10.9142 13.2504 10.5 13.2504H6.5Z" fill="#1C274C"/>
<path d="M22 13.0004V11.0004C22 7.22913 22 5.34351 20.8284 4.17194C19.8541 3.19761 17.6359 3.03357 15 3.00596V20.9948C17.6359 20.9672 19.8541 20.8031 20.8284 19.8288C22 18.6572 22 16.7716 22 13.0004Z" fill="#1C274C"/>
</svg>
