<svg width="24" height="24" viewBox="0 0 24 24" fill="none" xmlns="http://www.w3.org/2000/svg">
<path d="M9 15.0005C9 16.1051 8.10457 17.0005 7 17.0005C5.89543 17.0005 5 16.1051 5 15.0005C5 13.8959 5.89543 13.0005 7 13.0005C8.10457 13.0005 9 13.8959 9 15.0005Z" fill="#1C274C"/>
<path d="M19 15.0005C19 16.1051 18.1046 17.0005 17 17.0005C15.8954 17.0005 15 16.1051 15 15.0005C15 13.8959 15.8954 13.0005 17 13.0005C18.1046 13.0005 19 13.8959 19 15.0005Z" fill="#1C274C"/>
<g opacity="0.5">
<path fill-rule="evenodd" clip-rule="evenodd" d="M1.58405 6.37653C1.9287 6.14677 2.39435 6.2399 2.62412 6.58454L3.43665 7.80334C4.03942 8.70749 5.05417 9.25057 6.14081 9.25057H17.8593C18.946 9.25057 19.9607 8.70749 20.5635 7.80334L21.376 6.58454C21.6058 6.2399 22.0715 6.14677 22.4161 6.37653C22.7608 6.60629 22.8539 7.07195 22.6241 7.41659L21.8116 8.63539C20.9306 9.95684 19.4475 10.7506 17.8593 10.7506H6.14081C4.55264 10.7506 3.06954 9.95684 2.18858 8.63539L1.37604 7.41659C1.14628 7.07195 1.23941 6.60629 1.58405 6.37653Z" fill="#1C274C"/>
</g>
</svg>
