<svg width="24" height="24" viewBox="0 0 24 24" fill="none" xmlns="http://www.w3.org/2000/svg">
<path opacity="0.5" d="M18.0477 3.43548C18.0691 3.51873 18.0815 3.60357 18.0849 3.68971C18.1421 5.10586 15.8124 6.8748 12.648 7.75494C9.29105 8.68862 6.26589 8.26853 5.89111 6.81664C5.85894 6.69201 5.84734 6.56384 5.85514 6.43305C5.85669 6.40721 5.85898 6.38127 5.86203 6.35523C6.02326 4.97772 8.27891 3.33488 11.2908 2.49717C14.6477 1.56349 17.6729 1.98359 18.0477 3.43548Z" fill="#1C274C"/>
<path d="M12.648 7.75481C9.29106 8.68849 6.2659 8.2684 5.89111 6.8165C5.85894 6.69188 5.84735 6.56371 5.85515 6.43292L5.24609 13.3089C5.80507 13.8702 7.49022 14.9999 11.9996 14.9999C16.6277 14.9999 18.2809 13.8099 18.7949 13.2657L18.0849 3.68958C18.1421 5.10573 15.8124 6.87467 12.648 7.75481Z" fill="#1C274C"/>
<path opacity="0.5" d="M7.02989 21.413C8.00563 22 9.34227 22 12.0156 22C14.6588 22 15.9804 22 16.9506 21.4218C17.6678 20.9943 18.2472 20.3564 18.6162 19.5882C19.1153 18.5489 19.0377 17.1794 18.8825 14.4404L18.7949 13.2657C18.2809 13.8099 16.6277 14.9999 11.9996 14.9999C7.49022 14.9999 5.80507 13.8702 5.24609 13.3089L5.15426 14.351C4.9638 17.1189 4.86856 18.5028 5.36308 19.5549C5.72853 20.3324 6.3088 20.9792 7.02989 21.413Z" fill="#1C274C"/>
</svg>
