<svg width="24" height="24" viewBox="0 0 24 24" fill="none" xmlns="http://www.w3.org/2000/svg">
<path opacity="0.5" fill-rule="evenodd" clip-rule="evenodd" d="M6.06066 19.0001L2.53033 22.5304C2.23744 22.8233 1.76256 22.8233 1.46967 22.5304C1.17678 22.2375 1.17678 21.7627 1.46967 21.4698L5 17.9395L6.06066 19.0001Z" fill="#1C274C"/>
<path opacity="0.5" fill-rule="evenodd" clip-rule="evenodd" d="M17.9393 19.0001L21.4697 22.5304C21.7626 22.8233 22.2374 22.8233 22.5303 22.5304C22.8232 22.2375 22.8232 21.7627 22.5303 21.4698L19 17.9395L17.9393 19.0001Z" fill="#1C274C"/>
<path d="M9.75 8.75012C9.75 7.50748 10.7574 6.50012 12 6.50012C13.2426 6.50012 14.25 7.50748 14.25 8.75012C14.25 9.99276 13.2426 11.0001 12 11.0001C10.7574 11.0001 9.75 9.99276 9.75 8.75012Z" fill="#1C274C"/>
<path fill-rule="evenodd" clip-rule="evenodd" d="M12 21.5001C17.5228 21.5001 22 17.023 22 11.5001C22 5.97727 17.5228 1.50012 12 1.50012C6.47715 1.50012 2 5.97727 2 11.5001C2 17.023 6.47715 21.5001 12 21.5001ZM8.25 8.75012C8.25 6.67905 9.92893 5.00012 12 5.00012C14.0711 5.00012 15.75 6.67905 15.75 8.75012C15.75 10.8212 14.0711 12.5001 12 12.5001C9.92893 12.5001 8.25 10.8212 8.25 8.75012ZM12.75 15.7501C12.75 15.3359 12.4142 15.0001 12 15.0001C11.5858 15.0001 11.25 15.3359 11.25 15.7501V17.7501C11.25 18.1643 11.5858 18.5001 12 18.5001C12.4142 18.5001 12.75 18.1643 12.75 17.7501V15.7501Z" fill="#1C274C"/>
</svg>
