<svg width="24" height="24" viewBox="0 0 24 24" fill="none" xmlns="http://www.w3.org/2000/svg">
<path fill-rule="evenodd" clip-rule="evenodd" d="M12 1.25C12.4142 1.25 12.75 1.58579 12.75 2V4.18934L14.4697 2.46967C14.7626 2.17678 15.2374 2.17678 15.5303 2.46967C15.8232 2.76256 15.8232 3.23744 15.5303 3.53033L12.75 6.31066V17.6893L15.5303 20.4697C15.8232 20.7626 15.8232 21.2374 15.5303 21.5303C15.2374 21.8232 14.7626 21.8232 14.4697 21.5303L12.75 19.8107V22C12.75 22.4142 12.4142 22.75 12 22.75C11.5858 22.75 11.25 22.4142 11.25 22V19.8107L9.53033 21.5303C9.23744 21.8232 8.76256 21.8232 8.46967 21.5303C8.17678 21.2374 8.17678 20.7626 8.46967 20.4697L11.25 17.6893V6.31066L8.46967 3.53033C8.17678 3.23744 8.17678 2.76256 8.46967 2.46967C8.76256 2.17678 9.23744 2.17678 9.53033 2.46967L11.25 4.18934V2C11.25 1.58579 11.5858 1.25 12 1.25Z" fill="#1C274C"/>
<path opacity="0.5" fill-rule="evenodd" clip-rule="evenodd" d="M5.51159 4.17784C5.91169 4.07064 6.32294 4.30807 6.43015 4.70817L7.44782 8.50617L11.9998 11.1343L16.5518 8.50617L17.5695 4.70817C17.6767 4.30807 18.088 4.07064 18.4881 4.17784C18.8882 4.28505 19.1256 4.6963 19.0184 5.0964L18.389 7.44551L20.285 6.35084C20.6437 6.14374 21.1024 6.26664 21.3095 6.62536C21.5166 6.98408 21.3937 7.44277 21.035 7.64988L19.139 8.74455L21.4881 9.37399C21.8882 9.4812 22.1256 9.89245 22.0184 10.2926C21.9112 10.6927 21.5 10.9301 21.0999 10.8229L17.3018 9.80521L13.4998 12.0003L17.302 14.1955L21.1 13.1778C21.5001 13.0706 21.9114 13.3081 22.0186 13.7082C22.1258 14.1083 21.8884 14.5195 21.4883 14.6267L19.1392 15.2562L21.0352 16.3508C21.3939 16.5579 21.5168 17.0166 21.3097 17.3754C21.1026 17.7341 20.6439 17.857 20.2852 17.6499L18.3892 16.5552L19.0186 18.9043C19.1258 19.3044 18.8884 19.7157 18.4883 19.8229C18.0882 19.9301 17.6769 19.6927 17.5697 19.2926L16.552 15.4946L11.9998 12.8663L7.44762 15.4946L6.42995 19.2926C6.32275 19.6927 5.91149 19.9301 5.51139 19.8229C5.11129 19.7157 4.87386 19.3044 4.98106 18.9043L5.61051 16.5552L3.71448 17.6499C3.35576 17.857 2.89707 17.7341 2.68996 17.3754C2.48286 17.0166 2.60576 16.5579 2.96448 16.3508L4.86051 15.2562L2.51139 14.6267C2.11129 14.5195 1.87386 14.1083 1.98106 13.7082C2.08827 13.3081 2.49952 13.0706 2.89962 13.1778L6.69762 14.1955L10.4998 12.0003L6.69782 9.80521L2.89982 10.8229C2.49972 10.9301 2.08847 10.6927 1.98126 10.2926C1.87405 9.89245 2.11149 9.4812 2.51159 9.37399L4.8607 8.74455L2.96468 7.64988C2.60596 7.44277 2.48305 6.98408 2.69016 6.62536C2.89727 6.26664 3.35596 6.14374 3.71468 6.35084L5.6107 7.44551L4.98126 5.0964C4.87405 4.6963 5.11149 4.28505 5.51159 4.17784Z" fill="#1C274C"/>
</svg>
