<svg width="24" height="24" viewBox="0 0 24 24" fill="none" xmlns="http://www.w3.org/2000/svg">
<path d="M12.75 14.0001H17.2C17.6418 14.0001 18 13.6419 18 13.2001V12.0001C18 10.8956 18.8954 10.0001 20 10.0001C21.1046 10.0001 22 10.8956 22 12.0001V14.4446C22 15.5285 21.5149 16.4992 20.75 17.1514V19.0001C20.75 19.4143 20.4142 19.7501 20 19.7501C19.5858 19.7501 19.25 19.4143 19.25 19.0001V17.9085C18.9912 17.9684 18.7215 18.0001 18.4444 18.0001H5.55556C5.27849 18.0001 5.00883 17.9684 4.75 17.9085V19.0001C4.75 19.4143 4.41421 19.7501 4 19.7501C3.58579 19.7501 3.25 19.4143 3.25 19.0001V17.1514C2.48508 16.4992 2 15.5285 2 14.4446V12.0001C2 10.8956 2.89543 10.0001 4 10.0001C5.10457 10.0001 6 10.8956 6 12.0001V13.2001C6 13.6419 6.35817 14.0001 6.8 14.0001H11.25V5.00012H12.75V14.0001Z" fill="#1C274C"/>
<g opacity="0.5">
<path d="M17.2 14.0001H12.75V5.00012H15C15.9293 5.00012 16.394 5.00012 16.7804 5.07698C18.3671 5.39261 19.6075 6.633 19.9231 8.21976C19.9657 8.43392 19.9847 8.67211 19.9932 9.00013L20 9.00012V10.0001C18.8954 10.0001 18 10.8956 18 12.0001V13.2001C18 13.6419 17.6418 14.0001 17.2 14.0001Z" fill="#1C274C"/>
<path d="M11.25 14.0001H6.8C6.35817 14.0001 6 13.6419 6 13.2001V12.0001C6 10.8978 5.10825 10.0038 4.00681 10.0001V9.00013C4.01527 8.67211 4.03426 8.43392 4.07686 8.21976C4.39249 6.633 5.63288 5.39261 7.21964 5.07698C7.60603 5.00012 8.07069 5.00012 9 5.00012H11.25V14.0001Z" fill="#1C274C"/>
</g>
</svg>
