<svg width="24" height="24" viewBox="0 0 24 24" fill="none" xmlns="http://www.w3.org/2000/svg">
<path opacity="0.5" d="M4 10.0001C4 6.22889 4 4.34327 5.17157 3.17169C6.34315 2.00012 8.22876 2.00012 12 2.00012C15.7712 2.00012 17.6569 2.00012 18.8284 3.17169C20 4.34327 20 6.22889 20 10.0001V14.0001C20 17.7714 20 19.657 18.8284 20.8285C17.6569 22.0001 15.7712 22.0001 12 22.0001C8.22876 22.0001 6.34315 22.0001 5.17157 20.8285C4 19.657 4 17.7714 4 14.0001V10.0001Z" fill="#1C274C"/>
<path fill-rule="evenodd" clip-rule="evenodd" d="M12 4.75012C10.4812 4.75012 9.25 5.98134 9.25 7.50012C9.25 9.01891 10.4812 10.2501 12 10.2501C13.5188 10.2501 14.75 9.01891 14.75 7.50012C14.75 5.98134 13.5188 4.75012 12 4.75012Z" fill="#1C274C"/>
<path fill-rule="evenodd" clip-rule="evenodd" d="M8.25 15.5001C8.25 13.4291 9.92893 11.7501 12 11.7501C14.0711 11.7501 15.75 13.4291 15.75 15.5001C15.75 17.5712 14.0711 19.2501 12 19.2501C9.92893 19.2501 8.25 17.5712 8.25 15.5001Z" fill="#1C274C"/>
</svg>
