<svg width="24" height="24" viewBox="0 0 24 24" fill="none" xmlns="http://www.w3.org/2000/svg">
<path opacity="0.5" d="M1 13.5301C1 8.86322 1 6.52977 2.44982 5.07995C3.89964 3.63013 6.2331 3.63013 10.9 3.63013C15.5669 3.63013 17.9004 3.63013 19.3502 5.07995C20.8 6.52977 20.8 8.86322 20.8 13.5301C20.8 18.197 20.8 20.5305 19.3502 21.9803C17.9004 23.4301 15.5669 23.4301 10.9 23.4301C6.2331 23.4301 3.89964 23.4301 2.44982 21.9803C1 20.5305 1 18.197 1 13.5301Z" fill="#1C274C"/>
<path d="M17.6703 1.9075L20.2633 4.15477C22.0483 5.70173 22.9408 6.47521 22.9408 7.4798C22.9408 8.48438 22.0483 9.25786 20.2633 10.8048L17.6703 13.0521C16.8855 13.7323 16.493 14.0725 16.1715 13.9256C15.8499 13.7788 15.8499 13.2595 15.8499 12.2208V10.5441C13.1999 10.5441 10.3726 11.5321 8.64962 13.2436C8.12486 13.7649 7.86248 14.0255 7.72286 13.9593C7.58324 13.8932 7.61571 13.5565 7.68065 12.8832C8.32892 6.16175 12.7424 4.41551 15.8499 4.41551V2.73876C15.8499 1.70012 15.8499 1.1808 16.1715 1.03397C16.493 0.887143 16.8855 1.22726 17.6703 1.9075Z" fill="#1C274C"/>
</svg>
