<svg width="24" height="24" viewBox="0 0 24 24" fill="none" xmlns="http://www.w3.org/2000/svg">
<path opacity="0.5" d="M12 23.0005C16.9706 23.0005 21 18.9711 21 14.0005C21 9.02993 16.9706 5.00049 12 5.00049C7.02944 5.00049 3 9.02993 3 14.0005C3 18.9711 7.02944 23.0005 12 23.0005Z" fill="#1C274C"/>
<path d="M12 9.25049C12.4142 9.25049 12.75 9.58627 12.75 10.0005V14.0005C12.75 14.4147 12.4142 14.7505 12 14.7505C11.5858 14.7505 11.25 14.4147 11.25 14.0005V10.0005C11.25 9.58627 11.5858 9.25049 12 9.25049Z" fill="#1C274C"/>
<path fill-rule="evenodd" clip-rule="evenodd" d="M9.25 2.75049C9.25 2.33627 9.58579 2.00049 10 2.00049H14C14.4142 2.00049 14.75 2.33627 14.75 2.75049C14.75 3.1647 14.4142 3.50049 14 3.50049H10C9.58579 3.50049 9.25 3.1647 9.25 2.75049Z" fill="#1C274C"/>
</svg>
