<svg width="24" height="24" viewBox="0 0 24 24" fill="none" xmlns="http://www.w3.org/2000/svg">
<path d="M21.3226 3.78638L15.1069 10.4164L21.2865 15.2717C22 14.1682 22 12.5342 22 9.50047C22 6.5187 22 4.88917 21.3226 3.78638Z" fill="#1C274C"/>
<path d="M15.2673 19.2009L13.932 16.5297C13.089 14.8434 12.6675 14.0002 12 14.0002C11.3325 14.0002 10.911 14.8434 10.068 16.5297L8.73273 19.2009C8.22086 20.2248 7.96493 20.7368 8.00387 21.0591C8.06013 21.5247 8.41041 21.9009 8.87082 21.99C9.18949 22.0517 9.71822 21.8326 10.7757 21.3945C11.1669 21.2324 11.3625 21.1514 11.5629 21.11C11.8513 21.0504 12.1487 21.0504 12.4371 21.11C12.6375 21.1514 12.8331 21.2324 13.2243 21.3945C14.2818 21.8326 14.8105 22.0517 15.1292 21.99C15.5896 21.9009 15.9399 21.5247 15.9961 21.0591C16.0351 20.7368 15.7791 20.2248 15.2673 19.2009Z" fill="#1C274C"/>
<path opacity="0.5" d="M2 9.50023C2 9.51348 2 9.5267 2 9.53989C2.00001 12.8008 2.00368 14.4359 2.90796 15.5378C3.07418 15.7403 3.25989 15.9261 3.46243 16.0923C3.64344 16.2408 3.83883 16.3651 4.05346 16.469C5.15025 17 6.74919 17 9.49726 17H9.49975H14.4998L15.8427 16.9974C16.6828 16.9916 17.3922 16.9741 18 16.9211C18.9436 16.8388 19.6422 16.671 20.2042 16.3288L13.5476 11.0986L2.96107 3.39929C2.94315 3.42023 2.92545 3.44135 2.90796 3.46266C2 4.56901 2 6.21275 2 9.50023Z" fill="#1C274C"/>
<path d="M14.5 2.00024H9.49997C6.8838 2.00024 5.3086 2.00024 4.2168 2.45783L13.9056 9.50427L20.2716 2.71397C19.168 2.00024 17.534 2.00024 14.5 2.00024Z" fill="#1C274C"/>
</svg>
