<svg width="24" height="24" viewBox="0 0 24 24" fill="none" xmlns="http://www.w3.org/2000/svg">
<path d="M12.052 1.25037H11.948C11.0495 1.25034 10.3003 1.25032 9.70552 1.33028C9.07773 1.41469 8.51093 1.60036 8.05546 2.05583C7.59999 2.5113 7.41432 3.0781 7.32991 3.70589C7.24995 4.30066 7.24997 5.04987 7.25 5.94833L7.25 6.02608C7.70703 6.01113 8.20535 6.00487 8.75 6.00225V6.00037C8.75 5.03636 8.7516 4.3888 8.81654 3.90576C8.87858 3.4443 8.9858 3.2468 9.11612 3.11649C9.24644 2.98617 9.44393 2.87895 9.9054 2.81691C10.3884 2.75196 11.036 2.75037 12 2.75037C12.964 2.75037 13.6116 2.75196 14.0946 2.81691C14.5561 2.87895 14.7536 2.98617 14.8839 3.11649C15.0142 3.2468 15.1214 3.4443 15.1835 3.90576C15.2484 4.3888 15.25 5.03636 15.25 6.00037V6.00225C15.7947 6.00487 16.293 6.01113 16.75 6.02608V5.94838C16.75 5.04991 16.7501 4.30067 16.6701 3.70589C16.5857 3.0781 16.4 2.5113 15.9445 2.05583C15.4891 1.60036 14.9223 1.41469 14.2945 1.33028C13.6997 1.25032 12.9505 1.25034 12.052 1.25037Z" fill="#1C274C"/>
<path opacity="0.5" d="M2 14.0004C2 10.2291 2 8.34351 3.17157 7.17194C4.34315 6.00037 6.22876 6.00037 10 6.00037H14C17.7712 6.00037 19.6569 6.00037 20.8284 7.17194C22 8.34351 22 10.2291 22 14.0004C22 17.7716 22 19.6572 20.8284 20.8288C19.6569 22.0004 17.7712 22.0004 14 22.0004H10C6.22876 22.0004 4.34315 22.0004 3.17157 20.8288C2 19.6572 2 17.7716 2 14.0004Z" fill="#1C274C"/>
<path d="M2.07929 17.7504C2.04331 17.301 2.02367 16.8035 2.01294 16.2504L21.9871 16.2504C21.9764 16.8035 21.9568 17.301 21.9208 17.7504L2.07929 17.7504Z" fill="#1C274C"/>
<path d="M21.9208 10.2504C21.9568 10.6997 21.9764 11.1972 21.9871 11.7504L2.01294 11.7504C2.02367 11.1972 2.04331 10.6997 2.07929 10.2504H21.9208Z" fill="#1C274C"/>
</svg>
