<svg width="24" height="24" viewBox="0 0 24 24" fill="none" xmlns="http://www.w3.org/2000/svg">
<path opacity="0.5" d="M2 14.0004C2 10.2291 2 8.34351 3.17157 7.17194C4.34315 6.00037 6.22876 6.00037 10 6.00037H14C17.7712 6.00037 19.6569 6.00037 20.8284 7.17194C22 8.34351 22 10.2291 22 14.0004C22 17.7716 22 19.6572 20.8284 20.8288C19.6569 22.0004 17.7712 22.0004 14 22.0004H10C6.22876 22.0004 4.34315 22.0004 3.17157 20.8288C2 19.6572 2 17.7716 2 14.0004Z" fill="#1C274C"/>
<path d="M11.948 1.25037C11.0495 1.25034 10.3003 1.25032 9.70552 1.33028C9.07773 1.41469 8.51093 1.60036 8.05546 2.05583C7.59999 2.5113 7.41432 3.0781 7.32991 3.70589C7.24995 4.30067 7.24997 5.04988 7.25 5.94834L7.25 6.00037H8.75C8.75 5.03636 8.7516 4.3888 8.81654 3.90576C8.87858 3.4443 8.9858 3.2468 9.11612 3.11649C9.24644 2.98617 9.44393 2.87895 9.9054 2.8169C10.3884 2.75196 11.036 2.75037 12 2.75037C12.964 2.75037 13.6116 2.75196 14.0946 2.8169C14.5561 2.87895 14.7536 2.98617 14.8839 3.11649C15.0142 3.2468 15.1214 3.4443 15.1835 3.90576C15.2484 4.3888 15.25 5.03636 15.25 6.00037H16.75L16.75 5.94837C16.75 5.04991 16.7501 4.30067 16.6701 3.70589C16.5857 3.0781 16.4 2.5113 15.9445 2.05583C15.4891 1.60036 14.9223 1.41469 14.2945 1.33028C13.6997 1.25032 12.9505 1.25034 12.052 1.25037H11.948Z" fill="#1C274C"/>
<path d="M10 15.0004H6C5.5286 15.0004 5.29289 15.0004 5.14645 15.1468C5 15.2933 5 15.529 5 16.0004V17.0004C5 17.4718 5 17.7075 5.14645 17.8539C5.29289 18.0004 5.5286 18.0004 6 18.0004H10C10.4714 18.0004 10.7071 18.0004 10.8536 17.8539C11 17.7075 11 17.4718 11 17.0004V16.0004C11 15.529 11 15.2933 10.8536 15.1468C10.7071 15.0004 10.4714 15.0004 10 15.0004Z" fill="#1C274C"/>
<path d="M5.25 21.7978C5.68871 21.8762 6.18479 21.9243 6.75 21.9537V18.0004H6C5.62604 18.0004 5.40041 18.0004 5.25 17.9273V21.7978Z" fill="#1C274C"/>
<path d="M5.25 15.0735V6.20298C5.68871 6.12453 6.18479 6.07646 6.75 6.047V15.0004H6C5.62604 15.0004 5.40041 15.0004 5.25 15.0735Z" fill="#1C274C"/>
<path d="M17.25 21.9537C17.8152 21.9243 18.3113 21.8762 18.75 21.7978V6.20298C18.3113 6.12453 17.8152 6.07646 17.25 6.047V21.9537Z" fill="#1C274C"/>
</svg>
