<svg width="24" height="24" viewBox="0 0 24 24" fill="none" xmlns="http://www.w3.org/2000/svg">
<g opacity="0.5">
<path fill-rule="evenodd" clip-rule="evenodd" d="M4.57004 17.8664C5.25688 16.7926 6.72749 16.8278 7.4577 17.7625C8.4477 19.0298 9.82965 20.2507 12.0002 20.2507C14.2088 20.2507 15.5699 19.2719 16.5051 18.0216C17.2251 17.0592 18.7909 16.902 19.5458 18.0441C20.1708 18.9898 20.8488 19.7312 22.1722 20.0431C22.5754 20.1381 22.8252 20.5419 22.7302 20.9451C22.6352 21.3483 22.2313 21.5981 21.8282 21.5031C19.9762 21.0667 19.0206 19.9699 18.2944 18.8712C18.2374 18.785 18.1519 18.7413 18.0408 18.7434C17.9223 18.7456 17.7936 18.8034 17.7063 18.9201C16.5386 20.4811 14.7604 21.7507 12.0002 21.7507C9.15759 21.7507 7.38876 20.1108 6.27565 18.6859C6.20392 18.5941 6.11032 18.5592 6.02981 18.5609C5.95388 18.5625 5.88442 18.5953 5.83365 18.6747C5.09416 19.8308 4.13929 21.0396 2.17218 21.5031C1.76901 21.5981 1.36516 21.3483 1.27016 20.9451C1.17516 20.5419 1.42498 20.1381 1.82816 20.0431C3.2291 19.713 3.90775 18.9018 4.57004 17.8664Z" fill="#1C274C"/>
</g>
<g opacity="0.5">
<path fill-rule="evenodd" clip-rule="evenodd" d="M4.57004 12.8059C5.25688 11.732 6.72749 11.7672 7.4577 12.702C8.4477 13.9692 9.82965 15.1901 12.0002 15.1901C14.2088 15.1901 15.5699 14.2113 16.5051 12.9611C17.2251 11.9986 18.7909 11.8414 19.5458 12.9836C20.1708 13.9293 20.8488 14.6707 22.1722 14.9825C22.5754 15.0775 22.8252 15.4814 22.7302 15.8845C22.6352 16.2877 22.2313 16.5375 21.8282 16.4425C19.9762 16.0062 19.0206 14.9094 18.2944 13.8107C18.2374 13.7245 18.1519 13.6807 18.0408 13.6828C17.9223 13.6851 17.7936 13.7428 17.7063 13.8596C16.5386 15.4205 14.7604 16.6901 12.0002 16.6901C9.15759 16.6901 7.38876 15.0502 6.27565 13.6254C6.20392 13.5336 6.11032 13.4986 6.02981 13.5004C5.95388 13.502 5.88442 13.5347 5.83365 13.6141C5.09416 14.7702 4.13929 15.979 2.17218 16.4425C1.76901 16.5375 1.36516 16.2877 1.27016 15.8845C1.17516 15.4814 1.42498 15.0775 1.82816 14.9825C3.2291 14.6524 3.90775 13.8413 4.57004 12.8059Z" fill="#1C274C"/>
</g>
<path d="M19.5 5.50049C19.5 6.8812 18.3808 8.00049 17 8.00049C15.6193 8.00049 14.5 6.8812 14.5 5.50049C14.5 4.11978 15.6193 3.00049 17 3.00049C18.3808 3.00049 19.5 4.11978 19.5 5.50049Z" fill="#1C274C"/>
<path d="M16.6456 12.7943L15.5 11.5005L9.00079 4.13466C8.45849 3.52006 7.51009 3.49045 6.93051 4.07003C6.40547 4.59506 6.37318 5.43581 6.8564 5.99957L7.84412 7.1519C8.44855 7.85708 7.47698 9.41433 7.47698 9.41433L5.11523 12.2594C5.86292 11.7902 6.8866 11.9711 7.45758 12.702C8.44758 13.9692 9.82953 15.1901 12 15.1901C14.2087 15.1901 15.5698 14.2113 16.505 12.9611C16.5489 12.9025 16.5959 12.8468 16.6456 12.7943Z" fill="#1C274C"/>
</svg>
