<svg width="24" height="24" viewBox="0 0 24 24" fill="none" xmlns="http://www.w3.org/2000/svg">
<path opacity="0.5" d="M4.72848 16.1374C3.18295 14.5918 2.41018 13.8191 2.12264 12.8165C1.83509 11.8139 2.08083 10.749 2.57231 8.61924L2.85574 7.39106C3.26922 5.59929 3.47597 4.70341 4.08944 4.08993C4.70292 3.47645 5.5988 3.26971 7.39057 2.85623L8.61875 2.5728C10.7485 2.08132 11.8134 1.83558 12.816 2.12313C13.8186 2.41067 14.5914 3.18344 16.1369 4.72897L17.9665 6.55861L17.9665 6.55861C20.6555 9.2476 22 10.5921 22 12.2628C22 13.9335 20.6555 15.278 17.9665 17.967L17.9665 17.967L17.9665 17.967C15.2775 20.656 13.933 22.0005 12.2623 22.0005C10.5916 22.0005 9.24711 20.656 6.55813 17.967L6.55812 17.967L4.72848 16.1374Z" fill="#1C274C"/>
<path d="M10.1235 7.27184C10.911 8.05943 10.911 9.33636 10.1235 10.1239C9.33587 10.9115 8.05894 10.9115 7.27135 10.1239C6.48377 9.33636 6.48377 8.05943 7.27135 7.27184C8.05894 6.48426 9.33587 6.48426 10.1235 7.27184Z" fill="#1C274C"/>
<path d="M19.0512 12.0519L12.0721 19.0312C11.7793 19.3241 11.3044 19.3241 11.0115 19.0312C10.7186 18.7383 10.7186 18.2634 11.0115 17.9705L17.9905 10.9913C18.2834 10.6984 18.7582 10.6984 19.0511 10.9913C19.344 11.2842 19.344 11.759 19.0512 12.0519Z" fill="#1C274C"/>
</svg>
