<svg width="24" height="24" viewBox="0 0 24 24" fill="none" xmlns="http://www.w3.org/2000/svg">
<path d="M13.1959 2.07137C11.1208 1.81984 8.94969 2.21434 7.00008 3.33995C5.14622 4.41028 3.76471 5.98457 2.92871 7.78986C3.94512 8.5117 6.56318 10.5836 8.53601 14.0006C8.69226 14.2712 8.83784 14.539 8.97347 14.8032C9.09981 15.0494 9.21752 15.2924 9.32719 15.5318C9.4307 15.7578 9.52704 15.9805 9.61671 16.1994C9.70467 16.4143 9.78621 16.6255 9.86178 16.8327C10.9301 19.7615 10.8071 21.8836 10.8043 21.9295C12.2386 22.1033 13.7187 21.9682 15.1398 21.4967C15.2278 21.4675 15.3156 21.437 15.4031 21.4052C15.6118 21.3294 15.819 21.2462 16.0245 21.1556C16.1073 21.1191 16.1898 21.0814 16.272 21.0424C16.5177 20.926 16.7605 20.7988 17.0001 20.6605C18.9497 19.5349 20.3769 17.8519 21.1966 15.929C21.1966 15.929 17.9642 14.3307 15.4642 10.0006C12.9642 5.67049 13.1959 2.07137 13.1959 2.07137Z" fill="#1C274C"/>
<g opacity="0.5">
<path d="M3.83026 17.7682L3.87336 17.8289C4.0828 18.1217 4.30583 18.4002 4.54109 18.6641C4.82414 18.9816 5.12486 19.2779 5.44089 19.5525C5.52558 19.626 5.61137 19.6981 5.69821 19.7685C7.17265 20.9642 8.95022 21.7051 10.8044 21.9299C10.8078 21.8743 10.9276 19.7549 9.86191 16.8331C9.78633 16.6259 9.70479 16.4147 9.61683 16.1999C9.52717 15.9809 9.43082 15.7582 9.32731 15.5322C9.21765 15.2928 9.09993 15.0498 8.97359 14.8037C8.83796 14.5394 8.69238 14.2717 8.53613 14.001C6.5633 10.584 3.94524 8.51211 2.92883 7.79027C1.60797 10.6426 1.64886 14.0716 3.33995 17.0006C3.49331 17.2662 3.65701 17.5222 3.83026 17.7682Z" fill="#1C274C"/>
<path d="M20.6605 7.00062C19.0246 4.1673 16.2117 2.43732 13.196 2.07178C13.196 2.07178 12.9643 5.6709 15.4643 10.001C17.9643 14.3312 21.1967 15.9295 21.1967 15.9295C22.388 13.135 22.2963 9.83393 20.6605 7.00062Z" fill="#1C274C"/>
</g>
</svg>
