<svg width="24" height="24" viewBox="0 0 24 24" fill="none" xmlns="http://www.w3.org/2000/svg">
<path opacity="0.5" d="M2 12.0005C2 7.28644 2 4.92942 3.46447 3.46495C4.92893 2.00049 7.28595 2.00049 12 2.00049C16.714 2.00049 19.0711 2.00049 20.5355 3.46495C22 4.92942 22 7.28644 22 12.0005C22 16.7145 22 19.0716 20.5355 20.536C19.0711 22.0005 16.714 22.0005 12 22.0005C7.28595 22.0005 4.92893 22.0005 3.46447 20.536C2 19.0716 2 16.7145 2 12.0005Z" fill="#1C274C"/>
<path d="M10.6667 6.25043H13.3162C13.3273 6.25018 13.3384 6.25018 13.3495 6.25043H16C16.4142 6.25043 16.75 6.58622 16.75 7.00043C16.75 7.41464 16.4142 7.75043 16 7.75043H13.9095L11.6429 16.2504H13.3333C13.7475 16.2504 14.0833 16.5862 14.0833 17.0004C14.0833 17.4146 13.7475 17.7504 13.3333 17.7504H10.6838C10.6727 17.7507 10.6616 17.7507 10.6505 17.7504H8C7.58579 17.7504 7.25 17.4146 7.25 17.0004C7.25 16.5862 7.58579 16.2504 8 16.2504H10.0905L12.3571 7.75043H10.6667C10.2525 7.75043 9.91667 7.41464 9.91667 7.00043C9.91667 6.58622 10.2525 6.25043 10.6667 6.25043Z" fill="#1C274C"/>
</svg>
