<svg width="24" height="24" viewBox="0 0 24 24" fill="none" xmlns="http://www.w3.org/2000/svg">
<path fill-rule="evenodd" clip-rule="evenodd" d="M4 4.60918C4 2.61616 5.61567 1.00049 7.6087 1.00049H12C15.3137 1.00049 18 3.68678 18 7.00049C18 10.3142 15.3137 13.0005 12 13.0005H4V4.60918ZM7.6087 3.00049C6.72024 3.00049 6 3.72073 6 4.60918V11.0005H12C14.2091 11.0005 16 9.20963 16 7.00049C16 4.79135 14.2091 3.00049 12 3.00049H7.6087Z" fill="#1C274C"/>
<path opacity="0.5" d="M4 13.0004V19.9416C4 21.631 5.36948 23.0004 7.05882 23.0004H14C17.3137 23.0004 20 20.3141 20 17.0004C20 14.4264 18.3791 12.2309 16.1022 11.379C15.0293 12.3846 13.5866 13.0004 12 13.0004H14C16.2091 13.0004 18 14.7913 18 17.0004C18 19.2096 16.2091 21.0004 14 21.0004H7.05882C6.47405 21.0004 6 20.5264 6 19.9416V13.0004H4Z" fill="#1C274C"/>
</svg>
