<svg width="24" height="24" viewBox="0 0 24 24" fill="none" xmlns="http://www.w3.org/2000/svg">
<path opacity="0.5" d="M5.96229 20.1742L5.57866 20.5578C4.98875 21.1477 4.03233 21.1477 3.44243 20.5578C2.85252 19.9679 2.85252 19.0115 3.44243 18.4216L3.82606 18.038C4.25869 17.6053 4.47121 16.9995 4.40364 16.3914L4.31485 15.5923C4.2135 14.6801 4.53228 13.7714 5.18123 13.1224L14.1236 4.18005C15.6967 2.60698 18.2471 2.60697 19.8202 4.18005C21.3933 5.75313 21.3933 8.30359 19.8202 9.87667L10.8778 18.819C10.2289 19.468 9.32013 19.7867 8.40799 19.6854L7.60886 19.5966C7.00076 19.529 6.39492 19.7415 5.96229 20.1742Z" fill="#1C274C"/>
<path d="M12.5176 17.1793L11.4569 18.24C11.4569 18.2399 11.4569 18.24 11.4569 18.24L10.1562 16.9393C9.8633 16.6464 9.8633 16.1715 10.1562 15.8786C10.4491 15.5857 10.924 15.5857 11.2169 15.8786L12.5176 17.1793C12.5176 17.1793 12.5175 17.1793 12.5176 17.1793Z" fill="#1C274C"/>
<path d="M15.7268 13.97L14.6662 15.0307C14.6661 15.0307 14.6662 15.0307 14.6662 15.0307L13.3655 13.73C13.0726 13.4371 13.0726 12.9622 13.3655 12.6693C13.6584 12.3764 14.1332 12.3764 14.4261 12.6693L15.7268 13.97C15.7269 13.9701 15.7268 13.97 15.7268 13.97Z" fill="#1C274C"/>
<path d="M18.9262 10.7706L17.8656 11.8313C17.8655 11.8312 17.8656 11.8313 17.8656 11.8313L16.5649 10.5306C16.272 10.2377 16.272 9.76281 16.5649 9.46991C16.8578 9.17702 17.3327 9.17702 17.6255 9.46991L18.9262 10.7706C18.9263 10.7707 18.9262 10.7706 18.9262 10.7706Z" fill="#1C274C"/>
<path fill-rule="evenodd" clip-rule="evenodd" d="M16.0303 7.96991C16.3232 8.26281 16.3232 8.73768 16.0303 9.03057L9.53033 15.5306C9.23744 15.8235 8.76256 15.8235 8.46967 15.5306C8.17678 15.2377 8.17678 14.7628 8.46967 14.4699L14.9697 7.96991C15.2626 7.67702 15.7374 7.67702 16.0303 7.96991Z" fill="#1C274C"/>
</svg>
