<svg width="24" height="24" viewBox="0 0 24 24" fill="none" xmlns="http://www.w3.org/2000/svg">
<path d="M10.3099 17.3445C11.0774 16.4687 11.4612 16.0308 11.935 16.0023C11.9783 15.9997 12.0217 15.9997 12.065 16.0023C12.5389 16.0308 12.9226 16.4687 13.6901 17.3445C15.3601 19.25 16.1951 20.2028 15.9613 21.0249C15.9412 21.0956 15.9163 21.1643 15.8867 21.2305C15.5426 22.0004 14.3617 22.0004 12 22.0004C9.63827 22.0004 8.45741 22.0004 8.11329 21.2305C8.08371 21.1643 8.05875 21.0956 8.03866 21.0249C7.80489 20.2028 8.63989 19.25 10.3099 17.3445Z" fill="#1C274C"/>
<path d="M14.5 12.5004C14.5 13.8811 13.3807 15.0004 12 15.0004C10.6193 15.0004 9.5 13.8811 9.5 12.5004C9.5 11.1197 10.6193 10.0004 12 10.0004C13.3807 10.0004 14.5 11.1197 14.5 12.5004Z" fill="#1C274C"/>
<g opacity="0.7">
<path fill-rule="evenodd" clip-rule="evenodd" d="M11.9998 8.03509C9.30257 8.03509 7.11605 10.1867 7.11605 12.841C7.11605 14.1682 7.66192 15.3688 8.54646 16.2392C8.81892 16.5073 8.81892 16.942 8.54646 17.2101C8.274 17.4783 7.83226 17.4783 7.5598 17.2101C6.42428 16.0927 5.7207 14.547 5.7207 12.841C5.7207 9.4284 8.53194 6.66199 11.9998 6.66199C15.4676 6.66199 18.2788 9.4284 18.2788 12.841C18.2788 14.547 17.5753 16.0927 16.4397 17.2101C16.1673 17.4783 15.7255 17.4783 15.4531 17.2101C15.1806 16.942 15.1806 16.5073 15.4531 16.2392C16.3376 15.3688 16.8835 14.1682 16.8835 12.841C16.8835 10.1867 14.697 8.03509 11.9998 8.03509Z" fill="#1C274C"/>
</g>
<g opacity="0.4">
<path fill-rule="evenodd" clip-rule="evenodd" d="M12 4.37347C7.24778 4.37347 3.39535 8.16449 3.39535 12.8409C3.39535 15.1794 4.35769 17.2953 5.91559 18.8283C6.18805 19.0965 6.18805 19.5312 5.91559 19.7993C5.64313 20.0674 5.20139 20.0674 4.92893 19.7993C3.12005 18.0192 2 15.5582 2 12.8409C2 7.40614 6.47715 3.00037 12 3.00037C17.5228 3.00037 22 7.40614 22 12.8409C22 15.5582 20.8799 18.0192 19.0711 19.7993C18.7986 20.0674 18.3569 20.0674 18.0844 19.7993C17.8119 19.5312 17.8119 19.0965 18.0844 18.8283C19.6423 17.2953 20.6047 15.1794 20.6047 12.8409C20.6047 8.16449 16.7522 4.37347 12 4.37347Z" fill="#1C274C"/>
</g>
</svg>
