<svg width="24" height="24" viewBox="0 0 24 24" fill="none" xmlns="http://www.w3.org/2000/svg">
<path d="M12 4.00049C12 2.89592 12.8954 2.00049 14 2.00049C15.1046 2.00049 16 2.89592 16 4.00049C16 5.10506 15.1046 6.00049 14 6.00049C12.8954 6.00049 12 5.10506 12 4.00049Z" fill="#1C274C"/>
<path d="M12 10.0005C13.1046 10.0005 14 10.8959 14 12.0005C14 13.1051 13.1046 14.0005 12 14.0005C10.8954 14.0005 10 13.1051 10 12.0005C10 10.8959 10.8954 10.0005 12 10.0005Z" fill="#1C274C"/>
<path d="M10 18.0005C11.1046 18.0005 12 18.8959 12 20.0005C12 21.1051 11.1046 22.0005 10 22.0005C8.89543 22.0005 8 21.1051 8 20.0005C8 18.8959 8.89543 18.0005 10 18.0005Z" fill="#1C274C"/>
<g opacity="0.5">
<path d="M13.8546 12.7505C13.9484 12.5189 14 12.2657 14 12.0005C14 11.7353 13.9484 11.4821 13.8546 11.2505L19 11.2505C19.4142 11.2505 19.75 11.5863 19.75 12.0005C19.75 12.4147 19.4142 12.7505 19 12.7505L13.8546 12.7505Z" fill="#1C274C"/>
<path d="M10.1454 11.2505C10.0516 11.4821 10 11.7353 10 12.0005C10 12.2657 10.0516 12.5189 10.1454 12.7505H5C4.58579 12.7505 4.25 12.4147 4.25 12.0005C4.25 11.5863 4.58579 11.2505 5 11.2505H10.1454Z" fill="#1C274C"/>
<path d="M11.8546 19.2505C11.9484 19.4821 12 19.7353 12 20.0005C12 20.2657 11.9484 20.5189 11.8546 20.7505H19C19.4142 20.7505 19.75 20.4147 19.75 20.0005C19.75 19.5863 19.4142 19.2505 19 19.2505H11.8546Z" fill="#1C274C"/>
<path d="M8.14538 19.2505H5C4.58579 19.2505 4.25 19.5863 4.25 20.0005C4.25 20.4147 4.58579 20.7505 5 20.7505H8.14538C8.05163 20.5189 8 20.2657 8 20.0005C8 19.7353 8.05163 19.4821 8.14538 19.2505Z" fill="#1C274C"/>
<path d="M15.8546 4.75049C15.9484 4.51888 16 4.26571 16 4.00049C16 3.73526 15.9484 3.4821 15.8546 3.25049L19 3.25049C19.4142 3.25049 19.75 3.58628 19.75 4.00049C19.75 4.4147 19.4142 4.75049 19 4.75049L15.8546 4.75049Z" fill="#1C274C"/>
<path d="M12.1454 4.75049C12.0516 4.51888 12 4.26571 12 4.00049C12 3.73526 12.0516 3.4821 12.1454 3.25049L5 3.25049C4.58579 3.25049 4.25 3.58628 4.25 4.00049C4.25 4.4147 4.58579 4.75049 5 4.75049L12.1454 4.75049Z" fill="#1C274C"/>
</g>
</svg>
