<svg width="24" height="24" viewBox="0 0 24 24" fill="none" xmlns="http://www.w3.org/2000/svg">
<path d="M13.7523 14.5C13.7523 12.8431 15.0955 11.5 16.7523 11.5C18.4092 11.5 19.7523 12.8431 19.7523 14.5C19.7523 16.1569 18.4092 17.5 16.7523 17.5C15.0955 17.5 13.7523 16.1569 13.7523 14.5Z" fill="#1C274C"/>
<path d="M3.75232 9.5C3.75232 11.1569 5.09546 12.5 6.75232 12.5C8.40917 12.5 9.75232 11.1569 9.75232 9.5C9.75232 7.84315 8.40917 6.5 6.75232 6.5C5.09547 6.5 3.75232 7.84315 3.75232 9.5Z" fill="#1C274C"/>
<g opacity="0.5">
<path d="M7.46179 6.58416C7.23462 6.52915 6.99735 6.5 6.75327 6.5C6.47931 6.5 6.21394 6.53672 5.96179 6.60551L5.96179 2C5.96179 1.58579 6.29758 1.25 6.71179 1.25C7.12601 1.25 7.46179 1.58579 7.46179 2L7.46179 6.58416Z" fill="#1C274C"/>
<path d="M5.96179 12.3945C6.21394 12.4633 6.47931 12.5 6.75327 12.5C6.99735 12.5 7.23462 12.4709 7.46179 12.4158L7.46179 22C7.46179 22.4142 7.12601 22.75 6.71179 22.75C6.29758 22.75 5.96179 22.4142 5.96179 22L5.96179 12.3945Z" fill="#1C274C"/>
<path d="M15.9618 17.3945V22C15.9618 22.4142 16.2976 22.75 16.7118 22.75C17.126 22.75 17.4618 22.4142 17.4618 22V17.4158C17.2346 17.4708 16.9973 17.5 16.7533 17.5C16.4793 17.5 16.2139 17.4633 15.9618 17.3945Z" fill="#1C274C"/>
<path d="M17.4618 11.5842V2C17.4618 1.58579 17.126 1.25 16.7118 1.25C16.2976 1.25 15.9618 1.58579 15.9618 2V11.6055C16.2139 11.5367 16.4793 11.5 16.7533 11.5C16.9973 11.5 17.2346 11.5291 17.4618 11.5842Z" fill="#1C274C"/>
</g>
</svg>
