<svg width="24" height="24" viewBox="0 0 24 24" fill="none" xmlns="http://www.w3.org/2000/svg">
<path fill-rule="evenodd" clip-rule="evenodd" d="M16 6.00024H13.4163H10.5837H8C5.17157 6.00024 3.75736 6.00024 2.87868 6.87893C2 7.7576 2 9.17182 2 12.0002V16.0002C2 18.8287 2 20.2429 2.87868 21.1216C3.75736 22.0002 5.17157 22.0002 8 22.0002L16 22.0002V6.00024Z" fill="#1C274C"/>
<path opacity="0.5" d="M22 11.9999V15.9999C22 18.8284 22 20.2426 21.1213 21.1212C20.296 21.9466 18.9983 21.9967 16.5 21.9997H16V6.00012H16.5C18.9983 6.00317 20.296 6.0533 21.1213 6.8786C22 7.75728 22 9.1715 22 11.9999Z" fill="#1C274C"/>
<path opacity="0.5" d="M13.4163 6.00024L15.5695 3.48823C15.839 3.17373 15.8026 2.70026 15.4881 2.43069C15.1736 2.16113 14.7001 2.19755 14.4306 2.51204L12 5.34769L9.56946 2.51204C9.29989 2.19755 8.82641 2.16113 8.51192 2.43069C8.19743 2.70026 8.161 3.17374 8.43057 3.48823L10.5837 6.00024H13.4163Z" fill="#1C274C"/>
<path d="M19 11.0001C19.5523 11.0001 20 11.4478 20 12.0001C20 12.5524 19.5523 13.0001 19 13.0001C18.4477 13.0001 18 12.5524 18 12.0001C18 11.4478 18.4477 11.0001 19 11.0001Z" fill="#1C274C"/>
<path d="M19 15.0001C19.5523 15.0001 20 15.4478 20 16.0001C20 16.5524 19.5523 17.0001 19 17.0001C18.4477 17.0001 18 16.5524 18 16.0001C18 15.4478 18.4477 15.0001 19 15.0001Z" fill="#1C274C"/>
</svg>
