<svg width="24" height="24" viewBox="0 0 24 24" fill="none" xmlns="http://www.w3.org/2000/svg">
<path fill-rule="evenodd" clip-rule="evenodd" d="M5.67459 8.59351C3.4317 9.35888 2 10.5228 2 11.8263C2 13.0342 3.22958 14.1223 5.19488 14.8845L3.85699 17.1143C3.64388 17.4695 3.75906 17.9302 4.11424 18.1433C4.46943 18.3564 4.93012 18.2412 5.14323 17.886L6.64323 15.386C6.64924 15.376 6.65498 15.3659 6.66046 15.3558C8.00688 15.7113 9.57078 15.9364 11.2501 15.9884V19.0002C11.2501 19.4144 11.5859 19.7502 12.0001 19.7502C12.4143 19.7502 12.7501 19.4144 12.7501 19.0002V15.9883C14.4294 15.9364 15.9933 15.7113 17.3397 15.3557C17.3452 15.3659 17.351 15.376 17.357 15.386L18.857 17.886C19.0701 18.2412 19.5308 18.3564 19.886 18.1433C20.2412 17.9302 20.3563 17.4695 20.1432 17.1143L18.8053 14.8844C20.7705 14.1223 22 13.0342 22 11.8263C22 10.5228 20.5683 9.35887 18.3254 8.59351C18.2008 8.88378 17.9937 9.17752 17.6568 9.41187C16.8685 9.96014 15.3013 10.5 12 10.5C8.6987 10.5 7.1315 9.96014 6.34322 9.41187C6.00629 9.17752 5.79918 8.88378 5.67459 8.59351ZM13 13C13 13.5523 12.5523 14 12 14C11.4477 14 11 13.5523 11 13C11 12.4478 11.4477 12 12 12C12.5523 12 13 12.4478 13 13ZM7 13C7.55228 13 8 12.5523 8 12C8 11.4478 7.55228 11 7 11C6.44772 11 6 11.4478 6 12C6 12.5523 6.44772 13 7 13ZM18 12C18 12.5523 17.5523 13 17 13C16.4477 13 16 12.5523 16 12C16 11.4478 16.4477 11 17 11C17.5523 11 18 11.4478 18 12Z" fill="#1C274C"/>
<path opacity="0.5" d="M7.05518 8.0054C7.40336 5.73714 9.36329 4 11.729 4H12.2714C14.6371 4 16.597 5.73714 16.9452 8.0054C16.9133 8.07425 16.8662 8.13466 16.8005 8.18039C16.3864 8.4684 15.19 9 12.0002 9C8.81036 9 7.614 8.4684 7.19991 8.18039C7.13417 8.13466 7.08706 8.07425 7.05518 8.0054Z" fill="#1C274C"/>
</svg>
