<svg width="24" height="24" viewBox="0 0 24 24" fill="none" xmlns="http://www.w3.org/2000/svg">
<path opacity="0.5" d="M19.8302 10.4411L18.2959 12.0001L18.1853 12.1107L18.0967 12.0221C17.607 11.152 16.6506 10.1956 15.2274 8.77237C13.8197 7.36468 12.8686 6.41361 12.0061 5.91919L13.6931 4.20493C15.1396 2.73506 15.8629 2.00012 16.7617 2.00012C17.6604 2.00012 18.3837 2.73506 19.8302 4.20493C21.2767 5.67481 22 6.40975 22 7.32301C22 8.23627 21.2767 8.97121 19.8302 10.4411Z" fill="#1C274C"/>
<path fill-rule="evenodd" clip-rule="evenodd" d="M2 14.1423C2 15.4904 3.08489 16.5753 5.25467 18.7451C7.42446 20.9149 8.50935 21.9998 9.85748 21.9998C11.2056 21.9998 12.2905 20.9149 14.4603 18.7451L15.2274 17.978C17.3972 15.8082 18.4821 14.7233 18.4821 13.3752C18.4821 12.027 17.3972 10.9422 15.2274 8.77238C13.0576 6.6026 11.9727 5.5177 10.6246 5.5177C9.27648 5.5177 8.19159 6.60259 6.02181 8.77237L5.25467 9.53951C3.08489 11.7093 2 12.7942 2 14.1423ZM5.78521 13.6124C5.49232 13.3195 5.01745 13.3195 4.72455 13.6124C4.43166 13.9053 4.43166 14.3801 4.72455 14.673L9.32736 19.2758C9.62025 19.5687 10.0951 19.5687 10.388 19.2758C10.6809 18.9829 10.6809 18.5081 10.388 18.2152L5.78521 13.6124Z" fill="#1C274C"/>
<path fill-rule="evenodd" clip-rule="evenodd" d="M19.2476 6.8731C19.5405 7.166 19.5405 7.64087 19.2476 7.93376L18.5405 8.64087C18.2476 8.93376 17.7727 8.93376 17.4798 8.64087C17.187 8.34798 17.187 7.8731 17.4798 7.58021L18.187 6.8731C18.4798 6.58021 18.9547 6.58021 19.2476 6.8731Z" fill="#1C274C"/>
<path fill-rule="evenodd" clip-rule="evenodd" d="M17.1265 4.75201C17.4194 5.0449 17.4194 5.51978 17.1265 5.81267L16.4194 6.51978C16.1265 6.81267 15.6516 6.81267 15.3588 6.51978C15.0659 6.22688 15.0659 5.75201 15.3588 5.45912L16.0659 4.75201C16.3588 4.45912 16.8336 4.45912 17.1265 4.75201Z" fill="#1C274C"/>
</svg>
