<svg width="24" height="24" viewBox="0 0 24 24" fill="none" xmlns="http://www.w3.org/2000/svg">
<path d="M16 6.00049C16 8.20963 14.2091 10.0005 12 10.0005C9.79086 10.0005 8 8.20963 8 6.00049C8 3.79135 9.79086 2.00049 12 2.00049C14.2091 2.00049 16 3.79135 16 6.00049Z" fill="#1C274C"/>
<path opacity="0.5" d="M14.4774 21.9213C13.7513 21.9733 12.9296 22.0005 12 22.0005C4 22.0005 4 19.9858 4 17.5005C4 15.0152 7.58172 13.0005 12 13.0005C14.8806 13.0005 17.4056 13.8569 18.8142 15.1417C18.298 15.0005 17.5737 15.0005 16.5 15.0005C14.8501 15.0005 14.0251 15.0005 13.5126 15.5131C13 16.0256 13 16.8506 13 18.5005C13 20.1504 13 20.9754 13.5126 21.4879C13.7501 21.7254 14.0547 21.8529 14.4774 21.9213Z" fill="#1C274C"/>
<path fill-rule="evenodd" clip-rule="evenodd" d="M13.5126 21.4879C14.0251 22.0005 14.8501 22.0005 16.5 22.0005C18.1499 22.0005 18.9749 22.0005 19.4874 21.4879C20 20.9754 20 20.1504 20 18.5005C20 16.8506 20 16.0256 19.4874 15.5131C18.9749 15.0005 18.1499 15.0005 16.5 15.0005C14.8501 15.0005 14.0251 15.0005 13.5126 15.5131C13 16.0256 13 16.8506 13 18.5005C13 20.1504 13 20.9754 13.5126 21.4879ZM15.9167 17.9172H14.9444C14.6223 17.9172 14.3611 18.1783 14.3611 18.5005C14.3611 18.8227 14.6223 19.0838 14.9444 19.0838H15.9167H17.0833H18.0556C18.3777 19.0838 18.6389 18.8227 18.6389 18.5005C18.6389 18.1783 18.3777 17.9172 18.0556 17.9172H17.0833H15.9167Z" fill="#1C274C"/>
</svg>
