<svg width="24" height="24" viewBox="0 0 24 24" fill="none" xmlns="http://www.w3.org/2000/svg">
<path opacity="0.5" d="M9.59236 3.20079C9.34886 3.4083 9.2271 3.51207 9.09706 3.59923C8.79896 3.79903 8.46417 3.9377 8.1121 4.00721C7.95851 4.03753 7.79903 4.05026 7.48008 4.07571L7.48007 4.07571C6.67869 4.13966 6.278 4.17164 5.94371 4.28972C5.17051 4.56282 4.56233 5.171 4.28923 5.94419C4.17115 6.27849 4.13918 6.67918 4.07523 7.48056L4.07522 7.48057C4.04977 7.79952 4.03705 7.959 4.00672 8.11259C3.93721 8.46466 3.79854 8.79945 3.59874 9.09755C3.51158 9.22759 3.40781 9.34936 3.20028 9.59288L3.20027 9.59289C2.67883 10.2048 2.4181 10.5107 2.26522 10.8306C1.91159 11.5704 1.91159 12.4305 2.26522 13.1704C2.41811 13.4903 2.67883 13.7962 3.20027 14.4081L3.20031 14.4081C3.4078 14.6516 3.51159 14.7734 3.59874 14.9034C3.79854 15.2015 3.93721 15.5363 4.00672 15.8884C4.03705 16.042 4.04977 16.2015 4.07522 16.5204L4.07523 16.5204C4.13918 17.3218 4.17115 17.7225 4.28923 18.0568C4.56233 18.83 5.17051 19.4382 5.94371 19.7113C6.27799 19.8293 6.67867 19.8613 7.48 19.9253L7.48008 19.9253C7.79903 19.9507 7.95851 19.9634 8.1121 19.9938C8.46417 20.0633 8.79896 20.2019 9.09706 20.4017C9.22711 20.4889 9.34887 20.5927 9.5924 20.8002C10.2043 21.3217 10.5102 21.5824 10.8301 21.7353C11.57 22.0889 12.43 22.0889 13.1699 21.7353C13.4898 21.5824 13.7957 21.3217 14.4076 20.8002C14.6511 20.5927 14.7729 20.4889 14.9029 20.4017C15.201 20.2019 15.5358 20.0633 15.8879 19.9938C16.0415 19.9634 16.201 19.9507 16.5199 19.9253L16.52 19.9253C17.3213 19.8613 17.722 19.8293 18.0563 19.7113C18.8295 19.4382 19.4377 18.83 19.7108 18.0568C19.8288 17.7225 19.8608 17.3218 19.9248 16.5205L19.9248 16.5204C19.9502 16.2015 19.963 16.042 19.9933 15.8884C20.0628 15.5363 20.2015 15.2015 20.4013 14.9034C20.4884 14.7734 20.5922 14.6516 20.7997 14.4081C21.3212 13.7962 21.5819 13.4903 21.7348 13.1704C22.0884 12.4305 22.0884 11.5704 21.7348 10.8306C21.5819 10.5107 21.3212 10.2048 20.7997 9.59289C20.5922 9.34936 20.4884 9.22759 20.4013 9.09755C20.2015 8.79945 20.0628 8.46466 19.9933 8.11259C19.963 7.959 19.9502 7.79952 19.9248 7.48057L19.9248 7.48049C19.8608 6.67916 19.8288 6.27848 19.7108 5.94419C19.4377 5.171 18.8295 4.56282 18.0563 4.28972C17.722 4.17164 17.3213 4.13966 16.5199 4.07571L16.5199 4.07571C16.201 4.05026 16.0415 4.03753 15.8879 4.00721C15.5358 3.9377 15.201 3.79903 14.9029 3.59923C14.7729 3.51206 14.6511 3.4083 14.4076 3.20076C13.7957 2.67932 13.4898 2.41859 13.1699 2.2657C12.43 1.91208 11.57 1.91208 10.8301 2.2657C10.5102 2.41859 10.2043 2.67932 9.5924 3.20076L9.59236 3.20079Z" fill="#1C274C"/>
<path d="M16.3736 9.86347C16.6914 9.54563 16.6914 9.03033 16.3736 8.71249C16.0557 8.39466 15.5404 8.39466 15.2226 8.71249L10.3723 13.5627L8.77753 11.9679C8.4597 11.6501 7.94439 11.6501 7.62656 11.9679C7.30873 12.2858 7.30873 12.8011 7.62656 13.1189L9.79685 15.2892C10.1147 15.607 10.63 15.607 10.9478 15.2892L16.3736 9.86347Z" fill="#1C274C"/>
</svg>
