<svg width="24" height="24" viewBox="0 0 24 24" fill="none" xmlns="http://www.w3.org/2000/svg">
<path fill-rule="evenodd" clip-rule="evenodd" d="M18.9998 12.0567C19.031 15.9226 15.9224 19.0312 12.0565 19C8.19062 18.9688 5.03143 15.8096 5.00023 11.9438C4.96904 8.07789 8.07765 4.96928 11.9435 5.00048C15.8094 5.03167 18.9686 8.19087 18.9998 12.0567ZM14.5 10.2502C12.9812 10.2502 11.75 11.4815 11.75 13.0002C11.75 14.519 12.9812 15.7502 14.5 15.7502C16.0188 15.7502 17.25 14.519 17.25 13.0002C17.25 11.4815 16.0188 10.2502 14.5 10.2502ZM8.25 9.00024C8.25 8.03375 9.0335 7.25024 10 7.25024C10.9665 7.25024 11.75 8.03375 11.75 9.00024C11.75 9.96674 10.9665 10.7502 10 10.7502C9.0335 10.7502 8.25 9.96674 8.25 9.00024ZM9 14.0002C9.55228 14.0002 10 13.5525 10 13.0002C10 12.448 9.55228 12.0002 9 12.0002C8.44772 12.0002 8 12.448 8 13.0002C8 13.5525 8.44772 14.0002 9 14.0002Z" fill="#1C274C"/>
<path opacity="0.5" d="M13.25 13.0002C13.25 12.3099 13.8096 11.7502 14.5 11.7502C15.1904 11.7502 15.75 12.3099 15.75 13.0002C15.75 13.6906 15.1904 14.2502 14.5 14.2502C13.8096 14.2502 13.25 13.6906 13.25 13.0002Z" fill="#1C274C"/>
<circle cx="19.5" cy="4.50024" r="1.5" fill="#1C274C"/>
<path opacity="0.5" d="M18.0508 4.88879L16.4197 6.51995C16.3968 6.5428 16.3757 6.56676 16.3564 6.59166C16.7424 6.90507 17.0952 7.25789 17.4086 7.64383C17.4335 7.62454 17.4575 7.60346 17.4803 7.58061L19.1115 5.94944C18.5953 5.81141 18.1889 5.40495 18.0508 4.88879Z" fill="#1C274C"/>
<circle cx="1.5" cy="1.5" r="1.5" transform="matrix(1 0 0 -1 17.0498 21.05)" fill="#1C274C"/>
<path opacity="0.5" d="M9.63062 18.55L9.87806 19.2502C10.1866 20.1231 11.019 20.7504 11.9999 20.7504C12.9807 20.7504 13.8132 20.1231 14.1217 19.2502L14.3384 18.6371C13.6242 18.8785 12.8566 19.0065 12.0564 19.0001C11.2049 18.9932 10.3877 18.8346 9.63062 18.55Z" fill="#1C274C"/>
<path opacity="0.5" d="M5.11277 10.6307C4.92568 10.5469 4.71829 10.5002 4.5 10.5002C3.67157 10.5002 3 11.1718 3 12.0002C3 12.8287 3.67157 13.5002 4.5 13.5002C4.73401 13.5002 4.9555 13.4467 5.15287 13.3511C5.05656 12.8961 5.00412 12.4254 5.00023 11.9438C4.99661 11.4946 5.03537 11.0557 5.11277 10.6307Z" fill="#1C274C"/>
<path opacity="0.5" d="M18.8633 13.4941C18.9566 13.0306 19.0037 12.5498 18.9997 12.0567C18.9954 11.5262 18.9322 11.009 18.8164 10.5114C18.8766 10.504 18.9378 10.5002 18.9999 10.5002C19.8284 10.5002 20.4999 11.1718 20.4999 12.0002C20.4999 12.8287 19.8284 13.5002 18.9999 13.5002C18.9539 13.5002 18.9083 13.4982 18.8633 13.4941Z" fill="#1C274C"/>
<path opacity="0.5" d="M13.3508 5.15311C13.4464 4.95574 13.5 4.73425 13.5 4.50024C13.5 3.67182 12.8284 3.00024 12 3.00024C11.1716 3.00024 10.5 3.67182 10.5 4.50024C10.5 4.71853 10.5466 4.92593 10.6305 5.11302C11.0554 5.03561 11.4944 4.99685 11.9435 5.00048C12.4252 5.00436 12.8958 5.0568 13.3508 5.15311Z" fill="#1C274C"/>
<path d="M17.1006 19.1615L15.8486 17.9095C16.2737 17.6361 16.6663 17.3171 17.0197 16.9592L18.1613 18.1008C17.6451 18.2389 17.2387 18.6453 17.1006 19.1615Z" fill="#1C274C"/>
<circle cx="2" cy="2" r="2" transform="matrix(-1 0 0 1 6 2.00024)" fill="#1C274C"/>
<path opacity="0.5" d="M4.78101 5.84203C5.25749 5.6397 5.63933 5.25786 5.84167 4.78137L7.53026 6.46997C7.54348 6.48318 7.55609 6.49677 7.56811 6.51069C7.17813 6.8237 6.82333 7.1785 6.51031 7.56847C6.49639 7.55645 6.48281 7.54384 6.4696 7.53063L4.78101 5.84203Z" fill="#1C274C"/>
<circle cx="5" cy="20.0002" r="2" transform="rotate(180 5 20.0002)" fill="#1C274C"/>
<path opacity="0.5" d="M5.81567 18.1736L7.08494 16.9043C7.44026 17.2604 7.8328 17.5793 8.25603 17.8545L6.8563 19.2543C6.66276 18.7731 6.28759 18.3846 5.81567 18.1736Z" fill="#1C274C"/>
</svg>
