<svg width="24" height="24" viewBox="0 0 24 24" fill="none" xmlns="http://www.w3.org/2000/svg">
<path d="M10.5766 12.3993C9.64853 13.5801 8.49484 14.5403 7.19986 15.2384C5.62198 11.4344 5.51513 7.26298 6.87932 3.40917C7.93127 2.78082 9.1083 2.34019 10.3642 2.13354L10.1849 2.55938C8.86607 5.69151 9.08193 9.24006 10.7467 12.1829L10.5766 12.3993Z" fill="#1C274C"/>
<path d="M4.8586 5.00038C3.09033 6.80413 2 9.27494 2 12.0004C2 13.6178 2.38398 15.1455 3.06576 16.4974C4.01958 16.4045 4.94937 16.1878 5.83307 15.8582C4.37799 12.3762 4.05507 8.60493 4.86431 4.99455L4.8586 5.00038Z" fill="#1C274C"/>
<g opacity="0.7">
<path d="M12.0171 12.9937C13.94 13.0392 15.7856 13.5934 17.38 14.5631C14.4914 17.5985 10.3916 19.7032 6.21503 20.1579C5.33563 19.5332 4.56159 18.7698 3.9248 17.8996C7.00233 17.4194 9.8119 15.7994 11.756 13.3259L12.0171 12.9937Z" fill="#1C274C"/>
<path d="M20.4402 17.3655C18.6653 20.1519 15.5485 22.0001 12 22.0001C10.7178 22.0001 9.49189 21.7588 8.36533 21.319C12.2684 20.4479 15.9424 18.3135 18.6152 15.4392C19.2956 15.9981 19.91 16.6435 20.4402 17.3655Z" fill="#1C274C"/>
</g>
<g opacity="0.4">
<path d="M21.6242 11.3586L21.6263 11.3606L21.9966 11.7332C21.999 11.822 22.0001 11.911 22.0001 12.0004C22.0001 13.3881 21.7175 14.7097 21.2066 15.911C18.9643 13.2089 15.6377 11.5876 12.0813 11.4951C11.2525 10.0507 10.8303 8.43522 10.8281 6.8116C14.8827 6.89038 18.7528 8.51817 21.6242 11.3586Z" fill="#1C274C"/>
<path d="M10.946 5.31383C11.0639 4.57568 11.2707 3.84635 11.5675 3.14144L12.0479 2.00049C16.6315 2.02191 20.4865 5.12718 21.6446 9.34816C18.6557 6.83937 14.8812 5.41039 10.946 5.31383Z" fill="#1C274C"/>
</g>
</svg>
