<svg width="24" height="24" viewBox="0 0 24 24" fill="none" xmlns="http://www.w3.org/2000/svg">
<path d="M14.25 19.0004H15.75C18.0674 18.9951 19.3075 18.9381 20.2223 18.3268C20.659 18.035 21.034 17.66 21.3259 17.2232C22 16.2143 22 14.8098 22 12.0009C22 9.19199 22 7.78753 21.3259 6.77864C21.034 6.34188 20.659 5.96687 20.2223 5.67504C19.3075 5.06378 18.0674 5.00678 15.75 5.00146H14.25V9.00049H15C16.6569 9.00049 18 10.3436 18 12.0005C18 13.6573 16.6569 15.0005 15 15.0005H14.25V19.0004Z" fill="#1C274C"/>
<path d="M9.75 19.0004V15.0005H9C7.34315 15.0005 6 13.6573 6 12.0005C6 10.3436 7.34315 9.00049 9 9.00049H9.75V5.00146H8.25C5.93257 5.00678 4.69253 5.06378 3.77772 5.67504C3.34096 5.96687 2.96596 6.34188 2.67412 6.77864C2 7.78753 2 9.19199 2 12.0009C2 14.8098 2 16.2143 2.67412 17.2232C2.96596 17.66 3.34096 18.035 3.77772 18.3268C4.69253 18.9381 5.93258 18.9951 8.25 19.0004H9.75Z" fill="#1C274C"/>
<path opacity="0.5" d="M9.75 19.0005L14.25 19.0005V5.00049H9.75V19.0005Z" fill="#1C274C"/>
</svg>
