<svg width="24" height="24" viewBox="0 0 24 24" fill="none" xmlns="http://www.w3.org/2000/svg">
<path opacity="0.5" d="M5 4.89486C5 3.84843 5.8483 3.00012 6.89474 3.00012H17.1053C18.1517 3.00012 19 3.84842 19 4.89486V8.00012C19 11.8661 15.866 15.0001 12 15.0001C8.13401 15.0001 5 11.8661 5 8.00012V4.89486Z" fill="#1C274C"/>
<path fill-rule="evenodd" clip-rule="evenodd" d="M11.25 20.2501H8.25C7.83579 20.2501 7.5 20.5858 7.5 21.0001C7.5 21.4143 7.83579 21.7501 8.25 21.7501H15.75C16.1642 21.7501 16.5 21.4143 16.5 21.0001C16.5 20.5858 16.1642 20.2501 15.75 20.2501H12.75H11.25Z" fill="#1C274C"/>
<path fill-rule="evenodd" clip-rule="evenodd" d="M12 15.0001C15.5162 15.0001 18.4268 12.4076 18.9248 9.02986C18.5226 9.18692 16.5932 9.91575 15.2308 9.993C13.9033 10.0683 12.9517 9.5342 12 9.00012C11.0483 8.46605 10.0967 7.93198 8.76923 8.00725C7.39748 8.08503 5.45088 8.82337 5.06714 8.97354C5.54089 12.3788 8.46432 15.0001 12 15.0001Z" fill="#1C274C"/>
<path opacity="0.5" d="M12.75 14.9604C12.5037 14.9867 12.2535 15.0001 12.0002 15.0001C11.7468 15.0001 11.4965 14.9867 11.25 14.9604V20.2501H12.75V14.9604Z" fill="#1C274C"/>
</svg>
