<svg width="24" height="24" viewBox="0 0 24 24" fill="none" xmlns="http://www.w3.org/2000/svg">
<path d="M5.04476 3.25049C5.47757 3.25044 5.8744 3.25039 6.19721 3.29379C6.5527 3.34159 6.92842 3.45404 7.23744 3.76306C7.54647 4.07208 7.65891 4.44781 7.70671 4.80329C7.70965 4.82517 7.71239 4.8474 7.71495 4.86996C7.74874 5.16807 7.65868 5.46443 7.51814 5.7295C7.43113 5.89361 7.26124 6.0001 7.07549 6.00034L6.92963 6.00049C6.04546 6.00047 5.3158 6.00046 4.72337 6.0535C4.10735 6.10864 3.54349 6.22722 3.02264 6.52341C2.74177 6.68314 2.48257 6.87557 2.25001 7.09575L2.25 5.95575C2.24995 5.52293 2.24991 5.1261 2.29331 4.80329C2.3411 4.44781 2.45355 4.07208 2.76257 3.76306C3.07159 3.45404 3.44732 3.34159 3.8028 3.29379C4.12561 3.25039 4.52244 3.25044 4.95526 3.25049H5.04476Z" fill="#1C274C"/>
<path fill-rule="evenodd" clip-rule="evenodd" d="M22 14.0005V11.9756C22 10.1299 22 9.20712 21.6078 8.51747C21.3409 8.04816 20.9523 7.65957 20.483 7.39268C19.7934 7.00049 18.8706 7.00049 17.0249 7.00049H16.7454C16.6224 7.00049 16.561 7.00049 16.5042 6.99399C16.2083 6.9601 15.943 6.79608 15.7803 6.54658C15.7491 6.49876 15.7216 6.44378 15.6667 6.33382C15.5567 6.11394 15.5017 6.00394 15.4394 5.90831C15.1141 5.4093 14.5833 5.08126 13.9915 5.01348C13.8781 5.00049 13.7552 5.00049 13.5093 5.00049H10.4907C10.2448 5.00049 10.1219 5.00049 10.0085 5.01348C9.41668 5.08126 8.8859 5.4093 8.56062 5.90831C8.49827 6.00395 8.44329 6.11391 8.33333 6.33382C8.27838 6.44372 8.25086 6.49877 8.21969 6.54658C8.05705 6.79608 7.79166 6.9601 7.49576 6.99399C7.43905 7.00049 7.37758 7.00049 7.25464 7.00049H6.97508C5.12945 7.00049 4.20663 7.00049 3.51698 7.39268C3.04767 7.65957 2.65908 8.04816 2.39219 8.51747C2 9.20712 2 10.1299 2 11.9756V14.0005C2 16.8289 2 18.2431 2.87868 19.1218C3.75736 20.0005 5.17157 20.0005 8 20.0005H16C18.8284 20.0005 20.2426 20.0005 21.1213 19.1218C22 18.2431 22 16.8289 22 14.0005ZM17.25 12.0005C17.25 11.5863 16.9142 11.2505 16.5 11.2505C16.0858 11.2505 15.75 11.5863 15.75 12.0005V12.7505H15C14.5858 12.7505 14.25 13.0863 14.25 13.5005C14.25 13.9147 14.5858 14.2505 15 14.2505H15.75V15.0005C15.75 15.4147 16.0858 15.7505 16.5 15.7505C16.9142 15.7505 17.25 15.4147 17.25 15.0005V14.2505H18C18.4142 14.2505 18.75 13.9147 18.75 13.5005C18.75 13.0863 18.4142 12.7505 18 12.7505H17.25V12.0005ZM6 12.7505C5.58579 12.7505 5.25 13.0863 5.25 13.5005C5.25 13.9147 5.58579 14.2505 6 14.2505H9C9.41421 14.2505 9.75 13.9147 9.75 13.5005C9.75 13.0863 9.41421 12.7505 9 12.7505H6Z" fill="#1C274C"/>
<path d="M20.1972 3.29379C19.8744 3.25039 19.4776 3.25044 19.0448 3.25049H18.9553C18.5224 3.25044 18.1256 3.25039 17.8028 3.29379C17.4473 3.34159 17.0716 3.45404 16.7626 3.76306C16.4535 4.07208 16.3411 4.44781 16.2933 4.80329C16.2903 4.82567 16.2875 4.8484 16.2849 4.87148C16.2513 5.16862 16.3407 5.46409 16.4796 5.72891C16.5651 5.89196 16.733 5.99804 16.9171 5.99937L17.0704 6.00049C17.9545 6.00047 18.6842 6.00046 19.2766 6.0535C19.8927 6.10864 20.4565 6.22722 20.9774 6.52341C21.2582 6.68315 21.5174 6.87558 21.75 7.09576L21.75 5.95575C21.7501 5.52296 21.7501 5.12608 21.7067 4.80329C21.6589 4.44781 21.5465 4.07208 21.2374 3.76306C20.9284 3.45404 20.5527 3.34159 20.1972 3.29379Z" fill="#1C274C"/>
</svg>
