<svg width="24" height="24" viewBox="0 0 24 24" fill="none" xmlns="http://www.w3.org/2000/svg">
<path d="M20.9094 13.3321L13.3319 20.9096C15.4517 22.5131 18.4829 22.3484 20.4155 20.4158C22.3482 18.4831 22.5128 15.4519 20.9094 13.3321Z" fill="#1C274C"/>
<path fill-rule="evenodd" clip-rule="evenodd" d="M12.2347 19.8855L19.8852 12.235L11.7653 4.11505L4.1148 11.7655L12.2347 19.8855ZM9.87864 11.2931C10.2692 11.6837 10.2692 12.3168 9.87864 12.7074C9.48812 13.0979 8.85496 13.0979 8.46443 12.7074C8.07391 12.3168 8.07391 11.6837 8.46443 11.2931C8.85496 10.9026 9.48812 10.9026 9.87864 11.2931ZM12.7073 15.5357C13.0978 15.1452 13.0978 14.512 12.7073 14.1215C12.3167 13.731 11.6836 13.731 11.293 14.1215C10.9025 14.512 10.9025 15.1452 11.293 15.5357C11.6836 15.9262 12.3167 15.9262 12.7073 15.5357ZM12.7073 8.46477C13.0978 8.85529 13.0978 9.48846 12.7073 9.87898C12.3167 10.2695 11.6836 10.2695 11.293 9.87898C10.9025 9.48846 10.9025 8.85529 11.293 8.46477C11.6836 8.07424 12.3167 8.07424 12.7073 8.46477ZM15.5354 12.7074C15.9259 12.3168 15.9259 11.6837 15.5354 11.2931C15.1449 10.9026 14.5117 10.9026 14.1212 11.2931C13.7306 11.6837 13.7306 12.3168 14.1212 12.7074C14.5117 13.0979 15.1449 13.0979 15.5354 12.7074Z" fill="#1C274C"/>
<path d="M3.09061 10.6684L10.6682 3.09085C8.54835 1.48742 5.51714 1.65204 3.58447 3.58471C1.65179 5.51739 1.48717 8.54859 3.09061 10.6684Z" fill="#1C274C"/>
</svg>
