<svg width="24" height="24" viewBox="0 0 24 24" fill="none" xmlns="http://www.w3.org/2000/svg">
<path fill-rule="evenodd" clip-rule="evenodd" d="M12 22.0006C16.9705 22.0006 21 17.9712 21 13.0006C21 8.03003 16.9705 4.00059 12 4.00059C7.02942 4.00059 2.99998 8.03003 2.99998 13.0006C2.99998 17.9712 7.02942 22.0006 12 22.0006ZM12 9.25059C12.4142 9.25059 12.75 9.58638 12.75 10.0006V12.2506H15C15.4142 12.2506 15.75 12.5864 15.75 13.0006C15.75 13.4148 15.4142 13.7506 15 13.7506H12.75L12.75 16.0006C12.75 16.4148 12.4142 16.7506 12 16.7506C11.5858 16.7506 11.25 16.4148 11.25 16.0006V13.7506H8.99998C8.58576 13.7506 8.24998 13.4148 8.24998 13.0006C8.24998 12.5864 8.58576 12.2506 8.99998 12.2506H11.25L11.25 10.0006C11.25 9.58638 11.5858 9.25059 12 9.25059Z" fill="#1C274C"/>
<path fill-rule="evenodd" clip-rule="evenodd" d="M8.136 1.60309C8.35553 1.95434 8.24875 2.41706 7.8975 2.63659L3.89748 5.13659C3.54622 5.35612 3.08351 5.24934 2.86398 4.89809C2.64445 4.54683 2.75123 4.08412 3.10248 3.86459L7.1025 1.36459C7.45376 1.14506 7.91647 1.25184 8.136 1.60309ZM15.864 1.60309C16.0835 1.25184 16.5462 1.14506 16.8975 1.36459L20.8975 3.86459C21.2487 4.08412 21.3555 4.54684 21.136 4.89809C20.9164 5.24934 20.4537 5.35612 20.1025 5.13659L16.1025 2.63659C15.7512 2.41705 15.6444 1.95434 15.864 1.60309Z" fill="#1C274C"/>
</svg>
