<svg width="24" height="24" viewBox="0 0 24 24" fill="none" xmlns="http://www.w3.org/2000/svg">
<path fill-rule="evenodd" clip-rule="evenodd" d="M12 22.0006C16.9706 22.0006 21 17.9712 21 13.0006C21 8.03003 16.9706 4.00059 12 4.00059C7.02945 4.00059 3.00001 8.03003 3.00001 13.0006C3.00001 17.9712 7.02945 22.0006 12 22.0006ZM13.0261 10.2755C12.7889 10.1089 12.5201 9.93656 12.2419 9.76738C11.1695 9.11525 10.6333 8.78918 10.1524 9.15019C9.67151 9.5112 9.6278 10.2669 9.54039 11.7784C9.51567 12.2059 9.50001 12.6249 9.50001 13.0006C9.50001 13.3762 9.51567 13.7953 9.54039 14.2227C9.6278 15.7342 9.67151 16.49 10.1524 16.851C10.6333 17.212 11.1695 16.8859 12.2419 16.2338C12.5201 16.0646 12.7889 15.8923 13.0261 15.7257C13.2966 15.5358 13.5909 15.3079 13.8876 15.0658C14.9625 14.1889 15.5 13.7505 15.5 13.0006C15.5 12.2507 14.9625 11.8123 13.8876 10.9354C13.5909 10.6933 13.2966 10.4654 13.0261 10.2755Z" fill="#1C274C"/>
<path fill-rule="evenodd" clip-rule="evenodd" d="M8.13603 1.60309C8.35556 1.95434 8.24878 2.41706 7.89753 2.63659L3.89751 5.13659C3.54625 5.35612 3.08354 5.24934 2.86401 4.89809C2.64448 4.54683 2.75126 4.08412 3.10251 3.86459L7.10253 1.36459C7.45379 1.14506 7.9165 1.25184 8.13603 1.60309ZM15.864 1.60309C16.0835 1.25184 16.5463 1.14506 16.8975 1.36459L20.8975 3.86459C21.2488 4.08412 21.3555 4.54684 21.136 4.89809C20.9165 5.24934 20.4538 5.35612 20.1025 5.13659L16.1025 2.63659C15.7513 2.41705 15.6445 1.95434 15.864 1.60309Z" fill="#1C274C"/>
</svg>
