<svg width="24" height="24" viewBox="0 0 24 24" fill="none" xmlns="http://www.w3.org/2000/svg">
<path fill-rule="evenodd" clip-rule="evenodd" d="M12 22.0006C16.9706 22.0006 21 17.9712 21 13.0006C21 8.03003 16.9706 4.00059 12 4.00059C7.02943 4.00059 2.99999 8.03003 2.99999 13.0006C2.99999 17.9712 7.02943 22.0006 12 22.0006ZM14.6516 10.3489C14.9445 10.6418 14.9445 11.1167 14.6516 11.4096L13.0606 13.0006L14.6516 14.5916C14.9445 14.8845 14.9445 15.3594 14.6516 15.6523C14.3587 15.9452 13.8839 15.9452 13.591 15.6523L12 14.0613L10.409 15.6522C10.1161 15.9451 9.64124 15.9451 9.34834 15.6522C9.05545 15.3593 9.05545 14.8845 9.34834 14.5916L10.9393 13.0006L9.34833 11.4096C9.05543 11.1167 9.05543 10.6418 9.34833 10.349C9.64122 10.0561 10.1161 10.0561 10.409 10.349L12 11.9399L13.591 10.3489C13.8839 10.056 14.3588 10.056 14.6516 10.3489Z" fill="#1C274C"/>
<path fill-rule="evenodd" clip-rule="evenodd" d="M8.13602 1.60309C8.35555 1.95434 8.24877 2.41706 7.89751 2.63659L3.89749 5.13659C3.54624 5.35612 3.08353 5.24934 2.86399 4.89809C2.64446 4.54683 2.75124 4.08412 3.1025 3.86459L7.10252 1.36459C7.45377 1.14506 7.91649 1.25184 8.13602 1.60309ZM15.864 1.60309C16.0835 1.25184 16.5462 1.14506 16.8975 1.36459L20.8975 3.86459C21.2487 4.08412 21.3555 4.54684 21.136 4.89809C20.9165 5.24934 20.4537 5.35612 20.1025 5.13659L16.1025 2.63659C15.7512 2.41705 15.6445 1.95434 15.864 1.60309Z" fill="#1C274C"/>
</svg>
