<svg width="24" height="24" viewBox="0 0 24 24" fill="none" xmlns="http://www.w3.org/2000/svg">
<path fill-rule="evenodd" clip-rule="evenodd" d="M11.5 21.0004H12.5C16.2712 21.0004 18.1569 21.0004 19.3284 19.8288C20.5 18.6572 20.5 16.7716 20.5 13.0004V7.99841C20.3548 8.00045 20.1509 8.00041 20 8.00038H4C3.84905 8.00041 3.6452 8.00045 3.5 7.99841V13.0004C3.5 16.7716 3.5 18.6572 4.67157 19.8288C5.84315 21.0004 7.72876 21.0004 11.5 21.0004ZM15.0595 11.4999C15.3353 11.1909 15.3085 10.7168 14.9995 10.4409C14.6905 10.165 14.2164 10.1919 13.9406 10.5009L10.9286 13.8743L10.0595 12.9009C9.78359 12.5919 9.30947 12.565 9.0005 12.8409C8.69152 13.1168 8.66468 13.5909 8.94055 13.8999L10.3691 15.4999C10.5114 15.6593 10.7149 15.7504 10.9286 15.7504C11.1422 15.7504 11.3457 15.6593 11.488 15.4999L15.0595 11.4999Z" fill="#1C274C"/>
<path d="M2 5.00037C2 4.05756 2 3.58615 2.29289 3.29326C2.58579 3.00037 3.05719 3.00037 4 3.00037H20C20.9428 3.00037 21.4142 3.00037 21.7071 3.29326C22 3.58615 22 4.05756 22 5.00037C22 5.94318 22 6.41458 21.7071 6.70747C21.4142 7.00037 20.9428 7.00037 20 7.00037H4C3.05719 7.00037 2.58579 7.00037 2.29289 6.70747C2 6.41458 2 5.94318 2 5.00037Z" fill="#1C274C"/>
</svg>
