<svg width="24" height="24" viewBox="0 0 24 24" fill="none" xmlns="http://www.w3.org/2000/svg">
<path fill-rule="evenodd" clip-rule="evenodd" d="M8.25 7.002L8.25 6.00049C8.25 3.92942 9.92893 2.25049 12 2.25049C14.0711 2.25049 15.75 3.92942 15.75 6.00049V7.00049L15.75 7.002C18.4344 7.01409 19.8606 7.12268 20.6606 8.09852C21.5608 9.19656 21.2287 10.8568 20.5646 14.1772L19.9646 17.1772C19.5029 19.4861 19.272 20.6405 18.4425 21.3205C17.6131 22.0005 16.4358 22.0005 14.0812 22.0005H9.9188C7.56417 22.0005 6.38686 22.0005 5.55742 21.3205C4.72799 20.6405 4.4971 19.4861 4.03532 17.1772L3.43532 14.1772C2.77123 10.8568 2.43919 9.19656 3.33936 8.09852C4.13936 7.12268 5.56562 7.01409 8.25 7.002ZM9.75 6.00049C9.75 4.75785 10.7574 3.75049 12 3.75049C13.2426 3.75049 14.25 4.75785 14.25 6.00049V7.00049H9.75V6.00049ZM15 11.0005C15.5523 11.0005 16 10.5528 16 10.0005C16 9.4482 15.5523 9.00049 15 9.00049C14.4477 9.00049 14 9.4482 14 10.0005C14 10.5528 14.4477 11.0005 15 11.0005ZM9.99998 10.0005C9.99998 10.5528 9.55226 11.0005 8.99998 11.0005C8.44769 11.0005 7.99998 10.5528 7.99998 10.0005C7.99998 9.4482 8.44769 9.00049 8.99998 9.00049C9.55226 9.00049 9.99998 9.4482 9.99998 10.0005Z" fill="#1C274C"/>
</svg>
