<svg width="24" height="24" viewBox="0 0 24 24" fill="none" xmlns="http://www.w3.org/2000/svg">
<path fill-rule="evenodd" clip-rule="evenodd" d="M8.25014 6.01538C8.25005 6.01043 8.25 6.00546 8.25 6.00049V5.00049C8.25 2.92942 9.92893 1.25049 12 1.25049C14.0711 1.25049 15.75 2.92942 15.75 5.00049V6.00049C15.75 6.00547 15.75 6.01043 15.7499 6.01538C17.0371 6.05402 17.8248 6.19289 18.4261 6.69196C19.2593 7.38343 19.4787 8.55387 19.9177 10.8948L20.6677 14.8948C21.2849 18.1865 21.5934 19.8323 20.6937 20.9164C19.794 22.0005 18.1195 22.0005 14.7704 22.0005H9.22954C5.88048 22.0005 4.20595 22.0005 3.30624 20.9164C2.40652 19.8323 2.71512 18.1865 3.33231 14.8948L4.08231 10.8948C4.52122 8.55388 4.74068 7.38343 5.57386 6.69196C6.17521 6.19288 6.96288 6.05402 8.25014 6.01538ZM9.75 5.00049C9.75 3.75785 10.7574 2.75049 12 2.75049C13.2426 2.75049 14.25 3.75785 14.25 5.00049V6.00049C14.25 6.00048 14.25 6.0005 14.25 6.00049C14.1747 6.00046 14.0982 6.00049 14.0204 6.00049H9.97954C9.90177 6.00049 9.82526 6.00049 9.75 6.00051C9.75 6.0005 9.75 6.00052 9.75 6.00051V5.00049ZM15.4685 10.9149C15.792 11.1736 15.8444 11.6456 15.5856 11.969L11.5856 16.969C11.4524 17.1356 11.2545 17.2376 11.0415 17.2494C10.8285 17.2612 10.6205 17.1817 10.4697 17.0308L8.46965 15.0308C8.17676 14.738 8.17676 14.2631 8.46965 13.9702C8.76255 13.6773 9.23742 13.6773 9.53031 13.9702L10.9375 15.3773L14.4143 11.032C14.6731 10.7085 15.1451 10.6561 15.4685 10.9149Z" fill="#1C274C"/>
</svg>
