<svg width="24" height="24" viewBox="0 0 24 24" fill="none" xmlns="http://www.w3.org/2000/svg">
<path fill-rule="evenodd" clip-rule="evenodd" d="M8.25012 7.01394C8.25004 7.00947 8.25 7.00498 8.25 7.00049V6.00049C8.25 3.92942 9.92893 2.25049 12 2.25049C14.0711 2.25049 15.75 3.92942 15.75 6.00049V7.00049C15.75 7.00498 15.75 7.00947 15.7499 7.01395C17.0472 7.05024 17.8375 7.18442 18.4425 7.68046C19.272 8.36044 19.5029 9.51489 19.9646 11.8238L20.5646 14.8238C21.2287 18.1442 21.5608 19.8044 20.6606 20.9025C19.7604 22.0005 18.0673 22.0005 14.6812 22.0005H9.3188C5.93262 22.0005 4.23954 22.0005 3.33936 20.9025C2.43919 19.8044 2.77123 18.1442 3.43532 14.8238L4.03532 11.8238C4.4971 9.51489 4.72799 8.36044 5.55742 7.68046C6.16251 7.18441 6.95273 7.05024 8.25012 7.01394ZM9.75 6.00049C9.75 4.75785 10.7574 3.75049 12 3.75049C13.2426 3.75049 14.25 4.75785 14.25 6.00049V7.00049C14.25 7.00048 14.25 7.00049 14.25 7.00049C14.1944 7.00048 14.1381 7.00049 14.0812 7.00049H9.9188C9.86185 7.00049 9.80559 7.00049 9.75 7.0005C9.75 7.00049 9.75 7.0005 9.75 7.0005V6.00049ZM15 11.0005C15.5523 11.0005 16 10.5528 16 10.0005C16 9.4482 15.5523 9.00049 15 9.00049C14.4477 9.00049 14 9.4482 14 10.0005C14 10.5528 14.4477 11.0005 15 11.0005ZM9.99998 10.0005C9.99998 10.5528 9.55226 11.0005 8.99998 11.0005C8.44769 11.0005 7.99998 10.5528 7.99998 10.0005C7.99998 9.4482 8.44769 9.00049 8.99998 9.00049C9.55226 9.00049 9.99998 9.4482 9.99998 10.0005Z" fill="#1C274C"/>
</svg>
