<svg width="24" height="24" viewBox="0 0 24 24" fill="none" xmlns="http://www.w3.org/2000/svg">
<path fill-rule="evenodd" clip-rule="evenodd" d="M21.9882 12.9853L17.0152 8.01229C17.8215 7.98329 18.584 8.0108 19.248 8.06157C20.7038 8.17288 21.8276 9.29667 21.9389 10.7525C21.9897 11.4165 22.0172 12.179 21.9882 12.9853Z" fill="#1C274C"/>
<path d="M10.752 21.9394C9.29618 21.8281 8.17239 20.7043 8.06108 19.2485C8.01033 18.5848 7.98282 17.8225 8.01177 17.0166L12.9839 21.9887C12.1779 22.0177 11.4157 21.9902 10.752 21.9394Z" fill="#1C274C"/>
<path fill-rule="evenodd" clip-rule="evenodd" d="M10.3664 10.3669C11.6267 9.10664 13.3555 8.47929 15.0799 8.19826L21.8022 14.9206C21.5212 16.645 20.8939 18.3737 19.6336 19.634C18.373 20.8945 16.644 21.5219 14.9193 21.8028L8.19764 15.0812C8.4786 13.3565 9.10595 11.6274 10.3664 10.3669ZM14.9697 11.9701C15.2626 11.6773 15.7374 11.6773 16.0303 11.9701L16.5 12.4398L16.9697 11.9701C17.2626 11.6773 17.7374 11.6773 18.0303 11.9701C18.3232 12.263 18.3232 12.7379 18.0303 13.0308L17.5607 13.5005L18.0303 13.9701C18.3232 14.263 18.3232 14.7379 18.0303 15.0308C17.7374 15.3237 17.2626 15.3237 16.9697 15.0308L16.5 14.5611L16.0607 15.0005L16.5303 15.4701C16.8232 15.763 16.8232 16.2379 16.5303 16.5308C16.2374 16.8237 15.7626 16.8237 15.4697 16.5308L15 16.0611L14.5607 16.5005L15.0303 16.9701C15.3232 17.263 15.3232 17.7379 15.0303 18.0308C14.7374 18.3237 14.2626 18.3237 13.9697 18.0308L13.5 17.5611L13.0303 18.0308C12.7374 18.3237 12.2626 18.3237 11.9697 18.0308C11.6768 17.7379 11.6768 17.263 11.9697 16.9701L12.4393 16.5005L11.9697 16.0308C11.6768 15.7379 11.6768 15.263 11.9697 14.9701C12.2626 14.6773 12.7374 14.6773 13.0303 14.9701L13.5 15.4398L13.9393 15.0005L13.4697 14.5308C13.1768 14.2379 13.1768 13.763 13.4697 13.4701C13.7626 13.1773 14.2374 13.1773 14.5303 13.4701L15 13.9398L15.4393 13.5005L14.9697 13.0308C14.6768 12.7379 14.6768 12.263 14.9697 11.9701Z" fill="#1C274C"/>
<path d="M5.9318 10.4983C5.11349 9.21572 4.2351 8.37392 3.57145 7.85689C3.23941 7.5982 2.9611 7.42082 2.77119 7.3105C2.67627 7.25536 2.60356 7.21704 2.55744 7.19377C2.53439 7.18214 2.518 7.17427 2.50882 7.16995L2.50085 7.16625L2.18851 7.02909C1.76731 8.80194 2.07227 10.744 3.18951 12.3567C4.08582 13.6504 5.35754 14.5193 6.75024 14.918L6.76979 14.9236C6.76979 14.9236 6.83117 14.2379 6.9247 13.8082C6.99321 13.4935 7.06164 13.2783 7.14488 13.0133C6.89354 12.2744 6.51163 11.4072 5.9318 10.4983Z" fill="#1C274C"/>
<path d="M9.62704 3.31263C9.84614 4.18618 10.2703 5.3867 11.0892 6.67025C11.3121 7.01965 11.5394 7.33628 11.7656 7.6225C12.4334 7.3163 12.9854 7.11183 13.807 6.92538C14.1738 6.84211 14.7554 6.75675 14.7554 6.75675L14.7509 6.74121C14.5559 6.06927 14.2509 5.41739 13.8315 4.81195C12.7523 3.25433 11.129 2.31242 9.40553 2.06576C9.41044 2.12132 9.4179 2.19421 9.42916 2.28285C9.45958 2.52242 9.51754 2.87607 9.62704 3.31263Z" fill="#1C274C"/>
<path d="M7.90478 2.12637C7.90164 2.08487 7.89965 2.05185 7.8984 2.02783C6.80955 2.1286 5.73164 2.5093 4.77267 3.18916C3.8663 3.83175 3.17205 4.66658 2.70587 5.60137L3.0994 5.77419L3.10077 5.77479L3.10406 5.77626L3.11286 5.78023L3.13909 5.79238C3.16035 5.80238 3.18904 5.81623 3.22461 5.83418C3.29573 5.87007 3.39441 5.92237 3.51603 5.99302C3.75919 6.13428 4.09461 6.34922 4.48513 6.65347C5.26661 7.26229 6.26876 8.22879 7.19202 9.67591C7.49816 10.1558 7.7558 10.626 7.97262 11.0769C8.32795 10.4455 8.76621 9.84586 9.30579 9.30628C9.6602 8.95187 10.0405 8.64117 10.4387 8.36898C10.2338 8.09868 10.0295 7.807 9.82895 7.49268C8.90628 6.04648 8.42415 4.6873 8.1724 3.68357C8.04647 3.1815 7.97786 2.76712 7.94056 2.47333C7.9219 2.32636 7.91105 2.20935 7.90478 2.12637Z" fill="#1C274C"/>
</svg>
