<svg width="24" height="24" viewBox="0 0 24 24" fill="none" xmlns="http://www.w3.org/2000/svg">
<path d="M20.9414 8.18929C21.5215 8.76255 21.771 9.48434 21.8877 10.3416C22 11.1673 22 12.2171 22 13.5196V13.6241C22 14.9266 22 15.9764 21.8877 16.8021C21.771 17.6594 21.5215 18.3812 20.9414 18.9544C20.3612 19.5277 19.6307 19.7743 18.7632 19.8895C17.9276 20.0005 16.8651 20.0005 15.547 20.0005H10.622C9.30387 20.0005 8.24141 20.0005 7.4058 19.8895C6.53824 19.7743 5.80777 19.5277 5.22762 18.9544C4.87566 18.6067 4.64535 18.2042 4.49261 17.75C5.36407 17.8579 6.4422 17.8578 7.68787 17.8577H12.6974C13.979 17.8578 15.0833 17.8579 15.9676 17.7404C16.9154 17.6145 17.8238 17.3306 18.5607 16.6025C19.2975 15.8744 19.5848 14.9767 19.7123 14.0403C19.8312 13.1665 19.8311 12.0753 19.831 10.8089V10.6208C19.8311 9.38961 19.8311 8.32405 19.7219 7.46283C20.1818 7.61376 20.5893 7.84137 20.9414 8.18929Z" fill="#1C274C"/>
<path d="M10.1926 9.04814C9.26108 9.04814 8.50591 9.79434 8.50591 10.7148C8.50591 11.6353 9.26108 12.3815 10.1926 12.3815C11.1242 12.3815 11.8793 11.6353 11.8793 10.7148C11.8793 9.79434 11.1242 9.04814 10.1926 9.04814Z" fill="#1C274C"/>
<path fill-rule="evenodd" clip-rule="evenodd" d="M2.84691 5.83733C2 6.67418 2 8.02106 2 10.7148C2 13.4086 2 14.7555 2.84691 15.5923C3.69381 16.4292 5.05688 16.4292 7.78303 16.4292H12.6022C15.3284 16.4292 16.6914 16.4292 17.5384 15.5923C18.3853 14.7555 18.3853 13.4086 18.3853 10.7148C18.3853 8.02106 18.3853 6.67418 17.5384 5.83733C16.6914 5.00049 15.3284 5.00049 12.6022 5.00049H7.78303C5.05688 5.00049 3.69381 5.00049 2.84691 5.83733ZM7.06015 10.7148C7.06015 9.00535 8.46261 7.61956 10.1926 7.61956C11.9226 7.61956 13.3251 9.00535 13.3251 10.7148C13.3251 12.4243 11.9226 13.8101 10.1926 13.8101C8.46261 13.8101 7.06015 12.4243 7.06015 10.7148ZM15.4937 13.3339C15.0945 13.3339 14.7709 13.0141 14.7709 12.6196V8.81004C14.7709 8.41555 15.0945 8.09575 15.4937 8.09575C15.893 8.09575 16.2166 8.41555 16.2166 8.81004V12.6196C16.2166 13.0141 15.893 13.3339 15.4937 13.3339ZM4.16864 12.6196C4.16864 13.0141 4.49228 13.3339 4.89152 13.3339C5.29075 13.3339 5.61439 13.0141 5.61439 12.6196L5.61439 8.81004C5.61439 8.41555 5.29075 8.09575 4.89152 8.09575C4.49228 8.09575 4.16864 8.41555 4.16864 8.81004L4.16864 12.6196Z" fill="#1C274C"/>
</svg>
