<svg width="24" height="24" viewBox="0 0 24 24" fill="none" xmlns="http://www.w3.org/2000/svg">
<path fill-rule="evenodd" clip-rule="evenodd" d="M6.86494 20.5833C5.44893 19.7379 4.2227 18.5298 3.33956 17.0002C2.45711 15.4718 2.02401 13.8072 1.99927 12.1595L2.14382 12.1879C5.09286 12.7688 8.44784 11.7187 11.2055 10.0256C11.5682 9.80289 11.9238 9.5671 12.2697 9.31993C12.6829 9.83591 13.0529 10.3592 13.351 10.8755C13.7247 11.5228 14.0628 12.2928 14.3649 13.1154C13.8476 13.3657 13.3432 13.6415 12.8571 13.9373C10.0653 15.636 7.68346 18.114 6.86537 20.582L6.86494 20.5833ZM16.2598 21.048C13.6549 22.2781 10.7415 22.2858 8.22112 21.2593L8.28919 21.0539C8.95273 19.0522 11.0086 16.8179 13.6368 15.2187C14.0317 14.9784 14.435 14.7552 14.8436 14.5512C15.0958 15.381 15.3142 16.2228 15.4987 17.0133C15.738 18.0388 15.9156 18.958 16.0333 19.6206C16.0921 19.9517 16.1358 20.2181 16.1648 20.4009C16.1793 20.4923 16.19 20.5629 16.1971 20.6101L16.205 20.6631L16.2068 20.676L16.2074 20.6796L16.2598 21.048Z" fill="#1C274C"/>
<path d="M16.2261 13.943C18.1136 13.2241 20.0377 12.9478 21.7029 13.3131L21.9077 13.3581C21.7858 14.2423 21.5465 15.1076 21.1963 15.929C20.472 17.6282 19.2732 19.1401 17.6588 20.2456L17.6463 20.1664C17.6161 19.9753 17.5708 19.6995 17.5102 19.3582C17.389 18.6762 17.2062 17.7299 16.9595 16.6724C16.7605 15.8197 16.5169 14.8808 16.2261 13.943Z" fill="#1C274C"/>
<path d="M13.4528 8.39792C15.1814 6.92868 16.5399 5.187 17.1249 3.44867L17.1354 3.41754C18.5511 4.26291 19.7771 5.47081 20.6601 7.00021C21.5428 8.52921 21.9759 10.1944 22.0004 11.8428C20.0047 11.4114 17.8141 11.7417 15.7445 12.5218C15.4238 11.6582 15.0597 10.835 14.6501 10.1255C14.3139 9.54323 13.9038 8.96242 13.4528 8.39792Z" fill="#1C274C"/>
<path d="M8.31884 3.45453C8.0668 3.25522 7.86156 3.09793 7.71859 2.98993L7.69623 2.97307C9.45868 2.1305 11.3645 1.84942 13.1956 2.07137C14.0829 2.17892 14.9527 2.40461 15.7801 2.74178L15.7033 2.97022C15.2261 4.38817 14.0531 5.92086 12.4749 7.26092C11.7445 6.46586 10.9742 5.72929 10.2723 5.09981C9.51514 4.42067 8.82252 3.85286 8.31884 3.45453Z" fill="#1C274C"/>
<path d="M10.4207 8.74727C7.83405 10.3354 4.87029 11.1961 2.43367 10.7162L2.09108 10.6487C2.46036 7.95537 3.91967 5.43794 6.28165 3.79569L6.60959 4.0341L6.61164 4.03559L6.62097 4.04243L6.66001 4.07121C6.69485 4.097 6.74697 4.13585 6.81448 4.18684C6.9495 4.28883 7.1459 4.43932 7.38839 4.63108C7.87375 5.01492 8.54173 5.56255 9.27079 6.21646C9.9306 6.80826 10.6285 7.47663 11.2828 8.18106C11.0035 8.37694 10.7158 8.56609 10.4207 8.74727Z" fill="#1C274C"/>
</svg>
