<svg width="24" height="24" viewBox="0 0 24 24" fill="none" xmlns="http://www.w3.org/2000/svg">
<path d="M3.5 4.13529C3.5 3.23221 4.23209 2.50012 5.13516 2.50012C5.80379 2.50012 6.40505 2.9072 6.65338 3.528L6.79665 3.88619C6.20214 4.31941 5.71643 4.92347 5.41723 5.66026C4.99692 6.69527 5.01959 7.80677 5.3978 8.76663C5.47221 8.95547 5.61997 9.10608 5.80735 9.18409C5.99473 9.26209 6.20572 9.26082 6.39215 9.18056L12.3529 6.61448C12.725 6.45429 12.9026 6.02757 12.7541 5.65066C12.3758 4.69041 11.637 3.87201 10.6217 3.43826C9.81033 3.09165 8.94952 3.04501 8.15623 3.24626L8.04609 2.97092C7.56997 1.78062 6.41715 1.00012 5.13516 1.00012C3.40366 1.00012 2 2.40378 2 4.13529V11.0001H1.75C1.33579 11.0001 1 11.3359 1 11.7501C1 12.1643 1.33579 12.5001 1.75 12.5001H2V12.7501C2 12.7539 2.00003 12.7577 2.00008 12.7615C1.99999 12.78 2 12.7986 2.00001 12.8169L2.00001 12.8547C2 13.23 2 13.45 2.01557 13.6953C2.15751 15.9317 3.36604 17.9969 5.11758 19.3473C5.10383 19.3689 5.09106 19.3915 5.07934 19.4149L4.07934 21.4149C3.8941 21.7854 4.04427 22.2359 4.41475 22.4211C4.78524 22.6063 5.23574 22.4562 5.42098 22.0857L6.3887 20.1503C7.19042 20.556 8.0623 20.8231 8.96911 20.915C9.21355 20.9397 9.36275 20.9453 9.61687 20.9549L9.62369 20.9551C10.3639 20.9829 11.0885 21.0001 11.75 21.0001C12.4115 21.0001 13.1361 20.9829 13.8763 20.9551L13.883 20.9549C14.1372 20.9453 14.2865 20.9397 14.5309 20.915C15.4378 20.8231 16.3098 20.556 17.1116 20.1501L18.0793 22.0857C18.2646 22.4562 18.7151 22.6063 19.0856 22.4211C19.4561 22.2359 19.6062 21.7854 19.421 21.4149L18.421 19.4149C18.4092 19.3914 18.3964 19.3688 18.3827 19.3471C20.1341 17.9968 21.3425 15.9316 21.4845 13.6953C21.5 13.45 21.5 13.23 21.5 12.8548L21.5 12.8169C21.5 12.7568 21.5001 12.6943 21.4963 12.6366C21.4933 12.5906 21.4886 12.5451 21.4821 12.5001H21.75C22.1642 12.5001 22.5 12.1643 22.5 11.7501C22.5 11.3359 22.1642 11.0001 21.75 11.0001H3.5V4.13529Z" fill="#1C274C"/>
</svg>
