<svg width="24" height="24" viewBox="0 0 24 24" fill="none" xmlns="http://www.w3.org/2000/svg">
<path fill-rule="evenodd" clip-rule="evenodd" d="M21.9743 7.25012H2.02572C2.09185 5.22894 2.32803 4.01524 3.17157 3.17169C4.34315 2.00012 6.22876 2.00012 10 2.00012H14C17.7712 2.00012 19.6569 2.00012 20.8284 3.17169C21.672 4.01524 21.9082 5.22894 21.9743 7.25012ZM13 5.00012C13 5.55241 12.5523 6.00012 12 6.00012C11.4477 6.00012 11 5.55241 11 5.00012C11 4.44784 11.4477 4.00012 12 4.00012C12.5523 4.00012 13 4.44784 13 5.00012Z" fill="#1C274C"/>
<path fill-rule="evenodd" clip-rule="evenodd" d="M2 10.0001C2 9.55819 2 9.14215 2.00189 8.75012H21.9981C22 9.14215 22 9.55819 22 10.0001V12.0001C22 12.4421 22 12.8581 21.9981 13.2501H2.00189C2 12.8581 2 12.4421 2 12.0001V10.0001ZM12 12.0001C12.5523 12.0001 13 11.5524 13 11.0001C13 10.4478 12.5523 10.0001 12 10.0001C11.4477 10.0001 11 10.4478 11 11.0001C11 11.5524 11.4477 12.0001 12 12.0001Z" fill="#1C274C"/>
<path fill-rule="evenodd" clip-rule="evenodd" d="M21.9743 14.7501H2.02572C2.09185 16.7713 2.32803 17.985 3.17157 18.8286C3.47599 19.133 3.82861 19.3583 4.25 19.5251V22.0001C4.25 22.4143 4.58579 22.7501 5 22.7501C5.41421 22.7501 5.75 22.4143 5.75 22.0001V19.8714C6.81989 20.0001 8.19364 20.0001 10 20.0001H14C15.8064 20.0001 17.1801 20.0001 18.25 19.8714V22.0001C18.25 22.4143 18.5858 22.7501 19 22.7501C19.4142 22.7501 19.75 22.4143 19.75 22.0001V19.5251C20.1714 19.3583 20.524 19.133 20.8284 18.8286C21.672 17.985 21.9082 16.7713 21.9743 14.7501ZM13 17.0001C13 17.5524 12.5523 18.0001 12 18.0001C11.4477 18.0001 11 17.5524 11 17.0001C11 16.4478 11.4477 16.0001 12 16.0001C12.5523 16.0001 13 16.4478 13 17.0001Z" fill="#1C274C"/>
</svg>
