<svg width="24" height="24" viewBox="0 0 24 24" fill="none" xmlns="http://www.w3.org/2000/svg">
<path d="M8.35179 20.2422C9.19288 21.3114 10.5142 22.0004 12 22.0004C13.4858 22.0004 14.8071 21.3114 15.6482 20.2422C13.2264 20.5704 10.7736 20.5704 8.35179 20.2422Z" fill="#1C274C"/>
<path d="M18.7491 9.00036V9.70447C18.7491 10.5495 18.9903 11.3755 19.4422 12.0786L20.5496 13.8015C21.5612 15.3752 20.789 17.5143 19.0296 18.0119C14.4273 19.3138 9.57274 19.3138 4.97036 18.0119C3.21105 17.5143 2.43882 15.3752 3.45036 13.8015L4.5578 12.0786C5.00972 11.3755 5.25087 10.5495 5.25087 9.70447V9.00036C5.25087 5.13437 8.27256 2.00037 12 2.00037C15.7274 2.00037 18.7491 5.13437 18.7491 9.00036Z" fill="#1C274C"/>
</svg>
