<svg width="24" height="24" viewBox="0 0 24 24" fill="none" xmlns="http://www.w3.org/2000/svg">
<path d="M16 4.00049C16 5.10506 15.1046 6.00049 14 6.00049C12.8954 6.00049 12 5.10506 12 4.00049C12 2.89592 12.8954 2.00049 14 2.00049C15.1046 2.00049 16 2.89592 16 4.00049Z" fill="#1C274C"/>
<path fill-rule="evenodd" clip-rule="evenodd" d="M10.919 8.50645C10.0125 7.78484 8.67587 8.04261 8.10274 9.04957C7.54795 10.0243 7.96038 11.2649 8.98833 11.7135L12.079 13.0621C13.4092 13.6426 14.0214 15.1878 13.4497 16.5218L12.6894 18.2959C12.5262 18.6767 12.0853 18.853 11.7046 18.6898C11.3238 18.5267 11.1475 18.0858 11.3106 17.705L12.071 15.9309C12.3179 15.3549 12.0535 14.6876 11.4791 14.4369L8.38842 13.0883C6.54363 12.2833 5.80347 10.0569 6.79911 8.30758C7.82766 6.50046 10.2264 6.03787 11.8532 7.33289L14.0116 9.05106C14.1738 9.18019 14.375 9.25049 14.5823 9.25049H18.5C18.9142 9.25049 19.25 9.58628 19.25 10.0005C19.25 10.4147 18.9142 10.7505 18.5 10.7505H14.5823C14.0356 10.7505 13.5051 10.5651 13.0773 10.2246L10.919 8.50645ZM6 15.7505C4.75736 15.7505 3.75 16.7578 3.75 18.0005C3.75 19.2431 4.75736 20.2505 6 20.2505C7.24264 20.2505 8.25 19.2431 8.25 18.0005C8.25 16.7578 7.24264 15.7505 6 15.7505ZM2.25 18.0005C2.25 15.9294 3.92893 14.2505 6 14.2505C8.07107 14.2505 9.75 15.9294 9.75 18.0005C9.75 20.0716 8.07107 21.7505 6 21.7505C3.92893 21.7505 2.25 20.0716 2.25 18.0005ZM18 15.7505C16.7574 15.7505 15.75 16.7578 15.75 18.0005C15.75 19.2431 16.7574 20.2505 18 20.2505C19.2426 20.2505 20.25 19.2431 20.25 18.0005C20.25 16.7578 19.2426 15.7505 18 15.7505ZM14.25 18.0005C14.25 15.9294 15.9289 14.2505 18 14.2505C20.0711 14.2505 21.75 15.9294 21.75 18.0005C21.75 20.0716 20.0711 21.7505 18 21.7505C15.9289 21.7505 14.25 20.0716 14.25 18.0005Z" fill="#1C274C"/>
</svg>
