<svg width="24" height="24" viewBox="0 0 24 24" fill="none" xmlns="http://www.w3.org/2000/svg">
<path fill-rule="evenodd" clip-rule="evenodd" d="M2 1.25024C1.58579 1.25024 1.25 1.58603 1.25 2.00024C1.25 2.41446 1.58579 2.75024 2 2.75024H4V12.2776C4 13.6177 4 14.2878 4.2681 14.8786C4.5362 15.4694 5.04046 15.9107 6.04897 16.7931L8.04897 18.5431C9.93152 20.1903 10.8728 21.0139 12 21.0139C13.1272 21.0139 14.0685 20.1903 15.951 18.5431L17.951 16.7931C18.9595 15.9106 19.4638 15.4694 19.7319 14.8786C20 14.2878 20 13.6177 20 12.2776V2.75024H22C22.4142 2.75024 22.75 2.41446 22.75 2.00024C22.75 1.58603 22.4142 1.25024 22 1.25024H2ZM8.5 12.2502C8.08579 12.2502 7.75 12.586 7.75 13.0002C7.75 13.4145 8.08579 13.7502 8.5 13.7502H15.5C15.9142 13.7502 16.25 13.4145 16.25 13.0002C16.25 12.586 15.9142 12.2502 15.5 12.2502H8.5ZM7.75 8.00024C7.75 7.58603 8.08579 7.25024 8.5 7.25024H15.5C15.9142 7.25024 16.25 7.58603 16.25 8.00024C16.25 8.41446 15.9142 8.75024 15.5 8.75024H8.5C8.08579 8.75024 7.75 8.41446 7.75 8.00024Z" fill="#1C274C"/>
</svg>
