<svg width="24" height="24" viewBox="0 0 24 24" fill="none" xmlns="http://www.w3.org/2000/svg">
<path d="M21.8363 17.4622C21.393 16.4157 20.8141 15.4633 20.3001 14.6179C20.1159 14.3148 19.94 14.0255 19.7817 13.7504H4.21829C4.05999 14.0255 3.8841 14.3148 3.69986 14.6179C3.18593 15.4633 2.60702 16.4157 2.16368 17.4622C1.63049 18.7208 1.25 20.1848 1.25 22.0004C1.25 22.4146 1.58579 22.7504 2 22.7504C2.41421 22.7504 2.75 22.4146 2.75 22.0004C2.75 20.5098 3.03996 19.3048 3.45871 18.2566C8.85291 18.4035 10.9185 21.1275 11.2885 22.2376C11.3906 22.5439 11.6772 22.7504 12 22.7504C12.3228 22.7504 12.6094 22.5439 12.7115 22.2376C13.0815 21.1275 15.1471 18.4035 20.5413 18.2566C20.96 19.3048 21.25 20.5098 21.25 22.0004C21.25 22.4146 21.5858 22.7504 22 22.7504C22.4142 22.7504 22.75 22.4146 22.75 22.0004C22.75 20.1848 22.3695 18.7208 21.8363 17.4622Z" fill="#1C274C"/>
<path d="M4.68985 1.70616C4.52733 1.32516 4.08671 1.14806 3.70572 1.31058C3.32477 1.47309 3.14775 1.9138 3.31017 2.29476L3.3109 2.2965L3.31449 2.30499L3.32977 2.34159C3.34345 2.37454 3.36393 2.42434 3.39024 2.48967C3.44288 2.62036 3.51878 2.813 3.61022 3.05692C3.79323 3.54515 4.03764 4.23672 4.28196 5.04662C4.77458 6.67965 5.25 8.73976 5.25 10.5719C5.25 11.165 5.13757 11.7111 4.94237 12.2504H19.0576C18.8624 11.7111 18.75 11.165 18.75 10.5719C18.75 8.73976 19.2254 6.67965 19.718 5.04662C19.9624 4.23672 20.2068 3.54515 20.3898 3.05692C20.4812 2.813 20.5571 2.62036 20.6098 2.48967C20.6361 2.42434 20.6565 2.37454 20.6702 2.34159L20.6855 2.30499L20.6891 2.2965L20.6899 2.29457C20.8523 1.91361 20.6752 1.47309 20.2943 1.31058C19.9133 1.14806 19.4724 1.32578 19.3099 1.70677C19.3099 1.70677 19.3101 1.70616 20 2.00044L19.3099 1.70677L19.3094 1.70782L19.308 1.7112L19.303 1.72302L19.2849 1.76649C19.2692 1.80411 19.2467 1.85883 19.2184 1.92928C19.1616 2.07016 19.0813 2.27413 18.9852 2.53042C18.7932 3.04261 18.5376 3.76583 18.282 4.6134C17.801 6.20782 17.3045 8.29082 17.2542 10.2504H6.74582C6.69546 8.29082 6.19902 6.20782 5.71804 4.6134C5.46236 3.76583 5.20677 3.04261 5.01478 2.53042C4.91871 2.27413 4.83837 2.07016 4.78163 1.92928C4.75326 1.85883 4.73077 1.80411 4.71515 1.76649L4.69699 1.72302L4.692 1.7112L4.69056 1.70782L4.68985 1.70616Z" fill="#1C274C"/>
</svg>
