<svg width="24" height="24" viewBox="0 0 24 24" fill="none" xmlns="http://www.w3.org/2000/svg">
<path d="M15.6646 2.82959C16.0351 2.64435 16.4856 2.79451 16.6708 3.165L17.1708 4.165C17.3561 4.53548 17.2059 4.98599 16.8354 5.17123C16.4649 5.35647 16.0144 5.2063 15.8292 4.83582L15.3292 3.83582C15.1439 3.46533 15.2941 3.01483 15.6646 2.82959Z" fill="#1C274C"/>
<path d="M18.8292 7.165C19.0144 6.79451 19.4649 6.64435 19.8354 6.82959L20.8354 7.32959C21.2059 7.51483 21.3561 7.96533 21.1708 8.33582C20.9856 8.7063 20.5351 8.85647 20.1646 8.67123L19.1646 8.17123C18.7941 7.98599 18.6439 7.53548 18.8292 7.165Z" fill="#1C274C"/>
<path d="M20.5303 4.53074C20.8232 4.23785 20.8232 3.76297 20.5303 3.47008C20.2374 3.17719 19.7626 3.17719 19.4697 3.47008L18.4697 4.47008C18.1768 4.76297 18.1768 5.23785 18.4697 5.53074C18.7626 5.82363 19.2374 5.82363 19.5303 5.53074L20.5303 4.53074Z" fill="#1C274C"/>
<path d="M17 14.5004C17 18.6425 13.6421 22.0004 9.5 22.0004C5.35786 22.0004 2 18.6425 2 14.5004C2 10.3583 5.35786 7.00041 9.5 7.00041C13.6421 7.00041 17 10.3583 17 14.5004Z" fill="#1C274C"/>
<path d="M17.5302 7.53074L16.3722 8.68878C16.0486 8.30655 15.6938 7.95168 15.3115 7.62812L16.4696 6.47008C16.7625 6.17719 17.2373 6.17719 17.5302 6.47008C17.8231 6.76297 17.8231 7.23785 17.5302 7.53074Z" fill="#1C274C"/>
</svg>
