<svg width="24" height="24" viewBox="0 0 24 24" fill="none" xmlns="http://www.w3.org/2000/svg">
<path d="M2 12.0002C2 7.28617 2 4.92915 3.46447 3.46468C4.6409 2.28825 6.39332 2.05686 9.4809 2.01136V4.06081C9.4809 4.61729 9.00457 5.05933 8.52039 5.33362C7.60566 5.85183 6.96191 7.04012 6.96191 8.0912C6.96191 9.48239 8.0897 10.6102 9.4809 10.6102C10.8721 10.6102 11.9999 9.48239 11.9999 8.0912C11.9999 9.48239 13.1277 10.6102 14.5189 10.6102C15.9101 10.6102 17.0379 9.48239 17.0379 8.0912C17.0379 7.04012 16.3941 5.85183 15.4794 5.33362C14.9952 5.05933 14.5189 4.61729 14.5189 4.06081V2.01135C17.6066 2.05685 19.3591 2.28822 20.5355 3.46468C22 4.92915 22 7.28617 22 12.0002C22 16.7143 22 19.0713 20.5355 20.5357C19.3639 21.7074 17.621 21.9417 14.557 21.9885L14.557 19.985C14.557 19.4285 15.0333 18.9865 15.5175 18.7122C16.4322 18.194 17.076 17.0057 17.076 15.9546C17.076 14.5634 15.9482 13.4357 14.557 13.4357C13.1658 13.4357 12.038 14.5634 12.038 15.9546C12.038 14.5634 10.9102 13.4357 9.51899 13.4357C8.12779 13.4357 7 14.5634 7 15.9546C7 17.0057 7.64375 18.194 8.55848 18.7122C9.04266 18.9865 9.51899 19.4285 9.51899 19.985V21.9896C6.40771 21.9454 4.64573 21.717 3.46447 20.5357C2 19.0713 2 16.7143 2 12.0002Z" fill="#1C274C"/>
</svg>
