<svg width="24" height="24" viewBox="0 0 24 24" fill="none" xmlns="http://www.w3.org/2000/svg">
<path d="M13.2895 5.78995C13.0092 4.77671 13.3942 3.48126 14.1374 2.73804C15.1212 1.75431 16.7161 1.75431 17.6998 2.73804C18.6835 3.72176 18.6835 5.3167 17.6998 6.30043C18.6835 5.3167 20.2785 5.3167 21.2622 6.30043C22.2459 7.28415 22.2459 8.87909 21.2622 9.86281C20.519 10.606 19.2235 10.9911 18.2103 10.7107C17.674 10.5623 17.0246 10.538 16.6311 10.9315L15.7886 11.774L13.1037 12.1868V11.6467C13.1037 11.4056 12.9879 11.1793 12.7923 11.0383C12.5967 10.8973 12.3453 10.859 12.1166 10.9352L10.9824 11.3133V9.45544L13.0687 7.36914C13.4622 6.97565 13.438 6.32627 13.2895 5.78995Z" fill="#1C274C"/>
<path d="M9.48242 10.9554L7.3689 13.069C6.97541 13.4625 6.32603 13.4382 5.7897 13.2898C4.77646 13.0094 3.48101 13.3945 2.73779 14.1377C1.75407 15.1214 1.75407 16.7163 2.73779 17.7001C3.72152 18.6838 5.31646 18.6838 6.30018 17.7001C5.31646 18.6838 5.31645 20.2787 6.30018 21.2624C7.28391 22.2462 8.87884 22.2462 9.86257 21.2624C10.6058 20.5192 10.9908 19.2238 10.7105 18.2105C10.562 17.6742 10.5378 17.0248 10.9313 16.6313L13.9953 13.5674L12.4677 13.8022C12.2514 13.8355 12.0314 13.7726 11.8654 13.6301C11.6993 13.4877 11.6037 13.2798 11.6037 13.0609V12.6873L10.4696 13.0653C10.2409 13.1416 9.98947 13.1032 9.79389 12.9623C9.59831 12.8213 9.48242 12.5949 9.48242 12.3538V10.9554Z" fill="#1C274C"/>
</svg>
