<svg width="24" height="24" viewBox="0 0 24 24" fill="none" xmlns="http://www.w3.org/2000/svg">
<path fill-rule="evenodd" clip-rule="evenodd" d="M3.46447 3.46495C2 4.92942 2 7.28644 2 12.0005C2 16.7145 2 19.0716 3.46447 20.536C4.92893 22.0005 7.28595 22.0005 12 22.0005C16.714 22.0005 19.0711 22.0005 20.5355 20.536C22 19.0716 22 16.7145 22 12.0005C22 7.28644 22 4.92942 20.5355 3.46495C19.8515 2.78092 18.9727 2.41639 17.75 2.22213V11.8315C17.75 12.2991 17.75 12.6826 17.7326 12.9844C17.7155 13.2821 17.6786 13.5904 17.5563 13.8657C17.1149 14.8595 16.0259 15.3954 14.9691 15.1388C14.6764 15.0677 14.4096 14.9089 14.1633 14.7409C13.9136 14.5705 13.6097 14.3365 13.2392 14.0512L13.2207 14.037C12.7513 13.6756 12.6192 13.5809 12.4981 13.5282C12.1804 13.3902 11.8196 13.3902 11.5019 13.5282C11.3808 13.5809 11.2487 13.6756 10.7793 14.037L10.7608 14.0512C10.3903 14.3365 10.0864 14.5705 9.83672 14.7409C9.59039 14.9089 9.32356 15.0677 9.03087 15.1388C7.97413 15.3954 6.88513 14.8595 6.44371 13.8657C6.32145 13.5904 6.28454 13.2821 6.26739 12.9844C6.24999 12.6826 6.25 12.2991 6.25 11.8315L6.25 2.22213C5.02727 2.41639 4.1485 2.78092 3.46447 3.46495ZM7 17.2505C6.58579 17.2505 6.25 17.5863 6.25 18.0005C6.25 18.4147 6.58579 18.7505 7 18.7505H17C17.4142 18.7505 17.75 18.4147 17.75 18.0005C17.75 17.5863 17.4142 17.2505 17 17.2505H7Z" fill="#1C274C"/>
<path d="M7.75 2.06922V11.8081C7.75 12.3048 7.7503 12.6447 7.7649 12.8981C7.78003 13.1605 7.80769 13.2413 7.81457 13.2568C7.96171 13.5881 8.32471 13.7667 8.67695 13.6812C8.69342 13.6772 8.77428 13.6498 8.99148 13.5017C9.20112 13.3587 9.47062 13.1515 9.86419 12.8485L9.93119 12.7969C10.3014 12.5114 10.5899 12.289 10.9042 12.1525C11.6032 11.8488 12.3968 11.8488 13.0958 12.1525C13.4101 12.289 13.6986 12.5114 14.0688 12.7968L14.1358 12.8485C14.5294 13.1515 14.7989 13.3587 15.0085 13.5017C15.2257 13.6498 15.3066 13.6772 15.323 13.6812C15.6753 13.7667 16.0383 13.5881 16.1854 13.2568C16.1923 13.2413 16.22 13.1605 16.2351 12.8981C16.2497 12.6447 16.25 12.3048 16.25 11.8081V2.06922C15.0942 2.00049 13.7004 2.00049 12 2.00049C10.2996 2.00049 8.9058 2.00049 7.75 2.06922Z" fill="#1C274C"/>
</svg>
