<svg width="24" height="24" viewBox="0 0 24 24" fill="none" xmlns="http://www.w3.org/2000/svg">
<path fill-rule="evenodd" clip-rule="evenodd" d="M2 12.0005C2 11.1189 2 10.3197 2.00958 9.5934C2.06596 9.39854 2.13335 9.22779 2.21322 9.07103C2.62068 8.27134 3.27085 7.62117 4.07054 7.21371C4.48197 7.00408 4.9897 6.88045 5.77708 6.81612C5.92663 6.8039 6.08387 6.79396 6.25 6.78586V10.8315C6.25 11.2991 6.24999 11.6826 6.26739 11.9844C6.28454 12.2821 6.32145 12.5904 6.44371 12.8657C6.88513 13.8595 7.97413 14.3954 9.03086 14.1388C9.32356 14.0677 9.59039 13.9089 9.83671 13.7409C10.0864 13.5705 10.3903 13.3365 10.7608 13.0513L10.7793 13.037C11.2486 12.6756 11.3808 12.5808 11.5019 12.5282C11.8196 12.3902 12.1804 12.3902 12.4981 12.5282C12.6192 12.5808 12.7513 12.6756 13.2207 13.037L13.2392 13.0512C13.6097 13.3365 13.9135 13.5705 14.1633 13.7409C14.4096 13.9089 14.6764 14.0677 14.9691 14.1388C16.0259 14.3954 17.1149 13.8595 17.5563 12.8657C17.6786 12.5904 17.7155 12.2821 17.7326 11.9844C17.75 11.6826 17.75 11.299 17.75 10.8314V6.78586C17.9161 6.79396 18.0734 6.8039 18.2229 6.81612C19.0103 6.88045 19.518 7.00408 19.9295 7.21371C20.7291 7.62117 21.3793 8.27134 21.7868 9.07103C21.8667 9.22779 21.934 9.39854 21.9904 9.5934C22 10.3197 22 11.1189 22 12.0005C22 16.7145 22 19.0716 20.5355 20.536C19.0711 22.0005 16.714 22.0005 12 22.0005C7.28595 22.0005 4.92893 22.0005 3.46447 20.536C2 19.0716 2 16.7145 2 12.0005ZM21.8433 6.72363C21.6699 5.24966 21.3048 4.23418 20.5355 3.46495C19.0711 2.00049 16.714 2.00049 12 2.00049C7.28595 2.00049 4.92893 2.00049 3.46447 3.46495C2.69524 4.23418 2.33006 5.24967 2.15669 6.72363C2.52685 6.391 2.9408 6.10585 3.38955 5.8772C4.04768 5.54187 4.77479 5.39301 5.65494 5.3211C6.51929 5.25048 7.59472 5.25048 8.96644 5.25049H15.0336C16.4053 5.25048 17.4807 5.25048 18.3451 5.3211C19.2252 5.39301 19.9523 5.54187 20.6104 5.8772C21.0592 6.10585 21.4732 6.391 21.8433 6.72363Z" fill="#1C274C"/>
<path d="M7.75 10.8081V6.75282C8.12917 6.75055 8.54382 6.75049 9 6.75049H15C15.4562 6.75049 15.8708 6.75055 16.25 6.75282V10.8081C16.25 11.3048 16.2497 11.6447 16.2351 11.8981C16.22 12.1605 16.1923 12.2413 16.1854 12.2568C16.0383 12.5881 15.6753 12.7667 15.323 12.6812C15.3066 12.6772 15.2257 12.6498 15.0085 12.5017C14.7989 12.3587 14.5294 12.1515 14.1358 11.8485L14.0688 11.7969C13.6986 11.5114 13.4101 11.289 13.0958 11.1525C12.3968 10.8488 11.6032 10.8488 10.9042 11.1525C10.5899 11.289 10.3014 11.5114 9.9312 11.7968L9.86419 11.8485C9.47062 12.1515 9.20112 12.3587 8.99148 12.5017C8.77428 12.6498 8.69342 12.6772 8.67695 12.6812C8.32471 12.7667 7.96171 12.5881 7.81457 12.2568C7.80769 12.2413 7.78003 12.1605 7.7649 11.8981C7.7503 11.6447 7.75 11.3048 7.75 10.8081Z" fill="#1C274C"/>
</svg>
