<svg width="24" height="24" viewBox="0 0 24 24" fill="none" xmlns="http://www.w3.org/2000/svg">
<path fill-rule="evenodd" clip-rule="evenodd" d="M4.72718 2.71293C5.03258 2.41373 5.46135 2.21865 6.27103 2.112C7.10452 2.00221 8.2092 2.00049 9.7931 2.00049H14.2069C15.7908 2.00049 16.8955 2.00221 17.729 2.112C18.5387 2.21865 18.9674 2.41373 19.2728 2.71293C19.5782 3.01213 19.7773 3.43221 19.8862 4.22548C19.9982 5.04208 20 6.12436 20 7.67616V15.514L7.34563 15.514C6.44305 15.5137 5.82716 15.5135 5.29899 15.6521C4.82674 15.7761 4.38867 15.9786 4 16.2447V7.67616C4 6.12436 4.00176 5.04208 4.11382 4.22548C4.22268 3.43221 4.42179 3.01213 4.72718 2.71293ZM7.58621 5.78427C7.12914 5.78427 6.75862 6.14728 6.75862 6.59508C6.75862 7.04288 7.12914 7.40589 7.58621 7.40589H16.4138C16.8709 7.40589 17.2414 7.04288 17.2414 6.59508C17.2414 6.14728 16.8709 5.78427 16.4138 5.78427H7.58621ZM6.75862 10.3789C6.75862 9.93107 7.12914 9.56806 7.58621 9.56806H13.1034C13.5605 9.56806 13.931 9.93107 13.931 10.3789C13.931 10.8267 13.5605 11.1897 13.1034 11.1897H7.58621C7.12914 11.1897 6.75862 10.8267 6.75862 10.3789Z" fill="#1C274C"/>
<path d="M7.47341 17.1356C6.39395 17.1356 6.01657 17.1426 5.72738 17.2185C4.93365 17.4269 4.30088 18.0049 4.02952 18.7563C4.0463 19.1387 4.07259 19.4751 4.11382 19.7755C4.22268 20.5688 4.42179 20.9888 4.72718 21.288C5.03258 21.5872 5.46135 21.7823 6.27103 21.889C7.10452 21.9988 8.2092 22.0005 9.7931 22.0005H14.2069C15.7908 22.0005 16.8955 21.9988 17.729 21.889C18.5387 21.7823 18.9674 21.5872 19.2728 21.288C19.4894 21.0758 19.6526 20.8028 19.768 20.3789H7.58621C7.12914 20.3789 6.75862 20.0159 6.75862 19.5681C6.75862 19.1203 7.12914 18.7572 7.58621 18.7572H19.9704C19.9909 18.2913 19.9972 17.7569 19.9991 17.1356H7.47341Z" fill="#1C274C"/>
</svg>
