<svg width="24" height="24" viewBox="0 0 24 24" fill="none" xmlns="http://www.w3.org/2000/svg">
<path fill-rule="evenodd" clip-rule="evenodd" d="M15.9925 2.01667C15.927 2.11493 15.861 2.23426 15.7998 2.34489L15.4773 2.92778L12.6497 4.31748C12.5735 4.35492 12.5266 4.37795 12.4819 4.40094C10.856 5.23583 9.71047 6.80462 9.36562 8.63388C9.35611 8.68431 9.34708 8.73697 9.33217 8.8239L9.33094 8.8311C9.31501 8.92397 9.30798 8.96489 9.30076 9.00438C9.03456 10.4601 8.3439 11.7885 7.32835 12.8103C7.30083 12.838 7.27207 12.8663 7.20619 12.931L6.4018 13.722C5.89777 14.2176 5.49146 14.6171 5.18768 14.9608C4.87759 15.3116 4.62758 15.6546 4.47734 16.0491C4.07618 17.1024 4.21118 18.2962 4.84068 19.2293C5.07679 19.5793 5.39871 19.8548 5.7799 20.123C6.15313 20.3855 6.63864 20.678 7.24012 21.0403L7.95314 21.4698C8.55438 21.832 9.03997 22.1246 9.44477 22.3307C9.85683 22.5405 10.2515 22.6967 10.6702 22.736C11.7877 22.8409 12.8691 22.3509 13.5501 21.4521C13.8038 21.1173 13.9627 20.7205 14.0978 20.2683C14.2308 19.8232 14.359 19.2575 14.5185 18.5534L14.7726 17.4322C14.7934 17.3404 14.8025 17.2999 14.8118 17.2609C15.1543 15.8234 15.9137 14.5375 16.9809 13.5763C17.0098 13.5503 17.04 13.5237 17.1092 13.4628L17.1147 13.4579C17.1793 13.4011 17.2187 13.3664 17.2562 13.3322C18.614 12.0952 19.3318 10.2779 19.2136 8.41845C19.2103 8.36721 19.206 8.31391 19.199 8.22592L18.9373 4.95884L19.2924 4.317C19.3496 4.21374 19.4119 4.10123 19.4581 3.99921C19.5106 3.88328 19.5692 3.7253 19.5779 3.53251C19.5895 3.27508 19.5213 3.02034 19.3826 2.80317C19.2787 2.64053 19.149 2.53297 19.0456 2.45877C18.9547 2.39348 18.8445 2.32713 18.7434 2.26625L17.928 1.77507C17.8197 1.70982 17.7029 1.63943 17.5971 1.58706C17.4778 1.52803 17.3127 1.46038 17.109 1.44817C16.8392 1.43198 16.5715 1.50367 16.3459 1.65249C16.1756 1.76482 16.0663 1.90593 15.9925 2.01667ZM15.983 4.3506L17.4548 5.23719L17.7032 8.33827C17.7083 8.40221 17.7115 8.44156 17.7137 8.47165L16.6585 8.82335C16.0296 9.03299 15.3373 8.90952 14.8196 8.49539C13.7675 7.65369 12.322 7.50056 11.1169 8.10312L11.0572 8.13296C11.4489 7.08941 12.1998 6.23199 13.1671 5.7353C13.1987 5.71906 13.2331 5.70213 13.3182 5.66029L15.983 4.3506Z" fill="#1C274C"/>
</svg>
