<svg width="24" height="24" viewBox="0 0 24 24" fill="none" xmlns="http://www.w3.org/2000/svg">
<path fill-rule="evenodd" clip-rule="evenodd" d="M12 22.0005C17.5228 22.0005 22 17.5233 22 12.0005C22 6.47764 17.5228 2.00049 12 2.00049C6.47715 2.00049 2 6.47764 2 12.0005C2 17.5233 6.47715 22.0005 12 22.0005ZM13.5 12.0005C13.5 11.1721 12.8284 10.5005 12 10.5005C11.1716 10.5005 10.5 11.1721 10.5 12.0005C10.5 12.8289 11.1716 13.5005 12 13.5005C12.8284 13.5005 13.5 12.8289 13.5 12.0005ZM12 5.50049C12.8284 5.50049 13.5 6.17206 13.5 7.00049C13.5 7.82892 12.8284 8.50049 12 8.50049C11.1716 8.50049 10.5 7.82892 10.5 7.00049C10.5 6.17206 11.1716 5.50049 12 5.50049ZM9.5 9.50049C9.5 8.67206 8.82843 8.00049 8 8.00049C7.17157 8.00049 6.5 8.67206 6.5 9.50049C6.5 10.3289 7.17157 11.0005 8 11.0005C8.82843 11.0005 9.5 10.3289 9.5 9.50049Z" fill="#1C274C"/>
</svg>
