<svg width="24" height="24" viewBox="0 0 24 24" fill="none" xmlns="http://www.w3.org/2000/svg">
<path fill-rule="evenodd" clip-rule="evenodd" d="M10.422 3.17894L7.38587 1.35724C7.03069 1.14413 6.56999 1.2593 6.35688 1.61449C6.14377 1.96967 6.25894 2.43037 6.61413 2.64348L8.63912 3.85847C7.33296 4.57473 6.28013 5.69552 5.64925 7.05223L3.77867 6.304C3.39408 6.15017 2.9576 6.33723 2.80376 6.72181C2.64993 7.1064 2.83699 7.54288 3.22158 7.69672L5.16673 8.47477C5.05757 8.96587 5 9.4764 5 10.0004V12.2504H2C1.58579 12.2504 1.25 12.5861 1.25 13.0004C1.25 13.4146 1.58579 13.7504 2 13.7504H5V15.0004C5 15.8512 5.15179 16.6666 5.42978 17.4209L3.22146 18.3042C2.83687 18.458 2.64981 18.8945 2.80364 19.2791C2.95748 19.6637 3.39396 19.8507 3.77854 19.6969L6.09969 18.7685C7.34348 20.712 9.52129 22.0004 12 22.0004C14.4787 22.0004 16.6565 20.712 17.9003 18.7685L20.2215 19.6969C20.606 19.8507 21.0425 19.6637 21.1964 19.2791C21.3502 18.8945 21.1631 18.458 20.7785 18.3042L18.5702 17.4209C18.8482 16.6666 19 15.8512 19 15.0004V13.7504H22C22.4142 13.7504 22.75 13.4146 22.75 13.0004C22.75 12.5861 22.4142 12.2504 22 12.2504H19V10.0004C19 9.47641 18.9424 8.9659 18.8333 8.47481L20.7784 7.69671C21.163 7.54287 21.3501 7.10639 21.1962 6.7218C21.0424 6.33722 20.6059 6.15016 20.2213 6.304L18.3508 7.05227C17.7199 5.69554 16.6671 4.57474 15.3609 3.85847L17.3859 2.64348C17.7411 2.43037 17.8562 1.96967 17.6431 1.61449C17.43 1.2593 16.9693 1.14413 16.6141 1.35724L13.578 3.17894C13.0708 3.06211 12.5426 3.00037 12 3.00037C11.4574 3.00037 10.9292 3.06211 10.422 3.17894ZM10.5 9.75037C10.0858 9.75037 9.75 10.0862 9.75 10.5004C9.75 10.9146 10.0858 11.2504 10.5 11.2504H13.5C13.9142 11.2504 14.25 10.9146 14.25 10.5004C14.25 10.0862 13.9142 9.75037 13.5 9.75037H10.5ZM9.75 15.5004C9.75 15.0862 10.0858 14.7504 10.5 14.7504H13.5C13.9142 14.7504 14.25 15.0862 14.25 15.5004C14.25 15.9146 13.9142 16.2504 13.5 16.2504H10.5C10.0858 16.2504 9.75 15.9146 9.75 15.5004Z" fill="#1C274C"/>
</svg>
