<svg width="24" height="24" viewBox="0 0 24 24" fill="none" xmlns="http://www.w3.org/2000/svg">
<path d="M17.416 2.62436C17.7607 2.3946 17.8538 1.92895 17.624 1.5843C17.3943 1.23965 16.9286 1.14652 16.584 1.37629L13.6687 3.3198C13.1527 3.11367 12.5897 3.00031 12.0001 3.00031C11.4105 3.00031 10.8474 3.1137 10.3314 3.31986L7.41603 1.37629C7.07138 1.14652 6.60573 1.23965 6.37596 1.5843C6.1462 1.92895 6.23933 2.3946 6.58397 2.62436L8.9437 4.19751C8.24831 4.84134 7.75664 5.70205 7.57617 6.67215C8.01128 6.55997 8.46749 6.50031 8.93763 6.50031H15.0626C15.5328 6.50031 15.989 6.55997 16.4241 6.67215C16.2436 5.702 15.7519 4.84125 15.0564 4.19741L17.416 2.62436Z" fill="#1C274C"/>
<path d="M1.25 14.0003C1.25 13.5861 1.58579 13.2503 2 13.2503H5V11.9378C5 11.1021 5.26034 10.3272 5.70435 9.68984L3.22141 8.69648C2.83684 8.54262 2.6498 8.10613 2.80366 7.72155C2.95752 7.33698 3.39401 7.14994 3.77859 7.3038L6.91514 8.55865C7.50624 8.20413 8.19807 8.00031 8.9375 8.00031H15.0625C15.8019 8.00031 16.4938 8.20413 17.0849 8.55865L20.2214 7.3038C20.606 7.14994 21.0425 7.33698 21.1963 7.72155C21.3502 8.10613 21.1632 8.54262 20.7786 8.69648L18.2957 9.68984C18.7397 10.3272 19 11.1021 19 11.9378V13.2503H22C22.4142 13.2503 22.75 13.5861 22.75 14.0003C22.75 14.4145 22.4142 14.7503 22 14.7503H19V15.0003C19 16.181 18.7077 17.2934 18.1915 18.2691L20.7786 19.3042C21.1632 19.458 21.3502 19.8945 21.1963 20.2791C21.0425 20.6637 20.606 20.8507 20.2214 20.6968L17.3288 19.5396C16.1974 20.8666 14.5789 21.7658 12.75 21.9606V15.0003C12.75 14.5861 12.4142 14.2503 12 14.2503C11.5858 14.2503 11.25 14.5861 11.25 15.0003V21.9606C9.42109 21.7658 7.80265 20.8666 6.67115 19.5396L3.77859 20.6968C3.39401 20.8507 2.95752 20.6637 2.80366 20.2791C2.6498 19.8945 2.83684 19.458 3.22141 19.3042L5.80852 18.2691C5.29231 17.2934 5 16.181 5 15.0003V14.7503H2C1.58579 14.7503 1.25 14.4145 1.25 14.0003Z" fill="#1C274C"/>
</svg>
