<svg width="24" height="24" viewBox="0 0 24 24" fill="none" xmlns="http://www.w3.org/2000/svg">
<path fill-rule="evenodd" clip-rule="evenodd" d="M12 22.0005C7.28595 22.0005 4.92893 22.0005 3.46447 20.536C2 19.0716 2 16.7145 2 12.0005C2 7.28644 2 4.92942 3.46447 3.46495C4.92893 2.00049 7.28595 2.00049 12 2.00049C16.714 2.00049 19.0711 2.00049 20.5355 3.46495C22 4.92942 22 7.28644 22 12.0005C22 16.7145 22 19.0716 20.5355 20.536C19.0711 22.0005 16.714 22.0005 12 22.0005ZM8.75 6.50046C8.75 6.08625 8.41421 5.75046 8 5.75046C7.58579 5.75046 7.25 6.08625 7.25 6.50046L7.25 7.75048H6C5.58579 7.75048 5.25 8.08627 5.25 8.50048C5.25 8.91469 5.58579 9.25048 6 9.25048L7.25 9.25048V10.5005C7.25 10.9147 7.58579 11.2505 8 11.2505C8.41421 11.2505 8.75 10.9147 8.75 10.5005V9.25048H10C10.4142 9.25048 10.75 8.91469 10.75 8.50048C10.75 8.08627 10.4142 7.75048 10 7.75048H8.75L8.75 6.50046ZM14 7.75046C13.5858 7.75046 13.25 8.08625 13.25 8.50046C13.25 8.91468 13.5858 9.25046 14 9.25046H18C18.4142 9.25046 18.75 8.91468 18.75 8.50046C18.75 8.08625 18.4142 7.75046 18 7.75046H14ZM14 13.7505C13.5858 13.7505 13.25 14.0863 13.25 14.5005C13.25 14.9147 13.5858 15.2505 14 15.2505H18C18.4142 15.2505 18.75 14.9147 18.75 14.5005C18.75 14.0863 18.4142 13.7505 18 13.7505H14ZM7.03033 13.9702C6.73744 13.6773 6.26256 13.6773 5.96967 13.9702C5.67678 14.2631 5.67678 14.7379 5.96967 15.0308L6.93935 16.0005L5.96968 16.9702C5.67679 17.2631 5.67679 17.7379 5.96968 18.0308C6.26258 18.3237 6.73745 18.3237 7.03034 18.0308L8.00001 17.0612L8.96966 18.0308C9.26255 18.3237 9.73742 18.3237 10.0303 18.0308C10.3232 17.7379 10.3232 17.263 10.0303 16.9701L9.06067 16.0005L10.0303 15.0308C10.3232 14.7379 10.3232 14.2631 10.0303 13.9702C9.73744 13.6773 9.26256 13.6773 8.96967 13.9702L8.00001 14.9398L7.03033 13.9702ZM14 16.7505C13.5858 16.7505 13.25 17.0863 13.25 17.5005C13.25 17.9147 13.5858 18.2505 14 18.2505H18C18.4142 18.2505 18.75 17.9147 18.75 17.5005C18.75 17.0863 18.4142 16.7505 18 16.7505H14Z" fill="#1C274C"/>
</svg>
