<svg width="24" height="24" viewBox="0 0 24 24" fill="none" xmlns="http://www.w3.org/2000/svg">
<path d="M22 14.0005V12.0005C22 11.1615 22 10.4158 21.9871 9.75049H2.0129C2 10.4158 2 11.1615 2 12.0005V14.0005C2 17.7717 2 19.6573 3.17157 20.8289C4.34315 22.0005 6.22876 22.0005 10 22.0005H14C17.7712 22.0005 19.6569 22.0005 20.8284 20.8289C22 19.6573 22 17.7717 22 14.0005Z" fill="#1C274C"/>
<path d="M7.75 2.50049C7.75 2.08627 7.41421 1.75049 7 1.75049C6.58579 1.75049 6.25 2.08627 6.25 2.50049V4.07975C4.81067 4.195 3.86577 4.47786 3.17157 5.17206C2.47737 5.86626 2.19451 6.81116 2.07926 8.25049H21.9207C21.8055 6.81116 21.5226 5.86626 20.8284 5.17206C20.1342 4.47786 19.1893 4.195 17.75 4.07975V2.50049C17.75 2.08627 17.4142 1.75049 17 1.75049C16.5858 1.75049 16.25 2.08627 16.25 2.50049V4.01339C15.5847 4.00049 14.839 4.00049 14 4.00049H10C9.16097 4.00049 8.41527 4.00049 7.75 4.01339V2.50049Z" fill="#1C274C"/>
</svg>
