<svg width="24" height="24" viewBox="0 0 24 24" fill="none" xmlns="http://www.w3.org/2000/svg">
<path fill-rule="evenodd" clip-rule="evenodd" d="M18 15.7505C16.7574 15.7505 15.75 16.7578 15.75 18.0005C15.75 19.2431 16.7574 20.2505 18 20.2505C19.2426 20.2505 20.25 19.2431 20.25 18.0005C20.25 16.7578 19.2426 15.7505 18 15.7505ZM14.25 18.0005C14.25 15.9294 15.9289 14.2505 18 14.2505C20.0711 14.2505 21.75 15.9294 21.75 18.0005C21.75 18.7648 21.5213 19.4757 21.1287 20.0685L22.5303 21.4702C22.8232 21.7631 22.8232 22.2379 22.5303 22.5308C22.2374 22.8237 21.7626 22.8237 21.4697 22.5308L20.068 21.1292C19.4752 21.5218 18.7643 21.7505 18 21.7505C15.9289 21.7505 14.25 20.0716 14.25 18.0005Z" fill="#1C274C"/>
<path d="M7.75 2.50049C7.75 2.08627 7.41421 1.75049 7 1.75049C6.58579 1.75049 6.25 2.08627 6.25 2.50049V4.07975C4.81067 4.195 3.86577 4.47786 3.17157 5.17206C2.47737 5.86626 2.19451 6.81116 2.07926 8.25049H21.9207C21.8055 6.81116 21.5226 5.86626 20.8284 5.17206C20.1342 4.47786 19.1893 4.195 17.75 4.07975V2.50049C17.75 2.08627 17.4142 1.75049 17 1.75049C16.5858 1.75049 16.25 2.08627 16.25 2.50049V4.01339C15.5847 4.00049 14.839 4.00049 14 4.00049H10C9.16097 4.00049 8.41527 4.00049 7.75 4.01339V2.50049Z" fill="#1C274C"/>
<path d="M22 12.0005V14.0005C22 14.2058 22 14.4054 21.9998 14.5997C21.0368 13.4682 19.6022 12.7505 18 12.7505C15.1005 12.7505 12.75 15.101 12.75 18.0005C12.75 19.6027 13.4677 21.0373 14.5992 22.0003C14.405 22.0005 14.2053 22.0005 14 22.0005H10C6.22876 22.0005 4.34315 22.0005 3.17157 20.8289C2 19.6573 2 17.7717 2 14.0005V12.0005C2 11.1615 2 10.4158 2.0129 9.75049H21.9871C22 10.4158 22 11.1615 22 12.0005Z" fill="#1C274C"/>
</svg>
