<svg width="24" height="24" viewBox="0 0 24 24" fill="none" xmlns="http://www.w3.org/2000/svg">
<path fill-rule="evenodd" clip-rule="evenodd" d="M14.2222 21H9.77778C6.65675 21 5.09624 21 3.97524 20.2646C3.48995 19.9462 3.07328 19.5371 2.74902 19.0607C2 17.9601 2 16.4279 2 13.3636C2 10.2994 2 8.76721 2.74902 7.6666C3.07328 7.19014 3.48995 6.78104 3.97524 6.46268C4.69555 5.99013 5.59733 5.82123 6.978 5.76086C7.63685 5.76086 8.20412 5.27068 8.33333 4.63636C8.52715 3.68489 9.37805 3 10.3663 3H13.6337C14.6219 3 15.4728 3.68489 15.6667 4.63636C15.7959 5.27068 16.3631 5.76086 17.022 5.76086C18.4027 5.82123 19.3044 5.99013 20.0248 6.46268C20.51 6.78104 20.9267 7.19014 21.251 7.6666C22 8.76721 22 10.2994 22 13.3636C22 16.4279 22 17.9601 21.251 19.0607C20.9267 19.5371 20.51 19.9462 20.0248 20.2646C18.9038 21 17.3433 21 14.2222 21ZM7.8335 13.3634C7.8335 11.104 9.69898 9.27246 12.0002 9.27246C14.3013 9.27246 16.1668 11.104 16.1668 13.3634C16.1668 15.6227 14.3013 17.4543 12.0002 17.4543C9.69898 17.4543 7.8335 15.6227 7.8335 13.3634ZM9.50016 13.3634C9.50016 12.0078 10.6195 10.9088 12.0002 10.9088C13.3809 10.9088 14.5002 12.0078 14.5002 13.3634C14.5002 14.719 13.3809 15.8179 12.0002 15.8179C10.6195 15.8179 9.50016 14.719 9.50016 13.3634ZM16.7224 10.0906C16.7224 9.63877 17.0955 9.27246 17.5557 9.27246H18.6668C19.1271 9.27246 19.5002 9.63877 19.5002 10.0906C19.5002 10.5425 19.1271 10.9088 18.6668 10.9088H17.5557C17.0955 10.9088 16.7224 10.5425 16.7224 10.0906Z" fill="#1C274C"/>
</svg>
