<svg width="24" height="24" viewBox="0 0 24 24" fill="none" xmlns="http://www.w3.org/2000/svg">
<path d="M10 4.00049H14C17.7712 4.00049 19.6569 4.00049 20.8284 5.17206C21.672 6.0156 21.9082 7.22931 21.9743 9.25049H2.02572C2.09185 7.22931 2.32803 6.0156 3.17157 5.17206C4.34315 4.00049 6.22876 4.00049 10 4.00049Z" fill="#1C274C"/>
<path fill-rule="evenodd" clip-rule="evenodd" d="M21.9995 12.818L21.591 12.4095C20.7123 11.5308 19.2877 11.5308 18.409 12.4095L17.6076 13.2109C17.2878 12.3578 16.4648 11.7505 15.5 11.7505C14.2574 11.7505 13.25 12.7578 13.25 14.0005V15.7643C12.7601 15.8188 12.2847 16.0338 11.909 16.4095C11.0303 17.2882 11.0303 18.7128 11.909 19.5915L12.318 20.0005H10C6.22876 20.0005 4.34315 20.0005 3.17157 18.8289C2 17.6573 2 15.7717 2 12.0005C2 11.5586 2 11.1425 2.00189 10.7505H21.9981C22 11.1425 22 11.5586 22 12.0005C22 12.2834 22 12.5558 21.9995 12.818ZM6 15.2505C5.58579 15.2505 5.25 15.5863 5.25 16.0005C5.25 16.4147 5.58579 16.7505 6 16.7505H10C10.4142 16.7505 10.75 16.4147 10.75 16.0005C10.75 15.5863 10.4142 15.2505 10 15.2505H6Z" fill="#1C274C"/>
<path fill-rule="evenodd" clip-rule="evenodd" d="M15.5 13.2505C15.9142 13.2505 16.25 13.5863 16.25 14.0005V18.1898L16.9697 17.4702C17.2626 17.1773 17.7374 17.1773 18.0303 17.4702C18.3232 17.7631 18.3232 18.2379 18.0303 18.5308L16.0303 20.5308C15.7374 20.8237 15.2626 20.8237 14.9697 20.5308L12.9697 18.5308C12.6768 18.2379 12.6768 17.7631 12.9697 17.4702C13.2626 17.1773 13.7374 17.1773 14.0303 17.4702L14.75 18.1898V14.0005C14.75 13.5863 15.0858 13.2505 15.5 13.2505ZM19.4697 13.4702C19.7626 13.1773 20.2374 13.1773 20.5303 13.4702L22.5303 15.4702C22.8232 15.7631 22.8232 16.2379 22.5303 16.5308C22.2374 16.8237 21.7626 16.8237 21.4697 16.5308L20.75 15.8111V20.0005C20.75 20.4147 20.4142 20.7505 20 20.7505C19.5858 20.7505 19.25 20.4147 19.25 20.0005V15.8111L18.5303 16.5308C18.2374 16.8237 17.7626 16.8237 17.4697 16.5308C17.1768 16.2379 17.1768 15.7631 17.4697 15.4702L19.4697 13.4702Z" fill="#1C274C"/>
</svg>
