<svg width="24" height="24" viewBox="0 0 24 24" fill="none" xmlns="http://www.w3.org/2000/svg">
<path d="M8.41799 3.25138C8.69867 2.65966 9.30155 2.25049 10 2.25049H14C14.6984 2.25049 15.3013 2.65966 15.582 3.25138C16.2655 3.25635 16.7983 3.28773 17.2738 3.47358C17.842 3.69565 18.3362 4.07315 18.6999 4.56291C19.0668 5.05699 19.2391 5.69028 19.4762 6.56193L19.5132 6.69795L19.515 6.70461L20.3886 10.0287L20.4005 10.0112C20.4428 10.0568 20.4833 10.1045 20.5222 10.1544C21.4231 11.3081 20.9941 13.024 20.1362 16.4558C20.058 16.7684 19.9854 17.0587 19.9161 17.3284L17.4386 14.3554L19.2692 11.6705L18.7641 9.74862L16.4401 13.1572L12.9763 9.0006H14.3153C16.209 9.0006 17.5959 9.0006 18.614 9.17762L18.0651 7.08925C17.7749 6.025 17.6716 5.69413 17.4957 5.45723C17.2998 5.19351 17.0337 4.99024 16.7278 4.87067C16.508 4.78476 16.2424 4.75949 15.5805 4.75279C15.2992 5.34279 14.6972 5.75049 14 5.75049H10C9.30281 5.75049 8.70084 5.34279 8.41951 4.75279C7.75763 4.75949 7.49204 4.78476 7.27224 4.87067C6.96629 4.99024 6.70018 5.19351 6.50433 5.45723C6.3284 5.69412 6.22509 6.025 5.93489 7.08923L5.38601 9.1776C6.40415 9.0006 7.79095 9.0006 9.68462 9.0006H11.0237L7.55993 13.1572L5.23593 9.74862L4.73082 11.6705L6.56142 14.3554L4.08384 17.3285C4.01449 17.0587 3.94192 16.7685 3.86376 16.4558C3.00581 13.024 2.57684 11.3081 3.47767 10.1544C3.51661 10.1045 3.55717 10.0568 3.59943 10.0111L3.61139 10.0287L4.48503 6.70461L4.48681 6.69795L4.52384 6.56194C4.76091 5.69029 4.93316 5.05699 5.30009 4.56291C5.66381 4.07315 6.15802 3.69565 6.72621 3.47358C7.20175 3.28773 7.73447 3.25635 8.41799 3.25138Z" fill="#1C274C"/>
<path d="M4.60211 19.0496C4.83486 19.6431 5.10205 20.0576 5.49605 20.3652C6.30983 21.0006 7.43476 21.0006 9.68462 21.0006H11.0923L7.44007 15.6441L4.60211 19.0496Z" fill="#1C274C"/>
<path d="M12.9077 21.0006H14.3153C16.5652 21.0006 17.6901 21.0006 18.5039 20.3652C18.8979 20.0576 19.1651 19.6431 19.3978 19.0495L16.5599 15.6441L12.9077 21.0006Z" fill="#1C274C"/>
<path d="M12 19.6693L8.43858 14.4458L12 10.1721L15.5614 14.4458L12 19.6693Z" fill="#1C274C"/>
</svg>
