<svg width="24" height="24" viewBox="0 0 24 24" fill="none" xmlns="http://www.w3.org/2000/svg">
<path fill-rule="evenodd" clip-rule="evenodd" d="M1.28869 2.76328C1.41968 2.37032 1.84442 2.15795 2.23737 2.28894L2.54176 2.3904C3.16813 2.59916 3.69746 2.77559 4.1137 2.96922C4.55613 3.17504 4.94002 3.43014 5.23112 3.83401C5.52222 4.23789 5.64282 4.68275 5.69817 5.16757C5.72644 5.41516 5.73936 5.69276 5.74526 6.00045H16.4508C18.5058 6.00045 19.5333 6.00045 19.9779 6.67471C20.4225 7.34897 20.0177 8.29338 19.2082 10.1822L18.7797 11.1822C18.4017 12.064 18.2128 12.505 17.8371 12.7527C17.4614 13.0004 16.9817 13.0004 16.0222 13.0004H5.9034C6.00839 13.5403 6.17403 13.8563 6.40921 14.0914C6.68598 14.3682 7.07455 14.5486 7.80832 14.6473C8.56367 14.7489 9.56479 14.7504 11.0002 14.7504H18.0002C18.4144 14.7504 18.7502 15.0862 18.7502 15.5004C18.7502 15.9147 18.4144 16.2504 18.0002 16.2504H10.9453C9.57774 16.2505 8.47542 16.2505 7.60845 16.1339C6.70834 16.0129 5.95047 15.754 5.34855 15.1521C4.74664 14.5502 4.48774 13.7923 4.36673 12.8922C4.25017 12.0252 4.25018 10.9229 4.2502 9.55533L4.2502 6.88348C4.2502 6.17049 4.24907 5.69872 4.20785 5.33771C4.16883 4.99587 4.10068 4.83098 4.01426 4.71108C3.92784 4.59118 3.79296 4.47438 3.481 4.32926C3.15155 4.17599 2.70435 4.02573 2.02794 3.80026L1.76303 3.71196C1.37008 3.58097 1.15771 3.15623 1.28869 2.76328ZM8.0002 8.25045C7.58599 8.25045 7.2502 8.58623 7.2502 9.00045C7.2502 9.41466 7.58599 9.75045 8.0002 9.75045H11.0002C11.4144 9.75045 11.7502 9.41466 11.7502 9.00045C11.7502 8.58623 11.4144 8.25045 11.0002 8.25045H8.0002Z" fill="#1C274C"/>
<path d="M7.5 18.0005C8.32843 18.0005 9 18.6721 9 19.5005C9 20.3289 8.32843 21.0005 7.5 21.0005C6.67157 21.0005 6 20.3289 6 19.5005C6 18.6721 6.67157 18.0005 7.5 18.0005Z" fill="#1C274C"/>
<path d="M16.5 18.0006C17.3284 18.0006 18 18.6721 18 19.5006C18 20.329 17.3284 21.0006 16.5 21.0006C15.6716 21.0006 15 20.329 15 19.5006C15 18.6721 15.6716 18.0006 16.5 18.0006Z" fill="#1C274C"/>
</svg>
