<svg width="24" height="24" viewBox="0 0 24 24" fill="none" xmlns="http://www.w3.org/2000/svg">
<path fill-rule="evenodd" clip-rule="evenodd" d="M8.41799 3.25138C8.69867 2.65966 9.30155 2.25049 10 2.25049H14C14.6984 2.25049 15.3013 2.65966 15.582 3.25138C16.2655 3.25635 16.7983 3.28773 17.2738 3.47358C17.842 3.69565 18.3362 4.07315 18.6999 4.56291C19.0668 5.05699 19.2391 5.69028 19.4762 6.56193L20.2181 9.28321L20.4985 10.1245C20.5065 10.1344 20.5144 10.1443 20.5222 10.1544C21.4231 11.3081 20.9941 13.024 20.1362 16.4558C19.5905 18.6385 19.3176 19.7298 18.5039 20.3652C17.6901 21.0006 16.5652 21.0006 14.3153 21.0006H9.68462C7.43476 21.0006 6.30983 21.0006 5.49605 20.3652C4.68227 19.7298 4.40943 18.6385 3.86376 16.4558C3.00581 13.024 2.57684 11.3081 3.47767 10.1544C3.48555 10.1443 3.4935 10.1343 3.50152 10.1243L3.7819 9.2832L4.52384 6.56194C4.76092 5.69029 4.93316 5.05699 5.30009 4.56291C5.66381 4.07315 6.15802 3.69565 6.72621 3.47358C7.20175 3.28773 7.73447 3.25635 8.41799 3.25138ZM8.41951 4.75279C7.75763 4.75949 7.49204 4.78476 7.27224 4.87067C6.96629 4.99024 6.70018 5.19351 6.50433 5.45723C6.32822 5.69437 6.22488 6.02569 5.93398 7.09255L5.36442 9.18139C6.38451 9.0006 7.77753 9.0006 9.68462 9.0006H14.3153C16.2224 9.0006 17.6155 9.0006 18.6356 9.18141L18.066 7.09255C17.7751 6.02569 17.6718 5.69437 17.4957 5.45723C17.2998 5.19351 17.0337 4.99024 16.7278 4.87067C16.508 4.78476 16.2424 4.75949 15.5805 4.75279C15.2992 5.34279 14.6972 5.75049 14 5.75049H10C9.30281 5.75049 8.70084 5.34279 8.41951 4.75279Z" fill="#1C274C"/>
</svg>
