<svg width="24" height="24" viewBox="0 0 24 24" fill="none" xmlns="http://www.w3.org/2000/svg">
<path fill-rule="evenodd" clip-rule="evenodd" d="M9.99976 2.25049C9.30136 2.25049 8.69851 2.65961 8.4178 3.25126C7.73426 3.25623 7.20152 3.28761 6.72597 3.47347C6.15778 3.69553 5.66357 4.07304 5.29985 4.56279C4.93292 5.05687 4.76067 5.69017 4.5236 6.56182L4.47721 6.73218L3.96448 9.69522C3.77895 9.8232 3.61781 9.97477 3.47767 10.1543C2.57684 11.308 3.00581 13.0239 3.86376 16.4557C4.40943 18.6384 4.68227 19.7297 5.49605 20.3651C6.30983 21.0005 7.43476 21.0005 9.68462 21.0005H14.3153C16.5652 21.0005 17.6901 21.0005 18.5039 20.3651C19.3176 19.7297 19.5905 18.6384 20.1362 16.4557C20.9941 13.0239 21.4231 11.308 20.5222 10.1543C20.382 9.97462 20.2207 9.82296 20.035 9.69491L19.5223 6.73218L19.4759 6.56181C19.2388 5.69017 19.0666 5.05687 18.6997 4.56279C18.336 4.07304 17.8417 3.69553 17.2736 3.47347C16.798 3.28761 16.2653 3.25623 15.5817 3.25126C15.301 2.65961 14.6982 2.25049 13.9998 2.25049H9.99976ZM18.4177 9.1462L18.0564 7.05814C17.7726 6.01843 17.6696 5.69169 17.4954 5.45711C17.2996 5.1934 17.0335 4.99013 16.7275 4.87055C16.5077 4.78465 16.2421 4.75937 15.5803 4.75268C15.299 5.34273 14.697 5.75049 13.9998 5.75049H9.99976C9.30252 5.75049 8.70052 5.34273 8.41921 4.75268C7.75738 4.75937 7.4918 4.78465 7.272 4.87055C6.96605 4.99013 6.69994 5.1934 6.50409 5.45711C6.32988 5.69169 6.22688 6.01843 5.9431 7.05814L5.58176 9.14626C6.57992 9.00049 7.9096 9.00049 9.68462 9.00049H14.3153C16.0901 9.00049 17.4196 9.00049 18.4177 9.1462ZM8 12.2505C8.41421 12.2505 8.75 12.5863 8.75 13.0005V17.0005C8.75 17.4147 8.41421 17.7505 8 17.7505C7.58579 17.7505 7.25 17.4147 7.25 17.0005V13.0005C7.25 12.5863 7.58579 12.2505 8 12.2505ZM16.75 13.0005C16.75 12.5863 16.4142 12.2505 16 12.2505C15.5858 12.2505 15.25 12.5863 15.25 13.0005V17.0005C15.25 17.4147 15.5858 17.7505 16 17.7505C16.4142 17.7505 16.75 17.4147 16.75 17.0005V13.0005ZM12 12.2505C12.4142 12.2505 12.75 12.5863 12.75 13.0005V17.0005C12.75 17.4147 12.4142 17.7505 12 17.7505C11.5858 17.7505 11.25 17.4147 11.25 17.0005V13.0005C11.25 12.5863 11.5858 12.2505 12 12.2505Z" fill="#1C274C"/>
</svg>
