<svg width="24" height="24" viewBox="0 0 24 24" fill="none" xmlns="http://www.w3.org/2000/svg">
<path fill-rule="evenodd" clip-rule="evenodd" d="M14.6646 2.32971C15.0351 2.14447 15.4856 2.29464 15.6708 2.66512L17.872 7.06744C19.2251 7.17139 20.0742 7.4368 20.6221 8.1145C21.5226 9.22847 21.1634 10.9049 20.4449 14.2577L20.0164 16.2577C19.5294 18.5303 19.2859 19.6665 18.4608 20.3335C17.6357 21.0005 16.4737 21.0005 14.1495 21.0005H9.85053C7.52639 21.0005 6.36432 21.0005 5.53925 20.3335C4.71418 19.6665 4.47069 18.5303 3.98372 16.2577L3.55514 14.2577C2.83668 10.9049 2.47745 9.22847 3.378 8.1145C3.92585 7.43681 4.77494 7.1714 6.12802 7.06745L8.32918 2.66512C8.51442 2.29464 8.96493 2.14447 9.33541 2.32971C9.70589 2.51495 9.85606 2.96546 9.67082 3.33594L7.83589 7.0058C8.31911 7.00053 8.84638 7.00053 9.42196 7.00053H14.5781C15.1537 7.00053 15.6809 7.00053 16.1641 7.0058L14.3292 3.33594C14.1439 2.96546 14.2941 2.51495 14.6646 2.32971ZM7.25 12.0005C7.25 11.5863 7.58579 11.2505 8 11.2505H16C16.4142 11.2505 16.75 11.5863 16.75 12.0005C16.75 12.4147 16.4142 12.7505 16 12.7505H8C7.58579 12.7505 7.25 12.4147 7.25 12.0005ZM10 14.2505C9.58579 14.2505 9.25 14.5863 9.25 15.0005C9.25 15.4147 9.58579 15.7505 10 15.7505H14C14.4142 15.7505 14.75 15.4147 14.75 15.0005C14.75 14.5863 14.4142 14.2505 14 14.2505H10Z" fill="#1C274C"/>
</svg>
