<svg width="24" height="24" viewBox="0 0 24 24" fill="none" xmlns="http://www.w3.org/2000/svg">
<path d="M2.16208 8.50018C2 9.60395 2 11.05 2 13.0005C2 16.7717 2 18.6573 3.17157 19.8289C4.34315 21.0005 6.22876 21.0005 10 21.0005H14C17.7712 21.0005 19.6569 21.0005 20.8284 19.8289C22 18.6573 22 16.7717 22 13.0005C22 11.0501 22 9.60413 21.8379 8.50038C19.5613 9.9802 18.1021 10.924 16.7501 11.5051V12.0006C16.7501 12.4148 16.4143 12.7506 16.0001 12.7506C15.5914 12.7506 15.259 12.4236 15.2503 12.017C13.12 12.5786 10.8802 12.5786 8.74991 12.0169C8.74121 12.4236 8.40883 12.7506 8.00009 12.7506C7.58587 12.7506 7.25009 12.4148 7.25009 12.0006V11.5051C5.89804 10.9239 4.43881 9.98006 2.16208 8.50018Z" fill="#1C274C"/>
<path fill-rule="evenodd" clip-rule="evenodd" d="M10.5814 2.25049L10.561 2.25049C10.4474 2.25047 10.3591 2.25046 10.2755 2.25552C9.21507 2.31974 8.28647 2.98904 7.89021 3.97474C7.8588 4.05287 7.80711 4.20805 7.77024 4.31874L7.76636 4.33038C7.66326 4.6103 7.47709 4.85272 7.26157 5.02583C7.03409 5.03319 6.81683 5.04269 6.60915 5.05494C4.96519 5.15193 3.92193 5.42171 3.17157 6.17206C2.92691 6.41673 2.73334 6.69253 2.5802 7.01014C2.63777 7.02979 2.69387 7.05681 2.74721 7.09147C4.8475 8.45666 6.16709 9.31057 7.26356 9.85835C7.33001 9.51215 7.6345 9.25058 8.00009 9.25058C8.4143 9.25058 8.75009 9.58637 8.75009 10.0006V10.4585C10.8695 11.0981 13.1306 11.0981 15.2501 10.4585V10.0006C15.2501 9.58637 15.5859 9.25058 16.0001 9.25058C16.3657 9.25058 16.6702 9.51219 16.7366 9.85842C17.8331 9.31064 19.1527 8.45672 21.2531 7.09147C21.3064 7.05686 21.3624 7.02988 21.4199 7.01024C21.2667 6.69259 21.0731 6.41675 20.8284 6.17206C20.0781 5.42171 19.0348 5.15193 17.3909 5.05494C17.1937 5.04331 16.9879 5.03416 16.773 5.02697C16.7594 5.01594 16.7458 5.00455 16.7322 4.9928C16.4915 4.78484 16.3033 4.5106 16.2084 4.25337L16.2053 4.24393C16.1694 4.13625 16.1415 4.05243 16.1102 3.97474C15.714 2.98904 14.7854 2.31974 13.725 2.25552C13.6414 2.25046 13.553 2.25047 13.4395 2.25049L10.5814 2.25049ZM14.8176 4.81618L14.8131 4.80544L14.8082 4.79335L14.8037 4.7814L14.8 4.77146L14.7982 4.76645L14.794 4.75422L14.7902 4.74293L14.7881 4.73666L14.7853 4.72832L14.7831 4.72128L14.7813 4.71559C14.742 4.59757 14.7299 4.56253 14.7185 4.53424C14.5384 4.08619 14.1163 3.78197 13.6343 3.75278C13.602 3.75082 13.5625 3.75049 13.4191 3.75049H10.5814C10.438 3.75049 10.3984 3.75082 10.3662 3.75278C9.88424 3.78197 9.46221 4.0861 9.28204 4.53403L9.2794 4.54101L9.27143 4.56293C9.2648 4.58153 9.25672 4.60478 9.2474 4.63205C9.23088 4.68043 9.21232 4.73594 9.19351 4.79235L9.19168 4.79826L9.18945 4.80529L9.18671 4.81363L9.18462 4.8199L9.18079 4.8312L9.17655 4.84344L9.17477 4.84845L9.17113 4.8584L9.16655 4.87036L9.16168 4.88248L9.15751 4.89239L9.15686 4.89385C9.14293 4.9297 9.12818 4.96547 9.11263 5.00113C9.39625 5.00049 9.69183 5.00049 10 5.00049H14C14.3115 5.00049 14.6101 5.00049 14.8965 5.00115C14.868 4.94004 14.8417 4.87833 14.8176 4.81618Z" fill="#1C274C"/>
</svg>
