<svg width="24" height="24" viewBox="0 0 24 24" fill="none" xmlns="http://www.w3.org/2000/svg">
<path fill-rule="evenodd" clip-rule="evenodd" d="M9.87774 4.25042C10.187 3.37552 11.0214 2.75049 11.9999 2.75049C12.9784 2.75049 13.8128 3.37552 14.1221 4.25042C14.2601 4.64096 14.6886 4.84565 15.0791 4.70762C15.4697 4.56958 15.6744 4.14109 15.5363 3.75055C15.0219 2.29507 13.6339 1.25049 11.9999 1.25049C10.366 1.25049 8.97792 2.29507 8.46348 3.75055C8.32545 4.14109 8.53014 4.56958 8.92068 4.70762C9.31122 4.84565 9.73971 4.64096 9.87774 4.25042ZM2.74721 8.09147C2.69387 8.0568 2.63777 8.02978 2.5802 8.01014C2.73334 7.69252 2.92691 7.41672 3.17157 7.17206C4.34315 6.00049 6.22876 6.00049 10 6.00049H14C17.7712 6.00049 19.6569 6.00049 20.8284 7.17206C21.0731 7.41675 21.2667 7.69258 21.4199 8.01024C21.3624 8.02987 21.3064 8.05686 21.2531 8.09147C19.1527 9.45675 17.8331 10.3107 16.7366 10.8585C16.6702 10.5122 16.3657 10.2505 16 10.2505C15.5858 10.2505 15.25 10.5863 15.25 11.0005V11.4586C13.1306 12.0981 10.8694 12.098 8.75 11.4585V11.0005C8.75 10.5863 8.41421 10.2505 8 10.2505C7.6344 10.2505 7.3299 10.5121 7.26346 10.8583C6.16701 10.3105 4.84744 9.45662 2.74721 8.09147ZM2 14.0005C2 12.05 2 10.6039 2.16208 9.50017C4.43876 10.98 5.89798 11.9238 7.25 12.505V13.0005C7.25 13.4147 7.58579 13.7505 8 13.7505C8.40872 13.7505 8.74109 13.4235 8.74982 13.0169C10.8801 13.5786 13.1199 13.5786 15.2502 13.017C15.259 13.4236 15.5913 13.7505 16 13.7505C16.4142 13.7505 16.75 13.4147 16.75 13.0005V12.5052C18.1021 11.924 19.5613 10.9802 21.8379 9.50037C22 10.6041 22 12.0501 22 14.0005C22 17.7717 22 19.6573 20.8284 20.8289C19.6569 22.0005 17.7712 22.0005 14 22.0005H10C6.22876 22.0005 4.34315 22.0005 3.17157 20.8289C2 19.6573 2 17.7717 2 14.0005Z" fill="#1C274C"/>
</svg>
