<svg width="24" height="24" viewBox="0 0 24 24" fill="none" xmlns="http://www.w3.org/2000/svg">
<path d="M8.25 4.00012C8.25 3.58591 8.58579 3.25012 9 3.25012H15C15.4142 3.25012 15.75 3.58591 15.75 4.00012C15.75 4.41434 15.4142 4.75012 15 4.75012H12.75V16.5001C12.75 18.0189 13.9812 19.2501 15.5 19.2501C17.0188 19.2501 18.25 18.0189 18.25 16.5001V15.9056C16.9561 15.5726 16 14.398 16 13.0001V11.2001C16 10.5374 16.5373 10.0001 17.2 10.0001H20.8C21.4627 10.0001 22 10.5374 22 11.2001V13.0001C22 14.398 21.0439 15.5726 19.75 15.9056V16.5001C19.75 18.8473 17.8472 20.7501 15.5 20.7501C14.0484 20.7501 12.7667 20.0223 12 18.9117C11.2333 20.0223 9.95165 20.7501 8.5 20.7501C6.15279 20.7501 4.25 18.8473 4.25 16.5001V15.9056C2.95608 15.5726 2 14.398 2 13.0001V10.8573C2 10.3839 2.38376 10.0001 2.85714 10.0001H7.14286C7.61624 10.0001 8 10.3839 8 10.8573V13.0001C8 14.398 7.04392 15.5726 5.75 15.9056V16.5001C5.75 18.0189 6.98122 19.2501 8.5 19.2501C10.0188 19.2501 11.25 18.0189 11.25 16.5001V4.75012H9C8.58579 4.75012 8.25 4.41434 8.25 4.00012Z" fill="#1C274C"/>
</svg>
