<svg width="24" height="24" viewBox="0 0 24 24" fill="none" xmlns="http://www.w3.org/2000/svg">
<path fill-rule="evenodd" clip-rule="evenodd" d="M13.0867 21.3879L13.6288 20.4721C14.0492 19.7617 14.2595 19.4065 14.5972 19.2101C14.9349 19.0137 15.36 19.0063 16.2104 18.9917C17.4658 18.9701 18.2531 18.8932 18.9134 18.6196C20.1386 18.1122 21.1119 17.1388 21.6194 15.9137C22 14.9948 22 13.83 22 11.5002V10.5002C22 7.22681 22 5.5901 21.2632 4.38775C20.8509 3.71497 20.2853 3.14932 19.6125 2.73704C18.4101 2.00024 16.7734 2.00024 13.5 2.00024H10.5C7.22657 2.00024 5.58985 2.00024 4.38751 2.73704C3.71473 3.14932 3.14908 3.71497 2.7368 4.38775C2 5.5901 2 7.22681 2 10.5002V11.5002C2 13.83 2 14.9948 2.3806 15.9137C2.88807 17.1388 3.86144 18.1122 5.08658 18.6196C5.74689 18.8931 6.53422 18.9701 7.78958 18.9917C8.63992 19.0063 9.06509 19.0137 9.40279 19.2101C9.74049 19.4065 9.95073 19.7617 10.3712 20.4721L10.9133 21.3879C11.3965 22.2042 12.6035 22.2042 13.0867 21.3879ZM12 6.25024C12.4142 6.25024 12.75 6.58603 12.75 7.00024V15.0002C12.75 15.4145 12.4142 15.7502 12 15.7502C11.5858 15.7502 11.25 15.4145 11.25 15.0002V7.00024C11.25 6.58603 11.5858 6.25024 12 6.25024ZM8.75 9.00024C8.75 8.58603 8.41421 8.25024 8 8.25024C7.58579 8.25024 7.25 8.58603 7.25 9.00024V13.0002C7.25 13.4145 7.58579 13.7502 8 13.7502C8.41421 13.7502 8.75 13.4145 8.75 13.0002V9.00024ZM16 8.25024C16.4142 8.25024 16.75 8.58603 16.75 9.00024V13.0002C16.75 13.4145 16.4142 13.7502 16 13.7502C15.5858 13.7502 15.25 13.4145 15.25 13.0002V9.00024C15.25 8.58603 15.5858 8.25024 16 8.25024Z" fill="#1C274C"/>
</svg>
