<svg width="24" height="24" viewBox="0 0 24 24" fill="none" xmlns="http://www.w3.org/2000/svg">
<path fill-rule="evenodd" clip-rule="evenodd" d="M13.0867 21.3879L13.6288 20.4721C14.0492 19.7617 14.2595 19.4065 14.5972 19.2101C14.9349 19.0137 15.36 19.0063 16.2104 18.9917C17.4658 18.9701 18.2531 18.8932 18.9134 18.6196C20.1386 18.1122 21.1119 17.1388 21.6194 15.9137C22 14.9948 22 13.83 22 11.5002V10.5002C22 7.22681 22 5.5901 21.2632 4.38775C20.8509 3.71497 20.2853 3.14932 19.6125 2.73704C18.4101 2.00024 16.7734 2.00024 13.5 2.00024H10.5C7.22657 2.00024 5.58985 2.00024 4.38751 2.73704C3.71473 3.14932 3.14908 3.71497 2.7368 4.38775C2 5.5901 2 7.22681 2 10.5002V11.5002C2 13.83 2 14.9948 2.3806 15.9137C2.88807 17.1388 3.86144 18.1122 5.08658 18.6196C5.74689 18.8931 6.53422 18.9701 7.78958 18.9917C8.63992 19.0063 9.06509 19.0137 9.40279 19.2101C9.74049 19.4065 9.95073 19.7617 10.3712 20.4721L10.9133 21.3879C11.3965 22.2042 12.6035 22.2042 13.0867 21.3879ZM16 12.0002C16.5523 12.0002 17 11.5525 17 11.0002C17 10.448 16.5523 10.0002 16 10.0002C15.4477 10.0002 15 10.448 15 11.0002C15 11.5525 15.4477 12.0002 16 12.0002ZM13 11.0002C13 11.5525 12.5523 12.0002 12 12.0002C11.4477 12.0002 11 11.5525 11 11.0002C11 10.448 11.4477 10.0002 12 10.0002C12.5523 10.0002 13 10.448 13 11.0002ZM8 12.0002C8.55228 12.0002 9 11.5525 9 11.0002C9 10.448 8.55228 10.0002 8 10.0002C7.44772 10.0002 7 10.448 7 11.0002C7 11.5525 7.44772 12.0002 8 12.0002Z" fill="#1C274C"/>
</svg>
