<svg width="24" height="24" viewBox="0 0 24 24" fill="none" xmlns="http://www.w3.org/2000/svg">
<path fill-rule="evenodd" clip-rule="evenodd" d="M22 12.0002C22 17.5231 17.5228 22.0002 12 22.0002C10.4003 22.0002 8.88837 21.6246 7.54753 20.9568C7.19121 20.7793 6.78393 20.7202 6.39939 20.8231L4.17335 21.4187C3.20701 21.6773 2.32295 20.7932 2.58151 19.8269L3.17712 17.6009C3.28001 17.2163 3.22094 16.809 3.04346 16.4527C2.37562 15.1119 2 13.5999 2 12.0002C2 6.4774 6.47715 2.00024 12 2.00024C17.5228 2.00024 22 6.4774 22 12.0002ZM12 7.25024C12.4142 7.25024 12.75 7.58603 12.75 8.00024V16.0002C12.75 16.4145 12.4142 16.7502 12 16.7502C11.5858 16.7502 11.25 16.4145 11.25 16.0002V8.00024C11.25 7.58603 11.5858 7.25024 12 7.25024ZM8.75 10.0002C8.75 9.58603 8.41421 9.25024 8 9.25024C7.58579 9.25024 7.25 9.58603 7.25 10.0002V14.0002C7.25 14.4145 7.58579 14.7502 8 14.7502C8.41421 14.7502 8.75 14.4145 8.75 14.0002V10.0002ZM16 9.25024C16.4142 9.25024 16.75 9.58603 16.75 10.0002V14.0002C16.75 14.4145 16.4142 14.7502 16 14.7502C15.5858 14.7502 15.25 14.4145 15.25 14.0002V10.0002C15.25 9.58603 15.5858 9.25024 16 9.25024Z" fill="#1C274C"/>
</svg>
