<svg width="24" height="24" viewBox="0 0 24 24" fill="none" xmlns="http://www.w3.org/2000/svg">
<path d="M13.0867 21.3879L13.6288 20.4721C14.0492 19.7617 14.2595 19.4065 14.5972 19.2101C14.9349 19.0137 15.36 19.0063 16.2104 18.9917C17.4658 18.9701 18.2531 18.8932 18.9134 18.6196C20.1386 18.1122 21.1119 17.1388 21.6194 15.9137C22 14.9948 22 13.83 22 11.5002V10.5002C22 10.1306 22 9.78177 21.9989 9.45212C21.9976 9.02479 21.4751 8.78331 21.0971 8.98274C20.4709 9.31318 19.7573 9.50024 19 9.50024C16.5147 9.50024 14.5 7.48553 14.5 5.00024C14.5 4.24295 14.6871 3.52935 15.0175 2.90313C15.2169 2.52519 14.9755 2.00268 14.5481 2.00131C14.2185 2.00024 13.8697 2.00024 13.5 2.00024H10.5C7.22657 2.00024 5.58985 2.00024 4.38751 2.73704C3.71473 3.14932 3.14908 3.71497 2.7368 4.38775C2 5.5901 2 7.22681 2 10.5002V11.5002C2 13.83 2 14.9948 2.3806 15.9137C2.88807 17.1388 3.86144 18.1122 5.08658 18.6196C5.74689 18.8931 6.53422 18.9701 7.78958 18.9917C8.63992 19.0063 9.06509 19.0137 9.40279 19.2101C9.74049 19.4065 9.95073 19.7617 10.3712 20.4721L10.9133 21.3879C11.3965 22.2042 12.6035 22.2042 13.0867 21.3879Z" fill="#1C274C"/>
<circle cx="19" cy="5.00024" r="3" fill="#1C274C"/>
</svg>
