<svg width="24" height="24" viewBox="0 0 24 24" fill="none" xmlns="http://www.w3.org/2000/svg">
<path fill-rule="evenodd" clip-rule="evenodd" d="M22 12.0002C22 17.5231 17.5228 22.0002 12 22.0002C10.4003 22.0002 8.88836 21.6246 7.54753 20.9568C7.19121 20.7793 6.78393 20.7202 6.39939 20.8231L4.17335 21.4187C3.20701 21.6773 2.32295 20.7932 2.58151 19.8269L3.17712 17.6009C3.28001 17.2163 3.22094 16.809 3.04346 16.4527C2.37562 15.1119 2 13.5999 2 12.0002C2 6.4774 6.47715 2.00024 12 2.00024C17.5228 2.00024 22 6.4774 22 12.0002ZM6.5 12.0006C6.5 12.6081 6.99249 13.1006 7.6 13.1006C8.20751 13.1006 8.7 12.6081 8.7 12.0006C8.7 11.3931 8.20751 10.9006 7.6 10.9006C6.99249 10.9006 6.5 11.3931 6.5 12.0006ZM10.9 12.0006C10.9 12.6081 11.3925 13.1006 12 13.1006C12.6075 13.1006 13.1 12.6081 13.1 12.0006C13.1 11.3931 12.6075 10.9006 12 10.9006C11.3925 10.9006 10.9 11.3931 10.9 12.0006ZM16.4 13.1006C15.7925 13.1006 15.3 12.6081 15.3 12.0006C15.3 11.3931 15.7925 10.9006 16.4 10.9006C17.0075 10.9006 17.5 11.3931 17.5 12.0006C17.5 12.6081 17.0075 13.1006 16.4 13.1006Z" fill="#1C274C"/>
</svg>
