<svg width="24" height="24" viewBox="0 0 24 24" fill="none" xmlns="http://www.w3.org/2000/svg">
<path d="M7 5.00012C4.23858 5.00012 2 7.2387 2 10.0001C2 12.0504 3.2341 13.8125 5 14.5841V17.2501H19L19 14.5841C20.7659 13.8125 22 12.0504 22 10.0001C22 7.2387 19.7614 5.00012 17 5.00012C16.7495 5.00012 16.5033 5.01855 16.2626 5.05411C15.6604 3.27818 13.9794 2.00012 12 2.00012C10.0206 2.00012 8.33961 3.27818 7.73736 5.05411C7.49673 5.01855 7.25052 5.00012 7 5.00012Z" fill="#1C274C"/>
<path d="M18.9983 18.7501H5.00169C5.01188 20.1471 5.08343 20.912 5.58579 21.4143C6.17157 22.0001 7.11438 22.0001 9 22.0001H15C16.8856 22.0001 17.8284 22.0001 18.4142 21.4143C18.9166 20.912 18.9881 20.1471 18.9983 18.7501Z" fill="#1C274C"/>
</svg>
