<svg width="24" height="24" viewBox="0 0 24 24" fill="none" xmlns="http://www.w3.org/2000/svg">
<path fill-rule="evenodd" clip-rule="evenodd" d="M3.46447 3.46495C2 4.92942 2 7.28644 2 12.0005C2 16.7145 2 19.0716 3.46447 20.536C4.92893 22.0005 7.28595 22.0005 12 22.0005C16.714 22.0005 19.0711 22.0005 20.5355 20.536C22 19.0716 22 16.7145 22 12.0005C22 7.28644 22 4.92942 20.5355 3.46495C19.0711 2.00049 16.714 2.00049 12 2.00049C7.28595 2.00049 4.92893 2.00049 3.46447 3.46495ZM12.75 8.00049C12.75 7.58627 12.4142 7.25049 12 7.25049C11.5858 7.25049 11.25 7.58627 11.25 8.00049V12.0005C11.25 12.1994 11.329 12.3902 11.4697 12.5308L13.9697 15.0308C14.2626 15.3237 14.7374 15.3237 15.0303 15.0308C15.3232 14.7379 15.3232 14.2631 15.0303 13.9702L12.75 11.6898V8.00049Z" fill="#1C274C"/>
</svg>
