<svg width="24" height="24" viewBox="0 0 24 24" fill="none" xmlns="http://www.w3.org/2000/svg">
<path d="M19.3517 7.6169L15.3929 4.054C14.2651 3.03892 13.7012 2.53139 13.0092 2.26587L13 5.00035C13 7.35737 13 8.53588 13.7322 9.26812C14.4645 10.0004 15.643 10.0004 18 10.0004H21.5801C21.2175 9.29613 20.5684 8.71189 19.3517 7.6169Z" fill="#1C274C"/>
<path fill-rule="evenodd" clip-rule="evenodd" d="M10 22.0002H14C17.7712 22.0002 19.6569 22.0002 20.8284 20.8287C22 19.6571 22 17.7715 22 14.0002V13.5631C22 12.6903 22 12.0346 21.9574 11.5004H18L17.9051 11.5004C16.808 11.5004 15.8385 11.5005 15.0569 11.3954C14.2098 11.2816 13.3628 11.02 12.6716 10.3288C11.9803 9.63751 11.7188 8.79052 11.6049 7.9434C11.4998 7.16189 11.4999 6.19232 11.5 5.09521L11.5092 2.26081C11.5095 2.17837 11.5166 2.09684 11.53 2.01691C11.1214 2.00024 10.6358 2.00024 10.0298 2.00024C6.23869 2.00024 4.34315 2.00024 3.17157 3.17182C2 4.34339 2 6.22901 2 10.0002V14.0002C2 17.7715 2 19.6571 3.17157 20.8287C4.34315 22.0002 6.22876 22.0002 10 22.0002ZM10.9697 15.4699C11.2626 15.177 11.7374 15.177 12.0303 15.4699L13.0303 16.4699C13.3232 16.7628 13.3232 17.2377 13.0303 17.5306L12.0303 18.5306C11.7374 18.8235 11.2626 18.8235 10.9697 18.5306C10.6768 18.2377 10.6768 17.7628 10.9697 17.4699L11.4393 17.0002L10.9697 16.5306C10.6768 16.2377 10.6768 15.7628 10.9697 15.4699ZM10.7022 14.2636C10.8477 13.8757 10.6512 13.4434 10.2633 13.298C9.8755 13.1526 9.44319 13.3491 9.29775 13.7369L7.79775 17.7369C7.65231 18.1247 7.84882 18.557 8.23666 18.7025C8.6245 18.8479 9.05681 18.6514 9.20225 18.2636L10.7022 14.2636ZM7.53033 13.4699C7.82322 13.7628 7.82322 14.2377 7.53033 14.5306L7.06066 15.0002L7.53033 15.4699C7.82322 15.7628 7.82322 16.2377 7.53033 16.5306C7.23744 16.8235 6.76256 16.8235 6.46967 16.5306L5.46967 15.5306C5.17678 15.2377 5.17678 14.7628 5.46967 14.4699L6.46967 13.4699C6.76256 13.177 7.23744 13.177 7.53033 13.4699Z" fill="#1C274C"/>
</svg>
