<svg width="24" height="24" viewBox="0 0 24 24" fill="none" xmlns="http://www.w3.org/2000/svg">
<path d="M14.1809 4.27586C14.581 4.38307 14.8185 4.79432 14.7113 5.19442L10.7377 20.0241C10.6304 20.4242 10.2192 20.6617 9.81909 20.5545C9.41899 20.4473 9.18156 20.036 9.28876 19.6359L13.2624 4.80619C13.3696 4.40609 13.7808 4.16866 14.1809 4.27586Z" fill="#1C274C"/>
<path d="M16.4425 7.32817C16.7196 7.02029 17.1938 6.99533 17.5017 7.27243L19.2392 8.83617C19.9756 9.49883 20.5864 10.0485 21.0058 10.5471C21.4468 11.0713 21.7603 11.6346 21.7603 12.3299C21.7603 13.0252 21.4468 13.5885 21.0058 14.1127C20.5864 14.6113 19.9756 15.161 19.2392 15.8236L17.5017 17.3874C17.1938 17.6645 16.7196 17.6395 16.4425 17.3316C16.1654 17.0237 16.1904 16.5495 16.4983 16.2724L18.1947 14.7456C18.9826 14.0365 19.5138 13.5561 19.8579 13.1471C20.1882 12.7545 20.2603 12.5253 20.2603 12.3299C20.2603 12.1345 20.1882 11.9053 19.8579 11.5127C19.5138 11.1037 18.9826 10.6233 18.1947 9.91419L16.4983 8.38737C16.1904 8.11027 16.1654 7.63606 16.4425 7.32817Z" fill="#1C274C"/>
<path d="M7.50178 8.38737C7.80966 8.11027 7.83462 7.63606 7.55752 7.32817C7.28043 7.02029 6.80621 6.99533 6.49833 7.27243L4.76084 8.83617C4.0245 9.49883 3.41369 10.0485 2.99428 10.5471C2.55325 11.0713 2.23975 11.6346 2.23975 12.3299C2.23975 13.0252 2.55325 13.5885 2.99428 14.1127C3.41369 14.6113 4.02449 15.161 4.76082 15.8236L6.49833 17.3874C6.80621 17.6645 7.28043 17.6395 7.55752 17.3316C7.83462 17.0237 7.80966 16.5495 7.50178 16.2724L5.80531 14.7456C5.01743 14.0365 4.48623 13.5561 4.14213 13.1471C3.81188 12.7545 3.73975 12.5253 3.73975 12.3299C3.73975 12.1345 3.81188 11.9053 4.14213 11.5127C4.48623 11.1037 5.01743 10.6233 5.80531 9.91419L7.50178 8.38737Z" fill="#1C274C"/>
</svg>
