<svg width="24" height="24" viewBox="0 0 24 24" fill="none" xmlns="http://www.w3.org/2000/svg">
<path d="M8.50178 5.38743C8.80966 5.11034 8.83462 4.63612 8.55752 4.32824C8.28043 4.02036 7.80621 3.9954 7.49833 4.27249L5.76084 5.83623C5.0245 6.4989 4.41369 7.04858 3.99428 7.54715C3.55325 8.07141 3.23975 8.63466 3.23975 9.32996C3.23975 10.0253 3.55325 10.5885 3.99428 11.1128C4.41369 11.6113 5.02449 12.161 5.76083 12.8237L7.49833 14.3874C7.80621 14.6645 8.28043 14.6396 8.55752 14.3317C8.83462 14.0238 8.80966 13.5496 8.50178 13.2725L6.80531 11.7457C6.01743 11.0366 5.48623 10.5562 5.14213 10.1471C4.81188 9.75457 4.73975 9.52539 4.73975 9.32996C4.73975 9.13454 4.81188 8.90535 5.14213 8.51278C5.48623 8.10374 6.01743 7.62334 6.80531 6.91426L8.50178 5.38743Z" fill="#1C274C"/>
<path d="M14.1795 4.27554C14.5798 4.38194 14.818 4.79271 14.7117 5.19302L10.7248 20.193C10.6184 20.5933 10.2077 20.8316 9.80735 20.7252C9.40703 20.6188 9.16877 20.208 9.27517 19.8077L13.262 4.80772C13.3684 4.40741 13.7792 4.16914 14.1795 4.27554Z" fill="#1C274C"/>
<path d="M15.4425 10.4986C15.7196 10.1908 16.1938 10.1658 16.5017 10.4429L18.2392 12.0066C18.9756 12.6693 19.5864 13.219 20.0058 13.7176C20.4468 14.2418 20.7603 14.8051 20.7603 15.5004C20.7603 16.1957 20.4468 16.7589 20.0058 17.2832C19.5864 17.7817 18.9756 18.3314 18.2392 18.9941L16.5017 20.5578C16.1938 20.8349 15.7196 20.81 15.4425 20.5021C15.1654 20.1942 15.1904 19.72 15.4983 19.4429L17.1947 17.9161C17.9826 17.207 18.5138 16.7266 18.8579 16.3176C19.1882 15.925 19.2603 15.6958 19.2603 15.5004C19.2603 15.3049 19.1882 15.0758 18.8579 14.6832C18.5138 14.2742 17.9826 13.7938 17.1947 13.0847L15.4983 11.5578C15.1904 11.2807 15.1654 10.8065 15.4425 10.4986Z" fill="#1C274C"/>
</svg>
