<svg width="24" height="24" viewBox="0 0 24 24" fill="none" xmlns="http://www.w3.org/2000/svg">
<path d="M9.18527 2.00012H14.8149C16.6526 2.00012 17.5715 2.00012 18.2943 2.44444C18.419 2.5211 18.5379 2.60679 18.6501 2.70081C19.3003 3.24574 19.5912 4.11739 20.1729 5.86062L20.2087 5.96804C20.5275 6.9233 20.6869 7.40093 20.5185 7.76207C20.4653 7.87604 20.3912 7.97897 20.2999 8.06545C20.0106 8.33949 19.5071 8.33949 18.5001 8.33949L18.0739 11.2501H5.92614L5.5 8.33949C4.49299 8.33949 3.98949 8.33948 3.70022 8.06545C3.60893 7.97897 3.53477 7.87604 3.48163 7.76207C3.31325 7.40093 3.47263 6.9233 3.79139 5.96803L3.82722 5.86068C4.40893 4.11739 4.69979 3.24575 5.35004 2.70081C5.46223 2.60679 5.58115 2.5211 5.70585 2.44444C6.42859 2.00012 7.34749 2.00012 9.18527 2.00012Z" fill="#1C274C"/>
<path d="M17.3418 16.2501H6.65817L6.14575 12.7501H17.8543L17.3418 16.2501Z" fill="#1C274C"/>
<path d="M13.043 22.0001H10.957C9.30835 22.0001 8.48401 22.0001 7.92073 21.5133C7.35745 21.0265 7.23804 20.2108 6.99921 18.5796L6.87778 17.7501H17.1222L17.0008 18.5796C16.762 20.2108 16.6425 21.0265 16.0793 21.5133C15.516 22.0001 14.6917 22.0001 13.043 22.0001Z" fill="#1C274C"/>
</svg>
