<svg width="24" height="24" viewBox="0 0 24 24" fill="none" xmlns="http://www.w3.org/2000/svg">
<path fill-rule="evenodd" clip-rule="evenodd" d="M10.5487 21.528L10.7988 21.1055C11.1996 20.4285 11.3999 20.0899 11.7191 19.9011C12.0383 19.7123 12.4547 19.699 13.2874 19.6723C14.0682 19.6474 14.593 19.5792 15.0417 19.3934C15.9864 19.0021 16.7369 18.2515 17.1282 17.3068C17.4217 16.5983 17.4217 15.7001 17.4217 13.9037V13.1326C17.4217 10.6085 17.4217 9.34646 16.8536 8.41935C16.5357 7.90058 16.0995 7.46441 15.5807 7.14651C14.6536 6.57837 13.3916 6.57837 10.8675 6.57837H8.55422C6.03013 6.57837 4.76808 6.57837 3.84097 7.14651C3.3222 7.46441 2.88604 7.90058 2.56813 8.41935C2 9.34646 2 10.6085 2 13.1326V13.9037C2 15.7001 2 16.5983 2.29348 17.3068C2.68478 18.2515 3.43533 19.0021 4.38002 19.3934C4.82871 19.5792 5.35348 19.6474 6.13427 19.6723C6.96698 19.699 7.38334 19.7123 7.70253 19.9011C8.02172 20.0899 8.2221 20.4285 8.62285 21.1055L8.87291 21.528C9.24547 22.1574 10.1762 22.1574 10.5487 21.528ZM13.0843 14.2892C13.6167 14.2892 14.0482 13.8577 14.0482 13.3254C14.0482 12.793 13.6167 12.3615 13.0843 12.3615C12.552 12.3615 12.1205 12.793 12.1205 13.3254C12.1205 13.8577 12.552 14.2892 13.0843 14.2892ZM10.6747 13.3254C10.6747 13.8577 10.2432 14.2892 9.71084 14.2892C9.17852 14.2892 8.74699 13.8577 8.74699 13.3254C8.74699 12.793 9.17852 12.3615 9.71084 12.3615C10.2432 12.3615 10.6747 12.793 10.6747 13.3254ZM6.33735 14.2892C6.86967 14.2892 7.30121 13.8577 7.30121 13.3254C7.30121 12.793 6.86967 12.3615 6.33735 12.3615C5.80503 12.3615 5.37349 12.793 5.37349 13.3254C5.37349 13.8577 5.80503 14.2892 6.33735 14.2892Z" fill="#1C274C"/>
<path d="M15.1696 2.00024C16.3214 2.00024 17.2372 2.00023 17.9717 2.07007C18.7249 2.14168 19.3617 2.29178 19.9289 2.6394C20.5125 2.99704 21.0032 3.48773 21.3608 4.07134C21.7085 4.6386 21.8586 5.27538 21.9302 6.02853C22 6.76303 22 7.67895 22 8.83063V9.61724C22 10.4369 22 11.0889 21.9639 11.6175C21.927 12.1584 21.85 12.6228 21.6698 13.0577C21.2296 14.1205 20.3853 14.9649 19.3225 15.4051C19.2959 15.4161 19.2692 15.4267 19.2423 15.437C19.114 15.486 19.0042 15.528 18.9077 15.5593C18.9217 15.0905 18.9217 14.5565 18.9217 13.9539V13.0616C18.9217 11.86 18.9217 10.8535 18.8439 10.0351C18.7625 9.17842 18.5853 8.37445 18.1325 7.6356C17.6909 6.915 17.0851 6.30914 16.3645 5.86755C15.6256 5.41478 14.8217 5.23758 13.9649 5.15612C13.1466 5.07831 12.14 5.07834 10.9384 5.07837H8.48326C7.66717 5.07835 6.94105 5.07833 6.30276 5.1027C6.3325 4.99965 6.37324 4.88153 6.42106 4.74288C6.5024 4.50707 6.60519 4.28405 6.73554 4.07134C7.09318 3.48773 7.58386 2.99704 8.16748 2.6394C8.73473 2.29178 9.37152 2.14168 10.1247 2.07007C10.8592 2.00023 11.775 2.00024 12.9268 2.00024H15.1696Z" fill="#1C274C"/>
</svg>
