<svg width="24" height="24" viewBox="0 0 24 24" fill="none" xmlns="http://www.w3.org/2000/svg">
<path d="M22 8.50024C22 4.91039 19.0899 2.00024 15.5 2.00024C13.4171 2.00024 11.5631 2.98254 10.3735 4.50745C15.4471 4.70361 19.5 8.87862 19.5 14.0002C19.5 14.1106 19.4981 14.2204 19.4944 14.3298L19.8267 14.4187C20.793 14.6773 21.677 13.7932 21.4185 12.8269L21.2911 12.3509C21.1882 11.9663 21.2501 11.5601 21.4155 11.198C21.7908 10.3762 22 9.46266 22 8.50024Z" fill="#1C274C"/>
<path fill-rule="evenodd" clip-rule="evenodd" d="M18 14.0002C18 18.4185 14.4183 22.0002 10 22.0002C8.76449 22.0002 7.5944 21.7202 6.54976 21.22C6.19071 21.0481 5.78393 20.9878 5.39939 21.0907L4.17335 21.4187C3.20701 21.6773 2.32295 20.7932 2.58151 19.8269L2.90955 18.6009C3.01245 18.2163 2.95209 17.8095 2.7802 17.4505C2.28008 16.4058 2 15.2357 2 14.0002C2 9.58197 5.58172 6.00024 10 6.00024C14.4183 6.00024 18 9.58197 18 14.0002ZM6.5 15.0002C7.05228 15.0002 7.5 14.5525 7.5 14.0002C7.5 13.448 7.05228 13.0002 6.5 13.0002C5.94772 13.0002 5.5 13.448 5.5 14.0002C5.5 14.5525 5.94772 15.0002 6.5 15.0002ZM10 15.0002C10.5523 15.0002 11 14.5525 11 14.0002C11 13.448 10.5523 13.0002 10 13.0002C9.44772 13.0002 9 13.448 9 14.0002C9 14.5525 9.44772 15.0002 10 15.0002ZM13.5 15.0002C14.0523 15.0002 14.5 14.5525 14.5 14.0002C14.5 13.448 14.0523 13.0002 13.5 13.0002C12.9477 13.0002 12.5 13.448 12.5 14.0002C12.5 14.5525 12.9477 15.0002 13.5 15.0002Z" fill="#1C274C"/>
</svg>
