<svg width="24" height="24" viewBox="0 0 24 24" fill="none" xmlns="http://www.w3.org/2000/svg">
<path fill-rule="evenodd" clip-rule="evenodd" d="M2 12.0005V8.00049C2 5.17206 2 3.75785 2.87868 2.87917C3.75736 2.00049 5.17157 2.00049 8 2.00049H16C18.8284 2.00049 20.2426 2.00049 21.1213 2.87917C22 3.75785 22 5.17206 22 8.00049V12.0005C22 14.8289 22 16.2431 21.1213 17.1218C20.4749 17.7682 19.5388 17.9391 17.963 17.9843C17.9593 17.2484 17.7037 16.5136 17.1961 15.918C17.1674 15.8844 17.1501 15.8425 17.1465 15.7984C17.0211 14.2269 15.7733 12.979 14.2018 12.8536C14.1577 12.8501 14.1158 12.8327 14.0821 12.804C12.8822 11.7815 11.1174 11.7815 9.91755 12.804C9.88386 12.8327 9.84198 12.8501 9.79786 12.8536C8.22638 12.979 6.9785 14.2269 6.85309 15.7984C6.84957 15.8425 6.83222 15.8844 6.80352 15.918C6.29595 16.5136 6.04033 17.2484 6.03666 17.9842C4.4611 17.939 3.52501 17.7681 2.87868 17.1218C2 16.2431 2 14.8289 2 12.0005ZM8.25 6.00049C8.25 5.58627 8.58579 5.25049 9 5.25049H15C15.4142 5.25049 15.75 5.58627 15.75 6.00049C15.75 6.4147 15.4142 6.75049 15 6.75049H9C8.58579 6.75049 8.25 6.4147 8.25 6.00049ZM7 8.75049C6.58579 8.75049 6.25 9.08627 6.25 9.50049C6.25 9.9147 6.58579 10.2505 7 10.2505H17C17.4142 10.2505 17.75 9.9147 17.75 9.50049C17.75 9.08627 17.4142 8.75049 17 8.75049H7Z" fill="#1C274C"/>
<path fill-rule="evenodd" clip-rule="evenodd" d="M13.1092 13.9457C12.4699 13.4009 11.5297 13.4009 10.8905 13.9457C10.6165 14.1791 10.276 14.3202 9.91719 14.3488C9.07997 14.4156 8.41515 15.0805 8.34834 15.9177C8.31971 16.2764 8.17863 16.617 7.94519 16.891C7.40043 17.5302 7.40043 18.4704 7.94519 19.1096C8.17863 19.3836 8.31971 19.7242 8.34834 20.0829C8.41515 20.9202 9.07997 21.585 9.91719 21.6518C10.276 21.6804 10.6165 21.8215 10.8905 22.0549C11.5297 22.5997 12.4699 22.5997 13.1092 22.0549C13.3831 21.8215 13.7237 21.6804 14.0824 21.6518C14.9197 21.585 15.5845 20.9202 15.6513 20.0829C15.6799 19.7242 15.821 19.3836 16.0544 19.1096C16.5992 18.4704 16.5992 17.5302 16.0544 16.891C15.821 16.617 15.6799 16.2764 15.6513 15.9177C15.5845 15.0805 14.9197 14.4156 14.0824 14.3488C13.7237 14.3202 13.3831 14.1791 13.1092 13.9457ZM14.0117 17.5488C14.3146 17.2662 14.3309 16.7916 14.0483 16.4888C13.7657 16.1859 13.2911 16.1696 12.9883 16.4522L11.3571 17.9746L11.0117 17.6522C10.7089 17.3696 10.2343 17.3859 9.95171 17.6888C9.66909 17.9916 9.68545 18.4662 9.98826 18.7488L10.8454 19.5488C11.1336 19.8177 11.5807 19.8177 11.8689 19.5488L14.0117 17.5488Z" fill="#1C274C"/>
</svg>
