<svg width="24" height="24" viewBox="0 0 24 24" fill="none" xmlns="http://www.w3.org/2000/svg">
<path d="M1.75 10.0008V14.0008C1.75 16.8293 1.75 18.2435 2.62868 19.1222C2.84602 19.3395 3.09612 19.5031 3.39228 19.6262C3.38556 19.5817 3.37922 19.5371 3.37321 19.4925C3.24986 18.575 3.24992 17.4293 3.25 16.0995L3.25 8.00079L3.25 7.90204V7.90204C3.24992 6.57231 3.24986 5.42659 3.37321 4.5091C3.37921 4.46447 3.38555 4.41993 3.39226 4.37549C3.09611 4.49861 2.84601 4.66218 2.62868 4.87952C1.75 5.7582 1.75 7.17241 1.75 10.0008Z" fill="#1C274C"/>
<path d="M21.75 10.0008V14.0008C21.75 16.8293 21.75 18.2435 20.8713 19.1222C20.654 19.3395 20.4039 19.5031 20.1077 19.6262C20.1144 19.5817 20.1208 19.5371 20.1268 19.4925C20.2501 18.575 20.2501 17.4293 20.25 16.0995V7.90205C20.2501 6.57232 20.2501 5.42659 20.1268 4.5091C20.1208 4.46447 20.1144 4.41993 20.1077 4.37549C20.4039 4.49861 20.654 4.66218 20.8713 4.87952C21.75 5.7582 21.75 7.17241 21.75 10.0008Z" fill="#1C274C"/>
<path fill-rule="evenodd" clip-rule="evenodd" d="M5.62868 2.87917C4.75 3.75785 4.75 5.17206 4.75 8.00049V16.0005C4.75 18.8289 4.75 20.2431 5.62868 21.1218C6.50736 22.0005 7.92157 22.0005 10.75 22.0005H12.75C15.5784 22.0005 16.9926 22.0005 17.8713 21.1218C18.75 20.2431 18.75 18.8289 18.75 16.0005V8.00049C18.75 5.17206 18.75 3.75785 17.8713 2.87917C16.9926 2.00049 15.5784 2.00049 12.75 2.00049H10.75C7.92157 2.00049 6.50736 2.00049 5.62868 2.87917ZM8 17.0005C8 16.5863 8.33579 16.2505 8.75 16.2505H11.75C12.1642 16.2505 12.5 16.5863 12.5 17.0005C12.5 17.4147 12.1642 17.7505 11.75 17.7505H8.75C8.33579 17.7505 8 17.4147 8 17.0005ZM8.75 12.2505C8.33579 12.2505 8 12.5863 8 13.0005C8 13.4147 8.33579 13.7505 8.75 13.7505H14.75C15.1642 13.7505 15.5 13.4147 15.5 13.0005C15.5 12.5863 15.1642 12.2505 14.75 12.2505H8.75ZM8 9.00049C8 8.58627 8.33579 8.25049 8.75 8.25049H14.75C15.1642 8.25049 15.5 8.58627 15.5 9.00049C15.5 9.4147 15.1642 9.75049 14.75 9.75049H8.75C8.33579 9.75049 8 9.4147 8 9.00049Z" fill="#1C274C"/>
</svg>
