<svg width="24" height="24" viewBox="0 0 24 24" fill="none" xmlns="http://www.w3.org/2000/svg">
<path fill-rule="evenodd" clip-rule="evenodd" d="M4.17157 3.17206C3 4.34363 3 6.22925 3 10.0005V14.0005C3 17.7717 3 19.6573 4.17157 20.8289C5.34315 22.0005 7.22876 22.0005 11 22.0005H13C16.7712 22.0005 18.6569 22.0005 19.8284 20.8289C21 19.6573 21 17.7717 21 14.0005V10.0005C21 6.22925 21 4.34363 19.8284 3.17206C18.6569 2.00049 16.7712 2.00049 13 2.00049H11C7.22876 2.00049 5.34315 2.00049 4.17157 3.17206ZM7.25 8.00049C7.25 7.58627 7.58579 7.25049 8 7.25049H16C16.4142 7.25049 16.75 7.58627 16.75 8.00049C16.75 8.4147 16.4142 8.75049 16 8.75049H8C7.58579 8.75049 7.25 8.4147 7.25 8.00049ZM7.25 12.0005C7.25 11.5863 7.58579 11.2505 8 11.2505H16C16.4142 11.2505 16.75 11.5863 16.75 12.0005C16.75 12.4147 16.4142 12.7505 16 12.7505H8C7.58579 12.7505 7.25 12.4147 7.25 12.0005ZM8 15.2505C7.58579 15.2505 7.25 15.5863 7.25 16.0005C7.25 16.4147 7.58579 16.7505 8 16.7505H13C13.4142 16.7505 13.75 16.4147 13.75 16.0005C13.75 15.5863 13.4142 15.2505 13 15.2505H8Z" fill="#1C274C"/>
</svg>
