<svg width="24" height="24" viewBox="0 0 24 24" fill="none" xmlns="http://www.w3.org/2000/svg">
<path d="M18.6772 14.5311C19.1703 14.0392 19.4791 13.7501 20.1526 13.7501C20.7467 13.7501 21.2865 13.9875 21.7349 14.2974C20.6968 18.713 16.7323 22.0001 12 22.0001C7.46768 22.0001 3.6396 18.9849 2.41225 14.851C3.23745 15.3037 4.30084 15.7501 5.33179 15.7501C6.14547 15.7501 6.96656 15.4734 7.65714 15.1524C8.18936 14.9049 8.67974 14.6141 9.07926 14.3523C9.76665 15.2048 10.8196 15.7501 12 15.7501C12.7517 15.7501 13.4518 15.5289 14.0387 15.1481C14.6126 15.4846 15.3239 15.7501 16.1426 15.7501C17.4558 15.7501 18.1486 15.0587 18.6561 14.5522L18.6772 14.5311Z" fill="#1C274C"/>
<path d="M9.75 12.0001C9.75 10.7575 10.7574 9.75012 12 9.75012C13.2426 9.75012 14.25 10.7575 14.25 12.0001C14.25 13.2428 13.2426 14.2501 12 14.2501C10.7574 14.2501 9.75 13.2428 9.75 12.0001Z" fill="#1C274C"/>
<path fill-rule="evenodd" clip-rule="evenodd" d="M12 8.25012C9.92893 8.25012 8.25 9.92905 8.25 12.0001C8.25 12.3503 8.298 12.6893 8.38778 13.0108C8.00909 13.266 7.53309 13.5558 7.02472 13.7922C6.42077 14.073 5.83063 14.2501 5.33179 14.2501C4.57197 14.2501 3.63776 13.8434 2.81907 13.3558C2.51915 13.1771 2.25149 12.9979 2.03514 12.8444C2.01187 12.5661 2 12.2845 2 12.0001C2 8.99821 3.32274 6.30523 5.41717 4.47224C5.43347 4.49232 5.45097 4.51176 5.46967 4.53045L6.46967 5.53045C6.76256 5.82335 7.23744 5.82335 7.53033 5.53045C7.82322 5.23756 7.82322 4.76269 7.53033 4.46979L6.62594 3.5654C8.17806 2.57443 10.022 2.00012 12 2.00012C15.0019 2.00012 17.6949 3.32286 19.5279 5.41729C19.5078 5.4336 19.4884 5.4511 19.4697 5.46979L18.4697 6.46979C18.1768 6.76269 18.1768 7.23756 18.4697 7.53045C18.7626 7.82335 19.2374 7.82335 19.5303 7.53045L20.4347 6.62606C21.4257 8.17818 22 10.0221 22 12.0001C22 12.2352 21.9919 12.4684 21.9759 12.6994C21.4528 12.4365 20.8399 12.2501 20.1526 12.2501C18.8394 12.2501 18.1465 12.9416 17.639 13.4481L17.6179 13.4691C17.1248 13.961 16.816 14.2501 16.1426 14.2501C15.7922 14.2501 15.4596 14.1681 15.1508 14.0344C15.5299 13.4484 15.75 12.75 15.75 12.0001C15.75 9.92905 14.0711 8.25012 12 8.25012ZM16.45 4.40012C16.7814 4.64865 16.8485 5.11875 16.6 5.45012L15.1 7.45012C14.8515 7.78149 14.3814 7.84865 14.05 7.60012C13.7186 7.35159 13.6515 6.88149 13.9 6.55012L15.4 4.55012C15.6485 4.21875 16.1186 4.15159 16.45 4.40012ZM10.4697 3.46979C10.1768 3.76269 10.1768 4.23756 10.4697 4.53045L11.4697 5.53045C11.7626 5.82335 12.2374 5.82335 12.5303 5.53045C12.8232 5.23756 12.8232 4.76269 12.5303 4.46979L11.5303 3.46979C11.2374 3.1769 10.7626 3.1769 10.4697 3.46979ZM8.40953 7.56026C8.51674 7.96036 8.92799 8.1978 9.32809 8.09059L10.6941 7.72457C11.0942 7.61736 11.3317 7.20611 11.2244 6.80601C11.1172 6.40591 10.706 6.16847 10.3059 6.27568L8.93986 6.6417C8.53976 6.74891 8.30232 7.16016 8.40953 7.56026ZM16.7515 11.1385C17.1652 11.119 17.4849 10.7678 17.4654 10.3541L17.399 8.94142C17.3796 8.52766 17.0284 8.20801 16.6146 8.22745C16.2009 8.2469 15.8812 8.59808 15.9007 9.01184L15.9671 10.4245C15.9865 10.8382 16.3377 11.1579 16.7515 11.1385ZM18.9413 11.554C19.2151 11.8649 19.689 11.895 19.9998 11.6212L21.1734 10.648C21.4843 10.3742 21.5143 9.90031 21.2406 9.58946C20.9668 9.27861 20.4929 9.24854 20.182 9.5223L19.0085 10.4955C18.6976 10.7693 18.6675 11.2432 18.9413 11.554ZM5.89686 7.17376C5.51977 7.34517 5.35304 7.78981 5.52445 8.16689L6.10968 9.45434C6.28108 9.83142 6.72572 9.99815 7.10281 9.82675C7.47989 9.65534 7.64662 9.2107 7.47522 8.83361L6.88999 7.54617C6.71858 7.16909 6.27394 7.00235 5.89686 7.17376ZM6.94308 10.8951C7.27734 11.1397 7.34999 11.609 7.10536 11.9432L6.27012 13.0845C6.02549 13.4187 5.55621 13.4914 5.22195 13.2467C4.88769 13.0021 4.81504 12.5328 5.05967 12.1986L5.89491 11.0573C6.13954 10.7231 6.60883 10.6504 6.94308 10.8951ZM3.56234 8.18896C3.14877 8.212 2.83218 8.56594 2.85522 8.97951L2.93388 10.3915C2.95692 10.8051 3.31086 11.1217 3.72444 11.0987C4.13801 11.0756 4.4546 10.7217 4.43156 10.3081L4.35289 8.89608C4.32985 8.48251 3.97591 8.16592 3.56234 8.18896Z" fill="#1C274C"/>
</svg>
