<svg width="24" height="24" viewBox="0 0 24 24" fill="none" xmlns="http://www.w3.org/2000/svg">
<path d="M16.3447 8.93073L16.6892 6.09065L16.6892 6.09063C16.7694 5.42899 16.8096 5.09816 16.7403 4.82316C16.6479 4.45648 16.4234 4.14413 16.116 3.9548C15.8855 3.8128 15.5766 3.76982 14.9589 3.68387C14.3412 3.59791 14.0323 3.55493 13.7756 3.62912C13.4333 3.72805 13.1417 3.96858 12.9649 4.2978C12.8323 4.54472 12.7492 5.23056 12.6689 5.89222L6.53738 5.039C6.61763 4.37734 6.70081 3.69151 6.63155 3.4165C6.53919 3.04983 6.31464 2.73747 6.00727 2.54814C5.77675 2.40614 5.46789 2.36316 4.85018 2.27721C4.23246 2.19125 3.9236 2.14827 3.66686 2.22246C3.32454 2.32139 3.03292 2.56192 2.85617 2.89115C2.7236 3.13807 2.68348 3.4689 2.60323 4.13055L2.25877 6.97064C2.17852 7.63229 2.1384 7.96312 2.20767 8.23813C2.30002 8.6048 2.52458 8.91716 2.83194 9.10649C3.06246 9.24848 3.37132 9.29146 3.98903 9.37742L3.98904 9.37742L3.98904 9.37742C4.60676 9.46338 4.91561 9.50635 5.17235 9.43216C5.51468 9.33324 5.80629 9.09271 5.98305 8.76348C6.11561 8.51656 6.19879 7.83072 6.27904 7.16907L12.4106 8.02228C12.3303 8.68394 12.2471 9.36978 12.3164 9.64478C12.4088 10.0115 12.6333 10.3238 12.9407 10.5131C13.1712 10.6551 13.4801 10.6981 14.0978 10.7841L14.0978 10.7841L14.0978 10.7841C14.7155 10.87 15.0244 10.913 15.2811 10.8388C15.6234 10.7399 15.915 10.4994 16.0918 10.1701C16.2244 9.92322 16.2645 9.5924 16.3447 8.93075L16.3447 8.93073Z" fill="#1C274C"/>
<path d="M7.76122 19.9255L7.0692 17.1591C6.90798 16.5146 6.82737 16.1924 6.86208 15.91C6.90836 15.5335 7.09239 15.192 7.37368 14.9608C7.58465 14.7874 7.88549 14.7011 8.48717 14.5284C9.08885 14.3557 9.3897 14.2694 9.65334 14.3066C10.0049 14.3561 10.3236 14.5533 10.5395 14.8546C10.7013 15.0805 10.8685 15.7486 11.0297 16.393L17.0021 14.6789C16.8408 14.0344 16.6737 13.3664 16.7084 13.084C16.7547 12.7075 16.9387 12.366 17.22 12.1348C17.431 11.9615 17.7318 11.8751 18.3335 11.7024C18.9352 11.5297 19.236 11.4434 19.4997 11.4806C19.8512 11.5301 20.17 11.7273 20.3858 12.0286C20.5477 12.2545 20.6283 12.5768 20.7895 13.2213L21.4815 15.9876C21.6428 16.6321 21.7234 16.9543 21.6887 17.2367C21.6424 17.6133 21.4584 17.9547 21.1771 18.1859C20.9661 18.3593 20.6653 18.4456 20.0636 18.6183L20.0636 18.6183L20.0636 18.6183C19.4619 18.791 19.161 18.8774 18.8974 18.8402C18.5459 18.7906 18.2271 18.5935 18.0113 18.2922C17.8494 18.0662 17.6823 17.3982 17.5211 16.7537L11.5487 18.4678C11.7099 19.1123 11.877 19.7803 11.8423 20.0627C11.796 20.4393 11.612 20.7807 11.3307 21.0119C11.1197 21.1853 10.8189 21.2716 10.2172 21.4443L10.2172 21.4443L10.2172 21.4443C9.61554 21.617 9.3147 21.7034 9.05105 21.6662C8.69952 21.6166 8.38077 21.4195 8.16493 21.1182C8.00305 20.8922 7.92244 20.57 7.76122 19.9255Z" fill="#1C274C"/>
</svg>
