<svg width="24" height="24" viewBox="0 0 24 24" fill="none" xmlns="http://www.w3.org/2000/svg">
<path d="M3.92443 18.6078L5.39271 20.0761C6.08487 20.7682 6.43095 21.1143 6.861 21.1143C7.29105 21.1143 7.63713 20.7682 8.32928 20.0761L8.69636 19.709L9.06343 20.0761L9.79757 20.8102C10.4837 21.4963 10.8268 21.8394 11.2299 21.9474C11.4939 22.0182 11.7719 22.0182 12.036 21.9474C12.4391 21.8394 12.7821 21.4963 13.4683 20.8102C14.1544 20.1241 14.4975 19.781 14.6055 19.3779C14.6763 19.1139 14.6763 18.8358 14.6055 18.5718C14.4975 18.1687 14.1544 17.8256 13.4683 17.1395L12.3671 16.0383L16.0378 12.3676L17.139 13.4688C17.8251 14.1549 18.1682 14.498 18.5713 14.606C18.8353 14.6767 19.1134 14.6767 19.3774 14.606C19.7805 14.498 20.1236 14.1549 20.8097 13.4688C21.4959 12.7826 21.8389 12.4396 21.9469 12.0365C22.0177 11.7724 22.0177 11.4944 21.9469 11.2303C21.8389 10.8273 21.4959 10.4842 20.8097 9.79806L20.0756 9.06392L19.7046 8.70076L20.0756 8.32977C20.7677 7.63762 21.1138 7.29154 21.1138 6.86149C21.1138 6.43143 20.7677 6.08536 20.0756 5.3932L18.6073 3.92491C17.9151 3.23276 17.5691 2.88668 17.139 2.88668C16.709 2.88668 16.3629 3.23276 15.6707 3.92491L15.3036 4.29198L14.2024 3.19077C13.5163 2.50463 13.1732 2.16156 12.7701 2.05355C12.5061 1.9828 12.2281 1.9828 11.964 2.05355C11.5609 2.16156 11.2179 2.50463 10.5317 3.19077C9.84557 3.87691 9.5025 4.21998 9.3945 4.62305C9.32374 4.88711 9.32374 5.16514 9.3945 5.4292C9.5025 5.83227 9.84557 6.17534 10.5317 6.86149L11.6329 7.9627L7.96221 11.6334L6.861 10.5322C6.17486 9.84606 5.83179 9.50299 5.42871 9.39499C5.16466 9.32423 4.88662 9.32423 4.62257 9.39499C4.21949 9.50299 3.87642 9.84606 3.19028 10.5322C2.50414 11.2183 2.16107 11.5614 2.05306 11.9645C1.98231 12.2285 1.98231 12.5066 2.05306 12.7706C2.16107 13.1737 2.50414 13.5168 3.19028 14.2029L4.2915 15.3041L3.92443 15.6712C3.23227 16.3634 2.88619 16.7094 2.88619 17.1395C2.88619 17.5695 3.23227 17.9156 3.92443 18.6078Z" fill="#1C274C"/>
</svg>
