<svg width="24" height="24" viewBox="0 0 24 24" fill="none" xmlns="http://www.w3.org/2000/svg">
<path d="M22 14.0005V10.0005C22 9.0686 22 8.60266 21.8478 8.23512C21.6448 7.74507 21.2554 7.35572 20.7654 7.15273C20.3978 7.00049 19.9319 7.00049 19 7.00049C18.0681 7.00049 17.6022 7.00049 17.2346 7.15273C16.7446 7.35572 16.3552 7.74507 16.1522 8.23512C16 8.60266 16 9.5686 16 10.5005H8C8 9.5686 8 8.60266 7.84776 8.23512C7.64477 7.74507 7.25542 7.35572 6.76537 7.15273C6.39782 7.00049 5.93188 7.00049 5 7.00049C4.06812 7.00049 3.60218 7.00049 3.23463 7.15273C2.74458 7.35572 2.35523 7.74507 2.15224 8.23512C2 8.60266 2 9.0686 2 10.0005V14.0005C2 14.9324 2 15.3983 2.15224 15.7659C2.35523 16.2559 2.74458 16.6453 3.23463 16.8482C3.60218 17.0005 4.06812 17.0005 5 17.0005C5.93188 17.0005 6.39782 17.0005 6.76537 16.8482C7.25542 16.6453 7.64477 16.2559 7.84776 15.7659C8 15.3983 8 14.4324 8 13.5005H16C16 14.4324 16 15.3983 16.1522 15.7659C16.3552 16.2559 16.7446 16.6453 17.2346 16.8482C17.6022 17.0005 18.0681 17.0005 19 17.0005C19.9319 17.0005 20.3978 17.0005 20.7654 16.8482C21.2554 16.6453 21.6448 16.2559 21.8478 15.7659C22 15.3983 22 14.9324 22 14.0005Z" fill="#1C274C"/>
</svg>
