<svg width="24" height="24" viewBox="0 0 24 24" fill="none" xmlns="http://www.w3.org/2000/svg">
<path fill-rule="evenodd" clip-rule="evenodd" d="M1.60608 6.08136C2.11371 5.8638 2.70159 6.09895 2.91914 6.60658L2 7.0005C2.91914 6.60658 2.91928 6.60691 2.91914 6.60658L2.91863 6.60538C2.91835 6.60473 2.91855 6.60521 2.91863 6.60538L2.92254 6.61425C2.92655 6.62326 2.93344 6.63858 2.94323 6.65978C2.96283 6.7022 2.99401 6.76808 3.037 6.85407C3.12307 7.02619 3.25598 7.27795 3.43742 7.58277C3.80142 8.19428 4.35444 9.00874 5.10779 9.82005C5.28536 10.0113 5.47328 10.2016 5.67177 10.3886C5.68007 10.3961 5.68828 10.4038 5.69638 10.4117C7.18106 11.8019 9.25231 13.0005 12 13.0005C13.209 13.0005 14.2784 12.7697 15.2209 12.3987C16.4469 11.9161 17.4746 11.1896 18.3156 10.4002C19.2652 9.50888 19.9628 8.55054 20.4233 7.81149C20.6526 7.44341 20.8207 7.13368 20.9299 6.91959C20.9844 6.81266 21.0241 6.72993 21.0492 6.67611C21.0617 6.64921 21.0706 6.62957 21.0759 6.61777L21.0809 6.60658C21.2985 6.09923 21.8864 5.86386 22.3939 6.08136C22.9015 6.29891 23.1367 6.88679 22.9191 7.39442L22 7.0005C22.9191 7.39442 22.9192 7.39419 22.9191 7.39442L22.917 7.39944L22.9134 7.40766L22.902 7.43351C22.8924 7.45483 22.8791 7.48427 22.8619 7.52121C22.8274 7.59507 22.7775 7.69905 22.7116 7.82824C22.5799 8.08639 22.384 8.44658 22.1207 8.86918C21.7181 9.51533 21.1521 10.3167 20.4097 11.1248L21.2071 11.9222C21.5976 12.3128 21.5976 12.9459 21.2071 13.3364C20.8166 13.727 20.1834 13.727 19.7929 13.3364L18.9527 12.4963C18.3885 12.952 17.757 13.3819 17.0558 13.7527L17.8382 14.9551C18.1394 15.418 18.0083 16.0375 17.5454 16.3387C17.0825 16.6399 16.463 16.5088 16.1618 16.0459L15.1764 14.5314C14.4974 14.7395 13.772 14.887 13 14.9562V16.5005C13 17.0528 12.5523 17.5005 12 17.5005C11.4477 17.5005 11 17.0528 11 16.5005V14.9563C10.2254 14.8871 9.50019 14.7393 8.82339 14.5318L7.83818 16.0459C7.53698 16.5088 6.91753 16.6399 6.45461 16.3387C5.9917 16.0375 5.86061 15.418 6.16181 14.9551L6.94422 13.7527C6.2441 13.3821 5.6125 12.9523 5.04751 12.496L4.20711 13.3364C3.81658 13.727 3.18342 13.727 2.79289 13.3364C2.40237 12.9459 2.40237 12.3128 2.79289 11.9222L3.59033 11.1248C2.74534 10.205 2.12776 9.29274 1.71883 8.60573C1.50964 8.2543 1.35349 7.95918 1.24815 7.7485C1.19544 7.64308 1.15534 7.55856 1.12757 7.49845C1.11368 7.46838 1.10287 7.44439 1.09509 7.42691L1.08571 7.40563L1.08272 7.39875L1.08165 7.39626L1.08121 7.39526C1.08103 7.39483 1.08085 7.39442 2 7.0005L1.08121 7.39526C0.863659 6.88763 1.09845 6.29891 1.60608 6.08136Z" fill="#1C274C"/>
</svg>
