<svg width="24" height="24" viewBox="0 0 24 24" fill="none" xmlns="http://www.w3.org/2000/svg">
<path d="M9.75 12.0005C9.75 10.7578 10.7574 9.75049 12 9.75049C13.2426 9.75049 14.25 10.7578 14.25 12.0005C14.25 13.2431 13.2426 14.2505 12 14.2505C10.7574 14.2505 9.75 13.2431 9.75 12.0005Z" fill="#1C274C"/>
<path fill-rule="evenodd" clip-rule="evenodd" d="M2 12.0005C2 13.6399 2.42496 14.192 3.27489 15.2962C4.97196 17.5009 7.81811 20.0005 12 20.0005C16.1819 20.0005 19.028 17.5009 20.7251 15.2962C21.575 14.192 22 13.6399 22 12.0005C22 10.3611 21.575 9.80901 20.7251 8.70482C19.028 6.50005 16.1819 4.00049 12 4.00049C7.81811 4.00049 4.97196 6.50005 3.27489 8.70482C2.42496 9.80902 2 10.3611 2 12.0005ZM12 8.25049C9.92893 8.25049 8.25 9.92942 8.25 12.0005C8.25 14.0716 9.92893 15.7505 12 15.7505C14.0711 15.7505 15.75 14.0716 15.75 12.0005C15.75 9.92942 14.0711 8.25049 12 8.25049Z" fill="#1C274C"/>
</svg>
