<svg width="24" height="24" viewBox="0 0 24 24" fill="none" xmlns="http://www.w3.org/2000/svg">
<path d="M19.3517 7.6169L15.3929 4.054C14.2651 3.03892 13.7012 2.53139 13.0092 2.26587L13 5.00035C13 7.35737 13 8.53588 13.7322 9.26812C14.4645 10.0004 15.643 10.0004 18 10.0004H21.5801C21.2175 9.29613 20.5684 8.71189 19.3517 7.6169Z" fill="#1C274C"/>
<path fill-rule="evenodd" clip-rule="evenodd" d="M14 22.0002H10C6.22876 22.0002 4.34315 22.0002 3.17157 20.8287C2 19.6571 2 17.7715 2 14.0002V10.0002C2 6.22901 2 4.34339 3.17157 3.17182C4.34315 2.00024 6.23869 2.00024 10.0298 2.00024C10.6358 2.00024 11.1214 2.00024 11.53 2.01691C11.5166 2.09684 11.5095 2.17837 11.5092 2.26081L11.5 5.09521C11.4999 6.19232 11.4998 7.16189 11.6049 7.9434C11.7188 8.79052 11.9803 9.63751 12.6716 10.3288C13.3628 11.02 14.2098 11.2816 15.0569 11.3954C15.8385 11.5005 16.808 11.5004 17.9051 11.5004L18 11.5004H21.9574C22 12.0346 22 12.6903 22 13.5631V14.0002C22 17.7715 22 19.6571 20.8284 20.8287C19.6569 22.0002 17.7712 22.0002 14 22.0002ZM9.95236 13.1991L9.85405 13.0228C9.47406 12.3411 9.28406 12.0002 9 12.0002C8.71594 12.0002 8.52594 12.3411 8.14595 13.0228L8.04764 13.1991C7.93966 13.3928 7.88567 13.4897 7.80148 13.5536C7.7173 13.6175 7.61245 13.6412 7.40277 13.6887L7.21186 13.7319C6.47396 13.8988 6.10501 13.9823 6.01723 14.2646C5.92945 14.5468 6.18097 14.841 6.68403 15.4292L6.81418 15.5814C6.95713 15.7486 7.0286 15.8322 7.06076 15.9356C7.09291 16.039 7.08211 16.1505 7.0605 16.3735L7.04082 16.5766C6.96476 17.3614 6.92674 17.7539 7.15654 17.9283C7.38635 18.1028 7.7318 17.9437 8.4227 17.6256L8.60145 17.5433C8.79778 17.4529 8.89594 17.4077 9 17.4077C9.10406 17.4077 9.20222 17.4529 9.39855 17.5433L9.5773 17.6256C10.2682 17.9437 10.6136 18.1028 10.8435 17.9283C11.0733 17.7539 11.0352 17.3614 10.9592 16.5766L10.9395 16.3735C10.9179 16.1505 10.9071 16.039 10.9392 15.9356C10.9714 15.8322 11.0429 15.7486 11.1858 15.5814L11.316 15.4292C11.819 14.841 12.0706 14.5468 11.9828 14.2646C11.895 13.9823 11.526 13.8988 10.7881 13.7319L10.5972 13.6887C10.3875 13.6412 10.2827 13.6175 10.1985 13.5536C10.1143 13.4897 10.0603 13.3928 9.95236 13.1991Z" fill="#1C274C"/>
</svg>
