<svg width="24" height="24" viewBox="0 0 24 24" fill="none" xmlns="http://www.w3.org/2000/svg">
<path d="M19.3517 7.6169L15.3929 4.054C14.2651 3.03892 13.7012 2.53139 13.0092 2.26587L13 5.00035C13 7.35737 13 8.53588 13.7322 9.26812C14.4645 10.0004 15.643 10.0004 18 10.0004H21.5801C21.2175 9.29613 20.5684 8.71189 19.3517 7.6169Z" fill="#1C274C"/>
<path fill-rule="evenodd" clip-rule="evenodd" d="M10 22.0002H14C17.7712 22.0002 19.6569 22.0002 20.8284 20.8287C22 19.6571 22 17.7715 22 14.0002V13.5631C22 12.6903 22 12.0346 21.9574 11.5004H18L17.9051 11.5004C16.808 11.5004 15.8385 11.5005 15.0569 11.3954C14.2098 11.2816 13.3628 11.02 12.6716 10.3288C11.9803 9.63751 11.7188 8.79052 11.6049 7.9434C11.4998 7.16189 11.4999 6.19232 11.5 5.09521L11.5092 2.26081C11.5095 2.17837 11.5166 2.09684 11.53 2.01691C11.1214 2.00024 10.6358 2.00024 10.0298 2.00024C6.23869 2.00024 4.34315 2.00024 3.17157 3.17182C2 4.34339 2 6.22901 2 10.0002V14.0002C2 17.7715 2 19.6571 3.17157 20.8287C4.34315 22.0002 6.22876 22.0002 10 22.0002ZM5.45285 16.5132C5.18238 16.2247 5.18238 15.7758 5.45285 15.4873L7.32785 13.4873C7.61115 13.1851 8.08577 13.1698 8.38796 13.4531C8.69014 13.7364 8.70545 14.211 8.42215 14.5132L7.73117 15.2502L11 15.2502C11.4142 15.2502 11.75 15.586 11.75 16.0002C11.75 16.4145 11.4142 16.7502 11 16.7502H7.73117L8.42215 17.4873C8.70545 17.7895 8.69014 18.2641 8.38796 18.5474C8.08577 18.8307 7.61115 18.8154 7.32785 18.5132L5.45285 16.5132Z" fill="#1C274C"/>
</svg>
