<svg width="24" height="24" viewBox="0 0 24 24" fill="none" xmlns="http://www.w3.org/2000/svg">
<path d="M19.3517 7.6169L15.3929 4.054C14.2651 3.03892 13.7012 2.53139 13.0092 2.26587L13 5.00035C13 7.35737 13 8.53588 13.7322 9.26812C14.4645 10.0004 15.643 10.0004 18 10.0004H21.5801C21.2175 9.29613 20.5684 8.71189 19.3517 7.6169Z" fill="#1C274C"/>
<path fill-rule="evenodd" clip-rule="evenodd" d="M14 22.0002H10C6.22876 22.0002 4.34315 22.0002 3.17157 20.8287C2 19.6571 2 17.7715 2 14.0002V10.0002C2 6.22901 2 4.34339 3.17157 3.17182C4.34315 2.00024 6.23869 2.00024 10.0298 2.00024C10.6358 2.00024 11.1214 2.00024 11.53 2.01691C11.5166 2.09684 11.5095 2.17837 11.5092 2.26081L11.5 5.09521C11.4999 6.19232 11.4998 7.16189 11.6049 7.9434C11.7188 8.79052 11.9803 9.63751 12.6716 10.3288C13.3628 11.02 14.2098 11.2816 15.0569 11.3954C15.8385 11.5005 16.808 11.5004 17.9051 11.5004L18 11.5004H21.9574C22 12.0346 22 12.6903 22 13.5631V14.0002C22 17.7715 22 19.6571 20.8284 20.8287C19.6569 22.0002 17.7712 22.0002 14 22.0002ZM17 16.0002C17.5523 16.0002 18 15.3287 18 14.5002C18 13.6718 17.5523 13.0002 17 13.0002C16.4477 13.0002 16 13.6718 16 14.5002C16 15.3287 16.4477 16.0002 17 16.0002ZM8.37604 17.0843C8.60581 16.7397 9.07146 16.6465 9.4161 16.8763C10.9808 17.9194 13.0193 17.9194 14.5841 16.8763C14.9287 16.6465 15.3944 16.7397 15.6241 17.0843C15.8539 17.4289 15.7608 17.8946 15.4161 18.1244C13.3475 19.5034 10.6526 19.5034 8.58405 18.1244C8.23941 17.8946 8.14628 17.4289 8.37604 17.0843ZM7 16.0002C7.55228 16.0002 8 15.3287 8 14.5002C8 13.6718 7.55228 13.0002 7 13.0002C6.44772 13.0002 6 13.6718 6 14.5002C6 15.3287 6.44772 16.0002 7 16.0002Z" fill="#1C274C"/>
</svg>
