<svg width="24" height="24" viewBox="0 0 24 24" fill="none" xmlns="http://www.w3.org/2000/svg">
<path d="M13.7467 3.06169L10.1539 3.04324C10.5034 2.41721 11.1746 1.99618 11.9466 2.00015C12.7186 2.00412 13.3927 2.43205 13.7467 3.06169Z" fill="#1C274C"/>
<path d="M12.7498 7.03425C13.7456 6.77832 14.5426 6.03631 14.8733 5.07497C15.0572 4.54038 14.5784 4.0659 14.0105 4.06298L9.89732 4.04185C9.32941 4.03894 8.85393 4.50852 9.04163 5.04501C9.38712 6.03249 10.2196 6.7952 11.2498 7.04416V13.4071C11.1276 13.2897 10.9987 13.1781 10.8634 13.0731L10.8517 13.0641L6.96472 10.2857L6.88855 10.2286C7.26391 9.29712 7.16361 8.23476 6.62892 7.39309C6.32414 6.91334 5.66094 6.99556 5.31133 7.44312L2.77924 10.6846C2.42963 11.1321 2.50535 11.802 3.03889 11.9889C4.04436 12.3411 5.17814 12.1421 6.00834 11.4435L6.07892 11.4963L9.95475 14.2667C10.7617 14.8984 11.2397 15.8695 11.2498 16.9034V21.2501H8.99984C8.58563 21.2501 8.24984 21.5859 8.24984 22.0001C8.24984 22.4143 8.58563 22.7501 8.99984 22.7501H14.9998C15.4141 22.7501 15.7498 22.4143 15.7498 22.0001C15.7498 21.5859 15.4141 21.2501 14.9998 21.2501H12.7498V18.016L12.75 18.0001V16.937C12.75 15.8904 13.2294 14.9052 14.0449 14.2667L17.9208 11.4963L18.0521 11.398C18.8866 12.1333 20.0474 12.3486 21.0744 11.9889C21.6079 11.802 21.6836 11.1321 21.334 10.6846L18.8019 7.44312C18.4523 6.99556 17.7891 6.91334 17.4844 7.39309C16.9622 8.21499 16.8543 9.24734 17.1991 10.1628L17.035 10.2857L13.148 13.0641L13.1363 13.0731C13.001 13.1782 12.8721 13.2897 12.7498 13.4071V7.03425Z" fill="#1C274C"/>
<path d="M2.15682 9.85707L4.36852 7.02576C3.66061 6.91215 2.91429 7.17803 2.43904 7.78642C1.96379 8.39481 1.88194 9.18911 2.15682 9.85707Z" fill="#1C274C"/>
<path d="M19.7448 7.02576L21.9565 9.85707C22.2313 9.18911 22.1495 8.39481 21.6742 7.78642C21.199 7.17803 20.4527 6.91215 19.7448 7.02576Z" fill="#1C274C"/>
</svg>
