<svg width="24" height="24" viewBox="0 0 24 24" fill="none" xmlns="http://www.w3.org/2000/svg">
<path d="M14.5987 3.00012C14.08 2.40232 13.1104 2.00012 12 2.00012C10.8896 2.00012 9.92008 2.40232 9.40137 3.00012H14.5987Z" fill="#1C274C"/>
<path d="M12.7485 7.95561C14.7473 7.71559 16.3589 6.52905 16.8475 4.98461C17.0141 4.45805 16.5524 4.00012 16.0001 4.00012H8.00009C7.4478 4.00012 6.98608 4.45805 7.15266 4.98461C7.64122 6.52892 9.25258 7.7154 11.2511 7.95555C11.2503 7.9703 11.2498 7.98516 11.2498 8.00012V14.4071C11.1276 14.2897 10.9987 14.1781 10.8634 14.0731L10.8517 14.0641L6.96472 11.2857L6.88855 11.2286C7.26391 10.2971 7.16361 9.23476 6.62892 8.39309C6.32414 7.91334 5.66094 7.99556 5.31133 8.44312L2.77924 11.6846C2.42963 12.1321 2.50535 12.802 3.03889 12.9889C4.04436 13.3411 5.17814 13.1421 6.00834 12.4435L6.07892 12.4963L9.95475 15.2667C10.7617 15.8984 11.2397 16.8695 11.2498 17.9034V21.2501H8.99984C8.58563 21.2501 8.24984 21.5859 8.24984 22.0001C8.24984 22.4143 8.58563 22.7501 8.99984 22.7501H14.9998C15.4141 22.7501 15.7498 22.4143 15.7498 22.0001C15.7498 21.5859 15.4141 21.2501 14.9998 21.2501H12.7498V19.016L12.75 19.0001V17.937L12.7498 17.8968V8.00012C12.7498 7.98518 12.7494 7.97034 12.7485 7.95561Z" fill="#1C274C"/>
<path d="M2.15682 10.8571L4.36852 8.02576C3.66061 7.91215 2.91429 8.17803 2.43904 8.78642C1.96379 9.39481 1.88194 10.1891 2.15682 10.8571Z" fill="#1C274C"/>
</svg>
