<svg width="24" height="24" viewBox="0 0 24 24" fill="none" xmlns="http://www.w3.org/2000/svg">
<path fill-rule="evenodd" clip-rule="evenodd" d="M2.06935 5.25851C2 5.62607 2 6.06734 2 6.94987V14.0001C2 17.7714 2 19.657 3.17157 20.8285C4.34315 22.0001 6.22876 22.0001 10 22.0001H14C17.7712 22.0001 19.6569 22.0001 20.8284 20.8285C22 19.657 22 17.7714 22 14.0001V11.798C22 9.16566 22 7.84947 21.2305 6.99395C21.1598 6.91526 21.0849 6.84037 21.0062 6.76959C20.1506 6.00012 18.8345 6.00012 16.2021 6.00012H15.8284C14.6747 6.00012 14.0979 6.00012 13.5604 5.8469C13.2651 5.76273 12.9804 5.64483 12.7121 5.49555C12.2237 5.22379 11.8158 4.8159 11 4.00012L10.4497 3.44987C10.1763 3.17645 10.0396 3.03974 9.89594 2.92064C9.27652 2.40716 8.51665 2.09241 7.71557 2.0175C7.52976 2.00012 7.33642 2.00012 6.94975 2.00012C6.06722 2.00012 5.62595 2.00012 5.25839 2.06947C3.64031 2.37476 2.37464 3.64043 2.06935 5.25851ZM9.96967 11.4698C10.2626 11.1769 10.7374 11.1769 11.0303 11.4698L12 12.4395L12.9697 11.4698C13.2626 11.1769 13.7374 11.1769 14.0303 11.4698C14.3232 11.7627 14.3232 12.2376 14.0303 12.5305L13.0607 13.5001L14.0303 14.4698C14.3232 14.7627 14.3232 15.2376 14.0303 15.5305C13.7374 15.8233 13.2626 15.8233 12.9697 15.5305L12 14.5608L11.0303 15.5305C10.7374 15.8233 10.2626 15.8233 9.96967 15.5305C9.67678 15.2376 9.67678 14.7627 9.96967 14.4698L10.9393 13.5001L9.96967 12.5305C9.67678 12.2376 9.67678 11.7627 9.96967 11.4698Z" fill="#1C274C"/>
</svg>
