<svg width="24" height="24" viewBox="0 0 24 24" fill="none" xmlns="http://www.w3.org/2000/svg">
<path d="M6.0139 8.66598C5.94336 8.17968 5.79255 7.6008 5.61213 6.90822L5.07137 4.83221L5.06184 4.79562C5.77207 4.11107 6.58328 3.53078 7.47088 3.07937L9.10312 4.31734C9.66267 4.74176 10.1331 5.09859 10.5496 5.34485C10.7677 5.47378 10.9873 5.58271 11.2164 5.66061V8.68254C11.0933 8.73988 10.9753 8.81197 10.865 8.89863L8.93269 10.4171C8.8606 10.4738 8.79373 10.5351 8.73225 10.6005L6.05409 9.44081C6.07029 9.18762 6.05232 8.93091 6.0139 8.66598Z" fill="#1C274C"/>
<path d="M4.0451 10.2032C3.75011 10.4573 3.33478 10.7408 2.71029 11.1649L2.00635 11.643C2.07784 9.60572 2.75808 7.72343 3.87054 6.1729L4.15019 7.2465C4.34366 7.98925 4.47227 8.48726 4.52943 8.88132C4.58394 9.2571 4.56063 9.46368 4.49929 9.62994C4.43845 9.79485 4.32473 9.96223 4.0451 10.2032Z" fill="#1C274C"/>
<path d="M5.30111 16.8856C5.99569 16.8856 6.58124 16.8856 7.0596 16.9418C7.31188 16.9714 7.55283 17.0183 7.78263 17.0958L9.19832 15.2434C9.14674 15.1434 9.10384 15.0378 9.07067 14.9273L8.31171 12.4008C8.27411 12.2757 8.25029 12.1486 8.23962 12.0218L5.51305 10.8411C5.37075 11.0198 5.20602 11.1829 5.02419 11.3396C4.65615 11.6566 4.16839 11.9879 3.58789 12.3821L2.09645 13.3951C2.27106 14.6479 2.67751 15.8264 3.271 16.8856L5.30111 16.8856Z" fill="#1C274C"/>
<path d="M11.7918 10.078C11.8459 10.0355 11.9069 10.0163 11.9664 10.0163C12.0259 10.0163 12.0869 10.0355 12.141 10.078L14.0733 11.5965C14.1248 11.637 14.164 11.6944 14.1845 11.7625C14.2043 11.8285 14.2052 11.9004 14.1845 11.9693L13.4255 14.4958C13.4047 14.5653 13.3654 14.6205 13.3178 14.659C13.2652 14.7015 13.2033 14.7235 13.1397 14.7235H10.7931C10.7295 14.7235 10.6676 14.7015 10.615 14.659C10.5674 14.6205 10.5281 14.5652 10.5072 14.4958L9.74829 11.9693C9.72759 11.9004 9.72846 11.8285 9.74828 11.7625C9.76876 11.6944 9.80799 11.637 9.85952 11.5965L11.7918 10.078Z" fill="#1C274C"/>
<path d="M13.3758 5.37615C13.7975 5.13917 14.2754 4.79285 14.8436 4.381L16.5844 3.11955C17.4491 3.56901 18.2399 4.14135 18.9337 4.81347L18.388 6.90833C18.2076 7.60091 18.0568 8.17978 17.9863 8.66608C17.9481 8.92959 17.9301 9.18497 17.9458 9.43684L15.2035 10.6037C15.1412 10.5371 15.0733 10.4747 15.0001 10.4171L13.0678 8.89863C12.9575 8.81197 12.8395 8.73988 12.7164 8.68254V5.67265C12.9421 5.60007 13.1595 5.49774 13.3758 5.37615Z" fill="#1C274C"/>
<path d="M11.313 4.05365C10.9798 3.85664 10.5781 3.55341 9.97563 3.09646L9.09309 2.4271C10.0095 2.14965 10.9816 2.00049 11.9885 2.00049C13.0211 2.00049 14.0171 2.15735 14.954 2.44857L13.998 3.14136C13.386 3.58483 12.9781 3.87901 12.6409 4.06852C12.3204 4.24863 12.1339 4.29242 11.9747 4.29065C11.8155 4.28888 11.6298 4.24092 11.313 4.05365Z" fill="#1C274C"/>
<path d="M18.976 11.3397C19.344 11.6567 19.8318 11.988 20.4123 12.3823L21.8826 13.3809C21.7091 14.639 21.3018 15.8223 20.7061 16.8856L18.8479 16.8856C18.1533 16.8856 17.5678 16.8856 17.0894 16.9418C16.8266 16.9726 16.5761 17.0222 16.3377 17.1057L14.7481 15.2164C14.7936 15.1245 14.8319 15.0279 14.8621 14.9273L15.6211 12.4008C15.6583 12.2769 15.682 12.1512 15.6928 12.0256L18.4844 10.8378C18.6273 11.0179 18.793 11.182 18.976 11.3397Z" fill="#1C274C"/>
<path d="M14.8084 18.627C14.6067 19.0731 14.4224 19.6419 14.2021 20.3218L13.7058 21.8533C13.1479 21.95 12.5741 22.0005 11.9885 22.0005C11.4663 22.0005 10.9534 21.9604 10.4528 21.883L9.94691 20.3218C9.72662 19.6419 9.54234 19.0731 9.34056 18.627C9.23753 18.3991 9.12294 18.1865 8.98499 17.9928L10.3753 16.1736C10.5098 16.2062 10.6498 16.2235 10.7931 16.2235H13.1397C13.2934 16.2235 13.4434 16.2036 13.5869 16.1662L15.1457 18.0188C15.0159 18.2055 14.9069 18.4093 14.8084 18.627Z" fill="#1C274C"/>
<path d="M8.53276 20.8237C8.29631 20.094 8.13698 19.6058 7.97383 19.2451C7.81806 18.9006 7.68974 18.7458 7.55545 18.6462C7.42292 18.548 7.24475 18.4738 6.88463 18.4315C6.50404 18.3868 6.00712 18.3856 5.25819 18.3856H4.30098C5.45894 19.7815 6.98896 20.8568 8.73872 21.4593L8.53276 20.8237Z" fill="#1C274C"/>
<path d="M17.2644 18.4315C17.645 18.3868 18.1419 18.3856 18.8908 18.3856H19.6761C18.5612 19.7295 17.1014 20.7764 15.4327 21.3901L15.6163 20.8237C15.8527 20.094 16.012 19.6058 16.1752 19.2451C16.331 18.9006 16.4593 18.7458 16.5936 18.6462C16.7261 18.548 16.9043 18.4738 17.2644 18.4315Z" fill="#1C274C"/>
<path d="M19.4707 8.88142C19.5279 8.48736 19.6565 7.98935 19.85 7.2466L20.1235 6.19659C21.223 7.73853 21.8961 9.60624 21.9702 11.6271L21.2899 11.165C20.6654 10.7409 20.2501 10.4574 19.9551 10.2033C19.6754 9.96233 19.5617 9.79495 19.5009 9.63004C19.4395 9.46378 19.4162 9.25721 19.4707 8.88142Z" fill="#1C274C"/>
</svg>
