<svg width="24" height="24" viewBox="0 0 24 24" fill="none" xmlns="http://www.w3.org/2000/svg">
<path fill-rule="evenodd" clip-rule="evenodd" d="M8.75 2.00049H9.75C12.5784 2.00049 13.9926 2.00049 14.8713 2.87917C15.75 3.75785 15.75 5.17206 15.75 8.00049V16.2505H17.3214C18.5246 16.2505 19.5 17.2259 19.5 18.4291V18.5005C19.5 18.9147 19.8358 19.2505 20.25 19.2505C20.6642 19.2505 21 18.9147 21 18.5005V13.7505L19.7757 13.3424C19.1631 13.1382 18.75 12.565 18.75 11.9193V9.50049C18.75 8.67206 19.4216 8.00049 20.25 8.00049H21V7.62296C21 7.43792 20.9997 7.37432 20.9965 7.31622C20.9631 6.72163 20.6953 6.16453 20.2519 5.76702C20.2085 5.72817 20.1591 5.68823 20.0146 5.57263L18.7815 4.58617C18.458 4.32741 18.4056 3.85544 18.6643 3.53199C18.9231 3.20855 19.3951 3.15611 19.7185 3.41486L20.9678 4.41427C21.0901 4.51212 21.1745 4.57964 21.2531 4.65011C21.9922 5.31263 22.4384 6.24112 22.4941 7.2321C22.5 7.33751 22.5 7.4456 22.5 7.60226V18.5005C22.5 19.7432 21.4926 20.7505 20.25 20.7505C19.0074 20.7505 18 19.7432 18 18.5005V18.4291C18 18.0543 17.6962 17.7505 17.3214 17.7505H15.75V21.2505H16.8734C17.2876 21.2505 17.6234 21.5863 17.6234 22.0005C17.6234 22.4147 17.2876 22.7505 16.8734 22.7505H1.75C1.33579 22.7505 1 22.4147 1 22.0005C1 21.5863 1.33579 21.2505 1.75 21.2505H2.75V8.00049C2.75 5.17206 2.75 3.75785 3.62868 2.87917C4.50736 2.00049 5.92157 2.00049 8.75 2.00049ZM7 16.2505C6.58579 16.2505 6.25 16.5863 6.25 17.0005C6.25 17.4147 6.58579 17.7505 7 17.7505H12C12.4142 17.7505 12.75 17.4147 12.75 17.0005C12.75 16.5863 12.4142 16.2505 12 16.2505H7ZM11 6.00049H8C7.05719 6.00049 6.58579 6.00049 6.29289 6.29338C6 6.58628 6 7.05768 6 8.00049C6 8.9433 6 9.4147 6.29289 9.70759C6.58579 10.0005 7.05719 10.0005 8 10.0005H11C11.9428 10.0005 12.4142 10.0005 12.7071 9.70759C13 9.4147 13 8.9433 13 8.00049C13 7.05768 13 6.58628 12.7071 6.29338C12.4142 6.00049 11.9428 6.00049 11 6.00049Z" fill="#1C274C"/>
</svg>
