<svg width="24" height="24" viewBox="0 0 24 24" fill="none" xmlns="http://www.w3.org/2000/svg">
<path fill-rule="evenodd" clip-rule="evenodd" d="M2.02783 11.2502C2.41136 6.07769 6.72957 2.00024 12.0001 2.00024C11.1693 2.00024 10.4295 2.36445 9.82093 2.92137C9.21541 3.4755 8.70371 4.24902 8.28983 5.1634C7.87352 6.08317 7.55013 7.15893 7.33126 8.32636C7.1558 9.26219 7.04903 10.2488 7.01344 11.2502H2.02783ZM2.02783 12.7502H7.01344C7.04903 13.7517 7.1558 14.7383 7.33126 15.6741C7.55013 16.8416 7.87351 17.9173 8.28983 18.8371C8.70371 19.7515 9.21541 20.525 9.82093 21.0791C10.4295 21.636 11.1693 22.0002 12.0001 22.0002C6.72957 22.0002 2.41136 17.9228 2.02783 12.7502Z" fill="#1C274C"/>
<path d="M12.0001 3.39559C11.7251 3.39559 11.3699 3.51261 10.9567 3.89066C10.5406 4.27151 10.1239 4.86839 9.75585 5.68162C9.3902 6.48945 9.09329 7.46465 8.88897 8.55444C8.72806 9.41266 8.62824 10.3224 8.59321 11.2502H15.4071C15.372 10.3224 15.2722 9.41266 15.1113 8.55444C14.907 7.46465 14.6101 6.48945 14.2444 5.68162C13.8763 4.86839 13.4597 4.27151 13.0435 3.89066C12.6304 3.51261 12.2751 3.39559 12.0001 3.39559Z" fill="#1C274C"/>
<path d="M8.88897 15.446C9.09329 16.5358 9.3902 17.511 9.75585 18.3189C10.1239 19.1321 10.5406 19.729 10.9567 20.1098C11.3698 20.4879 11.7251 20.6049 12.0001 20.6049C12.2751 20.6049 12.6304 20.4879 13.0435 20.1098C13.4597 19.729 13.8763 19.1321 14.2444 18.3189C14.6101 17.511 14.907 16.5358 15.1113 15.4461C15.2722 14.5878 15.372 13.6781 15.4071 12.7502H8.59321C8.62824 13.6781 8.72806 14.5878 8.88897 15.446Z" fill="#1C274C"/>
<path d="M12.0001 2.00024C12.831 2.00024 13.5708 2.36445 14.1793 2.92137C14.7849 3.4755 15.2966 4.24902 15.7104 5.1634C16.1267 6.08317 16.4501 7.15893 16.669 8.32636C16.8445 9.26219 16.9512 10.2488 16.9868 11.2502H21.9724C21.5889 6.07769 17.2707 2.00024 12.0001 2.00024Z" fill="#1C274C"/>
<path d="M16.669 15.6741C16.4501 16.8416 16.1267 17.9173 15.7104 18.8371C15.2966 19.7515 14.7849 20.525 14.1793 21.0791C13.5708 21.636 12.831 22.0002 12.0001 22.0002C17.2707 22.0002 21.5889 17.9228 21.9724 12.7502H16.9868C16.9512 13.7517 16.8445 14.7383 16.669 15.6741Z" fill="#1C274C"/>
</svg>
