<svg width="24" height="24" viewBox="0 0 24 24" fill="none" xmlns="http://www.w3.org/2000/svg">
<path d="M14.092 10.7504L13.342 13.2504H9.90802L10.658 10.7504H14.092Z" fill="#1C274C"/>
<path fill-rule="evenodd" clip-rule="evenodd" d="M12 2.00037C6.47715 2.00037 2 6.47752 2 12.0004C2 17.5232 6.47715 22.0004 12 22.0004C17.5228 22.0004 22 17.5232 22 12.0004C22 6.47752 17.5228 2.00037 12 2.00037ZM11.2155 6.28201C11.6123 6.40103 11.8374 6.81915 11.7184 7.21589L11.108 9.25038H14.542L15.2816 6.78487C15.4007 6.38812 15.8188 6.16299 16.2155 6.28201C16.6123 6.40103 16.8374 6.81915 16.7184 7.21589L16.108 9.25038H18C18.4142 9.25038 18.75 9.58617 18.75 10.0004C18.75 10.4146 18.4142 10.7504 18 10.7504H15.658L14.908 13.2504H17C17.4142 13.2504 17.75 13.5862 17.75 14.0004C17.75 14.4146 17.4142 14.7504 17 14.7504H14.458L13.7184 17.2159C13.5993 17.6126 13.1812 17.8378 12.7845 17.7188C12.3877 17.5997 12.1626 17.1816 12.2816 16.7849L12.892 14.7504H9.45802L8.71837 17.2159C8.59935 17.6126 8.18123 17.8378 7.78449 17.7188C7.38774 17.5997 7.16261 17.1816 7.28163 16.7849L7.89198 14.7504H6C5.58579 14.7504 5.25 14.4146 5.25 14.0004C5.25 13.5862 5.58579 13.2504 6 13.2504H8.34198L9.09198 10.7504H7C6.58579 10.7504 6.25 10.4146 6.25 10.0004C6.25 9.58617 6.58579 9.25038 7 9.25038H9.54198L10.2816 6.78487C10.4007 6.38812 10.8188 6.16299 11.2155 6.28201Z" fill="#1C274C"/>
</svg>
