<svg width="24" height="24" viewBox="0 0 24 24" fill="none" xmlns="http://www.w3.org/2000/svg">
<path fill-rule="evenodd" clip-rule="evenodd" d="M8.96173 18.469C6.01943 16.2139 2 12.4888 2 8.96677C2 3.08287 7.50016 0.886104 12 5.43136C16.4998 0.886104 22 3.08287 22 8.96674C22 12.4889 17.9806 16.214 15.0383 18.469C13.7063 19.4898 13.0403 20.0002 12 20.0002C10.9597 20.0002 10.2937 19.4898 8.96173 18.469ZM16.5 6.25024C16.9142 6.25024 17.25 6.58603 17.25 7.00024V8.25026H18.5C18.9142 8.25026 19.25 8.58605 19.25 9.00026C19.25 9.41447 18.9142 9.75026 18.5 9.75026H17.25V11.0002C17.25 11.4145 16.9142 11.7502 16.5 11.7502C16.0858 11.7502 15.75 11.4145 15.75 11.0002V9.75026L14.5 9.75026C14.0858 9.75026 13.75 9.41447 13.75 9.00026C13.75 8.58605 14.0858 8.25026 14.5 8.25026H15.75V7.00024C15.75 6.58603 16.0858 6.25024 16.5 6.25024Z" fill="#1C274C"/>
</svg>
