<svg width="24" height="24" viewBox="0 0 24 24" fill="none" xmlns="http://www.w3.org/2000/svg">
<path d="M8.10627 18.2472C5.29819 16.0837 2 13.5425 2 9.13746C2 4.53693 6.9226 1.20213 11.2639 4.8141L9.81064 8.20503C9.6718 8.52899 9.77727 8.90591 10.0641 9.11077L12.8973 11.1345L10.4306 14.0124C10.1755 14.3099 10.1926 14.7537 10.4697 15.0308L12.1694 16.7305L11.2594 20.3705C10.5043 20.1173 9.74389 19.5278 8.96173 18.9112C8.68471 18.6929 8.39814 18.4721 8.10627 18.2472Z" fill="#1C274C"/>
<path d="M12.8118 20.3457C13.5435 20.0802 14.2807 19.5085 15.0383 18.9112C15.3153 18.6929 15.6019 18.4721 15.8937 18.2472C18.7018 16.0837 22 13.5425 22 9.13746C22 4.62258 17.259 1.32673 12.9792 4.61955L11.4272 8.24104L14.4359 10.3902C14.6072 10.5125 14.7191 10.7011 14.7445 10.91C14.7699 11.1189 14.7064 11.3288 14.5694 11.4886L12.0214 14.4612L13.5303 15.9701C13.7166 16.1564 13.7915 16.4268 13.7276 16.6824L12.8118 20.3457Z" fill="#1C274C"/>
</svg>
