<svg width="24" height="24" viewBox="0 0 24 24" fill="none" xmlns="http://www.w3.org/2000/svg">
<path d="M16.5 13.2874C14.0251 10.5717 11 12.575 11 15.3998C11 17.9587 12.814 19.4348 14.3584 20.6915L14.4018 20.7268C14.5474 20.8453 14.6903 20.9619 14.829 21.0773C15.4 21.5527 15.95 22.0004 16.5 22.0004C17.05 22.0004 17.6 21.5527 18.171 21.0773C19.7893 19.7299 22 18.2246 22 15.3998C22 14.4718 21.6735 13.6325 21.1474 13.02C20.0718 11.7681 18.1619 11.4639 16.5 13.2874Z" fill="#1C274C"/>
<path d="M8.10627 18.2472C5.29819 16.0837 2 13.5425 2 9.13746C2 4.27453 7.50016 0.82583 12 5.501C16.4998 0.82583 22 4.27453 22 9.13746C22 9.97104 21.8819 10.7379 21.6714 11.448C20.9524 10.8705 20.051 10.506 19.052 10.5004C18.162 10.4954 17.2936 10.7748 16.4988 11.3105C15.1099 10.3776 13.5429 10.2522 12.1698 10.9151C10.5345 11.7045 9.5 13.4709 9.5 15.3998C9.5 17.705 10.6485 19.322 11.8415 20.494C10.8942 20.4188 9.94514 19.6865 8.96173 18.9112C8.68471 18.6929 8.39814 18.4721 8.10627 18.2472Z" fill="#1C274C"/>
</svg>
