<svg width="24" height="24" viewBox="0 0 24 24" fill="none" xmlns="http://www.w3.org/2000/svg">
<path fill-rule="evenodd" clip-rule="evenodd" d="M8.96173 19.371C6.01943 16.9716 2 13.0082 2 9.26068C2 3.34974 7.50016 0.662881 12 5.49901C16.4998 0.662881 22 3.34956 22 9.26064C22 13.0082 17.9806 16.9717 15.0383 19.371C13.7063 20.4572 13.0403 21.0002 12 21.0002C10.9597 21.0002 10.2937 20.4571 8.96173 19.371ZM10.0932 10.7465C10.1827 10.6186 10.2571 10.5125 10.3233 10.4215C10.3793 10.5191 10.4418 10.6326 10.517 10.7694L12.2273 13.879C12.3933 14.1811 12.5562 14.4773 12.7197 14.6923C12.8947 14.9224 13.2023 15.2376 13.6954 15.2469C14.1884 15.2562 14.5077 14.9527 14.6912 14.7294C14.8627 14.5207 15.0365 14.2307 15.2138 13.9351L15.2692 13.8428C15.49 13.4748 15.629 13.2447 15.752 13.0785C15.8654 12.9253 15.9309 12.8754 15.9798 12.8477C16.0286 12.82 16.1052 12.7896 16.2948 12.7712C16.5006 12.7512 16.7694 12.7504 17.1986 12.7504H18C18.4142 12.7504 18.75 12.4146 18.75 12.0004C18.75 11.5861 18.4142 11.2504 18 11.2504L17.1662 11.2504C16.7791 11.2503 16.4367 11.2503 16.1497 11.2782C15.8385 11.3085 15.5357 11.3754 15.2407 11.5424C14.9457 11.7094 14.7325 11.9347 14.5465 12.1859C14.3749 12.4177 14.1988 12.7113 13.9996 13.0433L13.9521 13.1225C13.8654 13.267 13.793 13.3875 13.7284 13.4908C13.6676 13.3851 13.5999 13.262 13.5186 13.1143L11.8092 10.0062C11.6551 9.72584 11.5015 9.4465 11.3458 9.24172C11.1756 9.018 10.8839 8.72219 10.4164 8.69695C9.94887 8.6717 9.62698 8.93438 9.43373 9.13848C9.25683 9.3253 9.0741 9.58649 8.89069 9.84865L8.58131 10.2906C8.35416 10.6151 8.21175 10.8173 8.08848 10.9632C7.975 11.0974 7.91193 11.1414 7.86538 11.1656C7.81882 11.1898 7.74663 11.2163 7.57159 11.2323C7.38144 11.2496 7.13413 11.2504 6.73803 11.2504H6C5.58579 11.2504 5.25 11.5861 5.25 12.0004C5.25 12.4146 5.58579 12.7504 6 12.7504L6.76812 12.7504C7.12509 12.7504 7.44153 12.7504 7.70801 12.7261C7.99707 12.6997 8.27904 12.6413 8.55809 12.4961C8.83714 12.3508 9.04661 12.1532 9.234 11.9315C9.40676 11.7272 9.58821 11.4679 9.79291 11.1755L10.0932 10.7465Z" fill="#1C274C"/>
</svg>
