<svg width="24" height="24" viewBox="0 0 24 24" fill="none" xmlns="http://www.w3.org/2000/svg">
<path fill-rule="evenodd" clip-rule="evenodd" d="M6.25 7.28957V7.00037C6.25 5.19135 6.79645 3.7257 7.85181 2.71584C8.90153 1.71138 10.3582 1.25037 12 1.25037C13.6418 1.25037 15.0985 1.71138 16.1482 2.71584C17.2036 3.7257 17.75 5.19135 17.75 7.00037V7.28957C19.634 7.98782 21 9.87366 21 12.0995C21 15.9378 18.0316 18.152 15.5044 20.0371C15.2417 20.2331 14.9838 20.4254 14.7344 20.6157C13.8 21.3289 12.9 22.0004 12 22.0004C11.1 22.0004 10.2 21.3289 9.26556 20.6157C9.01624 20.4254 8.75832 20.2331 8.49565 20.0371C5.96837 18.152 3 15.9378 3 12.0995C3 9.87366 4.36604 7.98782 6.25 7.28957ZM7.75 7.00037C7.75 5.49567 8.19732 4.46132 8.88885 3.79961C9.58601 3.1325 10.6294 2.75037 12 2.75037C13.3706 2.75037 14.414 3.1325 15.1112 3.79961C15.8027 4.46132 16.25 5.49567 16.25 7.00037V7.00171C14.8849 6.96899 13.3895 7.53339 12 8.93099C10.6105 7.53339 9.11513 6.96899 7.75 7.00171V7.00037ZM12 11.2504C12.4142 11.2504 12.75 11.5862 12.75 12.0004V14.5004C12.75 14.9146 12.4142 15.2504 12 15.2504C11.5858 15.2504 11.25 14.9146 11.25 14.5004V12.0004C11.25 11.5862 11.5858 11.2504 12 11.2504Z" fill="#1C274C"/>
</svg>
