<svg width="24" height="24" viewBox="0 0 24 24" fill="none" xmlns="http://www.w3.org/2000/svg">
<path d="M14 4.50049C14 5.8812 12.8807 7.00049 11.5 7.00049C10.1193 7.00049 9 5.8812 9 4.50049C9 3.11978 10.1193 2.00049 11.5 2.00049C12.8807 2.00049 14 3.11978 14 4.50049Z" fill="#1C274C"/>
<path fill-rule="evenodd" clip-rule="evenodd" d="M19 7.25049C19.4142 7.25049 19.75 7.58627 19.75 8.00049V10.4948C19.75 10.4983 19.75 10.5019 19.75 10.5054V22.0005C19.75 22.4147 19.4142 22.7505 19 22.7505C18.5858 22.7505 18.25 22.4147 18.25 22.0005V12.1019C17.7655 12.5062 17.38 12.8208 16.9431 12.9803C16.334 13.2027 15.666 13.2027 15.0569 12.9803C14.6042 12.815 14.2068 12.4833 13.6972 12.0579C13.6666 12.0323 13.6356 12.0065 13.6042 11.9803L13.5229 11.9125C13.2914 11.7196 13.2006 11.6444 13.0529 11.5417C12.7954 11.3625 12.2966 11.11 11.9998 11.0086C11.9453 10.9899 11.9036 10.9751 11.8715 10.9629C11.8657 10.9607 11.8595 10.9583 11.853 10.9558C11.6736 10.9115 11.5571 10.8834 11.4671 10.8661C11.4166 10.8564 11.3884 10.8531 11.3754 10.852C11.3709 10.8534 11.3646 10.8556 11.3563 10.8591C11.3301 10.87 11.297 10.8877 11.2625 10.9121C11.228 10.9364 11.2001 10.9616 11.1811 10.9827C11.1722 10.9925 11.1672 10.9992 11.1649 11.0024C11.1621 11.0096 11.1583 11.022 11.1534 11.0501C11.1439 11.1034 11.1364 11.1742 11.1217 11.3213L10.9595 12.943C10.866 13.8775 10.8554 14.1275 10.9207 14.3361C10.9589 14.4582 11.0156 14.5737 11.0888 14.6786C11.2139 14.8578 11.4181 15.0024 12.2146 15.5001C12.2501 15.5224 12.2853 15.5443 12.3199 15.566C13.1158 16.0629 13.6671 16.4072 14.0654 16.902C14.2651 17.1501 14.4324 17.4227 14.5632 17.7132C14.8241 18.2923 14.8814 18.9397 14.9642 19.8744C14.9678 19.9151 14.9715 19.9563 14.9752 19.9981L15.1474 21.934C15.1841 22.3466 14.8794 22.7108 14.4669 22.7475C14.0543 22.7842 13.6901 22.4795 13.6533 22.067L13.4811 20.1311C13.3826 19.0241 13.3394 18.6484 13.1956 18.3292C13.1171 18.155 13.0167 17.9914 12.8969 17.8425C12.6774 17.5698 12.362 17.3611 11.4196 16.7721C11.3819 16.7486 11.3447 16.7254 11.3079 16.7025C10.6781 16.3097 10.1822 16.0005 9.85885 15.5372C9.69775 15.3065 9.57303 15.0524 9.48904 14.7838C9.32044 14.2446 9.37917 13.6631 9.45375 12.9247C9.45811 12.8816 9.46252 12.8379 9.46694 12.7937L9.6291 11.172C9.63069 11.1562 9.63225 11.1402 9.63383 11.1241C9.65637 10.8939 9.68125 10.6399 9.80332 10.3727C9.93937 10.075 10.1771 9.84206 10.3979 9.68631C10.6187 9.53056 10.9178 9.3848 11.244 9.35655C11.428 9.34061 11.5998 9.36425 11.7495 9.39294C11.8932 9.42049 12.0647 9.46292 12.2563 9.51032L12.2817 9.5166C12.2836 9.5171 12.2916 9.51908 12.3005 9.52153C12.3051 9.52279 12.3156 9.52568 12.3286 9.52979C12.3373 9.53253 12.3708 9.54308 12.4111 9.56117C12.4163 9.5635 12.423 9.56658 12.431 9.57044C12.4439 9.57504 12.4615 9.58118 12.4849 9.58917C12.9137 9.73573 13.5377 10.0516 13.9096 10.3104C14.1147 10.4531 14.2517 10.5673 14.4711 10.7501L14.4831 10.7602L14.5645 10.828C15.213 11.3684 15.3971 11.5077 15.5713 11.5713C15.8482 11.6723 16.1518 11.6723 16.4287 11.5713C16.6029 11.5077 16.787 11.3684 17.4355 10.828L18.25 10.1492V8.00049C18.25 7.58627 18.5858 7.25049 19 7.25049ZM12.3696 10.9469C12.3696 10.9469 12.3719 10.9461 12.375 10.9449C12.3668 10.9481 12.3633 10.9493 12.3696 10.9469ZM11.829 9.54775L11.8311 9.54696C11.8355 9.54522 11.8443 9.5419 11.8379 9.54431C11.8379 9.54431 11.8337 9.54589 11.829 9.54775ZM8.71151 9.76332C8.8425 10.1563 8.63013 10.581 8.23717 10.712L6.56517 11.2693C6.07836 11.4316 5.75 11.8872 5.75 12.4003C5.75 12.4841 5.79731 12.5606 5.87221 12.5981L8.33541 13.8297C8.70589 14.0149 8.85606 14.4654 8.67082 14.8359C8.48558 15.2064 8.03507 15.3566 7.66459 15.1713L5.20139 13.9397C4.61832 13.6482 4.25 13.0522 4.25 12.4003C4.25 11.2415 4.9915 10.2128 6.09083 9.84631L7.76283 9.28898C8.15579 9.15799 8.58053 9.37036 8.71151 9.76332ZM9.41603 16.8765C9.76067 17.1062 9.8538 17.5719 9.62404 17.9165L6.62404 22.4165C6.39427 22.7612 5.92862 22.8543 5.58397 22.6245C5.23933 22.3948 5.1462 21.9291 5.37596 21.5845L8.37596 17.0845C8.60573 16.7398 9.07138 16.6467 9.41603 16.8765Z" fill="#1C274C"/>
</svg>
