<svg width="24" height="24" viewBox="0 0 24 24" fill="none" xmlns="http://www.w3.org/2000/svg">
<path fill-rule="evenodd" clip-rule="evenodd" d="M5.07881 5.0694C8.87414 1.27942 15.0438 1.31972 18.8623 5.13826C22.6825 8.95846 22.7212 15.1318 18.9263 18.9267C15.1314 22.7216 8.95805 22.6829 5.13786 18.8627C2.87401 16.5989 1.93916 13.5104 2.34059 10.5817C2.39684 10.1713 2.77512 9.88426 3.18549 9.94051C3.59587 9.99676 3.88295 10.375 3.8267 10.7854C3.48672 13.2657 4.27794 15.8815 6.19852 17.8021C9.443 21.0465 14.6665 21.0651 17.8656 17.866C21.0647 14.6669 21.0461 9.4434 17.8017 6.19892C14.5588 2.9561 9.33901 2.93588 6.13947 6.13006L6.88717 6.13382C7.30138 6.1359 7.63547 6.47337 7.63339 6.88758C7.63131 7.30178 7.29384 7.63588 6.87963 7.6338L4.33408 7.62101C3.92281 7.61894 3.58993 7.28605 3.58786 6.87478L3.57507 4.32923C3.57299 3.91502 3.90708 3.57755 4.32129 3.57547C4.7355 3.57339 5.07297 3.90749 5.07505 4.32169L5.07881 5.0694ZM12 7.25041C12.4142 7.25041 12.75 7.58619 12.75 8.00041V11.6897L15.0303 13.9701C15.3232 14.263 15.3232 14.7378 15.0303 15.0307C14.7374 15.3236 14.2626 15.3236 13.9697 15.0307L11.25 12.3111V8.00041C11.25 7.58619 11.5858 7.25041 12 7.25041Z" fill="#1C274C"/>
</svg>
