<svg width="24" height="24" viewBox="0 0 24 24" fill="none" xmlns="http://www.w3.org/2000/svg">
<path fill-rule="evenodd" clip-rule="evenodd" d="M11.25 2.00049C11.25 1.58627 11.5858 1.25049 12 1.25049C17.9371 1.25049 22.75 6.06343 22.75 12.0005C22.75 17.9375 17.9371 22.7505 12 22.7505C6.06294 22.7505 1.25 17.9375 1.25 12.0005C1.25 11.5863 1.58579 11.2505 2 11.2505C2.41421 11.2505 2.75 11.5863 2.75 12.0005C2.75 17.1091 6.89137 21.2505 12 21.2505C17.1086 21.2505 21.25 17.1091 21.25 12.0005C21.25 6.89185 17.1086 2.75049 12 2.75049C11.5858 2.75049 11.25 2.4147 11.25 2.00049ZM12 8.25049C12.4142 8.25049 12.75 8.58627 12.75 9.00049V12.2505H16C16.4142 12.2505 16.75 12.5863 16.75 13.0005C16.75 13.4147 16.4142 13.7505 16 13.7505H12C11.5858 13.7505 11.25 13.4147 11.25 13.0005V9.00049C11.25 8.58627 11.5858 8.25049 12 8.25049Z" fill="#1C274C"/>
<path fill-rule="evenodd" clip-rule="evenodd" d="M9.09958 2.39803C9.24874 2.78445 9.05641 3.21863 8.66999 3.3678C8.52855 3.42239 8.38879 3.48037 8.2508 3.54163C7.87221 3.7097 7.42906 3.53905 7.261 3.16046C7.09293 2.78188 7.26358 2.33873 7.64217 2.17066C7.80267 2.0994 7.96526 2.03196 8.1298 1.96844C8.51623 1.81927 8.95041 2.01161 9.09958 2.39803ZM5.6477 4.24075C5.93337 4.5407 5.92178 5.01544 5.62183 5.3011C5.51216 5.40554 5.40505 5.51265 5.30061 5.62232C5.01495 5.92227 4.54021 5.93385 4.24026 5.64819C3.94031 5.36253 3.92873 4.8878 4.21439 4.58785C4.33566 4.46051 4.46002 4.33615 4.58736 4.21488C4.88731 3.92922 5.36204 3.9408 5.6477 4.24075ZM3.15997 7.26149C3.53856 7.42955 3.70921 7.8727 3.54114 8.25129C3.47988 8.38928 3.42191 8.52904 3.36731 8.67048C3.21814 9.0569 2.78396 9.24923 2.39754 9.10006C2.01112 8.9509 1.81878 8.51672 1.96795 8.13029C2.03147 7.96575 2.09892 7.80316 2.17017 7.64266C2.33824 7.26407 2.78139 7.09342 3.15997 7.26149Z" fill="#1C274C"/>
</svg>
