<svg width="24" height="24" viewBox="0 0 24 24" fill="none" xmlns="http://www.w3.org/2000/svg">
<path fill-rule="evenodd" clip-rule="evenodd" d="M12 1.25024C12.1989 1.25024 12.3897 1.32926 12.5303 1.46991L15.5303 4.46991C15.8232 4.76281 15.8232 5.23768 15.5303 5.53057C15.2374 5.82347 14.7626 5.82347 14.4697 5.53057L12.75 3.8109V10.0002C12.75 10.4145 12.4142 10.7502 12 10.7502C11.5858 10.7502 11.25 10.4145 11.25 10.0002V3.8109L9.53033 5.53057C9.23744 5.82347 8.76256 5.82347 8.46967 5.53057C8.17678 5.23768 8.17678 4.76281 8.46967 4.46991L11.4697 1.46991C11.6103 1.32926 11.8011 1.25024 12 1.25024Z" fill="#1C274C"/>
<path d="M3.46447 20.5358C4.92893 22.0002 7.28595 22.0002 12 22.0002C16.714 22.0002 19.0711 22.0002 20.5355 20.5358C21.8063 19.265 21.9744 17.3221 21.9966 13.7502H18.8397C17.8659 13.7502 17.6113 13.7663 17.3975 13.8646C17.1838 13.9629 17.0059 14.1458 16.3722 14.8852L15.6794 15.6935C15.1773 16.2806 14.7796 16.7455 14.2292 16.9987C13.6789 17.2518 13.067 17.2512 12.2945 17.2503H11.7055C10.933 17.2512 10.3211 17.2518 9.77076 16.9987C9.22038 16.7455 8.82271 16.2806 8.32058 15.6935L7.62784 14.8852C6.9941 14.1458 6.81622 13.9629 6.60245 13.8646C6.38869 13.7663 6.13407 13.7502 5.16026 13.7502H2.00339C2.02561 17.3221 2.19367 19.265 3.46447 20.5358Z" fill="#1C274C"/>
<path d="M22 12.0002C22 7.2862 22 4.92918 20.5355 3.46471C19.5152 2.44438 18.0616 2.13494 15.6794 2.04109C15.5259 2.03505 15.3686 2.02989 15.2072 2.02551L16.591 3.40925C17.4697 4.28793 17.4697 5.71255 16.591 6.59124C15.9579 7.22429 15.0415 7.40126 14.25 7.12212V10.0002C14.25 11.2429 13.2426 12.2502 12 12.2502C10.7574 12.2502 9.75 11.2429 9.75 10.0002V7.12212C8.95851 7.40125 8.04207 7.22429 7.40901 6.59123C6.53033 5.71255 6.53033 4.28793 7.40901 3.40925L8.78506 2.02572C6.12449 2.09855 4.5495 2.37968 3.46447 3.46471C2 4.92918 2 7.2862 2 12.0002L2.00001 12.2502L5.29454 12.2502C6.06705 12.2493 6.67886 12.2487 7.22924 12.5018C7.77961 12.755 8.17729 13.2199 8.67941 13.807L9.37216 14.6153C10.0059 15.3547 10.1838 15.5376 10.3975 15.6359C10.6113 15.7342 10.8659 15.7502 11.8397 15.7502H12.1603C13.1341 15.7502 13.3887 15.7342 13.6025 15.6359C13.8162 15.5376 13.9941 15.3547 14.6278 14.6153L15.3206 13.807C15.8227 13.2199 16.2204 12.755 16.7708 12.5018C17.3211 12.2487 17.933 12.2493 18.7055 12.2502L22 12.2502L22 12.0002Z" fill="#1C274C"/>
</svg>
