<svg width="24" height="24" viewBox="0 0 24 24" fill="none" xmlns="http://www.w3.org/2000/svg">
<path fill-rule="evenodd" clip-rule="evenodd" d="M4.6138 8.54527L4.1875 10.2505H2C1.58579 10.2505 1.25 10.5863 1.25 11.0005C1.25 11.4147 1.58579 11.7505 2 11.7505H22C22.4142 11.7505 22.75 11.4147 22.75 11.0005C22.75 10.5863 22.4142 10.2505 22 10.2505H19.8125L19.3862 8.54527C18.8405 6.36259 18.5677 5.27126 17.7539 4.63587C16.9401 4.00049 15.8152 4.00049 13.5653 4.00049H10.4347C8.1848 4.00049 7.05988 4.00049 6.24609 4.63587C5.43231 5.27126 5.15947 6.36259 4.6138 8.54527ZM6.5 21.0005C8.12316 21.0005 9.48826 19.8956 9.88417 18.3968L10.9938 17.842C11.6272 17.5253 12.3728 17.5253 13.0062 17.842L14.1158 18.3968C14.5117 19.8956 15.8768 21.0005 17.5 21.0005C19.433 21.0005 21 19.4335 21 17.5005C21 15.5675 19.433 14.0005 17.5 14.0005C15.8399 14.0005 14.4498 15.1563 14.0903 16.707L13.6771 16.5004C12.6213 15.9725 11.3787 15.9725 10.3229 16.5004L9.90967 16.707C9.55023 15.1563 8.16009 14.0005 6.5 14.0005C4.567 14.0005 3 15.5675 3 17.5005C3 19.4335 4.567 21.0005 6.5 21.0005Z" fill="#1C274C"/>
</svg>
