<svg width="24" height="24" viewBox="0 0 24 24" fill="none" xmlns="http://www.w3.org/2000/svg">
<path d="M6.07612 2.61756C6 2.80133 6 3.0343 6 3.50024C6 3.96619 6 4.19916 6.07612 4.38293C6.17761 4.62796 6.37229 4.82263 6.61732 4.92412C6.80109 5.00024 7.03406 5.00024 7.5 5.00024H9H15H16.5C16.9659 5.00024 17.1989 5.00024 17.3827 4.92412C17.6277 4.82263 17.8224 4.62796 17.9239 4.38293C18 4.19916 18 3.96619 18 3.50024C18 3.0343 18 2.80133 17.9239 2.61756C17.8224 2.37253 17.6277 2.17786 17.3827 2.07636C17.1989 2.00024 16.9659 2.00024 16.5 2.00024H7.5C7.03406 2.00024 6.80109 2.00024 6.61732 2.07636C6.37229 2.17786 6.17761 2.37253 6.07612 2.61756Z" fill="#1C274C"/>
<path d="M7.74997 6.00024L5.50122 7.7992C5.00902 8.19297 4.62351 8.69171 4.36644 9.25018H19.6401C19.3862 8.6929 19.0046 8.19441 18.5168 7.79949L16.2942 6.00024H7.74997Z" fill="#1C274C"/>
<path fill-rule="evenodd" clip-rule="evenodd" d="M20 10.9085C20 10.8556 19.999 10.8028 19.9969 10.7502H4.00371C4.00124 10.8075 4 10.865 4 10.9227V17.2502H20V10.9085ZM12.75 13.2502V12.0002C12.75 11.586 12.4142 11.2502 12 11.2502C11.5858 11.2502 11.25 11.586 11.25 12.0002V13.2502H10C9.58579 13.2502 9.25 13.586 9.25 14.0002C9.25 14.4144 9.58579 14.7502 10 14.7502H11.25V16.0002C11.25 16.4144 11.5858 16.7502 12 16.7502C12.4142 16.7502 12.75 16.4144 12.75 16.0002V14.7502H14C14.4142 14.7502 14.75 14.4144 14.75 14.0002C14.75 13.586 14.4142 13.2502 14 13.2502H12.75Z" fill="#1C274C"/>
<path d="M4.92711 20.1127C4.5902 19.7084 4.33901 19.2449 4.18368 18.7502H19.8204C19.6677 19.2425 19.4202 19.7042 19.0877 20.1079L18.7294 20.543C17.9696 21.4657 16.837 22.0002 15.6417 22.0002H8.95693C8.38582 22.0002 8.10026 22.0002 7.82957 21.963C7.02661 21.8528 6.27608 21.5013 5.67738 20.955C5.47554 20.7708 5.29272 20.5514 4.92711 20.1127Z" fill="#1C274C"/>
</svg>
