<svg width="24" height="24" viewBox="0 0 24 24" fill="none" xmlns="http://www.w3.org/2000/svg">
<path d="M16.3663 16.1793L16.8782 15.6674C17.794 14.7516 19.3098 14.7825 20.2638 15.7365C21.2178 16.6905 21.2487 18.2063 20.3329 19.1221L19.821 19.634C19.7778 19.5245 19.7227 19.3976 19.6527 19.2569C19.4264 18.802 19.0463 18.2046 18.421 17.5793C17.7957 16.954 17.1982 16.5738 16.7434 16.3475C16.6026 16.2775 16.4758 16.2224 16.3663 16.1793Z" fill="#1C274C"/>
<path d="M15.1401 17.4054L14.6671 17.8784C13.7513 18.7942 13.7822 20.31 14.7362 21.264C15.6902 22.218 17.206 22.2489 18.1218 21.3331L18.5947 20.8603L18.495 20.3904L18.4921 20.3792C18.4879 20.3639 18.4797 20.3353 18.4661 20.2949C18.4388 20.2142 18.3901 20.0867 18.3097 19.9249C18.1492 19.6022 17.861 19.1406 17.3603 18.64C16.8597 18.1393 16.398 17.8511 16.0753 17.6905C15.9135 17.6101 15.7859 17.5613 15.7052 17.5341C15.6648 17.5204 15.6362 17.5122 15.6209 17.508L15.6096 17.5051L15.1401 17.4054Z" fill="#1C274C"/>
<path d="M6.07612 2.61756C6 2.80133 6 3.0343 6 3.50024C6 3.96619 6 4.19916 6.07612 4.38293C6.17761 4.62796 6.37229 4.82263 6.61732 4.92412C6.80109 5.00024 7.03406 5.00024 7.5 5.00024H9H15H16.5C16.9659 5.00024 17.1989 5.00024 17.3827 4.92412C17.6277 4.82263 17.8224 4.62796 17.9239 4.38293C18 4.19916 18 3.96619 18 3.50024C18 3.0343 18 2.80133 17.9239 2.61756C17.8224 2.37253 17.6277 2.17786 17.3827 2.07636C17.1989 2.00024 16.9659 2.00024 16.5 2.00024H7.5C7.03406 2.00024 6.80109 2.00024 6.61732 2.07636C6.37229 2.17786 6.17761 2.37253 6.07612 2.61756Z" fill="#1C274C"/>
<path d="M7.74997 6.00024L5.50122 7.7992C5.00902 8.19297 4.62351 8.69171 4.36644 9.25018H19.6401C19.3862 8.6929 19.0046 8.19441 18.5168 7.79949L16.2942 6.00024H7.74997Z" fill="#1C274C"/>
<path fill-rule="evenodd" clip-rule="evenodd" d="M20 10.9085C20 10.8556 19.999 10.8028 19.9969 10.7502H4.00371C4.00124 10.8075 4 10.865 4 10.9227V17.2502H13.234C13.3452 17.0996 13.4694 16.955 13.6067 16.8177L15.8177 14.6067C16.9608 13.4636 18.6118 13.2297 20 13.7957V10.9085ZM12.75 13.2502V12.0002C12.75 11.586 12.4142 11.2502 12 11.2502C11.5858 11.2502 11.25 11.586 11.25 12.0002V13.2502H10C9.58579 13.2502 9.25 13.586 9.25 14.0002C9.25 14.4144 9.58579 14.7502 10 14.7502H11.25V16.0002C11.25 16.4144 11.5858 16.7502 12 16.7502C12.4142 16.7502 12.75 16.4144 12.75 16.0002V14.7502H14C14.4142 14.7502 14.75 14.4144 14.75 14.0002C14.75 13.586 14.4142 13.2502 14 13.2502H12.75Z" fill="#1C274C"/>
<path d="M12.5729 18.7502C12.3513 19.8714 12.6386 21.0724 13.3846 22.0002H8.95693C8.38582 22.0002 8.10026 22.0002 7.82957 21.963C7.02661 21.8528 6.27608 21.5013 5.67738 20.955C5.47554 20.7708 5.29272 20.5514 4.92711 20.1127C4.5902 19.7084 4.33901 19.2449 4.18368 18.7502H12.5729Z" fill="#1C274C"/>
</svg>
