<svg width="24" height="24" viewBox="0 0 24 24" fill="none" xmlns="http://www.w3.org/2000/svg">
<path d="M12.3905 9.72426C12.9112 9.20357 13.7554 9.20357 14.2761 9.72426C14.7968 10.245 14.7968 11.0892 14.2761 11.6099C13.7554 12.1306 12.9112 12.1306 12.3905 11.6099C11.8698 11.0892 11.8698 10.245 12.3905 9.72426Z" fill="#1C274C"/>
<path fill-rule="evenodd" clip-rule="evenodd" d="M3.46447 3.46495C2 4.92942 2 7.28644 2 12.0005C2 16.7145 2 19.0716 3.46447 20.536C4.92893 22.0005 7.28595 22.0005 12 22.0005C16.714 22.0005 19.0711 22.0005 20.5355 20.536C22 19.0716 22 16.7145 22 12.0005C22 7.28644 22 4.92942 20.5355 3.46495C19.0711 2.00049 16.714 2.00049 12 2.00049C7.28595 2.00049 4.92893 2.00049 3.46447 3.46495ZM16.6514 7.3491C18.4495 9.14724 18.4495 12.0626 16.6514 13.8608C15.4574 15.0547 13.7709 15.4559 12.2459 15.0643C12 15.0011 11.7342 15.057 11.5546 15.2366L10.4371 16.3541L10.4342 16.3512L9.26813 15.198C8.97363 14.9067 8.49876 14.9093 8.20748 15.2038C7.91621 15.4983 7.91882 15.9732 8.21332 16.2644L9.3764 17.4148L9.0797 17.7115C8.86776 17.9234 8.57097 18.0275 8.27307 17.9944L6.88068 17.8397C6.73223 17.8232 6.59381 17.7567 6.4882 17.6511L6.34939 17.5123C6.24377 17.4067 6.17725 17.2683 6.16075 17.1198L6.00604 15.7274C5.97294 15.4295 6.07705 15.1327 6.28899 14.9208L8.76372 12.4461C8.94328 12.2665 8.99937 12.0005 8.93621 11.7546C8.5446 10.2296 8.94578 8.54306 10.1397 7.3491C11.9379 5.55095 14.8532 5.55095 16.6514 7.3491Z" fill="#1C274C"/>
</svg>
