<svg width="24" height="24" viewBox="0 0 24 24" fill="none" xmlns="http://www.w3.org/2000/svg">
<path d="M14.2084 11.0937C14.9388 11.0937 15.531 10.5039 15.531 9.77646C15.531 9.04897 14.9388 8.45923 14.2084 8.45923C13.4779 8.45923 12.8857 9.04897 12.8857 9.77646C12.8857 10.5039 13.4779 11.0937 14.2084 11.0937Z" fill="#1C274C"/>
<path fill-rule="evenodd" clip-rule="evenodd" d="M3.46447 3.46495C2 4.92942 2 7.28644 2 12.0005C2 16.7145 2 19.0716 3.46447 20.536C4.92893 22.0005 7.28595 22.0005 12 22.0005C16.714 22.0005 19.0711 22.0005 20.5355 20.536C22 19.0716 22 16.7145 22 12.0005C22 7.28644 22 4.92942 20.5355 3.46495C19.0711 2.00049 16.714 2.00049 12 2.00049C7.28595 2.00049 4.92893 2.00049 3.46447 3.46495ZM14.2084 13.5526C16.3025 13.5526 18 11.862 18 9.77655C18 7.69109 16.3025 6.00049 14.2084 6.00049C12.1144 6.00049 10.4169 7.69109 10.4169 9.77655C10.4169 10.7425 10.8578 11.445 10.8578 11.445L6.27264 16.0114C6.0669 16.2163 5.77886 16.7491 6.27264 17.2409L6.8017 17.7677C7.00743 17.9434 7.52471 18.1893 7.94796 17.7677L8.56519 17.153C9.18242 17.7677 9.88782 17.4165 10.1523 17.0652C10.5932 16.4505 10.0642 15.8358 10.0642 15.8358L10.2405 15.6602C11.087 16.5032 11.8277 16.0114 12.0922 15.6602C12.5331 15.0455 12.0922 14.4308 12.0922 14.4308C12.0403 14.3273 11.9731 14.2544 11.9153 14.1917C11.777 14.0414 11.693 13.9502 12.004 13.6404L12.5331 13.1135C12.9564 13.4648 13.8264 13.5526 14.2084 13.5526Z" fill="#1C274C"/>
</svg>
