<svg width="24" height="24" viewBox="0 0 24 24" fill="none" xmlns="http://www.w3.org/2000/svg">
<path fill-rule="evenodd" clip-rule="evenodd" d="M16.6312 4.76902C16.3898 4.75097 16.0785 4.75049 15.6088 4.75049H14.381C13.9667 4.75049 13.631 4.4147 13.631 4.00049C13.631 3.58628 13.9667 3.25049 14.381 3.25049L15.6357 3.25049C16.0714 3.25048 16.4391 3.25047 16.743 3.27319C17.0624 3.29706 17.365 3.34874 17.6605 3.47975C18.1166 3.68196 18.5069 4.00815 18.7852 4.42181C18.966 4.69051 19.0682 4.97948 19.1449 5.2886C19.2178 5.58207 19.2784 5.94131 19.3499 6.36532L20.3586 12.3464C20.3953 12.564 20.3343 12.7868 20.1918 12.9553C20.0493 13.1239 19.8398 13.2211 19.619 13.2211C17.1319 13.2211 15.131 15.2112 15.131 17.6475C15.131 18.0618 14.7952 18.3975 14.381 18.3975H7.42003C7.08088 19.7536 5.84304 20.7505 4.38095 20.7505C2.66017 20.7505 1.25 19.3696 1.25 17.6475C1.25 15.9255 2.66017 14.5446 4.38095 14.5446C5.84304 14.5446 7.08088 15.5415 7.42003 16.8975H13.6784C14.0147 14.2584 16.1026 12.1678 18.7426 11.7842L17.8754 6.64185C17.7981 6.18357 17.7466 5.88129 17.6892 5.65008C17.6341 5.42828 17.5857 5.32599 17.5407 5.25923C17.4211 5.08145 17.2522 4.93953 17.0526 4.85103C16.9761 4.81714 16.8634 4.78637 16.6312 4.76902ZM16.4881 17.6475C16.4881 15.9255 17.8983 14.5446 19.619 14.5446C21.3398 14.5446 22.75 15.9255 22.75 17.6475C22.75 19.3696 21.3398 20.7505 19.619 20.7505C17.8983 20.7505 16.4881 19.3696 16.4881 17.6475Z" fill="#1C274C"/>
</svg>
