<svg width="24" height="24" viewBox="0 0 24 24" fill="none" xmlns="http://www.w3.org/2000/svg">
<path d="M6.66749 3.15156C5.88138 3.92652 5.57692 5.09922 4.96802 7.44463L4.88378 7.7691C4.05598 10.9577 3.64207 12.552 4.39389 13.6721C4.46887 13.7838 4.55129 13.8903 4.64058 13.991C5.5358 15.0001 7.18295 15.0001 10.4772 15.0001H11.2559V21.2501H9.00586C8.59165 21.2501 8.25586 21.5859 8.25586 22.0001C8.25586 22.4143 8.59165 22.7501 9.00586 22.7501H15.0059C15.4201 22.7501 15.7559 22.4143 15.7559 22.0001C15.7559 21.5859 15.4201 21.2501 15.0059 21.2501H12.7559V15.0001H13.5358C14.8551 15.0001 15.9102 15.0001 16.7586 14.9353C16.7568 14.9567 16.7559 14.9783 16.7559 15.0001V17.0001C16.7559 17.4143 17.0916 17.7501 17.5059 17.7501C17.9201 17.7501 18.2559 17.4143 18.2559 17.0001V15.0001V14.6818C18.7241 14.5325 19.0866 14.3132 19.3724 13.991C19.4617 13.8903 19.5441 13.7838 19.6191 13.6721C20.3709 12.552 19.957 10.9577 19.1292 7.7691L19.045 7.44463C18.4361 5.09923 18.1316 3.92652 17.3455 3.15156C17.1176 2.9269 16.8636 2.7304 16.5889 2.56628C15.6412 2.00012 14.4297 2.00012 12.0065 2.00012C9.58334 2.00012 8.37176 2.00012 7.42412 2.56628C7.14941 2.7304 6.89538 2.9269 6.66749 3.15156Z" fill="#1C274C"/>
</svg>
