<svg width="24" height="24" viewBox="0 0 24 24" fill="none" xmlns="http://www.w3.org/2000/svg">
<path d="M22 6.00024C22 7.6571 20.6569 9.00024 19 9.00024C17.3431 9.00024 16 7.6571 16 6.00024C16 4.34339 17.3431 3.00024 19 3.00024C20.6569 3.00024 22 4.34339 22 6.00024Z" fill="#1C274C"/>
<path fill-rule="evenodd" clip-rule="evenodd" d="M14 5.00024H10C6.22876 5.00024 4.34315 5.00024 3.17157 6.17182C2 7.34339 2 9.22901 2 13.0002C2 16.7715 2 18.6571 3.17157 19.8287C4.34315 21.0002 6.22876 21.0002 10 21.0002H14C17.7712 21.0002 19.6569 21.0002 20.8284 19.8287C22 18.6571 22 16.7715 22 13.0002C22 11.5469 22 10.3736 21.9329 9.41324C21.1453 10.0907 20.1205 10.5002 19 10.5002C18.5213 10.5002 18.0601 10.4255 17.6274 10.2871L16.2837 11.4068C15.3973 12.1455 14.6789 12.7442 14.0448 13.152C13.3843 13.5768 12.7411 13.8451 12 13.8451C11.2589 13.8451 10.6157 13.5768 9.95518 13.152C9.32112 12.7442 8.60271 12.1455 7.71636 11.4068L5.51986 9.57641C5.20165 9.31124 5.15866 8.83831 5.42383 8.52011C5.68901 8.2019 6.16193 8.15891 6.48014 8.42408L8.63903 10.2232C9.57199 11.0006 10.2197 11.5387 10.7666 11.8904C11.2959 12.2308 11.6549 12.3451 12 12.3451C12.3451 12.3451 12.7041 12.2308 13.2334 11.8904C13.7803 11.5387 14.428 11.0006 15.361 10.2232L16.2004 9.5236C15.1643 8.69918 14.5 7.42728 14.5 6.00024C14.5 5.65662 14.5385 5.322 14.6115 5.00045C14.4133 5.00024 14.2096 5.00024 14 5.00024Z" fill="#1C274C"/>
</svg>
