<svg width="24" height="24" viewBox="0 0 24 24" fill="none" xmlns="http://www.w3.org/2000/svg">
<path d="M15.7284 3.88445C17.1627 2.44456 19.2608 2.41432 20.4223 3.58029C21.5859 4.74847 21.5546 6.85971 20.1193 8.30058L17.6955 10.7338C17.4031 11.0273 17.4041 11.5022 17.6975 11.7945C17.991 12.0868 18.4658 12.0859 18.7582 11.7924L21.182 9.35918C23.0933 7.44047 23.3333 4.37714 21.485 2.52169C19.6345 0.664039 16.578 0.906152 14.6657 2.82585L9.81805 7.69231C7.90675 9.61102 7.6668 12.6744 9.51506 14.5298C9.80739 14.8233 10.2823 14.8242 10.5757 14.5319C10.8692 14.2396 10.8701 13.7647 10.5778 13.4712C9.41412 12.3031 9.44547 10.1918 10.8808 8.75091L15.7284 3.88445Z" fill="#1C274C"/>
<path d="M14.485 9.47123C14.1926 9.17777 13.7178 9.17685 13.4243 9.46917C13.1309 9.7615 13.1299 10.2364 13.4223 10.5298C14.5859 11.698 14.5546 13.8092 13.1193 15.2501L8.27165 20.1166C6.83733 21.5565 4.73925 21.5867 3.57778 20.4208C2.41412 19.2526 2.44546 17.1413 3.88077 15.7004L6.30461 13.2672C6.59694 12.9737 6.59601 12.4988 6.30256 12.2065C6.00909 11.9142 5.53422 11.9151 5.2419 12.2086L2.81805 14.6418C0.906754 16.5605 0.666794 19.6239 2.51507 21.4794C4.36554 23.337 7.42209 23.0949 9.33437 21.1752L14.182 16.3087C16.0933 14.39 16.3333 11.3267 14.485 9.47123Z" fill="#1C274C"/>
</svg>
