<svg width="24" height="24" viewBox="0 0 24 24" fill="none" xmlns="http://www.w3.org/2000/svg">
<path fill-rule="evenodd" clip-rule="evenodd" d="M11.1566 20.3137C16.2137 20.3137 20.3133 16.2142 20.3133 11.1571C20.3133 6.10005 16.2137 2.00049 11.1566 2.00049C6.09956 2.00049 2 6.10005 2 11.1571C2 16.2142 6.09956 20.3137 11.1566 20.3137ZM19.8606 18.8387C19.5783 18.5564 19.1205 18.5564 18.8382 18.8387C18.5559 19.121 18.5559 19.5787 18.8382 19.861L20.7659 21.7888C21.0483 22.0711 21.506 22.0711 21.7883 21.7888C22.0706 21.5065 22.0706 21.0487 21.7883 20.7664L19.8606 18.8387ZM11.8795 10.4342V8.74746C11.8795 8.14511 11.3976 8.01455 11.1566 8.02457C10.7574 8.02457 10.4337 8.34822 10.4337 8.74746V10.4342H8.747C8.34776 10.4342 8.02411 10.7579 8.02411 11.1571C8.02411 11.5563 8.34776 11.88 8.747 11.88H10.4337V13.5667C10.4337 13.966 10.7574 14.2896 11.1566 14.2896C11.5559 14.2896 11.8795 13.966 11.8795 13.5667V11.88H13.5663C13.9655 11.88 14.2892 11.5563 14.2892 11.1571C14.2892 10.7579 13.9655 10.4342 13.5663 10.4342H11.8795Z" fill="#1C274C"/>
</svg>
