<svg width="24" height="24" viewBox="0 0 24 24" fill="none" xmlns="http://www.w3.org/2000/svg">
<path fill-rule="evenodd" clip-rule="evenodd" d="M17.8194 19.7011C17.7302 18.6069 18.6357 17.6934 19.7205 17.7835C19.9086 17.7991 20.1337 17.8675 20.363 17.9372C20.3851 17.944 20.4073 17.9507 20.4294 17.9574C20.4494 17.9634 20.4694 17.9694 20.4894 17.9754C20.7001 18.0388 20.9097 18.1018 21.0692 18.1879C21.9844 18.6823 22.2799 19.8636 21.7067 20.7368C21.6068 20.8888 21.4519 21.0446 21.2962 21.2012C21.2814 21.2161 21.2666 21.231 21.2519 21.2458C21.2371 21.2607 21.2224 21.2756 21.2076 21.2906C21.0524 21.4476 20.898 21.6039 20.7472 21.7046C19.8816 22.2828 18.7105 21.9848 18.2204 21.0615C18.135 20.9007 18.0725 20.6893 18.0097 20.4767C18.0038 20.4566 17.9978 20.4364 17.9918 20.4162C17.9852 20.3939 17.9785 20.3715 17.9719 20.3493C17.9028 20.118 17.8349 19.8908 17.8194 19.7011Z" fill="#1C274C"/>
<path d="M20.1278 11.1434C20.1278 16.1929 16.0697 20.2863 11.0639 20.2863C6.05804 20.2863 2 16.1929 2 11.1434C2 6.0939 6.05804 2.00049 11.0639 2.00049C16.0697 2.00049 20.1278 6.0939 20.1278 11.1434Z" fill="#1C274C"/>
</svg>
