<svg width="24" height="24" viewBox="0 0 24 24" fill="none" xmlns="http://www.w3.org/2000/svg">
<path fill-rule="evenodd" clip-rule="evenodd" d="M21.7883 21.7888C22.0706 21.5065 22.0706 21.0487 21.7883 20.7664L18.1224 17.1006C19.4884 15.5011 20.3133 13.4255 20.3133 11.1571C20.3133 6.10005 16.2137 2.00049 11.1566 2.00049C6.09956 2.00049 2 6.10005 2 11.1571C2 16.2142 6.09956 20.3137 11.1566 20.3137C13.4249 20.3137 15.5006 19.489 17.1 18.123L20.7659 21.7888C21.0483 22.0711 21.506 22.0711 21.7883 21.7888ZM8.0241 11.1571C8.0241 10.7579 8.34775 10.4342 8.74699 10.4342H13.5663C13.9655 10.4342 14.2892 10.7579 14.2892 11.1571C14.2892 11.5564 13.9655 11.88 13.5663 11.88H8.74699C8.34775 11.88 8.0241 11.5564 8.0241 11.1571Z" fill="#1C274C"/>
</svg>
