<svg width="24" height="24" viewBox="0 0 24 24" fill="none" xmlns="http://www.w3.org/2000/svg">
<path fill-rule="evenodd" clip-rule="evenodd" d="M8.85714 11.9479C8.85714 12.876 9.45343 13.6655 10.2857 13.9581V10.7636H8.85714V11.9479ZM13.0209 9.34259C12.7268 8.51469 11.933 7.92154 11 7.92154C10.067 7.92154 9.27324 8.51469 8.97908 9.34259H13.0209ZM13.1429 10.7636H11.7143V13.9581C12.5466 13.6655 13.1429 12.876 13.1429 11.9479V10.7636Z" fill="#1C274C"/>
<path fill-rule="evenodd" clip-rule="evenodd" d="M21.7883 21.7888C22.0706 21.5065 22.0706 21.0487 21.7883 20.7664L18.1224 17.1006C19.4884 15.5011 20.3133 13.4255 20.3133 11.1571C20.3133 6.10005 16.2137 2.00049 11.1566 2.00049C6.09956 2.00049 2 6.10005 2 11.1571C2 16.2142 6.09956 20.3137 11.1566 20.3137C13.4249 20.3137 15.5006 19.489 17.1 18.123L20.7659 21.7888C21.0483 22.0711 21.506 22.0711 21.7883 21.7888ZM8.18946 7.86085C8.8433 7.03256 9.85918 6.50049 11 6.50049C12.1408 6.50049 13.1567 7.03256 13.8105 7.86085L14.4901 7.52287C14.8429 7.34738 15.272 7.48964 15.4484 7.84063C15.6248 8.19161 15.4818 8.6184 15.129 8.7939L14.4501 9.13155C14.5292 9.42545 14.5714 9.73438 14.5714 10.0531V10.29H15.2857C15.6802 10.29 16 10.6081 16 11.0005C16 11.3929 15.6802 11.711 15.2857 11.711H14.5714V11.9479C14.5714 12.2666 14.5292 12.5755 14.4501 12.8694L15.129 13.2071C15.4818 13.3826 15.6248 13.8094 15.4484 14.1604C15.272 14.5113 14.8429 14.6536 14.4901 14.4781L13.8105 14.1401C13.1567 14.9684 12.1408 15.5005 11 15.5005C9.85918 15.5005 8.8433 14.9684 8.18946 14.1401L7.50991 14.4781C7.15707 14.6536 6.72802 14.5113 6.5516 14.1604C6.37518 13.8094 6.5182 13.3826 6.87104 13.2071L7.54991 12.8694C7.47077 12.5755 7.42857 12.2666 7.42857 11.9479V11.711H6.71429C6.3198 11.711 6 11.3929 6 11.0005C6 10.6081 6.3198 10.29 6.71429 10.29H7.42857V10.0531C7.42857 9.73438 7.47077 9.42545 7.54991 9.13155L6.87104 8.7939C6.5182 8.6184 6.37518 8.19161 6.5516 7.84063C6.72802 7.48964 7.15707 7.34738 7.50991 7.52287L8.18946 7.86085Z" fill="#1C274C"/>
</svg>
