<svg width="24" height="24" viewBox="0 0 24 24" fill="none" xmlns="http://www.w3.org/2000/svg">
<path fill-rule="evenodd" clip-rule="evenodd" d="M6 8.10771C6 4.73465 8.68629 2.00024 12 2.00024C15.3137 2.00024 18 4.73465 18 8.10771C18 11.4543 16.085 15.3596 13.0972 16.7561C12.4007 17.0816 11.5993 17.0816 10.9028 16.7561C7.91499 15.3596 6 11.4543 6 8.10771ZM12 10.0002C13.1046 10.0002 14 9.10481 14 8.00024C14 6.89567 13.1046 6.00024 12 6.00024C10.8954 6.00024 10 6.89567 10 8.00024C10 9.10481 10.8954 10.0002 12 10.0002Z" fill="#1C274C"/>
<path fill-rule="evenodd" clip-rule="evenodd" d="M3.62731 14.5345C3.88455 14.8592 3.82989 15.3309 3.50523 15.5881C2.93157 16.0426 2.75 16.4433 2.75 16.7503C2.75 16.9932 2.86028 17.2883 3.19064 17.6299C3.52438 17.9749 4.04582 18.3254 4.75556 18.6473C6.00981 19.2162 7.74351 19.6469 9.75 19.8345V19.3753C9.75 19.081 9.9221 18.8139 10.1901 18.6923C10.4581 18.5707 10.7724 18.6171 10.9939 18.8108L12.4939 20.1233C12.6566 20.2658 12.75 20.4715 12.75 20.6878C12.75 20.904 12.6566 21.1098 12.4939 21.2522L10.9939 22.5647C10.7724 22.7585 10.4581 22.8049 10.1901 22.6832C9.9221 22.5616 9.75 22.2946 9.75 22.0003V21.3407C7.56512 21.149 5.60927 20.6816 4.13599 20.0134C3.32214 19.6443 2.62069 19.1982 2.11244 18.6727C1.60081 18.1437 1.25 17.4943 1.25 16.7503C1.25 15.8 1.81667 15.0122 2.5737 14.4124C2.89836 14.1552 3.37008 14.2099 3.62731 14.5345ZM20.3727 14.5345C20.6299 14.2099 21.1016 14.1552 21.4263 14.4124C22.1833 15.0122 22.75 15.8 22.75 16.7503C22.75 18.1284 21.5819 19.1609 20.2034 19.8516C18.7617 20.5741 16.791 21.0854 14.5756 21.3099C14.1635 21.3517 13.7956 21.0514 13.7538 20.6393C13.7121 20.2272 14.0123 19.8593 14.4244 19.8175C16.522 19.605 18.3014 19.1269 19.5314 18.5106C20.8246 17.8626 21.25 17.2069 21.25 16.7503C21.25 16.4433 21.0684 16.0426 20.4948 15.5881C20.1701 15.3309 20.1155 14.8592 20.3727 14.5345Z" fill="#1C274C"/>
</svg>
