<svg width="24" height="24" viewBox="0 0 24 24" fill="none" xmlns="http://www.w3.org/2000/svg">
<path d="M2.43627 5.14664C2 5.64323 2 6.49466 2 8.19752V17.5908C2 18.7968 2 19.3998 2.3146 19.8537C2.62919 20.3077 3.17921 20.4984 4.27924 20.8798L5.57343 21.3284C6.27436 21.5714 6.81371 21.7584 7.26633 21.8788C7.5616 21.9574 7.83333 21.7256 7.83333 21.42V6.26989C7.83333 6.02097 7.64964 5.8109 7.40837 5.74969C7.01914 5.65096 6.55127 5.48876 5.91002 5.26645C4.35676 4.72796 3.58014 4.45871 2.98922 4.73213C2.77941 4.82921 2.59116 4.97033 2.43627 5.14664Z" fill="#1C274C"/>
<path d="M12.6204 3.48074L11.0844 4.54575C10.5287 4.93103 10.1215 5.21339 9.77375 5.4147C9.60895 5.5101 9.5 5.6827 9.5 5.87313V20.9201C9.5 21.2906 9.88398 21.522 10.1962 21.3223C10.5312 21.108 10.9149 20.842 11.3796 20.5197L12.9156 19.4547C13.4712 19.0695 13.8785 18.7871 14.2262 18.5858C14.3911 18.4904 14.5 18.3178 14.5 18.1273V3.08042C14.5 2.70983 14.116 2.47845 13.8038 2.67815C13.4688 2.89249 13.0851 3.15852 12.6204 3.48074Z" fill="#1C274C"/>
<path d="M19.7208 3.12072L18.4266 2.67204C17.7256 2.42902 17.1863 2.24207 16.7337 2.12166C16.4384 2.04312 16.1667 2.27488 16.1667 2.58043V17.7306C16.1667 17.9795 16.3504 18.1896 16.5916 18.2508C16.9809 18.3495 17.4488 18.5117 18.09 18.734C19.6432 19.2725 20.4199 19.5418 21.0108 19.2683C21.2206 19.1713 21.4088 19.0301 21.5637 18.8538C22 18.3572 22 17.5058 22 15.803V6.40967C22 5.20369 22 4.60069 21.6854 4.14673C21.3708 3.69277 20.8208 3.50209 19.7208 3.12072Z" fill="#1C274C"/>
</svg>
