<svg width="24" height="24" viewBox="0 0 24 24" fill="none" xmlns="http://www.w3.org/2000/svg">
<path fill-rule="evenodd" clip-rule="evenodd" d="M10 6.00037H14C16.8284 6.00037 18.2426 6.00037 19.1213 6.87905C20 7.75773 20 9.17194 20 12.0004V13.0561C20 15.4617 20 16.6645 19.4026 17.6312C18.8052 18.5978 17.7294 19.1357 15.5777 20.2115C13.8221 21.0893 12.9443 21.5282 12 21.5282C11.0557 21.5282 10.1779 21.0893 8.42229 20.2115C6.27063 19.1357 5.19479 18.5978 4.5974 17.6312C4 16.6645 4 15.4617 4 13.0561V12.0004C4 9.17194 4 7.75773 4.87868 6.87905C5.75736 6.00037 7.17157 6.00037 10 6.00037ZM12 10.0004C11.7159 10.0004 11.5259 10.3412 11.1459 11.0229L11.0476 11.1992C10.9397 11.3929 10.8857 11.4898 10.8015 11.5537C10.7173 11.6176 10.6125 11.6413 10.4028 11.6888L10.2119 11.732C9.47396 11.8989 9.10501 11.9824 9.01723 12.2647C8.92945 12.547 9.18097 12.8411 9.68403 13.4293L9.81418 13.5815C9.95713 13.7487 10.0286 13.8323 10.0608 13.9357C10.0929 14.0391 10.0821 14.1506 10.0605 14.3736L10.0408 14.5767C9.96476 15.3615 9.92674 15.754 10.1565 15.9284C10.3864 16.1029 10.7318 15.9438 11.4227 15.6257L11.6014 15.5434C11.7978 15.453 11.8959 15.4078 12 15.4078C12.1041 15.4078 12.2022 15.453 12.3986 15.5434L12.5773 15.6257C13.2682 15.9438 13.6136 16.1029 13.8435 15.9284C14.0733 15.754 14.0352 15.3615 13.9592 14.5767L13.9395 14.3736C13.9179 14.1506 13.9071 14.0391 13.9392 13.9357C13.9714 13.8323 14.0429 13.7487 14.1858 13.5815L14.316 13.4293C14.819 12.8411 15.0706 12.547 14.9828 12.2647C14.895 11.9824 14.526 11.8989 13.7881 11.732L13.5972 11.6888C13.3875 11.6413 13.2827 11.6176 13.1985 11.5537C13.1143 11.4898 13.0603 11.3929 12.9524 11.1992L12.8541 11.0229C12.4741 10.3412 12.2841 10.0004 12 10.0004Z" fill="#1C274C"/>
<path d="M11.0001 2.00037H13.0001C14.8857 2.00037 15.8285 2.00037 16.4143 2.58615C16.8282 3.00005 16.9497 3.59217 16.9853 4.56916C16.1644 4.50025 15.1941 4.50031 14.0988 4.50037H9.90135C8.80614 4.50031 7.83574 4.50025 7.01489 4.56916C7.05053 3.59217 7.17199 3.00005 7.58588 2.58615C8.17166 2.00037 9.11447 2.00037 11.0001 2.00037Z" fill="#1C274C"/>
</svg>
