<svg width="24" height="24" viewBox="0 0 24 24" fill="none" xmlns="http://www.w3.org/2000/svg">
<path fill-rule="evenodd" clip-rule="evenodd" d="M12 16.0004C15.866 16.0004 19 12.8664 19 9.00037C19 5.13437 15.866 2.00037 12 2.00037C8.13401 2.00037 5 5.13437 5 9.00037C5 12.8664 8.13401 16.0004 12 16.0004ZM12 6.00037C11.7159 6.00037 11.5259 6.3412 11.1459 7.02288L11.0476 7.19924C10.9397 7.39295 10.8857 7.4898 10.8015 7.55371C10.7173 7.61761 10.6125 7.64134 10.4028 7.68878L10.2119 7.73197C9.47396 7.89893 9.10501 7.98241 9.01723 8.26469C8.92945 8.54696 9.18097 8.84109 9.68403 9.42934L9.81418 9.58153C9.95713 9.7487 10.0286 9.83228 10.0608 9.93568C10.0929 10.0391 10.0821 10.1506 10.0605 10.3736L10.0408 10.5767C9.96476 11.3615 9.92674 11.754 10.1565 11.9284C10.3864 12.1029 10.7318 11.9438 11.4227 11.6257L11.6014 11.5434C11.7978 11.453 11.8959 11.4078 12 11.4078C12.1041 11.4078 12.2022 11.453 12.3986 11.5434L12.5773 11.6257C13.2682 11.9438 13.6136 12.1029 13.8435 11.9284C14.0733 11.754 14.0352 11.3615 13.9592 10.5767L13.9395 10.3736C13.9179 10.1506 13.9071 10.0391 13.9392 9.93568C13.9714 9.83228 14.0429 9.7487 14.1858 9.58154L14.316 9.42934C14.819 8.84109 15.0706 8.54696 14.9828 8.26469C14.895 7.98241 14.526 7.89893 13.7881 7.73197L13.5972 7.68878C13.3875 7.64134 13.2827 7.61761 13.1985 7.55371C13.1143 7.4898 13.0603 7.39295 12.9524 7.19924L12.8541 7.02288C12.4741 6.3412 12.2841 6.00037 12 6.00037Z" fill="#1C274C"/>
<path d="M7.09301 15.9418L6.71424 17.3233C6.0859 19.6152 5.77173 20.7611 6.19097 21.3884C6.3379 21.6083 6.535 21.7847 6.76372 21.9012C7.41634 22.2335 8.424 21.7084 10.4393 20.6583C11.1099 20.3089 11.4452 20.1342 11.8014 20.0963C11.9335 20.0822 12.0665 20.0822 12.1986 20.0963C12.5548 20.1342 12.8901 20.3089 13.5607 20.6583C15.576 21.7084 16.5837 22.2335 17.2363 21.9012C17.465 21.7847 17.6621 21.6083 17.809 21.3884C18.2283 20.7611 17.9141 19.6152 17.2858 17.3233L16.907 15.9418C15.5208 16.9234 13.8278 17.5004 12 17.5004C10.1722 17.5004 8.47915 16.9234 7.09301 15.9418Z" fill="#1C274C"/>
</svg>
