<svg width="24" height="24" viewBox="0 0 24 24" fill="none" xmlns="http://www.w3.org/2000/svg">
<path fill-rule="evenodd" clip-rule="evenodd" d="M12.052 1.25049H11.948C11.0495 1.25046 10.3003 1.25044 9.70552 1.3304C9.07773 1.41481 8.51093 1.60048 8.05546 2.05595C7.59999 2.51142 7.41432 3.07822 7.32991 3.70601C7.27259 4.13238 7.25637 5.15196 7.25179 6.02615C5.22954 6.0922 4.01536 6.32827 3.17157 7.17206C2 8.34364 2 10.2293 2 14.0005C2 17.7717 2 19.6573 3.17157 20.8289C4.34314 22.0005 6.22876 22.0005 9.99998 22.0005H14C17.7712 22.0005 19.6569 22.0005 20.8284 20.8289C22 19.6573 22 17.7717 22 14.0005C22 10.2293 22 8.34364 20.8284 7.17206C19.9846 6.32827 18.7705 6.0922 16.7482 6.02615C16.7436 5.15196 16.7274 4.13238 16.6701 3.70601C16.5857 3.07822 16.4 2.51142 15.9445 2.05595C15.4891 1.60048 14.9223 1.41481 14.2945 1.3304C13.6997 1.25044 12.9505 1.25046 12.052 1.25049ZM15.2479 6.00237C15.2434 5.15572 15.229 4.24456 15.1835 3.90588C15.1214 3.44442 15.0142 3.24692 14.8839 3.11661C14.7536 2.98629 14.5561 2.87907 14.0946 2.81703C13.6116 2.75208 12.964 2.75049 12 2.75049C11.036 2.75049 10.3884 2.75208 9.90539 2.81703C9.44393 2.87907 9.24644 2.98629 9.11612 3.11661C8.9858 3.24692 8.87858 3.44442 8.81654 3.90588C8.771 4.24456 8.75661 5.15572 8.75208 6.00237C9.1435 6.00049 9.55885 6.00049 10 6.00049H14C14.4412 6.00049 14.8565 6.00049 15.2479 6.00237ZM12 9.25049C12.4142 9.25049 12.75 9.58628 12.75 10.0005V10.0107C13.8388 10.285 14.75 11.1435 14.75 12.3338C14.75 12.748 14.4142 13.0838 14 13.0838C13.5858 13.0838 13.25 12.748 13.25 12.3338C13.25 11.9498 12.8242 11.4172 12 11.4172C11.1758 11.4172 10.75 11.9498 10.75 12.3338C10.75 12.7179 11.1758 13.2505 12 13.2505C13.3849 13.2505 14.75 14.2102 14.75 15.6672C14.75 16.8575 13.8388 17.716 12.75 17.9903V18.0005C12.75 18.4147 12.4142 18.7505 12 18.7505C11.5858 18.7505 11.25 18.4147 11.25 18.0005V17.9903C10.1612 17.716 9.25 16.8575 9.25 15.6672C9.25 15.2529 9.58579 14.9172 10 14.9172C10.4142 14.9172 10.75 15.2529 10.75 15.6672C10.75 16.0512 11.1758 16.5838 12 16.5838C12.8242 16.5838 13.25 16.0512 13.25 15.6672C13.25 15.2831 12.8242 14.7505 12 14.7505C10.6151 14.7505 9.25 13.7907 9.25 12.3338C9.25 11.1435 10.1612 10.285 11.25 10.0107V10.0005C11.25 9.58628 11.5858 9.25049 12 9.25049Z" fill="#1C274C"/>
</svg>
