<svg width="24" height="24" viewBox="0 0 24 24" fill="none" xmlns="http://www.w3.org/2000/svg">
<path fill-rule="evenodd" clip-rule="evenodd" d="M3.17157 2.17206C2 3.34363 2 5.22925 2 9.00049V13.0005C2 16.7717 2 18.6573 3.17157 19.8289C4.34315 21.0005 6.22876 21.0005 10 21.0005H14C17.7712 21.0005 19.6569 21.0005 20.8284 19.8289C22 18.6573 22 16.7717 22 13.0005V9.00049C22 5.22925 22 3.34363 20.8284 2.17206C19.6569 1.00049 17.7712 1.00049 14 1.00049H10C6.22876 1.00049 4.34315 1.00049 3.17157 2.17206ZM12.5074 15.7228L12.5 15.7267V7.28326L12.5219 7.2709C13.0752 6.95076 13.9685 6.47404 14.7 6.27128C15.2404 6.12147 15.9405 6.05245 16.5568 6.02219C17.3619 5.98265 18 6.64592 18 7.45203V12.9113C18 13.7442 17.3207 14.4155 16.4901 14.4775C15.9839 14.5152 15.4375 14.5788 15 14.6857C14.1634 14.8901 13.1174 15.4014 12.5074 15.7228ZM6 7.49698V12.9113C6 13.7442 6.67934 14.4155 7.50991 14.4775C8.01608 14.5152 8.56248 14.5788 9 14.6857C9.83655 14.8901 10.8826 15.4014 11.4926 15.7228L11.5 15.7267V7.31143C11.4881 7.30574 11.4763 7.29982 11.4646 7.29367C10.851 6.97159 9.8239 6.47258 9 6.27128C8.55592 6.16277 7.99967 6.09892 7.48717 6.0614C6.66539 6.00122 6 6.673 6 7.49698Z" fill="#1C274C"/>
</svg>
