<svg width="24" height="24" viewBox="0 0 24 24" fill="none" xmlns="http://www.w3.org/2000/svg">
<path d="M5 5.00049C5 4.59383 4.75727 4.24387 4.40879 4.08759C4.55271 3.97423 4.72712 3.89663 4.91959 3.86914L15.7172 2.32663C16.922 2.15451 18 3.08943 18 4.30653V5.12651C17.6804 5.04424 17.3453 5.00049 17 5.00049H5Z" fill="#1C274C"/>
<path d="M9.75 13.0005C9.75 11.7578 10.7574 10.7505 12 10.7505C13.2426 10.7505 14.25 11.7578 14.25 13.0005C14.25 14.2431 13.2426 15.2505 12 15.2505C10.7574 15.2505 9.75 14.2431 9.75 13.0005Z" fill="#1C274C"/>
<path fill-rule="evenodd" clip-rule="evenodd" d="M18 6.17119C19.1652 6.58303 20 7.69427 20 9.00049V19.0005C20 20.6573 18.6569 22.0005 17 22.0005H7C5.34315 22.0005 4 20.6573 4 19.0005V5.00049C4 5.18263 4.0487 5.3534 4.13378 5.50049C4.30669 5.79939 4.62986 6.00049 5 6.00049H17C17.3506 6.00049 17.6872 6.06064 18 6.17119ZM12 9.25049C9.92893 9.25049 8.25 10.9294 8.25 13.0005C8.25 15.0716 9.92893 16.7505 12 16.7505C14.0711 16.7505 15.75 15.0716 15.75 13.0005C15.75 10.9294 14.0711 9.25049 12 9.25049ZM10 18.2505C9.58579 18.2505 9.25 18.5863 9.25 19.0005C9.25 19.4147 9.58579 19.7505 10 19.7505H14C14.4142 19.7505 14.75 19.4147 14.75 19.0005C14.75 18.5863 14.4142 18.2505 14 18.2505H10Z" fill="#1C274C"/>
</svg>
