<svg width="24" height="24" viewBox="0 0 24 24" fill="none" xmlns="http://www.w3.org/2000/svg">
<path d="M5 5.00049C5 4.59383 4.75727 4.24387 4.40879 4.08759C4.55271 3.97423 4.72712 3.89663 4.91959 3.86914L15.7172 2.32663C16.922 2.15451 18 3.08943 18 4.30653V5.12651C17.6804 5.04424 17.3453 5.00049 17 5.00049H5Z" fill="#1C274C"/>
<path d="M9.75 14.0005C9.75 12.7578 10.7574 11.7505 12 11.7505C13.2426 11.7505 14.25 12.7578 14.25 14.0005C14.25 15.2431 13.2426 16.2505 12 16.2505C10.7574 16.2505 9.75 15.2431 9.75 14.0005Z" fill="#1C274C"/>
<path fill-rule="evenodd" clip-rule="evenodd" d="M18 6.17119C19.1652 6.58303 20 7.69427 20 9.00049V19.0005C20 20.6573 18.6569 22.0005 17 22.0005H7C5.34315 22.0005 4 20.6573 4 19.0005V5.00049C4 5.18263 4.0487 5.3534 4.13378 5.50049C4.30669 5.79939 4.62986 6.00049 5 6.00049H17C17.3506 6.00049 17.6872 6.06064 18 6.17119ZM12 10.2505C9.92893 10.2505 8.25 11.9294 8.25 14.0005C8.25 16.0716 9.92893 17.7505 12 17.7505C14.0711 17.7505 15.75 16.0716 15.75 14.0005C15.75 11.9294 14.0711 10.2505 12 10.2505Z" fill="#1C274C"/>
</svg>
