<svg width="24" height="24" viewBox="0 0 24 24" fill="none" xmlns="http://www.w3.org/2000/svg">
<path d="M21.1938 2.80649C22.2687 3.88148 22.2687 5.62439 21.1938 6.69938L20.6982 7.19493C20.5539 7.16369 20.3722 7.11613 20.1651 7.04428C19.6108 6.85196 18.8823 6.48851 18.197 5.80325C17.5117 5.11798 17.1483 4.38947 16.956 3.83514C16.8841 3.62805 16.8366 3.44633 16.8053 3.30204L17.3009 2.80649C18.3759 1.7315 20.1188 1.7315 21.1938 2.80649Z" fill="#1C274C"/>
<path d="M14.5801 13.3131C14.1761 13.7171 13.9741 13.9191 13.7513 14.0928C13.4886 14.2977 13.2043 14.4734 12.9035 14.6168C12.6485 14.7383 12.3775 14.8287 11.8354 15.0093L8.97709 15.9621C8.71035 16.051 8.41626 15.9816 8.21744 15.7828C8.01862 15.584 7.9492 15.2899 8.03811 15.0232L8.99089 12.1648C9.17157 11.6228 9.26191 11.3518 9.38344 11.0968C9.52679 10.796 9.70249 10.5117 9.90743 10.2489C10.0812 10.0262 10.2832 9.82419 10.6872 9.42017L15.6033 4.50409C15.867 5.19828 16.3293 6.05688 17.1363 6.86391C17.9434 7.67094 18.802 8.13321 19.4962 8.39699L14.5801 13.3131Z" fill="#1C274C"/>
<path d="M20.5355 20.5358C22 19.0713 22 16.7143 22 12.0002C22 10.452 22 9.15798 21.9481 8.06634L15.586 14.4285C15.2347 14.7799 14.9708 15.0439 14.6738 15.2756C14.3252 15.5475 13.948 15.7807 13.5488 15.9709C13.2088 16.1329 12.8546 16.2509 12.3833 16.4079L9.45143 17.3852C8.64568 17.6537 7.75734 17.444 7.15678 16.8435C6.55621 16.2429 6.34651 15.3546 6.61509 14.5488L7.59235 11.617C7.74936 11.1456 7.86732 10.7914 8.02935 10.4514C8.21958 10.0523 8.45272 9.67505 8.72466 9.3264C8.9563 9.02942 9.22032 8.76552 9.57173 8.41428L15.9339 2.05213C14.8423 2.00024 13.5483 2.00024 12 2.00024C7.28595 2.00024 4.92893 2.00024 3.46447 3.46471C2 4.92918 2 7.2862 2 12.0002C2 16.7143 2 19.0713 3.46447 20.5358C4.92893 22.0002 7.28595 22.0002 12 22.0002C16.714 22.0002 19.0711 22.0002 20.5355 20.5358Z" fill="#1C274C"/>
</svg>
