<svg width="24" height="24" viewBox="0 0 24 24" fill="none" xmlns="http://www.w3.org/2000/svg">
<path d="M9.68202 12.6822C7.92466 14.4396 5.07542 14.4396 3.31806 12.6822C2.63085 11.995 2.21236 11.1408 2.06262 10.2502H10.9375C10.7877 11.1408 10.3692 11.995 9.68202 12.6822Z" fill="#1C274C"/>
<path d="M10.9375 8.75024H2.06262C2.21236 7.85967 2.63085 7.00548 3.31806 6.31826C5.07542 4.5609 7.92466 4.5609 9.68202 6.31826C10.3692 7.00548 10.7877 7.85967 10.9375 8.75024Z" fill="#1C274C"/>
<path d="M14.7575 7.12181C15.9291 8.29338 17.8285 8.29338 19.0001 7.12181C19.5859 6.53602 19.8788 5.76826 19.8788 5.00049C19.8788 4.23272 19.5859 3.46495 19.0001 2.87917C17.8285 1.7076 15.9291 1.7076 14.7575 2.87917C14.1717 3.46495 13.8788 4.23272 13.8788 5.00049C13.8788 5.76826 14.1717 6.53602 14.7575 7.12181Z" fill="#1C274C"/>
<path d="M20.9052 12.0951C22.3649 13.5548 22.3649 15.9215 20.9052 17.3813L19.8778 18.4086L19.8784 18.4056L19.1465 18.2646C19.1424 18.2637 19.132 18.2614 19.1177 18.2577C19.089 18.2505 19.0405 18.2374 18.9748 18.2164C18.8432 18.1744 18.6427 18.101 18.3923 17.9803C17.8925 17.7395 17.1913 17.309 16.4414 16.5591C15.6916 15.8093 15.261 15.108 15.0201 14.6081C14.8994 14.3577 14.826 14.1571 14.784 14.0255C14.763 13.9598 14.7498 13.9113 14.7426 13.8826C14.7389 13.8682 14.7368 13.8588 14.7359 13.8547L14.5946 13.1218L14.5916 13.1224L15.619 12.0951C17.0787 10.6353 19.4454 10.6353 20.9052 12.0951Z" fill="#1C274C"/>
<path d="M13.3262 14.3879C13.3347 14.4169 13.3443 14.4483 13.3551 14.4819C13.4167 14.675 13.5155 14.9411 13.6689 15.2593C13.976 15.8966 14.5009 16.7399 15.3808 17.6198C16.2606 18.4996 17.1039 19.0245 17.7411 19.3316C18.0593 19.4849 18.3255 19.5837 18.5185 19.6453C18.552 19.656 18.5833 19.6656 18.6123 19.6741L17.381 20.9054C15.9213 22.3652 13.5546 22.3652 12.0948 20.9054C10.6351 19.4457 10.6351 17.079 12.0948 15.6192L13.3262 14.3879Z" fill="#1C274C"/>
</svg>
