<svg width="24" height="24" viewBox="0 0 24 24" fill="none" xmlns="http://www.w3.org/2000/svg">
<path fill-rule="evenodd" clip-rule="evenodd" d="M7.59246 11.2818C5.46918 9.15848 5.46918 5.71597 7.59246 3.5927C9.71573 1.46943 13.1582 1.46943 15.2815 3.5927L17.204 5.51518L17.1085 6.01066L17.1066 6.01923C17.1044 6.02936 17.1002 6.04763 17.0936 6.07357C17.0805 6.12547 17.0581 6.20801 17.0231 6.31743C16.9532 6.53628 16.8335 6.86238 16.6391 7.26567C16.2508 8.07138 15.5633 9.18803 14.3752 10.3761C13.1872 11.5641 12.0706 12.2516 11.265 12.6398C10.8618 12.8341 10.5358 12.9538 10.3169 13.0237C10.2076 13.0586 10.125 13.081 10.0731 13.0941C10.0472 13.1007 10.0289 13.1049 10.0188 13.1071L10.0103 13.109L9.51505 13.2043L7.59246 11.2818ZM13.5303 4.46991C13.2374 4.17702 12.7626 4.17702 12.4697 4.46991C12.1768 4.76281 12.1768 5.23768 12.4697 5.53057L13.9697 7.03057C14.2626 7.32347 14.7374 7.32347 15.0303 7.03057C15.3232 6.73768 15.3232 6.26281 15.0303 5.96991L13.5303 4.46991Z" fill="#1C274C"/>
<path d="M18.452 6.77382L18.4546 6.76577L20.4075 8.71874C22.5308 10.842 22.5308 14.2845 20.4075 16.4078C18.2843 18.5311 14.8418 18.5311 12.7185 16.4078L10.7657 14.455L10.7732 14.4526C11.0535 14.3631 11.4451 14.2181 11.9162 13.9911C12.8592 13.5366 14.1178 12.7548 15.4359 11.4368C16.754 10.1187 17.5358 8.86 17.9904 7.91692C18.2174 7.44581 18.3625 7.05413 18.452 6.77382Z" fill="#1C274C"/>
<path d="M5.28563 10.6479C3.33589 11.6387 2 13.6635 2 16.0003C2 19.314 4.68629 22.0003 8 22.0003C10.3368 22.0003 12.3616 20.6644 13.3523 18.7147C12.7425 18.3961 12.1701 17.9807 11.6578 17.4685L6.5318 12.3425C6.01955 11.8302 5.60416 11.2578 5.28563 10.6479Z" fill="#1C274C"/>
</svg>
