<svg width="24" height="24" viewBox="0 0 24 24" fill="none" xmlns="http://www.w3.org/2000/svg">
<path d="M12.0261 9.96568C12.6382 9.13602 13 8.11038 13 7.00024C13 4.23882 10.7614 2.00024 8 2.00024C6.88986 2.00024 5.86422 2.36204 5.03456 2.97415L12.0261 9.96568Z" fill="#1C274C"/>
<path d="M10.9654 11.0263C10.1358 11.6385 9.11014 12.0002 8 12.0002C5.23858 12.0002 3 9.76167 3 7.00024C3 5.89011 3.36179 4.86447 3.9739 4.03481L10.9654 11.0263Z" fill="#1C274C"/>
<path d="M21.9438 16.2502C21.79 15.2308 21.3206 14.2497 20.5356 13.4647C18.5829 11.5121 15.4171 11.5121 13.4645 13.4647C12.6795 14.2497 12.2101 15.2308 12.0563 16.2502H21.9438Z" fill="#1C274C"/>
<path d="M21.9438 17.7502H12.0563C12.2101 18.7697 12.6795 19.7508 13.4645 20.5358C15.4171 22.4884 18.5829 22.4884 20.5356 20.5358C21.3206 19.7508 21.79 18.7697 21.9438 17.7502Z" fill="#1C274C"/>
</svg>
