<svg width="24" height="24" viewBox="0 0 24 24" fill="none" xmlns="http://www.w3.org/2000/svg">
<path fill-rule="evenodd" clip-rule="evenodd" d="M20.3521 10.521L18.6357 15.6704C17.4255 19.301 16.8204 21.1163 15.933 21.6322C15.0889 22.1229 14.0463 22.1229 13.2022 21.6322C12.3148 21.1163 11.7097 19.301 10.4995 15.6704C10.3052 15.0874 10.208 14.7959 10.0449 14.5523C9.88687 14.3162 9.68404 14.1134 9.44793 13.9553C9.2043 13.7922 8.91282 13.6951 8.32987 13.5007C4.69923 12.2905 2.88392 11.6854 2.36806 10.7981C1.87731 9.95393 1.87731 8.91137 2.36806 8.06723C2.88392 7.17988 4.69923 6.57478 8.32987 5.36457L13.4792 3.64812C17.9776 2.14866 20.2268 1.39893 21.414 2.5862C22.6013 3.77347 21.8516 6.02266 20.3521 10.521ZM13.0457 10.9024C12.7544 10.6079 12.7571 10.133 13.0516 9.84178L17.2621 5.67766C17.5566 5.3864 18.0315 5.38903 18.3227 5.68354C18.614 5.97805 18.6114 6.45292 18.3169 6.74418L14.1063 10.9083C13.8118 11.1996 13.337 11.1969 13.0457 10.9024Z" fill="#1C274C"/>
</svg>
