<svg width="24" height="24" viewBox="0 0 24 24" fill="none" xmlns="http://www.w3.org/2000/svg">
<path d="M19.3446 5.99311C19.6232 5.89044 19.9559 5.80237 20.3149 5.86804C20.7572 5.94894 21.1513 6.19697 21.4156 6.56068C21.6302 6.85594 21.6948 7.19391 21.7228 7.48953C21.75 7.77724 21.75 8.13603 21.75 8.54485L21.75 8.57916L21.7501 8.65478C21.7509 8.95488 21.7518 9.2754 21.644 9.57068C21.559 9.80378 21.4254 10.0161 21.252 10.1937C21.0324 10.4185 20.7431 10.5565 20.4722 10.6856L20.404 10.7182L18.6185 11.5753C18.25 11.7522 17.9266 11.9075 17.6554 12.0074C17.3936 12.1038 17.0842 12.1874 16.75 12.1427V16.4288C16.75 18.2431 15.3147 19.7502 13.5 19.7502C11.6853 19.7502 10.25 18.2431 10.25 16.4288C10.25 14.6145 11.6853 13.1074 13.5 13.1074C14.1477 13.1074 14.747 13.2994 15.25 13.6287V10.0002H15.2529C15.25 9.83141 15.25 9.64913 15.25 9.45566L15.25 9.42133L15.2499 9.34571C15.2491 9.04561 15.2482 8.7251 15.356 8.42981C15.441 8.19671 15.5746 7.98435 15.748 7.80683C15.9676 7.58195 16.2569 7.44401 16.5278 7.31485L16.596 7.28225L18.3814 6.42523C18.75 6.2483 19.0734 6.09302 19.3446 5.99311Z" fill="#1C274C"/>
<path fill-rule="evenodd" clip-rule="evenodd" d="M2.25 5.00024C2.25 4.58603 2.58579 4.25024 3 4.25024H15C15.4142 4.25024 15.75 4.58603 15.75 5.00024C15.75 5.41446 15.4142 5.75024 15 5.75024H3C2.58579 5.75024 2.25 5.41446 2.25 5.00024ZM2.25 9.00024C2.25 8.58603 2.58579 8.25024 3 8.25024H13C13.4142 8.25024 13.75 8.58603 13.75 9.00024C13.75 9.41446 13.4142 9.75024 13 9.75024H3C2.58579 9.75024 2.25 9.41446 2.25 9.00024ZM2.25 13.0002C2.25 12.586 2.58579 12.2502 3 12.2502H9C9.41421 12.2502 9.75 12.586 9.75 13.0002C9.75 13.4145 9.41421 13.7502 9 13.7502H3C2.58579 13.7502 2.25 13.4145 2.25 13.0002ZM2.25 17.0002C2.25 16.586 2.58579 16.2502 3 16.2502H8C8.41421 16.2502 8.75 16.586 8.75 17.0002C8.75 17.4145 8.41421 17.7502 8 17.7502H3C2.58579 17.7502 2.25 17.4145 2.25 17.0002Z" fill="#1C274C"/>
</svg>
