<svg width="24" height="24" viewBox="0 0 24 24" fill="none" xmlns="http://www.w3.org/2000/svg">
<path fill-rule="evenodd" clip-rule="evenodd" d="M22 12.0005C22 16.7145 22 19.0716 20.5355 20.536C19.0711 22.0005 16.714 22.0005 12 22.0005C7.866 22.0005 5.54466 22.0005 4.04833 21.0128L21.0123 4.04881C22 5.54515 22 7.86649 22 12.0005ZM18.75 17.0005C18.75 17.4147 18.4142 17.7505 18 17.7505H13C12.5858 17.7505 12.25 17.4147 12.25 17.0005C12.25 16.5863 12.5858 16.2505 13 16.2505H18C18.4142 16.2505 18.75 16.5863 18.75 17.0005Z" fill="#1C274C"/>
<path fill-rule="evenodd" clip-rule="evenodd" d="M12 2.00049C7.28595 2.00049 4.92893 2.00049 3.46447 3.46495C2 4.92942 2 7.28644 2 12.0005C2 16.1345 2 18.4558 2.98767 19.9522L19.9517 2.98815C18.4553 2.00049 16.134 2.00049 12 2.00049ZM8 4.75045C8.41421 4.75045 8.75 5.08623 8.75 5.50045L8.75 7.25047H10.5C10.9142 7.25047 11.25 7.58625 11.25 8.00047C11.25 8.41468 10.9142 8.75047 10.5 8.75047H8.75L8.75 10.5004C8.75 10.9147 8.41421 11.2504 8 11.2504C7.58579 11.2504 7.25 10.9147 7.25 10.5004L7.25 8.75047H5.5C5.08579 8.75047 4.75 8.41468 4.75 8.00047C4.75 7.58625 5.08579 7.25047 5.5 7.25047H7.25V5.50045C7.25 5.08623 7.58579 4.75045 8 4.75045Z" fill="#1C274C"/>
</svg>
