<svg width="24" height="24" viewBox="0 0 24 24" fill="none" xmlns="http://www.w3.org/2000/svg">
<path fill-rule="evenodd" clip-rule="evenodd" d="M16.5249 2.00049H16.5932C17.477 2.00048 18.1897 2.00047 18.7635 2.05503C19.3552 2.11129 19.8707 2.23045 20.3343 2.51454C20.8037 2.80217 21.1983 3.19681 21.486 3.66619C21.77 4.12978 21.8892 4.64531 21.9455 5.23702C22 5.81078 22 6.52353 22 7.40732V7.47566C22 8.05636 22 8.54097 21.9626 8.93458C21.9235 9.34608 21.8386 9.72956 21.623 10.0813C21.4121 10.4255 21.1227 10.7149 20.7785 10.9258C20.4267 11.1414 20.0433 11.2263 19.6318 11.2654C19.2382 11.3028 18.7535 11.3028 18.1728 11.3028L17.0679 11.3028C16.2321 11.3028 15.5352 11.3029 14.9819 11.2285C14.3979 11.15 13.8706 10.9772 13.4469 10.5536C13.0232 10.1299 12.8505 9.6026 12.772 9.01861C12.6976 8.46532 12.6976 7.76838 12.6977 6.93258L12.6977 5.82774C12.6977 5.24703 12.6976 4.76234 12.7351 4.36872C12.7742 3.95722 12.8591 3.57374 13.0746 3.22201C13.2856 2.87779 13.575 2.58839 13.9192 2.37746C14.2709 2.16191 14.6544 2.07702 15.0659 2.03789C15.4595 2.00047 15.9442 2.00048 16.5249 2.00049ZM17.3488 7.81444C16.8694 7.81444 16.6297 7.81444 16.4604 7.69434C16.4007 7.65196 16.3485 7.59981 16.3061 7.54009C16.186 7.37083 16.186 7.1311 16.186 6.65166C16.186 6.17222 16.186 5.93248 16.3061 5.76321C16.3485 5.70349 16.4007 5.65134 16.4604 5.60896C16.6297 5.48886 16.8694 5.48886 17.3488 5.48886C17.8283 5.48886 18.068 5.48886 18.2373 5.60896C18.297 5.65134 18.3491 5.70349 18.3915 5.76321C18.5116 5.93248 18.5116 6.1722 18.5116 6.65165C18.5116 7.1311 18.5116 7.37082 18.3915 7.54009C18.3491 7.59981 18.297 7.65196 18.2373 7.69434C18.068 7.81444 17.8283 7.81444 17.3488 7.81444Z" fill="#1C274C"/>
<path fill-rule="evenodd" clip-rule="evenodd" d="M10.0808 2.37746C9.72907 2.16191 9.34559 2.07702 8.9341 2.03789C8.54047 2.00047 8.05583 2.00048 7.4751 2.00049H7.40684C6.52307 2.00048 5.81029 2.00047 5.23653 2.05503C4.64482 2.11129 4.12929 2.23045 3.6657 2.51454C3.19632 2.80217 2.80168 3.19681 2.51405 3.66619C2.22996 4.12978 2.1108 4.64531 2.05454 5.23702C1.99999 5.81078 1.99999 6.52351 2 7.40728V7.47555C1.99999 8.05628 1.99998 8.54096 2.0374 8.93458C2.07653 9.34608 2.16142 9.72956 2.37697 10.0813C2.5879 10.4255 2.87731 10.7149 3.22152 10.9258C3.57325 11.1414 3.95674 11.2263 4.36823 11.2654C4.76183 11.3028 5.24643 11.3028 5.82711 11.3028L6.93209 11.3028C7.76787 11.3028 8.46484 11.3029 9.01812 11.2285C9.60212 11.15 10.1294 10.9772 10.5531 10.5536C10.9768 10.1299 11.1495 9.6026 11.228 9.01861C11.3024 8.46533 11.3024 7.76839 11.3023 6.93261L11.3023 5.82775C11.3023 5.24707 11.3024 4.76232 11.2649 4.36872C11.2258 3.95722 11.1409 3.57374 10.9254 3.22201C10.7144 2.87779 10.425 2.58839 10.0808 2.37746ZM5.76273 7.69434C5.93199 7.81444 6.17171 7.81444 6.65116 7.81444C7.13061 7.81444 7.37034 7.81444 7.5396 7.69434C7.59933 7.65196 7.65148 7.59981 7.69385 7.54009C7.81395 7.37082 7.81395 7.1311 7.81395 6.65165C7.81395 6.1722 7.81395 5.93248 7.69385 5.76321C7.65148 5.70349 7.59933 5.65134 7.5396 5.60896C7.37034 5.48886 7.13061 5.48886 6.65116 5.48886C6.17171 5.48886 5.93199 5.48886 5.76273 5.60896C5.703 5.65134 5.65085 5.70349 5.60847 5.76321C5.48837 5.93248 5.48837 6.1722 5.48837 6.65165C5.48837 7.1311 5.48837 7.37082 5.60847 7.54009C5.65085 7.59981 5.703 7.65196 5.76273 7.69434Z" fill="#1C274C"/>
<path fill-rule="evenodd" clip-rule="evenodd" d="M9.01812 12.7725C9.60212 12.851 10.1294 13.0237 10.5531 13.4474C10.9768 13.8711 11.1495 14.3984 11.228 14.9824C11.3024 15.5356 11.3024 16.2326 11.3023 17.0684L11.3023 18.1733C11.3023 18.754 11.3024 19.2386 11.2649 19.6323C11.2258 20.0438 11.1409 20.4272 10.9254 20.779C10.7144 21.1232 10.425 21.4126 10.0808 21.6235C9.72907 21.8391 9.34559 21.924 8.9341 21.9631C8.54048 22.0005 8.05577 22.0005 7.47507 22.0005H7.40683C6.52304 22.0005 5.8103 22.0005 5.23653 21.9459C4.64482 21.8897 4.12929 21.7705 3.6657 21.4864C3.19632 21.1988 2.80168 20.8042 2.51405 20.3348C2.22996 19.8712 2.1108 19.3557 2.05454 18.764C1.99999 18.1902 1.99999 17.4774 2 16.5937V16.5254C1.99999 15.9447 1.99998 15.46 2.0374 15.0664C2.07653 14.6549 2.16142 14.2714 2.37697 13.9197C2.5879 13.5755 2.87731 13.2861 3.22152 13.0751C3.57325 12.8596 3.95674 12.7747 4.36823 12.7356C4.76184 12.6981 5.24648 12.6981 5.82717 12.6982L6.93209 12.6982C7.76789 12.6981 8.46484 12.6981 9.01812 12.7725ZM6.65116 18.5121C6.17171 18.5121 5.93199 18.5121 5.76273 18.392C5.703 18.3496 5.65085 18.2975 5.60847 18.2378C5.48837 18.0685 5.48837 17.8288 5.48837 17.3493C5.48837 16.8699 5.48837 16.6302 5.60847 16.4609C5.65085 16.4012 5.703 16.349 5.76273 16.3066C5.93199 16.1865 6.17171 16.1865 6.65115 16.1865C7.13059 16.1865 7.37034 16.1865 7.5396 16.3066C7.59933 16.349 7.65148 16.4012 7.69385 16.4609C7.81395 16.6302 7.81395 16.8699 7.81395 17.3493C7.81395 17.8288 7.81395 18.0685 7.69385 18.2378C7.65148 18.2975 7.59933 18.3496 7.5396 18.392C7.37034 18.5121 7.13061 18.5121 6.65116 18.5121Z" fill="#1C274C"/>
<path d="M12.6977 16.616V16.6516H14.093C14.093 15.9839 14.0939 15.5356 14.1286 15.1938C14.1622 14.8637 14.2216 14.7112 14.289 14.6103C14.3738 14.4833 14.4828 14.3743 14.6098 14.2895C14.7107 14.2221 14.8632 14.1627 15.1933 14.1291C15.5351 14.0944 15.9834 14.0935 16.6512 14.0935H18.5116V12.6982H16.6155C15.9926 12.6981 15.4729 12.6981 15.0521 12.7409C14.6117 12.7857 14.203 12.8831 13.8346 13.1293C13.5553 13.3159 13.3154 13.5558 13.1288 13.8351C12.8827 14.2034 12.7853 14.6122 12.7404 15.0526C12.6976 15.4734 12.6977 15.9931 12.6977 16.616Z" fill="#1C274C"/>
<path d="M22 18.5356V18.5121H20.6046C20.6046 18.9551 20.6043 19.2524 20.5886 19.4826C20.5733 19.7065 20.5459 19.8156 20.5161 19.8873C20.3981 20.1722 20.1718 20.3986 19.8868 20.5166C19.8151 20.5464 19.706 20.5738 19.4821 20.5891C19.2519 20.6048 18.9546 20.6051 18.5116 20.6051H16.6512V22.0005H18.5351C18.9486 22.0005 19.2937 22.0005 19.5771 21.9812C19.8721 21.961 20.1507 21.9177 20.4208 21.8058C21.0476 21.5461 21.5456 21.0481 21.8053 20.4213C21.9172 20.1512 21.9606 19.8725 21.9807 19.5776C22 19.2942 22 18.9491 22 18.5356Z" fill="#1C274C"/>
<path d="M14.093 21.3028C14.093 21.6881 13.7807 22.0005 13.3953 22.0005C13.01 22.0005 12.6977 21.6881 12.6977 21.3028V18.5121H14.093V21.3028Z" fill="#1C274C"/>
<path d="M21.3023 12.6982C20.917 12.6982 20.6046 13.0105 20.6046 13.3958V16.6516H22V13.3958C22 13.0105 21.6876 12.6982 21.3023 12.6982Z" fill="#1C274C"/>
<path d="M16.0761 16.6178C16 16.8016 16 17.0345 16 17.5005C16 17.9664 16 18.1994 16.0761 18.3832C16.1776 18.6282 16.3723 18.8229 16.6173 18.9244C16.8011 19.0005 17.0341 19.0005 17.5 19.0005C17.9659 19.0005 18.1989 19.0005 18.3827 18.9244C18.6277 18.8229 18.8224 18.6282 18.9239 18.3832C19 18.1994 19 17.9664 19 17.5005C19 17.0345 19 16.8016 18.9239 16.6178C18.8224 16.3728 18.6277 16.1781 18.3827 16.0766C18.1989 16.0005 17.9659 16.0005 17.5 16.0005C17.0341 16.0005 16.8011 16.0005 16.6173 16.0766C16.3723 16.1781 16.1776 16.3728 16.0761 16.6178Z" fill="#1C274C"/>
</svg>
