<svg width="24" height="24" viewBox="0 0 24 24" fill="none" xmlns="http://www.w3.org/2000/svg">
<path fill-rule="evenodd" clip-rule="evenodd" d="M22 12.0002C22 17.5231 17.5228 22.0002 12 22.0002C6.47715 22.0002 2 17.5231 2 12.0002C2 6.4774 6.47715 2.00024 12 2.00024C17.5228 2.00024 22 6.4774 22 12.0002ZM13.3584 6.93057C12.604 6.72842 11.8458 6.7014 11.1255 6.82363C10.7171 6.89292 10.3299 6.61803 10.2606 6.20965C10.1913 5.80128 10.4662 5.41405 10.8745 5.34476C11.8033 5.18718 12.7796 5.22257 13.7466 5.48168C17.3467 6.44633 19.4832 10.1468 18.5186 13.7469C17.5539 17.347 13.8535 19.4835 10.2534 18.5188C6.65325 17.5542 4.51679 13.8537 5.48144 10.2536C5.67232 9.54123 5.97096 8.88485 6.35561 8.29819C6.80849 7.60748 7.71251 7.56516 8.27405 8.01966L12.4718 11.4173C12.7938 11.6779 12.8436 12.1501 12.583 12.4721C12.3224 12.7941 11.8501 12.8438 11.5282 12.5832L7.48915 9.31413C7.2486 9.71865 7.0586 10.1631 6.93033 10.6418C6.1801 13.4417 7.84168 16.3197 10.6416 17.0699C13.4415 17.8201 16.3194 16.1586 17.0697 13.3587C17.8199 10.5588 16.1583 7.6808 13.3584 6.93057Z" fill="#1C274C"/>
</svg>
