<svg width="24" height="24" viewBox="0 0 24 24" fill="none" xmlns="http://www.w3.org/2000/svg">
<path d="M14.25 12.0001C14.25 11.0336 15.0335 10.2501 16 10.2501C16.9665 10.2501 17.75 11.0336 17.75 12.0001C17.75 12.9666 16.9665 13.7501 16 13.7501C15.0335 13.7501 14.25 12.9666 14.25 12.0001Z" fill="#1C274C"/>
<path d="M8 13.7501C8.9665 13.7501 9.75 12.9666 9.75 12.0001C9.75 11.0336 8.9665 10.2501 8 10.2501C7.0335 10.2501 6.25 11.0336 6.25 12.0001C6.25 12.9666 7.0335 13.7501 8 13.7501Z" fill="#1C274C"/>
<path fill-rule="evenodd" clip-rule="evenodd" d="M3.46447 3.46459C2 4.92905 2 7.28608 2 12.0001C2 16.7142 2 19.0712 3.46447 20.5357C4.92893 22.0001 7.28595 22.0001 12 22.0001C16.714 22.0001 19.0711 22.0001 20.5355 20.5357C22 19.0712 22 16.7142 22 12.0001C22 7.28608 22 4.92905 20.5355 3.46459C19.0711 2.00012 16.714 2.00012 12 2.00012C7.28595 2.00012 4.92893 2.00012 3.46447 3.46459ZM13.2609 13.7501C12.9375 13.245 12.75 12.6444 12.75 12.0001C12.75 10.2052 14.2051 8.75012 16 8.75012C17.7949 8.75012 19.25 10.2052 19.25 12.0001C19.25 13.795 17.7949 15.2501 16 15.2501H8C6.20507 15.2501 4.75 13.795 4.75 12.0001C4.75 10.2052 6.20507 8.75012 8 8.75012C9.79493 8.75012 11.25 10.2052 11.25 12.0001C11.25 12.6444 11.0625 13.245 10.7391 13.7501H13.2609Z" fill="#1C274C"/>
</svg>
