<svg width="24" height="24" viewBox="0 0 24 24" fill="none" xmlns="http://www.w3.org/2000/svg">
<path d="M14.25 12.0001C14.25 11.0336 15.0335 10.2501 16 10.2501C16.9665 10.2501 17.75 11.0336 17.75 12.0001C17.75 12.9666 16.9665 13.7501 16 13.7501C15.0335 13.7501 14.25 12.9666 14.25 12.0001Z" fill="#1C274C"/>
<path d="M8 13.7501C8.9665 13.7501 9.75 12.9666 9.75 12.0001C9.75 11.0336 8.9665 10.2501 8 10.2501C7.0335 10.2501 6.25 11.0336 6.25 12.0001C6.25 12.9666 7.0335 13.7501 8 13.7501Z" fill="#1C274C"/>
<path fill-rule="evenodd" clip-rule="evenodd" d="M12 22.0001C17.5228 22.0001 22 17.523 22 12.0001C22 6.47727 17.5228 2.00012 12 2.00012C6.47715 2.00012 2 6.47727 2 12.0001C2 17.523 6.47715 22.0001 12 22.0001ZM13.2609 13.7501C12.9375 13.245 12.75 12.6444 12.75 12.0001C12.75 10.2052 14.2051 8.75012 16 8.75012C17.7949 8.75012 19.25 10.2052 19.25 12.0001C19.25 13.795 17.7949 15.2501 16 15.2501H8C6.20507 15.2501 4.75 13.795 4.75 12.0001C4.75 10.2052 6.20507 8.75012 8 8.75012C9.79493 8.75012 11.25 10.2052 11.25 12.0001C11.25 12.6444 11.0625 13.245 10.7391 13.7501H13.2609Z" fill="#1C274C"/>
</svg>
