<svg width="24" height="24" viewBox="0 0 24 24" fill="none" xmlns="http://www.w3.org/2000/svg">
<path d="M13.1567 17.0126L17.0125 13.1568C18.4666 11.7027 19.1936 10.9757 19.1936 10.0722C19.1936 9.46691 18.8673 8.94079 18.2145 8.22213C17.893 7.86816 17.4924 7.46747 17.0125 6.98761C16.5326 6.50776 16.1319 6.10706 15.778 5.78556C15.0593 5.13282 14.5332 4.80646 13.9279 4.80646C13.0244 4.80646 12.2974 5.53351 10.8433 6.98761L6.98749 10.8434C5.53339 12.2975 4.80634 13.0245 4.80634 13.928C4.80634 14.5333 5.1327 15.0594 5.78544 15.7781C6.10693 16.1321 6.50764 16.5328 6.98749 17.0126C7.46735 17.4925 7.86804 17.8932 8.22201 18.2147C8.94067 18.8674 9.46679 19.1938 10.0721 19.1938C10.9756 19.1938 11.7026 18.4667 13.1567 17.0126Z" fill="#1C274C"/>
<path d="M21.0658 2.56221C21.1072 2.59958 21.1561 2.64848 21.2539 2.74627C21.3515 2.84391 21.4006 2.89299 21.4379 2.93437C22.2812 3.86861 22.161 5.3207 21.1756 6.1036C21.132 6.13829 21.0757 6.17848 20.9631 6.25887L19.4427 7.3449C19.4034 7.30055 19.3641 7.25674 19.3247 7.21344C18.9788 6.83263 18.5568 6.41055 18.0935 5.94733L18.0526 5.90636C17.5893 5.44309 17.1671 5.02092 16.7863 4.67501C16.7431 4.6358 16.6995 4.59655 16.6552 4.5574L17.7413 3.03698C17.8215 2.92458 17.8619 2.86815 17.8965 2.8245C18.6794 1.83911 20.1315 1.71893 21.0658 2.56221Z" fill="#1C274C"/>
<path d="M4.55727 16.6554C4.59643 16.6996 4.63568 16.7433 4.67489 16.7864C5.0208 17.1673 5.44296 17.5894 5.90624 18.0527L5.94714 18.0936C6.41037 18.5568 6.83251 18.979 7.21332 19.3248C7.25662 19.3642 7.30043 19.4035 7.34478 19.4428L6.25875 20.9633C6.17836 21.0758 6.13817 21.1321 6.10347 21.1757C5.32058 22.1611 3.86848 22.2813 2.93424 21.438C2.89287 21.4007 2.84388 21.3517 2.74624 21.2541C2.64845 21.1563 2.59946 21.1073 2.56209 21.0659C1.71881 20.1316 1.83899 18.6795 2.82438 17.8966C2.86803 17.862 2.92445 17.8217 3.03686 17.7414L4.55727 16.6554Z" fill="#1C274C"/>
</svg>
