<svg width="24" height="24" viewBox="0 0 24 24" fill="none" xmlns="http://www.w3.org/2000/svg">
<path fill-rule="evenodd" clip-rule="evenodd" d="M22 12.0002C22 6.4774 17.5228 2.00024 12 2.00024C6.47715 2.00024 2 6.4774 2 12.0002C2 17.5231 6.47715 22.0002 12 22.0002C17.5228 22.0002 22 17.5231 22 12.0002ZM8.46967 11.5306C8.17678 11.2377 8.17678 10.7628 8.46967 10.4699L11.4697 7.46991C11.7626 7.17702 12.2374 7.17702 12.5303 7.46991L15.5303 10.4699C15.8232 10.7628 15.8232 11.2377 15.5303 11.5306C15.2374 11.8235 14.7626 11.8235 14.4697 11.5306L12.75 9.8109V16.0002C12.75 16.4145 12.4142 16.7502 12 16.7502C11.5858 16.7502 11.25 16.4145 11.25 16.0002V9.8109L9.53033 11.5306C9.23744 11.8235 8.76256 11.8235 8.46967 11.5306Z" fill="#1C274C"/>
</svg>
