<svg width="24" height="24" viewBox="0 0 24 24" fill="none" xmlns="http://www.w3.org/2000/svg">
<path fill-rule="evenodd" clip-rule="evenodd" d="M6.14214 6.14238C8.90356 3.38096 10.2843 2.00024 12 2.00024C13.7157 2.00024 15.0964 3.38096 17.8579 6.14238C20.6193 8.9038 22 10.2845 22 12.0002C22 13.716 20.6193 15.0967 17.8579 17.8581C15.0964 20.6195 13.7157 22.0002 12 22.0002C10.2843 22.0002 8.90356 20.6195 6.14214 17.8581C3.38071 15.0967 2 13.716 2 12.0002C2 10.2845 3.38071 8.9038 6.14214 6.14238ZM13.8463 8.45309C13.5441 8.16979 13.0695 8.1851 12.7862 8.48729C12.5029 8.78947 12.5182 9.2641 12.8204 9.5474L14.1034 10.7502H10.6667C10.1116 10.7502 9.28861 10.9006 8.5804 11.3786C7.83208 11.8837 7.25 12.7348 7.25 14.0002C7.25 14.4145 7.58579 14.7502 8 14.7502C8.41421 14.7502 8.75 14.4145 8.75 14.0002C8.75 13.2657 9.05681 12.8668 9.41961 12.6219C9.8225 12.3499 10.3329 12.2502 10.6667 12.2502H14.1034L12.8204 13.4531C12.5182 13.7364 12.5029 14.211 12.7862 14.5132C13.0695 14.8154 13.5441 14.8307 13.8463 14.5474L16.513 12.0474C16.6642 11.9056 16.75 11.7076 16.75 11.5002C16.75 11.2929 16.6642 11.0949 16.513 10.9531L13.8463 8.45309Z" fill="#1C274C"/>
</svg>
