<svg width="24" height="24" viewBox="0 0 24 24" fill="none" xmlns="http://www.w3.org/2000/svg">
<path d="M21 4.50049C21 5.8812 19.8807 7.00049 18.5 7.00049C17.1193 7.00049 16 5.8812 16 4.50049C16 3.11978 17.1193 2.00049 18.5 2.00049C19.8807 2.00049 21 3.11978 21 4.50049Z" fill="#1C274C"/>
<path fill-rule="evenodd" clip-rule="evenodd" d="M8.97231 5.81061C9.87486 5.41242 10.8988 5.38991 11.818 5.74803C14.3856 6.74842 15.0063 10.0993 12.9673 11.9529L11.9272 12.8984C11.8873 12.9347 11.8756 12.9454 11.868 12.9526C11.3146 13.4764 11.3545 14.3692 11.9525 14.8415C11.9608 14.848 11.9735 14.8577 12.0164 14.8902L12.0198 14.8927C12.0784 14.9371 12.1124 14.9629 12.1449 14.9881C14.0177 16.4383 15.1245 18.6653 15.1496 21.0339C15.15 21.0749 15.15 21.1175 15.15 21.1907V22.0005C15.15 22.4147 14.8142 22.7505 14.4 22.7505C13.9858 22.7505 13.65 22.4147 13.65 22.0005V21.1954C13.65 21.116 13.65 21.0818 13.6497 21.0497C13.6295 19.1396 12.7369 17.3436 11.2265 16.1741C11.2012 16.1544 11.1739 16.1337 11.1106 16.0858L11.1042 16.0809C11.0707 16.0556 11.0447 16.0359 11.0229 16.0187C9.70732 14.9797 9.61938 13.0156 10.8368 11.8632C10.8571 11.8441 10.8811 11.8222 10.9125 11.7938L11.9583 10.843C13.1733 9.73848 12.8034 7.7418 11.2734 7.14569C10.7257 6.9323 10.1156 6.94572 9.57777 7.18298L9.05608 7.41314C8.51083 7.65369 8.25902 7.76497 8.0142 7.8865C7.6014 8.09139 7.2005 8.31942 6.8134 8.5695C6.58381 8.71781 6.35946 8.87737 5.87402 9.22306L4.43505 10.2478C4.09765 10.4881 3.62935 10.4093 3.38908 10.0719C3.1488 9.7345 3.22754 9.2662 3.56495 9.02593L5.02092 7.98909C5.48513 7.65852 5.73806 7.47841 5.99945 7.30954C6.43395 7.02885 6.88394 6.7729 7.34729 6.54291C7.62603 6.40455 7.91012 6.27922 8.43151 6.04919L8.97231 5.81061ZM15.2724 11.8186C15.3729 11.4167 15.7801 11.1724 16.1819 11.2729C17.3756 11.5713 18.6244 11.5713 19.8181 11.2729C20.2199 11.1724 20.6271 11.4167 20.7276 11.8186C20.8281 12.2204 20.5837 12.6276 20.1819 12.7281C18.7493 13.0862 17.2507 13.0862 15.8181 12.7281C15.4163 12.6276 15.1719 12.2204 15.2724 11.8186ZM9.48014 16.4243C9.79835 16.6895 9.84134 17.1624 9.57617 17.4806L9.31681 17.7919C7.75456 19.6666 5.44032 20.7505 3 20.7505C2.58579 20.7505 2.25 20.4147 2.25 20.0005C2.25 19.5863 2.58579 19.2505 3 19.2505C4.99515 19.2505 6.88722 18.3643 8.16448 16.8316L8.42383 16.5204C8.68901 16.2021 9.16193 16.1591 9.48014 16.4243Z" fill="#1C274C"/>
</svg>
