<svg width="24" height="24" viewBox="0 0 24 24" fill="none" xmlns="http://www.w3.org/2000/svg">
<path d="M20.75 4.50049C20.75 5.8812 19.6307 7.00049 18.25 7.00049C16.8693 7.00049 15.75 5.8812 15.75 4.50049C15.75 3.11978 16.8693 2.00049 18.25 2.00049C19.6307 2.00049 20.75 3.11978 20.75 4.50049Z" fill="#1C274C"/>
<path fill-rule="evenodd" clip-rule="evenodd" d="M13.4366 6.66181L13.4421 6.66408C14.6265 7.15162 15.6111 8.04554 16.1889 9.20125C16.8169 10.4572 18.1005 11.2505 19.5046 11.2505H20.75C21.1642 11.2505 21.5 11.5863 21.5 12.0005C21.5 12.4147 21.1642 12.7505 20.75 12.7505H19.5046C17.5323 12.7505 15.7293 11.6361 14.8473 9.87207C14.4364 9.05036 13.7311 8.40516 12.8711 8.05117C11.5075 7.48986 11.0748 7.33147 10.2511 7.39136C9.10849 7.47445 8.05813 8.05165 5.55619 9.4732L4.12051 10.2889C3.76037 10.4936 3.30253 10.3675 3.09791 10.0073C2.89328 9.6472 3.01935 9.18937 3.37949 8.98475L4.81517 8.16902C4.87315 8.13608 4.93054 8.10346 4.98736 8.07116C7.26106 6.77882 8.62084 6.00595 10.1424 5.89531C11.3595 5.8068 12.096 6.11001 13.4366 6.66181ZM13.3046 10.4961C13.5833 10.8026 13.5607 11.277 13.2542 11.5556C13.0746 11.7189 12.8955 11.8783 12.7203 12.0343C12.4396 12.2842 12.1689 12.5252 11.9223 12.7587C11.7268 12.9437 11.5672 13.105 11.4508 13.2391C11.3568 13.3474 11.3189 13.4069 11.3077 13.4245C11.3032 13.4315 11.303 13.4318 11.3052 13.4258C11.1878 13.7425 11.2035 14.0932 11.3487 14.3981C11.3911 14.4871 11.4785 14.6089 11.712 14.8168C11.9497 15.0284 12.28 15.2792 12.7674 15.6485C12.7925 15.6676 12.8173 15.6863 12.8417 15.7048C13.4028 16.1296 13.7908 16.4233 14.0862 16.7951C14.4141 17.208 14.6514 17.6853 14.7824 18.196C14.9004 18.656 14.9002 19.1426 14.9 19.8463C14.9 19.877 14.9 19.908 14.9 19.9395V22.0005C14.9 22.4147 14.5642 22.7505 14.15 22.7505C13.7358 22.7505 13.4 22.4147 13.4 22.0005V19.9395C13.4 19.1069 13.3945 18.8223 13.3294 18.5687C13.2508 18.2623 13.1085 17.9759 12.9117 17.7282C12.7489 17.5233 12.5253 17.347 11.8617 16.8442L11.8375 16.8259C11.3803 16.4795 11.0021 16.193 10.7147 15.9372C10.418 15.6731 10.1617 15.3941 9.99458 15.0432C9.67501 14.3725 9.64047 13.6009 9.89881 12.9043C9.99123 12.6551 10.1693 12.4272 10.3178 12.256C10.4814 12.0675 10.6818 11.8674 10.8912 11.6693C11.1504 11.4239 11.4563 11.1513 11.7524 10.8875C11.9236 10.735 12.0915 10.5854 12.2452 10.4457C12.5517 10.167 13.026 10.1896 13.3046 10.4961ZM9.23014 16.4243C9.54835 16.6895 9.59134 17.1624 9.32617 17.4806L8.3254 18.6815C8.2928 18.7207 8.26067 18.7593 8.22895 18.7974C7.58688 19.569 7.11555 20.1355 6.45757 20.4437C5.79959 20.7518 5.0627 20.7513 4.05888 20.7506C4.00928 20.7505 3.95904 20.7505 3.90813 20.7505H2.75C2.33579 20.7505 2 20.4147 2 20.0005C2 19.5863 2.33579 19.2505 2.75 19.2505H3.90813C5.12975 19.2505 5.50396 19.2339 5.82133 19.0853C6.1387 18.9366 6.391 18.6598 7.17306 17.7213L8.17383 16.5203C8.43901 16.2021 8.91193 16.1591 9.23014 16.4243Z" fill="#1C274C"/>
</svg>
