<svg width="24" height="24" viewBox="0 0 24 24" fill="none" xmlns="http://www.w3.org/2000/svg">
<path d="M20.75 4.50049C20.75 5.8812 19.6307 7.00049 18.25 7.00049C16.8693 7.00049 15.75 5.8812 15.75 4.50049C15.75 3.11978 16.8693 2.00049 18.25 2.00049C19.6307 2.00049 20.75 3.11978 20.75 4.50049Z" fill="#1C274C"/>
<path fill-rule="evenodd" clip-rule="evenodd" d="M9.80218 5.93112C10.0117 5.90219 10.2599 5.87585 10.523 5.88751C10.603 5.89106 10.6938 5.89755 10.7962 5.90817C13.1789 6.15549 14.9468 7.94372 16.1242 9.70982L16.1866 9.8033C16.7893 10.7074 17.8041 11.2505 18.8907 11.2505H20.75C21.1642 11.2505 21.5 11.5863 21.5 12.0005C21.5 12.4147 21.1642 12.7505 20.75 12.7505H18.8907C17.3025 12.7505 15.8195 11.9568 14.9385 10.6354L14.8762 10.5419C14.6037 10.1332 14.311 9.74517 13.9989 9.38993L12.1149 11.7446C11.6875 12.2788 11.4008 12.6384 11.2076 12.9339C11.0204 13.2201 10.967 13.3796 10.9528 13.5008C10.9293 13.7008 10.9546 13.9035 11.0263 14.0916C11.0698 14.2056 11.1607 14.3472 11.4123 14.5788C11.6721 14.8178 12.0382 15.0962 12.5835 15.5093C12.6157 15.5337 12.6475 15.5578 12.6789 15.5816C13.3998 16.1272 13.8989 16.505 14.2444 17.0099C14.4408 17.2969 14.5963 17.6098 14.7065 17.9396C14.9002 18.5198 14.9 19.1459 14.8996 20.05C14.8996 20.0893 14.8996 20.1292 14.8996 20.1696V22.0003C14.8996 22.4145 14.5638 22.7503 14.1496 22.7503C13.7354 22.7503 13.3996 22.4145 13.3996 22.0003V20.1696C13.3996 19.0991 13.3905 18.7346 13.2837 18.4148C13.2176 18.2169 13.1243 18.0292 13.0065 17.857C12.8161 17.5787 12.531 17.3514 11.6777 16.7049L11.6488 16.6831C11.1398 16.2974 10.7155 15.976 10.3965 15.6824C10.0635 15.3759 9.7855 15.0476 9.62475 14.6261C9.46691 14.2121 9.4114 13.7662 9.46296 13.3262C9.51547 12.8781 9.70447 12.4917 9.95221 12.1129C10.1895 11.7501 10.522 11.3344 10.9211 10.8357L12.9047 8.35647C12.2175 7.83372 11.4608 7.48522 10.6414 7.40016C10.5672 7.39246 10.5059 7.38823 10.4565 7.38604C10.3286 7.38037 10.1855 7.39243 10.0074 7.41702C8.94204 7.56413 7.87451 8.15597 5.55619 9.4732L4.12051 10.2889C3.76037 10.4936 3.30253 10.3675 3.09791 10.0073C2.89328 9.6472 3.01935 9.18937 3.37949 8.98474L4.81517 8.16902C4.86639 8.13992 4.91715 8.11107 4.96746 8.08247C7.08653 6.87813 8.416 6.12254 9.80218 5.93112ZM9.23014 16.4243C9.54835 16.6895 9.59134 17.1624 9.32617 17.4806L8.3254 18.6815C8.2928 18.7207 8.26067 18.7593 8.22895 18.7974C7.58688 19.569 7.11555 20.1355 6.45757 20.4437C5.79959 20.7518 5.0627 20.7513 4.05888 20.7506C4.00928 20.7505 3.95904 20.7505 3.90813 20.7505H2.75C2.33579 20.7505 2 20.4147 2 20.0005C2 19.5863 2.33579 19.2505 2.75 19.2505H3.90813C5.12975 19.2505 5.50396 19.2339 5.82133 19.0853C6.1387 18.9366 6.391 18.6598 7.17306 17.7213L8.17383 16.5204C8.43901 16.2021 8.91193 16.1591 9.23014 16.4243Z" fill="#1C274C"/>
</svg>
