<svg width="24" height="24" viewBox="0 0 24 24" fill="none" xmlns="http://www.w3.org/2000/svg">
<path d="M6.50041 4.00037H14.0004C17.7716 4.00037 19.6573 4.00037 20.8288 5.17194C22.0004 6.34351 22.0004 8.22913 22.0004 12.0004C22.0004 15.7716 22.0004 17.6572 20.8288 18.8288C19.7295 19.9281 17.1211 19.9959 13.688 20.0001C13.3083 20.0006 13.0004 19.6926 13.0004 19.3129C13.0004 13.6174 8.38335 9.00037 2.68791 9.00037C2.30822 9.00037 1.99946 8.69253 2.00197 8.31284C2.00401 8.00318 2.00874 7.7193 2.01967 7.6083C2.20672 5.70919 3.70923 4.20667 5.60834 4.01963C5.8039 4.00037 6.03607 4.00037 6.50041 4.00037Z" fill="#1C274C"/>
<path d="M2 10.2504C1.58579 10.2504 1.25 10.5862 1.25 11.0004C1.25 11.4146 1.58579 11.7504 2 11.7504C6.55635 11.7504 10.25 15.444 10.25 20.0004C10.25 20.4146 10.5858 20.7504 11 20.7504C11.4142 20.7504 11.75 20.4146 11.75 20.0004C11.75 14.6156 7.38478 10.2504 2 10.2504Z" fill="#1C274C"/>
<path d="M2 13.2504C1.58579 13.2504 1.25 13.5862 1.25 14.0004C1.25 14.4146 1.58579 14.7504 2 14.7504C4.8995 14.7504 7.25 17.1009 7.25 20.0004C7.25 20.4146 7.58579 20.7504 8 20.7504C8.41421 20.7504 8.75 20.4146 8.75 20.0004C8.75 16.2724 5.72792 13.2504 2 13.2504Z" fill="#1C274C"/>
<path d="M2 16.2504C1.58579 16.2504 1.25 16.5862 1.25 17.0004C1.25 17.4146 1.58579 17.7504 2 17.7504C3.24264 17.7504 4.25 18.7577 4.25 20.0004C4.25 20.4146 4.58579 20.7504 5 20.7504C5.41421 20.7504 5.75 20.4146 5.75 20.0004C5.75 17.9293 4.07107 16.2504 2 16.2504Z" fill="#1C274C"/>
</svg>
