<svg width="24" height="24" viewBox="0 0 24 24" fill="none" xmlns="http://www.w3.org/2000/svg">
<path fill-rule="evenodd" clip-rule="evenodd" d="M22 18.2106C22 17.84 21.6876 17.5396 21.3023 17.5396H13.7252C13.5364 17.091 13.164 16.7328 12.6977 16.5513V13.737H18.5116C20.0529 13.737 21.3023 12.5352 21.3023 11.0528C21.3023 9.5703 20.0529 8.36854 18.5116 8.36854C20.0529 8.36854 21.3023 7.16678 21.3023 5.68433C21.3023 4.20188 20.0529 3.00012 18.5116 3.00012H5.48837C3.94711 3.00012 2.69767 4.20188 2.69767 5.68433C2.69767 7.16678 3.94711 8.36854 5.48837 8.36854C3.94711 8.36854 2.69767 9.5703 2.69767 11.0528C2.69767 12.5352 3.94711 13.737 5.48837 13.737H11.3023V16.5513C10.836 16.7328 10.4636 17.091 10.2748 17.5396H2.69767C2.31236 17.5396 2 17.84 2 18.2106C2 18.5813 2.31236 18.8817 2.69767 18.8817H10.2748C10.5508 19.5375 11.2192 20.0001 12 20.0001C12.7808 20.0001 13.4492 19.5375 13.7252 18.8817H21.3023C21.6876 18.8817 22 18.5813 22 18.2106ZM12.2326 5.68433C12.2326 5.31372 12.5449 5.01328 12.9302 5.01328H18.5116C18.8969 5.01328 19.2093 5.31372 19.2093 5.68433C19.2093 6.05494 18.8969 6.35539 18.5116 6.35539H12.9302C12.5449 6.35539 12.2326 6.05494 12.2326 5.68433ZM12.2326 11.0528C12.2326 10.6821 12.5449 10.3817 12.9302 10.3817H18.5116C18.8969 10.3817 19.2093 10.6821 19.2093 11.0528C19.2093 11.4234 18.8969 11.7238 18.5116 11.7238H12.9302C12.5449 11.7238 12.2326 11.4234 12.2326 11.0528ZM6.4186 6.57907C6.93236 6.57907 7.34884 6.17848 7.34884 5.68433C7.34884 5.19018 6.93236 4.7896 6.4186 4.7896C5.90485 4.7896 5.48837 5.19018 5.48837 5.68433C5.48837 6.17848 5.90485 6.57907 6.4186 6.57907ZM6.4186 11.9475C6.93236 11.9475 7.34884 11.5469 7.34884 11.0528C7.34884 10.5586 6.93236 10.158 6.4186 10.158C5.90485 10.158 5.48837 10.5586 5.48837 11.0528C5.48837 11.5469 5.90485 11.9475 6.4186 11.9475Z" fill="#1C274C"/>
</svg>
