<svg width="24" height="24" viewBox="0 0 24 24" fill="none" xmlns="http://www.w3.org/2000/svg">
<path fill-rule="evenodd" clip-rule="evenodd" d="M3.17157 19.8285C4.34315 21.0001 6.22876 21.0001 10 21.0001H13.9292C13.6543 20.5273 13.5 19.9793 13.5 19.4119C13.5 18.5959 13.8191 17.82 14.3571 17.2501H13.5C13.0858 17.2501 12.75 16.9143 12.75 16.5001C12.75 16.0859 13.0858 15.7501 13.5 15.7501H15.4282C15.9395 14.4602 17.1549 13.5001 18.6667 13.5001C20.2273 13.5001 21.4762 14.5284 21.955 15.8806L21.9694 15.8906C22 15.0728 22 14.1196 22 13.0001V12.7501H2V13.0001C2 16.7714 2 18.657 3.17157 19.8285ZM6 18.2501C5.58579 18.2501 5.25 17.9143 5.25 17.5001L5.25 15.5001C5.25 15.0859 5.58579 14.7501 6 14.7501C6.41421 14.7501 6.75 15.0859 6.75 15.5001V17.5001C6.75 17.9143 6.41421 18.2501 6 18.2501ZM9 18.2501C8.58579 18.2501 8.25 17.9143 8.25 17.5001V15.5001C8.25 15.0859 8.58579 14.7501 9 14.7501C9.41421 14.7501 9.75 15.0859 9.75 15.5001V17.5001C9.75 17.9143 9.41421 18.2501 9 18.2501Z" fill="#1C274C"/>
<path fill-rule="evenodd" clip-rule="evenodd" d="M3.17157 4.17169C2 5.34327 2 7.22889 2 11.0001V11.2501H22V11.0001C22 7.22889 22 5.34327 20.8284 4.17169C19.6569 3.00012 17.7712 3.00012 14 3.00012H10C6.22876 3.00012 4.34315 3.00012 3.17157 4.17169ZM9 9.25012C8.58579 9.25012 8.25 8.91434 8.25 8.50012V6.50012C8.25 6.08591 8.58579 5.75012 9 5.75012C9.41421 5.75012 9.75 6.08591 9.75 6.50012V8.50012C9.75 8.91434 9.41421 9.25012 9 9.25012ZM5.25 8.50012C5.25 8.91434 5.58579 9.25012 6 9.25012C6.41421 9.25012 6.75 8.91434 6.75 8.50012V6.50012C6.75 6.08591 6.41421 5.75012 6 5.75012C5.58579 5.75012 5.25 6.08591 5.25 6.50012L5.25 8.50012ZM12.75 7.50012C12.75 7.08591 13.0858 6.75012 13.5 6.75012H18C18.4142 6.75012 18.75 7.08591 18.75 7.50012C18.75 7.91434 18.4142 8.25012 18 8.25012H13.5C13.0858 8.25012 12.75 7.91434 12.75 7.50012Z" fill="#1C274C"/>
<path fill-rule="evenodd" clip-rule="evenodd" d="M20.6543 16.8807C20.543 15.8228 19.6956 15.0001 18.6667 15.0001C17.8216 15.0001 17.0989 15.5551 16.806 16.3396C16.7161 16.5805 16.6667 16.843 16.6667 17.1178C16.6667 17.3764 16.7105 17.6243 16.7907 17.8534C16.6966 17.8339 16.5994 17.8237 16.5 17.8237C16.0601 17.8237 15.6644 18.0241 15.3901 18.3435C15.1477 18.6256 15 19.0005 15 19.4119C15 20.289 15.6716 21.0001 16.5 21.0001H20C21.1046 21.0001 22 20.052 22 18.8825C22 17.9555 21.4375 17.1677 20.6543 16.8807Z" fill="#1C274C"/>
<path d="M20.6543 16.8807C20.543 15.8228 19.6956 15.0001 18.6667 15.0001C17.8216 15.0001 17.0989 15.5551 16.806 16.3396C16.7161 16.5805 16.6667 16.843 16.6667 17.1178C16.6667 17.3764 16.7105 17.6243 16.7907 17.8534C16.6966 17.8339 16.5994 17.8237 16.5 17.8237C16.0601 17.8237 15.6644 18.0241 15.3901 18.3435C15.1477 18.6256 15 19.0005 15 19.4119C15 20.289 15.6716 21.0001 16.5 21.0001H20C21.1046 21.0001 22 20.052 22 18.8825C22 17.9555 21.4375 17.1677 20.6543 16.8807Z" fill="#1C274C"/>
</svg>
