<svg width="24" height="24" viewBox="0 0 24 24" fill="none" xmlns="http://www.w3.org/2000/svg">
<path fill-rule="evenodd" clip-rule="evenodd" d="M3.37752 5.0829C3 5.62077 3 7.21956 3 10.4171V11.9918C3 17.6299 7.23896 20.366 9.89856 21.5278C10.62 21.8429 10.9807 22.0005 12 22.0005C13.0193 22.0005 13.38 21.8429 14.1014 21.5278C16.761 20.366 21 17.6299 21 11.9918V10.4171C21 7.21956 21 5.62077 20.6225 5.0829C20.245 4.54503 18.7417 4.03045 15.7351 3.00128L15.1623 2.80521C13.595 2.26873 12.8114 2.00049 12 2.00049C11.1886 2.00049 10.405 2.26873 8.83772 2.8052L8.26491 3.00128C5.25832 4.03045 3.75503 4.54503 3.37752 5.0829ZM10.0303 8.97014C9.73744 8.67724 9.26256 8.67724 8.96967 8.97014C8.67678 9.26303 8.67678 9.73791 8.96967 10.0308L10.9394 12.0005L8.96969 13.9701C8.6768 14.263 8.6768 14.7379 8.96969 15.0308C9.26258 15.3237 9.73746 15.3237 10.0304 15.0308L12 13.0611L13.9696 15.0308C14.2625 15.3237 14.7374 15.3237 15.0303 15.0308C15.3232 14.7379 15.3232 14.263 15.0303 13.9701L13.0607 12.0005L15.0303 10.0308C15.3232 9.73793 15.3232 9.26305 15.0303 8.97016C14.7374 8.67727 14.2626 8.67727 13.9697 8.97016L12 10.9398L10.0303 8.97014Z" fill="#1C274C"/>
</svg>
