<svg width="24" height="24" viewBox="0 0 24 24" fill="none" xmlns="http://www.w3.org/2000/svg">
<path d="M11.25 2.07397C10.6437 2.18707 9.93159 2.43084 8.83772 2.80527L8.26491 3.00135C5.25832 4.03051 3.75503 4.5451 3.37752 5.08297C3.00825 5.60909 3.00018 7.1503 3 10.21L11.25 7.45999V2.07397Z" fill="#1C274C"/>
<path d="M11.25 9.04113L3 11.7911V11.9919C3 17.63 7.23896 20.366 9.89856 21.5278C10.4093 21.7509 10.7392 21.8951 11.25 21.9602V9.04113Z" fill="#1C274C"/>
<path d="M12.75 21.9602V9.04113L21 11.7911V11.9919C21 17.63 16.761 20.366 14.1014 21.5278C13.5907 21.7509 13.2608 21.8951 12.75 21.9602Z" fill="#1C274C"/>
<path d="M12.75 7.45999V2.07397C13.3563 2.18707 14.0684 2.43084 15.1623 2.80527L15.7351 3.00135C18.7417 4.03051 20.245 4.5451 20.6225 5.08297C20.9918 5.60909 20.9998 7.1503 21 10.21L12.75 7.45999Z" fill="#1C274C"/>
</svg>
