<svg width="24" height="24" viewBox="0 0 24 24" fill="none" xmlns="http://www.w3.org/2000/svg">
<path d="M11.9438 7.76811C11.9785 7.75083 11.9956 7.75049 12 7.75049C12.0044 7.75049 12.0215 7.75083 12.0562 7.76811C12.0936 7.78667 12.1518 7.82539 12.2259 7.90208C12.3786 8.06022 12.5539 8.33357 12.7179 8.7435C12.8795 9.14762 13.0143 9.64477 13.1078 10.2097C13.1631 10.5432 13.2027 10.8926 13.2259 11.2505H10.7741C10.7973 10.8926 10.8369 10.5432 10.8922 10.2097C10.9857 9.64477 11.1205 9.14762 11.2821 8.7435C11.4461 8.33357 11.6214 8.06022 11.7741 7.90208C11.8482 7.82539 11.9064 7.78667 11.9438 7.76811Z" fill="#1C274C"/>
<path d="M9.27133 11.2505C9.29642 10.8115 9.34356 10.3795 9.41233 9.96448C9.5089 9.38161 9.64788 8.83359 9.82738 8.34779C9.52472 8.52781 9.24492 8.74516 8.9948 8.99528C8.60015 9.38993 8.28709 9.85845 8.07351 10.3741C7.9564 10.6568 7.87045 10.9507 7.8167 11.2505H9.27133Z" fill="#1C274C"/>
<path d="M7.8167 12.7505H9.27133C9.29642 13.1895 9.34356 13.6215 9.41233 14.0365C9.5089 14.6194 9.64788 15.1674 9.82738 15.6532C9.52472 15.4732 9.24492 15.2558 8.9948 15.0057C8.60015 14.611 8.28709 14.1425 8.07351 13.6269C7.9564 13.3442 7.87045 13.0503 7.8167 12.7505Z" fill="#1C274C"/>
<path d="M16.1833 11.2505C16.1296 10.9507 16.0436 10.6568 15.9265 10.3741C15.7129 9.85845 15.3999 9.38993 15.0052 8.99529C14.7551 8.74516 14.4753 8.52781 14.1726 8.34778C14.3521 8.83359 14.4911 9.38161 14.5877 9.96448C14.6564 10.3795 14.7036 10.8115 14.7287 11.2505H16.1833Z" fill="#1C274C"/>
<path d="M14.7287 12.7505H16.1833C16.1296 13.0503 16.0436 13.3442 15.9265 13.6269C15.7129 14.1425 15.3999 14.611 15.0052 15.0057C14.7551 15.2558 14.4753 15.4732 14.1726 15.6532C14.3521 15.1674 14.4911 14.6194 14.5877 14.0365C14.6564 13.6215 14.7036 13.1895 14.7287 12.7505Z" fill="#1C274C"/>
<path d="M13.2259 12.7505C13.2027 13.1084 13.1631 13.4578 13.1078 13.7913C13.0143 14.3562 12.8795 14.8534 12.7179 15.2575C12.5539 15.6674 12.3786 15.9408 12.2259 16.0989C12.1518 16.1756 12.0936 16.2143 12.0562 16.2329C12.0215 16.2501 12.0044 16.2505 12 16.2505C11.9956 16.2505 11.9785 16.2501 11.9438 16.2329C11.9064 16.2143 11.8482 16.1756 11.7741 16.0989C11.6214 15.9408 11.4461 15.6674 11.2821 15.2575C11.1205 14.8534 10.9857 14.3562 10.8922 13.7913C10.8369 13.4578 10.7973 13.1084 10.7741 12.7505H13.2259Z" fill="#1C274C"/>
<path fill-rule="evenodd" clip-rule="evenodd" d="M3.37752 5.0829C3 5.62077 3 7.21956 3 10.4171V11.9918C3 17.6299 7.23896 20.366 9.89856 21.5278C10.62 21.8429 10.9807 22.0005 12 22.0005C13.0193 22.0005 13.38 21.8429 14.1014 21.5278C16.761 20.366 21 17.6299 21 11.9918V10.4171C21 7.21956 21 5.62077 20.6225 5.0829C20.245 4.54503 18.7417 4.03045 15.7351 3.00128L15.1623 2.80521C13.595 2.26873 12.8114 2.00049 12 2.00049C11.1886 2.00049 10.405 2.26873 8.83772 2.8052L8.26491 3.00128C5.25832 4.03045 3.75503 4.54503 3.37752 5.0829ZM6.25 12.0005C6.25 11.2454 6.39873 10.4977 6.68769 9.80006C6.97666 9.10244 7.4002 8.46856 7.93414 7.93462C8.46807 7.40069 9.10195 6.97715 9.79957 6.68818C10.4972 6.39922 11.2449 6.25049 12 6.25049C12.7551 6.25049 13.5028 6.39922 14.2004 6.68818C14.8981 6.97715 15.5319 7.40069 16.0659 7.93462C16.5998 8.46856 17.0233 9.10244 17.3123 9.80006C17.6013 10.4977 17.75 11.2454 17.75 12.0005C17.75 12.7556 17.6013 13.5033 17.3123 14.2009C17.0233 14.8985 16.5998 15.5324 16.0659 16.0664C15.5319 16.6003 14.8981 17.0238 14.2004 17.3128C13.5028 17.6018 12.7551 17.7505 12 17.7505C11.2449 17.7505 10.4972 17.6018 9.79957 17.3128C9.10195 17.0238 8.46807 16.6003 7.93414 16.0664C7.4002 15.5324 6.97666 14.8985 6.68769 14.2009C6.39873 13.5033 6.25 12.7556 6.25 12.0005Z" fill="#1C274C"/>
</svg>
