<svg width="24" height="24" viewBox="0 0 24 24" fill="none" xmlns="http://www.w3.org/2000/svg">
<path d="M10.8753 8.55261C11.3146 8.29897 11.8017 8.21056 12.2684 8.26713C12.9489 8.34961 13.5804 8.73905 13.9481 9.37598C14.3159 10.0129 14.3374 10.7545 14.0686 11.3851C13.8842 11.8175 13.5641 12.1952 13.1248 12.4489C12.0488 13.07 10.6731 12.7014 10.0519 11.6255C9.43069 10.5496 9.79933 9.17379 10.8753 8.55261Z" fill="#1C274C"/>
<path fill-rule="evenodd" clip-rule="evenodd" d="M3.37752 5.0829C3 5.62077 3 7.21956 3 10.4171V11.9918C3 17.6299 7.23896 20.366 9.89856 21.5278C10.62 21.8429 10.9807 22.0005 12 22.0005C13.0193 22.0005 13.38 21.8429 14.1014 21.5278C16.761 20.366 21 17.6299 21 11.9918V10.4171C21 7.21956 21 5.62077 20.6225 5.0829C20.245 4.54503 18.7417 4.03045 15.7351 3.00128L15.1623 2.80521C13.595 2.26873 12.8114 2.00049 12 2.00049C11.1886 2.00049 10.405 2.26873 8.83772 2.8052L8.26491 3.00128C5.25832 4.03045 3.75503 4.54503 3.37752 5.0829ZM12.4489 6.77803C11.6708 6.68371 10.8555 6.83196 10.1253 7.25357C8.33189 8.28897 7.71744 10.5821 8.75284 12.3755C9.31127 13.3427 10.2356 13.967 11.25 14.1745V16.5007C11.25 16.9149 11.5858 17.2507 12 17.2507C12.4142 17.2507 12.75 16.9149 12.75 16.5007V14.1755C13.1356 14.0967 13.5152 13.9555 13.8748 13.7479C14.605 13.3263 15.141 12.6944 15.4484 11.9733C15.8943 10.9275 15.8608 9.68876 15.2472 8.62598C14.6336 7.56321 13.5776 6.91483 12.4489 6.77803Z" fill="#1C274C"/>
</svg>
