<svg width="24" height="24" viewBox="0 0 24 24" fill="none" xmlns="http://www.w3.org/2000/svg">
<path fill-rule="evenodd" clip-rule="evenodd" d="M4 21.2505H2C1.58579 21.2505 1.25 21.5863 1.25 22.0005C1.25 22.4147 1.58579 22.7505 2 22.7505H22C22.4142 22.7505 22.75 22.4147 22.75 22.0005C22.75 21.5863 22.4142 21.2505 22 21.2505H20V16.0005C20 13.2002 20 11.8001 19.455 10.7305C18.9757 9.78973 18.2108 9.02482 17.27 8.54546C16.2004 8.00049 14.8003 8.00049 12 8.00049C9.19974 8.00049 7.79961 8.00049 6.73005 8.54546C5.78924 9.02482 5.02433 9.78973 4.54497 10.7305C4 11.8001 4 13.2002 4 16.0005V21.2505ZM13.5 17.5005C13.5 18.0557 13.1984 18.5405 12.75 18.7998V21.2505H11.25V18.7998C10.8016 18.5405 10.5 18.0557 10.5 17.5005C10.5 16.6721 11.1716 16.0005 12 16.0005C12.8284 16.0005 13.5 16.6721 13.5 17.5005ZM15 10.0654C14.5858 10.0654 14.25 10.4012 14.25 10.8154C14.25 11.2296 14.5858 11.5654 15 11.5654C15.842 11.5654 16.4637 12.2038 16.4356 12.9731C16.4205 13.3871 16.7438 13.7349 17.1577 13.75C17.5717 13.7651 17.9195 13.4418 17.9346 13.0279C17.9963 11.3372 16.618 10.0654 15 10.0654Z" fill="#1C274C"/>
<path d="M12 1.25049C12.4142 1.25049 12.75 1.58627 12.75 2.00049V5.00049C12.75 5.4147 12.4142 5.75049 12 5.75049C11.5858 5.75049 11.25 5.4147 11.25 5.00049V2.00049C11.25 1.58627 11.5858 1.25049 12 1.25049Z" fill="#1C274C"/>
<path d="M21.5303 5.53082L20.0303 7.03082C19.7374 7.32371 19.2626 7.32371 18.9697 7.03082C18.6768 6.73793 18.6768 6.26305 18.9697 5.97016L20.4697 4.47016C20.7626 4.17726 21.2374 4.17726 21.5303 4.47016C21.8232 4.76305 21.8232 5.23793 21.5303 5.53082Z" fill="#1C274C"/>
<path d="M3.53033 4.47016C3.23744 4.17726 2.76256 4.17726 2.46967 4.47016C2.17678 4.76305 2.17678 5.23793 2.46967 5.53082L3.96967 7.03082C4.26256 7.32371 4.73744 7.32371 5.03033 7.03082C5.32322 6.73793 5.32322 6.26305 5.03033 5.97016L3.53033 4.47016Z" fill="#1C274C"/>
</svg>
