<svg width="24" height="24" viewBox="0 0 24 24" fill="none" xmlns="http://www.w3.org/2000/svg">
<path fill-rule="evenodd" clip-rule="evenodd" d="M3.46447 3.46483C2 4.9293 2 7.28632 2 12.0004C2 16.7144 2 19.0714 3.46447 20.5359C4.92893 22.0004 7.28595 22.0004 12 22.0004C16.714 22.0004 19.0711 22.0004 20.5355 20.5359C22 19.0714 22 16.7144 22 12.0004C22 7.28632 22 4.9293 20.5355 3.46483C19.0711 2.00037 16.714 2.00037 12 2.00037C7.28595 2.00037 4.92893 2.00037 3.46447 3.46483ZM14.0184 7.36487C14.1257 6.96477 13.8882 6.55352 13.4881 6.44631C13.088 6.33911 12.6768 6.57654 12.5696 6.97664L9.98137 16.6359C9.87416 17.036 10.1116 17.4473 10.5117 17.5545C10.9118 17.6617 11.323 17.4242 11.4303 17.0241L14.0184 7.36487Z" fill="#1C274C"/>
</svg>
