<svg width="24" height="24" viewBox="0 0 24 24" fill="none" xmlns="http://www.w3.org/2000/svg">
<path d="M12 6.50012C10.7574 6.50012 9.75 7.50748 9.75 8.75012C9.75 9.99276 10.7574 11.0001 12 11.0001C13.2426 11.0001 14.25 9.99276 14.25 8.75012C14.25 7.50748 13.2426 6.50012 12 6.50012Z" fill="#1C274C"/>
<path fill-rule="evenodd" clip-rule="evenodd" d="M18.5209 19.3317C16.7701 20.839 14.4915 21.7501 12 21.7501C9.50853 21.7501 7.22987 20.839 5.47906 19.3317L2.53033 22.2805C2.23744 22.5733 1.76256 22.5733 1.46967 22.2805C1.17678 21.9876 1.17678 21.5127 1.46967 21.2198L4.4184 18.2711C2.91114 16.5202 2 14.2416 2 11.7501C2 6.22727 6.47715 1.75012 12 1.75012C17.5228 1.75012 22 6.22727 22 11.7501C22 14.2416 21.0889 16.5202 19.5816 18.2711L22.5303 21.2198C22.8232 21.5127 22.8232 21.9876 22.5303 22.2805C22.2374 22.5733 21.7626 22.5733 21.4697 22.2805L18.5209 19.3317ZM8.25 8.75012C8.25 6.67905 9.92893 5.00012 12 5.00012C14.0711 5.00012 15.75 6.67905 15.75 8.75012C15.75 10.8212 14.0711 12.5001 12 12.5001C9.92893 12.5001 8.25 10.8212 8.25 8.75012ZM12.75 15.7501C12.75 15.3359 12.4142 15.0001 12 15.0001C11.5858 15.0001 11.25 15.3359 11.25 15.7501V17.7501C11.25 18.1643 11.5858 18.5001 12 18.5001C12.4142 18.5001 12.75 18.1643 12.75 17.7501V15.7501Z" fill="#1C274C"/>
</svg>
