<svg width="24" height="24" viewBox="0 0 24 24" fill="none" xmlns="http://www.w3.org/2000/svg">
<path fill-rule="evenodd" clip-rule="evenodd" d="M12.0516 2.00012H11.9484C10.2682 2.00011 8.93732 2.0001 7.89575 2.14257C6.82382 2.2892 5.95621 2.59815 5.27199 3.2943C4.58778 3.99045 4.28413 4.8732 4.14001 5.96382C3.99997 7.02355 3.99999 8.37763 4 10.0872V13.9131C3.99999 15.6226 3.99997 16.9767 4.14001 18.0364C4.28413 19.127 4.58778 20.0098 5.27199 20.7059C5.95621 21.4021 6.82382 21.711 7.89575 21.8577C8.93731 22.0001 10.2682 22.0001 11.9484 22.0001H12.0516C13.7318 22.0001 15.0627 22.0001 16.1043 21.8577C17.1762 21.711 18.0438 21.4021 18.728 20.7059C19.4122 20.0098 19.7159 19.127 19.86 18.0364C20 16.9767 20 15.6226 20 13.9131V10.0872C20 8.37766 20 7.02355 19.86 5.96382C19.7159 4.8732 19.4122 3.99045 18.728 3.2943C18.0438 2.59815 17.1762 2.2892 16.1043 2.14257C15.0627 2.0001 13.7318 2.00011 12.0516 2.00012ZM8.57143 18.5118C8.57143 18.1264 8.87843 17.8141 9.25714 17.8141H14.7429C15.1216 17.8141 15.4286 18.1264 15.4286 18.5118C15.4286 18.8971 15.1216 19.2094 14.7429 19.2094H9.25714C8.87843 19.2094 8.57143 18.8971 8.57143 18.5118Z" fill="#1C274C"/>
</svg>
