<svg width="24" height="24" viewBox="0 0 24 24" fill="none" xmlns="http://www.w3.org/2000/svg">
<path fill-rule="evenodd" clip-rule="evenodd" d="M7.23936 2.46152C5.15124 2.85188 3.56225 4.55379 3.32102 6.6583L3.30532 6.79528C2.89823 10.3468 2.89823 13.933 3.30532 17.4845C3.55266 19.6424 5.24868 21.3513 7.41019 21.6207L8.42569 21.7473C8.92051 21.8089 9.16792 21.8398 9.41505 21.8656C11.1335 22.045 12.866 22.045 14.5845 21.8656C14.8316 21.8398 15.079 21.8089 15.5738 21.7473L16.48 21.6343C18.7041 21.3571 20.4473 19.5952 20.6948 17.374L20.712 17.22C21.1072 13.673 21.0957 10.0926 20.6774 6.54821C20.4367 4.50777 18.8934 2.86032 16.8681 2.48169L16.5451 2.42132C13.541 1.85972 10.4585 1.85972 7.4544 2.42132L7.23936 2.46152ZM6.42501 5.51858C6.69096 5.20102 7.16399 5.15918 7.48154 5.42513C8.05871 5.9085 9.67617 6.75012 12 6.75012C14.3238 6.75012 15.9413 5.9085 16.5185 5.42513C16.836 5.15918 17.309 5.20102 17.575 5.51858C17.8409 5.83614 17.7991 6.30916 17.4815 6.57511C16.6196 7.297 14.6562 8.25012 12 8.25012C9.34383 8.25012 7.38043 7.297 6.51845 6.57511C6.2009 6.30916 6.15906 5.83614 6.42501 5.51858Z" fill="#1C274C"/>
</svg>
