<svg width="24" height="24" viewBox="0 0 24 24" fill="none" xmlns="http://www.w3.org/2000/svg">
<path fill-rule="evenodd" clip-rule="evenodd" d="M2.79575 5.04491C3.12955 2.79849 4.92351 1.00012 7.1994 1.00012C8.56185 1.00012 9.76608 1.65646 10.5728 2.66036C10.8354 2.98708 10.7827 3.46429 10.4552 3.72624C10.1278 3.98818 9.64943 3.93567 9.38688 3.60894C8.83757 2.92536 8.05316 2.5166 7.1994 2.5166C5.85593 2.5166 4.6458 3.55873 4.33621 5.05013C4.48619 5.06913 4.63199 5.13285 4.75214 5.24227C5.06216 5.52457 5.0841 6.00416 4.80115 6.31347L4.06125 7.12225C3.91725 7.27966 3.71351 7.36934 3.4999 7.36934C3.2863 7.36934 3.08256 7.27966 2.93856 7.12225L2.19866 6.31347C1.9157 6.00416 1.93764 5.52457 2.24766 5.24227C2.40297 5.10085 2.6011 5.03577 2.79575 5.04491ZM11.1401 4.23528C11.3537 4.23528 11.5574 4.32496 11.7014 4.48237L12.4413 5.29115C12.7243 5.60046 12.7024 6.08005 12.3923 6.36235C12.237 6.50377 12.0389 6.56885 11.8443 6.55971C11.5105 8.80614 9.7165 10.6045 7.44061 10.6045C6.17342 10.6045 5.04151 10.0362 4.2407 9.14805C3.95998 8.83673 3.98538 8.3573 4.29743 8.07723C4.60948 7.79716 5.09001 7.8225 5.37073 8.13383C5.91177 8.73385 6.64527 9.08802 7.44061 9.08802C8.78408 9.08802 9.99421 8.04589 10.3038 6.55449C10.1538 6.53549 10.008 6.47177 9.88787 6.36235C9.57784 6.08005 9.5559 5.60046 9.83886 5.29116L10.5788 4.48237C10.7228 4.32496 10.9265 4.23528 11.1401 4.23528Z" fill="#1C274C"/>
<path fill-rule="evenodd" clip-rule="evenodd" d="M21 11.8683V15.9122C21 19.7249 21 21.6312 19.8128 22.8157C18.6256 24.0001 16.7149 24.0001 12.8933 24.0001C9.07182 24.0001 7.16106 24.0001 5.97386 22.8157C4.78667 21.6312 4.78667 19.7249 4.78667 15.9122V14.18C4.78667 13.9115 4.78667 13.7773 4.81208 13.6662C4.89869 13.2876 5.19503 12.992 5.57452 12.9056C5.68583 12.8802 5.82055 12.8802 6.09 12.8802C7.70361 12.8802 8.51042 12.8802 9.17709 12.7287C11.4561 12.2107 13.2357 10.4353 13.7548 8.16158C13.9067 7.49645 13.9067 6.69244 13.9067 5.08443C13.9067 4.81768 13.9067 4.68431 13.9326 4.57208C14.0204 4.19264 14.3301 3.88988 14.7121 3.80999C14.8251 3.78637 14.9546 3.78899 15.2135 3.79422C17.5447 3.84137 18.895 4.04915 19.8128 4.96483C21 6.14927 21 8.05561 21 11.8683ZM9.85334 20.2089C9.4336 20.2089 9.09334 20.5483 9.09334 20.9671C9.09334 21.3859 9.4336 21.7254 9.85334 21.7254H15.9333C16.3531 21.7254 16.6933 21.3859 16.6933 20.9671C16.6933 20.5483 16.3531 20.2089 15.9333 20.2089H9.85334Z" fill="#1C274C"/>
</svg>
