<svg width="24" height="24" viewBox="0 0 24 24" fill="none" xmlns="http://www.w3.org/2000/svg">
<path d="M11.4922 3.21974C13.0968 2.77346 14.5867 2.6621 15.6848 2.8146C16.2354 2.89106 16.6494 3.02855 16.9257 3.1913C17.1969 3.35102 17.2917 3.50585 17.3219 3.62293C17.3529 3.74287 17.3447 3.93446 17.1819 4.22224C17.0174 4.51295 16.7209 4.85052 16.2792 5.20387C15.3979 5.90889 14.0516 6.58622 12.4475 7.03237C10.843 7.47865 9.35305 7.59001 8.25488 7.43751C7.70434 7.36106 7.29032 7.22356 7.014 7.06082C6.74281 6.90109 6.648 6.74627 6.61777 6.62918C6.58681 6.50924 6.59498 6.31765 6.75783 6.02987C6.92233 5.73917 7.2188 5.40159 7.66052 5.04824C8.54184 4.34322 9.88813 3.66589 11.4922 3.21974Z" fill="#1C274C"/>
<path d="M18.2103 5.37954C17.9424 5.73265 17.6022 6.06644 17.2162 6.3752C16.1432 7.23353 14.6023 7.98998 12.8494 8.47751C11.097 8.96492 9.39589 9.11035 8.04855 8.92325C7.37633 8.8299 6.75398 8.6485 6.25277 8.35331C6.06018 8.23988 5.87953 8.10563 5.72093 7.94931L5.33284 12.3336L5.77764 12.7803C6.14621 13.1504 7.6062 14.2505 11.9997 14.2505C16.5085 14.2505 17.9278 13.0923 18.2498 12.7514L18.7202 12.2534L18.2103 5.37954Z" fill="#1C274C"/>
<path d="M5.15426 14.3511L5.16572 14.2217C6.13919 14.9301 8.1088 15.7505 11.9997 15.7505C15.9332 15.7505 17.9031 14.9118 18.8646 14.1991L18.8825 14.4406C19.0377 17.1796 19.1153 18.5491 18.6162 19.5883C18.2472 20.3566 17.6678 20.9945 16.9506 21.4219C15.9804 22.0001 14.6588 22.0001 12.0156 22.0001C9.34227 22.0001 8.00563 22.0001 7.02989 21.4131C6.3088 20.9794 5.72853 20.3325 5.36308 19.555C4.86856 18.5029 4.9638 17.119 5.15426 14.3511Z" fill="#1C274C"/>
</svg>
