<svg width="24" height="24" viewBox="0 0 24 24" fill="none" xmlns="http://www.w3.org/2000/svg">
<path fill-rule="evenodd" clip-rule="evenodd" d="M5.87884 2.8788C5.00016 3.75748 5.00016 5.17169 5.00016 8.00012V16.0001C5.00016 18.8285 5.00016 20.2428 5.87884 21.1214C6.75752 22.0001 8.17174 22.0001 11.0002 22.0001H13.0002C15.8286 22.0001 17.2428 22.0001 18.1215 21.1214C19.0002 20.2428 19.0002 18.8285 19.0002 16.0001V8.00012C19.0002 5.17169 19.0002 3.75748 18.1215 2.8788C17.2428 2.00012 15.8286 2.00012 13.0002 2.00012H11.0002C8.17174 2.00012 6.75752 2.00012 5.87884 2.8788ZM9.50016 18.2501C9.08595 18.2501 8.75016 18.5859 8.75016 19.0001C8.75016 19.4143 9.08595 19.7501 9.50016 19.7501H14.5002C14.9144 19.7501 15.2502 19.4143 15.2502 19.0001C15.2502 18.5859 14.9144 18.2501 14.5002 18.2501H9.50016Z" fill="#1C274C"/>
<path fill-rule="evenodd" clip-rule="evenodd" d="M1.66475 5.3293C2.03524 5.14406 2.48574 5.29423 2.67098 5.66471L3.44738 7.2175C3.69371 7.71017 3.69371 8.29007 3.44738 8.78275L2.89459 9.88832C2.8594 9.9587 2.8594 10.0415 2.89459 10.1119L3.44738 11.2175C3.69371 11.7102 3.69371 12.2901 3.44738 12.7827L2.89459 13.8883C2.8594 13.9587 2.8594 14.0415 2.89459 14.1119L3.44738 15.2175C3.69371 15.7102 3.69371 16.2901 3.44738 16.7827L2.67098 18.3355C2.48574 18.706 2.03524 18.8562 1.66475 18.6709C1.29427 18.4857 1.1441 18.0352 1.32934 17.6647L2.10574 16.1119C2.14093 16.0415 2.14093 15.9587 2.10574 15.8883L1.55295 14.7827C1.30661 14.2901 1.30661 13.7102 1.55295 13.2175L2.10574 12.1119C2.14093 12.0415 2.14093 11.9587 2.10574 11.8883L1.55295 10.7827C1.30661 10.2901 1.30661 9.71017 1.55295 9.2175L2.10574 8.11193C2.14093 8.04154 2.14093 7.9587 2.10574 7.88832L1.32934 6.33553C1.1441 5.96505 1.29427 5.51454 1.66475 5.3293ZM22.3356 5.3293C22.7061 5.51454 22.8562 5.96505 22.671 6.33553L21.8946 7.88832C21.8594 7.9587 21.8594 8.04154 21.8946 8.11193L22.4474 9.2175C22.6937 9.71017 22.6937 10.2901 22.4474 10.7827L21.8946 11.8883C21.8594 11.9587 21.8594 12.0415 21.8946 12.1119L22.4474 13.2175C22.6937 13.7102 22.6937 14.2901 22.4474 14.7827L21.8946 15.8883C21.8594 15.9587 21.8594 16.0415 21.8946 16.1119L22.671 17.6647C22.8562 18.0352 22.7061 18.4857 22.3356 18.6709C21.9651 18.8562 21.5146 18.706 21.3293 18.3355L20.5529 16.7827C20.3066 16.2901 20.3066 15.7102 20.5529 15.2175L21.1057 14.1119C21.1409 14.0415 21.1409 13.9587 21.1057 13.8883L20.5529 12.7827C20.3066 12.2901 20.3066 11.7102 20.5529 11.2175L21.1057 10.1119C21.1409 10.0415 21.1409 9.9587 21.1057 9.88832L20.5529 8.78275C20.3066 8.29007 20.3066 7.71017 20.5529 7.2175L21.3293 5.66471C21.5146 5.29423 21.9651 5.14406 22.3356 5.3293Z" fill="#1C274C"/>
</svg>
