<svg width="24" height="24" viewBox="0 0 24 24" fill="none" xmlns="http://www.w3.org/2000/svg">
<path fill-rule="evenodd" clip-rule="evenodd" d="M2.25 7.00024C2.25 6.58603 2.58579 6.25024 3 6.25024H13C13.4142 6.25024 13.75 6.58603 13.75 7.00024C13.75 7.41446 13.4142 7.75024 13 7.75024H3C2.58579 7.75024 2.25 7.41446 2.25 7.00024ZM16.5 6.25024C16.7951 6.25024 17.0628 6.42333 17.1839 6.69247L21.6839 16.6925C21.8539 17.0702 21.6855 17.5142 21.3078 17.6842C20.93 17.8542 20.486 17.6857 20.3161 17.308L18.8787 14.1139H14.1213L12.6839 17.308C12.514 17.6857 12.07 17.8542 11.6922 17.6842C11.3145 17.5142 11.1461 17.0702 11.3161 16.6925L15.8161 6.69247C15.9372 6.42333 16.2049 6.25024 16.5 6.25024ZM14.7963 12.6139H18.2037L16.5 8.82789L14.7963 12.6139ZM2.25 12.0002C2.25 11.586 2.58579 11.2502 3 11.2502H10C10.4142 11.2502 10.75 11.586 10.75 12.0002C10.75 12.4145 10.4142 12.7502 10 12.7502H3C2.58579 12.7502 2.25 12.4145 2.25 12.0002ZM2.25 17.0002C2.25 16.586 2.58579 16.2502 3 16.2502H8C8.41421 16.2502 8.75 16.586 8.75 17.0002C8.75 17.4145 8.41421 17.7502 8 17.7502H3C2.58579 17.7502 2.25 17.4145 2.25 17.0002Z" fill="#1C274C"/>
</svg>
