<svg width="24" height="24" viewBox="0 0 24 24" fill="none" xmlns="http://www.w3.org/2000/svg">
<path d="M12 6.25012C11.3096 6.25012 10.75 6.80977 10.75 7.50012C10.75 8.19048 11.3096 8.75012 12 8.75012C12.6904 8.75012 13.25 8.19048 13.25 7.50012C13.25 6.80977 12.6904 6.25012 12 6.25012Z" fill="#1C274C"/>
<path d="M9.75 15.5001C9.75 14.2575 10.7574 13.2501 12 13.2501C13.2426 13.2501 14.25 14.2575 14.25 15.5001C14.25 16.7428 13.2426 17.7501 12 17.7501C10.7574 17.7501 9.75 16.7428 9.75 15.5001Z" fill="#1C274C"/>
<path fill-rule="evenodd" clip-rule="evenodd" d="M4 10.0001C4 6.22889 4 4.34327 5.17157 3.17169C6.34315 2.00012 8.22876 2.00012 12 2.00012C15.7712 2.00012 17.6569 2.00012 18.8284 3.17169C20 4.34327 20 6.22889 20 10.0001V14.0001C20 17.7714 20 19.657 18.8284 20.8285C17.6569 22.0001 15.7712 22.0001 12 22.0001C8.22876 22.0001 6.34315 22.0001 5.17157 20.8285C4 19.657 4 17.7714 4 14.0001V10.0001ZM9.25 7.50012C9.25 5.98134 10.4812 4.75012 12 4.75012C13.5188 4.75012 14.75 5.98134 14.75 7.50012C14.75 9.01891 13.5188 10.2501 12 10.2501C10.4812 10.2501 9.25 9.01891 9.25 7.50012ZM12 11.7501C9.92893 11.7501 8.25 13.4291 8.25 15.5001C8.25 17.5712 9.92893 19.2501 12 19.2501C14.0711 19.2501 15.75 17.5712 15.75 15.5001C15.75 13.4291 14.0711 11.7501 12 11.7501Z" fill="#1C274C"/>
</svg>
