<svg width="24" height="24" viewBox="0 0 24 24" fill="none" xmlns="http://www.w3.org/2000/svg">
<path fill-rule="evenodd" clip-rule="evenodd" d="M12.7521 3.97574C12.7521 4.39052 12.4154 4.72678 12 4.72678C11.5846 4.72678 11.2479 4.39052 11.2479 3.97574V2.00049C9.04427 2.16365 7.03884 3.03799 5.46094 4.3945L7.01653 5.94792C7.31023 6.24122 7.31023 6.71676 7.01653 7.01006C6.72282 7.30335 6.24663 7.30335 5.95292 7.01006L4.39733 5.45663C3.03895 7.03234 2.16339 9.03499 2 11.2356H3.97778C4.39314 11.2356 4.72986 11.5718 4.72986 11.9866C4.72986 12.4014 4.39314 12.7377 3.97778 12.7377H2C2.16339 14.9382 3.03895 16.9409 4.39733 18.5166L5.95292 16.9632C6.24663 16.6699 6.72282 16.6699 7.01653 16.9632C7.31023 17.2565 7.31023 17.732 7.01653 18.0253L5.46094 19.5787C7.21662 21.0881 9.50161 22.0005 12 22.0005C14.4984 22.0005 16.7834 21.0881 18.5391 19.5787L16.9835 18.0253C16.6898 17.732 16.6898 17.2565 16.9835 16.9632C17.2772 16.6699 17.7534 16.6699 18.0471 16.9632L19.6027 18.5166C20.9611 16.9409 21.8366 14.9382 22 12.7377H20.022C19.6066 12.7377 19.2699 12.4014 19.2699 11.9866C19.2699 11.5718 19.6066 11.2356 20.022 11.2356H22C21.8366 9.03499 20.9611 7.03234 19.6027 5.45663L18.0471 7.01006C17.7534 7.30335 17.2772 7.30335 16.9835 7.01006C16.6898 6.71676 16.6898 6.24122 16.9835 5.94792L18.5391 4.3945C16.9612 3.03799 14.9557 2.16365 12.7521 2.00049V3.97574ZM10.1149 10.1046C8.94008 11.2778 8.94008 13.1799 10.1149 14.3531C10.5618 14.7994 11.4895 15.1111 12.4675 15.326C13.9301 15.6473 14.6614 15.808 15.2438 15.2264C15.8262 14.6448 15.6653 13.9145 15.3435 12.454C15.1283 11.4773 14.8162 10.5509 14.3693 10.1046C13.1945 8.9314 11.2897 8.9314 10.1149 10.1046Z" fill="#1C274C"/>
</svg>
