<svg width="24" height="24" viewBox="0 0 24 24" fill="none" xmlns="http://www.w3.org/2000/svg">
<path d="M20.5355 20.5358C22 19.0713 22 16.7143 22 12.0002C22 11.3987 22 10.8356 21.997 10.3078C21.5862 10.7105 21.0949 11.1362 20.5683 11.5925L18.0794 13.7496C17.7752 14.0135 17.4343 14.3093 17.1257 14.5073C16.8241 14.7008 16.0564 15.1296 15.1692 14.7244C14.2819 14.3193 14.1032 13.4583 14.0519 13.1037C14.0008 12.75 13.9997 12.3121 13.9999 11.9172C12.6707 12.1478 11.4038 12.6709 10.4734 13.3981L10.4235 13.4371C10.0553 13.725 9.70248 14.0009 9.41851 14.1854C9.27461 14.2789 9.05476 14.4122 8.79732 14.4991C8.5621 14.5785 7.97989 14.7244 7.3799 14.3725C6.83887 14.0553 6.65163 13.5506 6.58718 13.2663C6.52494 12.9918 6.53037 12.7332 6.53913 12.5704C6.55605 12.2559 6.61832 11.8539 6.67926 11.4604L6.68911 11.3967C7.16402 8.32573 8.50112 6.23046 10.2382 4.92345C11.4376 4.02098 12.763 3.54239 13.9999 3.33797L13.9999 3.1135C13.9997 2.7503 13.9995 2.34754 14.0379 2.00579C13.4122 2.00024 12.7347 2.00024 12 2.00024C7.28595 2.00024 4.92893 2.00024 3.46447 3.46471C2 4.92918 2 7.2862 2 12.0002C2 16.7143 2 19.0713 3.46447 20.5358C4.92893 22.0002 7.28595 22.0002 12 22.0002C16.714 22.0002 19.0711 22.0002 20.5355 20.5358Z" fill="#1C274C"/>
<path d="M17.1549 2.4344L19.5121 4.47737C21.1348 5.8837 21.9462 6.58687 21.9462 7.50012C21.9462 8.41338 21.1348 9.11655 19.5121 10.5229L17.1549 12.5658C16.4413 13.1842 16.0846 13.4934 15.7922 13.36C15.4999 13.2265 15.4999 12.7544 15.4999 11.8102V10.2858C13.3755 10.2858 11.1257 10.9843 9.54957 12.2164C8.72623 12.8599 8.31457 13.1817 8.13869 13.0786C7.96281 12.9755 8.03237 12.5256 8.17149 11.626C9.0161 6.16425 12.8002 4.71441 15.4999 4.71441V3.19008C15.4999 2.24587 15.4999 1.77376 15.7922 1.64028C16.0846 1.5068 16.4413 1.816 17.1549 2.4344Z" fill="#1C274C"/>
</svg>
