<svg width="24" height="24" viewBox="0 0 24 24" fill="none" xmlns="http://www.w3.org/2000/svg">
<path d="M14.2172 3.50014C12.7962 2.83394 11.2037 2.83394 9.78272 3.50014L3.0916 6.63708C2.0156 7.14153 1.73507 8.56401 2.25 9.54715L2.25 14.5005C2.25 14.9147 2.58579 15.2505 3 15.2505C3.41421 15.2505 3.75 14.9147 3.75 14.5005V10.6725L9.78281 13.5008C11.2038 14.167 12.7963 14.167 14.2173 13.5008L20.9084 10.3639C22.3639 9.68154 22.3639 7.31948 20.9084 6.63713L14.2172 3.50014Z" fill="#1C274C"/>
<path d="M5 12.9152V16.6259C5 17.6339 5.5035 18.5777 6.38533 19.0661C7.8537 19.8792 10.204 21.0005 12 21.0005C13.796 21.0005 16.1463 19.8792 17.6147 19.0661C18.4965 18.5777 19 17.6339 19 16.6259V12.9153L14.854 14.859C13.0296 15.7143 10.9705 15.7143 9.14607 14.859L5 12.9152Z" fill="#1C274C"/>
</svg>
