<svg width="24" height="24" viewBox="0 0 24 24" fill="none" xmlns="http://www.w3.org/2000/svg">
<path d="M10.5766 8.70455C11.2099 7.56843 11.5266 7.00037 12 7.00037C12.4734 7.00037 12.7901 7.56843 13.4234 8.70455L13.5873 8.99848C13.7672 9.32133 13.8572 9.48276 13.9975 9.58927C14.1378 9.69578 14.3126 9.73532 14.6621 9.81439L14.9802 9.88638C16.2101 10.1646 16.825 10.3038 16.9713 10.7742C17.1176 11.2447 16.6984 11.7349 15.86 12.7153L15.643 12.969C15.4048 13.2476 15.2857 13.3869 15.2321 13.5592C15.1785 13.7316 15.1965 13.9174 15.2325 14.2891L15.2653 14.6276C15.3921 15.9357 15.4554 16.5897 15.0724 16.8805C14.6894 17.1712 14.1137 16.9061 12.9622 16.376L12.6643 16.2388C12.337 16.0881 12.1734 16.0128 12 16.0128C11.8266 16.0128 11.663 16.0881 11.3357 16.2388L11.0378 16.376C9.88634 16.9061 9.31059 17.1712 8.92757 16.8805C8.54456 16.5897 8.60794 15.9357 8.7347 14.6276L8.76749 14.2891C8.80351 13.9174 8.82152 13.7316 8.76793 13.5592C8.71434 13.3869 8.59521 13.2476 8.35696 12.969L8.14005 12.7153C7.30162 11.7349 6.88241 11.2447 7.02871 10.7742C7.17501 10.3038 7.78993 10.1646 9.01977 9.88638L9.33794 9.81439C9.68743 9.73532 9.86217 9.69578 10.0025 9.58927C10.1428 9.48276 10.2328 9.32133 10.4127 8.99848L10.5766 8.70455Z" fill="#1C274C"/>
<path fill-rule="evenodd" clip-rule="evenodd" d="M12 1.25037C12.4142 1.25037 12.75 1.58615 12.75 2.00037V4.00037C12.75 4.41458 12.4142 4.75037 12 4.75037C11.5858 4.75037 11.25 4.41458 11.25 4.00037V2.00037C11.25 1.58615 11.5858 1.25037 12 1.25037ZM18.5304 5.46992C18.8233 5.76281 18.8233 6.23769 18.5304 6.53058L18.1872 6.87384C17.8943 7.16673 17.4194 7.16673 17.1265 6.87384C16.8336 6.58095 16.8336 6.10607 17.1265 5.81318L17.4698 5.46992C17.7627 5.17703 18.2376 5.17703 18.5304 5.46992ZM5.46967 5.47004C5.76256 5.17714 6.23744 5.17714 6.53033 5.47004L6.87359 5.8133C7.16648 6.10619 7.16648 6.58106 6.87359 6.87396C6.5807 7.16685 6.10582 7.16685 5.81293 6.87396L5.46967 6.5307C5.17678 6.2378 5.17678 5.76293 5.46967 5.47004ZM1.25 12.0004C1.25 11.5862 1.58579 11.2504 2 11.2504H4C4.41421 11.2504 4.75 11.5862 4.75 12.0004C4.75 12.4146 4.41421 12.7504 4 12.7504H2C1.58579 12.7504 1.25 12.4146 1.25 12.0004ZM19.25 12.0004C19.25 11.5862 19.5858 11.2504 20 11.2504H22C22.4142 11.2504 22.75 11.5862 22.75 12.0004C22.75 12.4146 22.4142 12.7504 22 12.7504H20C19.5858 12.7504 19.25 12.4146 19.25 12.0004ZM6.87348 17.1269C7.16637 17.4198 7.16637 17.8947 6.87348 18.1876L6.53043 18.5306C6.23754 18.8235 5.76266 18.8235 5.46977 18.5306C5.17688 18.2377 5.17688 17.7628 5.46977 17.4699L5.81282 17.1269C6.10571 16.834 6.58058 16.834 6.87348 17.1269ZM17.1265 17.1271C17.4194 16.8342 17.8943 16.8342 18.1872 17.1271L18.5302 17.4702C18.8231 17.7631 18.8231 18.2379 18.5302 18.5308C18.2373 18.8237 17.7624 18.8237 17.4695 18.5308L17.1265 18.1878C16.8336 17.8949 16.8336 17.42 17.1265 17.1271ZM12 19.2504C12.4142 19.2504 12.75 19.5862 12.75 20.0004V22.0004C12.75 22.4146 12.4142 22.7504 12 22.7504C11.5858 22.7504 11.25 22.4146 11.25 22.0004V20.0004C11.25 19.5862 11.5858 19.2504 12 19.2504Z" fill="#1C274C"/>
</svg>
