<svg width="24" height="24" viewBox="0 0 24 24" fill="none" xmlns="http://www.w3.org/2000/svg">
<path fill-rule="evenodd" clip-rule="evenodd" d="M9.25 2.75049C9.25 2.33627 9.58579 2.00049 10 2.00049H14C14.4142 2.00049 14.75 2.33627 14.75 2.75049C14.75 3.1647 14.4142 3.50049 14 3.50049H10C9.58579 3.50049 9.25 3.1647 9.25 2.75049Z" fill="#1C274C"/>
<path fill-rule="evenodd" clip-rule="evenodd" d="M21 13.7505C21 18.7211 16.9706 22.7505 12 22.7505C7.02944 22.7505 3 18.7211 3 13.7505C3 8.77993 7.02944 4.75049 12 4.75049C16.9706 4.75049 21 8.77993 21 13.7505ZM13.0261 11.0254C12.7888 10.8588 12.5201 10.6865 12.2419 10.5173C11.1695 9.86514 10.6333 9.53908 10.1524 9.90009C9.6715 10.2611 9.62779 11.0168 9.54038 12.5283C9.51566 12.9558 9.5 13.3748 9.5 13.7505C9.5 14.1261 9.51566 14.5452 9.54038 14.9726C9.62779 16.4841 9.6715 17.2399 10.1524 17.6009C10.6333 17.9619 11.1695 17.6358 12.2419 16.9837C12.5201 16.8145 12.7888 16.6422 13.0261 16.4756C13.2966 16.2857 13.5909 16.0578 13.8876 15.8157C14.9625 14.9388 15.5 14.5004 15.5 13.7505C15.5 13.0006 14.9625 12.5622 13.8876 11.6853C13.5909 11.4432 13.2966 11.2153 13.0261 11.0254Z" fill="#1C274C"/>
</svg>
