<svg width="24" height="24" viewBox="0 0 24 24" fill="none" xmlns="http://www.w3.org/2000/svg">
<path fill-rule="evenodd" clip-rule="evenodd" d="M4.56979 17.8662C5.25664 16.7924 6.72725 16.8276 7.45746 17.7623C8.44746 19.0296 9.82941 20.2505 11.9999 20.2505C14.2085 20.2505 15.5696 19.2717 16.5049 18.0214C17.2249 17.059 18.7906 16.9018 19.5455 18.0439C20.1706 18.9896 20.8486 19.731 22.1719 20.0429C22.5751 20.1379 22.8249 20.5417 22.7299 20.9449C22.6349 21.3481 22.2311 21.5979 21.8279 21.5029C19.9759 21.0665 19.0203 19.9697 18.2942 18.871C18.2372 18.7848 18.1516 18.7411 18.0406 18.7432C17.922 18.7454 17.7934 18.8032 17.706 18.9199C16.5383 20.4809 14.7602 21.7505 11.9999 21.7505C9.15735 21.7505 7.38852 20.1106 6.2754 18.6857C6.20368 18.5939 6.11008 18.559 6.02957 18.5607C5.95364 18.5623 5.88418 18.5951 5.83341 18.6745C5.09392 19.8306 4.13904 21.0394 2.17194 21.5029C1.76877 21.5979 1.36492 21.3481 1.26992 20.9449C1.17492 20.5417 1.42474 20.1379 1.82791 20.0429C3.22886 19.7128 3.9075 18.9016 4.56979 17.8662Z" fill="#1C274C"/>
<path d="M22.1719 15.0429C20.8486 14.731 20.1706 13.9896 19.5455 13.0439C18.8451 11.9842 17.4467 12.043 16.6734 12.8258L15.4999 11.5005L9.00067 4.13466C8.45837 3.52006 7.50996 3.49045 6.93038 4.07003C6.40535 4.59506 6.37306 5.43581 6.85628 5.99957L7.844 7.1519C8.44843 7.85708 7.47685 9.41433 7.47685 9.41433L4.99828 12.4002C4.83663 12.5217 4.691 12.6767 4.56979 12.8662C3.9075 13.9016 3.22886 14.7128 1.82791 15.0429C1.42474 15.1379 1.17492 15.5417 1.26992 15.9449C1.36492 16.3481 1.76877 16.5979 2.17194 16.5029C4.13904 16.0394 5.09392 14.8306 5.83341 13.6745C5.88418 13.5951 5.95364 13.5623 6.02957 13.5607C6.11008 13.559 6.20368 13.5939 6.2754 13.6857C7.38852 15.1106 9.15735 16.7505 11.9999 16.7505C14.7602 16.7505 16.5383 15.4809 17.706 13.9199C17.7934 13.8032 17.922 13.7454 18.0406 13.7432C18.1516 13.7411 18.2372 13.7848 18.2942 13.871C19.0203 14.9697 19.9759 16.0665 21.8279 16.5029C22.2311 16.5979 22.6349 16.3481 22.7299 15.9449C22.8249 15.5417 22.5751 15.1379 22.1719 15.0429Z" fill="#1C274C"/>
<path d="M16.9999 8.00049C18.3806 8.00049 19.4999 6.8812 19.4999 5.50049C19.4999 4.11978 18.3806 3.00049 16.9999 3.00049C15.6192 3.00049 14.4999 4.11978 14.4999 5.50049C14.4999 6.8812 15.6192 8.00049 16.9999 8.00049Z" fill="#1C274C"/>
</svg>
