<svg width="24" height="24" viewBox="0 0 24 24" fill="none" xmlns="http://www.w3.org/2000/svg">
<path d="M17.7819 3.22619C17.4807 2.92493 16.9922 2.92493 16.691 3.22619C16.3897 3.52745 16.3897 4.0159 16.691 4.31716L17.6415 5.26767L15.9427 6.96646L15.0752 6.09895C14.3 5.32372 13.9124 4.9361 13.4717 4.77567C13.0042 4.60554 12.4918 4.60554 12.0244 4.77567C11.5836 4.9361 11.196 5.32372 10.4208 6.09895L10.3013 6.2185L17.7817 13.699L17.9012 13.5795C18.6764 12.8043 19.064 12.4166 19.2244 11.9759C19.3945 11.5084 19.3945 10.996 19.2244 10.5286C19.064 10.0878 18.6764 9.70017 17.9012 8.92494L17.0337 8.05743L18.7324 6.35864L19.6831 7.30938C19.9844 7.61064 20.4728 7.61064 20.7741 7.30938C21.0753 7.00812 21.0753 6.51967 20.7741 6.21841L17.7819 3.22619Z" fill="#1C274C"/>
<path d="M6.01572 10.5042L9.21036 7.30943L16.6907 14.79L15.5376 15.9431L12.5698 12.9753C12.2686 12.674 11.7801 12.674 11.4789 12.9753C11.1776 13.2766 11.1776 13.765 11.4789 14.0663L14.4466 17.0341L13.8545 17.6262L12.1616 15.9333C11.8603 15.632 11.3719 15.632 11.0706 15.9333C10.7694 16.2345 10.7694 16.723 11.0706 17.0243L12.6919 18.6455C10.8462 19.8797 8.39556 19.8281 6.60052 18.4906L4.31688 20.7743C4.01563 21.0756 3.5272 21.0756 3.22594 20.7743C2.92469 20.473 2.92469 19.9846 3.22594 19.6833L5.50962 17.3996C3.9667 15.3284 4.1354 12.3845 6.01572 10.5042Z" fill="#1C274C"/>
</svg>
