<svg width="24" height="24" viewBox="0 0 24 24" fill="none" xmlns="http://www.w3.org/2000/svg">
<path d="M20.6881 16.5084C20.5832 16.4498 20.435 16.3632 20.2514 16.2465C19.8844 16.0131 19.3751 15.6586 18.787 15.1648C17.6106 14.177 16.1165 12.6297 14.816 10.3772C13.5156 8.12474 12.9226 6.05709 12.6553 4.54447C12.5217 3.7882 12.4694 3.16995 12.4508 2.7354C12.4415 2.51806 12.4406 2.34645 12.4422 2.22626C12.4431 2.16615 12.4495 2.04475 12.4508 2.01101C10.6072 1.92639 8.71856 2.35066 7.00167 3.3419C5.28578 4.33257 3.97456 5.75498 3.126 7.39268L3.31486 7.49596C3.41977 7.55464 3.56795 7.6412 3.75151 7.75793C4.11855 7.99132 4.6278 8.34577 5.21594 8.83961C6.39229 9.82736 7.88643 11.3747 9.18688 13.6272C10.4873 15.8797 11.0803 17.9473 11.3476 19.4599C11.4812 20.2162 11.5335 20.8344 11.5521 21.269C11.5614 21.4863 11.5623 21.6579 11.5607 21.7781V21.9937C13.4017 22.0767 15.2873 21.6522 17.0017 20.6624C18.7158 19.6728 20.0261 18.2523 20.8747 16.6167L20.6881 16.5084Z" fill="#1C274C"/>
<path d="M10.0598 21.8119C10.0611 21.7184 10.0615 21.5209 10.0535 21.3332C10.0374 20.9576 9.99142 20.4056 9.87046 19.7209C9.62854 18.3516 9.08739 16.4549 7.88784 14.3772C6.6883 12.2995 5.31623 10.8825 4.25137 9.98835C3.7189 9.54125 3.26381 9.22539 2.94663 9.0237C2.7881 8.92289 2.61686 8.82458 2.53523 8.77892C1.63973 11.4124 1.84135 14.404 3.34142 17.0022C4.84147 19.6003 7.33139 21.2707 10.0598 21.8119Z" fill="#1C274C"/>
<path d="M13.9431 2.1923C13.9419 2.28582 13.9414 2.48354 13.9494 2.67123C13.9655 3.04676 14.0115 3.59882 14.1325 4.2835C14.3744 5.65276 14.9155 7.54952 16.1151 9.6272C17.3146 11.7049 18.6867 13.1219 19.7516 14.016C20.284 14.4631 20.7391 14.779 21.0563 14.9807C21.2148 15.0815 21.3864 15.18 21.468 15.2256C22.3636 12.5921 22.162 9.60044 20.6619 7.00216C19.1618 4.40386 16.6717 2.73345 13.9431 2.1923Z" fill="#1C274C"/>
</svg>
