<svg width="24" height="24" viewBox="0 0 24 24" fill="none" xmlns="http://www.w3.org/2000/svg">
<path fill-rule="evenodd" clip-rule="evenodd" d="M14.9768 1.00051H9C8.44772 1.00051 8 1.44822 8 2.00051C8 2.55279 8.44772 3.00051 9 3.00051H13.656L8.25597 21.0005H3C2.44772 21.0005 2 21.4482 2 22.0005C2 22.5528 2.44772 23.0005 3 23.0005H8.97753C8.99281 23.0009 9.00805 23.0009 9.02325 23.0005H15C15.5523 23.0005 16 22.5528 16 22.0005C16 21.4482 15.5523 21.0005 15 21.0005H10.344L15.744 3.00051H21C21.5523 3.00051 22 2.55279 22 2.00051C22 1.44822 21.5523 1.00051 21 1.00051H15.0225C15.0072 1.00016 14.992 1.00016 14.9768 1.00051Z" fill="#1C274C"/>
</svg>
