<svg width="24" height="24" viewBox="0 0 24 24" fill="none" xmlns="http://www.w3.org/2000/svg">
<path fill-rule="evenodd" clip-rule="evenodd" d="M3.46447 3.46495C2 4.92942 2 7.28644 2 12.0005C2 16.7145 2 19.0716 3.46447 20.536C4.92893 22.0005 7.28595 22.0005 12 22.0005C16.714 22.0005 19.0711 22.0005 20.5355 20.536C22 19.0716 22 16.7145 22 12.0005C22 7.28644 22 4.92942 20.5355 3.46495C19.0711 2.00049 16.714 2.00049 12 2.00049C7.28595 2.00049 4.92893 2.00049 3.46447 3.46495ZM10.6667 6.25049H13.3162C13.3273 6.25024 13.3384 6.25024 13.3495 6.25049H16C16.4142 6.25049 16.75 6.58627 16.75 7.00049C16.75 7.4147 16.4142 7.75049 16 7.75049H13.9095L11.6429 16.2505H13.3333C13.7475 16.2505 14.0833 16.5863 14.0833 17.0005C14.0833 17.4147 13.7475 17.7505 13.3333 17.7505H10.6838C10.6727 17.7507 10.6616 17.7507 10.6505 17.7505H8C7.58579 17.7505 7.25 17.4147 7.25 17.0005C7.25 16.5863 7.58579 16.2505 8 16.2505H10.0905L12.3571 7.75049H10.6667C10.2525 7.75049 9.91667 7.4147 9.91667 7.00049C9.91667 6.58627 10.2525 6.25049 10.6667 6.25049Z" fill="#1C274C"/>
</svg>
