<svg width="24" height="24" viewBox="0 0 24 24" fill="none" xmlns="http://www.w3.org/2000/svg">
<path fill-rule="evenodd" clip-rule="evenodd" d="M14.4672 2.00069C14.4105 1.99939 14.3551 2.00442 14.3018 2.01512C13.5511 2.00048 12.7218 2.00049 11.8069 2.00049L11.6932 2.00049C10.7782 2.00049 9.94895 2.00048 9.19825 2.01512C9.14488 2.00442 9.08952 1.99939 9.03282 2.00069C6.54819 2.05761 4.77756 2.28036 3.53716 3.52325L3.52979 3.53066L3.52277 3.53765C2.27987 4.77805 2.05712 6.54867 2.0002 9.03331C1.9989 9.09001 2.00393 9.14537 2.01464 9.19874C2.0127 9.29794 2.01102 9.39852 2.00956 9.50049H3.75C4.99264 9.50049 6 10.5079 6 11.7505C6 12.9931 4.99264 14.0005 3.75 14.0005H2.00956C2.01102 14.1025 2.0127 14.2031 2.01464 14.3023C2.00393 14.3556 1.9989 14.411 2.0002 14.4677C2.05713 16.9523 2.27987 18.7229 3.52277 19.9633L3.52997 19.9705L3.53716 19.9777C4.77756 21.2206 6.54818 21.4434 9.03283 21.5003C9.08952 21.5016 9.14488 21.4966 9.19825 21.4859C9.94894 21.5005 10.7782 21.5005 11.6931 21.5005H11.8069C12.7218 21.5005 13.5511 21.5005 14.3018 21.4859C14.3552 21.4966 14.4105 21.5016 14.4672 21.5003C16.9518 21.4434 18.7224 21.2206 19.9628 19.9777L19.9699 19.9707L19.9772 19.9633C21.2201 18.7229 21.4429 16.9523 21.4998 14.4677C21.5011 14.411 21.4961 14.3556 21.4854 14.3023C21.4873 14.2031 21.489 14.1025 21.4904 14.0005H19.75C18.5074 14.0005 17.5 12.9931 17.5 11.7505C17.5 10.5079 18.5074 9.50049 19.75 9.50049H21.4904C21.489 9.39852 21.4873 9.29794 21.4854 9.19874C21.4961 9.14537 21.5011 9.09001 21.4998 9.03331C21.4429 6.54868 21.2201 4.77805 19.9772 3.53765L19.9701 3.5305L19.9628 3.52325C18.7224 2.28036 16.9518 2.05761 14.4672 2.00069ZM7.75 7.00049C7.33579 7.00049 7 7.33627 7 7.75049C7 8.1647 7.33579 8.50049 7.75 8.50049H11V15.7505C11 16.1647 11.3358 16.5005 11.75 16.5005C12.1642 16.5005 12.5 16.1647 12.5 15.7505V8.50049H15.75C16.1642 8.50049 16.5 8.1647 16.5 7.75049C16.5 7.33627 16.1642 7.00049 15.75 7.00049H7.75Z" fill="#1C274C"/>
<path d="M19 11.7505C19 11.3363 19.3358 11.0005 19.75 11.0005H21.75C22.1642 11.0005 22.5 11.3363 22.5 11.7505C22.5 12.1647 22.1642 12.5005 21.75 12.5005H19.75C19.3358 12.5005 19 12.1647 19 11.7505Z" fill="#1C274C"/>
<path d="M1.75 11.0005C1.33579 11.0005 1 11.3363 1 11.7505C1 12.1647 1.33579 12.5005 1.75 12.5005H3.75C4.16421 12.5005 4.5 12.1647 4.5 11.7505C4.5 11.3363 4.16421 11.0005 3.75 11.0005H1.75Z" fill="#1C274C"/>
</svg>
