<svg width="24" height="24" viewBox="0 0 24 24" fill="none" xmlns="http://www.w3.org/2000/svg">
<path fill-rule="evenodd" clip-rule="evenodd" d="M6.37562 19.5728C5.89805 19.4021 5.50576 19.1632 5.17157 18.829C4.19724 17.8547 4.03321 16.3865 4.00559 13.7506H19.9944C19.9668 16.3865 19.8028 17.8547 18.8284 18.829C18.4943 19.1631 18.1021 19.402 17.6247 19.5727L18.671 21.6653C18.8562 22.0358 18.7061 22.4863 18.3356 22.6716C17.9651 22.8568 17.5146 22.7066 17.3293 22.3362L16.1054 19.8883C15.057 20.0006 13.726 20.0006 12 20.0006C10.2742 20.0006 8.94323 20.0006 7.89491 19.8883L6.67098 22.3362C6.48574 22.7066 6.03524 22.8568 5.66475 22.6716C5.29427 22.4863 5.1441 22.0358 5.32934 21.6653L6.37562 19.5728ZM14.75 16.0006C14.75 15.5864 15.0858 15.2506 15.5 15.2506H17C17.4142 15.2506 17.75 15.5864 17.75 16.0006C17.75 16.4148 17.4142 16.7506 17 16.7506H15.5C15.0858 16.7506 14.75 16.4148 14.75 16.0006ZM7 15.2506C6.58579 15.2506 6.25 15.5864 6.25 16.0006C6.25 16.4148 6.58579 16.7506 7 16.7506H8.5C8.91421 16.7506 9.25 16.4148 9.25 16.0006C9.25 15.5864 8.91421 15.2506 8.5 15.2506H7Z" fill="#1C274C"/>
<path d="M20 12.2506V10.0006C20 6.22935 20 4.34373 18.8284 3.17216C17.9495 2.29327 16.6688 2.07371 14.4917 2.01885C14.2216 2.01205 14 2.2304 14 2.50059C14 3.60516 13.1046 4.50059 12 4.50059C10.8954 4.50059 10 3.60516 10 2.50059C10 2.2304 9.77845 2.01205 9.50835 2.01885C7.33118 2.07371 6.05046 2.29327 5.17157 3.17216C4 4.34373 4 6.22935 4 10.0006V12.2506H20Z" fill="#1C274C"/>
</svg>
