<svg width="24" height="24" viewBox="0 0 24 24" fill="none" xmlns="http://www.w3.org/2000/svg">
<path fill-rule="evenodd" clip-rule="evenodd" d="M20.5 14.0001V6.13759C20.5 5.74965 20.5 5.55568 20.4822 5.42302C20.359 4.50707 19.8459 3.94522 18.9449 3.73964C18.8144 3.70987 18.5428 3.68518 18 3.63583C16.9981 3.54475 15.8169 3.19603 14.7687 2.81468C13.2754 2.2714 12.5288 1.99976 12 1.99976C11.4712 1.99976 10.7246 2.2714 9.23133 2.81468C8.18314 3.19603 7.00193 3.54475 6 3.63583C5.45709 3.68519 5.18562 3.70987 5.05512 3.73964C4.15409 3.94522 3.64099 4.50707 3.51784 5.42302C3.5 5.55568 3.5 5.74965 3.5 6.13759V14.0001H20.5ZM11.0303 6.46979C11.3232 6.76269 11.3232 7.23756 11.0303 7.53045L10.0303 8.53045C9.73744 8.82335 9.26256 8.82335 8.96967 8.53045C8.67678 8.23756 8.67678 7.76269 8.96967 7.46979L9.96967 6.46979C10.2626 6.1769 10.7374 6.1769 11.0303 6.46979ZM14.0303 7.46979C14.3232 7.76269 14.3232 8.23756 14.0303 8.53045L11.0303 11.5305C10.7374 11.8233 10.2626 11.8233 9.96967 11.5305C9.67678 11.2376 9.67678 10.7627 9.96967 10.4698L12.9697 7.46979C13.2626 7.1769 13.7374 7.1769 14.0303 7.46979ZM15.0303 10.4698C15.3232 10.7627 15.3232 11.2376 15.0303 11.5305L14.0303 12.5305C13.7374 12.8233 13.2626 12.8233 12.9697 12.5305C12.6768 12.2376 12.6768 11.7627 12.9697 11.4698L13.9697 10.4698C14.2626 10.1769 14.7374 10.1769 15.0303 10.4698Z" fill="#1C274C"/>
<path fill-rule="evenodd" clip-rule="evenodd" d="M3.00023 15.0001H11.25V21.0001H8.00023C7.1228 21.0001 6.38147 21.0001 5.75 20.9739V22.0001C5.75 22.4143 5.41421 22.7501 5 22.7501C4.58579 22.7501 4.25 22.4143 4.25 22.0001V20.8111C3.66924 20.6846 3.23107 20.4736 2.87891 20.1214C2.11053 19.3531 2.01408 18.1752 2.00197 16.0002C1.99889 15.4479 2.44795 15.0001 3.00023 15.0001ZM6.25 18.0001C6.25 17.5859 6.58579 17.2501 7 17.2501L9 17.2501C9.41421 17.2501 9.75 17.5859 9.75 18.0001C9.75 18.4143 9.41421 18.7501 9 18.7501L7 18.7501C6.58579 18.7501 6.25 18.4143 6.25 18.0001Z" fill="#1C274C"/>
<path fill-rule="evenodd" clip-rule="evenodd" d="M16.0002 21.0001H12.75V15.0001H21.0002C21.5525 15.0001 22.0016 15.4479 21.9985 16.0002C21.9864 18.1752 21.8899 19.3531 21.1216 20.1214C20.7693 20.4737 20.331 20.6847 19.75 20.8112V22.0001C19.75 22.4143 19.4142 22.7501 19 22.7501C18.5858 22.7501 18.25 22.4143 18.25 22.0001V20.9739C17.6186 21.0001 16.8774 21.0001 16.0002 21.0001ZM15 17.2501C14.5858 17.2501 14.25 17.5859 14.25 18.0001C14.25 18.4143 14.5858 18.7501 15 18.7501L17 18.7501C17.4142 18.7501 17.75 18.4143 17.75 18.0001C17.75 17.5859 17.4142 17.2501 17 17.2501L15 17.2501Z" fill="#1C274C"/>
</svg>
