<svg width="24" height="24" viewBox="0 0 24 24" fill="none" xmlns="http://www.w3.org/2000/svg">
<path d="M16.959 9.75049C16.5448 9.75049 16.209 9.4147 16.209 9.00049L16.209 2.00049C16.209 1.58627 16.5448 1.25049 16.959 1.25049C17.3732 1.25049 17.709 1.58627 17.709 2.00049L17.709 9.00049C17.709 9.4147 17.3732 9.75049 16.959 9.75049Z" fill="#1C274C"/>
<path d="M7 12.5005C5.34315 12.5005 4 11.1573 4 9.50049C4 7.84363 5.34315 6.50049 7 6.50049C8.65685 6.50049 10 7.84363 10 9.50049C10 11.1573 8.65685 12.5005 7 12.5005Z" fill="#1C274C"/>
<path d="M17 11.5005C15.3431 11.5005 14 12.8436 14 14.5005C14 16.1573 15.3431 17.5005 17 17.5005C18.6569 17.5005 20 16.1573 20 14.5005C20 12.8436 18.6569 11.5005 17 11.5005Z" fill="#1C274C"/>
<path d="M6.20901 15.0005C6.20901 14.5863 6.5448 14.2505 6.95901 14.2505C7.37322 14.2505 7.70901 14.5863 7.70901 15.0005V22.0005C7.70901 22.4147 7.37322 22.7505 6.95901 22.7505C6.5448 22.7505 6.20901 22.4147 6.20901 22.0005V15.0005Z" fill="#1C274C"/>
<path d="M16.959 22.7505C16.5448 22.7505 16.209 22.4147 16.209 22.0005V20.0005C16.209 19.5863 16.5448 19.2505 16.959 19.2505C17.3732 19.2505 17.709 19.5863 17.709 20.0005V22.0005C17.709 22.4147 17.3732 22.7505 16.959 22.7505Z" fill="#1C274C"/>
<path d="M6.20901 2.00049C6.20901 1.58627 6.5448 1.25049 6.95901 1.25049C7.37322 1.25049 7.70901 1.58627 7.70901 2.00049V4.00049C7.70901 4.4147 7.37322 4.75049 6.95901 4.75049C6.5448 4.75049 6.20901 4.4147 6.20901 4.00049V2.00049Z" fill="#1C274C"/>
</svg>
