<svg width="24" height="24" viewBox="0 0 24 24" fill="none" xmlns="http://www.w3.org/2000/svg">
<path d="M9.25 14.0005C10.9069 14.0005 12.25 15.3436 12.25 17.0005C12.25 18.6573 10.9069 20.0005 9.25 20.0005C7.59315 20.0005 6.25 18.6573 6.25 17.0005C6.25 15.3436 7.59315 14.0005 9.25 14.0005Z" fill="#1C274C"/>
<path d="M14.25 4.00049C12.5931 4.00049 11.25 5.34363 11.25 7.00049C11.25 8.65734 12.5931 10.0005 14.25 10.0005C15.9069 10.0005 17.25 8.65734 17.25 7.00049C17.25 5.34363 15.9069 4.00049 14.25 4.00049Z" fill="#1C274C"/>
<path d="M8.75 6.20901C9.16421 6.20901 9.5 6.5448 9.5 6.95901C9.5 7.37322 9.16421 7.70901 8.75 7.70901L1.75 7.70901C1.33579 7.70901 1 7.37322 1 6.95901C1 6.5448 1.33579 6.20901 1.75 6.20901H8.75Z" fill="#1C274C"/>
<path d="M14.75 16.209C14.3358 16.209 14 16.5448 14 16.959C14 17.3732 14.3358 17.709 14.75 17.709H21.75C22.1642 17.709 22.5 17.3732 22.5 16.959C22.5 16.5448 22.1642 16.209 21.75 16.209H14.75Z" fill="#1C274C"/>
<path d="M1 16.959C1 16.5448 1.33579 16.209 1.75 16.209H3.75C4.16421 16.209 4.5 16.5448 4.5 16.959C4.5 17.3732 4.16421 17.709 3.75 17.709H1.75C1.33579 17.709 1 17.3732 1 16.959Z" fill="#1C274C"/>
<path d="M21.75 6.20901C22.1642 6.20901 22.5 6.5448 22.5 6.95901C22.5 7.37322 22.1642 7.70901 21.75 7.70901L19.75 7.70901C19.3358 7.70901 19 7.37322 19 6.95901C19 6.5448 19.3358 6.20901 19.75 6.20901H21.75Z" fill="#1C274C"/>
</svg>
