<svg width="24" height="24" viewBox="0 0 24 24" fill="none" xmlns="http://www.w3.org/2000/svg">
<path d="M12 4.00049C12 2.89592 12.8954 2.00049 14 2.00049C15.1046 2.00049 16 2.89592 16 4.00049C16 5.10506 15.1046 6.00049 14 6.00049C12.8954 6.00049 12 5.10506 12 4.00049Z" fill="#1C274C"/>
<path d="M12 10.0005C13.1046 10.0005 14 10.8959 14 12.0005C14 13.1051 13.1046 14.0005 12 14.0005C10.8954 14.0005 10 13.1051 10 12.0005C10 10.8959 10.8954 10.0005 12 10.0005Z" fill="#1C274C"/>
<path d="M10 18.0005C11.1046 18.0005 12 18.8959 12 20.0005C12 21.1051 11.1046 22.0005 10 22.0005C8.89543 22.0005 8 21.1051 8 20.0005C8 18.8959 8.89543 18.0005 10 18.0005Z" fill="#1C274C"/>
<path d="M15.25 12.0005C15.25 11.5863 15.5858 11.2505 16 11.2505H19C19.4142 11.2505 19.75 11.5863 19.75 12.0005C19.75 12.4147 19.4142 12.7505 19 12.7505H16C15.5858 12.7505 15.25 12.4147 15.25 12.0005Z" fill="#1C274C"/>
<path d="M14 19.2505C13.5858 19.2505 13.25 19.5863 13.25 20.0005C13.25 20.4147 13.5858 20.7505 14 20.7505H19C19.4142 20.7505 19.75 20.4147 19.75 20.0005C19.75 19.5863 19.4142 19.2505 19 19.2505H14Z" fill="#1C274C"/>
<path d="M10.75 4.00049C10.75 3.58627 10.4142 3.25049 10 3.25049L5 3.25049C4.58579 3.25049 4.25 3.58627 4.25 4.00049C4.25 4.4147 4.58579 4.75049 5 4.75049L10 4.75049C10.4142 4.75049 10.75 4.4147 10.75 4.00049Z" fill="#1C274C"/>
<path d="M5 11.2505C4.58579 11.2505 4.25 11.5863 4.25 12.0005C4.25 12.4147 4.58579 12.7505 5 12.7505H8C8.41421 12.7505 8.75 12.4147 8.75 12.0005C8.75 11.5863 8.41421 11.2505 8 11.2505H5Z" fill="#1C274C"/>
<path d="M4.25 20.0005C4.25 19.5863 4.58579 19.2505 5 19.2505H6C6.41421 19.2505 6.75 19.5863 6.75 20.0005C6.75 20.4147 6.41421 20.7505 6 20.7505H5C4.58579 20.7505 4.25 20.4147 4.25 20.0005Z" fill="#1C274C"/>
<path d="M19 3.25049C19.4142 3.25049 19.75 3.58627 19.75 4.00049C19.75 4.4147 19.4142 4.75049 19 4.75049H18C17.5858 4.75049 17.25 4.4147 17.25 4.00049C17.25 3.58627 17.5858 3.25049 18 3.25049H19Z" fill="#1C274C"/>
</svg>
