<svg width="24" height="24" viewBox="0 0 24 24" fill="none" xmlns="http://www.w3.org/2000/svg">
<path fill-rule="evenodd" clip-rule="evenodd" d="M17.7501 2.22177V7.96494C17.7501 8.55006 17.4577 9.09646 16.9708 9.42103L14.4161 11.1242C14.0715 11.3539 13.6058 11.2608 13.376 10.9161C13.1463 10.5715 13.2394 10.1058 13.5841 9.87608L16.1388 8.17295C16.2083 8.12658 16.2501 8.04853 16.2501 7.96494V2.06886C15.0943 2.00012 13.7005 2.00012 12 2.00012C7.28595 2.00012 4.92893 2.00012 3.46447 3.46459C2 4.92905 2 7.28608 2 12.0001C2 16.7142 2 19.0712 3.46447 20.5357C4.92893 22.0001 7.28595 22.0001 12 22.0001C16.714 22.0001 19.0711 22.0001 20.5355 20.5357C22 19.0712 22 16.7142 22 12.0001C22 7.28608 22 4.92905 20.5355 3.46459C19.8515 2.78057 18.9728 2.41604 17.7501 2.22177ZM6.25 12.0001C6.25 8.82448 8.82436 6.25012 12 6.25012C12.5997 6.25012 13.1793 6.34219 13.7247 6.51349C14.1199 6.63761 14.3397 7.05858 14.2155 7.45376C14.0914 7.84894 13.6704 8.06868 13.2753 7.94456C12.8736 7.81841 12.4455 7.75012 12 7.75012C9.65279 7.75012 7.75 9.65291 7.75 12.0001C7.75 14.3473 9.65279 16.2501 12 16.2501C14.3472 16.2501 16.25 14.3473 16.25 12.0001C16.25 11.5859 16.5858 11.2501 17 11.2501C17.4142 11.2501 17.75 11.5859 17.75 12.0001C17.75 15.1758 15.1756 17.7501 12 17.7501C8.82436 17.7501 6.25 15.1758 6.25 12.0001ZM10 11.2501C10.4142 11.2501 10.75 11.5859 10.75 12.0001C10.75 12.6905 11.3096 13.2501 12 13.2501C12.4142 13.2501 12.75 13.5859 12.75 14.0001C12.75 14.4143 12.4142 14.7501 12 14.7501C10.4812 14.7501 9.25 13.5189 9.25 12.0001C9.25 11.5859 9.58579 11.2501 10 11.2501Z" fill="#1C274C"/>
</svg>
