<svg width="24" height="24" viewBox="0 0 24 24" fill="none" xmlns="http://www.w3.org/2000/svg">
<path fill-rule="evenodd" clip-rule="evenodd" d="M22 16.0002V12.0002C22 9.17181 22 7.75759 21.1213 6.87891C20.296 6.05361 18.9983 6.00348 16.5 6.00043V22C18.9983 21.997 20.296 21.9469 21.1213 21.1216C22 20.2429 22 18.8287 22 16.0002ZM19 11.0001C19.5523 11.0001 20 11.4478 20 12.0001C20 12.5524 19.5523 13.0001 19 13.0001C18.4477 13.0001 18 12.5524 18 12.0001C18 11.4478 18.4477 11.0001 19 11.0001ZM19 15.0001C19.5523 15.0001 20 15.4478 20 16.0001C20 16.5524 19.5523 17.0001 19 17.0001C18.4477 17.0001 18 16.5524 18 16.0001C18 15.4478 18.4477 15.0001 19 15.0001Z" fill="#1C274C"/>
<path d="M15.5694 3.48823L13.4163 6.00024H15V22.0002L8 22.0002C5.17157 22.0002 3.75736 22.0002 2.87868 21.1216C2 20.2429 2 18.8287 2 16.0002V12.0002C2 9.17181 2 7.7576 2.87868 6.87892C3.75736 6.00024 5.17157 6.00024 8 6.00024H10.5837L8.43054 3.48823C8.16098 3.17374 8.1974 2.70026 8.51189 2.43069C8.82639 2.16113 9.29986 2.19755 9.56943 2.51204L12 5.34769L14.4305 2.51204C14.7001 2.19755 15.1736 2.16113 15.4881 2.43069C15.8026 2.70026 15.839 3.17373 15.5694 3.48823Z" fill="#1C274C"/>
</svg>
