<svg width="24" height="24" viewBox="0 0 24 24" fill="none" xmlns="http://www.w3.org/2000/svg">
<path fill-rule="evenodd" clip-rule="evenodd" d="M3.46447 3.46483C2 4.9293 2 7.28632 2 12.0004C2 16.7144 2 19.0714 3.46447 20.5359C4.92893 22.0004 7.28595 22.0004 12 22.0004C16.714 22.0004 19.0711 22.0004 20.5355 20.5359C22 19.0714 22 16.7144 22 12.0004C22 7.28632 22 4.9293 20.5355 3.46483C19.0711 2.00037 16.714 2.00037 12 2.00037C7.28595 2.00037 4.92893 2.00037 3.46447 3.46483ZM13.5303 6.47004L12.5303 5.47004C12.2374 5.17714 11.7626 5.17714 11.4697 5.47004L10.4697 6.47004C10.1768 6.76293 10.1768 7.2378 10.4697 7.5307C10.6807 7.74172 10.9862 7.8007 11.25 7.70766V12.7418C11.1787 12.7119 11.1055 12.6851 11.0306 12.6617L9.62716 12.2231C9.10531 12.06 8.75 11.5767 8.75 11.03V10.582C9.34124 10.3011 9.75 9.69846 9.75 9.00037C9.75 8.03387 8.9665 7.25037 8 7.25037C7.0335 7.25037 6.25 8.03387 6.25 9.00037C6.25 9.69846 6.65876 10.3011 7.25 10.582V11.03C7.25 12.2328 8.03169 13.296 9.17974 13.6548L10.5832 14.0934C10.9799 14.2174 11.25 14.5847 11.25 15.0004V15.4188C10.6588 15.6996 10.25 16.3023 10.25 17.0004C10.25 17.9669 11.0335 18.7504 12 18.7504C12.9665 18.7504 13.75 17.9669 13.75 17.0004C13.75 16.3608 13.4069 15.8014 12.8948 15.4961C13.0124 15.3084 13.1948 15.1628 13.4168 15.0934L14.8203 14.6548C15.9683 14.296 16.75 13.2328 16.75 12.03V11.7088C16.9502 11.6698 17.1831 11.585 17.3839 11.3842C17.6197 11.1484 17.6955 10.8683 17.725 10.6489C17.7502 10.4617 17.7501 10.2399 17.75 10.0348V9.96592C17.7501 9.76081 17.7502 9.539 17.725 9.35179C17.6955 9.13247 17.6197 8.85228 17.3839 8.61648C17.1481 8.38068 16.8679 8.30485 16.6486 8.27536C16.4614 8.25019 16.2396 8.25028 16.0345 8.25036H15.9656C15.7604 8.25028 15.5386 8.25019 15.3514 8.27536C15.1321 8.30485 14.8519 8.38068 14.6161 8.61648C14.3803 8.85228 14.3045 9.13247 14.275 9.35179C14.2498 9.539 14.2499 9.76079 14.25 9.96589V10.0348C14.2499 10.2399 14.2498 10.4617 14.275 10.6489C14.3045 10.8683 14.3803 11.1484 14.6161 11.3842C14.8169 11.585 15.0498 11.6698 15.25 11.7088V12.03C15.25 12.5767 14.8947 13.06 14.3728 13.2231L12.9694 13.6617C12.8945 13.6851 12.8213 13.7119 12.75 13.7418V7.70766C13.0138 7.8007 13.3193 7.74172 13.5303 7.5307C13.8232 7.2378 13.8232 6.76293 13.5303 6.47004Z" fill="#1C274C"/>
</svg>
