<svg width="24" height="24" viewBox="0 0 24 24" fill="none" xmlns="http://www.w3.org/2000/svg">
<path d="M12 10.0005C14.2091 10.0005 16 8.20963 16 6.00049C16 3.79135 14.2091 2.00049 12 2.00049C9.79086 2.00049 8 3.79135 8 6.00049C8 8.20963 9.79086 10.0005 12 10.0005Z" fill="#1C274C"/>
<path d="M8.00007 12.2505C5.90904 12.2505 4.149 13.8156 3.90469 15.8923L3.25521 21.4129C3.20681 21.8242 3.50106 22.197 3.91244 22.2453C4.32382 22.2937 4.69654 21.9995 4.74494 21.5881L5.39441 16.0676C5.51949 15.0044 6.26894 14.152 7.25007 13.8595L7.25007 18.0525C7.25004 18.951 7.25002 19.7002 7.32998 20.295C7.41439 20.9228 7.60006 21.4896 8.05553 21.945C8.511 22.4005 9.0778 22.5862 9.70559 22.6706C10.3004 22.7505 11.0496 22.7505 11.948 22.7505H12.0521C12.9505 22.7505 13.6998 22.7505 14.2946 22.6706C14.9223 22.5862 15.4891 22.4005 15.9446 21.945C16.4001 21.4896 16.5858 20.9228 16.6702 20.295C16.7501 19.7002 16.7501 18.951 16.7501 18.0525L16.7501 13.8595C17.7312 14.152 18.4807 15.0044 18.6057 16.0676L19.2552 21.5881C19.3036 21.9995 19.6763 22.2937 20.0877 22.2453C20.4991 22.197 20.7933 21.8242 20.7449 21.4129L20.0955 15.8923C19.8511 13.8156 18.0911 12.2505 16.0001 12.2505H8.00007Z" fill="#1C274C"/>
</svg>
