<svg width="24" height="24" viewBox="0 0 24 24" fill="none" xmlns="http://www.w3.org/2000/svg">
<path d="M15 6.00049C15 8.20963 13.2091 10.0005 11 10.0005C8.79086 10.0005 7 8.20963 7 6.00049C7 3.79135 8.79086 2.00049 11 2.00049C13.2091 2.00049 15 3.79135 15 6.00049Z" fill="#1C274C"/>
<path d="M19 17.5005C19 19.9858 19 22.0005 11 22.0005C3 22.0005 3 19.9858 3 17.5005C3 15.0152 6.58172 13.0005 11 13.0005C15.4183 13.0005 19 15.0152 19 17.5005Z" fill="#1C274C"/>
<path d="M21.5606 8.99876C21.8357 8.68917 21.8079 8.21512 21.4983 7.93993C21.1887 7.66474 20.7146 7.69263 20.4394 8.00222L18.2741 10.4382L17.5017 9.74302C17.1938 9.46592 16.7196 9.49088 16.4425 9.79876C16.1654 10.1066 16.1904 10.5809 16.4983 10.858L17.8316 12.058C17.9801 12.1916 18.1757 12.2604 18.3751 12.2493C18.5745 12.2382 18.7612 12.148 18.8939 11.9988L21.5606 8.99876Z" fill="#1C274C"/>
</svg>
