<svg width="24" height="24" viewBox="0 0 24 24" fill="none" xmlns="http://www.w3.org/2000/svg">
<path d="M18.3569 1.61473C18.57 1.25954 19.0307 1.14437 19.3859 1.35748L19 2.0006C19.3859 1.35748 19.3855 1.35728 19.3859 1.35748L19.3873 1.35832L19.3888 1.35927L19.3925 1.36152L19.4021 1.36744C19.4095 1.37201 19.4187 1.37785 19.4297 1.38497C19.4517 1.3992 19.4808 1.41858 19.516 1.44321C19.5863 1.49243 19.6813 1.56293 19.7926 1.65569C20.0147 1.84077 20.3052 2.11727 20.5945 2.49332C21.1773 3.25105 21.75 4.40795 21.75 6.0006C21.75 7.59326 21.1773 8.75015 20.5945 9.50788C20.3052 9.88393 20.0147 10.1604 19.7926 10.3455C19.6813 10.4383 19.5863 10.5088 19.516 10.558C19.4808 10.5826 19.4517 10.602 19.4297 10.6162C19.4242 10.6198 19.4192 10.623 19.4146 10.6259C19.41 10.6289 19.4058 10.6315 19.4021 10.6338L19.3925 10.6397L19.3888 10.6419L19.3873 10.6429C19.3869 10.6431 19.3859 10.6437 19 10.0006L19.3859 10.6437C19.0307 10.8568 18.57 10.7417 18.3569 10.3865C18.1447 10.0328 18.258 9.57447 18.6097 9.36019L18.6152 9.35665C18.6225 9.35194 18.6363 9.3428 18.6558 9.32915C18.6949 9.3018 18.7562 9.25668 18.8324 9.19319C18.9853 9.06577 19.1948 8.86727 19.4055 8.59332C19.8227 8.05105 20.25 7.20795 20.25 6.0006C20.25 4.79326 19.8227 3.95015 19.4055 3.40788C19.1948 3.13393 18.9853 2.93543 18.8324 2.80802C18.7562 2.74452 18.6949 2.6994 18.6558 2.67206C18.6363 2.65841 18.6225 2.64927 18.6152 2.64455L18.6097 2.64102C18.258 2.42674 18.1447 1.96842 18.3569 1.61473Z" fill="#1C274C"/>
<path d="M10 10.0006C12.2091 10.0006 14 8.20974 14 6.0006C14 3.79146 12.2091 2.0006 10 2.0006C7.79086 2.0006 6 3.79146 6 6.0006C6 8.20974 7.79086 10.0006 10 10.0006Z" fill="#1C274C"/>
<path d="M2 17.5006C2 19.9859 2 22.0006 10 22.0006C18 22.0006 18 19.9859 18 17.5006C18 15.0153 14.4183 13.0006 10 13.0006C5.58172 13.0006 2 15.0153 2 17.5006Z" fill="#1C274C"/>
<path d="M17.3859 3.35748C17.0307 3.14437 16.57 3.25954 16.3569 3.61473L16.6051 4.63822L16.6129 4.64354C16.6246 4.65174 16.6468 4.66796 16.6761 4.69239C16.7353 4.74168 16.8198 4.82143 16.9055 4.93288C17.0727 5.15015 17.25 5.49326 17.25 6.0006C17.25 6.50795 17.0727 6.85105 16.9055 7.06832C16.8198 7.17977 16.7353 7.25952 16.6761 7.30881C16.6468 7.33324 16.6246 7.34946 16.6129 7.35766L16.6051 7.36298C16.257 7.57843 16.1456 8.03431 16.3569 8.38647C16.57 8.74166 17.0307 8.85683 17.3859 8.64372L17 8.0006C17.3859 8.64372 17.3855 8.64392 17.3859 8.64372L17.3872 8.64291L17.3887 8.64205L17.3918 8.64012L17.3993 8.63553L17.4185 8.62331C17.4332 8.61382 17.4515 8.60157 17.4731 8.58651C17.516 8.55643 17.572 8.51484 17.6364 8.46114C17.7647 8.35418 17.9302 8.19643 18.0945 7.98288C18.4273 7.55015 18.75 6.89326 18.75 6.0006C18.75 5.10795 18.4273 4.45105 18.0945 4.01832C17.9302 3.80477 17.7647 3.64702 17.6364 3.54006C17.572 3.48637 17.516 3.44477 17.4731 3.41469C17.4515 3.39963 17.4332 3.38739 17.4185 3.37789L17.3993 3.36568L17.3918 3.36108L17.3887 3.35916L17.3872 3.35829C17.3869 3.35809 17.3859 3.35748 17 4.0006L17.3859 3.35748Z" fill="#1C274C"/>
</svg>
