<svg width="24" height="24" viewBox="0 0 24 24" fill="none" xmlns="http://www.w3.org/2000/svg">
<path d="M14 6.00049C14 8.20963 12.2091 10.0005 10 10.0005C7.79086 10.0005 6 8.20963 6 6.00049C6 3.79135 7.79086 2.00049 10 2.00049C12.2091 2.00049 14 3.79135 14 6.00049Z" fill="#1C274C"/>
<path d="M18 17.5005C18 19.9858 18 22.0005 10 22.0005C2 22.0005 2 19.9858 2 17.5005C2 15.0152 5.58172 13.0005 10 13.0005C14.4183 13.0005 18 15.0152 18 17.5005Z" fill="#1C274C"/>
<path d="M20.9447 9.11676C21.2376 8.82386 21.2376 8.34899 20.9447 8.0561C20.6518 7.7632 20.1769 7.7632 19.884 8.0561L19.0002 8.93999L18.1163 8.05611C17.8234 7.76321 17.3485 7.76321 17.0556 8.05611C16.7627 8.349 16.7627 8.82387 17.0556 9.11677L17.9395 10.0007L17.0556 10.8845C16.7627 11.1774 16.7627 11.6523 17.0556 11.9452C17.3485 12.2381 17.8234 12.2381 18.1163 11.9452L19.0002 11.0613L19.884 11.9452C20.1769 12.2381 20.6518 12.2381 20.9447 11.9452C21.2376 11.6523 21.2376 11.1774 20.9447 10.8845L20.0608 10.0007L20.9447 9.11676Z" fill="#1C274C"/>
</svg>
