<svg width="24" height="24" viewBox="0 0 24 24" fill="none" xmlns="http://www.w3.org/2000/svg">
<path d="M12 10.0005C14.2091 10.0005 16 8.20963 16 6.00049C16 3.79135 14.2091 2.00049 12 2.00049C9.79086 2.00049 8 3.79135 8 6.00049C8 8.20963 9.79086 10.0005 12 10.0005Z" fill="#1C274C"/>
<path fill-rule="evenodd" clip-rule="evenodd" d="M18 15.7505C16.2051 15.7505 14.75 17.2056 14.75 19.0005C14.75 20.7954 16.2051 22.2505 18 22.2505C19.7949 22.2505 21.25 20.7954 21.25 19.0005C21.25 17.2056 19.7949 15.7505 18 15.7505ZM16.25 19.0005C16.25 18.034 17.0335 17.2505 18 17.2505C18.2063 17.2505 18.4043 17.2862 18.5881 17.3518L16.3513 19.5886C16.2857 19.4048 16.25 19.2068 16.25 19.0005ZM17.4119 20.6492L19.6487 18.4124C19.7143 18.5962 19.75 18.7942 19.75 19.0005C19.75 19.967 18.9665 20.7505 18 20.7505C17.7937 20.7505 17.5957 20.7148 17.4119 20.6492Z" fill="#1C274C"/>
<path d="M12 22.0005C4 22.0005 4 19.9858 4 17.5005C4 15.0152 7.58172 13.0005 12 13.0005C14.3695 13.0005 16.4983 13.5799 17.9632 14.5006C15.4949 14.5204 13.5 16.5275 13.5 19.0005C13.5 20.112 13.903 21.1293 14.5708 21.9144C13.8219 21.9709 12.9697 22.0005 12 22.0005Z" fill="#1C274C"/>
</svg>
