<svg width="24" height="24" viewBox="0 0 24 24" fill="none" xmlns="http://www.w3.org/2000/svg">
<circle cx="12" cy="6.00049" r="4" fill="#1C274C"/>
<path fill-rule="evenodd" clip-rule="evenodd" d="M21.4685 16.4149C21.792 16.6736 21.8444 17.1456 21.5857 17.469L19.5857 19.969C19.4524 20.1356 19.2545 20.2376 19.0415 20.2494C18.8285 20.2612 18.6205 20.1817 18.4697 20.0308L17.4697 19.0308C17.1768 18.738 17.1768 18.2631 17.4697 17.9702C17.7626 17.6773 18.2374 17.6773 18.5303 17.9702L18.9371 18.377L20.4143 16.532C20.6731 16.2085 21.1451 16.1561 21.4685 16.4149Z" fill="#1C274C"/>
<path d="M18.8272 16.1142L18.6433 16.3439C17.8773 16.1161 17.0138 16.3046 16.409 16.9094C15.5303 17.7881 15.5303 19.2127 16.409 20.0914L16.4207 20.103C15.2154 20.6647 13.6765 21.0015 12 21.0015C8.13401 21.0015 5 19.2106 5 17.0015C5 14.7923 8.13401 13.0015 12 13.0015C15.3324 13.0015 18.1209 14.3321 18.8272 16.1142Z" fill="#1C274C"/>
</svg>
