<svg width="24" height="24" viewBox="0 0 24 24" fill="none" xmlns="http://www.w3.org/2000/svg">
<path fill-rule="evenodd" clip-rule="evenodd" d="M22 12.0005C22 17.5233 17.5228 22.0005 12 22.0005C6.47715 22.0005 2 17.5233 2 12.0005C2 6.47764 6.47715 2.00049 12 2.00049C17.5228 2.00049 22 6.47764 22 12.0005ZM15 9.00049C15 10.6573 13.6569 12.0005 12 12.0005C10.3431 12.0005 9 10.6573 9 9.00049C9 7.34363 10.3431 6.00049 12 6.00049C13.6569 6.00049 15 7.34363 15 9.00049ZM12 20.5005C13.784 20.5005 15.4397 19.9509 16.8069 19.0117C17.4108 18.5969 17.6688 17.8067 17.3178 17.1637C16.59 15.8307 15.0902 15.0005 11.9999 15.0005C8.90969 15.0005 7.40997 15.8307 6.68214 17.1637C6.33105 17.8066 6.5891 18.5968 7.19296 19.0116C8.56018 19.9508 10.2159 20.5005 12 20.5005Z" fill="#1C274C"/>
</svg>
