<svg width="24" height="24" viewBox="0 0 24 24" fill="none" xmlns="http://www.w3.org/2000/svg">
<circle cx="12" cy="6.00049" r="4" fill="#1C274C"/>
<path fill-rule="evenodd" clip-rule="evenodd" d="M17.4697 16.9702C17.7626 16.6773 18.2374 16.6773 18.5303 16.9702L19 17.4398L19.4697 16.9702C19.7626 16.6773 20.2374 16.6773 20.5303 16.9702C20.8232 17.2631 20.8232 17.7379 20.5303 18.0308L20.0607 18.5005L20.5303 18.9702C20.8232 19.263 20.8232 19.7379 20.5303 20.0308C20.2374 20.3237 19.7626 20.3237 19.4697 20.0308L19 19.5612L18.5303 20.0308C18.2374 20.3237 17.7626 20.3237 17.4697 20.0308C17.1768 19.7379 17.1768 19.2631 17.4697 18.9702L17.9393 18.5005L17.4697 18.0308C17.1768 17.7379 17.1768 17.2631 17.4697 16.9702Z" fill="#1C274C"/>
<path d="M18.314 15.2724C17.6386 15.1777 16.9284 15.3901 16.409 15.9095C15.708 16.6105 15.5663 17.659 15.9838 18.5005C15.7012 19.0701 15.6748 19.7345 15.9047 20.3218C14.7893 20.751 13.4458 21.0015 12 21.0015C8.13401 21.0015 5 19.2106 5 17.0015C5 14.7923 8.13401 13.0015 12 13.0015C14.7822 13.0015 17.1853 13.929 18.314 15.2724Z" fill="#1C274C"/>
</svg>
