<svg width="24" height="24" viewBox="0 0 24 24" fill="none" xmlns="http://www.w3.org/2000/svg">
<circle cx="12" cy="6.00049" r="4" fill="#1C274C"/>
<path fill-rule="evenodd" clip-rule="evenodd" d="M18.9999 16.3362C19.4141 16.3362 19.7499 16.672 19.7499 17.0862V17.7504H20.4141C20.8283 17.7504 21.1641 18.0862 21.1641 18.5004C21.1641 18.9146 20.8283 19.2504 20.4141 19.2504H19.7499V19.9146C19.7499 20.3288 19.4141 20.6646 18.9999 20.6646C18.5857 20.6646 18.2499 20.3288 18.2499 19.9146L18.2499 19.2504H17.5857C17.1715 19.2504 16.8357 18.9146 16.8357 18.5004C16.8357 18.0862 17.1715 17.7504 17.5857 17.7504H18.2499L18.2499 17.0862C18.2499 16.672 18.5857 16.3362 18.9999 16.3362Z" fill="#1C274C"/>
<path d="M16.1421 20.2263C14.9822 20.7136 13.55 21.0015 12 21.0015C8.13401 21.0015 5 19.2106 5 17.0015C5 14.7923 8.13401 13.0015 12 13.0015C14.6101 13.0015 16.8866 13.8178 18.0902 15.028C17.5167 15.2819 17.0692 15.7684 16.8673 16.3678C15.9771 16.6677 15.3359 17.5093 15.3359 18.5006C15.3359 19.1937 15.6493 19.8136 16.1421 20.2263Z" fill="#1C274C"/>
</svg>
