<svg width="24" height="24" viewBox="0 0 24 24" fill="none" xmlns="http://www.w3.org/2000/svg">
<path d="M12.0171 12.9939C13.94 13.0395 15.7856 13.5937 17.38 14.5634C14.4913 17.5988 10.3915 19.7035 6.21502 20.1582C5.33561 19.5334 4.56158 18.7701 3.92479 17.8999C7.00231 17.4197 9.81188 15.7997 11.756 13.3262L12.0171 12.9939Z" fill="#1C274C"/>
<path d="M20.4402 17.3658C18.6653 20.1521 15.5485 22.0004 12 22.0004C10.7178 22.0004 9.49188 21.759 8.36531 21.3193C12.2683 20.4482 15.9424 18.3137 18.6152 15.4395C19.2956 15.9984 19.91 16.6437 20.4402 17.3658Z" fill="#1C274C"/>
<path d="M21.6241 11.3586L21.6261 11.3606L21.9965 11.7332C21.9988 11.822 22 11.911 22 12.0004C22 13.3881 21.7173 14.7097 21.2065 15.911C18.9642 13.2089 15.6375 11.5876 12.0812 11.4951C11.2524 10.0507 10.8302 8.43522 10.828 6.8116C14.8825 6.89038 18.7527 8.51817 21.6241 11.3586Z" fill="#1C274C"/>
<path d="M10.9458 5.31383C11.0638 4.57568 11.2705 3.84635 11.5673 3.14144L12.0477 2.00049C16.6314 2.02191 20.4864 5.12718 21.6445 9.34816C18.6556 6.83937 14.881 5.41039 10.9458 5.31383Z" fill="#1C274C"/>
<path d="M10.5766 12.3993C9.64853 13.5801 8.49484 14.5402 7.19986 15.2384C5.62198 11.4343 5.51513 7.26296 6.87932 3.40914C7.93127 2.78079 9.1083 2.34017 10.3642 2.13352L10.1849 2.55936C8.86607 5.69148 9.08193 9.24003 10.7467 12.1829L10.5766 12.3993Z" fill="#1C274C"/>
<path d="M4.8586 5.00035C3.09033 6.8041 2 9.27491 2 12.0004C2 13.6178 2.38398 15.1455 3.06576 16.4973C4.01958 16.4044 4.94937 16.1878 5.83307 15.8581C4.37799 12.3761 4.05507 8.6049 4.86431 4.99452L4.8586 5.00035Z" fill="#1C274C"/>
</svg>
