<svg width="24" height="24" viewBox="0 0 24 24" fill="none" xmlns="http://www.w3.org/2000/svg">
<path d="M13.9999 4.50049C13.9999 5.8812 12.8806 7.00049 11.4999 7.00049C10.1192 7.00049 8.99992 5.8812 8.99992 4.50049C8.99992 3.11978 10.1192 2.00049 11.4999 2.00049C12.8806 2.00049 13.9999 3.11978 13.9999 4.50049Z" fill="#1C274C"/>
<path fill-rule="evenodd" clip-rule="evenodd" d="M12.5278 10.7537C12.4897 10.751 12.4419 10.7505 12.2698 10.7505H11.1787L11.0875 11.662C10.9135 13.4024 10.8529 14.1018 11.0084 14.7635C11.1639 15.4253 11.5295 16.0245 12.4604 17.5053L15.0353 21.6013C15.2557 21.952 15.1501 22.415 14.7995 22.6354C14.4488 22.8559 13.9858 22.7503 13.7653 22.3996L11.1905 18.3036C11.166 18.2647 11.1418 18.2261 11.1178 18.188C10.2829 16.8604 9.76777 16.0412 9.54818 15.1066C9.3286 14.172 9.42504 13.2091 9.58134 11.6487C9.58583 11.6039 9.59037 11.5586 9.59495 11.5128L9.67108 10.7514C9.16991 10.754 8.79917 10.7637 8.49986 10.8C8.12265 10.8458 7.94672 10.9255 7.8221 11.0254C7.69748 11.1254 7.58154 11.2799 7.45502 11.6382C7.32169 12.0157 7.20688 12.5265 7.036 13.2955L6.73206 14.6632C6.6422 15.0675 6.24157 15.3225 5.83722 15.2326C5.43287 15.1428 5.17792 14.7421 5.26778 14.3378L5.58148 12.9261C5.73998 12.2128 5.8734 11.6122 6.04061 11.1387C6.21804 10.6362 6.45972 10.1953 6.88351 9.85537C7.3073 9.51542 7.79013 9.37514 8.31915 9.31094C8.81767 9.25044 9.43284 9.25046 10.1636 9.25049L12.2698 9.25049C12.2781 9.25049 12.2863 9.25049 12.2944 9.25049C12.4305 9.25046 12.5362 9.25044 12.635 9.25753C13.749 9.3374 14.7041 10.0831 15.0517 11.1444C15.0826 11.2386 15.1082 11.3412 15.1412 11.4732L15.1471 11.4971C15.2033 11.7216 15.22 11.7853 15.2354 11.8298C15.4457 12.4359 16.0806 12.7844 16.7048 12.6364C16.7506 12.6256 16.8134 12.6054 17.0329 12.5323L17.7627 12.289C18.1557 12.158 18.5804 12.3704 18.7114 12.7633C18.8424 13.1563 18.63 13.581 18.2371 13.712L17.5072 13.9553C17.4963 13.9589 17.4855 13.9625 17.4748 13.9661C17.3028 14.0235 17.1708 14.0675 17.0508 14.096C15.6776 14.4216 14.2808 13.6548 13.8183 12.3215C13.7779 12.205 13.7442 12.07 13.7002 11.8941C13.6975 11.8832 13.6947 11.8721 13.6919 11.8609C13.6502 11.6938 13.6381 11.6477 13.6263 11.6114C13.4682 11.1289 13.0341 10.79 12.5278 10.7537ZM9.41594 16.8765C9.76059 17.1062 9.85372 17.5719 9.62395 17.9165L6.62395 22.4165C6.39419 22.7612 5.92854 22.8543 5.58389 22.6245C5.23924 22.3948 5.14611 21.9291 5.37588 21.5845L8.37588 17.0845C8.60564 16.7398 9.0713 16.6467 9.41594 16.8765Z" fill="#1C274C"/>
</svg>
