<svg width="24" height="24" viewBox="0 0 24 24" fill="none" xmlns="http://www.w3.org/2000/svg">
<path fill-rule="evenodd" clip-rule="evenodd" d="M21.1009 8.00402C21.0442 8.00044 20.9825 8.00047 20.9186 8.00049L20.9026 8.0005H18.3941C16.3264 8.0005 14.5572 9.62805 14.5572 11.7505C14.5572 13.8729 16.3264 15.5005 18.3941 15.5005H20.9026L20.9186 15.5005C20.9825 15.5005 21.0442 15.5005 21.1009 15.497C21.9408 15.4439 22.6835 14.7867 22.746 13.8687C22.7501 13.8085 22.75 13.7436 22.75 13.6835L22.75 13.6672V9.83383L22.75 9.81751C22.75 9.75737 22.7501 9.69248 22.746 9.63229C22.6835 8.71429 21.9408 8.05706 21.1009 8.00402ZM18.1717 12.7505C18.704 12.7505 19.1355 12.3028 19.1355 11.7505C19.1355 11.1982 18.704 10.7505 18.1717 10.7505C17.6394 10.7505 17.2078 11.1982 17.2078 11.7505C17.2078 12.3028 17.6394 12.7505 18.1717 12.7505Z" fill="#1C274C"/>
<path fill-rule="evenodd" clip-rule="evenodd" d="M20.9179 17.0005C21.067 16.9966 21.1799 17.1347 21.1394 17.2783C20.9387 17.9907 20.62 18.598 20.1088 19.1092C19.3604 19.8576 18.4114 20.1897 17.239 20.3474C16.0998 20.5005 14.6442 20.5005 12.8064 20.5005H10.6936C8.85583 20.5005 7.40019 20.5005 6.26098 20.3474C5.08856 20.1897 4.13961 19.8576 3.39124 19.1092C2.64288 18.3609 2.31076 17.4119 2.15314 16.2395C1.99997 15.1003 1.99998 13.6447 2 11.8069V11.6941C1.99998 9.85631 1.99997 8.40068 2.15314 7.26147C2.31076 6.08904 2.64288 5.1401 3.39124 4.39173C4.13961 3.64337 5.08856 3.31125 6.26098 3.15362C7.40019 3.00046 8.85582 3.00047 10.6936 3.00049L12.8064 3.00049C14.6442 3.00047 16.0998 3.00046 17.239 3.15362C18.4114 3.31125 19.3604 3.64337 20.1088 4.39173C20.62 4.90301 20.9386 5.51023 21.1394 6.22267C21.1799 6.36624 21.067 6.50436 20.9179 6.50049L18.394 6.5005C15.5574 6.5005 13.0571 8.7414 13.0571 11.7505C13.0571 14.7596 15.5574 17.0005 18.394 17.0005L20.9179 17.0005ZM7 15.5005C6.58579 15.5005 6.25 15.1647 6.25 14.7505V8.75049C6.25 8.33627 6.58579 8.00049 7 8.00049C7.41421 8.00049 7.75 8.33627 7.75 8.75049V14.7505C7.75 15.1647 7.41421 15.5005 7 15.5005Z" fill="#1C274C"/>
</svg>
