<svg width="24" height="24" viewBox="0 0 24 24" fill="none" xmlns="http://www.w3.org/2000/svg">
<path d="M8.11547 14.2082C8.00236 14.281 7.88681 14.3549 7.77104 14.4257C7.98453 16.5731 9.79642 18.2501 12 18.2501C14.3472 18.2501 16.25 16.3473 16.25 14.0001L16.25 13.9946C16.1169 14.0185 15.9793 14.0398 15.8461 14.0605L15.8305 14.0629C15.6688 14.0879 15.5091 14.1126 15.3451 14.1421C14.6442 14.2684 14.0781 14.2173 13.5869 14.0361C13.1303 13.8676 12.786 13.6004 12.5321 13.4032L12.5084 13.3849C12.233 13.1712 12.0529 13.0379 11.83 12.9556C11.6273 12.8809 11.3371 12.8322 10.857 12.9187C10.1533 13.0456 9.52387 13.345 8.9424 13.6881C8.69352 13.835 8.46278 13.984 8.23511 14.131L8.11547 14.2082Z" fill="#1C274C"/>
<path fill-rule="evenodd" clip-rule="evenodd" d="M3 10.0001C3 6.22889 3 4.34327 4.17157 3.17169C5.34315 2.00012 7.22876 2.00012 11 2.00012H13C16.7712 2.00012 18.6569 2.00012 19.8284 3.17169C21 4.34327 21 6.22889 21 10.0001V14.0001C21 17.7714 21 19.657 19.8284 20.8285C18.6569 22.0001 16.7712 22.0001 13 22.0001H11C7.22876 22.0001 5.34315 22.0001 4.17157 20.8285C3 19.657 3 17.7714 3 14.0001V10.0001ZM17.75 14.0001C17.75 13.7809 17.7377 13.5645 17.7138 13.3516L17.7338 13.3379L17.643 12.8904C17.1259 10.2458 14.796 8.25012 12 8.25012C8.82436 8.25012 6.25 10.8245 6.25 14.0001C6.25 17.1758 8.82436 19.7501 12 19.7501C15.1756 19.7501 17.75 17.1758 17.75 14.0001ZM8 5.25012C7.58579 5.25012 7.25 5.58591 7.25 6.00012C7.25 6.41434 7.58579 6.75012 8 6.75012H16C16.4142 6.75012 16.75 6.41434 16.75 6.00012C16.75 5.58591 16.4142 5.25012 16 5.25012H8Z" fill="#1C274C"/>
</svg>
