<svg width="24" height="24" viewBox="0 0 24 24" fill="none" xmlns="http://www.w3.org/2000/svg">
<path fill-rule="evenodd" clip-rule="evenodd" d="M12 18.9772C15.866 18.9772 19 15.8536 19 12.0005C19 8.14734 15.866 5.02375 12 5.02375C8.13401 5.02375 5 8.14734 5 12.0005C5 15.8536 8.13401 18.9772 12 18.9772ZM12 8.44056C12.3866 8.44056 12.7 8.75292 12.7 9.13823V11.7035L14.3518 13.2865C14.6305 13.5536 14.6392 13.9952 14.3713 14.273C14.1033 14.5507 13.6602 14.5594 13.3815 14.2923L11.5148 12.5034C11.3776 12.3719 11.3 12.1903 11.3 12.0005V9.13823C11.3 8.75292 11.6134 8.44056 12 8.44056Z" fill="#1C274C"/>
<path d="M9.85849 2.07483C10.4136 2.00044 11.1129 2.00046 11.9515 2.00049H12.0485C12.8871 2.00046 13.5864 2.00044 14.1415 2.07483C14.7275 2.15334 15.2565 2.32606 15.6816 2.74975C16.1067 3.17344 16.28 3.7007 16.3587 4.2847C16.3832 4.4658 16.3996 4.6623 16.4107 4.87402C15.1287 4.08421 13.6178 3.6284 12 3.6284C10.3822 3.6284 8.87125 4.08421 7.58934 4.87402C7.60039 4.6623 7.61682 4.4658 7.64125 4.2847C7.72003 3.7007 7.89332 3.17344 8.31843 2.74975C8.74353 2.32606 9.27254 2.15334 9.85849 2.07483Z" fill="#1C274C"/>
<path d="M15.6816 21.2512C16.1067 20.8275 16.28 20.3003 16.3587 19.7163C16.3832 19.5352 16.3996 19.3387 16.4107 19.127C15.1287 19.9168 13.6178 20.3726 12 20.3726C10.3822 20.3726 8.87125 19.9168 7.58934 19.127C7.60039 19.3387 7.61682 19.5352 7.64125 19.7163C7.72003 20.3003 7.89332 20.8275 8.31843 21.2512C8.74353 21.6749 9.27254 21.8476 9.85849 21.9261C10.4136 22.0005 11.1129 22.0005 11.9515 22.0005H12.0485C12.8871 22.0005 13.5864 22.0005 14.1415 21.9261C14.7275 21.8476 15.2565 21.6749 15.6816 21.2512Z" fill="#1C274C"/>
</svg>
