<svg width="24" height="24" viewBox="0 0 24 24" fill="none" xmlns="http://www.w3.org/2000/svg">
<path fill-rule="evenodd" clip-rule="evenodd" d="M4.58143 6.0111C5.2722 4.99543 6.71504 5.03332 7.44335 5.91011C8.42532 7.09228 9.80968 8.25056 11.9999 8.25056C14.2277 8.25056 15.5908 7.32068 16.5185 6.15444C17.2399 5.24747 18.7773 5.10176 19.5335 6.17766C20.1519 7.05764 20.8279 7.75856 22.1622 8.05426C22.5666 8.14388 22.8218 8.54436 22.7322 8.94877C22.6425 9.35317 22.242 9.60835 21.8376 9.51873C19.9966 9.11075 19.039 8.08286 18.3062 7.04013C18.2576 6.97097 18.1707 6.9199 18.0397 6.92224C17.9037 6.92466 17.7729 6.98695 17.6924 7.08819C16.5171 8.56579 14.741 9.75056 11.9999 9.75056C9.17705 9.75056 7.41063 8.21826 6.2895 6.86856L6.86642 6.38933L6.2895 6.86856C6.22425 6.79001 6.12726 6.74863 6.0286 6.75062C5.93325 6.75255 5.86388 6.79272 5.82176 6.85466C5.07558 7.9518 4.11832 9.08523 2.16219 9.51873C1.75778 9.60835 1.3573 9.35317 1.26768 8.94877C1.17806 8.54436 1.43324 8.14388 1.83765 8.05426C3.24956 7.74137 3.92582 6.97509 4.58143 6.0111ZM4.58143 11.0111C5.2722 9.99543 6.71504 10.0333 7.44335 10.9101C8.42532 12.0923 9.80968 13.2506 11.9999 13.2506C14.2277 13.2506 15.5908 12.3207 16.5185 11.1544C17.2399 10.2475 18.7773 10.1018 19.5335 11.1777C20.1519 12.0576 20.8279 12.7586 22.1622 13.0543C22.5666 13.1439 22.8218 13.5444 22.7322 13.9488C22.6425 14.3532 22.242 14.6083 21.8376 14.5187C19.9966 14.1107 19.039 13.0829 18.3062 12.0401C18.2576 11.971 18.1707 11.9199 18.0397 11.9222C17.9037 11.9247 17.7729 11.987 17.6924 12.0882C16.5171 13.5658 14.741 14.7506 11.9999 14.7506C9.17705 14.7506 7.41063 13.2183 6.2895 11.8686C6.22425 11.79 6.12726 11.7486 6.0286 11.7506C5.93325 11.7526 5.86388 11.7927 5.82176 11.8547C5.07558 12.9518 4.11832 14.0852 2.16219 14.5187C1.75778 14.6083 1.3573 14.3532 1.26768 13.9488C1.17806 13.5444 1.43324 13.1439 1.83765 13.0543C3.24956 12.7414 3.92582 11.9751 4.58143 11.0111ZM4.58143 16.0111C5.2722 14.9954 6.71504 15.0333 7.44335 15.9101C8.42532 17.0923 9.80968 18.2506 11.9999 18.2506C14.2277 18.2506 15.5908 17.3207 16.5185 16.1544C17.2399 15.2475 18.7773 15.1018 19.5335 16.1777C20.1519 17.0576 20.8279 17.7586 22.1622 18.0543C22.5666 18.1439 22.8218 18.5444 22.7322 18.9488C22.6425 19.3532 22.242 19.6083 21.8376 19.5187C19.9966 19.1107 19.039 18.0829 18.3062 17.0401C18.2576 16.971 18.1707 16.9199 18.0397 16.9222C17.9037 16.9247 17.7729 16.987 17.6924 17.0882C16.5171 18.5658 14.741 19.7506 11.9999 19.7506C9.17705 19.7506 7.41063 18.2183 6.2895 16.8686C6.22425 16.79 6.12726 16.7486 6.0286 16.7506C5.93325 16.7525 5.86388 16.7927 5.82176 16.8547C5.07558 17.9518 4.11832 19.0852 2.16219 19.5187C1.75778 19.6083 1.3573 19.3532 1.26768 18.9488C1.17806 18.5444 1.43324 18.1439 1.83765 18.0543C3.24956 17.7414 3.92582 16.9751 4.58143 16.0111Z" fill="#1C274C"/>
</svg>
