<svg width="24" height="24" viewBox="0 0 24 24" fill="none" xmlns="http://www.w3.org/2000/svg">
<path fill-rule="evenodd" clip-rule="evenodd" d="M1.75 6.50049C1.75 3.87714 3.87665 1.75049 6.5 1.75049C9.12335 1.75049 11.25 3.87714 11.25 6.50049C11.25 9.12384 9.12335 11.2505 6.5 11.2505C3.87665 11.2505 1.75 9.12384 1.75 6.50049Z" fill="#1C274C"/>
<path fill-rule="evenodd" clip-rule="evenodd" d="M12.75 17.5005C12.75 14.8771 14.8766 12.7505 17.5 12.7505C20.1234 12.7505 22.25 14.8771 22.25 17.5005C22.25 20.1238 20.1234 22.2505 17.5 22.2505C14.8766 22.2505 12.75 20.1238 12.75 17.5005Z" fill="#1C274C"/>
<path fill-rule="evenodd" clip-rule="evenodd" d="M22.25 6.50049C22.25 3.87714 20.1234 1.75049 17.5 1.75049C14.8766 1.75049 12.75 3.87714 12.75 6.50049C12.75 9.12384 14.8766 11.2505 17.5 11.2505C20.1234 11.2505 22.25 9.12384 22.25 6.50049Z" fill="#1C274C"/>
<path fill-rule="evenodd" clip-rule="evenodd" d="M11.25 17.5005C11.25 14.8771 9.12335 12.7505 6.5 12.7505C3.87665 12.7505 1.75 14.8771 1.75 17.5005C1.75 20.1238 3.87665 22.2505 6.5 22.2505C9.12335 22.2505 11.25 20.1238 11.25 17.5005Z" fill="#1C274C"/>
</svg>
