<svg width="24" height="24" viewBox="0 0 24 24" fill="none" xmlns="http://www.w3.org/2000/svg">
<path d="M5 4.89486C5 3.84843 5.8483 3.00012 6.89474 3.00012H17.1053C18.1517 3.00012 19 3.84842 19 4.89486V8.00012C19 8.0838 18.9985 8.16713 18.9956 8.25009C18.9032 8.25059 18.8094 8.26825 18.7185 8.30496L18.7148 8.30644L18.6981 8.3131C18.683 8.31911 18.6598 8.32822 18.6295 8.34001C18.5688 8.36358 18.4792 8.39781 18.3666 8.43936C18.1409 8.5226 17.8245 8.63452 17.4626 8.74886C16.722 8.98289 15.8541 9.2064 15.1885 9.24414C14.1043 9.30562 13.3288 8.88563 12.3672 8.34602L12.3243 8.32188C11.3911 7.79799 10.2738 7.17068 8.72697 7.25839C7.86456 7.30729 6.84781 7.58021 6.08585 7.82097C5.69641 7.94402 5.35704 8.06407 5.11471 8.15346C5.0747 8.16822 5.03728 8.18216 5.00266 8.19516C5.00089 8.13036 5 8.06535 5 8.00012V4.89486Z" fill="#1C274C"/>
<path d="M5.21268 9.71932C5.91966 12.5191 8.31356 14.6476 11.25 14.9604V20.2501H8C7.58579 20.2501 7.25 20.5858 7.25 21.0001C7.25 21.4143 7.58579 21.7501 8 21.7501H16C16.4142 21.7501 16.75 21.4143 16.75 21.0001C16.75 20.5858 16.4142 20.2501 16 20.2501H12.75V14.9604C15.6229 14.6544 17.9765 12.6104 18.7391 9.90015C18.514 9.9813 18.2308 10.0792 17.9145 10.1792C17.1526 10.4199 16.1358 10.6928 15.2734 10.7417C13.7266 10.8294 12.6093 10.2021 11.6761 9.67825L11.6332 9.65411C10.6716 9.1145 9.89609 8.69451 8.81189 8.75599C8.1463 8.79373 7.27844 9.01724 6.53778 9.25127C6.17591 9.36561 5.85947 9.47753 5.63383 9.56077C5.52118 9.60232 5.43164 9.63654 5.3709 9.66012C5.34055 9.67191 5.31743 9.68102 5.30225 9.68703L5.28556 9.69368L5.28186 9.69517C5.25896 9.70442 5.23588 9.71246 5.21268 9.71932Z" fill="#1C274C"/>
</svg>
